<?xml version="1.0" encoding="utf-8"?><!DOCTYPE svg PUBLIC "-//W3C//DTD SVG 1.1//EN" "http://www.w3.org/Graphics/SVG/1.1/DTD/svg11.dtd"><svg version="1.1" xmlns="http://www.w3.org/2000/svg" xmlns:xlink="http://www.w3.org/1999/xlink" x="0px" y="0px" width="150px" height="150px" viewBox="0 0 150 150" enable-background="new 0 0 150 150" xml:space="preserve"><g id="Layer_2" display="none"><rect y="-1017.3" display="inline" fill="#F0F0F0" width="1680" height="1677.3"/></g><g id="Layer_1"/><g id="Layer_3"><path fill="#FFFFFF" d="M114.1,137.8l-96.7-15.2c-1.4-0.2-2.3-1.5-2.1-2.9L32,13.7c0.2-1.4,1.5-2.3,2.9-2.1l96.7,15.2 c1.4,0.2,2.3,1.5,2.1,2.9L117,135.7C116.8,137.1,115.5,138,114.1,137.8z"/><rect x="30.2" y="25.9" transform="matrix(0.9878 0.1557 -0.1557 0.9878 11.1152 -11.0458)" fill="#66E6ED" width="91.6" height="79"/><path fill="#FFC715" d="M58.4,77.7l-0.7-22.8C57.4,43.9,66,34.8,77,34.4h0c11-0.3,20.2,8.3,20.5,19.3l0.7,22.8"/><rect x="26" y="80.4" transform="matrix(0.9878 0.1557 -0.1557 0.9878 15.2842 -10.0496)" fill="#8BC12B" width="91.6" height="24.2"/><path fill="#D33131" d="M49.8,101.3l1.5-9.7c1.8-11.2,12.3-18.9,23.5-17.1l0,0C86,76.3,93.7,86.8,91.9,98l-1.5,9.7"/><path fill="#D8826F" d="M73.4,83.6L73.4,83.6c-4.1-0.7-7-4.6-6.4-8.7l1.6-10.5c0.7-4.1,4.6-7,8.7-6.4l0,0c4.1,0.7,7,4.6,6.4,8.7 l-1.6,10.5C81.5,81.4,77.6,84.2,73.4,83.6z"/><path fill="#E8957C" d="M78.3,75.1L78.3,75.1c-8.6,0.3-15.8-6.6-16.1-15.2l-0.2-5.4c-0.3-8.6,6.6-15.8,15.2-16.1h0 c8.6-0.3,15.8,6.6,16.1,15.2l0.2,5.4C93.7,67.6,86.9,74.9,78.3,75.1z"/><path fill="#FFC715" d="M57.9,51.9l39.3-1.1C95.4,41.3,87,34.2,77,34.4h0C67.1,34.7,59,42.3,57.9,51.9z"/><path fill="#E8957C" d="M86.2,107l4.6-29c0.5-3.4,3.7-5.7,7.1-5.1h0c3.4,0.5,5.7,3.7,5.1,7.1l-4.6,29"/><path fill="#E8957C" d="M94.2,91.2L94.2,91.2c-1.5,1.1-3.5,0.7-4.6-0.7l-4.2-5.7c-1.1-1.5-0.7-3.5,0.7-4.6v0 c1.5-1.1,3.5-0.7,4.6,0.7l4.2,5.7C96,88,95.6,90.1,94.2,91.2z"/><rect x="87.2" y="94.8" transform="matrix(0.9878 0.1557 -0.1557 0.9878 16.9318 -13.2975)" fill="#C12121" width="12.3" height="13.3"/></g></svg>