<?xml version="1.0" encoding="utf-8"?><!DOCTYPE svg PUBLIC "-//W3C//DTD SVG 1.1//EN" "http://www.w3.org/Graphics/SVG/1.1/DTD/svg11.dtd"><svg version="1.1" id="Layer_1" xmlns="http://www.w3.org/2000/svg" xmlns:xlink="http://www.w3.org/1999/xlink" x="0px" y="0px" width="150px" height="150px" viewBox="0 0 150 150" enable-background="new 0 0 150 150" xml:space="preserve"><path fill="#EAC771" d="M20.6,126.2c0.5,0.1,0.9,0.1,1.4,0.1c0.1-0.2,0.2-0.5,0.2-0.7c1.3-4,6.8-3.2,7.7,0c1.5-0.2,2.9-0.5,4.4-0.6	c4.7-0.5,9.3-0.6,14-0.6c4.6,0.1,9.2,0.4,13.8,0.4c4.6,0,9-0.7,13.5-1.3c9.1-1.1,18.4,1.7,27.5,2c4.4,0.1,8.9,0,13.3,0.3	c4.8,0.3,9.5,0.9,14.3,0.7c2.4-0.1,3.7,1.7,3.8,3.7h9.7l0-71.5c0-22-17.9-39.9-39.9-39.9H46.6c-22,0-39.9,17.9-39.9,39.9l0,71.5	h10.1C16.8,128,18.4,125.9,20.6,126.2z"/><path fill="#6D1616" d="M135.4,123.2H15.6v-42c0-29.6,24-53.7,53.7-53.7h12.5c29.6,0,53.7,24,53.7,53.7V123.2z"/><path fill="#D33131" d="M38.7,114.3c0.1-0.8,0.1-1.6,0.1-2.5V92.2C38.8,79.4,28.4,69,15.6,69l0,0v45.3H38.7z"/><path fill="#D33131" d="M15.7,59.9v23.5c30.9,0,55.9-25,55.9-55.9H50.7C32.2,27.5,17.1,41.8,15.7,59.9z"/><rect x="15.6" y="121" fill="#993D28" width="119.9" height="9.1"/><path fill="#BA2424" d="M37.2,84.2H16c-0.2,0-0.4-0.2-0.4-0.4v-4.1c0-0.2,0.2-0.4,0.4-0.4h21.2c1.4,0,2.5,1.1,2.5,2.5v0	C39.6,83.1,38.5,84.2,37.2,84.2z"/><path fill="#D33131" d="M112.3,114.3c-0.1-0.8-0.1-1.6-0.1-2.5V92.2c0-12.8,10.4-23.2,23.2-23.2l0,0v45.3H112.3z"/><path fill="#D33131" d="M135.2,59.9v23.5c-30.9,0-55.9-25-55.9-55.9h20.9C118.7,27.5,133.8,41.8,135.2,59.9z"/><path fill="#BA2424" d="M113.8,84.2H135c0.2,0,0.4-0.2,0.4-0.4v-4.1c0-0.2-0.2-0.4-0.4-0.4h-21.2c-1.4,0-2.5,1.1-2.5,2.5v0	C111.3,83.1,112.4,84.2,113.8,84.2z"/><path fill="#BA2424" d="M92.2,27.5c0,9.2-7.5,16.7-16.7,16.7s-16.7-7.5-16.7-16.7"/><path fill="#BA2424" d="M46.1,44.2c9.2,0,16.7-7.5,16.7-16.7h-12c-7.5,0-14.4,2.3-20,6.3C33.1,39.9,39.1,44.2,46.1,44.2z"/><path fill="#BA2424" d="M104.9,44.2c7,0,12.9-4.3,15.4-10.4c-5.7-4-12.6-6.3-20-6.3h-12C88.3,36.7,95.7,44.2,104.9,44.2z"/></svg>