<?xml version="1.0" encoding="utf-8"?><!DOCTYPE svg PUBLIC "-//W3C//DTD SVG 1.1//EN" "http://www.w3.org/Graphics/SVG/1.1/DTD/svg11.dtd"><svg version="1.1" id="Layer_1" xmlns="http://www.w3.org/2000/svg" xmlns:xlink="http://www.w3.org/1999/xlink" x="0px" y="0px" width="150px" height="150px" viewBox="0 0 150 150" enable-background="new 0 0 150 150" xml:space="preserve"><polygon fill="#9B2929" points="103.4,123.1 103.4,49.5 100.4,42.2 50,42.2 47,49.5 47,123.2 47,123.2 50,130.4 100.4,130.4 103.4,123.1"/><rect x="49" y="38.2" fill="#BABABA" width="52.3" height="3.9"/><path fill="#BABABA" d="M75.2,41l-9-9c-0.9-0.9-0.9-2.3,0-3.2l0,0c0.9-0.9,2.3-0.9,3.2,0l9,9c0.9,0.9,0.9,2.3,0,3.2l0,0	C77.5,41.9,76.1,41.9,75.2,41z"/><rect x="47" y="49.5" fill="#B52C2C" width="56.4" height="73.6"/><polygon fill="#CC3333" points="103.4,49.5 47,49.5 50,42.2 100.4,42.2"/><polygon fill="#9B2929" points="47,123.1 103.4,123.1 100.4,130.4 50,130.4"/><path fill="#CC3333" d="M60.6,119.1L60.6,119.1c-3,0-5.5-2.5-5.5-5.5v-66c0-3,2.5-5.5,5.5-5.5h0c3,0,5.5,2.5,5.5,5.5v66	C66.1,116.7,63.7,119.1,60.6,119.1z"/><path fill="#9B2929" d="M94,123.1V77.5c0-2.6,2.1-4.7,4.7-4.7s4.7,2.1,4.7,4.7v45.6"/><path fill="#FFFFFF" d="M73.9,130.4H90c0-53.7-11.3-54.9-8.1-71.7c1.5-7.7,4.5-13,7.4-16.5h-8.7c-1.3,2.4-3.2,7.2-3.9,15.8	c-1.1,13.9,4.8,30.5,3.7,43.8C79.5,112.3,77.2,123,73.9,130.4z"/><circle fill="#FFFFFF" cx="84.9" cy="30.2" r="3.3"/><circle fill="#FFFFFF" cx="72.9" cy="18.1" r="4.2"/><rect x="49" y="130.2" fill="#BABABA" width="52.3" height="3.9"/><path fill="#D9D7DB" d="M90,130.2c0-2.5,0-4.9-0.1-7.1H76.6c-0.8,2.6-1.6,5-2.5,7.1H90z"/></svg>