<?xml version="1.0" encoding="utf-8"?><!DOCTYPE svg PUBLIC "-//W3C//DTD SVG 1.1//EN" "http://www.w3.org/Graphics/SVG/1.1/DTD/svg11.dtd"><svg version="1.1" xmlns="http://www.w3.org/2000/svg" xmlns:xlink="http://www.w3.org/1999/xlink" x="0px" y="0px" width="150px" height="150px" viewBox="0 0 150 150" enable-background="new 0 0 150 150" xml:space="preserve"><g id="Layer_2" display="none"><rect x="-680" y="-1187.3" display="inline" fill="#F0F0F0" width="1680" height="1677.3"/></g><g id="Layer_1"><path fill="#E8957C" d="M85.1,56.8l-72.5,0c-2.8,0-5.1-2.3-5.1-5.1l0-32.2c0-2.8,2.3-5.1,5.1-5.1l72.5,0c11.7,0,21.3,9.5,21.3,21.3 v0C106.4,47.3,96.9,56.8,85.1,56.8z"/><path fill="#E8957C" d="M106.4,35.7v75.8c0,9-7.3,16.3-16.3,16.3h0c-9,0-16.3-7.3-16.3-16.3V35.7c0-9,7.3-16.3,16.3-16.3h0 C99.1,19.4,106.4,26.7,106.4,35.7z"/><rect x="73.8" y="76.5" fill="#FFFFFF" width="32.7" height="42.8"/><path fill="#1CB0F6" d="M139.4,133H76.9c-1.7,0-3.1-1.4-3.1-3.1v-20.9h46.5c11.9,0,21.6,9.7,21.6,21.6v0 C141.8,131.9,140.8,133,139.4,133z"/><path fill="#1CB0F6" d="M106.5,114.2L106.5,114.2c-1.6,0-2.8-1.3-2.8-2.8v-8c0-1.6,1.3-2.8,2.8-2.8h0c1.6,0,2.8,1.3,2.8,2.8v8 C109.3,112.9,108.1,114.2,106.5,114.2z"/><path fill="#1CB0F6" d="M73.8,101.2c4,0,7.2,3.2,7.2,7.2c0,4-3.2,7.2-7.2,7.2"/><path fill="#FFFFFF" d="M142.5,135.8H73c-0.8,0-1.4-0.6-1.4-1.4v-2.8c0-0.8,0.6-1.4,1.4-1.4h69.5c0.8,0,1.4,0.6,1.4,1.4v2.8 C143.9,135.2,143.2,135.8,142.5,135.8z"/><rect x="73.8" y="82.6" fill="#D33131" width="32.6" height="4.6"/><rect x="110.7" y="107.2" fill="#FFFFFF" width="4.1" height="12"/><rect x="119.8" y="107.2" fill="#FFFFFF" width="4.1" height="12"/><path fill="#E8957C" d="M98.2,40.3H80.9c-6.5,0-11.7-5.3-11.7-11.7V26c0-6.5,5.3-11.7,11.7-11.7h17.2c6.5,0,11.7,5.3,11.7,11.7v2.5 C109.9,35.1,104.6,40.3,98.2,40.3z"/></g><g id="Layer_3"/></svg>