<?xml version="1.0" encoding="utf-8"?><!DOCTYPE svg PUBLIC "-//W3C//DTD SVG 1.1//EN" "http://www.w3.org/Graphics/SVG/1.1/DTD/svg11.dtd"><svg version="1.1" id="Layer_1" xmlns="http://www.w3.org/2000/svg" xmlns:xlink="http://www.w3.org/1999/xlink" x="0px" y="0px" width="150px" height="150px" viewBox="0 0 150 150" enable-background="new 0 0 150 150" xml:space="preserve"><circle fill="#FF9D8A" cx="51.8" cy="48.8" r="4.7"/><circle fill="#FF9D8A" cx="97" cy="48.8" r="4.7"/><path fill="#FFB5A1" d="M74.4,74.1L74.4,74.1C62,74.1,51.8,64,51.8,51.5v-5.5c0-12.4,10.2-22.6,22.6-22.6h0	C86.9,23.5,97,33.7,97,46.1v5.5C97,64,86.9,74.1,74.4,74.1z"/><path fill="#FFB5A1" d="M74.5,132.5L74.5,132.5c-12.3,0-22.4-10.1-22.4-22.4V80.9c0-12.3,10.1-22.4,22.4-22.4h0	c12.3,0,22.4,10.1,22.4,22.4V110C96.9,122.4,86.8,132.5,74.5,132.5z"/><path fill="#FFFFFF" d="M103.8,96.5v8.2c0,16.1-13.2,29.3-29.3,29.3h0c-16.1,0-29.3-13.2-29.3-29.3v-8.2c0-1.5,1.2-2.7,2.7-2.7h53.4	C102.6,93.8,103.8,95,103.8,96.5z"/><rect x="45.1" y="101.3" fill="#DBDBDB" width="16.1" height="7.7"/><rect x="87.6" y="101.3" fill="#DBDBDB" width="16.1" height="7.7"/><circle fill="#EA9486" cx="63.1" cy="44.1" r="2.6"/><circle fill="#EA9486" cx="85.8" cy="44.1" r="2.6"/><path fill="#FFB5A1" d="M118.5,81.9H31.9c-4.5,0-8.2-3.7-8.2-8.2v0c0-4.5,3.7-8.2,8.2-8.2h86.6c4.5,0,8.2,3.7,8.2,8.2v0	C126.7,78.3,123,81.9,118.5,81.9z"/><rect x="71" y="40.7" fill="#FF9D8A" width="6.8" height="6.9"/><path fill="#B2473B" d="M85.1,52.3c0,5.9-4.8,10.6-10.6,10.6s-10.6-4.8-10.6-10.6"/><path fill="#CC4F46" d="M80.7,60.9c-1.4-1.8-3.7-3-6.2-3h0c-2.5,0-4.7,1.2-6.2,3c1.7,1.2,3.9,2,6.2,2C76.8,62.9,78.9,62.2,80.7,60.9	z"/><path fill="#FFD72E" d="M75.4,26.3c0-3.2,2.7-5.8,6-5.7c1.2,0.1,2.3,0.6,3.1,1.4c1.1,1,1.7,1.9,2,2.8c0.2,0.5,1,0.4,1-0.1	c0.1-0.8,0.1-1.6,0-2.4c-0.5-3.4-3.3-6-6.7-6.4c-4.6-0.5-8.4,3.1-8.4,7.5c0,2.3,1,4.3,2.6,5.7c0.4,0.4,1.1-0.1,0.8-0.6	C75.6,27.9,75.4,27.2,75.4,26.3z"/><path fill="#FFB5A1" d="M35.6,133.5h21c4.8,0,8.7-3.9,8.7-8.7v0c0-4.8-3.9-8.7-8.7-8.7h-21c-4.8,0-8.7,3.9-8.7,8.7v0	C26.9,129.6,30.8,133.5,35.6,133.5z"/><path fill="#FF9D8A" d="M35.5,133.5L35.5,133.5c5.3,0,9.6-4.3,9.6-9.6v-10c0-5.3-4.3-9.6-9.6-9.6h0c-5.3,0-9.6,4.3-9.6,9.6v10	C25.8,129.2,30.2,133.5,35.5,133.5z"/><path fill="#FFB5A1" d="M113.4,133.5h-21c-4.8,0-8.7-3.9-8.7-8.7v0c0-4.8,3.9-8.7,8.7-8.7h21c4.8,0,8.7,3.9,8.7,8.7v0	C122.1,129.6,118.2,133.5,113.4,133.5z"/><path fill="#FF9D8A" d="M113.6,133.5L113.6,133.5c-5.3,0-9.6-4.3-9.6-9.6v-10c0-5.3,4.3-9.6,9.6-9.6h0c5.3,0,9.6,4.3,9.6,9.6v10	C123.2,129.2,118.9,133.5,113.6,133.5z"/></svg>