<?xml version="1.0" encoding="utf-8"?><!DOCTYPE svg PUBLIC "-//W3C//DTD SVG 1.1//EN" "http://www.w3.org/Graphics/SVG/1.1/DTD/svg11.dtd"><svg version="1.1" id="Layer_1" xmlns="http://www.w3.org/2000/svg" xmlns:xlink="http://www.w3.org/1999/xlink" x="0px" y="0px" width="150px" height="150px" viewBox="0 0 150 150" enable-background="new 0 0 150 150" xml:space="preserve"><path fill="#FFB5A1" d="M129.4,141.4H20.1C13.4,141.4,8,136,8,129.3V20c0-6.7,5.4-12.1,12.1-12.1h109.3c6.7,0,12.1,5.4,12.1,12.1	v109.3C141.5,136,136.1,141.4,129.4,141.4z"/><path fill="#B2473B" d="M128.2,33.3c0,29.4-23.8,53.2-53.2,53.2S21.8,62.7,21.8,33.3"/><path fill="#932F2A" d="M91.6,54.6c-6.1,0-11.1,4.9-11.1,11.1v0.3c0,3.2-2.6,5.8-5.8,5.8c-3.2,0-5.8-2.6-5.8-5.8v-0.3	c0-6.1-4.9-11.1-11.1-11.1c-6.1,0-11.1,4.9-11.1,11.1v12.8c8.2,5.1,17.8,8.1,28.2,8.1c10.1,0,19.6-2.8,27.7-7.7V65.7	C102.7,59.6,97.7,54.6,91.6,54.6z"/><path fill="#CC4F46" d="M85.2,75.9H64.3c-4.2,0-7.6,3.4-7.6,7.6v23.5c0,9.9,8.1,18.1,18.1,18.1s18.1-8.1,18.1-18.1V83.6	C92.8,79.4,89.4,75.9,85.2,75.9z"/><path fill="#C14340" d="M74.8,114.6L74.8,114.6c-0.9,0-1.6-0.7-1.6-1.6V85.2c0-0.9,0.7-1.6,1.6-1.6h0.1c0.9,0,1.6,0.7,1.6,1.6V113	C76.4,113.9,75.6,114.6,74.8,114.6z"/><path fill="#FFFFFF" d="M24.4,50h101.1c1.8-5.4,2.8-11.1,2.8-17H21.6C21.6,39,22.6,44.7,24.4,50z"/></svg>