<?xml version="1.0" encoding="utf-8"?><!DOCTYPE svg PUBLIC "-//W3C//DTD SVG 1.1//EN" "http://www.w3.org/Graphics/SVG/1.1/DTD/svg11.dtd"><svg version="1.1" xmlns="http://www.w3.org/2000/svg" xmlns:xlink="http://www.w3.org/1999/xlink" x="0px" y="0px" width="150px" height="150px" viewBox="0 0 150 150" enable-background="new 0 0 150 150" xml:space="preserve"><g id="Layer_2" display="none"><rect x="-340" y="-680" display="inline" fill="#F0F0F0" width="1680" height="1677.3"/></g><g id="Layer_1"><path fill="#BA457D" d="M43.4,149v-10.8c0-21.5,17.4-38.8,38.8-38.8h0c21.5,0,38.8,17.4,38.8,38.8V149"/><path fill="#E8957C" d="M46,124.2h72.4c-5.6-14.5-19.7-24.8-36.2-24.8h0C65.8,99.4,51.7,109.7,46,124.2z"/><path fill="none" stroke="#FFB600" stroke-width="2" stroke-linecap="round" stroke-miterlimit="10" d="M100.3,103.4v3 c0,10.1-8.2,18.3-18.3,18.3h0c-10.1,0-18.3-8.2-18.3-18.3v-3"/><path fill="#2B1714" d="M82.1,80.9L82.1,80.9c-17.9,0-32.6-14.7-32.6-32.6V32.7c0-17.9,14.7-32.6,32.6-32.6h0 c17.9,0,32.6,14.7,32.6,32.6v15.6C114.6,66.2,100,80.9,82.1,80.9z"/><path fill="#2B1714" d="M92.8,30.6c18,0,32.6,14.7,32.6,32.6v5.4v18.8V149l0,0h0c-18,0-32.6-14.7-32.6-32.6v-7.8v-7.2L92.8,30.6 L92.8,30.6z"/><circle fill="#E08070" cx="109.9" cy="65.4" r="6.6"/><circle fill="#E08070" cx="54" cy="65.4" r="6.6"/><path fill="#E08070" d="M82,114.7L82,114.7c-6,0-10.8-4.8-10.8-10.8v-13c0-6,4.8-10.8,10.8-10.8h0c6,0,10.8,4.8,10.8,10.8v13 C92.8,109.8,88,114.7,82,114.7z"/><path fill="#E8957C" d="M81.9,100.3L81.9,100.3c-15.5,0-28-12.5-28-28v-17c0-15.5,12.5-28,28-28h0c15.5,0,28,12.5,28,28v17 C109.9,87.7,97.4,100.3,81.9,100.3z"/><g><path fill="#261816" d="M70.5,60.6c-0.5,0-0.9-0.4-0.9-0.9c0-1.5-1.2-2.6-2.6-2.6s-2.6,1.2-2.6,2.6c0,0.5-0.4,0.9-0.9,0.9 c-0.5,0-0.9-0.4-0.9-0.9c0-2.4,2-4.4,4.4-4.4s4.4,2,4.4,4.4C71.4,60.2,71,60.6,70.5,60.6z"/></g><g><path fill="#261816" d="M100.5,60.6c-0.5,0-0.9-0.4-0.9-0.9c0-1.5-1.2-2.6-2.6-2.6s-2.6,1.2-2.6,2.6c0,0.5-0.4,0.9-0.9,0.9 c-0.5,0-0.9-0.4-0.9-0.9c0-2.4,2-4.4,4.4-4.4s4.4,2,4.4,4.4C101.4,60.2,101,60.6,100.5,60.6z"/></g><path fill="#E08070" d="M85.1,68.1h-6.4c-0.8,0-1.5-0.7-1.5-1.5v-9.8c0-0.8,0.7-1.5,1.5-1.5h6.4c0.8,0,1.5,0.7,1.5,1.5v9.8 C86.6,67.4,86,68.1,85.1,68.1z"/><path fill="#661818" d="M96.5,72.4c0,8-6.5,14.5-14.5,14.5s-14.5-6.5-14.5-14.5"/><path fill="#FFFFFF" d="M68.2,77h27.5c0.5-1.5,0.8-3,0.8-4.6H67.4C67.4,74,67.7,75.5,68.2,77z"/><path fill="#842020" d="M90.4,84.2c-2-2.5-5-4.1-8.4-4.1h0c-3.4,0-6.5,1.6-8.5,4.1c2.4,1.7,5.3,2.7,8.4,2.7 C85.1,86.9,88.1,85.9,90.4,84.2z"/><path fill="#E08070" d="M44.9,149v-23.4c0-5.4-4.5-9.9-9.9-9.9h0c-5.4,0-9.9,4.5-9.9,9.9V149"/><line fill="none" stroke="#212121" stroke-width="4.4141" stroke-miterlimit="10" x1="32.3" y1="92.6" x2="32.3" y2="149"/><path fill="#E8957C" d="M42,130.8L42,130.8c2.5,0,4.6-2.1,4.6-4.6v-12.2c0-2.5-2.1-4.6-4.6-4.6h0c-2.5,0-4.6,2.1-4.6,4.6v12.2 C37.4,128.7,39.5,130.8,42,130.8z"/><path fill="#E8957C" d="M33.4,122.1h-8.9c-2.7,0-4.9-2.2-4.9-4.9v0c0-2.7,2.2-4.9,4.9-4.9h8.9c2.7,0,4.9,2.2,4.9,4.9v0 C38.3,119.9,36.1,122.1,33.4,122.1z"/><path fill="#E8957C" d="M33.4,131.5h-8.9c-2.7,0-4.9-2.2-4.9-4.9v0c0-2.7,2.2-4.9,4.9-4.9h8.9c2.7,0,4.9,2.2,4.9,4.9v0 C38.3,129.3,36.1,131.5,33.4,131.5z"/><path fill="#E8957C" d="M33.4,140.9h-8.9c-2.7,0-4.9-2.2-4.9-4.9v0c0-2.7,2.2-4.9,4.9-4.9h8.9c2.7,0,4.9,2.2,4.9,4.9v0 C38.3,138.7,36.1,140.9,33.4,140.9z"/><circle fill="#545454" cx="42.6" cy="79.9" r="8.3"/><path fill="#2B2B2B" d="M40.7,87.9l-19,19c-0.6,0.6-1.6,0.6-2.2,0l-3.9-3.9c-0.6-0.6-0.6-1.6,0-2.2l19-19"/><rect x="33.8" y="78" transform="matrix(0.7071 0.7071 -0.7071 0.7071 68.9826 -6.7259)" fill="#757575" width="17.5" height="3.7"/><rect x="32.1" y="84.5" transform="matrix(0.7071 0.7071 -0.7071 0.7071 71.3254 -1.0604)" fill="#757575" width="9.6" height="2.1"/><path fill="#2B1714" d="M101.4,26.6L71.8,16v26.3c0-8.1,6.7-14.8,14.8-14.8h0"/><rect x="60.9" y="38.6" fill="#2B1714" width="10.9" height="3.7"/><path fill="#2B1714" d="M60.6,26h10.8l3.4,3.7L73,35l-1.2,4.4l-4.3,3.7l-6.1,6.5l-8.7-1.8c0,0-1.2-6.3-0.9-6.6c0.3-0.4,4.6-9,4.6-9 L60.6,26z"/><path fill="#BA457D" d="M82.1,12.3L82.1,12.3c-17.9,0-32.6,14.7-32.6,32.6v8c0-17.9,14.7-32.6,32.6-32.6h0 c17.9,0,32.6,14.7,32.6,32.6v-8C114.6,27,100,12.3,82.1,12.3z"/><path fill="#BA457D" d="M56.8,9.6c4.6,0,8.4,3.7,8.4,8.4s-3.7,8.4-8.4,8.4"/><path fill="#BA457D" d="M41.9,24.5c0,4.6,3.7,8.4,8.4,8.4s8.4-3.7,8.4-8.4"/><path fill="#261816" d="M96.7,55.3c0,0.2,0,0.4,0,0.6c1.1,0.1,2.2,0.7,3,1.6c0.8,0.9,1.2,1.9,1.1,3c2.6-0.3,4.7-2.5,4.7-5.2H96.7z"/><path fill="#261816" d="M67.5,55.3c0,0.2,0,0.4,0,0.6c-1.1,0.1-2.2,0.7-3,1.6c-0.8,0.9-1.2,1.9-1.1,3c-2.6-0.3-4.7-2.5-4.7-5.2 H67.5z"/><path fill="#2B1714" d="M71.8,42.3c0,7.5-6.2,13.7-13.7,13.7h0c-7.5,0-13.7-6.2-13.7-13.7"/><path fill="#661818" d="M82,73.9L82,73.9c0.6,0,1.1,0.5,1.1,1.1v3.6c0,0.6-0.5,1.1-1.1,1.1h0c-0.6,0-1.1-0.5-1.1-1.1V75 C80.9,74.4,81.4,73.9,82,73.9z"/><circle fill="#FFB600" cx="82" cy="130.5" r="3.2"/></g><g id="Layer_3"/></svg>