<?xml version="1.0" encoding="utf-8"?><!DOCTYPE svg PUBLIC "-//W3C//DTD SVG 1.1//EN" "http://www.w3.org/Graphics/SVG/1.1/DTD/svg11.dtd"><svg version="1.1" xmlns="http://www.w3.org/2000/svg" xmlns:xlink="http://www.w3.org/1999/xlink" x="0px" y="0px" width="150px" height="150px" viewBox="0 0 150 150" enable-background="new 0 0 150 150" xml:space="preserve"><g id="Layer_2" display="none"><rect x="-1020" y="-1527.3" display="inline" fill="#F0F0F0" width="1680" height="1677.3"/></g><g id="Layer_1"/><g id="Layer_3"><path fill="#353535" d="M87.8,100.5H62.5c-20.3,0-36.8-16.5-36.8-36.8v0c0-20.3,16.5-36.8,36.8-36.8h25.2 c20.3,0,36.8,16.5,36.8,36.8v0C124.6,84,108.1,100.5,87.8,100.5z"/><path fill="#353535" d="M141.8,103.5H8.9c-3.1,0-5.7-2.6-5.7-5.7v0c0-3.1,2.6-5.7,5.7-5.7h132.9c3.1,0,5.7,2.6,5.7,5.7v0 C147.5,100.9,144.9,103.5,141.8,103.5z"/><rect x="56.3" y="70.3" fill="#353535" width="42.1" height="17"/><rect x="25.8" y="61.5" fill="#353535" width="98.8" height="33.9"/><rect x="21.7" y="77.1" fill="#262626" width="107.1" height="15.2"/></g></svg>