<?xml version="1.0" encoding="utf-8"?><!DOCTYPE svg PUBLIC "-//W3C//DTD SVG 1.1//EN" "http://www.w3.org/Graphics/SVG/1.1/DTD/svg11.dtd"><svg version="1.1" id="Layer_1" xmlns="http://www.w3.org/2000/svg" xmlns:xlink="http://www.w3.org/1999/xlink" x="0px" y="0px" width="150px" height="150px" viewBox="0 0 150 150" enable-background="new 0 0 150 150" xml:space="preserve"><polygon fill="#939393" points="85.9,64.8 85.9,73 78.8,73 78.8,64.8 70,64.8 70,73 62.9,73 62.9,64.8 50.8,64.8 50.8,119.3 98.3,119.3 98.3,64.8"/><rect x="14.2" y="37" fill="#A5A5A5" width="39.9" height="85"/><rect x="11.6" y="37" fill="#A5A5A5" width="45.1" height="14.8"/><rect x="11.6" y="28.2" fill="#A5A5A5" width="10" height="13.9"/><rect x="29.2" y="28.2" fill="#A5A5A5" width="10" height="13.9"/><rect x="46.8" y="28.2" fill="#A5A5A5" width="10" height="13.9"/><polygon fill="#939393" points="86.1,64.8 86.1,72.8 79.2,72.8 79.2,64.8 70.1,64.8 70.1,72.8 63.2,72.8 63.2,64.8 54.1,64.8 54.1,72.8 54.1,77.5 54.1,122 95.2,122 95.2,77.5 95.2,72.8 95.2,64.8"/><path fill="#606060" d="M37.7,90.5V76.4c0-1.9-1.6-3.5-3.5-3.5h0c-1.9,0-3.5,1.6-3.5,3.5v14.1H37.7z"/><rect x="95.2" y="37" fill="#A5A5A5" width="39.9" height="85"/><rect x="92.7" y="37" fill="#A5A5A5" width="45.1" height="14.8"/><rect x="92.7" y="28.2" fill="#A5A5A5" width="10" height="13.9"/><rect x="110.2" y="28.2" fill="#A5A5A5" width="10" height="13.9"/><rect x="127.8" y="28.2" fill="#A5A5A5" width="10" height="13.9"/><path fill="#606060" d="M118.4,90.5V76.4c0-1.9-1.6-3.5-3.5-3.5h0c-1.9,0-3.5,1.6-3.5,3.5v14.1H118.4z"/><rect x="14.2" y="51.8" fill="#939393" width="39.9" height="6.7"/><rect x="95.2" y="51.8" fill="#939393" width="39.9" height="6.7"/><path fill="#895237" d="M60,121.9V97.6c0-8,6.6-14.6,14.6-14.6h0c8,0,14.6,6.6,14.6,14.6v24.2"/><path fill="#75432F" d="M67.1,120.5L67.1,120.5c-0.6,0-1.1-0.5-1.1-1.1V88.9c0-0.6,0.5-1.1,1.1-1.1l0,0c0.6,0,1.1,0.5,1.1,1.1v30.6	C68.2,120.1,67.7,120.5,67.1,120.5z"/><path fill="#75432F" d="M82.1,120.5L82.1,120.5c-0.6,0-1.1-0.5-1.1-1.1V88.9c0-0.6,0.5-1.1,1.1-1.1l0,0c0.6,0,1.1,0.5,1.1,1.1v30.6	C83.2,120.1,82.7,120.5,82.1,120.5z"/><path fill="#75432F" d="M74.6,120.5L74.6,120.5c-0.6,0-1.1-0.5-1.1-1.1V85.9c0-0.6,0.5-1.1,1.1-1.1l0,0c0.6,0,1.1,0.5,1.1,1.1v33.6	C75.7,120.1,75.2,120.5,74.6,120.5z"/><rect x="60" y="97.6" fill="#3D3D3D" width="29.2" height="4.2"/><rect x="60" y="111.5" fill="#3D3D3D" width="29.2" height="4.2"/><rect x="117.6" y="111.5" fill="#939393" width="10.2" height="5.8"/><rect x="112.8" y="104.2" fill="#939393" width="10.2" height="5.8"/><rect x="18.5" y="111.5" fill="#939393" width="10.2" height="5.8"/><rect x="98.9" y="64.2" fill="#939393" width="10.2" height="5.8"/><rect x="40.9" y="69.1" fill="#939393" width="10.2" height="5.8"/><rect x="36" y="61.7" fill="#939393" width="10.2" height="5.8"/></svg>