<?xml version="1.0" encoding="utf-8"?><!DOCTYPE svg PUBLIC "-//W3C//DTD SVG 1.1//EN" "http://www.w3.org/Graphics/SVG/1.1/DTD/svg11.dtd"><svg version="1.1" id="Layer_1" xmlns="http://www.w3.org/2000/svg" xmlns:xlink="http://www.w3.org/1999/xlink" x="0px" y="0px" width="150px" height="150px" viewBox="0 0 150 150" enable-background="new 0 0 150 150" xml:space="preserve"><path fill="#3D3D3D" d="M22,92.9c-10.2,0-18.6,8.4-18.6,18.6v0c0,10.2,8.4,18.6,18.6,18.6h79.5c10.2,0,18.6-8.4,18.6-18.6v0	c0-2.8-0.7-5.5-1.8-7.9H130c10.2,0,18.6-8.4,18.6-18.6v0c0-10.2-8.4-18.6-18.6-18.6H129c-3.8,0-6.9-3.1-6.9-6.9	c0-3.8,3.1-6.9,6.9-6.9h1.1c10.2,0,18.6-8.4,18.6-18.6v0c0-10.2-8.4-18.6-18.6-18.6H63.1c-10.2,0-18.6,8.4-18.6,18.6v0	c0,0.6,0,1.2,0.1,1.8H21c-10.2,0-18.6,8.4-18.6,18.6v0c0,10.2,8.4,18.6,18.6,18.6h2.7c4.6,0.9,8,5,8,9.8v0c0,5.5-4.5,10-10,10"/><path fill="none" stroke="#FFCE00" stroke-width="5.0932" stroke-miterlimit="10" d="M55,58.3L55,58.3c-1-3.5,1-7.3,4.6-8.3l9.3-2.7"/><path fill="none" stroke="#FFCE00" stroke-width="5.0932" stroke-miterlimit="10" d="M104.3,37l10.5-3c3.5-1,7.3,1,8.3,4.6v0"/><circle fill="#A560E8" cx="88" cy="47.2" r="22.4"/><path fill="#AA6EFF" d="M86.1,28.1l-14.9,4.3c-4.7,5.3-6.7,12.7-5,20l20.1-5.8c1.7-0.5,2.7-2.3,2.2-3.9C88,41,86.3,40,84.6,40.5	l-0.7,0.2c-1.4,0.4-2.8-0.4-3.2-1.8c-0.4-1.4,0.4-2.8,1.8-3.2l5.4-1.6c1.7-0.5,2.7-2.3,2.2-3.9C89.5,28.6,87.7,27.6,86.1,28.1z"/><path fill="#AA6EFF" d="M100.3,54.5c-1.5,0.4-2.3,2-1.9,3.4c0.4,1.5,2,2.3,3.4,1.9l5.6-1.6c1.1-2,1.9-4.2,2.4-6.4L100.3,54.5z"/><path fill="#AA6EFF" d="M110.1,43.5l-17.6,5.1c-1.5,0.4-2.3,2-1.9,3.4l0,0c0.4,1.5,2,2.3,3.4,1.9l16.3-4.7	C110.4,47.3,110.4,45.4,110.1,43.5z"/><path fill="#AA6EFF" d="M74.5,55.8l-6.3,1.8c1.2,2.2,2.7,4.1,4.4,5.8l3.8-1.1c1.8-0.5,2.8-2.4,2.3-4.2	C78.2,56.3,76.3,55.3,74.5,55.8z"/><path fill="none" stroke="#FFCE00" stroke-width="5.0932" stroke-miterlimit="10" d="M123.1,38.6L123.1,38.6c1,3.5-1,7.3-4.6,8.3	l-55.2,16c-3.5,1-7.3-1-8.3-4.6v0"/><circle fill="#FFFFFF" cx="32.8" cy="56" r="1.8"/><circle fill="#FFFFFF" cx="123.2" cy="94.5" r="1.2"/><circle fill="#FFFFFF" cx="112.8" cy="74" r="1.8"/><circle fill="#FFFFFF" cx="129.8" cy="26" r="1.8"/><circle fill="#FFFFFF" cx="29.8" cy="106" r="1.8"/><circle fill="#FFFFFF" cx="70.2" cy="96.5" r="2.2"/><circle fill="#FFFFFF" cx="99.8" cy="116" r="1.8"/><circle fill="#FFFFFF" cx="68.2" cy="25.5" r="1.2"/></svg>