<?xml version="1.0" encoding="utf-8"?><!DOCTYPE svg PUBLIC "-//W3C//DTD SVG 1.1//EN" "http://www.w3.org/Graphics/SVG/1.1/DTD/svg11.dtd"><svg version="1.1" id="Layer_1" xmlns="http://www.w3.org/2000/svg" xmlns:xlink="http://www.w3.org/1999/xlink" x="0px" y="0px" width="150px" height="150px" viewBox="0 0 150 150" enable-background="new 0 0 150 150" xml:space="preserve"><path fill="#FFCE00" d="M122.4,81H26.6c-2.9,0-5.3-2.4-5.3-5.3v0c0-2.9,2.4-5.3,5.3-5.3h95.8c2.9,0,5.3,2.4,5.3,5.3v0	C127.8,78.6,125.4,81,122.4,81z"/><path fill="#FFC200" d="M64,27.5L64,27.5c-2.8,0-5.1-2.3-5.1-5.1V11.5c0-2.8,2.3-5.1,5.1-5.1h0c2.8,0,5.1,2.3,5.1,5.1v10.8	C69.1,25.2,66.8,27.5,64,27.5z"/><path fill="#FFC200" d="M55.5,33.5L55.5,33.5c-2.8,0-5.1-2.3-5.1-5.1V17.5c0-2.8,2.3-5.1,5.1-5.1h0c2.8,0,5.1,2.3,5.1,5.1v10.8	C60.6,31.2,58.3,33.5,55.5,33.5z"/><path fill="#FFC200" d="M92.5,33.5L92.5,33.5c-2.8,0-5.1-2.3-5.1-5.1V17.5c0-2.8,2.3-5.1,5.1-5.1h0c2.8,0,5.1,2.3,5.1,5.1v10.8	C97.6,31.2,95.3,33.5,92.5,33.5z"/><path fill="#FFC200" d="M74.1,24.1L74.1,24.1c-2.8,0-5.1-2.3-5.1-5.1V8.1c0-2.8,2.3-5.1,5.1-5.1h0c2.8,0,5.1,2.3,5.1,5.1V19	C79.2,21.8,76.9,24.1,74.1,24.1z"/><path fill="#FFC200" d="M84.2,27.5L84.2,27.5c-2.8,0-5.1-2.3-5.1-5.1V11.5c0-2.8,2.3-5.1,5.1-5.1h0c2.8,0,5.1,2.3,5.1,5.1v10.8	C89.3,25.2,87,27.5,84.2,27.5z"/><path fill="#FFC200" d="M84.2,123L84.2,123c2.8,0,5.1,2.3,5.1,5.1V139c0,2.8-2.3,5.1-5.1,5.1h0c-2.8,0-5.1-2.3-5.1-5.1v-10.8	C79,125.3,81.4,123,84.2,123z"/><path fill="#FFC200" d="M74.1,126.4L74.1,126.4c2.8,0,5.1,2.3,5.1,5.1v10.8c0,2.8-2.3,5.1-5.1,5.1h0c-2.8,0-5.1-2.3-5.1-5.1v-10.8	C68.9,128.7,71.3,126.4,74.1,126.4z"/><path fill="#FFC200" d="M64,123L64,123c2.8,0,5.1,2.3,5.1,5.1V139c0,2.8-2.3,5.1-5.1,5.1h0c-2.8,0-5.1-2.3-5.1-5.1v-10.8	C58.8,125.3,61.2,123,64,123z"/><ellipse fill="#FFCE00" cx="74.5" cy="75.7" rx="48.2" ry="65.3"/><ellipse fill="#AEFBFF" cx="74.5" cy="75.6" rx="38.2" ry="53.4"/><path fill="#D2FFFE" d="M107,47.4c-4.8-10.7-12.1-18.8-20.8-22.7L36.3,74.5c0,0.4,0,0.7,0,1.1c0,12.8,3.2,24.6,8.7,33.9L107,47.4z"/><path fill="#D2FFFE" d="M61.8,125.9l51-51c-0.1-7.3-1.2-14.3-3.1-20.7l-60.8,60.8C52.6,119.8,57,123.6,61.8,125.9z"/></svg>