<?xml version="1.0" encoding="utf-8"?><!DOCTYPE svg PUBLIC "-//W3C//DTD SVG 1.1//EN" "http://www.w3.org/Graphics/SVG/1.1/DTD/svg11.dtd"><svg version="1.1" id="Layer_1" xmlns="http://www.w3.org/2000/svg" xmlns:xlink="http://www.w3.org/1999/xlink" x="0px" y="0px" width="150px" height="150px" viewBox="0 0 150 150" enable-background="new 0 0 150 150" xml:space="preserve"><linearGradient id="SVGID_1_" gradientUnits="userSpaceOnUse" x1="75" y1="11.1793" x2="75" y2="137.6172"><stop offset="0" style="stop-color:#243C4D"/><stop offset="1" style="stop-color:#4C8CB5"/></linearGradient><rect x="26.5" y="11.2" fill="url(#SVGID_1_)" width="97" height="126.4"/><path fill="#3D4F1D" d="M26.5,126.8v10.9h97v-13.9c-13.6-7.4-29.3-11.6-45.9-11.6C58.8,112.1,41.3,117.5,26.5,126.8z"/><path fill="#FFF4D7" d="M99.7,79.9C97.2,89.2,89.1,95.6,80,96.4c0.7,0.3,1.5,0.6,2.3,0.8c11.3,3.1,23-3.6,26.1-14.9	c3.1-11.3-3.6-23-14.9-26.1c-0.8-0.2-1.6-0.4-2.4-0.5C98.6,61,102.3,70.6,99.7,79.9z"/><rect x="26.5" y="11.2" fill="none" stroke="#512E22" stroke-width="8.4084" stroke-miterlimit="10" width="97" height="126.4"/><line fill="none" stroke="#512E22" stroke-width="8.4084" stroke-miterlimit="10" x1="26.6" y1="43.3" x2="123.5" y2="43.3"/><line fill="none" stroke="#512E22" stroke-width="5.8859" stroke-miterlimit="10" x1="75.1" y1="10" x2="75.1" y2="42.1"/><rect x="30.6" y="39.1" fill="#331B16" width="5.3" height="8.3"/><rect x="114.1" y="39.1" fill="#331B16" width="5.3" height="8.3"/><rect x="72.1" y="15.3" fill="#331B16" width="5.9" height="5.3"/><rect x="18.3" y="1.3" fill="#331B16" width="113.5" height="14.1"/><rect x="18.3" y="133.5" fill="#331B16" width="113.5" height="14.1"/><circle fill="#FFF4D7" cx="56.5" cy="84.5" r="1.2"/><circle fill="#FFF4D7" cx="79.2" cy="78.8" r="1.2"/><circle fill="#FFF4D7" cx="60.3" cy="58" r="1.2"/><circle fill="#FFF4D7" cx="111.5" cy="21.3" r="0.9"/><circle fill="#FFF4D7" cx="84.1" cy="58.3" r="0.9"/><circle fill="#FFF4D7" cx="39.6" cy="94.3" r="0.9"/><circle fill="#FFF4D7" cx="49" cy="18.5" r="0.9"/><circle fill="#FFF4D7" cx="61.6" cy="103.1" r="0.6"/><circle fill="#FFF4D7" cx="43.6" cy="74.7" r="0.6"/><circle fill="#FFF4D7" cx="57.8" cy="31.1" r="0.6"/><circle fill="#FFF4D7" cx="94.8" cy="31.1" r="0.6"/><circle fill="#FFF4D7" cx="111.8" cy="95.5" r="0.6"/><circle fill="#FFF4D7" cx="38" cy="28.7" r="1.2"/><circle fill="#FFF4D7" cx="39.7" cy="56.4" r="1"/><path fill="#2F3A16" d="M57.6,129.3L57.6,129.3c-0.8,0-1.5-0.7-1.5-1.5l0-4.2c0-0.8,0.7-1.5,1.5-1.5h0c0.8,0,1.5,0.7,1.5,1.5v4.2	C59.1,128.7,58.4,129.3,57.6,129.3z"/><path fill="#2F3A16" d="M61.3,129.3L61.3,129.3c-0.8,0-1.5-0.7-1.5-1.5v-2.5c0-0.8,0.7-1.5,1.5-1.5l0,0c0.8,0,1.5,0.7,1.5,1.5v2.5	C62.8,128.7,62.1,129.3,61.3,129.3z"/><path fill="#2F3A16" d="M53.9,129.3L53.9,129.3c-0.8,0-1.5-0.7-1.5-1.5v-2.5c0-0.8,0.7-1.5,1.5-1.5l0,0c0.8,0,1.5,0.7,1.5,1.5v2.5	C55.4,128.7,54.8,129.3,53.9,129.3z"/><path fill="#2F3A16" d="M87.9,123.7L87.9,123.7c-0.8,0-1.5-0.7-1.5-1.5v-4.2c0-0.8,0.7-1.5,1.5-1.5l0,0c0.8,0,1.5,0.7,1.5,1.5v4.2	C89.4,123,88.7,123.7,87.9,123.7z"/><path fill="#2F3A16" d="M91.6,123.7L91.6,123.7c-0.8,0-1.5-0.7-1.5-1.5v-2.5c0-0.8,0.7-1.5,1.5-1.5l0,0c0.8,0,1.5,0.7,1.5,1.5v2.5	C93.1,123,92.4,123.7,91.6,123.7z"/></svg>