<?xml version="1.0" encoding="utf-8"?><!DOCTYPE svg PUBLIC "-//W3C//DTD SVG 1.1//EN" "http://www.w3.org/Graphics/SVG/1.1/DTD/svg11.dtd"><svg version="1.1" id="Layer_1" xmlns="http://www.w3.org/2000/svg" xmlns:xlink="http://www.w3.org/1999/xlink" x="0px" y="0px" width="150px" height="150px" viewBox="0 0 150 150" enable-background="new 0 0 150 150" xml:space="preserve"><linearGradient id="SVGID_1_" gradientUnits="userSpaceOnUse" x1="74.9425" y1="135.4558" x2="74.9425" y2="17.7819"><stop offset="0" style="stop-color:#70EDED"/><stop offset="1" style="stop-color:#37C4ED"/></linearGradient><rect x="28.8" y="17.8" fill="url(#SVGID_1_)" width="92.3" height="117.7"/><circle fill="#FFDA00" cx="98.9" cy="44.6" r="24"/><path fill="#FFFFFF" d="M68.2,70h-7c0.1-0.5,0.1-1,0.1-1.5c0-5.7-4.6-10.3-10.3-10.3c-1.3,0-2.6,0.3-3.7,0.7c-1.9-2.3-4.8-3.8-8-3.8	C33.6,55,29,59.7,29,65.4c0,1.7,0.4,3.2,1.1,4.6h-2.9c-1,0-1.8,0.8-1.8,1.8v0c0,1,0.8,1.8,1.8,1.8h41.1c1,0,1.8-0.8,1.8-1.8v0	C70,70.8,69.2,70,68.2,70z"/><path fill="#74B70B" d="M28.8,125.1v10.3h92.3v-13.3c-13-7-27.8-11-43.6-11C59.6,111.2,42.9,116.3,28.8,125.1z"/><rect x="28.8" y="15.2" fill="none" stroke="#895237" stroke-width="7.9978" stroke-miterlimit="10" width="92.3" height="120.3"/><line fill="none" stroke="#895237" stroke-width="7.9978" stroke-miterlimit="10" x1="29" y1="45.7" x2="121.1" y2="45.7"/><line fill="none" stroke="#895237" stroke-width="5.5984" stroke-miterlimit="10" x1="75" y1="14.1" x2="75" y2="44.6"/><rect x="32.7" y="41.8" fill="#6D3E2E" width="5" height="7.9"/><rect x="112.1" y="41.8" fill="#6D3E2E" width="5" height="7.9"/><rect x="72.2" y="19.1" fill="#6D3E2E" width="5.6" height="5"/><rect x="21" y="5.8" fill="#6D3E2E" width="108" height="13.4"/><rect x="21" y="131.5" fill="#6D3E2E" width="108" height="13.4"/><path fill="#679908" d="M57.3,127.6L57.3,127.6c-0.8,0-1.5-0.6-1.5-1.4v-4.1c0-0.8,0.6-1.4,1.4-1.4h0.1c0.8,0,1.4,0.6,1.4,1.4v4.1	C58.7,127,58.1,127.6,57.3,127.6z"/><path fill="#679908" d="M60.8,127.6L60.8,127.6c-0.8,0-1.5-0.6-1.5-1.4v-2.5c0-0.8,0.6-1.4,1.4-1.4h0.1c0.8,0,1.4,0.6,1.4,1.4v2.5	C62.2,127,61.6,127.6,60.8,127.6z"/><path fill="#679908" d="M53.8,127.6L53.8,127.6c-0.8,0-1.5-0.6-1.5-1.4v-2.5c0-0.8,0.6-1.4,1.4-1.4h0.1c0.8,0,1.4,0.6,1.4,1.4v2.5	C55.2,127,54.6,127.6,53.8,127.6z"/><path fill="#679908" d="M86.2,122.2L86.2,122.2c-0.8,0-1.5-0.6-1.5-1.4v-4.1c0-0.8,0.6-1.4,1.4-1.4h0.1c0.8,0,1.4,0.6,1.4,1.4v4.1	C87.6,121.6,86.9,122.2,86.2,122.2z"/><path fill="#679908" d="M89.7,122.2L89.7,122.2c-0.8,0-1.5-0.6-1.5-1.4v-2.5c0-0.8,0.6-1.4,1.4-1.4h0.1c0.8,0,1.4,0.6,1.4,1.4v2.5	C91.1,121.6,90.4,122.2,89.7,122.2z"/></svg>