<?xml version="1.0" encoding="utf-8"?><!DOCTYPE svg PUBLIC "-//W3C//DTD SVG 1.1//EN" "http://www.w3.org/Graphics/SVG/1.1/DTD/svg11.dtd"><svg version="1.1" id="Layer_1" xmlns="http://www.w3.org/2000/svg" xmlns:xlink="http://www.w3.org/1999/xlink" x="0px" y="0px" width="150px" height="150px" viewBox="0 0 150 150" enable-background="new 0 0 150 150" xml:space="preserve"><circle fill="#AFAFAF" cx="105.4" cy="54.1" r="8.9"/><circle fill="#AFAFAF" cx="44.8" cy="54.1" r="8.9"/><path fill="#FF7DD5" d="M38.6,144.3v-9.1c0-20.2,16.4-36.6,36.6-36.6h0c20.2,0,36.6,16.4,36.6,36.6v9.1"/><path fill="#FFA08D" d="M75,71.6c-7.8,0-14.3,6.3-14.3,13.9v16.6c0,7.6,6.4,13.9,14.3,13.9s14.3-6.3,14.3-13.9V85.5	C89.3,77.9,82.9,71.6,75,71.6z"/><path fill="none" stroke="#FFDA00" stroke-width="3.6202" stroke-miterlimit="10" d="M89.3,97.3v23.6c0,7.9-6.4,14.3-14.3,14.3h0	c-7.9,0-14.3-6.4-14.3-14.3V97.3"/><ellipse fill="#FFA792" cx="44.8" cy="71" rx="7.7" ry="7.2"/><ellipse fill="#FFA792" cx="105.2" cy="71" rx="7.7" ry="7.2"/><path fill="#FFB5A1" d="M44.7,40.3v10.8V64v11.9c0,15.6,13.6,28.4,30.3,28.4l0,0c16.7,0,30.3-12.8,30.3-28.4V40.3"/><path fill="#EA9486" d="M56.4,59.2c0-1.9,1.7-3.5,3.8-3.5s3.8,1.6,3.8,3.5"/><rect x="70.1" y="56.3" fill="#EA9486" width="10" height="13.7"/><circle fill="none" stroke="#754844" stroke-width="1.8101" stroke-miterlimit="10" cx="59.9" cy="59.7" r="9.5"/><circle fill="none" stroke="#754844" stroke-width="1.8101" stroke-miterlimit="10" cx="90.2" cy="59.7" r="9.5"/><line fill="none" stroke="#754844" stroke-width="1.8101" stroke-miterlimit="10" x1="68.5" y1="56.8" x2="81.1" y2="56.8"/><g><path fill="#EF9C8B" d="M58.3,65.8c-0.7,0-1.5-0.1-2.2-0.3c-0.5-0.1-0.8-0.6-0.6-1.1c0.1-0.5,0.6-0.8,1.1-0.6 c1.5,0.5,3.2,0.3,4.6-0.5c1.4-0.8,2.4-2.1,2.9-3.6c0.1-0.5,0.6-0.8,1.1-0.6c0.5,0.1,0.8,0.6,0.6,1.1c-0.6,2-1.9,3.7-3.8,4.7 C60.9,65.4,59.6,65.8,58.3,65.8z"/></g><path fill="#EA9486" d="M93.9,59.2c0-1.9-1.7-3.5-3.8-3.5c-2.1,0-3.8,1.6-3.8,3.5"/><g><path fill="#EF9C8B" d="M92,65.8c-1.3,0-2.6-0.3-3.8-1c-1.8-1-3.2-2.7-3.8-4.7c-0.1-0.5,0.1-1,0.6-1.1c0.5-0.1,1,0.1,1.1,0.6 c0.4,1.5,1.5,2.8,2.9,3.6c1.4,0.8,3,1,4.6,0.5c0.5-0.1,1,0.1,1.1,0.6c0.1,0.5-0.1,1-0.6,1.1C93.5,65.6,92.7,65.8,92,65.8z"/></g><g><path fill="#EF9C8B" d="M75.2,99.3c-1.9,0-3.8-0.7-5.2-2.2c-0.4-0.4-0.4-0.9,0-1.3s0.9-0.4,1.3,0c2.2,2.2,5.7,2.2,7.9,0 c0.4-0.4,0.9-0.4,1.3,0s0.4,0.9,0,1.3C79,98.6,77.1,99.3,75.2,99.3z"/></g><g><path fill="#DD8178" d="M75.2,83.6c-3,0-5.9-1.2-8-3.3c-0.5-0.5-0.5-1.4,0-1.9c0.5-0.5,1.4-0.5,1.9,0c1.6,1.6,3.8,2.5,6.1,2.5 c2.3,0,4.5-0.9,6.1-2.5c0.5-0.5,1.4-0.5,1.9,0c0.5,0.5,0.5,1.4,0,1.9C81.1,82.4,78.3,83.6,75.2,83.6z"/></g><circle fill="#AFAFAF" cx="98.2" cy="39.6" r="14.8"/><circle fill="#AFAFAF" cx="52.6" cy="40.7" r="14.3"/><circle fill="#AFAFAF" cx="81.3" cy="24.3" r="18.2"/><circle fill="#AFAFAF" cx="62.3" cy="26.1" r="13.4"/><circle fill="#AFAFAF" cx="68.5" cy="39.6" r="7.4"/></svg>