<?xml version="1.0" encoding="utf-8"?><!DOCTYPE svg PUBLIC "-//W3C//DTD SVG 1.1//EN" "http://www.w3.org/Graphics/SVG/1.1/DTD/svg11.dtd"><svg version="1.1" id="Layer_1" xmlns="http://www.w3.org/2000/svg" xmlns:xlink="http://www.w3.org/1999/xlink" x="0px" y="0px" width="150px" height="150px" viewBox="0 0 150 150" enable-background="new 0 0 150 150" xml:space="preserve"><path fill="#FFFFFF" d="M45.6,37.8V46h-9.3c-12,0-21.8,9.8-21.8,21.8v4.3c0,12,9.8,21.8,21.8,21.8h14.8c3.2,5.5,7.8,10.2,13.2,13.6	v8.3h42.6v-8.3c11.2-7.1,18.7-19.6,18.7-33.8V37.8H45.6z M36.2,82.2c-5.6,0-10.1-4.5-10.1-10.1v-4.3c0-5.6,4.5-10.1,10.1-10.1h9.3	v16c0,2.9,0.3,5.8,0.9,8.5H36.2z"/><rect x="45.6" y="45.8" fill="#1CB0F6" width="80" height="7.1"/><rect x="45.6" y="59.3" fill="#1CB0F6" width="80" height="7.1"/></svg>