<?xml version="1.0" encoding="utf-8"?><!DOCTYPE svg PUBLIC "-//W3C//DTD SVG 1.1//EN" "http://www.w3.org/Graphics/SVG/1.1/DTD/svg11.dtd"><svg version="1.1" id="Layer_1" xmlns="http://www.w3.org/2000/svg" xmlns:xlink="http://www.w3.org/1999/xlink" x="0px" y="0px" width="150px" height="150px" viewBox="0 0 150 150" enable-background="new 0 0 150 150" xml:space="preserve"><path fill="#007CB2" d="M129.7,142H20.3c-6.7,0-12.1-5.4-12.1-12.1V20.6c0-6.7,5.4-12.1,12.1-12.1h109.3c6.7,0,12.1,5.4,12.1,12.1	V130C141.7,136.6,136.3,142,129.7,142z"/><linearGradient id="SVGID_1_" gradientUnits="userSpaceOnUse" x1="31.6694" y1="75.0552" x2="141.7297" y2="75.0552"><stop offset="0" style="stop-color:#82C2D8"/><stop offset="1" style="stop-color:#82C2D8;stop-opacity:0.6"/></linearGradient><path fill="url(#SVGID_1_)" d="M31.7,75l108.1,61.6c1.2-1.9,2-4.1,2-6.6V20.6c0-2.6-0.9-5.1-2.3-7L31.7,75z"/><path fill="#353535" d="M61.8,92.2H40.2C30.7,92.2,23,84.5,23,75v0c0-9.5,7.7-17.2,17.2-17.2h21.6"/><rect x="8.3" y="63" fill="#353535" width="43.9" height="23.5"/><circle fill="#231F20" cx="20" cy="74.8" r="5.4"/><path fill="#444444" d="M56.7,65.8H40.9c-1.1,0-1.9-0.9-1.9-1.9v0c0-1.1,0.9-1.9,1.9-1.9h15.8c1.1,0,1.9,0.9,1.9,1.9v0	C58.6,65,57.8,65.8,56.7,65.8z"/></svg>