<?xml version="1.0" encoding="utf-8"?><!DOCTYPE svg PUBLIC "-//W3C//DTD SVG 1.1//EN" "http://www.w3.org/Graphics/SVG/1.1/DTD/svg11.dtd"><svg version="1.1" id="Layer_1" xmlns="http://www.w3.org/2000/svg" xmlns:xlink="http://www.w3.org/1999/xlink" x="0px" y="0px" width="150px" height="150px" viewBox="0 0 150 150" enable-background="new 0 0 150 150" xml:space="preserve"><rect x="33.5" y="11.3" fill="#B26938" width="83.5" height="128.8"/><rect x="45.3" y="23" fill="none" stroke="#9B582A" stroke-width="2.9279" stroke-miterlimit="10" width="59.9" height="59.7"/><rect x="45.3" y="95.8" fill="none" stroke="#9B582A" stroke-width="3.0321" stroke-miterlimit="10" width="59.9" height="32.5"/><path fill="#D1D1D1" d="M34.8,51.2H32c-0.5,0-1-0.4-1-1V32.5c0-0.5,0.4-1,1-1h2.8c0.5,0,1,0.4,1,1v17.7	C35.8,50.7,35.4,51.2,34.8,51.2z"/><path fill="#D1D1D1" d="M34.8,116.2H32c-0.5,0-1-0.4-1-1V97.5c0-0.5,0.4-1,1-1h2.8c0.5,0,1,0.4,1,1v17.7	C35.8,115.7,35.4,116.2,34.8,116.2z"/><rect x="108.5" y="63.7" fill="#B7B7B7" width="6.5" height="25.8"/><path fill="#D1D1D1" d="M111.4,73.1H95.8c-1.2,0-2.1-1-2.1-2.1v0c0-1.2,1-2.1,2.1-2.1h15.6c1.2,0,2.1,1,2.1,2.1v0	C113.5,72.1,112.5,73.1,111.4,73.1z"/><line fill="none" stroke="#C4753F" stroke-width="4" stroke-linecap="round" stroke-linejoin="round" stroke-miterlimit="10" x1="48.7" y1="26.8" x2="48.7" y2="78.9"/><line fill="none" stroke="#C4753F" stroke-width="4" stroke-linecap="round" stroke-linejoin="round" stroke-miterlimit="10" x1="48.7" y1="99.9" x2="48.7" y2="124"/></svg>