<?xml version="1.0" encoding="utf-8"?><!DOCTYPE svg PUBLIC "-//W3C//DTD SVG 1.1//EN" "http://www.w3.org/Graphics/SVG/1.1/DTD/svg11.dtd"><svg version="1.1" xmlns="http://www.w3.org/2000/svg" xmlns:xlink="http://www.w3.org/1999/xlink" x="0px" y="0px" width="150px" height="150px" viewBox="0 0 150 150" enable-background="new 0 0 150 150" xml:space="preserve"><g id="Layer_2" display="none"><rect y="-1527.3" display="inline" fill="#F0F0F0" width="1680" height="1677.3"/></g><g id="Layer_1"/><g id="Layer_3"><rect x="83" y="9.2" fill="#4F2D15" width="9.8" height="17.3"/><path fill="#4F2D15" d="M87.8,69.4L87.8,69.4c-11.9,0-21.6-9.7-21.6-21.6V33.5c0-11.9,9.7-21.6,21.6-21.6h0 c11.9,0,21.6,9.7,21.6,21.6v14.4C109.3,59.7,99.6,69.4,87.8,69.4z"/><path fill="#5E3519" d="M107.2,70.1L107.2,70.1c-11.9,0-21.6-9.7-21.6-21.6V34.2c0-11.9,9.7-21.6,21.6-21.6h0 c11.9,0,21.6,9.7,21.6,21.6v14.4C128.8,60.4,119.1,70.1,107.2,70.1z"/><path fill="#4F2D15" d="M85.7,33.5v3.6c0,5.4-4.4,9.7-9.7,9.7h0c-5.4,0-9.7-4.4-9.7-9.7v-3.6"/><path fill="#5E3519" d="M66.2,33.5v64.6H52.8c-19.2,0-35,15.7-35,35h48.4h35.1c1-0.5,2.1-0.9,3.2-0.9s2.3,0.3,3.2,0.9h20.9V33.5 H66.2z"/><path fill="#351E0E" d="M129.9,126.2h-28.4c-0.1,0-0.3,0-0.4,0c-0.3,0-0.7-0.1-1-0.1c-3.9,0-7.1,3.1-7.3,6.9H16.7 c-1,0-1.9,0.8-1.9,1.9v3.9c0,1,0.8,1.9,1.9,1.9H98v-2c0-3.6,3-6.6,6.6-6.6s6.6,3,6.6,6.6v2h19c1,0,1.9-0.8,1.9-1.9v-2.8V135v-6.6 C132.1,127.2,131.1,126.2,129.9,126.2z"/><rect x="102.3" y="9.2" fill="#703F1E" width="9.8" height="17.3"/></g></svg>