<?xml version="1.0" encoding="utf-8"?><!DOCTYPE svg PUBLIC "-//W3C//DTD SVG 1.1//EN" "http://www.w3.org/Graphics/SVG/1.1/DTD/svg11.dtd"><svg version="1.1" id="Layer_1" xmlns="http://www.w3.org/2000/svg" xmlns:xlink="http://www.w3.org/1999/xlink" x="0px" y="0px" width="150px" height="150px" viewBox="0 0 150 150" enable-background="new 0 0 150 150" xml:space="preserve"><circle fill="#FFFFFF" cx="74.4" cy="65.7" r="57.1"/><path fill="#FFFFFF" d="M58.2,112.3c0,17,13.8,30.8,30.8,30.8v-30.8H58.2z"/><g><circle fill="#FFFFFF" cx="74.4" cy="65.5" r="46.6"/><path fill="#1CB0F6" d="M27.8,65.5c0,3.1,0.3,6.2,0.9,9.1h45.7V18.9C48.6,18.9,27.8,39.8,27.8,65.5z"/><path fill="#FFFFFF" d="M39.2,34.9l2.9-1.5l3.8,2l-0.7-4.2l3.1-3L46.7,28C44,30,41.5,32.4,39.2,34.9z"/><polygon fill="#FFFFFF" points="61.5,23.8 63.4,27.6 67.6,28.2 64.5,31.2 65.2,35.4 61.5,33.4 57.7,35.4 58.4,31.2 55.3,28.2 59.6,27.6"/><polygon fill="#FFFFFF" points="42.1,58 44,61.9 48.2,62.5 45.1,65.5 45.9,69.7 42.1,67.7 38.3,69.7 39,65.5 36,62.5 40.2,61.9"/><polygon fill="#FFFFFF" points="61.5,58 63.4,61.9 67.6,62.5 64.5,65.5 65.2,69.7 61.5,67.7 57.7,69.7 58.4,65.5 55.3,62.5 59.6,61.9"/><path fill="#FFFFFF" d="M31.9,51.1l3.8,2L35,48.9l3.1-3l-4.2-0.6l-0.7-1.5c-1.4,2.7-2.6,5.5-3.4,8.5L31.9,51.1z"/><polygon fill="#FFFFFF" points="52.2,41.4 54.1,45.3 58.3,45.9 55.3,48.9 56,53.1 52.2,51.1 48.4,53.1 49.2,48.9 46.1,45.9 50.3,45.3"/><path fill="#CC2F2F" d="M111.6,37.5c-8.5-11.3-22-18.6-37.2-18.6v18.6H111.6z"/><path fill="#CC2F2F" d="M74.4,74.6h45.7c0.6-3,0.9-6,0.9-9.1c0-3.2-0.3-6.4-1-9.4H74.4V74.6z"/><path fill="#CC2F2F" d="M36.9,93.2c7.5,10.1,19,17.1,32.2,18.6h10.4c13.2-1.5,24.7-8.4,32.2-18.6H36.9z"/></g></svg>