<?xml version="1.0" encoding="utf-8"?><!DOCTYPE svg PUBLIC "-//W3C//DTD SVG 1.1//EN" "http://www.w3.org/Graphics/SVG/1.1/DTD/svg11.dtd"><svg version="1.1" id="Layer_1" xmlns="http://www.w3.org/2000/svg" xmlns:xlink="http://www.w3.org/1999/xlink" x="0px" y="0px" width="150px" height="150px" viewBox="0 0 150 150" enable-background="new 0 0 150 150" xml:space="preserve"><path fill="#191919" d="M22.4,132.2V67.5c0-28.8,23.5-52.3,52.3-52.3h0c28.8,0,52.3,23.5,52.3,52.3v64.7"/><rect x="57.2" y="26.3" fill="#DBDBDB" width="35.1" height="98.3"/><path fill="#191919" d="M48,146.6h-15v-23h24.3v13.7C57.2,142.5,53.1,146.6,48,146.6z"/><rect x="57.2" y="124.7" fill="#9B4A31" width="35.1" height="7.5"/><path fill="#191919" d="M101.5,146.6h15v-23H92.3v13.7C92.3,142.5,96.4,146.6,101.5,146.6z"/><polygon fill="#D33131" points="86,42 74.8,61.6 63.5,42"/><path fill="#D33131" d="M77.6,46c-1,0.6-2.2,0.9-3.6,0.6c-0.5,0-1-0.2-1.5-0.5c0,0-0.1,0-0.1,0c-0.2-0.1-0.3-0.2-0.4-0.2l-11.2,72.6	l14,13l14-13L77.6,46z"/><path fill="#FFFFFF" d="M97.1,50.6V24.7c0-12.3-10-22.3-22.3-22.3h0c-12.3,0-22.3,10-22.3,22.3v25.9L74.8,42L97.1,50.6z"/><path fill="#D3D3D3" d="M74.8,42L74.8,42c-8.6,0-15.6-7-15.6-15.6v-3.5c0-8.6,7-15.6,15.6-15.6h0c8.6,0,15.6,7,15.6,15.6v3.5	C90.4,35,83.3,42,74.8,42z"/></svg>