<?xml version="1.0" encoding="utf-8"?><!DOCTYPE svg PUBLIC "-//W3C//DTD SVG 1.1//EN" "http://www.w3.org/Graphics/SVG/1.1/DTD/svg11.dtd"><svg version="1.1" id="Layer_1" xmlns="http://www.w3.org/2000/svg" xmlns:xlink="http://www.w3.org/1999/xlink" x="0px" y="0px" width="150px" height="150px" viewBox="0 0 150 150" enable-background="new 0 0 150 150" xml:space="preserve"><linearGradient id="SVGID_1_" gradientUnits="userSpaceOnUse" x1="74.5342" y1="24.1009" x2="74.5342" y2="126.5329"><stop offset="0" style="stop-color:#243C4D"/><stop offset="1" style="stop-color:#4C8CB5"/></linearGradient><path fill="url(#SVGID_1_)" d="M127.9,84.6c0.1-0.6,0.1-1.3,0.1-1.9l0,0c0-6.8-3.3-12.9-8.3-16.7c10.3-1.3,18.4-10.2,18.4-20.9l0,0	c0-11.6-9.5-21-21-21H36.6c-11.6,0-21,9.5-21,21l0,0c0,6.7,3.2,12.7,8.1,16.5H23c-11.6,0-21,9.5-21,21l0,0c0,11.6,9.5,21,21,21h10.2	c-0.1,0.6-0.1,1.2-0.1,1.8c0,11.6,9.5,21,21,21H126c11.6,0,21-9.5,21-21C147.1,94.6,138.6,85.5,127.9,84.6z"/><g><path fill="#FFC200" d="M107.8,95.2c-4.4,3.6-10,5.7-16.1,5.7c-14.1,0-25.6-11.4-25.6-25.6c0-14.1,11.4-25.6,25.6-25.6 c6.1,0,11.7,2.1,16.1,5.7C101.7,47.3,92,42,81,42c-18.4,0-33.3,14.9-33.3,33.3c0,18.4,14.9,33.3,33.3,33.3 C92,108.7,101.7,103.4,107.8,95.2C107.8,95.2,107.8,95.2,107.8,95.2z"/></g><path fill="#FFB000" d="M66.2,73.3c0.4-4.9,2.2-9.5,5-13.2c-1.3-1.1-3-1.7-4.8-1.7c-4.1,0-7.5,3.3-7.5,7.5	C59,69.9,62.2,73.2,66.2,73.3z"/><path fill="#FFB000" d="M54,94.8c2,2.8,4.5,5.3,7.2,7.3c1.4-0.9,2.3-2.5,2.3-4.4c0-2.9-2.4-5.2-5.2-5.2C56.5,92.5,54.9,93.4,54,94.8	z"/><circle fill="#FFFFFF" cx="42.2" cy="35.9" r="2.6"/><circle fill="#FFFFFF" cx="123.5" cy="53.4" r="2.6"/><circle fill="#FFFFFF" cx="121" cy="115.2" r="2.6"/><circle fill="#FFFFFF" cx="34.8" cy="42.4" r="1.7"/><circle fill="#FFFFFF" cx="17.2" cy="87.4" r="1.6"/><circle fill="#FFFFFF" cx="115.8" cy="35.9" r="2.6"/><circle fill="#FFFFFF" cx="125.2" cy="45.1" r="1.7"/></svg>