<?xml version="1.0" encoding="utf-8"?><!DOCTYPE svg PUBLIC "-//W3C//DTD SVG 1.1//EN" "http://www.w3.org/Graphics/SVG/1.1/DTD/svg11.dtd"><svg version="1.1" id="Layer_1" xmlns="http://www.w3.org/2000/svg" xmlns:xlink="http://www.w3.org/1999/xlink" x="0px" y="0px" width="150px" height="150px" viewBox="0 0 150 150" enable-background="new 0 0 150 150" xml:space="preserve"><rect x="108.8" y="15.5" fill="#C6C6C6" width="16.2" height="109.6"/><rect x="108.8" y="22.4" fill="#AAAAAA" width="12.6" height="106.4"/><rect x="24.4" y="24.7" fill="#FFFFFF" width="93" height="108.3"/><path fill="#282828" d="M70.9,100.4c-13.7,0-24.8,11.1-24.8,24.8c0,2.7,0.5,5.4,1.3,7.8h47c0.8-2.5,1.3-5.1,1.3-7.8	C95.7,111.5,84.6,100.4,70.9,100.4z"/><g><path fill="#E51A1A" d="M109.9,32.2v93.3h-78V32.2H109.9 M117.4,24.7h-93V133h93V24.7L117.4,24.7z"/></g><path fill="#FFB5A1" d="M71.8,106.6h-2.1c-2.3,0-4.2-1.9-4.2-4.2V91.8c0-2.3,1.9-4.2,4.2-4.2h2.1c2.3,0,4.2,1.9,4.2,4.2v10.6	C75.9,104.7,74.1,106.6,71.8,106.6z"/><path fill="#FFB5A1" d="M71.4,98.9h-1c-8.6,0-15.6-7-15.6-15.6v-8.1c0-8.6,7-15.6,15.6-15.6h1c8.6,0,15.6,7,15.6,15.6v8.1	C87,91.9,80,98.9,71.4,98.9z"/><path fill="#00AFFC" d="M51.2,67.7H34.8c-0.5,0-0.9-0.4-0.9-0.9v-0.4c0-0.5,0.4-0.9,0.9-0.9h16.4c0.5,0,0.9,0.4,0.9,0.9v0.4	C52.1,67.3,51.7,67.7,51.2,67.7z"/><path fill="#00AFFC" d="M48.1,72.7H34.8c-0.5,0-0.9-0.4-0.9-0.9v-0.4c0-0.5,0.4-0.9,0.9-0.9h13.3c0.5,0,0.9,0.4,0.9,0.9v0.4	C49,72.3,48.6,72.7,48.1,72.7z"/><path fill="#00AFFC" d="M43.9,77.7h-9.1c-0.5,0-0.9-0.4-0.9-0.9v-0.4c0-0.5,0.4-0.9,0.9-0.9h9.1c0.5,0,0.9,0.4,0.9,0.9v0.4	C44.7,77.4,44.3,77.7,43.9,77.7z"/><path fill="#FFB600" d="M106.3,80.2H89.8c-0.5,0-0.9-0.4-0.9-0.9V79c0-0.5,0.4-0.9,0.9-0.9h16.4c0.5,0,0.9,0.4,0.9,0.9v0.4	C107.1,79.9,106.7,80.2,106.3,80.2z"/><path fill="#FFB600" d="M106.3,85.2h-14c-0.5,0-0.9-0.4-0.9-0.9V84c0-0.5,0.4-0.9,0.9-0.9h14c0.5,0,0.9,0.4,0.9,0.9v0.4	C107.1,84.9,106.7,85.2,106.3,85.2z"/><path fill="#FFB600" d="M106.3,90.2h-4.4c-0.5,0-0.9-0.4-0.9-0.9V89c0-0.5,0.4-0.9,0.9-0.9h4.4c0.5,0,0.9,0.4,0.9,0.9v0.4	C107.1,89.9,106.7,90.2,106.3,90.2z"/><path fill="#D1D1D1" d="M51.2,92.8H34.8c-0.5,0-0.9-0.4-0.9-0.9v-0.4c0-0.5,0.4-0.9,0.9-0.9h16.4c0.5,0,0.9,0.4,0.9,0.9v0.4	C52.1,92.4,51.7,92.8,51.2,92.8z"/><rect x="24.4" y="20.1" fill="#D3D3D3" width="4.3" height="4.6"/><rect x="24.4" y="22.5" fill="#AAAAAA" width="4.3" height="2.2"/><path fill="#D1D1D1" d="M45.3,97.8H34.8c-0.5,0-0.9-0.4-0.9-0.9v-0.4c0-0.5,0.4-0.9,0.9-0.9h10.5c0.5,0,0.9,0.4,0.9,0.9v0.4	C46.1,97.4,45.8,97.8,45.3,97.8z"/><path fill="#C6C6C6" d="M121.3,15.5H28.1c-2,0-3.7,1.7-3.7,3.7V21c0,2,1.7,3.7,3.7,3.7h93.2c2,0,3.7-1.7,3.7-3.7v-1.8	C125,17.1,123.3,15.5,121.3,15.5z"/><path fill="#AAAAAA" d="M121.4,20.1H26.3c-1,0-1.8,0.8-1.8,1.8v0.9c0,1,0.8,1.8,1.8,1.8h95.1V20.1z"/><rect x="38.5" y="36.9" fill="#E51A1A" width="7.2" height="13.6"/><rect x="41.4" y="41.3" fill="#E51A1A" width="13.9" height="4.8"/><rect x="59" y="38" fill="#E51A1A" width="5.1" height="12.5"/><rect x="59.6" y="38" fill="#E51A1A" width="13.5" height="2.8"/><rect x="75.4" y="36.9" fill="#E51A1A" width="5.6" height="13.6"/><rect x="79.1" y="44.7" fill="#E51A1A" width="7.4" height="2.4"/><rect x="89.9" y="36.9" fill="#E51A1A" width="5.2" height="13.6"/><rect x="100" y="46.1" fill="#E51A1A" width="5.1" height="4.3"/></svg>