<?xml version="1.0" encoding="utf-8"?><!DOCTYPE svg PUBLIC "-//W3C//DTD SVG 1.1//EN" "http://www.w3.org/Graphics/SVG/1.1/DTD/svg11.dtd"><svg version="1.1" id="Layer_1" xmlns="http://www.w3.org/2000/svg" xmlns:xlink="http://www.w3.org/1999/xlink" x="0px" y="0px" width="150px" height="150px" viewBox="0 0 150 150" enable-background="new 0 0 150 150" xml:space="preserve"><path fill="#CC2F2F" d="M89.2,51.5H59.9c-18.5,0-30.1,20-20.8,36l22.3,38.6c5.9,10.2,20.6,10.2,26.4,0L110,87.6	C119.3,71.5,107.7,51.5,89.2,51.5z"/><path fill="#AD2A2A" d="M52.4,77.1L52.4,77.1c-1.5,0-2.7-1.2-2.7-2.7v-4.3c0-1.5,1.2-2.7,2.7-2.7h0c1.5,0,2.7,1.2,2.7,2.7v4.3	C55.1,75.9,53.9,77.1,52.4,77.1z"/><path fill="#AD2A2A" d="M74.5,77.1L74.5,77.1c-1.5,0-2.7-1.2-2.7-2.7v-4.3c0-1.5,1.2-2.7,2.7-2.7h0c1.5,0,2.7,1.2,2.7,2.7v4.3	C77.2,75.9,76,77.1,74.5,77.1z"/><path fill="#AD2A2A" d="M95.8,77.1L95.8,77.1c-1.5,0-2.7-1.2-2.7-2.7v-4.3c0-1.5,1.2-2.7,2.7-2.7l0,0c1.5,0,2.7,1.2,2.7,2.7v4.3	C98.5,75.9,97.3,77.1,95.8,77.1z"/><path fill="#AD2A2A" d="M63.8,98.8L63.8,98.8c-1.5,0-2.7-1.2-2.7-2.7v-4.3c0-1.5,1.2-2.7,2.7-2.7h0c1.5,0,2.7,1.2,2.7,2.7v4.3	C66.5,97.6,65.3,98.8,63.8,98.8z"/><path fill="#AD2A2A" d="M85.7,98.8L85.7,98.8c-1.5,0-2.7-1.2-2.7-2.7v-4.3c0-1.5,1.2-2.7,2.7-2.7h0c1.5,0,2.7,1.2,2.7,2.7v4.3	C88.4,97.6,87.2,98.8,85.7,98.8z"/><path fill="#AD2A2A" d="M75.4,121L75.4,121c-1.5,0-2.7-1.2-2.7-2.7v-4.3c0-1.5,1.2-2.7,2.7-2.7h0c1.5,0,2.7,1.2,2.7,2.7v4.3	C78.2,119.7,76.9,121,75.4,121z"/><path fill="#86B20D" d="M74.5,55.8c6.4-4.5,10.7-11.9,10.7-20.4S80.9,19.5,74.5,15V55.8z"/><path fill="#88C11A" d="M74.5,15C68,19.5,63.8,27,63.8,35.4S68,51.3,74.5,55.8V15z"/><path fill="#86B20D" d="M74.5,55.8c1.4-7.7-0.9-16-6.9-22s-14.2-8.3-22-6.9L74.5,55.8z"/><path fill="#88C11A" d="M45.6,26.9c-1.4,7.7,0.9,16,6.9,22s14.2,8.3,22,6.9L45.6,26.9z"/><path fill="#88C11A" d="M74.5,55.8c-1.4-7.7,0.9-16,6.9-22c6-6,14.2-8.3,22-6.9L74.5,55.8z"/><path fill="#86B20D" d="M103.3,26.9c1.4,7.7-0.9,16-6.9,22s-14.2,8.3-22,6.9L103.3,26.9z"/></svg>