<?xml version="1.0" encoding="utf-8"?><!DOCTYPE svg PUBLIC "-//W3C//DTD SVG 1.1//EN" "http://www.w3.org/Graphics/SVG/1.1/DTD/svg11.dtd"><svg version="1.1" id="Layer_1" xmlns="http://www.w3.org/2000/svg" xmlns:xlink="http://www.w3.org/1999/xlink" x="0px" y="0px" width="150px" height="150px" viewBox="0 0 150 150" enable-background="new 0 0 150 150" xml:space="preserve"><polygon fill="#36A8E0" points="65.9,137.5 21.9,137.5 21.9,38.9 65.9,39"/><polygon fill="#36A8E0" points="87.4,40.4 43.6,40.3 43.6,17.3 87.4,17.3"/><polygon fill="#28A1C6" points="109.2,137.6 65.3,137.5 65.3,39 109.2,39"/><polygon fill="#198799" points="65.3,39 87.4,17.3 109.5,39"/><polygon fill="#36A8E0" points="21.9,38.9 43.6,17.3 65.4,39"/><rect x="43.6" y="11.7" fill="#36A8E0" width="43.7" height="5.7"/><polygon fill="#FFFFFF" points="30.7,55.8 21.7,55.8 21.7,47 30.7,47"/><polygon fill="#FFFFFF" points="39.3,64.6 30.7,64.6 30.7,55.8 39.3,55.8"/><polygon fill="#FFFFFF" points="48,55.8 39.3,55.8 39.4,47 48,47"/><polygon fill="#FFFFFF" points="65.3,55.8 56.7,55.8 56.7,47 65.3,47"/><polygon fill="#FFFFFF" points="56.7,64.6 48,64.6 48,55.8 56.7,55.8"/><polygon opacity="0.62" fill="#FFFFFF" points="100.5,55.8 109.2,55.8 109.2,64.6 100.4,64.6"/><polygon opacity="0.62" fill="#FFFFFF" points="91.7,47.1 100.5,47.1 100.5,55.8 91.7,55.8"/><polygon opacity="0.62" fill="#FFFFFF" points="82.9,55.8 91.7,55.8 91.7,64.6 82.9,64.6"/><polygon opacity="0.62" fill="#FFFFFF" points="65.3,55.8 74.1,55.8 74.1,64.6 65.3,64.6"/><polygon opacity="0.62" fill="#FFFFFF" points="74.1,47 82.9,47.1 82.9,55.8 74.1,55.8"/><polygon fill="#FFFFFF" points="30.7,119.3 21.9,119.3 21.9,110.5 30.7,110.5"/><polygon fill="#FFFFFF" points="39.3,128.1 30.7,128.1 30.7,119.3 39.3,119.3"/><polygon fill="#FFFFFF" points="48,119.3 39.3,119.3 39.3,110.5 48,110.5"/><polygon fill="#FFFFFF" points="65.3,119.3 56.7,119.3 56.7,110.5 65.3,110.5"/><polygon fill="#FFFFFF" points="56.6,128.1 48,128.1 48,119.3 56.7,119.3"/><polygon opacity="0.62" fill="#FFFFFF" points="100.4,119.3 109.2,119.3 109.2,128.1 100.4,128.1"/><polygon opacity="0.62" fill="#FFFFFF" points="91.7,110.6 100.4,110.6 100.4,119.3 91.7,119.3"/><polygon opacity="0.62" fill="#FFFFFF" points="82.9,119.3 91.7,119.3 91.6,128.1 82.9,128.1"/><polygon opacity="0.62" fill="#FFFFFF" points="65.3,119.3 74.1,119.3 74.1,128.1 65.3,128.1"/><polygon opacity="0.62" fill="#FFFFFF" points="74.1,110.6 82.9,110.6 82.9,119.3 74.1,119.3"/><polygon opacity="0.85" fill="#97DCF2" points="124.4,137.6 92,137.6 88.3,71.1 128.1,71.1"/><polygon fill="#FFFFFF" points="121.4,133.6 95.5,133.6 93.1,87.4 123.8,87.4"/><polygon opacity="0.9" fill="#FFFFFF" points="65.3,110.5 21.4,110.5 21.5,64.5 65.3,64.6"/><polygon opacity="0.62" fill="#FFFFFF" points="109.2,110.6 65.3,110.5 65.3,64.6 109.2,64.6"/></svg>