<?xml version="1.0" encoding="utf-8"?><!DOCTYPE svg PUBLIC "-//W3C//DTD SVG 1.1//EN" "http://www.w3.org/Graphics/SVG/1.1/DTD/svg11.dtd"><svg version="1.1" id="Layer_1" xmlns="http://www.w3.org/2000/svg" xmlns:xlink="http://www.w3.org/1999/xlink" x="0px" y="0px" width="150px" height="150px" viewBox="0 0 150 150" enable-background="new 0 0 150 150" xml:space="preserve"><polyline fill="none" stroke="#C12F2F" stroke-width="7.015" stroke-linecap="round" stroke-linejoin="round" stroke-miterlimit="10" points="11.6,40 26.7,111.1 12.2,111.1"/><polyline fill="none" stroke="#C12F2F" stroke-width="7.015" stroke-linecap="round" stroke-linejoin="round" stroke-miterlimit="10" points="139.8,40 124.7,111.1 139.2,111.1"/><path fill="#D8D8D8" d="M139.8,37.3l-6.1,6.2l-3.3-3.4l0.5-0.5c0.7-0.7,0.7-1.8,0-2.5c-0.7-0.7-1.8-0.7-2.5,0l-0.5,0.5l-0.5-0.5	c-0.7-0.7-1.8-0.7-2.5,0c-0.7,0.7-0.7,1.8,0,2.5l0.5,0.5l-3.3,3.4l-3.3-3.4l0.5-0.5c0.7-0.7,0.7-1.8,0-2.5c-0.7-0.7-1.8-0.7-2.5,0	l-0.5,0.5l-0.5-0.5c-0.7-0.7-1.8-0.7-2.5,0c-0.7,0.7-0.7,1.8,0,2.5l0.5,0.5l-3.3,3.4l-3.3-3.4l0.5-0.5c0.7-0.7,0.7-1.8,0-2.5	c-0.7-0.7-1.8-0.7-2.5,0l-0.5,0.5l-0.5-0.5c-0.7-0.7-1.8-0.7-2.5,0c-0.7,0.7-0.7,1.8,0,2.5l0.5,0.5L99,43.5l-3.3-3.4l0.5-0.5	c0.7-0.7,0.7-1.8,0-2.5c-0.7-0.7-1.8-0.7-2.5,0l-0.5,0.5l-0.5-0.5c-0.7-0.7-1.8-0.7-2.5,0c-0.7,0.7-0.7,1.8,0,2.5l0.5,0.5l-3.3,3.4	l-3.3-3.4l0.5-0.5c0.7-0.7,0.7-1.8,0-2.5c-0.7-0.7-1.8-0.7-2.5,0l-0.5,0.5l-0.5-0.5c-0.7-0.7-1.8-0.7-2.5,0c-0.7,0.7-0.7,1.8,0,2.5	l0.5,0.5l-3.3,3.4l-3.3-3.4l0.5-0.5c0.7-0.7,0.7-1.8,0-2.5c-0.7-0.7-1.8-0.7-2.5,0l-0.5,0.5l-0.5-0.5c-0.7-0.7-1.8-0.7-2.5,0	c-0.7,0.7-0.7,1.8,0,2.5l0.5,0.5l-3.3,3.4L61,40.1l0.5-0.5c0.7-0.7,0.7-1.8,0-2.5c-0.7-0.7-1.8-0.7-2.5,0l-0.5,0.5L58,37.1	c-0.7-0.7-1.8-0.7-2.5,0c-0.7,0.7-0.7,1.8,0,2.5l0.5,0.5l-3.3,3.4l-3.3-3.4l0.5-0.5c0.7-0.7,0.7-1.8,0-2.5c-0.7-0.7-1.8-0.7-2.5,0	l-0.5,0.5l-0.5-0.5c-0.7-0.7-1.8-0.7-2.5,0c-0.7,0.7-0.7,1.8,0,2.5l0.5,0.5l-3.3,3.4l-3.3-3.4l0.5-0.5c0.7-0.7,0.7-1.8,0-2.5	c-0.7-0.7-1.8-0.7-2.5,0l-0.5,0.5l-0.5-0.5c-0.7-0.7-1.8-0.7-2.5,0c-0.7,0.7-0.7,1.8,0,2.5l0.5,0.5l-3.3,3.4l-3.3-3.4l0.5-0.5	c0.7-0.7,0.7-1.8,0-2.5c-0.7-0.7-1.8-0.7-2.5,0l-0.5,0.5l-0.5-0.5c-0.7-0.7-1.8-0.7-2.5,0c-0.7,0.7-0.7,1.8,0,2.5l0.5,0.5L18,43.5	l-3.3-3.4l0.5-0.5c0.7-0.7,0.7-1.8,0-2.5c-0.7-0.7-1.8-0.7-2.5,0l-0.5,0.5l-0.5-0.5c-0.3-0.3-0.8-0.5-1.2-0.5v7.8l1.7-1.8l3.3,3.4	l-3.3,3.4l-1.7-1.8v8.6l1.7-1.8l3.3,3.4l-3.3,3.4l-1.7-1.8V68l1.7-1.8l3.3,3.4l-3.3,3.4l-1.7-1.8v8.6l1.7-1.8l3.3,3.4l-3.3,3.4	l-1.7-1.8v8.6l1.7-1.8l3.3,3.4l-3.3,3.4l-1.7-1.8v8.6l1.7-1.8l3.3,3.4l-3.3,3.4l-1.7-1.8v7.8c0.4,0,0.9-0.2,1.2-0.5l0.5-0.5l0.5,0.5	c0.3,0.3,0.8,0.5,1.2,0.5c0.4,0,0.9-0.2,1.2-0.5c0.7-0.7,0.7-1.8,0-2.5l-0.5-0.5l3.3-3.4l3.3,3.4l-0.5,0.5c-0.7,0.7-0.7,1.8,0,2.5	c0.3,0.3,0.8,0.5,1.2,0.5s0.9-0.2,1.2-0.5l0.5-0.5l0.5,0.5c0.3,0.3,0.8,0.5,1.2,0.5c0.4,0,0.9-0.2,1.2-0.5c0.7-0.7,0.7-1.8,0-2.5	l-0.5-0.5l3.3-3.4l3.3,3.4l-0.5,0.5c-0.7,0.7-0.7,1.8,0,2.5c0.3,0.3,0.8,0.5,1.2,0.5c0.4,0,0.9-0.2,1.2-0.5l0.5-0.5l0.5,0.5	c0.3,0.3,0.8,0.5,1.2,0.5c0.4,0,0.9-0.2,1.2-0.5c0.7-0.7,0.7-1.8,0-2.5l-0.5-0.5l3.3-3.4l3.3,3.4l-0.5,0.5c-0.7,0.7-0.7,1.8,0,2.5	c0.3,0.3,0.8,0.5,1.2,0.5s0.9-0.2,1.2-0.5l0.5-0.5l0.5,0.5c0.3,0.3,0.8,0.5,1.2,0.5c0.4,0,0.9-0.2,1.2-0.5c0.7-0.7,0.7-1.8,0-2.5	l-0.5-0.5l3.3-3.4L56,111l-0.5,0.5c-0.7,0.7-0.7,1.8,0,2.5c0.3,0.3,0.8,0.5,1.2,0.5c0.4,0,0.9-0.2,1.2-0.5l0.5-0.5L59,114	c0.3,0.3,0.8,0.5,1.2,0.5c0.4,0,0.9-0.2,1.2-0.5c0.7-0.7,0.7-1.8,0-2.5L61,111l3.3-3.4l3.3,3.4l-0.5,0.5c-0.7,0.7-0.7,1.8,0,2.5	c0.3,0.3,0.8,0.5,1.2,0.5s0.9-0.2,1.2-0.5l0.5-0.5l0.5,0.5c0.3,0.3,0.8,0.5,1.2,0.5s0.9-0.2,1.2-0.5c0.7-0.7,0.7-1.8,0-2.5l-0.5-0.5	l3.3-3.4l3.3,3.4l-0.5,0.5c-0.7,0.7-0.7,1.8,0,2.5c0.3,0.3,0.8,0.5,1.2,0.5s0.9-0.2,1.2-0.5l0.5-0.5l0.5,0.5	c0.3,0.3,0.8,0.5,1.2,0.5s0.9-0.2,1.2-0.5c0.7-0.7,0.7-1.8,0-2.5l-0.5-0.5l3.3-3.4l3.3,3.4l-0.5,0.5c-0.7,0.7-0.7,1.8,0,2.5	c0.3,0.3,0.8,0.5,1.2,0.5c0.4,0,0.9-0.2,1.2-0.5l0.5-0.5l0.5,0.5c0.3,0.3,0.8,0.5,1.2,0.5c0.4,0,0.9-0.2,1.2-0.5	c0.7-0.7,0.7-1.8,0-2.5l-0.5-0.5l3.3-3.4l3.3,3.4l-0.5,0.5c-0.7,0.7-0.7,1.8,0,2.5c0.3,0.3,0.8,0.5,1.2,0.5c0.4,0,0.9-0.2,1.2-0.5	l0.5-0.5l0.5,0.5c0.3,0.3,0.8,0.5,1.2,0.5c0.4,0,0.9-0.2,1.2-0.5c0.7-0.7,0.7-1.8,0-2.5l-0.5-0.5l3.3-3.4l3.3,3.4l-0.5,0.5	c-0.7,0.7-0.7,1.8,0,2.5c0.3,0.3,0.8,0.5,1.2,0.5s0.9-0.2,1.2-0.5l0.5-0.5l0.5,0.5c0.3,0.3,0.8,0.5,1.2,0.5s0.9-0.2,1.2-0.5	c0.7-0.7,0.7-1.8,0-2.5l-0.5-0.5l3.3-3.4l3.3,3.4l-0.5,0.5c-0.7,0.7-0.7,1.8,0,2.5c0.3,0.3,0.8,0.5,1.2,0.5s0.9-0.2,1.2-0.5l0.5-0.5	l0.5,0.5c0.3,0.3,0.8,0.5,1.2,0.5s0.9-0.2,1.2-0.5c0.7-0.7,0.7-1.8,0-2.5l-0.5-0.5l3.3-3.4l6.1,6.2v-5l-3.6-3.7l3.3-3.4l0.3,0.3	v-5.6l-0.3,0.3l-3.3-3.4l3.3-3.4l0.3,0.3v-5.6l-0.3,0.3l-3.3-3.4l3.3-3.4l0.3,0.3v-5.6l-0.3,0.3l-3.3-3.4l3.3-3.4l0.3,0.3V61	l-0.3,0.3l-3.3-3.4l3.3-3.4l0.3,0.3v-5.6l-0.3,0.3l-3.3-3.4l3.6-3.7V37.3z M127.9,42.7l3.3,3.4l-3.3,3.4l-3.3-3.4L127.9,42.7z M32.9,75.6L29.6,79l-3.3-3.4l3.3-3.4L32.9,75.6z M32,69.7l3.3-3.4l3.3,3.4l-3.3,3.4L32,69.7z M35.4,78.1l3.3,3.4l-3.3,3.4L32,81.5	L35.4,78.1z M37.8,75.6l3.3-3.4l3.3,3.4L41.1,79L37.8,75.6z M43.6,69.7l3.3-3.4l3.3,3.4l-3.3,3.4L43.6,69.7z M46.9,78.1l3.3,3.4	l-3.3,3.4l-3.3-3.4L46.9,78.1z M49.4,75.6l3.3-3.4l3.3,3.4L52.7,79L49.4,75.6z M55.2,69.7l3.3-3.4l3.3,3.4l-3.3,3.4L55.2,69.7z M58.5,78.1l3.3,3.4l-3.3,3.4l-3.3-3.4L58.5,78.1z M61,75.6l3.3-3.4l3.3,3.4L64.3,79L61,75.6z M66.7,69.7l3.3-3.4l3.3,3.4l-3.3,3.4	L66.7,69.7z M70.1,78.1l3.3,3.4l-3.3,3.4l-3.3-3.4L70.1,78.1z M72.5,75.6l3.3-3.4l3.3,3.4L75.9,79L72.5,75.6z M78.3,69.7l3.3-3.4	l3.3,3.4l-3.3,3.4L78.3,69.7z M81.6,78.1l3.3,3.4l-3.3,3.4l-3.3-3.4L81.6,78.1z M84.1,75.6l3.3-3.4l3.3,3.4L87.4,79L84.1,75.6z M89.9,69.7l3.3-3.4l3.3,3.4l-3.3,3.4L89.9,69.7z M93.2,78.1l3.3,3.4l-3.3,3.4l-3.3-3.4L93.2,78.1z M95.7,75.6l3.3-3.4l3.3,3.4	L99,79L95.7,75.6z M101.4,69.7l3.3-3.4l3.3,3.4l-3.3,3.4L101.4,69.7z M104.8,78.1l3.3,3.4l-3.3,3.4l-3.3-3.4L104.8,78.1z M107.2,75.6l3.3-3.4l3.3,3.4l-3.3,3.4L107.2,75.6z M113,69.7l3.3-3.4l3.3,3.4l-3.3,3.4L113,69.7z M116.4,78.1l3.3,3.4l-3.3,3.4	l-3.3-3.4L116.4,78.1z M118.8,75.6l3.3-3.4l3.3,3.4l-3.3,3.4L118.8,75.6z M118.8,63.8l3.3-3.4l3.3,3.4l-3.3,3.4L118.8,63.8z M116.4,61.3l-3.3-3.4l3.3-3.4l3.3,3.4L116.4,61.3z M113.9,63.8l-3.3,3.4l-3.3-3.4l3.3-3.4L113.9,63.8z M104.8,61.3l-3.3-3.4	l3.3-3.4l3.3,3.4L104.8,61.3z M102.3,63.8L99,67.2l-3.3-3.4l3.3-3.4L102.3,63.8z M93.2,61.3l-3.3-3.4l3.3-3.4l3.3,3.4L93.2,61.3z M90.8,63.8l-3.3,3.4l-3.3-3.4l3.3-3.4L90.8,63.8z M81.6,61.3l-3.3-3.4l3.3-3.4l3.3,3.4L81.6,61.3z M79.2,63.8l-3.3,3.4l-3.3-3.4	l3.3-3.4L79.2,63.8z M70.1,61.3l-3.3-3.4l3.3-3.4l3.3,3.4L70.1,61.3z M67.6,63.8l-3.3,3.4L61,63.8l3.3-3.4L67.6,63.8z M58.5,61.3	l-3.3-3.4l3.3-3.4l3.3,3.4L58.5,61.3z M56,63.8l-3.3,3.4l-3.3-3.4l3.3-3.4L56,63.8z M46.9,61.3l-3.3-3.4l3.3-3.4l3.3,3.4L46.9,61.3z M44.5,63.8l-3.3,3.4l-3.3-3.4l3.3-3.4L44.5,63.8z M35.4,61.3L32,57.9l3.3-3.4l3.3,3.4L35.4,61.3z M32.9,63.8l-3.3,3.4l-3.3-3.4	l3.3-3.4L32.9,63.8z M23.8,61.3l-3.3-3.4l3.3-3.4l3.3,3.4L23.8,61.3z M27.1,69.7l-3.3,3.4l-3.3-3.4l3.3-3.4L27.1,69.7z M27.1,81.5	l-3.3,3.4l-3.3-3.4l3.3-3.4L27.1,81.5z M27.1,93.3l-3.3,3.4l-3.3-3.4l3.3-3.4L27.1,93.3z M26.2,87.4l3.3-3.4l3.3,3.4l-3.3,3.4	L26.2,87.4z M35.4,89.9l3.3,3.4l-3.3,3.4L32,93.3L35.4,89.9z M37.8,87.4l3.3-3.4l3.3,3.4l-3.3,3.4L37.8,87.4z M46.9,89.9l3.3,3.4	l-3.3,3.4l-3.3-3.4L46.9,89.9z M49.4,87.4l3.3-3.4l3.3,3.4l-3.3,3.4L49.4,87.4z M58.5,89.9l3.3,3.4l-3.3,3.4l-3.3-3.4L58.5,89.9z M61,87.4l3.3-3.4l3.3,3.4l-3.3,3.4L61,87.4z M70.1,89.9l3.3,3.4l-3.3,3.4l-3.3-3.4L70.1,89.9z M72.5,87.4l3.3-3.4l3.3,3.4l-3.3,3.4	L72.5,87.4z M81.6,89.9l3.3,3.4l-3.3,3.4l-3.3-3.4L81.6,89.9z M84.1,87.4l3.3-3.4l3.3,3.4l-3.3,3.4L84.1,87.4z M93.2,89.9l3.3,3.4	l-3.3,3.4l-3.3-3.4L93.2,89.9z M95.7,87.4L99,84l3.3,3.4L99,90.8L95.7,87.4z M104.8,89.9l3.3,3.4l-3.3,3.4l-3.3-3.4L104.8,89.9z M107.2,87.4l3.3-3.4l3.3,3.4l-3.3,3.4L107.2,87.4z M116.4,89.9l3.3,3.4l-3.3,3.4l-3.3-3.4L116.4,89.9z M118.8,87.4l3.3-3.4l3.3,3.4	l-3.3,3.4L118.8,87.4z M127.9,89.9l3.3,3.4l-3.3,3.4l-3.3-3.4L127.9,89.9z M124.6,81.5l3.3-3.4l3.3,3.4l-3.3,3.4L124.6,81.5z M124.6,69.7l3.3-3.4l3.3,3.4l-3.3,3.4L124.6,69.7z M124.6,57.9l3.3-3.4l3.3,3.4l-3.3,3.4L124.6,57.9z M125.5,52l-3.3,3.4l-3.3-3.4	l3.3-3.4L125.5,52z M116.4,42.7l3.3,3.4l-3.3,3.4l-3.3-3.4L116.4,42.7z M113.9,52l-3.3,3.4l-3.3-3.4l3.3-3.4L113.9,52z M104.8,42.7	l3.3,3.4l-3.3,3.4l-3.3-3.4L104.8,42.7z M102.3,52L99,55.4L95.7,52l3.3-3.4L102.3,52z M93.2,42.7l3.3,3.4l-3.3,3.4l-3.3-3.4	L93.2,42.7z M90.8,52l-3.3,3.4L84.1,52l3.3-3.4L90.8,52z M81.6,42.7l3.3,3.4l-3.3,3.4l-3.3-3.4L81.6,42.7z M79.2,52l-3.3,3.4	L72.5,52l3.3-3.4L79.2,52z M70.1,42.7l3.3,3.4l-3.3,3.4l-3.3-3.4L70.1,42.7z M67.6,52l-3.3,3.4L61,52l3.3-3.4L67.6,52z M58.5,42.7	l3.3,3.4l-3.3,3.4l-3.3-3.4L58.5,42.7z M56,52l-3.3,3.4L49.4,52l3.3-3.4L56,52z M46.9,42.7l3.3,3.4l-3.3,3.4l-3.3-3.4L46.9,42.7z M44.5,52l-3.3,3.4L37.8,52l3.3-3.4L44.5,52z M35.4,42.7l3.3,3.4l-3.3,3.4L32,46.1L35.4,42.7z M32.9,52l-3.3,3.4L26.2,52l3.3-3.4	L32.9,52z M23.8,42.7l3.3,3.4l-3.3,3.4l-3.3-3.4L23.8,42.7z M14.7,52l3.3-3.4l3.3,3.4L18,55.4L14.7,52z M14.7,63.8l3.3-3.4l3.3,3.4	L18,67.2L14.7,63.8z M14.7,75.6l3.3-3.4l3.3,3.4L18,79L14.7,75.6z M14.7,87.4L18,84l3.3,3.4L18,90.8L14.7,87.4z M14.7,99.2l3.3-3.4	l3.3,3.4l-3.3,3.4L14.7,99.2z M23.8,108.5l-3.3-3.4l3.3-3.4l3.3,3.4L23.8,108.5z M26.2,99.2l3.3-3.4l3.3,3.4l-3.3,3.4L26.2,99.2z M35.4,108.5l-3.3-3.4l3.3-3.4l3.3,3.4L35.4,108.5z M37.8,99.2l3.3-3.4l3.3,3.4l-3.3,3.4L37.8,99.2z M46.9,108.5l-3.3-3.4l3.3-3.4	l3.3,3.4L46.9,108.5z M49.4,99.2l3.3-3.4l3.3,3.4l-3.3,3.4L49.4,99.2z M58.5,108.5l-3.3-3.4l3.3-3.4l3.3,3.4L58.5,108.5z M61,99.2	l3.3-3.4l3.3,3.4l-3.3,3.4L61,99.2z M70.1,108.5l-3.3-3.4l3.3-3.4l3.3,3.4L70.1,108.5z M72.5,99.2l3.3-3.4l3.3,3.4l-3.3,3.4	L72.5,99.2z M81.6,108.5l-3.3-3.4l3.3-3.4l3.3,3.4L81.6,108.5z M84.1,99.2l3.3-3.4l3.3,3.4l-3.3,3.4L84.1,99.2z M93.2,108.5	l-3.3-3.4l3.3-3.4l3.3,3.4L93.2,108.5z M95.7,99.2l3.3-3.4l3.3,3.4l-3.3,3.4L95.7,99.2z M104.8,108.5l-3.3-3.4l3.3-3.4l3.3,3.4	L104.8,108.5z M107.2,99.2l3.3-3.4l3.3,3.4l-3.3,3.4L107.2,99.2z M116.4,108.5l-3.3-3.4l3.3-3.4l3.3,3.4L116.4,108.5z M118.8,99.2	l3.3-3.4l3.3,3.4l-3.3,3.4L118.8,99.2z M127.9,108.5l-3.3-3.4l3.3-3.4l3.3,3.4L127.9,108.5z M137,99.2l-3.3,3.4l-3.3-3.4l3.3-3.4	L137,99.2z M137,87.4l-3.3,3.4l-3.3-3.4l3.3-3.4L137,87.4z M137,75.6l-3.3,3.4l-3.3-3.4l3.3-3.4L137,75.6z M137,63.8l-3.3,3.4	l-3.3-3.4l3.3-3.4L137,63.8z M137,52l-3.3,3.4l-3.3-3.4l3.3-3.4L137,52z"/><polyline fill="none" stroke="#D33535" stroke-width="7.015" stroke-linecap="round" stroke-linejoin="round" stroke-miterlimit="10" points="10.5,111.1 10.5,40 139.8,40 139.8,111.1"/></svg>