<?xml version="1.0" encoding="utf-8"?><!DOCTYPE svg PUBLIC "-//W3C//DTD SVG 1.1//EN" "http://www.w3.org/Graphics/SVG/1.1/DTD/svg11.dtd"><svg version="1.1" xmlns="http://www.w3.org/2000/svg" xmlns:xlink="http://www.w3.org/1999/xlink" x="0px" y="0px" width="150px" height="150px" viewBox="0 0 150 150" enable-background="new 0 0 150 150" xml:space="preserve"><g id="Layer_2" display="none"><rect x="-1530" y="-510" display="inline" fill="#F0F0F0" width="1680" height="1677.3"/></g><g id="Layer_1"><path fill="#9B4138" d="M125.1,52.5H67.5c-4.2,0-7.6-3.4-7.6-7.6v0c0-4.2,3.4-7.6,7.6-7.6h57.6c4.2,0,7.6,3.4,7.6,7.6v0 C132.7,49.1,129.3,52.5,125.1,52.5z"/><path fill="#D33131" d="M55.4,142v-7c0-22.4,18.2-40.6,40.6-40.6h0c22.4,0,40.6,18.2,40.6,40.6v7"/><rect x="64.9" y="129.9" fill="#0C71A3" width="62.4" height="12.1"/><polygon fill="#FF9D8A" points="105.4,108 96.1,116.9 86.8,108"/><path fill="#1980BA" d="M71.6,137.2L71.6,137.2c-3.7,0-6.7-3-6.7-6.7v-29.6c0-0.7,0.6-1.3,1.3-1.3H77c0.7,0,1.3,0.6,1.3,1.3v29.6 C78.2,134.2,75.3,137.2,71.6,137.2z"/><path fill="#1980BA" d="M120.7,137.2L120.7,137.2c-3.7,0-6.6-3-6.6-6.6v-29.6c0-0.7,0.6-1.3,1.3-1.3h10.7c0.7,0,1.3,0.6,1.3,1.3 v29.6C127.3,134.2,124.4,137.2,120.7,137.2z"/><path fill="#AD2727" d="M116.6,123.6v-18c0-11.4-9.3-20.7-20.7-20.7h0c-11.4,0-20.7,9.3-20.7,20.7v18l20.9-6.8L116.6,123.6z"/><polygon fill="#FFFFFF" points="106.4,106.4 96.1,116.1 85.9,106.4"/><circle fill="#FFB600" cx="71.6" cy="131" r="3.3"/><circle fill="#FFB600" cx="120.7" cy="131" r="3.3"/><path fill="#FF9D8A" d="M96.1,111.1L96.1,111.1c-7.6,0-13.7-6.1-13.7-13.7v-10c0-7.6,6.1-13.7,13.7-13.7h0 c7.6,0,13.7,6.1,13.7,13.7v10C109.8,105,103.7,111.1,96.1,111.1z"/><rect x="19" y="111.6" fill="#FF9D8A" width="24.7" height="30.3"/><rect x="19" y="123.6" fill="#D33131" width="24.7" height="18.3"/><rect x="24.1" y="81.2" fill="#AD6A27" width="10.1" height="60.6"/><path fill="#FFB5A1" d="M32.8,130.2H19.2c-2.7,0-5-2.2-5-5v0c0-2.7,2.2-5,5-5h13.6c2.7,0,5,2.2,5,5v0 C37.8,128,35.6,130.2,32.8,130.2z"/><path fill="#FFB5A1" d="M37.5,117.8L37.5,117.8c-3.4,0-6.2-2.8-6.2-6.1v-0.1c0-3.4,2.8-6.1,6.1-6.1h0.1c3.4,0,6.1,2.8,6.1,6.1v0.1 C43.6,115,40.9,117.8,37.5,117.8z"/><path fill="#FFB5A1" d="M32.8,112.1H19.2c-2.7,0-5-2.2-5-5v0c0-2.7,2.2-5,5-5h13.6c2.7,0,5,2.2,5,5v0 C37.8,109.9,35.6,112.1,32.8,112.1z"/><path fill="#FFB5A1" d="M32.8,121.1H19.2c-2.7,0-5-2.2-5-5v0c0-2.7,2.2-5,5-5h13.6c2.7,0,5,2.2,5,5v0 C37.8,118.9,35.6,121.1,32.8,121.1z"/><path fill="none" stroke="#B7B7B7" stroke-width="4.5849" stroke-linecap="round" stroke-miterlimit="10" d="M55.3,11.3v39.1 c0,8.1-6.6,14.7-14.7,14.7H17.8c-8.1,0-14.7-6.6-14.7-14.7V11.3"/><line fill="none" stroke="#B7B7B7" stroke-width="4.5849" stroke-linecap="round" stroke-miterlimit="10" x1="29.2" y1="11.3" x2="29.2" y2="70.7"/><path fill="#B7B7B7" d="M29.2,59.5c-3.1,0-5.6,2.5-5.6,5.6v22.2h11.2V65.1C34.8,62,32.3,59.5,29.2,59.5z"/><path fill="#D6D6D6" d="M25.5,87.3V68c0-0.9,0.7-1.6,1.6-1.6h0c0.9,0,1.6,0.7,1.6,1.6v19.3"/><circle fill="#FF9D8A" cx="125.8" cy="59.5" r="6.9"/><circle fill="#FF9D8A" cx="66.9" cy="59.5" r="6.9"/><path fill="#FFB5A1" d="M96.3,95.9L96.3,95.9c-16.3,0-29.6-13.2-29.6-29.6V48c0-16.3,13.2-29.6,29.6-29.6h0 c16.3,0,29.6,13.2,29.6,29.6v18.4C125.9,82.7,112.7,95.9,96.3,95.9z"/><circle fill="#EA9486" cx="81.1" cy="52.5" r="3.7"/><circle fill="#EA9486" cx="111.5" cy="52.5" r="3.7"/><path fill="#B2473B" d="M111.5,66.6c0,8.4-6.8,15.1-15.1,15.1S81.2,75,81.2,66.6"/><path fill="#FFFFFF" d="M82,71.4h28.7c0.5-1.5,0.8-3.1,0.8-4.8H81.2C81.2,68.3,81.5,69.9,82,71.4z"/><path fill="#CC4F46" d="M105.2,78.9c-2.1-2.6-5.2-4.2-8.8-4.2h0c-3.6,0-6.7,1.7-8.8,4.3c2.5,1.8,5.5,2.8,8.8,2.8 C99.7,81.7,102.7,80.7,105.2,78.9z"/><path fill="#9B4138" d="M78.6,66.9c0-4.8,3.9-8.7,8.7-8.7h17.8c4.8,0,8.7,3.9,8.7,8.7"/><path fill="#FF9D8A" d="M99.8,62.3h-6.9c-0.8,0-1.5-0.7-1.5-1.5V50.3c0-0.8,0.7-1.5,1.5-1.5h6.9c0.8,0,1.5,0.7,1.5,1.5v10.5 C101.3,61.6,100.6,62.3,99.8,62.3z"/><path fill="#935822" d="M66.3,43.4v-7.4c0-16.4,13.4-29.7,29.7-29.7h0c16.4,0,29.7,13.4,29.7,29.7v7.4"/><path fill="#AD6A27" d="M146.7,23.9c0,11.5-9.4,20.9-20.9,20.9H67.1c-11.5,0-20.9-9.4-20.9-20.9"/><path fill="#9E5C26" d="M94.2,21.1H78.2c-0.8,0-1.5-0.7-1.5-1.5v0c0-0.8,0.7-1.5,1.5-1.5h16.1c0.8,0,1.5,0.7,1.5,1.5v0 C95.7,20.4,95.1,21.1,94.2,21.1z"/><path fill="#9E5C26" d="M75.9,33H59.8c-0.8,0-1.5-0.7-1.5-1.5v0c0-0.8,0.7-1.5,1.5-1.5h16.1c0.8,0,1.5,0.7,1.5,1.5v0 C77.4,32.3,76.7,33,75.9,33z"/><path fill="#9E5C26" d="M100.7,40.3H84.6c-0.8,0-1.5-0.7-1.5-1.5v0c0-0.8,0.7-1.5,1.5-1.5h16.1c0.8,0,1.5,0.7,1.5,1.5v0 C102.2,39.7,101.5,40.3,100.7,40.3z"/><path fill="#9E5C26" d="M146.5,32.1h-16.1c-0.8,0-1.5-0.7-1.5-1.5v0c0-0.8,0.7-1.5,1.5-1.5h16.1c0.8,0,1.5,0.7,1.5,1.5v0 C148,31.4,147.3,32.1,146.5,32.1z"/><path fill="#9E5C26" d="M115.3,13.7H99.3c-0.8,0-1.5-0.7-1.5-1.5v0c0-0.8,0.7-1.5,1.5-1.5h16.1c0.8,0,1.5,0.7,1.5,1.5v0 C116.8,13.1,116.2,13.7,115.3,13.7z"/></g><g id="Layer_3"/></svg>