<?xml version="1.0" encoding="utf-8"?><!DOCTYPE svg PUBLIC "-//W3C//DTD SVG 1.1//EN" "http://www.w3.org/Graphics/SVG/1.1/DTD/svg11.dtd"><svg version="1.1" id="Layer_1" xmlns="http://www.w3.org/2000/svg" xmlns:xlink="http://www.w3.org/1999/xlink" x="0px" y="0px" width="150px" height="150px" viewBox="0 0 150 150" enable-background="new 0 0 150 150" xml:space="preserve"><path fill="#93503B" d="M30.3,145.6v-11c0-24.7,20.1-44.8,44.8-44.8h0c24.7,0,44.8,20.1,44.8,44.8v11"/><circle fill="#843C2D" cx="107" cy="51" r="7.5"/><circle fill="#843C2D" cx="43.1" cy="51" r="7.5"/><path fill="#843C2D" d="M75.1,106.8L75.1,106.8c-6.8,0-12.3-5.5-12.3-12.3V79.7c0-6.8,5.5-12.3,12.3-12.3h0	c6.8,0,12.3,5.5,12.3,12.3v14.8C87.5,101.3,81.9,106.8,75.1,106.8z"/><path fill="#93503B" d="M75.1,90.1L75.1,90.1c-17.7,0-32-14.3-32-32V38.1c0-17.7,14.3-32,32-32h0c17.7,0,32,14.3,32,32V58	C107.1,75.7,92.8,90.1,75.1,90.1z"/><path fill="#8C4B3B" d="M43,58.5c0.2,17.5,14.5,31.6,32,31.6h0c17.5,0,31.8-14.1,32-31.6H43z"/><circle fill="#753C2F" cx="58.6" cy="43.1" r="4"/><circle fill="#753C2F" cx="91.5" cy="43.1" r="4"/><path fill="#702525" d="M91.7,58.5c0,9.2-7.4,16.6-16.6,16.6s-16.6-7.4-16.6-16.6"/><path fill="#FFFFFF" d="M59.4,63.8h31.4c0.6-1.7,0.9-3.4,0.9-5.3H58.5C58.5,60.4,58.8,62.1,59.4,63.8z"/><path fill="#913131" d="M84.7,72c-2.3-2.8-5.7-4.6-9.6-4.6h0c-3.9,0-7.4,1.8-9.7,4.7c2.7,1.9,6,3.1,9.6,3.1	C78.7,75.1,82,73.9,84.7,72z"/><rect x="69.7" y="39" fill="#843C2D" width="10.7" height="14.6"/><path fill="#6B3427" d="M106.8,33.4C104.5,18,91.2,6.1,75.1,6.1h0C59,6.1,45.6,18,43.4,33.4h7.3v-7.8H99v7.8H106.8z"/><rect x="41.8" y="24" fill="#3D94C4" width="65.9" height="11.7"/><path fill="#3D94C4" d="M94.5,93v3c0,10.9-8.9,19.8-19.8,19.8S55,106.9,55,96v-3h-9v52.6h57.5V93H94.5z"/></svg>