<?xml version="1.0" encoding="utf-8"?><!DOCTYPE svg PUBLIC "-//W3C//DTD SVG 1.1//EN" "http://www.w3.org/Graphics/SVG/1.1/DTD/svg11.dtd"><svg version="1.1" id="Layer_1" xmlns="http://www.w3.org/2000/svg" xmlns:xlink="http://www.w3.org/1999/xlink" x="0px" y="0px" width="150px" height="150px" viewBox="0 0 150 150" enable-background="new 0 0 150 150" xml:space="preserve"><circle fill="#FFFFFF" cx="75.3" cy="73.9" r="49.6"/><path fill="none" stroke="#EDEDED" stroke-width="5.5366" stroke-linecap="round" stroke-linejoin="round" stroke-miterlimit="10" d="M40.3,73.9c0-19.3,15.7-35,35-35s35,15.7,35,35"/><path fill="#BCBCBC" d="M146.1,69.5c0-10.5-5-19.7-12.8-25.6v13.4h0V106c0,1.4,1.1,2.5,2.5,2.5h0c1.4,0,2.5-1.1,2.5-2.5V90.5	C143.1,84.9,146.1,77.5,146.1,69.5z"/><path fill="#BCBCBC" d="M17.6,46.3c-1.4,0-2.5,1.1-2.5,2.5v14.1c-0.1,0.5-0.5,0.9-1,0.9c-0.6,0-1-0.5-1.1-1V48.7	c0-1.4-1.1-2.5-2.5-2.5h0c-1.4,0-2.5,1.1-2.5,2.5v14c-0.1,0.5-0.5,1-1.1,1c-0.5,0-1-0.4-1-0.9v-14c0-1.4-1.1-2.5-2.5-2.5h0	c-1.4,0-2.5,1.1-2.5,2.5v18.9c0,3.8,2.3,7.1,5.6,8.6c0.9,0.4,1.4,1.3,1.4,2.2v26.4c0,1.4,1.1,2.5,2.5,2.5h0c1.4,0,2.5-1.1,2.5-2.5	V78.5c0-1,0.6-1.8,1.4-2.2c3.3-1.5,5.6-4.8,5.6-8.6V48.7C20.1,47.4,19,46.3,17.6,46.3L17.6,46.3z"/></svg>