<?xml version="1.0" encoding="utf-8"?><!DOCTYPE svg PUBLIC "-//W3C//DTD SVG 1.1//EN" "http://www.w3.org/Graphics/SVG/1.1/DTD/svg11.dtd"><svg version="1.1" id="Layer_1" xmlns="http://www.w3.org/2000/svg" xmlns:xlink="http://www.w3.org/1999/xlink" x="0px" y="0px" width="150px" height="150px" viewBox="0 0 150 150" enable-background="new 0 0 150 150" xml:space="preserve"><path fill="#DB976A" d="M139.7,97.3L139.7,97.3c0,9.5-7.8,17.3-17.3,17.3H27.3c-9.5,0-17.3-7.8-17.3-17.3v0"/><path fill="#EDB894" d="M79.4,97.3l-0.3,0c0,9.5-7.8,17.3-17.3,17.3l-34.5,0c-9.5,0-17.3-7.8-17.3-17.3v0"/><path fill="#DB976A" d="M10,74.7L10,74.7c0-18.9,15.5-34.4,34.4-34.4h61c18.9,0,34.4,15.5,34.4,34.4v0"/><path fill="#EDB894" d="M10,74.7L10,74.7c0-18.9,15.5-34.4,34.4-34.4h0.7c18.9,0,34.4,15.5,34.4,34.4l60.3,0"/><path fill="#995F45" d="M73.6,44.7L73.6,44.7c-1.7,0-3.1-1.4-3.1-3.1V18c0-1.7,1.4-3.1,3.1-3.1h0c1.7,0,3.1,1.4,3.1,3.1v23.5	C76.7,43.3,75.3,44.7,73.6,44.7z"/><path fill="#88C11A" d="M82,30.7H64.5c-1.7,0-3.1-1.4-3.1-3.1v0c0-1.7,1.4-3.1,3.1-3.1H82c1.7,0,3.1,1.4,3.1,3.1v0	C85,29.3,83.7,30.7,82,30.7z"/><polygon fill="#FFB600" points="132.8,96 109.8,111.7 86.8,96"/><path fill="#88C11A" d="M139.4,97.3H10.3c-4.4,0-8.1-3.6-8.1-8.1v0c0-4.4,3.6-8.1,8.1-8.1h129.1c4.4,0,8.1,3.6,8.1,8.1v0	C147.5,93.7,143.8,97.3,139.4,97.3z"/><path fill="#D37F6C" d="M140.3,89H84.4c-3.9,0-7.2-3.2-7.2-7.2v0c0-3.9,3.2-7.2,7.2-7.2h55.9c3.9,0,7.2,3.2,7.2,7.2v0	C147.5,85.8,144.3,89,140.3,89z"/><path fill="#BC6F62" d="M113.8,89H43.8c-3.9,0-7.2-3.2-7.2-7.2v0c0-3.9,3.2-7.2,7.2-7.2h70.1c3.9,0,7.2,3.2,7.2,7.2v0	C121,85.8,117.8,89,113.8,89z"/><path fill="#D37F6C" d="M79.6,89H10.1C6.2,89,3,85.8,3,81.8v0c0-3.9,3.2-7.2,7.2-7.2h69.5c3.9,0,7.2,3.2,7.2,7.2v0	C86.8,85.8,83.5,89,79.6,89z"/><path fill="#EDB894" d="M111.9,52.1h-4.4c-1.3,0-2.4-1.1-2.4-2.4v0c0-1.3,1.1-2.4,2.4-2.4h4.4c1.3,0,2.4,1.1,2.4,2.4v0	C114.3,51,113.2,52.1,111.9,52.1z"/><path fill="#EDB894" d="M91.8,52.1h-4.4c-1.3,0-2.4-1.1-2.4-2.4v0c0-1.3,1.1-2.4,2.4-2.4h4.4c1.3,0,2.4,1.1,2.4,2.4v0	C94.2,51,93.1,52.1,91.8,52.1z"/><circle fill="#DDA57F" cx="30.6" cy="63.3" r="6.2"/><circle fill="#DDA57F" cx="54.8" cy="49.8" r="4.1"/><circle fill="#DDA57F" cx="54.8" cy="104.9" r="4.1"/></svg>