<?xml version="1.0" encoding="utf-8"?><!DOCTYPE svg PUBLIC "-//W3C//DTD SVG 1.1//EN" "http://www.w3.org/Graphics/SVG/1.1/DTD/svg11.dtd"><svg version="1.1" id="Layer_1" xmlns="http://www.w3.org/2000/svg" xmlns:xlink="http://www.w3.org/1999/xlink" x="0px" y="0px" width="150px" height="150px" viewBox="0 0 150 150" enable-background="new 0 0 150 150" xml:space="preserve"><path fill="#FFB5A1" d="M83.7,123.4v-8c0-18,14.6-32.6,32.6-32.6h0c18,0,32.6,14.6,32.6,32.6v8"/><circle fill="#FF9D8A" cx="139.6" cy="54.3" r="5.5"/><circle fill="#FF9D8A" cx="93.5" cy="54.5" r="5.5"/><path fill="#FF9D8A" d="M116.4,95.2L116.4,95.2c-5,0-9-4-9-9V75.5c0-5,4-9,9-9h0c5,0,9,4,9,9v10.8C125.3,91.2,121.3,95.2,116.4,95.2	z"/><path fill="#301714" d="M61.4,60L61.4,60c0,4.6-3.7,8.4-8.4,8.4H14.3c-4.6,0-8.4-3.7-8.4-8.4v0"/><rect x="8.1" y="45" fill="#301714" width="51.2" height="12.7"/><path fill="#BF7358" d="M1,123.6v-8C1,97.6,15.6,83,33.6,83h0c18,0,32.6,14.6,32.6,32.6v8"/><circle fill="#B25C4B" cx="56.8" cy="54.5" r="5.5"/><circle fill="#B25C4B" cx="10.4" cy="54.5" r="5.5"/><path fill="#B25C4B" d="M33.6,95.4L33.6,95.4c-5,0-9-4-9-9V75.6c0-5,4-9,9-9h0c5,0,9,4,9,9v10.8C42.6,91.4,38.6,95.4,33.6,95.4z"/><path fill="#BF7358" d="M33.6,83.2L33.6,83.2c-12.9,0-23.3-10.4-23.3-23.3V45.4c0-12.9,10.4-23.3,23.3-23.3h0	c12.9,0,23.3,10.4,23.3,23.3v14.5C56.9,72.8,46.5,83.2,33.6,83.2z"/><circle fill="#A85F48" cx="21.6" cy="49" r="2.9"/><circle fill="#A85F48" cx="45.5" cy="49" r="2.9"/><path fill="#2381C1" d="M48.4,85.1v2.2c0,8-6.5,14.5-14.5,14.5s-14.5-6.5-14.5-14.5v-2.2h-6.5v38.4h42V85.1H48.4z"/><rect x="29.7" y="46.1" fill="#B25C4B" width="7.8" height="10.6"/><path fill="#933634" d="M45.7,60.2c0,6.7-5.4,12.1-12.1,12.1s-12.1-5.4-12.1-12.1"/><path fill="#FFFFFF" d="M22.2,64.1H45c0.4-1.2,0.6-2.5,0.6-3.9H21.5C21.5,61.6,21.8,62.9,22.2,64.1z"/><path fill="#AF3F3F" d="M40.6,70c-1.6-2.1-4.2-3.4-7-3.4h0c-2.8,0-5.4,1.3-7,3.4c2,1.4,4.4,2.2,7,2.2C36.2,72.3,38.7,71.5,40.6,70z"/><path fill="#301714" d="M33.7,19.2c-14.1,0-25.6,11.5-25.6,25.6v1.4h6c4.2-0.4,7.4-3.9,7.4-8.2l0,8.2h5.3c10,0,18.1-8.2,18.1-18.1	c0,8.7,6.2,16,14.3,17.7v-1C59.2,30.7,47.8,19.2,33.7,19.2z"/><rect x="5.9" y="35.9" fill="#2381C1" width="54.3" height="7.8"/><path fill="#FFB5A1" d="M116.3,83.1L116.3,83.1C103.4,83.1,93,72.6,93,59.8V45.3C93,32.4,103.4,22,116.3,22h0	c12.9,0,23.3,10.4,23.3,23.3v14.5C139.6,72.6,129.2,83.1,116.3,83.1z"/><circle fill="#EA9486" cx="104.3" cy="48.8" r="2.9"/><circle fill="#EA9486" cx="128.3" cy="48.8" r="2.9"/><path fill="#2381C1" d="M131.1,84.9v2.2c0,8-6.5,14.5-14.5,14.5s-14.5-6.5-14.5-14.5v-2.2h-6.5v38.4h42V84.9H131.1z"/><rect x="112.4" y="45.9" fill="#FF9D8A" width="7.8" height="10.6"/><path fill="#933634" d="M128.4,60.1c0,6.7-5.4,12.1-12.1,12.1s-12.1-5.4-12.1-12.1"/><path fill="#FFFFFF" d="M104.9,63.9h22.9c0.4-1.2,0.6-2.5,0.6-3.9h-24.1C104.3,61.4,104.5,62.7,104.9,63.9z"/><path fill="#AF3F3F" d="M123.4,69.9c-1.6-2.1-4.2-3.4-7-3.4h0c-2.8,0-5.4,1.3-7,3.4c2,1.4,4.4,2.2,7,2.2	C119,72.2,121.4,71.3,123.4,69.9z"/><rect x="91.9" y="33.4" fill="#2381C1" width="48.8" height="10.2"/><path fill="#93503B" d="M42.1,123.4v-8c0-18.1,14.7-32.7,32.7-32.7h0c18.1,0,32.7,14.7,32.7,32.7v8"/><circle fill="#843C2D" cx="98.2" cy="54.3" r="5.5"/><circle fill="#843C2D" cx="51.5" cy="54.3" r="5.5"/><path fill="#843C2D" d="M74.9,95.1L74.9,95.1c-5,0-9-4-9-9V75.2c0-5,4-9,9-9h0c5,0,9,4,9,9v10.8C84,91,79.9,95.1,74.9,95.1z"/><path fill="#93503B" d="M74.9,82.9L74.9,82.9c-12.9,0-23.4-10.5-23.4-23.4V44.9c0-12.9,10.5-23.4,23.4-23.4h0	c12.9,0,23.4,10.5,23.4,23.4v14.6C98.3,72.4,87.8,82.9,74.9,82.9z"/><path fill="#8C4B3B" d="M51.5,59.8c0.2,12.8,10.6,23.1,23.4,23.1h0c12.8,0,23.2-10.3,23.4-23.1H51.5z"/><circle fill="#753C2F" cx="62.8" cy="48.5" r="2.9"/><circle fill="#753C2F" cx="86.9" cy="48.5" r="2.9"/><path fill="#702525" d="M87,59.8c0,6.7-5.4,12.1-12.1,12.1s-12.1-5.4-12.1-12.1"/><path fill="#FFFFFF" d="M63.4,63.6h23c0.4-1.2,0.6-2.5,0.6-3.9H62.8C62.8,61.1,63,62.4,63.4,63.6z"/><path fill="#913131" d="M82,69.6c-1.7-2.1-4.2-3.4-7-3.4h0c-2.9,0-5.4,1.3-7.1,3.4c2,1.4,4.4,2.3,7,2.3C77.5,71.9,80,71,82,69.6z"/><rect x="71" y="45.5" fill="#843C2D" width="7.8" height="10.7"/><path fill="#6B3427" d="M98.1,41.4c-1.7-11.3-11.4-20-23.2-20h0c-11.8,0-21.5,8.7-23.2,20h5.4v-5.7h35.3v5.7H98.1z"/><rect x="50.6" y="34.6" fill="#3D94C4" width="48.2" height="8.5"/><path fill="#3D94C4" d="M89.1,85v2.2c0,8-6.5,14.5-14.5,14.5s-14.5-6.5-14.5-14.5V85h-6.5v38.4h42V85H89.1z"/></svg>