<?xml version="1.0" encoding="utf-8"?><!DOCTYPE svg PUBLIC "-//W3C//DTD SVG 1.1//EN" "http://www.w3.org/Graphics/SVG/1.1/DTD/svg11.dtd"><svg version="1.1" id="Layer_1" xmlns="http://www.w3.org/2000/svg" xmlns:xlink="http://www.w3.org/1999/xlink" x="0px" y="0px" width="150px" height="150px" viewBox="0 0 150 150" enable-background="new 0 0 150 150" xml:space="preserve"><linearGradient id="SVGID_1_" gradientUnits="userSpaceOnUse" x1="74.75" y1="141.3963" x2="74.75" y2="7.937"><stop offset="0" style="stop-color:#9FF4FF"/><stop offset="1" style="stop-color:#37D6ED"/></linearGradient><path fill="url(#SVGID_1_)" d="M129.4,141.4H20.1C13.4,141.4,8,136,8,129.3V20c0-6.7,5.4-12.1,12.1-12.1h109.3	c6.7,0,12.1,5.4,12.1,12.1v109.3C141.5,136,136.1,141.4,129.4,141.4z"/><circle fill="#C5FCFF" cx="41" cy="42.9" r="17.9"/><path fill="#FFFFFF" d="M72.5,69.5h34.1c0-7-4.2-13-10.3-15.7c0.1-1.1,0.2-2.1,0.2-3.2c0-15.1-12.3-27.4-27.4-27.4	c-13.6,0-24.8,9.9-27,22.8c-0.7-0.1-1.4-0.1-2.2-0.1c-10.7,0-19.4,8.7-19.4,19.4c0,1.5,0.2,2.9,0.5,4.2H72.5z"/><path fill="#CFFFFF" d="M73,118c-3.8-4-6.2-9.5-6.2-15.5c0-12.4,10-22.4,22.4-22.4c11.1,0,20.3,8.1,22.1,18.7	c0.6-0.1,1.2-0.1,1.8-0.1c8.8,0,15.9,7.1,15.9,15.9c0,1.2-0.1,2.3-0.4,3.5H73z"/><path fill="#FFFFFF" d="M43.5,126.8C43.5,126.8,43.5,126.8,43.5,126.8c-2.6-9.7-11.5-16.9-22-16.9c-5.1,0-9.7,1.6-13.5,4.4v15	c0,6.7,5.4,12.1,12.1,12.1h41C59.5,133.1,52.2,126.8,43.5,126.8z"/></svg>