<?xml version="1.0" encoding="utf-8"?><!DOCTYPE svg PUBLIC "-//W3C//DTD SVG 1.1//EN" "http://www.w3.org/Graphics/SVG/1.1/DTD/svg11.dtd"><svg version="1.1" xmlns="http://www.w3.org/2000/svg" xmlns:xlink="http://www.w3.org/1999/xlink" x="0px" y="0px" width="150px" height="150px" viewBox="0 0 150 150" enable-background="new 0 0 150 150" xml:space="preserve"><g id="Layer_2" display="none"><rect x="-1360" y="-510" display="inline" fill="#F0F0F0" width="1680" height="1677.3"/></g><g id="Layer_1"><path fill="#3F1D17" d="M107,83.7H42.3c-4.8,0-8.7-3.9-8.7-8.7v0c0-4.8,3.9-8.7,8.7-8.7H107c4.8,0,8.7,3.9,8.7,8.7v0 C115.7,79.8,111.8,83.7,107,83.7z"/><path fill="#3F1D17" d="M102.8,98.3H48.2c-4.8,0-8.7-3.9-8.7-8.7v0c0-4.8,3.9-8.7,8.7-8.7h54.6c4.8,0,8.7,3.9,8.7,8.7v0 C111.5,94.4,107.6,98.3,102.8,98.3z"/><path fill="#3F1D17" d="M39.5,76.5V60.3c0-19.5,15.9-35.4,35.4-35.4h0c19.5,0,35.4,15.9,35.4,35.4v16.1"/><rect x="45" y="33.6" fill="#BF7358" width="59.3" height="19.2"/><path fill="#FFFFFF" d="M33.2,147.8v-10.2c0-22.9,18.6-41.5,41.5-41.5h0c22.9,0,41.5,18.6,41.5,41.5v10.2"/><path fill="#B25C4B" d="M76.8,111.9h-4.1c-5.2,0-9.4-4.2-9.4-9.4V84.7c0-5.2,4.2-9.4,9.4-9.4h4.1c5.2,0,9.4,4.2,9.4,9.4v17.8 C86.1,107.7,82,111.9,76.8,111.9z"/><g><path fill="#1CB0F6" d="M74.7,75.3c6.3,0,11.4,5.1,11.4,11.4v13.7c0,6.3-5.1,11.4-11.4,11.4h0c-6.3,0-11.4-5.1-11.4-11.4V86.8 C63.3,80.5,68.4,75.3,74.7,75.3L74.7,75.3 M74.7,69.5c-9.5,0-17.2,7.7-17.2,17.2v13.7c0,9.5,7.7,17.2,17.2,17.2 c9.5,0,17.2-7.7,17.2-17.2V86.8C91.9,77.3,84.2,69.5,74.7,69.5L74.7,69.5z"/></g><path fill="#BF7358" d="M74.7,96.4L74.7,96.4C58.3,96.4,45,83.1,45,66.7V40.1c0-16.4,13.3-29.7,29.7-29.7h0 c16.4,0,29.7,13.3,29.7,29.7v26.6C104.3,83.1,91,96.4,74.7,96.4z"/><circle fill="#A85F48" cx="59.4" cy="52.9" r="3.7"/><circle fill="#A85F48" cx="89.9" cy="52.9" r="3.7"/><path fill="#933634" d="M90,67.2c0,8.5-6.9,15.4-15.4,15.4s-15.4-6.9-15.4-15.4"/><path fill="#FFFFFF" d="M60.1,72.1h29.1c0.5-1.5,0.8-3.2,0.8-4.9H59.3C59.3,68.9,59.6,70.5,60.1,72.1z"/><path fill="#AF3F3F" d="M83.6,79.6c-2.1-2.6-5.3-4.3-8.9-4.3h0c-3.6,0-6.8,1.7-8.9,4.3c2.5,1.8,5.6,2.9,8.9,2.9 C78,82.5,81.1,81.5,83.6,79.6z"/><path fill="#B25C4B" d="M78.1,62.6h-6.9c-0.8,0-1.5-0.7-1.5-1.5V50.6c0-0.8,0.7-1.5,1.5-1.5h6.9c0.8,0,1.5,0.7,1.5,1.5v10.5 C79.6,62,78.9,62.6,78.1,62.6z"/><rect x="45" y="16.8" fill="#FFFFFF" width="59.3" height="23.6"/><path fill="#FFFFFF" d="M104.2,21.8H45.1c-5.6,0-10.1-4.6-10.1-10.1v0c0-5.6,4.6-10.1,10.1-10.1h59.1c5.6,0,10.1,4.6,10.1,10.1v0 C114.3,17.2,109.8,21.8,104.2,21.8z"/><circle fill="#1CB0F6" cx="74.6" cy="116.7" r="4.5"/><path fill="#1CB0F6" d="M75.3,117.9c3.2-3.2,8.4-3.2,11.7,0c3.2,3.2,3.2,8.4,0,11.7"/><path fill="#1CB0F6" d="M74,117.9c-3.2-3.2-8.4-3.2-11.7,0c-3.2,3.2-3.2,8.4,0,11.7"/><circle fill="#DDDDDD" cx="56.2" cy="139.8" r="3.9"/><circle fill="#DDDDDD" cx="73.3" cy="139.8" r="3.9"/></g><g id="Layer_3"/></svg>