<?xml version="1.0" encoding="utf-8"?><!DOCTYPE svg PUBLIC "-//W3C//DTD SVG 1.1//EN" "http://www.w3.org/Graphics/SVG/1.1/DTD/svg11.dtd"><svg version="1.1" id="Layer_1" xmlns="http://www.w3.org/2000/svg" xmlns:xlink="http://www.w3.org/1999/xlink" x="0px" y="0px" width="150px" height="150px" viewBox="0 0 150 150" enable-background="new 0 0 150 150" xml:space="preserve"><path fill="none" stroke="#D6D6D6" stroke-width="4" stroke-linecap="round" stroke-linejoin="round" stroke-miterlimit="10" d="M15.7,83.5c7.9-9.7,19.9-15.8,33.3-15.8c9.1,0,17.6,2.8,24.6,7.7"/><path fill="none" stroke="#D6D6D6" stroke-width="4" stroke-linecap="round" stroke-linejoin="round" stroke-miterlimit="10" d="M131,67.2c-7.9,9.6-19.8,15.6-33.2,15.6c-9,0-17.3-2.8-24.2-7.5"/><path fill="none" stroke="#D6D6D6" stroke-width="4" stroke-linecap="round" stroke-linejoin="round" stroke-miterlimit="10" d="M15.7,63.5c7.9-9.7,19.9-15.8,33.3-15.8c9.1,0,17.6,2.8,24.6,7.7"/><path fill="none" stroke="#D6D6D6" stroke-width="4" stroke-linecap="round" stroke-linejoin="round" stroke-miterlimit="10" d="M121.8,55.5c-6.9,4.6-15.1,7.3-24,7.3c-9,0-17.3-2.8-24.2-7.5"/><path fill="#7AC70C" d="M112.3,100.7l-13.9,13.9c3.8,1,8,0,10.9-2.9C112.3,108.7,113.3,104.5,112.3,100.7z"/><path fill="#70AF0C" d="M98.4,114.6l13.9-13.9c-3.8-1-8,0-10.9,2.9C98.4,106.6,97.4,110.8,98.4,114.6z"/><path fill="#7AC70C" d="M73.4,29.8l9.9,9.9c0.7-2.7,0-5.7-2.1-7.8C79.1,29.7,76.1,29,73.4,29.8z"/><path fill="#70AF0C" d="M83.3,39.7l-9.9-9.9c-0.7,2.7,0,5.7,2.1,7.8C77.6,39.7,80.6,40.4,83.3,39.7z"/><path fill="none" stroke="#D6D6D6" stroke-width="4" stroke-linecap="round" stroke-linejoin="round" stroke-miterlimit="10" d="M97.4,43.8c0-8.3,6.7-15,15-15s15,6.7,15,15c0,4.9-2.4,9.3-6,12"/><path fill="none" stroke="#D6D6D6" stroke-width="4" stroke-linecap="round" stroke-linejoin="round" stroke-miterlimit="10" d="M72.8,97c-6.9-4.6-15.1-7.3-24-7.3c-9,0-17.3,2.8-24.2,7.5"/><path fill="none" stroke="#D6D6D6" stroke-width="4" stroke-linecap="round" stroke-linejoin="round" stroke-miterlimit="10" d="M48.4,108.8c0,8.3,6.7,15,15,15s15-6.7,15-15c0-4.9-2.4-9.3-6-12"/></svg>