<?xml version="1.0" encoding="utf-8"?><!DOCTYPE svg PUBLIC "-//W3C//DTD SVG 1.1//EN" "http://www.w3.org/Graphics/SVG/1.1/DTD/svg11.dtd"><svg version="1.1" id="Layer_1" xmlns="http://www.w3.org/2000/svg" xmlns:xlink="http://www.w3.org/1999/xlink" x="0px" y="0px" width="150px" height="150px" viewBox="0 0 150 150" enable-background="new 0 0 150 150" xml:space="preserve"><linearGradient id="SVGID_1_" gradientUnits="userSpaceOnUse" x1="75" y1="101.0732" x2="75" y2="7.937"><stop offset="0" style="stop-color:#9FF4FF"/><stop offset="1" style="stop-color:#37D6ED"/></linearGradient><path fill="url(#SVGID_1_)" d="M129.7,101.1H20.3c-6.7,0-12.1-5.4-12.1-12.1V20c0-6.7,5.4-12.1,12.1-12.1h109.3	c6.7,0,12.1,5.4,12.1,12.1v69C141.7,95.7,136.3,101.1,129.7,101.1z"/><path fill="#1CB0F6" d="M8.3,66.4v63c0,6.7,5.4,12.1,12.1,12.1h109.3c6.7,0,12.1-5.4,12.1-12.1v-63H8.3z"/><path fill="#00AFF4" d="M136.2,83c-3.4,4.6-8.9,7.5-15,7.5c-6.2,0-11.8-3.1-15.2-7.8h-0.7c-3.4,4.7-8.9,7.8-15.2,7.8	c-6.1,0-11.6-3-15-7.5c-2.4,3.2-5.8,5.6-9.8,6.8v-0.1c-1.7,0.5-3.5,0.8-5.4,0.8c-6.2,0-11.7-3.1-15-7.7h-0.7	c-3.3,4.6-8.7,7.6-14.8,7.7c-6.1-0.1-11.5-3.1-14.8-7.7h-0.7c-1.6,2.2-3.6,4-5.9,5.3v31.3c0,0,0,0,0,0.1h27.1h18.1h88.3	c0,0,0,0,0-0.1V87.9C139.6,86.6,137.7,85,136.2,83z"/><path fill="#00A9F4" d="M121.2,85c-3.4,4.6-8.9,7.5-15,7.5c-6.2,0-11.8-3.1-15.2-7.8h-0.7c-3.4,4.7-8.9,7.8-15.2,7.8	c-6.1,0-11.6-3-15-7.5c-3.4,4.6-8.9,7.5-15,7.5c-6.2,0-11.8-3.1-15.2-7.8h-0.7c-3.4,4.7-8.9,7.8-15.2,7.8c-2.1,0-4.1-0.4-6-1v17.8	c0,6.7,5.4,12.1,12.1,12.1h109.3c6.7,0,12.1-5.4,12.1-12.1V91.7c-1.7,0.5-3.6,0.8-5.5,0.8C130.1,92.5,124.7,89.5,121.2,85z"/><path fill="#009CF2" d="M136.2,93c-3.4,4.6-8.9,7.5-15,7.5c-6.2,0-11.8-3.1-15.2-7.8h-0.7c-3.4,4.7-8.9,7.8-15.2,7.8	c-6.1,0-11.6-3-15-7.5c-2.4,3.2-5.8,5.6-9.8,6.8v-0.1c-1.7,0.5-3.5,0.8-5.4,0.8c-6.2,0-11.7-3.1-15-7.7h-0.7	c-3.3,4.6-8.7,7.6-14.8,7.7c-6.1-0.1-11.5-3.1-14.8-7.7h-0.7c-1.6,2.2-3.6,4-5.9,5.3v31.3c0,0,0,0,0,0.1h27.1h18.1h88.3	c0,0,0,0,0-0.1V97.9C139.6,96.6,137.7,95,136.2,93z"/><path fill="#0091EA" d="M121.2,105c-3.4,4.6-8.9,7.5-15,7.5c-6.2,0-11.8-3.1-15.2-7.8h-0.7c-3.4,4.7-8.9,7.8-15.2,7.8	c-6.1,0-11.6-3-15-7.5c-3.4,4.6-8.9,7.5-15,7.5c-6.2,0-11.8-3.1-15.2-7.8h-0.7c-3.4,4.7-8.9,7.8-15.2,7.8c-2.1,0-4.1-0.4-6-1v17.8	c0,6.7,5.4,12.1,12.1,12.1h109.3c6.7,0,12.1-5.4,12.1-12.1v-17.7c-1.7,0.5-3.6,0.8-5.5,0.8C130.1,112.5,124.7,109.5,121.2,105z"/><path fill="#0086EA" d="M136.2,121.6c-3.4,4.6-8.9,7.5-15,7.5c-6.2,0-11.8-3.1-15.2-7.8h-0.7c-3.4,4.7-8.9,7.8-15.2,7.8	c-6.1,0-11.6-3-15-7.5c-2.4,3.2-5.8,5.6-9.8,6.8v-0.1c-1.7,0.5-3.5,0.8-5.4,0.8c-6.2,0-11.7-3.1-15-7.7h-0.7	c-3.3,4.6-8.7,7.6-14.8,7.7c-6.1-0.1-11.5-3.1-14.8-7.7h-0.7c-1.6,2.2-3.6,4-5.9,5.3v2.7c0,6.7,5.4,12.1,12.1,12.1h109.3	c6.7,0,12.1-5.4,12.1-12.1v-2.8C139.6,125.2,137.7,123.6,136.2,121.6z"/><path fill="#F0F0F0" d="M128.6,26.2c-3.3,0-6.3,1.7-8,4.3c-1.7-2.6-4.6-4.3-8-4.3c-0.9,0-1.6,0.7-1.6,1.6s0.7,1.6,1.6,1.6	c3.5,0,6.4,2.9,6.4,6.4c0,0.9,0.7,1.6,1.6,1.6s1.6-0.7,1.6-1.6c0-3.5,2.9-6.4,6.4-6.4c0.9,0,1.6-0.7,1.6-1.6S129.4,26.2,128.6,26.2z"/><path fill="#F0F0F0" d="M109.3,35.9c-3.3,0-6.3,1.7-8,4.3c-1.7-2.6-4.6-4.3-8-4.3c-0.9,0-1.6,0.7-1.6,1.6c0,0.9,0.7,1.6,1.6,1.6	c3.5,0,6.4,2.9,6.4,6.4c0,0.9,0.7,1.6,1.6,1.6s1.6-0.7,1.6-1.6c0-3.5,2.9-6.4,6.4-6.4c0.9,0,1.6-0.7,1.6-1.6	C110.8,36.6,110.1,35.9,109.3,35.9z"/></svg>