<?xml version="1.0" encoding="utf-8"?><!DOCTYPE svg PUBLIC "-//W3C//DTD SVG 1.1//EN" "http://www.w3.org/Graphics/SVG/1.1/DTD/svg11.dtd"><svg version="1.1" id="Layer_1" xmlns="http://www.w3.org/2000/svg" xmlns:xlink="http://www.w3.org/1999/xlink" x="0px" y="0px" width="150px" height="150px" viewBox="0 0 150 150" enable-background="new 0 0 150 150" xml:space="preserve"><path fill="#B5B5B5" d="M20.3,122.9L20.3,122.9c-2.9-2.9-2.9-7.6,0-10.5L49.7,83c2.9-2.9,7.6-2.9,10.5,0l0,0c2.9,2.9,2.9,7.6,0,10.5	l-29.4,29.4C28,125.8,23.2,125.8,20.3,122.9z"/><path fill="#91432D" d="M20.3,122.9L20.3,122.9c-2.9-2.9-2.9-7.6,0-10.5l19.9-19.9c2.9-2.9,7.6-2.9,10.5,0l0,0	c2.9,2.9,2.9,7.6,0,10.5l-19.9,19.9C28,125.8,23.2,125.8,20.3,122.9z"/><path fill="#B5B5B5" d="M117,15.7L45.8,86.9L67.9,109C121.6,55.3,117,15.7,117,15.7z"/><circle fill="#B5B5B5" cx="44.4" cy="98.8" r="2.1"/><circle fill="#B5B5B5" cx="25.8" cy="117.5" r="2.1"/><path fill="#BFBFBF" d="M80.8,51.9L60.5,72.2l37.4,0c4.7-7.3,8.2-14.1,10.9-20.3L80.8,51.9z"/></svg>