<?xml version="1.0" encoding="utf-8"?><!DOCTYPE svg PUBLIC "-//W3C//DTD SVG 1.1//EN" "http://www.w3.org/Graphics/SVG/1.1/DTD/svg11.dtd"><svg version="1.1" id="Layer_1" xmlns="http://www.w3.org/2000/svg" xmlns:xlink="http://www.w3.org/1999/xlink" x="0px" y="0px" width="150px" height="150px" viewBox="0 0 150 150" enable-background="new 0 0 150 150" xml:space="preserve"><path fill="#AF5E27" d="M103.3,108.5c-5.3,0-9.6-4.3-9.6-9.6l0,0c0-5.3,4.3-9.6,9.6-9.6h0.9V76.6c0-15.8-12.9-28.7-28.7-28.7h0	c-15.8,0-28.7,12.9-28.7,28.7v12.7h0.6c5.3,0,9.6,4.3,9.6,9.6l0,0c0,5.3-4.3,9.6-9.6,9.6h-0.6v16.2c0,11.8,9.6,21.4,21.4,21.4h14.5	c11.8,0,21.4-9.6,21.4-21.4v-16.2H103.3z"/><path fill="#353535" d="M80.3,87.8H70.1V14.4c0-2.2,1.8-4,4-4h2.3c2.2,0,4,1.8,4,4V87.8z"/><rect x="70.1" y="121.8" fill="#353535" width="10.2" height="24.4"/><path fill="#353535" d="M63,21.9h-1.3c-1.2,0-2.2-1-2.2-2.2v-1.3c0-1.2,1-2.2,2.2-2.2H63c1.2,0,2.2,1,2.2,2.2v1.3	C65.3,20.9,64.3,21.9,63,21.9z"/><rect x="61.5" y="17.8" fill="#353535" width="6" height="2.3"/><path fill="#353535" d="M87.4,21.9h1.3c1.2,0,2.2-1,2.2-2.2v-1.3c0-1.2-1-2.2-2.2-2.2h-1.3c-1.2,0-2.2,1-2.2,2.2v1.3	C85.1,20.9,86.2,21.9,87.4,21.9z"/><rect x="83" y="17.8" fill="#353535" width="6" height="2.3"/><path fill="#353535" d="M63,29.6h-1.3c-1.2,0-2.2-1-2.2-2.2v-1.3c0-1.2,1-2.2,2.2-2.2H63c1.2,0,2.2,1,2.2,2.2v1.3	C65.3,28.6,64.3,29.6,63,29.6z"/><rect x="61.5" y="25.6" fill="#353535" width="6" height="2.3"/><path fill="#353535" d="M87.4,29.6h1.3c1.2,0,2.2-1,2.2-2.2v-1.3c0-1.2-1-2.2-2.2-2.2h-1.3c-1.2,0-2.2,1-2.2,2.2v1.3	C85.1,28.6,86.2,29.6,87.4,29.6z"/><rect x="83" y="25.6" fill="#353535" width="6" height="2.3"/><path fill="#AF5E27" d="M82.9,16.1H68.3c-1.4,0-2.5-1.1-2.5-2.5V6.3c0-1.4,1.1-2.5,2.5-2.5h14.5c1.4,0,2.5,1.1,2.5,2.5v7.3	C85.3,15,84.2,16.1,82.9,16.1z"/><path fill="#AF5E27" d="M69.1,33.7h-0.6c-0.6,0-1-0.5-1-1V11c0-0.6,0.5-1,1-1h0.6c0.6,0,1,0.5,1,1v21.8	C70.1,33.3,69.6,33.7,69.1,33.7z"/><path fill="#AF5E27" d="M81.9,33.7h-0.6c-0.6,0-1-0.5-1-1V11c0-0.6,0.5-1,1-1h0.6c0.6,0,1,0.5,1,1v21.8C83,33.3,82.5,33.7,81.9,33.7	z"/><line fill="none" stroke="#353535" stroke-width="2.5825" stroke-linecap="round" stroke-linejoin="round" stroke-miterlimit="10" x1="63.7" y1="95.4" x2="63.7" y2="105"/><line fill="none" stroke="#DBDBDB" stroke-width="1.2913" stroke-linecap="round" stroke-linejoin="round" stroke-miterlimit="10" x1="73.3" y1="16.1" x2="73.3" y2="129.4"/><line fill="none" stroke="#DBDBDB" stroke-width="1.2913" stroke-linecap="round" stroke-linejoin="round" stroke-miterlimit="10" x1="77.2" y1="16.1" x2="77.2" y2="129.4"/><path fill="none" stroke="#353535" stroke-width="2.5825" stroke-linecap="round" stroke-linejoin="round" stroke-miterlimit="10" d="M63.7,95.1c0-1.3,1.1-2.4,2.4-2.4c1.3,0,2.4,1.1,2.4,2.4"/><path fill="none" stroke="#353535" stroke-width="2.5825" stroke-linecap="round" stroke-linejoin="round" stroke-miterlimit="10" d="M63.7,105c0,1.3-1.1,2.4-2.4,2.4c-1.3,0-2.4-1.1-2.4-2.4"/><line fill="none" stroke="#353535" stroke-width="2.5825" stroke-linecap="round" stroke-linejoin="round" stroke-miterlimit="10" x1="86.9" y1="95.4" x2="86.9" y2="105"/><path fill="none" stroke="#353535" stroke-width="2.5825" stroke-linecap="round" stroke-linejoin="round" stroke-miterlimit="10" d="M86.9,95.1c0-1.3-1.1-2.4-2.4-2.4s-2.4,1.1-2.4,2.4"/><path fill="none" stroke="#353535" stroke-width="2.5825" stroke-linecap="round" stroke-linejoin="round" stroke-miterlimit="10" d="M86.9,105c0,1.3,1.1,2.4,2.4,2.4c1.3,0,2.4-1.1,2.4-2.4"/><path fill="#353535" d="M45.9,128.4c1.3,10.6,10.4,18.8,21.3,18.8H69V141c0-7-5.7-12.7-12.7-12.7H47	C46.6,128.3,46.3,128.3,45.9,128.4z"/></svg>