<?xml version="1.0" encoding="utf-8"?><!DOCTYPE svg PUBLIC "-//W3C//DTD SVG 1.1//EN" "http://www.w3.org/Graphics/SVG/1.1/DTD/svg11.dtd"><svg version="1.1" id="Layer_1" xmlns="http://www.w3.org/2000/svg" xmlns:xlink="http://www.w3.org/1999/xlink" x="0px" y="0px" width="150px" height="150px" viewBox="0 0 150 150" enable-background="new 0 0 150 150" xml:space="preserve"><path fill="none" stroke="#B26938" stroke-width="11" stroke-linecap="round" stroke-linejoin="round" stroke-miterlimit="10" d="M97.3,73v19.2c0,6.6-5.4,12-12,12H74.6"/><path fill="#B26938" d="M78.3,139.6H65.9V77.9c0-3.4,2.8-6.2,6.2-6.2h0c3.4,0,6.2,2.8,6.2,6.2V139.6z"/><path fill="#7AC70C" d="M120,87.1H28.2c-5.1,0-9.2-4.1-9.2-9.2v-7.3c0-30.4,24.6-55.1,55.1-55.1h0c30.4,0,55.1,24.6,55.1,55.1v7.3	C129.1,83,125,87.1,120,87.1z"/><path fill="#7AC70C" d="M13.5,55.6c-0.6,2.4,0,5,1.8,6.9c1.9,1.9,4.5,2.5,6.9,1.8c0.6-2.4,0-5-1.8-6.9	C18.5,55.5,15.9,54.9,13.5,55.6z"/><path fill="#7AC70C" d="M48.5,13.6c-0.6,2.4,0,5,1.8,6.9c1.9,1.9,4.5,2.5,6.9,1.8c0.6-2.4,0-5-1.8-6.9	C53.5,13.5,50.9,12.9,48.5,13.6z"/><path fill="#7AC70C" d="M55.3,88.5c-2-0.5-4.1,0-5.7,1.5c-1.5,1.5-2,3.7-1.5,5.7c2,0.5,4.1,0,5.7-1.5C55.3,92.7,55.8,90.5,55.3,88.5	z"/><circle fill="#7AC70C" cx="86.8" cy="33.4" r="23.8"/><path fill="#7AC70C" d="M105.3,81.3c-0.7,2.7,0,5.7,2.1,7.8c2.1,2.1,5.1,2.8,7.8,2.1c0.7-2.7,0-5.7-2.1-7.8	C111,81.3,108,80.6,105.3,81.3z"/><path fill="#7AC70C" d="M119.4,18.9c-2.2-0.6-4.7,0-6.5,1.7c-1.7,1.7-2.3,4.2-1.7,6.5c2.2,0.6,4.7,0,6.5-1.7	C119.4,23.6,120,21.1,119.4,18.9z"/><path fill="#70AF0C" d="M100.8,37.8c-2.9-0.8-6.1,0-8.3,2.2c-2.3,2.3-3,5.4-2.2,8.3c2.9,0.8,6.1,0,8.3-2.2	C100.9,43.8,101.6,40.7,100.8,37.8z"/><path fill="#70AF0C" d="M69.5,29.9c-0.8,2.9,0,6.1,2.2,8.3c2.3,2.3,5.4,3,8.3,2.2c0.8-2.9,0-6.1-2.2-8.3	C75.6,29.9,72.4,29.2,69.5,29.9z"/><circle fill="#7AC70C" cx="112.2" cy="52.4" r="23.8"/><circle fill="#7AC70C" cx="42.2" cy="48.9" r="23.1"/><path fill="#7AC70C" d="M136.4,77.1"/><path fill="#70AF0C" d="M106.8,60.9c-2.9-0.8-6.1,0-8.3,2.2c-2.3,2.3-3,5.4-2.2,8.3c2.9,0.8,6.1,0,8.3-2.2	C106.9,66.9,107.6,63.8,106.8,60.9z"/><path fill="#70AF0C" d="M48.8,60.9c-2.9-0.8-6.1,0-8.3,2.2c-2.3,2.3-3,5.4-2.2,8.3c2.9,0.8,6.1,0,8.3-2.2	C48.9,66.9,49.6,63.8,48.8,60.9z"/></svg>