<?xml version="1.0" encoding="utf-8"?><!DOCTYPE svg PUBLIC "-//W3C//DTD SVG 1.1//EN" "http://www.w3.org/Graphics/SVG/1.1/DTD/svg11.dtd"><svg version="1.1" id="Layer_1" xmlns="http://www.w3.org/2000/svg" xmlns:xlink="http://www.w3.org/1999/xlink" x="0px" y="0px" width="150px" height="150px" viewBox="0 0 150 150" enable-background="new 0 0 150 150" xml:space="preserve"><g><path fill="#FF8585" d="M38.4,77.4c-0.2,0-0.4,0-0.6-0.1c-0.2-0.1-0.3-0.2-0.5-0.3c-10-7.8-14.8-12.1-17.6-15.6 c-3.2-4-3.8-7.2-3.8-11.2c0,0,0-0.1,0-0.1c0-6.9,5.6-12.4,12.4-12.4c4,0,7.8,2,10.1,5.1c2.3-3.2,6.1-5.1,10.1-5.1 c6.9,0,12.4,5.6,12.4,12.4c0,0,0,0.1,0,0.1c0,4.1-0.6,7.2-3.8,11.3C54.3,65,49.5,69.2,39.5,77c-0.1,0.1-0.3,0.2-0.4,0.2 C38.9,77.4,38.6,77.4,38.4,77.4z"/></g><g><path fill="#FF8585" d="M116.1,58.7c-0.2,0-0.4,0-0.6-0.1c-0.2-0.1-0.3-0.1-0.4-0.3c-9.4-7.4-14-11.4-16.6-14.7 c-3-3.8-3.6-6.8-3.6-10.6c0,0,0-0.1,0-0.1c0-6.5,5.3-11.7,11.7-11.7c3.8,0,7.3,1.9,9.5,4.8c2.2-3,5.7-4.8,9.5-4.8 c6.5,0,11.7,5.3,11.7,11.7c0,0,0,0.1,0,0.1c0,3.9-0.6,6.8-3.6,10.6c-2.7,3.4-7.2,7.4-16.6,14.7c-0.1,0.1-0.2,0.2-0.4,0.2 C116.5,58.6,116.3,58.7,116.1,58.7z"/></g><g><path fill="#FFB3B3" d="M43.1,128.9c-0.1,0-0.3,0-0.4-0.1c-0.1,0-0.2-0.1-0.3-0.2c-7.4-5.7-10.9-8.9-13-11.5 c-2.3-2.9-2.8-5.3-2.8-8.3c0,0,0-0.1,0-0.1c0-5,4.1-9.1,9.1-9.1c3,0,5.7,1.5,7.4,3.8c1.7-2.3,4.5-3.8,7.4-3.8c5,0,9.1,4.1,9.1,9.1 c0,0,0,0.1,0,0.1c0,3-0.5,5.3-2.8,8.3c-2.1,2.6-5.6,5.7-13,11.5c-0.1,0.1-0.2,0.1-0.3,0.2C43.4,128.8,43.2,128.9,43.1,128.9z"/></g><g><path fill="#FF8585" d="M108.1,120.6c-0.2,0-0.3,0-0.5-0.1c-0.1-0.1-0.3-0.1-0.4-0.2c-8-6.2-11.8-9.6-14-12.4c-2.5-3.2-3-5.7-3-8.9 c0,0,0-0.1,0-0.1c0-5.5,4.4-9.9,9.9-9.9c3.2,0,6.2,1.6,8,4.1c1.8-2.5,4.8-4.1,8-4.1c5.5,0,9.9,4.4,9.9,9.9c0,0,0,0.1,0,0.1 c0,3.2-0.5,5.8-3,8.9c-2.2,2.8-6,6.2-14,12.4c-0.1,0.1-0.2,0.1-0.3,0.2C108.5,120.6,108.3,120.6,108.1,120.6z"/></g><g><path fill="#FF9797" d="M77.3,111c-0.3,0-0.6-0.1-0.9-0.2c-0.3-0.1-0.5-0.2-0.7-0.4C60.9,98.9,53.9,92.6,49.7,87.3 C45,81.4,44,76.7,44,70.7c0-0.1,0-0.1,0-0.2c0-10.1,8.3-18.4,18.4-18.4c5.9,0,11.5,2.9,14.9,7.6c3.4-4.7,9-7.6,14.9-7.6 c10.1,0,18.4,8.3,18.4,18.4c0,0.1,0,0.1,0,0.2c0,6-1,10.7-5.7,16.6c-4.2,5.3-11.3,11.5-26.1,23.1c-0.2,0.1-0.4,0.3-0.6,0.4 C77.9,110.9,77.6,111,77.3,111z"/></g></svg>