<?xml version="1.0" encoding="utf-8"?><!DOCTYPE svg PUBLIC "-//W3C//DTD SVG 1.1//EN" "http://www.w3.org/Graphics/SVG/1.1/DTD/svg11.dtd"><svg version="1.1" id="Layer_1" xmlns="http://www.w3.org/2000/svg" xmlns:xlink="http://www.w3.org/1999/xlink" x="0px" y="0px" width="150px" height="150px" viewBox="0 0 150 150" enable-background="new 0 0 150 150" xml:space="preserve"><path fill="#88C11A" d="M136.9,117.9l-7.8-2.4l-2.5-12l4.3-14.1c0.2-0.6-0.1-1.3-0.7-1.6l-11.6-4.7l17.8-23c0.1-0.2,0.2-0.4,0.3-0.6	l1.5-13.7c0.1-0.6-0.3-1.2-1-1.4l-25.3-6.6L93.2,11.1c-0.2-0.3-0.6-0.5-1.1-0.5H77.8c-0.6,0-1.1,0.4-1.2,0.9	c-2.9,9.1-3.6,12.4-3.7,13.7c-1.7,1.2-9.8,4.9-17.4,8.1l-6.9-6.2c-0.3-0.3-0.7-0.4-1.1-0.3l-6.4,1.4c-0.6,0.1-1,0.6-1,1.3v10.8	L24.9,37c-0.3-0.1-0.5,0-0.8,0.1l-12.4,5.3c-0.6,0.3-0.9,0.9-0.7,1.6l3.4,10.2c0.1,0.4,0.4,0.7,0.8,0.8L33,61.4l0.5,11.8	c0,0.3,0.1,0.6,0.3,0.8l9.9,10.8l-10.2,38.1c-0.1,0.5,0,1,0.5,1.4l15.8,12c0.2,0.1,0.4,0.2,0.6,0.3l33.2,3.9c0.1,0,0.1,0,0.1,0	c0.4,0,0.8-0.2,1-0.5l10.9-13.7l23,8.2c0.4,0.1,0.9,0.1,1.2-0.2l17.4-13.9c0.4-0.3,0.5-0.8,0.5-1.2S137.4,118.1,136.9,117.9z"/><path fill="#FFFFFF" d="M112,47.2c0-16.2-13.2-29.4-29.4-29.4c-16.2,0-29.4,13.2-29.4,29.4c0,9.3,4.3,17.6,11.1,23h-0.1l18.4,18.7	l18.4-18.7H101C107.7,64.7,112,56.5,112,47.2z"/><path fill="#1CB0F6" d="M55.9,48c0.5,11.1,7.8,20.5,17.8,24V21.6c-10,3.5-17.3,12.9-17.8,24V48z"/><path fill="#D33131" d="M91.6,21.6V72c10.4-3.7,17.8-13.6,17.8-25.2S102,25.3,91.6,21.6z"/><path fill="#7CAA18" d="M104.6,106.8h-0.5c-0.6,0-1-0.5-1-1v-3.4c0-0.6,0.5-1,1-1h0.5c0.6,0,1,0.5,1,1v3.4	C105.7,106.3,105.2,106.8,104.6,106.8z"/><path fill="#7CAA18" d="M108.3,106.8h-0.5c-0.6,0-1-0.5-1-1v-5.3c0-0.6,0.5-1,1-1h0.5c0.6,0,1,0.5,1,1v5.3	C109.3,106.3,108.9,106.8,108.3,106.8z"/><path fill="#7CAA18" d="M111.9,106.8h-0.5c-0.6,0-1-0.5-1-1v-2.6c0-0.6,0.5-1,1-1h0.5c0.6,0,1,0.5,1,1v2.6	C113,106.3,112.5,106.8,111.9,106.8z"/><path fill="#7CAA18" d="M53,89.2h-0.5c-0.6,0-1-0.5-1-1v-3.4c0-0.6,0.5-1,1-1H53c0.6,0,1,0.5,1,1v3.4C54,88.7,53.6,89.2,53,89.2z"/><path fill="#7CAA18" d="M56.7,89.2h-0.5c-0.6,0-1-0.5-1-1v-5.3c0-0.6,0.5-1,1-1h0.5c0.6,0,1,0.5,1,1v5.3	C57.7,88.7,57.2,89.2,56.7,89.2z"/><path fill="#7CAA18" d="M60.3,89.2h-0.5c-0.6,0-1-0.5-1-1v-2.6c0-0.6,0.5-1,1-1h0.5c0.6,0,1,0.5,1,1v2.6	C61.3,88.7,60.9,89.2,60.3,89.2z"/><path fill="#7CAA18" d="M65.6,118.1h-0.5c-0.6,0-1-0.5-1-1v-3.4c0-0.6,0.5-1,1-1h0.5c0.6,0,1,0.5,1,1v3.4	C66.6,117.7,66.2,118.1,65.6,118.1z"/><path fill="#7CAA18" d="M69.3,118.1h-0.5c-0.6,0-1-0.5-1-1v-5.3c0-0.6,0.5-1,1-1h0.5c0.6,0,1,0.5,1,1v5.3	C70.3,117.7,69.8,118.1,69.3,118.1z"/><path fill="#7CAA18" d="M72.9,118.1h-0.5c-0.6,0-1-0.5-1-1v-2.6c0-0.6,0.5-1,1-1h0.5c0.6,0,1,0.5,1,1v2.6	C73.9,117.7,73.5,118.1,72.9,118.1z"/></svg>