<?xml version="1.0" encoding="utf-8"?><!DOCTYPE svg PUBLIC "-//W3C//DTD SVG 1.1//EN" "http://www.w3.org/Graphics/SVG/1.1/DTD/svg11.dtd"><svg version="1.1" id="Layer_1" xmlns="http://www.w3.org/2000/svg" xmlns:xlink="http://www.w3.org/1999/xlink" x="0px" y="0px" width="150px" height="150px" viewBox="0 0 150 150" enable-background="new 0 0 150 150" xml:space="preserve"><path fill="#00BDFF" d="M78.1,49.6c2.5-5,4.5-7.4,4.5-7.4v-0.2c0,0-1.3,0.2-5.2,0.2H47.7c-3.1,0-4.7-1.6-4.7-4.7v-3.2	c0-3.1,1.6-4.8,4.7-4.8h46.1c3.1,0,4.8,1.6,4.8,4.7v2.5c0,2.2-0.3,3.9-1.4,5.8l-32.3,64.4c-1.3,2.4-3,3.4-5.7,3.4H54	c-3.6,0-5-2.3-3.4-5.6L78.1,49.6z"/></svg>