<?xml version="1.0" encoding="utf-8"?><!DOCTYPE svg PUBLIC "-//W3C//DTD SVG 1.1//EN" "http://www.w3.org/Graphics/SVG/1.1/DTD/svg11.dtd"><svg version="1.1" id="Layer_1" xmlns="http://www.w3.org/2000/svg" xmlns:xlink="http://www.w3.org/1999/xlink" x="0px" y="0px" width="150px" height="150px" viewBox="0 0 150 150" enable-background="new 0 0 150 150" xml:space="preserve"><linearGradient id="SVGID_1_" gradientUnits="userSpaceOnUse" x1="74.75" y1="142.1047" x2="74.75" y2="8.6453"><stop offset="0" style="stop-color:#76E8F8"/><stop offset="1" style="stop-color:#37D6ED"/></linearGradient><path fill="url(#SVGID_1_)" d="M129.4,142.1H20.1C13.4,142.1,8,136.7,8,130V20.7C8,14,13.4,8.6,20.1,8.6h109.3	c6.7,0,12.1,5.4,12.1,12.1V130C141.5,136.7,136.1,142.1,129.4,142.1z"/><path fill="#7AC70C" d="M8,71.2V130c0,6.7,5.4,12.1,12.1,12.1h109.3c6.7,0,12.1-5.4,12.1-12.1V71.2H8z"/><polygon fill="#70B700" points="78.7,142.1 71.3,142.1 73.3,71.2 76.7,71.2"/><polygon fill="#70B700" points="58.7,142.1 51.3,142.1 63.3,71.2 66.7,71.2"/><polygon fill="#70B700" points="38.7,142.1 31.3,142.1 54.3,71.2 57.7,71.2"/><path fill="#70B700" d="M15.2,141.1l34.5-69.8h-3.3l-36.1,65.7C11.4,138.7,13.2,140.2,15.2,141.1z"/><polygon fill="#70B700" points="8,122.4 42.7,71.2 39.3,71.2 8,113.9"/><polygon fill="#70B700" points="8,101.4 35.7,71.2 32.3,71.2 8,96.2"/><polygon fill="#70B700" points="8,89.1 28.7,71.2 25.3,71.2 8,85.5"/><polygon fill="#70B700" points="8,80.9 20.7,71.2 17.3,71.2 8,78"/><polygon fill="#70B700" points="90.3,142.1 97.7,142.1 85.7,71.2 82.3,71.2"/><polygon fill="#70B700" points="110.3,142.1 117.7,142.1 94.7,71.2 91.3,71.2"/><path fill="#70B700" d="M139,137.3l-36.4-66.1h-3.3l34.6,70C136,140.4,137.7,139,139,137.3z"/><polygon fill="#70B700" points="141.5,114.6 109.7,71.2 106.3,71.2 141.5,123.1"/><polygon fill="#70B700" points="141.5,96.7 116.7,71.2 113.3,71.2 141.5,101.9"/><polygon fill="#70B700" points="141.5,85.9 123.7,71.2 120.3,71.2 141.5,89.5"/><polygon fill="#70B700" points="141.5,78.4 131.7,71.2 128.3,71.2 141.5,81.2"/><path fill="#D4F2FF" d="M62.8,37.3h-2.9c0.1-0.4,0.2-0.9,0.2-1.4c0-3-2.4-5.5-5.5-5.5c-0.1,0-0.2,0-0.3,0c0,0,0-0.1,0-0.1	c0-6.1-4.9-11.1-11.1-11.1s-11.1,4.9-11.1,11.1c0,2.6,0.9,5,2.5,6.9H31c-1.1,0-2.1,0.9-2.1,2.1c0,1.1,0.9,2.1,2.1,2.1h12.3	c0,0,0,0,0,0h0h11.3c0,0,0,0,0,0c0,0,0,0,0,0h8.2c1.1,0,2.1-0.9,2.1-2.1C64.9,38.2,64,37.3,62.8,37.3z"/><path fill="#FFFFFF" d="M129.2,44.4h-5c0.5-1.6,0.7-3.2,0.7-4.9c0-9.6-7.8-17.4-17.4-17.4s-17.4,7.8-17.4,17.4	c0,1.7,0.3,3.3,0.7,4.9h-1.7c-1.8,0-3.2,1.5-3.2,3.2s1.5,3.2,3.2,3.2h40.1c1.8,0,3.2-1.5,3.2-3.2S131,44.4,129.2,44.4z"/><path fill="none" stroke="#B26938" stroke-width="4.5286" stroke-linecap="round" stroke-linejoin="round" stroke-miterlimit="10" d="M46.9,59.3v7.9c0,2.7-2.2,4.9-4.9,4.9h-4.4"/><path fill="#B26938" d="M39.1,86.7h-5.1V60.7c0-1,0.9-1.9,1.9-1.9h1.3c1,0,1.9,0.9,1.9,1.9V86.7z"/><path fill="#70AF0C" d="M57.2,65.1H17.5c-1.5,0-2.8-1.3-2.8-2.8v-9.8c0-9.3,7.5-16.8,16.8-16.8h11.7c9.3,0,16.8,7.5,16.8,16.8v9.8	C60,63.8,58.7,65.1,57.2,65.1z"/></svg>