<?xml version="1.0" encoding="utf-8"?><!DOCTYPE svg PUBLIC "-//W3C//DTD SVG 1.1//EN" "http://www.w3.org/Graphics/SVG/1.1/DTD/svg11.dtd"><svg version="1.1" id="Layer_1" xmlns="http://www.w3.org/2000/svg" xmlns:xlink="http://www.w3.org/1999/xlink" x="0px" y="0px" width="150px" height="150px" viewBox="0 0 150 150" enable-background="new 0 0 150 150" xml:space="preserve"><path fill="#A560E8" d="M129.7,142.4H20.3c-6.7,0-12.1-5.4-12.1-12.1V21c0-6.7,5.4-12.1,12.1-12.1h109.3c6.7,0,12.1,5.4,12.1,12.1	v109.3C141.7,137,136.3,142.4,129.7,142.4z"/><path fill="#0098ED" d="M74.8,98.6L74.8,98.6c-26.8,0-50.8,12.3-66.6,31.5v0.2c0,6.7,5.4,12.1,12.1,12.1h109.3	c6.6,0,12-5.3,12.1-11.9C125.9,111.1,101.8,98.6,74.8,98.6z"/><path fill="#00B1FF" d="M109.3,142.1v-36.7c0-18.9-15.4-34.3-34.3-34.3s-34.3,15.4-34.3,34.3v36.7L75,128L109.3,142.1z"/><path fill="#FF9D8A" d="M75,123.3L75,123.3c-13.1,0-23.7-10.6-23.7-23.7V62.7C51.3,49.6,61.9,39,75,39h0c13.1,0,23.7,10.6,23.7,23.7	v36.8C98.7,112.7,88.1,123.3,75,123.3z"/><path fill="#FFB5A1" d="M129.7,8.9H20.3c-2.6,0-5,0.8-7,2.3c1.6,32.6,28.5,58.6,61.5,58.6h0c33.1,0,60.1-26.1,61.6-58.8	C134.5,9.7,132.2,8.9,129.7,8.9z"/><circle fill="#00B1FF" cx="75" cy="137.2" r="4.5"/><path fill="none" stroke="#EF9681" stroke-width="4" stroke-linecap="round" stroke-linejoin="round" stroke-miterlimit="10" d="M97.1,21.8c-4.4,7.6-12.6,12.7-22,12.7c-9.4,0-17.7-5.1-22.1-12.8"/></svg>