<?xml version="1.0" encoding="utf-8"?><!DOCTYPE svg PUBLIC "-//W3C//DTD SVG 1.1//EN" "http://www.w3.org/Graphics/SVG/1.1/DTD/svg11.dtd"><svg version="1.1" id="Layer_1" xmlns="http://www.w3.org/2000/svg" xmlns:xlink="http://www.w3.org/1999/xlink" x="0px" y="0px" width="150px" height="150px" viewBox="0 0 150 150" enable-background="new 0 0 150 150" xml:space="preserve"><path fill="#FFD96E" d="M106.2,40.7h-1.4c-3.1,0-5.6-2.5-5.6-5.6v0c0-3.1,2.5-5.6,5.6-5.6h1.4c3.1,0,5.6,2.5,5.6,5.6v0	C111.7,38.2,109.2,40.7,106.2,40.7z"/><path fill="#FFA300" d="M102.8,35.2L102.8,35.2c-0.8,1-2.4,1.1-3.4,0.3L94,30.9c-1-0.8-1.1-2.4-0.3-3.4v0c0.8-1,2.4-1.1,3.4-0.3	l5.5,4.6C103.5,32.7,103.7,34.2,102.8,35.2z"/><path fill="#FFD96E" d="M113.5,49.1l-13.7-7.8c-3-1.7-4.1-5.6-2.4-8.6l0,0c1.7-3,5.6-4.1,8.6-2.4l13.7,7.8c3,1.7,4.1,5.6,2.4,8.6	l0,0C120.3,49.8,116.5,50.8,113.5,49.1z"/><path fill="#FFD96E" d="M101.6,35.3L101.6,35.3c1.7-3,5.6-4.1,8.6-2.4l13.7,7.8c3,1.7,4.1,5.6,2.4,8.6l0,0"/><path fill="#FFD96E" d="M75.9,127.5L75.9,127.5c-3.7-1.3-5.7-5.3-4.4-9l25.9-76.2c1.3-3.7,5.3-5.7,9-4.4l0,0c3.7,1.3,5.7,5.3,4.4,9	l-25.9,76.2C83.7,126.8,79.6,128.8,75.9,127.5z"/><rect x="97" y="36.9" fill="#FFD96E" width="7.1" height="12.2"/><path fill="#D38200" d="M110.5,36.8c0,1.4-1.1,2.5-2.5,2.5c-1.4,0-2.5-1.1-2.5-2.5"/><path fill="#FFD96E" d="M100.4,36.8c0,3-2.4,5.3-5.3,5.3s-5.3-2.4-5.3-5.3"/><path fill="#FFA300" d="M95.4,58.6l-3.2-1.1L88,69.7l3.2,1.1c3.4,1.1,7.1-0.7,8.2-4l0,0C100.6,63.4,98.8,59.7,95.4,58.6z"/><path fill="#FFA300" d="M97.5,86l3.4-9.9l-1.8-0.6c-2.7-0.9-5.7,0.5-6.7,3.3l0,0c-0.9,2.7,0.5,5.7,3.3,6.7L97.5,86z"/><rect x="97" y="37.9" transform="matrix(-0.9468 -0.3219 0.3219 -0.9468 181.5832 117.9875)" fill="#FFD96E" width="7.1" height="12.2"/><path fill="#FFA300" d="M102.7,59.4L99,58.1c-1.6-0.5-2.5-2.3-1.9-3.9v0c0.5-1.6,2.3-2.5,3.9-1.9l3.7,1.2c1.6,0.5,2.5,2.3,1.9,3.9	l0,0C106.1,59.1,104.3,59.9,102.7,59.4z"/><path fill="#FFA300" d="M87.8,83.6l-3.9-1.3c0,0,0,0,0,0l-2.4,7.1c0,0,0,0,0,0l3.9,1.3c1.9,0.7,4.1-0.4,4.7-2.3	C90.8,86.4,89.7,84.3,87.8,83.6z"/><circle fill="#EABF54" cx="123.2" cy="43.1" r="1.3"/><path fill="#FFA300" d="M91.9,101.8l3.1-9.2l-0.7-0.2c-2.5-0.9-5.3,0.5-6.2,3.1c-0.9,2.5,0.5,5.3,3.1,6.2L91.9,101.8z"/><path fill="#EAA542" d="M72.8,113.5L72.8,113.5c-1.9,1.9-5,1.9-7,0l-5.1-5.1c-1.9-1.9-1.9-5,0-7l0,0c1.9-1.9,5-1.9,7,0l5.1,5.1	C74.7,108.4,74.7,111.6,72.8,113.5z"/><path fill="#D88D2B" d="M60.7,100.8L60.7,100.8c-10.6,0-19.2-8.6-19.2-19.2v-9.3c0-10.6,8.6-19.2,19.2-19.2h0	c10.6,0,19.2,8.6,19.2,19.2v9.3C79.9,92.2,71.3,100.8,60.7,100.8z"/><path fill="#EAA542" d="M61,86.9h-0.5c-6.5,0-11.7-5.3-11.7-11.7v-2.3c0-6.5,5.3-11.7,11.7-11.7H61c6.5,0,11.7,5.3,11.7,11.7v2.3	C72.7,81.6,67.5,86.9,61,86.9z"/><path fill="#E8C08B" d="M66.2,86.7c0,3.1-2.6,5.7-5.7,5.7s-5.7-2.6-5.7-5.7"/><path fill="#E8C08B" d="M64.3,86.9h-7.6c-2.8,0-5.1-2.3-5.1-5.1v0c0-2.8,2.3-5.1,5.1-5.1h7.6c2.8,0,5.1,2.3,5.1,5.1v0	C69.4,84.6,67.1,86.9,64.3,86.9z"/><polygon fill="#CC5200" points="65.5,76.7 60.5,80.5 55.4,76.7"/><path fill="#EAA542" d="M62,72.6L62,72.6c-1.7,1.7-4.6,1.7-6.3,0l-6.2-6.2c-1.7-1.7-1.7-4.6,0-6.3l0,0c1.7-1.7,4.6-1.7,6.3,0	l6.2,6.2C63.8,68,63.8,70.8,62,72.6z"/><path fill="#EAA542" d="M59.6,72.6L59.6,72.6c1.7,1.7,4.6,1.7,6.3,0l6.2-6.2c1.7-1.7,1.7-4.6,0-6.3l0,0c-1.7-1.7-4.6-1.7-6.3,0	l-6.2,6.2C57.8,68,57.8,70.8,59.6,72.6z"/><path fill="#D88D2B" d="M55.4,71.4c-0.9,0.9-2.3,0.9-3.1,0c-0.9-0.9-0.9-2.3,0-3.1"/><path fill="#D88D2B" d="M65.5,71.4c0.9,0.9,2.3,0.9,3.1,0c0.9-0.9,0.9-2.3,0-3.1"/><path fill="#D88D2B" d="M60.7,65L60.7,65c-2.2,0-4-1.8-4-4v-1.8c0-2.2,1.8-4,4-4h0c2.2,0,4,1.8,4,4V61C64.7,63.2,62.9,65,60.7,65z"/><rect x="55.4" y="71.4" fill="#F4A947" width="10.1" height="5.3"/><rect x="20.4" y="94.3" fill="#D1D1D1" width="116.8" height="35.2"/><g><path fill="#B25A4B" d="M133,118.3v-4.3c1.6,0,3-1.3,3-3v-10.3h4.3V111C140.3,115,137,118.3,133,118.3z"/></g><g><path fill="#B25A4B" d="M128.1,118.3v-4.3c-1.6,0-3-1.3-3-3v-10.3h-4.3V111C120.8,115,124,118.3,128.1,118.3z"/></g><path fill="#B25A4B" d="M132.8,129.5h-4.3c-0.5,0-0.9-0.4-0.9-0.9V95.7c0-1.7,1.4-3.1,3.1-3.1l0,0c1.7,0,3.1,1.4,3.1,3.1v32.9	C133.7,129.1,133.3,129.5,132.8,129.5z"/><path fill="#60960B" d="M132.7,109.9h-6c-8.3,0-15.1-6.7-15.1-15.1V74.2c0-8.3,6.7-15.1,15.1-15.1h6c8.3,0,15.1,6.7,15.1,15.1v20.6	C147.8,103.1,141,109.9,132.7,109.9z"/><path fill="#60960B" d="M126.7,97.6h-13.3c-6,0-10.8-4.9-10.8-10.8v0c0-6,4.9-10.8,10.8-10.8h13.3c6,0,10.8,4.9,10.8,10.8v0	C137.6,92.8,132.7,97.6,126.7,97.6z"/><path fill="#578408" d="M139.7,68c-1.8-0.8-3.9-0.5-5.3,1s-1.8,3.6-1,5.3c1.8,0.8,3.9,0.5,5.3-1C140.2,71.9,140.5,69.8,139.7,68z"/><path fill="#578408" d="M119,79.5c-0.8,1.8-0.5,3.9,1,5.3c1.4,1.4,3.6,1.8,5.3,1c0.8-1.8,0.5-3.9-1-5.3	C122.9,79.1,120.8,78.7,119,79.5z"/><path fill="#578408" d="M132.7,93.9c-0.8,1.8-0.5,3.9,1,5.3c1.4,1.4,3.6,1.8,5.3,1c0.8-1.8,0.5-3.9-1-5.3S134.5,93.1,132.7,93.9z"/><g><path fill="#B25A4B" d="M23.5,118.3V114c1.6,0,3-1.3,3-3v-10.3h4.3V111C30.8,115.1,27.5,118.3,23.5,118.3z"/></g><path fill="#B25A4B" d="M23.6,129.6h-4.8c-0.4,0-0.6-0.3-0.6-0.6l0-33.2c0-1.7,1.4-3.1,3.1-3.1h0c1.7,0,3.1,1.4,3.1,3.1v33.2	C24.2,129.3,23.9,129.6,23.6,129.6z"/><path fill="#60960B" d="M23.2,109.9h-6c-8.3,0-15.1-6.7-15.1-15.1V74.2c0-8.3,6.7-15.1,15.1-15.1h6c8.3,0,15.1,6.7,15.1,15.1v20.6	C38.3,103.2,31.5,109.9,23.2,109.9z"/><path fill="#60960B" d="M38.1,109.9H24.8c-6,0-10.8-4.9-10.8-10.8v0c0-6,4.9-10.8,10.8-10.8h13.3c6,0,10.8,4.9,10.8,10.8v0	C48.9,105.1,44.1,109.9,38.1,109.9z"/><path fill="#578408" d="M30.2,68.1c-1.8-0.8-3.9-0.5-5.3,1c-1.4,1.4-1.8,3.6-1,5.3c1.8,0.8,3.9,0.5,5.3-1C30.7,72,31,69.8,30.2,68.1	z"/><path fill="#578408" d="M9.5,79.6c-0.8,1.8-0.5,3.9,1,5.3c1.4,1.4,3.6,1.8,5.3,1c0.8-1.8,0.5-3.9-1-5.3	C13.4,79.1,11.3,78.8,9.5,79.6z"/><path fill="#578408" d="M23.2,94c-0.8,1.8-0.5,3.9,1,5.3c1.4,1.4,3.6,1.8,5.3,1c0.8-1.8,0.5-3.9-1-5.3C27.1,93.5,25,93.2,23.2,94z"/><rect x="52.8" y="101.4" fill="#BABABA" width="16.1" height="6.8"/><rect x="60.7" y="110" fill="#BABABA" width="16.1" height="6.8"/><rect x="95.3" y="108.6" fill="#BABABA" width="16.1" height="6.8"/><rect x="88.1" y="117.2" fill="#BABABA" width="16.1" height="6.8"/><path fill="#D33131" d="M35,46.1c1.8-0.6,3.7-1.2,5.5-1.9V20.3c-3.1,0-5.6,2.5-5.6,5.6L35,46.1C34.9,46.2,34.9,46.1,35,46.1z"/><path fill="#FF9522" d="M44.6,43.8h8.9c0-3-2.4-5.5-5.5-5.5h-3.5C44.5,40.2,44.5,42,44.6,43.8z"/><path fill="#D33131" d="M35.3,46c1.8-0.6,3.5-1.2,5.2-1.9l-8.2-21.1c-2.9,1.1-4.3,4.3-3.2,7.2L35.3,46z"/><path fill="#D33131" d="M35,46.1c1-0.3,2-0.7,3-1L26.7,28.8c-2.5,1.7-3.2,5.2-1.4,7.7l7.1,10.3C33.3,46.6,34.1,46.4,35,46.1z"/><path fill="#D33131" d="M48.1,38.3c0,7-5.7,12.7-12.7,12.7s-12.7-5.7-12.7-12.7"/><path fill="#D33131" d="M43.6,38.3h-30c0,3.1,2.5,5.6,5.6,5.6h24.5C43.7,42,43.7,40.2,43.6,38.3z"/><circle fill="#7C1F1F" cx="44.2" cy="41.1" r="1.4"/><path fill="#BC2E2E" d="M35.1,39.8L35.1,39.8c0,1.2-1,2.1-2.1,2.1h-1.3c-1.2,0-2.1-1-2.1-2.1v0"/><path fill="#BC2E2E" d="M39.9,42.8L39.9,42.8c0,1.2-1,2.1-2.1,2.1h-1.3c-1.2,0-2.1-1-2.1-2.1v0"/><path fill="#BC2E2E" d="M35.1,45.9L35.1,45.9c0,1.2-1,2.1-2.1,2.1h-1.3c-1.2,0-2.1-1-2.1-2.1v0"/></svg>