<?xml version="1.0" encoding="utf-8"?><!DOCTYPE svg PUBLIC "-//W3C//DTD SVG 1.1//EN" "http://www.w3.org/Graphics/SVG/1.1/DTD/svg11.dtd"><svg version="1.1" id="Layer_1" xmlns="http://www.w3.org/2000/svg" xmlns:xlink="http://www.w3.org/1999/xlink" x="0px" y="0px" width="150px" height="150px" viewBox="0 0 150 150" enable-background="new 0 0 150 150" xml:space="preserve"><path fill="#FF9100" d="M77.6,125.8L77.6,125.8c12.6,0,22.9-10.3,22.9-22.9V80.8c0-12.6-10.3-22.9-22.9-22.9h0"/><path fill="#FF9100" d="M79.4,48.3L79.4,48.3c-12.6,0-22.9,10.3-22.9,22.9v22.1c0,12.6,10.3,22.9,22.9,22.9h0"/><path fill="#91552C" d="M82.4,103.7H30.5v36.8h51.9c5,0,9-3.3,9-7.4v-21.9C91.4,107,87.3,103.7,82.4,103.7z"/><path fill="#774726" d="M85.4,103.7c-5.7,0-10.4,3.5-10.4,7.7v21.4c0,4.3,4.6,7.7,10.4,7.7h34.3v-36.8H85.4z"/><path fill="#DBB663" d="M30.5,103.7c-5.5,0-10,4.5-10,10v16.8c0,5.5,4.5,10,10,10c5.5,0,10-4.5,10-10v-16.8	C40.5,108.2,36,103.7,30.5,103.7z"/><path fill="#DBB663" d="M119.7,103.7c-5.5,0-10,4.5-10,10v16.8c0,5.5,4.5,10,10,10c5.5,0,10-4.5,10-10v-16.8	C129.7,108.2,125.2,103.7,119.7,103.7z"/><path fill="#EFC46F" d="M119.7,112c-3,0-5.4,2.5-5.4,5.4v9.2c0,3,2.5,5.4,5.4,5.4c3,0,5.4-2.5,5.4-5.4v-9.2	C125.2,114.5,122.7,112,119.7,112z"/><path fill="#EFC46F" d="M30.5,112c-3,0-5.4,2.5-5.4,5.4v9.2c0,3,2.5,5.4,5.4,5.4s5.4-2.5,5.4-5.4v-9.2C35.9,114.5,33.5,112,30.5,112	z"/><path fill="#774726" d="M113.7,99.8c2.2-2.2,2.2-5.8,0-8l0,0c-2.2-2.2-5.8-2.2-8,0l-20.4,20.4c-1.5,1.5-1.5,3.9,0,5.4l2.5,2.5	c1.5,1.5,3.9,1.5,5.4,0L113.7,99.8z"/><path fill="#FFA300" d="M60.5,36.4L60.5,36.4c-11.5,0-20.9,9.4-20.9,20.9v32.4c0,11.5,9.4,20.9,20.9,20.9h0"/><path fill="#FFA300" d="M66.4,127.3L66.4,127.3c11.5,0,20.9-9.4,20.8-20.9l0-20.2c0-11.5-9.4-20.9-20.9-20.8h0"/><path fill="#FFA300" d="M107.4,22.9L107.4,22.9c-11.5,0-20.9,9.4-20.9,20.9v22.4c0,11.5,9.4,20.9,20.9,20.9h0"/><path fill="#FFA300" d="M71.6,38.1L71.6,38.1c7,0,12.8-5.8,12.8-12.8v-1.5c0-7-5.8-12.8-12.8-12.8h0"/></svg>