<?xml version="1.0" encoding="utf-8"?><!DOCTYPE svg PUBLIC "-//W3C//DTD SVG 1.1//EN" "http://www.w3.org/Graphics/SVG/1.1/DTD/svg11.dtd"><svg version="1.1" xmlns="http://www.w3.org/2000/svg" xmlns:xlink="http://www.w3.org/1999/xlink" x="0px" y="0px" width="150px" height="150px" viewBox="0 0 150 150" enable-background="new 0 0 150 150" xml:space="preserve"><g id="Layer_2" display="none"><rect x="-850" display="inline" fill="#F0F0F0" width="1680" height="1677.3"/></g><g id="Layer_1"><path fill="#AA7749" d="M130.8,87.1c0-6.2-3.7-11.6-9-14.1V59.8c0-25.7-21-46.8-46.8-46.8h0c-21.3,0-39.4,14.5-45,34.1 c-4.5,1.5-7.8,5.8-7.8,10.9c0,4.4,2.4,8.2,6,10.1v23c0,25.7,21,46.8,46.8,46.8h0c22.1,0,40.7-15.5,45.5-36.2 C126.5,99.5,130.8,93.8,130.8,87.1z"/><path fill="#996A44" d="M54.9,58.6c-2.9,0-5.2,2.3-5.2,5.2c0,2.9,2.3,5.2,5.2,5.2c2.9,0,5.2-2.3,5.2-5.2 C60.1,60.9,57.7,58.6,54.9,58.6z"/><path fill="#996A44" d="M91.7,32.2c-2.9,0-5.2,2.3-5.2,5.2c0,2.9,2.3,5.2,5.2,5.2s5.2-2.3,5.2-5.2C96.9,34.5,94.5,32.2,91.7,32.2z"/><path fill="#996A44" d="M84,50.8c-2,0-3.6,1.6-3.6,3.6c0,2,1.6,3.6,3.6,3.6s3.6-1.6,3.6-3.6C87.5,52.4,85.9,50.8,84,50.8z"/><path fill="#996A44" d="M57.7,110.5c-2,0-3.6,1.6-3.6,3.6c0,2,1.6,3.6,3.6,3.6c2,0,3.6-1.6,3.6-3.6 C61.3,112.1,59.7,110.5,57.7,110.5z"/><path fill="#996A44" d="M49.4,87.7c-2.7,0-5,2.2-5,5c0,2.7,2.2,5,5,5s5-2.2,5-5C54.3,89.9,52.1,87.7,49.4,87.7z"/><path fill="#996A44" d="M97.4,86.8c-2.9,0-5.2,2.3-5.2,5.2c0,2.9,2.3,5.2,5.2,5.2s5.2-2.3,5.2-5.2C102.6,89.2,100.2,86.8,97.4,86.8 z"/></g><g id="Layer_3"/></svg>