<?xml version="1.0" encoding="utf-8"?><!DOCTYPE svg PUBLIC "-//W3C//DTD SVG 1.1//EN" "http://www.w3.org/Graphics/SVG/1.1/DTD/svg11.dtd"><svg version="1.1" id="Layer_1" xmlns="http://www.w3.org/2000/svg" xmlns:xlink="http://www.w3.org/1999/xlink" x="0px" y="0px" width="150px" height="150px" viewBox="0 0 150 150" enable-background="new 0 0 150 150" xml:space="preserve"><path fill="#ED839F" d="M81.3,86.9L81.3,86.9c-2.7-2.7-7-2.7-9.7,0L65.5,93c-2.8-6.8-9.5-11.5-17.3-11.5c-10.4,0-18.7,8.4-18.7,18.7	c0,7.8,4.8,14.5,11.5,17.3c-2.5,2.7-2.4,6.9,0.2,9.5l0,0c2.7,2.7,7,2.7,9.7,0l30.5-30.5C83.9,93.9,83.9,89.6,81.3,86.9z"/><path fill="#FF94AB" d="M102.1,21.9H59.8h-2.7h-1.2c-2.7,0-5.3,0.3-7.9,1C29.4,27,15.5,43.6,15.5,63.4v0c0,20.3,14.6,37.2,33.9,40.8	c1.7,0.5,3.5,0.7,5.4,0.7h2.3h2.7h21.3c11.4,0,20.7-9.1,21-20.4c17.2,0,31.3-14.1,31.3-31.4l0,0C133.5,36,119.4,21.9,102.1,21.9z"/><path fill="none" stroke="#ED839F" stroke-width="4" stroke-linecap="round" stroke-linejoin="round" stroke-miterlimit="10" d="M89.1,69.9c7.5,0,13.7,6.1,13.7,13.7"/><path fill="none" stroke="#ED839F" stroke-width="4" stroke-linecap="round" stroke-linejoin="round" stroke-miterlimit="10" d="M50.9,50.1c5.3,5.3,5.3,14,0,19.3"/><path fill="none" stroke="#ED839F" stroke-width="4" stroke-linecap="round" stroke-linejoin="round" stroke-miterlimit="10" d="M55,57.8c2.7-2.7,7-2.7,9.6,0"/><path fill="none" stroke="#ED839F" stroke-width="4" stroke-linecap="round" stroke-linejoin="round" stroke-miterlimit="10" d="M31.4,93.2c0-3.7,3-6.8,6.8-6.8"/><path fill="none" stroke="#ED839F" stroke-width="4" stroke-linecap="round" stroke-linejoin="round" stroke-miterlimit="10" d="M77.2,45.3c5.3-5.3,14-5.3,19.3,0"/><path fill="none" stroke="#ED839F" stroke-width="4" stroke-linecap="round" stroke-linejoin="round" stroke-miterlimit="10" d="M114.8,43.6c5.3,5.3,5.3,14,0,19.3"/><path fill="none" stroke="#ED839F" stroke-width="4" stroke-linecap="round" stroke-linejoin="round" stroke-miterlimit="10" d="M80.5,42.4c-2.9-2.9-2.9-7.7,0-10.6"/><path fill="none" stroke="#ED839F" stroke-width="4" stroke-linecap="round" stroke-linejoin="round" stroke-miterlimit="10" d="M36.7,42.8c0-4.2,3.4-7.5,7.5-7.5"/><path fill="none" stroke="#ED839F" stroke-width="4" stroke-linecap="round" stroke-linejoin="round" stroke-miterlimit="10" d="M54.7,84.9c-4.8,4.8-12.6,4.8-17.5,0s-4.8-12.6,0-17.5"/></svg>