<?xml version="1.0" encoding="utf-8"?><!DOCTYPE svg PUBLIC "-//W3C//DTD SVG 1.1//EN" "http://www.w3.org/Graphics/SVG/1.1/DTD/svg11.dtd"><svg version="1.1" id="Layer_1" xmlns="http://www.w3.org/2000/svg" xmlns:xlink="http://www.w3.org/1999/xlink" x="0px" y="0px" width="150px" height="150px" viewBox="0 0 150 150" enable-background="new 0 0 150 150" xml:space="preserve"><polygon fill="#303030" points="136.2,119 99.2,129 99.2,29.5 136.2,19.5"/><polygon fill="#303030" points="13.5,119 50.5,129 50.5,29.5 13.5,19.5"/><rect x="50.5" y="29.5" fill="#444444" width="48.8" height="99.5"/><rect x="53.7" y="32.8" fill="#FFFFFF" width="42.5" height="92.8"/><polygon fill="#E8E8E8" points="132.4,116.6 101.9,125.6 101.9,32.8 132.4,23.8"/><polygon fill="#E8E8E8" points="16.9,116.6 47.4,125.6 47.4,32.8 16.9,23.8"/><path fill="#773931" d="M88.1,82.5H61.6c-1.4,0-2.5-1.1-2.5-2.5l0,0c0-1.4,1.1-2.5,2.5-2.5h26.6c1.4,0,2.5,1.1,2.5,2.5l0,0	C90.7,81.4,89.5,82.5,88.1,82.5z"/><path fill="#DB976A" d="M90.9,76c0-8.8-7.1-15.9-15.9-15.9S59,67.2,59,76H90.9z"/><path fill="#EDB894" d="M75.6,64.7h-1.3c-0.4,0-0.7-0.3-0.7-0.7l0,0c0-0.4,0.3-0.7,0.7-0.7h1.3c0.4,0,0.7,0.3,0.7,0.7l0,0	C76.4,64.4,76,64.7,75.6,64.7z"/><path fill="#EDB894" d="M70.3,67.4h-1.3c-0.4,0-0.7-0.3-0.7-0.7l0,0c0-0.4,0.3-0.7,0.7-0.7h1.3c0.4,0,0.7,0.3,0.7,0.7l0,0	C71,67,70.7,67.4,70.3,67.4z"/><path fill="#EDB894" d="M81,67.4h-1.3c-0.4,0-0.7-0.3-0.7-0.7l0,0c0-0.4,0.3-0.7,0.7-0.7H81c0.4,0,0.7,0.3,0.7,0.7l0,0	C81.7,67,81.4,67.4,81,67.4z"/><polygon fill="#FF9700" points="82,77.4 74.9,82.5 67.9,77.4"/><path fill="#DB976A" d="M90.9,82.5L90.9,82.5c0,3.2-2.6,5.9-5.9,5.9H64.9c-3.2,0-5.9-2.6-5.9-5.9v0"/><path fill="#88C11A" d="M91.7,77.4H58c-0.4,0-0.7-0.3-0.7-0.7l0,0c0-0.4,0.3-0.7,0.7-0.7h33.7c0.4,0,0.7,0.3,0.7,0.7l0,0	C92.4,77.1,92.1,77.4,91.7,77.4z"/><path fill="#CC2F2F" d="M71.5,77.4v6.8c0,1.3-1,2.3-2.3,2.3h0c-1.3,0-2.3-1-2.3-2.3v-6.8"/><path fill="#CC2F2F" d="M68.4,77.4v4.3c0,0.8-0.6,1.4-1.4,1.4l0,0c-0.8,0-1.4-0.6-1.4-1.4v-4.3"/><polygon fill="#CE8A65" points="124.5,92.7 117.1,116.8 109.7,92.7"/><path fill="#FFC200" d="M67.1,77.4v5c0,1.3-1,2.3-2.3,2.3h0c-1.3,0-2.3-1-2.3-2.3v-5"/><g><path fill="#C47B5B" d="M111.9,93.6l-1.4,1.4l0.6,1.9l2.1-2.1l3.1,3.1l-3.1,3.1l-1.2-1.2l1.1,3.7l0.1-0.1l3.1,3.1l-1.7,1.7l0.6,1.9 l2.3-2.3l2,2l0.6-1.9l-1.3-1.3l2.5-2.5l1.1-3.5l-0.5,0.5l-3.1-3.1l2.2-2.2l2.2,2.2l0.6-1.9l-1.5-1.5l1.7-1.7h-2.4l-0.5,0.5 l-0.5-0.5h-2.4l1.7,1.7l-2.2,2.2l-3.1-3.1l0.9-0.9H111L111.9,93.6z M120.4,102.2l-3.1,3.1l-3.1-3.1l3.1-3.1L120.4,102.2z"/><polygon fill="#C47B5B" points="117.3,116.2 117.9,114.4 117.7,114.2 118,113.9 119.1,110.4 116.5,113 115.7,112.2 116.8,115.7"/></g><path fill="#FF94E1" d="M126,93.2h-17.5c-1.2,0-2.1-1-2.1-2.1l0,0c0-1.2,1-2.1,2.1-2.1H126c1.2,0,2.1,1,2.1,2.1l0,0	C128.1,92.2,127.2,93.2,126,93.2z"/><path fill="#FF94E1" d="M108.5,89.5L108.5,89.5c0-4.8,3.9-8.7,8.7-8.7h0c4.8,0,8.7,3.9,8.7,8.7v0"/><path fill="#FF94E1" d="M112.9,96.7L112.9,96.7c-0.8,0-1.5-0.7-1.5-1.5v-4.5c0-0.8,0.7-1.5,1.5-1.5h0c0.8,0,1.5,0.7,1.5,1.5v4.5	C114.4,96,113.7,96.7,112.9,96.7z"/><path fill="#FF94E1" d="M115.9,95L115.9,95c-0.8,0-1.5-0.7-1.5-1.5v-4.5c0-0.8,0.7-1.5,1.5-1.5l0,0c0.8,0,1.5,0.7,1.5,1.5v4.5	C117.4,94.3,116.7,95,115.9,95z"/><path fill="#B7B7B7" d="M89,103.8H58.8c-0.8,0-1.5-0.7-1.5-1.5l0,0c0-0.8,0.7-1.5,1.5-1.5H89c0.8,0,1.5,0.7,1.5,1.5l0,0	C90.6,103.1,89.9,103.8,89,103.8z"/><path fill="#B7B7B7" d="M77.7,110.8H58.8c-0.8,0-1.5-0.7-1.5-1.5v0c0-0.8,0.7-1.5,1.5-1.5h18.9c0.8,0,1.5,0.7,1.5,1.5v0	C79.2,110.1,78.5,110.8,77.7,110.8z"/><path fill="#B7B7B7" d="M83.9,117.8H58.8c-0.8,0-1.5-0.7-1.5-1.5l0,0c0-0.8,0.7-1.5,1.5-1.5h25.1c0.8,0,1.5,0.7,1.5,1.5l0,0	C85.4,117.1,84.7,117.8,83.9,117.8z"/><path fill="#AFAFAF" d="M42,83.6l-21.3-1.8c-0.8-0.1-1.5-0.8-1.4-1.6l0,0c0.1-0.8,0.8-1.5,1.6-1.4l21.3,1.8c0.8,0.1,1.5,0.8,1.4,1.6	v0C43.6,83,42.9,83.6,42,83.6z"/><path fill="#AFAFAF" d="M35.2,90l-14.5-1.2c-0.8-0.1-1.5-0.8-1.4-1.6v0c0.1-0.8,0.8-1.5,1.6-1.4l14.5,1.2c0.8,0.1,1.5,0.8,1.4,1.6v0	C36.8,89.4,36,90,35.2,90z"/><path fill="#AFAFAF" d="M40.2,97.4l-19.4-1.6c-0.8-0.1-1.5-0.8-1.4-1.6v0c0.1-0.8,0.8-1.5,1.6-1.4l19.4,1.6c0.8,0.1,1.5,0.8,1.4,1.6	v0C41.7,96.8,41,97.4,40.2,97.4z"/><path fill="#AFAFAF" d="M128.8,56.7L105.9,59c-0.8,0.1-1.6-0.5-1.7-1.4v0c-0.1-0.8,0.5-1.6,1.4-1.7l22.9-2.4	c0.8-0.1,1.6,0.5,1.7,1.4v0C130.2,55.8,129.6,56.6,128.8,56.7z"/><path fill="#AFAFAF" d="M120.3,64.5L105.9,66c-0.8,0.1-1.6-0.5-1.7-1.4l0,0c-0.1-0.8,0.5-1.6,1.4-1.7l14.4-1.5	c0.8-0.1,1.6,0.5,1.7,1.4v0C121.8,63.7,121.1,64.4,120.3,64.5z"/><path fill="#AFAFAF" d="M125.3,70.9l-19.4,2c-0.8,0.1-1.6-0.5-1.7-1.4l0,0c-0.1-0.8,0.5-1.6,1.4-1.7l19.4-2c0.8-0.1,1.6,0.5,1.7,1.4	l0,0C126.7,70.1,126.1,70.9,125.3,70.9z"/><path fill="#FFFFFF" d="M23.4,36.3c-1,1.8-1.6,4-1.6,6.4c0,6.6,4.8,11.9,10.6,11.9c5.9,0,10.6-5.3,10.6-11.9c0-2.3-0.6-4.5-1.6-6.4	H23.4z"/><rect x="31.3" y="50.2" fill="#FFFFFF" width="2.3" height="16.6"/><path fill="#FFFFFF" d="M38.3,67.1H26.4c-0.6,0-1.1-0.5-1.1-1.1v0c0-0.6,0.5-1.1,1.1-1.1h11.9c0.6,0,1.1,0.5,1.1,1.1v0	C39.4,66.7,38.9,67.1,38.3,67.1z"/><path fill="#963330" d="M23.9,46.9c1.5,3.6,4.7,6.1,8.5,6.1c3.8,0,7-2.5,8.5-6.1H23.9z"/></svg>