<?xml version="1.0" encoding="utf-8"?><!DOCTYPE svg PUBLIC "-//W3C//DTD SVG 1.1//EN" "http://www.w3.org/Graphics/SVG/1.1/DTD/svg11.dtd"><svg version="1.1" id="Layer_1" xmlns="http://www.w3.org/2000/svg" xmlns:xlink="http://www.w3.org/1999/xlink" x="0px" y="0px" width="150px" height="150px" viewBox="0 0 150 150" enable-background="new 0 0 150 150" xml:space="preserve"><path fill="#68331E" d="M25.3,120.9L25.3,120.9c-9.6,0-17.3-7.8-17.3-17.3V85c0-9.6,7.8-17.3,17.3-17.3h0"/><rect x="8" y="91" fill="#68331E" width="17.3" height="29.9"/><path fill="#68331E" d="M108.4,29.5L79.9,58c-3.8,3.8-9.9,3.8-13.7,0l0,0c-3.8-3.8-3.8-9.9,0-13.7l28.5-28.5c3.8-3.8,9.9-3.8,13.7,0	l0,0C112.2,19.6,112.2,25.8,108.4,29.5z"/><circle fill="#68331E" cx="117.4" cy="23.8" r="10.9"/><rect x="21.9" y="79.7" fill="#9B4E2C" width="10.5" height="62"/><path fill="#9B4E2C" d="M87.2,141.6L87.2,141.6c-2.9,0-5.3-2.4-5.3-5.3V89.7c0-2.9,2.4-5.3,5.3-5.3h0c2.9,0,5.3,2.4,5.3,5.3v46.6	C92.4,139.3,90.1,141.6,87.2,141.6z"/><path fill="#9B4E2C" d="M82.1,102.6H44.8c-12.6,0-22.9-10.3-22.9-22.9v0c0-12.6,10.3-22.9,22.9-22.9h37.3C94.7,56.8,105,67,105,79.7	v0C105,92.3,94.7,102.6,82.1,102.6z"/><path fill="#9B4E2C" d="M58.4,90.8L58.4,90.8c-7.4-7.4-7.4-19.3,0-26.7l41.3-41.3c5.4-5.4,14.2-5.4,19.7,0l3.5,3.5	c7.4,7.4,7.4,19.3,0,26.7L85,90.8C77.7,98.2,65.7,98.2,58.4,90.8z"/><path fill="#9B4E2C" d="M117.2,58.2l-16.8-16.8c-5.2-5.2-5.2-13.6,0-18.8l0,0c5.2-5.2,13.6-5.2,18.8,0L136,39.5	c5.2,5.2,5.2,13.6,0,18.8l0,0C130.8,63.4,122.4,63.4,117.2,58.2z"/><path fill="#68331E" d="M136.2,39.7c5.2,5.2,5.2,13.6,0,18.8l0,0c-5.2,5.2-13.6,5.2-18.8,0L136.2,39.7z"/><path fill="#CC998B" d="M78.8,141.6L78.8,141.6c0-4.7,3.8-8.5,8.5-8.5h3.6c4.7,0,8.5,3.8,8.5,8.5l0,0"/><path fill="#CC998B" d="M18.2,141.6L18.2,141.6c0-4.7,3.8-8.5,8.5-8.5h3.6c4.7,0,8.5,3.8,8.5,8.5l0,0"/><path fill="#9B4E2C" d="M33.2,115L33.2,115c-6.2,0-11.3-5.1-11.3-11.3V89.3C21.9,83,27,78,33.2,78h0c6.2,0,11.3,5.1,11.3,11.3v14.4	C44.5,110,39.5,115,33.2,115z"/><path fill="#9B4E2C" d="M115.6,22.7V9.9c0-0.9-1.1-1.4-1.8-0.8L100.6,22c-0.7,0.7-0.2,1.8,0.7,1.8h13.2	C115.1,23.8,115.6,23.3,115.6,22.7z"/><circle fill="#723522" cx="115.7" cy="34.7" r="3.2"/><path fill="#9B4E2C" d="M92.5,119.6H81.8c-2.5,0-4.5-2-4.5-4.5v0c0-2.5,2-4.5,4.5-4.5h10.7c2.5,0,4.5,2,4.5,4.5v0	C97,117.6,95,119.6,92.5,119.6z"/><circle fill="#68331E" cx="138.2" cy="50.2" r="4"/><circle fill="#3D1C13" cx="138.2" cy="50.2" r="2.2"/></svg>