<?xml version="1.0" encoding="utf-8"?><!DOCTYPE svg PUBLIC "-//W3C//DTD SVG 1.1//EN" "http://www.w3.org/Graphics/SVG/1.1/DTD/svg11.dtd"><svg version="1.1" id="Layer_1" xmlns="http://www.w3.org/2000/svg" xmlns:xlink="http://www.w3.org/1999/xlink" x="0px" y="0px" width="150px" height="150px" viewBox="0 0 150 150" enable-background="new 0 0 150 150" xml:space="preserve"><rect x="18.9" y="22.8" fill="#FFFFFF" width="113.1" height="102.6"/><rect x="25.6" y="28.9" fill="#D6D6D6" width="99.7" height="90.3"/><rect x="56.1" y="28.9" fill="#C1C1C1" width="38.9" height="90.3"/><path fill="#C1C1C1" d="M115.5,84.8c-3.2-1.1-6.5-1.9-9.9-2.4l-0.5,3.3c3.2,0.5,6.3,1.3,9.4,2.3L115.5,84.8z"/><path fill="#AAAAAA" d="M75.2,84.7c-3.2,1-6.4,2.4-9.4,3.9l1.5,3c2.9-1.5,5.9-2.7,8.9-3.7L75.2,84.7z"/><path fill="#AAAAAA" d="M95.5,84.9l-0.3-3.4c-3.4,0-6.8,0.3-10.1,0.8l0.5,3.3c3.2-0.5,6.4-0.7,9.6-0.7H95.5z"/><path fill="#7AC70C" d="M25.6,28.9v13.6H38c0,0.3-0.1,0.6-0.1,0.8c0,4,3.2,7.2,7.2,7.2h21.1c4,0,7.2-3.2,7.2-7.2	c0-0.3-0.1-0.6-0.1-0.8h0.5c7.4,0,13.5-6,13.5-13.5v-0.1H25.6z"/><g><path fill="#FFB103" d="M90.7,119.2H80.6c0-30.3-24.7-55-55-55V54C61.5,54,90.7,83.3,90.7,119.2z"/></g><path fill="#36C5F2" d="M93.5,36.6c0,12.9,8.9,23.7,20.9,26.6c-0.2,1-0.3,1.9-0.3,2.9c0,7.5,4.6,14,11.1,16.7V28.9H94.7	C93.9,31.4,93.5,33.9,93.5,36.6z"/><path fill="#7AC70C" d="M54.4,101.9c0.2-0.9,0.4-1.8,0.4-2.8c0-6.6-5.4-12-12-12H27.2c-0.6,0-1.1,0.1-1.6,0.2V111	c0.5,0.1,1.1,0.2,1.6,0.2h6.3c-0.1,0.8-0.2,1.5-0.2,2.3c0,2.1,0.6,4.1,1.5,5.8h26.1c0.9-1.7,1.5-3.7,1.5-5.8	C62.4,108.2,59.1,103.7,54.4,101.9z"/><path fill="#6DAF05" d="M56.1,102.7v16.6h4.8c0.9-1.7,1.5-3.7,1.5-5.8C62.4,108.8,59.8,104.8,56.1,102.7z"/><path fill="#EF8E00" d="M56.1,61.7v11.8c14.8,9.9,24.5,26.7,24.5,45.8h10.1C90.7,94.3,76.7,72.6,56.1,61.7z"/><path fill="#03B2EF" d="M95,28.9h-0.4c-0.7,2.4-1.1,5-1.1,7.7c0,3.1,0.5,6.1,1.5,8.9V28.9z"/><path fill="#6DAF05" d="M56.1,50.5h10.1c4,0,7.2-3.2,7.2-7.2c0-0.3-0.1-0.6-0.1-0.8h0.5c7.4,0,13.5-6,13.5-13.5v-0.1H56.1V50.5z"/><path fill="#C1C1C1" d="M42.8,108.3c-2,2.7-3.8,5.7-5.3,8.7l3,1.5c1.5-2.9,3.2-5.6,5.1-8.2L42.8,108.3z"/><path fill="#C1C1C1" d="M57.1,93.9c-2.7,2-5.3,4.2-7.7,6.6l2.4,2.4c2.3-2.3,4.7-4.4,7.3-6.3L57.1,93.9z"/><path fill="#AAAAAA" d="M56.1,99c1-0.8,2-1.6,3-2.3l-2-2.7c-0.3,0.2-0.7,0.5-1,0.8V99z"/><rect x="56.1" y="119.2" fill="#F4F4F4" width="38.9" height="6.2"/><rect x="56.1" y="22.8" fill="#F4F4F4" width="38.9" height="6.2"/></svg>