<?xml version="1.0" encoding="utf-8"?><!DOCTYPE svg PUBLIC "-//W3C//DTD SVG 1.1//EN" "http://www.w3.org/Graphics/SVG/1.1/DTD/svg11.dtd"><svg version="1.1" id="Layer_1" xmlns="http://www.w3.org/2000/svg" xmlns:xlink="http://www.w3.org/1999/xlink" x="0px" y="0px" width="150px" height="150px" viewBox="0 0 150 150" enable-background="new 0 0 150 150" xml:space="preserve"><path fill="#B5B5B5" d="M88.3,10.2c-2.7,0-4.9,2.2-4.9,4.9v28.3c-0.2,1-1,1.7-2.1,1.7c-1.1,0-2.1-0.9-2.1-2.1v-28	c0-2.7-2.2-4.9-4.9-4.9h0c-2.7,0-4.9,2.2-4.9,4.9v28.1c-0.1,1.1-1,1.9-2.1,1.9c-1.1,0-1.9-0.8-2.1-1.8V15.2c0-2.7-2.2-4.9-4.9-4.9h0	c-2.7,0-4.9,2.2-4.9,4.9v37.9c0,7.6,4.5,14.2,11.1,17.2c1.8,0.8,3,2.5,3,4.5v59.4c0,2.7,2.2,4.9,4.9,4.9h0c2.7,0,4.9-2.2,4.9-4.9	V74.8c0-2,1.2-3.7,3-4.5c6.5-3,11.1-9.6,11.1-17.2V15.2C93.3,12.4,91,10.2,88.3,10.2L88.3,10.2z"/></svg>