<?xml version="1.0" encoding="utf-8"?><!DOCTYPE svg PUBLIC "-//W3C//DTD SVG 1.1//EN" "http://www.w3.org/Graphics/SVG/1.1/DTD/svg11.dtd"><svg version="1.1" id="Layer_1" xmlns="http://www.w3.org/2000/svg" xmlns:xlink="http://www.w3.org/1999/xlink" x="0px" y="0px" width="150px" height="150px" viewBox="0 0 150 150" enable-background="new 0 0 150 150" xml:space="preserve"><path fill="#6BA80C" d="M132.4,120.3h-97c-9.3,0-16.8-7.6-16.8-16.8v0c0-9.3,7.6-16.8,16.8-16.8h97c9.3,0,16.8,7.6,16.8,16.8v0	C149.2,112.7,141.6,120.3,132.4,120.3z"/><circle fill="#61910C" cx="117.7" cy="108.3" r="4.9"/><circle fill="#6BA80C" cx="83.1" cy="87.6" r="3.6"/><circle fill="#6BA80C" cx="125.5" cy="87.6" r="3.6"/><circle fill="#61910C" cx="139" cy="109.3" r="3.6"/><circle fill="#61910C" cx="67.8" cy="109.3" r="3.6"/><circle fill="#61910C" cx="106.7" cy="95.5" r="4.2"/><path fill="none" stroke="#6BA80C" stroke-width="7.3864" stroke-linecap="round" stroke-linejoin="round" stroke-miterlimit="10" d="M91.7,72.7v-13c0-5,4.1-9,9-9h0c5,0,9,4.1,9,9"/><path fill="#F9BD00" d="M83.1,120.4H78c-6,0-11-4.9-11-11V78.6c0-6,4.9-11,11-11h5.1c6,0,11,4.9,11,11v30.8	C94.1,115.4,89.2,120.4,83.1,120.4z"/><path fill="#F9BD00" d="M106.5,120.4h-5.1c-6,0-11-4.9-11-11V78.6c0-6,4.9-11,11-11h5.1c6,0,11,4.9,11,11v30.8	C117.5,115.4,112.5,120.4,106.5,120.4z"/><path fill="#FFCE00" d="M94.2,120.4h-5.1c-6,0-11-4.9-11-11V78.6c0-6,4.9-11,11-11h5.1c6,0,11,4.9,11,11v30.8	C105.2,115.4,100.2,120.4,94.2,120.4z"/><circle fill="#61910C" cx="61.3" cy="111.4" r="2.5"/><g><path fill="#7AC70C" d="M52.3,70.8l0.2,0c1.4-0.3,2.3-1.8,2-3.2l-7-31c-0.3-1.4-1.8-2.3-3.2-2l-0.2,0c-1.4,0.3-2.3,1.8-2,3.2l7,31 C49.4,70.2,50.8,71.1,52.3,70.8z"/><path fill="#FFAA00" d="M31.1,58.8c0.7-1.4,2-2.5,3.5-2.8l27.4-6.2c1.5-0.3,3.2,0,4.4,1s1.9,2.5,1.9,4.1L67.5,115 c0,2.4-1.7,4.4-4,5c-2.3,0.5-4.7-0.6-5.8-2.8L31.2,63.3C30.5,61.9,30.4,60.2,31.1,58.8z"/><path fill="#F49000" d="M55.3,72.1l12.9-2.9l-0.1,5.2l-11.7,2.6c-1.4,0.3-2.7-0.6-3-1.9C53.1,73.8,54,72.5,55.3,72.1z"/><path fill="#F49000" d="M43.6,88.6l9-2c1.4-0.3,2.7,0.6,3,1.9c0.3,1.4-0.6,2.7-1.9,3l-7.8,1.7L43.6,88.6z"/><path fill="#F49000" d="M62.9,101.2l4.8-1.1l-0.1,5.2l-3.6,0.8c-1.4,0.3-2.7-0.6-3-1.9C60.7,102.9,61.5,101.5,62.9,101.2z"/><path fill="#7AC70C" d="M43.9,40.8L43.9,40.8c2.5,1.6,5.8,0.9,7.4-1.6l8.1-12.6c1.6-2.5,0.9-5.8-1.6-7.4l0,0 c-2.5-1.6-5.8-0.9-7.4,1.6l-8.1,12.6C40.7,35.9,41.4,39.2,43.9,40.8z"/><path fill="#7AC70C" d="M47.6,40L47.6,40c-1.6,2.5-4.9,3.3-7.4,1.7l-12.7-8c-2.5-1.6-3.3-4.9-1.7-7.4l0,0c1.6-2.5,4.9-3.3,7.4-1.7 l12.7,8C48.4,34.1,49.2,37.5,47.6,40z"/><path fill="#7AC70C" d="M44.7,36L44.7,36c2.9-0.6,4.7-3.5,4.1-6.4L45.6,15c-0.6-2.9-3.5-4.7-6.4-4.1l0,0c-2.9,0.6-4.7,3.5-4.1,6.4 l3.2,14.6C39,34.8,41.9,36.7,44.7,36z"/></g><circle fill="#CC2F2F" cx="27.4" cy="96.7" r="23.2"/><polygon fill="#88C11A" points="21.5,81.2 20.9,87.5 25.9,89.1 20.9,92.5 21.5,98.6 17.1,95.7 12.6,100.2 13.2,93.9 8.2,92.4 13.3,88.9 12.7,82.9 17.1,85.7"/><circle fill="#FFFFFF" cx="37" cy="86.2" r="3.9"/><line fill="none" stroke="#88C11A" stroke-width="2.9437" stroke-linecap="round" stroke-linejoin="round" stroke-miterlimit="10" x1="17.1" y1="89.6" x2="2.2" y2="85.8"/><circle fill="#FFFFFF" cx="84.8" cy="77.1" r="3.8"/></svg>