<?xml version="1.0" encoding="utf-8"?><!DOCTYPE svg PUBLIC "-//W3C//DTD SVG 1.1//EN" "http://www.w3.org/Graphics/SVG/1.1/DTD/svg11.dtd"><svg version="1.1" xmlns="http://www.w3.org/2000/svg" xmlns:xlink="http://www.w3.org/1999/xlink" x="0px" y="0px" width="150px" height="150px" viewBox="0 0 150 150" enable-background="new 0 0 150 150" xml:space="preserve"><g id="Layer_2" display="none"><rect x="-1530" y="-170" display="inline" fill="#F0F0F0" width="1680" height="1677.3"/></g><g id="Layer_1"><path fill="#CCCCCC" d="M82.3,147.7l-42.9-10.6c-4.1-1-6.5-5.3-5.2-9.3l23.2-73.2l47.4,11.7l-13.6,75.6 C90.5,146,86.4,148.7,82.3,147.7z"/><path fill="#5B4A41" d="M79.4,137.6l-32.5-8.1c-2.4-0.6-3.9-3.1-3.1-5.5l11.5-36.5L94.6,79l-9.9,55.1 C84.2,136.6,81.8,138.2,79.4,137.6z"/><path fill="#9E9E9E" d="M104.8,35.2l-32.8-8.1c-6.5-1.6-13.1,2.4-14.7,8.9L57,37.4c-0.9,3.6-0.1,7.2,1.9,10l-2.1-0.5 c-2-0.5-4,0.7-4.5,2.7l-0.7,3c-0.5,2,0.7,4,2.7,4.5L106.6,70c2,0.5,4-0.7,4.5-2.7l0.7-3c0.5-2-0.7-4-2.7-4.5l-2.1-0.5 c3.1-1.5,5.5-4.3,6.3-7.9l0.4-1.4C115.3,43.4,111.3,36.8,104.8,35.2z"/><circle fill="#5B4A41" cx="81.3" cy="8" r="3.7"/><circle fill="#82695E" cx="91.7" cy="25.2" r="3.7"/><circle fill="#82695E" cx="80.2" cy="106.5" r="3.7"/><circle fill="#82695E" cx="56.7" cy="119.6" r="2.9"/><circle fill="#82695E" cx="64.1" cy="95" r="2.9"/><circle fill="#5B4A41" cx="71.3" cy="74.8" r="3.7"/><circle fill="#5B4A41" cx="108.4" cy="8.8" r="3.7"/></g><g id="Layer_3"/></svg>