<?xml version="1.0" encoding="utf-8"?><!DOCTYPE svg PUBLIC "-//W3C//DTD SVG 1.1//EN" "http://www.w3.org/Graphics/SVG/1.1/DTD/svg11.dtd"><svg version="1.1" id="Layer_1" xmlns="http://www.w3.org/2000/svg" xmlns:xlink="http://www.w3.org/1999/xlink" x="0px" y="0px" width="150px" height="150px" viewBox="0 0 150 150" enable-background="new 0 0 150 150" xml:space="preserve"><path fill="#FFFFFF" d="M24.4,88.6c0-16.6,13.4-30,30-30s30,13.4,30,30"/><path fill="#E0E0E0" d="M21,77.9v29.8c0,5.5,4.5,9.9,9.9,9.9h46.9c5.5,0,9.9-4.5,9.9-9.9V77.9H21z"/><rect x="33.9" y="117.2" fill="#D3D3D3" width="40.9" height="6.1"/><path fill="#FFFFFF" d="M82.3,43.9c5.7-9.7,16.3-16.3,28.3-16.3c12.1,0,22.6,6.5,28.3,16.3H82.3z"/><path fill="#BABABA" d="M143.3,42.5c-7,12.5-20.3,20.9-35.6,20.9S79,55,72.1,42.5H143.3z"/><path fill="#BABABA" d="M13,51h84c2.3,0,4.2-1.9,4.2-4.2v0c0-2.3-1.9-4.2-4.2-4.2H13c-2.3,0-4.2,1.9-4.2,4.2v0	C8.7,49.1,10.6,51,13,51z"/><circle fill="#FFFFFF" cx="96.4" cy="54.6" r="3"/><circle fill="#FFFFFF" cx="104.7" cy="77.9" r="2.8"/><circle fill="#FFFFFF" cx="99.5" cy="70.5" r="2.9"/><circle fill="#FFFFFF" cx="108.6" cy="62.8" r="2"/><circle fill="#FFFFFF" cx="108.6" cy="47.7" r="2"/><circle fill="#FFFFFF" cx="101.2" cy="93.8" r="3.4"/><circle fill="#FFFFFF" cx="99.5" cy="80.6" r="1.6"/></svg>