<?xml version="1.0" encoding="utf-8"?><!DOCTYPE svg PUBLIC "-//W3C//DTD SVG 1.1//EN" "http://www.w3.org/Graphics/SVG/1.1/DTD/svg11.dtd"><svg version="1.1" id="Layer_1" xmlns="http://www.w3.org/2000/svg" xmlns:xlink="http://www.w3.org/1999/xlink" x="0px" y="0px" width="150px" height="150px" viewBox="0 0 150 150" enable-background="new 0 0 150 150" xml:space="preserve"><polygon fill="#F4D590" points="127.1,66.2 74.7,26.4 22.3,66.2 22.3,66.2 74.7,106 127.2,66.2"/><polygon fill="#FFFFFF" points="98,21.9 36.8,21.9 36.8,115.1 114,115.1 114,37.9 98,21.9"/><path fill="#E2E2E2" d="M99.9,88.4H44.3c-0.8,0-1.4-0.6-1.4-1.4l0,0c0-0.8,0.6-1.4,1.4-1.4h55.6c0.8,0,1.4,0.6,1.4,1.4l0,0	C101.3,87.8,100.7,88.4,99.9,88.4z"/><polygon fill="#FFE7AB" points="127.1,128.7 22.3,128.7 22.3,66.2 74.8,96.4 127.1,66.2"/><path fill="#F4D590" d="M74.7,98.8l50.1,29.9h2.3v-1.4L75.3,96.5c-0.1-0.1-0.3-0.1-0.4-0.1l-0.2,0.1l-0.2-0.1	c-0.2,0-0.3,0.1-0.4,0.1l-51.8,30.9v1.4h2.3L74.7,98.8z"/><path fill="#E2E2E2" d="M55.6,32.7H44.3c-0.8,0-1.4-0.6-1.4-1.4v0c0-0.8,0.6-1.4,1.4-1.4h11.3c0.8,0,1.4,0.6,1.4,1.4v0	C56.9,32.1,56.3,32.7,55.6,32.7z"/><path fill="#E2E2E2" d="M57.8,38.9H44.3c-0.8,0-1.4-0.6-1.4-1.4v0c0-0.8,0.6-1.4,1.4-1.4h13.5c0.8,0,1.4,0.6,1.4,1.4v0	C59.1,38.3,58.5,38.9,57.8,38.9z"/><path fill="#E2E2E2" d="M53.5,45.1h-9.2c-0.8,0-1.4-0.6-1.4-1.4v0c0-0.8,0.6-1.4,1.4-1.4h9.2c0.8,0,1.4,0.6,1.4,1.4v0	C54.9,44.5,54.3,45.1,53.5,45.1z"/><path fill="#E2E2E2" d="M63.5,60.6H44.3c-0.8,0-1.4-0.6-1.4-1.4v0c0-0.8,0.6-1.4,1.4-1.4h19.2c0.8,0,1.4,0.6,1.4,1.4v0	C64.9,60,64.3,60.6,63.5,60.6z"/><path fill="#E2E2E2" d="M93.7,67.5H44.3c-0.8,0-1.4-0.6-1.4-1.4v0c0-0.8,0.6-1.4,1.4-1.4h49.4c0.8,0,1.4,0.6,1.4,1.4v0	C95,66.9,94.4,67.5,93.7,67.5z"/><path fill="#E2E2E2" d="M99.9,74.5H44.3c-0.8,0-1.4-0.6-1.4-1.4l0,0c0-0.8,0.6-1.4,1.4-1.4h55.6c0.8,0,1.4,0.6,1.4,1.4l0,0	C101.3,73.9,100.7,74.5,99.9,74.5z"/><polygon fill="#E8E8E8" points="114,38 98,37.9 98,21.9"/><polygon opacity="0.39" fill="#F0F0F0" points="98,37.9 114,52.3 114,38"/></svg>