<?xml version="1.0" encoding="utf-8"?><!DOCTYPE svg PUBLIC "-//W3C//DTD SVG 1.1//EN" "http://www.w3.org/Graphics/SVG/1.1/DTD/svg11.dtd"><svg version="1.1" xmlns="http://www.w3.org/2000/svg" xmlns:xlink="http://www.w3.org/1999/xlink" x="0px" y="0px" width="150px" height="150px" viewBox="0 0 150 150" enable-background="new 0 0 150 150" xml:space="preserve"><g id="Layer_2" display="none"><rect x="-1020" y="-1187.3" display="inline" fill="#F0F0F0" width="1680" height="1677.3"/></g><g id="Layer_1"><path fill="#E0A4BF" d="M142.1,63.5c-1,0-1.7,0.8-1.7,1.7v0.1h-5c-5.3-0.6-9.7-4.3-11.7-9.4c0,0,0,0,0,0c-1.1-3.2-2.7-6.1-4.7-8.7 l6.3-7.3c1.3-1.5,0.2-3.9-1.8-3.9l-25.5,0.1c-0.6,0-1.3-0.1-1.9-0.1H45.5c-7.6,0-14.6,2.9-19.8,7.7c-2.1-1.4-4.6-2.3-7.3-2.3 c-7.1,0-12.8,5.8-12.8,12.8c0,6.4,4.7,11.6,10.7,12.7c0.5,9.5,5.5,17.7,12.9,22.7l4.3,21.8h2.8v-1.3c0-1,0.8-1.8,1.8-1.8 c1,0,1.8,0.8,1.8,1.8v1.3h3.4h5.8l-5.8-9.7v-7.3c0.8,0.1,1.5,0.1,2.3,0.1h30.6h11v16.9h3.2v-1.3c0-1,0.8-1.8,1.8-1.8 c1,0,1.8,0.8,1.8,1.8v1.3h3.9h6.4l-4.7-7.9l1.9-9h26.4v-0.1c7.3-0.6,13-6.7,13-14.2v-0.5c0.3,0.5,0.9,0.9,1.5,0.9 c1,0,1.7-0.8,1.7-1.7V65.2C143.8,64.3,143,63.5,142.1,63.5z M16.9,59.4c-2.2-0.7-3.8-2.7-3.8-5c0-2.9,2.4-5.3,5.3-5.3 c0.9,0,1.7,0.2,2.4,0.6C19,52.6,17.6,55.9,16.9,59.4z"/><circle fill="#C97DA3" cx="113.5" cy="60.8" r="3.3"/></g><g id="Layer_3"/></svg>