<?xml version="1.0" encoding="utf-8"?><!DOCTYPE svg PUBLIC "-//W3C//DTD SVG 1.1//EN" "http://www.w3.org/Graphics/SVG/1.1/DTD/svg11.dtd"><svg version="1.1" id="Layer_1" xmlns="http://www.w3.org/2000/svg" xmlns:xlink="http://www.w3.org/1999/xlink" x="0px" y="0px" width="150px" height="150px" viewBox="0 0 150 150" enable-background="new 0 0 150 150" xml:space="preserve"><path fill="#EDA672" d="M90,80L90,80c-2.5,0-4.5-2-4.5-4.5V30.8c0-2.5,2-4.5,4.5-4.5h0c2.5,0,4.5,2,4.5,4.5v44.7	C94.5,78,92.5,80,90,80z"/><path fill="#EDA672" d="M93.1,33.8L93.1,33.8c-1.8,1.8-4.7,1.8-6.5,0L69,16.2c-1.8-1.8-1.8-4.7,0-6.5l0,0c1.8-1.8,4.7-1.8,6.5,0	l17.6,17.6C94.9,29,94.9,32,93.1,33.8z"/><polygon fill="#CC2F2F" points="28.9,141 73.5,72.4 118,141"/><path fill="#CC2F2F" d="M79.6,118.4h-0.4c-8.2,0-14.8-6.7-14.8-14.8V71.2c0-8.2,6.7-14.8,14.8-14.8h0.4c8.2,0,14.8,6.7,14.8,14.8	v32.4C94.5,111.8,87.8,118.4,79.6,118.4z"/><path fill="#F7B37C" d="M66.6,64.1L66.6,64.1c2.1-2.1,5.4-2.1,7.5,0l15.1,15.1c2.1,2.1,2.1,5.4,0,7.5l0,0c-2.1,2.1-5.4,2.1-7.5,0	L66.6,71.5C64.5,69.5,64.5,66.1,66.6,64.1z"/><path fill="#F7B37C" d="M81.1,83.8L81.1,83.8c0-2.4,1.9-4.3,4.3-4.3h13.2c2.4,0,4.3,1.9,4.3,4.3v0c0,2.4-1.9,4.3-4.3,4.3H85.5	C83.1,88.1,81.1,86.2,81.1,83.8z"/><circle fill="#3A2616" cx="87.3" cy="34.1" r="6.6"/><path fill="#47301A" d="M84.9,48.3c-0.9-0.8-1.8-1.8-2.3-2.9c-0.9-2.1-2.4-3.9-4.4-4.6c-0.9-1.8-2.5-3.2-4.3-3.7	c-1.5-0.4-2.9-0.3-4.1,0.2c1.7-3.2,5.1-5.5,9-5.5c5.6,0,10.2,4.6,10.2,10.2v5.3C87.6,47.3,86.2,47.6,84.9,48.3z"/><path fill="#F7B37C" d="M78.8,60.7c-5.6,0-10.2-4.6-10.2-10.2v-8.5c0-1.9,0.5-3.7,1.5-5.2c1.7-0.8,3.6-1.3,5.7-1.3	c7.3,0,13.2,6,13.2,13.2v1.8C89,56.1,84.4,60.7,78.8,60.7z"/></svg>