<?xml version="1.0" encoding="utf-8"?><!DOCTYPE svg PUBLIC "-//W3C//DTD SVG 1.1//EN" "http://www.w3.org/Graphics/SVG/1.1/DTD/svg11.dtd"><svg version="1.1" id="Layer_1" xmlns="http://www.w3.org/2000/svg" xmlns:xlink="http://www.w3.org/1999/xlink" x="0px" y="0px" width="150px" height="150px" viewBox="0 0 150 150" enable-background="new 0 0 150 150" xml:space="preserve"><path fill="#FFFFFF" d="M109.2,4.8H56.8c-0.3,0-0.5,0-0.7,0c9.4,0.4,17,8.2,17,17.7v0c0,9.5-7.6,17.3-17,17.7c0.3,0,0.5,0,0.7,0	H40.4c-9.7,0-17.7,8-17.7,17.7v0c0,9.7,8,17.7,17.7,17.7h68.8c0.3,0,0.5,0,0.7,0c-9.4-0.4-17-8.2-17-17.7v0c0-9.5,7.6-17.3,17-17.7	c-0.3,0-0.5,0-0.7,0h0c9.7,0,17.7-8,17.7-17.7v0C126.9,12.8,118.9,4.8,109.2,4.8z"/><g><path fill="#77AA09" d="M54.9,94.8c-4.7-2-10-0.6-13.2,3.1c-0.4,4.9,2.2,9.6,7,11.6c4.7,2,10,0.6,13.2-3.1 C62.4,101.6,59.7,96.8,54.9,94.8z"/><path fill="#77AA09" d="M86.8,105.4c-4.7-2-10-0.6-13.2,3.1c-0.4,4.9,2.2,9.6,7,11.6c4.7,2,10,0.6,13.2-3.1 C94.2,112.2,91.5,107.4,86.8,105.4z"/></g><path fill="#36A8E0" d="M120.4,82.6c0,28.3-22.9,51.2-51.2,51.2s-51.2-22.9-51.2-51.2"/><path fill="#FFFFFF" d="M81.1,106.7l-2.7-1.6l2.6-1.8c2.2-1.6,2.8-4.7,1.2-7c-1.6-2.2-4.7-2.8-7-1.2l-0.8,0.6v-1c0-2.7-2.2-5-5-5	s-5,2.2-5,5v1.8l-1.5-0.9c-2.3-1.4-5.4-0.7-6.9,1.7l0,0c-1.4,2.3-0.7,5.4,1.7,6.9l2.7,1.6l-2.6,1.8c-2.2,1.6-2.8,4.7-1.2,7v0	c1.6,2.2,4.7,2.8,7,1.2l0.8-0.6v1c0,2.7,2.2,5,5,5s5-2.2,5-5v-1.8l1.5,0.9c2.3,1.4,5.4,0.7,6.9-1.7l0,0	C84.2,111.2,83.4,108.1,81.1,106.7z M69.4,105.4C69.4,105.4,69.3,105.4,69.4,105.4C69.3,105.4,69.3,105.4,69.4,105.4	C69.3,105.4,69.3,105.4,69.4,105.4C69.3,105.3,69.3,105.3,69.4,105.4c0-0.1,0-0.1,0-0.1c0,0,0,0,0,0c0,0,0,0,0,0c0,0,0,0,0,0	C69.4,105.3,69.4,105.3,69.4,105.4C69.4,105.4,69.4,105.4,69.4,105.4C69.4,105.4,69.4,105.4,69.4,105.4	C69.4,105.4,69.4,105.4,69.4,105.4z"/><g><path fill="#36A8E0" d="M126.6,119.9c-2.3,0-4.3-1.9-4.3-4.3s1.9-4.3,4.3-4.3c5.3,0,9.6-4.3,9.6-9.6c0-5.3-4.3-9.6-9.6-9.6H95.8 c-2.3,0-4.3-1.9-4.3-4.3s1.9-4.3,4.3-4.3h30.8c10,0,18.1,8.1,18.1,18.1C144.7,111.8,136.6,119.9,126.6,119.9z"/></g><circle fill="#F4B80F" cx="69.4" cy="105.3" r="5.1"/><path fill="#F4B80F" d="M13.5,126.4c16.8,10.1,36.4,16,57.5,16s40.7-5.8,57.5-16H13.5z"/><path fill="#E8AA10" d="M90.5,145.4H50.5c-1.4,0-2.6-1.2-2.6-2.6v-1.6c0-1.4,1.2-2.6,2.6-2.6h40.1c1.4,0,2.6,1.2,2.6,2.6v1.6	C93.1,144.2,91.9,145.4,90.5,145.4z"/><path fill="#F4B80F" d="M121.5,83.6H17.8c-1.9,0-3.5-1.6-3.5-3.5v-0.9c0-1.9,1.6-3.5,3.5-3.5h103.7c1.9,0,3.5,1.6,3.5,3.5v0.9	C125,82,123.4,83.6,121.5,83.6z"/><path fill="#FFFFFF" d="M25.8,110.5h-0.4c-0.8,0-1.5-0.7-1.5-1.5V74.8c0-0.8,0.7-1.5,1.5-1.5h0.4c0.8,0,1.5,0.7,1.5,1.5V109	C27.3,109.8,26.6,110.5,25.8,110.5z"/><path fill="#267696" d="M31.3,117.6H19.9c-1.6,0-2.9-1.3-2.9-2.9v-13.8c0-1.6,1.3-2.9,2.9-2.9h11.5c1.6,0,2.9,1.3,2.9,2.9v13.8	C34.3,116.3,33,117.6,31.3,117.6z"/></svg>