<?xml version="1.0" encoding="utf-8"?><!DOCTYPE svg PUBLIC "-//W3C//DTD SVG 1.1//EN" "http://www.w3.org/Graphics/SVG/1.1/DTD/svg11.dtd"><svg version="1.1" id="Layer_1" xmlns="http://www.w3.org/2000/svg" xmlns:xlink="http://www.w3.org/1999/xlink" x="0px" y="0px" width="150px" height="150px" viewBox="0 0 150 150" enable-background="new 0 0 150 150" xml:space="preserve"><path fill="#B5B5B5" d="M120.3,83.1l-77.4,28.5c-4,1.5-8.4-0.6-9.9-4.6L16.5,62.2c-1.5-4,0.6-8.4,4.6-9.9l77.4-28.5	c4-1.5,8.4,0.6,9.9,4.6l16.5,44.8C126.4,77.2,124.3,81.6,120.3,83.1z"/><rect x="15.9" y="46.1" transform="matrix(0.9384 -0.3456 0.3456 0.9384 -13.9179 25.6054)" fill="#231F20" width="97.9" height="11.5"/><rect x="28.2" y="62.5" transform="matrix(0.9384 -0.3456 0.3456 0.9384 -19.6051 28.8048)" fill="#FFFFFF" width="85.5" height="13.9"/><path fill="#1CB0F6" d="M123.4,122.1H40.9c-4.3,0-7.7-3.5-7.7-7.7V66.6c0-4.3,3.5-7.7,7.7-7.7h82.5c4.3,0,7.7,3.5,7.7,7.7v47.7	C131.1,118.7,127.6,122.1,123.4,122.1z"/><path fill="#73D7FF" d="M42.9,70.7h44.2c1.5,0,2.6-1.2,2.6-2.6l0,0c0-1.5-1.2-2.6-2.6-2.6H42.9c-1.5,0-2.6,1.2-2.6,2.6l0,0	C40.2,69.5,41.4,70.7,42.9,70.7z"/><path fill="#CECECE" d="M120.7,116h-16.2c-2.8,0-5.1-2.3-5.1-5.1v-11c0-2.8,2.3-5.1,5.1-5.1h16.2c2.8,0,5.1,2.3,5.1,5.1v11	C125.8,113.7,123.5,116,120.7,116z"/><path fill="#73D7FF" d="M42.9,114h16.9c1.5,0,2.6-1.2,2.6-2.6v0c0-1.5-1.2-2.6-2.6-2.6H42.9c-1.5,0-2.6,1.2-2.6,2.6v0	C40.2,112.8,41.4,114,42.9,114z"/><path fill="#73D7FF" d="M69,114h16.9c1.5,0,2.6-1.2,2.6-2.6v0c0-1.5-1.2-2.6-2.6-2.6H69c-1.5,0-2.6,1.2-2.6,2.6v0	C66.3,112.8,67.5,114,69,114z"/><path fill="#FFD400" d="M55.9,104.5H44c-2.1,0-3.8-1.7-3.8-3.8v-6.2c0-2.1,1.7-3.8,3.8-3.8h11.9c2.1,0,3.8,1.7,3.8,3.8v6.2	C59.7,102.8,58,104.5,55.9,104.5z"/><circle fill="#CC2F2F" cx="109.2" cy="105.1" r="6.4"/><circle fill="#FFD400" cx="117.3" cy="105.1" r="6.4"/></svg>