<?xml version="1.0" encoding="utf-8"?><!DOCTYPE svg PUBLIC "-//W3C//DTD SVG 1.1//EN" "http://www.w3.org/Graphics/SVG/1.1/DTD/svg11.dtd"><svg version="1.1" xmlns="http://www.w3.org/2000/svg" xmlns:xlink="http://www.w3.org/1999/xlink" x="0px" y="0px" width="150px" height="150px" viewBox="0 0 150 150" enable-background="new 0 0 150 150" xml:space="preserve"><g id="Layer_2" display="none"><rect x="-170" y="-680" display="inline" fill="#F0F0F0" width="1680" height="1677.3"/></g><g id="Layer_1"><path fill="#C41E1E" d="M115.4,101.2c-7.4,0-14.8-0.4-22.2-0.9c-8.3-0.5-16.8-0.4-25.1-1.4c-1.5-0.2-2.6-0.8-3.6-1.6 c-13.5,7.8-22.5,22.4-22.5,39.1V149h90.3v-12.5C132.4,122.2,125.8,109.5,115.4,101.2z"/><polygon fill="#A31A1A" points="106.9,149 132.1,93.8 43.2,93.8 68.4,149"/><path fill="#2B1714" d="M120,83.7H54.4c-2.6,0-4.7-2.1-4.7-4.7V35.4C49.7,15.9,65.5,0.2,85,0.2h4.4c19.5,0,35.3,15.8,35.3,35.3V79 C124.6,81.6,122.5,83.7,120,83.7z"/><rect x="82.3" y="107.5" fill="#C41E1E" width="9.7" height="41.5"/><polygon fill="#231F20" points="98.5,102.7 87.2,136.2 76,102.7"/><circle fill="#672B21" cx="118.9" cy="54.3" r="7.4"/><circle fill="#672B21" cx="55.5" cy="54.3" r="7.4"/><path fill="#672B21" d="M87.2,110.1L87.2,110.1c-6.8,0-12.2-5.5-12.2-12.2V83.2C75,76.4,80.5,71,87.2,71h0 c6.8,0,12.2,5.5,12.2,12.2v14.7C99.5,104.6,94,110.1,87.2,110.1z"/><path fill="#783F30" d="M119,35v26.8c0,17.6-14.2,31.8-31.8,31.8h0c-17.6,0-31.8-14.2-31.8-31.8V35"/><g><path fill="#612C23" d="M74.2,48.9c-0.6,0-1-0.4-1-1c0-1.6-1.3-3-3-3s-3,1.3-3,3c0,0.6-0.4,1-1,1s-1-0.4-1-1c0-2.8,2.2-5,5-5 s5,2.2,5,5C75.2,48.4,74.8,48.9,74.2,48.9z"/></g><g><path fill="#612C23" d="M108.2,48.9c-0.6,0-1-0.4-1-1c0-1.6-1.3-3-3-3s-3,1.3-3,3c0,0.6-0.4,1-1,1s-1-0.4-1-1c0-2.8,2.2-5,5-5 s5,2.2,5,5C109.2,48.4,108.8,48.9,108.2,48.9z"/></g><path fill="#672B21" d="M91,57.3h-7.6c-0.8,0-1.5-0.7-1.5-1.5V44.4c0-0.8,0.7-1.5,1.5-1.5H91c0.8,0,1.5,0.7,1.5,1.5v11.5 C92.5,56.7,91.8,57.3,91,57.3z"/><path fill="#3A0D0D" d="M103.7,62.2c0,9.1-7.4,16.5-16.5,16.5s-16.5-7.4-16.5-16.5"/><path fill="#FFFFFF" d="M71.6,67.5h31.2c0.6-1.7,0.9-3.4,0.9-5.3H70.7C70.7,64,71,65.8,71.6,67.5z"/><path fill="#571413" d="M96.8,75.6c-2.2-2.8-5.7-4.6-9.5-4.6h0c-3.9,0-7.3,1.8-9.6,4.6c2.7,1.9,6,3.1,9.5,3.1 C90.8,78.7,94.1,77.5,96.8,75.6z"/><path fill="#672B21" d="M43,149v-26.5c0-6.2-5-11.2-11.2-11.2h0c-6.2,0-11.2,5-11.2,11.2V149"/><line fill="none" stroke="#212121" stroke-width="5" stroke-miterlimit="10" x1="28.9" y1="85.1" x2="28.9" y2="149"/><path fill="#783F30" d="M39.8,128.3L39.8,128.3c2.9,0,5.2-2.3,5.2-5.2v-13.9c0-2.9-2.3-5.2-5.2-5.2h0c-2.9,0-5.2,2.3-5.2,5.2v13.9 C34.6,126,36.9,128.3,39.8,128.3z"/><path fill="#783F30" d="M30,118.6H19.9c-3,0-5.5-2.5-5.5-5.5v0c0-3,2.5-5.5,5.5-5.5H30c3,0,5.5,2.5,5.5,5.5v0 C35.6,116.1,33.1,118.6,30,118.6z"/><path fill="#783F30" d="M30,129.2H19.9c-3,0-5.5-2.5-5.5-5.5v0c0-3,2.5-5.5,5.5-5.5H30c3,0,5.5,2.5,5.5,5.5v0 C35.6,126.7,33.1,129.2,30,129.2z"/><path fill="#783F30" d="M30,139.8H19.9c-3,0-5.5-2.5-5.5-5.5l0,0c0-3,2.5-5.5,5.5-5.5H30c3,0,5.5,2.5,5.5,5.5l0,0 C35.6,137.3,33.1,139.8,30,139.8z"/><path fill="none" stroke="#2B1714" stroke-width="3.9913" stroke-linecap="round" stroke-linejoin="round" stroke-miterlimit="10" d="M114.3,25.3c-3,1.7-5,5-5,8.6s2,6.9,5,8.6"/><circle fill="#545454" cx="40.4" cy="70.8" r="9.4"/><g><polygon fill="#231F20" points="106.9,149 123.4,112.9 131.9,93.8 123.2,93.8 98.7,149"/><polygon fill="#231F20" points="68.4,149 76.6,149 52,93.8 43.3,93.8 49.2,106.9"/></g><path fill="#2B2B2B" d="M38.2,79.8l-21.7,21.7c-0.6,0.6-1.6,0.6-2.2,0l-4.7-4.7c-0.6-0.6-0.6-1.6,0-2.2l21.7-21.7"/><rect x="30.5" y="68.6" transform="matrix(0.7071 0.7071 -0.7071 0.7071 61.869 -7.8948)" fill="#757575" width="19.9" height="4.2"/><rect x="28.6" y="76" transform="matrix(0.7071 0.7071 -0.7071 0.7071 64.5228 -1.4772)" fill="#757575" width="10.9" height="2.4"/></g><g id="Layer_3"/></svg>