<?xml version="1.0" encoding="utf-8"?><!DOCTYPE svg PUBLIC "-//W3C//DTD SVG 1.1//EN" "http://www.w3.org/Graphics/SVG/1.1/DTD/svg11.dtd"><svg version="1.1" id="Layer_1" xmlns="http://www.w3.org/2000/svg" xmlns:xlink="http://www.w3.org/1999/xlink" x="0px" y="0px" width="150px" height="150px" viewBox="0 0 150 150" enable-background="new 0 0 150 150" xml:space="preserve"><linearGradient id="SVGID_1_" gradientUnits="userSpaceOnUse" x1="74.75" y1="141.1047" x2="74.75" y2="7.6453"><stop offset="0.486" style="stop-color:#9FF4FF"/><stop offset="1" style="stop-color:#37D6ED"/></linearGradient><path fill="url(#SVGID_1_)" d="M129.4,141.1H20.1C13.4,141.1,8,135.7,8,129V19.7C8,13,13.4,7.6,20.1,7.6h109.3	c6.7,0,12.1,5.4,12.1,12.1V129C141.5,135.7,136.1,141.1,129.4,141.1z"/><path fill="#009CF2" d="M20.1,141.1h109.3c6.5,0,11.8-5.1,12-11.6V33c-2.1-1.3-4-2.9-5.5-4.9c-3.4,4.6-8.9,7.5-15,7.5	c-6.2,0-11.8-3.1-15.2-7.7h-0.7c-3.4,4.7-8.9,7.7-15.2,7.7c-6.1,0-11.6-3-15-7.5c-2.4,3.2-5.8,5.6-9.8,6.8v-0.1	c-1.7,0.5-3.5,0.8-5.4,0.8c-6.2,0-11.6-3.1-15-7.7h-0.7c-3.3,4.6-8.7,7.6-14.8,7.7c-6.1-0.1-11.5-3.1-14.8-7.7h-0.7	c-1.6,2.2-3.6,4-5.9,5.3V129C8,135.7,13.4,141.1,20.1,141.1z"/><line fill="none" stroke="#0083D3" stroke-width="4" stroke-linecap="round" stroke-linejoin="round" stroke-miterlimit="10" x1="34.4" y1="42.5" x2="34.4" y2="120.5"/><polyline fill="none" stroke="#0083D3" stroke-width="4" stroke-linecap="round" stroke-linejoin="round" stroke-miterlimit="10" points="25.6,50 34.4,41.2 43.3,50"/><polyline fill="none" stroke="#0083D3" stroke-width="4" stroke-linecap="round" stroke-linejoin="round" stroke-miterlimit="10" points="25.6,115.2 34.4,124 43.3,115.2"/><path fill="#A5FF5F" d="M112.8,72.5h-5c-3.6,0-6.5-2.9-6.5-6.5v0c0-3.6,2.9-6.5,6.5-6.5h5c3.6,0,6.5,2.9,6.5,6.5v0	C119.3,69.6,116.4,72.5,112.8,72.5z"/><polygon fill="#A5FF5F" points="125,73.7 116.9,66 125,58.2"/><path fill="#5FFFEC" d="M88.1,101h5c3.6,0,6.5-2.9,6.5-6.5v0c0-3.6-2.9-6.5-6.5-6.5h-5c-3.6,0-6.5,2.9-6.5,6.5v0	C81.5,98.1,84.5,101,88.1,101z"/><polygon fill="#5FFFEC" points="75.9,102.3 83.9,94.5 75.9,86.8"/><path fill="#FFCE00" d="M8.1,129.6c0.3,6.4,5.6,11.5,12,11.5h109.3c6.5,0,11.7-5.1,12-11.5H8.1z"/></svg>