<?xml version="1.0" encoding="utf-8"?><!DOCTYPE svg PUBLIC "-//W3C//DTD SVG 1.1//EN" "http://www.w3.org/Graphics/SVG/1.1/DTD/svg11.dtd"><svg version="1.1" xmlns="http://www.w3.org/2000/svg" xmlns:xlink="http://www.w3.org/1999/xlink" x="0px" y="0px" width="150px" height="150px" viewBox="0 0 150 150" enable-background="new 0 0 150 150" xml:space="preserve"><g id="Layer_2" display="none"><rect x="-510" y="-1017.3" display="inline" fill="#F0F0F0" width="1680" height="1677.3"/></g><g id="Layer_1"/><g id="Layer_3"><path fill="#686560" d="M130.2,22.5V6.9c-2.8-1.7-6.5-1.4-8.9,1.1l-10.2,10.2c-2.1-0.7-4.4-1-6.7-1c-6.5,0-12.4,2.9-16.5,7.4 L75.2,37.2l0,0l-3.7,3.7c2.9,2.9,6.9,3.9,10.6,3.2v30.7l-31.4,31.4c-8.7,8.7-8.7,22.8,0,31.5h0c1.9,1.9,4,3.3,6.3,4.4 c0.1-0.2,0.1-0.3,0.2-0.5c1.8-3.5,7-4.8,10.3-2.7c2,1.3,3.9,2.7,5.7,4.2c3.3-1,6.4-2.8,9-5.4l37.8-37.8c0.6-0.6,1.1-1.1,1.6-1.7 c0.1-0.1,0.2-0.3,0.3-0.4c0.4-0.5,0.7-0.9,1-1.4c0.1-0.1,0.2-0.3,0.2-0.4c0.3-0.5,0.6-1,0.9-1.5c0,0,0-0.1,0.1-0.1 c1.6-3.1,2.5-6.5,2.5-10.2V35.9L138,24.6c0.6-0.6,1.1-1.3,1.4-2.1H130.2z"/><path fill="#7A766F" d="M113.6,144.1L113.6,144.1c-3.6,0-6.5-2.9-6.5-6.5V99.1c0-3.6,2.9-6.5,6.5-6.5h0c3.6,0,6.5,2.9,6.5,6.5v38.5 C120.2,141.1,117.2,144.1,113.6,144.1z"/><path fill="#7A766F" d="M114,144.1L114,144.1c0-4.7,3.9-8.6,8.6-8.6h1c4.7,0,8.6,3.9,8.6,8.6v0"/><path fill="#FFFFFF" d="M134,23.3v-2.7c0-0.7,0.5-1.2,1.2-1.2l0,0c0.7,0,1.2,0.5,1.2,1.2v2.7"/><path fill="#7A766F" d="M10,144.1L10,144.1c0-8.2,6.7-14.9,14.9-14.9h26.5c8.2,0,14.9,6.7,14.9,14.9v0"/><path fill="#7A766F" d="M66,144.1L66,144.1c0-4.7,3.9-8.6,8.6-8.6h16.3c4.7,0,8.6,3.9,8.6,8.6v0"/><path fill="#7A766F" d="M89.4,107.9L89.4,107.9c-6.2-6.2-16.4-6.2-22.6,0l-21.3,21.3c1.1,3.1,2.8,5.9,5.2,8.4h0 c8.7,8.7,22.8,8.7,31.5,0l7.9-7.9C95.6,123.4,95.4,113.8,89.4,107.9z"/><path fill="#87847F" d="M130.2,18.5v-5.6V6.9c-2.8-1.7-6.5-1.4-8.9,1.1l-10.2,10.2c-2.1-0.7-4.4-1-6.7-1c-1.8,0-3.6,0.2-5.4,0.7 v8.8c0,9.8,6.9,18.1,16.1,20.2v0c6.3,1.4,11.1,6.9,11.6,13.5V44v-4.7v-3.5L138,24.6c0.6-0.6,1.1-1.3,1.4-2.1h-9.2V18.5z"/><path opacity="0.48" fill="#2D2D2D" d="M109.4,23.8l-2.4,2.4c-0.6,0.6-1.5,0.6-2.1,0v0c-0.6-0.6-0.6-1.5,0-2.1l2.4-2.4 c0.6-0.6,1.5-0.6,2.1,0v0C110,22.3,110,23.2,109.4,23.8z"/><path fill="#7A766F" d="M107.1,99v13.8l13-13c0.6-0.6,1.1-1.1,1.6-1.7c0.1-0.1,0.2-0.3,0.3-0.4c0.4-0.5,0.7-0.9,1-1.4 c0.1-0.1,0.2-0.3,0.2-0.4c0.3-0.5,0.6-1,0.9-1.5c0,0,0-0.1,0.1-0.1c1.6-3.1,2.5-6.5,2.5-10.2V71.2C115.3,75.3,107.1,86.2,107.1,99z"/></g></svg>