<?xml version="1.0" encoding="utf-8"?><!DOCTYPE svg PUBLIC "-//W3C//DTD SVG 1.1//EN" "http://www.w3.org/Graphics/SVG/1.1/DTD/svg11.dtd"><svg version="1.1" id="Layer_1" xmlns="http://www.w3.org/2000/svg" xmlns:xlink="http://www.w3.org/1999/xlink" x="0px" y="0px" width="150px" height="150px" viewBox="0 0 150 150" enable-background="new 0 0 150 150" xml:space="preserve"><path fill="#74B70B" d="M53.5,82.7L53.5,82.7c0,7-5.7,12.7-12.7,12.7H13.2c-7,0-12.7-5.7-12.7-12.7v0"/><path fill="#74B70B" d="M34.3,106.5L34.3,106.5c-4.4,0-7.9-3.6-7.9-7.9V82c0-4.4,3.6-7.9,7.9-7.9h0c4.4,0,7.9,3.6,7.9,7.9l0,16.5	C42.2,102.9,38.7,106.5,34.3,106.5z"/><path fill="#74B70B" d="M95.5,92.3L95.5,92.3c-3.9-3.9-3.9-10.3,0-14.2l17-17c3.9-3.9,10.3-3.9,14.2,0l0,0c3.9,3.9,3.9,10.3,0,14.2	l-17,17C105.8,96.2,99.4,96.2,95.5,92.3z"/><path fill="#74B70B" d="M87.8,109L87.8,109c-4.4,0-7.9-3.6-7.9-7.9V88.8c0-4.4,3.6-7.9,7.9-7.9h0c4.4,0,7.9,3.6,7.9,7.9V101	C95.8,105.4,92.2,109,87.8,109z"/><path fill="#B58148" d="M19.3,95.2V82c0-23.2,18.8-42,42-42h0c23.2,0,42,18.8,42,42v13.2"/><path fill="#A36E3A" d="M103.2,95.2H19.3c-3.5,0-6.3-2.8-6.3-6.3v0c0-3.5,2.8-6.3,6.3-6.3h83.9c3.5,0,6.3,2.8,6.3,6.3v0	C109.5,92.4,106.7,95.2,103.2,95.2z"/><path fill="#A36E3A" d="M54,46.3c-14.3,2.2-25.6,13.5-27.8,27.8c-0.4,2.7,1.7,5.1,4.4,5.1h24c2.5,0,4.5-2,4.5-4.5v-24	C59.1,48.1,56.7,45.9,54,46.3z"/><path fill="#A36E3A" d="M68.5,46.3c14.3,2.2,25.6,13.5,27.8,27.8c0.4,2.7-1.7,5.1-4.4,5.1h-24c-2.5,0-4.5-2-4.5-4.5v-24	C63.4,48.1,65.8,45.9,68.5,46.3z"/><path fill="#74B70B" d="M128.6,84.5h-11.4c-7.7,0-13.9-6.2-13.9-13.9v0c0-7.7,6.2-13.9,13.9-13.9h11.4c7.7,0,13.9,6.2,13.9,13.9v0	C142.5,78.2,136.3,84.5,128.6,84.5z"/><path fill="#74B70B" d="M103.3,77.6v-11c0-6.6,5.4-12,12-12h20.6c6.8,0,12.3,5.5,12.3,12.3v10.7"/><circle fill="#679B0B" cx="133.8" cy="63.9" r="3.7"/></svg>