<?xml version="1.0" encoding="utf-8"?><!DOCTYPE svg PUBLIC "-//W3C//DTD SVG 1.1//EN" "http://www.w3.org/Graphics/SVG/1.1/DTD/svg11.dtd"><svg version="1.1" id="Layer_1" xmlns="http://www.w3.org/2000/svg" xmlns:xlink="http://www.w3.org/1999/xlink" x="0px" y="0px" width="150px" height="150px" viewBox="0 0 150 150" enable-background="new 0 0 150 150" xml:space="preserve"><path fill="#844631" d="M89.2,35.8H17.5c-9,0-16.3,7.3-16.3,16.3c0,8.2,6,15,14,16.1V114H92V68.1c7.7-1.3,13.5-8.1,13.5-16	C105.5,43.1,98.2,35.8,89.2,35.8z"/><g><path fill="#EFCAAF" d="M68.5,112V64.6l-1.9-0.1c-7.1-0.4-12.6-6.3-12.6-13.3c0-7.4,6-13.4,13.4-13.4h65.5c7.4,0,13.4,6,13.4,13.4 c0,6.8-5.3,12.7-12.2,13.3l-1.9,0.2V112H68.5z"/><path fill="#995F45" d="M132.7,39.9c6.2,0,11.3,5.1,11.3,11.3c0,5.8-4.5,10.7-10.3,11.3l-3.7,0.3v3.8v43.3H70.5V66.6v-3.9l-3.9-0.2 c-6-0.3-10.7-5.3-10.7-11.3c0-6.2,5.1-11.3,11.3-11.3H132.7 M132.7,35.8H67.3c-8.5,0-15.4,6.9-15.4,15.4c0,8.2,6.5,14.9,14.5,15.4 V114h67.7V66.5c7.8-0.7,14-7.3,14-15.4C148.2,42.7,141.2,35.8,132.7,35.8L132.7,35.8z"/></g><circle fill="#EDB48E" cx="87.3" cy="58.5" r="4"/><circle fill="#EDB48E" cx="117.1" cy="73.7" r="4.3"/><circle fill="#EDB48E" cx="125.8" cy="81.6" r="3.1"/><circle fill="#EDB48E" cx="91.8" cy="97.2" r="4"/><circle fill="#EDB48E" cx="130" cy="46.6" r="3.1"/><rect x="15.3" y="66.7" fill="#723A2B" width="51.1" height="10.2"/></svg>