<?xml version="1.0" encoding="utf-8"?><!DOCTYPE svg PUBLIC "-//W3C//DTD SVG 1.1//EN" "http://www.w3.org/Graphics/SVG/1.1/DTD/svg11.dtd"><svg version="1.1" id="Layer_1" xmlns="http://www.w3.org/2000/svg" xmlns:xlink="http://www.w3.org/1999/xlink" x="0px" y="0px" width="150px" height="150px" viewBox="0 0 150 150" enable-background="new 0 0 150 150" xml:space="preserve"><polygon fill="#75AF0E" points="106.2,52.9 106.2,50.5 95.2,53.6 82.3,60.1 73.9,75.6 73.2,78.6 73.9,79.2 88.4,78.2 100.7,64.9"/><path fill="#7AC70C" d="M73.9,93.4L73.9,93.4c-0.8,0-1.5-0.7-1.5-1.5V24.2c0-0.8,0.7-1.5,1.5-1.5l0,0c0.8,0,1.5,0.7,1.5,1.5v67.7	C75.5,92.7,74.8,93.4,73.9,93.4z"/><polygon fill="#BF4D00" points="102.2,139.8 48.4,139.8 44.4,106.7 106.2,106.7"/><rect x="38.2" y="86.9" fill="#CC5200" width="74.1" height="20.6"/><polygon fill="#75AF0E" points="94.1,24.7 95.2,25.6 89,41 73.6,45.7 73.2,43.8 78.8,32.2 90,25.7"/><path fill="#75AF0E" d="M72.6,79.2c8.8,3.1,18.6,1.9,25.8-4.1c7.2-6,10.1-15.4,8.7-24.6L72.6,79.2z"/><polygon fill="#75AF0E" points="56,11.1 70.6,17.2 75.4,29.6 68.7,30.4 57.4,20.9 54.6,13.4"/><polygon fill="#75AF0E" points="48.2,37 47.3,37.9 48.8,44.4 58.8,59.4 74.4,61 74.4,59.2 70.9,50.5 60.8,40.6 53,37"/><path fill="#7AC70C" d="M107.1,50.5c-8.8-3.1-18.6-1.9-25.8,4.1c-7.2,6-10.1,15.4-8.7,24.6L107.1,50.5z"/><path fill="#75AF0E" d="M72.8,45.7c6.2,1.8,12.8,0.6,17.5-3.8s6.3-10.9,5-17.2L72.8,45.7z"/><path fill="#7AC70C" d="M95.2,24.7c-6.2-1.8-12.8-0.6-17.5,3.8c-4.7,4.4-6.3,10.9-5,17.2L95.2,24.7z"/><path fill="#75AF0E" d="M75.5,30.4c1.3-5.8-0.2-11.9-4.6-16s-10.5-5.2-16.3-3.6L75.5,30.4z"/><path fill="#7AC70C" d="M54.6,10.8c-1.3,5.8,0.2,11.9,4.6,16s10.5,5.2,16.3,3.6L54.6,10.8z"/><path fill="#75AF0E" d="M75,61c-7.3,2.4-15.2,1.3-21-3.8S45.9,44.5,47.3,37L75,61z"/><path fill="#7AC70C" d="M47.3,37c7.3-2.4,15.2-1.3,21,3.8S76.3,53.5,75,61L47.3,37z"/></svg>