<?xml version="1.0" encoding="utf-8"?><!DOCTYPE svg PUBLIC "-//W3C//DTD SVG 1.1//EN" "http://www.w3.org/Graphics/SVG/1.1/DTD/svg11.dtd"><svg version="1.1" id="Layer_1" xmlns="http://www.w3.org/2000/svg" xmlns:xlink="http://www.w3.org/1999/xlink" x="0px" y="0px" width="150px" height="150px" viewBox="0 0 150 150" enable-background="new 0 0 150 150" xml:space="preserve"><circle fill="#939393" cx="109.9" cy="50" r="8"/><line fill="none" stroke="#939393" stroke-width="4" stroke-linecap="round" stroke-linejoin="round" stroke-miterlimit="10" x1="109.9" y1="50" x2="41.8" y2="27.8"/><path fill="#3F3F3F" d="M125.9,127H23.4c-1.9,0-3.4-1.5-3.4-3.4V53.4c0-1.9,1.5-3.4,3.4-3.4h102.6c1.9,0,3.4,1.5,3.4,3.4v70.2	C129.3,125.5,127.8,127,125.9,127z"/><circle fill="#686868" cx="109" cy="84.2" r="8.2"/><circle fill="#686868" cx="109" cy="110.2" r="8.2"/><path fill="#2B2B2B" d="M74.6,83h-30c-1.3,0-2.3-1.1-2.3-2.3v0c0-1.3,1.1-2.3,2.3-2.3h30c1.3,0,2.3,1.1,2.3,2.3v0	C76.9,82,75.9,83,74.6,83z"/><path fill="#2B2B2B" d="M80.9,91.6H38.7c-1.3,0-2.3-1.1-2.3-2.3l0,0c0-1.3,1.1-2.3,2.3-2.3h42.2c1.3,0,2.3,1.1,2.3,2.3l0,0	C83.2,90.5,82.1,91.6,80.9,91.6z"/><path fill="#2B2B2B" d="M86.4,100.1h-53c-1.3,0-2.3-1.1-2.3-2.3l0,0c0-1.3,1.1-2.3,2.3-2.3h53c1.3,0,2.3,1.1,2.3,2.3l0,0	C88.8,99.1,87.7,100.1,86.4,100.1z"/><path fill="#2B2B2B" d="M80.9,108.7H38.7c-1.3,0-2.3-1.1-2.3-2.3v0c0-1.3,1.1-2.3,2.3-2.3h42.2c1.3,0,2.3,1.1,2.3,2.3v0	C83.2,107.6,82.1,108.7,80.9,108.7z"/><path fill="#2B2B2B" d="M74.6,117.2h-30c-1.3,0-2.3-1.1-2.3-2.3v0c0-1.3,1.1-2.3,2.3-2.3h30c1.3,0,2.3,1.1,2.3,2.3v0	C76.9,116.2,75.9,117.2,74.6,117.2z"/><rect x="26.1" y="55.2" fill="#F0F0F0" width="97.1" height="14"/><path opacity="0.37" fill="#686868" d="M119.2,62.9H29.9c-0.3,0-0.6-0.3-0.6-0.6l0,0c0-0.3,0.3-0.6,0.6-0.6h89.4	c0.3,0,0.6,0.3,0.6,0.6l0,0C119.8,62.6,119.6,62.9,119.2,62.9z"/><path fill="#E03D2D" d="M62.5,67.9L62.5,67.9c-0.5,0-0.9-0.4-0.9-0.9v-9.8c0-0.5,0.4-0.9,0.9-0.9l0,0c0.5,0,0.9,0.4,0.9,0.9V67	C63.4,67.5,63,67.9,62.5,67.9z"/><circle fill="#939393" cx="41.8" cy="27.8" r="3.5"/></svg>