<?xml version="1.0" encoding="utf-8"?><!DOCTYPE svg PUBLIC "-//W3C//DTD SVG 1.1//EN" "http://www.w3.org/Graphics/SVG/1.1/DTD/svg11.dtd"><svg version="1.1" id="Layer_1" xmlns="http://www.w3.org/2000/svg" xmlns:xlink="http://www.w3.org/1999/xlink" x="0px" y="0px" width="150px" height="150px" viewBox="0 0 150 150" enable-background="new 0 0 150 150" xml:space="preserve"><path fill="#3D3D3D" d="M82.1,26.5c-14.6,0-28.6,6.2-38.6,16.9c-3,3.3-3.3,8.1-1.1,11.7c-0.7,0.7-1.5,1.4-2.2,2.2	c-3.6,3.9-3.4,10,0.5,13.6c3.9,3.6,10,3.4,13.6-0.5c5.2-5.6,12.4-8.8,20-8.8c15,0,27.2,12.2,27.2,27.2v37.5c0,5.3,4.3,9.6,9.6,9.6	c5.3,0,9.6-4.3,9.6-9.6v-18.9c1.3,0.6,2.7,0.9,4.1,0.9c5.3,0,9.6-4.3,9.6-9.6V79.1C134.7,50.1,111.1,26.5,82.1,26.5z"/><g><g><path fill="#4F4F4F" d="M50.6,54.8c-1.2,0-2.3-0.4-3.3-1.3c-2-1.8-2.1-4.9-0.3-6.8c9-9.8,21.8-15.4,35.1-15.4 c12,0,23.5,4.5,32.4,12.7c2,1.8,2.1,4.9,0.3,6.8c-1.8,2-4.9,2.1-6.8,0.3C100.8,44.6,91.6,41,82.1,41c-10.6,0-20.7,4.5-28,12.3 C53.1,54.3,51.8,54.8,50.6,54.8z"/></g></g><rect x="20.7" y="39.1" transform="matrix(0.7071 0.7071 -0.7071 0.7071 62.8102 -13.4343)" fill="#BCBCBC" width="53.8" height="60"/><path fill="#C6C6C6" d="M25.1,71.3L25.1,71.3c-2-2-2-5.2,0-7.1l28.9-28.9l7.1,7.1L32.3,71.3C30.3,73.3,27.1,73.3,25.1,71.3z"/><path fill="#AFAFAF" d="M39.5,101.2l28.9-28.9c2-2,5.2-2,7.1,0l0,0c2,2,2,5.2,0,7.1l-28.9,28.9"/><rect x="40.6" y="42.7" transform="matrix(0.7071 -0.7071 0.7071 0.7071 -35.4257 53.7546)" fill="#3D3D3D" width="13.2" height="54"/><rect x="30.4" y="54.4" transform="matrix(0.7071 -0.7071 0.7071 0.7071 -31.212 43.5816)" fill="#4F4F4F" width="13.2" height="10.1"/><rect x="56.1" y="80.1" transform="matrix(0.7071 -0.7071 0.7071 0.7071 -41.8449 69.2517)" fill="#2D2D2D" width="13.2" height="10.1"/><line fill="none" stroke="#FFFFFF" stroke-width="2.7551" stroke-linecap="round" stroke-linejoin="round" stroke-miterlimit="10" x1="7.4" y1="71.3" x2="45.5" y2="109.3"/><line fill="none" stroke="#FFFFFF" stroke-width="2.7551" stroke-linecap="round" stroke-linejoin="round" stroke-miterlimit="10" x1="49.7" y1="28.9" x2="87.8" y2="67"/><circle fill="#3D3D3D" cx="138.6" cy="51.2" r="4.6"/><circle fill="#3D3D3D" cx="90.6" cy="107.5" r="5.3"/><circle fill="#3D3D3D" cx="86.5" cy="27.3" r="3.6"/><circle fill="#D1D1D1" cx="60.7" cy="55.8" r="5.5"/><path fill="#F4F4F4" d="M16.8,57.2h43.7c0.9,0,1.6-0.7,1.6-1.6v0c0-0.9-0.7-1.6-1.6-1.6H16.8c-0.9,0-1.6,0.7-1.6,1.6v0	C15.1,56.4,15.9,57.2,16.8,57.2z"/><path fill="#2D2D2D" d="M105.2,129L105.2,129c-2,0-3.6-1.6-3.6-3.6V93.9c0-2,1.6-3.6,3.6-3.6h0c2,0,3.6,1.6,3.6,3.6v31.5	C108.8,127.4,107.2,129,105.2,129z"/></svg>