<?xml version="1.0" encoding="utf-8"?><!DOCTYPE svg PUBLIC "-//W3C//DTD SVG 1.1//EN" "http://www.w3.org/Graphics/SVG/1.1/DTD/svg11.dtd"><svg version="1.1" id="Layer_1" xmlns="http://www.w3.org/2000/svg" xmlns:xlink="http://www.w3.org/1999/xlink" x="0px" y="0px" width="150px" height="150px" viewBox="0 0 150 150" enable-background="new 0 0 150 150" xml:space="preserve"><path fill="#D33131" d="M79.6,103.6c6.5-2.1,12.9-4.4,19.3-6.8V12.4c-10.8,0-19.6,8.8-19.6,19.6v71.7	C79.5,103.7,79.5,103.6,79.6,103.6z"/><path fill="#FF9522" d="M113.8,95.4h31.5c0-10.6-8.6-19.2-19.2-19.2h-12.3C113.3,82.5,113.4,88.9,113.8,95.4z"/><path fill="#D33131" d="M80.8,103.2c6.2-2,12.3-4.2,18.4-6.6L70.3,22.4c-10.1,3.9-15,15.3-11.1,25.3L80.8,103.2z"/><path fill="#D33131" d="M79.6,103.6c3.6-1.1,7.1-2.4,10.7-3.6L50.7,42.6c-8.9,6.1-11.1,18.3-5,27.2l25.1,36.2	C73.7,105.2,76.7,104.4,79.6,103.6z"/><path fill="#D33131" d="M126,76.1c0,24.7-20,44.7-44.7,44.7s-44.7-20-44.7-44.7"/><path fill="#D33131" d="M110.1,76.1H4.3c0,10.8,8.8,19.6,19.6,19.6h86.4C110.6,89.1,110.5,82.6,110.1,76.1z"/><circle fill="#7C1F1F" cx="112.2" cy="85.8" r="4.9"/><path fill="#BC2E2E" d="M80.2,81.2L80.2,81.2c0,4.2-3.4,7.5-7.5,7.5h-4.4c-4.2,0-7.5-3.4-7.5-7.5v0"/><path fill="#BC2E2E" d="M97.2,91.9L97.2,91.9c0,4.2-3.4,7.5-7.5,7.5h-4.4c-4.2,0-7.5-3.4-7.5-7.5v0"/><path fill="#BC2E2E" d="M80.2,102.7L80.2,102.7c0,4.2-3.4,7.5-7.5,7.5h-4.4c-4.2,0-7.5-3.4-7.5-7.5v0"/></svg>