<?xml version="1.0" encoding="utf-8"?><!DOCTYPE svg PUBLIC "-//W3C//DTD SVG 1.1//EN" "http://www.w3.org/Graphics/SVG/1.1/DTD/svg11.dtd"><svg version="1.1" id="Layer_1" xmlns="http://www.w3.org/2000/svg" xmlns:xlink="http://www.w3.org/1999/xlink" x="0px" y="0px" width="150px" height="150px" viewBox="0 0 150 150" enable-background="new 0 0 150 150" xml:space="preserve"><linearGradient id="SVGID_1_" gradientUnits="userSpaceOnUse" x1="75" y1="142.2998" x2="75" y2="8.8405"><stop offset="0.5508" style="stop-color:#82E9ED"/><stop offset="1" style="stop-color:#37D6ED"/></linearGradient><path fill="url(#SVGID_1_)" d="M129.7,142.3H20.3c-6.7,0-12.1-5.4-12.1-12.1V20.9c0-6.7,5.4-12.1,12.1-12.1h109.3	c6.7,0,12.1,5.4,12.1,12.1v109.3C141.7,136.9,136.3,142.3,129.7,142.3z"/><path fill="#FFFFFF" d="M141.7,51.8v-6.7h-1.6v-5.5l-5.2-8l-5,8v5.5h-4.8v-5.5l-5.2-8l-5,8v5.5h-4.8v-5.5l-5.2-8l-5,8v5.5h-4.8v-5.5	l-5.2-8l-5,8v5.5h-4.8v-5.5l-5.2-8l-5,8v5.5h-4.8v-5.5l-5.2-8l-5,8v5.5h-4.8v-5.5l-5.2-8l-5,8v5.5h-4.8v-5.5l-5.2-8l-5,8v5.5h-4.8	v-5.5l-5.2-8l-5,8v5.5H8.3v6.7h1.6v28.3H8.3v6.7h1.6v8.8h10.2v-8.8h4.8v8.8h10.2v-8.8h4.8v8.8h10.2v-8.8h4.8v8.8h10.2v-8.8h4.8v16.8	h10.2V86.8h4.8v16.8h10.2V86.8h4.8v8.8h10.2v-8.8h4.8v8.8h10.2v-8.8h4.8v8.8h10.2v-8.8h1.6v-6.7h-1.6V51.8H141.7z M20.1,80.1V51.8	h4.8v28.3H20.1z M35.1,80.1V51.8h4.8v28.3H35.1z M50.1,80.1V51.8h4.8v28.3H50.1z M65.1,80.1V51.8h4.8v28.3H65.1z M80.1,80.1V51.8	h4.8v28.3H80.1z M95.1,80.1V51.8h4.8v28.3H95.1z M110.1,80.1V51.8h4.8v28.3H110.1z M129.9,80.1h-4.8V51.8h4.8V80.1z"/><g><path fill="#739B2D" d="M52.7,81c-5.8,0-10.9,2.6-14.3,6.7c-4-4.4-9.6-7.2-16-7.5c-1.4-6.6-7.2-11.6-14.2-11.8v16.1v13.4v23.4 c3.7,2.7,8.3,4.3,13.3,4.3c8.4,0,15.7-4.5,19.6-11.2c3.2,2.5,7.2,4,11.6,4c10.3,0,18.7-8.4,18.7-18.7S63.1,81,52.7,81z"/><path fill="#739B2D" d="M137.2,75.2c-3.7-2.7-8.2-4.4-13.2-4.4c-11.3,0-20.5,8.4-21.9,19.3c-9.7,1.5-17.1,9.9-17.1,20 c0,11.2,9.1,20.3,20.3,20.3c9.5,0,17.5-6.5,19.7-15.4c6.9-0.3,12.9-3.7,16.8-8.8v-2.3V79.7v-5.3C140.2,74.5,138.6,74.8,137.2,75.2z"/></g><rect x="52.5" y="70.1" transform="matrix(0.9705 -0.2409 0.2409 0.9705 -20.3748 15.8617)" fill="#CECECE" width="4.4" height="42.2"/><rect x="30.2" y="70.1" transform="matrix(-0.9705 -0.2409 0.2409 -0.9705 41.9078 187.6285)" fill="#CECECE" width="4.4" height="42.2"/><path fill="#7AC70C" d="M8.3,130.2c0,6.7,5.4,12.1,12.1,12.1h109.3c6.7,0,12.1-5.4,12.1-12.1v-26.7H8.3V130.2z"/><path fill="#739B2D" d="M40,127.4L40,127.4c-0.7,0-1.2-0.6-1.2-1.2v-4c0-0.7,0.6-1.2,1.2-1.2l0,0c0.7,0,1.2,0.6,1.2,1.2v4	C41.2,126.9,40.7,127.4,40,127.4z"/><path fill="#739B2D" d="M44,127.4L44,127.4c-0.7,0-1.2-0.6-1.2-1.2V120c0-0.7,0.6-1.2,1.2-1.2l0,0c0.7,0,1.2,0.6,1.2,1.2v6.2	C45.2,126.9,44.7,127.4,44,127.4z"/><path fill="#739B2D" d="M112,137.4L112,137.4c-0.7,0-1.2-0.6-1.2-1.2v-4c0-0.7,0.6-1.2,1.2-1.2l0,0c0.7,0,1.2,0.6,1.2,1.2v4	C113.2,136.9,112.7,137.4,112,137.4z"/><path fill="#739B2D" d="M116,137.4L116,137.4c-0.7,0-1.2-0.6-1.2-1.2V130c0-0.7,0.6-1.2,1.2-1.2l0,0c0.7,0,1.2,0.6,1.2,1.2v6.2	C117.2,136.9,116.7,137.4,116,137.4z"/><path fill="#739B2D" d="M80,118.4L80,118.4c-0.7,0-1.2-0.6-1.2-1.2v-4c0-0.7,0.6-1.2,1.2-1.2l0,0c0.7,0,1.2,0.6,1.2,1.2v4	C81.2,117.9,80.7,118.4,80,118.4z"/><path fill="#739B2D" d="M84,118.4L84,118.4c-0.7,0-1.2-0.6-1.2-1.2V111c0-0.7,0.6-1.2,1.2-1.2l0,0c0.7,0,1.2,0.6,1.2,1.2v6.2	C85.2,117.9,84.7,118.4,84,118.4z"/><path fill="#739B2D" d="M48,127.4L48,127.4c-0.7,0-1.2-0.6-1.2-1.2v-2.8c0-0.7,0.6-1.2,1.2-1.2l0,0c0.7,0,1.2,0.6,1.2,1.2v2.8	C49.2,126.9,48.7,127.4,48,127.4z"/><path fill="#CECECE" d="M70.7,55.5h-8.2c-1.3,0-2.4-1.1-2.4-2.4v0c0-1.3,1.1-2.4,2.4-2.4h8.2c1.3,0,2.4,1.1,2.4,2.4v0	C73.1,54.4,72,55.5,70.7,55.5z"/><path fill="#CECECE" d="M24.7,55.5h-8.2c-1.3,0-2.4-1.1-2.4-2.4v0c0-1.3,1.1-2.4,2.4-2.4h8.2c1.3,0,2.4,1.1,2.4,2.4v0	C27.1,54.4,26,55.5,24.7,55.5z"/><path fill="#3F3F3F" d="M68.4,48.2c0,13.7-11.1,24.8-24.8,24.8S18.8,61.9,18.8,48.2"/><rect x="31.3" y="88.8" fill="#CECECE" width="24.5" height="4.6"/></svg>