<?xml version="1.0" encoding="utf-8"?><!DOCTYPE svg PUBLIC "-//W3C//DTD SVG 1.1//EN" "http://www.w3.org/Graphics/SVG/1.1/DTD/svg11.dtd"><svg version="1.1" xmlns="http://www.w3.org/2000/svg" xmlns:xlink="http://www.w3.org/1999/xlink" x="0px" y="0px" width="150px" height="150px" viewBox="0 0 150 150" enable-background="new 0 0 150 150" xml:space="preserve"><g id="Layer_2" display="none"><rect x="-1360" y="-1187.3" display="inline" fill="#F0F0F0" width="1680" height="1677.3"/></g><g id="Layer_1"/><g id="Layer_3"><rect x="103.1" y="90.6" fill="#8E4819" width="15.2" height="43.1"/><path fill="#CCA3B9" d="M134.8,133.7h-29.4c-2.3,0-4.1-1.9-4.1-4.1v0c0-2.3,1.9-4.1,4.1-4.1h29.4c2.3,0,4.1,1.9,4.1,4.1v0 C138.9,131.8,137,133.7,134.8,133.7z"/><path fill="#8E4819" d="M115.3,62.8h-14.9c-11.6,0-21-9.5-21-21v0c0-11.6,9.5-21,21-21h14.9c11.6,0,21,9.5,21,21v0 C136.3,53.4,126.9,62.8,115.3,62.8z"/><path fill="#8E4819" d="M118.3,51.3c-33.7,0-61.1,27.3-61.1,61.1h61.1V51.3z"/><circle fill="#DDB6C9" cx="79.3" cy="45.6" r="9.5"/><path fill="#DDB6C9" d="M136.3,41.8L136.3,41.8c0-2.5-0.4-4.9-1.3-7.2h-19.9c-7.7,0-14.1,6.3-14.1,14.1v0c0,7.7,6.3,14.1,14.1,14.1 h0.1C126.9,62.8,136.3,53.4,136.3,41.8z"/><path fill="none" stroke="#8E4819" stroke-width="7.7463" stroke-linecap="round" stroke-linejoin="round" stroke-miterlimit="10" d="M59.6,113.9L59.6,113.9c-12.7,0-23.1-10.4-23.1-23.1V68.6"/><path fill="none" stroke="#8E4819" stroke-width="7.7463" stroke-linecap="round" stroke-linejoin="round" stroke-miterlimit="10" d="M13.4,41.1L13.4,41.1c12.7,0,23.1,10.4,23.1,23.1v22.1"/><circle fill="#CC9AB4" cx="113.4" cy="44.3" r="3.2"/><path fill="#DDB6C9" d="M111.5,133.7H82.2c-2.3,0-4.1-1.9-4.1-4.1v0c0-2.3,1.9-4.1,4.1-4.1h29.4c2.3,0,4.1,1.9,4.1,4.1v0 C115.6,131.8,113.8,133.7,111.5,133.7z"/><circle fill="#CC9AB4" cx="131.8" cy="44.3" r="3.2"/><path fill="#DDB6C9" d="M131.7,62.8h-15c-4,0-7.3-3.3-7.3-7.3v0c0-4,3.3-7.3,7.3-7.3h15c4,0,7.3,3.3,7.3,7.3v0 C139,59.5,135.7,62.8,131.7,62.8z"/><path fill="#965123" d="M81.5,133.7h-2.7c-11.8,0-21.5-9.7-21.5-21.5v0c0-11.8,9.7-21.5,21.5-21.5h2.7c11.8,0,21.5,9.7,21.5,21.5v0 C103.1,124,93.4,133.7,81.5,133.7z"/></g></svg>