<?xml version="1.0" encoding="utf-8"?><!DOCTYPE svg PUBLIC "-//W3C//DTD SVG 1.1//EN" "http://www.w3.org/Graphics/SVG/1.1/DTD/svg11.dtd"><svg version="1.1" id="Layer_1" xmlns="http://www.w3.org/2000/svg" xmlns:xlink="http://www.w3.org/1999/xlink" x="0px" y="0px" width="150px" height="150px" viewBox="0 0 150 150" enable-background="new 0 0 150 150" xml:space="preserve"><polygon fill="#FF9D00" points="49.4,39.5 75.3,1.9 101.2,39.5"/><polygon fill="#FF9D00" points="101.2,110 75.3,147.6 49.4,110"/><polygon fill="#FF9D00" points="40.1,100.6 2.5,74.7 40.1,48.9"/><polygon fill="#FF9D00" points="110.6,48.9 148.2,74.7 110.6,100.6"/><polygon fill="#FFB000" points="31.8,70.6 20.9,26.3 66.2,32"/><polygon fill="#FFB000" points="118.9,78.9 129.7,123.2 84.4,117.5"/><polygon fill="#FFB000" points="79.4,31.2 123.8,20.3 118.1,65.6"/><polygon fill="#FFB000" points="71.2,118.3 26.9,129.2 32.6,83.9"/><circle fill="#FFC200" cx="75.2" cy="74.4" r="47.1"/><g><path fill="#FF7F00" d="M94.6,77.2c0,10.8-8.8,19.6-19.6,19.6l0,0c-10.8,0-19.6-8.8-19.6-19.6H94.6z"/></g><g><path fill="#FF9D00" d="M45.4,67.1c0-3.6,2.9-6.6,6.6-6.6c3.6,0,6.6,2.9,6.6,6.6"/></g><g><path fill="#FF9D00" d="M91.8,67.1c0-3.6,2.9-6.6,6.6-6.6c3.6,0,6.6,2.9,6.6,6.6"/></g></svg>