<?xml version="1.0" encoding="utf-8"?><!DOCTYPE svg PUBLIC "-//W3C//DTD SVG 1.1//EN" "http://www.w3.org/Graphics/SVG/1.1/DTD/svg11.dtd"><svg version="1.1" id="Layer_1" xmlns="http://www.w3.org/2000/svg" xmlns:xlink="http://www.w3.org/1999/xlink" x="0px" y="0px" width="150px" height="150px" viewBox="0 0 150 150" enable-background="new 0 0 150 150" xml:space="preserve"><path fill="#301916" d="M45.2,40.8v51.4l0,0c10.9,0,19.8-8.9,19.8-19.8V21C54.1,21,45.2,29.9,45.2,40.8z"/><path fill="#301916" d="M90.8,86.8L90.8,86.8c-17.9,0-32.6-14.7-32.6-32.6V33.4c0-17.9,14.7-32.6,32.6-32.6h0	c17.9,0,32.6,14.7,32.6,32.6v20.8C123.4,72.1,108.7,86.8,90.8,86.8z"/><circle fill="#E08070" cx="58.1" cy="55.6" r="7.8"/><circle fill="#E08070" cx="123.4" cy="55.6" r="7.8"/><path fill="#6DC1E2" d="M136.5,148.3H45.1v-6.9c0-25.2,20.5-45.7,45.7-45.7h0c25.2,0,45.7,20.5,45.7,45.7V148.3z"/><path fill="#E08070" d="M90.9,112.8L90.9,112.8c-6.9,0-12.6-5.6-12.6-12.6V85.1c0-6.9,5.6-12.6,12.6-12.6h0	c6.9,0,12.6,5.6,12.6,12.6v15.1C103.4,107.2,97.8,112.8,90.9,112.8z"/><g><path fill="#E8957C" d="M90.8,95.7L90.8,95.7c-17.9,0-32.5-14.5-32.5-32.5V48.6c0-17.9,14.5-32.5,32.5-32.5h0 c17.9,0,32.5,14.5,32.5,32.5v14.5C123.3,81.1,108.7,95.7,90.8,95.7z"/></g><g><path fill="#B2473B" d="M107.6,63.7c0,9.3-7.5,16.8-16.8,16.8l0,0C81.6,80.5,74,73,74,63.7H107.6z"/></g><g><rect x="85.6" y="43.6" fill="#E08070" width="10.5" height="14.8"/></g><path fill="#CC4F46" d="M100.7,77.2c-2.3-2.9-5.9-4.7-9.8-4.7c-4,0-7.6,1.9-9.9,4.8c2.8,2,6.1,3.2,9.8,3.2	C94.5,80.5,98,79.3,100.7,77.2z"/><circle fill="#CC7262" cx="74" cy="47.8" r="3.9"/><circle fill="#CC7262" cx="107.6" cy="47.8" r="3.9"/><polygon fill="#E08070" points="102.6,104.8 90.9,130.7 79.2,104.8"/><polygon fill="#FFFFFF" points="18.2,54.6 15.5,57.4 18.2,60.2 15.5,63 18.2,65.8 15.5,68.6 18.2,71.4 15.5,74.2 18.2,77 31.5,77 31.5,54.6"/><path fill="#FFFFFF" d="M75,69.4h31.6c0.6-1.8,1-3.7,1-5.7H74C74,65.7,74.4,67.6,75,69.4z"/><path fill="#FFFFFF" d="M126.1,61.4L126.1,61.4l-70.7,0v0c0,19.5,15.8,35.3,35.3,35.3l0,0C110.3,96.8,126.1,80.9,126.1,61.4z"/><path fill="#FFFFFF" d="M56.9,64.4L56.9,64.4c-0.8,0-1.4-0.6-1.4-1.4V47.4c0-0.8,0.6-1.4,1.4-1.4h0c0.8,0,1.4,0.6,1.4,1.4V63	C58.3,63.8,57.7,64.4,56.9,64.4z"/><path fill="#FFFFFF" d="M124.7,64.4L124.7,64.4c-0.8,0-1.4-0.6-1.4-1.4V47.4c0-0.8,0.6-1.4,1.4-1.4l0,0c0.8,0,1.4,0.6,1.4,1.4V63	C126.1,63.8,125.5,64.4,124.7,64.4z"/><rect x="56.9" y="52.8" fill="#FFFFFF" width="67.8" height="17.2"/><path fill="#CC2F2F" d="M33.8,114V54.7c0-1-0.9-1.9-1.9-1.9h0c-1,0-1.9,0.9-1.9,1.9V114c0,1,0.9,1.9,1.9,1.9h0	C32.9,115.9,33.8,115.1,33.8,114z"/><rect x="20.4" y="132.9" fill="#E08070" width="28.5" height="15.5"/><path fill="#CC2F2F" d="M33.6,117.9l0-28.9c0-1.8-1.4-3.2-3.2-3.2h0c-1.8,0-3.2,1.4-3.2,3.2l0,28.9c0,1.8,1.4,3.2,3.2,3.2h0	C32.2,121.2,33.6,119.7,33.6,117.9z"/><rect x="34.6" y="113.2" fill="#E08070" width="14.2" height="25.9"/><path fill="#E8957C" d="M36.4,134.6H20.6c-3.2,0-5.8-2.6-5.8-5.8v0c0-3.2,2.6-5.8,5.8-5.8h15.8c3.2,0,5.8,2.6,5.8,5.8v0	C42.2,132,39.6,134.6,36.4,134.6z"/><path fill="#E08070" d="M41.7,120.3L41.7,120.3c-3.9,0-7.1-3.2-7.1-7.1v0c0-3.9,3.2-7.1,7.1-7.1h0c3.9,0,7.1,3.2,7.1,7.1v0	C48.8,117.1,45.6,120.3,41.7,120.3z"/><path fill="#E8957C" d="M36.4,113.7H20.6c-3.2,0-5.8-2.6-5.8-5.8v0c0-3.2,2.6-5.8,5.8-5.8h15.8c3.2,0,5.8,2.6,5.8,5.8v0	C42.2,111.1,39.6,113.7,36.4,113.7z"/><path fill="#E8957C" d="M36.4,124.2H20.6c-3.2,0-5.8-2.6-5.8-5.8v0c0-3.2,2.6-5.8,5.8-5.8h15.8c3.2,0,5.8,2.6,5.8,5.8v0	C42.2,121.6,39.6,124.2,36.4,124.2z"/></svg>