<?xml version="1.0" encoding="utf-8"?><!DOCTYPE svg PUBLIC "-//W3C//DTD SVG 1.1//EN" "http://www.w3.org/Graphics/SVG/1.1/DTD/svg11.dtd"><svg version="1.1" id="Layer_1" xmlns="http://www.w3.org/2000/svg" xmlns:xlink="http://www.w3.org/1999/xlink" x="0px" y="0px" width="150px" height="150px" viewBox="0 0 150 150" enable-background="new 0 0 150 150" xml:space="preserve"><rect x="26.8" y="78.9" fill="#1CB0F6" width="88.5" height="47.2"/><rect x="17.5" y="61.7" fill="#353535" width="50.7" height="44.8"/><path fill="#1883C4" d="M38.8,140.4h-0.4c-0.7,0-1.3-0.6-1.3-1.3v-26.6c0-0.7,0.6-1.3,1.3-1.3h0.4c0.7,0,1.3,0.6,1.3,1.3v26.6	C40.1,139.8,39.5,140.4,38.8,140.4z"/><path fill="#1883C4" d="M53.2,125.6v0.4c0,0.7-0.6,1.3-1.3,1.3H25.3c-0.7,0-1.3-0.6-1.3-1.3v-0.4c0-0.7,0.6-1.3,1.3-1.3h26.6	C52.6,124.3,53.2,124.9,53.2,125.6z"/><path fill="#1883C4" d="M49.1,136l-0.2,0.2c-0.5,0.5-1.4,0.5-1.9,0l-18.8-18.8c-0.5-0.5-0.5-1.4,0-1.9l0.2-0.2	c0.5-0.5,1.4-0.5,1.9,0l18.8,18.8C49.6,134.6,49.6,135.5,49.1,136z"/><path fill="#1883C4" d="M48.8,115.3l0.2,0.2c0.5,0.5,0.5,1.4,0,1.9l-18.8,18.8c-0.5,0.5-1.4,0.5-1.9,0l-0.2-0.2	c-0.5-0.5-0.5-1.4,0-1.9l18.8-18.8C47.5,114.8,48.3,114.8,48.8,115.3z"/><path fill="#1883C4" d="M72.8,140.4h-0.4c-0.7,0-1.3-0.6-1.3-1.3v-26.6c0-0.7,0.6-1.3,1.3-1.3h0.4c0.7,0,1.3,0.6,1.3,1.3v26.6	C74.2,139.8,73.6,140.4,72.8,140.4z"/><path fill="#1883C4" d="M87.3,125.6v0.4c0,0.7-0.6,1.3-1.3,1.3H59.4c-0.7,0-1.3-0.6-1.3-1.3v-0.4c0-0.7,0.6-1.3,1.3-1.3H86	C86.7,124.3,87.3,124.9,87.3,125.6z"/><path fill="#1883C4" d="M83.1,136l-0.2,0.2c-0.5,0.5-1.4,0.5-1.9,0l-18.8-18.8c-0.5-0.5-0.5-1.4,0-1.9l0.2-0.2	c0.5-0.5,1.4-0.5,1.9,0l18.8,18.8C83.7,134.6,83.7,135.5,83.1,136z"/><path fill="#1883C4" d="M82.9,115.3l0.2,0.2c0.5,0.5,0.5,1.4,0,1.9l-18.8,18.8c-0.5,0.5-1.4,0.5-1.9,0l-0.2-0.2	c-0.5-0.5-0.5-1.4,0-1.9L81,115.3C81.5,114.8,82.4,114.8,82.9,115.3z"/><rect x="113.9" y="80.8" fill="#232323" width="4.2" height="45.3"/><path fill="#1883C4" d="M101.7,141.7h-0.2c-0.5,0-0.9-0.4-0.9-0.9v-17c0-0.5,0.4-0.9,0.9-0.9h0.2c0.5,0,0.9,0.4,0.9,0.9v17	C102.6,141.3,102.2,141.7,101.7,141.7z"/><path fill="#1883C4" d="M111,132.2v0.2c0,0.5-0.4,0.9-0.9,0.9h-17c-0.5,0-0.9-0.4-0.9-0.9v-0.2c0-0.5,0.4-0.9,0.9-0.9h17	C110.6,131.3,111,131.7,111,132.2z"/><path fill="#353535" d="M126.8,129.6L126.8,129.6c-2.4,0-4.4-2-4.4-4.4V81.1c0-2.4,2-4.4,4.4-4.4h0c2.4,0,4.4,2,4.4,4.4v44.1	C131.2,127.6,129.3,129.6,126.8,129.6z"/><path fill="#353535" d="M131.2,115.5L131.2,115.5c-1.9,0-3.5-1.6-3.5-3.5V94.7c0-1.9,1.6-3.5,3.5-3.5l0,0c1.9,0,3.5,1.6,3.5,3.5V112	C134.8,113.9,133.2,115.5,131.2,115.5z"/><rect x="92.4" y="78.9" fill="#353535" width="31.1" height="47.2"/><path fill="#1CB0F6" d="M68.3,62.1H17.9c-1.6,0-2.9-1.3-2.9-2.9v0c0-1.6,1.3-2.9,2.9-2.9h50.3c1.6,0,2.9,1.3,2.9,2.9v0	C71.2,60.8,69.9,62.1,68.3,62.1z"/><g><g><path fill="#212121" d="M38.7,113.9c6.3,0,11.5,5.2,11.5,11.5s-5.2,11.5-11.5,11.5s-11.5-5.2-11.5-11.5S32.3,113.9,38.7,113.9 M38.7,109.4c-8.9,0-16,7.2-16,16s7.2,16,16,16c8.9,0,16-7.2,16-16S47.5,109.4,38.7,109.4L38.7,109.4z"/></g></g><g><g><path fill="#212121" d="M72.7,113.9c6.3,0,11.5,5.2,11.5,11.5s-5.2,11.5-11.5,11.5s-11.5-5.2-11.5-11.5S66.3,113.9,72.7,113.9 M72.7,109.4c-8.9,0-16,7.2-16,16s7.2,16,16,16s16-7.2,16-16S81.5,109.4,72.7,109.4L72.7,109.4z"/></g></g><g><circle fill="#919191" cx="101.6" cy="132.1" r="2.6"/></g><circle fill="#FFFFFF" cx="103.7" cy="38.6" r="9"/><g><g><path fill="#212121" d="M101.6,126.7c3,0,5.5,2.4,5.5,5.5s-2.4,5.5-5.5,5.5s-5.5-2.4-5.5-5.5S98.6,126.7,101.6,126.7 M101.6,122.4 c-5.4,0-9.7,4.3-9.7,9.7s4.3,9.7,9.7,9.7s9.7-4.3,9.7-9.7S107,122.4,101.6,122.4L101.6,122.4z"/></g></g><rect x="92.4" y="40.6" fill="#353535" width="23.4" height="41.4"/><path fill="#353535" d="M115.9,42.2H92.3c-1.4,0-2.5-1.1-2.5-2.5v0c0-1.4,1.1-2.5,2.5-2.5h23.6c1.4,0,2.5,1.1,2.5,2.5v0	C118.4,41,117.3,42.2,115.9,42.2z"/><rect x="23.6" y="68.1" fill="#F0F0F0" width="16.5" height="20.6"/><rect x="46.2" y="68.1" fill="#F0F0F0" width="16.1" height="20.6"/><circle fill="#FFFFFF" cx="82.8" cy="19.8" r="12.2"/><circle fill="#FFFFFF" cx="103.7" cy="19.8" r="4.2"/><path fill="#353535" d="M72.7,124.7H37.8c-0.9,0-1.7-0.8-1.7-1.7v-0.5c0-0.9,0.8-1.7,1.7-1.7h34.9c0.9,0,1.7,0.8,1.7,1.7v0.5	C74.4,124,73.6,124.7,72.7,124.7z"/><g><circle fill="#919191" cx="72.7" cy="125.4" r="4.6"/></g><g><circle fill="#919191" cx="38.7" cy="125.4" r="4.6"/></g><path fill="none" stroke="#515151" stroke-width="1.4564" stroke-miterlimit="10" d="M59,101.6H27.5c-2.2,0-3.9-1.8-3.9-3.9v0	c0-2.2,1.8-3.9,3.9-3.9H59c2.2,0,3.9,1.8,3.9,3.9v0C62.9,99.8,61.2,101.6,59,101.6z"/><path fill="#515151" d="M99.5,76.7h-0.2c-1.1,0-2-0.9-2-2V44.2c0-1.1,0.9-2,2-2h0.2c1.1,0,2,0.9,2,2v30.4	C101.5,75.7,100.6,76.7,99.5,76.7z"/><path fill="#515151" d="M108.1,115.5H94.9c-1.4,0-2.6-1.2-2.6-2.6v-3c0-1.4,1.2-2.6,2.6-2.6h13.1c1.4,0,2.6,1.2,2.6,2.6v3	C110.6,114.3,109.5,115.5,108.1,115.5z"/><path fill="#686868" d="M103.8,111H95c-0.7,0-1.2-0.6-1.2-1.2l0,0c0-0.7,0.6-1.2,1.2-1.2h8.8c0.7,0,1.2,0.6,1.2,1.2l0,0	C105.1,110.5,104.5,111,103.8,111z"/></svg>