<?xml version="1.0" encoding="utf-8"?><!DOCTYPE svg PUBLIC "-//W3C//DTD SVG 1.1//EN" "http://www.w3.org/Graphics/SVG/1.1/DTD/svg11.dtd"><svg version="1.1" id="Layer_1" xmlns="http://www.w3.org/2000/svg" xmlns:xlink="http://www.w3.org/1999/xlink" x="0px" y="0px" width="150px" height="150px" viewBox="0 0 150 150" enable-background="new 0 0 150 150" xml:space="preserve"><path fill="none" stroke="#FFCE00" stroke-width="9.74" stroke-miterlimit="10" d="M7.9,77.9v-0.4c0-6.8,5.6-12.4,12.4-12.4h19"/><path fill="none" stroke="#FFCE00" stroke-width="9.74" stroke-miterlimit="10" d="M109.7,65h22.4c6.2,0,11.2,5.1,11.2,11.2v1.6"/><circle fill="#A560E8" cx="74.3" cy="75" r="42.8"/><path fill="#AA6EFF" d="M81,38.9H51.3c-11.4,7.3-19.1,19.8-19.8,34.2h40.1c3.3,0,6.1-2.7,6.1-6.1c0-3.3-2.7-6.1-6.1-6.1h-1.4	c-2.7,0-5-2.2-5-5c0-2.7,2.2-5,5-5H81c3.3,0,6.1-2.7,6.1-6.1C87,41.6,84.3,38.9,81,38.9z"/><path fill="#AA6EFF" d="M93.2,95c-2.9,0-5.3,2.4-5.3,5.3c0,2.9,2.4,5.3,5.3,5.3h11.2c3.1-3.1,5.8-6.6,7.8-10.5H93.2z"/><path fill="#AA6EFF" d="M116.8,80h-35c-2.9,0-5.3,2.4-5.3,5.3v0c0,2.9,2.4,5.3,5.3,5.3h32.4C115.5,87.2,116.4,83.7,116.8,80z"/><path fill="#AA6EFF" d="M45,83.7H32.4c1,4.6,2.7,9,5,13H45c3.6,0,6.5-2.9,6.5-6.5S48.6,83.7,45,83.7z"/><path fill="none" stroke="#FFCE00" stroke-width="9.74" stroke-miterlimit="10" d="M143.4,77.9v0.4c0,6.8-5.6,12.4-12.4,12.4H20.3	c-6.8,0-12.4-5.6-12.4-12.4v-0.4"/></svg>