<?xml version="1.0" encoding="utf-8"?><!DOCTYPE svg PUBLIC "-//W3C//DTD SVG 1.1//EN" "http://www.w3.org/Graphics/SVG/1.1/DTD/svg11.dtd"><svg version="1.1" xmlns="http://www.w3.org/2000/svg" xmlns:xlink="http://www.w3.org/1999/xlink" x="0px" y="0px" width="150px" height="150px" viewBox="0 0 150 150" enable-background="new 0 0 150 150" xml:space="preserve"><g id="Layer_2" display="none"><rect x="-170" y="-1357.3" display="inline" fill="#F0F0F0" width="1680" height="1677.3"/></g><g id="Layer_1"/><g id="Layer_3"><rect x="76.8" y="33.5" fill="#C12525" width="46.3" height="94.5"/><path fill="#C12525" d="M120.5,129.6L120.5,129.6c1.4,0,2.6,1.2,2.6,2.6v6.4c0,1.4-1.2,2.6-2.6,2.6h0c-1.4,0-2.6-1.2-2.6-2.6v-6.4 C117.9,130.8,119.1,129.6,120.5,129.6z"/><path fill="#C12525" d="M110.2,129.6L110.2,129.6c1.4,0,2.6,1.2,2.6,2.6v6.4c0,1.4-1.2,2.6-2.6,2.6h0c-1.4,0-2.6-1.2-2.6-2.6v-6.4 C107.6,130.8,108.8,129.6,110.2,129.6z"/><path fill="#C12525" d="M99.9,129.6L99.9,129.6c1.4,0,2.6,1.2,2.6,2.6v6.4c0,1.4-1.2,2.6-2.6,2.6l0,0c-1.4,0-2.6-1.2-2.6-2.6v-6.4 C97.3,130.8,98.4,129.6,99.9,129.6z"/><path fill="#C12525" d="M89.5,129.6L89.5,129.6c1.4,0,2.6,1.2,2.6,2.6v6.4c0,1.4-1.2,2.6-2.6,2.6h0c-1.4,0-2.6-1.2-2.6-2.6v-6.4 C87,130.8,88.1,129.6,89.5,129.6z"/><path fill="#C12525" d="M79.2,129.6L79.2,129.6c1.4,0,2.6,1.2,2.6,2.6v6.4c0,1.4-1.2,2.6-2.6,2.6h0c-1.4,0-2.6-1.2-2.6-2.6v-6.4 C76.6,130.8,77.8,129.6,79.2,129.6z"/><rect x="112.8" y="33.5" fill="#A01A1A" width="10.3" height="94.5"/><rect x="95" y="33.5" fill="#A01A1A" width="10.3" height="94.5"/><rect x="76.8" y="109.5" fill="#A01A1A" width="46.3" height="10.3"/><rect x="76.8" y="90.5" fill="#A01A1A" width="46.3" height="10.3"/><rect x="76.8" y="71.5" fill="#A01A1A" width="46.3" height="10.3"/><rect x="76.8" y="52.5" fill="#A01A1A" width="46.3" height="10.3"/><rect x="76.8" y="33.5" fill="#A01A1A" width="46.3" height="10.3"/><rect x="76.8" y="33.5" fill="#A01A1A" width="10.3" height="94.5"/><rect x="95" y="109.5" fill="#891818" width="10.3" height="10.3"/><rect x="112.8" y="109.5" fill="#891818" width="10.3" height="10.3"/><rect x="76.8" y="109.5" fill="#891818" width="10.3" height="10.3"/><rect x="95" y="90.5" fill="#891818" width="10.3" height="10.3"/><rect x="112.8" y="90.5" fill="#891818" width="10.3" height="10.3"/><rect x="76.8" y="90.5" fill="#891818" width="10.3" height="10.3"/><rect x="95" y="71.5" fill="#891818" width="10.3" height="10.3"/><rect x="112.8" y="71.5" fill="#891818" width="10.3" height="10.3"/><rect x="76.8" y="71.5" fill="#891818" width="10.3" height="10.3"/><rect x="95" y="52.5" fill="#891818" width="10.3" height="10.3"/><rect x="112.8" y="52.5" fill="#891818" width="10.3" height="10.3"/><rect x="76.8" y="52.5" fill="#891818" width="10.3" height="10.3"/><rect x="95" y="33.5" fill="#891818" width="10.3" height="10.3"/><rect x="112.8" y="33.5" fill="#891818" width="10.3" height="10.3"/><rect x="76.8" y="33.5" fill="#891818" width="10.3" height="10.3"/><polygon fill="#7C1515" points="69,33.5 33.4,91.9 73,116 123.1,33.5"/><rect x="26.7" y="21.5" fill="#C12525" width="46.3" height="94.5"/><path fill="#C12525" d="M29.2,19.8L29.2,19.8c-1.4,0-2.6-1.2-2.6-2.6v-6.4c0-1.4,1.2-2.6,2.6-2.6h0c1.4,0,2.6,1.2,2.6,2.6v6.4 C31.8,18.7,30.6,19.8,29.2,19.8z"/><path fill="#C12525" d="M39.6,19.8L39.6,19.8c-1.4,0-2.6-1.2-2.6-2.6v-6.4c0-1.4,1.2-2.6,2.6-2.6h0c1.4,0,2.6,1.2,2.6,2.6v6.4 C42.1,18.7,41,19.8,39.6,19.8z"/><path fill="#C12525" d="M49.9,19.8L49.9,19.8c-1.4,0-2.6-1.2-2.6-2.6v-6.4c0-1.4,1.2-2.6,2.6-2.6h0c1.4,0,2.6,1.2,2.6,2.6v6.4 C52.5,18.7,51.3,19.8,49.9,19.8z"/><path fill="#C12525" d="M60.2,19.8L60.2,19.8c-1.4,0-2.6-1.2-2.6-2.6v-6.4c0-1.4,1.2-2.6,2.6-2.6h0c1.4,0,2.6,1.2,2.6,2.6v6.4 C62.8,18.7,61.6,19.8,60.2,19.8z"/><path fill="#C12525" d="M70.5,19.8L70.5,19.8c-1.4,0-2.6-1.2-2.6-2.6v-6.4c0-1.4,1.2-2.6,2.6-2.6l0,0c1.4,0,2.6,1.2,2.6,2.6v6.4 C73.1,18.7,71.9,19.8,70.5,19.8z"/><rect x="26.7" y="21.5" fill="#A01A1A" width="10.3" height="94.5"/><rect x="44.4" y="21.5" fill="#A01A1A" width="10.3" height="94.5"/><rect x="26.7" y="29.6" fill="#A01A1A" width="46.3" height="10.3"/><rect x="26.7" y="48.6" fill="#A01A1A" width="46.3" height="10.3"/><rect x="26.7" y="67.6" fill="#A01A1A" width="46.3" height="10.3"/><rect x="26.7" y="86.6" fill="#A01A1A" width="46.3" height="10.3"/><rect x="26.7" y="105.7" fill="#A01A1A" width="46.3" height="10.3"/><rect x="62.6" y="21.5" fill="#A01A1A" width="10.3" height="94.5"/><rect x="44.4" y="29.6" fill="#891818" width="10.3" height="10.3"/><rect x="26.7" y="29.6" fill="#891818" width="10.3" height="10.3"/><rect x="62.6" y="29.6" fill="#891818" width="10.3" height="10.3"/><rect x="44.4" y="48.6" fill="#891818" width="10.3" height="10.3"/><rect x="26.7" y="48.6" fill="#891818" width="10.3" height="10.3"/><rect x="62.6" y="48.6" fill="#891818" width="10.3" height="10.3"/><rect x="44.4" y="67.6" fill="#891818" width="10.3" height="10.3"/><rect x="26.7" y="67.6" fill="#891818" width="10.3" height="10.3"/><rect x="62.6" y="67.6" fill="#891818" width="10.3" height="10.3"/><rect x="44.4" y="86.6" fill="#891818" width="10.3" height="10.3"/><rect x="26.7" y="86.6" fill="#891818" width="10.3" height="10.3"/><rect x="62.6" y="86.6" fill="#891818" width="10.3" height="10.3"/><rect x="44.4" y="105.7" fill="#891818" width="10.3" height="10.3"/><rect x="26.7" y="105.7" fill="#891818" width="10.3" height="10.3"/><rect x="62.6" y="105.7" fill="#891818" width="10.3" height="10.3"/></g></svg>