<?xml version="1.0" encoding="utf-8"?><!DOCTYPE svg PUBLIC "-//W3C//DTD SVG 1.1//EN" "http://www.w3.org/Graphics/SVG/1.1/DTD/svg11.dtd"><svg version="1.1" xmlns="http://www.w3.org/2000/svg" xmlns:xlink="http://www.w3.org/1999/xlink" x="0px" y="0px" width="150px" height="150px" viewBox="0 0 150 150" enable-background="new 0 0 150 150" xml:space="preserve"><g id="Layer_2" display="none"><rect x="-510" y="-1357.3" display="inline" fill="#F0F0F0" width="1680" height="1677.3"/></g><g id="Layer_1"/><g id="Layer_3"><path fill="none" stroke="#B7B7B7" stroke-width="7.4794" stroke-linecap="round" stroke-linejoin="round" stroke-miterlimit="10" d="M48.7,122.8c0,7.4,6.1,13.5,13.5,13.5h0c7.4,0,13.5-6.1,13.5-13.5V64.8c0-7.4-6.1-13.5-13.5-13.5h0c-7.4,0-13.5,6.1-13.5,13.5"/><path fill="none" stroke="#B7B7B7" stroke-width="7.4794" stroke-linecap="round" stroke-linejoin="round" stroke-miterlimit="10" d="M62.2,51.3"/><line fill="none" stroke="#B7B7B7" stroke-width="7.4794" stroke-linecap="round" stroke-linejoin="round" stroke-miterlimit="10" x1="75.5" y1="21.7" x2="75.5" y2="10.2"/><path fill="#FFC715" d="M31.9,71.3c9.7,0,18,5.7,21.8,14h0c3.8-8.3,12.1-14,21.8-14c9.7,0,18,5.7,21.8,14h0 c3.8-8.3,12.1-14,21.8-14c9.7,0,18,5.7,21.8,14h0.1c0-36.3-29.4-65.7-65.7-65.7S9.7,49,9.7,85.3H10C13.8,77,22.2,71.3,31.9,71.3z"/><path fill="#894619" d="M80.3,113.7h-9v8.9c0,0.1,0,0.1,0,0.2c0,5-4.1,9-9,9s-9-4.1-9-9c0-2.5-2-4.5-4.5-4.5s-4.5,2-4.5,4.5 c0,9.9,8.1,18,18,18c9.8,0,17.7-7.8,18-17.5h0V113.7z"/></g></svg>