<?xml version="1.0" encoding="utf-8"?><!DOCTYPE svg PUBLIC "-//W3C//DTD SVG 1.1//EN" "http://www.w3.org/Graphics/SVG/1.1/DTD/svg11.dtd"><svg version="1.1" id="Layer_1" xmlns="http://www.w3.org/2000/svg" xmlns:xlink="http://www.w3.org/1999/xlink" x="0px" y="0px" width="150px" height="150px" viewBox="0 0 150 150" enable-background="new 0 0 150 150" xml:space="preserve"><path fill="#FFAA00" d="M130.2,140.7H21.1c-6.7,0-12.1-5.4-12.1-12.1V19.5c0-6.7,5.4-12.1,12.1-12.1h109.1c6.7,0,12.1,5.4,12.1,12.1	v109.1C142.2,135.3,136.8,140.7,130.2,140.7z"/><path fill="#FFCE00" d="M15.1,24.1c0,12.4,8.7,22.4,19.5,22.4c10.8,0,19.5-10,19.5-22.4c0-6.6-2.5-12.6-6.5-16.7H21.5	C17.6,11.6,15.1,17.5,15.1,24.1z"/><ellipse fill="#1CB0F6" cx="87.7" cy="30.5" rx="19.5" ry="22.4"/><path fill="#D33131" d="M96.9,7.4c-1.4,3.1-2.2,6.6-2.2,10.3c0,12.4,8.7,22.4,19.5,22.4c10.8,0,19.5-10,19.5-22.4	c0-3.7-0.8-7.2-2.2-10.3c-0.2,0-0.3,0-0.5,0H96.9z"/><circle fill="#FFE000" cx="28" cy="15.7" r="4.2"/><path fill="#EA3939" d="M102.6,8.3c0,2.3,1.9,4.2,4.2,4.2c2.3,0,4.2-1.9,4.2-4.2c0-0.3,0-0.6-0.1-0.9h-8.3	C102.6,7.7,102.6,8,102.6,8.3z"/><circle fill="#22D5FF" cx="80.2" cy="21.1" r="4.2"/><path fill="#FFCE00" d="M28.9,50.3l4.2-7.4c0.7-1.1,2.3-1.1,3,0l4.2,7.4c0.7,1.1-0.2,2.6-1.5,2.6h-8.5C29,52.9,28.2,51.5,28.9,50.3z"/><path fill="#1CB0F6" d="M81.8,56.2l4.2-7.4c0.7-1.1,2.3-1.1,3,0l4.2,7.4c0.7,1.1-0.2,2.6-1.5,2.6h-8.5C82,58.7,81.2,57.3,81.8,56.2z"/><path fill="#D33131" d="M108.5,44.5l4.2-7.4c0.7-1.1,2.3-1.1,3,0l4.2,7.4c0.7,1.1-0.2,2.6-1.5,2.6H110	C108.7,47.1,107.9,45.6,108.5,44.5z"/><polygon fill="#753629" points="118.8,96 121.5,97.2 122.6,98.7 122.4,99.9 121.7,101.1 120.7,101.8 119.8,101.9 118.1,101.1 117.6,98.7 118.3,95.8"/><rect x="81.7" y="65.1" fill="#44211C" width="38.1" height="27.8"/><path fill="#773F32" d="M77.1,140.7h46.7c-0.5-12.4-10.8-22.3-23.4-22.3l0,0C87.8,118.3,77.6,128.3,77.1,140.7z"/><path fill="#753629" d="M100.4,104.9c-3.7,0-6.8,3.3-6.8,7.4v8.9c0,4.1,3.1,7.4,6.8,7.4c3.7,0,6.8-3.3,6.8-7.4v-8.9	C107.2,108.2,104.1,104.9,100.4,104.9z"/><g><ellipse fill="#753629" cx="81.7" cy="97.4" rx="4.7" ry="4.4"/></g><g><path fill="#753629" d="M119.8,93c-2.6,0-4.7,2-4.7,4.4c0,2.5,2.1,4.4,4.7,4.4c2.6,0,4.7-2,4.7-4.4C124.6,95,122.4,93,119.8,93z M119.5,101.8c-2.8,0-2.8-4.4,0-4.4C122.4,97.4,122.4,101.8,119.5,101.8z"/></g><g><path fill="#773F32" d="M119.5,101.8c-2.8,0-2.8-4.4,0-4.4c0.1,0,0.2,0,0.3,0V83.3H81.7v18.5c0,10.5,8.5,19.1,19.1,19.1l0,0 c10.5,0,19.1-8.5,19.1-19.1v0C119.7,101.8,119.6,101.8,119.5,101.8z"/></g><g><path fill="#571413" d="M110.8,103.4c0,5.5-4.5,10-10,10l0,0c-5.5,0-10-4.5-10-10H110.8z"/></g><g><path fill="#F2F2F2" d="M91.4,106.6h18.9c0.3-1,0.5-2.1,0.5-3.2H90.8C90.8,104.5,91,105.6,91.4,106.6z"/></g><g><path fill="#6D1818" d="M106.4,111.6c-1.3-1.6-3.3-2.5-5.5-2.5l0,0c-2.2,0-4.2,1-5.6,2.6c1.6,1.1,3.5,1.7,5.5,1.7 C102.9,113.3,104.8,112.7,106.4,111.6z"/></g><g><rect x="97.5" y="91.2" fill="#662B23" width="7.1" height="8.7"/></g><path fill="#7AC70C" d="M109.5,122.9c0,4.9-4.1,8.9-9.1,8.9c-5,0-9.1-4-9.1-8.9V120h-5.6v20.7h29.3V120h-5.6V122.9z"/><path fill="none" stroke="#562722" stroke-width="1.8317" stroke-miterlimit="10" d="M89.2,92.9c0-1.3,1.1-2.4,2.4-2.4	s2.4,1.1,2.4,2.4"/><path fill="none" stroke="#562722" stroke-width="1.8317" stroke-miterlimit="10" d="M107.6,92.9c0-1.3,1.1-2.4,2.4-2.4	s2.4,1.1,2.4,2.4"/><rect x="116.7" y="97.2" fill="#773F32" width="3.1" height="4.6"/><path fill="#773F32" d="M135.3,108.6c-1.6,0-2.8,1.2-2.9,2.8c-0.1-1.5-1.3-2.8-2.9-2.8c-1.6,0-2.9,1.3-2.9,2.9v-5.8	c0-1.6-1.3-2.9-2.9-2.9s-2.9,1.3-2.9,2.9v14l-1-1c-1.2-1.2-3-1.2-4.2,0c-1.2,1.2-1.2,3,0,4.2l5.9,5.9c0.5,0.5,1.2,0.8,1.9,0.8v11.1	h7.7c2.7,0,5.1-0.9,7-2.5V120v-1.1v-7.3C138.2,109.9,136.9,108.6,135.3,108.6z"/><path fill="#773F32" d="M81.4,103.2c-1.2-1.2-3-1.2-4.2,0l-1,1v-14c0-1.6-1.3-2.9-2.9-2.9s-2.9,1.3-2.9,2.9v5.8	c0-1.6-1.3-2.9-2.9-2.9c-1.6,0-2.8,1.2-2.9,2.8c-0.1-1.5-1.3-2.8-2.9-2.8c-1.6,0-2.9,1.3-2.9,2.9v7.3v1.1v36.3h14.6v-26.6	c0.7,0,1.4-0.3,1.9-0.8l5.9-5.9C82.6,106.2,82.6,104.3,81.4,103.2z"/><path fill="#994537" d="M52.7,110V82.7H13v26.9c0,2.8-1.6,5.3-4,6.4v0.8h4h39.6h0h7.2C56,116.7,52.9,113.7,52.7,110z"/><path fill="#8549BA" d="M32.6,117L32.6,117c-10.8,0-19.9,7.2-22.7,17.1c1.5,3.4,4.7,5.9,8.6,6.5h37.7C56.2,127.5,45.7,117,32.6,117z"/><path fill="#FFFFFF" d="M42.9,130.7v-9c0-5.7-4.7-10.4-10.4-10.4h0c-5.7,0-10.4,4.7-10.4,10.4v9l10.5-3.4L42.9,130.7z"/><path fill="#FF9D8A" d="M32.6,103.4c-3.8,0-6.8,3-6.8,6.7v8c0,3.7,3.1,6.7,6.8,6.7s6.8-3,6.8-6.7v-8	C39.5,106.4,36.4,103.4,32.6,103.4z"/><polygon fill="#FF9D8A" points="37.3,122.9 32.6,127.3 28,122.9"/><g><ellipse fill="#FF9D8A" cx="14.4" cy="94.2" rx="4.6" ry="4.3"/></g><g><ellipse fill="#FF9D8A" cx="51.1" cy="94.2" rx="4.6" ry="4.3"/></g><g><path fill="#FFB5A1" d="M32.7,116.7L32.7,116.7c-10.1,0-18.3-8.2-18.3-18.3V85.1c0-10.1,8.2-18.3,18.3-18.3h0 c10.1,0,18.3,8.2,18.3,18.3v13.3C51.1,108.5,42.9,116.7,32.7,116.7z"/></g><path fill="#AD523D" d="M11.9,85.6h41.7c-0.3-11.3-9.5-20.4-20.9-20.4h0C21.4,65.2,12.1,74.3,11.9,85.6z"/><g><path fill="#B2473B" d="M42.4,98.7c0,5.3-4.3,9.6-9.6,9.6l0,0c-5.3,0-9.6-4.3-9.6-9.6H42.4z"/></g><g><path fill="#F2F2F2" d="M23.7,101.8h18.1c0.3-1,0.5-2,0.5-3.1H23.2C23.2,99.7,23.4,100.8,23.7,101.8z"/></g><g><rect x="29.7" y="87" fill="#FF9D8A" width="6.9" height="9.8"/></g><g opacity="0.68"><path fill="#D8504C" d="M38.1,106.6c-1.3-1.5-3.2-2.4-5.3-2.4l0,0c-2.1,0-4.1,1-5.4,2.5c1.5,1,3.3,1.6,5.3,1.6 C34.7,108.2,36.6,107.6,38.1,106.6z"/></g><polygon fill="#FFB5A1" points="43.2,86.4 36.6,78.1 36.6,86.4"/><path fill="none" stroke="#EA9486" stroke-width="1.8317" stroke-miterlimit="10" d="M22.3,89.9c0-1.2,1-2.2,2.2-2.2	c1.2,0,2.2,1,2.2,2.2"/><path fill="none" stroke="#EA9486" stroke-width="1.8317" stroke-miterlimit="10" d="M39.6,89.9c0-1.2,1-2.2,2.2-2.2	c1.2,0,2.2,1,2.2,2.2"/></svg>