<?xml version="1.0" encoding="utf-8"?><!DOCTYPE svg PUBLIC "-//W3C//DTD SVG 1.1//EN" "http://www.w3.org/Graphics/SVG/1.1/DTD/svg11.dtd"><svg version="1.1" id="Layer_1" xmlns="http://www.w3.org/2000/svg" xmlns:xlink="http://www.w3.org/1999/xlink" x="0px" y="0px" width="150px" height="150px" viewBox="0 0 150 150" enable-background="new 0 0 150 150" xml:space="preserve"><g><path fill="#00BDFF" d="M42.6,109.7c0-33.3,43.2-38.6,43.2-56.9c0-8.1-6.2-12.9-14-12.9c-6.6,0-11.3,4-13.7,6.9 c-2.5,2.5-5.1,3.4-7.7,1.2l-3.5-2.7c-2.7-2.1-3.4-4.5-1.4-7.3c4-5.3,12.6-13.9,27.7-13.9c16.1,0,30,9.9,30,27.3 c0,29.6-41.3,34.7-42.1,52.1h38.1c3.6,0,5.5,1.8,5.5,5.3v3.6c0,3.6-1.8,5.5-5.5,5.5H48.5c-3.4,0-5.9-1.8-5.9-5.5V109.7z"/></g></svg>