<?xml version="1.0" encoding="utf-8"?><!DOCTYPE svg PUBLIC "-//W3C//DTD SVG 1.1//EN" "http://www.w3.org/Graphics/SVG/1.1/DTD/svg11.dtd"><svg version="1.1" id="Layer_1" xmlns="http://www.w3.org/2000/svg" xmlns:xlink="http://www.w3.org/1999/xlink" x="0px" y="0px" width="150px" height="150px" viewBox="0 0 150 150" enable-background="new 0 0 150 150" xml:space="preserve"><path fill="#3F3F3F" d="M91.9,55.4c-0.4-0.4-0.7-0.9-1-1.4c-0.1-0.2-0.2-0.4-0.2-0.6c0,0-0.1-0.1-0.1-0.1h-6.4	c-1.3,0-2.4,1.1-2.4,2.4v85.6c0,1.3,1.1,2.4,2.4,2.4h13c1.5,0,2.7-1.2,2.7-2.7l-8.2-85.1C91.6,55.7,91.7,55.5,91.9,55.4z"/><path fill="#494949" d="M95.7,53.4c0-0.1,0.1-0.3,0.2-0.4c-0.3-0.8-0.6-1.5-1-2.2h-3.1c-1.5,0-2.7,1.2-2.7,2.7l8.2,85.1	c0,1.5,1.2,2.7,2.7,2.7h12.8c1.5,0,2.7-1.2,2.7-2.7L95.7,53.4z"/><path fill="#3F3F3F" d="M65.3,53.2h-7c-0.2,0.7-0.5,1.4-0.8,2.1c0.2,0.2,0.3,0.4,0.3,0.6L49.7,141c0,1.5,1.2,2.7,2.7,2.7h13	c1.3,0,2.4-1.1,2.4-2.4V55.6C67.8,54.3,66.7,53.2,65.3,53.2z"/><path fill="#494949" d="M57.7,50.7h-4.2c0,0,0,0.1,0,0.1c0,0.2-0.1,0.8-0.1,0.5c-0.1,0.4-0.2,0.9-0.4,1.2c0.4,0.3,0.7,0.5,0.7,0.8	L34,138.5c0,1.5,1.2,2.7,2.7,2.7h12.8c1.5,0,2.7-1.2,2.7-2.7l8.2-85.1C60.4,51.9,59.2,50.7,57.7,50.7z"/><path fill="#494949" d="M80.2,147.9H68.5c-1.8,0-3.2-1.5-3.2-3.2V60.6c0-1.8,1.5-3.2,3.2-3.2h11.6c1.8,0,3.2,1.5,3.2,3.2v84.1	C83.4,146.4,81.9,147.9,80.2,147.9z"/><circle fill="#333333" cx="65.6" cy="26.3" r="9.6"/><circle fill="#333333" cx="84" cy="26.3" r="9.6"/><rect x="50.5" y="2.6" fill="#333333" width="8.5" height="32.5"/><rect x="90.8" y="2.6" fill="#333333" width="8.5" height="32.5"/><path fill="#333333" d="M94.2,49.1H55.7c-2.8,0-5.1-2.3-5.1-5.1V33.3c0-2.8,2.3-5.1,5.1-5.1h38.5c2.8,0,5.1,2.3,5.1,5.1V44	C99.3,46.8,97,49.1,94.2,49.1z"/><rect x="52.5" y="48.5" fill="#1C1C1C" width="44.6" height="10.5"/></svg>