<?xml version="1.0" encoding="utf-8"?><!DOCTYPE svg PUBLIC "-//W3C//DTD SVG 1.1//EN" "http://www.w3.org/Graphics/SVG/1.1/DTD/svg11.dtd"><svg version="1.1" xmlns="http://www.w3.org/2000/svg" xmlns:xlink="http://www.w3.org/1999/xlink" x="0px" y="0px" width="150px" height="150px" viewBox="0 0 150 150" enable-background="new 0 0 150 150" xml:space="preserve"><g id="Layer_2" display="none"><rect x="-510" y="-170" display="inline" fill="#F0F0F0" width="1680" height="1677.3"/></g><g id="Layer_1"><path fill="#71B70D" d="M105.9,47.7L76,77.7c-1.5,1.5-4.1,1.5-5.6,0l-0.5-0.5c-1.5-1.5-1.5-4.1,0-5.6l29.9-29.9 c1.5-1.5,4.1-1.5,5.6,0l0.5,0.5C107.5,43.7,107.5,46.2,105.9,47.7z"/><path fill="#71B70D" d="M91.3,42.1L71,79.3c-1,1.9-3.5,2.6-5.4,1.6L65,80.5c-1.9-1-2.6-3.5-1.6-5.4l20.2-37.2 c1-1.9,3.5-2.6,5.4-1.6l0.6,0.3C91.6,37.7,92.3,40.1,91.3,42.1z"/><path fill="#71B70D" d="M72.7,82.9l37.8-19.2c2-1,2.7-3.4,1.7-5.3l-0.3-0.6c-1-2-3.4-2.7-5.3-1.7L68.8,75.2c-2,1-2.7,3.4-1.7,5.3 l0.3,0.6C68.3,83.1,70.7,83.9,72.7,82.9z"/><path fill="#88C11A" d="M77.6,9.8c-5.1,5.9-7.4,14-5.3,22.2c2,8.1,7.9,14.3,15.1,17c5.1-5.9,7.4-14,5.3-22.2 C90.7,18.7,84.9,12.6,77.6,9.8z"/><path fill="#88C11A" d="M136.6,11.2c-10-1.8-20.7,1.2-28.5,8.9c-7.7,7.7-10.7,18.4-8.9,28.5c10,1.8,20.7-1.2,28.5-8.9 C135.4,31.9,138.4,21.2,136.6,11.2z"/><path fill="#88C11A" d="M100.6,7.4c-6.7,4.3-11.2,11.7-11.5,20.2c-0.3,8.5,3.7,16.2,10.1,21c6.7-4.3,11.2-11.7,11.5-20.2 C110.9,19.8,106.9,12.2,100.6,7.4z"/><path fill="#88C11A" d="M137.8,68.6c-5.7,5.3-13.7,7.9-21.9,6.2c-8.2-1.7-14.6-7.3-17.6-14.5c5.7-5.3,13.7-7.9,21.9-6.2 C128.4,55.9,134.7,61.5,137.8,68.6z"/><path fill="#88C11A" d="M140.3,45.5c-4.1,6.8-11.3,11.6-19.8,12.3c-8.5,0.6-16.3-3.1-21.4-9.2c4.1-6.8,11.3-11.6,19.8-12.3 C127.5,35.6,135.3,39.3,140.3,45.5z"/><path fill="#F98E00" d="M94.1,88.4l-74.7,48.9c-5.8,3.8-12.6-3-8.8-8.8l48.9-74.7c2.2-3.4,7-3.9,9.8-1l25.8,25.8 C98,81.4,97.5,86.2,94.1,88.4z"/><path fill="#EF8200" d="M17.5,118l4.9,4.9c1.7,1.7,4.5,1.7,6.2,0c1.7-1.7,1.7-4.5,0-6.2l-6.2-6.2L17.5,118z"/><path fill="#EF8200" d="M51.3,116.4l-8.6-8.6c-1.7-1.7-1.7-4.5,0-6.2c1.7-1.7,4.5-1.7,6.2,0l9.9,9.9L51.3,116.4z"/><path fill="#EF8200" d="M45.4,75.2l12.3,12.3c1.7,1.7,4.5,1.7,6.2,0c1.7-1.7,1.7-4.5,0-6.2L50.3,67.8L45.4,75.2z"/></g><g id="Layer_3"/></svg>