<?xml version="1.0" encoding="UTF-8" standalone="no"?><svg width="207px" height="97px" viewBox="0 0 207 97" version="1.1" xmlns="http://www.w3.org/2000/svg" xmlns:xlink="http://www.w3.org/1999/xlink" xmlns:sketch="http://www.bohemiancoding.com/sketch/ns"><title>turtle</title><desc>Created with Sketch.</desc><defs/><g id="Page-1" stroke="none" stroke-width="1" fill="none" fill-rule="evenodd" sketch:type="MSPage"><g id="turtle" sketch:type="MSLayerGroup"><path d="M74.375,60.173 L74.375,60.173 C74.375,69.932 66.464,77.844 56.704,77.844 L18.263,77.844 C8.504,77.844 0.593,69.932 0.593,60.173" id="Fill-1" fill="#74B70B" sketch:type="MSShapeGroup"/><path d="M47.583,93.197 L47.583,93.197 C41.48,93.197 36.533,88.25 36.533,82.147 L36.533,59.198 C36.533,53.095 41.48,48.148 47.583,48.148 C53.685,48.148 58.632,53.095 58.632,59.198 L58.632,82.147 C58.632,88.25 53.685,93.197 47.583,93.197" id="Fill-2" fill="#74B70B" sketch:type="MSShapeGroup"/><path d="M132.715,73.467 L132.715,73.466 C127.248,67.999 127.248,59.135 132.715,53.668 L156.319,30.064 C161.786,24.597 170.65,24.597 176.118,30.064 C181.584,35.531 181.584,44.395 176.118,49.862 L152.513,73.466 C147.046,78.934 138.182,78.934 132.715,73.467" id="Fill-3" fill="#74B70B" sketch:type="MSShapeGroup"/><path d="M122.097,96.695 L122.097,96.695 C115.995,96.695 111.047,91.748 111.047,85.645 L111.047,68.683 C111.047,62.58 115.995,57.633 122.097,57.633 C128.2,57.633 133.147,62.58 133.147,68.683 L133.147,85.645 C133.147,91.748 128.2,96.695 122.097,96.695" id="Fill-4" fill="#74B70B" sketch:type="MSShapeGroup"/><path d="M26.718,77.567 L26.718,59.202 C26.718,26.931 52.878,0.771 85.148,0.771 C117.419,0.771 143.579,26.931 143.579,59.202 L143.579,77.567" id="Fill-5" fill="#B58148" sketch:type="MSShapeGroup"/><path d="M143.538,77.567 L26.76,77.567 C21.938,77.567 18.03,73.658 18.03,68.837 C18.03,64.015 21.938,60.106 26.76,60.106 L143.538,60.106 C148.359,60.106 152.268,64.015 152.268,68.837 C152.268,73.658 148.359,77.567 143.538,77.567" id="Fill-6" fill="#A36E3A" sketch:type="MSShapeGroup"/><path d="M75.045,9.533 C55.164,12.604 39.457,28.311 36.387,48.191 C35.807,51.946 38.776,55.319 42.576,55.319 L75.935,55.319 C79.38,55.319 82.173,52.526 82.173,49.081 L82.173,15.723 C82.173,11.923 78.8,8.953 75.045,9.533" id="Fill-7" fill="#A36E3A" sketch:type="MSShapeGroup"/><path d="M95.253,9.533 C115.133,12.604 130.84,28.311 133.91,48.191 C134.49,51.946 131.521,55.319 127.721,55.319 L94.363,55.319 C90.917,55.319 88.124,52.526 88.124,49.081 L88.124,15.723 C88.124,11.923 91.497,8.953 95.253,9.533" id="Fill-8" fill="#A36E3A" sketch:type="MSShapeGroup"/><path d="M182.105,62.589 L159.72,62.589 C150.806,62.589 143.579,55.362 143.579,46.447 L143.579,39.96 C143.579,31.045 150.806,23.818 159.72,23.818 L182.105,23.818 C191.02,23.818 198.247,31.045 198.247,39.96 L198.247,46.447 C198.247,55.362 191.02,62.589 182.105,62.589" id="Fill-9" fill="#74B70B" sketch:type="MSShapeGroup"/><path d="M143.579,52.966 L143.579,37.72 C143.579,28.477 151.072,20.985 160.313,20.985 L189.039,20.985 C198.488,20.985 206.146,28.644 206.146,38.092 L206.146,52.966" id="Fill-10" fill="#74B70B" sketch:type="MSShapeGroup"/><path d="M191.163,34.011 C191.163,36.86 188.854,39.169 186.005,39.169 C183.157,39.169 180.847,36.86 180.847,34.011 C180.847,31.163 183.157,28.854 186.005,28.854 C188.854,28.854 191.163,31.163 191.163,34.011" id="Fill-11" fill="#679B0B" sketch:type="MSShapeGroup"/></g></g></svg>