<?xml version="1.0" encoding="utf-8"?><!DOCTYPE svg PUBLIC "-//W3C//DTD SVG 1.1//EN" "http://www.w3.org/Graphics/SVG/1.1/DTD/svg11.dtd"><svg version="1.1" id="Layer_1" xmlns="http://www.w3.org/2000/svg" xmlns:xlink="http://www.w3.org/1999/xlink" x="0px" y="0px" width="150px" height="150px" viewBox="0 0 150 150" enable-background="new 0 0 150 150" xml:space="preserve"><path fill="#FFFFFF" d="M132.1,50.9c-2.2-4.4-7.1-6.6-11.7-5.5c3.6-3.1,4.8-8.3,2.5-12.7c-2.6-5.2-8.9-7.3-14.1-4.7	c-5.2,2.6-7.3,8.9-4.7,14.1L48.4,70.2l9.2,18.2l55.8-28.1l0,0c2.6,5.2,8.9,7.3,14.1,4.7C132.7,62.4,134.7,56,132.1,50.9z"/><path fill="#A85E27" d="M101.8,79.3L101.8,79.3c0,24-19.6,43.6-43.6,43.6H23.8c-12.5,0-22.7-10.2-22.7-22.7V58	c0-12.3,10-22.3,22.3-22.3h34.8C82.2,35.7,101.8,55.3,101.8,79.3z"/><g><path fill="#F7ADDF" d="M23,120.2c-10.5,0-19-8.5-19-19V57.4c0-10.5,8.5-19,19-19c10.5,0,19,8.5,19,19v43.8 C42,111.7,33.5,120.2,23,120.2z"/><path fill="#C66D30" d="M23,41.2c8.9,0,16.2,7.3,16.2,16.2v43.8c0,8.9-7.3,16.2-16.2,16.2s-16.2-7.3-16.2-16.2V57.4 C6.8,48.5,14.1,41.2,23,41.2 M23,35.7c-11.9,0-21.7,9.8-21.7,21.7v43.8c0,11.9,9.8,21.7,21.7,21.7s21.7-9.8,21.7-21.7V57.4 C44.7,45.5,35,35.7,23,35.7L23,35.7z"/></g><path fill="#9B501E" d="M52.6,84.5L52.6,84.5c-1.1-1.1-1.1-3,0-4.1l20.3-20.3c1.1-1.1,3-1.1,4.1,0l0,0c1.1,1.1,1.1,3,0,4.1	L56.7,84.5C55.6,85.6,53.8,85.6,52.6,84.5z"/><g><g><path fill="#FFCCE8" d="M25.2,67.9c2,0,3.7,1.7,3.7,3.7c0,2-1.7,3.7-3.7,3.7c-2,0-3.7-1.7-3.7-3.7C21.5,69.6,23.2,67.9,25.2,67.9 M25.2,62.4c-5.1,0-9.2,4.1-9.2,9.2v0c0,5.1,4.1,9.2,9.2,9.2c5.1,0,9.2-4.1,9.2-9.2v0C34.4,66.5,30.3,62.4,25.2,62.4L25.2,62.4z"/></g></g><path fill="#9B501E" d="M63.3,95.2L63.3,95.2c-1.1-1.1-1.1-3,0-4.1l20.3-20.3c1.1-1.1,3-1.1,4.1,0h0c1.1,1.1,1.1,3,0,4.1L67.4,95.2	C66.3,96.3,64.5,96.3,63.3,95.2z"/><path fill="#9B501E" d="M63.3,60.1L63.3,60.1c1.1-1.1,3-1.1,4.1,0l20.3,20.3c1.1,1.1,1.1,3,0,4.1l0,0c-1.1,1.1-3,1.1-4.1,0	L63.3,64.2C62.2,63.1,62.2,61.2,63.3,60.1z"/><path fill="#9B501E" d="M52.6,70.8L52.6,70.8c1.1-1.1,3-1.1,4.1,0L77,91.1c1.1,1.1,1.1,3,0,4.1l0,0c-1.1,1.1-3,1.1-4.1,0L52.6,74.9	C51.5,73.8,51.5,71.9,52.6,70.8z"/><path fill="#86B20D" d="M148.5,116.1c-2.7-3.9-7.3-6.5-12.5-6.5c-5.2,0-9.7,2.6-12.5,6.5H148.5z"/><path fill="#88C11A" d="M123.6,116.1c2.7,3.9,7.3,6.5,12.5,6.5c5.2,0,9.7-2.6,12.5-6.5H123.6z"/><path fill="#86B20D" d="M141.2,98.5c-4.7-0.8-9.8,0.6-13.4,4.2s-5,8.7-4.2,13.4L141.2,98.5z"/><path fill="#88C11A" d="M123.6,116.1c4.7,0.8,9.8-0.6,13.4-4.2s5-8.7,4.2-13.4L123.6,116.1z"/><path fill="#6B381C" d="M99.5,73.2H66.9c-9.1,0-16.4,7.3-16.4,16.4v17.2c0,9.1,7.3,16.4,16.4,16.4h33.2c6.3,0,11.3-5.1,11.3-11.3	V85.2C111.4,78.6,106.1,73.2,99.5,73.2z"/><path fill="#BA4D69" d="M101,73.2L101,73.2c-5.8,0-10.5,4.7-10.5,10.5v29.1c0,5.8,4.7,10.5,10.5,10.5l0,0c5.8,0,10.5-4.7,10.5-10.5	V83.7C111.4,77.9,106.7,73.2,101,73.2z"/><path fill="#C95576" d="M107.3,86l-9.4,9.4c-0.9,0.9-2.3,0.9-3.2,0v0c-0.9-0.9-0.9-2.3,0-3.2l9.4-9.4c0.9-0.9,2.3-0.9,3.2,0h0	C108.1,83.7,108.1,85.1,107.3,86z"/><path fill="#C95576" d="M107.3,102.2l-9.4,9.4c-0.9,0.9-2.3,0.9-3.2,0v0c-0.9-0.9-0.9-2.3,0-3.2l9.4-9.4c0.9-0.9,2.3-0.9,3.2,0l0,0	C108.1,99.9,108.1,101.3,107.3,102.2z"/><path fill="#6B381C" d="M112,73.2c-5.8,0-10.5,4.7-10.5,10.5v29c0,5.8,4.7,10.5,10.5,10.5h7.9v-50H112z"/><path fill="#BA4D69" d="M118.8,73.2c-5.8,0-10.5,4.7-10.5,10.5v29.1c0,5.8,4.7,10.5,10.5,10.5c5.8,0,10.5-4.7,10.5-10.5V83.7	C129.2,77.9,124.6,73.2,118.8,73.2z"/><path fill="#492613" d="M65,112L65,112c-0.8-0.8-0.8-2.2,0-3l16.6-16.6c0.8-0.8,2.2-0.8,3,0l0,0c0.8,0.8,0.8,2.2,0,3L68,112	C67.1,112.8,65.8,112.8,65,112z"/><path fill="#492613" d="M57.1,104.1L57.1,104.1c-0.8-0.8-0.8-2.2,0-3l16.6-16.6c0.8-0.8,2.2-0.8,3,0l0,0c0.8,0.8,0.8,2.2,0,3	l-16.6,16.6C59.2,104.9,57.9,104.9,57.1,104.1z"/><path fill="#492613" d="M84.6,104.1L84.6,104.1c-0.8,0.8-2.2,0.8-3,0L65,87.4c-0.8-0.8-0.8-2.2,0-3h0c0.8-0.8,2.2-0.8,3,0l16.6,16.6	C85.4,101.9,85.4,103.2,84.6,104.1z"/><path fill="#492613" d="M76.7,112L76.7,112c-0.8,0.8-2.2,0.8-3,0L57.1,95.3c-0.8-0.8-0.8-2.2,0-3h0c0.8-0.8,2.2-0.8,3,0L76.7,109	C77.5,109.8,77.5,111.2,76.7,112z"/><path fill="#C95576" d="M125.1,86l-9.4,9.4c-0.9,0.9-2.3,0.9-3.2,0l0,0c-0.9-0.9-0.9-2.3,0-3.2l9.4-9.4c0.9-0.9,2.3-0.9,3.2,0h0	C126,83.7,126,85.1,125.1,86z"/><path fill="#C95576" d="M125.1,102.2l-9.4,9.4c-0.9,0.9-2.3,0.9-3.2,0h0c-0.9-0.9-0.9-2.3,0-3.2l9.4-9.4c0.9-0.9,2.3-0.9,3.2,0l0,0	C126,99.9,126,101.3,125.1,102.2z"/></svg>