<?xml version="1.0" encoding="utf-8"?><!DOCTYPE svg PUBLIC "-//W3C//DTD SVG 1.1//EN" "http://www.w3.org/Graphics/SVG/1.1/DTD/svg11.dtd"><svg version="1.1" id="Layer_1" xmlns="http://www.w3.org/2000/svg" xmlns:xlink="http://www.w3.org/1999/xlink" x="0px" y="0px" width="150px" height="150px" viewBox="0 0 150 150" enable-background="new 0 0 150 150" xml:space="preserve"><path fill="#D33131" d="M111.1,79.6H38.7c-13.3,0-24-10.8-24-24v0c0-13.3,10.8-24,24-24h72.4c13.3,0,24,10.8,24,24v0	C135.1,68.8,124.4,79.6,111.1,79.6z"/><rect x="29.3" y="92.2" fill="#EF2B2B" width="92.8" height="31.6"/><rect x="17.3" y="74.8" fill="#D33131" width="111.9" height="49"/><rect x="7.8" y="75.7" fill="#E53838" width="23.2" height="48"/><circle fill="#E53838" cx="19.4" cy="75.7" r="14.9"/><rect x="119" y="75.7" fill="#E53838" width="23.2" height="48"/><rect x="31" y="95.1" fill="#C12F2F" width="88" height="5.1"/><circle fill="#E53838" cx="130.6" cy="75.7" r="14.9"/><circle fill="#C12F2F" cx="130.6" cy="75.7" r="3.7"/><circle fill="#C12F2F" cx="19.6" cy="75.7" r="3.7"/><circle fill="#C12F2F" cx="49.9" cy="59.5" r="3.1"/><circle fill="#C12F2F" cx="99.9" cy="59.5" r="3.1"/><path fill="#E53838" d="M116.3,97.1H33.7c-1.5,0-2.7-1.2-2.7-2.7v-6.5c0-1.5,1.2-2.7,2.7-2.7h82.5c1.5,0,2.7,1.2,2.7,2.7v6.5	C119,95.9,117.8,97.1,116.3,97.1z"/></svg>