<?xml version="1.0" encoding="utf-8"?><!DOCTYPE svg PUBLIC "-//W3C//DTD SVG 1.1//EN" "http://www.w3.org/Graphics/SVG/1.1/DTD/svg11.dtd"><svg version="1.1" id="Layer_1" xmlns="http://www.w3.org/2000/svg" xmlns:xlink="http://www.w3.org/1999/xlink" x="0px" y="0px" width="150px" height="150px" viewBox="0 0 150 150" enable-background="new 0 0 150 150" xml:space="preserve"><linearGradient id="SVGID_1_" gradientUnits="userSpaceOnUse" x1="74.7297" y1="141.7297" x2="74.7297" y2="8.2703"><stop offset="0" style="stop-color:#B1A9E3"/><stop offset="1" style="stop-color:#385A9E"/></linearGradient><path fill="url(#SVGID_1_)" d="M129.4,141.7H20.1c-6.7,0-12.1-5.4-12.1-12.1V20.3c0-6.7,5.4-12.1,12.1-12.1h109.3	c6.7,0,12.1,5.4,12.1,12.1v109.3C141.5,136.3,136.1,141.7,129.4,141.7z"/><circle fill="none" stroke="#CECECE" stroke-width="5.791" stroke-miterlimit="10" cx="70.3" cy="68.7" r="54.3"/><line fill="none" stroke="#CECECE" stroke-width="5.791" stroke-miterlimit="10" x1="70.3" y1="14.4" x2="70.3" y2="122.1"/><line fill="none" stroke="#CECECE" stroke-width="5.791" stroke-miterlimit="10" x1="16.4" y1="68.3" x2="124.2" y2="68.3"/><path fill="#FFCE00" d="M45.4,114.1c0,7.3-5.9,13.2-13.2,13.2S19,121.4,19,114.1"/><line fill="none" stroke="#CECECE" stroke-width="5.791" stroke-miterlimit="10" x1="32.2" y1="30.2" x2="108.4" y2="106.4"/><line fill="none" stroke="#CECECE" stroke-width="5.791" stroke-miterlimit="10" x1="108.4" y1="30.2" x2="32.2" y2="106.4"/><path fill="#FFFFFF" d="M72.6,65.9C72,65.3,71.1,65,70.3,65c-0.8,0-1.7,0.3-2.3,0.9l-60,60v3.8c0,1.5,0.3,3,0.8,4.3l61.5-61.5	l50.1,48.8c1.2,1.2,3.2,1.2,4.4,0c1.2-1.2,1.2-3.2,0-4.4L72.6,65.9z"/><circle fill="#D33131" cx="70.3" cy="68.7" r="13.4"/><polygon fill="#FFCE00" points="70.3,60.7 72.6,65.5 77.9,66.3 74.1,70 75,75.2 70.3,72.7 65.6,75.2 66.5,70 62.7,66.3 68,65.5"/><path fill="#FFCE00" d="M83.5,26c0,7.3-5.9,13.2-13.2,13.2S57.1,33.3,57.1,26"/><path fill="#FFCE00" d="M45.8,42.4c0,7.3-5.9,13.2-13.2,13.2s-13.2-5.9-13.2-13.2"/><path fill="#FFCE00" d="M8,87.5c2.4,2.3,5.6,3.8,9.2,3.8c7.3,0,13.2-5.9,13.2-13.2H8V87.5z"/><path fill="#FFCE00" d="M95.7,42.4c0,7.3,5.9,13.2,13.2,13.2s13.2-5.9,13.2-13.2"/><path fill="#FFCE00" d="M111.2,78.1c0,7.3,5.9,13.2,13.2,13.2c7.3,0,13.2-5.9,13.2-13.2"/><path fill="#B5B5B5" d="M140.2,97L140.2,97c0,4.5-3.7,8.2-8.2,8.2h-3.2c-4.5,0-8.2-3.7-8.2-8.2v0"/><path fill="#FFCE00" d="M127.2,115.2L127.2,115.2c0,4.5-3.7,8.2-8.2,8.2h-3.2c-4.5,0-8.2-3.7-8.2-8.2v0"/><path fill="#C6C6C6" d="M104.9,81.5L104.9,81.5c-0.4,0-0.8-0.4-0.8-0.8v-33c0-0.4,0.4-0.8,0.8-0.8l0,0c0.4,0,0.8,0.4,0.8,0.8v33	C105.7,81.1,105.4,81.5,104.9,81.5z"/><polyline fill="#D33131" points="64,95.1 104.9,63.9 80.4,95.1"/><polygon fill="#D33131" points="80.3,86.1 65.9,94.4 64,95.1 66.5,103.7 138.6,105.2 141.5,98.9 141.4,92.6 92,84.6"/><path fill="#BF2E2E" d="M141.5,129.7V95.2H64v46.5h65.4C136.1,141.7,141.5,136.3,141.5,129.7z"/><path fill="#D33131" d="M107.3,48l18.6,4.4c0.5,0.1,0.5,0.8,0,0.9l-18.6,4.4c-0.3,0.1-0.5-0.1-0.5-0.4v-8.8	C106.7,48.1,107,47.9,107.3,48z"/><polygon fill="#D33131" points="113.1,95.1 96.7,95.1 104.9,63.9"/><polygon fill="#FFCE00" points="96.7,95.1 80.3,95.1 104.9,63.9"/><polygon fill="#FFCE00" points="113.1,95.1 129.5,95.1 104.9,63.9"/><polygon fill="#D33131" points="129.4,95.1 141.5,95.1 141.5,91.8 104.9,63.9"/><rect x="80.4" y="95.1" fill="#E8A000" width="16.3" height="46.6"/><rect x="113.1" y="95.1" fill="#E8A000" width="16.3" height="46.6"/><path fill="#FFCE00" d="M96.8,95.1c0,4.5-3.7,8.2-8.2,8.2s-8.2-3.7-8.2-8.2"/><path fill="#D33131" d="M80.4,95.1c0,4.5-3.7,8.2-8.2,8.2c-4.5,0-8.2-3.7-8.2-8.2"/><path fill="#D33131" d="M113.1,95.1c0,4.5-3.7,8.2-8.2,8.2s-8.2-3.7-8.2-8.2"/><path fill="#FFCE00" d="M129.5,95.1c0,4.5-3.7,8.2-8.2,8.2c-4.5,0-8.2-3.7-8.2-8.2"/><path fill="#D33131" d="M141.5,95.1h-12c0,4.5,3.7,8.2,8.2,8.2c1.4,0,2.7-0.3,3.8-1V95.1z"/><polygon fill="#871E1E" points="85.4,141.7 104.9,105.9 124.4,141.7"/><path fill="#D33131" d="M137.6,138.5l-32.7-32.6l19.5,35.9h5C132.6,141.7,135.5,140.5,137.6,138.5z"/><polygon fill="#D33131" points="85.5,141.7 104.9,105.9 69,141.7"/></svg>