<?xml version="1.0" encoding="utf-8"?><!DOCTYPE svg PUBLIC "-//W3C//DTD SVG 1.1//EN" "http://www.w3.org/Graphics/SVG/1.1/DTD/svg11.dtd"><svg version="1.1" xmlns="http://www.w3.org/2000/svg" xmlns:xlink="http://www.w3.org/1999/xlink" x="0px" y="0px" width="150px" height="150px" viewBox="0 0 150 150" enable-background="new 0 0 150 150" xml:space="preserve"><g id="Layer_2" display="none"><rect x="-1020" y="-1357.3" display="inline" fill="#F0F0F0" width="1680" height="1677.3"/></g><g id="Layer_1"/><g id="Layer_3"><path fill="#FFC715" d="M75.2,128.6L75.2,128.6c-14,0-25.4-11.4-25.4-25.4v-9.5c0-14,11.4-25.4,25.4-25.4h0 c14,0,25.4,11.4,25.4,25.4v9.5C100.6,117.2,89.2,128.6,75.2,128.6z"/><path fill="#353535" d="M81.2,78.2H69.3c-9.2,0-16.6-7.5-16.6-16.6v0c0-9.2,7.5-16.6,16.6-16.6h11.8c9.2,0,16.6,7.5,16.6,16.6v0 C97.8,70.7,90.3,78.2,81.2,78.2z"/><path fill="#353535" d="M80.1,53.8h-9.8c-5.7,0-10.4-4.7-10.4-10.4v0c0-5.7,4.7-10.4,10.4-10.4h9.8c5.7,0,10.4,4.7,10.4,10.4v0 C90.5,49.1,85.8,53.8,80.1,53.8z"/><g><path fill="#353535" d="M75.2,33.4c-5.7,0-10.3-4.6-10.3-10.3c0-0.9,0.7-1.6,1.6-1.6s1.6,0.7,1.6,1.6c0,3.9,3.2,7.2,7.2,7.2 c3.9,0,7.2-3.2,7.2-7.2c0-0.9,0.7-1.6,1.6-1.6s1.6,0.7,1.6,1.6C85.5,28.8,80.9,33.4,75.2,33.4z"/></g><path fill="#D8D8D8" d="M64.3,57l-14,24.2c-10,17.3-34.9,17.3-44.9,0l0,0C-0.8,70.4,7,57,19.4,57H64.3z"/><path fill="#D8D8D8" d="M86.1,57l14,24.2c10,17.3,34.9,17.3,44.9,0l0,0c6.2-10.8-1.6-24.2-14-24.2H86.1z"/><rect x="49.8" y="89" fill="#353535" width="50.8" height="14.6"/></g></svg>