<?xml version="1.0" encoding="utf-8"?><!DOCTYPE svg PUBLIC "-//W3C//DTD SVG 1.1//EN" "http://www.w3.org/Graphics/SVG/1.1/DTD/svg11.dtd"><svg version="1.1" id="Layer_1" xmlns="http://www.w3.org/2000/svg" xmlns:xlink="http://www.w3.org/1999/xlink" x="0px" y="0px" width="150px" height="150px" viewBox="0 0 150 150" enable-background="new 0 0 150 150" xml:space="preserve"><polygon fill="#C6C6C6" points="126.4,27.5 122.1,31.4 117.7,27.5 113.5,31.3 109.3,27.5 104.9,31.4 100.6,27.5 96.3,31.4 91.9,27.5 87.7,31.3 83.5,27.5 79.2,31.4 74.8,27.5 70.6,31.3 66.4,27.5 62,31.4 57.7,27.5 53.5,31.3 49.3,27.5 44.9,31.4 40.6,27.5 36.4,31.3 32.1,27.5 27.8,31.4 27.8,31.4 27.8,55.6 130.6,55.6 130.6,31.4 130.7,31.4"/><path fill="#FFFFFF" d="M124.5,119.7c0.2-1.1,1.2-2.6,2.3-3c0.1,0,0.2-0.1,0.2-0.1c0.4-0.3,0.9-0.6,1.4-0.7l-8.6-76H19.1V112	c0,5.2,4.3,9.5,9.5,9.5h95.8C124.3,120.9,124.4,120.3,124.5,119.7z"/><path fill="#C6C6C6" d="M130.6,39.7h-15.5v73.9c0,3.3,2.1,6.4,5.3,7.4c5.4,1.7,10.3-2.3,10.3-7.4V39.7z"/><rect x="54" y="67.1" fill="#DDDDDD" width="19.8" height="46"/><rect x="30.1" y="67.1" fill="#DDDDDD" width="19.8" height="46"/><rect x="79.3" y="68.7" fill="#97DCF2" width="28.4" height="31.1"/><polygon fill="#7AC70C" points="88.2,82.5 79.3,93.7 79.3,99.8 102,99.8"/><circle fill="#FFFFFF" cx="100.5" cy="76.3" r="3.5"/><polygon fill="#FFFFFF" points="19.1,39.8 23.5,35.8 27.9,39.8"/><polygon fill="#FFFFFF" points="27.7,39.8 32.1,35.8 36.5,39.8"/><polygon fill="#FFFFFF" points="36.5,39.8 40.9,35.8 45.4,39.8"/><polygon fill="#FFFFFF" points="45.1,39.8 49.5,35.8 54,39.8"/><polygon fill="#FFFFFF" points="54,39.8 58.4,35.8 62.8,39.8"/><polygon fill="#FFFFFF" points="62.6,39.8 67,35.8 71.4,39.8"/><polygon fill="#FFFFFF" points="71.4,39.8 75.8,35.8 80.2,39.8"/><polygon fill="#FFFFFF" points="80,39.8 84.4,35.8 88.8,39.8"/><polygon fill="#FFFFFF" points="88.8,39.8 93.3,35.8 97.7,39.8"/><polygon fill="#FFFFFF" points="97.7,39.8 102.1,35.8 106.5,39.8"/><polygon fill="#FFFFFF" points="106.3,39.8 110.7,35.8 115.1,39.8"/><rect x="35.8" y="47.3" fill="#DDDDDD" width="61.2" height="11.5"/></svg>