<?xml version="1.0" encoding="utf-8"?><!DOCTYPE svg PUBLIC "-//W3C//DTD SVG 1.1//EN" "http://www.w3.org/Graphics/SVG/1.1/DTD/svg11.dtd"><svg version="1.1" id="Layer_1" xmlns="http://www.w3.org/2000/svg" xmlns:xlink="http://www.w3.org/1999/xlink" x="0px" y="0px" width="150px" height="150px" viewBox="0 0 150 150" enable-background="new 0 0 150 150" xml:space="preserve"><g><circle fill="#FFB5A1" cx="53.4" cy="23.4" r="10.9"/><circle fill="#FFB5A1" cx="72.4" cy="23.4" r="7"/><circle fill="#FFB5A1" cx="87.3" cy="26" r="7"/><circle fill="#FFB5A1" cx="101.5" cy="33.5" r="6.1"/><path fill="#FFB5A1" d="M80.1,34.3h-7.7c-13.3,0-24.2,10.9-24.2,24.2c0,5.6,1.9,10.7,5.1,14.8v0.1c3.7,4.5,5.9,10.3,5.9,16.5v1.4 c0,3.6-0.7,7-2,10.1c0.1,0.1,0.1,0.2,0.2,0.2c-2.5,3.8-3.9,8.3-3.9,13.1v0c0,13.3,10.9,24.2,24.2,24.2h2.4 c13.3,0,24.2-10.9,24.2-24.2v0c0-0.2,0-0.4,0-0.6h0V88.9v-2.6V58.9c0-0.1,0-0.1,0-0.2c0-0.1,0-0.1,0-0.2 C104.3,45.2,93.4,34.3,80.1,34.3z"/></g></svg>