<?xml version="1.0" encoding="utf-8"?><!DOCTYPE svg PUBLIC "-//W3C//DTD SVG 1.1//EN" "http://www.w3.org/Graphics/SVG/1.1/DTD/svg11.dtd"><svg version="1.1" id="Layer_1" xmlns="http://www.w3.org/2000/svg" xmlns:xlink="http://www.w3.org/1999/xlink" x="0px" y="0px" width="150px" height="150px" viewBox="0 0 150 150" enable-background="new 0 0 150 150" xml:space="preserve"><path fill="#AD6331" d="M75.8,112L75.8,112c-1.4-1.4-1.4-3.6,0-4.9l51.3-51.3c1.4-1.4,3.6-1.4,4.9,0v0c1.4,1.4,1.4,3.6,0,4.9	L80.7,112C79.3,113.3,77.1,113.3,75.8,112z"/><path fill="#757575" d="M126.1,88.5h-7.3v-4.7h0.2c1.4,0,2.4-1.1,2.4-2.4s-1.1-2.4-2.4-2.4h-0.2H35.1h-0.3c-1.4,0-2.4,1.1-2.4,2.4	s1.1,2.4,2.4,2.4h0.3v4.7H28c-2.9,0-5.3,2.4-5.3,5.3c0,2.9,2.4,5.3,5.3,5.3h7.1v41.8c0,4.2,3.4,7.6,7.6,7.6h68.6	c4.2,0,7.6-3.4,7.6-7.6V99.1h7.3c2.9,0,5.3-2.4,5.3-5.3C131.4,90.9,129,88.5,126.1,88.5z"/><path fill="#757575" d="M116.5,92.7c0.4-1.7,0.8-3.5,1-5.3H38.2c0.2,1.8,0.5,3.6,1,5.3H116.5z"/><path fill="#8E8E8E" d="M101.3,139L101.3,139c-3.3,0-6-2.7-6-6V98.5c0-3.3,2.7-6,6-6h0c3.3,0,6,2.7,6,6v34.6	C107.2,136.4,104.5,139,101.3,139z"/><path fill="#FFFFFF" d="M118.1,1.7h-57c-0.3,0-0.5,0-0.8,0C70.5,2.2,78.7,10.7,78.7,21v0c0,10.3-8.2,18.8-18.5,19.3	c0.3,0,0.5,0,0.8,0H43.2c-10.6,0-19.3,8.7-19.3,19.3v0c0,10.6,8.7,19.3,19.3,19.3h74.9c0.3,0,0.5,0,0.8,0	c-10.2-0.4-18.5-8.9-18.5-19.3v0c0-10.3,8.2-18.8,18.5-19.3c-0.3,0-0.5,0-0.8,0h0c10.6,0,19.3-8.7,19.3-19.3v0	C137.4,10.4,128.7,1.7,118.1,1.7z"/><path fill="#86B20D" d="M52,18.7c-0.7,3.9,0.5,8.1,3.5,11.1s7.2,4.2,11.1,3.5L52,18.7z"/><path fill="#88C11A" d="M66.6,33.3c0.7-3.9-0.5-8.1-3.5-11.1S55.9,18,52,18.7L66.6,33.3z"/><g><ellipse transform="matrix(0.5269 0.8499 -0.8499 0.5269 79.503 -20.2009)" fill="#AD2A2A" cx="57.9" cy="61.3" rx="10.4" ry="17.8"/><rect x="54.2" y="41.5" transform="matrix(0.5269 0.8499 -0.8499 0.5269 77.1743 -20.0912)" fill="#AD2A2A" width="4.8" height="35.6"/><ellipse transform="matrix(0.5269 0.8499 -0.8499 0.5269 74.8458 -19.9815)" fill="#CC2F2F" cx="55.4" cy="57.2" rx="10.4" ry="17.8"/><ellipse transform="matrix(0.5269 0.8499 -0.8499 0.5269 74.8372 -20.1612)" fill="#AD2A2A" cx="55.5" cy="57.1" rx="7.2" ry="14.1"/><path fill="#D1503B" d="M45.8,63.8l-0.4-0.6c-0.5-0.8-0.2-1.8,0.5-2.3l17.1-10.6c0.8-0.5,1.8-0.2,2.3,0.5l0.4,0.6 c0.5,0.8,0.2,1.8-0.5,2.3L48.1,64.3C47.3,64.8,46.3,64.6,45.8,63.8z"/><path fill="#D1503B" d="M59.1,62.3l-0.6,0.4c-0.8,0.5-1.8,0.2-2.3-0.5l-4.5-7.3c-0.5-0.8-0.2-1.8,0.5-2.3l0.6-0.4 c0.8-0.5,1.8-0.2,2.3,0.5l4.5,7.3C60.1,60.7,59.9,61.8,59.1,62.3z"/><circle fill="#D1503B" cx="57.5" cy="51.2" r="0.9"/><circle fill="#D1503B" cx="61.9" cy="58.4" r="0.9"/><circle fill="#D1503B" cx="49.3" cy="56.3" r="0.9"/><circle fill="#D1503B" cx="53.7" cy="63.4" r="0.9"/></g><g><path fill="#EFAC54" d="M112,54.2l-1.9-1.3l1.4-1.8c0.4-0.5,0.3-1.2-0.2-1.5l-1.9-1.3L99,56.7l-12.4-4.8l-1.4,1.8 c-0.4,0.5-0.3,1.2,0.2,1.5l1.9,1.3l-1.4,1.8c-0.4,0.5-0.3,1.2,0.2,1.5L88,61l-1.4,1.8c-0.4,0.5-0.3,1.2,0.2,1.5l1.9,1.3l-1.4,1.8 c-0.4,0.5-0.3,1.2,0.2,1.5l1.9,1.3l0,0l10.4-8.3l12.4,4.8l0,0l1.4-1.8c0.4-0.5,0.3-1.2-0.2-1.5l-1.9-1.3l1.4-1.8 c0.4-0.5,0.3-1.2-0.2-1.5l-1.9-1.3l1.4-1.8C112.6,55.3,112.5,54.5,112,54.2z"/><path fill="#E09944" d="M96.4,61.2l-1.8,0.3c-0.7,0.1-1.4-0.4-1.5-1.1l0-0.2c-0.1-0.7,0.4-1.4,1.1-1.5l1.8-0.3 c0.7-0.1,1.4,0.4,1.5,1.1l0,0.2C97.6,60.4,97.1,61.1,96.4,61.2z"/><path fill="#E09944" d="M104.8,59.9l-1.8,0.3c-0.7,0.1-1.4-0.4-1.5-1.1l0-0.2c-0.1-0.7,0.4-1.4,1.1-1.5l1.8-0.3 c0.7-0.1,1.4,0.4,1.5,1.1l0,0.2C106,59.1,105.5,59.8,104.8,59.9z"/></g><g><path fill="#EFAC54" d="M101.6,33.4l-0.1-2.2l2.2,0.1c0.6,0,1.1-0.5,1.1-1.1l-0.1-2.2l-12.9-3.4l-3.4-12.9l-2.2-0.1 c-0.6,0-1.1,0.5-1.1,1.1l0.1,2.2L83,14.7c-0.6,0-1.1,0.5-1.1,1.1l0.1,2.2L79.7,18c-0.6,0-1.1,0.5-1.1,1.1l0.1,2.2l-2.2-0.1 c-0.6,0-1.1,0.5-1.1,1.1l0.1,2.2l0,0l12.9,3.4l3.4,12.9l0,0L94,41c0.6,0,1.1-0.5,1.1-1.1L95,37.7l2.2,0.1c0.6,0,1.1-0.5,1.1-1.1 l-0.1-2.2l2.2,0.1C101.1,34.5,101.6,34,101.6,33.4z"/><path fill="#E09944" d="M86.8,24.9l-1.3-1.3c-0.5-0.5-0.5-1.4,0-1.9l0.2-0.2c0.5-0.5,1.4-0.5,1.9,0l1.3,1.3c0.5,0.5,0.5,1.4,0,1.9 l-0.2,0.2C88.1,25.5,87.3,25.5,86.8,24.9z"/><path fill="#E09944" d="M92.8,31l-1.3-1.3c-0.5-0.5-0.5-1.4,0-1.9l0.2-0.2c0.5-0.5,1.4-0.5,1.9,0l1.3,1.3c0.5,0.5,0.5,1.4,0,1.9 L94.7,31C94.1,31.5,93.3,31.5,92.8,31z"/></g><path fill="#6BA80C" d="M50.1,148.5H28.7c-9.3,0-17-7.6-17-17v0c0-9.3,7.6-17,17-17h21.4c9.3,0,17,7.6,17,17v0	C67.1,140.9,59.4,148.5,50.1,148.5z"/><circle fill="#81B510" cx="28.7" cy="131.6" r="17"/><circle fill="#A6CC5C" cx="28.7" cy="131.6" r="15.1"/><path fill="#B3DD64" d="M28.9,128.9h-0.2c-1.1,0-1.9-0.9-1.9-1.9v-3c0-1.1,0.9-1.9,1.9-1.9h0.2c1.1,0,1.9,0.9,1.9,1.9v3	C30.8,128,29.9,128.9,28.9,128.9z"/><path fill="#B3DD64" d="M28.9,141.4h-0.2c-1.1,0-1.9-0.9-1.9-1.9l0-3c0-1.1,0.9-1.9,1.9-1.9h0.2c1.1,0,1.9,0.9,1.9,1.9v3	C30.8,140.5,29.9,141.4,28.9,141.4z"/><path fill="#B3DD64" d="M26.1,131.4v0.2c0,1.1-0.9,1.9-1.9,1.9h-3c-1.1,0-1.9-0.9-1.9-1.9v-0.2c0-1.1,0.9-1.9,1.9-1.9h3	C25.2,129.5,26.1,130.4,26.1,131.4z"/><path fill="#B3DD64" d="M38.3,131.7v0.2c0,1.1-0.9,1.9-1.9,1.9h-3c-1.1,0-1.9-0.9-1.9-1.9v-0.2c0-1.1,0.9-1.9,1.9-1.9h3	C37.4,129.8,38.3,130.6,38.3,131.7z"/><circle fill="#61910C" cx="53.5" cy="138.8" r="3.8"/><circle fill="#61910C" cx="55.5" cy="123.7" r="2.6"/><circle fill="#6BA80C" cx="45.1" cy="115.4" r="3.8"/></svg>