<?xml version="1.0" encoding="utf-8"?><!DOCTYPE svg PUBLIC "-//W3C//DTD SVG 1.1//EN" "http://www.w3.org/Graphics/SVG/1.1/DTD/svg11.dtd"><svg version="1.1" id="Layer_1" xmlns="http://www.w3.org/2000/svg" xmlns:xlink="http://www.w3.org/1999/xlink" x="0px" y="0px" width="150px" height="150px" viewBox="0 0 150 150" enable-background="new 0 0 150 150" xml:space="preserve"><rect x="105.8" y="35.2" fill="#353535" width="17.1" height="9.4"/><rect x="26.8" y="39.7" fill="#353535" width="17.1" height="4.9"/><rect x="18.9" y="43" fill="#353535" width="113.5" height="69"/><rect x="18.9" y="43" fill="#AAAAAA" width="113.5" height="18"/><rect x="104" y="45.8" fill="#CCCCCC" width="19.3" height="12.5"/><polygon fill="#CCCCCC" points="77.1,58.3 98.6,58.3 98.6,45.8 83.9,45.8"/><circle fill="#AAAAAA" cx="75.6" cy="80.2" r="29.5"/><circle fill="#353535" cx="75.6" cy="80.2" r="26.3"/><circle fill="#5DB3D8" cx="75.6" cy="80.2" r="21.5"/><path fill="none" stroke="#68C8EA" stroke-width="4" stroke-linecap="round" stroke-linejoin="round" stroke-miterlimit="10" d="M58.9,80.2c0-9.2,7.5-16.7,16.7-16.7"/><path fill="none" stroke="#49A8C1" stroke-width="4" stroke-linecap="round" stroke-linejoin="round" stroke-miterlimit="10" d="M92.3,80.2c0,9.2-7.5,16.7-16.7,16.7"/><rect x="18.9" y="112" fill="#AAAAAA" width="113.5" height="4.8"/></svg>