<?xml version="1.0" encoding="utf-8"?><!DOCTYPE svg PUBLIC "-//W3C//DTD SVG 1.1//EN" "http://www.w3.org/Graphics/SVG/1.1/DTD/svg11.dtd"><svg version="1.1" id="Layer_1" xmlns="http://www.w3.org/2000/svg" xmlns:xlink="http://www.w3.org/1999/xlink" x="0px" y="0px" width="150px" height="150px" viewBox="0 0 150 150" enable-background="new 0 0 150 150" xml:space="preserve"><path fill="#FFFFFF" d="M137.9,99.8h-127c-2.9,0-5.3-2.4-5.3-5.3V46.3c0-2.9,2.4-5.3,5.3-5.3h127c2.9,0,5.3,2.4,5.3,5.3v48.2	C143.2,97.4,140.8,99.8,137.9,99.8z"/><rect x="5.5" y="84.2" fill="#1CB0F6" width="137.6" height="15.6"/><rect x="5.5" y="79.4" fill="#CC2F2F" width="137.6" height="2.9"/><path fill="#13A0D8" d="M21,99.8c0-6.9,5.6-12.4,12.4-12.4S45.9,93,45.9,99.8"/><circle cx="33.4" cy="99.8" r="11.1"/><path fill="#96EDE0" d="M110.2,77.2H14.5c-1.1,0-1.9-0.9-1.9-1.9V52.8c0-1.1,0.9-1.9,1.9-1.9h95.7c1.1,0,1.9,0.9,1.9,1.9v22.5	C112.2,76.3,111.3,77.2,110.2,77.2z"/><path fill="#96EDE0" d="M143.2,77.2V50.8h-2.9c-1.4,0-2.5,1.1-2.5,2.5v21.3c0,1.4,1.1,2.5,2.5,2.5H143.2z"/><path fill="#13A0D8" d="M89.5,99.8c0-6.9,5.6-12.4,12.4-12.4c6.9,0,12.4,5.6,12.4,12.4"/><circle fill="#B5B5B5" cx="33.5" cy="99.8" r="5.6"/><circle cx="101.9" cy="99.8" r="11.1"/><circle fill="#B5B5B5" cx="102" cy="99.8" r="5.6"/><circle cx="102" cy="99.8" r="2.3"/><circle cx="33.5" cy="99.8" r="2.3"/><path fill="#96EDE0" d="M123.2,96.1h-5c-0.8,0-1.4-0.6-1.4-1.4V53.3c0-0.8,0.6-1.4,1.4-1.4h5c0.8,0,1.4,0.6,1.4,1.4v41.3	C124.6,95.4,124,96.1,123.2,96.1z"/><path fill="#96EDE0" d="M132.9,96.1h-5c-0.8,0-1.4-0.6-1.4-1.4V53.3c0-0.8,0.6-1.4,1.4-1.4h5c0.8,0,1.4,0.6,1.4,1.4v41.3	C134.3,95.4,133.6,96.1,132.9,96.1z"/><path d="M142.7,97.4h-1.2c-1.6,0-2.9-1.3-2.9-2.9v-3.9c0-1.6,1.3-2.9,2.9-2.9h1.2c1.6,0,2.9,1.3,2.9,2.9v3.9	C145.6,96,144.3,97.4,142.7,97.4z"/><path d="M7.3,97.4H6.2c-1.6,0-2.9-1.3-2.9-2.9v-3.9c0-1.6,1.3-2.9,2.9-2.9h1.2c1.6,0,2.9,1.3,2.9,2.9v3.9C10.3,96,9,97.4,7.3,97.4z"/><rect x="76.7" y="50.8" fill="#FFFFFF" width="4.3" height="26.4"/><rect x="42.8" y="50.8" fill="#FFFFFF" width="4.3" height="26.4"/></svg>