<?xml version="1.0" encoding="utf-8"?><!DOCTYPE svg PUBLIC "-//W3C//DTD SVG 1.1//EN" "http://www.w3.org/Graphics/SVG/1.1/DTD/svg11.dtd"><svg version="1.1" id="Layer_1" xmlns="http://www.w3.org/2000/svg" xmlns:xlink="http://www.w3.org/1999/xlink" x="0px" y="0px" width="150px" height="150px" viewBox="0 0 150 150" enable-background="new 0 0 150 150" xml:space="preserve"><g><path fill="#00BDFF" d="M17.8,104.5c0-3,1.6-4.6,4.6-4.6h12.7V55.8c0-2.7,0.1-5.4,0.1-5.4H35c0,0-1,2.1-3,4l-3.5,3.4 c-2.2,2-4.5,2-6.5-0.2l-2.1-2.2c-2.1-2.1-2-4.5,0.1-6.6l14.1-13.6c1.8-1.6,3.5-2.4,5.8-2.4h4.7c3,0,4.6,1.7,4.6,4.7v62.4h12.5 c3,0,4.7,1.6,4.7,4.6v3.1c0,3.1-1.7,4.7-4.7,4.7H22.4c-3,0-4.6-1.6-4.6-4.7V104.5z"/><path fill="#00BDFF" d="M63.6,87.3v-1.1c0-2.2,0.4-3.9,1.7-5.7L96,35.9c1.3-2.1,3-3,5.6-3h8.7c3.1,0,4.7,1.7,4.7,4.7v42.3h5.6 c3,0,4.7,1.6,4.7,4.6v2.8c0,3-1.3,4.6-3.8,4.6H115v15.8c0,3.1-1.6,4.7-4.7,4.7h-4.9c-3,0-4.6-1.6-4.6-4.7V91.9H68.2 C65.2,91.9,63.6,90.3,63.6,87.3z M100.8,79.9V55.2c0-3.9,0.6-8.3,0.6-8.3h-0.2c0,0-1.8,4.3-3.9,7.3L78.9,79.7v0.2H100.8z"/></g></svg>