<?xml version="1.0" encoding="utf-8"?><!DOCTYPE svg PUBLIC "-//W3C//DTD SVG 1.1//EN" "http://www.w3.org/Graphics/SVG/1.1/DTD/svg11.dtd"><svg version="1.1" id="Layer_1" xmlns="http://www.w3.org/2000/svg" xmlns:xlink="http://www.w3.org/1999/xlink" x="0px" y="0px" width="150px" height="150px" viewBox="0 0 150 150" enable-background="new 0 0 150 150" xml:space="preserve"><rect x="46" y="64" fill="#5B332D" width="57" height="45.4"/><path fill="#BF7358" d="M43,147.3v-7.8c0-17.4,14.1-31.4,31.4-31.4h0c17.4,0,31.4,14.1,31.4,31.4v7.8"/><path fill="#BF7358" d="M120.3,116.7L120.3,116.7c-1.8,0-3.3-1.5-3.3-3.3V97.7c0-1.8,1.5-3.3,3.3-3.3l0,0c1.8,0,3.3,1.5,3.3,3.3	v15.7C123.6,115.2,122.1,116.7,120.3,116.7z"/><path fill="#BF7358" d="M111.9,116.7L111.9,116.7c-1.8,0-3.3-1.5-3.3-3.3V97.7c0-1.8,1.5-3.3,3.3-3.3h0c1.8,0,3.3,1.5,3.3,3.3v15.7	C115.3,115.2,113.8,116.7,111.9,116.7z"/><path fill="#BF7358" d="M128.7,116.7L128.7,116.7c-1.8,0-3.3-1.5-3.3-3.3V97.7c0-1.8,1.5-3.3,3.3-3.3l0,0c1.8,0,3.3,1.5,3.3,3.3	v15.7C132,115.2,130.5,116.7,128.7,116.7z"/><path fill="#BF7358" d="M115.6,120l-8.1-6.6c-1.3-1.5-3.6-1.7-5.1-0.4c-1.5,1.3-1.7,3.6-0.4,5.1l8.1,6.6c1.3,1.5,3.6,1.7,5.1,0.4	C116.7,123.9,116.9,121.6,115.6,120z"/><path fill="#BF7358" d="M132,108v10.6c0,6.4-5.3,11.7-11.7,11.7h0c-6.4,0-11.7-5.3-11.7-11.7V108"/><rect x="124.8" y="104.8" fill="#FFDA00" width="7.9" height="3.3"/><rect x="112.7" y="120" fill="#BF7358" width="13.3" height="28.2"/><path fill="#B5634B" d="M74.5,90c-5.3,0-9.7,4.3-9.7,9.5v11.3c0,5.2,4.4,9.5,9.7,9.5c5.3,0,9.7-4.3,9.7-9.5V99.4	C84.2,94.2,79.8,90,74.5,90z"/><ellipse fill="#B7674E" cx="47.8" cy="80" rx="6.8" ry="6.4"/><ellipse fill="#B7674E" cx="101.2" cy="80" rx="6.8" ry="6.4"/><path fill="#BF7358" d="M47.6,52.9v9.6v11.3v10.6c0,13.8,12.1,25.1,26.8,25.1l0,0c14.8,0,26.8-11.3,26.8-25.1V52.9"/><ellipse fill="#A85F48" cx="61.3" cy="70.1" rx="3.3" ry="3.1"/><ellipse fill="#A85F48" cx="87.6" cy="70.1" rx="3.3" ry="3.1"/><rect x="70.1" y="67.1" fill="#AD523D" width="8.8" height="12.1"/><path fill="#AA403D" d="M56.8,83.8c0,9.1,7.9,16.5,17.6,16.5s17.6-7.4,17.6-16.5"/><path fill="#FFFFFF" d="M91,89.5H57.9c-0.7-1.8-1.1-3.7-1.1-5.7h35.3C92.1,85.8,91.7,87.7,91,89.5z"/><path fill="#5B332D" d="M79.3,54.5l6.2,10h20.1c0-16-14-29.1-31.1-29.1l0,0c-17.1,0-31.1,13.1-31.1,29.1h35.9V54.5z"/><circle fill="#FFFFFF" cx="46.5" cy="31.1" r="29.7"/><path fill="#FFFFFF" d="M52.4,71c-8.4,0-15.3-6.8-15.3-15.3S44,40.5,52.4,40.5"/><g><path fill="#FF9797" d="M46.4,47.6c-0.1,0-0.3,0-0.4-0.1c-0.1,0-0.2-0.1-0.3-0.2c-7.2-5.6-10.7-8.7-12.7-11.3 c-2.3-2.9-2.8-5.2-2.8-8.1c0,0,0-0.1,0-0.1c0-4.9,4-9,9-9c2.9,0,5.6,1.4,7.3,3.7c1.7-2.3,4.4-3.7,7.3-3.7c4.9,0,9,4,9,9 c0,0,0,0.1,0,0.1c0,2.9-0.5,5.2-2.8,8.1c-2,2.6-5.5,5.6-12.7,11.3c-0.1,0.1-0.2,0.1-0.3,0.2C46.7,47.6,46.5,47.6,46.4,47.6z"/></g><path fill="#FFFFFF" d="M88.8,111.4v7.4c-0.2,7.8-6.6,14.1-14.5,14.1h0c-8,0-14.6-6.5-14.6-14.4v-7.1h-10v36.2h10l0,0h29.1l0,0h10	v-36.2H88.8z"/><circle fill="#FFFFFF" cx="74.5" cy="120.7" r="2.9"/><circle fill="#FFFFFF" cx="81.5" cy="117.8" r="2.9"/><circle fill="#FFFFFF" cx="85.8" cy="112.2" r="2.9"/><circle fill="#FFFFFF" cx="67.4" cy="117.8" r="2.9"/><circle fill="#FFFFFF" cx="63.2" cy="112.2" r="2.9"/></svg>