<?xml version="1.0" encoding="utf-8"?><!DOCTYPE svg PUBLIC "-//W3C//DTD SVG 1.1//EN" "http://www.w3.org/Graphics/SVG/1.1/DTD/svg11.dtd"><svg version="1.1" id="Layer_1" xmlns="http://www.w3.org/2000/svg" xmlns:xlink="http://www.w3.org/1999/xlink" x="0px" y="0px" width="150px" height="150px" viewBox="0 0 150 150" enable-background="new 0 0 150 150" xml:space="preserve"><polygon fill="#FFFFFF" points="100.9,139.4 9.5,139.4 9.5,93.9 100.9,102.9"/><rect x="14.2" y="108.4" fill="#168AB7" width="83.3" height="3"/><rect x="14.2" y="118.4" fill="#168AB7" width="83.3" height="3"/><rect x="14.2" y="128.4" fill="#168AB7" width="83.3" height="3"/><g><path fill="#1CB0F6" d="M94.1,51.7c0-22.9-18.6-41.5-41.5-41.5S11.1,28.8,11.1,51.7c0,14.4,7.3,27.1,18.5,34.6l23,20.4l23-20.4 C86.8,78.8,94.1,66.1,94.1,51.7z"/></g><path fill="#FFFFFF" d="M141.1,139.4c-10.2-15.3-27.6-25.3-47.4-25.3s-37.2,10.1-47.4,25.3H141.1z"/><path fill="#D6D6D6" d="M93.7,114.1c-19.8,0-37.2,10.1-47.4,25.3h1.2c10.5-15.2,27.7-24.3,46.2-24.3c18.5,0,35.7,9.1,46.2,24.3h1.2	C130.9,124.1,113.5,114.1,93.7,114.1z"/><path fill="#168AB7" d="M129.2,139.4c-7.9-11.1-20.8-18.3-35.5-18.3s-27.6,7.2-35.5,18.3H129.2z"/><path fill="#FFFFFF" d="M74.8,55.3l0-2l-6.2-2.5c-0.2-0.2-0.4-0.3-0.6-0.3c0,0,0,0,0,0l-2.7-1.1v-3.9h-5.5v1.7l-2-0.8V34.5	c0-2.4-2-4.4-4.4-4.4l0,0c-2.4,0-4.4,2-4.4,4.4v11.8l-2.1,0.9v-1.7h-5.5v3.9l-2.6,1.1c0,0,0,0-0.1,0c-0.3,0-0.5,0.1-0.7,0.3	l-6.2,2.5l0,2h5.9v1.7c0,0.5,0.4,0.9,0.9,0.9c0.5,0,0.9-0.4,0.9-0.9v-1.7h3.3v1.7c0,0.5,0.4,0.9,0.9,0.9c0.5,0,0.9-0.4,0.9-0.9v-1.7	h4.3v1c0,0,0,0,0,0v7.4c0,1.8,1.1,3.3,2.6,4l-8.1,5.1l0,0.9l9.1-1.1v2c0,0.4,0.4,0.8,0.8,0.8c0.4,0,0.8-0.4,0.8-0.8v-2l5.4,0.6v0	l3.7,0.4l0-0.9l-3.7-2.3v0l-4.4-2.8c1.5-0.7,2.6-2.2,2.6-4v-7.4c0,0,0,0,0,0v-1h4.2v1.7c0,0.5,0.4,0.9,0.9,0.9	c0.5,0,0.9-0.4,0.9-0.9v-1.7H67v1.7c0,0.5,0.4,0.9,0.9,0.9s0.9-0.4,0.9-0.9v-1.7H74.8z"/><rect x="106" y="79.6" fill="#FFFFFF" width="18" height="59.8"/><polygon fill="#168AB7" points="129.5,96.3 100,96.3 97,72.7 132.5,72.7"/><polygon fill="#168AB7" points="124.7,72.7 104.9,72.7 102.9,61.6 126.7,61.6"/><path fill="#FFFFFF" d="M117.3,51.9c1.8,1.8,1.8,4.8,0,6.6c-1.8,1.8-4.8,1.8-6.6,0"/><path fill="#FFFFFF" d="M133,74.4H96.6c-0.5,0-1-0.4-1-1l0,0c0-0.5,0.4-1,1-1H133c0.5,0,1,0.4,1,1l0,0	C133.9,73.9,133.5,74.4,133,74.4z"/><path fill="#FFFFFF" d="M127,63.4h-25.2c-0.5,0-1-0.4-1-1l0,0c0-0.5,0.4-1,1-1H127c0.5,0,1,0.4,1,1l0,0	C128,62.9,127.6,63.4,127,63.4z"/><rect x="113.8" y="63.4" fill="#1BA4CE" width="2" height="9.1"/><polygon fill="#1BA4CE" points="110.8,72.4 108.8,72.4 107.8,63.4 109.8,63.4"/><polygon fill="#1BA4CE" points="120.8,72.4 118.8,72.4 119.8,63.4 121.8,63.4"/><rect x="113.8" y="74.4" fill="#1BA4CE" width="2" height="21.9"/><polygon fill="#1BA4CE" points="108.8,96.3 106.8,96.3 104.8,74.4 106.8,74.4"/><polygon fill="#1BA4CE" points="122.8,96.3 120.8,96.3 122.8,74.4 124.8,74.4"/><path fill="#1BA4CE" d="M94.7,121.1c-0.3,0-0.7,0-1,0s-0.7,0-1,0v18.3h2V121.1z"/><path fill="#1BA4CE" d="M84.7,122c-0.7,0.1-1.3,0.3-2,0.5v16.9h2V122z"/><path fill="#1BA4CE" d="M74.7,125.4c-0.7,0.3-1.3,0.7-2,1v12.9h2V125.4z"/><path fill="#1BA4CE" d="M104.7,122.5c-0.7-0.2-1.3-0.3-2-0.5v17.4h2V122.5z"/></svg>