<?xml version="1.0" encoding="utf-8"?><!DOCTYPE svg PUBLIC "-//W3C//DTD SVG 1.1//EN" "http://www.w3.org/Graphics/SVG/1.1/DTD/svg11.dtd"><svg version="1.1" id="Layer_1" xmlns="http://www.w3.org/2000/svg" xmlns:xlink="http://www.w3.org/1999/xlink" x="0px" y="0px" width="150px" height="150px" viewBox="0 0 150 150" enable-background="new 0 0 150 150" xml:space="preserve"><linearGradient id="SVGID_1_" gradientUnits="userSpaceOnUse" x1="75.4039" y1="139.5722" x2="75.4039" y2="8.7645"><stop offset="0" style="stop-color:#B3F6E3"/><stop offset="1" style="stop-color:#62C9DA"/></linearGradient><path fill="url(#SVGID_1_)" d="M128.7,139.6H22.1c-6.7,0-12.1-5.4-12.1-12.1V20.8c0-6.7,5.4-12.1,12.1-12.1h106.7	c6.7,0,12.1,5.4,12.1,12.1v106.7C140.8,134.2,135.4,139.6,128.7,139.6z"/><path fill="#7AC70C" d="M20.8,139.6H130c6,0,10.8-4.9,10.8-10.8v-27.5H10v27.5C10,134.7,14.9,139.6,20.8,139.6z"/><path fill="#60960B" d="M115.5,121.5L115.5,121.5c-0.8,0-1.5-0.7-1.5-1.5v-18.6c0-0.8,0.7-1.5,1.5-1.5l0,0c0.8,0,1.5,0.7,1.5,1.5	V120C116.9,120.8,116.3,121.5,115.5,121.5z"/><path fill="#60960B" d="M89.4,121.5L89.4,121.5c-0.8,0-1.5-0.7-1.5-1.5v-18.6c0-0.8,0.7-1.5,1.5-1.5l0,0c0.8,0,1.5,0.7,1.5,1.5V120	C90.9,120.8,90.2,121.5,89.4,121.5z"/><path fill="#FFFFFF" d="M106.6,110.1L106.6,110.1c-1.9-1.9-1.9-5.1,0-7.1l10.6-10.6c1.9-1.9,5.1-1.9,7.1,0l0,0	c1.9,1.9,1.9,5.1,0,7.1l-10.6,10.6C111.7,112.1,108.5,112.1,106.6,110.1z"/><path fill="#FFFFFF" d="M124.3,110.1L124.3,110.1c-1.9,1.9-5.1,1.9-7.1,0l-10.6-10.6c-1.9-1.9-1.9-5.1,0-7.1l0,0	c1.9-1.9,5.1-1.9,7.1,0l10.6,10.6C126.3,105,126.3,108.2,124.3,110.1z"/><circle fill="#FFCE00" cx="115.5" cy="101.2" r="5"/><path fill="#FFFFFF" d="M83.2,111L83.2,111c-1.4-1.4-1.4-3.6,0-4.9l7.4-7.4c1.4-1.4,3.6-1.4,4.9,0v0c1.4,1.4,1.4,3.6,0,4.9l-7.4,7.4	C86.8,112.4,84.6,112.4,83.2,111z"/><path fill="#FFFFFF" d="M95.5,111L95.5,111c-1.4,1.4-3.6,1.4-4.9,0l-7.4-7.4c-1.4-1.4-1.4-3.6,0-4.9l0,0c1.4-1.4,3.6-1.4,4.9,0	l7.4,7.4C96.9,107.4,96.9,109.6,95.5,111z"/><path fill="#8E3F32" d="M49.2,54.3h-5.5v5.4h5.5c6,0,10.8,4.9,10.8,10.8v18.7c0,6-4.9,10.8-10.8,10.8h-2.3V81.5h-7.4v36.6h7.4v-12.6	h2.3c9,0,16.2-7.3,16.2-16.2V70.6C65.4,61.6,58.1,54.3,49.2,54.3z"/><circle fill="#FFCE00" cx="89.4" cy="104.8" r="3.5"/><path fill="#60960B" d="M50.3,93.6H35.3c-8.3,0-15.1-6.7-15.1-15.1V45.3c0-8.3,6.7-15.1,15.1-15.1h15.1c8.3,0,15.1,6.7,15.1,15.1	v33.3C65.4,86.9,58.7,93.6,50.3,93.6z"/><path fill="#60960B" d="M65.2,93.6H48.6c-7.5,0-13.5-6.1-13.5-13.5v0c0-7.5,6.1-13.5,13.5-13.5h16.6c7.5,0,13.5,6.1,13.5,13.5v0	C78.7,87.6,72.7,93.6,65.2,93.6z"/><path fill="#578408" d="M55.4,41.3c-2.2-1-4.9-0.6-6.7,1.2c-1.8,1.8-2.2,4.5-1.2,6.7c2.2,1,4.9,0.6,6.7-1.2	C55.9,46.2,56.3,43.5,55.4,41.3z"/><path fill="#578408" d="M29.5,55.7c-1,2.2-0.6,4.9,1.2,6.7s4.5,2.2,6.7,1.2c1-2.2,0.6-4.9-1.2-6.7C34.3,55.1,31.7,54.7,29.5,55.7z"/><path fill="#578408" d="M46.6,73.7c-1,2.2-0.6,4.9,1.2,6.7c1.8,1.8,4.5,2.2,6.7,1.2c1-2.2,0.6-4.9-1.2-6.7	C51.4,73.1,48.8,72.7,46.6,73.7z"/><circle fill="#FFE000" cx="117.8" cy="31.7" r="11.4"/></svg>