<?xml version="1.0" encoding="utf-8"?><!DOCTYPE svg PUBLIC "-//W3C//DTD SVG 1.1//EN" "http://www.w3.org/Graphics/SVG/1.1/DTD/svg11.dtd"><svg version="1.1" id="Layer_1" xmlns="http://www.w3.org/2000/svg" xmlns:xlink="http://www.w3.org/1999/xlink" x="0px" y="0px" width="150px" height="150px" viewBox="0 0 150 150" enable-background="new 0 0 150 150" xml:space="preserve"><g><path fill="#00BDFF" d="M21.5,104.1c0-3,1.6-4.6,4.6-4.6h12.7V55.4c0-2.7,0.1-5.4,0.1-5.4h-0.2c0,0-1,2.1-3,4l-3.5,3.4 c-2.2,2-4.5,2-6.5-0.2L23.5,55c-2.1-2.1-2-4.5,0.1-6.6l14.1-13.6c1.8-1.6,3.5-2.4,5.8-2.4h4.7c3,0,4.6,1.7,4.6,4.7v62.4h12.5 c3,0,4.7,1.6,4.7,4.6v3.1c0,3.1-1.7,4.7-4.7,4.7H26.1c-3,0-4.6-1.6-4.6-4.7V104.1z"/><path fill="#00BDFF" d="M75.9,99l2.2-3.4c1.7-2.6,3.8-2.7,6.4-0.9c2.6,2,7.1,4.9,13.2,4.9c7.7,0,14.9-5.2,14.9-13.6 c0-8.3-6.8-13.8-15.9-13.8c-4,0-7.3,1.2-9.2,2c-2.2,0.8-4.1,1-6.3,0.2l-1-0.3c-2.6-1-3.7-2.8-3.5-5.6l2.9-31.7 c0.2-2.9,1.9-4.5,4.8-4.5h32.7c3.1,0,4.7,1.7,4.7,4.7v3.1c0,3-1.6,4.6-4.7,4.6H92.6L91.4,58c-0.1,2.1-0.6,3.7-0.6,3.7h0.2 c0,0,3.7-1.8,8.5-1.8c17.6,0,28,11.8,28,26.1c0,15.7-12.2,27.3-28.7,27.3c-11.1,0-18.5-4.8-22.3-8C74.4,103.7,74.3,101.2,75.9,99z"/></g></svg>