<?xml version="1.0" encoding="utf-8"?><!DOCTYPE svg PUBLIC "-//W3C//DTD SVG 1.1//EN" "http://www.w3.org/Graphics/SVG/1.1/DTD/svg11.dtd"><svg version="1.1" xmlns="http://www.w3.org/2000/svg" xmlns:xlink="http://www.w3.org/1999/xlink" x="0px" y="0px" width="150px" height="150px" viewBox="0 0 150 150" enable-background="new 0 0 150 150" xml:space="preserve"><g id="Layer_2" display="none"><rect x="-1360" y="-1527.3" display="inline" fill="#F0F0F0" width="1680" height="1677.3"/></g><g id="Layer_1"/><g id="Layer_3"><rect x="45.5" y="41.4" fill="#FFFFFF" width="28.4" height="19.3"/><ellipse fill="#FFC9B6" cx="38.1" cy="96" rx="19.8" ry="19.2"/><path fill="#7C3F16" d="M12.4,103.6L12.4,103.6c-4.8,0-8.7-3.9-8.7-8.7V58.1c0-4.8,3.9-8.7,8.7-8.7h0c4.8,0,8.7,3.9,8.7,8.7v36.8 C21.1,99.7,17.2,103.6,12.4,103.6z"/><path fill="#FFFFFF" d="M118,49c-11-1.3-22-0.9-33.1-0.9c-10.6,0-21-0.9-31.6-1.5C47.9,46.2,42.5,46,37,46.1 c-4.1,0.1-8.9-0.4-12.8,0.9c-3.7,1.2-5.5,5.7-6.9,9.1c0,0.1-0.1,0.2-0.1,0.3c1.3,6.3,1.7,12.6-1.3,18.7c-1.3,2.7-4.5,3.9-7.4,3.5 v14.9c0,4.7,3.8,8.5,8.5,8.5h94.2c4.7,0,8.5-3.8,8.5-8.5V49.9c0-0.3,0-0.6-0.1-1C119.2,49,118.6,49.1,118,49z"/><path fill="#8E4819" d="M69.3,59.5c0,10.4,8.8,18.9,19.5,18.9h0c0.9,0,1.7-0.1,2.5-0.2c2,4.3,6.4,7.4,11.6,7.4 c7,0,12.7-5.5,12.7-12.3v-5.8c0-0.7-0.1-1.5-0.2-2.2h3.2c8.6,0,15.7-6.8,15.7-15.2c0-3.3-1.1-6.4-3-8.9h-62V59.5z"/><path fill="#9E592B" d="M149,41.1c-1.6-3.3-5.3-5.7-9.6-5.7c-4.3,0-8,2.3-9.6,5.7c1.6,3.3,5.3,5.7,9.6,5.7S147.4,44.5,149,41.1z"/><path fill="#9E592B" d="M111.2,41.1c-1.6-3.3-5.3-5.7-9.6-5.7s-8,2.3-9.6,5.7c1.6,3.3,5.3,5.7,9.6,5.7S109.7,44.5,111.2,41.1z"/><path fill="#9E592B" d="M121.9,51.6h-2.3c-6.2,0-11.3-5.1-11.3-11.3v0c0-6.2,5.1-11.3,11.3-11.3h2.3c6.2,0,11.3,5.1,11.3,11.3v0 C133.2,46.5,128.2,51.6,121.9,51.6z"/><path fill="#9E592B" d="M121.1,74.1h-0.6c-9.6,0-17.5-7.8-17.5-17.5v-10c0-5.6,4.6-10.2,10.2-10.2h15c5.6,0,10.2,4.6,10.2,10.2v10 C138.5,66.3,130.7,74.1,121.1,74.1z"/><path fill="#FFFFFF" d="M121.3,64.3h-0.3c-4.4,0-8-3.6-8-8V41.5c0-4.4,3.6-8,8-8h0.3c4.4,0,8,3.6,8,8v14.8 C129.3,60.7,125.7,64.3,121.3,64.3z"/><path fill="#EFAD9A" d="M136,70.8c0,7.5-6.8,13.6-15.2,13.6c-8.4,0-15.2-6.1-15.2-13.6"/><path fill="#FFC9B6" d="M117.3,58.1h7c8.7,0,15.8,7.1,15.8,15.8v0c0,1.7-1.4,3.1-3.1,3.1h-32.4c-1.7,0-3.1-1.4-3.1-3.1v0 C101.5,65.2,108.6,58.1,117.3,58.1z"/><ellipse fill="#FFC9B6" cx="130.4" cy="62.5" rx="5.1" ry="4.6"/><ellipse fill="#FFC9B6" cx="111.2" cy="62.5" rx="5.1" ry="4.6"/><ellipse fill="#D88E7D" cx="111.2" cy="62.5" rx="2.9" ry="2.6"/><ellipse fill="#D88E7D" cx="130.4" cy="62.5" rx="2.9" ry="2.6"/><ellipse fill="#6B3713" cx="108.4" cy="49.4" rx="2.9" ry="2.6"/><ellipse fill="#6B3713" cx="134.1" cy="49.4" rx="2.9" ry="2.6"/><path fill="#8E4819" d="M17.6,41.4c-5,0-9.1,3.9-9.1,8.8v29c1.8,0.4,3.7,0.7,5.7,0.7h0c11.6,0,21.2-8.3,23-19.1 c7.8-0.1,14.1-6.3,14.1-13.9v-5.6H17.6z"/><path fill="#8E4819" d="M49.2,81.5c-10.6,0-19.3,8.4-19.3,18.7v1.9h38.7v-1.9C68.6,89.9,59.9,81.5,49.2,81.5z"/><path fill="#FFC9B6" d="M31.5,112.3h-0.2c-4.2,0-7.7-3.5-7.7-7.7V94.5c0-4.2,3.5-7.7,7.7-7.7h0.2c4.2,0,7.7,3.5,7.7,7.7v10.1 C39.2,108.8,35.8,112.3,31.5,112.3z"/><path fill="#FFC9B6" d="M46.2,102.1h0.4c-4.1,0-7.4-3.2-7.4-7.1l0,0.9l0,0l-3.1-0.9l-3.3,2.6l0.7,5.1l9.9,2.2l3.6-1.5L46.2,102.1z"/><path fill="#FFC9B6" d="M44,121L44,121c-1.6,0-2.8-1.2-2.8-2.7v-10.8c0-1.5,1.2-2.7,2.7-2.7H44c1.5,0,2.7,1.2,2.7,2.7v10.8 C46.7,119.8,45.5,121,44,121z"/><path fill="#FFC9B6" d="M33.6,121L33.6,121c-1.6,0-2.8-1.2-2.8-2.7v-10.8c0-1.5,1.2-2.7,2.7-2.7h0.1c1.5,0,2.7,1.2,2.7,2.7v10.8 C36.3,119.8,35.1,121,33.6,121z"/><path fill="#FFFFFF" d="M8.1,81.8v37.1l7.1,10.6h11.5c1.1,0,1.5-1.3,0.7-2L19,121l4.1-19L8.1,81.8z"/><path fill="#FFFFFF" d="M92.1,81.8v37.1l7.1,10.6h11.3c1.1,0,1.6-1.4,0.7-2.1L103,121l4.1-19L92.1,81.8z"/></g></svg>