<?xml version="1.0" encoding="utf-8"?><!DOCTYPE svg PUBLIC "-//W3C//DTD SVG 1.1//EN" "http://www.w3.org/Graphics/SVG/1.1/DTD/svg11.dtd"><svg version="1.1" id="Layer_1" xmlns="http://www.w3.org/2000/svg" xmlns:xlink="http://www.w3.org/1999/xlink" x="0px" y="0px" width="150px" height="150px" viewBox="0 0 150 150" enable-background="new 0 0 150 150" xml:space="preserve"><path fill="#757575" d="M115.4,93.4H109v-4.2h0.2c1.2,0,2.2-1,2.2-2.2c0-1.2-1-2.2-2.2-2.2H109H34.2H34c-1.2,0-2.2,1-2.2,2.2	c0,1.2,1,2.2,2.2,2.2h0.3v4.2h-6.3c-2.6,0-4.7,2.1-4.7,4.7c0,2.6,2.1,4.7,4.7,4.7h6.3v37.3c0,3.8,3,6.8,6.8,6.8h61.1	c3.8,0,6.8-3,6.8-6.8v-37.3h6.5c2.6,0,4.7-2.1,4.7-4.7C120.2,95.5,118,93.4,115.4,93.4z"/><path fill="#757575" d="M106.9,97.2c0.4-1.5,0.7-3.1,0.9-4.7H37c0.2,1.6,0.5,3.2,0.9,4.7H106.9z"/><path fill="#8E8E8E" d="M93.3,138.5L93.3,138.5c-2.9,0-5.3-2.4-5.3-5.3v-30.8c0-2.9,2.4-5.3,5.3-5.3h0c2.9,0,5.3,2.4,5.3,5.3v30.8	C98.6,136.1,96.2,138.5,93.3,138.5z"/><path fill="#FFFFFF" d="M108.3,16H57.4c-0.2,0-0.5,0-0.7,0c9.1,0.4,16.5,8,16.5,17.2v0c0,9.2-7.4,16.8-16.5,17.2c0.2,0,0.5,0,0.7,0	H41.5c-9.5,0-17.2,7.7-17.2,17.2v0c0,9.5,7.7,17.2,17.2,17.2h66.8c0.2,0,0.5,0,0.7,0c-9.1-0.4-16.5-8-16.5-17.2v0	c0-9.2,7.4-16.8,16.5-17.2c-0.2,0-0.5,0-0.7,0h0c9.5,0,17.2-7.7,17.2-17.2v0C125.5,23.8,117.8,16,108.3,16z"/><g><path fill="#EFAC54" d="M101.2,66.4L99.7,65l1.5-1.3c0.4-0.4,0.4-1,0-1.4l-1.4-1.4l-10.4,5.7l-10.1-6.2l-1.5,1.3 c-0.4,0.4-0.4,1,0,1.4l1.4,1.4l-1.5,1.3c-0.4,0.4-0.4,1,0,1.4l1.4,1.4l-1.5,1.3c-0.4,0.4-0.4,1,0,1.4l1.4,1.4L77.5,74 c-0.4,0.4-0.4,1,0,1.4l1.4,1.4l0,0l10.4-5.7l10.1,6.2l0,0l1.5-1.3c0.4-0.4,0.4-1,0-1.4l-1.4-1.4l1.5-1.3c0.4-0.4,0.4-1,0-1.4 l-1.4-1.4l1.5-1.3C101.6,67.4,101.6,66.8,101.2,66.4z"/><path fill="#E09944" d="M86.3,70l-1.5,0c-0.7,0-1.3-0.6-1.3-1.3v0c0-0.7,0.6-1.3,1.3-1.3l1.5,0c0.7,0,1.3,0.6,1.3,1.3l0,0 C87.6,69.5,87,70.1,86.3,70z"/><path fill="#E09944" d="M93.9,70.2l-1.5,0c-0.7,0-1.3-0.6-1.3-1.3v0c0-0.7,0.6-1.3,1.3-1.3l1.5,0c0.7,0,1.3,0.6,1.3,1.3v0 C95.2,69.7,94.6,70.3,93.9,70.2z"/></g><g><path fill="#EFAC54" d="M93.6,44.2l-0.1-2l2,0.1c0.6,0,1-0.4,1-1l-0.1-2L85,36.3l-3.1-11.5l-2-0.1c-0.6,0-1,0.4-1,1l0.1,2l-2-0.1 c-0.6,0-1,0.4-1,1l0.1,2l-2-0.1c-0.6,0-1,0.4-1,1l0.1,2l-2-0.1c-0.6,0-1,0.4-1,1l0.1,2l0,0l11.5,3.1L84.8,51l0,0l2,0.1 c0.6,0,1-0.4,1-1l-0.1-2l2,0.1c0.6,0,1-0.4,1-1l-0.1-2l2,0.1C93.2,45.2,93.6,44.8,93.6,44.2z"/><path fill="#E09944" d="M80.3,36.6l-1-1c-0.5-0.5-0.5-1.3,0-1.8v0c0.5-0.5,1.3-0.5,1.8,0l1,1c0.5,0.5,0.5,1.3,0,1.8l0,0 C81.6,37.1,80.8,37.1,80.3,36.6z"/><path fill="#E09944" d="M85.7,42l-1-1c-0.5-0.5-0.5-1.3,0-1.8l0,0c0.5-0.5,1.3-0.5,1.8,0l1,1c0.5,0.5,0.5,1.3,0,1.8l0,0 C87,42.5,86.2,42.5,85.7,42z"/></g><line fill="none" stroke="#EFAC54" stroke-width="2.2808" stroke-miterlimit="10" x1="32" y1="30.9" x2="78.3" y2="53.7"/><line fill="none" stroke="#EFAC54" stroke-width="2.2808" stroke-miterlimit="10" x1="125.5" y1="33.2" x2="99.7" y2="53.7"/><line fill="none" stroke="#EFAC54" stroke-width="2.2808" stroke-miterlimit="10" x1="102.1" y1="31.2" x2="83.6" y2="4"/><g><path fill="#EFAC54" d="M39.4,57.9l4,4c-3,3-3,8,0,11l-4,4C34.2,71.7,34.2,63.2,39.4,57.9z"/></g><g><path fill="#EFAC54" d="M54.2,63.8l3-3c2.3,2.3,6,2.3,8.3,0l3,3C64.6,67.7,58.2,67.7,54.2,63.8z"/></g><g><path fill="#EFAC54" d="M52.5,28.2l2.6-2.6c2,2,5.2,2,7.2,0l2.6,2.6C61.6,31.7,55.9,31.7,52.5,28.2z"/></g><g><path fill="#EFAC54" d="M108.1,59.6l3.3-3.3c2.5,2.5,6.4,2.5,8.9,0l3.3,3.3C119.2,63.9,112.3,63.9,108.1,59.6z"/></g></svg>