<?xml version="1.0" encoding="utf-8"?><!DOCTYPE svg PUBLIC "-//W3C//DTD SVG 1.1//EN" "http://www.w3.org/Graphics/SVG/1.1/DTD/svg11.dtd"><svg version="1.1" id="Layer_1" xmlns="http://www.w3.org/2000/svg" xmlns:xlink="http://www.w3.org/1999/xlink" x="0px" y="0px" width="150px" height="150px" viewBox="0 0 150 150" enable-background="new 0 0 150 150" xml:space="preserve"><g><path fill="#C6C6C6" d="M56.9,80.6c1.3,0,2.3-1,2.3-2.3v-8.6c0-4.5,3.6-8.1,8.1-8.1c1.3,0,2.3-1,2.3-2.3s-1-2.3-2.3-2.3 c-7,0-12.8,5.7-12.8,12.8v8.6C54.5,79.5,55.6,80.6,56.9,80.6z"/></g><path fill="#5B890B" d="M80,38.9c-6.5,0-11.8,5.3-11.8,11.8v16.4c0,6.5,5.3,11.8,11.8,11.8c6.5,0,11.8-5.3,11.8-11.8V50.6	C91.8,44.2,86.5,38.9,80,38.9z"/><rect x="29.3" y="74" fill="#66A00B" width="66.4" height="29.6"/><path fill="#ADADAD" d="M7.1,103.4V89.6c0-8.6,7-15.6,15.6-15.6h16.5c8.6,0,15.6,7,15.6,15.6v13.9"/><path fill="#F2F2F2" d="M33.9,83H23c-1.8,0-3.2-1.4-3.2-3.2v0c0-1.8,1.4-3.2,3.2-3.2h11c1.8,0,3.2,1.4,3.2,3.2v0	C37.1,81.6,35.7,83,33.9,83z"/><rect x="86.9" y="50.6" fill="#66A00B" width="24.7" height="54.1"/><path fill="none" stroke="#F2F2F2" stroke-width="5.269" stroke-linecap="round" stroke-linejoin="round" stroke-miterlimit="10" d="M115.8,94"/><g><path fill="#F2F2F2" d="M115.1,80.6c-1.3,0-2.3-1-2.3-2.3v-8.6c0-4.5-3.6-8.1-8.1-8.1c-1.3,0-2.3-1-2.3-2.3s1-2.3,2.3-2.3 c7,0,12.8,5.7,12.8,12.8v8.6C117.4,79.5,116.4,80.6,115.1,80.6z"/></g><rect x="64.4" y="50.6" fill="#66A00B" width="7.6" height="38.1"/><path fill="#C6C6C6" d="M87,69.8L69.3,61c-1.2-0.6-1.7-2-1.1-3.2l0.1-0.2c0.6-1.2,2-1.7,3.2-1.1l17.7,8.7c1.2,0.6,1.7,2,1.1,3.2	l-0.1,0.2C89.6,69.9,88.2,70.3,87,69.8z"/><path fill="#C6C6C6" d="M71.5,69.8L89.2,61c1.2-0.6,1.7-2,1.1-3.2l-0.1-0.2c-0.6-1.2-2-1.7-3.2-1.1l-17.7,8.7	c-1.2,0.6-1.7,2-1.1,3.2l0.1,0.2C68.9,69.9,70.4,70.3,71.5,69.8z"/><path fill="#969696" d="M110.3,110.4H6.9c-2.1,0-3.9-1.7-3.9-3.9v0c0-2.1,1.7-3.9,3.9-3.9h103.4c2.1,0,3.9,1.7,3.9,3.9v0	C114.2,108.7,112.4,110.4,110.3,110.4z"/><g><path fill="#C6C6C6" d="M90.7,80.6c1.3,0,2.3-1,2.3-2.3v-8.6c0-4.5,3.6-8.1,8.1-8.1c1.3,0,2.3-1,2.3-2.3s-1-2.3-2.3-2.3 c-7,0-12.8,5.7-12.8,12.8v8.6C88.4,79.5,89.4,80.6,90.7,80.6z"/></g><path fill="#66A00B" d="M113.9,38.9c-6.5,0-11.8,5.3-11.8,11.8v16.4c0,6.5,5.3,11.8,11.8,11.8c6.5,0,11.8-5.3,11.8-11.8V50.6	C125.6,44.2,120.3,38.9,113.9,38.9z"/><rect x="63.1" y="74" fill="#7AC70C" width="66.4" height="29.6"/><path fill="#C6C6C6" d="M41,103.4V89.6C41,81,48,74,56.6,74H73c8.6,0,15.6,7,15.6,15.6v13.9"/><path fill="#F2F2F2" d="M67.8,83h-11c-1.8,0-3.2-1.4-3.2-3.2v0c0-1.8,1.4-3.2,3.2-3.2h11c1.8,0,3.2,1.4,3.2,3.2v0	C71,81.6,69.6,83,67.8,83z"/><rect x="120" y="50.6" fill="#7AC70C" width="24.7" height="54.1"/><path fill="none" stroke="#F2F2F2" stroke-width="5.269" stroke-linecap="round" stroke-linejoin="round" stroke-miterlimit="10" d="M140.2,94"/><g><path fill="#F2F2F2" d="M139.5,80.6c-1.3,0-2.3-1-2.3-2.3v-8.6c0-4.5-3.6-8.1-8.1-8.1c-1.3,0-2.3-1-2.3-2.3s1-2.3,2.3-2.3 c7,0,12.8,5.7,12.8,12.8v8.6C141.9,79.5,140.8,80.6,139.5,80.6z"/></g><rect x="98.3" y="50.6" fill="#7AC70C" width="7.6" height="38.1"/><path fill="#F2F2F2" d="M120.9,69.8L103.2,61c-1.2-0.6-1.7-2-1.1-3.2l0.1-0.2c0.6-1.2,2-1.7,3.2-1.1l17.7,8.7c1.2,0.6,1.7,2,1.1,3.2	l-0.1,0.2C123.5,69.9,122.1,70.3,120.9,69.8z"/><path fill="#F2F2F2" d="M105.4,69.8l17.7-8.7c1.2-0.6,1.7-2,1.1-3.2l-0.1-0.2c-0.6-1.2-2-1.7-3.2-1.1l-17.7,8.7	c-1.2,0.6-1.7,2-1.1,3.2l0.1,0.2C102.8,69.9,104.2,70.3,105.4,69.8z"/><path fill="#AAAAAA" d="M144.1,110.4H40.7c-2.1,0-3.9-1.7-3.9-3.9v0c0-2.1,1.7-3.9,3.9-3.9h103.4c2.1,0,3.9,1.7,3.9,3.9v0	C148,108.7,146.3,110.4,144.1,110.4z"/></svg>