<?xml version="1.0" encoding="utf-8"?><!DOCTYPE svg PUBLIC "-//W3C//DTD SVG 1.1//EN" "http://www.w3.org/Graphics/SVG/1.1/DTD/svg11.dtd"><svg version="1.1" id="Layer_1" xmlns="http://www.w3.org/2000/svg" xmlns:xlink="http://www.w3.org/1999/xlink" x="0px" y="0px" width="150px" height="150px" viewBox="0 0 150 150" enable-background="new 0 0 150 150" xml:space="preserve"><path fill="#FF7DD5" d="M44.5,18.1c-2.6,0-4.8,1.4-6,3.5l-12.6-7.3v21.4l12.6-7.3c1.2,2.1,3.4,3.5,6,3.5c2.6,0,4.8-1.4,6-3.5	L63,35.7V14.3l-12.6,7.2C49.3,19.4,47,18.1,44.5,18.1z"/><path fill="#FF7DD5" d="M9.8,138.8v-6c0-19.2,15.5-34.7,34.7-34.7h0c19.2,0,34.7,15.5,34.7,34.7v6"/><path fill="#3B1E18" d="M21.8,83.1v-5.5v-4.5V35.6C11,35.6,2.3,44.3,2.3,55v2.8v18.4v26.4C13.1,102.5,21.8,93.9,21.8,83.1z"/><path fill="#3B1E18" d="M44.4,90.1L44.4,90.1c-15.3,0-27.7-12.4-27.7-27.7V51.8c0-15.3,12.4-27.7,27.7-27.7h0	c15.3,0,27.7,12.4,27.7,27.7v10.6C72.2,77.7,59.7,90.1,44.4,90.1z"/><path fill="#763627" d="M44.5,76.6c-6.5,0-11.7,5.3-11.7,11.7v14.1c0,6.5,5.3,11.7,11.7,11.7s11.7-5.3,11.7-11.7V88.4	C56.3,81.9,51,76.6,44.5,76.6z"/><ellipse fill="#763627" cx="16.7" cy="70.2" rx="7.1" ry="6.6"/><ellipse fill="#763627" cx="72.2" cy="70.2" rx="7.1" ry="6.6"/><path fill="#783F30" d="M16.7,52v22.7c0,14.3,12.5,26.1,27.8,26.1h0c15.3,0,27.8-11.7,27.8-26.1V52"/><ellipse fill="#612C23" cx="30.6" cy="65.1" rx="3.5" ry="3.2"/><ellipse fill="#612C23" cx="58.5" cy="65.1" rx="3.5" ry="3.2"/><rect x="40" y="59.3" fill="#672B21" width="9.1" height="10.9"/><path fill="#571413" d="M30.6,76c0,7.2,6.2,13,13.9,13s13.9-5.8,13.9-13"/><path fill="#FFFFFF" d="M57.6,80.5H31.5c-0.6-1.4-0.9-2.9-0.9-4.5h27.9C58.5,77.5,58.2,79,57.6,80.5z"/><rect x="81.5" y="56.5" fill="#D36C26" width="61.8" height="70.2"/><path fill="#FFB5A1" d="M79.2,138.9v-5.7c0-18.2,14.7-32.9,32.9-32.9h0c18.2,0,32.9,14.7,32.9,32.9v5.7"/><path fill="#FFFFFF" d="M127.9,103.9v8c-0.2,8.5-7.1,15.4-15.7,15.4h0c-8.7,0-15.7-7-15.7-15.7v-7.7H85.7v35h10.8l0,0h31.4l0,0h10.8	v-35H127.9z"/><path fill="#FFA792" d="M112.2,76.3c-6.5,0-11.8,5.3-11.8,11.8v14.1c0,6.5,5.3,11.8,11.8,11.8s11.8-5.3,11.8-11.8V88.1	C124.1,81.6,118.7,76.3,112.2,76.3z"/><ellipse fill="#FFA792" cx="84.2" cy="69.9" rx="7.1" ry="6.7"/><ellipse fill="#FFA792" cx="140" cy="69.9" rx="7.1" ry="6.7"/><path fill="#FFB5A1" d="M140,51.5v-0.2c0-15.4-12.5-27.9-27.9-27.9l0,0c-15.4,0-27.9,12.5-27.9,27.9v0.2V62v12.4	c0,14.4,12.6,26.2,28,26.2l0,0c15.4,0,28-11.8,28-26.2V51.5H140z"/><ellipse fill="#CE7B72" cx="97.3" cy="61.9" rx="3.5" ry="3.2"/><ellipse fill="#CE7B72" cx="127.2" cy="61.9" rx="3.5" ry="3.2"/><path fill="#D86B60" d="M98.2,75.6c0,7.3,6.3,13.1,14,13.1s14-5.9,14-13.1"/><path fill="#FFFFFF" d="M125.4,80.2H99.1c-0.6-1.4-0.9-2.9-0.9-4.5h28.1C126.3,77.2,126,78.8,125.4,80.2z"/><circle fill="#F2968C" cx="88.7" cy="70.7" r="1.2"/><circle fill="#F2968C" cx="92.9" cy="74.5" r="1.4"/><circle fill="#F2968C" cx="137" cy="70.7" r="1.2"/><circle fill="#F2968C" cx="132.8" cy="74.5" r="1.4"/><path fill="#EF7E29" d="M143.2,61.1v-8.2h-0.3v-0.3c0-16.8-13.8-30.4-30.8-30.4c-17,0-30.8,13.6-30.8,30.4v0.3v8.3	c9.1,1.8,18.8-0.8,25.9-7.7c2-2,3.7-4.2,5-6.6c1.3,2.4,2.9,4.6,5,6.6C124.2,60.4,134.1,63,143.2,61.1z"/><circle fill="none" stroke="#754844" stroke-width="1.874" stroke-miterlimit="10" cx="97.3" cy="61.9" r="9.9"/><circle fill="none" stroke="#754844" stroke-width="1.874" stroke-miterlimit="10" cx="127.3" cy="61.9" r="9.9"/><line fill="none" stroke="#754844" stroke-width="1.874" stroke-miterlimit="10" x1="106.1" y1="58.8" x2="117.3" y2="58.8"/><rect x="108.1" y="59.8" fill="#FF9D8A" width="8.5" height="11"/></svg>