<?xml version="1.0" encoding="utf-8"?><!DOCTYPE svg PUBLIC "-//W3C//DTD SVG 1.1//EN" "http://www.w3.org/Graphics/SVG/1.1/DTD/svg11.dtd"><svg version="1.1" id="Layer_1" xmlns="http://www.w3.org/2000/svg" xmlns:xlink="http://www.w3.org/1999/xlink" x="0px" y="0px" width="150px" height="150px" viewBox="0 0 150 150" enable-background="new 0 0 150 150" xml:space="preserve"><path fill="#BF7358" d="M103.1,111.1H46.9c-7.6,0-13.8-6.2-13.8-13.8v0c0-7.6,6.2-13.8,13.8-13.8h56.1c7.6,0,13.8,6.2,13.8,13.8v0	C116.8,104.9,110.6,111.1,103.1,111.1z"/><path fill="#AA5C44" d="M102.6,109.1h-55c-2.1,0-3.9-1.8-3.9-3.9v0c0-2.1,1.8-3.9,3.9-3.9h55c2.1,0,3.9,1.8,3.9,3.9v0	C106.5,107.3,104.7,109.1,102.6,109.1z"/><path fill="#BF7358" d="M75.1,131.4L75.1,131.4c-12.9,0-23.4-10.5-23.4-23.4V37.7c0-12.9,10.5-23.4,23.4-23.4h0	c12.9,0,23.4,10.5,23.4,23.4V108C98.5,120.9,87.9,131.4,75.1,131.4z"/><circle fill="#CE7B61" cx="75" cy="98.5" r="8.2"/></svg>