<?xml version="1.0" encoding="utf-8"?><!DOCTYPE svg PUBLIC "-//W3C//DTD SVG 1.1//EN" "http://www.w3.org/Graphics/SVG/1.1/DTD/svg11.dtd"><svg version="1.1" id="Layer_1" xmlns="http://www.w3.org/2000/svg" xmlns:xlink="http://www.w3.org/1999/xlink" x="0px" y="0px" width="150px" height="150px" viewBox="0 0 150 150" enable-background="new 0 0 150 150" xml:space="preserve"><path fill="#82E9ED" d="M128.7,142.3H19.3c-6.7,0-12.1-5.4-12.1-12.1V20.9c0-6.7,5.4-12.1,12.1-12.1h109.3c6.7,0,12.1,5.4,12.1,12.1	v109.3C140.7,136.9,135.3,142.3,128.7,142.3z"/><path fill="#91552C" d="M7.3,49.5v80.8c0,6.7,5.4,12.1,12.1,12.1h109.3c6.7,0,12.1-5.4,12.1-12.1V49.5H7.3z"/><line fill="none" stroke="#C4753F" stroke-width="3.6294" stroke-linecap="round" stroke-linejoin="round" stroke-miterlimit="10" x1="75.4" y1="43.6" x2="75.4" y2="83.1"/><path fill="none" stroke="#C4753F" stroke-width="3.6294" stroke-linecap="round" stroke-linejoin="round" stroke-miterlimit="10" d="M75.4,62.5c0,6.7-5.4,12.1-12.1,12.1"/><path fill="none" stroke="#C4753F" stroke-width="3.6294" stroke-linecap="round" stroke-linejoin="round" stroke-miterlimit="10" d="M38.5,99.4c0-13.7,11.1-24.7,24.7-24.7"/><path fill="none" stroke="#C4753F" stroke-width="3.6294" stroke-linecap="round" stroke-linejoin="round" stroke-miterlimit="10" d="M39.7,123.6c0-13.7,11.1-24.7,24.7-24.7"/><path fill="none" stroke="#C4753F" stroke-width="3.6294" stroke-linecap="round" stroke-linejoin="round" stroke-miterlimit="10" d="M75.4,82.6c0,6.7,5.4,12.1,12.1,12.1"/><path fill="none" stroke="#C4753F" stroke-width="3.6294" stroke-linecap="round" stroke-linejoin="round" stroke-miterlimit="10" d="M112.2,119.5c0-13.7-11.1-24.7-24.7-24.7"/><path fill="none" stroke="#C4753F" stroke-width="3.6294" stroke-linecap="round" stroke-linejoin="round" stroke-miterlimit="10" d="M99.8,84.3c-5.7,0-10.3,4.6-10.3,10.3"/><path fill="none" stroke="#C4753F" stroke-width="3.6294" stroke-linecap="round" stroke-linejoin="round" stroke-miterlimit="10" d="M75.6,87.9c-5.7,0-10.3,4.6-10.3,10.3"/><path fill="none" stroke="#C4753F" stroke-width="3.6294" stroke-linecap="round" stroke-linejoin="round" stroke-miterlimit="10" d="M65.3,98.8c0,5.7,4.6,10.3,10.3,10.3"/><path fill="none" stroke="#C4753F" stroke-width="3.6294" stroke-linecap="round" stroke-linejoin="round" stroke-miterlimit="10" d="M80,113.5c0-2.4-2-4.4-4.4-4.4"/><path fill="none" stroke="#C4753F" stroke-width="3.6294" stroke-linecap="round" stroke-linejoin="round" stroke-miterlimit="10" d="M26,89.5c4,4,10.5,4,14.5,0"/><path fill="#7AC70C" d="M103.2,12.3L75.4,40.1c7.6,2,16,0.1,21.9-5.9C103.2,28.3,105.2,19.9,103.2,12.3z"/><path fill="#70AF0C" d="M75.4,40.1l27.8-27.8c-7.6-2-16-0.1-21.9,5.9C75.3,24.1,73.4,32.5,75.4,40.1z"/><path fill="#7AC70C" d="M47.4,12.3l27.8,27.8c-7.6,2-16,0.1-21.9-5.9C47.3,28.3,45.4,19.9,47.4,12.3z"/><path fill="#70AF0C" d="M75.2,40.1L47.4,12.3c7.6-2,16-0.1,21.9,5.9C75.2,24.1,77.2,32.5,75.2,40.1z"/><path fill="#70AF0C" d="M75.2,32.2L75.2,32.2c-1.4,0-2.5-1.1-2.5-2.5V8.8h5.1v20.8C77.7,31.1,76.6,32.2,75.2,32.2z"/><rect x="7.3" y="39.7" fill="#70AF0C" width="133.5" height="9.8"/><path fill="#70AF0C" d="M23.4,47.8L23.4,47.8c-1.2,0-2.1-1-2.1-2.1v-8.9c0-1.2,1-2.1,2.1-2.1h0c1.2,0,2.1,1,2.1,2.1v8.9	C25.5,46.8,24.5,47.8,23.4,47.8z"/><path fill="#70AF0C" d="M30.4,47.8L30.4,47.8c-1.2,0-2.1-1-2.1-2.1v-12c0-1.2,1-2.1,2.1-2.1h0c1.2,0,2.1,1,2.1,2.1v12	C32.5,46.8,31.5,47.8,30.4,47.8z"/><path fill="#70AF0C" d="M37.4,47.8L37.4,47.8c-1.2,0-2.1-1-2.1-2.1v-9.6c0-1.2,1-2.1,2.1-2.1h0c1.2,0,2.1,1,2.1,2.1v9.6	C39.5,46.8,38.5,47.8,37.4,47.8z"/><path fill="#70AF0C" d="M44.4,47.8L44.4,47.8c-1.2,0-2.1-1-2.1-2.1V34.5c0-1.2,1-2.1,2.1-2.1h0c1.2,0,2.1,1,2.1,2.1v11.2	C46.5,46.8,45.5,47.8,44.4,47.8z"/><path fill="#70AF0C" d="M16.4,47.8L16.4,47.8c-1.2,0-2.1-1-2.1-2.1v-9.6c0-1.2,1-2.1,2.1-2.1h0c1.2,0,2.1,1,2.1,2.1v9.6	C18.5,46.8,17.5,47.8,16.4,47.8z"/><path fill="#70AF0C" d="M9.4,47.8L9.4,47.8c-1.2,0-2.1-1-2.1-2.1v-9.6c0-1.2,1-2.1,2.1-2.1h0c1.2,0,2.1,1,2.1,2.1v9.6	C11.5,46.8,10.5,47.8,9.4,47.8z"/><path fill="#70AF0C" d="M65.4,47.8L65.4,47.8c-1.2,0-2.1-1-2.1-2.1v-8.9c0-1.2,1-2.1,2.1-2.1l0,0c1.2,0,2.1,1,2.1,2.1v8.9	C67.5,46.8,66.5,47.8,65.4,47.8z"/><path fill="#70AF0C" d="M72.4,47.8L72.4,47.8c-1.2,0-2.1-1-2.1-2.1v-12c0-1.2,1-2.1,2.1-2.1h0c1.2,0,2.1,1,2.1,2.1v12	C74.5,46.8,73.5,47.8,72.4,47.8z"/><path fill="#70AF0C" d="M79.4,47.8L79.4,47.8c-1.2,0-2.1-1-2.1-2.1v-9.6c0-1.2,1-2.1,2.1-2.1h0c1.2,0,2.1,1,2.1,2.1v9.6	C81.5,46.8,80.5,47.8,79.4,47.8z"/><path fill="#70AF0C" d="M86.4,47.8L86.4,47.8c-1.2,0-2.1-1-2.1-2.1V34.5c0-1.2,1-2.1,2.1-2.1h0c1.2,0,2.1,1,2.1,2.1v11.2	C88.5,46.8,87.5,47.8,86.4,47.8z"/><path fill="#70AF0C" d="M58.4,47.8L58.4,47.8c-1.2,0-2.1-1-2.1-2.1v-9.6c0-1.2,1-2.1,2.1-2.1h0c1.2,0,2.1,1,2.1,2.1v9.6	C60.5,46.8,59.5,47.8,58.4,47.8z"/><path fill="#70AF0C" d="M51.4,47.8L51.4,47.8c-1.2,0-2.1-1-2.1-2.1v-9.6c0-1.2,1-2.1,2.1-2.1h0c1.2,0,2.1,1,2.1,2.1v9.6	C53.5,46.8,52.5,47.8,51.4,47.8z"/><path fill="#70AF0C" d="M107.4,47.8L107.4,47.8c-1.2,0-2.1-1-2.1-2.1v-8.9c0-1.2,1-2.1,2.1-2.1l0,0c1.2,0,2.1,1,2.1,2.1v8.9	C109.5,46.8,108.5,47.8,107.4,47.8z"/><path fill="#70AF0C" d="M114.4,47.8L114.4,47.8c-1.2,0-2.1-1-2.1-2.1v-12c0-1.2,1-2.1,2.1-2.1h0c1.2,0,2.1,1,2.1,2.1v12	C116.5,46.8,115.5,47.8,114.4,47.8z"/><path fill="#70AF0C" d="M121.4,47.8L121.4,47.8c-1.2,0-2.1-1-2.1-2.1v-9.6c0-1.2,1-2.1,2.1-2.1h0c1.2,0,2.1,1,2.1,2.1v9.6	C123.5,46.8,122.5,47.8,121.4,47.8z"/><path fill="#70AF0C" d="M128.4,47.8L128.4,47.8c-1.2,0-2.1-1-2.1-2.1V34.5c0-1.2,1-2.1,2.1-2.1l0,0c1.2,0,2.1,1,2.1,2.1v11.2	C130.5,46.8,129.5,47.8,128.4,47.8z"/><path fill="#70AF0C" d="M100.4,47.8L100.4,47.8c-1.2,0-2.1-1-2.1-2.1v-9.6c0-1.2,1-2.1,2.1-2.1l0,0c1.2,0,2.1,1,2.1,2.1v9.6	C102.5,46.8,101.5,47.8,100.4,47.8z"/><path fill="#70AF0C" d="M93.4,47.8L93.4,47.8c-1.2,0-2.1-1-2.1-2.1v-9.6c0-1.2,1-2.1,2.1-2.1l0,0c1.2,0,2.1,1,2.1,2.1v9.6	C95.5,46.8,94.5,47.8,93.4,47.8z"/><path fill="#70AF0C" d="M135.4,47.8L135.4,47.8c-1.2,0-2.1-1-2.1-2.1v-9.6c0-1.2,1-2.1,2.1-2.1l0,0c1.2,0,2.1,1,2.1,2.1v9.6	C137.5,46.8,136.5,47.8,135.4,47.8z"/></svg>