<?xml version="1.0" encoding="utf-8"?><!DOCTYPE svg PUBLIC "-//W3C//DTD SVG 1.1//EN" "http://www.w3.org/Graphics/SVG/1.1/DTD/svg11.dtd"><svg version="1.1" id="Layer_1" xmlns="http://www.w3.org/2000/svg" xmlns:xlink="http://www.w3.org/1999/xlink" x="0px" y="0px" width="150px" height="150px" viewBox="0 0 150 150" enable-background="new 0 0 150 150" xml:space="preserve"><circle fill="#383838" cx="40.6" cy="101.1" r="13.3"/><circle fill="#F0F0F0" cx="40.6" cy="101.1" r="6.1"/><circle fill="#383838" cx="102.7" cy="101.1" r="13.3"/><circle fill="#F0F0F0" cx="102.7" cy="101.1" r="6.1"/><path fill="#D33131" d="M119.4,68.1H32.5c-9.1,0-16.6,7.5-16.6,16.6v16h9.1c0.2-8.2,7.1-14.8,15.6-14.8c8.5,0,15.4,6.6,15.6,14.8	h30.7c0.2-8.2,7.1-14.8,15.6-14.8c8.5,0,15.4,6.6,15.6,14.8h17.6v-16C135.9,75.5,128.5,68.1,119.4,68.1z"/><path fill="#D33131" d="M32.4,69.2c0-19.8,16.1-35.9,35.9-35.9s35.9,16.1,35.9,35.9"/><path fill="#56D4FC" d="M40.1,68.1c0-15.7,12.7-28.3,28.3-28.3s28.3,12.7,28.3,28.3"/><rect x="13.6" y="96" fill="#BCBCBC" width="12.3" height="8.6"/><rect x="117.6" y="96" fill="#BCBCBC" width="20.6" height="8.6"/><path fill="#50C5EA" d="M57.1,42.2l6.2,25.9h1.2l21.9-21.9c-4.9-4-11.1-6.4-18-6.4C64.4,39.8,60.6,40.6,57.1,42.2z"/><rect x="55.8" y="38.8" fill="#D33131" width="8.8" height="36.7"/><path fill="#8E2323" d="M17.8,93.8h-3.7c-1.2,0-2.2-1-2.2-2.2V84c0-1.2,1-2.2,2.2-2.2h3.7c1.2,0,2.2,1,2.2,2.2v7.6	C20,92.8,19,93.8,17.8,93.8z"/><path fill="#BCBCBC" d="M136.1,86.4H130c-1.2,0-2.1-0.9-2.1-2.1v0c0-1.2,0.9-2.1,2.1-2.1h6.1c1.2,0,2.1,0.9,2.1,2.1v0	C138.2,85.5,137.3,86.4,136.1,86.4z"/><path fill="#BCBCBC" d="M136.1,93.4H130c-1.2,0-2.1-0.9-2.1-2.1v0c0-1.2,0.9-2.1,2.1-2.1h6.1c1.2,0,2.1,0.9,2.1,2.1v0	C138.2,92.5,137.3,93.4,136.1,93.4z"/><path fill="#383838" d="M71.5,83.2h-7.6c-0.9,0-1.7-0.8-1.7-1.7l0,0c0-0.9,0.8-1.7,1.7-1.7h7.6c0.9,0,1.7,0.8,1.7,1.7l0,0	C73.2,82.4,72.4,83.2,71.5,83.2z"/></svg>