<?xml version="1.0" encoding="utf-8"?><!DOCTYPE svg PUBLIC "-//W3C//DTD SVG 1.1//EN" "http://www.w3.org/Graphics/SVG/1.1/DTD/svg11.dtd"><svg version="1.1" xmlns="http://www.w3.org/2000/svg" xmlns:xlink="http://www.w3.org/1999/xlink" x="0px" y="0px" width="150px" height="150px" viewBox="0 0 150 150" enable-background="new 0 0 150 150" xml:space="preserve"><g id="Layer_2" display="none"><rect x="-1190" y="-1017.3" display="inline" fill="#F0F0F0" width="1680" height="1677.3"/></g><g id="Layer_1"/><g id="Layer_3"><path fill="#1CB0F6" d="M132.5,109.8H31.4c-5.6,0-10.1-4.5-10.1-10.1V63.6h121.2v36.2C142.5,105.3,138,109.8,132.5,109.8z"/><path fill="none" stroke="#B2B2B2" stroke-width="3.0846" stroke-miterlimit="10" d="M13.8,109.7V48.7c0-5.6,4.6-10.2,10.2-10.2h0 c5.6,0,10.2,4.6,10.2,10.2v23"/><rect x="3.5" y="53.5" fill="#009BD8" width="30.6" height="4.5"/><rect x="3.5" y="93.6" fill="#009BD8" width="10.3" height="4.5"/><rect x="3.5" y="80.2" fill="#009BD8" width="10.3" height="4.5"/><rect x="3.5" y="66.8" fill="#009BD8" width="10.3" height="4.5"/><path fill="none" stroke="#B2B2B2" stroke-width="3.0846" stroke-miterlimit="10" d="M3.5,109.7V48.7c0-5.6,4.6-10.2,10.2-10.2h0 c5.6,0,10.2,4.6,10.2,10.2v23"/><path fill="#009BD8" d="M142.9,73.5H20.8c-2.7,0-5-2.2-5-5v0c0-2.7,2.2-5,5-5h122.1c2.7,0,5,2.2,5,5v0 C147.9,71.3,145.7,73.5,142.9,73.5z"/></g></svg>