<?xml version="1.0" encoding="UTF-8" standalone="no"?><svg width="59px" height="47px" viewBox="0 0 59 47" version="1.1" xmlns="http://www.w3.org/2000/svg" xmlns:xlink="http://www.w3.org/1999/xlink" xmlns:sketch="http://www.bohemiancoding.com/sketch/ns"><title>store</title><description>Created with Sketch (http://www.bohemiancoding.com/sketch)</description><defs/><g id="Page-1" stroke="none" stroke-width="1" fill="none" fill-rule="evenodd" sketch:type="MSPage"><g id="store" sketch:type="MSArtboardGroup" transform="translate(-2.000000, -5.000000)"><g id="Imported-Layers" sketch:type="MSLayerGroup" transform="translate(3.000000, 5.000000)"><path d="M4.75057576,16.6307183 L51.9788182,16.6307183 L51.9788182,46.6193662 L4.75057576,46.6193662 L4.75057576,16.6307183 Z" id="Fill-1" fill="#A0583F" sketch:type="MSShapeGroup"/><path d="M45.7082424,25.9148732 C46.0352727,25.9148732 46.300697,26.2193803 46.300697,26.5960423 L46.300697,38.9696197 C46.300697,39.3462817 46.0352727,39.6514507 45.7082424,39.6514507 L28.1194242,39.6514507 C27.7923939,39.6514507 27.5269697,39.3462817 27.5269697,38.9696197 L27.5269697,26.5960423 C27.5269697,26.2193803 27.7923939,25.9148732 28.1194242,25.9148732 L45.7082424,25.9148732" id="Fill-2" fill="#CDDFE4" sketch:type="MSShapeGroup"/><path d="M22.042303,26.578831 C22.042303,26.202831 21.7768788,25.897662 21.4498485,25.897662 L10.9779697,25.897662 C10.6509394,25.897662 10.3855152,26.202831 10.3855152,26.578831 L10.3855152,46.6200282 L22.0325152,46.6200282 L22.0325152,46.0527183 L22.042303,45.9329014 L22.042303,26.578831" id="Fill-3" fill="#CCDFE3" sketch:type="MSShapeGroup"/><path d="M20.6558788,29.587493 C19.7237273,30.1879014 18.3862424,30.6790845 16.5040909,30.6790845 C15.2028788,30.6790845 14.2056667,30.4732113 13.4422121,30.1620845 L10.3855152,33.6771549 L10.3855152,41.3957465 L20.6558788,29.587493" id="Fill-4" fill="#E0F4F9" sketch:type="MSShapeGroup"/><path d="M13.0840909,46.6200282 L10.4707273,46.6200282 C10.5749394,46.8166338 10.7632121,46.9483662 10.9779697,46.9483662 L12.7979394,46.9483662 L13.0840909,46.6200282" id="Fill-5" fill="#FFFFFF" sketch:type="MSShapeGroup"/><path d="M22.042303,31.6727042 L10.3855152,45.0756479 L10.3855152,46.2671972 C10.3855152,46.3962817 10.4166061,46.5167606 10.4707273,46.6200282 L13.0840909,46.6200282 L22.042303,36.3197465 L22.042303,31.6727042" id="Fill-6" fill="#E0F4F9" sketch:type="MSShapeGroup"/><path d="M45.8792424,19.5692113 C45.8792424,20.0815775 45.2401515,22.9982254 40.3991818,22.9982254 C35.5582121,22.9982254 34.3191818,19.6810845 34.3191818,19.6810845 C34.3191818,20.4827324 32.1307273,23.0869296 28.2386061,23.0869296 C24.3464848,23.0869296 22.5846667,19.6810845 22.5846667,19.6810845 C22.5846667,19.6810845 21.3450606,23.0650845 16.5040909,23.0650845 C11.663697,23.0650845 11.0240303,20.0815775 11.0240303,19.5692113 L11.0240303,19.7459577 C11.0246061,19.7459577 11.0240303,19.6916761 11.0240303,19.5692113 C11.0240303,20.1040845 9.92087879,23.0425775 5.27336364,23.0425775 C5.09315152,23.0425775 4.91927273,23.0372817 4.75057576,23.0280141 L4.75057576,30.7750704 C4.91927273,30.785 5.09315152,30.7902958 5.27336364,30.7902958 C8.11990909,30.7902958 9.6370303,29.6874507 10.3855152,28.7103803 L10.3855152,26.578831 C10.3855152,26.202831 10.6509394,25.897662 10.9779697,25.897662 L21.4498485,25.897662 C21.7768788,25.897662 22.042303,26.202831 22.042303,26.578831 L22.042303,28.3257746 C22.436697,27.8173803 22.5846667,27.4288028 22.5846667,27.4288028 C22.5846667,27.4288028 24.1311515,30.3010986 27.5269697,30.6638592 L27.5269697,26.5960423 C27.5269697,26.2193803 27.7923939,25.9148732 28.1194242,25.9148732 L45.7082424,25.9148732 C46.0352727,25.9148732 46.300697,26.2193803 46.300697,26.5960423 L46.300697,28.3979296 C46.9524545,29.4352394 48.4741818,30.7902958 51.6304848,30.7902958 C51.7490909,30.7902958 51.8648182,30.7876479 51.9788182,30.7836761 L51.9788182,23.0359577 C51.8653939,23.0405915 51.7490909,23.0425775 51.6304848,23.0425775 C46.9829697,23.0425775 45.8792424,20.1040845 45.8792424,19.5692113 L45.8792424,19.7459577 L45.8792424,19.5692113" id="Fill-8" fill="#884B36" sketch:type="MSShapeGroup"/><path d="M45.7082424,25.9148732 L28.1194242,25.9148732 C27.7923939,25.9148732 27.5269697,26.2193803 27.5269697,26.5960423 L27.5269697,30.6638592 C27.7555455,30.6883521 27.9927576,30.7015915 28.2386061,30.7015915 C32.1307273,30.7015915 34.3191818,28.2297887 34.3191818,27.4288028 C34.3191818,27.4288028 35.5582121,30.6790845 40.3991818,30.6790845 C45.2401515,30.6790845 45.8792424,27.8292958 45.8792424,27.3169296 C45.8792424,27.4883803 45.9932424,27.9080704 46.300697,28.3979296 L46.300697,26.5960423 C46.300697,26.2193803 46.0352727,25.9148732 45.7082424,25.9148732" id="Fill-9" fill="#A9C2C8" sketch:type="MSShapeGroup"/><path d="M22.042303,27.9928028 L20.6558788,29.587493 C21.2920909,29.1770704 21.7400303,28.7156761 22.042303,28.3257746 L22.042303,27.9928028 M17.1512424,25.897662 L10.9779697,25.897662 C10.6509394,25.897662 10.3855152,26.202831 10.3855152,26.578831 L10.3855152,28.7103803 C10.8587879,28.0920986 11.0240303,27.5241268 11.0240303,27.3169296 C11.0240303,27.6916056 11.3660303,29.3160845 13.4422121,30.1620845 L17.1512424,25.897662" id="Fill-10" fill="#A9C2C8" sketch:type="MSShapeGroup"/><path d="M21.4498485,25.897662 L17.1512424,25.897662 L13.4422121,30.1620845 C14.2056667,30.4732113 15.2028788,30.6790845 16.5040909,30.6790845 C18.3862424,30.6790845 19.7237273,30.1879014 20.6558788,29.587493 L22.042303,27.9928028 L22.042303,26.578831 C22.042303,26.202831 21.7768788,25.897662 21.4498485,25.897662" id="Fill-11" fill="#BBD7DE" sketch:type="MSShapeGroup"/><path d="M47.6802121,0 L57.0909697,16.6307183 L57.0909697,19.7697887 C57.0909697,19.7697887 56.2774242,23.0425775 51.6304848,23.0425775 C46.9829697,23.0425775 45.8792424,20.1040845 45.8792424,19.5692113 C45.8792424,20.6382958 45.8792424,16.497 45.8792424,16.497 L40.6513636,0 L47.6802121,0" id="Fill-12" fill="#C62828" sketch:type="MSShapeGroup"/><path d="M9.22363636,0 L-0.187121212,16.6307183 L-0.187121212,19.7697887 C-0.187121212,19.7697887 0.625848485,23.0425775 5.27336364,23.0425775 C9.92087879,23.0425775 11.0240303,20.1040845 11.0240303,19.5692113 C11.0240303,20.6382958 11.0240303,16.497 11.0240303,16.497 L16.2524848,0 L9.22363636,0" id="Fill-13" fill="#C62828" sketch:type="MSShapeGroup"/><path d="M16.2524848,0 L23.8628485,0 L22.5846667,16.519507 L22.5846667,19.6810845 C22.5846667,19.6810845 21.3450606,23.0650845 16.5040909,23.0650845 C11.663697,23.0650845 11.0240303,20.0815775 11.0240303,19.5692113 L11.0240303,16.497 L16.2524848,0" id="Fill-14" fill="#FFFFFF" sketch:type="MSShapeGroup"/><path d="M40.6513636,0 L33.041,0 L34.3191818,16.519507 L34.3191818,19.6810845 C34.3191818,19.6810845 35.5582121,22.9982254 40.3991818,22.9982254 C45.2401515,22.9982254 45.8792424,20.0815775 45.8792424,19.5692113 L45.8792424,16.497 L40.6513636,0" id="Fill-15" fill="#FFFFFF" sketch:type="MSShapeGroup"/><path d="M23.8628485,0 L22.5846667,16.519507 L22.5846667,19.6810845 C22.5846667,19.6810845 24.3464848,23.0869296 28.2386061,23.0869296 C32.1307273,23.0869296 34.3191818,20.4827324 34.3191818,19.6810845 L34.3191818,16.519507 L33.041,0 L23.8628485,0" id="Fill-16" fill="#C62828" sketch:type="MSShapeGroup"/><path d="M57.0909697,16.6975775 L45.8792424,16.6975775 L45.8792424,19.5692113 C45.8792424,20.1040845 46.9829697,23.0425775 51.6304848,23.0425775 C56.2774242,23.0425775 57.0909697,19.7697887 57.0909697,19.7697887 L57.0909697,16.6975775" id="Fill-17" fill="#941E1E" sketch:type="MSShapeGroup"/><path d="M45.8792424,16.6975775 L34.3191818,16.6975775 L34.3191818,19.6810845 C34.3191818,19.6810845 35.5582121,22.9982254 40.3991818,22.9982254 C45.2401515,22.9982254 45.8792424,20.0815775 45.8792424,19.5692113 L45.8792424,16.6975775" id="Fill-18" fill="#BFBFBF" sketch:type="MSShapeGroup"/><path d="M11.0240303,16.6975775 L-0.187121212,16.6975775 L-0.187121212,19.7697887 C-0.187121212,19.7697887 0.625848485,23.0425775 5.27336364,23.0425775 C9.92087879,23.0425775 11.0240303,20.1040845 11.0240303,19.5692113 L11.0240303,16.6975775" id="Fill-19" fill="#941E1E" sketch:type="MSShapeGroup"/><path d="M22.5846667,16.6975775 L11.0240303,16.6975775 L11.0240303,19.5692113 C11.0240303,20.0815775 11.663697,23.0650845 16.5040909,23.0650845 C21.3450606,23.0650845 22.5846667,19.6810845 22.5846667,19.6810845 L22.5846667,16.6975775" id="Fill-20" fill="#BFBFBF" sketch:type="MSShapeGroup"/><path d="M34.3191818,16.6975775 L22.5846667,16.6975775 L22.5846667,19.6810845 C22.5846667,19.6810845 24.3464848,23.0869296 28.2386061,23.0869296 C32.1307273,23.0869296 34.3191818,20.4827324 34.3191818,19.6810845 L34.3191818,16.6975775" id="Fill-21" fill="#941E1E" sketch:type="MSShapeGroup"/></g></g></g></svg>