<?xml version="1.0" encoding="utf-8"?><!DOCTYPE svg PUBLIC "-//W3C//DTD SVG 1.1//EN" "http://www.w3.org/Graphics/SVG/1.1/DTD/svg11.dtd"><svg version="1.1" xmlns="http://www.w3.org/2000/svg" xmlns:xlink="http://www.w3.org/1999/xlink" x="0px" y="0px" width="150px" height="150px" viewBox="0 0 150 150" enable-background="new 0 0 150 150" xml:space="preserve"><g id="Layer_2" display="none"><rect x="-510" y="-340" display="inline" fill="#F0F0F0" width="1680" height="1677.3"/></g><g id="Layer_1"><path fill="#869B2D" d="M30.7,148.8v-8c0-25.6,20.8-46.3,46.3-46.3h0c25.6,0,46.3,20.8,46.3,46.3v8"/><rect x="89.3" y="136.3" fill="#808E2B" width="23.1" height="12.5"/><path fill="#99AA33" d="M115.9,134.3L115.9,134.3c0,4.2-3.4,7.6-7.6,7.6H93.6c-4.2,0-7.6-3.4-7.6-7.6l0,0"/><rect x="96.7" y="100.5" fill="#E0C75C" width="8.9" height="48.3"/><rect x="41.3" y="136.3" fill="#808E2B" width="23.1" height="12.5"/><path fill="#99AA33" d="M67.9,134.3L67.9,134.3c0,4.2-3.4,7.6-7.6,7.6H45.6c-4.2,0-7.6-3.4-7.6-7.6l0,0"/><rect x="48.7" y="100.5" fill="#E0C75C" width="8.9" height="48.3"/><path fill="#99AA33" d="M100.5,124v-20.5c0-13-10.6-23.6-23.6-23.6h0c-13,0-23.6,10.6-23.6,23.6l0,20.5l23.8-7.7L100.5,124z"/><polygon fill="#B25C4B" points="86.7,107.7 77.1,116 67.5,107.7"/><path fill="#B25C4B" d="M77.1,112L77.1,112c-7.1,0-12.8-5.8-12.8-12.8v-9.9c0-7.1,5.8-12.8,12.8-12.8h0c7.1,0,12.8,5.8,12.8,12.8 v9.9C90,106.2,84.2,112,77.1,112z"/><circle fill="#E0C75C" cx="76.9" cy="128.5" r="2.3"/><circle fill="#E0C75C" cx="76.9" cy="143.1" r="2.3"/><path fill="#4C241C" d="M49.8,17.6c-12.4,0-22.5,10.1-22.5,22.5v3.7v12.9v40.6h0c12.4,0,22.5-10.1,22.5-22.5v-3.7v-4.9L49.8,17.6 L49.8,17.6z"/><path fill="#4C241C" d="M76.8,82.6L76.8,82.6c-20.7,0-37.7-16.9-37.7-37.7v-1.6c0-20.7,16.9-37.7,37.7-37.7h0 c20.7,0,37.7,16.9,37.7,37.7V45C114.5,65.7,97.5,82.6,76.8,82.6z"/><circle fill="#B25C4B" cx="110.2" cy="54.1" r="7.7"/><circle fill="#B25C4B" cx="44.3" cy="54.1" r="7.7"/><path fill="#BF7358" d="M77.2,94L77.2,94c-18.3,0-33-14.8-33-33V40.4c0-18.3,14.8-33,33-33h0c18.3,0,33,14.8,33,33v20.5 C110.3,79.2,95.5,94,77.2,94z"/><circle fill="#A85F48" cx="60.2" cy="45.5" r="4.1"/><circle fill="#A85F48" cx="94.2" cy="45.5" r="4.1"/><path fill="#B25C4B" d="M81.2,56.3h-8c-0.8,0-1.5-0.7-1.5-1.5V42.8c0-0.8,0.7-1.5,1.5-1.5h8c0.8,0,1.5,0.7,1.5,1.5v12.1 C82.7,55.7,82.1,56.3,81.2,56.3z"/><path fill="#4F4F4F" d="M46.2,83.6L46.2,83.6c-1.7,0-3.1-1.4-3.1-3.1V43.3c0-1.7,1.4-3.1,3.1-3.1h0c1.7,0,3.1,1.4,3.1,3.1v37.2 C49.3,82.2,47.9,83.6,46.2,83.6z"/><path fill="#4F4F4F" d="M107.4,95.9L107.4,95.9c-1.7,0-3.1-1.4-3.1-3.1V43.3c0-1.7,1.4-3.1,3.1-3.1h0c1.7,0,3.1,1.4,3.1,3.1v49.5 C110.5,94.5,109.1,95.9,107.4,95.9z"/><path fill="#558C25" d="M115,43.8H37.3V30.8c0-15.4,12.5-27.9,27.9-27.9h21.9c15.4,0,27.9,12.5,27.9,27.9V43.8z"/><path fill="#4D7A21" d="M87.8,11.7c-5,0-9,4.1-9,9v0c0,5,4.1,9,9,9h10.1c0.1,3.2,2.7,5.8,5.9,5.8H115v-4.6c0-7.4-2.9-14.2-7.6-19.2 H87.8z"/><path fill="#4D7A21" d="M60.4,44h40.3c-1.3-3.3-4.6-5.6-8.3-5.6H68.8C65,38.4,61.8,40.7,60.4,44z"/><path fill="#4D7A21" d="M67.9,19h-6.2c-2.7,0-4.8-2.2-4.8-4.8v0c0-2.7,2.2-4.8,4.8-4.8l6.2,0c2.7,0,4.8,2.2,4.8,4.8v0 C72.7,16.9,70.6,19,67.9,19z"/><path fill="#4D7A21" d="M46.5,41.2c4.4,0,7.9-3.6,7.9-7.9s-3.6-7.9-7.9-7.9h-8.7c-0.3,1.8-0.5,3.6-0.5,5.4v10.4H46.5z"/><path fill="#A85F48" d="M73.6,65.8h7.3c1,0,1.8-0.8,1.8-1.8v0c0-1-0.8-1.8-1.8-1.8h-7.3c-1,0-1.8,0.8-1.8,1.8v0 C71.7,65,72.6,65.8,73.6,65.8z"/></g><g id="Layer_3"/></svg>