<?xml version="1.0" encoding="utf-8"?><!DOCTYPE svg PUBLIC "-//W3C//DTD SVG 1.1//EN" "http://www.w3.org/Graphics/SVG/1.1/DTD/svg11.dtd"><svg version="1.1" id="Layer_1" xmlns="http://www.w3.org/2000/svg" xmlns:xlink="http://www.w3.org/1999/xlink" x="0px" y="0px" width="150px" height="150px" viewBox="0 0 150 150" enable-background="new 0 0 150 150" xml:space="preserve"><linearGradient id="SVGID_1_" gradientUnits="userSpaceOnUse" x1="74.9884" y1="138.9706" x2="74.9884" y2="9.3661"><stop offset="0" style="stop-color:#B3F6E3"/><stop offset="1" style="stop-color:#62C9DA"/></linearGradient><path fill="url(#SVGID_1_)" d="M127.7,139H22.2c-6.7,0-12.1-5.4-12.1-12.1V21.4c0-6.7,5.4-12.1,12.1-12.1h105.5	c6.7,0,12.1,5.4,12.1,12.1v105.5C139.8,133.6,134.4,139,127.7,139z"/><path fill="#FFFFFF" d="M20.9,139H129c5.9,0,10.7-4.8,10.7-10.7V101H10.2v27.2C10.2,134.2,15,139,20.9,139z"/><circle fill="#FFFFFF" cx="20.1" cy="80" r="2.7"/><circle fill="#FFFFFF" cx="131" cy="82" r="2.7"/><circle fill="#FFFFFF" cx="75" cy="92" r="2.7"/><circle fill="#FFFFFF" cx="66.2" cy="22.6" r="2.7"/><circle fill="#FFFFFF" cx="76.8" cy="59.8" r="2.7"/><circle fill="#FFFFFF" cx="26.3" cy="33.3" r="2.7"/><circle fill="#FFFFFF" cx="110.1" cy="22.6" r="2.7"/><circle fill="#FFFFFF" cx="125.7" cy="43.1" r="2.7"/><circle fill="#FFFFFF" cx="102.9" cy="73.3" r="14.2"/><circle fill="#FFFFFF" cx="102.9" cy="101" r="20.8"/><circle fill="#606060" cx="96.7" cy="69.3" r="2"/><circle fill="#606060" cx="110" cy="69.3" r="2"/><circle fill="#606060" cx="102.9" cy="102.8" r="2.6"/><circle fill="#606060" cx="102.9" cy="91.6" r="2.6"/><path fill="#FF9700" d="M108.7,78.6h-4.5c-1.5,0-2.8-1.3-2.8-2.8v0c0-1.5,1.3-2.8,2.8-2.8h4.5c1.5,0,2.8,1.3,2.8,2.8v0	C111.5,77.4,110.3,78.6,108.7,78.6z"/><path fill="#606060" d="M120.2,63.5H85.6c-0.9,0-1.6-0.7-1.6-1.6v0c0-0.9,0.7-1.6,1.6-1.6h34.6c0.9,0,1.6,0.7,1.6,1.6v0	C121.8,62.8,121.1,63.5,120.2,63.5z"/><path fill="#606060" d="M110.9,62.4H94.7c-1.4,0-2.6-1.1-2.6-2.6V50c0-1.4,1.1-2.6,2.6-2.6h16.3c1.4,0,2.6,1.1,2.6,2.6v9.9	C113.5,61.3,112.3,62.4,110.9,62.4z"/><polygon fill="#60960B" points="26,81.6 45.5,30.6 65,81.6"/><polygon fill="#60960B" points="20.4,118.3 45.5,45.7 70.5,118.3"/><path fill="#FFFFFF" d="M64,76.6H52c-2.2,0-4-1.8-4-4v0c0-2.2,1.8-4,4-4h12c2.2,0,4,1.8,4,4v0C68,74.8,66.2,76.6,64,76.6z"/><path fill="#FFFFFF" d="M39,68.6h-7.6c-2.2,0-4-1.8-4-4v0c0-2.2,1.8-4,4-4H39c2.2,0,4,1.8,4,4v0C43,66.8,41.2,68.6,39,68.6z"/></svg>