<?xml version="1.0" encoding="utf-8"?><!DOCTYPE svg PUBLIC "-//W3C//DTD SVG 1.1//EN" "http://www.w3.org/Graphics/SVG/1.1/DTD/svg11.dtd"><svg version="1.1" id="Layer_1" xmlns="http://www.w3.org/2000/svg" xmlns:xlink="http://www.w3.org/1999/xlink" x="0px" y="0px" width="150px" height="150px" viewBox="0 0 150 150" enable-background="new 0 0 150 150" xml:space="preserve"><path fill="#EF7E29" d="M91.1,131.2H62.2c-3,0-5.4-2.4-5.4-5.4v0c0-3,2.4-5.4,5.4-5.4h28.9c3,0,5.4,2.4,5.4,5.4v0	C96.5,128.8,94.1,131.2,91.1,131.2z"/><path fill="#EF7E29" d="M124.6,131.2H95.8c-3,0-5.4-2.4-5.4-5.4v0c0-3,2.4-5.4,5.4-5.4h28.9c3,0,5.4,2.4,5.4,5.4v0	C130.1,128.8,127.6,131.2,124.6,131.2z"/><path fill="#EF7E29" d="M75.8,103.9c-8.4,0-15.2-6.8-15.2-15.2c0-18-14.6-32.6-32.6-32.6c-4.8,0-8.7,3.9-8.7,8.7	c0,4.8,3.9,8.7,8.7,8.7c8.4,0,15.2,6.8,15.2,15.2c0,18,14.6,32.6,32.6,32.6c4.8,0,8.7-3.9,8.7-8.7C84.4,107.8,80.6,103.9,75.8,103.9	z"/><path fill="#EF7E29" d="M99,131.2H75.7c-2,0-3.7-1.7-3.7-3.7v-1.8c0-2,1.7-3.7,3.7-3.7H99c2,0,3.7,1.7,3.7,3.7v1.8	C102.7,129.6,101,131.2,99,131.2z"/><path fill="#EF7E29" d="M93.7,131.3L93.7,131.3c-16.8,0-30.6-13.8-30.6-30.6V54.6C63.1,37.8,76.9,24,93.7,24h0	c16.8,0,30.6,13.8,30.6,30.6v46.1C124.3,117.5,110.6,131.3,93.7,131.3z"/><circle fill="#FFDCC5" cx="93.7" cy="67.1" r="8.4"/><path fill="#FFFFFF" d="M101.2,69.8l-6.8-3.2c-0.5-0.2-1.1-0.2-1.5,0l-6.8,3.2c-0.3,0.1-0.6,0.2-0.9,0.2c-3.3-0.2-6-3-6-6.4v0	c0-3.5,2.9-6.4,6.4-6.4h15.9c3.5,0,6.4,2.9,6.4,6.4v0c0,3.4-2.6,6.2-6,6.4C101.7,70,101.4,69.9,101.2,69.8z"/><rect x="114.4" y="34.5" fill="#EF7E29" width="9.9" height="36.6"/><path fill="#C95F17" d="M83.6,47.2c0,2.6-2.1,4.8-4.8,4.8s-4.8-2.1-4.8-4.8"/><path fill="#C95F17" d="M113.4,47.2c0,2.6-2.1,4.8-4.8,4.8c-2.6,0-4.8-2.1-4.8-4.8"/><path fill="#EF7E29" d="M124.3,35.8l-0.1-14.9c0-1.8-2.1-2.7-3.4-1.6l-20.5,16.6H124.3z"/><path fill="#EF7E29" d="M63.1,35.8l0.1-14.9c0-1.8,2.1-2.7,3.4-1.6l20.5,16.6H63.1z"/><rect x="63.1" y="35.6" fill="#EF7E29" width="9.8" height="35.2"/><path fill="#E26917" d="M100.6,131.2h-2.3c-2.7,0-4.8-2.2-4.8-4.8v-32c0-2.7,2.2-4.8,4.8-4.8h2.3c2.7,0,4.8,2.2,4.8,4.8v32	C105.4,129,103.2,131.2,100.6,131.2z"/><path fill="#E26917" d="M88.8,131.2h-2.3c-2.7,0-4.8-2.2-4.8-4.8v-32c0-2.7,2.2-4.8,4.8-4.8h2.3c2.7,0,4.8,2.2,4.8,4.8v32	C93.6,129,91.4,131.2,88.8,131.2z"/><path fill="#EF7E29" d="M111.3,85.9c0,9.7-7.9,17.6-17.6,17.6S76,95.7,76,85.9"/><path fill="#E26917" d="M105.8,131.2H81.6c-3,0-5.4-2.4-5.4-5.4v0c0-3,2.4-5.4,5.4-5.4h24.2c3,0,5.4,2.4,5.4,5.4v0	C111.3,128.8,108.8,131.2,105.8,131.2z"/><rect x="81" y="84.3" fill="#EF7E29" width="30.8" height="14.3"/><path fill="#E26917" d="M63.1,71.1H70c3.7,0,6.6,3,6.6,6.6v0c0,3.7-3,6.6-6.6,6.6h-6.9"/><path fill="#E26917" d="M63.1,88.4H70c3.7,0,6.6,3,6.6,6.6v0c0,3.7-3,6.6-6.6,6.6h-6.9"/><path fill="#E26917" d="M124.3,101.7h-6.9c-3.7,0-6.6-3-6.6-6.6v0c0-3.7,3-6.6,6.6-6.6h6.9"/><path fill="#E26917" d="M124.3,84.3h-6.9c-3.7,0-6.6-3-6.6-6.6v0c0-3.7,3-6.6,6.6-6.6h6.9"/><path fill="#FF8AC5" d="M97.3,58.5l-2.7,4.7c-0.4,0.6-1.3,0.6-1.6,0l-2.7-4.7c-0.4-0.6,0.1-1.4,0.8-1.4h5.5	C97.2,57.2,97.6,57.9,97.3,58.5z"/><path fill="#E26917" d="M83.1,61.9l-12.1-1.8c-0.5-0.1-0.9-0.6-0.8-1.1v0c0.1-0.5,0.6-0.9,1.1-0.8l12.1,1.8c0.5,0.1,0.9,0.6,0.8,1.1	v0C84.2,61.6,83.7,62,83.1,61.9z"/><path fill="#E26917" d="M83.4,66.3l-12.1,1.7c-0.5,0.1-1.1-0.3-1.1-0.9l0,0c-0.1-0.5,0.3-1.1,0.9-1.1l12.1-1.7	c0.5-0.1,1.1,0.3,1.1,0.9l0,0C84.4,65.8,84,66.3,83.4,66.3z"/><path fill="#E26917" d="M103.7,62.3l12.1-1.8c0.5-0.1,0.9-0.6,0.8-1.1v0c-0.1-0.5-0.6-0.9-1.1-0.8l-12.1,1.8	c-0.5,0.1-0.9,0.6-0.8,1.1v0C102.6,62,103.1,62.4,103.7,62.3z"/><path fill="#E26917" d="M103.4,66.7l12.1,1.7c0.5,0.1,1.1-0.3,1.1-0.9l0,0c0.1-0.5-0.3-1.1-0.9-1.1l-12.1-1.7	c-0.5-0.1-1.1,0.3-1.1,0.9l0,0C102.4,66.1,102.8,66.7,103.4,66.7z"/></svg>