<?xml version="1.0" encoding="utf-8"?><!DOCTYPE svg PUBLIC "-//W3C//DTD SVG 1.1//EN" "http://www.w3.org/Graphics/SVG/1.1/DTD/svg11.dtd"><svg version="1.1" id="Layer_1" xmlns="http://www.w3.org/2000/svg" xmlns:xlink="http://www.w3.org/1999/xlink" x="0px" y="0px" width="150px" height="150px" viewBox="0 0 150 150" enable-background="new 0 0 150 150" xml:space="preserve"><path fill="#303030" d="M28.4,145.6v-8c0-25.7,20.8-46.5,46.5-46.5h0c25.7,0,46.5,20.8,46.5,46.5v8"/><path fill="#424242" d="M46,145.6v-40.3c0-15.9,13-28.9,28.9-28.9h0c15.9,0,28.9,13,28.9,28.9v40.3"/><rect x="58.3" y="115.1" fill="#E2E2E2" width="33.3" height="30.7"/><path fill="#4F4F4F" d="M108.3,42.4H41.7c-6.4,0-11.5-5.2-11.5-11.5v0c0-6.4,5.2-11.5,11.5-11.5h66.5c6.4,0,11.5,5.2,11.5,11.5v0	C119.8,37.2,114.7,42.4,108.3,42.4z"/><polygon fill="#D33131" points="82.4,115.2 75,128.1 67.5,115.2"/><polygon fill="#D33131" points="67.5,145.7 75,117.9 82.4,145.7"/><path fill="#FFFFFF" d="M95.6,122.2v-18c0-11.4-9.3-20.7-20.7-20.7h0c-11.4,0-20.7,9.3-20.7,20.7v18l20.9-6.8L95.6,122.2z"/><g><ellipse fill="#FF9D8A" cx="41.7" cy="50.2" rx="8.3" ry="7.8"/></g><path fill="#FF9D8A" d="M75,59c-9,0-16.4,7.2-16.4,16v19.1c0,8.8,7.4,16,16.4,16s16.4-7.2,16.4-16V75C91.4,66.2,84,59,75,59z"/><polygon fill="#FF9D8A" points="85.2,106.5 75,115.4 64.7,106.5"/><g><ellipse fill="#FF9D8A" cx="108.3" cy="50.2" rx="8.3" ry="7.8"/></g><g><path fill="#FFB5A1" d="M87.1,91H62.9c-11.7,0-21.2-9.5-21.2-21.2V37.1C41.7,18.7,56.6,3.8,75,3.8h0c18.4,0,33.3,14.9,33.3,33.3 v32.8C108.3,81.6,98.8,91,87.1,91z"/></g><path fill="#4F4F4F" d="M50.2,60.7L50.2,60.7c0-5.6,4.6-10.2,10.2-10.2h29c5.6,0,10.2,4.6,10.2,10.2v0"/><g><rect x="69.5" y="39.3" fill="#FF9D8A" width="10.9" height="13.9"/></g><g><path fill="#EA9486" d="M62.1,42.1c0,2.3-1.9,4.1-4.1,4.1c-2.3,0-4.1-1.9-4.1-4.1"/></g><g><path fill="#EA9486" d="M96.2,42.1c0,2.3-1.9,4.1-4.1,4.1c-2.3,0-4.1-1.9-4.1-4.1"/></g><path fill="#EA9486" d="M79.6,66h-9.4c-0.8,0-1.5-0.7-1.5-1.5l0,0c0-0.8,0.7-1.5,1.5-1.5h9.4c0.8,0,1.5,0.7,1.5,1.5l0,0	C81,65.3,80.4,66,79.6,66z"/><g><path fill="#FF9D8A" d="M74.8,86.8c-3,0-5.8-1.3-7.7-3.7c-0.3-0.4-0.3-1,0.1-1.3c0.4-0.3,1-0.3,1.3,0.1c1.5,1.9,3.8,3,6.2,3 s4.7-1.1,6.2-3c0.3-0.4,0.9-0.5,1.3-0.1c0.4,0.3,0.5,0.9,0.1,1.3C80.5,85.5,77.7,86.8,74.8,86.8z"/></g><path fill="#FF9D8A" d="M98.7,42.2l-47.2,0c-1.1,0-2-0.9-2-2v0c0-1.1,0.9-2,2-2h47.2c1.1,0,2,0.9,2,2v0	C100.6,41.3,99.8,42.2,98.7,42.2z"/><path fill="#FFC4B8" d="M77.8,15.5h-5.9c-1.3,0-2.4-1.1-2.4-2.4v0c0-1.3,1.1-2.4,2.4-2.4h5.9c1.3,0,2.4,1.1,2.4,2.4v0	C80.3,14.4,79.2,15.5,77.8,15.5z"/></svg>