<?xml version="1.0" encoding="utf-8"?><!DOCTYPE svg PUBLIC "-//W3C//DTD SVG 1.1//EN" "http://www.w3.org/Graphics/SVG/1.1/DTD/svg11.dtd"><svg version="1.1" id="Layer_1" xmlns="http://www.w3.org/2000/svg" xmlns:xlink="http://www.w3.org/1999/xlink" x="0px" y="0px" width="150px" height="150px" viewBox="0 0 150 150" enable-background="new 0 0 150 150" xml:space="preserve"><polygon fill="#E59200" points="112.8,92.5 59.7,92.5 68.5,70.4 103.9,70.4"/><polygon fill="#E59200" points="88,70.4 34.9,70.4 43.7,48.3 79.1,48.3"/><polygon fill="#E59200" points="59.7,92.5 6.6,92.5 15.4,70.4 50.8,70.4"/><polygon fill="#FFCE00" points="134.9,70.4 118.9,70.4 110.1,48.3 74.7,48.3 65.8,70.4 46.4,70.4 37.6,92.5 90.6,92.5 81.8,70.4 99.5,70.4 90.6,92.5 143.7,92.5"/><g><path fill="#FFFFFF" d="M111.2,40.3c3.5,1.5,6.3,4.3,7.7,7.8c1.4-3.5,4.2-6.4,7.7-7.8c-3.5-1.5-6.3-4.3-7.7-7.8 C117.5,36,114.7,38.9,111.2,40.3z"/></g><g><path fill="#FFFFFF" d="M28.8,108.5c3.5,1.5,6.2,4.3,7.6,7.8c1.4-3.5,4.2-6.3,7.6-7.8c-3.5-1.5-6.2-4.3-7.6-7.8 C35.1,104.3,32.3,107.1,28.8,108.5z"/></g></svg>