<?xml version="1.0" encoding="utf-8"?><!DOCTYPE svg PUBLIC "-//W3C//DTD SVG 1.1//EN" "http://www.w3.org/Graphics/SVG/1.1/DTD/svg11.dtd"><svg version="1.1" id="Layer_1" xmlns="http://www.w3.org/2000/svg" xmlns:xlink="http://www.w3.org/1999/xlink" x="0px" y="0px" width="150px" height="150px" viewBox="0 0 150 150" enable-background="new 0 0 150 150" xml:space="preserve"><path fill="#36A8E0" d="M32.8,129.4L32.8,129.4c1.4,0,2.5-1.1,2.5-2.5V24.6c0-1.4-1.1-2.5-2.5-2.5h0c-1.4,0-2.5,1.1-2.5,2.5v102.3	C30.3,128.3,31.4,129.4,32.8,129.4z"/><path fill="#36A8E0" d="M14.6,2.9l-3.5,3.5L31,26.3c1,1,2.5,1,3.5,0l0,0c1-1,1-2.5,0-3.5L14.6,2.9z"/><path fill="#1B92C1" d="M35.1,27.1L35.1,27.1c-1.3,1.3-3.3,1.3-4.6,0l-7.6-7.6c-0.2-0.2-0.2-0.5,0-0.7l3.9-3.9	c0.2-0.2,0.5-0.2,0.7,0l7.6,7.6C36.3,23.7,36.3,25.8,35.1,27.1z"/><path fill="#1B92C1" d="M32.8,21.5L32.8,21.5c1.8,0,3.3,1.5,3.3,3.3v8.5c0,0.3-0.2,0.5-0.5,0.5H30c-0.3,0-0.5-0.2-0.5-0.5l0-8.5	C29.5,23,31,21.5,32.8,21.5z"/><polygon fill="#CC2F2F" points="55.6,139.1 10.1,139.1 7.2,50.2 58.5,50.2"/><g><path fill="#FFB000" d="M128.1,125.6h-0.5c-2.4,0-4.3-1.9-4.3-4.3V55c0-2.4,1.9-4.3,4.3-4.3h0.5c2.4,0,4.3,1.9,4.3,4.3v66.3 C132.4,123.7,130.5,125.6,128.1,125.6z"/><path fill="#FFBC00" d="M135.7,108.9h-0.5c-2.4,0-4.3-1.9-4.3-4.3V68.4c0-2.4,1.9-4.3,4.3-4.3h0.5c2.4,0,4.3,1.9,4.3,4.3v36.2 C139.9,107,138,108.9,135.7,108.9z"/><path fill="#FFC200" d="M120.6,127.9h-0.5c-2.4,0-4.3-1.9-4.3-4.3V57.4c0-2.4,1.9-4.3,4.3-4.3h0.5c2.4,0,4.3,1.9,4.3,4.3v66.3 C124.8,126,122.9,127.9,120.6,127.9z"/><path fill="#FFBC00" d="M114.2,115.1h-0.5c-2.4,0-4.3-1.9-4.3-4.3V44.6c0-2.4,1.9-4.3,4.3-4.3h0.5c2.4,0,4.3,1.9,4.3,4.3v66.3 C118.5,113.2,116.6,115.1,114.2,115.1z"/><path fill="#FFB000" d="M102.6,123.3h-0.5c-2.4,0-4.3-1.9-4.3-4.3V52.7c0-2.4,1.9-4.3,4.3-4.3h0.5c2.4,0,4.3,1.9,4.3,4.3V119 C106.9,121.3,105,123.3,102.6,123.3z"/><path fill="#FFC200" d="M131,133.1h-0.5c-2.4,0-4.3-1.9-4.3-4.3V62.6c0-2.4,1.9-4.3,4.3-4.3h0.5c2.4,0,4.3,1.9,4.3,4.3v66.3 C135.3,131.2,133.4,133.1,131,133.1z"/><path fill="#FFC200" d="M120,138.9h-0.5c-2.4,0-4.3-1.9-4.3-4.3V68.4c0-2.4,1.9-4.3,4.3-4.3h0.5c2.4,0,4.3,1.9,4.3,4.3v66.3 C124.3,137,122.4,138.9,120,138.9z"/><path fill="#FFC200" d="M102.6,127.3h-0.5c-2.4,0-4.3-1.9-4.3-4.3V74.2c0-2.4,1.9-4.3,4.3-4.3h0.5c2.4,0,4.3,1.9,4.3,4.3v48.9 C106.9,125.4,105,127.3,102.6,127.3z"/><path fill="#FFC200" d="M109.6,127.3h-0.5c-2.4,0-4.3-1.9-4.3-4.3V56.8c0-2.4,1.9-4.3,4.3-4.3h0.5c2.4,0,4.3,1.9,4.3,4.3v66.3 C113.8,125.4,111.9,127.3,109.6,127.3z"/><path fill="#FFB000" d="M114.2,127.3h-0.5c-2.4,0-4.3-1.9-4.3-4.3V74.2c0-2.4,1.9-4.3,4.3-4.3h0.5c2.4,0,4.3,1.9,4.3,4.3v48.9 C118.5,125.4,116.6,127.3,114.2,127.3z"/><path fill="#FFBC00" d="M107.2,133.1h-0.5c-2.4,0-4.3-1.9-4.3-4.3V80c0-2.4,1.9-4.3,4.3-4.3h0.5c2.4,0,4.3,1.9,4.3,4.3v48.9 C111.5,131.2,109.6,133.1,107.2,133.1z"/><path fill="#FFC200" d="M99.1,138.9h-0.5c-2.4,0-4.3-1.9-4.3-4.3V68.4c0-2.4,1.9-4.3,4.3-4.3h0.5c2.4,0,4.3,1.9,4.3,4.3v66.3 C103.4,137,101.5,138.9,99.1,138.9z"/><path fill="#FFFFFF" d="M136.9,89.6c0,9.6-7.8,17.4-17.4,17.4s-17.4-7.8-17.4-17.4l-10.6,7.5l3.5,42h46.7l5.8-49.5H136.9z"/></g><path fill="#773931" d="M102.3,105.3h-58c-2.9,0-5.3-2.4-5.3-5.3v-0.5c0-2.9,2.4-5.3,5.3-5.3h58c2.9,0,5.3,2.4,5.3,5.3v0.5	C107.6,102.9,105.2,105.3,102.3,105.3z"/><path fill="#773931" d="M102.5,126.6h-58c-2.9,0-5.3-2.4-5.3-5.3v-0.5c0-2.9,2.4-5.3,5.3-5.3h58c2.9,0,5.3,2.4,5.3,5.3v0.5	C107.8,124.2,105.4,126.6,102.5,126.6z"/><path fill="#DB976A" d="M108,91.1c0-19-15.4-34.4-34.4-34.4S39.1,72,39.1,91.1H108z"/><path fill="#EDB894" d="M75,66.7h-2.9c-0.9,0-1.6-0.7-1.6-1.6v0c0-0.9,0.7-1.6,1.6-1.6H75c0.9,0,1.6,0.7,1.6,1.6v0	C76.6,66,75.9,66.7,75,66.7z"/><path fill="#EDB894" d="M63.4,72.5h-2.9c-0.9,0-1.6-0.7-1.6-1.6v0c0-0.9,0.7-1.6,1.6-1.6h2.9c0.9,0,1.6,0.7,1.6,1.6v0	C65,71.8,64.3,72.5,63.4,72.5z"/><path fill="#EDB894" d="M86.6,72.5h-2.9c-0.9,0-1.6-0.7-1.6-1.6v0c0-0.9,0.7-1.6,1.6-1.6h2.9c0.9,0,1.6,0.7,1.6,1.6v0	C88.2,71.8,87.5,72.5,86.6,72.5z"/><polygon fill="#FF9700" points="88.8,94.3 73.5,105.3 58.3,94.3"/><path fill="#DB976A" d="M105.6,112.5h-64c-1.3,0-2.4-1.1-2.4-2.4v-2.3c0-1.3,1.1-2.4,2.4-2.4h64c1.3,0,2.4,1.1,2.4,2.4v2.3	C108,111.4,106.9,112.5,105.6,112.5z"/><path fill="#DB976A" d="M108,126.4L108,126.4c0,7-5.7,12.7-12.7,12.7H51.8c-7,0-12.7-5.7-12.7-12.7v0"/><path fill="#88C11A" d="M109.8,94.3H36.9c-0.9,0-1.6-0.7-1.6-1.6l0,0c0-0.9,0.7-1.6,1.6-1.6h72.9c0.9,0,1.6,0.7,1.6,1.6l0,0	C111.4,93.5,110.6,94.3,109.8,94.3z"/><path fill="#88C11A" d="M109.8,115.6H36.9c-0.9,0-1.6-0.7-1.6-1.6l0,0c0-0.9,0.7-1.6,1.6-1.6h72.9c0.9,0,1.6,0.7,1.6,1.6l0,0	C111.4,114.9,110.6,115.6,109.8,115.6z"/><path fill="#FFC200" d="M56.5,94.3V105c0,2.7-2.2,4.9-4.9,4.9h0c-2.7,0-4.9-2.2-4.9-4.9V94.3"/><path fill="#FFFFFF" d="M62.5,55.5c0-4.4-3.6-8-8-8H10.7c-4.4,0-8,3.6-8,8H62.5z"/><rect x="18.8" y="55.5" fill="#EFEFEF" width="6.6" height="83.7"/><polygon fill="#FF9700" points="88.8,115.6 73.5,126.6 58.3,115.6"/><path fill="#CC2F2F" d="M97.3,112.4v14.8c0,2.7-2.2,4.9-4.9,4.9h0c-2.7,0-4.9-2.2-4.9-4.9v-14.8"/><path fill="#CC2F2F" d="M90.5,112.4v9.3c0,1.7-1.4,3.1-3.1,3.1h0c-1.7,0-3.1-1.4-3.1-3.1v-9.3"/></svg>