<?xml version="1.0" encoding="UTF-8" standalone="no"?><svg width="135px" height="104px" viewBox="0 0 135 104" version="1.1" xmlns="http://www.w3.org/2000/svg" xmlns:xlink="http://www.w3.org/1999/xlink" xmlns:sketch="http://www.bohemiancoding.com/sketch/ns"><title>bird</title><desc>Created with Sketch.</desc><defs/><g id="Page-1" stroke="none" stroke-width="1" fill="none" fill-rule="evenodd" sketch:type="MSPage"><g id="bird" sketch:type="MSLayerGroup"><path d="M72.384,86.896 C78.54,84.937 84.617,82.741 90.651,80.424 L90.651,0.455 C80.408,0.455 72.106,8.758 72.106,19.001 L72.106,86.973 C72.199,86.948 72.291,86.92 72.384,86.896" id="Fill-1" fill="#D33131" sketch:type="MSShapeGroup"/><path d="M104.717,79.082 L134.567,79.082 C134.567,69.007 126.4,60.84 116.325,60.84 L104.626,60.84 C104.32,66.904 104.385,72.98 104.717,79.082" id="Fill-2" fill="#FF9522" sketch:type="MSShapeGroup"/><path d="M73.509,86.528 C79.393,84.626 85.21,82.519 90.985,80.296 L63.548,9.916 C54.006,13.636 49.285,24.388 53.006,33.931 L73.509,86.528" id="Fill-3" fill="#D33131" sketch:type="MSShapeGroup"/><path d="M72.384,86.896 C75.782,85.815 79.155,84.656 82.511,83.451 L44.919,29.09 C36.495,34.915 34.388,46.467 40.213,54.892 L63.97,89.246 C66.768,88.433 69.57,87.636 72.384,86.896" id="Fill-4" fill="#D33131" sketch:type="MSShapeGroup"/><path d="M116.372,60.809 C116.372,84.23 97.385,103.217 73.963,103.217 C50.542,103.217 31.554,84.23 31.554,60.809" id="Fill-5" fill="#D33131" sketch:type="MSShapeGroup"/><path d="M101.28,60.809 L0.932,60.809 C0.932,71.051 9.236,79.354 19.478,79.354 L101.371,79.354 C101.682,73.189 101.618,67.011 101.28,60.809" id="Fill-6" fill="#D33131" sketch:type="MSShapeGroup"/><path d="M107.835,70.019 C107.835,72.579 105.76,74.654 103.2,74.654 C100.641,74.654 98.566,72.579 98.566,70.019 C98.566,67.459 100.641,65.384 103.2,65.384 C105.76,65.384 107.835,67.459 107.835,70.019" id="Fill-7" fill="#7C1F1F" sketch:type="MSShapeGroup"/><path d="M72.883,65.621 L72.883,65.621 C72.883,69.564 69.686,72.761 65.743,72.761 L61.536,72.761 C57.593,72.761 54.396,69.564 54.396,65.621" id="Fill-8" fill="#BC2E2E" sketch:type="MSShapeGroup"/><path d="M89.036,75.823 L89.036,75.823 C89.036,79.766 85.84,82.963 81.897,82.963 L77.689,82.963 C73.747,82.963 70.55,79.766 70.55,75.823" id="Fill-9" fill="#BC2E2E" sketch:type="MSShapeGroup"/><path d="M72.883,86.026 L72.883,86.026 C72.883,89.969 69.686,93.165 65.743,93.165 L61.536,93.165 C57.593,93.165 54.396,89.969 54.396,86.026" id="Fill-10" fill="#BC2E2E" sketch:type="MSShapeGroup"/></g></g></svg>