<?xml version="1.0" encoding="utf-8"?><!DOCTYPE svg PUBLIC "-//W3C//DTD SVG 1.1//EN" "http://www.w3.org/Graphics/SVG/1.1/DTD/svg11.dtd"><svg version="1.1" id="Layer_1" xmlns="http://www.w3.org/2000/svg" xmlns:xlink="http://www.w3.org/1999/xlink" x="0px" y="0px" width="150px" height="150px" viewBox="0 0 150 150" enable-background="new 0 0 150 150" xml:space="preserve"><path fill="#1980BA" d="M38.9,1.6V147h31V45.6c0-2.9,2.4-5.3,5.3-5.3c2.9,0,5.3,2.4,5.3,5.3V147h31V1.6H38.9z"/><rect x="36.7" y="136.7" fill="#60BAE2" width="35.2" height="10.3"/><rect x="78.9" y="136.7" fill="#60BAE2" width="35.2" height="10.3"/><path fill="#1E6BA5" d="M92.6,9.5c0,10.5,8.5,19,19,19v-19H92.6z"/><path fill="#1E6BA5" d="M38.9,28.5c10.5,0,19-8.5,19-19h-19V28.5z"/><path fill="#1C91C4" d="M68.9,9.5v17.3c0,6.9,5.6,12.5,12.5,12.5V9.5H68.9z"/><circle fill="#FFCE00" cx="75.2" cy="16.1" r="4.9"/><path fill="#1C92C6" d="M102.8,94.1l2.3-2.3c0.4-0.4,0.4-1.1,0-1.5s-1.1-0.4-1.5,0l-2.3,2.3L97.7,89l2.3-2.3c0.4-0.4,0.4-1.1,0-1.5	s-1.1-0.4-1.5,0l-2.3,2.3L94,85.3c-0.4-0.4-1.1-0.4-1.5,0s-0.4,1.1,0,1.5l2.3,2.3l-3.6,3.6l-2.3-2.3c-0.4-0.4-1.1-0.4-1.5,0	s-0.4,1.1,0,1.5l2.3,2.3l-2.3,2.3c-0.4,0.4-0.4,1.1,0,1.5c0.2,0.2,0.5,0.3,0.7,0.3s0.5-0.1,0.7-0.3l2.3-2.3l3.6,3.6l-2.3,2.3	c-0.4,0.4-0.4,1.1,0,1.5c0.2,0.2,0.5,0.3,0.7,0.3c0.3,0,0.5-0.1,0.7-0.3l2.3-2.3l2.3,2.3c0.2,0.2,0.5,0.3,0.7,0.3	c0.3,0,0.5-0.1,0.7-0.3c0.4-0.4,0.4-1.1,0-1.5l-2.3-2.3l3.6-3.6l2.3,2.3c0.2,0.2,0.5,0.3,0.7,0.3c0.3,0,0.5-0.1,0.7-0.3	c0.4-0.4,0.4-1.1,0-1.5L102.8,94.1z M96.3,97.7l-3.6-3.6l3.6-3.6l3.6,3.6L96.3,97.7z"/></svg>