<?xml version="1.0" encoding="utf-8"?><!DOCTYPE svg PUBLIC "-//W3C//DTD SVG 1.1//EN" "http://www.w3.org/Graphics/SVG/1.1/DTD/svg11.dtd"><svg version="1.1" id="Layer_1" xmlns="http://www.w3.org/2000/svg" xmlns:xlink="http://www.w3.org/1999/xlink" x="0px" y="0px" width="150px" height="150px" viewBox="0 0 150 150" enable-background="new 0 0 150 150" xml:space="preserve"><g><path fill="#D6D6D6" d="M29.6,71.9c9.6,0,17.4,7.8,17.4,17.4s-7.8,17.4-17.4,17.4s-17.4-7.8-17.4-17.4S20.1,71.9,29.6,71.9 M29.6,63.9c-14,0-25.4,11.4-25.4,25.4s11.4,25.4,25.4,25.4S55,103.3,55,89.3S43.6,63.9,29.6,63.9L29.6,63.9z"/></g><g><path fill="#D6D6D6" d="M120.2,71.9c9.6,0,17.4,7.8,17.4,17.4s-7.8,17.4-17.4,17.4s-17.4-7.8-17.4-17.4S110.6,71.9,120.2,71.9 M120.2,63.9c-14,0-25.4,11.4-25.4,25.4s11.4,25.4,25.4,25.4s25.4-11.4,25.4-25.4S134.2,63.9,120.2,63.9L120.2,63.9z"/></g><line fill="none" stroke="#C6C6C6" stroke-width="4" stroke-linecap="round" stroke-linejoin="round" stroke-miterlimit="10" x1="61.8" y1="46.2" x2="63" y2="60"/><line fill="none" stroke="#739B2D" stroke-width="4" stroke-linecap="round" stroke-linejoin="round" stroke-miterlimit="10" x1="62.8" y1="59.8" x2="64.8" y2="89"/><circle fill="none" stroke="#1C1C1C" stroke-width="4" stroke-miterlimit="10" cx="120.2" cy="89.3" r="25.4"/><circle fill="none" stroke="#1C1C1C" stroke-width="4" stroke-miterlimit="10" cx="29.6" cy="89.3" r="25.4"/><polygon fill="none" stroke="#739B2D" stroke-width="4" stroke-linecap="round" stroke-linejoin="round" stroke-miterlimit="10" points="62.6,59.5 112.8,59.2 64.6,89.5 29.6,89.5"/><circle fill="#898989" cx="64.8" cy="88.8" r="8.6"/><path fill="none" stroke="#9B9B9B" stroke-width="4" stroke-miterlimit="10" d="M63.9,80.8"/><path fill="none" stroke="#9B9B9B" stroke-width="4" stroke-miterlimit="10" d="M66,96.7"/><path fill="none" stroke="#9B9B9B" stroke-width="4" stroke-linecap="round" stroke-linejoin="round" stroke-miterlimit="10" d="M70.3,82.9"/><path fill="none" stroke="#9B9B9B" stroke-width="4" stroke-linecap="round" stroke-linejoin="round" stroke-miterlimit="10" d="M65.1,89.5"/><path fill="none" stroke="#9B9B9B" stroke-width="4" stroke-linecap="round" stroke-linejoin="round" stroke-miterlimit="10" d="M58.1,84.9"/><path fill="none" stroke="#C6C6C6" stroke-width="4" stroke-linecap="round" stroke-linejoin="round" stroke-miterlimit="10" d="M67.3,42.1c0,1.9-1.2,3.5-2.6,3.5h-5.9c-1.4,0-2.6-1.6-2.6-3.5"/><path fill="none" stroke="#9B9B9B" stroke-width="4" stroke-linecap="round" stroke-linejoin="round" stroke-miterlimit="10" d="M65.2,89.3"/><path fill="none" stroke="#9B9B9B" stroke-width="4" stroke-linecap="round" stroke-linejoin="round" stroke-miterlimit="10" d="M59.4,94.8"/><path fill="none" stroke="#9B9B9B" stroke-width="4" stroke-linecap="round" stroke-linejoin="round" stroke-miterlimit="10" d="M65,88.6"/><path fill="none" stroke="#9B9B9B" stroke-width="4" stroke-linecap="round" stroke-linejoin="round" stroke-miterlimit="10" d="M71.4,93"/><path fill="none" stroke="#9B9B9B" stroke-width="4" stroke-linecap="round" stroke-linejoin="round" stroke-miterlimit="10" d="M64.8,88.8"/><path fill="#874F29" d="M73.8,42.1H53.5c-0.7,0-1.3-0.6-1.3-1.3v-6.2c0-1,1-1.6,1.9-1.1l20.4,6.2C75.6,40.3,75.2,42.1,73.8,42.1z"/><path fill="none" stroke="#BCBCBC" stroke-width="4" stroke-linecap="round" stroke-linejoin="round" stroke-miterlimit="10" d="M127.8,43c0,2.3,1.8,4.1,4.1,4.1"/><line fill="none" stroke="#739B2D" stroke-width="4" stroke-linecap="round" stroke-linejoin="round" stroke-miterlimit="10" x1="108.6" y1="42" x2="120.2" y2="89.5"/><line fill="none" stroke="#BCBCBC" stroke-width="4" stroke-linecap="round" stroke-linejoin="round" stroke-miterlimit="10" x1="108.6" y1="42" x2="110" y2="47.9"/><line fill="none" stroke="#874F29" stroke-width="4" stroke-linecap="round" stroke-linejoin="round" stroke-miterlimit="10" x1="108.6" y1="42" x2="127.8" y2="42"/><path fill="none" stroke="#874F29" stroke-width="4" stroke-linecap="round" stroke-linejoin="round" stroke-miterlimit="10" d="M123.2,42.8c0,4.1-3.3,7.4-7.4,7.4"/><path fill="none" stroke="#874F29" stroke-width="4" stroke-linecap="round" stroke-linejoin="round" stroke-miterlimit="10" d="M133.7,39c-1.4,1.8-3.5,2.9-5.9,2.9"/><line fill="none" stroke="#9B9B9B" stroke-width="4" stroke-linecap="round" stroke-linejoin="round" stroke-miterlimit="10" x1="64.8" y1="88.9" x2="64.8" y2="101.9"/><line fill="none" stroke="#9B9B9B" stroke-width="4" stroke-linecap="round" stroke-linejoin="round" stroke-miterlimit="10" x1="60.6" y1="101.9" x2="69" y2="101.9"/><path fill="#C6C6C6" d="M64.8,57.9h-4.5c-0.7,0-1.3-0.6-1.3-1.3v-0.2c0-0.7,0.6-1.3,1.3-1.3h4.5c0.7,0,1.3,0.6,1.3,1.3v0.2	C66.1,57.3,65.5,57.9,64.8,57.9z"/><path fill="#C6C6C6" d="M112.3,50.3h-4.5c-0.7,0-1.3-0.6-1.3-1.3v-0.2c0-0.7,0.6-1.3,1.3-1.3h4.5c0.7,0,1.3,0.6,1.3,1.3V49	C113.6,49.7,113,50.3,112.3,50.3z"/></svg>