<?xml version="1.0" encoding="utf-8"?><!DOCTYPE svg PUBLIC "-//W3C//DTD SVG 1.1//EN" "http://www.w3.org/Graphics/SVG/1.1/DTD/svg11.dtd"><svg version="1.1" id="Layer_1" xmlns="http://www.w3.org/2000/svg" xmlns:xlink="http://www.w3.org/1999/xlink" x="0px" y="0px" width="150px" height="150px" viewBox="0 0 150 150" enable-background="new 0 0 150 150" xml:space="preserve"><path fill="#CC7462" d="M148,84l-2.7,2.7c-7.8,7.8-20.4,7.8-28.1,0l-7.2-7.2c-7.8-7.8-7.8-20.4,0-28.1l2.7-2.7"/><path fill="#7C3A23" d="M46.8,114.6h-6.2c-3.6,0-6.6-3-6.6-6.6V63.4c0-3.6,3-6.6,6.6-6.6h6.2c3.6,0,6.6,3,6.6,6.6V108	C53.4,111.7,50.4,114.6,46.8,114.6z"/><path fill="#7C3A23" d="M112.4,107.7L109,111c-2.4,2.4-6.3,2.4-8.7,0L68.1,78.7c-2.4-2.4-2.4-6.3,0-8.7l3.4-3.4	c2.4-2.4,6.3-2.4,8.7,0L112.4,99C114.7,101.4,114.7,105.3,112.4,107.7z"/><path fill="#9B4E2C" d="M10.3,112.9l-7.1-7.1c-2.3-2.3-2.3-6.2,0-8.5l36.2-36.2c2.3-2.3,6.2-2.3,8.5,0l7.1,7.1	c2.3,2.3,2.3,6.2,0,8.5l-36.2,36.2C16.5,115.2,12.6,115.2,10.3,112.9z"/><path fill="#9B4E2C" d="M84.8,115.4h-8c-3.4,0-6.2-2.8-6.2-6.2V62.9c0-3.4,2.8-6.2,6.2-6.2h8c3.4,0,6.2,2.8,6.2,6.2v46.3	C90.9,112.6,88.1,115.4,84.8,115.4z"/><path fill="#9B4E2C" d="M130.4,88.8L130.4,88.8c-6.2,6.2-16.4,6.2-22.7,0L83,64.1c-6.2-6.2-6.2-16.4,0-22.7l0,0	c6.2-6.2,16.4-6.2,22.7,0l24.7,24.7C136.6,72.3,136.6,82.5,130.4,88.8z"/><path fill="#9B4E2C" d="M31.6,71.3H20.1c-5.6,0-10.1-4.5-10.1-10.1v0c0-5.6,4.5-10.1,10.1-10.1h11.6c5.6,0,10.1,4.5,10.1,10.1v0	C41.7,66.8,37.2,71.3,31.6,71.3z"/><path fill="#9B4E2C" d="M114,74.1L92.7,52.8c-4.1-4.1-4.1-10.9,0-15l0,0c4.1-4.1,10.9-4.1,15,0l21.3,21.3c4.1,4.1,4.1,10.9,0,15l0,0	C124.9,78.3,118.2,78.3,114,74.1z"/><path fill="#9B4E2C" d="M127.1,46.1L127.1,46.1c-3.1-3.1-8.1-3.1-11.1,0l-6,6c-3.1,3.1-3.1,8.1,0,11.1s8.1,3.1,11.1,0l6-6	C130.1,54.2,130.1,49.2,127.1,46.1z"/><path fill="#9B4E2C" d="M92.7,88.2H45.1c-14.8,0-26.8-12-26.8-26.8v0c0-14.8,12-26.8,26.8-26.8h47.6c14.8,0,26.8,12,26.8,26.8v0	C119.4,76.2,107.4,88.2,92.7,88.2z"/><path fill="#602D1B" d="M128.2,70.4c0,1.9-1.6,3.5-3.5,3.5s-3.5-1.6-3.5-3.5"/><path fill="#602D1B" d="M145.3,86.8L148,84l-4.3-4.3v8.5C144.2,87.8,144.8,87.3,145.3,86.8z"/><rect x="88.3" y="34.7" fill="#9B4E2C" width="12" height="4.7"/><path fill="#9B4E2C" d="M24,115.4h-9.4c-2.2,0-4-1.8-4-4v0c0-2.2,1.8-4,4-4H24c2.2,0,4,1.8,4,4v0C28,113.6,26.2,115.4,24,115.4z"/><path fill="#9B4E2C" d="M91.6,115.4h-9.4c-2.2,0-4-1.8-4-4v0c0-2.2,1.8-4,4-4h9.4c2.2,0,4,1.8,4,4v0	C95.6,113.6,93.8,115.4,91.6,115.4z"/><path fill="#7C3A23" d="M54.3,114.6h-9.4c-2.2,0-4-1.8-4-4v0c0-2.2,1.8-4,4-4h9.4c2.2,0,4,1.8,4,4v0	C58.4,112.8,56.5,114.6,54.3,114.6z"/><path fill="#7C3A23" d="M117.5,102.5l-7.3,7.3c-1.6,1.6-4.1,1.6-5.7,0l0,0c-1.6-1.6-1.6-4.1,0-5.7l7.3-7.3c1.6-1.6,4.1-1.6,5.7,0	l0,0C119.1,98.3,119.1,100.9,117.5,102.5z"/></svg>