<?xml version="1.0" encoding="utf-8"?><!DOCTYPE svg PUBLIC "-//W3C//DTD SVG 1.1//EN" "http://www.w3.org/Graphics/SVG/1.1/DTD/svg11.dtd"><svg version="1.1" id="Layer_1" xmlns="http://www.w3.org/2000/svg" xmlns:xlink="http://www.w3.org/1999/xlink" x="0px" y="0px" width="150px" height="150px" viewBox="0 0 150 150" enable-background="new 0 0 150 150" xml:space="preserve"><path fill="#783F30" d="M104,137.7H45.3c-8.6,0-15.7-7.1-15.7-15.7v0c0-8.6,7.1-15.7,15.7-15.7H104c8.6,0,15.7,7.1,15.7,15.7v0	C119.7,130.7,112.6,137.7,104,137.7z"/><path fill="#783F30" d="M88.3,121.8V77.8c0-8.6,7.1-15.7,15.7-15.7h0c8.6,0,15.7,7.1,15.7,15.7v44.1c0,8.6-7.1,15.7-15.7,15.7h0	C95.3,137.5,88.3,130.5,88.3,121.8z"/><path fill="#783F30" d="M119.7,7.9L119.7,7.9c-3.4,0-6.2,2.8-6.2,6.2v19.1h-3.3V14.1c0-3.4-2.8-6.2-6.2-6.2l0,0	c-3.4,0-6.2,2.8-6.2,6.2v19.1h-3.3V14.1c0-3.4-2.8-6.2-6.2-6.2c-3.4,0-6.2,2.8-6.2,6.2v19.1V45v0.1l-1.7-1.4	c-0.3-0.2-0.5-0.4-0.7-0.7c-2.5-2.5-6.5-2.7-9.2-0.4c-1.7,1.5-2.5,3.7-2.3,5.8c0.2,1.8,1.1,3.4,2.5,4.6l13.8,11.3	c0.3,0.2,0.5,0.4,0.7,0.7c0.3,0.3,0.7,0.6,1,0.9c0.6,0.9,1.3,1.7,2,2.4v17.5c0,4.6,3.7,8.3,8.3,8.3h14.7c4.6,0,8.3-3.7,8.3-8.3V68.3	c3.8-3.9,6.2-9.3,6.2-15.2V45V33.3V14.1C125.9,10.7,123.1,7.9,119.7,7.9z"/></svg>