<?xml version="1.0" encoding="utf-8"?><!DOCTYPE svg PUBLIC "-//W3C//DTD SVG 1.1//EN" "http://www.w3.org/Graphics/SVG/1.1/DTD/svg11.dtd"><svg version="1.1" id="Layer_1" xmlns="http://www.w3.org/2000/svg" xmlns:xlink="http://www.w3.org/1999/xlink" x="0px" y="0px" width="150px" height="150px" viewBox="0 0 150 150" enable-background="new 0 0 150 150" xml:space="preserve"><path fill="#FFC200" d="M129.1,141.3H20.7c-6.7,0-12.1-5.4-12.1-12.1V20.9c0-6.7,5.4-12.1,12.1-12.1h108.4c6.7,0,12.1,5.4,12.1,12.1	v108.4C141.2,135.9,135.8,141.3,129.1,141.3z"/><path fill="#AF5937" d="M8.6,130.3c0,6.2,5.1,11.3,11.3,11.3h109.9c6.2,0,11.3-5.1,11.3-11.3v-0.2H8.6V130.3z"/><path fill="#A3472B" d="M44.4,134H9.3c0.4,1.1,0.9,2.1,1.6,3h33.5c0.8,0,1.5-0.7,1.5-1.5S45.3,134,44.4,134z"/><path fill="#A3472B" d="M108.5,139.2H77.7c-0.8,0-1.5-0.7-1.5-1.5v0c0-0.8,0.7-1.5,1.5-1.5h30.8c0.8,0,1.5,0.7,1.5,1.5v0	C110,138.5,109.3,139.2,108.5,139.2z"/><path fill="#A3472B" d="M130.9,135.6h-15.5c-0.8,0-1.5-0.7-1.5-1.5l0,0c0-0.8,0.7-1.5,1.5-1.5h15.5c0.8,0,1.5,0.7,1.5,1.5l0,0	C132.4,134.9,131.8,135.6,130.9,135.6z"/><path fill="#A3472B" d="M71.6,135H56.2c-0.8,0-1.5-0.7-1.5-1.5l0,0c0-0.8,0.7-1.5,1.5-1.5h15.5c0.8,0,1.5,0.7,1.5,1.5l0,0	C73.1,134.3,72.5,135,71.6,135z"/><rect x="27.3" y="90.1" fill="#FFFFFF" width="7" height="15.3"/><path fill="#91432D" d="M23.4,130.4L23.4,130.4c-2.1,0-3.9-1.7-3.9-3.9V68c0-2.1,1.7-3.9,3.9-3.9h0c2.1,0,3.9,1.7,3.9,3.9v58.6	C27.3,128.7,25.5,130.4,23.4,130.4z"/><rect x="25.8" y="105.5" fill="#91432D" width="96.6" height="7.7"/><path fill="#91432D" d="M126.2,130.4L126.2,130.4c-2.1,0-3.9-1.7-3.9-3.9V84.9c0-2.1,1.7-3.9,3.9-3.9h0c2.1,0,3.9,1.7,3.9,3.9v41.7	C130.1,128.7,128.4,130.4,126.2,130.4z"/><path fill="#8549BA" d="M122.4,120.8H30.7V90.1h82.4c5.1,0,9.2,4.1,9.2,9.2V120.8z"/><path fill="#FFFFFF" d="M56,89.9H38.6c-4.4,0-7.9-3.5-7.9-7.9v0c0-4.4,3.5-7.9,7.9-7.9H56c4.4,0,7.9,3.5,7.9,7.9v0	C63.9,86.3,60.3,89.9,56,89.9z"/><rect x="30.7" y="90.1" fill="#9556D8" width="9.1" height="30.7"/><polygon fill="none" stroke="#D18B00" stroke-width="0.9541" stroke-miterlimit="10" points="92.7,34.7 101.3,23.8 109.8,34.7"/><circle fill="#91432D" cx="23.4" cy="62.2" r="2.6"/><circle fill="#91432D" cx="126.2" cy="78.8" r="2.6"/><rect x="80.9" y="29.7" fill="#91432D" width="40.7" height="32.8"/><rect x="85.3" y="33.8" fill="#3EE8FF" width="32" height="24.4"/><path fill="#72B51C" d="M117.3,43.9h-3.2c-3.6,0-6.8,1.6-9.1,4.1c-1.5-0.7-3.1-1.1-4.9-1.1H85.3v11.3h32V43.9z"/></svg>