<?xml version="1.0" encoding="utf-8"?><!DOCTYPE svg PUBLIC "-//W3C//DTD SVG 1.1//EN" "http://www.w3.org/Graphics/SVG/1.1/DTD/svg11.dtd"><svg version="1.1" id="Layer_1" xmlns="http://www.w3.org/2000/svg" xmlns:xlink="http://www.w3.org/1999/xlink" x="0px" y="0px" width="150px" height="150px" viewBox="0 0 150 150" enable-background="new 0 0 150 150" xml:space="preserve"><path fill="#88C11A" d="M146.5,49.3c0.3-0.4,0.4-0.9,0.3-1.4c-0.1-0.5-0.4-0.9-0.8-1.1l-4.3-2.3v-4c0-0.5-0.2-0.9-0.5-1.2	c-0.3-0.3-0.8-0.5-1.3-0.5l-4.3,0.3c-0.9,0.1-1.6,0.8-1.6,1.7v7.8l-8.5,2.9c-0.4,0.2-0.8,0.5-1,0.9l-2.2,4.8l-6.5,0.5	c-0.9,0.1-1.6,0.8-1.6,1.7v3.5l-4.6,3.1l0.6-5c0.1-0.4,0-0.8-0.3-1.1l-3.6-5.6c-0.3-0.4-0.7-0.7-1.2-0.7c-0.5-0.1-1,0.1-1.3,0.4	l-6.7,5.6c-0.5,0.4-0.7,1.1-0.6,1.7l1.1,4.6l-2.6,2.2l-4.1-8.1l7.1-5.6c0.6-0.4,0.8-1.2,0.5-1.9c-0.2-0.7-0.9-1.1-1.6-1.1h-4.8	l-1.9-1.8c-0.5-0.4-1.1-0.6-1.7-0.4l-3,1l0.6-1.7c0.2-0.5,0.1-1-0.1-1.5c-0.3-0.4-0.7-0.7-1.2-0.8l-28.9-3.4l-36.5-8.8	c-0.1,0-0.3,0-0.4,0h-7c-0.5,0-1,0.2-1.3,0.6c-0.3,0.4-0.4,0.9-0.3,1.4l1,4.4L1.7,62.9c-0.2,0.4-0.2,0.9,0,1.3l11.2,29.3	c0.2,0.4,0.5,0.8,0.9,0.9l26.1,11.2c0.7,0.3,1.5,0.1,2-0.5l1.3-1.6l6.6,11.6c0.3,0.4,0.7,0.7,1.2,0.8l3.4,0.6	c0.5,0.1,1.1-0.1,1.5-0.5c0.4-0.4,0.6-0.9,0.5-1.5l-0.3-1.7h2.5l8.8,11.9c0.2,0.2,0.4,0.4,0.6,0.5l4.5,2.2c0.2,0.1,0.5,0.2,0.8,0.2	c0.6,0,1.2-0.3,1.5-0.9l6.3-12.4l16.8,1.6c0.6,0.1,1.1-0.2,1.5-0.6c0.4-0.4,0.5-1,0.3-1.6l-1.1-3.3l3.8-0.3l3.7,2.2	c0.4,0.2,0.9,0.3,1.3,0.2l4.6-1.3l5.3,9.7v2.4c0,0.6,0.3,1.1,0.8,1.4l4.6,2.8c0.4,0.3,0.9,0.3,1.4,0.2c0.5-0.2,0.9-0.5,1-1l2.7-7	c0.2-0.5,0.1-1-0.1-1.5l-8.6-14.3l15.4-16.2c0.6-0.6,0.6-1.5,0.2-2.1l-3.1-4.4l3.2-12.8l6.2-3.1c0.6-0.3,0.9-0.9,0.9-1.5v-3.3	c0-0.6-0.4-1.2-0.9-1.5l-0.8-0.4v-0.9L146.5,49.3z"/><path fill="#FFFFFF" d="M106,53.7c0-17.3-14-31.3-31.3-31.3c-17.3,0-31.3,14-31.3,31.3c0,9.9,4.6,18.7,11.8,24.4h-0.1L74.7,98	l19.6-19.9h-0.1C101.4,72.4,106,63.6,106,53.7z"/><path fill="#1CB0F6" d="M46.3,54c0,1.9,0.2,3.8,0.5,5.6h27.9v-34C59.1,25.6,46.3,38.3,46.3,54z"/><path fill="#FFFFFF" d="M53.3,35.3l1.8-0.9l2.3,1.2l-0.4-2.6l1.9-1.8l-0.9-0.1C56.2,32.4,54.7,33.8,53.3,35.3z"/><polygon fill="#FFFFFF" points="66.9,28.5 68,30.9 70.6,31.2 68.7,33.1 69.2,35.6 66.9,34.4 64.6,35.6 65,33.1 63.2,31.2 65.7,30.9"/><polygon fill="#FFFFFF" points="55.1,49.4 56.2,51.8 58.8,52.1 56.9,54 57.4,56.5 55.1,55.3 52.8,56.5 53.2,54 51.3,52.1 53.9,51.8"/><polygon fill="#FFFFFF" points="66.9,49.4 68,51.8 70.6,52.1 68.7,54 69.2,56.5 66.9,55.3 64.6,56.5 65,54 63.2,52.1 65.7,51.8"/><path fill="#FFFFFF" d="M48.9,45.2l2.3,1.2l-0.4-2.6l1.9-1.8L50,41.6l-0.4-0.9c-0.9,1.6-1.6,3.4-2.1,5.2L48.9,45.2z"/><polygon fill="#FFFFFF" points="61.3,39.3 62.4,41.6 65,42 63.1,43.8 63.6,46.4 61.3,45.2 58.9,46.4 59.4,43.8 57.5,42 60.1,41.6"/><path fill="#CC2F2F" d="M97.4,36.9C92.3,30,84,25.6,74.7,25.6v11.3H97.4z"/><path fill="#CC2F2F" d="M74.7,59.5h27.9c0.4-1.8,0.5-3.7,0.5-5.6c0-2-0.2-3.9-0.6-5.8H74.7V59.5z"/><path fill="#CC2F2F" d="M51.9,70.9c4.6,6.2,11.6,10.4,19.6,11.3h6.4C86,81.3,93,77,97.6,70.9H51.9z"/><path fill="#7CAA18" d="M25.5,80.7h-0.2c-0.6,0-1.1-0.5-1.1-1.1v-2.8c0-0.6,0.5-1.1,1.1-1.1h0.2c0.6,0,1.1,0.5,1.1,1.1v2.8	C26.6,80.2,26.1,80.7,25.5,80.7z"/><path fill="#7CAA18" d="M28.8,80.7h-0.2c-0.6,0-1.1-0.5-1.1-1.1v-4.5c0-0.6,0.5-1.1,1.1-1.1h0.2c0.6,0,1.1,0.5,1.1,1.1v4.5	C29.9,80.2,29.4,80.7,28.8,80.7z"/><path fill="#7CAA18" d="M32.1,80.7h-0.2c-0.6,0-1.1-0.5-1.1-1.1v-2.1c0-0.6,0.5-1.1,1.1-1.1h0.2c0.6,0,1.1,0.5,1.1,1.1v2.1	C33.2,80.2,32.7,80.7,32.1,80.7z"/><path fill="#7CAA18" d="M13.9,59.4h-0.2c-0.5,0-0.8-0.4-0.8-0.8v-2.2c0-0.5,0.4-0.8,0.8-0.8h0.2c0.5,0,0.8,0.4,0.8,0.8v2.2	C14.7,59,14.3,59.4,13.9,59.4z"/><path fill="#7CAA18" d="M16.4,59.4h-0.2c-0.5,0-0.8-0.4-0.8-0.8V55c0-0.5,0.4-0.8,0.8-0.8h0.2c0.5,0,0.8,0.4,0.8,0.8v3.6	C17.3,59,16.9,59.4,16.4,59.4z"/><path fill="#7CAA18" d="M19,59.4h-0.2c-0.5,0-0.8-0.4-0.8-0.8v-1.7c0-0.5,0.4-0.8,0.8-0.8H19c0.5,0,0.8,0.4,0.8,0.8v1.7	C19.9,59,19.5,59.4,19,59.4z"/><path fill="#7CAA18" d="M90.8,100.9h-0.2c-0.6,0-1-0.5-1-1v-2.7c0-0.6,0.5-1,1-1h0.2c0.6,0,1,0.5,1,1v2.7	C91.8,100.5,91.3,100.9,90.8,100.9z"/><path fill="#7CAA18" d="M93.9,100.9h-0.2c-0.6,0-1-0.5-1-1v-4.4c0-0.6,0.5-1,1-1h0.2c0.6,0,1,0.5,1,1v4.4	C95,100.5,94.5,100.9,93.9,100.9z"/><path fill="#7CAA18" d="M97.1,100.9h-0.2c-0.6,0-1-0.5-1-1v-2c0-0.6,0.5-1,1-1h0.2c0.6,0,1,0.5,1,1v2	C98.1,100.5,97.7,100.9,97.1,100.9z"/><path fill="#7CAA18" d="M110.8,73.3h-0.1c-0.4,0-0.7-0.3-0.7-0.7v-1.8c0-0.4,0.3-0.7,0.7-0.7h0.1c0.4,0,0.7,0.3,0.7,0.7v1.8	C111.5,73,111.2,73.3,110.8,73.3z"/><path fill="#7CAA18" d="M112.9,73.3h-0.1c-0.4,0-0.7-0.3-0.7-0.7v-2.8c0-0.4,0.3-0.7,0.7-0.7h0.1c0.4,0,0.7,0.3,0.7,0.7v2.8	C113.5,73,113.2,73.3,112.9,73.3z"/><path fill="#7CAA18" d="M114.9,73.3h-0.1c-0.4,0-0.7-0.3-0.7-0.7v-1.3c0-0.4,0.3-0.7,0.7-0.7h0.1c0.4,0,0.7,0.3,0.7,0.7v1.3	C115.6,73,115.3,73.3,114.9,73.3z"/></svg>