<?xml version="1.0" encoding="utf-8"?><!DOCTYPE svg PUBLIC "-//W3C//DTD SVG 1.1//EN" "http://www.w3.org/Graphics/SVG/1.1/DTD/svg11.dtd"><svg version="1.1" id="Layer_1" xmlns="http://www.w3.org/2000/svg" xmlns:xlink="http://www.w3.org/1999/xlink" x="0px" y="0px" width="150px" height="150px" viewBox="0 0 150 150" enable-background="new 0 0 150 150" xml:space="preserve"><path fill="#2D2D2D" d="M103.1,134.1H47c-3.9,0-7.1-3.2-7.1-7.1V21.7c0-3.9,3.2-7.1,7.1-7.1h56.1c3.9,0,7.1,3.2,7.1,7.1v105.2	C110.3,130.9,107.1,134.1,103.1,134.1z"/><path fill="#444444" d="M107.5,16.1c-1.2-0.9-2.7-1.5-4.4-1.5H47c-3.9,0-7.1,3.2-7.1,7.1v105.2c0,2,0.8,3.7,2.1,5L107.5,16.1z"/><rect x="44.7" y="30.7" fill="#F0F0F0" width="60.4" height="85.9"/><circle fill="#515151" cx="75.1" cy="125.3" r="4.8"/><path d="M80.8,23.7H69.3c-0.6,0-1.1-0.5-1.1-1.1V22c0-0.6,0.5-1.1,1.1-1.1h11.4c0.6,0,1.1,0.5,1.1,1.1v0.6	C81.9,23.2,81.4,23.7,80.8,23.7z"/></svg>