<?xml version="1.0" encoding="utf-8"?><!DOCTYPE svg PUBLIC "-//W3C//DTD SVG 1.1//EN" "http://www.w3.org/Graphics/SVG/1.1/DTD/svg11.dtd"><svg version="1.1" id="Layer_1" xmlns="http://www.w3.org/2000/svg" xmlns:xlink="http://www.w3.org/1999/xlink" x="0px" y="0px" width="150px" height="150px" viewBox="0 0 150 150" enable-background="new 0 0 150 150" xml:space="preserve"><path fill="#A8472D" d="M141.1,95.1H8.9c-1.3,0-2.4-1.1-2.4-2.4v0c0-1.3,1.1-2.4,2.4-2.4h132.2c1.3,0,2.4,1.1,2.4,2.4v0	C143.5,94,142.4,95.1,141.1,95.1z"/><rect x="42.6" y="71.8" fill="#C16244" width="64.9" height="37.5"/><rect x="8.8" y="95.1" fill="#C16244" width="132.3" height="51.9"/><path fill="#FFFFFF" d="M38.1,94.1L74.4,72c0.2-0.1,0.4-0.1,0.6,0l36.3,22.1c0.5,0.3,0.3,1-0.3,1H38.4	C37.8,95.1,37.6,94.4,38.1,94.1z"/><rect x="40.3" y="95.1" fill="#FFFFFF" width="9.2" height="51.8"/><rect x="59.9" y="95.1" fill="#FFFFFF" width="9.2" height="51.8"/><path fill="#8FDAFF" d="M29.6,117.2h-9.9V108c0-2.7,2.2-5,5-5h0c2.7,0,5,2.2,5,5V117.2z"/><path fill="#A8472D" d="M79.9,138.1H70V126c0-2.7,2.2-5,5-5h0c2.7,0,5,2.2,5,5V138.1z"/><path fill="#8FDAFF" d="M29.6,139.8h-9.9v-9.2c0-2.7,2.2-5,5-5h0c2.7,0,5,2.2,5,5V139.8z"/><path fill="#8FDAFF" d="M130.6,117.2h-9.9V108c0-2.7,2.2-5,5-5h0c2.7,0,5,2.2,5,5L130.6,117.2z"/><path fill="#8FDAFF" d="M130.6,139.8h-9.9v-9.2c0-2.7,2.2-5,5-5h0c2.7,0,5,2.2,5,5L130.6,139.8z"/><path fill="#FFFFFF" d="M50.3,98.6H39.9c-1,0-1.7-0.8-1.7-1.7l0,0c0-1,0.8-1.7,1.7-1.7h10.4c1,0,1.7,0.8,1.7,1.7l0,0	C52.1,97.8,51.3,98.6,50.3,98.6z"/><path fill="#FFFFFF" d="M69.7,98.6H59.3c-1,0-1.7-0.8-1.7-1.7l0,0c0-1,0.8-1.7,1.7-1.7h10.4c1,0,1.7,0.8,1.7,1.7l0,0	C71.5,97.8,70.7,98.6,69.7,98.6z"/><rect x="80.5" y="95.1" fill="#FFFFFF" width="9.2" height="51.8"/><rect x="100.1" y="95.1" fill="#FFFFFF" width="9.2" height="51.8"/><path fill="#FFFFFF" d="M90.5,98.6H80.1c-1,0-1.7-0.8-1.7-1.7l0,0c0-1,0.8-1.7,1.7-1.7h10.4c1,0,1.7,0.8,1.7,1.7l0,0	C92.3,97.8,91.5,98.6,90.5,98.6z"/><path fill="#FFFFFF" d="M109.9,98.6H99.5c-1,0-1.7-0.8-1.7-1.7l0,0c0-1,0.8-1.7,1.7-1.7h10.4c1,0,1.7,0.8,1.7,1.7l0,0	C111.6,97.8,110.8,98.6,109.9,98.6z"/><rect x="36.5" y="142.6" fill="#D1D1D1" width="75.9" height="4.5"/><rect x="40.2" y="138.1" fill="#BABABA" width="69.1" height="4.5"/><circle fill="#D1D1D1" cx="74.5" cy="84.4" r="6.1"/><rect x="12.1" y="98.2" fill="#A8472D" width="6.3" height="2.9"/><rect x="28.5" y="119" fill="#A8472D" width="6.3" height="2.9"/><rect x="31.4" y="122.8" fill="#A8472D" width="6.3" height="2.9"/><rect x="45.5" y="74.6" fill="#A8472D" width="6.3" height="2.9"/><rect x="48.4" y="78.4" fill="#A8472D" width="6.3" height="2.9"/><rect x="97.5" y="78.4" fill="#A8472D" width="6.3" height="2.9"/><rect x="132.4" y="101" fill="#A8472D" width="6.3" height="2.9"/><rect x="129.6" y="97.3" fill="#A8472D" width="6.3" height="2.9"/><rect x="113.5" y="122.8" fill="#A8472D" width="6.3" height="2.9"/><rect x="110.7" y="119" fill="#A8472D" width="6.3" height="2.9"/><rect x="10.6" y="138.8" fill="#A8472D" width="6.3" height="2.9"/><rect x="13.4" y="142.6" fill="#A8472D" width="6.3" height="2.9"/><g><path fill="#1CB0F6" d="M116.9,42.4C116.9,19.5,98.3,1,75.5,1S34,19.5,34,42.4c0,14.4,7.3,27,18.4,34.5l23,20.3l23-20.3 C109.6,69.5,116.9,56.8,116.9,42.4z"/></g><g><path fill="#FFFFFF" d="M100,36.1L75.8,49.4c-0.2,0.1-0.4,0.1-0.6,0L51,36.1c-0.4-0.2-0.4-0.8,0-1.1l24.2-13.3 c0.2-0.1,0.4-0.1,0.6,0L100,35C100.4,35.3,100.4,35.9,100,36.1z"/><g><path fill="#FFFFFF" d="M90.9,40.7v-0.8c0-0.3-0.3-0.6-0.6-0.6H60.6c-0.3,0-0.6,0.3-0.6,0.6v0.8c0,0.2,0.1,0.4,0.3,0.5l14.8,8.2 c0.2,0.1,0.4,0.1,0.6,0l14.8-8.2C90.8,41.1,90.9,40.9,90.9,40.7z"/><path fill="#FFFFFF" d="M77,52.4l-1.3,0.7c-0.2,0.1-0.4,0.1-0.6,0l-1.3-0.7l-13-7.1c-0.4-0.2-0.9,0.1-0.9,0.5v6.7 c0,0.2,0.1,0.4,0.3,0.5l14.6,8.7c0.2,0.1,0.4,0.1,0.6,0L90.6,53c0.2-0.1,0.3-0.3,0.3-0.5v-6.7c0-0.5-0.5-0.7-0.9-0.5L77,52.4z"/></g><path fill="#FFFFFF" d="M55.7,58.1h-0.4c-0.8,0-1.5-0.7-1.5-1.5V36.3c0-0.8,0.7-1.5,1.5-1.5h0.4c0.8,0,1.5,0.7,1.5,1.5v20.3 C57.3,57.4,56.6,58.1,55.7,58.1z"/></g></svg>