<?xml version="1.0" encoding="utf-8"?><!DOCTYPE svg PUBLIC "-//W3C//DTD SVG 1.1//EN" "http://www.w3.org/Graphics/SVG/1.1/DTD/svg11.dtd"><svg version="1.1" id="Layer_1" xmlns="http://www.w3.org/2000/svg" xmlns:xlink="http://www.w3.org/1999/xlink" x="0px" y="0px" width="150px" height="150px" viewBox="0 0 150 150" enable-background="new 0 0 150 150" xml:space="preserve"><path fill="#DDDDDD" d="M45.5,118.6L45.5,118.6c-7.9,0-14.4-6.5-14.4-14.4V19.5c0-7.9,6.5-14.4,14.4-14.4h0	c7.9,0,14.4,6.5,14.4,14.4v84.7C59.9,112.1,53.4,118.6,45.5,118.6z"/><circle fill="#DDDDDD" cx="45.5" cy="114.7" r="29"/><ellipse fill="#1CB0F6" cx="45.5" cy="114.7" rx="19.9" ry="19.8"/><path fill="#1CB0F6" d="M45.6,69.6h-0.2c-3.9,0-7,3.2-7,7v42c0,3.9,3.2,7,7,7h0.2c3.9,0,7-3.2,7-7v-42	C52.6,72.8,49.5,69.6,45.6,69.6z"/><path fill="#C9C9C9" d="M41.7,29.5H31.1v-5.6h10.6c1.3,0,2.4,1.1,2.4,2.4v0.9C44.1,28.4,43.1,29.5,41.7,29.5z"/><path fill="#C9C9C9" d="M41.7,53.1H31.1v-5.6h10.6c1.3,0,2.4,1.1,2.4,2.4v0.9C44.1,52.1,43.1,53.1,41.7,53.1z"/><g><line fill="none" stroke="#C3E3F4" stroke-width="7.5112" stroke-linecap="round" stroke-linejoin="round" stroke-miterlimit="10" x1="96.9" y1="42.4" x2="96.9" y2="105.6"/><line fill="none" stroke="#C3E3F4" stroke-width="7.5112" stroke-linecap="round" stroke-linejoin="round" stroke-miterlimit="10" x1="65.3" y1="74" x2="128.5" y2="74"/><line fill="none" stroke="#C3E3F4" stroke-width="7.5112" stroke-linecap="round" stroke-linejoin="round" stroke-miterlimit="10" x1="80.4" y1="57.5" x2="113.4" y2="90.5"/><line fill="none" stroke="#C3E3F4" stroke-width="7.5112" stroke-linecap="round" stroke-linejoin="round" stroke-miterlimit="10" x1="80.4" y1="90.5" x2="113.4" y2="57.5"/><polyline fill="none" stroke="#C3E3F4" stroke-width="7.5112" stroke-linecap="round" stroke-linejoin="round" stroke-miterlimit="10" points="106.8,47.1 96.9,57 87,47.1"/><polyline fill="none" stroke="#C3E3F4" stroke-width="7.5112" stroke-linecap="round" stroke-linejoin="round" stroke-miterlimit="10" points="87,100.8 96.9,90.9 106.8,100.8"/><polyline fill="none" stroke="#C3E3F4" stroke-width="7.5112" stroke-linecap="round" stroke-linejoin="round" stroke-miterlimit="10" points="70.3,64.1 80.2,74 70.3,83.9"/><polyline fill="none" stroke="#C3E3F4" stroke-width="7.5112" stroke-linecap="round" stroke-linejoin="round" stroke-miterlimit="10" points="123.9,83.9 114,74 123.9,64.1"/></g></svg>