<?xml version="1.0" encoding="utf-8"?><!DOCTYPE svg PUBLIC "-//W3C//DTD SVG 1.1//EN" "http://www.w3.org/Graphics/SVG/1.1/DTD/svg11.dtd"><svg version="1.1" id="Layer_1" xmlns="http://www.w3.org/2000/svg" xmlns:xlink="http://www.w3.org/1999/xlink" x="0px" y="0px" width="150px" height="150px" viewBox="0 0 150 150" enable-background="new 0 0 150 150" xml:space="preserve"><circle fill="#FFFFFF" cx="110.3" cy="21.5" r="8.6"/><circle fill="#FFFFFF" cx="115.9" cy="14.7" r="5.1"/><rect x="30.9" y="27.2" fill="#A85231" width="17.2" height="18.2"/><rect x="101.1" y="27.2" fill="#A85231" width="17.2" height="18.2"/><rect x="24.9" y="68.4" fill="#A5A5A5" width="99.5" height="76.8"/><polygon fill="#333333" points="121.8,42.7 27.6,42.7 21,68.4 128.3,68.4"/><g><rect x="64.5" y="111.6" fill="#A85231" width="20.4" height="33.6"/></g><g><rect x="33.5" y="74" fill="#8FDAFF" width="22.3" height="25.9"/><path fill="#FFFFFF" d="M54.9,75V99H34.5V75H54.9 M56.8,73.1h-1.9H34.5h-1.9V75V99v1.9h1.9h20.4h1.9V99V75V73.1L56.8,73.1z"/></g><g><rect x="33.5" y="110.6" fill="#8FDAFF" width="22.3" height="25.9"/><path fill="#FFFFFF" d="M54.9,111.6v24.1H34.5v-24.1H54.9 M56.8,109.7h-1.9H34.5h-1.9v1.9v24.1v1.9h1.9h20.4h1.9v-1.9v-24.1V109.7 L56.8,109.7z"/></g><g><rect x="63.5" y="74" fill="#8FDAFF" width="22.3" height="25.9"/><path fill="#FFFFFF" d="M84.9,75V99H64.5V75H84.9 M86.8,73.1h-1.9H64.5h-1.9V75V99v1.9h1.9h20.4h1.9V99V75V73.1L86.8,73.1z"/></g><g><rect x="93.5" y="74" fill="#8FDAFF" width="22.3" height="25.9"/><path fill="#FFFFFF" d="M114.9,75V99H94.4V75H114.9 M116.7,73.1h-1.9H94.4h-1.9V75V99v1.9h1.9h20.4h1.9V99V75V73.1L116.7,73.1z"/></g><g><rect x="93.5" y="110.6" fill="#8FDAFF" width="22.3" height="25.9"/><path fill="#FFFFFF" d="M114.9,111.6v24.1H94.4v-24.1H114.9 M116.7,109.7h-1.9H94.4h-1.9v1.9v24.1v1.9h1.9h20.4h1.9v-1.9v-24.1 V109.7L116.7,109.7z"/></g><rect x="28.9" y="27.2" fill="#A85231" width="21.3" height="8.2"/><rect x="99.1" y="27.2" fill="#A85231" width="21.3" height="8.2"/><circle fill="#FFFFFF" cx="40.3" cy="17" r="8.6"/><circle fill="#FFFFFF" cx="52.2" cy="6.6" r="5.1"/><rect x="60" y="106.8" fill="#FFFFFF" width="29.4" height="4.8"/><path fill="#FFFFFF" d="M87.9,145.2L87.9,145.2v-33.6v-3h-3H64.5h-3v3v33.6v0H87.9z M64.5,111.6h20.4v33.6H64.5V111.6z"/><path fill="#517A09" d="M52.6,145.2H36.3c-4.1,0-7.4-3.3-7.4-7.4V137c0-4.1,3.3-7.4,7.4-7.4h16.2c4.1,0,7.4,3.3,7.4,7.4v0.8	C60,141.9,56.7,145.2,52.6,145.2z"/><path fill="#517A09" d="M112.8,145.2H96.5c-4.1,0-7.4-3.3-7.4-7.4V137c0-4.1,3.3-7.4,7.4-7.4h16.2c4.1,0,7.4,3.3,7.4,7.4v0.8	C120.2,141.9,116.9,145.2,112.8,145.2z"/><rect x="40.8" y="35.4" fill="#9B3F23" width="7.4" height="3.9"/><rect x="33.3" y="29.4" fill="#9B3F23" width="7.4" height="3.9"/><rect x="99.1" y="29.4" fill="#9B3F23" width="7.4" height="3.9"/><rect x="106.5" y="35.4" fill="#9B3F23" width="7.4" height="3.9"/></svg>