<?xml version="1.0" encoding="utf-8"?><!DOCTYPE svg PUBLIC "-//W3C//DTD SVG 1.1//EN" "http://www.w3.org/Graphics/SVG/1.1/DTD/svg11.dtd"><svg version="1.1" id="Layer_1" xmlns="http://www.w3.org/2000/svg" xmlns:xlink="http://www.w3.org/1999/xlink" x="0px" y="0px" width="150px" height="150px" viewBox="0 0 150 150" enable-background="new 0 0 150 150" xml:space="preserve"><path fill="#1CB0F6" d="M85.7,75.8c-0.1-0.1-0.2-0.3-0.4-0.4l0,0c-1.1-1.3-1.6-2.9-1.6-4.5h0V52.3H66.3v18.6c0,1.2-0.3,2.4-0.9,3.5	L65,75c-0.1,0.1-0.1,0.2-0.2,0.3l-0.2,0.2c-0.1,0.1-0.2,0.2-0.2,0.3c-11.7,4.3-20,15.6-20,28.7v0c0,8.7,3.6,16.5,9.5,22.1h42.4	c5.8-5.6,9.5-13.4,9.5-22.1v0C105.6,91.4,97.3,80.1,85.7,75.8z M85.6,75.7L85.6,75.7C85.6,75.8,85.6,75.8,85.6,75.7L85.6,75.7z M64.4,75.7L64.4,75.7C64.4,75.7,64.4,75.7,64.4,75.7L64.4,75.7z"/><path fill="#03A5E5" d="M66.3,54.3v16.5c0,1.2-0.3,2.4-0.9,3.5L65,75c-0.1,0.1-0.1,0.2-0.2,0.3l-0.2,0.2c-0.1,0.1-0.2,0.2-0.2,0.3	c-3.3,1.2-6.3,3-8.9,5.2h39.1c-2.6-2.2-5.6-4-8.9-5.2c-0.1-0.1-0.2-0.3-0.4-0.4l0,0c-1.1-1.3-1.6-2.9-1.6-4.5h0V54.3H66.3z M64.4,75.8L64.4,75.8L64.4,75.8C64.4,75.7,64.4,75.7,64.4,75.8z M85.6,75.7L85.6,75.7C85.6,75.8,85.6,75.8,85.6,75.7L85.6,75.7z"/><polygon fill="#FFFFFF" points="118.6,66.3 31.4,66.3 53.2,18 96.7,18"/><path fill="#1CB0F6" d="M96.1,132H53.8c-1.8,0-3.2-1.4-3.2-3.2v0c0-1.8,1.4-3.2,3.2-3.2h42.2c1.8,0,3.2,1.4,3.2,3.2v0	C99.3,130.6,97.8,132,96.1,132z"/><path fill="#33C5FF" d="M80.9,91.3H69.4c-1.9,0-3.5-1.6-3.5-3.5v0c0-1.9,1.6-3.5,3.5-3.5h11.5c1.9,0,3.5,1.6,3.5,3.5v0	C84.4,89.7,82.8,91.3,80.9,91.3z"/></svg>