<?xml version="1.0" encoding="utf-8"?><!DOCTYPE svg PUBLIC "-//W3C//DTD SVG 1.1//EN" "http://www.w3.org/Graphics/SVG/1.1/DTD/svg11.dtd"><svg version="1.1" id="Layer_1" xmlns="http://www.w3.org/2000/svg" xmlns:xlink="http://www.w3.org/1999/xlink" x="0px" y="0px" width="150px" height="150px" viewBox="0 0 150 150" enable-background="new 0 0 150 150" xml:space="preserve"><rect x="29.4" y="34.6" transform="matrix(0.7071 0.7071 -0.7071 0.7071 48.0378 -21.8566)" fill="#FFFFFF" width="42" height="24.9"/><polygon fill="#FFFFFF" points="44.4,23.4 51.7,23.5 51.8,30.8"/><polygon fill="#FFFFFF" points="51.8,30.8 59.1,30.9 59.2,38.2"/><polygon fill="#FFFFFF" points="59.2,38.2 66.5,38.3 66.6,45.7"/><path fill="#CC2F2F" d="M111,134.5L22.3,45.8c-1.6-1.6-1.6-4.1,0-5.7l0,0c1.6-1.6,4.1-1.6,5.7,0l88.7,88.7c1.6,1.6,1.6,4.1,0,5.7	l0,0C115.1,136.1,112.5,136.1,111,134.5z"/><polygon fill="#FFFFFF" points="66.6,45.7 74,45.8 74,53.1"/><path fill="#CC2F2F" d="M117.1,140.1L73.9,96.9c-2.6-2.6-2.6-7,0-9.6l0,0c2.6-2.6,7-2.6,9.6,0l43.2,43.2c2.6,2.6,2.6,7,0,9.6h0	C124.1,142.8,119.7,142.8,117.1,140.1z"/><path fill="#24C697" d="M81.2,41L64.6,24.4c-3.3-3.7-3.2-9.4,0.3-13l0.1-0.1c0,0,0,0,0,0c0,0,0,0,0,0l0,0c-4.4-4.4-11.6-4.4-16,0	c-3.2,3.2-4.1,7.7-2.7,11.7c0.2,1.3,0.8,2.5,1.8,3.5l23.9,23.9c2.6,2.6,6.7,2.6,9.3,0l0,0C83.7,47.8,83.7,43.6,81.2,41z"/></svg>