<?xml version="1.0" encoding="utf-8"?><!DOCTYPE svg PUBLIC "-//W3C//DTD SVG 1.1//EN" "http://www.w3.org/Graphics/SVG/1.1/DTD/svg11.dtd"><svg version="1.1" id="Layer_1" xmlns="http://www.w3.org/2000/svg" xmlns:xlink="http://www.w3.org/1999/xlink" x="0px" y="0px" width="150px" height="150px" viewBox="0 0 150 150" enable-background="new 0 0 150 150" xml:space="preserve"><path fill="#FFFFFF" d="M144.2,56.3h-24.3c-2.1,0-3.9-1.7-3.9-3.9v0c0-2.1,1.7-3.9,3.9-3.9h24.3c2.1,0,3.9,1.7,3.9,3.9v0	C148.1,54.6,146.3,56.3,144.2,56.3z"/><rect x="121.2" y="51.7" fill="#FFFFFF" width="21.7" height="79.2"/><circle fill="#C3E085" cx="127.7" cy="89.5" r="2.6"/><circle fill="#FFE088" cx="127.7" cy="62.2" r="2.6"/><circle fill="#FFE088" cx="135" cy="74.4" r="4.3"/><rect x="124.5" y="84.8" fill="#FFC200" width="15.3" height="41.5"/><path fill="#FFFFFF" d="M52.9,56.3H27.7c-2.1,0-3.9-1.7-3.9-3.9v0c0-2.1,1.7-3.9,3.9-3.9h25.2c2.1,0,3.9,1.7,3.9,3.9v0	C56.7,54.6,55,56.3,52.9,56.3z"/><rect x="29" y="51.7" fill="#FFFFFF" width="22.6" height="33.1"/><path fill="#FFFFFF" d="M3.3,119.8l30.5-52.8c2.9-5,10-5,12.9,0l30.5,52.8c2.9,5-0.7,11.2-6.5,11.2h-61C4,130.9,0.4,124.7,3.3,119.8	z"/><path fill="#88C11A" d="M9.6,126.9h61.3c2.5,0,4.1-2.7,2.8-4.9L58.1,94.9H22.5L6.8,122.1C5.6,124.2,7.1,126.9,9.6,126.9z"/><circle fill="#C3E085" cx="35.5" cy="89.5" r="2.6"/><circle fill="#C3E085" cx="35.5" cy="62.2" r="2.6"/><circle fill="#C3E085" cx="43.7" cy="79.6" r="4.3"/><rect x="71" y="22.5" fill="#CCCCCC" width="15.7" height="27.1"/><rect x="68.5" y="48.6" fill="#969696" width="21.5" height="28.8"/><g><path fill="#969696" d="M92.8,108.1V96c12.2,0,22.2-10,22.2-22.2c0-12.2-10-22.2-22.2-22.2V39.4c19,0,34.4,15.4,34.4,34.4 C127.2,92.7,111.8,108.1,92.8,108.1z"/></g><circle fill="#6B6B6B" cx="90" cy="46.1" r="11.2"/><rect x="40.7" y="109.2" fill="#969696" width="75.2" height="17.2"/><path fill="#6B6B6B" d="M115.4,130.9H40.8c-1,0-1.8-0.8-1.8-1.8v-2.3c0-1,0.8-1.8,1.8-1.8h74.6c1,0,1.8,0.8,1.8,1.8v2.3	C117.2,130.1,116.4,130.9,115.4,130.9z"/><rect x="84.9" y="99" fill="#969696" width="14.2" height="20.3"/><circle fill="#6B6B6B" cx="97.1" cy="106.8" r="6"/><rect x="49.9" y="96" fill="#6B6B6B" width="42.9" height="7.6"/><path fill="#6B6B6B" d="M86.4,24.2H71.3c-1.2,0-2.2-1-2.2-2.2v0c0-1.2,1-2.2,2.2-2.2h15.1c1.2,0,2.2,1,2.2,2.2v0	C88.6,23.2,87.6,24.2,86.4,24.2z"/><path fill="#FFFFFF" d="M74.7,46.6L74.7,46.6c-1,0-1.7-0.8-1.7-1.7V27.5c0-1,0.8-1.7,1.7-1.7l0,0c1,0,1.7,0.8,1.7,1.7v17.4	C76.4,45.8,75.6,46.6,74.7,46.6z"/><circle fill="#C3E085" cx="29.3" cy="107.5" r="3.4"/><path fill="#FFFFFF" d="M116.3,131.1L116.3,131.1c0-2.6,2.2-4.8,4.8-4.8h22.2c2.6,0,4.8,2.2,4.8,4.8h-8.7"/></svg>