<?xml version="1.0" encoding="utf-8"?><!DOCTYPE svg PUBLIC "-//W3C//DTD SVG 1.1//EN" "http://www.w3.org/Graphics/SVG/1.1/DTD/svg11.dtd"><svg version="1.1" id="Layer_1" xmlns="http://www.w3.org/2000/svg" xmlns:xlink="http://www.w3.org/1999/xlink" x="0px" y="0px" width="150px" height="150px" viewBox="0 0 150 150" enable-background="new 0 0 150 150" xml:space="preserve"><path fill="#FF71E4" d="M82.2,22.6c-14.8,0-29.2,6.3-39.3,17.2c-3.1,3.3-3.4,8.3-1.1,11.9c-0.8,0.7-1.5,1.4-2.2,2.2	c-3.7,4-3.4,10.2,0.5,13.9c4,3.7,10.2,3.4,13.9-0.5c5.3-5.7,12.7-8.9,20.3-8.9c15.3,0,27.7,12.4,27.7,27.7v38.2	c0,5.4,4.4,9.8,9.8,9.8s9.8-4.4,9.8-9.8V105c1.3,0.6,2.7,1,4.2,1c5.4,0,9.8-4.4,9.8-9.8v-20C135.7,46.6,111.7,22.6,82.2,22.6z"/><g><path fill="#FF8FEF" d="M50.1,51.4c-1.2,0-2.4-0.4-3.3-1.3c-2-1.8-2.1-4.9-0.3-6.9c9.2-10,22.2-15.7,35.7-15.7 c12.2,0,23.9,4.6,33,12.9c2,1.8,2.1,4.9,0.3,6.9c-1.8,2-4.9,2.1-6.9,0.3c-7.2-6.7-16.5-10.3-26.3-10.3c-10.7,0-21.1,4.6-28.5,12.5 C52.8,50.9,51.4,51.4,50.1,51.4z"/></g><rect x="19.7" y="35.4" transform="matrix(0.7071 0.7071 -0.7071 0.7071 60.418 -14.0209)" fill="#BCBCBC" width="54.8" height="61"/><path fill="#C6C6C6" d="M24.3,68.2L24.3,68.2c-2-2-2-5.3,0-7.3l29.5-29.5l7.3,7.3L31.5,68.2C29.5,70.2,26.3,70.2,24.3,68.2z"/><path fill="#AFAFAF" d="M38.9,98.6l29.5-29.5c2-2,5.3-2,7.3,0l0,0c2,2,2,5.3,0,7.3l-29.5,29.5"/><rect x="39.9" y="39" transform="matrix(0.7071 -0.7071 0.7071 0.7071 -33.3287 52.475)" fill="#FF71E4" width="13.5" height="55"/><rect x="29.6" y="51" transform="matrix(0.7071 -0.7071 0.7071 0.7071 -29.0385 42.1175)" fill="#FF8FEF" width="13.5" height="10.3"/><rect x="55.7" y="77.1" transform="matrix(0.7071 -0.7071 0.7071 0.7071 -39.8643 68.2533)" fill="#F456DE" width="13.5" height="10.3"/><line fill="none" stroke="#FFFFFF" stroke-width="2.8051" stroke-linecap="round" stroke-linejoin="round" stroke-miterlimit="10" x1="6.2" y1="68.1" x2="44.9" y2="106.9"/><line fill="none" stroke="#FFFFFF" stroke-width="2.8051" stroke-linecap="round" stroke-linejoin="round" stroke-miterlimit="10" x1="49.3" y1="25" x2="88" y2="63.8"/><circle fill="#FF71E4" cx="139.7" cy="47.7" r="4.7"/><circle fill="#FF71E4" cx="90.9" cy="105" r="5.4"/><circle fill="#FF71E4" cx="86.8" cy="21.9" r="3.7"/><circle fill="#D1D1D1" cx="60.5" cy="52.4" r="5.6"/><path fill="#F4F4F4" d="M15.7,53.8h44.5c0.9,0,1.6-0.7,1.6-1.6l0,0c0-0.9-0.7-1.6-1.6-1.6H15.7c-0.9,0-1.6,0.7-1.6,1.6l0,0	C14.1,53,14.8,53.8,15.7,53.8z"/><path fill="#F456DE" d="M105.7,126.9L105.7,126.9c-2,0-3.7-1.7-3.7-3.7V91.2c0-2,1.7-3.7,3.7-3.7h0c2,0,3.7,1.7,3.7,3.7v32.1	C109.4,125.3,107.8,126.9,105.7,126.9z"/></svg>