<?xml version="1.0" encoding="utf-8"?><!DOCTYPE svg PUBLIC "-//W3C//DTD SVG 1.1//EN" "http://www.w3.org/Graphics/SVG/1.1/DTD/svg11.dtd"><svg version="1.1" xmlns="http://www.w3.org/2000/svg" xmlns:xlink="http://www.w3.org/1999/xlink" x="0px" y="0px" width="150px" height="150px" viewBox="0 0 150 150" enable-background="new 0 0 150 150" xml:space="preserve"><g id="Layer_2" display="none"><rect display="inline" fill="#F0F0F0" width="1680" height="1677.3"/></g><g id="Layer_1"><path fill="#C1DEE5" d="M100.2,64.1H57.1c-2.5,0-4.6-2-4.6-4.6V16.5c0-2.5,2-4.6,4.6-4.6h43.1c2.5,0,4.6,2,4.6,4.6v43.1 C104.8,62.1,102.7,64.1,100.2,64.1z"/><path fill="#C1DEE5" d="M123,116.3H79.9c-2.5,0-4.6-2-4.6-4.6V68.7c0-2.5,2-4.6,4.6-4.6H123c2.5,0,4.6,2,4.6,4.6v43.1 C127.6,114.3,125.5,116.3,123,116.3z"/><path fill="#C1DEE5" d="M70.8,116.3H27.7c-2.5,0-4.6-2-4.6-4.6V68.7c0-2.5,2-4.6,4.6-4.6h43.1c2.5,0,4.6,2,4.6,4.6v43.1 C75.3,114.3,73.3,116.3,70.8,116.3z"/><path fill="#CBEAEF" d="M46.3,131.8H27.5c-1.6,0-2.9-1.3-2.9-2.9v-1.3c0-1.6,1.3-2.9,2.9-2.9h18.9c1.6,0,2.9,1.3,2.9,2.9v1.3 C49.2,130.5,47.9,131.8,46.3,131.8z"/><path fill="#ACD6DD" d="M67.9,113.3L67.9,113.3c-2.4,0-4.4-2-4.4-4.4V72.4c0-2.4,2-4.4,4.4-4.4h0c2.4,0,4.4,2,4.4,4.4v36.5 C72.2,111.3,70.3,113.3,67.9,113.3z"/><path fill="#ACD6DD" d="M118.9,113.3L118.9,113.3c-2.4,0-4.4-2-4.4-4.4V95c0-2.4,2-4.4,4.4-4.4h0c2.4,0,4.4,2,4.4,4.4v13.9 C123.3,111.3,121.3,113.3,118.9,113.3z"/><path fill="#CEEDF2" d="M59.3,28.7L59.3,28.7c-1.7,0-3.1-1.4-3.1-3.1v-7.5c0-1.7,1.4-3.1,3.1-3.1h0c1.7,0,3.1,1.4,3.1,3.1v7.5 C62.3,27.3,61,28.7,59.3,28.7z"/><path fill="#CEEDF2" d="M37.2,68h-6.1c-1.8,0-3.3,1.5-3.3,3.3c0,0,0,0.1,0,0.1c0,0,0,0.1,0,0.1v9c0,2,1.6,3.6,3.6,3.6 s3.6-1.6,3.6-3.6v-6h2.3c1.8,0,3.3-1.5,3.3-3.3S39,68,37.2,68z"/><path fill="#CBEAEF" d="M141.5,116.3H9.2c-1.7,0-3.1,1.4-3.1,3.1c0,1.7,1.4,3.1,3.1,3.1h72c1.6,0,2.9,1.3,2.9,2.9s-1.3,2.9-2.9,2.9 H58.8c-2.8,0-5,2.3-5,5c0,2.8,2.3,5,5,5H132c2.8,0,5-2.3,5-5c0-2.8-2.3-5-5-5h-4c-1.6,0-2.9-1.3-2.9-2.9s1.3-2.9,2.9-2.9h13.5 c1.7,0,3.1-1.4,3.1-3.1C144.5,117.7,143.2,116.3,141.5,116.3z"/><path fill="#CEEDF2" d="M85.3,94.4L85.3,94.4c-3.3,0-5.9-2.7-5.9-5.9V73.9c0-3.3,2.7-5.9,5.9-5.9h0c3.3,0,5.9,2.7,5.9,5.9v14.6 C91.2,91.8,88.6,94.4,85.3,94.4z"/><path fill="#ACD6DD" d="M96.3,60.4L96.3,60.4c-2.8,0-5.1-2.3-5.1-5.1V20.2c0-2.8,2.3-5.1,5.1-5.1h0c2.8,0,5.1,2.3,5.1,5.1v35.2 C101.4,58.1,99.1,60.4,96.3,60.4z"/></g><g id="Layer_3"/></svg>