<?xml version="1.0" encoding="utf-8"?><!DOCTYPE svg PUBLIC "-//W3C//DTD SVG 1.1//EN" "http://www.w3.org/Graphics/SVG/1.1/DTD/svg11.dtd"><svg version="1.1" id="Layer_1" xmlns="http://www.w3.org/2000/svg" xmlns:xlink="http://www.w3.org/1999/xlink" x="0px" y="0px" width="150px" height="150px" viewBox="0 0 150 150" enable-background="new 0 0 150 150" xml:space="preserve"><path fill="#1CB0F6" d="M109.7,71.9H29.6c-11.3,0-20.4-9.1-20.4-20.4v0c0-11.3,9.1-20.4,20.4-20.4h80.1c11.3,0,20.4,9.1,20.4,20.4v0	C130.1,62.8,121,71.9,109.7,71.9z"/><path fill="#1CB0F6" d="M122.4,101.9H42.3c-11.3,0-20.4-9.1-20.4-20.4v0c0-11.3,9.1-20.4,20.4-20.4h80.1c11.3,0,20.4,9.1,20.4,20.4	v0C142.8,92.7,133.7,101.9,122.4,101.9z"/><path fill="#FFB600" d="M29.9,110.7v-45c0-4.2,3.4-7.6,7.6-7.6h77.3c4.2,0,7.6,3.4,7.6,7.6v45c0,4.2-3.4,7.6-7.6,7.6H37.6	C33.4,118.3,29.9,114.9,29.9,110.7z"/><path fill="#FFCE00" d="M29.9,97.4V50.2c0-4.2,3.4-7.6,7.6-7.6h77.3c4.2,0,7.6,3.4,7.6,7.6v47.2c0,4.2-3.4,7.6-7.6,7.6H37.6	C33.4,105,29.9,101.6,29.9,97.4z"/><circle fill="#FFB600" cx="98.8" cy="57.1" r="8.2"/><circle fill="#FFB600" cx="73.2" cy="74.3" r="6.9"/><circle fill="#FFB600" cx="51.4" cy="85.8" r="6.2"/><circle fill="#FFB600" cx="40.3" cy="53.9" r="5.9"/><circle fill="#FFB600" cx="107" cy="89.1" r="5.9"/><circle fill="#FFB600" cx="115.3" cy="78.9" r="3"/></svg>