<?xml version="1.0" encoding="utf-8"?><!DOCTYPE svg PUBLIC "-//W3C//DTD SVG 1.1//EN" "http://www.w3.org/Graphics/SVG/1.1/DTD/svg11.dtd"><svg version="1.1" id="Layer_1" xmlns="http://www.w3.org/2000/svg" xmlns:xlink="http://www.w3.org/1999/xlink" x="0px" y="0px" width="150px" height="150px" viewBox="0 0 150 150" enable-background="new 0 0 150 150" xml:space="preserve"><g><path fill="#00BDFF" d="M17.5,105.8c0-3.2,1.7-4.8,4.8-4.8h13.3V54.4c0-2.8,0.1-5.7,0.1-5.7h-0.2c0,0-1.1,2.2-3.2,4.2l-3.7,3.5 c-2.4,2.1-4.7,2.1-6.8-0.2L19.6,54c-2.2-2.2-2.1-4.7,0.1-7l14.9-14.3c1.9-1.7,3.7-2.5,6.1-2.5h5c3.2,0,4.8,1.8,4.8,5v65.7h13.2 c3.2,0,5,1.7,5,4.8v3.3c0,3.3-1.8,5-5,5H22.4c-3.2,0-4.8-1.7-4.8-5V105.8z"/><path fill="#00BDFF" d="M72.3,72c0-24.1,7.4-43.2,30.3-43.2c22.9,0,30.4,19.1,30.4,43.2s-7.6,43.4-30.4,43.4 C79.7,115.4,72.3,96.1,72.3,72z M117.3,72c0-16.3-3.3-29.1-14.7-29.1c-11.4,0-14.7,12.9-14.7,29.1c0,16.5,3.3,29.5,14.7,29.5 C114,101.5,117.3,88.5,117.3,72z"/></g></svg>