<?xml version="1.0" encoding="utf-8"?><!DOCTYPE svg PUBLIC "-//W3C//DTD SVG 1.1//EN" "http://www.w3.org/Graphics/SVG/1.1/DTD/svg11.dtd"><svg version="1.1" id="Layer_1" xmlns="http://www.w3.org/2000/svg" xmlns:xlink="http://www.w3.org/1999/xlink" x="0px" y="0px" width="150px" height="150px" viewBox="0 0 150 150" enable-background="new 0 0 150 150" xml:space="preserve"><path fill="#C6C4AF" d="M32,146v-10.5c0-23.6,19.2-42.8,42.8-42.8h0c23.6,0,42.8,19.2,42.8,42.8V146"/><circle fill="none" stroke="#FFCE00" stroke-width="4" stroke-miterlimit="10" cx="74.8" cy="104.2" r="27.3"/><path fill="#D33535" d="M53.8,98.3c-13,7.4-21.7,21.3-21.7,37.2V146h21.7V98.3z"/><path fill="#D33535" d="M96.2,98.5V146h21.3v-10.5C117.6,119.7,109,105.9,96.2,98.5z"/><path fill="#FFFFFF" d="M74.8,64.6C57.3,64.6,43,78.9,43,96.3v27.1l31.5-9.7l31.9,9.7V96.3C106.5,78.9,92.2,64.6,74.8,64.6z"/><path fill="#FF7900" d="M27.5,79.2L27.5,79.2c0,5.4,4.4,9.8,9.8,9.8h74.8c5.4,0,9.8-4.4,9.8-9.8v0H27.5z"/><rect x="39.9" y="72.3" fill="#FF7900" width="68.5" height="12.7"/><path fill="#FF7900" d="M87.7,83.2V50.6c0-7.6,6.2-13.9,13.9-13.9h0c7.6,0,13.9,6.2,13.9,13.9v32.6"/><path fill="#FF7900" d="M35.8,83.5V50.7c0-8.1,6.6-14.7,14.7-14.7h0c8.1,0,14.7,6.6,14.7,14.7v32.8"/><circle fill="#FF9D8A" cx="105.3" cy="55.2" r="7.2"/><circle fill="#FF9D8A" cx="44.3" cy="55.2" r="7.2"/><path fill="#FF9D8A" d="M74.9,107.9L74.9,107.9c-6.5,0-11.8-5.3-11.8-11.8V82c0-6.5,5.3-11.8,11.8-11.8h0c6.5,0,11.8,5.3,11.8,11.8	v14.1C86.7,102.7,81.4,107.9,74.9,107.9z"/><path fill="#FFB5A1" d="M74.8,93L74.8,93c-16.9,0-30.6-13.7-30.6-30.6v-19c0-16.9,13.7-30.6,30.6-30.6h0c16.9,0,30.6,13.7,30.6,30.6	v19C105.4,79.3,91.7,93,74.8,93z"/><circle fill="#EA9486" cx="59.1" cy="48" r="3.8"/><path fill="#F46300" d="M78.9,98h-8.3c-6.6,0-12-5.4-12-12V60.5c0-3.2,2.7-5.9,5.9-5.9H85c3.2,0,5.9,2.7,5.9,5.9V86	C90.9,92.6,85.5,98,78.9,98z"/><circle fill="#EA9486" cx="90.5" cy="48" r="3.8"/><path fill="#F46300" d="M54.1,63.1c0-5,4.1-9,9-9h23.5c5,0,9,4.1,9,9"/><rect x="69.7" y="44.2" fill="#FF9D8A" width="10.2" height="14"/><polygon fill="#FFCE00" points="105.4,36.8 44.2,36.8 44.2,3.1 59.8,16.1 74.3,3.1 90.6,16.1 105.4,3.1"/><path fill="#FFCE00" d="M104.7,36.8H43.9c-1.7,0-3.1-1.4-3.1-3.1v0c0-1.7,1.4-3.1,3.1-3.1h60.8c1.7,0,3.1,1.4,3.1,3.1v0	C107.8,35.5,106.4,36.8,104.7,36.8z"/><path fill="#D35500" d="M82.5,69.1H67c-0.7,0-1.3-0.6-1.3-1.3v0c0-0.7,0.6-1.3,1.3-1.3h15.4c0.7,0,1.3,0.6,1.3,1.3v0	C83.7,68.6,83.2,69.1,82.5,69.1z"/></svg>