<?xml version="1.0" encoding="utf-8"?><!DOCTYPE svg PUBLIC "-//W3C//DTD SVG 1.1//EN" "http://www.w3.org/Graphics/SVG/1.1/DTD/svg11.dtd"><svg version="1.1" id="Layer_1" xmlns="http://www.w3.org/2000/svg" xmlns:xlink="http://www.w3.org/1999/xlink" x="0px" y="0px" width="150px" height="150px" viewBox="0 0 150 150" enable-background="new 0 0 150 150" xml:space="preserve"><path fill="#FFC200" d="M82.4,22.8c-14.8,0-29.1,6.3-39.2,17.2c-3.1,3.3-3.4,8.2-1.1,11.9c-0.7,0.7-1.5,1.4-2.2,2.2	c-3.7,4-3.4,10.2,0.5,13.8c4,3.7,10.2,3.4,13.8-0.5c5.2-5.7,12.6-8.9,20.3-8.9c15.2,0,27.6,12.4,27.6,27.6v38.1	c0,5.4,4.4,9.8,9.8,9.8c5.4,0,9.8-4.4,9.8-9.8V105c1.3,0.6,2.7,1,4.2,1c5.4,0,9.8-4.4,9.8-9.8v-20C135.9,46.8,111.9,22.8,82.4,22.8z"/><g><path fill="#FFCE00" d="M50.4,51.6c-1.2,0-2.4-0.4-3.3-1.3c-2-1.8-2.1-4.9-0.3-6.9C56,33.4,69,27.7,82.4,27.7 c12.2,0,23.9,4.6,32.9,12.9c2,1.8,2.1,4.9,0.3,6.9c-1.8,2-4.9,2.1-6.9,0.3c-7.2-6.7-16.5-10.3-26.2-10.3C71.7,37.5,61.4,42.1,54,50 C53.1,51.1,51.8,51.6,50.4,51.6z"/></g><rect x="20.1" y="35.6" transform="matrix(0.7071 0.7071 -0.7071 0.7071 60.6309 -14.2021)" fill="#BCBCBC" width="54.7" height="60.9"/><path fill="#C6C6C6" d="M24.6,68.3L24.6,68.3c-2-2-2-5.2,0-7.3L54,31.7l7.3,7.3L31.9,68.3C29.9,70.3,26.6,70.3,24.6,68.3z"/><path fill="#AFAFAF" d="M39.2,98.7l29.4-29.4c2-2,5.2-2,7.3,0l0,0c2,2,2,5.2,0,7.3L46.4,106"/><rect x="40.3" y="39.2" transform="matrix(0.7071 -0.7071 0.7071 0.7071 -33.3499 52.7541)" fill="#FFC200" width="13.4" height="54.8"/><rect x="30" y="51.2" transform="matrix(0.7071 -0.7071 0.7071 0.7071 -29.0702 42.4218)" fill="#FFCE00" width="13.4" height="10.3"/><rect x="56" y="77.2" transform="matrix(0.7071 -0.7071 0.7071 0.7071 -39.8695 68.4937)" fill="#FFB000" width="13.4" height="10.3"/><line fill="none" stroke="#FFFFFF" stroke-width="2.7982" stroke-linecap="round" stroke-linejoin="round" stroke-miterlimit="10" x1="6.6" y1="68.3" x2="45.3" y2="107"/><line fill="none" stroke="#FFFFFF" stroke-width="2.7982" stroke-linecap="round" stroke-linejoin="round" stroke-miterlimit="10" x1="49.6" y1="25.3" x2="88.3" y2="64"/><circle fill="#FFC200" cx="139.8" cy="47.9" r="4.7"/><circle fill="#FFC200" cx="91.1" cy="105" r="5.4"/><circle fill="#FFC200" cx="87" cy="23.6" r="3.7"/><circle fill="#D1D1D1" cx="60.7" cy="52.6" r="5.5"/><path fill="#F4F4F4" d="M16.1,54h44.4c0.9,0,1.6-0.7,1.6-1.6v0c0-0.9-0.7-1.6-1.6-1.6H16.1c-0.9,0-1.6,0.7-1.6,1.6v0	C14.5,53.2,15.2,54,16.1,54z"/><path fill="#FFB000" d="M105.9,127L105.9,127c-2,0-3.7-1.7-3.7-3.7v-32c0-2,1.7-3.7,3.7-3.7h0c2,0,3.7,1.7,3.7,3.7v32	C109.6,125.3,108,127,105.9,127z"/></svg>