<?xml version="1.0" encoding="utf-8"?><!DOCTYPE svg PUBLIC "-//W3C//DTD SVG 1.1//EN" "http://www.w3.org/Graphics/SVG/1.1/DTD/svg11.dtd"><svg version="1.1" id="Layer_1" xmlns="http://www.w3.org/2000/svg" xmlns:xlink="http://www.w3.org/1999/xlink" x="0px" y="0px" width="150px" height="150px" viewBox="0 0 150 150" enable-background="new 0 0 150 150" xml:space="preserve"><g><path fill="#00BDFF" d="M23.1,103.1c0-3,1.6-4.6,4.6-4.6h12.7V54.4c0-2.7,0.1-5.4,0.1-5.4h-0.2c0,0-1,2.1-3,4l-3.5,3.4 c-2.2,2-4.5,2-6.5-0.2L25.2,54c-2.1-2.1-2-4.5,0.1-6.6l14.1-13.6c1.8-1.6,3.5-2.4,5.8-2.4h4.7c3,0,4.6,1.7,4.6,4.7v62.4H67 c3,0,4.7,1.6,4.7,4.6v3.1c0,3.1-1.7,4.7-4.7,4.7H27.7c-3,0-4.6-1.6-4.6-4.7V103.1z"/><path fill="#00BDFF" d="M80.5,100.9c1-3.1,2.8-3.5,5.5-3c2,0.6,4,1.2,7.2,1.2c12.9,0,19.4-10.8,21.4-22.1h-0.2 c-2.8,3.6-9.2,6.4-16.2,6.4c-14.6,0-24.4-12-24.4-26.1c0-14.9,10.4-27.2,26.1-27.2c16.7,0,30.8,13.9,30.8,37.3 c0,21.5-12,44.9-36.6,44.9c-4.7,0-9.4-0.9-12-1.8c-2.8-0.9-3.8-2.9-2.8-5.8L80.5,100.9z M115.5,62.2c0-8-6.6-18.7-15.7-18.7 C92.6,43.4,88,49,88,57c0,7.8,4.8,14.6,15.1,14.6C110.2,71.6,115.5,67.8,115.5,62.2z"/></g></svg>