<?xml version="1.0" encoding="utf-8"?><!DOCTYPE svg PUBLIC "-//W3C//DTD SVG 1.1//EN" "http://www.w3.org/Graphics/SVG/1.1/DTD/svg11.dtd"><svg version="1.1" id="Layer_1" xmlns="http://www.w3.org/2000/svg" xmlns:xlink="http://www.w3.org/1999/xlink" x="0px" y="0px" width="150px" height="150px" viewBox="0 0 150 150" enable-background="new 0 0 150 150" xml:space="preserve"><path fill="#88C11A" d="M148.2,116.7c-11.5-14.1-29.1-23-48.7-23s-37.1,9-48.7,23H148.2z"/><rect x="51.3" y="62" fill="#FFFFFF" width="40.6" height="15.2"/><path fill="#FFFFFF" d="M8.2,116.7L8.2,116.7c-3,0-5.4-2.4-5.4-5.4V53.9c0-3,2.4-5.4,5.4-5.4h0c3,0,5.4,2.4,5.4,5.4v57.4	C13.6,114.2,11.1,116.7,8.2,116.7z"/><rect x="75.4" y="77.2" fill="#9B2727" width="40.8" height="39.5"/><path fill="#AAAAAA" d="M8.2,116.7V48.4c0-9.1,7.5-16.6,16.6-16.6h0c9.1,0,16.6,7.5,16.6,16.6v68.3"/><rect x="8.2" y="48.5" fill="#999999" width="33.2" height="1.6"/><rect x="8.2" y="63.9" fill="#999999" width="33.2" height="1.6"/><rect x="8.2" y="79.3" fill="#999999" width="33.2" height="1.6"/><rect x="8.2" y="94.8" fill="#999999" width="33.2" height="1.6"/><rect x="8.2" y="110.2" fill="#999999" width="33.2" height="1.6"/><path fill="#FFFFFF" d="M24.7,31.8c-9.1,0-16.6,7.5-16.6,16.6v0.1h33.2v-0.1C41.3,39.2,33.9,31.8,24.7,31.8z"/><rect x="2.8" y="106.1" fill="#FFFFFF" width="5.4" height="10.6"/><path fill="#FFFFFF" d="M65.3,76.2l26.3-14.1c0.2-0.1,0.3-0.1,0.5,0l26.3,14.1c0.5,0.3,0.3,1-0.2,1H65.6	C65,77.2,64.9,76.5,65.3,76.2z"/><polygon fill="#D33131" points="77.7,77.2 51.3,62 24.9,77.2 24.9,116.7 77.7,116.7 77.7,77.2"/><rect x="32.8" y="109.3" fill="#E83838" width="9.9" height="2.4"/><rect x="63.7" y="106.2" fill="#E83838" width="9.9" height="2.4"/><rect x="63.7" y="102.3" fill="#E83838" width="5" height="2.4"/><g><path fill="#FFFFFF" d="M58.5,94.6v19.8H43.3V94.6H58.5 M60.8,92.2H41v24.4h19.8V92.2L60.8,92.2z"/></g><line fill="none" stroke="#FFFFFF" stroke-width="2.3151" stroke-linecap="round" stroke-linejoin="round" stroke-miterlimit="10" x1="59.2" y1="94.1" x2="42.8" y2="114.8"/><line fill="none" stroke="#FFFFFF" stroke-width="2.3151" stroke-linecap="round" stroke-linejoin="round" stroke-miterlimit="10" x1="42.8" y1="94" x2="59" y2="114.9"/><rect x="88.7" y="92.5" fill="#661B1B" width="14.3" height="24.1"/><rect x="48.9" y="67.2" fill="#FFFFFF" width="4.2" height="5.3"/><rect x="30.8" y="86.1" fill="#E83838" width="13.5" height="2.4"/><rect x="37" y="83.1" fill="#E83838" width="13.5" height="2.4"/><rect x="60.1" y="86.1" fill="#E83838" width="13.5" height="2.4"/><rect x="44.7" y="74.6" fill="#E83838" width="13.5" height="2.4"/><path fill="#82A81A" d="M141.7,103.1l-3,3v-3.6c1.1,0,2.2-0.4,3-1.2c1.6-1.6,1.6-4.3,0-5.9l-3,3v-3.6c0-0.8-0.6-1.4-1.4-1.4	s-1.4,0.6-1.4,1.4v7l-3-3c-1.6,1.6-1.6,4.3,0,5.9c0.8,0.8,1.9,1.2,3,1.2v3.6l-3-3c-1.6,1.6-1.6,4.3,0,5.9c0.8,0.8,1.9,1.2,3,1.2v0	h2.9v-3.4c1.1,0,2.2-0.4,3-1.2C143.3,107.4,143.3,104.8,141.7,103.1z"/><path fill="#82A81A" d="M126.6,95.2v-1.4c0,0,0,0,0,0l0,0v-2.2c1.1,0,2.2-0.4,3.1-1.2c1.6-1.6,1.6-4.3,0-5.9l-3.1,3.1v-3.7	c0-0.8-0.6-1.4-1.4-1.4c-0.8,0-1.4,0.6-1.4,1.4v7l-3-3c-1.6,1.6-1.6,4.3,0,5.9c0.8,0.8,1.9,1.2,3,1.2v3.6l-3-3	c-1.6,1.6-1.6,4.3,0,5.9c0.8,0.8,1.9,1.2,3,1.2v0h2.9v-3.4c1.1,0,2.2-0.4,3.1-1.2c1.6-1.6,1.6-4.3,0-5.9L126.6,95.2z"/></svg>