<?xml version="1.0" encoding="utf-8"?><!DOCTYPE svg PUBLIC "-//W3C//DTD SVG 1.1//EN" "http://www.w3.org/Graphics/SVG/1.1/DTD/svg11.dtd"><svg version="1.1" id="Layer_1" xmlns="http://www.w3.org/2000/svg" xmlns:xlink="http://www.w3.org/1999/xlink" x="0px" y="0px" width="150px" height="150px" viewBox="0 0 150 150" enable-background="new 0 0 150 150" xml:space="preserve"><path fill="#DDB397" d="M129.7,141.1H20.4c-6.7,0-12.1-5.4-12.1-12.1V19.7c0-6.7,5.4-12.1,12.1-12.1h109.3c6.7,0,12.1,5.4,12.1,12.1	v109.3C141.8,135.7,136.4,141.1,129.7,141.1z"/><rect x="106.1" y="79.3" fill="#A8A8A8" width="2.7" height="3.6"/><path fill="#A8A8A8" d="M108.9,79.3L108.9,79.3c0,0.9-0.7,1.6-1.6,1.6h-5c-0.9,0-1.6-0.7-1.6-1.6l0,0c0-0.9,0.7-1.6,1.6-1.6h5	C108.1,77.7,108.9,78.4,108.9,79.3z"/><rect x="119.6" y="79.3" fill="#A8A8A8" width="2.7" height="3.6"/><path fill="#A8A8A8" d="M119.6,79.3L119.6,79.3c0,0.9,0.7,1.6,1.6,1.6h5c0.9,0,1.6-0.7,1.6-1.6l0,0c0-0.9-0.7-1.6-1.6-1.6h-5	C120.4,77.7,119.6,78.4,119.6,79.3z"/><path fill="#E0E0E0" d="M64.2,126.2H15.5V37.5c0-3,2.4-5.5,5.5-5.5h37.8c3,0,5.5,2.4,5.5,5.5V126.2z"/><rect x="69.2" y="82.9" fill="#424242" width="72.5" height="43.3"/><rect x="15.5" y="64" fill="#C4C4C4" width="48.8" height="3.3"/><rect x="62.5" y="64" fill="#DDB397" width="7.2" height="3.3"/><rect x="10.5" y="64" fill="#DDB397" width="7.2" height="3.3"/><path fill="#FFFFFF" d="M56.6,57.6L56.6,57.6c-1,0-1.8-0.8-1.8-1.8V41.8c0-1,0.8-1.8,1.8-1.8h0c1,0,1.7,0.8,1.7,1.8v14.1	C58.3,56.8,57.5,57.6,56.6,57.6z"/><path fill="#FFFFFF" d="M56.6,97.5L56.6,97.5c-1,0-1.8-0.8-1.8-1.8v-21c0-1,0.8-1.8,1.8-1.8h0c1,0,1.7,0.8,1.7,1.8v21	C58.3,96.7,57.5,97.5,56.6,97.5z"/><path fill="#875330" d="M8.3,125.6v3.4c0,6.7,5.4,12.1,12.1,12.1h109.3c6.7,0,12.1-5.4,12.1-12.1v-3.4H8.3z"/><rect x="74.5" y="87.9" fill="#515151" width="24.1" height="10"/><rect x="74.5" y="101.9" fill="#515151" width="24.1" height="19.4"/><rect x="103.5" y="87.9" fill="#515151" width="24.1" height="10"/><rect x="103.5" y="101.9" fill="#515151" width="24.1" height="19.4"/><rect x="93.3" y="22.8" fill="#82E9ED" width="31.2" height="40.1"/><rect x="88.2" y="19.6" fill="#FFFFFF" width="5.1" height="47.8"/><rect x="124.2" y="19.6" fill="#FFFFFF" width="5.1" height="47.8"/><rect x="88.8" y="19.6" fill="#FFFFFF" width="39.1" height="5.1"/><rect x="88.8" y="62.3" fill="#FFFFFF" width="39.1" height="5.1"/><circle fill="#6B6B6B" cx="86.5" cy="92.9" r="1.9"/><circle fill="#6B6B6B" cx="115.5" cy="92.9" r="1.9"/><path fill="#6B6B6B" d="M95.4,113.1L95.4,113.1c-0.7,0-1.2-0.5-1.2-1.2v-7c0-0.7,0.5-1.2,1.2-1.2l0,0c0.7,0,1.2,0.5,1.2,1.2v7	C96.6,112.6,96.1,113.1,95.4,113.1z"/><path fill="#6B6B6B" d="M106.4,113.1L106.4,113.1c-0.7,0-1.2-0.5-1.2-1.2v-7c0-0.7,0.5-1.2,1.2-1.2l0,0c0.7,0,1.2,0.5,1.2,1.2v7	C107.6,112.6,107.1,113.1,106.4,113.1z"/><line fill="none" stroke="#FFFFFF" stroke-width="4" stroke-miterlimit="10" x1="108.9" y1="22.8" x2="108.9" y2="64.8"/><line fill="none" stroke="#FFFFFF" stroke-width="4" stroke-miterlimit="10" x1="89.8" y1="43.8" x2="127.9" y2="43.8"/><path fill="none" stroke="#A8A8A8" stroke-width="2.8803" stroke-miterlimit="10" d="M103.3,70.5c0-3,2.4-5.4,5.4-5.4h0	c3,0,5.4,2.4,5.4,5.4v14.4"/><path fill="#875330" d="M141.7,86.2H68.6c-0.9,0-1.6-0.7-1.6-1.6v0c0-0.9,0.7-1.6,1.6-1.6h73.1V86.2z"/></svg>