<?xml version="1.0" encoding="utf-8"?><!DOCTYPE svg PUBLIC "-//W3C//DTD SVG 1.1//EN" "http://www.w3.org/Graphics/SVG/1.1/DTD/svg11.dtd"><svg version="1.1" xmlns="http://www.w3.org/2000/svg" xmlns:xlink="http://www.w3.org/1999/xlink" x="0px" y="0px" width="150px" height="150px" viewBox="0 0 150 150" enable-background="new 0 0 150 150" xml:space="preserve"><g id="Layer_2" display="none"><rect x="-1360" y="-1357.3" display="inline" fill="#F0F0F0" width="1680" height="1677.3"/></g><g id="Layer_1"/><g id="Layer_3"><path fill="#8AB6B7" d="M40.3,39.8L40.3,39.8c-1.6,6.9-8.5,11.2-15.4,9.7l-12-2.7c-6.9-1.6-11.2-8.5-9.7-15.4l0,0"/><path fill="#8AB6B7" d="M139.7,90.8h-6.3c0.4-1.5,0.6-3.1,0.6-4.8v-2.3c0-11-9-20-20-20H58.2v0c-12.8-0.1-24-6.9-30.2-17.1 c-5.7,6.3-9.1,14.7-9.1,23.8c0,19.7,16,35.7,35.7,35.7c0.2,0,0.4,0,0.6,0c0.1,0,0.2,0,0.3,0H114c0.3,0,0.6,0,0.9,0h24.8 c4.2,0,7.6-3.4,7.6-7.6l0,0C147.3,94.2,143.9,90.8,139.7,90.8z"/><path fill="#93C1C1" d="M80.1,93.8H27.7c6.5,7.5,16.2,12.2,26.9,12.2c0.2,0,0.4,0,0.6,0c0.1,0,0.2,0,0.3,0H95 C93.6,99,87.5,93.8,80.1,93.8z"/><path fill="#8AB6B7" d="M15.7,39.8L15.7,39.8c1.6,6.9,8.5,11.2,15.4,9.7l12-2.7c6.9-1.6,11.2-8.5,9.7-15.4l0,0"/><path fill="#8AB6B7" d="M79.7,119.5c14.9,0,27-12.1,27-27h-27V119.5z"/><path fill="#8AB6B7" d="M79.7,47.5c14.9,0,27,12.1,27,27h-27V47.5z"/><circle fill="#669696" cx="115.1" cy="92.5" r="3.6"/><path fill="#93C1C1" d="M87.2,71H63.4c-1.1,0-2.1-0.9-2.1-2.1v0c0-1.1,0.9-2.1,2.1-2.1h23.8c1.1,0,2.1,0.9,2.1,2.1v0 C89.3,70.1,88.4,71,87.2,71z"/><path fill="#93C1C1" d="M101,71h-6.6c-1.1,0-2.1-0.9-2.1-2.1v0c0-1.1,0.9-2.1,2.1-2.1h6.6c1.1,0,2.1,0.9,2.1,2.1v0 C103.1,70.1,102.1,71,101,71z"/></g></svg>