<?xml version="1.0" encoding="utf-8"?><!DOCTYPE svg PUBLIC "-//W3C//DTD SVG 1.1//EN" "http://www.w3.org/Graphics/SVG/1.1/DTD/svg11.dtd"><svg version="1.1" id="Layer_1" xmlns="http://www.w3.org/2000/svg" xmlns:xlink="http://www.w3.org/1999/xlink" x="0px" y="0px" width="150px" height="150px" viewBox="0 0 150 150" enable-background="new 0 0 150 150" xml:space="preserve"><path fill="#FFB5A1" d="M121.5,77H118c-2.9,0-5.2-2.3-5.2-5.2V37.1c0-3.8,3.1-7,7-7h0c3.8,0,7,3.1,7,7v34.7	C126.7,74.7,124.3,77,121.5,77z"/><path fill="#FFB5A1" d="M103.9,77h-3.5c-2.9,0-5.2-2.3-5.2-5.2V37.1c0-3.8,3.1-7,7-7h0c3.8,0,7,3.1,7,7v34.7	C109.1,74.7,106.8,77,103.9,77z"/><path fill="#FFB5A1" d="M139.1,77h-3.5c-2.9,0-5.2-2.3-5.2-5.2V37.1c0-3.8,3.1-7,7-7h0c3.8,0,7,3.1,7,7v34.7	C144.2,74.7,141.9,77,139.1,77z"/><path fill="#FFB5A1" d="M108.8,83.1L93.3,70.4c-0.3-0.2-0.5-0.5-0.8-0.7c-2.8-2.8-7.3-3-10.4-0.4c-1.9,1.7-2.8,4.1-2.6,6.5	c0.2,2,1.3,3.8,2.9,5.1l15.5,12.7c0.3,0.2,0.5,0.5,0.8,0.7c2.8,2.8,7.3,3,10.4,0.4c1.9-1.7,2.8-4.1,2.6-6.5	C111.5,86.2,110.4,84.4,108.8,83.1z"/><path fill="#FFB5A1" d="M144.2,58.6v22.3c0,13.5-11,24.5-24.5,24.5h0c-13.5,0-24.5-11-24.5-24.5V58.6"/><path fill="#FFB5A1" d="M126,127h-12.6c-6.2,0-11.3-5-11.3-11.3V83.9h35.1v31.8C137.3,121.9,132.2,127,126,127z"/><path fill="#FFB5A1" d="M31,77h3.5c2.9,0,5.2-2.3,5.2-5.2V37.1c0-3.8-3.1-7-7-7h0c-3.8,0-7,3.1-7,7v34.7C25.8,74.7,28.2,77,31,77z"/><path fill="#FFB5A1" d="M48.6,77h3.5c2.9,0,5.2-2.3,5.2-5.2V37.1c0-3.8-3.1-7-7-7h0c-3.8,0-7,3.1-7,7v34.7	C43.4,74.7,45.7,77,48.6,77z"/><path fill="#FFB5A1" d="M13.5,77H17c2.9,0,5.2-2.3,5.2-5.2V37.1c0-3.8-3.1-7-7-7h0c-3.8,0-7,3.1-7,7v34.7C8.3,74.7,10.6,77,13.5,77z"/><path fill="#FFB5A1" d="M43.7,83.1l15.5-12.7c0.3-0.2,0.5-0.5,0.8-0.7c2.8-2.8,7.3-3,10.4-0.4c1.9,1.7,2.8,4.1,2.6,6.5	c-0.2,2-1.3,3.8-2.9,5.1L54.6,93.5c-0.3,0.2-0.5,0.5-0.8,0.7c-2.8,2.8-7.3,3-10.4,0.4c-1.9-1.7-2.8-4.1-2.6-6.5	C41,86.2,42.1,84.4,43.7,83.1z"/><path fill="#FFB5A1" d="M8.3,58.6v22.3c0,13.5,11,24.5,24.5,24.5h0c13.5,0,24.5-11,24.5-24.5V58.6"/><path fill="#FFB5A1" d="M26.5,127h12.6c6.2,0,11.3-5,11.3-11.3V83.9H15.2v31.8C15.2,121.9,20.3,127,26.5,127z"/></svg>