<?xml version="1.0" encoding="UTF-8" standalone="no"?><svg width="210px" height="116px" viewBox="0 0 210 116" version="1.1" xmlns="http://www.w3.org/2000/svg" xmlns:xlink="http://www.w3.org/1999/xlink" xmlns:sketch="http://www.bohemiancoding.com/sketch/ns"><title>bear</title><desc>Created with Sketch.</desc><defs/><g id="Page-1" stroke="none" stroke-width="1" fill="none" fill-rule="evenodd" sketch:type="MSPage"><g id="bear" sketch:type="MSLayerGroup"><path d="M210.019,71.063 L206.151,74.932 C195.114,85.968 177.22,85.968 166.184,74.932 L156.011,64.759 C144.974,53.722 144.974,35.829 156.011,24.792 L159.879,20.923" id="Fill-1" fill="#CC7462" sketch:type="MSShapeGroup"/><path d="M68.986,114.564 L54.56,114.564 C50.928,114.564 47.956,111.592 47.956,107.96 L47.956,38.887 C47.956,35.255 50.928,32.283 54.56,32.283 L68.986,32.283 C72.618,32.283 75.59,35.255 75.59,38.887 L75.59,107.96 C75.59,111.592 72.618,114.564 68.986,114.564" id="Fill-2" fill="#7C3A23" sketch:type="MSShapeGroup"/><path d="M161.172,102.8 L152.766,111.206 C150.386,113.586 146.492,113.586 144.113,111.206 L94.583,61.677 C92.204,59.298 92.204,55.404 94.583,53.025 L102.99,44.618 C105.37,42.239 109.263,42.239 111.643,44.618 L161.172,94.147 C163.552,96.527 163.552,100.42 161.172,102.8" id="Fill-3" fill="#7C3A23" sketch:type="MSShapeGroup"/><path d="M16.076,113.844 L2.46,100.228 C0.114,97.882 0.114,94.043 2.46,91.697 L57.481,36.676 C59.827,34.33 63.666,34.33 66.012,36.676 L79.628,50.292 C81.974,52.638 81.974,56.477 79.628,58.823 L24.607,113.844 C22.261,116.189 18.422,116.189 16.076,113.844" id="Fill-4" fill="#9B4E2C" sketch:type="MSShapeGroup"/><path d="M122.722,115.603 L106.112,115.603 C102.726,115.603 99.956,112.833 99.956,109.447 L99.956,38.439 C99.956,35.053 102.726,32.283 106.112,32.283 L122.722,32.283 C126.107,32.283 128.878,35.053 128.878,38.439 L128.878,109.447 C128.878,112.833 126.107,115.603 122.722,115.603" id="Fill-5" fill="#9B4E2C" sketch:type="MSShapeGroup"/><path d="M184.929,77.782 L184.929,77.782 C176.07,86.641 161.574,86.641 152.715,77.782 L117.667,42.734 C108.808,33.875 108.808,19.378 117.667,10.519 C126.526,1.66 141.022,1.66 149.881,10.519 L184.929,45.567 C193.788,54.426 193.788,68.923 184.929,77.782" id="Fill-6" fill="#9B4E2C" sketch:type="MSShapeGroup"/><path d="M44.637,52.96 L28.192,52.96 C20.296,52.96 13.837,46.5 13.837,38.605 C13.837,30.71 20.296,24.25 28.192,24.25 L44.637,24.25 C52.532,24.25 58.992,30.71 58.992,38.605 C58.992,46.5 52.532,52.96 44.637,52.96" id="Fill-7" fill="#9B4E2C" sketch:type="MSShapeGroup"/><path d="M161.75,56.962 L131.45,26.662 C125.575,20.787 125.575,11.175 131.45,5.3 C137.325,-0.574 146.937,-0.574 152.812,5.3 L183.112,35.6 C188.986,41.475 188.986,51.088 183.112,56.962 C177.237,62.836 167.625,62.836 161.75,56.962" id="Fill-8" fill="#9B4E2C" sketch:type="MSShapeGroup"/><path d="M180.246,17.19 L180.246,17.19 C175.899,12.843 168.786,12.843 164.44,17.19 L155.908,25.721 C151.562,30.068 151.562,37.18 155.908,41.527 C160.255,45.873 167.368,45.873 171.714,41.527 L180.246,32.995 C184.592,28.649 184.592,21.536 180.246,17.19" id="Fill-9" fill="#9B4E2C" sketch:type="MSShapeGroup"/><path d="M133.141,76.994 L61.977,76.994 C41.948,76.994 25.712,60.758 25.712,40.73 L25.712,37.159 C25.712,17.131 41.948,0.894 61.977,0.894 L133.141,0.894 C153.169,0.894 169.405,17.131 169.405,37.159 L169.405,40.73 C169.405,60.758 153.169,76.994 133.141,76.994" id="Fill-10" fill="#9B4E2C" sketch:type="MSShapeGroup"/><path d="M181.863,51.712 C181.863,54.481 179.619,56.726 176.85,56.726 C174.081,56.726 171.836,54.481 171.836,51.712" id="Fill-11" fill="#602D1B" sketch:type="MSShapeGroup"/><path d="M206.151,74.932 L210.019,71.063 L203.846,64.89 L203.846,76.994 C204.642,76.355 205.412,75.67 206.151,74.932" id="Fill-12" fill="#602D1B" sketch:type="MSShapeGroup"/><path d="M125.125,0.894 L142.25,0.894 L142.25,7.562 L125.125,7.562 L125.125,0.894 Z" id="Fill-13" fill="#9B4E2C" sketch:type="MSShapeGroup"/><path d="M33.782,115.603 L20.385,115.603 C17.24,115.603 14.667,113.03 14.667,109.885 C14.667,106.74 17.24,104.167 20.385,104.167 L33.782,104.167 C36.927,104.167 39.5,106.74 39.5,109.885 C39.5,113.03 36.927,115.603 33.782,115.603" id="Fill-14" fill="#9B4E2C" sketch:type="MSShapeGroup"/><path d="M129.782,115.603 L116.385,115.603 C113.24,115.603 110.667,113.03 110.667,109.885 C110.667,106.74 113.24,104.167 116.385,104.167 L129.782,104.167 C132.927,104.167 135.5,106.74 135.5,109.885 C135.5,113.03 132.927,115.603 129.782,115.603" id="Fill-15" fill="#9B4E2C" sketch:type="MSShapeGroup"/><path d="M76.888,114.564 L63.491,114.564 C60.346,114.564 57.773,111.991 57.773,108.846 C57.773,105.701 60.346,103.128 63.491,103.128 L76.888,103.128 C80.033,103.128 82.606,105.701 82.606,108.846 C82.606,111.991 80.033,114.564 76.888,114.564" id="Fill-16" fill="#7C3A23" sketch:type="MSShapeGroup"/><path d="M166.689,97.227 L156.283,107.634 C154.059,109.857 150.42,109.857 148.196,107.634 C145.973,105.41 145.973,101.771 148.196,99.547 L158.603,89.141 C160.827,86.917 164.466,86.917 166.689,89.141 C168.913,91.364 168.913,95.003 166.689,97.227" id="Fill-17" fill="#7C3A23" sketch:type="MSShapeGroup"/></g></g></svg>