<?xml version="1.0" encoding="utf-8"?><!DOCTYPE svg PUBLIC "-//W3C//DTD SVG 1.1//EN" "http://www.w3.org/Graphics/SVG/1.1/DTD/svg11.dtd"><svg version="1.1" id="Layer_1" xmlns="http://www.w3.org/2000/svg" xmlns:xlink="http://www.w3.org/1999/xlink" x="0px" y="0px" width="150px" height="150px" viewBox="0 0 150 150" enable-background="new 0 0 150 150" xml:space="preserve"><circle fill="#E08070" cx="59" cy="55" r="7.9"/><circle fill="#E08070" cx="125.2" cy="55" r="7.9"/><path fill="#FFFFFF" d="M116.7,149H67.6v-46.3c0-13.6,11-24.6,24.6-24.6h0c13.6,0,24.6,11,24.6,24.6V149z"/><path fill="#FFFFFF" d="M138.5,149H45.9v-7c0-25.6,20.7-46.3,46.3-46.3h0c25.6,0,46.3,20.7,46.3,46.3V149z"/><rect x="77" y="105.5" fill="#41676D" width="30.7" height="43.5"/><path fill="#4E767F" d="M109.2,121.4v-19.9c0-9.4-7.7-17.2-17.2-17.2h0c-9.4,0-17.2,7.7-17.2,17.2v19.9l17.3-5.6L109.2,121.4z"/><path fill="#333333" d="M94.3,59.1H84c-15.3,0-27.7-12.4-27.7-27.7v-2.1C56.3,13.9,68.7,1.5,84,1.5h10.2c0.6,0,1.2,0.5,1.2,1.2V58	C95.4,58.6,94.9,59.1,94.3,59.1z"/><path fill="#333333" d="M98.5,27.1H84.9c-7.1,0-12.9-5.8-12.9-12.9v0c0-7.1,5.8-12.9,12.9-12.9h13.5c7.1,0,12.9,5.8,12.9,12.9v0	C111.3,21.4,105.6,27.1,98.5,27.1z"/><path fill="#333333" d="M114.5,52.1h-1.1c-7.5,0-13.6-6.1-13.6-13.6V28.4c0-7.5,6.1-13.6,13.6-13.6h1.1c7.5,0,13.6,6.1,13.6,13.6	v10.1C128.2,46,122.1,52.1,114.5,52.1z"/><path fill="#E08070" d="M92.2,113L92.2,113c-7,0-12.7-5.7-12.7-12.7V84.9c0-7,5.7-12.7,12.7-12.7h0c7,0,12.7,5.7,12.7,12.7v15.3	C105,107.3,99.3,113,92.2,113z"/><g><path fill="#E8957C" d="M92.2,95.6L92.2,95.6c-18.2,0-32.9-14.7-32.9-32.9V41.8C59.2,23.6,74,8.8,92.2,8.8h0 c18.2,0,32.9,14.7,32.9,32.9v20.9C125.1,80.9,110.3,95.6,92.2,95.6z"/></g><g><path fill="#B2473B" d="M109.2,63.2c0,9.4-7.6,17-17,17l0,0c-9.4,0-17-7.6-17-17H109.2z"/></g><g><rect x="86.9" y="42.9" fill="#E08070" width="10.6" height="15"/></g><path fill="#CC4F46" d="M102.2,76.9c-2.3-2.9-5.9-4.8-10-4.8c-4.1,0-7.7,1.9-10,4.8c2.8,2,6.2,3.2,9.9,3.2	C96,80.2,99.4,79,102.2,76.9z"/><circle fill="#CC7262" cx="75.1" cy="47.1" r="3.9"/><circle fill="#CC7262" cx="109.2" cy="47.1" r="3.9"/><path fill="#D3D3D3" d="M72.9,66.4c0-4.7,3.8-8.5,8.5-8.5H103c4.7,0,8.5,3.8,8.5,8.5"/><polygon fill="#E08070" points="100,110.4 92.2,115.7 84.5,110.4"/><path fill="#CC3333" d="M119.2,125.9c0-0.9-0.7-1.5-1.5-1.5h-0.4c-0.9,0-1.5,0.7-1.5,1.5v8.8v4.3v5.7h1.5V139h1.9V125.9z"/><path fill="#00BDFF" d="M126.2,125.9c0-0.9-0.7-1.5-1.5-1.5h-0.4c-0.9,0-1.5,0.7-1.5,1.5v8.8v4.3v5.7h1.5V139h1.9V125.9z"/><path fill="#F49D89" d="M95.6,23.1h-6.8c-1.1,0-1.9-0.9-1.9-1.9v0c0-1.1,0.9-1.9,1.9-1.9h6.8c1.1,0,1.9,0.9,1.9,1.9v0	C97.5,22.3,96.6,23.1,95.6,23.1z"/><rect x="31.4" y="127.4" fill="#FFFFFF" width="23.5" height="21.6"/><path fill="#E8957C" d="M53,127.4H31.5V115h16.3c2.9,0,5.3,2.4,5.3,5.3V127.4z"/><path fill="#E8957C" d="M34.3,123.2H6.1c-2.3,0-4.1-1.8-4.1-4.1v0c0-2.3,1.8-4.1,4.1-4.1h28.2c2.3,0,4.1,1.8,4.1,4.1v0	C38.4,121.3,36.5,123.2,34.3,123.2z"/><path fill="#FFFFFF" d="M50,108L34.1,80.4V68.6h0.8c1.3,0,2.4-1.1,2.4-2.4s-1.1-2.4-2.4-2.4H19.2c-1.3,0-2.4,1.1-2.4,2.4	s1.1,2.4,2.4,2.4H20v11.8L4.1,108c-1.8,3.1,0.4,7,4,7H46C49.6,115,51.8,111.1,50,108z"/><path fill="#88C11A" d="M8,112.5h38.1c1.6,0,2.5-1.7,1.7-3l-9.7-16.9H16l-9.7,16.9C5.5,110.8,6.4,112.5,8,112.5z"/><circle fill="#C3E085" cx="24" cy="89.2" r="1.6"/><circle fill="#C3E085" cx="24" cy="72.3" r="1.6"/><circle fill="#C3E085" cx="29.2" cy="83.1" r="2.7"/><circle fill="#9AD31E" cx="20.2" cy="100.4" r="3.1"/><circle fill="#9AD31E" cx="33.7" cy="105.9" r="2.4"/><circle fill="#4E767F" cx="92.3" cy="126.7" r="2.6"/><circle fill="#4E767F" cx="92.3" cy="139.1" r="2.6"/></svg>