<?xml version="1.0" encoding="utf-8"?><!DOCTYPE svg PUBLIC "-//W3C//DTD SVG 1.1//EN" "http://www.w3.org/Graphics/SVG/1.1/DTD/svg11.dtd"><svg version="1.1" id="Layer_1" xmlns="http://www.w3.org/2000/svg" xmlns:xlink="http://www.w3.org/1999/xlink" x="0px" y="0px" width="150px" height="150px" viewBox="0 0 150 150" enable-background="new 0 0 150 150" xml:space="preserve"><path fill="#F49000" d="M11.1,43.4c17.4,0,31.5,14.1,31.5,31.5s-14.1,31.5-31.5,31.5"/><path fill="#F49000" d="M86.8,26.8H70.6v17.5h33.8v0C104.3,34.7,96.5,26.8,86.8,26.8z"/><path fill="#FFAA00" d="M100.9,43.3H74c-17.3,0-31.5,14.2-31.5,31.5s14.2,31.5,31.5,31.5h26.8c17.3,0,31.5-14.2,31.5-31.5	S118.2,43.3,100.9,43.3z"/><path fill="#F49000" d="M84.8,119.9c11.1,0,20.1-9,20.1-20.1H84.8V119.9z"/><path fill="#F49000" d="M135.7,62.1L135.7,62.1c-2.2,0-3.9,1.8-3.9,3.9v17.6c0,2.2,1.8,3.9,3.9,3.9h0c2.2,0,3.9-1.8,3.9-3.9V66.1	C139.6,63.9,137.9,62.1,135.7,62.1z"/><circle fill="#E07F00" cx="111.7" cy="66.8" r="6.3"/><path fill="#FFCC4D" d="M70.3,71.5c-4.2,0-7.6-3.4-7.6-7.6s3.4-7.6,7.6-7.6"/><path fill="#FFCC4D" d="M70.3,93.4c-4.2,0-7.6-3.4-7.6-7.6s3.4-7.6,7.6-7.6"/><path fill="#FFCC4D" d="M60.6,82.5c-4.2,0-7.6-3.4-7.6-7.6s3.4-7.6,7.6-7.6"/></svg>