<?xml version="1.0" encoding="utf-8"?><!DOCTYPE svg PUBLIC "-//W3C//DTD SVG 1.1//EN" "http://www.w3.org/Graphics/SVG/1.1/DTD/svg11.dtd"><svg version="1.1" id="Layer_1" xmlns="http://www.w3.org/2000/svg" xmlns:xlink="http://www.w3.org/1999/xlink" x="0px" y="0px" width="150px" height="150px" viewBox="0 0 150 150" enable-background="new 0 0 150 150" xml:space="preserve"><path fill="#869B2D" d="M30,147.1v-8c0-25.6,20.8-46.3,46.3-46.3h0c25.6,0,46.3,20.8,46.3,46.3v8"/><rect x="88.6" y="134.6" fill="#808E2B" width="23.1" height="12.5"/><path fill="#99AA33" d="M115.2,132.7L115.2,132.7c0,4.2-3.4,7.6-7.6,7.6H92.9c-4.2,0-7.6-3.4-7.6-7.6l0,0"/><rect x="95.9" y="98.8" fill="#E0C75C" width="8.9" height="48.3"/><rect x="40.6" y="134.6" fill="#808E2B" width="23.1" height="12.5"/><path fill="#99AA33" d="M67.2,132.7L67.2,132.7c0,4.2-3.4,7.6-7.6,7.6H44.9c-4.2,0-7.6-3.4-7.6-7.6l0,0"/><rect x="47.9" y="98.8" fill="#E0C75C" width="8.9" height="48.3"/><path fill="#99AA33" d="M99.8,122.4v-20.5c0-13-10.6-23.6-23.6-23.6h0c-13,0-23.6,10.6-23.6,23.6v20.5l23.8-7.7L99.8,122.4z"/><g><ellipse fill="#FF9D8A" cx="43.3" cy="51.8" rx="8.2" ry="7.7"/></g><g><ellipse fill="#FF9D8A" cx="109.3" cy="51.8" rx="8.2" ry="7.7"/></g><polygon fill="#FF9D8A" points="86,106 76.4,114.4 66.8,106"/><path fill="#FF9D8A" d="M76.4,110.3L76.4,110.3c-7.1,0-12.8-5.8-12.8-12.8v-9.9c0-7.1,5.8-12.8,12.8-12.8h0	c7.1,0,12.8,5.8,12.8,12.8v9.9C89.2,104.5,83.5,110.3,76.4,110.3z"/><g><path fill="#FFB5A1" d="M76.3,93.1L76.3,93.1c-18.2,0-33-14.8-33-33V44.6c0-18.2,14.8-33,33-33h0c18.2,0,33,14.8,33,33V60 C109.4,78.3,94.6,93.1,76.3,93.1z"/></g><path fill="#DDA497" d="M92.8,60.3c-0.1-3-2.5-5.4-5.5-5.4h-22c-3,0-5.5,2.4-5.5,5.4H43.3c0.1,18.1,14.9,32.8,33,32.8	c18.2,0,32.9-14.7,33-32.8H92.8z"/><path fill="#4F4F4F" d="M45.6,82.4L45.6,82.4c-1.7,0-3.1-1.4-3.1-3.1V42.1c0-1.7,1.4-3.1,3.1-3.1h0c1.7,0,3.1,1.4,3.1,3.1v37.2	C48.7,81,47.3,82.4,45.6,82.4z"/><path fill="#4F4F4F" d="M106.7,94.7L106.7,94.7c-1.7,0-3.1-1.4-3.1-3.1V42.1c0-1.7,1.4-3.1,3.1-3.1h0c1.7,0,3.1,1.4,3.1,3.1l0,49.5	C109.8,93.3,108.4,94.7,106.7,94.7z"/><circle fill="#E0C75C" cx="76.2" cy="126.8" r="2.3"/><circle fill="#E0C75C" cx="76.2" cy="141.4" r="2.3"/><g><rect x="70.8" y="39.4" fill="#FF9D8A" width="11.1" height="15.4"/></g><g><circle fill="#EA9486" cx="59.3" cy="44.1" r="4.3"/></g><g><circle fill="#EA9486" cx="93.5" cy="44.1" r="4.3"/></g><path fill="#558C25" d="M115,42.8H37.3V29.8c0-15.4,12.5-27.9,27.9-27.9h21.9c15.4,0,27.9,12.5,27.9,27.9V42.8z"/><path fill="#4D7A21" d="M115,29.9c0-7.6-3-14.5-7.9-19.5H87.2c-5,0-9,4.1-9,9v0c0,5,4.1,9,9,9h10.1c0.1,3.2,2.7,5.8,5.9,5.8H115	V29.9z"/><path fill="#4D7A21" d="M59.8,42.8h40.3c-1.3-3.3-4.6-5.6-8.3-5.6H68.1C64.3,37.2,61.1,39.5,59.8,42.8z"/><path fill="#4D7A21" d="M67.3,17.8H61c-2.7,0-4.8-2.2-4.8-4.8v0c0-2.7,2.2-4.8,4.8-4.8h6.2c2.7,0,4.8,2.2,4.8,4.8v0	C72.1,15.6,69.9,17.8,67.3,17.8z"/><path fill="#4D7A21" d="M47.3,40c4.4,0,7.9-3.6,7.9-7.9s-3.6-7.9-7.9-7.9h-9.4c-0.4,1.9-0.6,3.8-0.6,5.8v10H47.3z"/><path fill="#BF8C84" d="M87.2,66h-4.9c-0.9,0-1.7-0.8-1.7-1.7l0,0c0-0.9,0.8-1.7,1.7-1.7h4.9c0.9,0,1.7,0.8,1.7,1.7l0,0	C88.8,65.2,88.1,66,87.2,66z"/></svg>