<?xml version="1.0" encoding="utf-8"?><!DOCTYPE svg PUBLIC "-//W3C//DTD SVG 1.1//EN" "http://www.w3.org/Graphics/SVG/1.1/DTD/svg11.dtd"><svg version="1.1" id="Layer_1" xmlns="http://www.w3.org/2000/svg" xmlns:xlink="http://www.w3.org/1999/xlink" x="0px" y="0px" width="150px" height="150px" viewBox="0 0 150 150" enable-background="new 0 0 150 150" xml:space="preserve"><path fill="#7AC70C" d="M81.9,20.8c-14.8,0-29.1,6.3-39.2,17.2c-3.1,3.3-3.4,8.2-1.1,11.9c-0.7,0.7-1.5,1.4-2.2,2.2	C35.8,56.1,36,62.3,40,66c4,3.7,10.2,3.4,13.8-0.5c5.2-5.7,12.6-8.9,20.3-8.9c15.2,0,27.6,12.4,27.6,27.6v38.1	c0,5.4,4.4,9.8,9.8,9.8c5.4,0,9.8-4.4,9.8-9.8V103c1.3,0.6,2.7,1,4.2,1c5.4,0,9.8-4.4,9.8-9.8v-20C135.3,44.8,111.3,20.8,81.9,20.8z"/><g><path fill="#9EDB3E" d="M49.9,49.6c-1.2,0-2.4-0.4-3.3-1.3c-2-1.8-2.1-4.9-0.3-6.9c9.2-9.9,22.2-15.6,35.6-15.6 c12.2,0,23.9,4.6,32.9,12.9c2,1.8,2.1,4.9,0.3,6.9c-1.8,2-4.9,2.1-6.9,0.3c-7.2-6.7-16.5-10.3-26.2-10.3 c-10.7,0-21.1,4.6-28.4,12.5C52.5,49.1,51.2,49.6,49.9,49.6z"/></g><rect x="19.6" y="33.6" transform="matrix(0.7071 0.7071 -0.7071 0.7071 59.0594 -14.4013)" fill="#BCBCBC" width="54.7" height="60.9"/><path fill="#C6C6C6" d="M24.1,66.3L24.1,66.3c-2-2-2-5.2,0-7.3l29.4-29.4l7.3,7.3L31.3,66.3C29.3,68.3,26.1,68.3,24.1,66.3z"/><path fill="#AFAFAF" d="M38.7,96.7L68,67.3c2-2,5.2-2,7.3,0l0,0c2,2,2,5.2,0,7.3L45.9,104"/><rect x="39.7" y="37.2" transform="matrix(0.7071 -0.7071 0.7071 0.7071 -32.0978 51.7836)" fill="#7AC70C" width="13.4" height="54.8"/><rect x="29.4" y="49.2" transform="matrix(0.7071 -0.7071 0.7071 0.7071 -27.818 41.4514)" fill="#9EDB3E" width="13.4" height="10.3"/><rect x="55.5" y="75.2" transform="matrix(0.7071 -0.7071 0.7071 0.7071 -38.6175 67.5234)" fill="#6FAD0C" width="13.4" height="10.3"/><line fill="none" stroke="#FFFFFF" stroke-width="2.7982" stroke-linecap="round" stroke-linejoin="round" stroke-miterlimit="10" x1="6" y1="66.3" x2="44.7" y2="105"/><line fill="none" stroke="#FFFFFF" stroke-width="2.7982" stroke-linecap="round" stroke-linejoin="round" stroke-miterlimit="10" x1="49" y1="23.3" x2="87.7" y2="62"/><circle fill="#7AC70C" cx="139.3" cy="45.9" r="4.7"/><circle fill="#7AC70C" cx="90.5" cy="103" r="5.4"/><circle fill="#7AC70C" cx="86.4" cy="21.6" r="3.7"/><circle fill="#D1D1D1" cx="60.2" cy="50.6" r="5.5"/><path fill="#F4F4F4" d="M15.6,52H60c0.9,0,1.6-0.7,1.6-1.6v0c0-0.9-0.7-1.6-1.6-1.6H15.6c-0.9,0-1.6,0.7-1.6,1.6v0	C13.9,51.2,14.7,52,15.6,52z"/><path fill="#6FAD0C" d="M105.4,125L105.4,125c-2,0-3.7-1.7-3.7-3.7v-32c0-2,1.7-3.7,3.7-3.7h0c2,0,3.7,1.7,3.7,3.7v32	C109.1,123.3,107.4,125,105.4,125z"/></svg>