<?xml version="1.0" encoding="utf-8"?><!DOCTYPE svg PUBLIC "-//W3C//DTD SVG 1.1//EN" "http://www.w3.org/Graphics/SVG/1.1/DTD/svg11.dtd"><svg version="1.1" xmlns="http://www.w3.org/2000/svg" xmlns:xlink="http://www.w3.org/1999/xlink" x="0px" y="0px" width="150px" height="150px" viewBox="0 0 150 150" enable-background="new 0 0 150 150" xml:space="preserve"><g id="Layer_2" display="none"><rect y="-510" display="inline" fill="#F0F0F0" width="1680" height="1677.3"/></g><g id="Layer_1"><path d="M110.8,22.8c9.7,0,17.7,8,17.7,17.7v2.9v10.2v38.4h0c-9.7,0-17.7-8-17.7-17.7v-2.9V61.2L110.8,22.8L110.8,22.8z"/><path fill="#A3D6E8" d="M41,148.1v-11.7c0-24.6,19.9-44.5,44.5-44.5h0c24.6,0,44.5,19.9,44.5,44.5v11.7"/><g><path fill="#1E7387" d="M124.6,117.1c-0.7,0-1.4-0.4-1.8-1c-3-5.6-7.4-10.5-12.6-14.2c-0.9-0.6-1.1-1.9-0.5-2.8 c0.6-0.9,1.9-1.1,2.8-0.5c5.7,4.1,10.4,9.4,13.7,15.6c0.5,1,0.2,2.2-0.8,2.7C125.3,117,125,117.1,124.6,117.1z"/></g><polygon fill="#FF9D8A" points="95.5,101.6 85.5,111.1 75.6,101.6"/><polygon fill="#1E7387" points="95.3,112 85.5,129 75.8,112"/><path fill="#1E7387" d="M91.8,148l-4-29.9c-0.8,0.5-1.8-1.3-2.9-1.5c-0.4,0-0.8,1.8-1.2,1.6c0,0,0,0-0.1,0 c-0.1-0.1-0.2-0.1-0.3-0.2l-4,30H91.8z"/><path fill="#ABE1EF" d="M72.5,144.1h-17c-1.5,0-2.6-1.2-2.6-2.6V126h22.2v15.5C75.1,142.9,74,144.1,72.5,144.1z"/><path fill="#ABE1EF" d="M78.5,124.4L78.5,124.4c0,4-3.3,7.3-7.3,7.3H57c-4,0-7.3-3.3-7.3-7.3v0"/><path fill="#FF9D8A" d="M85.5,62.8c-8.1,0-14.6,6.4-14.6,14.3v17.1c0,7.8,6.6,14.3,14.6,14.3s14.6-6.4,14.6-14.3V77.1 C100.1,69.2,93.5,62.8,85.5,62.8z"/><path fill="#ABE1EF" d="M107.4,119.6V99.1c0-12.1-9.9-22-22-22h0c-12.1,0-22,9.9-22,22v20.5l22.3-7.2L107.4,119.6z"/><path fill="#672B21" d="M85.5,108.3L85.5,108.3c-6.7,0-12.2-5.5-12.2-12.2V82.5c0-6.7,5.5-12.2,12.2-12.2h0 c6.7,0,12.2,5.5,12.2,12.2v13.6C97.7,102.9,92.3,108.3,85.5,108.3z"/><polygon fill="#672B21" points="94.9,104 85.5,112.4 76.2,104"/><g><path fill="#1E7387" d="M46.4,117.1c-0.3,0-0.7-0.1-1-0.2c-1-0.5-1.3-1.7-0.8-2.7c3.3-6.1,8.1-11.5,13.7-15.6 c0.9-0.6,2.1-0.4,2.8,0.5c0.6,0.9,0.4,2.2-0.5,2.8c-5.2,3.7-9.5,8.6-12.6,14.2C47.8,116.7,47.1,117.1,46.4,117.1z"/></g><circle fill="#672B21" cx="116.8" cy="51.5" r="7.6"/><circle fill="#672B21" cx="51.9" cy="51.5" r="7.6"/><path fill="#783F30" d="M84.4,91.7L84.4,91.7c-18,0-32.5-14.6-32.5-32.5V38.9c0-18,14.6-32.5,32.5-32.5h0c18,0,32.5,14.6,32.5,32.5 v20.2C116.9,77.1,102.4,91.7,84.4,91.7z"/><circle fill="#EA9486" cx="101.1" cy="43.9" r="4.1"/><circle fill="#EA9486" cx="67.6" cy="43.9" r="4.1"/><rect x="61.6" y="36.7" fill="#FFB5A1" width="12.4" height="5.6"/><rect x="94.6" y="36.7" fill="#FFB5A1" width="12.4" height="5.6"/><path fill="#672B21" d="M88.3,54.6h-7.9c-0.8,0-1.5-0.7-1.5-1.5V41.3c0-0.8,0.7-1.5,1.5-1.5h7.9c0.8,0,1.5,0.7,1.5,1.5v11.8 C89.8,53.9,89.1,54.6,88.3,54.6z"/><path fill="#672B21" d="M47.7,148.1v-26c0-6.2-5-11.2-11.2-11.2h0c-6.2,0-11.2,5-11.2,11.2v26"/><path fill="#353535" d="M41.9,132H27c-1.9,0-3.5-1.6-3.5-3.5V94c0-1.9,1.6-3.5,3.5-3.5h14.9c1.9,0,3.5,1.6,3.5,3.5v34.4 C45.4,130.4,43.8,132,41.9,132z"/><path fill="#1E1E1E" d="M67.7,55.4L67.7,55.4c-6.2,0-11.3-5-11.3-11.3v-5.9c0-1.8,1.4-3.2,3.2-3.2h16.2c1.8,0,3.2,1.4,3.2,3.2v5.9 C79,50.3,73.9,55.4,67.7,55.4z"/><path fill="#1E1E1E" d="M101.1,55.4L101.1,55.4c-6.2,0-11.3-5-11.3-11.3v-5.9c0-1.8,1.4-3.2,3.2-3.2h16.2c1.8,0,3.2,1.4,3.2,3.2 v5.9C112.3,50.3,107.3,55.4,101.1,55.4z"/><rect x="77.5" y="34.8" fill="#1E1E1E" width="13.6" height="7"/><ellipse fill="#228393" cx="84.3" cy="5.5" rx="3.5" ry="3.5"/><path fill="#1E7387" d="M51.7,37.2c0-17.9,14.6-32.3,32.6-32.3s32.6,14.5,32.6,32.3"/><path fill="#228393" d="M117,36.8c0-0.5-0.2-1.1-0.7-1.4c-8.8-7-19.9-9.2-31.9-9.2h0c-12.1,0-23.3,2.2-32.1,9.3 c-0.4,0.3-0.7,0.9-0.7,1.4v8.8c0,1.4,1.6,2.3,2.8,1.5c8.5-6.1,18.8-9.6,29.9-9.6h0c11.1,0,21.4,3.5,29.8,9.6c1.2,0.8,2.8,0,2.8-1.5 V36.8z"/><rect x="95.5" y="125.4" fill="#AAAAAA" width="25.9" height="6.1"/><path fill="#228393" d="M84.8,8l2,4.1c0.1,0.2,0.3,0.3,0.5,0.4l4.6,0.7c0.5,0.1,0.7,0.7,0.4,1.1L89,17.5c-0.2,0.1-0.2,0.4-0.2,0.6 l0.8,4.6c0.1,0.5-0.5,0.9-0.9,0.7l-4.1-2.2c-0.2-0.1-0.4-0.1-0.6,0l-4.1,2.2c-0.5,0.2-1-0.2-0.9-0.7l0.8-4.6c0-0.2,0-0.4-0.2-0.6 l-3.3-3.2c-0.4-0.4-0.2-1,0.4-1.1l4.6-0.7c0.2,0,0.4-0.2,0.5-0.4l2-4.1C83.9,7.6,84.6,7.6,84.8,8z"/><path fill="#783F30" d="M44.4,127.9L44.4,127.9c2.9,0,5.2-2.3,5.2-5.2v-13.9c0-2.9-2.3-5.2-5.2-5.2h0c-2.9,0-5.2,2.3-5.2,5.2v13.9 C39.2,125.5,41.6,127.9,44.4,127.9z"/><path fill="#783F30" d="M34.7,118.1H24.6c-3,0-5.5-2.5-5.5-5.5v0c0-3,2.5-5.5,5.5-5.5h10.1c3,0,5.5,2.5,5.5,5.5v0 C40.2,115.6,37.7,118.1,34.7,118.1z"/><path fill="#783F30" d="M34.7,128.7H24.6c-3,0-5.5-2.5-5.5-5.5v0c0-3,2.5-5.5,5.5-5.5h10.1c3,0,5.5,2.5,5.5,5.5v0 C40.2,126.3,37.7,128.7,34.7,128.7z"/><path fill="#783F30" d="M34.7,139.4H24.6c-3,0-5.5-2.5-5.5-5.5l0,0c0-3,2.5-5.5,5.5-5.5h10.1c3,0,5.5,2.5,5.5,5.5l0,0 C40.2,136.9,37.7,139.4,34.7,139.4z"/><path fill="#353535" d="M28.6,97.6L28.6,97.6c-0.9,0-1.6-0.7-1.6-1.6V67.8c0-0.9,0.7-1.6,1.6-1.6h0c0.9,0,1.6,0.7,1.6,1.6V96 C30.2,96.9,29.5,97.6,28.6,97.6z"/><path fill="#4C4C4C" d="M41.2,97.6H27.9c-0.9,0-1.6-0.7-1.6-1.6l0,0c0-0.9,0.7-1.6,1.6-1.6h13.3c0.9,0,1.6,0.7,1.6,1.6l0,0 C42.8,96.9,42,97.6,41.2,97.6z"/><path fill="#4C4C4C" d="M41.2,103.6H27.9c-0.9,0-1.6-0.7-1.6-1.6l0,0c0-0.9,0.7-1.6,1.6-1.6h13.3c0.9,0,1.6,0.7,1.6,1.6l0,0 C42.8,102.9,42,103.6,41.2,103.6z"/><path fill="#353535" d="M41.1,91.9h-3.9c-0.4,0-0.7-0.3-0.7-0.7v-2.5c0-0.4,0.3-0.7,0.7-0.7h3.9c0.4,0,0.7,0.3,0.7,0.7v2.5 C41.8,91.5,41.5,91.9,41.1,91.9z"/><path fill="#612C23" d="M88.4,69h-8c-0.8,0-1.4-0.6-1.4-1.4l0,0c0-0.8,0.6-1.4,1.4-1.4h8c0.8,0,1.4,0.6,1.4,1.4l0,0 C89.8,68.4,89.2,69,88.4,69z"/></g><g id="Layer_3"/></svg>