<?xml version="1.0" encoding="utf-8"?><!DOCTYPE svg PUBLIC "-//W3C//DTD SVG 1.1//EN" "http://www.w3.org/Graphics/SVG/1.1/DTD/svg11.dtd"><svg version="1.1" xmlns="http://www.w3.org/2000/svg" xmlns:xlink="http://www.w3.org/1999/xlink" x="0px" y="0px" width="150px" height="150px" viewBox="0 0 150 150" enable-background="new 0 0 150 150" xml:space="preserve"><g id="Layer_2" display="none"><rect x="-340" display="inline" fill="#F0F0F0" width="1680" height="1677.3"/></g><g id="Layer_1"><path fill="#72B20D" d="M86.6,54.4C86.6,54.4,86.6,54.5,86.6,54.4c-0.7-1.2-1.9-2.2-3.5-2.7c-3.8-1-5.3-5.4-3.1-8.6l0,0 c3.2-4.5-1.3-10.4-6.5-8.4c-3.6,1.4-7.5-1.3-7.5-5.1c0-5.5-7.2-7.6-10.2-3l0,0c-2.1,3.3-6.8,3.4-9.1,0.3c-3.2-4.5-10.3-1.9-10,3.6 c0.2,3.9-3.5,6.8-7.2,5.6c-5.2-1.7-9.5,4.5-6,8.7c2.5,3,1.1,7.5-2.6,8.7l0,0c-5.2,1.7-5,9.2,0.3,10.6l0,0c3.8,1,5.3,5.4,3.1,8.6 c-1,1.4-1.3,3-1,4.4c1,6.3,3.8,12.5,8.7,17.7l32.7,35.3c8,8.7,22.6,3.5,23.3-8.3l3-48C91.7,66.6,89.9,60,86.6,54.4z"/><path fill="#80BA0F" d="M63.4,54.4C63.4,54.4,63.4,54.5,63.4,54.4c0.7-1.2,1.9-2.2,3.5-2.7c3.8-1,5.3-5.4,3.1-8.6l0,0 c-3.2-4.5,1.3-10.4,6.5-8.4c3.6,1.4,7.5-1.3,7.5-5.1c0-5.5,7.2-7.6,10.2-3l0,0c2.1,3.3,6.8,3.4,9.1,0.3c3.2-4.5,10.3-1.9,10,3.6 c-0.2,3.9,3.5,6.8,7.2,5.6c5.2-1.7,9.5,4.5,6,8.7c-2.5,3-1.1,7.5,2.6,8.7l0,0c5.2,1.7,5,9.2-0.3,10.6l0,0c-3.8,1-5.3,5.4-3.1,8.6 c1,1.4,1.3,3,1,4.4c-1,6.3-3.8,12.5-8.7,17.7l-32.7,35.3c-8,8.7-22.6,3.5-23.3-8.3l-3-48C58.4,66.6,60.1,60,63.4,54.4z"/><path fill="#DDA862" d="M84,139.3H65.1c-1.6,0-3-1.3-3-3v-9h24.8v9C86.9,138,85.6,139.3,84,139.3z"/><linearGradient id="SVGID_1_" gradientUnits="userSpaceOnUse" x1="74.523" y1="134.6097" x2="74.523" y2="10.5393"><stop offset="0" style="stop-color:#BEE488"/><stop offset="1" style="stop-color:#7AC70C"/></linearGradient><path fill="url(#SVGID_1_)" d="M110.6,57.1C110.6,57.1,110.6,57.1,110.6,57.1c-0.3-1.5-1.1-2.9-2.6-4c-3.4-2.4-3.4-7.4,0-9.8v0 c4.9-3.3,2.4-11-3.5-10.8c-4.2,0.1-7.2-4-5.8-7.9c2-5.6-4.5-10.3-9.2-6.7h0c-3.3,2.5-8.1,1-9.3-3c-1.7-5.7-9.7-5.7-11.4,0 c-1.2,4-6,5.6-9.3,3c-4.7-3.6-11.2,1.1-9.2,6.7c1.4,3.9-1.6,8-5.8,7.9h0c-5.9-0.2-8.4,7.5-3.5,10.8v0c3.4,2.4,3.4,7.4,0,9.8 c-1.5,1.1-2.3,2.5-2.5,4.1c-1.3,6.8-0.6,14,2.4,21.1l20.4,47.6c5,11.7,21.6,11.7,26.6,0l20.4-47.6 C111.3,71.2,111.9,63.9,110.6,57.1z"/><linearGradient id="SVGID_2_" gradientUnits="userSpaceOnUse" x1="74.523" y1="134.6097" x2="74.523" y2="10.5393"><stop offset="0" style="stop-color:#BEE488"/><stop offset="1" style="stop-color:#7AC70C"/></linearGradient><path fill="url(#SVGID_2_)" d="M110.6,57.1C110.6,57.1,110.6,57.1,110.6,57.1c-0.3-1.5-1.1-2.9-2.6-4c-3.4-2.4-3.4-7.4,0-9.8v0 c4.9-3.3,2.4-11-3.5-10.8c-4.2,0.1-7.2-4-5.8-7.9c2-5.6-4.5-10.3-9.2-6.7h0c-3.3,2.5-8.1,1-9.3-3c-1.7-5.7-9.7-5.7-11.4,0 c-1.2,4-6,5.6-9.3,3c-4.7-3.6-11.2,1.1-9.2,6.7c1.4,3.9-1.6,8-5.8,7.9h0c-5.9-0.2-8.4,7.5-3.5,10.8v0c3.4,2.4,3.4,7.4,0,9.8 c-1.5,1.1-2.3,2.5-2.5,4.1c-1.3,6.8-0.6,14,2.4,21.1l20.4,47.6c5,11.7,21.6,11.7,26.6,0l20.4-47.6 C111.3,71.2,111.9,63.9,110.6,57.1z"/><linearGradient id="SVGID_3_" gradientUnits="userSpaceOnUse" x1="75.0428" y1="134.6097" x2="75.0428" y2="52.4583"><stop offset="0" style="stop-color:#FFF8F8"/><stop offset="1" style="stop-color:#ACDC66"/></linearGradient><path fill="url(#SVGID_3_)" d="M75.5,134.6h-1c-1.2,0-2.2-1-2.2-2.2V54.7c0-1.2,1-2.2,2.2-2.2h1c1.2,0,2.2,1,2.2,2.2v77.7 C77.8,133.6,76.8,134.6,75.5,134.6z"/></g><g id="Layer_3"/></svg>