<?xml version="1.0" encoding="utf-8"?><!DOCTYPE svg PUBLIC "-//W3C//DTD SVG 1.1//EN" "http://www.w3.org/Graphics/SVG/1.1/DTD/svg11.dtd"><svg version="1.1" xmlns="http://www.w3.org/2000/svg" xmlns:xlink="http://www.w3.org/1999/xlink" x="0px" y="0px" width="150px" height="150px" viewBox="0 0 150 150" enable-background="new 0 0 150 150" xml:space="preserve"><g id="Layer_2" display="none"><rect x="-170" y="-510" display="inline" fill="#F0F0F0" width="1680" height="1677.3"/></g><g id="Layer_1"><path fill="#FFFFFF" d="M32.5,147.5v-7.4c0-23.7,19.2-42.8,42.8-42.8h0c23.7,0,42.8,19.2,42.8,42.8v7.4"/><path fill="#9B9B9B" d="M105.8,54.3H45.8c-5.8,0-10.4-4.7-10.4-10.4v0c0-5.8,4.7-10.4,10.4-10.4h60.1c5.8,0,10.4,4.7,10.4,10.4v0 C116.3,49.6,111.6,54.3,105.8,54.3z"/><g><ellipse fill="#FF9D8A" cx="45.7" cy="61.3" rx="7.5" ry="7"/></g><path fill="#EFEFEF" d="M94.3,126.3V110c0-10.3-8.4-18.7-18.7-18.7h0c-10.3,0-18.7,8.4-18.7,18.7v16.3l18.9-6.1L94.3,126.3z"/><path fill="#E08070" d="M75.8,78c-6.7,0-12.2,5.3-12.2,11.9v14.2c0,6.5,5.5,11.9,12.2,11.9S88,110.6,88,104.1V89.8 C88,83.3,82.5,78,75.8,78z"/><polygon fill="#E08070" points="83.4,113.3 75.8,119.9 68.1,113.3"/><g><ellipse fill="#FF9D8A" cx="105.8" cy="61.3" rx="7.5" ry="7"/></g><g><path fill="#FFB5A1" d="M75.8,98.8L75.8,98.8c-16.6,0-30.1-13.5-30.1-30.1V48.5c0-16.6,13.5-30.1,30.1-30.1h0 c16.6,0,30.1,13.5,30.1,30.1v20.3C105.8,85.4,92.4,98.8,75.8,98.8z"/></g><path fill="#9B9B9B" d="M88.8,80H62.6c-5.1,0-9.2-4.2-9.2-9.2v0c0-5.1,4.2-9.2,9.2-9.2h26.2c5.1,0,9.2,4.2,9.2,9.2v0 C98,75.9,93.9,80,88.8,80z"/><path fill="#9B9B9B" d="M75.8,107.5L75.8,107.5c-16.6,0-30.1-13.5-30.1-30.1v-6.7h60.1v6.7C105.8,94.1,92.4,107.5,75.8,107.5z"/><g><path fill="#FF9D8A" d="M78.9,63.7h-6.4c-0.9,0-1.7-0.7-1.7-1.7V51.8c0-0.9,0.7-1.7,1.7-1.7h6.4c0.9,0,1.7,0.7,1.7,1.7V62 C80.5,62.9,79.8,63.7,78.9,63.7z"/></g><path fill="#FFC5B8" d="M79.7,33.4h-8.3c-1.1,0-2.1-0.9-2.1-2.1v0c0-1.1,0.9-2.1,2.1-2.1h8.3c1.1,0,2.1,0.9,2.1,2.1v0 C81.8,32.5,80.9,33.4,79.7,33.4z"/><g><path fill="#661818" d="M91.3,68.9c0,8.7-7,15.7-15.7,15.7l0,0c-8.7,0-15.7-7-15.7-15.7H91.3z"/></g><g><path fill="#FFFFFF" d="M60.7,73.9h29.7c0.5-1.6,0.8-3.3,0.8-5.1H59.9C59.9,70.6,60.2,72.3,60.7,73.9z"/></g><g><path fill="#842020" d="M84.4,81.9c-2.1-2.4-5.2-4-8.7-4l0,0c-3.5,0-6.7,1.6-8.8,4.1c2.5,1.7,5.5,2.6,8.7,2.6 C78.9,84.6,81.9,83.6,84.4,81.9z"/></g><circle fill="#FFC200" cx="75.8" cy="136.2" r="2.7"/><path fill="#FFFFFF" d="M106.4,30.4l11-11c-23.1-23.1-60.6-23.1-83.7,0l11,11H106.4z"/><path fill="#002630" d="M106.5,33.8L106.5,33.8c0,6-4.9,11-11,11H55.9c-6,0-11-4.9-11-11v0"/><path fill="none" stroke="#FFB600" stroke-width="2.6262" stroke-linecap="round" stroke-linejoin="round" stroke-miterlimit="10" d="M83.1,12.1v4c0,4.1-3.4,7.5-7.5,7.5h0c-4.1,0-7.5-3.4-7.5-7.5v-4"/><path fill="none" stroke="#FFB600" stroke-width="2.6262" stroke-linecap="round" stroke-linejoin="round" stroke-miterlimit="10" d="M79.8,13.8V16c0,2.3-1.9,4.2-4.2,4.2h0c-2.3,0-4.2-1.9-4.2-4.2v-2.2"/><rect x="58.8" y="33.8" fill="#4E767F" width="6.9" height="11"/><rect x="42" y="27.8" fill="#FFB600" width="66.5" height="6"/><rect x="45.1" y="132.9" fill="#E5E5E5" width="19.1" height="14.6"/><path fill="#EFEFEF" d="M67.2,131.6L67.2,131.6c0,3.5-2.8,6.3-6.3,6.3H48.7c-3.5,0-6.3-2.8-6.3-6.3v0"/><rect x="87.1" y="132.9" fill="#E5E5E5" width="19.1" height="14.6"/><path fill="#EFEFEF" d="M109.2,131.6L109.2,131.6c0,3.5-2.8,6.3-6.3,6.3H90.7c-3.5,0-6.3-2.8-6.3-6.3v0"/><g><path fill="#002E35" d="M37.1,123.9c-0.4,0-0.8-0.1-1.2-0.3c-1.2-0.6-1.6-2.1-1-3.3c3.3-6,7.9-11.2,13.4-15.2 c1.1-0.8,2.6-0.5,3.4,0.6c0.8,1.1,0.5,2.6-0.6,3.4c-4.9,3.6-9.1,8.3-12,13.6C38.8,123.4,38,123.9,37.1,123.9z"/></g><g><path fill="#002E35" d="M114.7,123.9c0.4,0,0.8-0.1,1.2-0.3c1.2-0.6,1.6-2.1,1-3.3c-3.3-6-7.9-11.2-13.4-15.2 c-1.1-0.8-2.6-0.5-3.4,0.6c-0.8,1.1-0.5,2.6,0.6,3.4c4.9,3.6,9.1,8.3,12,13.6C113,123.4,113.8,123.9,114.7,123.9z"/></g><circle fill="#EA9486" cx="60.1" cy="53.8" r="3.7"/><circle fill="#EA9486" cx="91.2" cy="53.8" r="3.7"/></g><g id="Layer_3"/></svg>