<?xml version="1.0" encoding="utf-8"?><!DOCTYPE svg PUBLIC "-//W3C//DTD SVG 1.1//EN" "http://www.w3.org/Graphics/SVG/1.1/DTD/svg11.dtd"><svg version="1.1" id="Layer_1" xmlns="http://www.w3.org/2000/svg" xmlns:xlink="http://www.w3.org/1999/xlink" x="0px" y="0px" width="150px" height="150px" viewBox="0 0 150 150" enable-background="new 0 0 150 150" xml:space="preserve"><path fill="#E2E2E2" d="M5.9,140.6v-6.8c0-21.8,17.7-39.4,39.5-39.4h0c21.8,0,39.5,17.7,39.5,39.4v6.8"/><path fill="#A85E27" d="M31.4,96.9c-14.9,5.6-25.5,20-25.5,36.9v6.8h25.5V96.9z"/><path fill="#A85E27" d="M59.7,96.9c14.9,5.6,25.5,20,25.5,36.9v6.8H59.7V96.9z"/><path fill="#A04F18" d="M68.2,140.6v-34.9c0-12.9-10.6-23.5-23.5-23.5h0c-12.9,0-23.5,10.6-23.5,23.5v34.9"/><rect x="29.5" y="111.8" fill="#E2E2E2" width="30.2" height="28.8"/><path fill="#D33131" d="M48.9,114.2l-3.1,5.4c-0.5,0.8-1.7,0.8-2.2,0l-3.1-5.4c-0.5-0.8,0.1-1.9,1.1-1.9h6.2	C48.8,112.3,49.4,113.4,48.9,114.2z"/><polygon fill="#D33131" points="50.7,140.6 44.7,114.9 38.8,140.6"/><path fill="#FFFFFF" d="M59.6,117.3v-14.8c0-8.3-6.8-15.1-15.1-15.1h0c-8.3,0-15.1,6.8-15.1,15.1v14.8l15.3-4.9L59.6,117.3z"/><path fill="#FFA08D" d="M44.7,112.3L44.7,112.3c-7.3,0-13.2-5.9-13.2-13.2V83.3C31.4,76,37.4,70,44.7,70h0c7.3,0,13.2,5.9,13.2,13.2	v15.8C57.9,106.4,51.9,112.3,44.7,112.3z"/><path fill="#898989" d="M55.5,58.7H13.1c-4.5,0-8.2-4.6-8.2-10.3v0c0-5.7,3.7-10.3,8.2-10.3h42.4c4.5,0,8.2,4.6,8.2,10.3v0	C63.8,54.1,60,58.7,55.5,58.7z"/><ellipse fill="#FFA792" cx="15.5" cy="65.5" rx="7.5" ry="7"/><ellipse fill="#FFA792" cx="74" cy="65.5" rx="7.5" ry="7"/><path fill="#FFB5A1" d="M15.4,52.4v18.1C15.4,85.6,28.6,98,44.8,98h0c16.1,0,29.4-12.4,29.4-27.5V52.4"/><path fill="#FFB5A1" d="M74.1,60.7V48.4c0-15.1-13.2-27.5-29.4-27.5h0c-16.1,0-29.4,12.4-29.4,27.5v12.4"/><path fill="#EA9486" d="M24.2,55c0-2.1,1.9-3.9,4.2-3.9s4.2,1.7,4.2,3.9"/><path fill="#EA9486" d="M57,55c0-2.1,1.9-3.9,4.2-3.9c2.3,0,4.2,1.7,4.2,3.9"/><path fill="#898989" d="M23.2,72.1c0-5.7,5-10.4,11.2-10.4s11.2,4.7,11.2,10.4"/><path fill="#898989" d="M43.9,72.1c0-5.7,5-10.4,11.2-10.4s11.2,4.7,11.2,10.4"/><rect x="40" y="50.4" fill="#F3A28F" width="9.6" height="18.3"/><g><path fill="#DD8178" d="M44.8,81.5c-3.1,0-6.1-1.1-8.4-3c-0.6-0.5-0.7-1.4-0.2-2c0.5-0.6,1.4-0.7,2-0.2c1.9,1.5,4.2,2.4,6.7,2.4 c2.4,0,4.7-0.8,6.6-2.3c0.6-0.5,1.5-0.4,2,0.2c0.5,0.6,0.4,1.5-0.2,2C50.8,80.5,47.9,81.5,44.8,81.5z"/></g><g><path fill="#EF9C8B" d="M28.4,61.7c-0.7,0-1.4-0.1-2.1-0.3c-0.5-0.1-0.7-0.6-0.6-1.1c0.1-0.5,0.6-0.7,1.1-0.6 c1.5,0.4,3,0.3,4.3-0.5c1.3-0.7,2.3-1.9,2.7-3.4c0.1-0.5,0.6-0.7,1.1-0.6c0.5,0.1,0.7,0.6,0.6,1.1c-0.6,1.9-1.8,3.5-3.5,4.4 C30.9,61.4,29.6,61.7,28.4,61.7z"/></g><g><path fill="#EF9C8B" d="M61.1,61.7c-1.2,0-2.4-0.3-3.5-0.9c-1.7-1-3-2.5-3.5-4.4c-0.1-0.5,0.1-0.9,0.6-1.1c0.5-0.1,0.9,0.1,1.1,0.6 c0.4,1.5,1.4,2.7,2.7,3.4c1.3,0.7,2.9,0.9,4.3,0.5c0.5-0.1,0.9,0.1,1.1,0.6c0.1,0.5-0.1,0.9-0.6,1.1C62.5,61.6,61.8,61.7,61.1,61.7 z"/></g><circle fill="#AFAFAF" cx="136" cy="55.3" r="8.4"/><circle fill="#AFAFAF" cx="78.7" cy="55.3" r="8.4"/><path fill="#FF7DD5" d="M72.9,140.6v-8.6c0-19.1,15.5-34.6,34.6-34.6h0c19.1,0,34.6,15.5,34.6,34.6v8.6"/><path fill="#FFA08D" d="M107.3,71.9c-7.4,0-13.5,5.9-13.5,13.1v15.7c0,7.2,6.1,13.1,13.5,13.1c7.4,0,13.5-5.9,13.5-13.1V85.1	C120.8,77.9,114.7,71.9,107.3,71.9z"/><path fill="none" stroke="#FFDA00" stroke-width="3.4191" stroke-miterlimit="10" d="M120.8,96.2v22.3c0,7.4-6,13.5-13.5,13.5h0	c-7.4,0-13.5-6-13.5-13.5V96.2"/><ellipse fill="#FFA792" cx="78.8" cy="71.3" rx="7.3" ry="6.8"/><ellipse fill="#FFA792" cx="135.8" cy="71.3" rx="7.3" ry="6.8"/><path fill="#FFB5A1" d="M78.7,42.4v10.2v12.1V76c0,14.7,12.9,26.8,28.6,26.8l0,0c15.7,0,28.6-12.1,28.6-26.8V42.3"/><path fill="#EA9486" d="M89.7,60.2c0-1.8,1.6-3.3,3.6-3.3s3.6,1.5,3.6,3.3"/><rect x="102.6" y="57.5" fill="#EA9486" width="9.4" height="13"/><circle fill="none" stroke="#754844" stroke-width="1.7096" stroke-miterlimit="10" cx="93" cy="60.7" r="9"/><circle fill="none" stroke="#754844" stroke-width="1.7096" stroke-miterlimit="10" cx="121.7" cy="60.7" r="9"/><line fill="none" stroke="#754844" stroke-width="1.7096" stroke-miterlimit="10" x1="101.1" y1="57.9" x2="113" y2="57.9"/><g><path fill="#EF9C8B" d="M91.5,66.4c-0.7,0-1.4-0.1-2.1-0.3C89,66,88.7,65.5,88.8,65c0.1-0.5,0.6-0.7,1.1-0.6c1.5,0.4,3,0.3,4.3-0.5 c1.3-0.7,2.3-1.9,2.7-3.4c0.1-0.5,0.6-0.7,1.1-0.6c0.5,0.1,0.7,0.6,0.6,1.1c-0.6,1.9-1.8,3.5-3.5,4.4 C93.9,66.1,92.7,66.4,91.5,66.4z"/></g><path fill="#EA9486" d="M125.1,60.2c0-1.8-1.6-3.3-3.6-3.3c-2,0-3.6,1.5-3.6,3.3"/><g><path fill="#EF9C8B" d="M123.3,66.4c-1.2,0-2.4-0.3-3.5-0.9c-1.7-1-3-2.5-3.5-4.4c-0.1-0.5,0.1-0.9,0.6-1.1 c0.5-0.1,0.9,0.1,1.1,0.6c0.4,1.5,1.4,2.7,2.7,3.4c1.3,0.7,2.9,0.9,4.3,0.5c0.5-0.1,0.9,0.1,1.1,0.6c0.1,0.5-0.1,0.9-0.6,1.1 C124.7,66.3,124,66.4,123.3,66.4z"/></g><g><path fill="#EF9C8B" d="M107.5,98.1c-1.8,0-3.6-0.7-4.9-2c-0.3-0.3-0.3-0.9,0-1.2s0.9-0.3,1.2,0c2.1,2.1,5.4,2.1,7.5,0 c0.3-0.3,0.9-0.3,1.2,0s0.3,0.9,0,1.2C111.1,97.4,109.3,98.1,107.5,98.1z"/></g><g><path fill="#DD8178" d="M107.5,83.2c-2.9,0-5.5-1.1-7.6-3.1c-0.5-0.5-0.5-1.3,0-1.8c0.5-0.5,1.3-0.5,1.8,0c1.5,1.5,3.6,2.4,5.7,2.4 c2.2,0,4.2-0.8,5.7-2.4c0.5-0.5,1.3-0.5,1.8,0c0.5,0.5,0.5,1.3,0,1.8C113,82.1,110.3,83.2,107.5,83.2z"/></g><g><path fill="#EF9C8B" d="M44.7,93.8c-1.8,0-3.6-0.7-4.9-2c-0.3-0.3-0.3-0.9,0-1.2c0.3-0.3,0.9-0.3,1.2,0c2.1,2.1,5.4,2.1,7.5,0 c0.3-0.3,0.9-0.3,1.2,0s0.3,0.9,0,1.2C48.3,93.1,46.5,93.8,44.7,93.8z"/></g><circle fill="#AFAFAF" cx="129.1" cy="41.7" r="14"/><circle fill="#AFAFAF" cx="86.1" cy="42.8" r="13.5"/><circle fill="#AFAFAF" cx="113.2" cy="27.3" r="17.2"/><circle fill="#AFAFAF" cx="95.3" cy="29" r="12.7"/><circle fill="#AFAFAF" cx="101.1" cy="41.7" r="7"/><path fill="#EF9C8B" d="M54,40.8H34.8c-0.6,0-1.2-0.5-1.2-1.2v0c0-0.6,0.5-1.2,1.2-1.2H54c0.6,0,1.2,0.5,1.2,1.2v0	C55.1,40.3,54.6,40.8,54,40.8z"/><path fill="#EF9C8B" d="M48.6,35.7H40c-0.6,0-1.2-0.5-1.2-1.2v0c0-0.6,0.5-1.2,1.2-1.2h8.7c0.6,0,1.2,0.5,1.2,1.2v0	C49.8,35.1,49.3,35.7,48.6,35.7z"/></svg>