<?xml version="1.0" encoding="utf-8"?><!DOCTYPE svg PUBLIC "-//W3C//DTD SVG 1.1//EN" "http://www.w3.org/Graphics/SVG/1.1/DTD/svg11.dtd"><svg version="1.1" xmlns="http://www.w3.org/2000/svg" xmlns:xlink="http://www.w3.org/1999/xlink" x="0px" y="0px" width="150px" height="150px" viewBox="0 0 150 150" enable-background="new 0 0 150 150" xml:space="preserve"><g id="Layer_2" display="none"><rect x="-510" y="-1527.3" display="inline" fill="#F0F0F0" width="1680" height="1677.3"/></g><g id="Layer_1"/><g id="Layer_3"><path fill="#773D15" d="M115.7,121.3H45.7c-5.1,0-9.3-4.2-9.3-9.3V16.3c0-5.1,4.2-9.3,9.3-9.3h70.1c5.1,0,9.3,4.2,9.3,9.3V112 C125,117.1,120.9,121.3,115.7,121.3z"/><path fill="#894619" d="M68.2,117.1H48.8c-2.8,0-5.1-2.3-5.1-5.1V92.5c0-2.8,2.3-5.1,5.1-5.1h19.4c2.8,0,5.1,2.3,5.1,5.1v19.4 C73.4,114.8,71.1,117.1,68.2,117.1z"/><path fill="#894619" d="M101.9,117.1H82.5c-2.8,0-5.1-2.3-5.1-5.1V92.5c0-2.8,2.3-5.1,5.1-5.1h19.4c2.8,0,5.1,2.3,5.1,5.1v19.4 C107.1,114.8,104.8,117.1,101.9,117.1z"/><path fill="#7F4016" d="M70.7,112.6L70.7,112.6c-1.5,0-2.6-1.2-2.6-2.6V93.3c0-1.5,1.2-2.6,2.6-2.6h0c1.5,0,2.6,1.2,2.6,2.6V110 C73.4,111.5,72.2,112.6,70.7,112.6z"/><path fill="#894619" d="M103,45.2H83.6c-2.8,0-5.1-2.3-5.1-5.1V20.6c0-2.8,2.3-5.1,5.1-5.1H103c2.8,0,5.1,2.3,5.1,5.1v19.4 C108.2,42.9,105.9,45.2,103,45.2z"/><path fill="#BCBCBC" d="M36.4,138c0,3.9,3.1,7,7,7h74.7c3.9,0,7-3.1,7-7v-4.7H36.4V138z"/><path fill="#602F0F" d="M120.4,102.4L120.4,102.4c-2.5,0-4.6-2.1-4.6-4.6V13.9c0-2.5,2.1-4.6,4.6-4.6h0c2.5,0,4.6,2.1,4.6,4.6v83.8 C125.1,100.3,123,102.4,120.4,102.4z"/><path fill="#8549BA" d="M115.9,90.1c-0.1-0.2-0.2-0.4-0.3-0.6l-79.2,15.9v27.8h84.8V94C119.1,93.4,117.2,92.1,115.9,90.1z"/><path fill="#62398E" d="M115.8,135V93.2c0-1.7,2-3.1,4.5-3.1h0.3c2.5,0,4.5,1.4,4.5,3.1V135"/><path fill="#9B9B9B" d="M125.1,133.2v4.1c0,2.1-1.7,3.8-3.8,3.8h-1.7c-2.1,0-3.8-1.7-3.8-3.8v-4.1"/><path fill="#894619" d="M103,82.3H83.6c-2.8,0-5.1-2.3-5.1-5.1V57.7c0-2.8,2.3-5.1,5.1-5.1H103c2.8,0,5.1,2.3,5.1,5.1v19.4 C108.2,80,105.9,82.3,103,82.3z"/><path fill="#7F4016" d="M105.5,77.8L105.5,77.8c-1.5,0-2.6-1.2-2.6-2.6V58.5c0-1.5,1.2-2.6,2.6-2.6h0c1.5,0,2.6,1.2,2.6,2.6v16.7 C108.2,76.6,107,77.8,105.5,77.8z"/><path fill="#9E9E9E" d="M49,76.4c8,0,14.5,6.5,14.5,14.5v23.8h52.2V89.9c0-7.3-5.9-13.3-13.2-13.5"/><rect x="36.4" y="89.9" fill="#8549BA" width="79.4" height="43.3"/><path fill="#7F4016" d="M105.5,40.8L105.5,40.8c-1.5,0-2.6-1.2-2.6-2.6V21.4c0-1.5,1.2-2.6,2.6-2.6h0c1.5,0,2.6,1.2,2.6,2.6v16.7 C108.2,39.6,107,40.8,105.5,40.8z"/><path fill="#894619" d="M68.2,45.2H48.8c-2.8,0-5.1-2.3-5.1-5.1V20.6c0-2.8,2.3-5.1,5.1-5.1h19.4c2.8,0,5.1,2.3,5.1,5.1v19.4 C73.4,42.9,71.1,45.2,68.2,45.2z"/><path fill="#7F4016" d="M70.7,40.8L70.7,40.8c-1.5,0-2.6-1.2-2.6-2.6V21.4c0-1.5,1.2-2.6,2.6-2.6h0c1.5,0,2.6,1.2,2.6,2.6v16.7 C73.4,39.6,72.2,40.8,70.7,40.8z"/><path fill="#894619" d="M68.2,82.3H48.8c-2.8,0-5.1-2.3-5.1-5.1V57.7c0-2.8,2.3-5.1,5.1-5.1h19.4c2.8,0,5.1,2.3,5.1,5.1v19.4 C73.4,80,71.1,82.3,68.2,82.3z"/><path fill="#7F4016" d="M70.7,77.8L70.7,77.8c-1.5,0-2.6-1.2-2.6-2.6V58.5c0-1.5,1.2-2.6,2.6-2.6h0c1.5,0,2.6,1.2,2.6,2.6v16.7 C73.4,76.6,72.2,77.8,70.7,77.8z"/><path fill="#BCBCBC" d="M103.4,76.4l-22.5,0H36.3c-8,0-14.5,6.5-14.5,14.5v7h68.5v-8C90.3,82.6,96.1,76.6,103.4,76.4z"/><rect x="115.8" y="89.9" fill="#62398E" width="9.3" height="7.8"/><path fill="#C9C9C9" d="M72.4,83.8h-33c-1.3,0-2.3-1-2.3-2.3l0,0c0-1.3,1-2.3,2.3-2.3h33c1.3,0,2.3,1,2.3,2.3l0,0 C74.8,82.7,73.7,83.8,72.4,83.8z"/></g></svg>