<?xml version="1.0" encoding="utf-8"?><!DOCTYPE svg PUBLIC "-//W3C//DTD SVG 1.1//EN" "http://www.w3.org/Graphics/SVG/1.1/DTD/svg11.dtd"><svg version="1.1" id="Layer_1" xmlns="http://www.w3.org/2000/svg" xmlns:xlink="http://www.w3.org/1999/xlink" x="0px" y="0px" width="150px" height="150px" viewBox="0 0 150 150" enable-background="new 0 0 150 150" xml:space="preserve"><path fill="#A35D41" d="M109.6,136H39.9c-4.1,0-7.5-3.3-7.5-7.5V31c0-4.1,3.3-7.5,7.5-7.5h69.7c4.1,0,7.5,3.3,7.5,7.5v97.5	C117,132.6,113.7,136,109.6,136z"/><path fill="#96543C" d="M65.6,104.8c-0.7,0-1.3,0.6-1.3,1.3v14.1c0,0.7,0.6,1.3,1.3,1.3c0.7,0,1.3-0.6,1.3-1.3v-14.1	C66.9,105.4,66.3,104.8,65.6,104.8z"/><polygon fill="#FFFFFF" points="102.7,102.7 102.7,25.9 102.7,25.9 99.2,22.2 95.7,25.9 92.2,22.2 88.8,25.8 85.4,22.2 81.9,25.9 78.5,22.2 75,25.9 71.5,22.2 68.1,25.8 64.7,22.2 61.2,25.9 57.7,22.2 54.3,25.8 50.9,22.2 47.4,25.9 47.5,25.9 47.5,29.7 47.4,29.7 47.4,106.5 47.5,106.5 51,110.2 54.5,106.5 57.9,110.2 61.3,106.6 64.7,110.2 68.2,106.5 71.7,110.2 75.2,106.5 78.7,110.2 82.1,106.6 85.5,110.2 88.9,106.5 92.4,110.2 95.8,106.6 99.2,110.2 102.7,106.5 102.6,106.5 102.6,102.7"/><line fill="none" stroke="#969696" stroke-width="1.3744" stroke-miterlimit="10" x1="50.6" y1="83.1" x2="99.3" y2="83.1"/><rect x="50.9" y="44.3" fill="#D1D1D1" width="27.3" height="5.2"/><rect x="50.9" y="60.9" fill="#D1D1D1" width="27.3" height="5.2"/><rect x="87" y="44.3" fill="#D1D1D1" width="12" height="5.2"/><rect x="87" y="60.9" fill="#D1D1D1" width="12" height="5.2"/><rect x="81.8" y="90.4" fill="#D1D1D1" width="17.2" height="7.5"/><path fill="#969696" d="M95.9,18.1H81.8c-0.6-3.2-3.4-5.7-6.7-5.7c-3.4,0-6.2,2.4-6.7,5.7H54.3c-6.9,0-12.4,5.6-12.4,12.4v2.7h66.5	v-2.7C108.3,23.6,102.8,18.1,95.9,18.1z M75.1,15.8c1.5,0,2.7,0.9,3.2,2.3c0.1,0.2,0.1,0.4,0.2,0.6c0,0.2,0.1,0.4,0.1,0.6	c0,1.9-1.5,3.4-3.4,3.4c-1.9,0-3.4-1.5-3.4-3.4c0-0.2,0-0.4,0.1-0.6c0-0.2,0.1-0.4,0.2-0.6C72.3,16.7,73.6,15.8,75.1,15.8z"/><path fill="#828282" d="M41.8,30.5v2.7h66.5v-2.7c0-0.9-0.1-1.7-0.3-2.5h-66C41.9,28.8,41.8,29.6,41.8,30.5z"/><path fill="#96543C" d="M107.3,40.7c-0.7,0-1.3,0.6-1.3,1.3V56c0,0.7,0.6,1.3,1.3,1.3c0.7,0,1.3-0.6,1.3-1.3V41.9	C108.6,41.2,108,40.7,107.3,40.7z"/><path fill="#96543C" d="M112.6,72.8c-0.7,0-1.3,0.6-1.3,1.3v14.1c0,0.7,0.6,1.3,1.3,1.3c0.7,0,1.3-0.6,1.3-1.3V74	C113.9,73.3,113.3,72.8,112.6,72.8z"/><path fill="#96543C" d="M106.2,90.9c-0.7,0-1.3,0.6-1.3,1.3v14.1c0,0.7,0.6,1.3,1.3,1.3c0.7,0,1.3-0.6,1.3-1.3V92.2	C107.5,91.5,106.9,90.9,106.2,90.9z"/><path fill="#96543C" d="M78.4,128.4c-0.7,0-1.3,0.6-1.3,1.3v6.3h2.5v-6.3C79.7,128.9,79.1,128.4,78.4,128.4z"/><path fill="#96543C" d="M85.9,119.8c-0.7,0-1.3,0.6-1.3,1.3V136h2.5v-14.9C87.2,120.4,86.6,119.8,85.9,119.8z"/><path fill="#96543C" d="M97.7,115.5c-0.7,0-1.3,0.6-1.3,1.3v14.1c0,0.7,0.6,1.3,1.3,1.3c0.7,0,1.3-0.6,1.3-1.3v-14.1	C98.9,116.1,98.4,115.5,97.7,115.5z"/><path fill="#96543C" d="M41,74.9c-0.7,0-1.3,0.6-1.3,1.3v19.4c0,0.7,0.6,1.3,1.3,1.3c0.7,0,1.3-0.6,1.3-1.3V76.2	C42.3,75.5,41.7,74.9,41,74.9z"/><path fill="#96543C" d="M38.9,42.8c-0.7,0-1.3,0.6-1.3,1.3v19.4c0,0.7,0.6,1.3,1.3,1.3c0.7,0,1.3-0.6,1.3-1.3V44.1	C40.1,43.4,39.6,42.8,38.9,42.8z"/><path fill="#96543C" d="M47.4,122c-0.7,0-1.3,0.6-1.3,1.3V136h2.5v-12.7C48.7,122.5,48.1,122,47.4,122z"/></svg>