<?xml version="1.0" encoding="utf-8"?><!DOCTYPE svg PUBLIC "-//W3C//DTD SVG 1.1//EN" "http://www.w3.org/Graphics/SVG/1.1/DTD/svg11.dtd"><svg version="1.1" id="Layer_1" xmlns="http://www.w3.org/2000/svg" xmlns:xlink="http://www.w3.org/1999/xlink" x="0px" y="0px" width="150px" height="150px" viewBox="0 0 150 150" enable-background="new 0 0 150 150" xml:space="preserve"><path fill="#E28100" d="M74,136.4L74,136.4c-2,0-3.6-1.6-3.6-3.6v-16.1c0-2,1.6-3.6,3.6-3.6h0c2,0,3.6,1.6,3.6,3.6v16.1	C77.6,134.8,76,136.4,74,136.4z"/><path fill="#CC2F2F" d="M101.6,12.1c-9.1,0-16.6,7.5-16.6,16.6v18.1c0,9.1,7.5,16.6,16.6,16.6c2.1,0,4-0.4,5.8-1.1	c1.5-7.5,2.8-15,10.7-18.4c0,0,0.1,0,0.1-0.1V28.8C118.2,19.6,110.7,12.1,101.6,12.1z"/><path fill="#FFFFFF" d="M98.1,21.2c-11,0-20,9-20,20v5.5c0,10.7-8.8,19.5-19.5,19.5c-10.7,0-19.5-8.8-19.5-19.5	c-13.5,0-24.4,10.9-24.4,24.4v0c0,26.5,21.5,47.9,47.9,47.9h7.6c24.3,0,44.4-18.1,47.5-41.5c0.3-1.3,0.4-2.7,0.4-4.1v-2.3v0V41.3	C118.2,30.3,109.2,21.2,98.1,21.2z"/><circle fill="#CC2F2F" cx="108.9" cy="62.3" r="11"/><path fill="#FFAA00" d="M100.9,54.7L100.9,54.7c0-8,6.6-14.6,14.6-14.6h5.5c8,0,14.6,6.6,14.6,14.6v0"/><circle fill="#C9C9C9" cx="94.9" cy="40.5" r="4.1"/><path fill="#E28100" d="M88.7,135.5L88.7,135.5c0,2-1.6,3.6-3.6,3.6H69.1c-2,0-3.6-1.6-3.6-3.6l0,0c0-2,1.6-3.6,3.6-3.6h16.1	C87.1,131.9,88.7,133.6,88.7,135.5z"/><path fill="#FFAA00" d="M60.1,136.4L60.1,136.4c-2,0-3.6-1.6-3.6-3.6v-16.1c0-2,1.6-3.6,3.6-3.6h0c2,0,3.6,1.6,3.6,3.6v16.1	C63.7,134.8,62.1,136.4,60.1,136.4z"/><path fill="#FFAA00" d="M74.9,135.5L74.9,135.5c0,2-1.6,3.6-3.6,3.6H55.2c-2,0-3.6-1.6-3.6-3.6l0,0c0-2,1.6-3.6,3.6-3.6h16.1	C73.2,131.9,74.9,133.6,74.9,135.5z"/></svg>