<?xml version="1.0" encoding="utf-8"?><!DOCTYPE svg PUBLIC "-//W3C//DTD SVG 1.1//EN" "http://www.w3.org/Graphics/SVG/1.1/DTD/svg11.dtd"><svg version="1.1" id="Layer_1" xmlns="http://www.w3.org/2000/svg" xmlns:xlink="http://www.w3.org/1999/xlink" x="0px" y="0px" width="150px" height="150px" viewBox="0 0 150 150" enable-background="new 0 0 150 150" xml:space="preserve"><path fill="#FFFFFF" d="M85.7,48.8c-0.5,0.1-1,0.1-1.5,0.1c-0.8,0-1.5,0-2.3,0c-1.2,0.9-2.6,1.5-4.2,1.7c-0.8,0.1-1.5,0.2-2.2,0.2	c-1.4,0.3-2.9,0.3-4.3,0.1c-1.9-0.3-3.6-1-4.7-2.3c-0.2-0.1-0.4-0.3-0.6-0.4L21,83v63.8h108.5V83L85.7,48.8z"/><line fill="none" stroke="#919191" stroke-width="6.1717" stroke-linecap="round" stroke-linejoin="round" stroke-miterlimit="10" x1="62.6" y1="50.6" x2="17.8" y2="85.5"/><line fill="none" stroke="#919191" stroke-width="6.1717" stroke-linecap="round" stroke-linejoin="round" stroke-miterlimit="10" x1="87.8" y1="50.6" x2="132.5" y2="85.5"/><path fill="#FFFFFF" d="M57.8,17.4v104.8h34.7V17.4H57.8z M86.2,45.6H64V25.9h22.2V45.6z"/><path fill="#8C561B" d="M56.2,146.8v-27c0-10.4,8.5-18.9,18.9-18.9h0c10.4,0,18.9,8.5,18.9,18.9v27"/><path fill="#AEFBFF" d="M29.2,138v-28.1c0-5,4.1-9,9-9h0c5,0,9,4.1,9,9V138"/><path fill="#AEFBFF" d="M103,138v-28.1c0-5,4.1-9,9-9h0c5,0,9,4.1,9,9V138"/><circle fill="#AEFBFF" cx="75.1" cy="75.6" r="16.8"/><path fill="#919191" d="M53.9,18.6L74.7,2.3c0.2-0.2,0.5-0.2,0.7,0l20.8,16.3c0.4,0.4,0.2,1.1-0.4,1.1H54.3	C53.7,19.7,53.5,18.9,53.9,18.6z"/><rect x="73.7" y="54.2" fill="#FFFFFF" width="2.8" height="42.8"/><rect x="53.7" y="74.2" fill="#FFFFFF" width="42.8" height="2.8"/><path fill="#7C4713" d="M72.1,134.2L72.1,134.2c-1,0-1.7-0.7-1.7-1.6v-9c0-0.9,0.7-1.6,1.6-1.6h0.1c0.9,0,1.6,0.7,1.6,1.6v9	C73.7,133.4,73,134.2,72.1,134.2z"/><path fill="#7C4713" d="M78.2,134.2L78.2,134.2c-1,0-1.7-0.7-1.7-1.6v-9c0-0.9,0.7-1.6,1.6-1.6h0.1c0.9,0,1.6,0.7,1.6,1.6v9	C79.9,133.4,79.1,134.2,78.2,134.2z"/><path fill="#FFCE00" d="M67,41.3v-4.4c0-4.5,3.6-8.1,8.1-8.1h0c4.5,0,8.1,3.6,8.1,8.1v4.4"/><path fill="#EFC100" d="M77.7,40.8c0,1.4-1.2,2.6-2.6,2.6c-1.4,0-2.6-1.2-2.6-2.6"/><rect x="73.2" y="25.9" fill="#FFCE00" width="3.9" height="9.8"/><path fill="#FFD939" d="M83.3,41.3H66.9c-0.4,0-0.8-0.3-0.8-0.8v0c0-0.4,0.3-0.8,0.8-0.8h16.4c0.4,0,0.8,0.3,0.8,0.8v0	C84.1,41,83.7,41.3,83.3,41.3z"/></svg>