<?xml version="1.0" encoding="utf-8"?><!DOCTYPE svg PUBLIC "-//W3C//DTD SVG 1.1//EN" "http://www.w3.org/Graphics/SVG/1.1/DTD/svg11.dtd"><svg version="1.1" id="Layer_1" xmlns="http://www.w3.org/2000/svg" xmlns:xlink="http://www.w3.org/1999/xlink" x="0px" y="0px" width="150px" height="150px" viewBox="0 0 150 150" enable-background="new 0 0 150 150" xml:space="preserve"><circle fill="#FFFFFF" cx="75" cy="65.8" r="54"/><path fill="#FFFFFF" d="M59.7,109.9c0,16.1,13,29.1,29.1,29.1v-29.1H59.7z"/><circle fill="#D33131" cx="75" cy="65.7" r="44"/><path fill="#FFC200" d="M55.1,40.1l2.1,6.6c0.1,0.4,0.5,0.7,0.9,0.7h6.9c1,0,1.3,1.2,0.6,1.8l-5.6,4.1c-0.3,0.3-0.5,0.7-0.4,1.1	l2.1,6.6c0.3,0.9-0.7,1.7-1.5,1.1l-5.6-4.1c-0.3-0.3-0.8-0.3-1.2,0L48,62c-0.8,0.6-1.8-0.2-1.5-1.1l2.1-6.6c0.1-0.4,0-0.8-0.4-1.1	l-5.6-4.1c-0.8-0.6-0.4-1.8,0.6-1.8h6.9c0.4,0,0.8-0.3,0.9-0.7l2.1-6.6C53.6,39.2,54.8,39.2,55.1,40.1z"/><path fill="#FFC200" d="M67.8,27.9l0.9,2.6c0.1,0.2,0.2,0.3,0.4,0.3h2.8c0.4,0,0.5,0.5,0.2,0.7l-2.3,1.6c-0.1,0.1-0.2,0.3-0.1,0.4	l0.9,2.6c0.1,0.4-0.3,0.7-0.6,0.4L67.7,35c-0.1-0.1-0.3-0.1-0.5,0L65,36.7c-0.3,0.2-0.7-0.1-0.6-0.4l0.9-2.6c0.1-0.2,0-0.3-0.1-0.4	l-2.3-1.6c-0.3-0.2-0.2-0.7,0.2-0.7h2.8c0.2,0,0.3-0.1,0.4-0.3l0.9-2.6C67.2,27.5,67.7,27.5,67.8,27.9z"/><path fill="#FFC200" d="M75.3,40.3l0.9,2.6c0.1,0.2,0.2,0.3,0.4,0.3h2.8c0.4,0,0.5,0.5,0.2,0.7l-2.3,1.6c-0.1,0.1-0.2,0.3-0.1,0.4	l0.9,2.6c0.1,0.4-0.3,0.7-0.6,0.4l-2.3-1.6c-0.1-0.1-0.3-0.1-0.5,0l-2.3,1.6c-0.3,0.2-0.7-0.1-0.6-0.4l0.9-2.6	c0.1-0.2,0-0.3-0.1-0.4l-2.3-1.6c-0.3-0.2-0.2-0.7,0.2-0.7h2.8c0.2,0,0.3-0.1,0.4-0.3l0.9-2.6C74.6,39.9,75.2,39.9,75.3,40.3z"/><path fill="#FFC200" d="M75.3,53.9l0.9,2.6c0.1,0.2,0.2,0.3,0.4,0.3h2.8c0.4,0,0.5,0.5,0.2,0.7l-2.3,1.6c-0.1,0.1-0.2,0.3-0.1,0.4	l0.9,2.6c0.1,0.4-0.3,0.7-0.6,0.4l-2.3-1.6c-0.1-0.1-0.3-0.1-0.5,0l-2.3,1.6c-0.3,0.2-0.7-0.1-0.6-0.4l0.9-2.6	c0.1-0.2,0-0.3-0.1-0.4l-2.3-1.6c-0.3-0.2-0.2-0.7,0.2-0.7h2.8c0.2,0,0.3-0.1,0.4-0.3l0.9-2.6C74.6,53.6,75.2,53.6,75.3,53.9z"/><path fill="#FFC200" d="M67.8,65.1l0.9,2.6c0.1,0.2,0.2,0.3,0.4,0.3h2.8c0.4,0,0.5,0.5,0.2,0.7l-2.3,1.6c-0.1,0.1-0.2,0.3-0.1,0.4	l0.9,2.6c0.1,0.4-0.3,0.7-0.6,0.4l-2.3-1.6c-0.1-0.1-0.3-0.1-0.5,0L65,73.9c-0.3,0.2-0.7-0.1-0.6-0.4l0.9-2.6c0.1-0.2,0-0.3-0.1-0.4	l-2.3-1.6c-0.3-0.2-0.2-0.7,0.2-0.7h2.8c0.2,0,0.3-0.1,0.4-0.3l0.9-2.6C67.2,64.7,67.7,64.7,67.8,65.1z"/></svg>