<?xml version="1.0" encoding="utf-8"?><!DOCTYPE svg PUBLIC "-//W3C//DTD SVG 1.1//EN" "http://www.w3.org/Graphics/SVG/1.1/DTD/svg11.dtd"><svg version="1.1" id="Layer_1" xmlns="http://www.w3.org/2000/svg" xmlns:xlink="http://www.w3.org/1999/xlink" x="0px" y="0px" width="150px" height="150px" viewBox="0 0 150 150" enable-background="new 0 0 150 150" xml:space="preserve"><path fill="#D17D7D" d="M79.3,104.5h-9.1c-14,0-25.4-11.4-25.4-25.4v0c0-14,11.4-25.4,25.4-25.4h9.1c14,0,25.4,11.4,25.4,25.4v0	C104.7,93.1,93.4,104.5,79.3,104.5z"/><path fill="#E53838" d="M79.3,53.6h-9.1c-14,0-25.4,11.4-25.4,25.4v0h60v0C104.7,65,93.4,53.6,79.3,53.6z"/><path fill="#1E1E1E" d="M64,55.3L64,55.3c-2.5,0-4.6-2.1-4.6-4.6v-7.3c0-2.5,2.1-4.6,4.6-4.6h0c2.5,0,4.6,2.1,4.6,4.6v7.3	C68.5,53.2,66.5,55.3,64,55.3z"/><path fill="#1E1E1E" d="M85.6,55.7L85.6,55.7c-2.5,0-4.6-2.1-4.6-4.6v-7.3c0-2.5,2.1-4.6,4.6-4.6h0c2.5,0,4.6,2.1,4.6,4.6v7.3	C90.1,53.6,88.1,55.7,85.6,55.7z"/><path fill="#F93E3E" d="M70.3,73.6L70.3,73.6c-1.8,0-3.2-1.4-3.2-3.2v-6.7c0-1.8,1.4-3.2,3.2-3.2h0c1.8,0,3.2,1.4,3.2,3.2v6.7	C73.5,72.2,72.1,73.6,70.3,73.6z"/><path fill="#F93E3E" d="M79.2,73.6L79.2,73.6c-1.8,0-3.2-1.4-3.2-3.2v-6.7c0-1.8,1.4-3.2,3.2-3.2h0c1.8,0,3.2,1.4,3.2,3.2v6.7	C82.4,72.2,80.9,73.6,79.2,73.6z"/><path fill="#C66D6D" d="M74.8,87.5c-4,0-7.3,3.3-7.3,7.3v9.5c0.9,0.1,1.8,0.1,2.7,0.1h9.1c0.9,0,1.8-0.1,2.7-0.1v-9.5	C82.1,90.8,78.8,87.5,74.8,87.5z"/><path fill="#D33131" d="M108.8,63.6c-3.4,0-6.3,2.8-6.3,6.3c0,3.4,2.8,6.3,6.3,6.3h0.1h10.6h27.2c0-6.9-5.6-12.5-12.5-12.5h-12.8	c-0.4,0-0.7,0-1.1,0.1c-0.3,0-0.5-0.1-0.8-0.1H108.8z"/><path fill="#D33131" d="M113.2,65.4c-2.4-2.4-6.4-2.4-8.8,0c-2.4,2.4-2.4,6.4,0,8.8l0.1,0.1l7.5,7.5l19.2,19.2	c4.9-4.9,4.9-12.8,0-17.7l-9.1-9.1c-0.3-0.3-0.5-0.5-0.8-0.7c-0.2-0.2-0.3-0.4-0.5-0.6L113.2,65.4z"/><path fill="#D33131" d="M115,69.8c0-3.4-2.8-6.3-6.3-6.3c-3.4,0-6.3,2.8-6.3,6.3v0.1v10.6v27.2c6.9,0,12.5-5.6,12.5-12.5V82.4	c0-0.4,0-0.7-0.1-1.1c0-0.3,0.1-0.5,0.1-0.8V69.8z"/><path fill="#9E1515" d="M98.3,86.8c2.1,0,3.8-1.7,3.8-3.8v0c0-2.1-1.7-3.8-3.8-3.8H83.8c0.8-5.3,5.3-9.3,10.8-9.3h18.9	c6,0,10.9,4.9,10.9,10.9s-4.9,10.9-10.9,10.9H94.6c-3.8,0-7.1-1.9-9.1-4.8H98.3z"/><path fill="#D33131" d="M40.8,63.6c3.4,0,6.3,2.8,6.3,6.3c0,3.4-2.8,6.3-6.3,6.3h-0.1H30.1H2.9c0-6.9,5.6-12.5,12.5-12.5h12.8	c0.4,0,0.7,0,1.1,0.1c0.3,0,0.5-0.1,0.8-0.1H40.8z"/><path fill="#D33131" d="M36.3,65.4c2.4-2.4,6.4-2.4,8.8,0c2.4,2.4,2.4,6.4,0,8.8l-0.1,0.1l-7.5,7.5l-19.2,19.2	c-4.9-4.9-4.9-12.8,0-17.7l9.1-9.1c0.3-0.3,0.5-0.5,0.8-0.7c0.2-0.2,0.3-0.4,0.5-0.6L36.3,65.4z"/><path fill="#D33131" d="M34.5,69.8c0-3.4,2.8-6.3,6.3-6.3c3.4,0,6.3,2.8,6.3,6.3v0.1v10.6v27.2c-6.9,0-12.5-5.6-12.5-12.5V82.4	c0-0.4,0-0.7,0.1-1.1c0-0.3-0.1-0.5-0.1-0.8V69.8z"/><path fill="#9E1515" d="M51.2,86.8c-2.1,0-3.8-1.7-3.8-3.8v0c0-2.1,1.7-3.8,3.8-3.8h14.5c-0.8-5.3-5.3-9.3-10.8-9.3H36	c-6,0-10.9,4.9-10.9,10.9S30,91.7,36,91.7h18.9c3.8,0,7.1-1.9,9.1-4.8H51.2z"/></svg>