<?xml version="1.0" encoding="UTF-8" standalone="no"?><svg width="143px" height="158px" viewBox="0 0 143 158" version="1.1" xmlns="http://www.w3.org/2000/svg" xmlns:xlink="http://www.w3.org/1999/xlink" xmlns:sketch="http://www.bohemiancoding.com/sketch/ns"><title>duck</title><desc>Created with Sketch.</desc><defs/><g id="Page-1" stroke="none" stroke-width="1" fill="none" fill-rule="evenodd" sketch:type="MSPage"><g id="duck" sketch:type="MSLayerGroup"><path d="M78.523,154.317 L77.189,154.317 C75.186,154.317 73.547,152.678 73.547,150.675 L73.547,127.76 C73.547,125.757 75.186,124.119 77.189,124.119 L78.523,124.119 C80.525,124.119 82.164,125.757 82.164,127.76 L82.164,150.675 C82.164,152.678 80.525,154.317 78.523,154.317" id="Fill-1" fill="#E28100" sketch:type="MSShapeGroup"/><path d="M95.515,152.648 L95.515,153.982 C95.515,155.993 93.885,157.623 91.874,157.623 L71.241,157.623 C69.23,157.623 67.6,155.993 67.6,153.982 L67.6,152.648 C67.6,150.637 69.23,149.007 71.241,149.007 L91.874,149.007 C93.885,149.007 95.515,150.637 95.515,152.648" id="Fill-2" fill="#E28100" sketch:type="MSShapeGroup"/><path d="M61.865,154.317 L60.532,154.317 C58.529,154.317 56.89,152.678 56.89,150.675 L56.89,127.76 C56.89,125.757 58.529,124.119 60.532,124.119 L61.865,124.119 C63.868,124.119 65.507,125.757 65.507,127.76 L65.507,150.675 C65.507,152.678 63.868,154.317 61.865,154.317" id="Fill-3" fill="#FFAA00" sketch:type="MSShapeGroup"/><path d="M78.858,152.648 L78.858,153.982 C78.858,155.993 77.228,157.623 75.217,157.623 L54.584,157.623 C52.573,157.623 50.943,155.993 50.943,153.982 L50.943,152.648 C50.943,150.637 52.573,149.007 54.584,149.007 L75.217,149.007 C77.228,149.007 78.858,150.637 78.858,152.648" id="Fill-4" fill="#FFAA00" sketch:type="MSShapeGroup"/><path d="M101.972,103.011 L101.972,103.011 C90.625,103.011 81.427,93.813 81.427,82.466 L81.427,21.307 C81.427,9.96 90.625,0.762 101.972,0.762 C113.32,0.762 122.519,9.96 122.519,21.307 L122.519,82.466 C122.519,93.813 113.32,103.011 101.972,103.011" id="Fill-5" fill="#74B700" sketch:type="MSShapeGroup"/><path d="M135.198,40.192 L109.162,40.192 C105.192,40.192 101.972,36.973 101.972,33.003 C101.972,29.032 105.192,25.813 109.162,25.813 L135.198,25.813 C139.169,25.813 142.388,29.032 142.388,33.003 C142.388,36.973 139.169,40.192 135.198,40.192" id="Fill-6" fill="#FFAA00" sketch:type="MSShapeGroup"/><path d="M98.636,23.439 C98.636,26.27 96.34,28.566 93.509,28.566 C90.677,28.566 88.381,26.27 88.381,23.439 C88.381,20.607 90.677,18.312 93.509,18.312 C96.34,18.312 98.636,20.607 98.636,23.439" id="Fill-7" fill="#517208" sketch:type="MSShapeGroup"/><path d="M122.353,89.302 C122.353,111.301 104.519,129.135 82.52,129.135 L40.368,129.135 C18.368,129.135 0.535,111.301 0.535,89.302" id="Fill-8" fill="#C4816A" sketch:type="MSShapeGroup"/><path d="M84.169,129.135 L47.399,129.135 C30.2,129.135 16.258,115.192 16.258,97.994 C16.258,83.065 28.361,70.962 43.289,70.962 L122.519,70.962 L122.519,90.785 C122.519,111.965 105.349,129.135 84.169,129.135" id="Fill-9" fill="#C4816A" sketch:type="MSShapeGroup"/><path d="M81.427,62.237 L122.519,62.237 L122.519,70.963 L81.427,70.963 L81.427,62.237 Z" id="Fill-10" fill="#FFFFFF" sketch:type="MSShapeGroup"/><path d="M91.673,85.407 C91.673,89.483 88.369,92.787 84.293,92.787 C80.218,92.787 76.913,89.483 76.913,85.407" id="Fill-11" fill="#A56B5B" sketch:type="MSShapeGroup"/><path d="M116.795,85.407 C116.795,89.483 113.491,92.787 109.416,92.787 C105.34,92.787 102.036,89.483 102.036,85.407" id="Fill-12" fill="#A56B5B" sketch:type="MSShapeGroup"/><path d="M104.234,99.152 C104.234,103.227 100.93,106.531 96.855,106.531 C92.779,106.531 89.475,103.227 89.475,99.152" id="Fill-13" fill="#A56B5B" sketch:type="MSShapeGroup"/></g></g></svg>