<?xml version="1.0" encoding="utf-8"?><!DOCTYPE svg PUBLIC "-//W3C//DTD SVG 1.1//EN" "http://www.w3.org/Graphics/SVG/1.1/DTD/svg11.dtd"><svg version="1.1" id="Layer_1" xmlns="http://www.w3.org/2000/svg" xmlns:xlink="http://www.w3.org/1999/xlink" x="0px" y="0px" width="150px" height="150px" viewBox="0 0 150 150" enable-background="new 0 0 150 150" xml:space="preserve"><path fill="#282828" d="M74.7,72.4L74.7,72.4c-6.6,0-11.9-5.3-11.9-11.9v-2.1c0-6.6,5.3-11.9,11.9-11.9h0c6.6,0,11.9,5.3,11.9,11.9	v2.1C86.6,67.1,81.3,72.4,74.7,72.4z"/><circle fill="#282828" cx="74.7" cy="87.2" r="27.8"/><path fill="#282828" d="M95.5,137.8L95.5,137.8c-2.7,0-4.9-2.2-4.9-4.9V89.5c0-2.7,2.2-4.9,4.9-4.9h0c2.7,0,4.9,2.2,4.9,4.9v43.4	C100.4,135.6,98.2,137.8,95.5,137.8z"/><path fill="#282828" d="M53.9,137.8L53.9,137.8c-2.7,0-4.9-2.2-4.9-4.9V89.5c0-2.7,2.2-4.9,4.9-4.9h0c2.7,0,4.9,2.2,4.9,4.9v43.4	C58.8,135.6,56.6,137.8,53.9,137.8z"/><path fill="#282828" d="M65.1,59.5L65.1,59.5c-2.7,0-4.9-2.2-4.9-4.9V18.4c0-2.7,2.2-4.9,4.9-4.9h0c2.7,0,4.9,2.2,4.9,4.9v36.2	C70,57.3,67.8,59.5,65.1,59.5z"/><path fill="#282828" d="M84.3,59.5L84.3,59.5c-2.7,0-4.9-2.2-4.9-4.9V18.4c0-2.7,2.2-4.9,4.9-4.9h0c2.7,0,4.9,2.2,4.9,4.9v36.2	C89.2,57.3,87,59.5,84.3,59.5z"/><path fill="#282828" d="M107.3,55.5L107.3,55.5c-2.7,0-4.9-2.2-4.9-4.9V29.1c0-2.7,2.2-4.9,4.9-4.9h0c2.7,0,4.9,2.2,4.9,4.9v21.5	C112.3,53.3,110,55.5,107.3,55.5z"/><path fill="#282828" d="M74.2,67.2L74.2,67.2c-1.2-2.4-0.2-5.4,2.2-6.6l28.7-14.3c2.4-1.2,5.4-0.2,6.6,2.2v0	c1.2,2.4,0.2,5.4-2.2,6.6L80.9,69.4C78.4,70.6,75.5,69.6,74.2,67.2z"/><path fill="#282828" d="M118,116.3L118,116.3c2.7,0,4.9-2.2,4.9-4.9V82.1c0-2.7-2.2-4.9-4.9-4.9h0c-2.7,0-4.9,2.2-4.9,4.9v29.3	C113.1,114.1,115.3,116.3,118,116.3z"/><path fill="#282828" d="M74.2,55.1L74.2,55.1c-1.4,2.3-0.7,5.4,1.6,6.8l39.6,24.4c2.3,1.4,5.4,0.7,6.8-1.6l0,0	c1.4-2.3,0.7-5.4-1.6-6.8L81,53.5C78.7,52.1,75.7,52.8,74.2,55.1z"/><path fill="#282828" d="M42,55.5L42,55.5c2.7,0,4.9-2.2,4.9-4.9V29.1c0-2.7-2.2-4.9-4.9-4.9h0c-2.7,0-4.9,2.2-4.9,4.9v21.5	C37.1,53.3,39.3,55.5,42,55.5z"/><path fill="#282828" d="M75.1,67.2L75.1,67.2c1.2-2.4,0.2-5.4-2.2-6.6L44.2,46.2c-2.4-1.2-5.4-0.2-6.6,2.2l0,0	c-1.2,2.4-0.2,5.4,2.2,6.6l28.7,14.3C70.9,70.6,73.9,69.6,75.1,67.2z"/><path fill="#282828" d="M31.4,116.3L31.4,116.3c-2.7,0-4.9-2.2-4.9-4.9V82.1c0-2.7,2.2-4.9,4.9-4.9h0c2.7,0,4.9,2.2,4.9,4.9v29.3	C36.3,114.1,34.1,116.3,31.4,116.3z"/><path fill="#282828" d="M75.2,55.1L75.2,55.1c1.4,2.3,0.7,5.4-1.6,6.8L34,86.3c-2.3,1.4-5.4,0.7-6.8-1.6l0,0	c-1.4-2.3-0.7-5.4,1.6-6.8l39.6-24.4C70.7,52.1,73.7,52.8,75.2,55.1z"/><polygon fill="#D33131" points="82.6,75.4 66.8,75.4 72.1,84.6 66.8,93.8 82.6,93.8 77.3,84.6"/></svg>