<?xml version="1.0" encoding="UTF-8" standalone="no"?><svg width="182px" height="125px" viewBox="0 0 182 125" version="1.1" xmlns="http://www.w3.org/2000/svg" xmlns:xlink="http://www.w3.org/1999/xlink" xmlns:sketch="http://www.bohemiancoding.com/sketch/ns"><title>elephant</title><desc>Created with Sketch.</desc><defs/><g id="Page-1" stroke="none" stroke-width="1" fill="none" fill-rule="evenodd" sketch:type="MSPage"><g id="elephant" sketch:type="MSLayerGroup"><path d="M80.267,124.5 L99.261,124.5 C101.71,124.5 103.695,122.515 103.695,120.066 L103.695,81.768 C103.695,79.319 101.71,77.333 99.261,77.333 L80.267,77.333 C77.818,77.333 75.833,79.319 75.833,81.768 L75.833,120.066 C75.833,122.515 77.818,124.5 80.267,124.5" id="Fill-1" fill="#999999" sketch:type="MSShapeGroup"/><path d="M99.598,92.743 L4.617,92.743 C2.354,92.743 0.519,90.908 0.519,88.645 L0.519,56.885 C0.519,28.394 23.616,5.297 52.107,5.297 C80.599,5.297 103.695,28.394 103.695,56.885 L103.695,88.645 C103.695,90.908 101.861,92.743 99.598,92.743" id="Fill-2" fill="#999999" sketch:type="MSShapeGroup"/><path d="M112.6,77.333 L45.837,77.333 C38.051,77.333 31.738,71.021 31.738,63.234 L31.738,26.568 C31.738,14.821 41.262,5.297 53.009,5.297 L96.495,5.297 C113.177,5.297 126.699,18.82 126.699,35.501 L126.699,63.234 C126.699,71.021 120.387,77.333 112.6,77.333" id="Fill-3" fill="#999999" sketch:type="MSShapeGroup"/><path d="M62.868,99.167 L41.346,99.167 C26.492,99.167 14.45,87.125 14.45,72.271 C14.45,57.417 26.492,45.375 41.346,45.375 L62.868,45.375 C77.723,45.375 89.764,57.417 89.764,72.271 C89.764,87.125 77.723,99.167 62.868,99.167" id="Fill-4" fill="#999999" sketch:type="MSShapeGroup"/><path d="M172.401,66.582 L172.401,73.91 C172.401,82.153 165.718,88.836 157.475,88.836 C149.231,88.836 142.548,82.153 142.548,73.91 L142.548,35.582" id="Stroke-5" stroke="#999999" stroke-width="18" stroke-linecap="round" stroke-linejoin="round" sketch:type="MSShapeGroup"/><path d="M4.954,124.5 L23.947,124.5 C26.395,124.5 28.381,122.515 28.381,120.066 L28.381,81.768 C28.381,79.319 26.395,77.333 23.947,77.333 L4.954,77.333 C2.505,77.333 0.519,79.319 0.519,81.768 L0.519,120.066 C0.519,122.515 2.505,124.5 4.954,124.5" id="Fill-6" fill="#999999" sketch:type="MSShapeGroup"/><path d="M129.245,77.333 L90.018,77.333 C82.184,77.333 75.833,70.983 75.833,63.149 L75.833,19.482 C75.833,11.648 82.184,5.297 90.018,5.297 L129.245,5.297 C137.078,5.297 143.429,11.648 143.429,19.482 L143.429,63.149 C143.429,70.983 137.078,77.333 129.245,77.333" id="Fill-7" fill="#999999" sketch:type="MSShapeGroup"/><path d="M142.52,96.27 L142.52,96.27 C139.648,99.142 134.992,99.142 132.12,96.27 L109.002,73.153 C106.13,70.281 106.13,65.624 109.002,62.752 C111.875,59.88 116.531,59.88 119.403,62.752 L142.52,85.869 C145.392,88.741 145.392,93.398 142.52,96.27" id="Fill-8" fill="#FFFFFF" sketch:type="MSShapeGroup"/><path d="M133.602,50.916 C133.602,53.504 131.504,55.601 128.916,55.601 C126.329,55.601 124.231,53.504 124.231,50.916 C124.231,48.329 126.329,46.231 128.916,46.231 C131.504,46.231 133.602,48.329 133.602,50.916" id="Fill-9" fill="#686868" sketch:type="MSShapeGroup"/><path d="M131.41,73.821 L116.154,89.076 C115.212,90.018 113.685,90.018 112.743,89.076 L91.538,67.872 C90.597,66.93 90.597,65.403 91.538,64.461 L106.794,49.205 C107.736,48.264 109.264,48.264 110.205,49.205 L131.41,70.41 C132.352,71.352 132.352,72.879 131.41,73.821" id="Fill-10" fill="#999999" sketch:type="MSShapeGroup"/><path d="M86.927,58.828 L56.471,23.909 C48.625,14.914 54.947,0.86 66.883,0.762 L97.338,0.514 C105.096,0.451 111.419,6.722 111.419,14.481 L111.419,49.648 C111.419,62.555 95.411,68.556 86.927,58.828" id="Fill-11" fill="#848484" sketch:type="MSShapeGroup"/><path d="M151.554,47.499 L144.467,47.499 C142.483,47.499 140.875,45.891 140.875,43.907 C140.875,41.923 142.483,40.315 144.467,40.315 L151.554,40.315" id="Fill-12" fill="#848484" sketch:type="MSShapeGroup"/><path d="M151.554,60.499 L144.467,60.499 C142.483,60.499 140.875,58.891 140.875,56.907 C140.875,54.923 142.483,53.315 144.467,53.315 L151.554,53.315" id="Fill-13" fill="#848484" sketch:type="MSShapeGroup"/><path d="M151.554,73.499 L144.467,73.499 C142.483,73.499 140.875,71.891 140.875,69.907 C140.875,67.923 142.483,66.315 144.467,66.315 L151.554,66.315" id="Fill-14" fill="#848484" sketch:type="MSShapeGroup"/><path d="M87.357,124.5 L87.357,121.363 C87.357,118.355 89.795,115.917 92.803,115.917 C95.811,115.917 98.249,118.355 98.249,121.363 L98.249,124.5" id="Fill-15" fill="#C6C6C6" sketch:type="MSShapeGroup"/><path d="M103.695,120.066 L103.695,115.917 C100.688,115.917 98.249,118.355 98.249,121.363 L98.249,124.5 L99.261,124.5 C101.71,124.5 103.695,122.515 103.695,120.066" id="Fill-16" fill="#C6C6C6" sketch:type="MSShapeGroup"/><path d="M12.043,124.5 L12.043,121.363 C12.043,118.355 14.481,115.917 17.489,115.917 C20.497,115.917 22.935,118.355 22.935,121.363 L22.935,124.5" id="Fill-17" fill="#C6C6C6" sketch:type="MSShapeGroup"/><path d="M28.381,120.066 L28.381,115.917 C25.373,115.917 22.935,118.355 22.935,121.363 L22.935,124.5 L23.946,124.5 C26.395,124.5 28.381,122.515 28.381,120.066" id="Fill-18" fill="#C6C6C6" sketch:type="MSShapeGroup"/><path d="M103.695,106.351 L96.608,106.351 C94.625,106.351 93.016,104.743 93.016,102.759 C93.016,100.775 94.625,99.167 96.608,99.167 L103.695,99.167" id="Fill-19" fill="#848484" sketch:type="MSShapeGroup"/><path d="M28.356,106.351 L21.269,106.351 C19.285,106.351 17.677,104.743 17.677,102.759 C17.677,100.775 19.285,99.167 21.269,99.167 L28.356,99.167" id="Fill-20" fill="#848484" sketch:type="MSShapeGroup"/></g></g></svg>