<?xml version="1.0" encoding="utf-8"?><!DOCTYPE svg PUBLIC "-//W3C//DTD SVG 1.1//EN" "http://www.w3.org/Graphics/SVG/1.1/DTD/svg11.dtd"><svg version="1.1" xmlns="http://www.w3.org/2000/svg" xmlns:xlink="http://www.w3.org/1999/xlink" x="0px" y="0px" width="150px" height="150px" viewBox="0 0 150 150" enable-background="new 0 0 150 150" xml:space="preserve"><g id="Layer_2" display="none"><rect x="-1190" y="-1527.3" display="inline" fill="#F0F0F0" width="1680" height="1677.3"/></g><g id="Layer_1"/><g id="Layer_3"><path fill="#353535" d="M26.5,108.7c5.4-3.4,10.1-10.4,13.4-15.8c4.1-6.6,7.7-13.3,12.6-19.4c2.5-3.2,8-2.7,10.6,0 c0.8,0.8,1.3,1.7,1.7,2.6l27.3-27.3c-1.9-1-3.7-2.2-5.6-3.2c-0.1,0-0.1-0.1-0.2-0.1C85,46.1,83.3,46,81.5,45 c-3.5-2-6.9-4.1-10.2-6.4c-0.5-0.3-1-0.5-1.5-0.8l-47,47c-9.1,9.1-9.1,24.1,0,33.2h0l0.7-0.7C22.5,114.4,23.1,110.9,26.5,108.7z"/><path fill="#FFFFFF" d="M23,117.9l68.4-68.4c-0.8-0.5-1.6-0.9-2.4-1.4C89,48,88.9,48,88.9,48c-1.4,0.6-3.1,0.6-4.8-0.5 c-3.5-2-6.9-4.1-10.2-6.4c-0.5-0.3-1-0.5-1.5-0.8l-47,47C17.1,95.6,16.3,108.7,23,117.9z"/><path fill="#353535" d="M127.2,84.8l-47-47c-0.5,0.3-1,0.5-1.5,0.8C75.4,40.9,72,43,68.5,45c-1.8,1-3.5,1.1-4.8,0.5 c-0.1,0-0.1,0.1-0.2,0.1c-1.8,1.1-3.7,2.2-5.6,3.2l36.5,36.5c2.6-3,7.2-4.2,10.6-0.4c3.8,4.1,7.3,8.5,10.8,12.9 c3,3.7,5.8,8.1,9.5,11.1c2.5,2,2.7,5.9,1.4,8.7l0.5,0.5h0C136.3,108.9,136.3,94,127.2,84.8z"/><path fill="#FFFFFF" d="M127,117.9L58.6,49.5c0.8-0.5,1.6-0.9,2.4-1.4c0.1,0,0.1-0.1,0.2-0.1c1.4,0.6,3.1,0.6,4.8-0.5 c3.5-2,6.9-4.1,10.2-6.4c0.5-0.3,1-0.5,1.5-0.8l47,47C132.9,95.6,133.7,108.7,127,117.9z"/><path fill="#353535" d="M109,16.2H91.4c-4.1-4.4-9.9-7.2-16.4-7.2c-12.3,0-22.4,10.1-22.4,22.4v38.6c0,12.3,10.1,22.4,22.4,22.4 s22.4-10.1,22.4-22.4v-25V31.7l0-0.3l0,0.1c0-0.1,0-0.2,0-0.3l0-0.5c0.4-3.1,3-5.5,6.2-5.5H118C118,20.3,113.9,16.2,109,16.2z M97.4,26.1v-0.8V26.1C97.4,26.1,97.4,26.1,97.4,26.1z"/><path fill="#353535" d="M75.5,136.7h-1.9c-17.6,0-32.1-14.4-32.1-32.1V68.8c0-17.6,14.4-32.1,32.1-32.1h1.9 c17.6,0,32.1,14.4,32.1,32.1v35.9C107.6,122.3,93.2,136.7,75.5,136.7z"/><linearGradient id="SVGID_1_" gradientUnits="userSpaceOnUse" x1="74.5641" y1="42.0304" x2="74.5641" y2="137.4243"><stop offset="0" style="stop-color:#FF8400"/><stop offset="0.2408" style="stop-color:#FFF06D"/><stop offset="0.6641" style="stop-color:#FFFEF6"/><stop offset="0.7548" style="stop-color:#FFFFFF"/></linearGradient><path fill="url(#SVGID_1_)" d="M74.6,137.4L74.6,137.4c-16.3,0-29.7-13.4-29.7-29.7v-36C44.9,55.4,58.2,42,74.6,42h0 c16.3,0,29.7,13.4,29.7,29.7v36C104.3,124.1,90.9,137.4,74.6,137.4z"/><circle fill="#161616" cx="82.4" cy="21.2" r="3.8"/><path fill="#C67B63" d="M64.7,140.5H52.7c-2.5,0-4.5-2-4.5-4.5v0c0-2.5,2-4.5,4.5-4.5h11.9c2.5,0,4.5,2,4.5,4.5v0 C69.1,138.4,67.1,140.5,64.7,140.5z"/><path fill="#C67B63" d="M96.5,140.5H84.6c-2.5,0-4.5-2-4.5-4.5v0c0-2.5,2-4.5,4.5-4.5h11.9c2.5,0,4.5,2,4.5,4.5v0 C101,138.4,99,140.5,96.5,140.5z"/><path fill="#FF7F00" d="M65,42l10.4,0c-5.6,0-10.1-4.4-10.4-9.9v-2.5h0c0-3.4-2.8-6.2-6.2-6.2s-6.2,2.8-6.2,6.2 C52.6,36.5,58.1,42,65,42L65,42L65,42C65,42,65,42,65,42L65,42z"/></g></svg>