<?xml version="1.0" encoding="utf-8"?><!DOCTYPE svg PUBLIC "-//W3C//DTD SVG 1.1//EN" "http://www.w3.org/Graphics/SVG/1.1/DTD/svg11.dtd"><svg version="1.1" id="Layer_1" xmlns="http://www.w3.org/2000/svg" xmlns:xlink="http://www.w3.org/1999/xlink" x="0px" y="0px" width="150px" height="150px" viewBox="0 0 150 150" enable-background="new 0 0 150 150" xml:space="preserve"><ellipse fill="#FFFFFF" cx="76.4" cy="68.6" rx="47.2" ry="58.5"/><path fill="#C17134" d="M125.5,88.6c1.2,0,2.1,1,2.1,2.2c-1.2,27.9-24.1,50.1-52.2,50.1c-27.8,0-50.5-21.6-52.2-49	c-0.1-1.8,1.4-3.3,3.2-3.3H125.5z"/><line fill="none" stroke="#AD6331" stroke-width="7.3545" stroke-linecap="round" stroke-linejoin="round" stroke-miterlimit="10" x1="20.2" y1="102.1" x2="47.3" y2="102.1"/><line fill="none" stroke="#AD6331" stroke-width="7.3545" stroke-linecap="round" stroke-linejoin="round" stroke-miterlimit="10" x1="62.2" y1="111.7" x2="91.4" y2="111.7"/><line fill="none" stroke="#AD6331" stroke-width="7.3545" stroke-linecap="round" stroke-linejoin="round" stroke-miterlimit="10" x1="110.7" y1="97" x2="128.2" y2="97"/><line fill="none" stroke="#AD6331" stroke-width="7.3545" stroke-linecap="round" stroke-linejoin="round" stroke-miterlimit="10" x1="101.1" y1="122.7" x2="120.8" y2="122.7"/><line fill="none" stroke="#AD6331" stroke-width="7.3545" stroke-linecap="round" stroke-linejoin="round" stroke-miterlimit="10" x1="41.6" y1="130.1" x2="61.3" y2="130.1"/><circle fill="#FFEABB" cx="55.9" cy="51" r="12.7"/><circle fill="#FFEABB" cx="97.6" cy="69.3" r="9.3"/><circle fill="#FFEABB" cx="73.7" cy="29.8" r="6.8"/></svg>