<?xml version="1.0" encoding="utf-8"?><!DOCTYPE svg PUBLIC "-//W3C//DTD SVG 1.1//EN" "http://www.w3.org/Graphics/SVG/1.1/DTD/svg11.dtd"><svg version="1.1" id="Layer_1" xmlns="http://www.w3.org/2000/svg" xmlns:xlink="http://www.w3.org/1999/xlink" x="0px" y="0px" width="150px" height="150px" viewBox="0 0 150 150" enable-background="new 0 0 150 150" xml:space="preserve"><path fill="#00BDFF" d="M82.9,28.2c4.9,0,9.6,0.9,12.2,1.8c2.8,0.9,3.9,3,2.8,6l-1.4,3.8c-1,3.2-2.8,3.6-5.6,3.1	c-1.9-0.6-4.1-1.1-7.3-1.1C70.6,41.7,64,52.5,62,64h0.2c2.6-3.3,8.4-6.4,16.3-6.4c15.4,0,25,11.8,25,25.9	c0,15.2-10.6,28.1-26.6,28.1c-16.8,0-31.2-14.1-31.2-37.9C45.7,51.8,58,28.2,82.9,28.2z M76.9,98.2c7.4,0,12.2-5.8,12.2-13.8	c0-8.1-5-14.8-15.5-14.8c-7.2,0-12.6,3.8-12.6,9.4C61,87.3,67.7,98.2,76.9,98.2z"/></svg>