<?xml version="1.0" encoding="utf-8"?><!DOCTYPE svg PUBLIC "-//W3C//DTD SVG 1.1//EN" "http://www.w3.org/Graphics/SVG/1.1/DTD/svg11.dtd"><svg version="1.1" id="Layer_1" xmlns="http://www.w3.org/2000/svg" xmlns:xlink="http://www.w3.org/1999/xlink" x="0px" y="0px" width="150px" height="150px" viewBox="0 0 150 150" enable-background="new 0 0 150 150" xml:space="preserve"><path fill="#1CB0F6" d="M73.3,31.4L73.3,31.4c-26.6,0-48.4,21.8-48.4,48.4v53.9c0,2.5,2.1,4.6,4.6,4.6H117c2.5,0,4.6-2.1,4.6-4.6	V79.8C121.6,53.2,99.9,31.4,73.3,31.4z"/><rect x="37" y="12.1" fill="#1CB0F6" width="22" height="49.3"/><path fill="none" stroke="#874F29" stroke-width="4.5128" stroke-miterlimit="10" d="M73.2,17.9c-6.3,0-11.4,5.1-11.4,11.4v0	c0,6.3,5.1,11.4,11.4,11.4s11.4-5.1,11.4-11.4v0C84.7,23,79.5,17.9,73.2,17.9z"/><rect x="87.5" y="12.1" fill="#1CB0F6" width="22" height="49.3"/><path fill="#1FC0FF" d="M107.8,29.3H39.1c-3.3,0-6,2.7-6,6v36.1c0,3.3,2.7,6,6,6h68.7c3.3,0,6-2.7,6-6V35.3	C113.8,32,111.1,29.3,107.8,29.3z"/><path fill="#1FC0FF" d="M101.9,92.2H44.6c-3.7,0-6.8,3-6.8,6.8v17c0,3.7,3,6.8,6.8,6.8h57.3c3.7,0,6.8-3,6.8-6.8v-17	C108.6,95.2,105.6,92.2,101.9,92.2z"/><path fill="#FFFFFF" d="M103.9,108.1h-61c-0.7,0-1.2-0.5-1.2-1.2v0c0-0.7,0.5-1.2,1.2-1.2h61c0.7,0,1.2,0.5,1.2,1.2v0	C105.1,107.6,104.5,108.1,103.9,108.1z"/><path fill="#FFFFFF" d="M46.6,107.2c-2,0-3.6,1.6-3.6,3.6v5.4c0,2,1.6,3.6,3.6,3.6c2,0,3.6-1.6,3.6-3.6v-5.4	C50.2,108.8,48.5,107.2,46.6,107.2z M44.9,110.3c0-0.9,0.8-1.7,1.7-1.7s1.7,0.8,1.7,1.7v0c0,0.9-0.8,1.7-1.7,1.7	S44.9,111.3,44.9,110.3L44.9,110.3z M48.5,116.3c0,1.1-0.9,2-2,2s-2-0.9-2-2V115c0-1.1,0.9-2,2-2s2,0.9,2,2V116.3z"/><g><path fill="#874F29" d="M44.7,81.5c0,2.8,2.3,5.1,5.1,5.1c2.8,0,5.1-2.3,5.1-5.1V69.2H44.7V81.5z"/><path fill="#874F29" d="M90.5,69.2v12.3c0,2.8,2.3,5.1,5.1,5.1c2.8,0,5.1-2.3,5.1-5.1V69.2H90.5z"/></g><circle fill="#FFFFFF" cx="95.6" cy="81.4" r="2.8"/><circle fill="#FFFFFF" cx="49.8" cy="81.4" r="2.8"/><path fill="#874F29" d="M24.9,129.8v3.9c0,2.5,2.1,4.6,4.6,4.6H117c2.5,0,4.6-2.1,4.6-4.6v-3.9H24.9z"/></svg>