<?xml version="1.0" encoding="utf-8"?><!DOCTYPE svg PUBLIC "-//W3C//DTD SVG 1.1//EN" "http://www.w3.org/Graphics/SVG/1.1/DTD/svg11.dtd"><svg version="1.1" xmlns="http://www.w3.org/2000/svg" xmlns:xlink="http://www.w3.org/1999/xlink" x="0px" y="0px" width="150px" height="150px" viewBox="0 0 150 150" enable-background="new 0 0 150 150" xml:space="preserve"><g id="Layer_2" display="none"><rect x="-1530" y="-1017.3" display="inline" fill="#F0F0F0" width="1680" height="1677.3"/></g><g id="Layer_1"/><g id="Layer_3"><path fill="#FFFFFF" d="M116.8,106.1H97.5c-4.3,0-7.8-3.5-7.8-7.8v0c0-4.3,3.5-7.8,7.8-7.8h19.4c4.3,0,7.8,3.5,7.8,7.8v0 C124.6,102.6,121.1,106.1,116.8,106.1z"/><rect x="19.2" y="103.9" fill="#FF8DD6" width="110.8" height="19.5"/><line fill="none" stroke="#FFFFFF" stroke-width="2.1687" stroke-linecap="round" stroke-linejoin="round" stroke-miterlimit="10" x1="56" y1="29.3" x2="56" y2="11.3"/><rect x="10.7" y="59.9" fill="#8E4819" width="127.1" height="10.1"/><rect x="15.2" y="48.1" fill="#8E4819" width="10.1" height="78.3"/><rect x="36.9" y="62.2" fill="#8E4819" width="10.1" height="64.2"/><rect x="58.6" y="62.2" fill="#8E4819" width="10.1" height="64.2"/><rect x="80.3" y="62.2" fill="#8E4819" width="10.1" height="64.2"/><g><path fill="#C1C1C1" d="M31.8,63.3c-1.2,0-2.2-1-2.2-2.2V26.9c0-9.2,7.5-16.6,16.6-16.6H55c1.2,0,2.2,1,2.2,2.2s-1,2.2-2.2,2.2 h-8.7c-6.8,0-12.3,5.5-12.3,12.3v34.3C34,62.4,33,63.3,31.8,63.3z"/></g><path fill="#C1C1C1" d="M70.5,36.2L40.7,26.1c-1-0.3-1.5-1.4-1.2-2.5l0,0c0.3-1,1.4-1.5,2.5-1.2l29.9,10.2c1,0.3,1.5,1.4,1.2,2.5v0 C72.7,36,71.6,36.6,70.5,36.2z"/><path fill="#C1C1C1" d="M71.5,24.8l-29,12.5c-1,0.4-2.1,0-2.5-1v0c-0.4-1,0-2.1,1-2.5l29-12.5c1-0.4,2.1,0,2.5,1v0 C72.9,23.3,72.5,24.4,71.5,24.8z"/><circle fill="#85D69A" cx="68.6" cy="44.7" r="4.6"/><rect x="41.2" y="41.5" transform="matrix(0.7071 -0.7071 0.7071 0.7071 -18.9355 45.2341)" fill="#61C3FF" width="7.9" height="7.9"/><rect x="102" y="62.2" fill="#8E4819" width="10.1" height="64.2"/><rect x="123.7" y="48.1" fill="#8E4819" width="10.1" height="78.3"/><rect x="10.7" y="118.4" fill="#8E4819" width="127.1" height="10.1"/><path fill="#723A15" d="M32.5,138.8H27c-0.9,0-1.7-0.8-1.7-1.7v-8.6h8.9v8.6C34.2,138.1,33.5,138.8,32.5,138.8z"/><path fill="#723A15" d="M121.5,138.8h-5.5c-0.9,0-1.7-0.7-1.7-1.7v-8.6h8.9v8.6C123.1,138.1,122.4,138.8,121.5,138.8z"/></g></svg>