<?xml version="1.0" encoding="utf-8"?><!DOCTYPE svg PUBLIC "-//W3C//DTD SVG 1.1//EN" "http://www.w3.org/Graphics/SVG/1.1/DTD/svg11.dtd"><svg version="1.1" id="Layer_1" xmlns="http://www.w3.org/2000/svg" xmlns:xlink="http://www.w3.org/1999/xlink" x="0px" y="0px" width="150px" height="150px" viewBox="0 0 150 150" enable-background="new 0 0 150 150" xml:space="preserve"><g><path fill="#FFCE00" d="M20.8,128.8c-2.9,0-5.5-1.5-7-4c-1.5-2.5-1.5-5.5,0-8.1l54-93.5c1.5-2.5,4.1-4,7-4c2.9,0,5.5,1.5,7,4 l54,93.5c1.5,2.5,1.5,5.5,0,8.1c-1.5,2.5-4.1,4-7,4H20.8z"/><path fill="#383838" d="M74.8,22.9c0.8,0,2.6,0.2,3.7,2.2l54,93.5c1.1,2,0.4,3.7,0,4.3c-0.4,0.6-1.5,2.2-3.7,2.2h-108 c-2.3,0-3.4-1.5-3.7-2.2s-1.1-2.4,0-4.3l54-93.5C72.2,23.1,74.1,22.9,74.8,22.9 M74.8,15.4c-4,0-8,2-10.2,5.9l-54,93.5 c-4.5,7.9,1.1,17.7,10.2,17.7h108c9.1,0,14.8-9.8,10.2-17.7l-54-93.5C82.8,17.4,78.8,15.4,74.8,15.4L74.8,15.4z"/></g><path fill="#383838" d="M97.9,81.6c0-12.7-10.4-23.1-23.1-23.1h0c-12.7,0-23.1,10.4-23.1,23.1v0c0,4.6,1.4,8.9,3.8,12.6	c-2.2,1-3.8,3.2-3.8,5.7c0,3.4,2.8,6.3,6.3,6.3h2.1v3.6c0,1.6,1.3,2.9,2.9,2.9h2.9c1.6,0,2.9-1.3,2.9-2.9v-3.6h1.7v3.6	c0,1.6,1.3,2.9,2.9,2.9h2.9c1.6,0,2.9-1.3,2.9-2.9v-3.6h1.7v3.6c0,1.6,1.3,2.9,2.9,2.9h2.9c1.6,0,2.9-1.3,2.9-2.9v-3.6h2.1	c3.4,0,6.3-2.8,6.3-6.3c0-2.6-1.6-4.8-3.8-5.7C96.5,90.6,97.9,86.3,97.9,81.6L97.9,81.6z M64,92.8c-3.1,0-5.6-2.5-5.6-5.6	s2.5-5.6,5.6-5.6s5.6,2.5,5.6,5.6S67.1,92.8,64,92.8z M78.1,96.4h-6.6c-0.6,0-1-0.6-0.7-1.2l3.3-5.7c0.3-0.5,1-0.5,1.3,0l3.3,5.7	C79.1,95.8,78.7,96.4,78.1,96.4z M85.7,92.8c-3.1,0-5.6-2.5-5.6-5.6s2.5-5.6,5.6-5.6c3.1,0,5.6,2.5,5.6,5.6S88.8,92.8,85.7,92.8z"/></svg>