<?xml version="1.0" encoding="utf-8"?><!DOCTYPE svg PUBLIC "-//W3C//DTD SVG 1.1//EN" "http://www.w3.org/Graphics/SVG/1.1/DTD/svg11.dtd"><svg version="1.1" id="Layer_1" xmlns="http://www.w3.org/2000/svg" xmlns:xlink="http://www.w3.org/1999/xlink" x="0px" y="0px" width="150px" height="150px" viewBox="0 0 150 150" enable-background="new 0 0 150 150" xml:space="preserve"><path fill="#6D392B" d="M120.7,49.4H54.4c-3.8,0-6.9-3.1-6.9-6.9v0c0-3.8,3.1-6.9,6.9-6.9h66.3c3.8,0,6.9,3.1,6.9,6.9v0	C127.6,46.3,124.5,49.4,120.7,49.4z"/><rect x="54.2" y="28.8" fill="#BF7358" width="66" height="13.5"/><path fill="#1E1E1E" d="M44.6,148v-7.3c0-23.5,19-42.5,42.5-42.5h0c23.5,0,42.5,19,42.5,42.5v7.3"/><path fill="#D33131" d="M59.9,148h54.5v-41.7c-7.4-6.2-16.9-10-27.3-10l0,0c-10.3,0-19.8,3.7-27.1,9.8V148z"/><rect x="74.6" y="99.1" fill="#1E1E1E" width="24.8" height="48.9"/><path fill="#B7674E" d="M87,74.5c-6.8,0-12.4,5.4-12.4,12.1V101c0,6.6,5.6,12.1,12.4,12.1s12.4-5.4,12.4-12.1V86.6	C99.4,79.9,93.8,74.5,87,74.5z"/><g><ellipse fill="#B7674E" cx="54.2" cy="57.1" rx="8.2" ry="7.7"/></g><g><ellipse fill="#B7674E" cx="120.3" cy="57.1" rx="8.2" ry="7.7"/></g><g><path fill="#BF7358" d="M87.3,97.8L87.3,97.8c-18.2,0-33-14.8-33-33V43.3c0-18.2,14.8-33,33-33h0c18.2,0,33,14.8,33,33v21.5 C120.3,83,105.5,97.8,87.3,97.8z"/></g><g><path fill="#933634" d="M104.6,65.3c0,9.5-7.7,17.3-17.3,17.3l0,0c-9.5,0-17.3-7.7-17.3-17.3H104.6z"/></g><g><path fill="#FFFFFF" d="M71,70.8h32.7c0.6-1.7,0.9-3.6,0.9-5.6H70.1C70.1,67.2,70.4,69.1,71,70.8z"/></g><g><path fill="#AF3F3F" d="M97,79.6c-2.3-2.7-5.8-4.4-9.6-4.4l0,0c-3.9,0-7.3,1.7-9.6,4.5c2.7,1.8,6,2.9,9.6,2.9 C90.9,82.5,94.2,81.4,97,79.6z"/></g><g><circle fill="#A85F48" cx="69.3" cy="49.4" r="4.1"/></g><g><circle fill="#A85F48" cx="105.2" cy="49.4" r="4.1"/></g><g><rect x="81.8" y="45.3" fill="#B25C4B" width="10.9" height="14.9"/></g><polygon fill="#1E1E1E" points="120.3,35.9 87.3,40.6 54.2,35.9 54.2,8.9 120.3,8.9"/><path fill="#1E1E1E" d="M127.9,8.9l-81.3,0c-1.3,0-2.3-1-2.3-2.3v0c0-1.3,1-2.3,2.3-2.3h81.3c1.3,0,2.3,1,2.3,2.3v0	C130.2,7.8,129.2,8.9,127.9,8.9z"/><rect x="54.2" y="8.9" width="66" height="8.2"/><path fill="#FFCE00" d="M114,43.9L114,43.9c-1.3,0-2.4-1.1-2.4-2.4V4.3c0-1.3,1.1-2.4,2.4-2.4h0c1.3,0,2.4,1.1,2.4,2.4v37.3	C116.4,42.8,115.3,43.9,114,43.9z"/><rect x="27.6" y="117.5" fill="#E08070" width="24.7" height="30.5"/><rect x="27.6" y="138.8" fill="#1E1E1E" width="25.1" height="9.2"/><rect x="27.5" y="63.7" fill="#FFFFFF" width="14.6" height="80.4"/><rect x="27.5" y="129.6" fill="#FFFFFF" width="24.8" height="9.2"/><path fill="#E8957C" d="M41.5,136.1H27.7c-2.8,0-5-2.3-5-5v0c0-2.8,2.3-5,5-5h13.7c2.8,0,5,2.3,5,5v0	C46.5,133.9,44.2,136.1,41.5,136.1z"/><path fill="#E08070" d="M46.2,123.6H46c-3.4,0-6.1-2.8-6.1-6.1v-0.1c0-3.4,2.8-6.1,6.1-6.1h0.1c3.4,0,6.1,2.8,6.1,6.1v0.1	C52.3,120.9,49.6,123.6,46.2,123.6z"/><path fill="#E8957C" d="M41.5,117.9H27.7c-2.8,0-5-2.3-5-5v0c0-2.8,2.3-5,5-5h13.7c2.8,0,5,2.3,5,5v0	C46.5,115.7,44.2,117.9,41.5,117.9z"/><path fill="#E8957C" d="M41.5,127H27.7c-2.8,0-5-2.3-5-5v0c0-2.8,2.3-5,5-5h13.7c2.8,0,5,2.3,5,5v0C46.5,124.8,44.2,127,41.5,127z"/><path fill="#FFCE00" d="M118.4,55.9h-8.8v-7.6c0-2.4,2-4.4,4.4-4.4h0c2.4,0,4.4,2,4.4,4.4V55.9z"/><polygon fill="#D33131" points="19,107.1 42.1,107.1 42.1,97.8 19,97.8 21.8,102.6"/></svg>