<?xml version="1.0" encoding="utf-8"?><!DOCTYPE svg PUBLIC "-//W3C//DTD SVG 1.1//EN" "http://www.w3.org/Graphics/SVG/1.1/DTD/svg11.dtd"><svg version="1.1" id="Layer_1" xmlns="http://www.w3.org/2000/svg" xmlns:xlink="http://www.w3.org/1999/xlink" x="0px" y="0px" width="150px" height="150px" viewBox="0 0 150 150" enable-background="new 0 0 150 150" xml:space="preserve"><path fill="#DD7128" d="M116.7,121.9H27V89.1h89.8c9.1,0,16.4,7.4,16.4,16.4v0C133.2,114.6,125.8,121.9,116.7,121.9z"/><polygon fill="#FFFFFF" points="73.3,118.4 18.5,118.4 18.5,92.6 73.3,92.6 80.3,97.3 82.7,105.5 80.5,113.7"/><g><path fill="#EF7E29" d="M70.5,122.1H15.1c-1.9,0-3.4-1.5-3.4-3.4c0-1.9,1.5-3.4,3.4-3.4h55.4c5.3,0,9.6-4.3,9.6-9.6 S75.8,96,70.5,96H15.1c-1.9,0-3.4-1.5-3.4-3.4c0-1.9,1.5-3.4,3.4-3.4h55.4c9.1,0,16.5,7.4,16.5,16.5S79.6,122.1,70.5,122.1z"/></g><path fill="#BA2D2D" d="M132.2,89.3H42.4V56.5h89.8c9.1,0,16.4,7.4,16.4,16.4v0C148.6,82,141.3,89.3,132.2,89.3z"/><polygon fill="#FFFFFF" points="88.7,85.8 34,85.8 34,60 88.7,60 95.7,64.7 98.1,72.9 96,81.1"/><path fill="none" stroke="#CC2F2F" stroke-width="6.8629" stroke-linecap="round" stroke-linejoin="round" stroke-miterlimit="10" d="M30.5,60H86C93.1,60,99,65.8,99,73v0c0,7.2-5.9,13.1-13.1,13.1H30.5"/><path fill="#1CB0F6" d="M17.8,24h89.8v32.9H17.8c-9.1,0-16.4-7.4-16.4-16.4v0C1.4,31.4,8.7,24,17.8,24z"/><polygon fill="#FFFFFF" points="61.3,27.6 116,27.6 116,53.4 61.3,53.4 54.3,48.7 51.9,40.4 54,32.3"/><g><path fill="#1EA4E0" d="M119.5,56.8H64c-9.1,0-16.5-7.4-16.5-16.5S55,23.9,64,23.9h55.4c1.9,0,3.4,1.5,3.4,3.4s-1.5,3.4-3.4,3.4H64 c-5.3,0-9.6,4.3-9.6,9.6S58.7,50,64,50h55.4c1.9,0,3.4,1.5,3.4,3.4S121.4,56.8,119.5,56.8z"/></g></svg>