<?xml version="1.0" encoding="utf-8"?><!DOCTYPE svg PUBLIC "-//W3C//DTD SVG 1.1//EN" "http://www.w3.org/Graphics/SVG/1.1/DTD/svg11.dtd"><svg version="1.1" id="Layer_1" xmlns="http://www.w3.org/2000/svg" xmlns:xlink="http://www.w3.org/1999/xlink" x="0px" y="0px" width="150px" height="150px" viewBox="0 0 150 150" enable-background="new 0 0 150 150" xml:space="preserve"><g><path fill="#00BDFF" d="M48.9,107.3c0-3.5,1.8-5.3,5.3-5.3h14.7V50.8c0-3.1,0.1-6.2,0.1-6.2h-0.3c0,0-1.2,2.5-3.5,4.7l-4,3.9 c-2.6,2.3-5.2,2.3-7.5-0.3l-2.5-2.6c-2.5-2.5-2.3-5.2,0.1-7.7l16.4-15.7c2.1-1.8,4-2.7,6.8-2.7h5.5c3.5,0,5.3,2,5.3,5.5V102h14.6 c3.5,0,5.5,1.8,5.5,5.3v3.6c0,3.6-2,5.5-5.5,5.5H54.2c-3.5,0-5.3-1.8-5.3-5.5V107.3z"/></g></svg>