<?xml version="1.0" encoding="utf-8"?><!DOCTYPE svg PUBLIC "-//W3C//DTD SVG 1.1//EN" "http://www.w3.org/Graphics/SVG/1.1/DTD/svg11.dtd"><svg version="1.1" id="Layer_1" xmlns="http://www.w3.org/2000/svg" xmlns:xlink="http://www.w3.org/1999/xlink" x="0px" y="0px" width="150px" height="150px" viewBox="0 0 150 150" enable-background="new 0 0 150 150" xml:space="preserve"><path fill="#8E412D" d="M86.4,66.6L86.4,66.6c-15.7,0-28.5-12.8-28.5-28.5v-4.3c0-15.7,12.8-28.5,28.5-28.5h0	c15.7,0,28.5,12.8,28.5,28.5v4.3C114.9,53.7,102.1,66.6,86.4,66.6z"/><path fill="#8E412D" d="M115.6,56L115.6,56c-6.5,0-11.8-5.3-11.8-11.8V31.7c0-6.5,5.3-11.8,11.8-11.8h0c6.5,0,11.8,5.3,11.8,11.8	v12.6C127.4,50.7,122.1,56,115.6,56z"/><g><ellipse fill="#FFA792" cx="61.8" cy="58.6" rx="7.1" ry="6.7"/></g><g><ellipse fill="#FFA792" cx="124.5" cy="58.6" rx="7.1" ry="6.7"/></g><path fill="#36A8E0" d="M52.3,145v-7c0-22.4,18.1-40.5,40.5-40.5h0c22.4,0,40.5,18.1,40.5,40.5v7"/><path fill="#FFAA00" d="M25.6,134.6v-4.3c0-13.7,11.1-24.8,24.8-24.8h0c13.7,0,24.8,11.1,24.8,24.8v4.3"/><path fill="#36A8E0" d="M15.6,133.8L15.6,133.8c0-6.2,5.1-11.2,11.2-11.2h45c6.2,0,11.2,5.1,11.2,11.2v0C83,140,78,145,71.8,145h-45	C20.6,145,15.6,140,15.6,133.8z"/><polygon fill="#FFA792" points="100.8,110.2 92.8,117.4 84.8,110.2"/><path fill="#F4AB96" d="M92.8,74.6C86.3,74.6,81,79.7,81,86v13.7c0,6.3,5.3,11.5,11.8,11.5s11.8-5.2,11.8-11.5V86	C104.6,79.7,99.3,74.6,92.8,74.6z"/><path fill="#FFA792" d="M92.8,72.9c-7.1,0-12.9,5.6-12.9,12.5v15c0,6.9,5.8,12.5,12.9,12.5c7.1,0,12.9-5.6,12.9-12.5v-15	C105.7,78.5,99.9,72.9,92.8,72.9z"/><g><path fill="#FFB5A1" d="M93,97.5L93,97.5c-17.4,0-31.5-14.1-31.5-31.5V46.8c0-17.4,14.1-31.5,31.5-31.5h0 c17.4,0,31.5,14.1,31.5,31.5V66C124.5,83.4,110.4,97.5,93,97.5z"/></g><g><path fill="#933634" d="M109.9,65.5c0,9.3-7.5,16.9-16.9,16.9h0c-9.3,0-16.9-7.5-16.9-16.9"/></g><path fill="#AF3F3F" d="M92.9,73L92.9,73c-4.3,0-8.1,2.4-10.1,5.9c2.8,2.1,6.3,3.4,10.2,3.4h0c3.8,0,7.2-1.2,10-3.3	C101.1,75.4,97.3,73,92.9,73z"/><g><rect x="87.8" y="47" fill="#FF9D8A" width="10.3" height="14.2"/></g><path fill="#FFFFFF" d="M108.7,71.5c0.7-1.9,1.1-3.9,1.1-6H76.1c0,2.1,0.4,4.1,1.1,6H108.7z"/><path fill="#FFB5A1" d="M83.2,137.4H70.6c-2.2,0-3.9-1.8-3.9-3.9l0,0c0-2.2,1.8-3.9,3.9-3.9h12.6c2.2,0,3.9,1.8,3.9,3.9l0,0	C87.1,135.6,85.4,137.4,83.2,137.4z"/><path fill="#FFB5A1" d="M83.2,145H70.6c-2.2,0-3.9-1.8-3.9-3.9l0,0c0-2.2,1.8-3.9,3.9-3.9h12.6c2.2,0,3.9,1.8,3.9,3.9l0,0	C87.1,143.3,85.4,145,83.2,145z"/><rect x="66.7" y="122.6" fill="#FFB5A1" width="9.8" height="22.5"/><path fill="#FFB5A1" d="M83.2,130.4H70.6c-2.2,0-3.9-1.8-3.9-3.9v0c0-2.2,1.8-3.9,3.9-3.9h12.6c2.2,0,3.9,1.8,3.9,3.9v0	C87.1,128.6,85.4,130.4,83.2,130.4z"/><circle fill="#C67458" cx="32.8" cy="97.3" r="5.4"/><circle fill="#C67458" cx="68.4" cy="97.3" r="5.4"/><path fill="#D88868" d="M50.6,120L50.6,120c-9.8,0-17.8-8-17.8-17.8V87.1c0-9.8,8-17.8,17.8-17.8h0c9.8,0,17.8,8,17.8,17.8v15.1	C68.4,112,60.4,120,50.6,120z"/><ellipse fill="#A85F48" cx="40" cy="90.7" rx="2.9" ry="2.7"/><ellipse fill="#A85F48" cx="61" cy="90.7" rx="2.9" ry="2.7"/><rect x="47" y="89.9" fill="#C67458" width="7.6" height="6.5"/><path fill="#AA403D" d="M38.4,100.2c0,6.3,5.5,11.4,12.2,11.4s12.2-5.1,12.2-11.4"/><path fill="none" stroke="#5B332D" stroke-width="3.5181" stroke-linecap="round" stroke-linejoin="round" stroke-miterlimit="10" d="M51.2,74c-2.3,0-4.2-1.9-4.2-4.2c0-2.3,1.9-4.2,4.2-4.2"/><path fill="#FFB5A1" d="M77.9,135.3L77.9,135.3c-2,0-3.7-1.7-3.7-3.7v-8.9c0-2,1.7-3.7,3.7-3.7h0c2,0,3.7,1.7,3.7,3.7v8.9	C81.6,133.7,79.9,135.3,77.9,135.3z"/><rect x="47" y="100.2" fill="#FFFFFF" width="7.7" height="3.2"/><path fill="#FFCDC2" d="M77.5,60.5h-3.3c-4.2,0-7.6-3.4-7.6-7.6v-6.6c0-1.8,1.5-3.3,3.3-3.3h11.9c1.8,0,3.3,1.5,3.3,3.3v6.6	C85.2,57,81.7,60.5,77.5,60.5z"/><path fill="#FFCDC2" d="M111.7,61h-3.3c-4.2,0-7.6-3.4-7.6-7.6v-6.7c0-1.8,1.5-3.3,3.3-3.3h12c1.8,0,3.3,1.5,3.3,3.3v6.7	C119.4,57.6,115.9,61,111.7,61z"/><path fill="none" stroke="#4F322C" stroke-width="2.6318" stroke-linecap="round" stroke-linejoin="round" stroke-miterlimit="10" d="M66.6,50.3v-3.2c0-2.3,1.9-4.2,4.2-4.2H81c2.3,0,4.2,1.9,4.2,4.2v1.5"/><line fill="none" stroke="#4F322C" stroke-width="2.6318" stroke-linecap="round" stroke-linejoin="round" stroke-miterlimit="10" x1="58.8" y1="49.3" x2="65.8" y2="49.3"/><line fill="none" stroke="#4F322C" stroke-width="2.6318" stroke-linecap="round" stroke-linejoin="round" stroke-miterlimit="10" x1="120.2" y1="49.3" x2="127.2" y2="49.3"/><line fill="none" stroke="#4F322C" stroke-width="2.6318" stroke-linecap="round" stroke-linejoin="round" stroke-miterlimit="10" x1="86" y1="45.9" x2="100" y2="45.9"/><path fill="none" stroke="#4F322C" stroke-width="2.6318" stroke-linecap="round" stroke-linejoin="round" stroke-miterlimit="10" d="M119.4,50.3v-3.2c0-2.3-1.9-4.2-4.2-4.2H105c-2.3,0-4.2,1.9-4.2,4.2v1.5"/><g><circle fill="#EA9486" cx="75.9" cy="51" r="3.9"/></g><g><circle fill="#EA9486" cx="110.1" cy="51" r="3.9"/></g></svg>