<?xml version="1.0" encoding="utf-8"?><!DOCTYPE svg PUBLIC "-//W3C//DTD SVG 1.1//EN" "http://www.w3.org/Graphics/SVG/1.1/DTD/svg11.dtd"><svg version="1.1" xmlns="http://www.w3.org/2000/svg" xmlns:xlink="http://www.w3.org/1999/xlink" x="0px" y="0px" width="150px" height="150px" viewBox="0 0 150 150" enable-background="new 0 0 150 150" xml:space="preserve"><g id="Layer_2"><rect x="-1190" fill="#F0F0F0" width="1680" height="1677.3"/></g><g id="Layer_1"><path fill="#E53838" d="M94.9,146.6H55.2c-2.7,0-4.9-2.2-4.9-4.9V77.4c0-12.3,10-22.3,22.3-22.3h5c12.3,0,22.3,10,22.3,22.3v64.2 C99.8,144.4,97.6,146.6,94.9,146.6z"/><rect x="61" y="20.3" fill="#E53838" width="28.1" height="106.3"/><path fill="#E53838" d="M89.2,22.9H60.8c-1.3,0-2.4-1.1-2.4-2.4V20c0-1.3,1.1-2.4,2.4-2.4h28.4c1.3,0,2.4,1.1,2.4,2.4v0.5 C91.6,21.9,90.5,22.9,89.2,22.9z"/><rect x="64" y="1.4" fill="#B52424" width="22" height="16.3"/><rect x="61" y="22.9" fill="#FFC715" width="28.1" height="28.7"/><rect x="55.2" y="80.8" fill="#FFC715" width="39.6" height="55.9"/><path fill="#7AC70C" d="M75.1,103.2h-0.3c-0.9,0-1.6-0.7-1.6-1.6V86.2c0-0.9,0.7-1.6,1.6-1.6h0.3c0.9,0,1.6,0.7,1.6,1.6v15.4 C76.7,102.5,76,103.2,75.1,103.2z"/><path fill="#B52424" d="M84.5,103.4l-7.1,27.3c-0.6,2.5-4.2,2.5-4.8,0l-7.1-27.3c-1.6-6.2,3.1-12.3,9.5-12.3h0 C81.4,91.2,86.1,97.2,84.5,103.4z"/><g><path fill="#7AC70C" d="M70.1,95.4c1.3,0,2.6,0.6,3.5,1.4c0.8,0.8,2.1,0.8,2.9,0c0.9-0.9,2.1-1.4,3.5-1.4c2.6,0,4.8,2.1,4.9,4.7 c-0.2-5.2-4.5-9.4-9.8-9.4c-5.3,0-9.6,4.2-9.8,9.5C65.3,97.5,67.5,95.4,70.1,95.4z"/><path fill="#7AC70C" d="M65.2,100.4C65.2,100.4,65.2,100.5,65.2,100.4L65.2,100.4L65.2,100.4z"/></g><path fill="#CC2929" d="M71.8,117.1L71.8,117.1c-0.7,0.2-1.5-0.3-1.7-1l-2.9-12.9c-0.2-0.7,0.3-1.5,1-1.7l0,0 c0.7-0.2,1.5,0.3,1.7,1l2.9,12.9C73,116.2,72.5,116.9,71.8,117.1z"/><path fill="#FF4040" d="M80.8,66.4H69.2c-2.2,0-4-1.8-4-4v0c0-2.2,1.8-4,4-4h11.5c2.2,0,4,1.8,4,4v0C84.8,64.6,83,66.4,80.8,66.4z"/></g><g id="Layer_3"/></svg>