<?xml version="1.0" encoding="utf-8"?><!DOCTYPE svg PUBLIC "-//W3C//DTD SVG 1.1//EN" "http://www.w3.org/Graphics/SVG/1.1/DTD/svg11.dtd"><svg version="1.1" xmlns="http://www.w3.org/2000/svg" xmlns:xlink="http://www.w3.org/1999/xlink" x="0px" y="0px" width="150px" height="150px" viewBox="0 0 150 150" enable-background="new 0 0 150 150" xml:space="preserve"><g id="Layer_2" display="none"><rect x="-850" y="-1187.3" display="inline" fill="#F0F0F0" width="1680" height="1677.3"/></g><g id="Layer_1"><polygon fill="#FFC715" points="142.2,74.5 137.1,62.6 142.2,49.7 99.2,74.5 142.2,99.3 137.1,85.1"/><polygon fill="#FFC715" points="51.2,74.5 8.2,49.7 13.3,62.6 8.2,74.5 13.3,85.1 8.2,99.3"/><circle fill="#D33131" cx="75" cy="74.5" r="33.7"/><path fill="#FFC715" d="M42.1,80.4c0-17.2,14-31.1,31.1-31.1c13.5,0,24.5,11,24.5,24.5c0,10.5-8.6,19.1-19.1,19.1 c-8.2,0-14.8-6.7-14.8-14.8c0-6.3,5.1-11.4,11.4-11.4c4.8,0,8.7,3.9,8.7,8.7c0,3.6-2.9,6.5-6.5,6.5c-2.6,0-4.8-2.1-4.8-4.8 c0-1.2-1-2.2-2.2-2.2c-1.2,0-2.2,1-2.2,2.2c0,5.1,4.1,9.2,9.2,9.2c6.1,0,11-4.9,11-11c0-7.3-5.9-13.2-13.2-13.2 c-8.8,0-15.9,7.1-15.9,15.9c0,10.7,8.7,19.3,19.3,19.3c13,0,23.6-10.6,23.6-23.6c0-16-13-29-29-29c-11,0-20.9,5-27.4,12.9 c-2.9,5-4.5,10.7-4.5,16.9c0,2.5,0.3,5,0.8,7.4C42.1,81.4,42.1,80.9,42.1,80.4z"/></g><g id="Layer_3"/></svg>