<?xml version="1.0" encoding="utf-8"?><!DOCTYPE svg PUBLIC "-//W3C//DTD SVG 1.1//EN" "http://www.w3.org/Graphics/SVG/1.1/DTD/svg11.dtd"><svg version="1.1" xmlns="http://www.w3.org/2000/svg" xmlns:xlink="http://www.w3.org/1999/xlink" x="0px" y="0px" width="150px" height="150px" viewBox="0 0 150 150" enable-background="new 0 0 150 150" xml:space="preserve"><g id="Layer_2" display="none"><rect y="-340" display="inline" fill="#F0F0F0" width="1680" height="1677.3"/></g><g id="Layer_1"><path fill="#B2512F" d="M42.9,18.3H30.5c-2,0-3.2,2.1-2.2,3.8l6.2,10.7c1,1.7,3.4,1.7,4.4,0l6.2-10.7 C46.1,20.4,44.8,18.3,42.9,18.3z"/><path fill="#B2512F" d="M127.2,106l-10.7,6.2c-1.7,1-1.7,3.4,0,4.4l10.7,6.2c1.7,1,3.8-0.2,3.8-2.2v-12.4 C131,106.2,128.9,105,127.2,106z"/><g><path fill="#BF5E34" d="M43,106.3C28.1,91.5,19,71,19,48.4c0-9.9,8-17.9,17.9-17.9c9.9,0,17.9,8,17.9,17.9 c0,25.5,20.7,46.2,46.2,46.2c9.9,0,17.9,8,17.9,17.9c0,9.9-8,17.9-17.9,17.9C78.3,130.4,57.8,121.2,43,106.3z"/></g><path fill="#B2512F" d="M39.5,78.1L39.5,78.1c1.3,3.5,5.2,5.2,8.7,3.9l15.7-6c-2.7-3.6-4.9-7.6-6.4-11.9l-14.1,5.4 C39.9,70.7,38.2,74.6,39.5,78.1z"/><path fill="#B2512F" d="M58.6,97.2L58.6,97.2c1.3,3.5,5.2,5.2,8.7,3.9l21.4-8.2c-6-1.6-11.5-4.5-16.2-8.2l-10,3.8 C59.1,89.9,57.3,93.7,58.6,97.2z"/></g><g id="Layer_3"/></svg>