<?xml version="1.0" encoding="utf-8"?><!DOCTYPE svg PUBLIC "-//W3C//DTD SVG 1.1//EN" "http://www.w3.org/Graphics/SVG/1.1/DTD/svg11.dtd"><svg version="1.1" id="Layer_1" xmlns="http://www.w3.org/2000/svg" xmlns:xlink="http://www.w3.org/1999/xlink" x="0px" y="0px" width="150px" height="150px" viewBox="0 0 150 150" enable-background="new 0 0 150 150" xml:space="preserve"><linearGradient id="SVGID_1_" gradientUnits="userSpaceOnUse" x1="74.6551" y1="138.8583" x2="74.6551" y2="9.4784"><stop offset="0" style="stop-color:#B3F6E3"/><stop offset="1" style="stop-color:#3CCFFF"/></linearGradient><path fill="url(#SVGID_1_)" d="M127.3,138.9H22c-6.7,0-12.1-5.4-12.1-12.1V21.5C10,14.9,15.4,9.5,22,9.5h105.3	c6.7,0,12.1,5.4,12.1,12.1v105.3C139.3,133.5,133.9,138.9,127.3,138.9z"/><path fill="#1CB0F6" d="M20.7,112.2h107.9c5.9,0,10.7-4.8,10.7-10.7V74.3H10v27.2C10,107.4,14.8,112.2,20.7,112.2z"/><path fill="#FFCC3E" d="M20.7,138.9h107.9c5.9,0,10.7-4.8,10.7-10.7V101H10v27.2C10,134.1,14.8,138.9,20.7,138.9z"/><rect x="10" y="101" fill="#85DDFF" width="129.4" height="5"/><polygon fill="#FFFFFF" points="34.8,68.9 48.1,32.8 48.1,68.9"/><polygon fill="#FFFFFF" points="65,68.9 51.7,32.8 51.7,68.9"/><path fill="#219AF4" d="M53,94.7H35c-0.7,0-1.4-0.6-1.4-1.4v0c0-0.7,0.6-1.4,1.4-1.4H53c0.7,0,1.4,0.6,1.4,1.4v0	C54.4,94.1,53.8,94.7,53,94.7z"/><path fill="#219AF4" d="M79.3,86.7H67.9c-0.7,0-1.4-0.6-1.4-1.4v0c0-0.7,0.6-1.4,1.4-1.4h11.5c0.7,0,1.4,0.6,1.4,1.4v0	C80.7,86.1,80.1,86.7,79.3,86.7z"/><path fill="#219AF4" d="M130,84.1h-11.5c-0.7,0-1.4-0.6-1.4-1.4v0c0-0.7,0.6-1.4,1.4-1.4H130c0.7,0,1.4,0.6,1.4,1.4v0	C131.4,83.4,130.8,84.1,130,84.1z"/><path fill="#219AF4" d="M27.7,86.7H16.3c-0.7,0-1.4-0.6-1.4-1.4v0c0-0.7,0.6-1.4,1.4-1.4h11.5c0.7,0,1.4,0.6,1.4,1.4v0	C29.1,86.1,28.5,86.7,27.7,86.7z"/><path fill="#219AF4" d="M121.5,93.8h-18.1c-0.7,0-1.4-0.6-1.4-1.4v0c0-0.7,0.6-1.4,1.4-1.4h18.1c0.7,0,1.4,0.6,1.4,1.4v0	C122.9,93.2,122.3,93.8,121.5,93.8z"/><path fill="#97E9F2" d="M124.4,47.8c2.7-2.8,4.3-6.6,4.3-10.8c0-8.7-7-15.7-15.7-15.7c-7.8,0-14.2,5.7-15.5,13.1	c-0.4,0-0.8-0.1-1.3-0.1c-6.1,0-11.1,5-11.1,11.1c0,0.8,0.1,1.6,0.3,2.4H124.4z"/><path fill="#D17D7D" d="M106.1,128.1h-2.7c-4.2,0-7.5-3.4-7.5-7.5v0c0-4.2,3.4-7.5,7.5-7.5h2.7c4.2,0,7.5,3.4,7.5,7.5v0	C113.6,124.7,110.3,128.1,106.1,128.1z"/><path fill="#E53838" d="M106.1,113h-2.7c-4.2,0-7.5,3.4-7.5,7.5v0h17.8v0C113.6,116.4,110.3,113,106.1,113z"/><path fill="#1E1E1E" d="M101.5,113.5L101.5,113.5c-0.7,0-1.4-0.6-1.4-1.4V110c0-0.7,0.6-1.4,1.4-1.4h0c0.7,0,1.4,0.6,1.4,1.4v2.2	C102.9,112.9,102.3,113.5,101.5,113.5z"/><path fill="#1E1E1E" d="M107.9,113.6L107.9,113.6c-0.7,0-1.4-0.6-1.4-1.4v-2.2c0-0.7,0.6-1.4,1.4-1.4l0,0c0.7,0,1.4,0.6,1.4,1.4v2.2	C109.3,113,108.7,113.6,107.9,113.6z"/><path fill="#F93E3E" d="M103.4,118.9L103.4,118.9c-0.5,0-0.9-0.4-0.9-0.9v-2c0-0.5,0.4-0.9,0.9-0.9l0,0c0.5,0,0.9,0.4,0.9,0.9v2	C104.4,118.5,104,118.9,103.4,118.9z"/><path fill="#F93E3E" d="M106.1,118.9L106.1,118.9c-0.5,0-0.9-0.4-0.9-0.9v-2c0-0.5,0.4-0.9,0.9-0.9l0,0c0.5,0,0.9,0.4,0.9,0.9v2	C107,118.5,106.6,118.9,106.1,118.9z"/><path fill="#C66D6D" d="M104.7,123c-1.2,0-2.2,1-2.2,2.2v2.8c0.3,0,0.5,0,0.8,0h2.7c0.3,0,0.5,0,0.8,0v-2.8	C106.9,124,105.9,123,104.7,123z"/><path fill="#D33131" d="M114.8,116c-1,0-1.9,0.8-1.9,1.9c0,1,0.8,1.9,1.9,1.9h0h3.1h8.1c0-2-1.7-3.7-3.7-3.7h-3.8	c-0.1,0-0.2,0-0.3,0c-0.1,0-0.2,0-0.2,0H114.8z"/><path fill="#D33131" d="M116.1,116.5c-0.7-0.7-1.9-0.7-2.6,0c-0.7,0.7-0.7,1.9,0,2.6l0,0l2.2,2.2l5.7,5.7c1.4-1.4,1.4-3.8,0-5.2	l-2.7-2.7c-0.1-0.1-0.2-0.1-0.2-0.2c0-0.1-0.1-0.1-0.2-0.2L116.1,116.5z"/><path fill="#D33131" d="M116.7,117.8c0-1-0.8-1.9-1.9-1.9c-1,0-1.9,0.8-1.9,1.9v0v3.1v8.1c2,0,3.7-1.7,3.7-3.7v-3.8	c0-0.1,0-0.2,0-0.3c0-0.1,0-0.2,0-0.2V117.8z"/><path fill="#9E1515" d="M111.7,122.8c0.6,0,1.1-0.5,1.1-1.1v0c0-0.6-0.5-1.1-1.1-1.1h-4.3c0.2-1.6,1.6-2.8,3.2-2.8h5.6	c1.8,0,3.2,1.5,3.2,3.2s-1.5,3.2-3.2,3.2h-5.6c-1.1,0-2.1-0.6-2.7-1.4H111.7z"/><path fill="#D33131" d="M94.7,116c1,0,1.9,0.8,1.9,1.9c0,1-0.8,1.9-1.9,1.9h0h-3.1h-8.1c0-2,1.7-3.7,3.7-3.7h3.8c0.1,0,0.2,0,0.3,0	c0.1,0,0.2,0,0.2,0H94.7z"/><path fill="#D33131" d="M93.4,116.5c0.7-0.7,1.9-0.7,2.6,0c0.7,0.7,0.7,1.9,0,2.6l0,0l-2.2,2.2l-5.7,5.7c-1.4-1.4-1.4-3.8,0-5.2	l2.7-2.7c0.1-0.1,0.2-0.1,0.2-0.2c0-0.1,0.1-0.1,0.2-0.2L93.4,116.5z"/><path fill="#D33131" d="M92.8,117.8c0-1,0.8-1.9,1.9-1.9c1,0,1.9,0.8,1.9,1.9v0v3.1v8.1c-2,0-3.7-1.7-3.7-3.7v-3.8	c0-0.1,0-0.2,0-0.3c0-0.1,0-0.2,0-0.2V117.8z"/><path fill="#9E1515" d="M97.8,122.8c-0.6,0-1.1-0.5-1.1-1.1v0c0-0.6,0.5-1.1,1.1-1.1h4.3c-0.2-1.6-1.6-2.8-3.2-2.8h-5.6	c-1.8,0-3.2,1.5-3.2,3.2s1.5,3.2,3.2,3.2h5.6c1.1,0,2.1-0.6,2.7-1.4H97.8z"/><path fill="#F2B725" d="M127.2,132.1h-45c-0.8,0-1.5-0.7-1.5-1.5l0,0c0-0.8,0.7-1.5,1.5-1.5h45c0.8,0,1.5,0.7,1.5,1.5l0,0	C128.7,131.4,128,132.1,127.2,132.1z"/><path fill="#FFFFFF" d="M66.5,71.5L66.5,71.5c0,3.7-3,6.7-6.7,6.7H37.7c-3.7,0-6.7-3-6.7-6.7v0"/></svg>