<?xml version="1.0" encoding="utf-8"?><!DOCTYPE svg PUBLIC "-//W3C//DTD SVG 1.1//EN" "http://www.w3.org/Graphics/SVG/1.1/DTD/svg11.dtd"><svg version="1.1" xmlns="http://www.w3.org/2000/svg" xmlns:xlink="http://www.w3.org/1999/xlink" x="0px" y="0px" width="150px" height="150px" viewBox="0 0 150 150" enable-background="new 0 0 150 150" xml:space="preserve"><g id="Layer_2" display="none"><rect x="-1190" y="-1187.3" display="inline" fill="#F0F0F0" width="1680" height="1677.3"/></g><g id="Layer_1"/><g id="Layer_3"><polyline fill="none" stroke="#353535" stroke-width="5.0232" stroke-linecap="round" stroke-linejoin="round" stroke-miterlimit="10" points="91.5,72.9 112.9,72.9 119.8,94.5"/><polyline fill="none" stroke="#353535" stroke-width="5.0232" stroke-linecap="round" stroke-linejoin="round" stroke-miterlimit="10" points="58.5,72.9 37.1,72.9 30.2,94.5"/><path fill="#353535" d="M81.8,52.3H68.2c-6.1,0-11.1-5-11.1-11.1v-3.1c0-6.1,5-11.1,11.1-11.1h13.6c6.1,0,11.1,5,11.1,11.1v3.1 C92.9,47.3,87.9,52.3,81.8,52.3z"/><path fill="#1F3A29" d="M75.5,105.9L75.5,105.9c-11.7,0-21.3-9.6-21.3-21.3V62c0-11.7,9.6-21.3,21.3-21.3h0 c11.7,0,21.3,9.6,21.3,21.3v22.5C96.8,96.3,87.2,105.9,75.5,105.9z"/><path fill="#D1D1D1" d="M75,104.9V51.2l-34.5,42c-10.1,12.3-1,30.3,15.1,30.3h0C66.4,123.6,75,115.2,75,104.9z"/><path fill="#516055" d="M54.1,84.5c0,11.6,9.3,21,20.8,21.3c0-0.3,0-0.6,0-0.9V51.2L54.1,76.7V84.5z"/><path fill="#AAAAAA" d="M75,104.9V51.2l34.5,42c10.1,12.3,1,30.3-15.1,30.3h0C83.7,123.6,75,115.2,75,104.9z"/><path fill="#455148" d="M95.9,84.5c0,11.6-9.3,21-20.8,21.3c0-0.3,0-0.6,0-0.9V51.2l20.9,25.5V84.5z"/><polyline fill="none" stroke="#353535" stroke-width="5.0232" stroke-linecap="round" stroke-linejoin="round" stroke-miterlimit="10" points="57.6,63.8 46.4,63.8 39.4,42.2"/><polyline fill="none" stroke="#353535" stroke-width="5.0232" stroke-linecap="round" stroke-linejoin="round" stroke-miterlimit="10" points="91.5,63.8 102.7,63.8 109.6,42.2"/><path fill="#2B513A" d="M77.3,78.8h-4.5c-10.5,0-19.1-8.6-19.1-19.1v0c0-10.5,8.6-19.1,19.1-19.1h4.5c10.5,0,19.1,8.6,19.1,19.1v0 C96.4,70.2,87.8,78.8,77.3,78.8z"/><path fill="#8E2424" d="M70.5,27l-0.1-0.1c-2.7-2.7-7-2.7-9.7,0L57,30.5c-2.7,2.7-2.7,7,0,9.7l0.1,0.1"/><path fill="#8E2424" d="M79.8,27l0.1-0.1c2.7-2.7,7-2.7,9.7,0l3.7,3.7c2.7,2.7,2.7,7,0,9.7l-0.1,0.1"/><path fill="#437C58" d="M79.5,49.7h-9c-1.2,0-2.2-1-2.2-2.2v0c0-1.2,1-2.2,2.2-2.2h9c1.2,0,2.2,1,2.2,2.2v0 C81.7,48.7,80.7,49.7,79.5,49.7z"/></g></svg>