<?xml version="1.0" encoding="utf-8"?><!DOCTYPE svg PUBLIC "-//W3C//DTD SVG 1.1//EN" "http://www.w3.org/Graphics/SVG/1.1/DTD/svg11.dtd"><svg version="1.1" id="Layer_1" xmlns="http://www.w3.org/2000/svg" xmlns:xlink="http://www.w3.org/1999/xlink" x="0px" y="0px" width="150px" height="150px" viewBox="0 0 150 150" enable-background="new 0 0 150 150" xml:space="preserve"><path fill="#FFFFFF" d="M118.4,58.3H30.6c-2.4,0-4.3-1.9-4.3-4.3V27.7c0-2.8,2.6-4.8,5.3-4.2l42.8,10c0.7,0.2,1.3,0.2,2,0l41-9.9	c2.7-0.6,5.3,1.4,5.3,4.2V54C122.7,56.4,120.8,58.3,118.4,58.3z"/><path fill="#CC2F2F" d="M66.2,37.2v-0.3l-39.1-9.2c-3.3-0.6-6.4,1.9-6.4,5.3v67.7c0,2.6,1.8,4.8,4.4,5.3l39.2,9.3	c3.3,0.6,6.4-1.9,6.4-5.3V45.1C68,43.5,66.2,40.5,66.2,37.2z"/><path fill="#CC2F2F" d="M123.7,27.7l-39.1,9.2v0.3c0,3.4-1.8,6.3-4.5,7.9v64.8c0,3.4,3.1,5.9,6.4,5.3l39.2-9.3	c2.5-0.5,4.4-2.7,4.4-5.3V33C130.1,29.6,127,27,123.7,27.7z"/><path fill="#E03636" d="M75.4,46.4L75.4,46.4c-5.1,0-9.2-4.1-9.2-9.2v75.5c0,5.1,4.1,9.2,9.2,9.2l0,0c5.1,0,9.2-4.1,9.2-9.2V37.2	C84.6,42.3,80.4,46.4,75.4,46.4z"/><path fill="#B52C2C" d="M119.9,59.1l-25.1,5.4c-2.1,0.5-4.2-0.9-4.7-3v0c-0.5-2.1,0.9-4.2,3-4.7l25.1-5.4c2.1-0.5,4.2,0.9,4.7,3v0	C123.4,56.5,122,58.6,119.9,59.1z"/><path fill="#B52C2C" d="M113.6,75.3l-10.8,2.3c-2.1,0.5-4.2-0.9-4.7-3v0c-0.5-2.1,0.9-4.2,3-4.7l10.8-2.3c2.1-0.5,4.2,0.9,4.7,3v0	C117.1,72.8,115.8,74.9,113.6,75.3z"/></svg>