<?xml version="1.0" encoding="utf-8"?><!DOCTYPE svg PUBLIC "-//W3C//DTD SVG 1.1//EN" "http://www.w3.org/Graphics/SVG/1.1/DTD/svg11.dtd"><svg version="1.1" xmlns="http://www.w3.org/2000/svg" xmlns:xlink="http://www.w3.org/1999/xlink" x="0px" y="0px" width="150px" height="150px" viewBox="0 0 150 150" enable-background="new 0 0 150 150" xml:space="preserve"><g id="Layer_2" display="none"><rect x="-1020" display="inline" fill="#F0F0F0" width="1680" height="1677.3"/></g><g id="Layer_1"><path fill="#FFC715" d="M133.4,89.6H35V50.8c0-2.8,2.2-5,5-5h88.4c2.8,0,5,2.2,5,5V89.6z"/><path fill="#FFD56C" d="M70.3,89.6H28V50.9c0-2.8,2.3-5.1,5.1-5.1h32.2c2.8,0,5.1,2.3,5.1,5.1V89.6z"/><path fill="#FFFFFF" d="M141.2,98.6H12.5c-2.5,0-4.5-2-4.5-4.5v0c0-2.5,2-4.5,4.5-4.5h128.7c2.5,0,4.5,2,4.5,4.5v0 C145.7,96.6,143.7,98.6,141.2,98.6z"/><path fill="#FFB600" d="M63.9,81.1v7.2c0,0.8-0.6,1.4-1.4,1.4H22c-1,0-1.9-0.8-1.9-1.9v-6.2c0-1,0.8-1.9,1.9-1.9h40.5 C63.3,79.7,63.9,80.3,63.9,81.1z"/><path fill="#FFFFFF" d="M128.1,104.2H25.7c-2.8,0-5-2.3-5-5v0c0-2.8,2.3-5,5-5h102.4c2.8,0,5,2.3,5,5v0 C133.1,101.9,130.8,104.2,128.1,104.2z"/><path fill="#FFC715" d="M46.6,81.1v7.2c0,0.8-0.6,1.4-1.4,1.4H6.2c-1,0-1.9-0.8-1.9-1.9v-6.2c0-1,0.8-1.9,1.9-1.9h39.1 C46,79.7,46.6,80.3,46.6,81.1z"/></g><g id="Layer_3"/></svg>