<?xml version="1.0" encoding="utf-8"?><!DOCTYPE svg PUBLIC "-//W3C//DTD SVG 1.1//EN" "http://www.w3.org/Graphics/SVG/1.1/DTD/svg11.dtd"><svg version="1.1" id="Layer_1" xmlns="http://www.w3.org/2000/svg" xmlns:xlink="http://www.w3.org/1999/xlink" x="0px" y="0px" width="150px" height="150px" viewBox="0 0 150 150" enable-background="new 0 0 150 150" xml:space="preserve"><path fill="#1CB0F6" d="M129.6,141.6H19.8c-6.7,0-12.1-5.4-12.1-12.1V19.7c0-6.7,5.4-12.1,12.1-12.1h109.8c6.7,0,12.1,5.4,12.1,12.1	v109.8C141.7,136.2,136.3,141.6,129.6,141.6z"/><path fill="#C6C6C6" d="M7.8,130.4c0,6.3,5.1,11.4,11.4,11.4h111.1c6.3,0,11.4-5.1,11.4-11.4v-0.2H7.8V130.4z"/><rect x="28" y="93.5" fill="#D7ECF4" width="46.9" height="36.9"/><path fill="#FFFFFF" d="M92.8,92.9c0,14.8-12,26.9-26.9,26.9s-26.9-12-26.9-26.9"/><path fill="#FFFFFF" d="M43.1,101.9h-18c-3,0-5.5-2.5-5.5-5.5V64.7c0-3,2.5-5.5,5.5-5.5h18c3,0,5.5,2.5,5.5,5.5v31.7	C48.6,99.4,46.1,101.9,43.1,101.9z"/><path fill="#FFFFFF" d="M94.7,89.4c0,1.2-1.1,2.1-2.4,2.1H47.5c-1.3,0-2.4-0.9-2.4-2.1l0,0c0-1.2,1.1-2.1,2.4-2.1h44.9	C93.7,87.3,94.7,88.2,94.7,89.4L94.7,89.4z"/><rect x="55.2" y="108.7" fill="#FFFFFF" width="21.9" height="21.6"/><rect x="89.2" y="34.8" fill="#1A9EC6" width="8.7" height="8.7"/><rect x="99.8" y="45.3" fill="#1A9EC6" width="8.7" height="8.7"/><rect x="78.7" y="45.3" fill="#1A9EC6" width="8.7" height="8.7"/><rect x="26" y="17.9" fill="#1A9EC6" width="8.7" height="8.7"/><rect x="36.5" y="28.4" fill="#1A9EC6" width="8.7" height="8.7"/><path fill="#BF7358" d="M116.3,125.2h-0.3c-1.5,0-2.8-1.2-2.8-2.8V78.2c0-1.5,1.2-2.8,2.8-2.8h0.3c1.5,0,2.8,1.2,2.8,2.8v44.3	C119.1,124,117.9,125.2,116.3,125.2z"/><path fill="#FFB0B0" d="M102.6,128.3v-1.5c0-6.7,5.4-12.1,12.1-12.1h3c6.7,0,12.1,5.4,12.1,12.1v1.5"/><path fill="#FFB0B0" d="M118.5,116.7h-4.7c-1,0-1.8-0.8-1.8-1.8v-0.2c0-1,0.8-1.8,1.8-1.8h4.7c1,0,1.8,0.8,1.8,1.8v0.2	C120.3,115.9,119.5,116.7,118.5,116.7z"/><path fill="#FFB0B0" d="M129.6,130.2h-26.9c-1,0-1.8-0.8-1.8-1.8v-0.2c0-1,0.8-1.8,1.8-1.8h26.9c1,0,1.8,0.8,1.8,1.8v0.2	C131.3,129.4,130.5,130.2,129.6,130.2z"/><path fill="#FFC7C7" d="M118,120.6h-3.6c-0.9,0-1.7-0.8-1.7-1.7v-0.2c0-0.9,0.8-1.7,1.7-1.7h3.6c0.9,0,1.7,0.8,1.7,1.7v0.2	C119.7,119.8,118.9,120.6,118,120.6z"/><path fill="#FFFFFF" d="M49.1,66.3H18.7c-1.3,0-2.3-1-2.3-2.3v-3.8c0-1.3,1-2.3,2.3-2.3h30.5c1.3,0,2.3,1,2.3,2.3V64	C51.5,65.3,50.4,66.3,49.1,66.3z"/><path fill="#D3D3D3" d="M43,74.5h-6.1c-1.3,0-2.3-1-2.3-2.3l0,0c0-1.3,1-2.3,2.3-2.3H43c1.3,0,2.3,1,2.3,2.3l0,0	C45.3,73.4,44.3,74.5,43,74.5z"/></svg>