<?xml version="1.0" encoding="utf-8"?><!DOCTYPE svg PUBLIC "-//W3C//DTD SVG 1.1//EN" "http://www.w3.org/Graphics/SVG/1.1/DTD/svg11.dtd"><svg version="1.1" id="Layer_1" xmlns="http://www.w3.org/2000/svg" xmlns:xlink="http://www.w3.org/1999/xlink" x="0px" y="0px" width="150px" height="150px" viewBox="0 0 150 150" enable-background="new 0 0 150 150" xml:space="preserve"><path fill="#7AC70C" d="M129.7,141.3H20.3c-6.7,0-12.1-5.4-12.1-12.1V19.9c0-6.7,5.4-12.1,12.1-12.1h109.3c6.7,0,12.1,5.4,12.1,12.1	v109.3C141.7,135.9,136.3,141.3,129.7,141.3z"/><path fill="#9B9B9B" d="M141.7,24.6h-32h-1.2h-37c-26.5,0-48.1,21.6-48.1,48.1v68.6h101.4v-15.4h17V24.6z"/><rect x="108.5" y="39.6" fill="#3A3A3A" width="33.2" height="71.4"/><path fill="#3A3A3A" d="M109.7,141.3V39.6H71.5c-18.3,0-33.1,14.8-33.1,33.1v68.6H109.7z"/><g><g><line fill="none" stroke="#FFC715" stroke-width="4" stroke-linecap="round" stroke-linejoin="round" x1="74" y1="137" x2="74" y2="131"/><path fill="none" stroke="#FFC715" stroke-width="4" stroke-linecap="round" stroke-linejoin="round" stroke-dasharray="13.0399,17.3866" d="M74,113.6V87c0-6.6,5.4-12,12-12h37.1"/><line fill="none" stroke="#FFC715" stroke-width="4" stroke-linecap="round" stroke-linejoin="round" x1="131.8" y1="75" x2="137.8" y2="75"/></g></g></svg>