<?xml version="1.0" encoding="utf-8"?><!DOCTYPE svg PUBLIC "-//W3C//DTD SVG 1.1//EN" "http://www.w3.org/Graphics/SVG/1.1/DTD/svg11.dtd"><svg version="1.1" id="Layer_1" xmlns="http://www.w3.org/2000/svg" xmlns:xlink="http://www.w3.org/1999/xlink" x="0px" y="0px" width="150px" height="150px" viewBox="0 0 150 150" enable-background="new 0 0 150 150" xml:space="preserve"><path d="M115.7,50.7h-83C19.3,50.7,8.5,61.6,8.5,75v18c0,2.7,2.2,5,5,5s5-2.2,5-5V75c0-1.6,0.3-3.1,0.8-4.6c1.2,0,2.6,0,4.3,0v23	c0,2.7,2.2,5,5,5s5-2.2,5-5v-23c1.1,0,2.2,0,3.3,0v23c0,2.7,2.2,5,5,5s5-2.2,5-5v-23c1.1,0,2.2,0,3.3,0v23c0,2.7,2.2,5,5,5	c2.7,0,5-2.2,5-5v-23c1.1,0,2.2,0,3.3,0v23c0,2.7,2.2,5,5,5s5-2.2,5-5v-23c1.1,0,2.2,0,3.3,0v23c0,2.7,2.2,5,5,5s5-2.2,5-5v-23	c1.1,0,2.2,0,3.3,0v23c0,2.7,2.2,5,5,5c2.7,0,5-2.2,5-5v-23c1.1,0,2.2,0,3.3,0v23c0,2.7,2.2,5,5,5s5-2.2,5-5v-23c1.1,0,2.2,0,3.3,0	v23c0,2.7,2.2,5,5,5s5-2.2,5-5v-23c1.3,0,2.4,0,3.4,0c0.5,1.4,0.8,3,0.8,4.6v18c0,2.7,2.2,5,5,5c2.7,0,5-2.2,5-5V75	C139.9,61.6,129.1,50.7,115.7,50.7z"/></svg>