<?xml version="1.0" encoding="utf-8"?><!DOCTYPE svg PUBLIC "-//W3C//DTD SVG 1.1//EN" "http://www.w3.org/Graphics/SVG/1.1/DTD/svg11.dtd"><svg version="1.1" id="Layer_1" xmlns="http://www.w3.org/2000/svg" xmlns:xlink="http://www.w3.org/1999/xlink" x="0px" y="0px" width="150px" height="150px" viewBox="0 0 150 150" enable-background="new 0 0 150 150" xml:space="preserve"><path fill="#F49000" d="M75.5,15.1c11.6-11.7,30.4-11.7,42,0s11.6,30.8,0,42.5"/><path fill="#FFCC5A" d="M77.2,16.9c10.7-10.8,28-10.8,38.6,0s10.7,28.3,0,39.2"/><path fill="#FFB000" d="M120.4,31.8c-0.6-3.1-1.7-6-3.5-8.7c-1.3-1.9-3.9-2.2-5.5-0.6L98,36l0.1,0.1l18.8,0	C119.1,36.1,120.8,34.1,120.4,31.8z"/><path fill="#FFB000" d="M101.2,12.3c3,0.6,6,1.8,8.6,3.6c1.9,1.3,2.2,4,0.6,5.6L97,35l-0.1-0.1l0-19C96.9,13.6,98.9,11.9,101.2,12.3	z"/><path fill="#FFB000" d="M120.4,42.3c-0.6,3.1-1.7,6-3.5,8.7c-1.3,1.9-3.9,2.2-5.5,0.6L98,38l0.1-0.1l18.8,0	C119.2,38,120.9,40,120.4,42.3z"/><path fill="#FFB000" d="M90.9,12.3c-3,0.6-6,1.8-8.6,3.6c-1.9,1.3-2.2,4-0.6,5.6L95,35l0.1-0.1l0-19C95.1,13.6,93.1,11.9,90.9,12.3z"/><path fill="#FFCC5A" d="M99.3,33.7c-1.5-1.6-4.1-1.6-5.6,0l5.6,5.7C100.9,37.8,100.9,35.2,99.3,33.7z"/><path fill="#FFFFFF" d="M92.4,148.3H57.8c-7.4,0-13.3-6-13.3-13.3V27.7h61.2V135C105.7,142.3,99.8,148.3,92.4,148.3z"/><path fill="#36A8E0" d="M58.9,135.6L58.9,135.6c1.4,0,2.6-1.2,2.6-2.6v-109c0-1.4-1.2-2.6-2.6-2.6h0c-1.4,0-2.6,1.2-2.6,2.6v109	C56.3,134.5,57.4,135.6,58.9,135.6z"/><path fill="#36A8E0" d="M39.8,1l-3.7,3.7L57,25.9c1,1,2.7,1,3.7,0l0,0c1-1,1-2.6,0-3.7L39.8,1z"/><path fill="#FF9700" d="M89.8,143.4H60.4c-5.8,0-10.6-4.7-10.6-10.6V52.3h50.6v80.6C100.4,138.6,95.7,143.4,89.8,143.4z"/><path fill="#FFAA00" d="M62.7,108.5L62.7,108.5c-3.6,0-6.4-2.9-6.4-6.4V52.7c0-0.3,0.2-0.5,0.5-0.5h11.9c0.3,0,0.5,0.2,0.5,0.5v49.3	C69.1,105.6,66.2,108.5,62.7,108.5z"/><path fill="#1B92C1" d="M61.3,26.7L61.3,26.7c-1.4,1.4-3.6,1.4-4.9,0l-7.8-7.9c-0.3-0.3-0.3-0.7,0-1l3.8-3.9c0.3-0.3,0.8-0.3,1,0	l7.8,7.9C62.7,23.2,62.7,25.4,61.3,26.7z"/><path fill="#1B92C1" d="M58.9,20.8L58.9,20.8c1.9,0,3.4,1.5,3.4,3.4v8.8c0,0.4-0.3,0.7-0.7,0.7h-5.4c-0.4,0-0.7-0.3-0.7-0.7v-8.8	C55.4,22.4,57,20.8,58.9,20.8z"/></svg>