<?xml version="1.0" encoding="utf-8"?><!DOCTYPE svg PUBLIC "-//W3C//DTD SVG 1.1//EN" "http://www.w3.org/Graphics/SVG/1.1/DTD/svg11.dtd"><svg version="1.1" id="Layer_1" xmlns="http://www.w3.org/2000/svg" xmlns:xlink="http://www.w3.org/1999/xlink" x="0px" y="0px" width="150px" height="150px" viewBox="0 0 150 150" enable-background="new 0 0 150 150" xml:space="preserve"><path fill="none" stroke="#D38F62" stroke-width="9.7122" stroke-miterlimit="10" d="M75,102.6c0-22.8,8.9-43.5,23.5-58.7"/><path fill="#FFC200" d="M131.8,136.5c-9.2-21.9-30.9-37.2-56.1-37.2s-46.9,15.4-56.1,37.2H131.8z"/><path fill="#7AC70C" d="M129.5,85.2c3.7-11.2,1.2-24-7.7-32.9s-21.7-11.5-32.9-7.7L129.5,85.2z"/><path fill="#7AC70C" d="M94.9,50.5c3.7-11.2,1.2-24-7.7-32.9S65.4,6.2,54.2,9.9L94.9,50.5z"/><path fill="#7AC70C" d="M145.6,49c-5.3-10.5-16.1-17.8-28.7-17.8S93.4,38.4,88.2,49H145.6z"/><path fill="#7AC70C" d="M96.6,49c-5.3-10.5-16.1-17.8-28.7-17.8S44.4,38.4,39.2,49H96.6z"/><circle fill="#A35D2E" cx="82" cy="50" r="8.4"/><circle fill="#B26938" cx="96.1" cy="51.2" r="8.4"/><path fill="#1CB0F6" d="M140.1,141.3H11.6c-3,0-5.5-2.5-5.5-5.5v0c0-3,2.5-5.5,5.5-5.5h128.6c3,0,5.5,2.5,5.5,5.5v0	C145.6,138.9,143.1,141.3,140.1,141.3z"/></svg>