<?xml version="1.0" encoding="utf-8"?><!DOCTYPE svg PUBLIC "-//W3C//DTD SVG 1.1//EN" "http://www.w3.org/Graphics/SVG/1.1/DTD/svg11.dtd"><svg version="1.1" id="Layer_1" xmlns="http://www.w3.org/2000/svg" xmlns:xlink="http://www.w3.org/1999/xlink" x="0px" y="0px" width="150px" height="150px" viewBox="0 0 150 150" enable-background="new 0 0 150 150" xml:space="preserve"><circle fill="none" stroke="#FFCE00" stroke-width="14" stroke-linecap="round" stroke-miterlimit="10" cx="35.1" cy="72" r="21.7"/><path fill="none" stroke="#FFD939" stroke-width="7" stroke-linecap="round" stroke-linejoin="round" stroke-miterlimit="10" d="M23.8,53.5c3.3-2,7.2-3.2,11.4-3.2c4.1,0,8,1.1,11.2,3.1"/><line fill="none" stroke="#FFCE00" stroke-width="14" stroke-linecap="round" stroke-miterlimit="10" x1="56.8" y1="72" x2="135.6" y2="72"/><line fill="none" stroke="#FFCE00" stroke-width="14" stroke-linecap="round" stroke-miterlimit="10" x1="101.6" y1="72" x2="101.6" y2="86.3"/><line fill="none" stroke="#FFCE00" stroke-width="14" stroke-linecap="round" stroke-miterlimit="10" x1="125.6" y1="72.5" x2="125.6" y2="95.7"/><path fill="#FFD939" d="M128.4,72H69.5c-1.4,0-2.5-1.1-2.5-2.5l0,0c0-1.4,1.1-2.5,2.5-2.5h58.9c1.4,0,2.5,1.1,2.5,2.5l0,0	C130.8,70.9,129.7,72,128.4,72z"/></svg>