<?xml version="1.0" encoding="utf-8"?><!DOCTYPE svg PUBLIC "-//W3C//DTD SVG 1.1//EN" "http://www.w3.org/Graphics/SVG/1.1/DTD/svg11.dtd"><svg version="1.1" xmlns="http://www.w3.org/2000/svg" xmlns:xlink="http://www.w3.org/1999/xlink" x="0px" y="0px" width="150px" height="150px" viewBox="0 0 150 150" enable-background="new 0 0 150 150" xml:space="preserve"><g id="Layer_2" display="none"><rect x="-680" display="inline" fill="#F0F0F0" width="1680" height="1677.3"/></g><g id="Layer_1"><rect x="26.1" y="30.4" fill="#DDDDDD" width="57.1" height="16.8"/><path fill="#DDDDDD" d="M80,141.5H30c-10.1,0-18.4-8.3-18.4-18.4V62.8c0-10.1,8.3-18.4,18.4-18.4H80c10.1,0,18.4,8.3,18.4,18.4 v60.3C98.4,133.2,90.1,141.5,80,141.5z"/><linearGradient id="SVGID_1_" gradientUnits="userSpaceOnUse" x1="55" y1="135.0296" x2="55" y2="76.2258"><stop offset="0" style="stop-color:#FAC418"/><stop offset="1" style="stop-color:#FA9C18"/></linearGradient><path fill="url(#SVGID_1_)" d="M92.6,76.2v46.5c0,6.8-5.5,12.3-12.3,12.3H29.7c-6.8,0-12.3-5.5-12.3-12.3V76.2"/><path fill="#D3D3D3" d="M83.2,39.9H26.1c-1.3,0-2.4-1.1-2.4-2.4v0c0-1.3,1.1-2.4,2.4-2.4h57.1c1.3,0,2.4,1.1,2.4,2.4v0 C85.6,38.8,84.5,39.9,83.2,39.9z"/><path fill="#EAEAEA" d="M65,57.1H44.3c-2,0-3.7-1.7-3.7-3.7v0c0-2,1.7-3.7,3.7-3.7H65c2,0,3.7,1.7,3.7,3.7v0 C68.7,55.5,67,57.1,65,57.1z"/><rect x="117.9" y="106.6" transform="matrix(0.9419 -0.3358 0.3358 0.9419 -33.1611 50.1152)" fill="#CE8A41" width="20.9" height="28.7"/><path fill="#DB9F58" d="M143.8,121.2l-27.1,9.7c-2.4,0.9-5.1-0.4-5.9-2.8l0,0c-0.9-2.4,0.4-5.1,2.8-5.9l27.1-9.7 c2.4-0.9,5.1,0.4,5.9,2.8v0C147.5,117.7,146.2,120.4,143.8,121.2z"/><path fill="#DB9F58" d="M136,111.3l-19.6,7c-2.4,0.9-5.1-0.4-5.9-2.8v0c-0.9-2.4,0.4-5.1,2.8-5.9l19.6-7c2.4-0.9,5.1,0.4,5.9,2.8 l0,0C139.7,107.7,138.4,110.4,136,111.3z"/><path fill="#DB9F58" d="M119.1,108.4L85.9,15.2c-0.9-2.4,0.4-5.1,2.8-5.9l0,0c2.4-0.9,5.1,0.4,5.9,2.8l33.2,93.2 c0.9,2.4-0.4,5.1-2.8,5.9h0C122.6,112.1,119.9,110.8,119.1,108.4z"/><path fill="#DB9F58" d="M144.1,133.9l-19.6,7c-2.4,0.9-5.1-0.4-5.9-2.8v0c-0.9-2.4,0.4-5.1,2.8-5.9l19.6-7c2.4-0.9,5.1,0.4,5.9,2.8 v0C147.7,130.4,146.5,133,144.1,133.9z"/><path fill="#CEB06E" d="M83.3,44.4H26.1c-5.1,0-9.2-4.2-9.2-9.2v0c0-5.1,4.2-9.2,9.2-9.2h57.3c5.1,0,9.2,4.2,9.2,9.2v0 C92.6,40.3,88.4,44.4,83.3,44.4z"/><path fill="#AA7749" d="M88.6,46.5H21.8c-0.9,0-1.5-0.7-1.5-1.5v0c0-0.9,0.7-1.5,1.5-1.5h66.8c0.9,0,1.5,0.7,1.5,1.5v0 C90.2,45.8,89.5,46.5,88.6,46.5z"/><path fill="#CEB06E" d="M8.3,59.8L8.3,59.8c0-7.3,6-13.3,13.3-13.3h67.3c7.3,0,13.3,6,13.3,13.3v0"/><path fill="#C1A05D" d="M76.9,41.1L76.9,41.1c-0.5,0.5-1.2,0.5-1.7,0L68,33.9c-0.5-0.5-0.5-1.2,0-1.7v0c0.5-0.5,1.2-0.5,1.7,0 l7.3,7.3C77.4,39.9,77.4,40.7,76.9,41.1z"/><path fill="#C1A05D" d="M80.6,37.5L80.6,37.5c-0.5,0.5-1.2,0.5-1.7,0l-7.3-7.3c-0.5-0.5-0.5-1.2,0-1.7v0c0.5-0.5,1.2-0.5,1.7,0 l7.3,7.3C81,36.3,81,37,80.6,37.5z"/><path fill="#C1A05D" d="M68.1,37.4L68.1,37.4c-0.5-0.5-0.5-1.2,0-1.7l7.1-7.1c0.5-0.5,1.2-0.5,1.7,0v0c0.5,0.5,0.5,1.2,0,1.7 l-7.1,7.1C69.3,37.9,68.6,37.9,68.1,37.4z"/><path fill="#C1A05D" d="M71.9,41.2L71.9,41.2c-0.5-0.5-0.5-1.2,0-1.7l7.1-7.1c0.5-0.5,1.2-0.5,1.7,0v0c0.5,0.5,0.5,1.2,0,1.7 l-7.1,7.1C73.1,41.6,72.3,41.6,71.9,41.2z"/><path fill="#C1A05D" d="M24.1,56.2c-0.6-0.6-1.6-0.6-2.2,0c-0.6,0.6-0.6,1.6,0,2.2l1.4,1.4h4.5L24.1,56.2z"/><path fill="#C1A05D" d="M29,51.3c-0.6-0.6-1.6-0.6-2.2,0c-0.6,0.6-0.6,1.6,0,2.2l6.3,6.3h4.5L29,51.3z"/><path fill="#C1A05D" d="M27.7,59.8l6.1-6.1c0.6-0.6,0.6-1.6,0-2.2c-0.6-0.6-1.6-0.6-2.2,0l-8.4,8.4H27.7z"/><path fill="#C1A05D" d="M37.9,59.8l1-1c0.6-0.6,0.6-1.6,0-2.2c-0.6-0.6-1.6-0.6-2.2,0l-3.2,3.2H37.9z"/><path fill="none" stroke="#AA7749" stroke-width="4" stroke-linecap="round" stroke-miterlimit="10" d="M37.7,42.7L37.7,42.7 c-1.7-1.7-1.7-4.4,0-6.1l3.7-3.7c1.7-1.7,4.4-1.7,6.1,0l0,0c1.7,1.7,1.7,4.4,0,6.1l-3.7,3.7C42.1,44.4,39.4,44.4,37.7,42.7z"/><path fill="none" stroke="#AA7749" stroke-width="4" stroke-linecap="round" stroke-miterlimit="10" d="M35.2,42.7L35.2,42.7 c1.7-1.7,1.7-4.4,0-6.1l-3.7-3.7c-1.7-1.7-4.4-1.7-6.1,0l0,0c-1.7,1.7-1.7,4.4,0,6.1l3.7,3.7C30.7,44.4,33.5,44.4,35.2,42.7z"/><path fill="none" stroke="#AA7749" stroke-width="4" stroke-linecap="round" stroke-miterlimit="10" d="M26.5,50.4 c5.5,0,9.9-4.4,9.9-9.9"/><path fill="none" stroke="#AA7749" stroke-width="4" stroke-linecap="round" stroke-miterlimit="10" d="M46.3,50.4 c-5.5,0-9.9-4.4-9.9-9.9"/></g><g id="Layer_3"/></svg>