<?xml version="1.0" encoding="utf-8"?><!DOCTYPE svg PUBLIC "-//W3C//DTD SVG 1.1//EN" "http://www.w3.org/Graphics/SVG/1.1/DTD/svg11.dtd"><svg version="1.1" id="Layer_1" xmlns="http://www.w3.org/2000/svg" xmlns:xlink="http://www.w3.org/1999/xlink" x="0px" y="0px" width="150px" height="150px" viewBox="0 0 150 150" enable-background="new 0 0 150 150" xml:space="preserve"><path fill="#C49257" d="M127.6,127l-40-69.3c-2.3,2.5-5.6,4-9.2,4.1c-1.4,3.8-5.1,6.6-9.3,6.6h-5.4c-2.2,0-4.2-0.7-5.8-1.9l-35,60.6	c-1.3,2.3,0.3,5.1,3,5.1h98.9C127.3,132.2,128.9,129.3,127.6,127z"/><g><path fill="#CECECE" d="M45.3,15.8c0-0.2,0-0.4,0-0.6c0-3.2-2.6-5.8-5.8-5.8c-3.2,0-5.8,2.6-5.8,5.8c0,1.9,0.9,3.6,2.3,4.6 c-0.9,1.4-1.4,3-1.4,4.8c0,5,4,9,9,9s9-4,9-9C52.6,20.3,49.4,16.6,45.3,15.8z"/><path fill="#CECECE" d="M85,38.3c0-6-4.9-11-11-11c-0.8,0-1.5,0.1-2.3,0.2c-0.6-4.5-4.5-8-9.2-8c-5.1,0-9.3,4.2-9.3,9.3 c0,3.5,2,6.6,4.9,8.2c-0.1,0.4-0.2,0.8-0.2,1.3c0,1.6,0.7,3,1.8,4c-2.5,2-4.1,5.1-4.1,8.5c0,6,4.9,11,11,11s11-4.9,11-11 c0-0.8-0.1-1.5-0.2-2.2C81.8,47.3,85,43.2,85,38.3z"/></g><path fill="#FFA300" d="M87.6,57.7c-2.3,2.5-5.6,4-9.2,4.1c-0.2,0.5-0.5,1.1-0.7,1.6V64h-0.5c-1.8,2.6-4.8,4.3-8.1,4.3h-5.4	c-2.2,0-4.2-0.7-5.8-1.9l-0.6,1.1v14.7c0,2.5,2.1,4.6,4.6,4.6s4.6-2.1,4.6-4.6v-1.3c0-3.1,2.6-5.7,5.7-5.7c2.8,0,5.1,2,5.6,4.7v10.6	c0,4.7,3.8,8.5,8.5,8.5c4.7,0,8.5-3.8,8.5-8.5V69.9L87.6,57.7z"/><path fill="#7AC70C" d="M132.3,127c-0.9-2-2.7-3.4-4.9-3.8c0.2-0.7,0.3-1.4,0.3-2.2c0-5.2-4.3-9.5-9.5-9.5c-5.2,0-9.4,4.2-9.5,9.4	c-1.2-0.9-2.6-1.5-4.2-1.5c-2.3,0-4.3,1.1-5.5,2.8c-0.2-3.8-3.4-6.9-7.3-6.9c-3.7,0-6.7,2.7-7.2,6.3c-0.8-0.4-1.6-0.7-2.6-0.7	c-0.2,0-0.3,0-0.5,0c-0.9-1.1-2.2-1.7-3.6-1.7c-2.3,0-4.2,1.6-4.6,3.8c-0.5-0.2-1.1-0.3-1.7-0.3c0.5-1.3,0.8-2.8,0.8-4.3	c0-6.7-5.4-12.2-12.2-12.2c-6.5,0-11.7,5-12.1,11.4c-0.7-0.5-1.6-0.7-2.5-0.7c0,0-0.1,0-0.1,0c-0.7-4.2-4.4-7.4-8.8-7.4	c-4.8,0-8.8,3.9-8.9,8.7c-0.9-0.5-1.9-0.7-3-0.7c-3.7,0-6.7,3-6.7,6.7c0,1,0.2,1.9,0.6,2.7h-0.2c-2.6,0-4.8,2.2-4.8,4.8	c0,2.6,2.2,4.8,4.8,4.8h113.4c2.6,0,4.8-2.2,4.8-4.8C136.5,129.3,134.6,127.3,132.3,127z"/></svg>