<?xml version="1.0" encoding="utf-8"?><!DOCTYPE svg PUBLIC "-//W3C//DTD SVG 1.1//EN" "http://www.w3.org/Graphics/SVG/1.1/DTD/svg11.dtd"><svg version="1.1" id="Layer_1" xmlns="http://www.w3.org/2000/svg" xmlns:xlink="http://www.w3.org/1999/xlink" x="0px" y="0px" width="150px" height="150px" viewBox="0 0 150 150" enable-background="new 0 0 150 150" xml:space="preserve"><path fill="#D33131" d="M84.7,23.8c-14.8,0-29.1,6.3-39.2,17.2c-3.1,3.3-3.4,8.2-1.1,11.9c-0.7,0.7-1.5,1.4-2.2,2.2	c-3.7,4-3.4,10.2,0.5,13.8c4,3.7,10.2,3.4,13.8-0.5c5.2-5.7,12.6-8.9,20.3-8.9c15.2,0,27.6,12.4,27.6,27.6v38.1	c0,5.4,4.4,9.8,9.8,9.8c5.4,0,9.8-4.4,9.8-9.8V106c1.3,0.6,2.7,1,4.2,1c5.4,0,9.8-4.4,9.8-9.8v-20C138.2,47.8,114.2,23.8,84.7,23.8z"/><g><path fill="#E53939" d="M52.7,52.6c-1.2,0-2.4-0.4-3.3-1.3c-2-1.8-2.1-4.9-0.3-6.9c9.2-9.9,22.2-15.6,35.6-15.6 c12.2,0,23.9,4.6,32.9,12.9c2,1.8,2.1,4.9,0.3,6.9c-1.8,2-4.9,2.1-6.9,0.3c-7.2-6.7-16.5-10.3-26.2-10.3C74,38.5,63.7,43.1,56.3,51 C55.4,52.1,54.1,52.6,52.7,52.6z"/></g><rect x="22.4" y="36.6" transform="matrix(0.7071 0.7071 -0.7071 0.7071 62.0124 -15.5373)" fill="#BCBCBC" width="54.7" height="60.9"/><path fill="#C6C6C6" d="M26.9,69.3L26.9,69.3c-2-2-2-5.2,0-7.3l29.4-29.4l7.3,7.3L34.2,69.3C32.2,71.3,28.9,71.3,26.9,69.3z"/><path fill="#AFAFAF" d="M41.5,99.7l29.4-29.4c2-2,5.2-2,7.3,0l0,0c2,2,2,5.2,0,7.3L48.8,107"/><rect x="42.6" y="40.2" transform="matrix(0.7071 -0.7071 0.7071 0.7071 -33.3826 54.675)" fill="#D33131" width="13.4" height="54.8"/><rect x="32.3" y="52.2" transform="matrix(0.7071 -0.7071 0.7071 0.7071 -29.1029 44.3428)" fill="#E53939" width="13.4" height="10.3"/><rect x="58.3" y="78.2" transform="matrix(0.7071 -0.7071 0.7071 0.7071 -39.9022 70.4147)" fill="#C62828" width="13.4" height="10.3"/><line fill="none" stroke="#FFFFFF" stroke-width="2.7982" stroke-linecap="round" stroke-linejoin="round" stroke-miterlimit="10" x1="8.9" y1="69.3" x2="47.6" y2="108"/><line fill="none" stroke="#FFFFFF" stroke-width="2.7982" stroke-linecap="round" stroke-linejoin="round" stroke-miterlimit="10" x1="51.9" y1="26.3" x2="90.6" y2="65"/><circle fill="#D33131" cx="142.1" cy="48.9" r="4.7"/><circle fill="#D33131" cx="93.4" cy="106" r="5.4"/><circle fill="#D33131" cx="89.3" cy="23.2" r="3.7"/><circle fill="#D1D1D1" cx="63" cy="53.6" r="5.5"/><path fill="#F4F4F4" d="M18.4,55h44.4c0.9,0,1.6-0.7,1.6-1.6v0c0-0.9-0.7-1.6-1.6-1.6H18.4c-0.9,0-1.6,0.7-1.6,1.6v0	C16.8,54.2,17.5,55,18.4,55z"/><path fill="#C62828" d="M108.2,128L108.2,128c-2,0-3.7-1.7-3.7-3.7v-32c0-2,1.7-3.7,3.7-3.7h0c2,0,3.7,1.7,3.7,3.7v32	C111.9,126.3,110.3,128,108.2,128z"/></svg>