<?xml version="1.0" encoding="utf-8"?><!DOCTYPE svg PUBLIC "-//W3C//DTD SVG 1.1//EN" "http://www.w3.org/Graphics/SVG/1.1/DTD/svg11.dtd"><svg version="1.1" xmlns="http://www.w3.org/2000/svg" xmlns:xlink="http://www.w3.org/1999/xlink" x="0px" y="0px" width="150px" height="150px" viewBox="0 0 150 150" enable-background="new 0 0 150 150" xml:space="preserve"><g id="Layer_2" display="none"><rect y="-170" display="inline" fill="#F0F0F0" width="1680" height="1677.3"/></g><g id="Layer_1"><rect x="73.9" y="88.6" fill="#B7B7B7" width="16.2" height="5.8"/><path fill="#493741" d="M19.1,104.2L19.1,104.2c0-22.7,18.4-41.1,41.1-41.1h46c22.7,0,41.1,18.4,41.1,41.1v0"/><path fill="#DD527E" d="M64.3,104.2L64.3,104.2c0-22.7,18.4-41.1,41.1-41.1h0.7c22.7,0,41.1,18.4,41.1,41.1v0"/><path fill="#DD527E" d="M64.3,104.2L64.3,104.2c0-22.7,18.4-41.1,41.1-41.1h0.7c22.7,0,41.1,18.4,41.1,41.1v0"/><path fill="none" stroke="#DB6A93" stroke-width="4" stroke-miterlimit="10" d="M75.4,104.2L75.4,104.2c0-16.6,13.5-30.1,30.1-30.1 h0.5c16.6,0,30.1,13.5,30.1,30.1v0"/><path fill="none" stroke="#DB6A93" stroke-width="2.1201" stroke-miterlimit="10" d="M64.8,104.2L64.8,104.2 c0-22.3,18.1-40.3,40.3-40.3h0.7c22.3,0,40.3,18.1,40.3,40.3v0"/><path fill="none" stroke="#DB6A93" stroke-width="4" stroke-miterlimit="10" d="M87.8,104.2L87.8,104.2c0-9.9,8-17.8,17.8-17.8h0.3 c9.9,0,17.8,8,17.8,17.8v0"/><path fill="#86B20D" d="M24.5,71.4C19.4,75,16,81,16,87.7c0,6.8,3.4,12.7,8.5,16.3V71.4z"/><path fill="#88C11A" d="M24.5,104c5.1-3.6,8.5-9.6,8.5-16.3c0-6.8-3.4-12.7-8.5-16.3V104z"/><path fill="#86B20D" d="M1.5,81C0.4,87.2,2.2,93.8,7,98.5s11.4,6.6,17.6,5.5L1.5,81z"/><path fill="#88C11A" d="M24.5,104c1.1-6.2-0.7-12.8-5.5-17.6C14.2,81.7,7.6,79.9,1.5,81L24.5,104z"/><path fill="#664E5C" d="M56,72.9c0,3-2.4,5.4-5.4,5.4c-3,0-5.4-2.4-5.4-5.4"/><path fill="#664E5C" d="M48.7,81c0,3-2.4,5.4-5.4,5.4S37.8,84,37.8,81"/><path fill="#664E5C" d="M62.5,81c0,3-2.4,5.4-5.4,5.4S51.7,84,51.7,81"/></g><g id="Layer_3"/></svg>