<?xml version="1.0" encoding="utf-8"?><!DOCTYPE svg PUBLIC "-//W3C//DTD SVG 1.1//EN" "http://www.w3.org/Graphics/SVG/1.1/DTD/svg11.dtd"><svg version="1.1" id="Layer_1" xmlns="http://www.w3.org/2000/svg" xmlns:xlink="http://www.w3.org/1999/xlink" x="0px" y="0px" width="150px" height="150px" viewBox="0 0 150 150" enable-background="new 0 0 150 150" xml:space="preserve"><text transform="matrix(1 0 0 1 86.6035 19.8838)" opacity="0.36" font-family="'MuseoSansRounded-300'" font-size="12.227">ear</text><rect x="85.3" y="18" fill="#2D2D2D" width="16.5" height="43.7"/><path fill="#2D2D2D" d="M117.8,138.8V64.7c0-13.3-10.9-24.2-24.2-24.2h0c-13.3,0-24.2,10.9-24.2,24.2v74.2c0,2.6,2.1,4.7,4.7,4.7	h39.1C115.7,143.5,117.8,141.4,117.8,138.8z"/><rect x="83.3" y="5.3" fill="#963330" width="20.7" height="9.6"/><rect x="85.3" y="14.3" fill="#963330" width="16.5" height="8"/><ellipse opacity="0.44" fill="#FFFFFF" cx="93.8" cy="51.1" rx="10.2" ry="6.5"/><rect x="85.3" y="14.9" fill="#842C2C" width="16.5" height="3.1"/><g><path fill="#BCBCBC" d="M2.6,111.6v-5.4c0-11.1,9-20,20-20H40c11.1,0,20,9,20,20v5.4c0,11.1-9,20-20,20H22.6 C11.6,131.6,2.6,122.6,2.6,111.6z M22.6,93.4c-7.1,0-12.8,5.7-12.8,12.8v5.4c0,7.1,5.7,12.8,12.8,12.8H40c7.1,0,12.8-5.7,12.8-12.8 v-5.4c0-7.1-5.7-12.8-12.8-12.8H22.6z"/></g><path fill="#BCBCBC" d="M78.8,80.6v54.9c0,4.4-3.6,8-8,8H30c-4.4,0-8-3.6-8-8V80.6H78.8z"/><path fill="#EA882F" d="M34,135.1h32.8c4.8,0,8.7-3.9,8.7-8.7V77.7H25.3v48.7C25.3,131.2,29.2,135.1,34,135.1z"/><path fill="#FF9D3B" d="M63.4,71.5c3.3,0,6,2.7,6,6v42.9c0,3.3-2.7,6-6,6c-3.3,0-6-2.7-6-6V77.6C57.4,74.2,60.1,71.5,63.4,71.5z"/><path fill="#E07924" d="M29.6,97.1c2.3,0,4.2,1.9,4.2,4.2v26.6c0,2.3-1.9,4.2-4.2,4.2s-4.2-1.9-4.2-4.2v-26.6	C25.3,99,27.2,97.1,29.6,97.1z"/><path fill="#FFFFFF" d="M22,73.6c0-5.3,4.3-9.5,9.5-9.5h37.7c5.3,0,9.5,4.3,9.5,9.5v7H45.8v6c0,2.6-2.1,4.7-4.7,4.7h0	c-2.6,0-4.7-2.1-4.7-4.7v-1.9c-0.8,1.4-2.3,2.4-4.1,2.4c-2.6,0-4.7-2.1-4.7-4.7v-1.9H22V73.6z"/><path fill="#CCCCCC" d="M37.9,136.7h26.3c1.3,0,2.3,1,2.3,2.3c0,1.3-1,2.3-2.3,2.3H37.9c-1.3,0-2.3-1-2.3-2.3	C35.5,137.7,36.6,136.7,37.9,136.7z"/><circle fill="#F0F0F0" cx="38.1" cy="70.2" r="2.1"/><circle fill="#F0F0F0" cx="46.3" cy="73.6" r="2.9"/><circle fill="#F0F0F0" cx="62.8" cy="69.5" r="1.8"/><polygon fill="#BCBCBC" points="147.5,77.5 114.7,118.2 81.9,77.5"/><rect x="111.6" y="89.4" fill="#BCBCBC" width="6.2" height="54.1"/><path fill="#FFFFFF" d="M135.7,86.2l-17.3,21.5c-1.9,2.3-5.4,2.3-7.3,0L93.7,86.2H135.7z"/><path fill="#BCBCBC" d="M135.5,143.5H93.8c-1.1,0-2-0.9-2-2v-1c0-1.1,0.9-2,2-2h41.7c1.1,0,2,0.9,2,2v1	C137.5,142.6,136.6,143.5,135.5,143.5z"/><path fill="#C19B7C" d="M112.5,103.4L112,103c-0.5-0.4-0.6-1.2-0.2-1.8l31.4-38.6c0.4-0.5,1.2-0.6,1.8-0.2l0.5,0.4	c0.5,0.4,0.6,1.2,0.2,1.8l-31.4,38.6C113.8,103.7,113,103.8,112.5,103.4z"/><circle fill="#75B70D" cx="119.1" cy="94.7" r="5.9"/><circle fill="#D33131" cx="119.1" cy="93.4" r="3.5"/></svg>