<?xml version="1.0" encoding="utf-8"?><!DOCTYPE svg PUBLIC "-//W3C//DTD SVG 1.1//EN" "http://www.w3.org/Graphics/SVG/1.1/DTD/svg11.dtd"><svg version="1.1" id="Layer_1" xmlns="http://www.w3.org/2000/svg" xmlns:xlink="http://www.w3.org/1999/xlink" x="0px" y="0px" width="150px" height="150px" viewBox="0 0 150 150" enable-background="new 0 0 150 150" xml:space="preserve"><path fill="#282828" d="M76.8,139.3V133c0-19.9,16.1-36,36-36h0c19.9,0,36,16.1,36,36v6.2"/><path fill="#FFA792" d="M112.8,74.8c-6.7,0-12.2,5.5-12.2,12.2v14.6c0,6.7,5.5,12.2,12.2,12.2c6.7,0,12.2-5.5,12.2-12.2V87	C125,80.3,119.5,74.8,112.8,74.8z"/><ellipse fill="#FFA792" cx="83.9" cy="68.1" rx="7.3" ry="6.9"/><ellipse fill="#FFA792" cx="141.4" cy="68.1" rx="7.3" ry="6.9"/><path fill="#FFB5A1" d="M83.9,49.3v23.6c0,14.9,13,27,28.9,27h0c15.9,0,28.9-12.2,28.9-27V49.3"/><circle fill="#AA6DA3" cx="97.4" cy="62.8" r="8.4"/><ellipse fill="#91538C" cx="97.4" cy="62.8" rx="3.6" ry="3.3"/><ellipse fill="#EA9486" cx="128.2" cy="62.8" rx="3.6" ry="3.3"/><rect x="108.1" y="56.8" fill="#FF9D8A" width="9.5" height="11.3"/><path fill="#D86B60" d="M98.3,74.1c0,7.5,6.5,13.5,14.5,13.5s14.5-6.1,14.5-13.5"/><path fill="#FFFFFF" d="M126.4,78.8H99.2c-0.6-1.5-0.9-3-0.9-4.7h28.9C127.3,75.7,126.9,77.3,126.4,78.8z"/><rect x="116.5" y="74.1" fill="#D86B60" width="4.5" height="6.3"/><polygon fill="#FFCE00" points="134.3,18.9 127.1,23.6 119.9,18.9 112.7,23.6 105.5,18.9 98.3,23.6 91.1,18.9 83.9,23.6 83.9,49.3 141.4,49.3 141.4,23.6 141.5,23.6"/><path fill="#FF7DD5" d="M44.6,14.9c-2.7,0-5,1.5-6.2,3.6l-13-7.5V33l13-7.5c1.2,2.2,3.5,3.6,6.2,3.6c2.6,0,4.9-1.4,6.2-3.6L63.7,33	V11l-12.9,7.5C49.6,16.3,47.3,14.9,44.6,14.9z"/><path fill="#FF7DD5" d="M8.9,139.3v-6.2c0-19.8,16-35.8,35.8-35.8h0c19.8,0,35.8,16,35.8,35.8v6.2"/><path fill="#3B1E18" d="M21.2,81.9v-5.7v-4.7V32.9c-11.1,0-20,9-20,20v2.9v19v27.2C12.3,101.9,21.2,93,21.2,81.9z"/><path fill="#3B1E18" d="M44.6,89.1L44.6,89.1C28.8,89.1,16,76.4,16,60.6v-11C16,33.8,28.8,21,44.6,21h0c15.8,0,28.6,12.8,28.6,28.6	v11C73.1,76.4,60.4,89.1,44.6,89.1z"/><path fill="#763627" d="M44.7,75.2c-6.7,0-12.1,5.4-12.1,12.1v14.5c0,6.7,5.4,12.1,12.1,12.1s12.1-5.4,12.1-12.1V87.3	C56.8,80.6,51.4,75.2,44.7,75.2z"/><ellipse fill="#763627" cx="16" cy="68.6" rx="7.3" ry="6.8"/><ellipse fill="#763627" cx="73.1" cy="68.6" rx="7.3" ry="6.8"/><path fill="#783F30" d="M16,49.9v23.4c0,14.8,12.9,26.9,28.7,26.9h0c15.8,0,28.7-12.1,28.7-26.9V49.9"/><ellipse fill="#612C23" cx="30.3" cy="63.3" rx="3.6" ry="3.3"/><ellipse fill="#612C23" cx="59.1" cy="63.3" rx="3.6" ry="3.3"/><rect x="40" y="57.3" fill="#672B21" width="9.4" height="11.2"/><path fill="#571413" d="M30.3,74.5C30.3,82,36.8,88,44.7,88s14.4-6,14.4-13.4"/><path fill="#FFFFFF" d="M58.2,79.2H31.2c-0.6-1.4-0.9-3-0.9-4.6h28.7C59.1,76.2,58.7,77.7,58.2,79.2z"/></svg>