<?xml version="1.0" encoding="utf-8"?><!DOCTYPE svg PUBLIC "-//W3C//DTD SVG 1.1//EN" "http://www.w3.org/Graphics/SVG/1.1/DTD/svg11.dtd"><svg version="1.1" id="Layer_1" xmlns="http://www.w3.org/2000/svg" xmlns:xlink="http://www.w3.org/1999/xlink" x="0px" y="0px" width="150px" height="150px" viewBox="0 0 150 150" enable-background="new 0 0 150 150" xml:space="preserve"><rect x="32.5" y="29.6" fill="#A34F34" width="7.3" height="53.6"/><rect x="28.5" y="79" fill="#C1623D" width="10.6" height="52.9"/><rect x="70.2" y="79" fill="#C1623D" width="10.6" height="52.9"/><rect x="65.4" y="29.6" fill="#A34F34" width="7.3" height="53.6"/><rect x="49" y="29.6" fill="#A34F34" width="7.3" height="53.6"/><rect x="75.5" y="79" fill="#A34F34" width="5.3" height="52.9"/><rect x="33.8" y="79" fill="#A34F34" width="5.3" height="52.9"/><rect x="111.9" y="79" fill="#A34F34" width="10.6" height="52.9"/><rect x="28.5" y="79.6" fill="#C1623D" width="94" height="7.2"/><rect x="25.2" y="74.2" fill="#C1623D" width="100.8" height="6.3"/><rect x="75.5" y="74.2" fill="#A34F34" width="50.5" height="6.3"/><rect x="75.5" y="80.6" fill="#A34F34" width="47" height="6.3"/><path fill="#A34F34" d="M74.9,18.7H27.1c-2.1,0-3.9,1.7-3.9,3.9v11c0,2.1,1.7,3.9,3.9,3.9h47.7c2.1,0,3.9-1.7,3.9-3.9v-11	C78.7,20.4,77,18.7,74.9,18.7z"/><path fill="#C1623D" d="M27,18.7h-0.3c-1.9,0-3.5,1.5-3.5,3.5V34c0,1.9,1.5,3.5,3.5,3.5H27c1.9,0,3.5-1.5,3.5-3.5V22.2	C30.5,20.2,29,18.7,27,18.7z"/><rect x="31.4" y="108" fill="#C1623D" width="42" height="7.3"/><rect x="77.3" y="95.5" fill="#A34F34" width="42" height="7.3"/></svg>