<?xml version="1.0" encoding="utf-8"?><!DOCTYPE svg PUBLIC "-//W3C//DTD SVG 1.1//EN" "http://www.w3.org/Graphics/SVG/1.1/DTD/svg11.dtd"><svg version="1.1" xmlns="http://www.w3.org/2000/svg" xmlns:xlink="http://www.w3.org/1999/xlink" x="0px" y="0px" width="150px" height="150px" viewBox="0 0 150 150" enable-background="new 0 0 150 150" xml:space="preserve"><g id="Layer_2" display="none"><rect y="-680" display="inline" fill="#F0F0F0" width="1680" height="1677.3"/></g><g id="Layer_1"><path fill="#F98E00" d="M127.3,56.7H65.6c-4,0-7.2-3.2-7.2-7.2v0c0-4,3.2-7.2,7.2-7.2h61.8c4,0,7.2,3.2,7.2,7.2v0 C134.5,53.5,131.3,56.7,127.3,56.7z"/><path fill="#F98E00" d="M131,69.4H62.3c-4,0-7.2-3.2-7.2-7.2v0c0-4,3.2-7.2,7.2-7.2H131c4,0,7.2,3.2,7.2,7.2v0 C138.2,66.2,135,69.4,131,69.4z"/><path fill="#F98E00" d="M135.2,82.7H59c-4,0-7.2-3.2-7.2-7.2v0c0-4,3.2-7.2,7.2-7.2h76.2c4,0,7.2,3.2,7.2,7.2v0 C142.3,79.5,139.1,82.7,135.2,82.7z"/><path fill="#D33131" d="M55.4,142.5v-7c0-22.4,18.2-40.6,40.6-40.6h0c22.4,0,40.6,18.2,40.6,40.6v7"/><rect x="64.9" y="130.4" fill="#0C71A3" width="62.4" height="12.1"/><polygon fill="#FF9D8A" points="105.4,108.5 96.1,117.4 86.8,108.5"/><path fill="#1980BA" d="M71.6,137.7L71.6,137.7c-3.7,0-6.7-3-6.7-6.7v-29.6c0-0.7,0.6-1.3,1.3-1.3H77c0.7,0,1.3,0.6,1.3,1.3V131 C78.2,134.7,75.3,137.7,71.6,137.7z"/><path fill="#1980BA" d="M120.7,137.7L120.7,137.7c-3.7,0-6.6-3-6.6-6.6v-29.6c0-0.7,0.6-1.3,1.3-1.3h10.7c0.7,0,1.3,0.6,1.3,1.3 v29.6C127.3,134.7,124.4,137.7,120.7,137.7z"/><path fill="#AD2727" d="M116.6,124.1v-18c0-11.4-9.3-20.7-20.7-20.7h0c-11.4,0-20.7,9.3-20.7,20.7v18l20.9-6.8L116.6,124.1z"/><polygon fill="#FFFFFF" points="106.4,106.9 96.1,116.6 85.9,106.9"/><circle fill="#FFB600" cx="71.6" cy="131.5" r="3.3"/><circle fill="#FFB600" cx="120.7" cy="131.5" r="3.3"/><path fill="#FF9D8A" d="M96.1,111.6L96.1,111.6c-7.6,0-13.7-6.1-13.7-13.7v-10c0-7.6,6.1-13.7,13.7-13.7h0 c7.6,0,13.7,6.1,13.7,13.7v10C109.8,105.5,103.7,111.6,96.1,111.6z"/><rect x="19" y="112.1" fill="#FF9D8A" width="24.7" height="30.3"/><rect x="19" y="124.1" fill="#D33131" width="24.7" height="18.3"/><rect x="24.1" y="81.7" fill="#AD6A27" width="10.1" height="60.6"/><path fill="#FFB5A1" d="M32.8,130.7H19.2c-2.7,0-5-2.2-5-5v0c0-2.7,2.2-5,5-5h13.6c2.7,0,5,2.2,5,5v0 C37.8,128.5,35.6,130.7,32.8,130.7z"/><path fill="#FFB5A1" d="M37.5,118.3L37.5,118.3c-3.4,0-6.2-2.8-6.2-6.1v-0.1c0-3.4,2.8-6.1,6.1-6.1h0.1c3.4,0,6.1,2.8,6.1,6.1v0.1 C43.6,115.5,40.9,118.3,37.5,118.3z"/><path fill="#FFB5A1" d="M32.8,112.6H19.2c-2.7,0-5-2.2-5-5v0c0-2.7,2.2-5,5-5h13.6c2.7,0,5,2.2,5,5v0 C37.8,110.4,35.6,112.6,32.8,112.6z"/><path fill="#FFB5A1" d="M32.8,121.7H19.2c-2.7,0-5-2.2-5-5v0c0-2.7,2.2-5,5-5h13.6c2.7,0,5,2.2,5,5v0 C37.8,119.4,35.6,121.7,32.8,121.7z"/><path fill="none" stroke="#B7B7B7" stroke-width="4.5849" stroke-linecap="round" stroke-miterlimit="10" d="M55.3,11.8v39.1 c0,8.1-6.6,14.7-14.7,14.7H17.8c-8.1,0-14.7-6.6-14.7-14.7V11.8"/><line fill="none" stroke="#B7B7B7" stroke-width="4.5849" stroke-linecap="round" stroke-miterlimit="10" x1="29.2" y1="11.8" x2="29.2" y2="71.2"/><path fill="#B7B7B7" d="M29.2,60c-3.1,0-5.6,2.5-5.6,5.6v22.2h11.2V65.6C34.8,62.5,32.3,60,29.2,60z"/><path fill="#D6D6D6" d="M25.5,87.8V68.5c0-0.9,0.7-1.6,1.6-1.6h0c0.9,0,1.6,0.7,1.6,1.6v19.3"/><circle fill="#FF9D8A" cx="125.8" cy="60" r="6.9"/><circle fill="#FF9D8A" cx="66.9" cy="60" r="6.9"/><path fill="#FFB5A1" d="M96.3,96.4L96.3,96.4c-16.3,0-29.6-13.2-29.6-29.6V48.5c0-16.3,13.2-29.6,29.6-29.6h0 c16.3,0,29.6,13.2,29.6,29.6v18.4C125.9,83.2,112.7,96.4,96.3,96.4z"/><circle fill="#EA9486" cx="81.1" cy="53" r="3.7"/><circle fill="#EA9486" cx="111.5" cy="53" r="3.7"/><path fill="#B2473B" d="M111.5,67.1c0,8.4-6.8,15.1-15.1,15.1s-15.1-6.8-15.1-15.1"/><path fill="#FFFFFF" d="M82,71.9h28.7c0.5-1.5,0.8-3.1,0.8-4.8H81.2C81.2,68.8,81.5,70.4,82,71.9z"/><path fill="#CC4F46" d="M105.2,79.4c-2.1-2.6-5.2-4.2-8.8-4.2h0c-3.6,0-6.7,1.7-8.8,4.3c2.5,1.8,5.5,2.8,8.8,2.8 C99.7,82.2,102.7,81.2,105.2,79.4z"/><path fill="#FF9D8A" d="M99.8,62.8h-6.9c-0.8,0-1.5-0.7-1.5-1.5V50.8c0-0.8,0.7-1.5,1.5-1.5h6.9c0.8,0,1.5,0.7,1.5,1.5v10.5 C101.3,62.1,100.6,62.8,99.8,62.8z"/><path fill="#935822" d="M66.3,43.9v-7.4c0-16.4,13.4-29.7,29.7-29.7h0c16.4,0,29.7,13.4,29.7,29.7v7.4"/><path fill="#AD6A27" d="M146.7,24.4c0,11.5-9.4,20.9-20.9,20.9H67.1c-11.5,0-20.9-9.4-20.9-20.9"/><path fill="#9E5C26" d="M94.2,21.6H78.2c-0.8,0-1.5-0.7-1.5-1.5v0c0-0.8,0.7-1.5,1.5-1.5h16.1c0.8,0,1.5,0.7,1.5,1.5v0 C95.7,20.9,95.1,21.6,94.2,21.6z"/><path fill="#9E5C26" d="M75.9,33.5H59.8c-0.8,0-1.5-0.7-1.5-1.5v0c0-0.8,0.7-1.5,1.5-1.5h16.1c0.8,0,1.5,0.7,1.5,1.5v0 C77.4,32.8,76.7,33.5,75.9,33.5z"/><path fill="#9E5C26" d="M100.7,40.8H84.6c-0.8,0-1.5-0.7-1.5-1.5l0,0c0-0.8,0.7-1.5,1.5-1.5l16.1,0c0.8,0,1.5,0.7,1.5,1.5l0,0 C102.2,40.2,101.5,40.8,100.7,40.8z"/><path fill="#9E5C26" d="M146.5,32.6h-16.1c-0.8,0-1.5-0.7-1.5-1.5v0c0-0.8,0.7-1.5,1.5-1.5h16.1c0.8,0,1.5,0.7,1.5,1.5v0 C148,31.9,147.3,32.6,146.5,32.6z"/><path fill="#9E5C26" d="M115.3,14.2H99.3c-0.8,0-1.5-0.7-1.5-1.5v0c0-0.8,0.7-1.5,1.5-1.5h16.1c0.8,0,1.5,0.7,1.5,1.5v0 C116.8,13.6,116.2,14.2,115.3,14.2z"/></g><g id="Layer_3"/></svg>