<?xml version="1.0" encoding="utf-8"?><!DOCTYPE svg PUBLIC "-//W3C//DTD SVG 1.1//EN" "http://www.w3.org/Graphics/SVG/1.1/DTD/svg11.dtd"><svg version="1.1" id="Layer_1" xmlns="http://www.w3.org/2000/svg" xmlns:xlink="http://www.w3.org/1999/xlink" x="0px" y="0px" width="150px" height="150px" viewBox="0 0 150 150" enable-background="new 0 0 150 150" xml:space="preserve"><path fill="none" stroke="#68331E" stroke-width="4" stroke-linecap="round" stroke-linejoin="round" stroke-miterlimit="10" d="M11,116.4V99.9c0-6.3,5.1-11.4,11.4-11.4h0"/><line fill="none" stroke="#8E8E8E" stroke-width="4" stroke-linecap="round" stroke-linejoin="round" stroke-miterlimit="10" x1="131.4" y1="10.5" x2="131.4" y2="138.5"/><polyline fill="none" stroke="#8E8E8E" stroke-width="4" stroke-linecap="round" stroke-linejoin="round" stroke-miterlimit="10" points="122.6,18 131.4,9.2 140.3,18"/><polyline fill="none" stroke="#8E8E8E" stroke-width="4" stroke-linecap="round" stroke-linejoin="round" stroke-miterlimit="10" points="122.6,133.2 131.4,142 140.3,133.2"/><path fill="#FFA300" d="M82.3,15.8L82.3,15.8c-1.2,1.4-3.3,1.6-4.7,0.4l-7.6-6.4c-1.4-1.2-1.6-3.3-0.4-4.7v0	c1.2-1.4,3.3-1.6,4.7-0.4l7.6,6.4C83.3,12.3,83.5,14.4,82.3,15.8z"/><path fill="#FFD96E" d="M111.6,23.4l-4.5-2.5c-0.4-0.3-0.9-0.7-1.3-0.9l-11.1-6.3v0c0-3.1-2.5-5.6-5.6-5.6H83c-0.1,0-0.1,0-0.2,0	c-3.1-0.1-6.3,1.5-7.9,4.4c-1,1.8-1.3,3.7-1,5.6h-9.7c0,4.1,3.3,7.4,7.4,7.4c1,0,1.9-0.2,2.7-0.5v2.2L55.6,82H31.5	c-9.4,0-17,7.6-17,17v46h7.8v-19.8c0.2,0,0.4,0,0.6,0c4.6,0,8.4-3.8,8.4-8.4V116c0.1,0,0.1,0,0.2,0h27.6v6H59	c-1.8,0-3.3,1.5-3.3,3.3s1.5,3.3,3.3,3.3h0.1v12.5c0,2.2,1.7,3.9,3.9,3.9c2.2,0,3.9-1.7,3.9-3.9v-12.5h0.1c1.8,0,3.3-1.5,3.3-3.3	s-1.5-3.3-3.3-3.3h-0.1v-7.8c5.5-2.8,9.3-8.5,9.3-15.2c0-3.3-0.9-6.3-2.5-8.9l19.5-57.2l4,2.3c4.1,2.4,9.4,0.9,11.8-3.1l5.9,3.4	C117.2,31.2,115.8,25.8,111.6,23.4z"/><path fill="#D38200" d="M93,18c0,1.9-1.6,3.5-3.5,3.5c-1.9,0-3.5-1.6-3.5-3.5"/><path fill="#FFA300" d="M82.1,49.4L77,47.7c-2.2-0.8-3.5-3.2-2.7-5.5v0c0.8-2.2,3.2-3.5,5.5-2.7l5.1,1.7c2.2,0.8,3.5,3.2,2.7,5.5v0	C86.9,49,84.4,50.2,82.1,49.4z"/><path fill="#FFA300" d="M75.3,57.6L75.3,57.6c1.1-3.1-0.6-6.6-3.8-7.7L67,48.4l-3.9,11.4l4.5,1.5C70.8,62.5,74.2,60.8,75.3,57.6z"/><path fill="#FFA300" d="M75.4,69.5c-3.1-1.1-6.6,0.6-7.7,3.8c-1.1,3.1,0.6,6.6,3.8,7.7l4.8,1.6l3.9-11.4L75.4,69.5z"/><path fill="#FFA300" d="M36.8,100.5h-7.5c-3.3,0-6-2.7-6-6v0c0-3.3,2.7-6,6-6h7.5c3.3,0,6,2.7,6,6v0	C42.8,97.8,40.1,100.5,36.8,100.5z"/><path fill="#FFA300" d="M58.2,104.5c0,3.3,2.7,6,6,6h7.5c2.8-3,4.5-7.1,4.5-11.5c0-0.2,0-0.4,0-0.6h-12	C60.9,98.4,58.2,101.2,58.2,104.5z"/><path fill="#FFA300" d="M45.7,115.5c0-3.3-2.7-6-6-6H27.2c-3.3,0-6,2.7-6,6s2.7,6,6,6h2.7c0.9-1.3,1.4-2.9,1.4-4.6V116	c0.1,0,0.1,0,0.2,0h14.1C45.7,115.8,45.7,115.7,45.7,115.5z"/><circle fill="#EABF54" cx="110.6" cy="26.8" r="1.8"/><path fill="#CC998B" d="M56.7,145L56.7,145c0-3.5,2.8-6.3,6.3-6.3h2.7c3.5,0,6.3,2.8,6.3,6.3l0,0"/><path fill="#CC998B" d="M11.7,145L11.7,145c0-3.5,2.8-6.3,6.3-6.3h2.7c3.5,0,6.3,2.8,6.3,6.3l0,0"/></svg>