<?xml version="1.0" encoding="utf-8"?><!DOCTYPE svg PUBLIC "-//W3C//DTD SVG 1.1//EN" "http://www.w3.org/Graphics/SVG/1.1/DTD/svg11.dtd"><svg version="1.1" id="Layer_1" xmlns="http://www.w3.org/2000/svg" xmlns:xlink="http://www.w3.org/1999/xlink" x="0px" y="0px" width="150px" height="150px" viewBox="0 0 150 150" enable-background="new 0 0 150 150" xml:space="preserve"><ellipse fill="#FFA792" cx="43.6" cy="65.3" rx="8" ry="7.5"/><ellipse fill="#FFA792" cx="106.5" cy="65.3" rx="8" ry="7.5"/><path fill="#CCCCCC" d="M31,143.1v-7.6c0-24.4,19.8-44.1,44.1-44.1h0c24.4,0,44.1,19.8,44.1,44.1v7.6"/><path fill="#ADADAD" d="M97.4,143.1v-38.5c0-12.3-10.1-22.4-22.4-22.4h0c-12.3,0-22.4,10.1-22.4,22.4v38.5"/><rect x="62.3" y="93.3" fill="#FFFFFF" width="25.6" height="49.8"/><path fill="#FFA792" d="M75.2,73c-7.1,0-12.8,5.8-12.8,12.8v15.4c0,7.1,5.8,12.8,12.8,12.8S88,108.3,88,101.2V85.9	C88,78.8,82.2,73,75.2,73z"/><path fill="#FFB5A1" d="M106.5,42v26.4c0,17.4-14.1,31.6-31.6,31.6h0c-17.4,0-31.6-14.1-31.6-31.6V42"/><rect x="69.8" y="52.9" fill="#FF9D8A" width="10.4" height="12.3"/><path fill="none" stroke="#EA9486" stroke-width="3.1674" stroke-linecap="round" stroke-linejoin="round" stroke-miterlimit="10" d="M85.4,74.5c-2.8,2.2-6.4,3.6-10.3,3.6c-3.9,0-7.6-1.4-10.4-3.7"/><circle opacity="0.52" fill="#EA9486" cx="101.2" cy="74.6" r="1.6"/><circle opacity="0.52" fill="#EA9486" cx="101.2" cy="68.3" r="1.6"/><circle opacity="0.52" fill="#EA9486" cx="95.9" cy="71.5" r="1.6"/><circle opacity="0.52" fill="#EA9486" cx="48.8" cy="74.6" r="1.6"/><circle opacity="0.52" fill="#EA9486" cx="48.8" cy="68.3" r="1.6"/><circle opacity="0.52" fill="#EA9486" cx="54.1" cy="71.5" r="1.6"/><path fill="#BC2E2E" d="M124.9,42H81.5c-1.8,0-3.3-1.5-3.3-3.3v-0.4c0-1.8,1.5-3.3,3.3-3.3h43.4c1.8,0,3.3,1.5,3.3,3.3v0.4	C128.2,40.5,126.7,42,124.9,42z"/><path fill="#D33131" d="M43.4,42c0-17.4,14.1-31.5,31.5-31.5s31.5,14.1,31.5,31.5"/><path fill="#7C3C32" d="M51,35.1c0-7.5,6.1-13.6,13.6-13.6s13.6,6.1,13.6,13.6"/><path fill="#E84D4D" d="M51,41.9h26.8c0.2,0,0.4-0.2,0.4-0.4v-6.1c0-0.2-0.2-0.4-0.4-0.4H51c-1.9,0-3.4,1.5-3.4,3.4v0	C47.6,40.4,49.1,41.9,51,41.9z"/><circle fill="#FF6E6E" cx="73.1" cy="38.7" r="1.1"/><circle fill="#FF6E6E" cx="66.7" cy="38.7" r="1.1"/><circle fill="#FF6E6E" cx="60.4" cy="38.7" r="1.1"/><circle fill="#FF6E6E" cx="53.8" cy="38.7" r="1.1"/><circle fill="#D33131" cx="74.9" cy="11.2" r="3.4"/><path fill="#7C3C32" d="M94,42c0,6.9,5.6,12.5,12.5,12.5V42H94z"/><path fill="#7C3C32" d="M85.6,42c0,5,4,9,9,9v-9H85.6z"/><circle fill="#EA9486" cx="58.1" cy="59.4" r="3.6"/><circle fill="#EA9486" cx="92" cy="59.4" r="3.6"/></svg>