<?xml version="1.0" encoding="utf-8"?><!DOCTYPE svg PUBLIC "-//W3C//DTD SVG 1.1//EN" "http://www.w3.org/Graphics/SVG/1.1/DTD/svg11.dtd"><svg version="1.1" id="Layer_1" xmlns="http://www.w3.org/2000/svg" xmlns:xlink="http://www.w3.org/1999/xlink" x="0px" y="0px" width="150px" height="150px" viewBox="0 0 150 150" enable-background="new 0 0 150 150" xml:space="preserve"><rect x="16" y="79.8" fill="#DB976A" width="118.4" height="67.2"/><rect x="68.8" y="112" fill="#97DCF2" width="49.5" height="29.5"/><path fill="#E2B06F" d="M133.9,75.9h-118c-2.2,0-4,1.8-4,4c0,2.2,1.8,4,4,4h118c2.2,0,4-1.8,4-4C137.9,77.6,136.1,75.9,133.9,75.9z"/><rect x="16" y="135.1" fill="#C16244" width="118.4" height="12"/><rect x="26.8" y="112" fill="#97DCF2" width="23.1" height="35"/><polygon fill="#E53838" points="134.3,89.2 16.1,89.2 2.2,107.3 148.3,107.3"/><rect x="2.2" y="107.3" fill="#BF3232" width="146.1" height="7.2"/><rect x="23" y="107.3" fill="#EAEAEA" width="20.9" height="7.2"/><polygon fill="#FFFFFF" points="43.9,107.3 23,107.3 33.6,89.3 54.4,89.3"/><polygon fill="#FFFFFF" points="106.6,107.3 127.4,107.3 116.9,89.3 96,89.3"/><rect x="64.8" y="107.3" fill="#EAEAEA" width="20.9" height="7.2"/><rect x="106.6" y="107.3" fill="#EAEAEA" width="20.9" height="7.2"/><polygon fill="#FFFFFF" points="83.6,89.3 69,89.3 64.8,107.3 85.7,107.3"/><rect x="114.5" y="137.3" fill="#A8472D" width="7" height="3.2"/><rect x="110.3" y="141.5" fill="#A8472D" width="7" height="3.2"/><rect x="68.3" y="141.5" fill="#A8472D" width="7" height="3.2"/><rect x="76.7" y="141.5" fill="#A8472D" width="7" height="3.2"/><rect x="72.5" y="137.3" fill="#A8472D" width="7" height="3.2"/><g><path fill="#FFAA00" d="M116.6,42.7c0-23-18.6-41.6-41.6-41.6S33.4,19.7,33.4,42.7c0,14.4,7.4,27.1,18.5,34.6L75,97.6l23.1-20.4 C109.2,69.8,116.6,57.1,116.6,42.7z"/></g><path fill="#FFFFFF" d="M94.3,37.9c0-9.2-4.4-17.3-11.2-22.4v11.7h0v42.6c0,1.2,1,2.2,2.2,2.2l0,0c1.2,0,2.2-1,2.2-2.2V56.3	C91.7,51.4,94.3,44.9,94.3,37.9z"/><path fill="#FFFFFF" d="M72.8,18.6c-1.2,0-2.2,1-2.2,2.2v12.3c-0.1,0.4-0.5,0.7-0.9,0.7c-0.5,0-0.9-0.4-0.9-0.9V20.7	c0-1.2-1-2.2-2.2-2.2h0c-1.2,0-2.2,1-2.2,2.2V33c0,0.5-0.4,0.8-0.9,0.8c-0.5,0-0.8-0.3-0.9-0.8V20.8c0-1.2-1-2.2-2.2-2.2h0	c-1.2,0-2.2,1-2.2,2.2v16.5c0,3.3,2,6.2,4.8,7.5c0.8,0.4,1.3,1.1,1.3,2v23.1c0,1.2,1,2.2,2.2,2.2h0c1.2,0,2.2-1,2.2-2.2V46.8	c0-0.9,0.5-1.6,1.3-2c2.8-1.3,4.8-4.2,4.8-7.5V20.8C75,19.6,74,18.6,72.8,18.6L72.8,18.6z"/></svg>