<?xml version="1.0" encoding="utf-8"?><!DOCTYPE svg PUBLIC "-//W3C//DTD SVG 1.1//EN" "http://www.w3.org/Graphics/SVG/1.1/DTD/svg11.dtd"><svg version="1.1" xmlns="http://www.w3.org/2000/svg" xmlns:xlink="http://www.w3.org/1999/xlink" x="0px" y="0px" width="150px" height="150px" viewBox="0 0 150 150" enable-background="new 0 0 150 150" xml:space="preserve"><g id="Layer_2" display="none"><rect x="-850" y="-510" display="inline" fill="#F0F0F0" width="1680" height="1677.3"/></g><g id="Layer_1"><rect x="107.9" y="44" fill="#A5A5A5" width="41.3" height="102.8"/><rect x="82.5" y="72.1" fill="#B5B5B5" width="41.3" height="74.7"/><rect x="89.3" y="100.9" fill="#96EDE0" width="9.1" height="12.2"/><rect x="89.3" y="122.3" fill="#96EDE0" width="9.1" height="12.2"/><path fill="#005C9B" d="M21.5,146.8V140c0-21.9,17.7-39.6,39.6-39.6h0c21.9,0,39.6,17.7,39.6,39.6v6.8"/><path fill="#0071AF" d="M38.2,146.8v-35.9c0-12.5,10.2-22.7,22.7-22.7h0c12.5,0,22.7,10.2,22.7,22.7l0,35.9"/><rect x="50.3" y="102.3" fill="#FFFFFF" width="21.7" height="44.5"/><polygon fill="#3D3D3D" points="67.4,119.5 61.1,130.3 54.9,119.5"/><polygon fill="#3D3D3D" points="54.9,146.8 61.1,121.7 67.4,146.8"/><path fill="#FFFFFF" d="M76.8,124.6v-13.7c0-8.7-7.1-15.7-15.7-15.7h0c-8.7,0-15.7,7.1-15.7,15.7v13.7l15.9-5.1L76.8,124.6z"/><polygon fill="#753629" points="69.2,111.7 61.2,119.5 53.2,111.7"/><path fill="#753629" d="M61.4,115.2h-0.5c-5.8,0-10.6-4.7-10.6-10.6V91.1c0-5.8,4.7-10.6,10.6-10.6h0.5c5.8,0,10.6,4.7,10.6,10.6 v13.6C72,110.5,67.3,115.2,61.4,115.2z"/><g><ellipse fill="#753629" cx="32.6" cy="65.5" rx="7" ry="6.6"/></g><g><ellipse fill="#753629" cx="89.2" cy="65.5" rx="7" ry="6.6"/></g><g><path fill="#773F32" d="M61.6,100.3h-1.4C45,100.3,32.6,88,32.6,72.8V53.8c0-15.2,12.3-27.6,27.6-27.6h1.4 c15.2,0,27.6,12.3,27.6,27.6v18.9C89.2,88,76.8,100.3,61.6,100.3z"/></g><path fill="#6B382E" d="M32.6,72.1c0,15.6,12.7,28.2,28.3,28.2h0c15.6,0,28.2-12.6,28.3-28.2H32.6z"/><g><path fill="#3A0D0D" d="M75.7,72.5c0,8.2-6.6,14.8-14.8,14.8l0,0c-8.2,0-14.8-6.6-14.8-14.8H75.7z"/></g><path fill="#6B382E" d="M78.5,76.2h-35c-2.2,0-3.9-1.8-3.9-3.9v-0.2c0-2.2,1.8-3.9,3.9-3.9h35c2.2,0,3.9,1.8,3.9,3.9v0.2 C82.4,74.4,80.7,76.2,78.5,76.2z"/><g><path fill="#FFFFFF" d="M47,77.3h28c0.5-1.5,0.8-3.1,0.8-4.8H46.2C46.2,74.2,46.5,75.8,47,77.3z"/></g><g><circle fill="#562722" cx="46.5" cy="58.9" r="3.5"/></g><g><circle fill="#562722" cx="75.6" cy="58.9" r="3.5"/></g><g><path fill="#571413" d="M69.2,84.8c-2-2.3-4.9-3.8-8.2-3.8l0,0c-3.3,0-6.3,1.5-8.3,3.8c2.3,1.6,5.2,2.5,8.2,2.5 C64,87.3,66.9,86.4,69.2,84.8z"/></g><g><rect x="56.4" y="55.4" fill="#662B23" width="9.3" height="12.8"/></g><path fill="#FFCE00" d="M92.8,45.8c0-17.5-14.2-31.7-31.7-31.7S29.4,28.3,29.4,45.8l-2.4,6.1h68.1L92.8,45.8z"/><polygon fill="#FFCE00" points="16.7,131.2 6.3,131.2 6.3,79.2 11.5,68 16.7,79.2"/><rect x="55.1" y="12.7" fill="#FFBC00" width="12.2" height="33.1"/><rect x="133.3" y="51.4" fill="#96EDE0" width="9.1" height="12.2"/><rect x="114.7" y="51.4" fill="#96EDE0" width="9.1" height="12.2"/><rect x="133.3" y="72.9" fill="#96EDE0" width="9.1" height="12.2"/><rect x="133.3" y="94.8" fill="#96EDE0" width="9.1" height="12.2"/><rect x="133.3" y="116.6" fill="#96EDE0" width="9.1" height="12.2"/><path fill="#FFBC00" d="M80,18.7c-2.8-2.1-5.9-3.7-9.2-4.8v22.6H80V18.7z"/><path fill="#FFBC00" d="M42,18.7c2.8-2.1,5.9-3.7,9.2-4.8v22.6H42V18.7z"/><rect x="16.7" y="119.1" fill="#753629" width="11.2" height="27.6"/><rect x="5.4" y="138.5" fill="#005C9B" width="22.6" height="8.3"/><rect x="5.4" y="130.1" fill="#FFFFFF" width="22.5" height="8.3"/><polygon fill="#FFBC00" points="11.5,131.2 16.7,131.2 16.7,79.2 16.3,78.3 11.5,78.3"/><path fill="#773F32" d="M18.2,136H5.5c-2.4,0-4.4-2-4.4-4.4v-0.2c0-2.4,2-4.4,4.4-4.4h12.7c2.4,0,4.4,2,4.4,4.4v0.2 C22.6,134,20.6,136,18.2,136z"/><path fill="#753629" d="M22.4,124.7h-0.3c-3,0-5.5-2.5-5.5-5.5v-0.3c0-3,2.5-5.5,5.5-5.5h0.3c3,0,5.5,2.5,5.5,5.5v0.3 C27.9,122.2,25.4,124.7,22.4,124.7z"/><path fill="#773F32" d="M18.2,119.5H5.5c-2.4,0-4.4-2-4.4-4.4v-0.2c0-2.4,2-4.4,4.4-4.4h12.7c2.4,0,4.4,2,4.4,4.4v0.2 C22.6,117.5,20.6,119.5,18.2,119.5z"/><path fill="#773F32" d="M18.2,127.8H5.5c-2.4,0-4.4-2-4.4-4.4v-0.2c0-2.4,2-4.4,4.4-4.4h12.7c2.4,0,4.4,2,4.4,4.4v0.2 C22.6,125.8,20.6,127.8,18.2,127.8z"/><polygon fill="#C69C77" points="6.3,79.2 11.5,68 16.7,79.2 11.5,85.5"/><polygon fill="#303030" points="11.5,68 8.9,73.7 14.2,73.7"/><rect x="107.9" y="79.4" fill="#96EDE0" width="9.1" height="12.2"/><rect x="89.3" y="79.4" fill="#96EDE0" width="9.1" height="12.2"/><rect x="107.9" y="100.9" fill="#96EDE0" width="9.1" height="12.2"/><rect x="107.9" y="122.3" fill="#96EDE0" width="9.1" height="12.2"/></g><g id="Layer_3"/></svg>