<?xml version="1.0" encoding="utf-8"?><!DOCTYPE svg PUBLIC "-//W3C//DTD SVG 1.1//EN" "http://www.w3.org/Graphics/SVG/1.1/DTD/svg11.dtd"><svg version="1.1" id="Layer_1" xmlns="http://www.w3.org/2000/svg" xmlns:xlink="http://www.w3.org/1999/xlink" x="0px" y="0px" width="150px" height="150px" viewBox="0 0 150 150" enable-background="new 0 0 150 150" xml:space="preserve"><rect x="22.4" y="40.3" fill="#D33131" width="105.8" height="69.3"/><g><path fill="#A52828" d="M120.7,47.8V102H29.9V47.8H120.7 M128.2,40.3H22.4v69.3h105.8V40.3L128.2,40.3z"/></g><path fill="#FFCC3E" d="M15.2,42.3l-11,0c-1,0-1.9-0.8-1.9-1.9v0c0-1,0.8-1.9,1.9-1.9h11c1,0,1.9,0.8,1.9,1.9v0	C17.1,41.4,16.2,42.3,15.2,42.3z"/><path fill="#FFCC3E" d="M15.2,53.8h-11c-1,0-1.9-0.8-1.9-1.9v0c0-1,0.8-1.9,1.9-1.9h11c1,0,1.9,0.8,1.9,1.9v0	C17.1,52.9,16.2,53.8,15.2,53.8z"/><path fill="#FFCC3E" d="M15.2,65.3h-11c-1,0-1.9-0.8-1.9-1.9v0c0-1,0.8-1.9,1.9-1.9h11c1,0,1.9,0.8,1.9,1.9v0	C17.1,64.4,16.2,65.3,15.2,65.3z"/><path fill="#FFCC3E" d="M15.2,76.8h-11c-1,0-1.9-0.8-1.9-1.9v0c0-1,0.8-1.9,1.9-1.9h11c1,0,1.9,0.8,1.9,1.9v0	C17.1,75.9,16.2,76.8,15.2,76.8z"/><path fill="#FFCC3E" d="M15.2,88.3h-11c-1,0-1.9-0.8-1.9-1.9l0,0c0-1,0.8-1.9,1.9-1.9h11c1,0,1.9,0.8,1.9,1.9l0,0	C17.1,87.5,16.2,88.3,15.2,88.3z"/><path fill="#FFCC3E" d="M15.2,99.8h-11c-1,0-1.9-0.8-1.9-1.9v0c0-1,0.8-1.9,1.9-1.9h11c1,0,1.9,0.8,1.9,1.9v0	C17.1,99,16.2,99.8,15.2,99.8z"/><path fill="#FFCC3E" d="M15.2,111.3h-11c-1,0-1.9-0.8-1.9-1.9l0,0c0-1,0.8-1.9,1.9-1.9h11c1,0,1.9,0.8,1.9,1.9l0,0	C17.1,110.5,16.2,111.3,15.2,111.3z"/><path fill="#FFCC3E" d="M147,42.3l-11,0c-1,0-1.9-0.8-1.9-1.9v0c0-1,0.8-1.9,1.9-1.9h11c1,0,1.9,0.8,1.9,1.9v0	C148.8,41.4,148,42.3,147,42.3z"/><path fill="#FFCC3E" d="M147,53.8h-11c-1,0-1.9-0.8-1.9-1.9v0c0-1,0.8-1.9,1.9-1.9h11c1,0,1.9,0.8,1.9,1.9v0	C148.8,52.9,148,53.8,147,53.8z"/><path fill="#FFCC3E" d="M147,65.3h-11c-1,0-1.9-0.8-1.9-1.9v0c0-1,0.8-1.9,1.9-1.9h11c1,0,1.9,0.8,1.9,1.9v0	C148.8,64.4,148,65.3,147,65.3z"/><path fill="#FFCC3E" d="M147,76.8h-11c-1,0-1.9-0.8-1.9-1.9v0c0-1,0.8-1.9,1.9-1.9h11c1,0,1.9,0.8,1.9,1.9v0	C148.8,75.9,148,76.8,147,76.8z"/><path fill="#FFCC3E" d="M147,88.3h-11c-1,0-1.9-0.8-1.9-1.9l0,0c0-1,0.8-1.9,1.9-1.9h11c1,0,1.9,0.8,1.9,1.9l0,0	C148.8,87.5,148,88.3,147,88.3z"/><path fill="#FFCC3E" d="M147,99.8h-11c-1,0-1.9-0.8-1.9-1.9v0c0-1,0.8-1.9,1.9-1.9h11c1,0,1.9,0.8,1.9,1.9v0	C148.8,99,148,99.8,147,99.8z"/><path fill="#FFCC3E" d="M147,111.3h-11c-1,0-1.9-0.8-1.9-1.9l0,0c0-1,0.8-1.9,1.9-1.9h11c1,0,1.9,0.8,1.9,1.9l0,0	C148.8,110.5,148,111.3,147,111.3z"/><path fill="#FFCC3E" d="M20.6,111.3L20.6,111.3c-0.9,0-1.7-0.7-1.7-1.7V40.2c0-0.9,0.7-1.7,1.7-1.7h0c0.9,0,1.7,0.7,1.7,1.7v69.5	C22.2,110.6,21.5,111.3,20.6,111.3z"/><path fill="#FFCC3E" d="M130,111.3L130,111.3c-0.9,0-1.7-0.7-1.7-1.7V40.2c0-0.9,0.7-1.7,1.7-1.7h0c0.9,0,1.7,0.7,1.7,1.7v69.5	C131.6,110.6,130.9,111.3,130,111.3z"/><rect x="56.2" y="55.8" transform="matrix(0.7071 -0.7071 0.7071 0.7071 -30.912 75.1715)" fill="#A52828" width="38.2" height="38.2"/><rect x="67.1" y="66.7" transform="matrix(0.7071 -0.7071 0.7071 0.7071 -30.912 75.1715)" fill="#D33131" width="16.4" height="16.4"/><polygon fill="#A52828" points="22.4,54.8 22.4,70.1 29.3,63.3 40.9,74.9 29.3,86.5 22.4,79.7 22.4,95 29.3,101.9 56.2,74.9 29.3,47.9"/><polygon fill="#A52828" points="128.2,79.7 121.3,86.5 109.7,74.9 121.3,63.3 128.2,70.1 128.2,54.8 121.3,47.9 94.3,74.9 121.3,101.9 128.2,95"/></svg>