<?xml version="1.0" encoding="utf-8"?><!DOCTYPE svg PUBLIC "-//W3C//DTD SVG 1.1//EN" "http://www.w3.org/Graphics/SVG/1.1/DTD/svg11.dtd"><svg version="1.1" id="Layer_1" xmlns="http://www.w3.org/2000/svg" xmlns:xlink="http://www.w3.org/1999/xlink" x="0px" y="0px" width="150px" height="150px" viewBox="0 0 150 150" enable-background="new 0 0 150 150" xml:space="preserve"><path fill="#FFFFFF" d="M62.5,113h24c5.5-21.5,24.2-37.7,46.9-39.5V37.6H16v36C38.5,75.6,57,91.7,62.5,113z"/><path fill="#E0E0E0" d="M16.6,69.2c-0.2,0-0.4,0-0.6,0v4.4c22.5,2,41,18.1,46.5,39.5h4.6c0-0.4,0-0.7-0.1-1.1	C61,88.5,40.7,71.3,16.6,69.2z"/><path fill="#E0E0E0" d="M133.4,73.6v-4.4c0,0-0.1,0-0.1,0c-24.4,1.9-44.8,19.1-50.9,42.8c-0.1,0.4-0.1,0.7-0.1,1.1h4.2	C92,91.5,110.6,75.3,133.4,73.6z"/><g><rect x="49.5" y="37.7" transform="matrix(-0.9452 -0.3265 0.3265 -0.9452 82.2815 135.6384)" fill="#E0E0E0" width="6.1" height="46.4"/><rect x="93.8" y="37.7" transform="matrix(0.9452 -0.3265 0.3265 0.9452 -14.5812 34.9466)" fill="#E0E0E0" width="6.1" height="46.4"/></g><rect x="14.6" y="37.5" fill="#D84A4A" width="120.1" height="6.6"/></svg>