<?xml version="1.0" encoding="utf-8"?><!DOCTYPE svg PUBLIC "-//W3C//DTD SVG 1.1//EN" "http://www.w3.org/Graphics/SVG/1.1/DTD/svg11.dtd"><svg version="1.1" xmlns="http://www.w3.org/2000/svg" xmlns:xlink="http://www.w3.org/1999/xlink" x="0px" y="0px" width="150px" height="150px" viewBox="0 0 150 150" enable-background="new 0 0 150 150" xml:space="preserve"><g id="Layer_2" display="none"><rect y="-1187.3" display="inline" fill="#F0F0F0" width="1680" height="1677.3"/></g><g id="Layer_1"><rect x="47.1" y="38.8" fill="#848484" width="57.4" height="104.9"/><rect x="41.4" y="34.7" fill="#8E4819" width="67.1" height="48.9"/><rect x="41.4" y="36.3" fill="#753C15" width="67.1" height="13"/><rect x="67" y="39.8" fill="#D7EEF2" width="15.7" height="25.8"/><rect x="46.4" y="39.8" fill="#D7EEF2" width="15.7" height="25.8"/><polygon fill="#E9FEFF" points="62.1,39.8 46.4,66.7 46.4,39.8"/><polyline fill="#E9FEFF" points="67,39.8 82.7,39.8 67,66.7"/><rect x="88.5" y="39.8" fill="#D7EEF2" width="15.7" height="25.8"/><polyline fill="#2D2D2D" points="30.6,31.1 74.6,9.9 118.6,31.1"/><polyline fill="#E9FEFF" points="88.5,39.8 104.2,39.8 88.5,66.7"/><path fill="#424242" d="M116.7,84.1H32c-1,0-1.9-0.8-1.9-1.9l0,0c0-1,0.8-1.9,1.9-1.9h84.8c1,0,1.9,0.8,1.9,1.9l0,0 C118.6,83.3,117.8,84.1,116.7,84.1z"/><path fill="#424242" d="M116.7,68.7H32c-1,0-1.9-0.8-1.9-1.9v-0.2c0-1,0.8-1.9,1.9-1.9h84.8c1,0,1.9,0.8,1.9,1.9v0.2 C118.6,67.8,117.8,68.7,116.7,68.7z"/><rect x="54.2" y="66.1" fill="#424242" width="3.5" height="16.3"/><rect x="92" y="66.1" fill="#424242" width="3.5" height="16.3"/><rect x="36.4" y="66.1" fill="#424242" width="3.5" height="16.3"/><rect x="73.4" y="66.1" fill="#424242" width="3.5" height="16.3"/><rect x="110.3" y="66.1" fill="#424242" width="3.5" height="16.3"/><rect x="88.3" y="86.7" fill="#7A7A7A" width="11.6" height="6.6"/><rect x="81.7" y="95.6" fill="#7A7A7A" width="11.6" height="6.6"/><rect x="53" y="91.1" fill="#7A7A7A" width="11.6" height="6.6"/><rect x="30.6" y="31.1" fill="#212121" width="88.1" height="5.2"/><rect x="46.4" y="39.8" fill="#CADEE0" width="15.7" height="9.4"/><rect x="67" y="39.8" fill="#CADEE0" width="15.7" height="9.4"/><rect x="88.5" y="39.8" fill="#CADEE0" width="15.7" height="9.4"/><rect x="72" y="18" fill="#444444" width="5.8" height="4.1"/><rect x="75.4" y="23" fill="#444444" width="5.8" height="4.1"/><rect x="68.5" y="23" fill="#444444" width="5.8" height="4.1"/><g><defs><rect id="SVGID_5_" x="13" y="3.2" width="119.5" height="140.5"/></defs><clipPath id="SVGID_1_"><use xlink:href="#SVGID_5_" overflow="visible"/></clipPath><line clip-path="url(#SVGID_1_)" fill="none" stroke="#636363" stroke-width="2.2058" stroke-linecap="round" stroke-miterlimit="10" x1="39.3" y1="112.4" x2="71.2" y2="144.3"/><line clip-path="url(#SVGID_1_)" fill="none" stroke="#636363" stroke-width="2.2058" stroke-linecap="round" stroke-miterlimit="10" x1="49.8" y1="112.4" x2="81.7" y2="144.3"/><line clip-path="url(#SVGID_1_)" fill="none" stroke="#636363" stroke-width="2.2058" stroke-linecap="round" stroke-miterlimit="10" x1="60.3" y1="112.4" x2="92.2" y2="144.3"/><line clip-path="url(#SVGID_1_)" fill="none" stroke="#636363" stroke-width="2.2058" stroke-linecap="round" stroke-miterlimit="10" x1="70.8" y1="112.4" x2="102.7" y2="144.3"/><line clip-path="url(#SVGID_1_)" fill="none" stroke="#636363" stroke-width="2.2058" stroke-linecap="round" stroke-miterlimit="10" x1="81.3" y1="112.4" x2="113.2" y2="144.3"/><line clip-path="url(#SVGID_1_)" fill="none" stroke="#636363" stroke-width="2.2058" stroke-linecap="round" stroke-miterlimit="10" x1="91.7" y1="112.4" x2="123.6" y2="144.3"/><line clip-path="url(#SVGID_1_)" fill="none" stroke="#636363" stroke-width="2.2058" stroke-linecap="round" stroke-miterlimit="10" x1="102.2" y1="112.4" x2="134.1" y2="144.3"/><line clip-path="url(#SVGID_1_)" fill="none" stroke="#636363" stroke-width="2.2058" stroke-linecap="round" stroke-miterlimit="10" x1="133.4" y1="112.4" x2="101.5" y2="144.3"/><line clip-path="url(#SVGID_1_)" fill="none" stroke="#636363" stroke-width="2.2058" stroke-linecap="round" stroke-miterlimit="10" x1="122.9" y1="112.4" x2="91" y2="144.3"/><line clip-path="url(#SVGID_1_)" fill="none" stroke="#636363" stroke-width="2.2058" stroke-linecap="round" stroke-miterlimit="10" x1="112.4" y1="112.4" x2="80.5" y2="144.3"/><line clip-path="url(#SVGID_1_)" fill="none" stroke="#636363" stroke-width="2.2058" stroke-linecap="round" stroke-miterlimit="10" x1="102" y1="112.4" x2="70.1" y2="144.3"/><line clip-path="url(#SVGID_1_)" fill="none" stroke="#636363" stroke-width="2.2058" stroke-linecap="round" stroke-miterlimit="10" x1="91.5" y1="112.4" x2="59.6" y2="144.3"/><line clip-path="url(#SVGID_1_)" fill="none" stroke="#636363" stroke-width="2.2058" stroke-linecap="round" stroke-miterlimit="10" x1="81" y1="112.4" x2="49.1" y2="144.3"/><line clip-path="url(#SVGID_1_)" fill="none" stroke="#636363" stroke-width="2.2058" stroke-linecap="round" stroke-miterlimit="10" x1="70.5" y1="112.4" x2="38.6" y2="144.3"/><line clip-path="url(#SVGID_1_)" fill="none" stroke="#636363" stroke-width="2.2058" stroke-linecap="round" stroke-miterlimit="10" x1="-23.7" y1="112.4" x2="8.2" y2="144.3"/><line clip-path="url(#SVGID_1_)" fill="none" stroke="#636363" stroke-width="2.2058" stroke-linecap="round" stroke-miterlimit="10" x1="-13.2" y1="112.4" x2="18.7" y2="144.3"/><line clip-path="url(#SVGID_1_)" fill="none" stroke="#636363" stroke-width="2.2058" stroke-linecap="round" stroke-miterlimit="10" x1="-2.8" y1="112.4" x2="29.1" y2="144.3"/><line clip-path="url(#SVGID_1_)" fill="none" stroke="#636363" stroke-width="2.2058" stroke-linecap="round" stroke-miterlimit="10" x1="7.7" y1="112.4" x2="39.6" y2="144.3"/><line clip-path="url(#SVGID_1_)" fill="none" stroke="#636363" stroke-width="2.2058" stroke-linecap="round" stroke-miterlimit="10" x1="18.2" y1="112.4" x2="50.1" y2="144.3"/><line clip-path="url(#SVGID_1_)" fill="none" stroke="#636363" stroke-width="2.2058" stroke-linecap="round" stroke-miterlimit="10" x1="28.7" y1="112.4" x2="60.6" y2="144.3"/><line clip-path="url(#SVGID_1_)" fill="none" stroke="#636363" stroke-width="2.2058" stroke-linecap="round" stroke-miterlimit="10" x1="59.8" y1="112.4" x2="28" y2="144.3"/><line clip-path="url(#SVGID_1_)" fill="none" stroke="#636363" stroke-width="2.2058" stroke-linecap="round" stroke-miterlimit="10" x1="49.4" y1="112.4" x2="17.5" y2="144.3"/><line clip-path="url(#SVGID_1_)" fill="none" stroke="#636363" stroke-width="2.2058" stroke-linecap="round" stroke-miterlimit="10" x1="38.9" y1="112.4" x2="7" y2="144.3"/><line clip-path="url(#SVGID_1_)" fill="none" stroke="#636363" stroke-width="2.2058" stroke-linecap="round" stroke-miterlimit="10" x1="28.4" y1="112.4" x2="-3.5" y2="144.3"/><line clip-path="url(#SVGID_1_)" fill="none" stroke="#636363" stroke-width="2.2058" stroke-linecap="round" stroke-miterlimit="10" x1="17.9" y1="112.4" x2="-14" y2="144.3"/><line clip-path="url(#SVGID_1_)" fill="none" stroke="#636363" stroke-width="2.2058" stroke-linecap="round" stroke-miterlimit="10" x1="7.5" y1="112.4" x2="-24.4" y2="144.3"/><line clip-path="url(#SVGID_1_)" fill="none" stroke="#636363" stroke-width="2.2058" stroke-linecap="round" stroke-miterlimit="10" x1="112.5" y1="112.4" x2="144.4" y2="144.3"/><line clip-path="url(#SVGID_1_)" fill="none" stroke="#636363" stroke-width="2.2058" stroke-linecap="round" stroke-miterlimit="10" x1="123" y1="112.4" x2="154.9" y2="144.3"/><line clip-path="url(#SVGID_1_)" fill="none" stroke="#636363" stroke-width="2.2058" stroke-linecap="round" stroke-miterlimit="10" x1="133.5" y1="112.4" x2="165.4" y2="144.3"/><line clip-path="url(#SVGID_1_)" fill="none" stroke="#636363" stroke-width="2.2058" stroke-linecap="round" stroke-miterlimit="10" x1="143.9" y1="112.4" x2="175.8" y2="144.3"/><line clip-path="url(#SVGID_1_)" fill="none" stroke="#636363" stroke-width="2.2058" stroke-linecap="round" stroke-miterlimit="10" x1="175.1" y1="112.4" x2="143.2" y2="144.3"/><line clip-path="url(#SVGID_1_)" fill="none" stroke="#636363" stroke-width="2.2058" stroke-linecap="round" stroke-miterlimit="10" x1="164.6" y1="112.4" x2="132.7" y2="144.3"/><line clip-path="url(#SVGID_1_)" fill="none" stroke="#636363" stroke-width="2.2058" stroke-linecap="round" stroke-miterlimit="10" x1="154.2" y1="112.4" x2="122.3" y2="144.3"/><line clip-path="url(#SVGID_1_)" fill="none" stroke="#636363" stroke-width="2.2058" stroke-linecap="round" stroke-miterlimit="10" x1="143.7" y1="112.4" x2="111.8" y2="144.3"/></g></g><g id="Layer_3"/></svg>