<?xml version="1.0" encoding="utf-8"?><!DOCTYPE svg PUBLIC "-//W3C//DTD SVG 1.1//EN" "http://www.w3.org/Graphics/SVG/1.1/DTD/svg11.dtd"><svg version="1.1" id="Layer_1" xmlns="http://www.w3.org/2000/svg" xmlns:xlink="http://www.w3.org/1999/xlink" x="0px" y="0px" width="150px" height="150px" viewBox="0 0 150 150" enable-background="new 0 0 150 150" xml:space="preserve"><path fill="#282828" d="M2.2,131.6v-5.8c0-18.6,15-33.6,33.6-33.6h0c18.6,0,33.6,15,33.6,33.6v5.8"/><path fill="#FFA792" d="M35.8,71.4c-6.2,0-11.4,5.1-11.4,11.4v13.6c0,6.2,5.1,11.4,11.4,11.4s11.4-5.1,11.4-11.4V82.8	C47.1,76.5,42,71.4,35.8,71.4z"/><ellipse fill="#FFA792" cx="8.9" cy="65.2" rx="6.9" ry="6.4"/><ellipse fill="#FFA792" cx="62.5" cy="65.2" rx="6.9" ry="6.4"/><path fill="#FFB5A1" d="M8.9,47.7v22c0,13.9,12.1,25.2,26.9,25.2h0c14.8,0,26.9-11.3,26.9-25.2v-22"/><circle fill="#AA6DA3" cx="21.4" cy="60.3" r="7.8"/><ellipse fill="#91538C" cx="21.4" cy="60.3" rx="3.4" ry="3.1"/><ellipse fill="#EA9486" cx="50.2" cy="60.3" rx="3.4" ry="3.1"/><rect x="31.4" y="54.7" fill="#EA9486" width="8.8" height="10.5"/><path fill="#D86B60" d="M22.3,70.8c0,7,6,12.6,13.5,12.6s13.5-5.7,13.5-12.6"/><path fill="#FFFFFF" d="M48.4,75.2H23.1c-0.5-1.4-0.8-2.8-0.8-4.3h27C49.3,72.3,49,73.8,48.4,75.2z"/><rect x="39.2" y="70.8" fill="#D86B60" width="4.2" height="5.8"/><polygon fill="#FFCE00" points="55.8,19.4 49.1,23.7 42.4,19.4 35.7,23.7 29,19.4 22.3,23.7 15.6,19.4 8.9,23.7 8.9,47.7 62.5,47.7 62.5,23.7 62.5,23.7"/><ellipse fill="#FFA792" cx="76" cy="65.5" rx="6.9" ry="6.4"/><ellipse fill="#FFA792" cx="129.6" cy="65.5" rx="6.9" ry="6.4"/><path fill="#CCCCCC" d="M65.4,131.8v-6.5c0-20.8,16.8-37.6,37.6-37.6h0c20.8,0,37.6,16.8,37.6,37.6v6.5"/><path fill="#ADADAD" d="M122,131.8V99c0-10.5-8.6-19.1-19.1-19.1h0c-10.5,0-19.1,8.6-19.1,19.1v32.9"/><rect x="92.1" y="89.4" fill="#FFFFFF" width="21.9" height="42.5"/><path fill="#FFA792" d="M102.9,71.7c-6.2,0-11.4,5.1-11.4,11.4v13.6c0,6.2,5.1,11.4,11.4,11.4c6.2,0,11.4-5.1,11.4-11.4V83.1	C114.2,76.8,109.1,71.7,102.9,71.7z"/><path fill="#FFB5A1" d="M129.8,45.6v22.5c0,14.9-12.1,26.9-26.9,26.9h0C88,95.1,76,83,76,68.2V45.6"/><ellipse fill="#EA9486" cx="88.5" cy="60.5" rx="3.4" ry="3.1"/><ellipse fill="#EA9486" cx="117.3" cy="60.5" rx="3.4" ry="3.1"/><rect x="98.5" y="54.9" fill="#FF9D8A" width="8.8" height="10.5"/><path fill="none" stroke="#EA9486" stroke-width="2.7011" stroke-linecap="round" stroke-linejoin="round" stroke-miterlimit="10" d="M111.8,73.4c-2.4,1.9-5.5,3-8.8,3c-3.4,0-6.5-1.2-8.9-3.1"/><circle opacity="0.52" fill="#EA9486" cx="81.4" cy="68.1" r="1.4"/><circle opacity="0.52" fill="#EA9486" cx="85.9" cy="70.8" r="1.4"/><circle opacity="0.52" fill="#EA9486" cx="81.4" cy="73.5" r="1.4"/><circle opacity="0.52" fill="#EA9486" cx="125.6" cy="73.5" r="1.4"/><circle opacity="0.52" fill="#EA9486" cx="125.6" cy="68.1" r="1.4"/><circle opacity="0.52" fill="#EA9486" cx="121.1" cy="70.8" r="1.4"/><path fill="#BC2E2E" d="M145.3,45.6h-36.7c-1.6,0-3-1.3-3-3v0c0-1.6,1.3-3,3-3h36.7c1.6,0,3,1.3,3,3v0	C148.2,44.3,146.9,45.6,145.3,45.6z"/><path fill="#D33131" d="M76,45.6c0-14.8,12-26.8,26.8-26.8s26.8,12,26.8,26.8"/><path fill="#7C3C32" d="M82.4,39.7c0-6.4,5.2-11.6,11.6-11.6c6.4,0,11.6,5.2,11.6,11.6"/><path fill="#E84D4D" d="M82.5,45.6h23.1v-5.8H82.5c-1.6,0-2.9,1.3-2.9,2.9v0C79.5,44.3,80.8,45.6,82.5,45.6z"/><circle fill="#FF6E6E" cx="101.3" cy="42.8" r="0.9"/><circle fill="#FF6E6E" cx="95.8" cy="42.8" r="0.9"/><circle fill="#FF6E6E" cx="90.4" cy="42.8" r="0.9"/><circle fill="#FF6E6E" cx="85" cy="42.8" r="0.9"/><circle fill="#D33131" cx="102.8" cy="19.4" r="2.9"/><path fill="#7C3C32" d="M119.1,45.6c0,5.9,4.8,10.7,10.7,10.7V45.6H119.1z"/><path fill="#7C3C32" d="M111.9,45.6c0,4.3,3.5,7.7,7.7,7.7v-7.7H111.9z"/></svg>