<?xml version="1.0" encoding="utf-8"?><!DOCTYPE svg PUBLIC "-//W3C//DTD SVG 1.1//EN" "http://www.w3.org/Graphics/SVG/1.1/DTD/svg11.dtd"><svg version="1.1" xmlns="http://www.w3.org/2000/svg" xmlns:xlink="http://www.w3.org/1999/xlink" x="0px" y="0px" width="150px" height="150px" viewBox="0 0 150 150" enable-background="new 0 0 150 150" xml:space="preserve"><g id="Layer_2" display="none"><rect x="-510" y="-510" display="inline" fill="#F0F0F0" width="1680" height="1677.3"/></g><g id="Layer_1"><path fill="#303030" d="M27.9,147.9v-8.2c0-26.2,21.3-47.5,47.5-47.5h0c26.2,0,47.5,21.3,47.5,47.5v8.2"/><path fill="#424242" d="M45.9,147.9v-41.2c0-16.2,13.3-29.5,29.5-29.5h0c16.2,0,29.5,13.3,29.5,29.5v41.2"/><rect x="58.4" y="116.7" fill="#E2E2E2" width="34" height="31.3"/><path fill="#4F4F4F" d="M109.5,42.5h-68c-6.5,0-11.8-5.3-11.8-11.8v0c0-6.5,5.3-11.8,11.8-11.8h68c6.5,0,11.8,5.3,11.8,11.8v0 C121.3,37.2,116,42.5,109.5,42.5z"/><polygon fill="#D33131" points="83.1,116.9 75.5,130.1 67.9,116.9"/><polygon fill="#D33131" points="67.9,148 75.5,119.6 83.1,148"/><path fill="#FFFFFF" d="M96.5,124v-18.4c0-11.6-9.5-21.1-21.1-21.1h0c-11.6,0-21.1,9.5-21.1,21.1V124l21.3-6.9L96.5,124z"/><g><ellipse fill="#FF9D8A" cx="41.5" cy="50.4" rx="8.5" ry="7.9"/></g><path fill="#FF9D8A" d="M75.5,59.5c-9.2,0-16.8,7.3-16.8,16.3v19.5c0,9,7.5,16.3,16.8,16.3s16.8-7.3,16.8-16.3V75.8 C92.2,66.9,84.7,59.5,75.5,59.5z"/><polygon fill="#FF9D8A" points="86,108 75.5,117.1 65,108"/><g><ellipse fill="#FF9D8A" cx="109.5" cy="50.4" rx="8.5" ry="7.9"/></g><g><path fill="#FFB5A1" d="M87.8,92.2H63.1c-12,0-21.6-9.7-21.6-21.6V37.1c0-18.8,15.2-34,34-34h0c18.8,0,34,15.2,34,34v33.5 C109.5,82.5,99.8,92.2,87.8,92.2z"/></g><path fill="#4F4F4F" d="M50.2,61.2L50.2,61.2c0-5.7,4.7-10.4,10.4-10.4h29.6c5.7,0,10.4,4.7,10.4,10.4v0"/><g><rect x="69.9" y="39.4" fill="#FF9D8A" width="11.1" height="14.2"/></g><g><path fill="#EA9486" d="M62.3,42.2c0,2.3-1.9,4.2-4.2,4.2c-2.3,0-4.2-1.9-4.2-4.2"/></g><g><path fill="#EA9486" d="M97.2,42.2c0,2.3-1.9,4.2-4.2,4.2c-2.3,0-4.2-1.9-4.2-4.2"/></g><path fill="#EA9486" d="M80.2,66.6h-9.6c-0.8,0-1.5-0.7-1.5-1.5l0,0c0-0.8,0.7-1.5,1.5-1.5h9.6c0.8,0,1.5,0.7,1.5,1.5l0,0 C81.7,65.9,81,66.6,80.2,66.6z"/><g><path fill="#FF9D8A" d="M75.3,87.9c-3,0-5.9-1.4-7.8-3.7c-0.3-0.4-0.3-1,0.1-1.3c0.4-0.3,1-0.3,1.3,0.1c1.6,1.9,3.9,3,6.4,3 c2.5,0,4.8-1.1,6.4-3c0.3-0.4,0.9-0.5,1.3-0.1c0.4,0.3,0.5,0.9,0.1,1.3C81.2,86.5,78.3,87.9,75.3,87.9z"/></g><path fill="#4F4F4F" d="M99.4,42.3H51.8c-1.3,0-2.3-1-2.3-2.3v0c0-1.3,1-2.3,2.3-2.3h47.6c1.3,0,2.3,1,2.3,2.3v0 C101.7,41.2,100.7,42.3,99.4,42.3z"/><path fill="#FFC4B8" d="M78.4,15h-6c-1.4,0-2.5-1.1-2.5-2.5v0c0-1.4,1.1-2.5,2.5-2.5h6c1.4,0,2.5,1.1,2.5,2.5v0 C80.9,13.9,79.8,15,78.4,15z"/></g><g id="Layer_3"/></svg>