<?xml version="1.0" encoding="utf-8"?><!DOCTYPE svg PUBLIC "-//W3C//DTD SVG 1.1//EN" "http://www.w3.org/Graphics/SVG/1.1/DTD/svg11.dtd"><svg version="1.1" id="Layer_1" xmlns="http://www.w3.org/2000/svg" xmlns:xlink="http://www.w3.org/1999/xlink" x="0px" y="0px" width="150px" height="150px" viewBox="0 0 150 150" enable-background="new 0 0 150 150" xml:space="preserve"><path fill="#E2E2E2" d="M29.6,143.4v-7.8c0-24.9,20.2-45.1,45.1-45.1h0c24.9,0,45.1,20.2,45.1,45.1v7.8"/><path fill="#A85E27" d="M58.8,93.5c-17.1,6.4-29.2,22.9-29.2,42.2v7.8h29.2V93.5z"/><path fill="#A85E27" d="M91.1,93.5c17.1,6.4,29.2,22.9,29.2,42.2v7.8H91.1V93.5z"/><path fill="#A04F18" d="M100.9,143.4v-39.8c0-14.8-12.1-26.9-26.9-26.9h0C59.1,76.7,47,88.8,47,103.6v39.8"/><rect x="56.6" y="110.5" fill="#E2E2E2" width="34.5" height="32.9"/><path fill="#D33131" d="M78.8,113.3l-3.6,6.2c-0.6,1-1.9,1-2.5,0l-3.6-6.2c-0.6-1,0.1-2.2,1.2-2.2h7.1	C78.7,111.1,79.4,112.3,78.8,113.3z"/><polygon fill="#D33131" points="80.8,143.4 74,114.1 67.2,143.4"/><path fill="#FFFFFF" d="M91.1,116.8v-17c0-9.5-7.8-17.3-17.3-17.3h0c-9.5,0-17.3,7.8-17.3,17.3v17l17.4-5.6L91.1,116.8z"/><path fill="#FFA08D" d="M73.9,111.1L73.9,111.1c-8.3,0-15.1-6.8-15.1-15.1V77.9c0-8.3,6.8-15.1,15.1-15.1h0	c8.3,0,15.1,6.8,15.1,15.1V96C89.1,104.3,82.3,111.1,73.9,111.1z"/><path fill="#AFAFAF" d="M106.7,49.9H41.2c-7,0-12.7-5.3-12.7-11.8v0c0-6.5,5.7-11.8,12.7-11.8h65.5c7,0,12.7,5.3,12.7,11.8v0	C119.4,44.6,113.7,49.9,106.7,49.9z"/><ellipse fill="#FFA792" cx="40.7" cy="57.7" rx="8.5" ry="8"/><ellipse fill="#FFA792" cx="107.5" cy="57.7" rx="8.5" ry="8"/><path fill="#FFB5A1" d="M40.5,42.6v20.7c0,17.3,15.1,31.4,33.6,31.4h0c18.5,0,33.6-14.1,33.6-31.4V42.6"/><path fill="#FFB5A1" d="M107.6,52.2V38c0-17.3-15.1-31.4-33.6-31.4h0C55.6,6.6,40.5,20.8,40.5,38v14.1"/><path fill="#EA9486" d="M50.5,45.6c0-2.4,2.1-4.4,4.8-4.4s4.8,2,4.8,4.4"/><path fill="#EA9486" d="M88,45.6c0-2.4,2.1-4.4,4.8-4.4c2.6,0,4.8,2,4.8,4.4"/><path fill="#AFAFAF" d="M49.4,65.1c0-6.6,5.7-11.9,12.8-11.9s12.8,5.3,12.8,11.9"/><path fill="#AFAFAF" d="M73.1,65.1c0-6.6,5.7-11.9,12.8-11.9c7.1,0,12.8,5.3,12.8,11.9"/><rect x="68.6" y="40.3" fill="#F3A28F" width="11" height="20.9"/><g><path fill="#DD8178" d="M74.1,75.9c-3.5,0-6.9-1.2-9.6-3.4c-0.7-0.6-0.8-1.6-0.2-2.2c0.6-0.7,1.6-0.8,2.2-0.2 c2.2,1.8,4.8,2.7,7.6,2.7c2.8,0,5.4-0.9,7.6-2.6c0.7-0.5,1.7-0.4,2.2,0.3c0.5,0.7,0.4,1.7-0.3,2.2C80.9,74.8,77.6,75.9,74.1,75.9z"/></g><g><path fill="#EF9C8B" d="M55.4,53.3c-0.8,0-1.6-0.1-2.4-0.3c-0.5-0.2-0.8-0.7-0.7-1.2c0.1-0.5,0.7-0.8,1.2-0.7 c1.7,0.5,3.4,0.3,4.9-0.5c1.5-0.8,2.6-2.2,3.1-3.9c0.1-0.5,0.7-0.8,1.2-0.7c0.5,0.2,0.8,0.7,0.7,1.2c-0.6,2.2-2.1,4-4.1,5 C58.2,52.9,56.8,53.3,55.4,53.3z"/></g><g><path fill="#EF9C8B" d="M92.7,53.3c-1.4,0-2.8-0.4-4.1-1c-2-1.1-3.4-2.9-4-5c-0.2-0.5,0.1-1.1,0.7-1.2c0.5-0.2,1.1,0.1,1.2,0.7 c0.5,1.7,1.6,3,3.1,3.9c1.5,0.8,3.3,1,4.9,0.5c0.5-0.2,1.1,0.1,1.2,0.7c0.2,0.5-0.1,1.1-0.7,1.2C94.3,53.1,93.5,53.3,92.7,53.3z"/></g><g><path fill="#EF9C8B" d="M74,90c-2,0-4.1-0.8-5.6-2.3c-0.4-0.4-0.4-1,0-1.4c0.4-0.4,1-0.4,1.4,0c2.3,2.3,6.2,2.3,8.5,0 c0.4-0.4,1-0.4,1.4,0c0.4,0.4,0.4,1,0,1.4C78.1,89.2,76.1,90,74,90z"/></g><path fill="#EF9C8B" d="M84.6,29.4H62.7c-0.7,0-1.3-0.6-1.3-1.3v0c0-0.7,0.6-1.3,1.3-1.3h21.9c0.7,0,1.3,0.6,1.3,1.3v0	C85.9,28.8,85.3,29.4,84.6,29.4z"/><path fill="#EF9C8B" d="M78.5,23.5h-9.9c-0.7,0-1.3-0.6-1.3-1.3v0c0-0.7,0.6-1.3,1.3-1.3h9.9c0.7,0,1.3,0.6,1.3,1.3v0	C79.8,22.9,79.2,23.5,78.5,23.5z"/></svg>