<?xml version="1.0" encoding="utf-8"?><!DOCTYPE svg PUBLIC "-//W3C//DTD SVG 1.1//EN" "http://www.w3.org/Graphics/SVG/1.1/DTD/svg11.dtd"><svg version="1.1" id="Layer_1" xmlns="http://www.w3.org/2000/svg" xmlns:xlink="http://www.w3.org/1999/xlink" x="0px" y="0px" width="150px" height="150px" viewBox="0 0 150 150" enable-background="new 0 0 150 150" xml:space="preserve"><path fill="#1CB0F6" d="M128.7,141.3H19.3c-6.7,0-12.1-5.4-12.1-12.1V19.9c0-6.7,5.4-12.1,12.1-12.1h109.3c6.7,0,12.1,5.4,12.1,12.1	v109.3C140.7,135.9,135.3,141.3,128.7,141.3z"/><g><polygon opacity="0.29" fill="#1298DB" points="26.7,8.2 31.9,16.4 37,8.2 36.7,7.8 27,7.8"/><polygon opacity="0.29" fill="#1298DB" points="46.7,8.2 51.9,16.4 57,8.2 56.7,7.8 47,7.8"/><polygon opacity="0.29" fill="#1298DB" points="66.7,8.2 71.9,16.4 77,8.2 76.7,7.8 67,7.8"/><polygon opacity="0.29" fill="#1298DB" points="86.7,8.2 91.9,16.4 97,8.2 96.7,7.8 87,7.8"/><polygon opacity="0.29" fill="#1298DB" points="106.7,8.2 111.9,16.4 117,8.2 116.7,7.8 107,7.8"/><path opacity="0.29" fill="#1298DB" d="M135.8,10.2c-2-1.5-4.5-2.3-7.1-2.3H127l-0.3,0.4l5.1,8.1L135.8,10.2z"/><polygon opacity="0.29" fill="#1298DB" points="21.9,36.4 16.7,28.2 21.9,20.1 27,28.2"/><path opacity="0.29" fill="#1298DB" d="M9.6,12.8l2.3,3.6L17,8.2l-0.1-0.2C13.9,8.7,11.3,10.4,9.6,12.8z"/><polygon opacity="0.29" fill="#1298DB" points="41.9,36.4 36.7,28.2 41.9,20.1 47,28.2"/><polygon opacity="0.29" fill="#1298DB" points="61.9,36.4 56.7,28.2 61.9,20.1 67,28.2"/><polygon opacity="0.29" fill="#1298DB" points="81.9,36.4 76.7,28.2 81.9,20.1 87,28.2"/><polygon opacity="0.29" fill="#1298DB" points="101.9,36.4 96.7,28.2 101.9,20.1 107,28.2"/><polygon opacity="0.29" fill="#1298DB" points="121.9,36.4 116.7,28.2 121.9,20.1 127,28.2"/><polygon opacity="0.29" fill="#1298DB" points="140.7,34.6 140.7,21.9 136.7,28.2"/><path opacity="0.29" fill="#C4C4C4" d="M126.1,29.7c0.1-0.1,0.1-0.3,0.1-0.4c0-0.5-0.4-0.9-0.9-0.9s-0.9,0.4-0.9,0.9 c0,0.2,0.1,0.3,0.1,0.4H126.1z"/></g><rect x="7.3" y="50" fill="#FFFFFF" width="133.5" height="12"/><path fill="#FFFFFF" d="M130.5,40.7h-10.3c-0.5,0-1-0.4-1-1V23c0-0.5,0.4-1,1-1h10.3c0.5,0,1,0.4,1,1v16.7	C131.5,40.2,131.1,40.7,130.5,40.7z"/><circle fill="#EDEDED" cx="125.4" cy="27.1" r="3.6"/><path fill="#C4C4C4" d="M124.4,27.8L124.4,27.8c-0.3,0-0.5-0.2-0.5-0.5v-1.8c0-0.3,0.2-0.5,0.5-0.5l0,0c0.3,0,0.5,0.2,0.5,0.5v1.8	C124.9,27.5,124.6,27.8,124.4,27.8z"/><path fill="#C4C4C4" d="M126.4,27.8L126.4,27.8c-0.3,0-0.5-0.2-0.5-0.5v-1.8c0-0.3,0.2-0.5,0.5-0.5l0,0c0.3,0,0.5,0.2,0.5,0.5v1.8	C126.9,27.5,126.6,27.8,126.4,27.8z"/><circle fill="#EDEDED" cx="125.4" cy="35.4" r="3.6"/><path fill="#C4C4C4" d="M124.4,36L124.4,36c-0.3,0-0.5-0.2-0.5-0.5v-1.8c0-0.3,0.2-0.5,0.5-0.5l0,0c0.3,0,0.5,0.2,0.5,0.5v1.8	C124.9,35.7,124.6,36,124.4,36z"/><path fill="#C4C4C4" d="M126.4,36L126.4,36c-0.3,0-0.5-0.2-0.5-0.5v-1.8c0-0.3,0.2-0.5,0.5-0.5l0,0c0.3,0,0.5,0.2,0.5,0.5v1.8	C126.9,35.7,126.6,36,126.4,36z"/><path fill="#C4C4C4" d="M126.1,37.9c0.1-0.1,0.1-0.3,0.1-0.4c0-0.5-0.4-0.9-0.9-0.9s-0.9,0.4-0.9,0.9c0,0.2,0.1,0.3,0.1,0.4H126.1z"/><path fill="#B26938" d="M7.3,129.2c0,6.7,5.4,12.1,12.1,12.1h109.3c6.7,0,12.1-5.4,12.1-12.1V62H7.3V129.2z"/><rect x="7.3" y="75" fill="#A05A2A" width="133.5" height="2.7"/><rect x="7.3" y="66.5" fill="#A05A2A" width="133.5" height="2.1"/><rect x="7.3" y="90" fill="#A05A2A" width="133.5" height="3.1"/><rect x="7.3" y="112" fill="#A05A2A" width="133.5" height="3.7"/><path fill="#A05A2A" d="M8.3,134c0.7,1.7,1.9,3.3,3.3,4.5h124.8c1.4-1.2,2.6-2.7,3.3-4.5H8.3z"/><rect x="28.3" y="63" transform="matrix(0.4809 0.8768 -0.8768 0.4809 78.1458 11.7267)" fill="#A05A2A" width="1.7" height="17.6"/><rect x="20.7" y="85.1" transform="matrix(0.6262 0.7796 -0.7796 0.6262 88.1064 21.2964)" fill="#A05A2A" width="2.3" height="34.8"/><rect x="119.9" y="110.5" transform="matrix(0.8184 -0.5746 0.5746 0.8184 -49.74 92.3595)" fill="#A05A2A" width="2.8" height="28.9"/><rect x="125.9" y="71.9" transform="matrix(0.6386 -0.7696 0.7696 0.6386 -18.4387 128.2572)" fill="#A05A2A" width="2.8" height="23.7"/></svg>