<?xml version="1.0" encoding="utf-8"?><!DOCTYPE svg PUBLIC "-//W3C//DTD SVG 1.1//EN" "http://www.w3.org/Graphics/SVG/1.1/DTD/svg11.dtd"><svg version="1.1" id="Layer_1" xmlns="http://www.w3.org/2000/svg" xmlns:xlink="http://www.w3.org/1999/xlink" x="0px" y="0px" width="150px" height="150px" viewBox="0 0 150 150" enable-background="new 0 0 150 150" xml:space="preserve"><path fill="#FFB5A1" d="M61.8,57.1v-2.9c0-6.1,5-11.1,11.1-11.1h61c6.9,0,12.6,5.7,12.6,12.6v0c0,6.9-5.7,12.6-12.6,12.6l-61,0	C66.8,68.2,61.8,63.2,61.8,57.1z"/><path fill="#FFB5A1" d="M96.5,118.4H62.2c-20.7,0-37.7-17-37.7-37.7v0c0-20.7,17-37.7,37.7-37.7h34.2"/><rect x="4.8" y="53.7" fill="#FFB5A1" width="52.9" height="54"/><path fill="#F7A692" d="M61.8,80.8L61.8,80.8c0-6.9,5.7-12.6,12.6-12.6h21c6.9,0,12.6,5.7,12.6,12.6v0c0,6.9-5.7,12.6-12.6,12.6h-21	C67.5,93.4,61.8,87.7,61.8,80.8z"/><path fill="#F7A692" d="M61.8,105.9L61.8,105.9c0-6.9,5.7-12.6,12.6-12.6h21c6.9,0,12.6,5.7,12.6,12.6v0c0,6.9-5.7,12.6-12.6,12.6	h-21C67.5,118.5,61.8,112.9,61.8,105.9z"/><path fill="#F7A692" d="M60.5,30.7L60.5,30.7c6.9,0,12.6,5.7,12.6,12.6v23.2c0,6.9-5.7,12.6-12.6,12.6h0c-6.9,0-12.6-5.7-12.6-12.6	V43.3C47.9,36.4,53.6,30.7,60.5,30.7z"/></svg>