<?xml version="1.0" encoding="utf-8"?><!DOCTYPE svg PUBLIC "-//W3C//DTD SVG 1.1//EN" "http://www.w3.org/Graphics/SVG/1.1/DTD/svg11.dtd"><svg version="1.1" id="Layer_1" xmlns="http://www.w3.org/2000/svg" xmlns:xlink="http://www.w3.org/1999/xlink" x="0px" y="0px" width="150px" height="150px" viewBox="0 0 150 150" enable-background="new 0 0 150 150" xml:space="preserve"><path fill="#B5B5B5" d="M50.8,69.2H24.7c-2.6,0-4.7-2.1-4.7-4.7v0c0-2.6,2.1-4.7,4.7-4.7h26.1c2.6,0,4.7,2.1,4.7,4.7v0	C55.4,67.1,53.3,69.2,50.8,69.2z"/><rect x="23.5" y="73.4" fill="#773924" width="109.5" height="44"/><rect x="10" y="69.7" fill="#893E2C" width="129.3" height="7.7"/><rect x="6.3" y="64.2" fill="#91432D" width="136.7" height="7.7"/><rect x="18.4" y="77.2" fill="#91432D" width="10.4" height="53.6"/><g><rect x="86.9" y="77.4" fill="#91432D" width="37.7" height="39.9"/></g><path fill="#B7B7B7" d="M98.6,85.3V85c0-1.3,1.1-2.4,2.4-2.4h11.2c1.3,0,2.4,1.1,2.4,2.4v0.3"/><path fill="#B7B7B7" d="M98.6,104.7v-0.3c0-1.3,1.1-2.4,2.4-2.4h11.2c1.3,0,2.4,1.1,2.4,2.4v0.3"/><g><rect x="86.9" y="92.8" fill="#773924" width="37.7" height="1.7"/></g><circle fill="#FFBC00" cx="63.8" cy="31.9" r="5.8"/><polyline fill="none" stroke="#B5B5B5" stroke-width="4.4051" stroke-linecap="round" stroke-linejoin="round" stroke-miterlimit="10" points="37.7,61.9 31.5,35.2 60.2,27.6"/><path fill="#B5B5B5" d="M55.7,42.2c-5-5-5-13,0-18s13-5,18,0"/><path fill="#B5B5B5" d="M62.4,33L62.4,33c-1.8,1.8-4.8,1.8-6.6,0l-7.1-7.1c-1.8-1.8-1.8-4.8,0-6.6l0,0c1.8-1.8,4.8-1.8,6.6,0	l7.1,7.1C64.2,28.2,64.2,31.2,62.4,33z"/><rect x="124.6" y="77.4" fill="#91432D" width="10.4" height="53.4"/></svg>