<?xml version="1.0" encoding="UTF-8" standalone="no"?><svg width="196px" height="95px" viewBox="0 0 196 95" version="1.1" xmlns="http://www.w3.org/2000/svg" xmlns:xlink="http://www.w3.org/1999/xlink" xmlns:sketch="http://www.bohemiancoding.com/sketch/ns"><title>crab</title><desc>Created with Sketch.</desc><defs/><g id="Page-1" stroke="none" stroke-width="1" fill="none" fill-rule="evenodd" sketch:type="MSPage"><g id="crab" sketch:type="MSLayerGroup"><path d="M103.947,89.882 L91.553,89.882 C72.47,89.882 57,74.412 57,55.329 C57,36.245 72.47,20.775 91.553,20.775 L103.947,20.775 C123.03,20.775 138.5,36.245 138.5,55.329 C138.5,74.412 123.03,89.882 103.947,89.882" id="Fill-1" fill="#D17D7D" sketch:type="MSShapeGroup"/><path d="M103.946,20.775 L91.554,20.775 C72.47,20.775 57,36.245 57,55.329 L138.5,55.329 C138.5,36.245 123.03,20.775 103.946,20.775" id="Fill-2" fill="#E53838" sketch:type="MSShapeGroup"/><path d="M83.077,23.084 L83.077,23.084 C79.646,23.084 76.839,20.277 76.839,16.846 L76.839,6.883 C76.839,3.452 79.646,0.645 83.077,0.645 C86.508,0.645 89.315,3.452 89.315,6.883 L89.315,16.846 C89.315,20.277 86.508,23.084 83.077,23.084" id="Fill-3" fill="#1E1E1E" sketch:type="MSShapeGroup"/><path d="M112.423,23.553 L112.423,23.553 C108.992,23.553 106.185,20.746 106.185,17.315 L106.185,7.352 C106.185,3.922 108.992,1.114 112.423,1.114 C115.854,1.114 118.661,3.922 118.661,7.352 L118.661,17.315 C118.661,20.746 115.854,23.553 112.423,23.553" id="Fill-4" fill="#1E1E1E" sketch:type="MSShapeGroup"/><path d="M91.75,48 L91.75,48 C89.367,48 87.416,46.05 87.416,43.667 L87.416,34.5 C87.416,32.117 89.367,30.167 91.75,30.167 C94.133,30.167 96.083,32.117 96.083,34.5 L96.083,43.667 C96.083,46.05 94.133,48 91.75,48" id="Fill-5" fill="#F93E3E" sketch:type="MSShapeGroup"/><path d="M103.75,48 L103.75,48 C101.367,48 99.416,46.05 99.416,43.667 L99.416,34.5 C99.416,32.117 101.367,30.167 103.75,30.167 C106.133,30.167 108.083,32.117 108.083,34.5 L108.083,43.667 C108.083,46.05 106.133,48 103.75,48" id="Fill-6" fill="#F93E3E" sketch:type="MSShapeGroup"/><path d="M97.75,66.833 C92.296,66.833 87.833,71.296 87.833,76.75 L87.833,89.68 C89.055,89.811 90.296,89.882 91.554,89.882 L103.946,89.882 C105.203,89.882 106.444,89.811 107.666,89.68 L107.666,76.75 C107.666,71.296 103.204,66.833 97.75,66.833" id="Fill-7" fill="#C66D6D" sketch:type="MSShapeGroup"/><path d="M143.961,34.344 C139.286,34.344 135.462,38.169 135.462,42.842 C135.462,47.517 139.286,51.341 143.961,51.341 L195.451,51.341 C195.451,41.993 187.803,34.344 178.455,34.344 L161.055,34.344 C160.553,34.344 160.057,34.377 159.565,34.42 C159.213,34.375 158.857,34.344 158.493,34.344 L143.961,34.344" id="Fill-8" fill="#D33131" sketch:type="MSShapeGroup"/><path d="M149.959,36.823 C146.654,33.518 141.246,33.518 137.941,36.823 C134.636,40.128 134.636,45.537 137.941,48.842 L174.351,85.252 C180.961,78.641 180.961,67.825 174.351,61.215 L162.047,48.911 C161.692,48.556 161.318,48.228 160.94,47.911 C160.723,47.63 160.493,47.356 160.235,47.099 L149.959,36.823" id="Fill-9" fill="#D33131" sketch:type="MSShapeGroup"/><path d="M152.459,42.843 C152.459,38.169 148.635,34.344 143.961,34.344 C139.286,34.344 135.462,38.169 135.462,42.843 L135.462,94.334 C144.81,94.334 152.459,86.686 152.459,77.337 L152.459,59.938 C152.459,59.435 152.426,58.94 152.383,58.447 C152.428,58.095 152.459,57.739 152.459,57.375 L152.459,42.843" id="Fill-10" fill="#D33131" sketch:type="MSShapeGroup"/><path d="M129.775,65.931 C132.642,65.931 134.986,63.586 134.986,60.72 C134.986,57.854 132.642,55.509 129.775,55.509 L110.048,55.509 C111.107,48.371 117.283,42.843 124.703,42.843 L150.447,42.843 C158.605,42.843 165.28,49.518 165.28,57.676 C165.28,65.834 158.605,72.509 150.447,72.509 L124.703,72.509 C119.595,72.509 115.069,69.891 112.398,65.931 L129.775,65.931" id="Fill-11" fill="#9E1414" sketch:type="MSShapeGroup"/><path d="M51.54,34.344 C56.214,34.344 60.038,38.169 60.038,42.842 C60.038,47.517 56.214,51.341 51.54,51.341 L0.048,51.341 C0.048,41.993 7.697,34.344 17.045,34.344 L34.444,34.344 C34.947,34.344 35.443,34.377 35.935,34.42 C36.287,34.375 36.643,34.344 37.007,34.344 L51.54,34.344" id="Fill-12" fill="#D33131" sketch:type="MSShapeGroup"/><path d="M45.54,36.823 C48.846,33.518 54.254,33.518 57.559,36.823 C60.864,40.128 60.864,45.537 57.559,48.842 L21.149,85.252 C14.539,78.641 14.539,67.825 21.149,61.215 L33.453,48.911 C33.808,48.556 34.182,48.228 34.56,47.911 C34.778,47.63 35.007,47.356 35.265,47.099 L45.54,36.823" id="Fill-13" fill="#D33131" sketch:type="MSShapeGroup"/><path d="M43.041,42.843 C43.041,38.169 46.865,34.344 51.539,34.344 C56.214,34.344 60.038,38.169 60.038,42.843 L60.038,94.334 C50.689,94.334 43.041,86.686 43.041,77.337 L43.041,59.938 C43.041,59.435 43.074,58.94 43.117,58.447 C43.072,58.095 43.041,57.739 43.041,57.375 L43.041,42.843" id="Fill-14" fill="#D33131" sketch:type="MSShapeGroup"/><path d="M65.724,65.931 C62.858,65.931 60.514,63.586 60.514,60.72 C60.514,57.854 62.858,55.509 65.724,55.509 L85.452,55.509 C84.392,48.371 78.217,42.843 70.796,42.843 L45.053,42.843 C36.894,42.843 30.22,49.518 30.22,57.676 C30.22,65.834 36.894,72.509 45.053,72.509 L70.796,72.509 C75.905,72.509 80.431,69.891 83.101,65.931 L65.724,65.931" id="Fill-15" fill="#9E1414" sketch:type="MSShapeGroup"/></g></g></svg>