<?xml version="1.0" encoding="utf-8"?><!DOCTYPE svg PUBLIC "-//W3C//DTD SVG 1.1//EN" "http://www.w3.org/Graphics/SVG/1.1/DTD/svg11.dtd"><svg version="1.1" id="Layer_1" xmlns="http://www.w3.org/2000/svg" xmlns:xlink="http://www.w3.org/1999/xlink" x="0px" y="0px" width="150px" height="150px" viewBox="0 0 150 150" enable-background="new 0 0 150 150" xml:space="preserve"><path fill="#C1623D" d="M95.5,132.7H53c-5.4,0-9.8-4.4-9.8-9.8V26.6c0-5.4,4.4-9.8,9.8-9.8h42.5c5.4,0,9.8,4.4,9.8,9.8v96.3	C105.3,128.3,100.9,132.7,95.5,132.7z"/><path fill="#FF9D00" d="M120.1,86.6h-4.2c-2.6,0-4.6-2.1-4.6-4.6V67.6c0-2.6,2.1-4.6,4.6-4.6h4.2c2.6,0,4.6,2.1,4.6,4.6V82	C124.7,84.5,122.6,86.6,120.1,86.6z"/><circle fill="#FFC200" cx="74.5" cy="74.8" r="42.4"/><circle fill="#FFFFFF" cx="74.5" cy="74.8" r="35.3"/><path fill="#93422A" d="M79.9,27.1h-9.5c-1.6,0-2.9-1.3-2.9-2.9v0c0-1.6,1.3-2.9,2.9-2.9h9.5c1.6,0,2.9,1.3,2.9,2.9v0	C82.9,25.8,81.5,27.1,79.9,27.1z"/><path fill="#C9C9C9" d="M74.5,51.7L74.5,51.7c-0.9,0-1.6-0.7-1.6-1.6v-6c0-0.9,0.7-1.6,1.6-1.6l0,0c0.9,0,1.6,0.7,1.6,1.6v6	C76,51,75.3,51.7,74.5,51.7z"/><path fill="#C9C9C9" d="M74.5,107L74.5,107c-0.9,0-1.6-0.7-1.6-1.6v-6c0-0.9,0.7-1.6,1.6-1.6l0,0c0.9,0,1.6,0.7,1.6,1.6v6	C76,106.3,75.3,107,74.5,107z"/><path fill="#C9C9C9" d="M51.3,74.8L51.3,74.8c0,0.9-0.7,1.6-1.6,1.6h-6c-0.9,0-1.6-0.7-1.6-1.6l0,0c0-0.9,0.7-1.6,1.6-1.6h6	C50.6,73.2,51.3,73.9,51.3,74.8z"/><path fill="#C9C9C9" d="M106.3,74.8L106.3,74.8c0,0.9-0.7,1.6-1.6,1.6h-6c-0.9,0-1.6-0.7-1.6-1.6l0,0c0-0.9,0.7-1.6,1.6-1.6h6	C105.6,73.2,106.3,73.9,106.3,74.8z"/><path fill="#DDDDDD" d="M60.4,52.7L60.4,52.7c-0.7,0.5-1.7,0.2-2.2-0.5l-1.5-2.4c-0.5-0.7-0.2-1.7,0.5-2.2h0	c0.7-0.5,1.7-0.2,2.2,0.5l1.5,2.4C61.3,51.3,61.1,52.2,60.4,52.7z"/><path fill="#DDDDDD" d="M91.8,102L91.8,102c-0.7,0.5-1.7,0.2-2.2-0.5L88,98.9c-0.5-0.7-0.2-1.7,0.5-2.2l0,0c0.7-0.5,1.7-0.2,2.2,0.5	l1.6,2.6C92.7,100.5,92.5,101.5,91.8,102z"/><path fill="#DDDDDD" d="M51.7,61.9L51.7,61.9c-0.4,0.7-1.4,1-2.1,0.6L47.1,61c-0.7-0.4-1-1.4-0.6-2.1v0c0.4-0.7,1.4-1,2.1-0.6	l2.5,1.4C51.9,60.2,52.1,61.1,51.7,61.9z"/><path fill="#DDDDDD" d="M102.5,90.7L102.5,90.7c-0.4,0.7-1.4,1-2.1,0.6l-2.6-1.5c-0.7-0.4-1-1.4-0.6-2.1l0,0c0.4-0.7,1.4-1,2.1-0.6	l2.6,1.5C102.6,89,102.9,90,102.5,90.7z"/><path fill="#545454" d="M74.5,45.4L74.5,45.4c1.8,0,3.3,1.5,3.3,3.3v25.8c0,1.8-1.5,3.3-3.3,3.3h0c-1.8,0-3.3-1.5-3.3-3.3V48.7	C71.2,46.9,72.7,45.4,74.5,45.4z"/><path fill="#545454" d="M94.2,74.6L94.2,74.6c0,1.8-1.5,3.3-3.3,3.3H74.8c-1.8,0-3.3-1.5-3.3-3.3v0c0-1.8,1.5-3.3,3.3-3.3h16.1	C92.7,71.3,94.2,72.8,94.2,74.6z"/><path fill="#DDDDDD" d="M52.3,88.8L52.3,88.8c0.5,0.7,0.2,1.7-0.5,2.2l-2.4,1.5c-0.7,0.5-1.7,0.2-2.2-0.5l0,0	c-0.5-0.7-0.2-1.7,0.5-2.2l2.4-1.5C50.9,87.8,51.8,88,52.3,88.8z"/><path fill="#DDDDDD" d="M101.7,57.7L101.7,57.7c0.5,0.7,0.2,1.7-0.5,2.2l-2.6,1.6c-0.7,0.5-1.7,0.2-2.2-0.5v0	c-0.5-0.7-0.2-1.7,0.5-2.2l2.6-1.6C100.3,56.7,101.3,56.9,101.7,57.7z"/><path fill="#DDDDDD" d="M61.7,97.7L61.7,97.7c0.7,0.4,1,1.4,0.6,2.1l-1.4,2.5c-0.4,0.7-1.4,1-2.1,0.6l0,0c-0.7-0.4-1-1.4-0.6-2.1	l1.4-2.5C60,97.5,61,97.3,61.7,97.7z"/><path fill="#DDDDDD" d="M90.1,46.7L90.1,46.7c0.7,0.4,1,1.4,0.6,2.1l-1.5,2.6c-0.4,0.7-1.4,1-2.1,0.6l0,0c-0.7-0.4-1-1.4-0.6-2.1	l1.5-2.6C88.4,46.5,89.4,46.2,90.1,46.7z"/><circle fill="#6B6B6B" cx="74.5" cy="74.8" r="4.4"/></svg>