<?xml version="1.0" encoding="utf-8"?><!DOCTYPE svg PUBLIC "-//W3C//DTD SVG 1.1//EN" "http://www.w3.org/Graphics/SVG/1.1/DTD/svg11.dtd"><svg version="1.1" id="Layer_1" xmlns="http://www.w3.org/2000/svg" xmlns:xlink="http://www.w3.org/1999/xlink" x="0px" y="0px" width="150px" height="150px" viewBox="0 0 150 150" enable-background="new 0 0 150 150" xml:space="preserve"><path fill="#7AC70C" d="M120.3,90.3l-45.1,45.1c12.3,3.3,25.9,0.1,35.6-9.5C120.4,116.2,123.6,102.5,120.3,90.3z"/><path fill="#70AF0C" d="M75.2,135.4l45.1-45.1C108,87,94.3,90.1,84.7,99.8C75.1,109.4,71.9,123.1,75.2,135.4z"/><path fill="#7AC70C" d="M29.7,90.3l45.1,45.1c-12.3,3.3-25.9,0.1-35.6-9.5C29.6,116.2,26.4,102.5,29.7,90.3z"/><path fill="#70AF0C" d="M74.8,135.4L29.7,90.3C42,87,55.7,90.1,65.3,99.8C74.9,109.4,78.1,123.1,74.8,135.4z"/><rect x="72.3" y="44.2" fill="#70AF0C" width="4.9" height="78.4"/><path fill="#FFFFFF" d="M74.8,85.7L74.8,85.7c-4.3,0-7.8-3.5-7.8-7.8V19c0-4.3,3.5-7.8,7.8-7.8h0c4.3,0,7.8,3.5,7.8,7.8v58.8	C82.6,82.1,79.1,85.7,74.8,85.7z"/><path fill="#FFFFFF" d="M37.5,48.4L37.5,48.4c0-4.3,3.5-7.8,7.8-7.8h58.8c4.3,0,7.8,3.5,7.8,7.8v0c0,4.3-3.5,7.8-7.8,7.8H45.3	C41,56.3,37.5,52.7,37.5,48.4z"/><path fill="#FFFFFF" d="M48.4,22.1L48.4,22.1c3.1-3.1,8-3.1,11.1,0l41.6,41.6c3.1,3.1,3.1,8,0,11.1l0,0c-3.1,3.1-8,3.1-11.1,0	L48.4,33.2C45.4,30.1,45.4,25.1,48.4,22.1z"/><path fill="#FFFFFF" d="M101.1,22.1L101.1,22.1c3.1,3.1,3.1,8,0,11.1L59.5,74.7c-3.1,3.1-8,3.1-11.1,0l0,0c-3.1-3.1-3.1-8,0-11.1	L90,22.1C93,19,98,19,101.1,22.1z"/><circle fill="#FFCE00" cx="74.8" cy="48.4" r="10.8"/></svg>