<?xml version="1.0" encoding="UTF-8" standalone="no"?><svg width="113px" height="104px" viewBox="0 0 113 104" version="1.1" xmlns="http://www.w3.org/2000/svg" xmlns:xlink="http://www.w3.org/1999/xlink" xmlns:sketch="http://www.bohemiancoding.com/sketch/ns"><title>cloud</title><description>Created with Sketch (http://www.bohemiancoding.com/sketch)</description><defs><linearGradient x1="44.4970767%" y1="0%" x2="77.3141044%" y2="75.2327967%" id="linearGradient-1"><stop stop-color="#009DE8" offset="0%"/><stop stop-color="#1CB0F6" offset="100%"/></linearGradient></defs><g id="Page-1" stroke="none" stroke-width="1" fill="none" fill-rule="evenodd" sketch:type="MSPage"><g id="cloud" sketch:type="MSArtboardGroup" transform="translate(-6.000000, -2.000000)"><g id="Group" sketch:type="MSLayerGroup" transform="translate(6.000000, 2.000000)"><path d="M52.0893555,104.025391 L112.990234,64.5810547 L60.28125,5.33789062 L0.5,42.5 L52.0893555,104.025391 Z" id="Rectangle-12" fill="url(#linearGradient-1)" sketch:type="MSShapeGroup"/><path d="M25.2017904,42.7841698 L0.771155536,42.8 C0.771155536,42.8 0,40.073954 0,38.4936864 C0,31.0413288 6.04415551,25 13.5,25 C15.4595904,25 17.3216649,25.4173202 19.0021191,26.1678958 C19.0007114,26.0982307 19,26.0290048 19,25.9602358 C19,11.6227928 30.6405958,0 45,0 C59.3594042,0 71,11.6227928 71,25.9602358 C71,27.239192 70.7544041,28.6719524 70.359552,30.1489845 C70.8914636,30.0511339 71.4397537,30 72,30 C76.970563,30 81,34.0249666 81,38.9900151 C81,40.4291993 80.0595471,42.9954781 80.0595471,42.9954781 L64.6158295,42.9998111 C64.6157521,42.9999388 64.615715,43 64.615715,43 L64.580748,42.999821 L63.9427111,43 C63.9427111,43 63.9422846,42.9988375 63.9414495,42.9965481 L25.2101581,42.7982628 C25.2101581,42.7982628 25.2073286,42.7935184 25.2017904,42.7841698 Z" id="Oval-7" fill="#FFFFFF" sketch:type="MSShapeGroup"/></g></g></g></svg>