<?xml version="1.0" encoding="utf-8"?><!DOCTYPE svg PUBLIC "-//W3C//DTD SVG 1.1//EN" "http://www.w3.org/Graphics/SVG/1.1/DTD/svg11.dtd"><svg version="1.1" id="Layer_1" xmlns="http://www.w3.org/2000/svg" xmlns:xlink="http://www.w3.org/1999/xlink" x="0px" y="0px" width="150px" height="150px" viewBox="0 0 150 150" enable-background="new 0 0 150 150" xml:space="preserve"><path fill="#9B4E2C" d="M104.8,131.6L104.8,131.6c-3.5,0-6.3-2.8-6.3-6.3V84.2c0-3.5,2.8-6.3,6.3-6.3h0c3.5,0,6.3,2.8,6.3,6.3v41.1	C111.1,128.8,108.3,131.6,104.8,131.6z"/><path fill="#9B4E2C" d="M117.3,125.3L117.3,125.3c0,3.5-2.8,6.3-6.3,6.3h-6.2c-3.5,0-6.3-2.8-6.3-6.3v0c0-3.5,2.8-6.3,6.3-6.3h6.2	C114.5,119.1,117.3,121.9,117.3,125.3z"/><path fill="#47221A" d="M49.5,124.9L49.5,124.9c-7.3-7.3-7.3-19.2,0-26.5l42-42c7.3-7.3,19.2-7.3,26.5,0l0,0	c7.3,7.3,7.3,19.2,0,26.5l-42,42C68.7,132.3,56.8,132.3,49.5,124.9z"/><g><path fill="#3F1F17" d="M56.2,131.6c-8.4,0-16.2-3.3-22.1-9.2c-12.2-12.2-12.2-32.1,0-44.3c2-2,5.2-2,7.2,0c2,2,2,5.2,0,7.2 c-8.2,8.2-8.2,21.6,0,29.8c4,4,9.3,6.2,14.9,6.2c5.6,0,10.9-2.2,14.9-6.2c2-2,5.2-2,7.2,0c2,2,2,5.2,0,7.2 C72.5,128.3,64.6,131.6,56.2,131.6z"/></g><path fill="#47221A" d="M108,84L108,84c-8.8,0-16-7.2-16-16v-32c0-8.8,7.2-16,16-16h0c8.8,0,16,7.2,16,16v32	C124,76.9,116.9,84,108,84z"/><path fill="#9B4E2C" d="M82.1,131.6H61.5c-3.5,0-6.3-2.8-6.3-6.3v0c0-3.5,2.8-6.3,6.3-6.3h20.6c3.5,0,6.3,2.8,6.3,6.3v0	C88.3,128.8,85.5,131.6,82.1,131.6z"/><path fill="#47221A" d="M147.4,27v3.1c0,8.8-7.2,16-16,16h-8.1c-8.8,0-16-7.2-16-16V27"/><path fill="#9B4E2C" d="M147.4,30.1V27h-7.2c-8.8,0-16,7.2-16,16v3.1h7.2C140.2,46.1,147.4,38.9,147.4,30.1z"/><path d="M147,32.9L147,32.9C147.1,32.9,147.1,32.9,147,32.9c0.3-0.9,0.4-1.9,0.4-2.8V27h-6.3C141.1,30.3,143.8,32.9,147,32.9z"/><path d="M118.2,28.6c0,1.8-1.5,3.3-3.3,3.3c-1.8,0-3.3-1.5-3.3-3.3"/><circle fill="#47221A" cx="63.5" cy="112" r="19.5"/><circle fill="#874227" cx="138.3" cy="32.3" r="1"/><circle fill="#874227" cx="141.8" cy="35.8" r="1"/><circle fill="#874227" cx="138.3" cy="35.8" r="1"/><path fill="#47221A" d="M92.1,8.6v31c0,0.5,0.4,0.9,0.9,0.9h15.1c0.7,0,1.1-0.7,0.8-1.4l-15.1-31C93.4,7.3,92.1,7.6,92.1,8.6z"/><path fill="#47221A" d="M111.1,113.5h-1.5c-6.1,0-11-4.9-11-11v-46c0-6.1,4.9-11,11-11h1.5"/><rect x="90.6" y="49.5" fill="#CC2F2F" width="34.5" height="6.4"/><g><path fill="#CEBFBA" d="M58.2,132.2L58.2,132.2c-3.5,0-6.3-2.8-6.3-6.3V96.1c0-3.5,2.8-6.3,6.3-6.3h0c3.5,0,6.3,2.8,6.3,6.3v29.7 C64.5,129.3,61.6,132.2,58.2,132.2z"/><path fill="#CEBFBA" d="M70.7,125.9L70.7,125.9c0,3.5-2.8,6.3-6.3,6.3h-6.2c-3.5,0-6.3-2.8-6.3-6.3v0c0-3.5,2.8-6.3,6.3-6.3h6.2 C67.9,119.6,70.7,122.4,70.7,125.9z"/><path fill="#8E4629" d="M17,117.9H7.8c-3,0-5.4-2.4-5.4-5.4v0c0-3,2.4-5.4,5.4-5.4H17c3,0,5.4,2.4,5.4,5.4v0 C22.4,115.5,20,117.9,17,117.9z"/><path fill="#CEBFBA" d="M12.9,125.5L12.9,125.5c-7.3-7.3-7.3-19.3,0-26.6l23.2-23.2c7.3-7.3,19.3-7.3,26.6,0l0,0 c7.3,7.3,7.3,19.3,0,26.6l-23.2,23.2C32.2,132.8,20.2,132.8,12.9,125.5z"/><path fill="#CEBFBA" d="M52.3,104.6L52.3,104.6c-8.9,0-16-7.2-16-16V58.7c0-7.2,5.9-13.1,13.1-13.1h3c8.9,0,16,7.2,16,16v26.9 C68.4,97.4,61.2,104.6,52.3,104.6z"/><path fill="#4F2816" d="M73.9,72.6L73.9,72.6c-1.7,0-3.2-1.4-3.2-3.2V58.9c0-1.7,1.4-3.2,3.2-3.2h0c1.7,0,3.2,1.4,3.2,3.2v10.6 C77,71.2,75.6,72.6,73.9,72.6z"/><path fill="#A85231" d="M45.6,132.1H24.9c-3.5,0-6.3-2.8-6.3-6.3v0c0-3.5,2.8-6.3,6.3-6.3h20.7c3.5,0,6.3,2.8,6.3,6.3v0 C51.9,129.3,49.1,132.1,45.6,132.1z"/><path fill="#9B4E2C" d="M12.9,125.5L12.9,125.5c-7.3-7.3-7.3-19.3,0-26.6l23.4-23.4l14.2,14.2c6.9,6.9,6.9,18,0,24.8l-11,11 C32.2,132.8,20.2,132.8,12.9,125.5z"/><path fill="#CEBFBA" d="M79,59.4v3.8c0,10.8-8.7,19.5-19.5,19.5h0.8c-10.8,0-19.5-8.7-19.5-19.5v-3.8"/><path fill="#9B4E2C" d="M61.6,63.9L61.6,63.9c-2.5,2.5-6.5,2.5-9,0l0,0c-2.5-2.5-2.5-6.5,0-9l0,0c2.5-2.5,6.5-2.5,9,0l0,0 C64,57.4,64,61.4,61.6,63.9z"/><circle fill="#A85231" cx="27" cy="112.5" r="19.6"/><path fill="#CEBFBA" d="M70.1,75.1L70.1,75.1c-1.7,0-3.2-1.4-3.2-3.2V55.6c0-1.7,1.4-3.2,3.2-3.2l0,0c1.7,0,3.2,1.4,3.2,3.2v16.4 C73.2,73.7,71.8,75.1,70.1,75.1z"/><path fill="#4F2816" d="M61.4,57.8c0,1.4-1.1,2.5-2.5,2.5s-2.5-1.1-2.5-2.5"/><path fill="#9B4E2C" d="M36.3,46.7v9.9c0,0.9,1.2,1.4,1.8,0.7l9-9.9c0.6-0.7,0.1-1.7-0.8-1.7h-9C36.8,45.6,36.3,46.1,36.3,46.7z"/><circle fill="#8E7369" cx="74.8" cy="61.6" r="0.9"/></g></svg>