<?xml version="1.0" encoding="utf-8"?><!DOCTYPE svg PUBLIC "-//W3C//DTD SVG 1.1//EN" "http://www.w3.org/Graphics/SVG/1.1/DTD/svg11.dtd"><svg version="1.1" id="Layer_1" xmlns="http://www.w3.org/2000/svg" xmlns:xlink="http://www.w3.org/1999/xlink" x="0px" y="0px" width="150px" height="150px" viewBox="0 0 150 150" enable-background="new 0 0 150 150" xml:space="preserve"><path fill="#474747" d="M72.8,101.8H59c-4.7,0-8.5-3.8-8.5-8.5v-9.8h22.4V101.8z"/><path fill="#474747" d="M89.8,101.8H72.1c-5.8,0-10.5-4.7-10.5-10.5v-2.1c0-5.8,4.7-10.5,10.5-10.5h17.7c5.8,0,10.5,4.7,10.5,10.5	v2.1C100.3,97,95.6,101.8,89.8,101.8z"/><g><polygon fill="#474747" points="29.6,84.8 27.8,80.8 73.9,64.3 75.7,68.3"/></g><circle fill="none" stroke="#231F20" stroke-width="6.8109" stroke-miterlimit="10" cx="125.4" cy="88.3" r="19.6"/><circle fill="none" stroke="#231F20" stroke-width="6.8109" stroke-miterlimit="10" cx="28.1" cy="88.3" r="19.6"/><path fill="#B7B7B7" d="M89.4,93.9L89.4,93.9c3.3,1.3,7.1-0.3,8.4-3.6l3.1-7.8c1.3-3.3-0.3-7.1-3.6-8.4l0,0	c-3.3-1.3-7.1,0.3-8.4,3.6l-3.1,7.8C84.5,88.9,86.1,92.6,89.4,93.9z"/><path fill="#B7B7B7" d="M83.6,93.9L83.6,93.9c-3.3,1.3-7.1-0.3-8.4-3.6l-3.1-7.8c-1.3-3.3,0.3-7.1,3.6-8.4l0,0	c3.3-1.3,7.1,0.3,8.4,3.6l3.1,7.8C88.5,88.9,86.9,92.6,83.6,93.9z"/><path fill="#B7B7B7" d="M83.6,101.8H72.8c-4,0-7.2-3.2-7.2-7.2v0c0-4,3.2-7.2,7.2-7.2h10.8c4,0,7.2,3.2,7.2,7.2v0	C90.9,98.5,87.6,101.8,83.6,101.8z"/><circle fill="#C6C6C6" cx="73.1" cy="94.5" r="4.6"/><g><rect x="59.2" y="61.6" fill="#474747" width="4.9" height="31.2"/></g><circle fill="#CCCCCC" cx="86.5" cy="82.6" r="5.4"/><polyline fill="#474747" points="111.8,60.8 103.3,52.2 111.8,43.7"/><path fill="#9E9E9E" d="M111.8,43.7c4.7,0,8.5,3.8,8.5,8.5s-3.8,8.5-8.5,8.5"/><path fill="#874F29" d="M67.7,63.5H56.1c-2,0-3.7-1.7-3.7-3.7v0c0-2,1.7-3.7,3.7-3.7h11.5c2,0,3.7,1.7,3.7,3.7v0	C71.4,61.8,69.7,63.5,67.7,63.5z"/><path fill="#874F29" d="M53.6,62.4l-5.3-5.3c-1.2-1.2-1.2-3.1,0-4.2l0,0c1.2-1.2,3.1-1.2,4.2,0l5.3,5.3c1.2,1.2,1.2,3.1,0,4.2l0,0	C56.6,63.6,54.7,63.6,53.6,62.4z"/><path fill="#D33131" d="M1.7,87.7c0-14.6,11.8-26.4,26.4-26.4s26.4,11.8,26.4,26.4"/><path fill="#D33131" d="M116.1,78.8c7.6-7.6,18.8-9.6,28.3-5.9c1.2,0.5,2.3-1,1.4-2c-4.8-5.9-12.2-9.6-20.4-9.6	c-14.2,0-25.7,11.1-26.4,25.1c0,0.7,0.5,1.3,1.3,1.3h9.1c0.5,0,0.9-0.3,1.1-0.8C111.8,84,113.6,81.2,116.1,78.8z"/><path fill="#474747" d="M125.4,88.3c1.1-0.8,1.4-2.3,0.6-3.4L97.7,44.2l0,0c0,0,0,0,0,0l0,0c-3.7-5.3-10.9-6.6-16.2-2.9l2.8,4	c3-2.1,7.3-1.4,9.4,1.7l0,0l0,0L122,87.7C122.8,88.8,124.3,89,125.4,88.3L125.4,88.3z"/><path fill="#D33131" d="M45.3,97h-8c-5.1,0-9.2-4.1-9.2-9.2v0c0-5.1,4.1-9.2,9.2-9.2h8c5.1,0,9.2,4.1,9.2,9.2v0	C54.5,92.9,50.4,97,45.3,97z"/><path fill="#D3C4A3" d="M95.8,72.8c4.4-0.7,7.7-4.4,7.7-9c0-5-4.1-9.1-9.1-9.1c-1.7,0-3.3,0.5-4.7,1.3L60.5,67.4	c-3.6,1.4-2.3,5.5,1.7,5.5h31.9c0.1,0,0.3,0,0.4,0s0.3,0,0.4,0h0.1c0,0,0.1,0,0.1,0c0.2,0,0.3,0,0.5,0	C95.6,72.8,95.7,72.8,95.8,72.8z"/><path fill="#231F20" d="M84.1,46.8l-7.7,4.8c-1.8,1.1-4.2,0.6-5.3-1.2l0,0c-1.1-1.8-0.6-4.2,1.2-5.3l7.7-4.8	c1.8-1.1,4.2-0.6,5.3,1.2v0C86.5,43.3,85.9,45.7,84.1,46.8z"/><path fill="none" stroke="#F23D3D" stroke-width="5" stroke-linecap="round" stroke-linejoin="round" stroke-miterlimit="10" d="M10.7,76.8c1.2-3.3,3.8-5.8,6.8-7"/></svg>