<?xml version="1.0" encoding="utf-8"?><!DOCTYPE svg PUBLIC "-//W3C//DTD SVG 1.1//EN" "http://www.w3.org/Graphics/SVG/1.1/DTD/svg11.dtd"><svg version="1.1" id="Layer_1" xmlns="http://www.w3.org/2000/svg" xmlns:xlink="http://www.w3.org/1999/xlink" x="0px" y="0px" width="150px" height="150px" viewBox="0 0 150 150" enable-background="new 0 0 150 150" xml:space="preserve"><path fill="#7BAAA3" d="M116.2,65.1H32.9V17.5c0-2.8,2.2-5,5-5h73.4c2.8,0,5,2.2,5,5V65.1z"/><path fill="#88BAB4" d="M118.7,70.7H30.5V19.9c0-2.8,2.2-5,5-5h78.2c2.8,0,5,2.2,5,5V70.7z"/><path fill="#A7D1CD" d="M122.4,78H26.7V22.6c0-2.8,2.2-5,5-5h85.7c2.8,0,5,2.2,5,5V78z"/><path fill="#C3E0E0" d="M117.4,138.5H31.7c-2.8,0-5-2.2-5-5V78h95.7v55.5C122.4,136.3,120.2,138.5,117.4,138.5z"/><rect x="33.8" y="85.1" fill="#FFFFFF" width="32.4" height="44.7"/><path fill="#686868" d="M38.3,129.8v-3.1c0-6.5,5.3-11.7,11.7-11.7h0c6.5,0,11.7,5.3,11.7,11.7v3.1"/><path opacity="0.39" fill="#4F97A3" d="M92.1,88.7H71.8c-0.4,0-0.7-0.3-0.7-0.7v-2.2c0-0.4,0.3-0.7,0.7-0.7h20.3	c0.4,0,0.7,0.3,0.7,0.7V88C92.8,88.4,92.5,88.7,92.1,88.7z"/><path opacity="0.39" fill="#4F97A3" d="M104,98.7H71.8c-0.4,0-0.7-0.3-0.7-0.7v-2.2c0-0.4,0.3-0.7,0.7-0.7H104	c0.4,0,0.7,0.3,0.7,0.7V98C104.7,98.4,104.4,98.7,104,98.7z"/><path opacity="0.39" fill="#4F97A3" d="M92.1,108.7H71.8c-0.4,0-0.7-0.3-0.7-0.7v-2.2c0-0.4,0.3-0.7,0.7-0.7h20.3	c0.4,0,0.7,0.3,0.7,0.7v2.2C92.8,108.4,92.5,108.7,92.1,108.7z"/><path opacity="0.39" fill="#4F97A3" d="M72.4,30.7H35.8c-0.4,0-0.7-0.3-0.7-0.7v-2.2c0-0.4,0.3-0.7,0.7-0.7h36.6	c0.4,0,0.7,0.3,0.7,0.7V30C73.1,30.4,72.8,30.7,72.4,30.7z"/><path opacity="0.39" fill="#4F97A3" d="M87.2,40.7H35.8c-0.4,0-0.7-0.3-0.7-0.7v-2.2c0-0.4,0.3-0.7,0.7-0.7h51.4	c0.4,0,0.7,0.3,0.7,0.7V40C87.9,40.4,87.6,40.7,87.2,40.7z"/><path opacity="0.39" fill="#4F97A3" d="M72.4,50.7H35.8c-0.4,0-0.7-0.3-0.7-0.7v-2.2c0-0.4,0.3-0.7,0.7-0.7h36.6	c0.4,0,0.7,0.3,0.7,0.7V50C73.1,50.4,72.8,50.7,72.4,50.7z"/><g><path fill="#67A09F" d="M101.2,133.8c-9.6,0-17.4-7.8-17.4-17.4c0-9.6,7.8-17.4,17.4-17.4c9.6,0,17.4,7.8,17.4,17.4 C118.7,126,110.8,133.8,101.2,133.8z M101.2,100c-9,0-16.4,7.3-16.4,16.4s7.3,16.4,16.4,16.4s16.4-7.3,16.4-16.4 S110.3,100,101.2,100z"/></g><g><path fill="#67A09F" d="M101.2,130.3c-7.6,0-13.9-6.2-13.9-13.9s6.2-13.9,13.9-13.9c7.6,0,13.9,6.2,13.9,13.9 S108.9,130.3,101.2,130.3z M101.2,103.6c-7.1,0-12.8,5.8-12.8,12.8s5.8,12.8,12.8,12.8s12.8-5.8,12.8-12.8S108.3,103.6,101.2,103.6 z"/></g><rect x="40.4" y="99.7" fill="#542E2A" width="19.1" height="15.2"/><path fill="#B5634B" d="M50,108.4c-1.8,0-3.3,1.4-3.3,3.2v3.8c0,1.7,1.5,3.2,3.3,3.2c1.8,0,3.3-1.4,3.3-3.2v-3.8	C53.3,109.8,51.8,108.4,50,108.4z"/><ellipse fill="#B7674E" cx="41" cy="105.1" rx="2.3" ry="2.1"/><ellipse fill="#B7674E" cx="59" cy="105.1" rx="2.3" ry="2.1"/><path fill="#BF7358" d="M41,96v3.2v3.8v3.5c0,4.6,4,8.4,9,8.4l0,0c4.9,0,9-3.8,9-8.4V96"/><path fill="#542E2A" d="M51.6,96.5l2.1,3.4h6.7c0-5.4-4.7-9.8-10.4-9.8l0,0c-5.7,0-10.4,4.4-10.4,9.8h12V96.5z"/><g><path fill="#67A09F" d="M107.1,110.3l-3.1,1.8l-0.3-0.3c-0.2-0.2-0.6-0.2-0.8,0c-0.2,0.2-0.2,0.6,0,0.8l0.1,0.1l-2.1,1.2l-3.5-3.5 c-0.6-0.6-1.5-0.6-2-0.1c-0.5,0.5-0.4,1.4,0.1,2l3.4,3.4l-1.2,2.1l0,0c-0.2-0.2-0.6-0.2-0.8,0s-0.2,0.6,0,0.8l0.2,0.2l-1.9,3.3 l0.5,0.5l2.6-2.6c0.2,0.1,0.5,0.1,0.7-0.1c0.2-0.2,0.2-0.5,0.1-0.7l1.7-1.7l2.8,2.8c0,0,0,0,0.1,0.1l-0.9,1.8l0,1.1l2.3-2.3 l0.2,0.2c0.3,0.3,0.7,0.3,1,0c0.3-0.3,0.3-0.7,0-1l-0.2-0.2l2.1-2.1l-0.9-0.2l-1.8,1c0,0-0.1-0.1-0.1-0.1l-2.8-2.8l1.6-1.6 c0.2,0.1,0.5,0.1,0.7-0.1c0.2-0.2,0.2-0.5,0.1-0.7l2.5-2.5L107.1,110.3z"/></g><g><path fill="#FFFFFF" d="M40.2,66.1c0.3-1.6,1.8-2.9,3.5-2.9c1.7,0,3.2,1.2,3.5,2.9H51v-4.4H36.7v4.4H40.2z"/><path fill="#FFFFFF" d="M47.3,67.5c-0.3,1.6-1.8,2.9-3.5,2.9c-1.7,0-3.2-1.2-3.5-2.9h-3.5v4.4H51v-4.4H47.3z"/><circle fill="#FFFFFF" cx="43.8" cy="66.8" r="2.2"/></g><line opacity="0.39" fill="none" stroke="#4F97A3" stroke-miterlimit="10" x1="71.9" y1="71.5" x2="116.1" y2="71.5"/><path fill="none" stroke="#4F97A3" stroke-miterlimit="10" d="M75.1,66.1c0.8,0.3,1.7-0.1,2.3-0.6c1.2-1,2.1-2.6,1.8-4.1	c-0.3-1.5-2.3-2.6-3.6-1.8c-1,0.6-1.2,1.9-1.1,3.1c0.2,2.5,1.5,4.8,2.6,7c0.2,0.3,0.3,0.7,0.2,1.1c-0.1,0.5-0.8,0.7-1.3,0.8	c-1,0.1-1.9,0.1-2.9-0.1"/><path fill="none" stroke="#4F97A3" stroke-miterlimit="10" d="M80,70.3c1.4-0.6,2.6-1.6,3.5-2.9c0,1.1,0.3,2.2,0.8,3.2	c2.1-0.3,4.2-1.1,5.9-2.4"/><path fill="none" stroke="#4F97A3" stroke-miterlimit="10" d="M90.1,70.5c1.4,0,2.8-0.1,4.2-0.4c3.2-6.1,6.8-12,10.8-17.5	c-1.8,4.8-3.6,9.5-5.3,14.3c-0.6,1.6-1.2,3.3-1.2,5.1c1-0.2,2.1-0.6,3-1.1"/><path fill="none" stroke="#4F97A3" stroke-miterlimit="10" d="M108.4,64c-0.4-0.4-0.9-0.5-1.4-0.5c-7.2-0.6-14.4-1-21.6-1"/></svg>