<?xml version="1.0" encoding="utf-8"?><!DOCTYPE svg PUBLIC "-//W3C//DTD SVG 1.1//EN" "http://www.w3.org/Graphics/SVG/1.1/DTD/svg11.dtd"><svg version="1.1" id="Layer_1" xmlns="http://www.w3.org/2000/svg" xmlns:xlink="http://www.w3.org/1999/xlink" x="0px" y="0px" width="150px" height="150px" viewBox="0 0 150 150" enable-background="new 0 0 150 150" xml:space="preserve"><g><path fill="#00BDFF" d="M15.1,105.3c0-28.7,37.2-33.3,37.2-49.1c0-6.9-5.4-11.1-12.1-11.1c-5.7,0-9.7,3.5-11.8,5.9 c-2.1,2.1-4.4,2.9-6.6,1l-3-2.4c-2.4-1.8-2.9-3.9-1.2-6.3c3.5-4.6,10.9-12,23.9-12c13.9,0,25.9,8.5,25.9,23.5 c0,25.5-35.6,29.9-36.3,44.9h32.8c3.1,0,4.7,1.6,4.7,4.6v3.1c0,3.1-1.6,4.7-4.7,4.7H20.2c-2.9,0-5-1.6-5-4.7V105.3z"/><path fill="#00BDFF" d="M75.5,72.5c0-22.8,7.1-41,28.8-41c21.7,0,28.9,18.1,28.9,41s-7.2,41.2-28.9,41.2 C82.5,113.7,75.5,95.3,75.5,72.5z M118.3,72.5c0-15.5-3.1-27.7-14-27.7c-10.9,0-14,12.2-14,27.7c0,15.7,3.1,28,14,28 C115.1,100.5,118.3,88.2,118.3,72.5z"/></g></svg>