<?xml version="1.0" encoding="utf-8"?><!DOCTYPE svg PUBLIC "-//W3C//DTD SVG 1.1//EN" "http://www.w3.org/Graphics/SVG/1.1/DTD/svg11.dtd"><svg version="1.1" id="Layer_1" xmlns="http://www.w3.org/2000/svg" xmlns:xlink="http://www.w3.org/1999/xlink" x="0px" y="0px" width="150px" height="150px" viewBox="0 0 150 150" enable-background="new 0 0 150 150" xml:space="preserve"><rect x="21.8" y="38.5" fill="#FFB000" width="62.5" height="79.5"/><rect x="66.7" y="38.5" fill="#FF9700" width="17.6" height="79.5"/><path fill="#FFD400" d="M59.3,70.6h-30c-1.2,0-2.2-1-2.2-2.2v-7.9c0-1.2,1-2.2,2.2-2.2h30c1.2,0,2.2,1,2.2,2.2v7.9	C61.5,69.6,60.5,70.6,59.3,70.6z"/><polygon fill="#FFB000" points="39.4,38.5 84.3,38.5 88.7,33.7 50.8,33.7"/><path fill="#FFD400" d="M59.7,55.5H39c-1,0-1.8-0.8-1.8-1.8v0c0-1,0.8-1.8,1.8-1.8h20.7c1,0,1.8,0.8,1.8,1.8v0	C61.5,54.7,60.7,55.5,59.7,55.5z"/><polygon fill="#FF9700" points="66.7,38.5 21.8,38.5 14.9,31.4 59.8,31.4"/><path fill="#FF9700" d="M46.5,34.5H30.9c-1.2,0-2.2-1-2.2-2.2v0c0-1.2,1-2.2,2.2-2.2h15.6c1.2,0,2.2,1,2.2,2.2v0	C48.7,33.5,47.7,34.5,46.5,34.5z"/><path fill="#844631" d="M111.1,46.7h15.1c4.7,0,8.4,3.8,8.4,8.4c0,4.2-3.1,7.8-7.3,8.3v23.7h-17.7V63.5c-4-0.7-7-4.2-7-8.3	C102.7,50.5,106.5,46.7,111.1,46.7z"/><g><path fill="#EFCAAF" d="M88.9,86.2V61.7l-1-0.1c-3.5-0.3-6.3-3.3-6.3-6.9c0-3.8,3.1-6.9,6.9-6.9h33.9c3.8,0,6.9,3.1,6.9,6.9 c0,3.7-2.9,6.7-6.5,6.9l-1,0.1v24.5H88.9z"/><path fill="#995F45" d="M122.5,48.9c3.2,0,5.9,2.6,5.9,5.9c0,3.1-2.4,5.7-5.5,5.8l-2,0.1v2v22.5H90V62.7v-2L88,60.6 c-3-0.3-5.3-2.8-5.3-5.8c0-3.2,2.6-5.9,5.9-5.9H122.5 M122.5,46.7H88.5c-4.4,0-8,3.6-8,8c0,4.2,3.2,7.6,7.3,8v24.6h35.1V62.7 c4.2-0.2,7.5-3.7,7.5-8C130.5,50.3,126.9,46.7,122.5,46.7L122.5,46.7z"/></g><circle fill="#EDB48E" cx="112.1" cy="58.5" r="2.1"/><circle fill="#EDB48E" cx="96.6" cy="66.4" r="2.2"/><path fill="#844631" d="M99.8,53h15.1c4.7,0,8.4,3.8,8.4,8.4c0,4.2-3.1,7.8-7.3,8.3v23.7H98.3V69.8c-4-0.7-7-4.2-7-8.3	C91.3,56.8,95.1,53,99.8,53z"/><g><path fill="#EFCAAF" d="M77.6,92.5V68l-1-0.1c-3.5-0.3-6.3-3.3-6.3-6.9c0-3.8,3.1-6.9,6.9-6.9h33.9c3.8,0,6.9,3.1,6.9,6.9 c0,3.7-2.9,6.7-6.5,6.9l-1,0.1v24.5H77.6z"/><path fill="#995F45" d="M111.1,55.1c3.2,0,5.9,2.6,5.9,5.9c0,3.1-2.4,5.7-5.5,5.8l-2,0.1v2v22.5H78.6V69v-2l-1.9-0.2 c-3-0.3-5.3-2.8-5.3-5.8c0-3.2,2.6-5.9,5.9-5.9H111.1 M111.1,53H77.2c-4.4,0-8,3.6-8,8c0,4.2,3.2,7.6,7.3,8v24.6h35.1V69 c4.2-0.2,7.5-3.7,7.5-8C119.1,56.6,115.5,53,111.1,53L111.1,53z"/></g><circle fill="#EDB48E" cx="100.8" cy="64.8" r="2.1"/><circle fill="#EDB48E" cx="85.3" cy="72.7" r="2.2"/><circle fill="#EDB48E" cx="87.4" cy="75.4" r="1.1"/><circle fill="#EDB48E" cx="95.9" cy="79.8" r="2.1"/><circle fill="#EDB48E" cx="78.6" cy="58.7" r="1.6"/><path fill="#9E9E9E" d="M137.1,118H79.9V87c0-7.2,5.9-13.1,13.1-13.1H124c7.2,0,13.1,5.9,13.1,13.1V118z"/><path fill="#B5B5B5" d="M57.9,118V82.2c0-4.6,3.7-8.2,8.2-8.2h40.7c4.6,0,8.2,3.7,8.2,8.2V118"/><path fill="#666666" d="M138.6,118H57.5c-1.2,0-2.3-1-2.3-2.3v-2.4c0-1.2,1-2.3,2.3-2.3h81.1c1.2,0,2.3,1,2.3,2.3v2.4	C140.8,117,139.8,118,138.6,118z"/><path fill="#B5B5B5" d="M33.7,102.8l-26-26c-0.8-0.8-0.8-2.1,0-2.9l0,0c0.8-0.8,2.1-0.8,2.9,0l26,26c0.8,0.8,0.8,2.1,0,2.9l0,0	C35.8,103.5,34.5,103.5,33.7,102.8z"/><path fill="#FFFFFF" d="M14.1,88.7c1.7,15.6,14.9,27.7,30.9,27.7c16,0,29.2-12.1,30.9-27.7H14.1z"/><rect x="33.4" y="111.1" fill="#FFFFFF" width="23.4" height="7"/><path fill="#898989" d="M127.2,106.5L127.2,106.5c-0.9,0-1.7-0.8-1.7-1.7V84.5c0-0.9,0.8-1.7,1.7-1.7l0,0c0.9,0,1.7,0.8,1.7,1.7	v20.3C128.9,105.7,128.1,106.5,127.2,106.5z"/><path fill="#666666" d="M132.1,86.5h-9.7c-1.1,0-1.9-0.9-1.9-1.9v0c0-1.1,0.9-1.9,1.9-1.9h9.7c1.1,0,1.9,0.9,1.9,1.9v0	C134,85.6,133.1,86.5,132.1,86.5z"/><rect x="16.7" y="85.2" fill="#FFFFFF" width="56.2" height="7.6"/><path fill="#1CB0F6" d="M75.4,92.2c0.5-2.2,0.8-4.6,0.8-6.9H13.9c0,2.4,0.3,4.7,0.8,6.9H75.4z"/></svg>