<?xml version="1.0" encoding="utf-8"?><!DOCTYPE svg PUBLIC "-//W3C//DTD SVG 1.1//EN" "http://www.w3.org/Graphics/SVG/1.1/DTD/svg11.dtd"><svg version="1.1" id="Layer_1" xmlns="http://www.w3.org/2000/svg" xmlns:xlink="http://www.w3.org/1999/xlink" x="0px" y="0px" width="150px" height="150px" viewBox="0 0 150 150" enable-background="new 0 0 150 150" xml:space="preserve"><path fill="#BFBFBF" d="M77.5,98.1L77.5,98.1c-1.5-1.5-1.5-4.1,0-5.6l57.2-57.2c1.5-1.5,4.1-1.5,5.6,0v0c1.5,1.5,1.5,4.1,0,5.6	L83.1,98.1C81.6,99.7,79.1,99.7,77.5,98.1z"/><path fill="#FFFFFF" d="M132.6,55.6c0,32.9-26.7,59.6-59.6,59.6S13.4,88.5,13.4,55.6"/><path fill="#FFFFFF" d="M92.6,120.8H53.4c-2.7,0-4.9-2.2-4.9-4.9v0c0-2.7,2.2-4.9,4.9-4.9h39.3c2.7,0,4.9,2.2,4.9,4.9v0	C97.5,118.7,95.3,120.8,92.6,120.8z"/><path fill="#1CB0F6" d="M130.9,70c0.6-2.6,1.1-5.3,1.4-8H13.7c0.3,2.7,0.8,5.4,1.4,8H130.9z"/><path fill="#1CB0F6" d="M125.9,83c1.3-2.6,2.5-5.2,3.4-8H16.6c1,2.8,2.1,5.4,3.4,8H125.9z"/></svg>