<?xml version="1.0" encoding="utf-8"?><!DOCTYPE svg PUBLIC "-//W3C//DTD SVG 1.1//EN" "http://www.w3.org/Graphics/SVG/1.1/DTD/svg11.dtd"><svg version="1.1" id="Layer_1" xmlns="http://www.w3.org/2000/svg" xmlns:xlink="http://www.w3.org/1999/xlink" x="0px" y="0px" width="150px" height="150px" viewBox="0 0 150 150" enable-background="new 0 0 150 150" xml:space="preserve"><path fill="#FFFFFF" d="M141.3,81.9c3.9,0,7,3.1,7,7c0,3.9-3.1,7-7,7"/><circle fill="#383838" cx="35.9" cy="102.7" r="14.8"/><path fill="#FFC200" d="M66.7,17c-1.9,0-3.5,1.6-3.5,3.5v17.9c0,1.9,1.6,3.5,3.5,3.5c1.9,0,3.5-1.6,3.5-3.5V20.4	C70.2,18.5,68.6,17,66.7,17z"/><circle fill="#F0F0F0" cx="35.9" cy="102.7" r="6.9"/><circle fill="#383838" cx="105.4" cy="102.7" r="14.8"/><circle fill="#F0F0F0" cx="105.4" cy="102.7" r="6.9"/><path fill="#FFC200" d="M124.1,65.7H26.8C16.6,65.7,8.3,74,8.3,84.2v18h134.3v-18C142.6,74,134.3,65.7,124.1,65.7z"/><rect x="122.1" y="96.9" fill="#BCBCBC" width="23.1" height="9.6"/><rect x="5.7" y="96.9" fill="#BCBCBC" width="13.8" height="9.6"/><path fill="#FFC200" d="M26.7,66.9c0-22.2,18-40.2,40.2-40.2s40.2,18,40.2,40.2"/><path fill="#1CB0F6" d="M35.3,65.7C35.3,48.2,49.6,34,67.1,34s31.7,14.2,31.7,31.7"/><path fill="#51C6F4" d="M54.3,36.7l7,29.1h1.4l24.5-24.5C81.7,36.7,74.7,34,67.1,34C62.5,34,58.2,35,54.3,36.7z"/><rect x="52.8" y="32.9" fill="#FFC200" width="9.9" height="41.1"/><path fill="#F0F0F0" d="M15.9,84.4v-7.6h-6c-1,2.3-1.6,4.8-1.6,7.4v0.2H15.9z"/><rect x="15.9" y="76.8" fill="#383838" width="7.6" height="7.6"/><rect x="23.5" y="76.8" fill="#F0F0F0" width="7.6" height="7.6"/><path fill="#D33131" d="M10.6,81.2H6c-1.2,0-2.2,1-2.2,2.2v9c0,1.2,1,2.2,2.2,2.2h4.7c1.2,0,2.2-1,2.2-2.2v-9	C12.8,82.1,11.8,81.2,10.6,81.2z"/><rect x="31.1" y="76.8" fill="#383838" width="7.6" height="7.6"/><rect x="38.7" y="76.8" fill="#F0F0F0" width="7.6" height="7.6"/><rect x="46.3" y="76.8" fill="#383838" width="7.6" height="7.6"/><rect x="53.9" y="76.8" fill="#F0F0F0" width="7.6" height="7.6"/><rect x="61.5" y="76.8" fill="#383838" width="7.6" height="7.6"/><rect x="69.1" y="76.8" fill="#F0F0F0" width="7.6" height="7.6"/><rect x="76.7" y="76.8" fill="#383838" width="7.6" height="7.6"/><rect x="84.4" y="76.8" fill="#F0F0F0" width="7.6" height="7.6"/><rect x="92" y="76.8" fill="#383838" width="7.6" height="7.6"/><rect x="99.6" y="76.8" fill="#F0F0F0" width="7.6" height="7.6"/><rect x="107.2" y="76.8" fill="#383838" width="7.6" height="7.6"/><rect x="114.8" y="76.8" fill="#F0F0F0" width="7.6" height="7.6"/><rect x="130" y="76.8" fill="#F0F0F0" width="7.6" height="7.6"/><rect x="122.4" y="76.8" fill="#383838" width="7.6" height="7.6"/><path fill="#383838" d="M137.6,84.4h5v-0.2c0-2.7-0.6-5.2-1.6-7.5h-3.4V84.4z"/></svg>