<?xml version="1.0" encoding="utf-8"?><!DOCTYPE svg PUBLIC "-//W3C//DTD SVG 1.1//EN" "http://www.w3.org/Graphics/SVG/1.1/DTD/svg11.dtd"><svg version="1.1" id="Layer_1" xmlns="http://www.w3.org/2000/svg" xmlns:xlink="http://www.w3.org/1999/xlink" x="0px" y="0px" width="150px" height="150px" viewBox="0 0 150 150" enable-background="new 0 0 150 150" xml:space="preserve"><path fill="#1CB0F6" d="M1.3,126.6v-5.5c0-17.5,14.2-31.7,31.7-31.7h0c17.5,0,31.7,14.2,31.7,31.7v5.5"/><path fill="#178EBC" d="M49.1,126.6V98.9c0-8.9-7.3-16.1-16.1-16.1h0c-8.9,0-16.1,7.3-16.1,16.1v27.7"/><rect x="23.9" y="90.7" fill="#E2E2E2" width="18.4" height="35.9"/><path fill="#934A3A" d="M54.8,39H41.9h-3.7H7.7c0-8.8,7.1-15.8,15.8-15.8h2.3h15h29.9C70.6,31.9,63.5,39,54.8,39z"/><path fill="#FFA792" d="M33.1,71c-5.1,0-9.2,4-9.2,9v10.7c0,4.9,4.1,9,9.2,9s9.2-4,9.2-9V80C42.3,75.1,38.2,71,33.1,71z"/><ellipse fill="#FFA792" cx="7.8" cy="61.6" rx="6.5" ry="6.1"/><ellipse fill="#FFA792" cx="58.4" cy="61.6" rx="6.5" ry="6.1"/><path fill="#FFB5A1" d="M7.7,38.2V45v10.8v10c0,13.1,11.4,23.8,25.4,23.8l0,0c14,0,25.4-10.7,25.4-23.8V38.2"/><ellipse fill="#EA9486" cx="20.2" cy="52.2" rx="3.2" ry="2.9"/><ellipse fill="#EA9486" cx="45.1" cy="52.2" rx="3.2" ry="2.9"/><rect x="28.9" y="49.3" fill="#EA9486" width="8.4" height="13.8"/><path fill="#E5A393" d="M7.8,67.5v0.3C8.9,80,19.8,89.6,33.1,89.6c13.4,0,24.4-9.8,25.4-22.1H7.8z"/><path fill="#D86B60" d="M19.6,67.6c0,7,6,12.6,13.5,12.6s13.5-5.6,13.5-12.6"/><path fill="#FFFFFF" d="M45.7,71.9H20.5c-0.5-1.4-0.8-2.8-0.8-4.3h26.9C46.5,69.1,46.2,70.6,45.7,71.9z"/><rect x="89.9" y="47.3" fill="#542E2A" width="54.1" height="43"/><path fill="#BF7358" d="M87.1,126.3v-7.4c0-16.5,13.3-29.8,29.8-29.8h0c16.5,0,29.8,13.3,29.8,29.8v7.4"/><path fill="#B5634B" d="M116.9,71.9c-5.1,0-9.2,4-9.2,9v10.7c0,4.9,4.1,9,9.2,9s9.2-4,9.2-9V80.9C126.1,75.9,122,71.9,116.9,71.9z"/><ellipse fill="#B7674E" cx="91.6" cy="62.5" rx="6.5" ry="6.1"/><ellipse fill="#B7674E" cx="142.2" cy="62.5" rx="6.5" ry="6.1"/><path fill="#BF7358" d="M91.5,36.8v9.1v10.8v10c0,13.1,11.4,23.8,25.4,23.8l0,0c14,0,25.4-10.7,25.4-23.8V36.7"/><ellipse fill="#A85F48" cx="104.5" cy="53" rx="3.2" ry="2.9"/><ellipse fill="#A85F48" cx="129.4" cy="53" rx="3.2" ry="2.9"/><rect x="112.7" y="50.2" fill="#AD523D" width="8.4" height="11.5"/><path fill="#AA403D" d="M100.2,66c0,8.7,7.5,15.7,16.7,15.7s16.7-7,16.7-15.7"/><path fill="#FFFFFF" d="M132.6,71.4h-31.4c-0.7-1.7-1-3.5-1-5.4h33.5C133.6,67.9,133.3,69.8,132.6,71.4z"/><path fill="#542E2A" d="M121.5,38.2l5.9,9.5h19c0-15.2-13.3-27.6-29.5-27.6l0,0c-16.2,0-29.5,12.4-29.5,27.6h34.1V38.2z"/><path fill="#D33131" d="M130.5,92.2v7c-0.1,7.4-6.3,13.4-13.8,13.4h0c-7.6,0-13.8-6.1-13.8-13.7v-6.7h-9.5v34.3h9.5l0,0h27.6l0,0	h9.5V92.2H130.5z"/><circle fill="#C67458" cx="59.1" cy="99" r="4.7"/><circle fill="#C67458" cx="89.8" cy="99" r="4.7"/><path fill="#8549BA" d="M53.3,126.5v-8.3c0-11.8,9.6-21.4,21.4-21.4h0c11.8,0,21.4,9.6,21.4,21.4v8.3"/><path fill="#D88868" d="M74.4,118.6L74.4,118.6c-8.5,0-15.4-6.9-15.4-15.4v-13c0-8.5,6.9-15.4,15.4-15.4h0c8.5,0,15.4,6.9,15.4,15.4	v13C89.8,111.7,82.9,118.6,74.4,118.6z"/><ellipse fill="#A85F48" cx="65.3" cy="94.9" rx="2.5" ry="2.3"/><ellipse fill="#A85F48" cx="83.4" cy="94.9" rx="2.5" ry="2.3"/><rect x="71.4" y="92.6" fill="#C67458" width="6.6" height="5.6"/><path fill="#AA403D" d="M63.9,101.6c0,5.5,4.7,9.9,10.6,9.9c5.8,0,10.6-4.4,10.6-9.9"/><rect x="75.2" y="101.6" fill="#FFFFFF" width="3.6" height="2.5"/><rect x="70.4" y="101.6" fill="#FFFFFF" width="3.6" height="2.5"/><path fill="none" stroke="#5B332D" stroke-width="4.449" stroke-linecap="round" stroke-linejoin="round" stroke-miterlimit="10" d="M74.4,77.3c-2.7,0-4.8-2.2-4.8-4.8c0-2.7,2.2-4.8,4.8-4.8"/><path fill="none" stroke="#5B332D" stroke-width="4.449" stroke-linecap="round" stroke-linejoin="round" stroke-miterlimit="10" d="M74.3,67.7c2.7,0,4.8,2.2,4.8,4.8"/></svg>