<?xml version="1.0" encoding="utf-8"?><svg version="1.1" id="Layer_1" xmlns="http://www.w3.org/2000/svg" xmlns:xlink="http://www.w3.org/1999/xlink" x="0px" y="0px" width="150px" height="150px" viewBox="0 0 150 150" enable-background="new 0 0 150 150" xml:space="preserve"><g><path fill="#783F30" d="M110.3,131.6c-5.2,0-9.3-4.2-9.3-9.3V85.9c0-14.5-11.8-26.4-26.4-26.4c-7.3,0-14.3,3.1-19.3,8.5 c-3.5,3.8-9.4,4-13.2,0.5s-4-9.4-0.5-13.2c8.5-9.2,20.6-14.5,33.1-14.5c24.8,0,45,20.2,45,45v36.4 C119.7,127.4,115.5,131.6,110.3,131.6z"/></g><g><path fill="#783F30" d="M123.7,104.8c-5.2,0-9.3-4.2-9.3-9.3v-19c0-17.8-14.5-32.3-32.3-32.3c-8.9,0-17.6,3.8-23.7,10.4 c-3.5,3.8-9.4,4-13.2,0.5c-3.8-3.5-4-9.4-0.5-13.2C54.3,31.4,68,25.5,82.1,25.5c28.1,0,51,22.9,51,51v19 C133,100.6,128.8,104.8,123.7,104.8z"/></g><g><path fill="#9B4D3E" d="M51.5,52.9c-1.1,0-2.3-0.4-3.2-1.2c-1.9-1.8-2-4.7-0.3-6.6c8.8-9.5,21.1-14.9,34-14.9 c11.6,0,22.8,4.4,31.4,12.3c1.9,1.8,2,4.7,0.3,6.6c-1.8,1.9-4.7,2-6.6,0.3c-6.9-6.3-15.7-9.8-25-9.8C71.9,39.5,62,43.8,55,51.4 C54.1,52.4,52.8,52.9,51.5,52.9z"/></g><rect x="22.6" y="37.7" transform="matrix(0.7071 0.7071 -0.7071 0.7071 61.4437 -14.9009)" fill="#BCBCBC" width="52.2" height="58.1"/><path fill="#C6C6C6" d="M26.9,68.9L26.9,68.9c-1.9-1.9-1.9-5,0-6.9l28-28l6.9,6.9l-28,28C31.9,70.8,28.8,70.8,26.9,68.9z"/><path fill="#AFAFAF" d="M40.8,97.8l28-28c1.9-1.9,5-1.9,6.9,0l0,0c1.9,1.9,1.9,5,0,6.9l-28,28"/><rect x="41.9" y="41.1" transform="matrix(0.7071 -0.7071 0.7071 0.7071 -33.4065 53.8303)" fill="#783F30" width="12.8" height="52.3"/><rect x="32" y="52.5" transform="matrix(0.7071 -0.7071 0.7071 0.7071 -29.3238 43.9738)" fill="#9B4D3E" width="12.8" height="9.8"/><rect x="56.9" y="77.3" transform="matrix(0.7071 -0.7071 0.7071 0.7071 -39.626 68.8453)" fill="#5B2D24" width="12.8" height="9.8"/><line fill="none" stroke="#FFFFFF" stroke-width="2.6694" stroke-linecap="round" stroke-linejoin="round" stroke-miterlimit="10" x1="9.7" y1="68.8" x2="46.6" y2="105.7"/><line fill="none" stroke="#FFFFFF" stroke-width="2.6694" stroke-linecap="round" stroke-linejoin="round" stroke-miterlimit="10" x1="50.7" y1="27.8" x2="87.6" y2="64.7"/><circle fill="#783F30" cx="136.8" cy="49.4" r="4.4"/><circle fill="#783F30" cx="90.3" cy="103.9" r="5.1"/><circle fill="#783F30" cx="86.4" cy="20.9" r="3.5"/><circle fill="#D1D1D1" cx="61.4" cy="53.8" r="5.3"/><path fill="#F4F4F4" d="M18.8,55.2h42.4c0.9,0,1.6-0.7,1.6-1.6v0c0-0.9-0.7-1.6-1.6-1.6H18.8c-0.9,0-1.6,0.7-1.6,1.6v0	C17.2,54.5,17.9,55.2,18.8,55.2z"/><path fill="#5B2D24" d="M104.5,124.8L104.5,124.8c-1.9,0-3.5-1.6-3.5-3.5V90.8c0-1.9,1.6-3.5,3.5-3.5h0c1.9,0,3.5,1.6,3.5,3.5v30.5	C108,123.2,106.4,124.8,104.5,124.8z"/></svg>