<?xml version="1.0" encoding="utf-8"?><!DOCTYPE svg PUBLIC "-//W3C//DTD SVG 1.1//EN" "http://www.w3.org/Graphics/SVG/1.1/DTD/svg11.dtd"><svg version="1.1" id="Layer_1" xmlns="http://www.w3.org/2000/svg" xmlns:xlink="http://www.w3.org/1999/xlink" x="0px" y="0px" width="150px" height="150px" viewBox="0 0 150 150" enable-background="new 0 0 150 150" xml:space="preserve"><path fill="#B26938" d="M74.4,11.2C48,11.2,26.6,32.7,26.6,59v39c0,15.9,7.8,30.1,19.9,38.7h55.9c12-8.7,19.9-22.8,19.9-38.7V59	C122.2,32.7,100.7,11.2,74.4,11.2z M112.5,78.7H36.3V59c0-21,17.1-38.1,38.1-38.1S112.5,38,112.5,59V78.7z"/><path fill="#BF723D" d="M46.7,99H27c-1.8,0-3.2-1.5-3.2-3.2l0,0c0-1.8,1.5-3.2,3.2-3.2h19.7c1.8,0,3.2,1.5,3.2,3.2l0,0	C50,97.5,48.5,99,46.7,99z"/><path fill="#BF723D" d="M122,99h-10c-1.8,0-3.2-1.5-3.2-3.2l0,0c0-1.8,1.5-3.2,3.2-3.2h10c1.8,0,3.2,1.5,3.2,3.2l0,0	C125.3,97.5,123.8,99,122,99z"/><path fill="#BF723D" d="M122.1,88H26.6c-2.6,0-4.7-2.1-4.7-4.7v0c0-2.6,2.1-4.7,4.7-4.7h95.5c2.6,0,4.7,2.1,4.7,4.7v0	C126.8,85.9,124.7,88,122.1,88z"/><path fill="#BF723D" d="M118.5,121H89c-1.8,0-3.2-1.5-3.2-3.2l0,0c0-1.8,1.5-3.2,3.2-3.2h29.5c1.8,0,3.2,1.5,3.2,3.2l0,0	C121.8,119.5,120.3,121,118.5,121z"/><path fill="#BF723D" d="M85.6,131H63.5c-1.8,0-3.2-1.5-3.2-3.2l0,0c0-1.8,1.5-3.2,3.2-3.2h22.1c1.8,0,3.2,1.5,3.2,3.2l0,0	C88.9,129.5,87.4,131,85.6,131z"/><path fill="#BF723D" d="M98.6,105H76.5c-1.8,0-3.2-1.5-3.2-3.2l0,0c0-1.8,1.5-3.2,3.2-3.2h22.1c1.8,0,3.2,1.5,3.2,3.2l0,0	C101.9,103.5,100.4,105,98.6,105z"/><path fill="#BF723D" d="M63.6,116H41.5c-1.8,0-3.2-1.5-3.2-3.2l0,0c0-1.8,1.5-3.2,3.2-3.2h22.1c1.8,0,3.2,1.5,3.2,3.2l0,0	C66.9,114.5,65.4,116,63.6,116z"/></svg>