<?xml version="1.0" encoding="utf-8"?><!DOCTYPE svg PUBLIC "-//W3C//DTD SVG 1.1//EN" "http://www.w3.org/Graphics/SVG/1.1/DTD/svg11.dtd"><svg version="1.1" xmlns="http://www.w3.org/2000/svg" xmlns:xlink="http://www.w3.org/1999/xlink" x="0px" y="0px" width="150px" height="150px" viewBox="0 0 150 150" enable-background="new 0 0 150 150" xml:space="preserve"><g id="Layer_2" display="none"><rect x="-1020" y="-170" display="inline" fill="#F0F0F0" width="1680" height="1677.3"/></g><g id="Layer_1"><rect x="54.2" y="24" fill="#1CB0F6" width="8.5" height="36.8"/><rect x="89.2" y="24" fill="#1CB0F6" width="8.5" height="36.8"/><circle fill="#E53838" cx="41" cy="52.6" r="8.8"/><circle fill="#E53838" cx="111" cy="52.6" r="8.8"/><circle fill="#E53838" cx="76" cy="52.6" r="8.8"/><path fill="#EFB4DD" d="M130.8,127H21.5V56.8c0-2.3,1.9-4.2,4.2-4.2h101c2.3,0,4.2,1.9,4.2,4.2V127z"/><path fill="#F4CEEC" d="M130.9,127H21.6c-2.9,0-5.2-2.4-5.2-5.2v0c0-2.9,2.4-5.2,5.2-5.2h109.2c2.9,0,5.2,2.4,5.2,5.2v0 C136.1,124.6,133.8,127,130.9,127z"/><path fill="#F4CEEC" d="M130.9,63H21.6c-2.9,0-5.2-2.4-5.2-5.2v0c0-2.9,2.4-5.2,5.2-5.2h109.2c2.9,0,5.2,2.4,5.2,5.2v0 C136.1,60.6,133.8,63,130.9,63z"/><path fill="#FFFFFF" d="M142,135.8H8c-2.4,0-4.4-2-4.4-4.4v0c0-2.4,2-4.4,4.4-4.4H142c2.4,0,4.4,2,4.4,4.4v0 C146.5,133.9,144.5,135.8,142,135.8z"/><path fill="#FFFFFF" d="M121.1,140.2H28.9c-2.4,0-4.4-2-4.4-4.4v0c0-2.4,2-4.4,4.4-4.4h92.2c2.4,0,4.4,2,4.4,4.4v0 C125.5,138.3,123.6,140.2,121.1,140.2z"/><line fill="none" stroke="#EDA9DB" stroke-width="5" stroke-miterlimit="10" x1="21.5" y1="73.7" x2="130.8" y2="73.7"/><line fill="none" stroke="#EDA9DB" stroke-width="5" stroke-miterlimit="10" x1="21.5" y1="89.7" x2="130.8" y2="89.7"/><line fill="none" stroke="#EDA9DB" stroke-width="5" stroke-miterlimit="10" x1="21.5" y1="105.7" x2="130.8" y2="105.7"/><circle fill="#FF9D00" cx="58.4" cy="16.6" r="5.1"/><polygon fill="#FF9D00" points="55.2,12.8 58.4,9.8 61.7,12.8"/><circle fill="#FF9D00" cx="93.4" cy="16.6" r="5.1"/><polygon fill="#FF9D00" points="90.2,12.8 93.4,9.8 96.7,12.8"/></g><g id="Layer_3"/></svg>