<?xml version="1.0" encoding="utf-8"?><!DOCTYPE svg PUBLIC "-//W3C//DTD SVG 1.1//EN" "http://www.w3.org/Graphics/SVG/1.1/DTD/svg11.dtd"><svg version="1.1" id="Layer_1" xmlns="http://www.w3.org/2000/svg" xmlns:xlink="http://www.w3.org/1999/xlink" x="0px" y="0px" width="150px" height="150px" viewBox="0 0 150 150" enable-background="new 0 0 150 150" xml:space="preserve"><linearGradient id="SVGID_1_" gradientUnits="userSpaceOnUse" x1="74.4332" y1="141.7297" x2="74.4332" y2="8.2703"><stop offset="0.486" style="stop-color:#9FF4FF"/><stop offset="1" style="stop-color:#37D6ED"/></linearGradient><path fill="url(#SVGID_1_)" d="M129.1,141.7H19.8c-6.7,0-12.1-5.4-12.1-12.1V20.3c0-6.7,5.4-12.1,12.1-12.1h109.3	c6.7,0,12.1,5.4,12.1,12.1v109.3C141.2,136.3,135.8,141.7,129.1,141.7z"/><path fill="#7AC70C" d="M7.7,111.6v18.1c0,6.7,5.4,12.1,12.1,12.1h109.3c6.7,0,12.1-5.4,12.1-12.1v-18.1H7.7z"/><rect x="7.7" y="111.6" fill="#C4C4C4" width="133.5" height="11.4"/><path fill="#FFFFFF" d="M135.5,56.9l-9.7-5.6c-2.1-1.4-4.8-1.8-7.3-1l-60,18.9L38.8,53.1l-4.6,1.4l7.5,23.9l-6,5	c-1.9,1.6-0.9,4.7,1.5,4.9l12.6,1.1l0,0c1.1,0.1,2.2,0,3.2-0.4l64.6-20.4l5.9-1.9l11.2-3.5C137.7,62.3,138.1,58.4,135.5,56.9z"/><path fill="#3D94C4" d="M37.3,88.3l12.6,1.1l0,0c1.1,0.1,2.2,0,3.2-0.4l64.6-20.4l5.9-1.9l11.2-3.5c2.8-0.9,3.3-4.5,1-6.1L37,88.2	C37.1,88.3,37.2,88.3,37.3,88.3z"/><path fill="#8BD0EF" d="M127.8,52.5l-8.3,2.6c-0.6,0.2-0.9,0.8-0.7,1.4l0.4,1.1c0.2,0.6,0.8,0.9,1.4,0.7l11.3-3.6L127.8,52.5z"/><rect x="123.5" y="52.1" transform="matrix(0.9537 -0.3007 0.3007 0.9537 -10.9026 39.95)" fill="#FFFFFF" width="1.7" height="6.6"/><path fill="#EAEAEA" d="M101.9,80.1l-17.3,5.4c-0.8,0.2-1.6-0.2-1.8-0.9l-2-6.4c-0.2-0.8,0.2-1.6,0.9-1.8L99,70.9	c0.8-0.2,1.6,0.2,1.8,0.9l2,6.4C103.1,79.1,102.6,79.9,101.9,80.1z"/><polygon fill="#FFFFFF" points="88.8,87.5 83.2,89.3 77.7,71.9 100.9,64.6"/><path fill="#8BD0EF" d="M69.3,75.1L69.3,75.1c-1.1,0.3-2.2-0.3-2.6-1.3l-0.3-1c-0.3-1.1,0.3-2.2,1.3-2.6l0,0	c1.1-0.3,2.2,0.3,2.6,1.3l0.3,1C71,73.7,70.4,74.8,69.3,75.1z"/><path fill="#8BD0EF" d="M78.8,72.1L78.8,72.1c-1.1,0.3-2.2-0.3-2.6-1.3l-0.3-1c-0.3-1.1,0.3-2.2,1.3-2.6l0,0	c1.1-0.3,2.2,0.3,2.6,1.3l0.3,1C80.5,70.6,79.9,71.8,78.8,72.1z"/><path fill="#8BD0EF" d="M88.4,69.1L88.4,69.1c-1.1,0.3-2.2-0.3-2.6-1.3l-0.3-1c-0.3-1.1,0.3-2.2,1.3-2.6l0,0	c1.1-0.3,2.2,0.3,2.6,1.3l0.3,1C90.1,67.6,89.5,68.8,88.4,69.1z"/><path fill="#8BD0EF" d="M97.9,66.1L97.9,66.1c-1.1,0.3-2.2-0.3-2.6-1.3l-0.3-1c-0.3-1.1,0.3-2.2,1.3-2.6h0c1.1-0.3,2.2,0.3,2.6,1.3	l0.3,1C99.6,64.6,99,65.8,97.9,66.1z"/><path fill="#8BD0EF" d="M107.5,63.1L107.5,63.1c-1.1,0.3-2.2-0.3-2.6-1.3l-0.3-1c-0.3-1.1,0.3-2.2,1.3-2.6h0	c1.1-0.3,2.2,0.3,2.6,1.3l0.3,1C109.1,61.6,108.5,62.8,107.5,63.1z"/><path fill="#EAEAEA" d="M52.2,82.4l-11,3.5c-0.6,0.2-1.3-0.2-1.5-0.8l0,0c-0.2-0.6,0.2-1.3,0.8-1.5l11-3.5c0.6-0.2,1.3,0.2,1.5,0.8	h0C53.2,81.5,52.8,82.2,52.2,82.4z"/><circle fill="#5B5B5B" cx="128.2" cy="68.2" r="1.8"/><circle fill="#5B5B5B" cx="78.2" cy="84.2" r="1.8"/></svg>