<?xml version="1.0" encoding="utf-8"?><!DOCTYPE svg PUBLIC "-//W3C//DTD SVG 1.1//EN" "http://www.w3.org/Graphics/SVG/1.1/DTD/svg11.dtd"><svg version="1.1" id="Layer_1" xmlns="http://www.w3.org/2000/svg" xmlns:xlink="http://www.w3.org/1999/xlink" x="0px" y="0px" width="150px" height="150px" viewBox="0 0 150 150" enable-background="new 0 0 150 150" xml:space="preserve"><path fill="#D1D1D1" d="M137.4,88.3h-11c-1.1,0-1.9-0.9-1.9-1.9V73.1c0-1.1,0.9-1.9,1.9-1.9h11c1.1,0,1.9,0.9,1.9,1.9v13.3	C139.3,87.5,138.5,88.3,137.4,88.3z"/><path fill="#444444" d="M129.8,105.5H15.9c-2,0-3.6-1.6-3.6-3.6V57.6c0-2,1.6-3.6,3.6-3.6h113.9c2,0,3.6,1.6,3.6,3.6v44.4	C133.3,103.9,131.7,105.5,129.8,105.5z"/><path fill="#CC631D" d="M129.8,54H93v51.5h36.8c2,0,3.6-1.6,3.6-3.6V57.6C133.3,55.6,131.7,54,129.8,54z"/><path fill="#5E5E5E" d="M120.5,71.7H23.2c-3.1,0-5.7-2.5-5.7-5.7v0c0-3.1,2.5-5.7,5.7-5.7h97.3c3.1,0,5.7,2.5,5.7,5.7v0	C126.2,69.1,123.6,71.7,120.5,71.7z"/><path fill="#EA7424" d="M120.5,60.3H93v11.3h27.5c3.1,0,5.7-2.5,5.7-5.7C126.2,62.9,123.6,60.3,120.5,60.3z"/><polygon fill="#FFFFFF" points="86,75.8 75.3,75.8 75.3,59.8 57.7,82.4 68.4,82.4 68.4,98.4"/></svg>