<?xml version="1.0" encoding="utf-8"?><!DOCTYPE svg PUBLIC "-//W3C//DTD SVG 1.1//EN" "http://www.w3.org/Graphics/SVG/1.1/DTD/svg11.dtd"><svg version="1.1" xmlns="http://www.w3.org/2000/svg" xmlns:xlink="http://www.w3.org/1999/xlink" x="0px" y="0px" width="150px" height="150px" viewBox="0 0 150 150" enable-background="new 0 0 150 150" xml:space="preserve"><g id="Layer_2" display="none"><rect x="-510" display="inline" fill="#F0F0F0" width="1680" height="1677.3"/></g><g id="Layer_1"><path fill="#86B20D" d="M147.4,109.4c-3.3-4.7-8.7-7.8-14.9-7.8c-6.2,0-11.6,3.1-14.9,7.8H147.4z"/><path fill="#88C11A" d="M117.7,109.4c3.3,4.7,8.7,7.8,14.9,7.8c6.2,0,11.6-3.1,14.9-7.8H117.7z"/><path fill="#86B20D" d="M138.7,88.4c-5.6-1-11.7,0.7-16,5c-4.4,4.4-6,10.4-5,16L138.7,88.4z"/><path fill="#88C11A" d="M117.7,109.4c5.6,1,11.7-0.7,16-5c4.4-4.4,6-10.4,5-16L117.7,109.4z"/><path fill="#86B20D" d="M1.4,109.4c3.3-4.7,8.7-7.8,14.9-7.8s11.6,3.1,14.9,7.8H1.4z"/><path fill="#88C11A" d="M31.1,109.4c-3.3,4.7-8.7,7.8-14.9,7.8s-11.6-3.1-14.9-7.8H31.1z"/><path fill="#86B20D" d="M10.1,88.4c5.6-1,11.7,0.7,16,5s6,10.4,5,16L10.1,88.4z"/><path fill="#88C11A" d="M31.1,109.4c-5.6,1-11.7-0.7-16-5s-6-10.4-5-16L31.1,109.4z"/><path fill="#FFFFFF" d="M103.3,73.3l-0.5-0.5c-2.6-2.6-2.6-6.9,0-9.5l22.9-22.9c2.6-2.6,6.9-2.6,9.5,0l0.5,0.5 c2.6,2.6,2.6,6.9,0,9.5l-22.9,22.9C110.2,75.9,105.9,75.9,103.3,73.3z"/><path fill="#C47A3D" d="M126.5,100.2c0-1.3,0-2.7-0.1-4.1c-1.9-26.4-23.3-47.6-49.7-49.2C45.7,45,20,69.5,20,100c0,0.1,0,0.1,0,0.2 c0,9.5,7.9,17,17.4,17h71.7C118.5,117.2,126.4,109.6,126.5,100.2z"/><path fill="#D38144" d="M82.2,94.8l-1.4-1.4c-7.1-7.1-7.1-18.7,0-25.8l11.5-11.5c7.1-7.1,18.7-7.1,25.8,0l1.4,1.4 c7.1,7.1,7.1,18.7,0,25.8L108,94.8C100.9,101.9,89.3,101.9,82.2,94.8z"/><circle fill="#FFFFFF" cx="128.2" cy="38.4" r="9.9"/><circle fill="#FFFFFF" cx="138.8" cy="49" r="9.9"/><circle fill="#FFFFFF" cx="38.4" cy="40.7" r="36"/><path fill="#FAA918" d="M23,31.3L23,31.3c0-5.2,4.3-9.4,9.4-9.4L52.6,22c5.2,0,9.4,4.3,9.4,9.4v0"/><path fill="#F7ADDF" d="M45.2,46.8c-0.9-0.9-1.9-1.7-3-2.3c0,0,0,0,0-0.1c-2.1-1.2-3.6-3.4-3.6-6.1c0-0.2,0-0.4,0-0.6 c-0.3-0.1-0.6-0.1-1-0.1h-4.1c-0.4,0-0.8,0.1-1.2,0.2c0.5-0.7,1.1-1.2,1.8-1.5c0,0,0.1-0.1,0.1-0.1c0.2-0.4,0.4-1.2,0.6-1.8 c0.6-1.9,1.1-3.9,1.6-5.9c0.5-2.3,0.8-5.5,1.9-7.8c-2.4-1-2.6-3.8-1.3-5.8c-5.1-0.3-10.4,1.5-14.3,5.5c-7.3,7.3-7.3,19.2,0,26.5 l15.9,15.9c0,0,0.1,0.1,0.1,0.1l7.2,7.2c6.2-6.2,6.2-16.3,0-22.5L45.2,46.8z"/><path fill="#1CB0F6" d="M38.6,38.4c0-3.8,3.1-6.9,6.9-6.9h4.7c0.1-0.8,0.2-1.6,0.2-2.5c0-7.8-6.3-14.1-14.1-14.1S22.2,21.2,22.2,29 c0,7.8,6.3,14.1,14.1,14.1c1.3,0,2.5-0.2,3.7-0.5C39.1,41.4,38.6,39.9,38.6,38.4z"/><path fill="#D38144" d="M86.9,117.2c3.4,0,5.4-3.9,3.3-6.6c-6.2-8.3-16.2-13.7-27.4-13.7s-21.2,5.4-27.4,13.7 c-2,2.7-0.1,6.6,3.3,6.6H86.9z"/><circle fill="#0089CE" cx="36.3" cy="24.6" r="3.1"/><path fill="#E2607C" d="M50.5,44L50.5,44c-1.2,0-2.2-1-2.2-2.2V21.4c0-1.2,1-2.2,2.2-2.2h0c1.2,0,2.2,1,2.2,2.2v20.4 C52.7,43,51.7,44,50.5,44z"/></g><g id="Layer_3"/></svg>