<?xml version="1.0" encoding="utf-8"?><!DOCTYPE svg PUBLIC "-//W3C//DTD SVG 1.1//EN" "http://www.w3.org/Graphics/SVG/1.1/DTD/svg11.dtd"><svg version="1.1" id="Layer_1" xmlns="http://www.w3.org/2000/svg" xmlns:xlink="http://www.w3.org/1999/xlink" x="0px" y="0px" width="150px" height="150px" viewBox="0 0 150 150" enable-background="new 0 0 150 150" xml:space="preserve"><path fill="#FFFFFF" d="M18.4,92.7v32.8c0,2.3,1.9,4.1,4.1,4.1c2.3,0,4.1-1.9,4.1-4.1V88.9c0,0,0,0,0,0L18.4,92.7z"/><path fill="#A03C5D" d="M28.6,147.8v-7c0-22.4,18.1-40.5,40.5-40.5h0c22.4,0,40.5,18.1,40.5,40.5v7"/><polygon fill="#E08070" points="76.4,114.2 69,120.5 61.7,114.2"/><rect x="55" y="120.8" fill="#E2E2E2" width="28.7" height="27.1"/><path fill="none" stroke="#FFCE00" stroke-width="1.4645" stroke-miterlimit="10" d="M55.6,120.2v6.4c0,7.3,5.9,13.2,13.2,13.2	s13.2-5.9,13.2-13.2v-6.4"/><rect x="15.5" y="121" fill="#FF9D8A" width="21.8" height="26.8"/><rect x="15.5" y="139.7" fill="#A03C5D" width="22.1" height="8.1"/><rect x="15.5" y="131.7" fill="#FFFFFF" width="21.8" height="8.1"/><path fill="#FFB5A1" d="M27.8,137.4H15.7c-2.4,0-4.4-2-4.4-4.4l0,0c0-2.4,2-4.4,4.4-4.4h12.1c2.4,0,4.4,2,4.4,4.4l0,0	C32.2,135.4,30.2,137.4,27.8,137.4z"/><path fill="#FF9D8A" d="M31.8,126.4L31.8,126.4c-3,0-5.4-2.4-5.4-5.4v0c0-3,2.4-5.4,5.4-5.4h0c3,0,5.4,2.4,5.4,5.4v0	C37.3,124,34.8,126.4,31.8,126.4z"/><path fill="#FFB5A1" d="M27.8,121.4H15.7c-2.4,0-4.4-2-4.4-4.4v0c0-2.4,2-4.4,4.4-4.4h12.1c2.4,0,4.4,2,4.4,4.4v0	C32.2,119.4,30.2,121.4,27.8,121.4z"/><path fill="#FFB5A1" d="M27.8,129.4H15.7c-2.4,0-4.4-2-4.4-4.4v0c0-2.4,2-4.4,4.4-4.4h12.1c2.4,0,4.4,2,4.4,4.4v0	C32.2,127.4,30.2,129.4,27.8,129.4z"/><circle fill="#70301A" cx="69" cy="15.6" r="13.9"/><g><ellipse fill="#FF9D8A" cx="40" cy="64.7" rx="7.2" ry="6.8"/></g><path fill="#FFFFFF" d="M86.9,126.7V111c0-9.9-8.1-18-18-18h0c-9.9,0-18,8.1-18,18v15.7l18.2-5.9L86.9,126.7z"/><path fill="#FF9D8A" d="M69.2,115.6L69.2,115.6c-6.2,0-11.2-5-11.2-11.2V91.1c0-6.2,5-11.2,11.2-11.2h0c6.2,0,11.2,5,11.2,11.2v13.3	C80.4,110.6,75.4,115.6,69.2,115.6z"/><g><path fill="#7F3B20" d="M42.9,61.3c0.1,2.3-0.1,4.6,0.4,6.8c0.1,0.5,0.1,1,0,1.5c0.1,0.4,0.1,0.7,0.2,1.1c0.1,0,0.2,0,0.3,0 c1.5-0.1,2.8,0.1,4.1,0.6c7.7-0.4,15.4,0.4,23.2,0.6c4.1-0.9,8.1-1.9,12.2-3c1.8-0.5,3.1,0.7,3.4,2c1.8,0.1,3.6,0.4,5.2,1 c0.6-3.8,1.1-7.6,1.8-11.3c0.4-1.9,2.8-2.5,4.3-1.6V44.6c0-16-13-29-29-29h0c-16,0-29,13-29,29v13.9C41.4,58.5,42.8,59.5,42.9,61.3 z"/></g><g><ellipse fill="#FF9D8A" cx="98" cy="64.7" rx="7.2" ry="6.8"/></g><g><path fill="#FFB5A1" d="M69,100.3L69,100.3c-16,0-29-13-29-29v-13c0-16,13-29,29-29h0c16,0,29,13,29,29v13 C98,87.3,85,100.3,69,100.3z"/></g><g><rect x="64.2" y="54.3" fill="#FF9D8A" width="9.5" height="13.1"/></g><g><path fill="#EA9486" d="M57.8,57.9c0,2-1.6,3.6-3.6,3.6c-2,0-3.6-1.6-3.6-3.6"/></g><g><path fill="none" stroke="#CE948E" stroke-width="1.5426" stroke-miterlimit="10" d="M63.6,62.2c0,4.1-2.9,7.4-6.4,7.4 c-3.5,0-6.4-3.3-6.4-7.4H63.6z"/></g><g><path fill="none" stroke="#CE948E" stroke-width="1.5426" stroke-miterlimit="10" d="M87.1,62.2c0,4.1-2.9,7.4-6.4,7.4 s-6.4-3.3-6.4-7.4H87.1z"/></g><g><path fill="#EA9486" d="M87.5,57.9c0,2-1.6,3.6-3.6,3.6s-3.6-1.6-3.6-3.6"/></g><g><path fill="#B2473B" d="M84.2,71.9c0,8.4-6.8,15.1-15.1,15.1l0,0c-8.4,0-15.1-6.8-15.1-15.1H84.2z"/></g><g><path fill="#FFFFFF" d="M54.7,76.8h28.7c0.5-1.5,0.8-3.2,0.8-4.9H53.9C53.9,73.6,54.2,75.3,54.7,76.8z"/></g><g><path fill="#CC4F46" d="M78.2,84.1c-2.2-2.5-5.5-4.2-9.1-4.2l0,0c-3.7,0-6.9,1.6-9.1,4.2c2.6,1.7,5.7,2.7,9.1,2.7 C72.4,86.9,75.6,85.8,78.2,84.1z"/></g><polygon fill="#FF9D8A" points="78.1,111.1 69.2,120.8 60.2,111.1"/><line fill="none" stroke="#CE948E" stroke-width="1.5426" stroke-miterlimit="10" x1="60.4" y1="62.2" x2="77.7" y2="62.2"/><circle fill="#CE948E" cx="90.8" cy="61.2" r="1.2"/><circle fill="#CE948E" cx="90.8" cy="65.3" r="1.2"/><circle fill="#CE948E" cx="90.8" cy="69.3" r="1.2"/><circle fill="#CE948E" cx="90.8" cy="73.4" r="1.2"/><g><path fill="#FFFFFF" d="M130.7,128.2H75.4c-1.5,0-2.7-1.2-2.7-2.7v-16.6c0-1.8,1.6-3,3.3-2.6l27,6.3c0.4,0.1,0.8,0.1,1.2,0 l25.9-6.3c1.7-0.4,3.3,0.9,3.3,2.6v16.6C133.4,127,132.2,128.2,130.7,128.2z"/><path fill="#CC2F2F" d="M138.1,147.9v-35c0-2.1-1.9-3.7-4.1-3.3l-24.7,5.8v0.2c0,2.1-1.1,4-2.9,5v27.3H138.1z"/><path fill="#CC2F2F" d="M100.6,147.9v-27.3c-1.7-1-2.9-2.9-2.9-5v-0.2l-24.7-5.8c-2.1-0.4-4.1,1.2-4.1,3.3v35H100.6z"/><path fill="#B52C2C" d="M131.7,128.7l-15.8,3.4c-1.3,0.3-2.7-0.6-2.9-1.9h0c-0.3-1.3,0.6-2.7,1.9-2.9l15.8-3.4 c1.3-0.3,2.7,0.6,2.9,1.9v0C133.8,127.1,133,128.4,131.7,128.7z"/><path fill="#B52C2C" d="M127.7,139l-6.8,1.5c-1.3,0.3-2.7-0.6-2.9-1.9l0,0c-0.3-1.3,0.6-2.7,1.9-2.9l6.8-1.5 c1.3-0.3,2.7,0.6,2.9,1.9l0,0C129.9,137.3,129.1,138.7,127.7,139z"/><path fill="#E03636" d="M109.4,147.9v-32.3c0,3.2-2.6,5.8-5.8,5.8s-5.8-2.6-5.8-5.8v32.3H109.4z"/></g></svg>