<?xml version="1.0" encoding="utf-8"?><!DOCTYPE svg PUBLIC "-//W3C//DTD SVG 1.1//EN" "http://www.w3.org/Graphics/SVG/1.1/DTD/svg11.dtd"><svg version="1.1" id="Layer_1" xmlns="http://www.w3.org/2000/svg" xmlns:xlink="http://www.w3.org/1999/xlink" x="0px" y="0px" width="150px" height="150px" viewBox="0 0 150 150" enable-background="new 0 0 150 150" xml:space="preserve"><path fill="#A52828" d="M94.8,59V36c0-10.9-8.8-19.8-19.6-19.8h0C64.4,16.1,55.6,25,55.6,36v23l19.7-7.6L94.8,59z"/><path fill="#D33131" d="M130.2,81.4c0-25.1-16.5-46.5-39.2-53.6c-0.2-0.1-0.4-0.2-0.7-0.4c0,0.2,0,0.4,0,0.6c0,0.3,0,0.7-0.1,1	c0,0.1-0.1,0.3-0.1,0.4c-0.1,0.3-0.1,0.7-0.2,1c0,0.1-0.1,0.3-0.1,0.4c-0.1,0.3-0.2,0.7-0.3,1c0,0.1-0.1,0.2-0.1,0.4	c-0.1,0.3-0.2,0.7-0.4,1c-0.1,0.1-0.1,0.2-0.2,0.4c-0.2,0.3-0.3,0.6-0.5,0.9c-0.1,0.1-0.1,0.2-0.2,0.3c-0.2,0.3-0.4,0.6-0.6,0.9	c-0.1,0.1-0.2,0.2-0.3,0.3c-0.2,0.3-0.4,0.6-0.6,0.8c-0.1,0.1-0.2,0.2-0.3,0.3c-0.2,0.2-0.4,0.5-0.7,0.7c-0.1,0.1-0.2,0.2-0.4,0.3	c-0.2,0.2-0.5,0.4-0.7,0.6c-0.1,0.1-0.3,0.2-0.4,0.3c-0.2,0.2-0.5,0.4-0.7,0.5C83.4,40,83.2,40,83,40.1c-0.2,0.1-0.5,0.3-0.7,0.4	c-0.2,0.1-0.4,0.2-0.6,0.3c-0.2,0.1-0.5,0.2-0.7,0.3c-0.2,0.1-0.5,0.2-0.7,0.2c-0.2,0.1-0.5,0.2-0.7,0.3c-0.3,0.1-0.5,0.1-0.8,0.2	c-0.2,0.1-0.4,0.1-0.6,0.2c-0.3,0.1-0.6,0.1-1,0.1c-0.2,0-0.3,0.1-0.5,0.1c-0.5,0.1-1,0.1-1.5,0.1c-0.5,0-1,0-1.5-0.1	c-0.2,0-0.4-0.1-0.6-0.1c-0.3,0-0.6-0.1-0.9-0.1c-0.2-0.1-0.5-0.1-0.7-0.2c-0.2-0.1-0.5-0.1-0.7-0.2c-0.3-0.1-0.5-0.2-0.8-0.3	c-0.2-0.1-0.4-0.1-0.6-0.2c-0.3-0.1-0.6-0.3-0.9-0.4c-0.1-0.1-0.3-0.1-0.4-0.2c-0.3-0.2-0.6-0.4-0.9-0.6c-0.1-0.1-0.2-0.1-0.3-0.2	c-0.3-0.2-0.7-0.5-1-0.7c-0.1,0-0.1-0.1-0.2-0.1c-0.3-0.3-0.7-0.6-1-0.9c0,0-0.1-0.1-0.1-0.1c-0.3-0.3-0.7-0.7-1-1c0,0,0,0,0,0	c-2.2-2.6-3.5-5.9-3.6-9.6c0-0.1,0-0.2,0-0.3c-0.5,0.2-1,0.5-1.5,0.8c-22.6,7.1-39.2,28.5-39.2,53.6h19.1v52h72.8v-52H130.2z"/><ellipse fill="#F2F2F2" cx="74.8" cy="60" rx="2.8" ry="2.9"/><path fill="#AA2D2D" d="M94.6,59V36c0-10.9-8.8-19.8-19.6-19.8h0C64.2,16.1,55.3,25,55.3,36v23L75,51.4L94.6,59z"/><ellipse fill="#F2F2F2" cx="74.8" cy="75.2" rx="2.8" ry="2.9"/><rect x="19.3" y="81.4" fill="#AA2D2D" width="19.1" height="5.6"/><rect x="111.2" y="81.4" fill="#AA2D2D" width="19.1" height="5.6"/><path fill="#842323" d="M75,20.4L75,20.4c-7.6,0-13.7,6.2-13.7,13.7v3.5c0,7.6,6.2,13.7,13.7,13.7h0c7.6,0,13.7-6.2,13.7-13.7v-3.5	C88.7,26.6,82.5,20.4,75,20.4z"/></svg>