<?xml version="1.0" encoding="utf-8"?><!DOCTYPE svg PUBLIC "-//W3C//DTD SVG 1.1//EN" "http://www.w3.org/Graphics/SVG/1.1/DTD/svg11.dtd"><svg version="1.1" id="Layer_1" xmlns="http://www.w3.org/2000/svg" xmlns:xlink="http://www.w3.org/1999/xlink" x="0px" y="0px" width="150px" height="150px" viewBox="0 0 150 150" enable-background="new 0 0 150 150" xml:space="preserve"><path fill="#68BC8A" d="M28,146.8v-8.1C28,112.9,48.9,92,74.7,92h0c25.8,0,46.8,20.9,46.8,46.8v8.1"/><path fill="none" stroke="#424242" stroke-width="4.6985" stroke-miterlimit="10" d="M90.9,118.9V99.7c0-8.8-7.4-16-16.4-16	s-16.4,7.2-16.4,16v15.4"/><g><ellipse fill="#E08070" cx="40.8" cy="50.8" rx="8.4" ry="7.8"/></g><path fill="#E08070" d="M74.6,69.7c-7.1,0-12.9,5.7-12.9,12.6v15c0,6.9,5.8,12.6,12.9,12.6c7.1,0,12.9-5.7,12.9-12.6v-15	C87.5,75.3,81.7,69.7,74.6,69.7z"/><polygon fill="#E08070" points="82.7,107 74.6,113.9 66.5,107"/><g><ellipse fill="#E08070" cx="108.1" cy="50.8" rx="8.4" ry="7.8"/></g><g><path fill="#E8957C" d="M74.5,92.3L74.5,92.3c-18.6,0-33.6-15.1-33.6-33.6v-21C40.8,19.1,55.9,4,74.5,4h0 c18.6,0,33.6,15.1,33.6,33.6v21C108.1,77.2,93.1,92.3,74.5,92.3z"/></g><g><rect x="69" y="38.7" fill="#E08070" width="10.9" height="15.2"/></g><g><path fill="#B2473B" d="M92.2,59.1c0,9.7-7.9,17.6-17.6,17.6l0,0c-9.7,0-17.6-7.9-17.6-17.6H92.2z"/></g><g><path fill="#FFFFFF" d="M58,64.7h33.3c0.6-1.8,0.9-3.7,0.9-5.7H57C57,61.1,57.4,63,58,64.7z"/></g><circle fill="#CC7262" cx="57.2" cy="42.8" r="4.2"/><circle fill="#CC7262" cx="91.8" cy="42.9" r="4.2"/><path fill="#C94E45" d="M84.7,73.5c-2.4-3-6.1-4.9-10.2-4.9l0,0c-4.1,0-7.7,1.9-10.1,4.8c2.9,2.1,6.4,3.3,10.2,3.3	C78.4,76.7,81.8,75.5,84.7,73.5z"/><circle fill="#F0F0F0" cx="90.9" cy="124.3" r="8.6"/><path fill="none" stroke="#424242" stroke-width="4.6985" stroke-miterlimit="10" d="M47.8,133.4v-7.7c0-5.7,4.6-10.3,10.3-10.3h0	c5.7,0,10.3,4.6,10.3,10.3v7.7"/><circle fill="none" stroke="#424242" stroke-width="1.9885" stroke-miterlimit="10" cx="90.9" cy="124.3" r="4.1"/><path fill="none" stroke="#424242" stroke-width="4.6985" stroke-linecap="round" stroke-linejoin="round" stroke-miterlimit="10" d="M68.4,130.5v5c0,3.2-2.6,5.7-5.7,5.7"/><path fill="none" stroke="#424242" stroke-width="4.6985" stroke-linecap="round" stroke-linejoin="round" stroke-miterlimit="10" d="M53.6,141.2c-3.2,0-5.7-2.6-5.7-5.7v-5"/><path fill="#68BC8A" d="M40.9,36.7h67.2C107.6,18.5,92.7,4,74.5,4l0,0C56.2,4,41.4,18.5,40.9,36.7z"/><path fill="#FFFFFF" d="M111.1,57.2L111.1,57.2l-73.3,0v0c0,20.2,16.4,36.6,36.6,36.6l0,0C94.7,93.8,111.1,77.4,111.1,57.2z"/><path fill="#FFFFFF" d="M39.3,60.2L39.3,60.2c-0.8,0-1.5-0.7-1.5-1.5V42.6c0-0.8,0.7-1.5,1.5-1.5h0c0.8,0,1.5,0.7,1.5,1.5v16.1	C40.8,59.6,40.2,60.2,39.3,60.2z"/><path fill="#FFFFFF" d="M109.6,60.2L109.6,60.2c-0.8,0-1.5-0.7-1.5-1.5V42.6c0-0.8,0.7-1.5,1.5-1.5l0,0c0.8,0,1.5,0.7,1.5,1.5v16.1	C111.1,59.6,110.4,60.2,109.6,60.2z"/></svg>