<?xml version="1.0" encoding="utf-8"?><!DOCTYPE svg PUBLIC "-//W3C//DTD SVG 1.1//EN" "http://www.w3.org/Graphics/SVG/1.1/DTD/svg11.dtd"><svg version="1.1" id="Layer_1" xmlns="http://www.w3.org/2000/svg" xmlns:xlink="http://www.w3.org/1999/xlink" x="0px" y="0px" width="150px" height="150px" viewBox="0 0 150 150" enable-background="new 0 0 150 150" xml:space="preserve"><path fill="#FFCE00" d="M82.2,22.7l11.6,23.6c1.3,2.5,3.7,4.3,6.5,4.7l26,3.8c7,1,9.9,9.7,4.8,14.6l-18.8,18.4c-2,2-2.9,4.8-2.5,7.6	l4.4,25.9c1.2,7-6.2,12.4-12.5,9.1l-23.3-12.2c-2.5-1.3-5.5-1.3-8,0l-23.3,12.2c-6.3,3.3-13.7-2-12.5-9.1l4.4-25.9	c0.5-2.8-0.4-5.6-2.5-7.6L17.9,69.4c-5.1-5-2.3-13.6,4.8-14.6l26-3.8c2.8-0.4,5.2-2.2,6.5-4.7l11.6-23.6C70,16.3,79,16.3,82.2,22.7z"/><circle fill="#FFAA00" cx="57.3" cy="67" r="4.9"/><circle fill="#FFAA00" cx="92.4" cy="67" r="4.9"/><path fill="#FF8500" d="M91.7,81.3c0,9.4-7.6,17-17,17s-17-7.6-17-17"/><path fill="#FFAA00" d="M84.6,95c-2.3-2.9-5.9-4.7-9.8-4.7h0c-4,0-7.6,1.9-9.9,4.8c2.8,2,6.2,3.2,9.8,3.2C78.4,98.2,81.8,97,84.6,95	z"/></svg>