<?xml version="1.0" encoding="utf-8"?><!DOCTYPE svg PUBLIC "-//W3C//DTD SVG 1.1//EN" "http://www.w3.org/Graphics/SVG/1.1/DTD/svg11.dtd"><svg version="1.1" xmlns="http://www.w3.org/2000/svg" xmlns:xlink="http://www.w3.org/1999/xlink" x="0px" y="0px" width="150px" height="150px" viewBox="0 0 150 150" enable-background="new 0 0 150 150" xml:space="preserve"><g id="Layer_2" display="none"><rect x="-1530" display="inline" fill="#F0F0F0" width="1680" height="1677.3"/></g><g id="Layer_1"><path fill="#88C11A" d="M110.1,94.4c-9.2,0-17.2,4.6-22.1,11.6c4.9,7,13,11.6,22.1,11.6s17.2-4.6,22.1-11.6 C127.3,99,119.2,94.4,110.1,94.4z"/><path fill="#88C11A" d="M112.3,112.7c-6.5-6.5-15.4-9-23.8-7.5c-1.5,8.4,1,17.3,7.5,23.8s15.4,9,23.8,7.5 C121.3,128.1,118.8,119.2,112.3,112.7z"/><path fill="#84A800" d="M119.8,136.5c1.5-8.4-1-17.3-7.5-23.8c-6.5-6.5-15.4-9-23.8-7.5L119.8,136.5z"/><path fill="#84A800" d="M132.2,106c-4.9-7-13-11.6-22.1-11.6S92.8,99,88,106H132.2z"/><path fill="#843429" d="M110.5,14H73.7c0,5.4-4.4,9.8-9.8,9.8c-5.4,0-9.8-4.4-9.8-9.8H39.2C18.6,14,5.7,36.4,16,54.2L51.6,116 c10.3,17.9,36.1,17.9,46.5,0l35.7-61.8C144.1,36.4,131.2,14,110.5,14z"/><path fill="#AF6A58" d="M110.5,14H73.7c0,5.4-4.4,9.8-9.8,9.8c-5.4,0-9.8-4.4-9.8-9.8H39.2C18.6,14,5.7,36.4,16,54.2L51.6,116 c5.2,8.9,14.2,13.4,23.2,13.4s18.1-4.5,23.2-13.4l35.7-61.8C144.1,36.4,131.2,14,110.5,14z M126.4,50l-35.7,61.8 c-3.3,5.7-9.3,9.2-15.9,9.2s-12.6-3.4-15.9-9.2L23.3,50c-3.3-5.7-3.3-12.6,0-18.3c3.3-5.7,9.3-9.2,15.9-9.2h8.5 c2.3,4.3,6.2,7.6,11,9v41.4c0,2.9,2.3,5.2,5.2,5.2c2.9,0,5.2-2.3,5.2-5.2V31.5c4.8-1.4,8.7-4.7,11-9h30.4c6.6,0,12.6,3.4,15.9,9.2 C129.7,37.4,129.7,44.3,126.4,50z"/><path fill="#772A22" d="M110.5,50.9l4.4-4.4c1.1-1.1,1.1-2.9,0-4c-1.1-1.1-2.9-1.1-4,0l-4.4,4.4l-6.5-6.5l4.4-4.4 c1.1-1.1,1.1-2.9,0-4c-1.1-1.1-2.9-1.1-4,0l-4.4,4.4L92,32.4c-1.1-1.1-2.9-1.1-4,0c-1.1,1.1-1.1,2.9,0,4l3.9,3.9l-6.5,6.5L81.5,43 c-1.1-1.1-2.9-1.1-4,0c-1.1,1.1-1.1,2.9,0,4l3.9,3.9l-3.5,3.5c-1.1,1.1-1.1,2.9,0,4c1.1,1.1,2.9,1.1,4,0l3.5-3.5l6.5,6.5l-3.5,3.5 c-1.1,1.1-1.1,2.9,0,4v0c1.1,1.1,2.9,1.1,4,0l3.5-3.5l3.9,3.9c1.1,1.1,2.9,1.1,4,0c1.1-1.1,1.1-2.9,0-4l-3.9-3.9l6.5-6.5l3.9,3.9 c1.1,1.1,2.9,1.1,4,0c1.1-1.1,1.1-2.9,0-4L110.5,50.9z M95.9,57.4l-6.5-6.5l6.5-6.5l6.5,6.5L95.9,57.4z"/></g><g id="Layer_3"/></svg>