<?xml version="1.0" encoding="utf-8"?><!DOCTYPE svg PUBLIC "-//W3C//DTD SVG 1.1//EN" "http://www.w3.org/Graphics/SVG/1.1/DTD/svg11.dtd"><svg version="1.1" id="Layer_1" xmlns="http://www.w3.org/2000/svg" xmlns:xlink="http://www.w3.org/1999/xlink" x="0px" y="0px" width="150px" height="150px" viewBox="0 0 150 150" enable-background="new 0 0 150 150" xml:space="preserve"><path fill="none" stroke="#FFC431" stroke-width="4.1439" stroke-linecap="round" stroke-linejoin="round" stroke-miterlimit="10" d="M116.2,32.1c0,21.9-17.8,39.7-39.7,39.7S36.8,54,36.8,32.1"/><path fill="none" stroke="#FFC431" stroke-width="4.1439" stroke-linecap="round" stroke-linejoin="round" stroke-miterlimit="10" d="M141.1,64.5c-10.2-7.2-16.8-19-16.8-32.4"/><path fill="none" stroke="#FFC431" stroke-width="4.1439" stroke-linecap="round" stroke-linejoin="round" stroke-miterlimit="10" d="M11.2,64.5C21.3,57.3,28,45.5,28,32.1"/><line fill="none" stroke="#FFC431" stroke-width="4.1439" stroke-linecap="round" stroke-linejoin="round" stroke-miterlimit="10" x1="10.8" y1="64.5" x2="10.8" y2="89.6"/><path fill="#EDAD1D" d="M40.4,105.8H24.4c-2,0-3.6-1.6-3.6-3.6v0c0-2,1.6-3.6,3.6-3.6h16.1c2,0,3.6,1.6,3.6,3.6v0	C44.1,104.2,42.4,105.8,40.4,105.8z"/><path fill="#FFD72E" d="M36,108.8h-6.8c-1.8,0-3.2-1.4-3.2-3.2V31.5c0-1.8,1.4-3.2,3.2-3.2H36c1.8,0,3.2,1.4,3.2,3.2v74.1	C39.2,107.4,37.7,108.8,36,108.8z"/><rect x="17" y="102.2" fill="#A57D67" width="30.9" height="14.5"/><rect x="25.9" y="93.2" fill="#EDAD1D" width="13.2" height="9"/><path fill="#EDAD1D" d="M128.1,105.8H112c-2,0-3.6-1.6-3.6-3.6v0c0-2,1.6-3.6,3.6-3.6h16.1c2,0,3.6,1.6,3.6,3.6v0	C131.7,104.2,130.1,105.8,128.1,105.8z"/><path fill="#FFD72E" d="M123.7,108.8h-6.8c-1.8,0-3.2-1.4-3.2-3.2V31.5c0-1.8,1.4-3.2,3.2-3.2h6.8c1.8,0,3.2,1.4,3.2,3.2v74.1	C126.9,107.4,125.5,108.8,123.7,108.8z"/><rect x="113.7" y="93.2" fill="#EDAD1D" width="13.2" height="9"/><line fill="none" stroke="#FFC431" stroke-width="4.1439" stroke-linecap="round" stroke-linejoin="round" stroke-miterlimit="10" x1="50.1" y1="63" x2="50.1" y2="88"/><line fill="none" stroke="#FFC431" stroke-width="4.1439" stroke-linecap="round" stroke-linejoin="round" stroke-miterlimit="10" x1="63.3" y1="70.3" x2="63.3" y2="90.5"/><line fill="none" stroke="#FFC431" stroke-width="4.1439" stroke-linecap="round" stroke-linejoin="round" stroke-miterlimit="10" x1="89.4" y1="70.3" x2="89.4" y2="87.6"/><line fill="none" stroke="#FFC431" stroke-width="4.1439" stroke-linecap="round" stroke-linejoin="round" stroke-miterlimit="10" x1="76.5" y1="71.8" x2="76.5" y2="88.4"/><rect x="104.9" y="102.2" fill="#A57D67" width="30.9" height="14.5"/><line fill="none" stroke="#FFC431" stroke-width="4.1439" stroke-linecap="round" stroke-linejoin="round" stroke-miterlimit="10" x1="102.5" y1="62.5" x2="102.5" y2="87.6"/><line fill="none" stroke="#FFC431" stroke-width="4.1439" stroke-linecap="round" stroke-linejoin="round" stroke-miterlimit="10" x1="141.5" y1="64.5" x2="141.5" y2="89.6"/><rect x="8.8" y="81.9" fill="#FFD72E" width="134.7" height="11.1"/><rect x="8.8" y="87.5" fill="#EDAD1D" width="134.7" height="5.9"/><path fill="#36C5F2" d="M137.7,121.4H12.2c-1.9,0-3.4-1.5-3.4-3.4v0c0-1.9,1.5-3.4,3.4-3.4h125.6c1.9,0,3.4,1.5,3.4,3.4v0	C141.1,119.9,139.6,121.4,137.7,121.4z"/><path fill="#36C5F2" d="M81.7,125.3H18c-1.9,0-3.4-1.5-3.4-3.4v0c0-1.9,1.5-3.4,3.4-3.4h63.7c1.9,0,3.4,1.5,3.4,3.4v0	C85,123.8,83.5,125.3,81.7,125.3z"/><path fill="#36C5F2" d="M131.4,130.2H65.7c-2.9,0-5.3-2.4-5.3-5.3v0c0-2.9,2.4-5.3,5.3-5.3h65.7c2.9,0,5.3,2.4,5.3,5.3v0	C136.7,127.8,134.3,130.2,131.4,130.2z"/><path fill="#36C5F2" d="M92.4,134.1H26.7c-2.9,0-5.3-2.4-5.3-5.3v0c0-2.9,2.4-5.3,5.3-5.3h65.7c2.9,0,5.3,2.4,5.3,5.3v0	C97.7,131.7,95.3,134.1,92.4,134.1z"/><path fill="#36C5F2" d="M95.3,138.9H58.9c-2.9,0-5.3-2.4-5.3-5.3v0c0-2.9,2.4-5.3,5.3-5.3h36.4c2.9,0,5.3,2.4,5.3,5.3v0	C100.6,136.6,98.2,138.9,95.3,138.9z"/></svg>