<?xml version="1.0" encoding="utf-8"?><!DOCTYPE svg PUBLIC "-//W3C//DTD SVG 1.1//EN" "http://www.w3.org/Graphics/SVG/1.1/DTD/svg11.dtd"><svg version="1.1" xmlns="http://www.w3.org/2000/svg" xmlns:xlink="http://www.w3.org/1999/xlink" x="0px" y="0px" width="150px" height="150px" viewBox="0 0 150 150" enable-background="new 0 0 150 150" xml:space="preserve"><g id="Layer_2" display="none"><rect x="-170" y="-1017.3" display="inline" fill="#F0F0F0" width="1680" height="1677.3"/></g><g id="Layer_1"/><g id="Layer_3"><path fill="#FFC715" d="M36.7,55.2h-7.6c-1.2,0-2.1-1-2.1-2.1V39.8c0-1.2,1-2.1,2.1-2.1h7.6c1.2,0,2.1,1,2.1,2.1v13.3 C38.8,54.2,37.9,55.2,36.7,55.2z"/><path fill="#FFC715" d="M121.3,55.2h-7.6c-1.2,0-2.1-1-2.1-2.1V39.8c0-1.2,1-2.1,2.1-2.1h7.6c1.2,0,2.1,1,2.1,2.1v13.3 C123.4,54.2,122.5,55.2,121.3,55.2z"/><g><path fill="#72360E" d="M85.8,105.6H65.4c-7.6,0-13.9-6.2-13.9-13.9V37.6c0-7.6,6.2-13.9,13.9-13.9h20.4c7.6,0,13.9,6.2,13.9,13.9 v54.2C99.7,99.4,93.4,105.6,85.8,105.6z M65.4,31.8c-3.2,0-5.8,2.6-5.8,5.8v54.2c0,3.2,2.6,5.8,5.8,5.8h20.4 c3.2,0,5.8-2.6,5.8-5.8V37.6c0-3.2-2.6-5.8-5.8-5.8H65.4z"/></g><path fill="#8E4819" d="M129,123H21.4c-4.7,0-8.5-3.8-8.5-8.5V50.8c0-4.7,3.8-8.5,8.5-8.5H129c4.7,0,8.5,3.8,8.5,8.5v63.6 C137.6,119.2,133.7,123,129,123z"/><path fill="#72360E" d="M12.9,50.8v4.4c0.7,0.2,1.5,0.2,2.2,0.2c5.8,0,10.4-4.7,10.4-10.4c0-1-0.1-1.9-0.4-2.8h-3.7 C16.7,42.3,12.9,46.1,12.9,50.8z"/><path fill="#72360E" d="M129,42.3h-3.7c-0.2,0.9-0.4,1.8-0.4,2.8c0,5.8,4.7,10.4,10.4,10.4c0.8,0,1.5-0.1,2.2-0.2v-4.4 C137.6,46.1,133.7,42.3,129,42.3z"/><path fill="#72360E" d="M15.1,110.2c-0.8,0-1.5,0.1-2.2,0.2v4c0,4.7,3.8,8.5,8.5,8.5h3.8c0.2-0.8,0.3-1.5,0.3-2.4 C25.5,114.9,20.9,110.2,15.1,110.2z"/><path fill="#72360E" d="M137.6,110.5c-0.7-0.2-1.5-0.2-2.2-0.2c-5.8,0-10.4,4.7-10.4,10.4c0,0.8,0.1,1.6,0.3,2.4h3.8 c4.7,0,8.5-3.8,8.5-8.5V110.5z"/><rect x="40.8" y="42.3" fill="#72360E" width="9.5" height="80.6"/><rect x="100.2" y="42.3" fill="#72360E" width="9.5" height="80.6"/></g></svg>