<?xml version="1.0" encoding="utf-8"?><!DOCTYPE svg PUBLIC "-//W3C//DTD SVG 1.1//EN" "http://www.w3.org/Graphics/SVG/1.1/DTD/svg11.dtd"><svg version="1.1" id="Layer_1" xmlns="http://www.w3.org/2000/svg" xmlns:xlink="http://www.w3.org/1999/xlink" x="0px" y="0px" width="150px" height="150px" viewBox="0 0 150 150" enable-background="new 0 0 150 150" xml:space="preserve"><rect x="9.5" y="55.9" fill="#A3A3A3" width="130.4" height="79.2"/><rect x="9.5" y="109" fill="#A3A3A3" width="130.4" height="26.1"/><path fill="#B7B7B7" d="M140.2,76.2H9.5c-1.3,0-2.4-1.1-2.4-2.4v0c0-1.3,1.1-2.4,2.4-2.4h130.7c1.3,0,2.4,1.1,2.4,2.4v0	C142.6,75.1,141.5,76.2,140.2,76.2z"/><path fill="#B7B7B7" d="M140.2,111.4H9.5c-1.3,0-2.4-1.1-2.4-2.4v0c0-1.3,1.1-2.4,2.4-2.4h130.7c1.3,0,2.4,1.1,2.4,2.4v0	C142.6,110.3,141.5,111.4,140.2,111.4z"/><path fill="#B7B7B7" d="M140.2,64.7H9.5c-1.3,0-2.4-1.1-2.4-2.4v0c0-1.3,1.1-2.4,2.4-2.4h130.7c1.3,0,2.4,1.1,2.4,2.4v0	C142.6,63.6,141.5,64.7,140.2,64.7z"/><path fill="#A35634" d="M66.4,135v-11.3c0-4.6,3.8-8.4,8.4-8.4h0c4.6,0,8.4,3.8,8.4,8.4V135"/><path fill="#A35634" d="M91.7,135v-11.3c0-4.6,3.8-8.4,8.4-8.4h0c4.6,0,8.4,3.8,8.4,8.4V135"/><path fill="#A35634" d="M41.2,135v-11.3c0-4.6,3.8-8.4,8.4-8.4h0c4.6,0,8.4,3.8,8.4,8.4V135"/><rect x="8" y="114.3" fill="#7F7F7F" width="10.4" height="8"/><rect x="8" y="124.2" fill="#7F7F7F" width="10.4" height="8"/><rect x="130.4" y="114.3" fill="#7F7F7F" width="10.4" height="8"/><rect x="130.4" y="124.2" fill="#7F7F7F" width="10.4" height="8"/><rect x="38.5" y="81" fill="#96EDE0" width="11.5" height="21.9"/><rect x="69.1" y="81" fill="#96EDE0" width="11.5" height="21.9"/><rect x="99.7" y="81" fill="#96EDE0" width="11.5" height="21.9"/><rect x="36.1" y="86.1" fill="#A3A3A3" width="77" height="2.2"/><rect x="73.8" y="86.7" fill="#A3A3A3" width="2.2" height="17.4"/><rect x="104.4" y="86.7" fill="#A3A3A3" width="2.2" height="17.4"/><rect x="43.2" y="86.7" fill="#A3A3A3" width="2.2" height="17.4"/><rect x="55.1" y="73.8" fill="#B7B7B7" width="8.9" height="33.7"/><rect x="85.7" y="73.8" fill="#B7B7B7" width="8.9" height="33.7"/><rect x="116.3" y="73.8" fill="#B7B7B7" width="8.9" height="33.7"/><rect x="24.5" y="73.8" fill="#B7B7B7" width="8.9" height="33.7"/><g><path fill="#7AC70C" d="M107.2,47.3c0-17.5-14.2-31.8-31.8-31.8S43.7,29.8,43.7,47.3c0,11,5.6,20.7,14.2,26.4l17.6,15.6l17.6-15.6 C101.6,68.1,107.2,58.3,107.2,47.3z"/></g><rect x="9.5" y="47.1" fill="#A3A3A3" width="17.7" height="12.2"/><rect x="122.2" y="47.1" fill="#A3A3A3" width="17.7" height="12.2"/><polygon fill="#FFFFFF" points="74.4,65.4 58.5,56.8 58.5,34.2 74.4,42.8"/><polygon fill="#FFFFFF" points="74.4,40.9 58.5,32.3 58.5,30.9 74.4,39.5"/><polygon fill="#FFFFFF" points="76.5,40.9 92.4,32.3 92.4,30.9 76.5,39.5"/><polyline fill="#FFFFFF" points="92.4,34.2 76.5,42.8 76.5,65.4 92.4,56.8"/></svg>