<?xml version="1.0" encoding="utf-8"?><!DOCTYPE svg PUBLIC "-//W3C//DTD SVG 1.1//EN" "http://www.w3.org/Graphics/SVG/1.1/DTD/svg11.dtd"><svg version="1.1" id="Layer_1" xmlns="http://www.w3.org/2000/svg" xmlns:xlink="http://www.w3.org/1999/xlink" x="0px" y="0px" width="150px" height="150px" viewBox="0 0 150 150" enable-background="new 0 0 150 150" xml:space="preserve"><rect x="27.4" y="80.9" fill="#DB976A" width="95.4" height="67.4"/><rect x="56.7" y="123" fill="#D6E6EA" width="36.9" height="25.3"/><path fill="#FFFFFF" d="M95.5,119H54.3c-1.9,0-3.5,1.6-3.5,3.5v0.4c0,1.9,1.6,3.5,3.5,3.5h0.3v22h5.1v-22h30.8v22h5.1v-22.1	c1.8-0.1,3.3-1.6,3.3-3.4v-0.4C99,120.5,97.4,119,95.5,119z"/><rect x="35.7" y="88.7" fill="#97DCF2" width="9" height="18.3"/><rect x="59.3" y="88.7" fill="#97DCF2" width="9" height="18.3"/><rect x="80.8" y="88.7" fill="#97DCF2" width="9" height="18.3"/><rect x="104.4" y="88.7" fill="#97DCF2" width="9" height="18.3"/><rect x="104.4" y="121.3" fill="#97DCF2" width="9" height="18.3"/><rect x="35.7" y="121.3" fill="#97DCF2" width="9" height="18.3"/><g><rect x="34.6" y="87.7" fill="#97DCF2" width="11" height="20.4"/><path fill="#FFFFFF" d="M44.6,88.7v18.3h-9V88.7H44.6 M46.7,86.7h-2.1h-9h-2.1v2.1v18.3v2.1h2.1h9h2.1v-2.1V88.7V86.7L46.7,86.7z"/></g><g><rect x="57.2" y="87.7" fill="#97DCF2" width="11" height="20.4"/><path fill="#FFFFFF" d="M67.2,88.7v18.3h-9V88.7H67.2 M69.3,86.7h-2.1h-9h-2.1v2.1v18.3v2.1h2.1h9h2.1v-2.1V88.7V86.7L69.3,86.7z"/></g><g><rect x="80.8" y="87.7" fill="#97DCF2" width="11" height="20.4"/><path fill="#FFFFFF" d="M90.8,88.7v18.3h-9V88.7H90.8 M92.9,86.7h-2.1h-9h-2.1v2.1v18.3v2.1h2.1h9h2.1v-2.1V88.7V86.7L92.9,86.7z"/></g><g><rect x="103.4" y="87.7" fill="#97DCF2" width="11" height="20.4"/><path fill="#FFFFFF" d="M113.4,88.7v18.3h-9V88.7H113.4 M115.4,86.7h-2.1h-9h-2.1v2.1v18.3v2.1h2.1h9h2.1v-2.1V88.7V86.7 L115.4,86.7z"/></g><g><rect x="103.4" y="120.3" fill="#97DCF2" width="11" height="20.4"/><path fill="#FFFFFF" d="M113.4,121.3v18.3h-9v-18.3H113.4 M115.5,119.3h-2.1h-9h-2.1v2.1v18.3v2.1h2.1h9h2.1v-2.1v-18.3V119.3 L115.5,119.3z"/></g><g><rect x="34.7" y="120.3" fill="#97DCF2" width="11" height="20.4"/><path fill="#FFFFFF" d="M44.7,121.3v18.3h-9v-18.3H44.7 M46.7,119.3h-2.1h-9h-2.1v2.1v18.3v2.1h2.1h9h2.1v-2.1v-18.3V119.3 L46.7,119.3z"/></g><rect x="63.8" y="129.5" fill="#97DCF2" width="22.5" height="18.8"/><g><path fill="#E2B06F" d="M123.4,77.9h-96c-1.5,0-2.7,1.2-2.7,2.7v0.3c0,1.5,1.2,2.7,2.7,2.7h96c1.5,0,2.7-1.2,2.7-2.7v-0.3 C126.1,79.1,124.9,77.9,123.4,77.9z"/><path fill="#E2B06F" d="M123.4,111.1h-96c-1.5,0-2.7,1.2-2.7,2.7v0.3c0,1.5,1.2,2.7,2.7,2.7h96c1.5,0,2.7-1.2,2.7-2.7v-0.3 C126.1,112.3,124.9,111.1,123.4,111.1z"/></g><g><path fill="#BA5AF2" d="M116.6,42.7c0-23-18.6-41.6-41.6-41.6S33.4,19.7,33.4,42.7c0,14.4,7.4,27.1,18.5,34.6L75,97.6l23.1-20.4 C109.2,69.8,116.6,57.1,116.6,42.7z"/><g><polygon fill="#FFFFFF" points="96.2,41.2 96.2,43.8 53.9,43.8 53.9,27.5 47.6,27.5 47.6,56.8 53.9,56.8 53.9,49.6 96.2,49.6 96.2,56.8 102.4,56.8 102.4,41.2"/><circle fill="#FFFFFF" cx="61.1" cy="36.2" r="4.3"/></g><path fill="#FFFFFF" d="M94,41H67.7v-9.5h18.6c4.3,0,7.7,3.5,7.7,7.7V41z"/></g><rect x="73.9" y="129.5" fill="#71C5D8" width="2.1" height="18.8"/><rect x="63.8" y="135.2" fill="#71C5D8" width="22.5" height="2.1"/><rect x="63.8" y="129.4" fill="#71C5D8" width="22.5" height="2.1"/></svg>