<?xml version="1.0" encoding="utf-8"?><!DOCTYPE svg PUBLIC "-//W3C//DTD SVG 1.1//EN" "http://www.w3.org/Graphics/SVG/1.1/DTD/svg11.dtd"><svg version="1.1" id="Layer_1" xmlns="http://www.w3.org/2000/svg" xmlns:xlink="http://www.w3.org/1999/xlink" x="0px" y="0px" width="150px" height="150px" viewBox="0 0 150 150" enable-background="new 0 0 150 150" xml:space="preserve"><path fill="#9B4E2C" d="M85.3,141.9H117c5,0,9-4,9-9v-66c0-13.7-11.1-24.9-24.9-24.9h0c-13.7,0-24.9,11.1-24.9,24.9v66	C76.3,137.9,80.4,141.9,85.3,141.9z"/><rect x="74.9" y="73.5" fill="#36A8E0" width="51.2" height="48.4"/><polygon fill="#9B4E2C" points="114.4,63 87.9,63 91.4,11.3 111,11.3"/><circle fill="#BA6B36" cx="93.1" cy="54.2" r="4.8"/><path fill="none" stroke="#BCBCBC" stroke-width="8.2481" stroke-miterlimit="10" d="M90.7,124.3H77c-12,0-21.8-9.7-21.8-21.8v0	c0-12,9.7-21.8,21.8-21.8h13.7c12,0,21.8,9.7,21.8,21.8v0C112.4,114.5,102.7,124.3,90.7,124.3z"/><path fill="none" stroke="#D6D6D6" stroke-width="4.1241" stroke-linecap="round" stroke-linejoin="round" stroke-miterlimit="10" d="M94.5,80.9c10.1,0,18.2,8.2,18.2,18.2v0"/><path fill="#BCBCBC" d="M76.7,141.9H37.9c-7.1,0-12.9-5.8-12.9-12.9V70.3h64.6V129C89.6,136.2,83.9,141.9,76.7,141.9z"/><path fill="#EA882F" d="M77.2,132.3H37.4c-4.8,0-8.7-3.9-8.7-8.7V67h57.2v56.7C85.9,128.4,82,132.3,77.2,132.3z"/><path fill="#FF9D3B" d="M42.5,122.6L42.5,122.6c-3.8,0-6.9-3.1-6.9-6.9V66.9c0-3.8,3.1-6.9,6.9-6.9h0c3.8,0,6.9,3.1,6.9,6.9v48.8	C49.4,119.5,46.3,122.6,42.5,122.6z"/><path fill="#FFFFFF" d="M89.6,70.4H25v-3.4c0-8.5,6.9-15.4,15.4-15.4h33.9c8.5,0,15.4,6.9,15.4,15.4V70.4z"/><path fill="#E07924" d="M81.1,129.1L81.1,129.1c-2.7,0-4.8-2.2-4.8-4.8V94c0-2.7,2.2-4.8,4.8-4.8h0c2.7,0,4.8,2.2,4.8,4.8v30.2	C85.9,126.9,83.7,129.1,81.1,129.1z"/><path fill="#FFFFFF" d="M67.9,82.5L67.9,82.5c-2.9,0-5.3-2.4-5.3-5.3v-7.9c0-2.9,2.4-5.3,5.3-5.3h0c2.9,0,5.3,2.4,5.3,5.3v7.9	C73.2,80.2,70.8,82.5,67.9,82.5z"/><path fill="#FFFFFF" d="M77.9,77.9L77.9,77.9c-2.9,0-5.3-2.4-5.3-5.3v-3.3c0-2.9,2.4-5.3,5.3-5.3h0c2.9,0,5.3,2.4,5.3,5.3v3.3	C83.2,75.5,80.8,77.9,77.9,77.9z"/><path fill="#CCCCCC" d="M71.6,139.5H41.7c-1.4,0-2.6-1.2-2.6-2.6l0,0c0-1.4,1.2-2.6,2.6-2.6h29.9c1.4,0,2.6,1.2,2.6,2.6l0,0	C74.3,138.3,73.1,139.5,71.6,139.5z"/><circle fill="#F0F0F0" cx="71.3" cy="58.5" r="2.3"/><circle fill="#F0F0F0" cx="62" cy="62.4" r="3.3"/><circle fill="#F0F0F0" cx="43.2" cy="57.7" r="2"/><path fill="#9B4E2C" d="M111,14.5H91.4c-1.9,0-3.4-1.5-3.4-3.4v0c0-1.9,1.5-3.4,3.4-3.4l19.5,0c1.9,0,3.4,1.5,3.4,3.4v0	C114.3,13,112.8,14.5,111,14.5z"/><polygon fill="#36A8E0" points="89.9,32.3 112.5,32.3 111.5,17.2 90.9,17.2"/><path fill="#BA6B36" d="M101.3,14.5h-6.6c-1.9,0-3.4-1.5-3.4-3.4v0c0-1.9,1.5-3.4,3.4-3.4h6.6c1.9,0,3.4,1.5,3.4,3.4v0	C104.6,13,103.1,14.5,101.3,14.5z"/></svg>