<?xml version="1.0" encoding="utf-8"?><!DOCTYPE svg PUBLIC "-//W3C//DTD SVG 1.1//EN" "http://www.w3.org/Graphics/SVG/1.1/DTD/svg11.dtd"><svg version="1.1" id="Layer_1" xmlns="http://www.w3.org/2000/svg" xmlns:xlink="http://www.w3.org/1999/xlink" x="0px" y="0px" width="150px" height="150px" viewBox="0 0 150 150" enable-background="new 0 0 150 150" xml:space="preserve"><path fill="#7FAF3A" d="M33.3,79.6L33.3,79.6c-1.3,0-2.3-1-2.3-2.3V46.1c0-1.3,1-2.3,2.3-2.3h0c1.3,0,2.3,1,2.3,2.3v31.1	C35.6,78.5,34.6,79.6,33.3,79.6z"/><path fill="#FFCE00" d="M60.3,29.8c-0.4-3.6-2.7-6.7-5.9-8.2v0c0,0,0,0,0,0c0,0,0,0,0,0v0c-3.2,1.5-5.5,4.5-5.9,8.1	c-1.2-0.8-2.7-1.3-4.2-1.3v4.1v2v0.3c0,0,0,0,0,0c0.2,5.5,4.6,9.9,10.2,9.9s10-4.4,10.2-9.9c0,0,0,0,0,0v-0.3v-2v-4.1	C63,28.4,61.5,29,60.3,29.8z"/><path fill="#FF6700" d="M39.1,38.3c-0.4-3.6-2.7-6.7-5.9-8.2v0c0,0,0,0,0,0c0,0,0,0,0,0v0c-3.2,1.5-5.5,4.5-5.9,8.1	c-1.2-0.8-2.7-1.3-4.2-1.3V41v2v0.3c0,0,0,0,0,0c0.2,5.5,4.6,9.9,10.2,9.9s10-4.4,10.2-9.9c0,0,0,0,0,0v-0.3v-2v-4.1	C41.8,36.9,40.4,37.4,39.1,38.3z"/><path fill="#E03D2D" d="M55.2,44.2c-0.4-3.6-2.7-6.7-5.9-8.2v0c0,0,0,0,0,0c0,0,0,0,0,0v0c-3.2,1.5-5.5,4.5-5.9,8.1	c-1.2-0.8-2.7-1.3-4.2-1.3V47v2v0.3c0,0,0,0,0,0c0.2,5.5,4.6,9.9,10.2,9.9s10-4.4,10.2-9.9c0,0,0,0,0,0V49v-2v-4.1	C57.9,42.9,56.5,43.4,55.2,44.2z"/><circle fill="#6D8C28" cx="97.5" cy="71" r="25.7"/><path fill="#739B2D" d="M111.7,64.6c-2.5,0-4.9,0.4-7.1,1c-2-13.9-14-24.6-28.5-24.6C64.8,41,55,47.5,50.3,57	c-2-0.4-4.1-0.6-6.2-0.6c-16.6,0-30,13.4-30,30c0,16.6,13.4,30,30,30h67.6c14.3,0,25.9-11.6,25.9-25.9	C137.7,76.2,126.1,64.6,111.7,64.6z"/><path fill="#7FAF3A" d="M134.6,120.6c0.1-1.2,0.2-2.3,0.2-3.5c0-15.1-12.2-27.3-27.3-27.3c-5,0-9.8,1.4-13.8,3.8	c-2.9-11.9-13.7-20.8-26.5-20.8c-14.6,0-26.5,11.4-27.3,25.8c-1-0.1-2-0.2-3-0.2c-11.9,0-21.5,9.6-21.5,21.5c0,0.3,0,0.6,0,0.8	H134.6z"/><path fill="#FFCE00" d="M104.6,57.7c0.5-1.5,0.2-3.2-1-4.4l-0.3-0.3c-1.2-1.2-3-1.5-4.5-0.9c-0.6-1.5-2.1-2.5-3.8-2.5h-0.4	c-1.7,0-3.1,1-3.8,2.4c-1.5-0.6-3.4-0.4-4.6,0.9L86,53.2c-1.2,1.2-1.5,3-0.9,4.5c-1.5,0.6-2.5,2.1-2.5,3.8V62c0,1.8,1.1,3.3,2.6,3.9	c-0.6,1.5-0.3,3.3,0.9,4.5l0.3,0.3c1.2,1.2,3,1.5,4.5,0.9c0.6,1.5,2.1,2.5,3.8,2.5H95c1.7,0,3.2-1,3.8-2.5c1.5,0.6,3.3,0.3,4.5-0.9	l0.3-0.3c1.2-1.2,1.5-3,0.9-4.5c1.5-0.6,2.5-2.1,2.5-3.8v-0.4C107.1,59.8,106.1,58.3,104.6,57.7z"/><circle fill="#FFE67B" cx="94.8" cy="61.9" r="4.6"/><path fill="#FF9248" d="M48.5,75.8c0.5-1.4,0.2-2.9-0.9-4l-0.2-0.2c-1.1-1.1-2.7-1.4-4.1-0.9c-0.6-1.4-1.9-2.3-3.5-2.3h-0.3	c-1.5,0-2.8,0.9-3.5,2.2c-1.4-0.6-3.1-0.3-4.2,0.8l-0.3,0.3c-1.1,1.1-1.4,2.7-0.9,4.1c-1.4,0.6-2.3,1.9-2.3,3.5v0.4	c0,1.6,1,3,2.4,3.6c-0.5,1.4-0.3,3,0.9,4.1l0.2,0.2c1.1,1.1,2.7,1.4,4.1,0.9c0.6,1.4,1.9,2.3,3.5,2.3h0.3c1.6,0,2.9-1,3.5-2.3	c1.4,0.6,3,0.3,4.2-0.8l0.3-0.3c1.1-1.1,1.4-2.7,0.9-4.1c1.4-0.6,2.3-1.9,2.3-3.5v-0.4C50.9,77.7,49.9,76.4,48.5,75.8z"/><circle fill="#FFCE00" cx="39.6" cy="79.6" r="4.3"/><path fill="#E03D2D" d="M117.8,98.9c0.5-1.4,0.2-2.9-0.9-4l-0.2-0.2c-1.1-1.1-2.7-1.4-4.1-0.9c-0.6-1.4-1.9-2.3-3.5-2.3h-0.3	c-1.5,0-2.8,0.9-3.5,2.2c-1.4-0.6-3.1-0.3-4.2,0.8l-0.3,0.3c-1.1,1.1-1.4,2.7-0.9,4.1c-1.4,0.6-2.3,1.9-2.3,3.5v0.4	c0,1.6,1,3,2.4,3.6c-0.5,1.4-0.3,3,0.9,4.1l0.2,0.2c1.1,1.1,2.7,1.4,4.1,0.9c0.6,1.4,1.9,2.3,3.5,2.3h0.3c1.6,0,2.9-1,3.5-2.3	c1.4,0.6,3,0.3,4.2-0.8l0.3-0.3c1.1-1.1,1.4-2.7,0.9-4.1c1.4-0.6,2.3-1.9,2.3-3.5v-0.4C120.1,100.8,119.1,99.4,117.8,98.9z"/><circle fill="#FFCE00" cx="108.8" cy="102.7" r="4.3"/><g><path fill="#6D8C28" d="M95.5,30.7c-3.3,3.3-4.3,8-3,12.2c4.2,1.3,8.9,0.3,12.2-3c3.3-3.3,4.3-8,3-12.2 C103.5,26.4,98.8,27.4,95.5,30.7z"/><path fill="#6D8C28" d="M128.2,45.8c-3.9,2-6.5,6.1-6.5,10.7c0,4.7,2.6,8.7,6.5,10.7c3.9-2,6.5-6.1,6.5-10.7S132.1,47.9,128.2,45.8 z"/></g><path fill="#739B2D" d="M69.1,95.8c-3-3-7.2-3.9-11-2.7c-1.2,3.8-0.3,8,2.7,11c3,3,7.2,3.9,11,2.7C73,103.1,72.1,98.8,69.1,95.8z"/><path fill="#7FAF3A" d="M65.9,52.6c-3,3-3.9,7.2-2.7,11c3.8,1.2,8,0.3,11-2.7c3-3,3.9-7.2,2.7-11C73.1,48.8,68.9,49.7,65.9,52.6z"/></svg>