<?xml version="1.0" encoding="utf-8"?><!DOCTYPE svg PUBLIC "-//W3C//DTD SVG 1.1//EN" "http://www.w3.org/Graphics/SVG/1.1/DTD/svg11.dtd"><svg version="1.1" xmlns="http://www.w3.org/2000/svg" xmlns:xlink="http://www.w3.org/1999/xlink" x="0px" y="0px" width="150px" height="150px" viewBox="0 0 150 150" enable-background="new 0 0 150 150" xml:space="preserve"><g id="Layer_2" display="none"><rect x="-170" y="-340" display="inline" fill="#F0F0F0" width="1680" height="1677.3"/></g><g id="Layer_1"><path fill="#D6A97C" d="M105.5,58.8c1.9-4.2,3-8.9,3-13.8c0-18.4-14.9-33.3-33.3-33.3c-18.4,0-33.3,14.9-33.3,33.3 c0,4.9,1.1,9.6,3,13.8c2.8,8.1,4.9,19,0.4,31.6c-2.1,4.4-3.3,9.3-3.3,14.6c0,18.4,14.9,33.3,33.3,33.3c18.4,0,33.3-14.9,33.3-33.3 c0-5.2-1.2-10.2-3.4-14.6C100.6,77.7,102.7,66.9,105.5,58.8z"/><path fill="#C69467" d="M93.2,45h-8.1c-2.1,0-3.8-1.7-3.8-3.8v-8.1c0-2.1,1.7-3.8,3.8-3.8h8.1c2.1,0,3.8,1.7,3.8,3.8v8.1 C97,43.3,95.3,45,93.2,45z"/><path fill="#C69467" d="M73.2,45h-8.1c-2.1,0-3.8-1.7-3.8-3.8v-8.1c0-2.1,1.7-3.8,3.8-3.8h8.1c2.1,0,3.8,1.7,3.8,3.8v8.1 C77,43.3,75.3,45,73.2,45z"/><path fill="#C69467" d="M83.2,65h-8.1c-2.1,0-3.8-1.7-3.8-3.8v-8.1c0-2.1,1.7-3.8,3.8-3.8h8.1c2.1,0,3.8,1.7,3.8,3.8v8.1 C87,63.3,85.3,65,83.2,65z"/><path fill="#C69467" d="M69.2,105h-8.1c-2.1,0-3.8-1.7-3.8-3.8v-8.1c0-2.1,1.7-3.8,3.8-3.8h8.1c2.1,0,3.8,1.7,3.8,3.8v8.1 C73,103.3,71.3,105,69.2,105z"/><path fill="#C69467" d="M77.2,125h-8.1c-2.1,0-3.8-1.7-3.8-3.8v-8.1c0-2.1,1.7-3.8,3.8-3.8h8.1c2.1,0,3.8,1.7,3.8,3.8v8.1 C81,123.3,79.3,125,77.2,125z"/></g><g id="Layer_3"/></svg>