<?xml version="1.0" encoding="utf-8"?><!DOCTYPE svg PUBLIC "-//W3C//DTD SVG 1.1//EN" "http://www.w3.org/Graphics/SVG/1.1/DTD/svg11.dtd"><svg version="1.1" id="Layer_1" xmlns="http://www.w3.org/2000/svg" xmlns:xlink="http://www.w3.org/1999/xlink" x="0px" y="0px" width="150px" height="150px" viewBox="0 0 150 150" enable-background="new 0 0 150 150" xml:space="preserve"><linearGradient id="SVGID_1_" gradientUnits="userSpaceOnUse" x1="75.4332" y1="141.7297" x2="75.4332" y2="8.2703"><stop offset="0.486" style="stop-color:#9FF4FF"/><stop offset="1" style="stop-color:#37D6ED"/></linearGradient><path fill="url(#SVGID_1_)" d="M130.1,141.7H20.8c-6.7,0-12.1-5.4-12.1-12.1V20.3c0-6.7,5.4-12.1,12.1-12.1h109.3	c6.7,0,12.1,5.4,12.1,12.1v109.3C142.2,136.3,136.8,141.7,130.1,141.7z"/><path fill="#7AC70C" d="M8.7,111.6v18.1c0,6.7,5.4,12.1,12.1,12.1h109.3c6.7,0,12.1-5.4,12.1-12.1v-18.1H8.7z"/><rect x="8.7" y="111.6" fill="#C4C4C4" width="133.5" height="11.4"/><path fill="#FFFFFF" d="M108.3,79l-3.9-10.5c-0.7-2.4-2.5-4.5-4.9-5.5L41.4,38.9l-4.6-25L32.3,12l-9.6,23.1l-7.8,0	c-2.5,0-3.7,3-2,4.7l8.9,8.9l0,0c0.8,0.7,1.7,1.4,2.7,1.8l62.5,26l5.8,2.4l10.8,4.5C106.5,84.6,109.4,81.8,108.3,79z"/><path fill="#3D94C4" d="M13,39.9l8.9,8.9l0,0c0.8,0.7,1.7,1.4,2.7,1.8l62.5,26l5.8,2.4l10.8,4.5c2.7,1.1,5.4-1.3,4.7-4.1L12.8,39.6	C12.8,39.7,12.9,39.8,13,39.9z"/><path fill="#8BD0EF" d="M105.3,70.7l-8-3.3c-0.6-0.2-1.2,0-1.4,0.6l-0.5,1.1c-0.2,0.6,0,1.2,0.6,1.4l11,4.5L105.3,70.7z"/><rect x="99.9" y="67.4" transform="matrix(0.9236 0.3834 -0.3834 0.9236 34.785 -33.2253)" fill="#FFFFFF" width="1.7" height="6.6"/><path fill="#EAEAEA" d="M67.6,75.1l-16.7-6.9c-0.7-0.3-1.1-1.1-0.8-1.9l2.6-6.2c0.3-0.7,1.1-1.1,1.9-0.8l16.7,6.9	c0.7,0.3,1.1,1.1,0.8,1.9l-2.6,6.2C69.2,75.1,68.4,75.4,67.6,75.1z"/><polygon fill="#FFFFFF" points="52.9,72.4 47.5,70.1 54.4,53.3 76.9,62.6"/><path fill="#8BD0EF" d="M45.9,50.4L45.9,50.4c-1-0.4-1.5-1.6-1.1-2.7l0.4-0.9c0.4-1,1.6-1.5,2.7-1.1h0c1,0.4,1.5,1.6,1.1,2.7	l-0.4,0.9C48.2,50.3,47,50.8,45.9,50.4z"/><path fill="#8BD0EF" d="M55.2,54.2L55.2,54.2c-1-0.4-1.5-1.6-1.1-2.7l0.4-0.9c0.4-1,1.6-1.5,2.7-1.1h0c1,0.4,1.5,1.6,1.1,2.7	l-0.4,0.9C57.4,54.1,56.2,54.6,55.2,54.2z"/><path fill="#8BD0EF" d="M64.4,58L64.4,58c-1-0.4-1.5-1.6-1.1-2.7l0.4-0.9c0.4-1,1.6-1.5,2.7-1.1h0c1,0.4,1.5,1.6,1.1,2.7l-0.4,0.9	C66.6,58,65.4,58.5,64.4,58z"/><path fill="#8BD0EF" d="M73.6,61.9L73.6,61.9c-1-0.4-1.5-1.6-1.1-2.7l0.4-0.9c0.4-1,1.6-1.5,2.7-1.1l0,0c1,0.4,1.5,1.6,1.1,2.7	l-0.4,0.9C75.9,61.8,74.7,62.3,73.6,61.9z"/><path fill="#8BD0EF" d="M82.9,65.7L82.9,65.7c-1-0.4-1.5-1.6-1.1-2.7l0.4-0.9c0.4-1,1.6-1.5,2.7-1.1v0c1,0.4,1.5,1.6,1.1,2.7	l-0.4,0.9C85.1,65.6,83.9,66.1,82.9,65.7z"/><path fill="#EAEAEA" d="M28.2,44.9l-10.6-4.4c-0.6-0.2-0.9-0.9-0.6-1.5v0c0.2-0.6,0.9-0.9,1.5-0.6l10.6,4.4c0.6,0.2,0.9,0.9,0.6,1.5	v0C29.5,44.9,28.8,45.2,28.2,44.9z"/><circle fill="#5B5B5B" cx="95.4" cy="82.9" r="1.8"/><circle fill="#5B5B5B" cx="46.9" cy="63" r="1.8"/></svg>