<?xml version="1.0" encoding="utf-8"?><!DOCTYPE svg PUBLIC "-//W3C//DTD SVG 1.1//EN" "http://www.w3.org/Graphics/SVG/1.1/DTD/svg11.dtd"><svg version="1.1" xmlns="http://www.w3.org/2000/svg" xmlns:xlink="http://www.w3.org/1999/xlink" x="0px" y="0px" width="150px" height="150px" viewBox="0 0 150 150" enable-background="new 0 0 150 150" xml:space="preserve"><g id="Layer_2" display="none"><rect x="-1190" y="-170" display="inline" fill="#F0F0F0" width="1680" height="1677.3"/></g><g id="Layer_1"><path fill="#81C911" d="M82.8,139.1H67.3c-1.4,0-2.5-1.1-2.5-2.5v-16.3c0-1.4,1.1-2.5,2.5-2.5h15.5c1.4,0,2.5,1.1,2.5,2.5v16.3 C85.3,138,84.2,139.1,82.8,139.1z"/><path fill="#FFB000" d="M87.2,121.5H62.8c-4.2,0-7.7-3.4-7.7-7.7V31.6c0-10.9,8.9-19.8,19.8-19.8h0c10.9,0,19.8,8.9,19.8,19.8v82.3 C94.8,118.1,91.4,121.5,87.2,121.5z"/><path fill="#FFCE00" d="M85.2,61.8h-3.6c-1.5,0-2.7-1.2-2.7-2.7v-2.8c0-1.5,1.2-2.7,2.7-2.7h3.6c1.5,0,2.7,1.2,2.7,2.7v2.8 C87.9,60.6,86.7,61.8,85.2,61.8z"/><path fill="#FFCE00" d="M79.6,72.9H76c-1.5,0-2.7-1.2-2.7-2.7v-2.8c0-1.5,1.2-2.7,2.7-2.7h3.6c1.5,0,2.7,1.2,2.7,2.7v2.8 C82.3,71.7,81.1,72.9,79.6,72.9z"/><path fill="#FFCE00" d="M69,42.3h-3.6c-1.5,0-2.7-1.2-2.7-2.7v-2.8c0-1.5,1.2-2.7,2.7-2.7H69c1.5,0,2.7,1.2,2.7,2.7v2.8 C71.7,41.1,70.5,42.3,69,42.3z"/><path fill="#71B70D" d="M81,120.8L81,120.8c-8.4,3.6-18.1-0.3-21.7-8.6l-21.1-49c-3.6-8.4,0.3-18.1,8.6-21.7l0,0"/><path fill="#71B70D" d="M68.8,120.8L68.8,120.8c8.4,3.6,18.1-0.3,21.7-8.6l21.1-49c3.6-8.4-0.3-18.1-8.6-21.7l0,0"/><path fill="#679B0E" d="M90.9,87.8l-15.9,33.1L59.7,87.8l-11.2,6.6v18.9c0,8.5,6.9,15.4,15.4,15.4h22.4c8.5,0,15.4-6.9,15.4-15.4 v-1.7V90.3L90.9,87.8z"/><path fill="#6AA50E" d="M59.7,87.8H42.4c-4,0-7.2,3.2-7.2,7.2v20.4c0,1.3,1.7,1.9,2.5,0.9L59.7,87.8z"/><path fill="#6AA50E" d="M90.9,87.8h17.5c3.8,0,6.9,3.1,6.9,6.9v20.3c0,1.5-1.8,2.1-2.7,0.9L90.9,87.8z"/></g><g id="Layer_3"/></svg>