<?xml version="1.0" encoding="utf-8"?><!DOCTYPE svg PUBLIC "-//W3C//DTD SVG 1.1//EN" "http://www.w3.org/Graphics/SVG/1.1/DTD/svg11.dtd"><svg version="1.1" xmlns="http://www.w3.org/2000/svg" xmlns:xlink="http://www.w3.org/1999/xlink" x="0px" y="0px" width="150px" height="150px" viewBox="0 0 150 150" enable-background="new 0 0 150 150" xml:space="preserve"><g id="Layer_2" display="none"><rect x="-1190" y="-340" display="inline" fill="#F0F0F0" width="1680" height="1677.3"/></g><g id="Layer_1"><path fill="#FFFFFF" d="M119.5,41.8H54.7c-4.9,0-8.9-4-8.9-8.9v0c0-4.9,4-8.9,8.9-8.9h64.9c4.9,0,8.9,4,8.9,8.9v0 C128.4,37.8,124.4,41.8,119.5,41.8z"/><path fill="#353535" d="M41.6,146v-11.2c0-25.1,20.4-45.5,45.5-45.5h0c25.1,0,45.5,20.4,45.5,45.5V146"/><polygon fill="#D8D8D8" points="107.8,105.2 87.2,134.2 66.7,105.2"/><polygon fill="#CC2F2F" points="97,108.7 87.2,125.6 77.5,108.7"/><path fill="#CC2F2F" d="M91.8,127.8l-2.2-14.5c-0.8,0.5-1.8-1.3-2.9-1.5c-0.4,0-0.8,1.8-1.2,1.6c0,0,0,0-0.1,0 c-0.1-0.1-0.2-0.1-0.3-0.2l-2.3,14.6l4.5,6.4l0,0l0,0L91.8,127.8z"/><path fill="#FFFFFF" d="M109.6,119.2V99.5c0-12.4-10.2-22.6-22.6-22.6h0c-12.4,0-22.6,10.2-22.6,22.6v19.7l22.8-7.4L109.6,119.2z"/><circle fill="#B25C4B" cx="119.5" cy="49.5" r="7.6"/><circle fill="#B25C4B" cx="54.6" cy="49.5" r="7.6"/><path fill="#B25C4B" d="M87.1,106.6L87.1,106.6c-6.9,0-12.5-5.6-12.5-12.5V79c0-6.9,5.6-12.5,12.5-12.5h0c6.9,0,12.5,5.6,12.5,12.5 v15C99.6,101,94,106.6,87.1,106.6z"/><path fill="#BF7358" d="M87,89.6L87,89.6c-18,0-32.5-14.6-32.5-32.5V36.8C54.5,18.8,69,4.3,87,4.3h0c18,0,32.5,14.6,32.5,32.5v20.2 C119.6,75,105,89.6,87,89.6z"/><polygon fill="#BF7358" points="92.4,41.8 92.4,27.5 103.8,41.8"/><circle fill="#A85F48" cx="103.7" cy="41.8" r="4.1"/><circle fill="#A85F48" cx="70.2" cy="41.8" r="4.1"/><rect x="64.2" y="34.6" fill="#BF7358" width="12.4" height="5.6"/><rect x="97.2" y="34.6" fill="#BF7358" width="12.4" height="5.6"/><polygon fill="#B25C4B" points="94.9,103.9 87.1,110.7 79.2,103.9"/><path fill="#FFFFFF" d="M66.1,62.5L66.1,62.5c0-6.5,5.4-11.9,11.9-11.9H96c6.5,0,11.9,5.4,11.9,11.9v0"/><path fill="#B25C4B" d="M90.9,52.5h-7.9c-0.8,0-1.5-0.7-1.5-1.5V39.2c0-0.8,0.7-1.5,1.5-1.5h7.9c0.8,0,1.5,0.7,1.5,1.5V51 C92.4,51.9,91.8,52.5,90.9,52.5z"/><path fill="#B25C4B" d="M50.3,146v-26c0-6.2-5-11.2-11.2-11.2h0c-6.2,0-11.2,5-11.2,11.2v26"/><path fill="#BF7358" d="M47,125.8L47,125.8c2.9,0,5.2-2.3,5.2-5.2v-13.9c0-2.9-2.3-5.2-5.2-5.2h0c-2.9,0-5.2,2.3-5.2,5.2v13.9 C41.8,123.5,44.2,125.8,47,125.8z"/><path fill="#56340F" d="M38.3,145.7L38.3,145.7c-2.5,0-4.5-2-4.5-4.5v-54c0-2.5,2-4.5,4.5-4.5h0c2.5,0,4.5,2,4.5,4.5v54 C42.8,143.6,40.8,145.7,38.3,145.7z"/><rect x="28.7" y="74.2" fill="#FFB600" width="19.1" height="17.4"/><g><path fill="#56340F" d="M28,72.1c-1.2,0-2.1,1-2.1,2.1v0c0-2.5-2.1-4.6-4.6-4.6s-4.6,2.1-4.6,4.6v17.5c0,2.5,2.1,4.6,4.6,4.6 s4.6-2.1,4.6-4.6v0c0,1.2,1,2.1,2.1,2.1s2.1-1,2.1-2.1V74.2C30.1,73,29.2,72.1,28,72.1z"/><path fill="#56340F" d="M54.4,69.5c-2.5,0-4.6,2.1-4.6,4.6v0c0-1.2-1-2.1-2.1-2.1c-1.2,0-2.1,1-2.1,2.1v17.5c0,1.2,1,2.1,2.1,2.1 c1.2,0,2.1-1,2.1-2.1v0c0,2.5,2.1,4.6,4.6,4.6s4.6-2.1,4.6-4.6V74.1C59,71.6,57,69.5,54.4,69.5z"/></g><rect x="31.9" y="74.2" fill="#FFB600" width="12.6" height="17.4"/><path fill="#FFD400" d="M33.8,87.3L33.8,87.3c-1.1,0-1.9-0.9-1.9-1.9V74.2h3.8v11.2C35.7,86.5,34.8,87.3,33.8,87.3z"/><path fill="#56340F" d="M42.9,104.9h-9.1c-0.9,0-1.6-0.7-1.6-1.6v0c0-0.9,0.7-1.6,1.6-1.6h9.1c0.9,0,1.6,0.7,1.6,1.6v0 C44.4,104.2,43.7,104.9,42.9,104.9z"/><path fill="#BF7358" d="M37.3,116.1H27.2c-3,0-5.5-2.5-5.5-5.5v0c0-3,2.5-5.5,5.5-5.5h10.1c3,0,5.5,2.5,5.5,5.5v0 C42.8,113.6,40.3,116.1,37.3,116.1z"/><path fill="#BF7358" d="M37.3,126.7H27.2c-3,0-5.5-2.5-5.5-5.5v0c0-3,2.5-5.5,5.5-5.5h10.1c3,0,5.5,2.5,5.5,5.5v0 C42.8,124.2,40.3,126.7,37.3,126.7z"/><path fill="#BF7358" d="M37.3,137.3H27.2c-3,0-5.5-2.5-5.5-5.5l0,0c0-3,2.5-5.5,5.5-5.5h10.1c3,0,5.5,2.5,5.5,5.5l0,0 C42.8,134.8,40.3,137.3,37.3,137.3z"/></g><g id="Layer_3"/></svg>