<?xml version="1.0" encoding="utf-8"?><!DOCTYPE svg PUBLIC "-//W3C//DTD SVG 1.1//EN" "http://www.w3.org/Graphics/SVG/1.1/DTD/svg11.dtd"><svg version="1.1" id="Layer_1" xmlns="http://www.w3.org/2000/svg" xmlns:xlink="http://www.w3.org/1999/xlink" x="0px" y="0px" width="150px" height="150px" viewBox="0 0 150 150" enable-background="new 0 0 150 150" xml:space="preserve"><path fill="#00BDFF" d="M51.9,100.1c1-3.2,2.8-3.5,5.6-3.1c2,0.6,4.1,1.3,7.3,1.3c13.1,0,19.7-10.9,21.7-22.4h-0.2	c-2.8,3.6-9.3,6.5-16.5,6.5c-14.8,0-24.8-12.2-24.8-26.5c0-15.1,10.6-27.6,26.5-27.6c17,0,31.3,14.1,31.3,37.9	c0,21.8-12.2,45.6-37.2,45.6c-4.8,0-9.6-0.9-12.2-1.8c-2.8-0.9-3.9-3-2.8-5.9L51.9,100.1z M87.5,60.7c0-8.1-6.7-19-15.9-19	c-7.4,0-12.1,5.7-12.1,13.8c0,8,4.9,14.8,15.4,14.8C82,70.3,87.5,66.4,87.5,60.7z"/></svg>