<?xml version="1.0" encoding="utf-8"?><!DOCTYPE svg PUBLIC "-//W3C//DTD SVG 1.1//EN" "http://www.w3.org/Graphics/SVG/1.1/DTD/svg11.dtd"><svg version="1.1" id="Layer_1" xmlns="http://www.w3.org/2000/svg" xmlns:xlink="http://www.w3.org/1999/xlink" x="0px" y="0px" width="150px" height="150px" viewBox="0 0 150 150" enable-background="new 0 0 150 150" xml:space="preserve"><path fill="#739B2D" d="M97.9,139H49.1c-3.3,0-6-2.7-6-6V81.5c0-16.1,13.2-29.3,29.3-29.3h2.3c16.1,0,29.3,13.2,29.3,29.3V133	C104,136.3,101.2,139,97.9,139z"/><rect x="62.9" y="16.3" fill="#739B2D" width="21.3" height="67.5"/><path fill="#739B2D" d="M84.2,21H62.8c-2.2,0-4-1.8-4-4v-0.3c0-2.2,1.8-4,4-4h21.4c2.2,0,4,1.8,4,4V17C88.2,19.2,86.4,21,84.2,21z"/><path fill="#8BB236" d="M53.2,127L53.2,127c-3,0-5.4-2.4-5.4-5.4V83.7c0-3,2.4-5.4,5.4-5.4h0c3,0,5.4,2.4,5.4,5.4v37.9	C58.6,124.6,56.2,127,53.2,127z"/><path fill="#8BB236" d="M62.9,12.7V21c0,0,0,0,0,0h10.7v-8.3L62.9,12.7C62.9,12.7,62.9,12.7,62.9,12.7z"/><path fill="none" stroke="#8BB236" stroke-width="11" stroke-linecap="round" stroke-miterlimit="10" d="M53.2,82.5L53.2,82.5	c0-8.6,4.3-16,10.1-18.2"/><path fill="#68891F" d="M54.8,139h37.4c-2.5-7.9-9.9-13.6-18.7-13.6C64.8,125.4,57.4,131.1,54.8,139z"/></svg>