<?xml version="1.0" encoding="utf-8"?><!DOCTYPE svg PUBLIC "-//W3C//DTD SVG 1.1//EN" "http://www.w3.org/Graphics/SVG/1.1/DTD/svg11.dtd"><svg version="1.1" xmlns="http://www.w3.org/2000/svg" xmlns:xlink="http://www.w3.org/1999/xlink" x="0px" y="0px" width="150px" height="150px" viewBox="0 0 150 150" enable-background="new 0 0 150 150" xml:space="preserve"><g id="Layer_2" display="none"><rect x="-1360" display="inline" fill="#F0F0F0" width="1680" height="1677.3"/></g><g id="Layer_1"><path fill="#FFB000" d="M96.7,67.1H60.5c9.6,0,17.4,7.8,17.4,17.4v2.4v28.6v7.4h13.5c12.5,0,22.7-10.1,22.7-22.7V87.5v-0.6v-2.4 C114.1,74.8,106.3,67.1,96.7,67.1z"/><g><path fill="#FFBC00" d="M123.2,93.6c-21,0-39.5-10.8-50.3-27.2c-1.1,0.1-2.2-0.1-3.4-0.6c-6.4-2.7-15,0.2-21.6,0.7 c-4.4,0.3-9.2,0.2-13.7,1c-0.8,2.1-2.4,3.8-4.5,4.4c15.2,36.7,51.4,62.7,93.5,62.7c11.3,0,20.5-9.2,20.5-20.5 S134.5,93.6,123.2,93.6z"/></g><path fill="#FFB000" d="M143.6,115.2c-10,1.1-72,5.1-95.9-54.3c-8.2-20.4-16.6-30.7-24.1-35.2c-1,2.4-1.5,5-1.5,7.7 c0,55.8,45.4,101.2,101.2,101.2C134.1,134.6,143,126,143.6,115.2z"/><path fill="#FFD833" d="M28.2,67.1C16,67.1,6.1,76.9,6.1,89.1v3.1V93v4.2c0,15.9,12.9,28.7,28.7,28.7H52v-9.4V92.2v-3.1 c0-12.2,9.9-22.1,22.1-22.1H28.2z"/><path fill="#FFE19F" d="M73.3,67.1C66.8,57.4,63,45.9,63,33.4c0-11.3-9.2-20.5-20.5-20.5s-20.5,9.2-20.5,20.5 c0,11.8,2,23.1,5.8,33.7H73.3z"/></g><g id="Layer_3"/></svg>