<?xml version="1.0" encoding="utf-8"?><!DOCTYPE svg PUBLIC "-//W3C//DTD SVG 1.1//EN" "http://www.w3.org/Graphics/SVG/1.1/DTD/svg11.dtd"><svg version="1.1" id="Layer_1" xmlns="http://www.w3.org/2000/svg" xmlns:xlink="http://www.w3.org/1999/xlink" x="0px" y="0px" width="150px" height="150px" viewBox="0 0 150 150" enable-background="new 0 0 150 150" xml:space="preserve"><path fill="#ADADAD" d="M96.9,121.1c-0.2-1.8,0.1-3.6,0.8-5.4c-1.8-6-1.4-15.4,3.3-19L25.6,21.4h0c-7.8,7.8-7.8,20.7,0,28.5	L97,121.3C97,121.2,96.9,121.2,96.9,121.1z"/><path fill="#BCBCBC" d="M124.6,21.4L124.6,21.4L62.5,83.5c0.4-0.1,0.9-0.3,1.4-0.4c2.2-0.5,4.6,0.4,6.1,2c1-0.9,2.2-1.7,3.6-2.3	c1.9-0.8,4.2,0,5.7,1.5c0.1,0,0.1,0,0.2,0c1.3,0.2,2.4,1,3.1,2c1.2,0.5,2.2,1.4,2.9,2.5l39-39C132.5,42.1,132.5,29.2,124.6,21.4z"/><path fill="#0088DB" d="M112.5,118.6c-6,0.6-11.5-3.8-12.1-9.8c-0.4-3.6,1-6.9,3.5-9.2L83.2,78.9c-3.9-3.9-10.4-3.9-14.3,0	c-3.9,3.9-3.9,10.4,0,14.3l29,29c3.9,3.9,10.4,3.9,14.3,0c1.2-1.2,2-2.6,2.5-4.1C114,118.4,113.2,118.5,112.5,118.6z"/><path fill="#0098ED" d="M82,78C78,74,71.6,74,67.6,78L46.2,99.8c1.8,1.7,3,4.1,3.3,6.8c0.6,6-3.8,11.5-9.8,12.1	c-0.3,0-0.7,0.1-1,0.1c0.4,0.6,0.8,1.2,1.3,1.7v0c3.9,3.9,10.4,3.9,14.3,0l27.7-28C85.9,88.4,85.9,81.9,82,78z"/><g><g><path fill="#0098ED" d="M58.2,105.6c-1.1-10.9-10.8-18.8-21.7-17.7s-18.8,10.8-17.7,21.7c1.1,10.9,10.8,18.8,21.7,17.7 C51.4,126.3,59.3,116.5,58.2,105.6z M39.6,118.6c-6,0.6-11.5-3.8-12.1-9.8s3.8-11.5,9.8-12.1s11.5,3.8,12.1,9.8 S45.7,118,39.6,118.6z"/></g></g><g><g><path fill="#0088DB" d="M131.1,105.6c-1.1-10.9-10.8-18.8-21.7-17.7c-10.9,1.1-18.8,10.8-17.7,21.7c1.1,10.9,10.8,18.8,21.7,17.7 C124.3,126.3,132.2,116.5,131.1,105.6z M112.5,118.6c-6,0.6-11.5-3.8-12.1-9.8c-0.6-6,3.8-11.5,9.8-12.1c6-0.6,11.5,3.8,12.1,9.8 S118.5,118,112.5,118.6z"/></g></g><circle fill="#BCBCBC" cx="74.7" cy="84.1" r="4.3"/></svg>