<?xml version="1.0" encoding="utf-8"?><!DOCTYPE svg PUBLIC "-//W3C//DTD SVG 1.1//EN" "http://www.w3.org/Graphics/SVG/1.1/DTD/svg11.dtd"><svg version="1.1" id="Layer_1" xmlns="http://www.w3.org/2000/svg" xmlns:xlink="http://www.w3.org/1999/xlink" x="0px" y="0px" width="150px" height="150px" viewBox="0 0 150 150" enable-background="new 0 0 150 150" xml:space="preserve"><path fill="#3F1D17" d="M110.5,71.1H37.7c-5.4,0-9.8-4.4-9.8-9.8v0c0-5.4,4.4-9.8,9.8-9.8h72.7c5.4,0,9.8,4.4,9.8,9.8v0	C120.2,66.7,115.8,71.1,110.5,71.1z"/><path fill="#3F1D17" d="M105.7,87.4H44.4c-5.4,0-9.8-4.4-9.8-9.8v0c0-5.4,4.4-9.8,9.8-9.8h61.4c5.4,0,9.8,4.4,9.8,9.8v0	C115.5,83,111.1,87.4,105.7,87.4z"/><path fill="#3F1D17" d="M34.6,62.9V44.8C34.6,22.9,52.5,5,74.4,5h0c21.9,0,39.8,17.9,39.8,39.8v18.2"/><g><ellipse fill="#B25C4B" cx="43" cy="54.3" rx="7.9" ry="7.4"/></g><path fill="#1CB0F6" d="M29.9,145.5v-5.7C29.9,115,50,95,74.7,95h0c24.7,0,44.8,20.1,44.8,44.8v5.7"/><path fill="none" stroke="#FFCB6E" stroke-width="1.9467" stroke-miterlimit="10" d="M89,120.3c0,7.8-6.4,14.2-14.2,14.2h0	c-7.8,0-14.2-6.4-14.2-14.2"/><path fill="#FFFFFF" d="M97.2,125.1v-19.6C97.2,93,87,82.8,74.6,82.8h0C62.2,82.8,52,93,52,105.4v19.6l22.8-10.3L97.2,125.1z"/><g><ellipse fill="#B25C4B" cx="106.6" cy="54.3" rx="7.9" ry="7.4"/></g><path fill="#B25C4B" d="M74.8,110.7L74.8,110.7c-6.8,0-12.3-5.5-12.3-12.3V84.2c0-6.8,5.5-12.3,12.3-12.3h0	c6.8,0,12.3,5.5,12.3,12.3v14.2C87.2,105.2,81.7,110.7,74.8,110.7z"/><g><path fill="#BF7358" d="M74.8,94L74.8,94C57.3,94,43,79.8,43,62.3V42.2c0-17.6,14.2-31.8,31.8-31.8h0c17.6,0,31.8,14.2,31.8,31.8 v20.1C106.6,79.8,92.4,94,74.8,94z"/></g><g><circle fill="#A85F48" cx="91.3" cy="47.2" r="4"/></g><g><circle fill="#A85F48" cx="58.4" cy="47.2" r="4"/></g><g><path fill="#B25C4B" d="M78.4,57.5h-7.3c-0.8,0-1.5-0.7-1.5-1.5V44.3c0-0.8,0.7-1.5,1.5-1.5h7.3c0.8,0,1.5,0.7,1.5,1.5V56 C79.9,56.8,79.2,57.5,78.4,57.5z"/></g><g><path fill="#933634" d="M91.3,62.6c0,9.1-7.4,16.5-16.5,16.5l0,0c-9.1,0-16.5-7.4-16.5-16.5H91.3z"/></g><g><path fill="#F2F2F2" d="M59.3,67.9h31.2c0.6-1.7,0.9-3.5,0.9-5.3H58.4C58.4,64.5,58.7,66.3,59.3,67.9z"/></g><path fill="#3F1D17" d="M74.4,5L74.4,5c-19.3,0-35.5,14-39.1,32.3c4.6,3,10,4.8,15.9,4.8c9.8,0,18.4-4.8,23.6-12.2	C80.1,37.2,88.7,42,98.4,42c5.6,0,10.7-1.6,15.1-4.3C110.2,19.2,93.9,5,74.4,5z"/><g><path fill="#AF3F3F" d="M84.1,76.3c-2.2-2.6-5.5-4.2-9.1-4.2l0,0c-3.7,0-7,1.7-9.2,4.3c2.6,1.7,5.7,2.8,9.1,2.8 C78.3,79.1,81.4,78.1,84.1,76.3z"/></g><path fill="#FFCB6E" d="M39.9,66.2L39.9,66.2c-0.9,0-1.7-0.7-1.7-1.7v-5.2c0-0.9,0.8-1.7,1.7-1.7h0c0.9,0,1.7,0.8,1.7,1.7v5.2	C41.5,65.4,40.8,66.2,39.9,66.2z"/><path fill="#FFCB6E" d="M109.9,66.2L109.9,66.2c-0.9,0-1.7-0.7-1.7-1.7v-5.2c0-0.9,0.8-1.7,1.7-1.7h0c0.9,0,1.7,0.8,1.7,1.7v5.2	C111.5,65.4,110.8,66.2,109.9,66.2z"/></svg>