<?xml version="1.0" encoding="utf-8"?><!DOCTYPE svg PUBLIC "-//W3C//DTD SVG 1.1//EN" "http://www.w3.org/Graphics/SVG/1.1/DTD/svg11.dtd"><svg version="1.1" xmlns="http://www.w3.org/2000/svg" xmlns:xlink="http://www.w3.org/1999/xlink" x="0px" y="0px" width="150px" height="150px" viewBox="0 0 150 150" enable-background="new 0 0 150 150" xml:space="preserve"><g id="Layer_2"><rect x="-850" y="-170" fill="#F0F0F0" width="1680" height="1677.3"/></g><g id="Layer_1"><path fill="#95B24D" d="M133.2,126.2H45.4c-0.7,0-1.3-0.6-1.3-1.3V30.8c0-3.1,2.5-5.6,5.6-5.6h79.2c3.1,0,5.6,2.5,5.6,5.6v94.1 C134.5,125.6,133.9,126.2,133.2,126.2z"/><path fill="#AFCC71" d="M128.9,25.1H49.7c-3.1,0-5.6,2.5-5.6,5.6v14.4h90.5V30.8C134.5,27.7,132,25.1,128.9,25.1z"/><path fill="#AFCC71" d="M103,126.2H23.6c-0.7,0-1.3-0.6-1.3-1.3V42.5c0-0.7,0.6-1.3,1.3-1.3H103c0.7,0,1.3,0.6,1.3,1.3v82.4 C104.3,125.6,103.7,126.2,103,126.2z"/><path fill="#4D5932" d="M97.7,106.5H67v-39h28.3c1.4,0,2.4,1.1,2.4,2.4V106.5z"/><circle fill="#FFFFFF" cx="33.1" cy="53.3" r="5.5"/><circle fill="#FFFFFF" cx="49.7" cy="53.3" r="5.5"/><circle fill="#FFFFFF" cx="74.7" cy="53.3" r="5.5"/><circle fill="#FFFFFF" cx="91.4" cy="53.3" r="5.5"/><path fill="#A1B75E" d="M29.6,109.8h65.2l-16-42.4H17.7c-2,0-3.3,2-2.6,3.8L29.6,109.8z"/><path fill="#E5E5E5" d="M63.8,77.3H28.9c-1.4,0-2.5-1.1-2.5-2.5l0,0c0-1.4,1.1-2.5,2.5-2.5h34.9c1.4,0,2.5,1.1,2.5,2.5l0,0 C66.2,76.2,65.1,77.3,63.8,77.3z"/><path fill="#8EA549" d="M95.5,109.6L95.5,109.6c-1.9,0.8-4,0-4.8-1.9L75.3,72.6c-0.8-1.9,0-4,1.9-4.8l0,0c1.9-0.8,4,0,4.8,1.9 l15.4,35.1C98.2,106.6,97.4,108.7,95.5,109.6z"/><path fill="#4D5932" d="M73.4,103.3H41.5c-0.9,0-1.8-0.6-2.1-1.4l-6.2-16.1c-0.6-1.5,0.5-3.1,2.1-3.1h31.9c0.9,0,1.8,0.6,2.1,1.4 l6.2,16.1C76.1,101.7,75,103.3,73.4,103.3z"/><path fill="#95B24D" d="M129.1,66.5L129.1,66.5c-3,0-5.5-2.4-5.5-5.5V30.6c0-3,2.4-5.5,5.5-5.5l0,0c3,0,5.5,2.4,5.5,5.5V61 C134.5,64.1,132.1,66.5,129.1,66.5z"/><path fill="#E5E5E5" d="M49.7,60L49.7,60c-0.8,0-1.5-0.7-1.5-1.5v-7.8c0-0.8,0.7-1.5,1.5-1.5h0c0.8,0,1.5,0.7,1.5,1.5v7.8 C51.2,59.3,50.6,60,49.7,60z"/><path fill="#E5E5E5" d="M33.1,60L33.1,60c-0.8,0-1.5-0.7-1.5-1.5v-7.8c0-0.8,0.7-1.5,1.5-1.5h0c0.8,0,1.5,0.7,1.5,1.5v7.8 C34.6,59.3,33.9,60,33.1,60z"/><path fill="#E5E5E5" d="M74.7,60L74.7,60c-0.8,0-1.5-0.7-1.5-1.5v-7.8c0-0.8,0.7-1.5,1.5-1.5l0,0c0.8,0,1.5,0.7,1.5,1.5v7.8 C76.2,59.3,75.6,60,74.7,60z"/><path fill="#E5E5E5" d="M91.4,60L91.4,60c-0.8,0-1.5-0.7-1.5-1.5v-7.8c0-0.8,0.7-1.5,1.5-1.5l0,0c0.8,0,1.5,0.7,1.5,1.5v7.8 C92.9,59.3,92.2,60,91.4,60z"/><path fill="#CECECE" d="M125.1,45.2H22.4c-1.3,0-2.4-1.1-2.4-2.4v-1.8c0-1.3,1.1-2.4,2.4-2.4h102.7c1.3,0,2.4,1.1,2.4,2.4v1.8 C127.5,44.1,126.4,45.2,125.1,45.2z"/><path fill="#AFAFAF" d="M127.5,42.8v-1.8c0-1.3-1.1-2.4-2.4-2.4h-20.8v6.6h20.8C126.4,45.2,127.5,44.1,127.5,42.8z"/><path fill="#3F3F3F" d="M121.9,38.5H24.6c-0.9,0-1.7-0.8-1.7-1.7l0,0c0-0.9,0.8-1.7,1.7-1.7h97.3c0.9,0,1.7,0.8,1.7,1.7l0,0 C123.6,37.8,122.8,38.5,121.9,38.5z"/></g><g id="Layer_3"/></svg>