<?xml version="1.0" encoding="utf-8"?><!DOCTYPE svg PUBLIC "-//W3C//DTD SVG 1.1//EN" "http://www.w3.org/Graphics/SVG/1.1/DTD/svg11.dtd"><svg version="1.1" id="Layer_1" xmlns="http://www.w3.org/2000/svg" xmlns:xlink="http://www.w3.org/1999/xlink" x="0px" y="0px" width="150px" height="150px" viewBox="0 0 150 150" enable-background="new 0 0 150 150" xml:space="preserve"><path fill="#844535" d="M26.6,148.4v-8.3c0-26.5,21.5-48,48-48h0c26.5,0,48,21.5,48,48v8.3"/><path fill="#F9CE8A" d="M43.2,148.5v-44.6c0-17.2,14.1-31.2,31.2-31.2h0c17.2,0,31.2,14.1,31.2,31.2v44.6"/><rect x="61.5" y="94.4" fill="#B78D4F" width="26.3" height="54"/><polygon fill="#966F3B" points="82.2,115.3 74.6,128.4 67,115.3"/><polygon fill="#966F3B" points="67,148.4 74.6,118 82.2,148.4"/><path fill="#C19752" d="M93.6,121.5v-16.6c0-10.5-8.6-19.1-19.1-19.1h0c-10.5,0-19.1,8.6-19.1,19.1v16.6l19.3-6.2L93.6,121.5z"/><polygon fill="#E8957C" points="84.3,105.9 74.7,115.3 65,105.9"/><path fill="#E8957C" d="M75.3,110.1H74c-6.9,0-12.5-5.6-12.5-12.5V80.5C61.5,73.6,67.1,68,74,68h1.3c6.9,0,12.5,5.6,12.5,12.5v17.1	C87.8,104.5,82.2,110.1,75.3,110.1z"/><g><path fill="#77352C" d="M74.4,78.6L74.4,78.6c-18.9,0-34.3-15.4-34.3-34.3v-7.8c0-18.9,15.4-34.3,34.3-34.3h0 c18.9,0,34.3,15.4,34.3,34.3v7.8C108.6,63.3,93.3,78.6,74.4,78.6z"/></g><g><path fill="#E8957C" d="M74.4,92.1L74.4,92.1c-18.9,0-34.3-15.4-34.3-34.3v-4.3c0-18.9,15.4-34.3,34.3-34.3h0 c18.9,0,34.3,15.4,34.3,34.3v4.3C108.6,76.7,93.3,92.1,74.4,92.1z"/></g><path fill="#D38472" d="M40.1,58.3C40.4,77,55.6,92.1,74.4,92.1l0,0c18.8,0,34-15.1,34.3-33.7H40.1z"/><g><path fill="#B2473B" d="M92.3,58.3c0,9.9-8,17.9-17.9,17.9l0,0c-9.9,0-17.9-8-17.9-17.9H92.3z"/></g><g><path fill="#FFFFFF" d="M57.4,64.1h33.9c0.6-1.8,1-3.8,1-5.8H56.5C56.5,60.4,56.8,62.3,57.4,64.1z"/></g><g><circle fill="#CC7262" cx="56.9" cy="41.8" r="4.3"/></g><g><circle fill="#CC7262" cx="92.1" cy="41.8" r="4.3"/></g><g><path fill="#CC4F46" d="M84.4,73.2c-2.4-2.8-6-4.6-9.9-4.6l0,0c-4,0-7.6,1.8-10,4.6c2.8,1.9,6.3,3,9.9,3 C78.1,76.2,81.6,75.1,84.4,73.2z"/></g><g><rect x="68.9" y="36.2" fill="#E08070" width="11.3" height="16.8"/></g><path fill="#515151" d="M35.5,67.3h-2c-2.5,0-4.6-2-4.6-4.6V51.1c0-2.5,2-4.6,4.6-4.6h2c2.5,0,4.6,2,4.6,4.6v11.6	C40.1,65.2,38,67.3,35.5,67.3z"/><path fill="#515151" d="M115.1,67.3h-3.4c-2.5,0-4.6-2-4.6-4.6V51.1c0-2.5,2-4.6,4.6-4.6h3.4c2.5,0,4.6,2,4.6,4.6v11.6	C119.7,65.2,117.6,67.3,115.1,67.3z"/><path fill="#682E28" d="M40.2,72.5L40.2,72.5c-3.4,0-6.3-2.8-6.3-6.3V47.7c0-3.4,2.8-7.3,6.3-7.3h0"/><path fill="#682E28" d="M108.6,40.4L108.6,40.4c3.4,0,6.3,2.8,6.3,6.3v18.6c0,3.4-2.8,7.3-6.3,7.3h0"/><path fill="#77352C" d="M106,88h0.2c1.3,0,2.4-1.1,2.4-2.4V33.8c0-1.3-1.1-2.4-2.4-2.4H106c-1.3,0-2.4,1.1-2.4,2.4v51.8	C103.6,86.9,104.7,88,106,88z"/><path fill="#77352C" d="M42.5,88h0.2c1.3,0,2.4-1.1,2.4-2.4V33.8c0-1.3-1.1-2.4-2.4-2.4h-0.2c-1.3,0-2.4,1.1-2.4,2.4v51.8	C40.1,86.9,41.1,88,42.5,88z"/><rect x="92.9" y="35.6" fill="#994439" width="16.6" height="8.9"/><rect x="39.3" y="35.6" fill="#994439" width="22.4" height="8.9"/><path fill="#A54D3C" d="M58.2,53.5h-5.5c-5.8,0-10.5-4.7-10.5-10.5v-1.1c0-5.8,4.7-10.5,10.5-10.5h5.5c5.8,0,10.5,4.7,10.5,10.5V43	C68.7,48.8,63.9,53.5,58.2,53.5z"/><path fill="#A54D3C" d="M96.2,53.5h-5.5c-5.8,0-10.5-4.7-10.5-10.5v-1.1c0-5.8,4.7-10.5,10.5-10.5h5.5c5.8,0,10.5,4.7,10.5,10.5V43	C106.7,48.8,102,53.5,96.2,53.5z"/><polygon fill="#A54D3C" points="55.4,31.4 92.9,31.4 90.1,37.1 80.2,41.8 78.6,35.2 73.1,35.5 69.5,37.6 68.6,42.7 59.8,41.9 58.5,36.5"/><path fill="#A54D3C" d="M69,31.4c-0.2,0.6-0.4,1.3-0.4,2v9.3c0-3.2,2.6-5.7,5.7-5.7c3.2,0,5.7,2.6,5.7,5.7v-9.3c0-0.7-0.1-1.3-0.4-2	H69z"/><polygon fill="#844535" points="42.6,127.1 53,127.1 60.1,148.4 40.8,148.4"/><polygon fill="#844535" points="106.3,127.1 95.9,127.1 88.8,148.4 108.1,148.4"/><path fill="#444444" d="M63.1,34.8H57h-1.5h-1.5c-4.2,0-7.7,3.5-7.7,7.7v0c0,4.2,3.5,7.7,7.7,7.7H57c4.2,0,7.7-3.5,7.7-7.7v0v-6.2	C64.6,35.5,64,34.8,63.1,34.8z"/><path fill="#444444" d="M94.8,34.8h-1.5h-1.5h-6.2c-0.8,0-1.5,0.7-1.5,1.5v6.2v0c0,4.2,3.5,7.7,7.7,7.7h3.1c4.2,0,7.7-3.5,7.7-7.7v0	C102.5,38.3,99,34.8,94.8,34.8z"/><path fill="#3A3A3A" d="M51.8,49.9h0.8v-15c-3.6,0.6-6.4,3.8-6.4,7.6v0C46.2,46,48.6,49,51.8,49.9z"/><path fill="#3A3A3A" d="M96.9,49.9H96v-15c3.6,0.6,6.4,3.8,6.4,7.6v0C102.5,46,100.1,49,96.9,49.9z"/><path fill="none" stroke="#7A7A7A" stroke-width="2.1021" stroke-miterlimit="10" d="M94.8,34.8h-1.5h-1.5h-6.2	c-0.8,0-1.5,0.7-1.5,1.5v6.2v0c0,4.2,3.5,7.7,7.7,7.7h3.1c4.2,0,7.7-3.5,7.7-7.7v0C102.5,38.3,99,34.8,94.8,34.8z"/><path fill="none" stroke="#7A7A7A" stroke-width="2.1021" stroke-miterlimit="10" d="M53.9,34.8h1.5H57h6.2c0.8,0,1.5,0.7,1.5,1.5	v6.2v0c0,4.2-3.5,7.7-7.7,7.7h-3.1c-4.2,0-7.7-3.5-7.7-7.7v0C46.2,38.3,49.6,34.8,53.9,34.8z"/></svg>