<?xml version="1.0" encoding="utf-8"?><!DOCTYPE svg PUBLIC "-//W3C//DTD SVG 1.1//EN" "http://www.w3.org/Graphics/SVG/1.1/DTD/svg11.dtd"><svg version="1.1" id="Layer_1" xmlns="http://www.w3.org/2000/svg" xmlns:xlink="http://www.w3.org/1999/xlink" x="0px" y="0px" width="150px" height="150px" viewBox="0 0 150 150" enable-background="new 0 0 150 150" xml:space="preserve"><path fill="#BF7358" d="M130.4,141.4H21.1C14.4,141.4,9,136,9,129.3V20c0-6.7,5.4-12.1,12.1-12.1h109.3c6.7,0,12.1,5.4,12.1,12.1	v109.3C142.5,136,137.1,141.4,130.4,141.4z"/><path fill="#933634" d="M129.7,50c0,30.2-24.5,54.7-54.7,54.7S20.3,80.2,20.3,50"/><path fill="#FFFFFF" d="M23.2,67.5h103.7c1.9-5.5,2.9-11.4,2.9-17.5H20.3C20.3,56.1,21.3,62,23.2,67.5z"/><path fill="#AF3F3F" d="M106.9,94.4C99.4,85.1,88,79.1,75.1,79.1h0c-12.9,0-24.4,6-31.9,15.4c9,6.4,19.9,10.2,31.7,10.2	C86.9,104.7,97.9,100.9,106.9,94.4z"/></svg>