<?xml version="1.0" encoding="utf-8"?><!DOCTYPE svg PUBLIC "-//W3C//DTD SVG 1.1//EN" "http://www.w3.org/Graphics/SVG/1.1/DTD/svg11.dtd"><svg version="1.1" id="Layer_1" xmlns="http://www.w3.org/2000/svg" xmlns:xlink="http://www.w3.org/1999/xlink" x="0px" y="0px" width="150px" height="150px" viewBox="0 0 150 150" enable-background="new 0 0 150 150" xml:space="preserve"><path fill="#88C11A" d="M140.8,85.5l-5.9-0.2c-0.3,0-0.7,0.1-1,0.2l-10.6,6.2c-0.5,0.3-0.8,0.8-0.9,1.3l-1.5,10.4l-4.9,1.9l-1.4-1.3	c-0.6-0.6-1.5-0.7-2.2-0.2l-4.6,3l-5.7-1L94.8,98l-2.9-14.7l1.8-0.3c1-0.2,1.7-1.1,1.5-2.1L94.5,77c-0.1-0.8-0.8-1.4-1.6-1.5	l-11.9-1l-8.1-13.1c-0.2-0.3-0.5-0.6-0.9-0.7l-6-2.3c-0.8-0.3-1.8,0-2.3,0.8l-2.1,3.7L51.3,52.4c-0.3-0.3-0.7-0.5-1.1-0.5l-8.2-1	c-0.4,0-0.7,0-1,0.2l-7,3.5L4.3,45.6c-0.6-0.2-1.3,0-1.7,0.4c-0.5,0.4-0.7,1.1-0.6,1.7l4.2,23.9c0.1,0.4,0.2,0.7,0.5,1l26.7,27	c0.7,0.7,1.8,0.7,2.6,0l4-3.8c0.7-0.7,0.8-1.7,0.2-2.5l-23-28.5l-1.7-8.4l2.7-0.1c1.6,3.6,5.4,12.6,5.8,13.3c0.1,0.3,0.6,1,31.2,34	l-1.7,4.6c-0.3,0.9,0.1,1.9,0.9,2.3l29.5,13.6c0.1,0.1,0.2,0.1,0.4,0.1l19,4.4c0.5,0.1,1.1,0,1.6-0.4l5.8-4.7l11.2,6.5	c0.4,0.2,0.8,0.3,1.2,0.2c0.2,0,0.3-0.1,0.5-0.2c0.5-0.3,0.9-0.8,1-1.4l0.9-7l4.8-2.7c0.4-0.2,0.8-0.7,0.9-1.2c0.1-0.5,0-1-0.3-1.4	l-3.4-5.1l12.8-2.3c0.9-0.2,1.5-0.9,1.5-1.8L141.5,96l1.6-2.7c0.2-0.4,0.3-0.8,0.2-1.3l-0.9-5.1C142.4,86.2,141.6,85.5,140.8,85.5z"/><path fill="#FFFFFF" d="M104.7,46.1c0-16.3-13.2-29.5-29.5-29.5c-16.3,0-29.5,13.2-29.5,29.5c0,9.3,4.3,17.6,11.1,23h-0.1l18.5,18.8	l18.5-18.8h-0.1C100.4,63.7,104.7,55.4,104.7,46.1z"/><circle fill="#FFFFFF" cx="75.2" cy="46.4" r="26.8"/><path fill="#C17134" d="M80.3,47.6c2.2-2.2,2.2-5.8,0-8.1c-2.2-2.2-5.8-2.2-8.1,0l1.8,1.8h-1.6l-1-1l0,0c-0.5-0.5-1.1-0.7-1.8-0.7	c-1.4,0-2.6,1.1-2.6,2.6h3.1c-0.9,2.1-0.5,4.6,1.2,6.2c2.2,2.2,5.8,2.2,8.1,0l-1.4-1.4v-1.6L80.3,47.6z"/><g><path fill="#88C11A" d="M75.2,54.9c-5.6,0-10.2-4.6-10.2-10.2c0-0.4,0.4-0.8,0.8-0.8c0.4,0,0.8,0.4,0.8,0.8c0,4.7,3.9,8.6,8.6,8.6 s8.6-3.9,8.6-8.6c0-0.4,0.4-0.8,0.8-0.8c0.4,0,0.8,0.4,0.8,0.8C85.4,50.3,80.8,54.9,75.2,54.9z"/></g><path fill="#88C11A" d="M63,22.5C54.4,27,48.4,36,48.4,46.4S54.4,65.8,63,70.2V22.5z"/><path fill="#CC2F2F" d="M87.4,22.5v47.7c8.6-4.4,14.6-13.4,14.6-23.8S96.1,27,87.4,22.5z"/><path fill="#7CAA18" d="M35.9,73.7h-0.4c-0.6,0-1-0.5-1-1v-3.2c0-0.6,0.5-1,1-1h0.4c0.6,0,1,0.5,1,1v3.2	C36.9,73.3,36.4,73.7,35.9,73.7z"/><path fill="#7CAA18" d="M39.4,73.7H39c-0.6,0-1-0.5-1-1v-5c0-0.6,0.5-1,1-1h0.4c0.6,0,1,0.5,1,1v5C40.4,73.3,40,73.7,39.4,73.7z"/><path fill="#7CAA18" d="M42.9,73.7h-0.4c-0.6,0-1-0.5-1-1v-2.5c0-0.6,0.5-1,1-1h0.4c0.6,0,1,0.5,1,1v2.5	C43.9,73.3,43.5,73.7,42.9,73.7z"/><path fill="#7CAA18" d="M67.5,110.2H67c-0.6,0-1-0.5-1-1v-3.2c0-0.6,0.5-1,1-1h0.4c0.6,0,1,0.5,1,1v3.2	C68.5,109.7,68,110.2,67.5,110.2z"/><path fill="#7CAA18" d="M71,110.2h-0.4c-0.6,0-1-0.5-1-1v-5c0-0.6,0.5-1,1-1H71c0.6,0,1,0.5,1,1v5C72,109.7,71.5,110.2,71,110.2z"/><path fill="#7CAA18" d="M74.5,110.2h-0.4c-0.6,0-1-0.5-1-1v-2.5c0-0.6,0.5-1,1-1h0.4c0.6,0,1,0.5,1,1v2.5	C75.5,109.7,75.1,110.2,74.5,110.2z"/><path fill="#7CAA18" d="M130.3,96.6H130c-0.5,0-0.8-0.4-0.8-0.8v-2.6c0-0.5,0.4-0.8,0.8-0.8h0.4c0.5,0,0.8,0.4,0.8,0.8v2.6	C131.2,96.2,130.8,96.6,130.3,96.6z"/><path fill="#7CAA18" d="M133.1,96.6h-0.4c-0.5,0-0.8-0.4-0.8-0.8v-4c0-0.5,0.4-0.8,0.8-0.8h0.4c0.5,0,0.8,0.4,0.8,0.8v4	C134,96.2,133.6,96.6,133.1,96.6z"/><path fill="#7CAA18" d="M136,96.6h-0.4c-0.5,0-0.8-0.4-0.8-0.8v-2c0-0.5,0.4-0.8,0.8-0.8h0.4c0.5,0,0.8,0.4,0.8,0.8v2	C136.8,96.2,136.4,96.6,136,96.6z"/></svg>