<?xml version="1.0" encoding="utf-8"?><!DOCTYPE svg PUBLIC "-//W3C//DTD SVG 1.1//EN" "http://www.w3.org/Graphics/SVG/1.1/DTD/svg11.dtd"><svg version="1.1" id="Layer_1" xmlns="http://www.w3.org/2000/svg" xmlns:xlink="http://www.w3.org/1999/xlink" x="0px" y="0px" width="150px" height="150px" viewBox="0 0 150 150" enable-background="new 0 0 150 150" xml:space="preserve"><path fill="#B0E2E0" d="M130.7,142.3H21c-6.7,0-12.1-5.4-12.1-12.1V20.5C9,13.8,14.4,8.4,21,8.4h109.7c6.7,0,12.1,5.4,12.1,12.1	v109.7C142.8,136.9,137.4,142.3,130.7,142.3z"/><path fill="#AF5937" d="M9,131.1c0,6.3,5.1,11.4,11.4,11.4h111c6.3,0,11.4-5.1,11.4-11.4v-0.2H9V131.1z"/><path fill="#A3472B" d="M45.1,134.9H9.6c0.4,1.1,1,2.1,1.7,3.1h33.8c0.8,0,1.5-0.7,1.5-1.5S45.9,134.9,45.1,134.9z"/><path fill="#A3472B" d="M109.8,140.1H78.7c-0.8,0-1.5-0.7-1.5-1.5l0,0c0-0.8,0.7-1.5,1.5-1.5h31.1c0.8,0,1.5,0.7,1.5,1.5l0,0	C111.4,139.4,110.7,140.1,109.8,140.1z"/><path fill="#A3472B" d="M132.5,136.4h-15.6c-0.8,0-1.5-0.7-1.5-1.5l0,0c0-0.8,0.7-1.5,1.5-1.5h15.6c0.8,0,1.5,0.7,1.5,1.5l0,0	C134,135.7,133.3,136.4,132.5,136.4z"/><path fill="#A3472B" d="M72.6,135.8H57c-0.8,0-1.5-0.7-1.5-1.5l0,0c0-0.8,0.7-1.5,1.5-1.5h15.6c0.8,0,1.5,0.7,1.5,1.5l0,0	C74.1,135.2,73.4,135.8,72.6,135.8z"/><rect x="44.2" y="100.8" fill="#95BCB9" width="8.4" height="11.2"/><path fill="none" stroke="#FFFFFF" stroke-width="1.8919" stroke-linecap="round" stroke-linejoin="round" stroke-miterlimit="10" d="M48.5,105.5v3.8c0,7,5.7,12.7,12.7,12.7h0c7,0,12.7-5.7,12.7-12.7v-19"/><polygon fill="#A5A5A5" points="81.3,87 66.7,87 69.5,74.7 78.4,74.7"/><rect x="19.3" y="87" fill="#773924" width="109.1" height="6"/><path fill="#303030" d="M98.2,80.1H49.8c-1.2,0-2.2-1-2.2-2.2V49c0-1.2,1-2.2,2.2-2.2h48.4c1.2,0,2.2,1,2.2,2.2v28.9	C100.4,79.1,99.4,80.1,98.2,80.1z"/><rect x="51.1" y="49.6" fill="#1CB0F6" width="45.7" height="27.2"/><path fill="#FFFFFF" d="M101.6,87c0-2.3,1.9-4.1,4.1-4.1h0c2.3,0,4.1,1.9,4.1,4.1"/><path fill="#C6C6C6" d="M85.3,87H62.4c-0.4,0-0.7-0.3-0.7-0.7V86c0-0.4,0.3-0.7,0.7-0.7h22.9c0.4,0,0.7,0.3,0.7,0.7v0.2	C86,86.6,85.7,87,85.3,87z"/><path fill="#FFFFFF" d="M83.2,71.8H64.7c-1.3,0-2.4-1.1-2.4-2.4V57.1c0-1.3,1.1-2.4,2.4-2.4h18.5c1.3,0,2.4,1.1,2.4,2.4v12.3	C85.7,70.7,84.6,71.8,83.2,71.8z"/><path fill="#D1D1D1" d="M84.6,54.7H63.3c-0.6,0-1,0.5-1,1.1v1.6h23.3v-1.6C85.7,55.2,85.2,54.7,84.6,54.7z"/><circle fill="#CE1300" cx="64.1" cy="56" r="0.7"/><circle fill="#FFE600" cx="66" cy="56" r="0.7"/><circle fill="#54A321" cx="68" cy="56" r="0.7"/><rect x="27.2" y="93" fill="#A5A5A5" width="6.8" height="37.9"/><rect x="22.1" y="128.9" fill="#A5A5A5" width="17" height="1.9"/><rect x="113.9" y="93" fill="#A5A5A5" width="6.8" height="37.9"/><path fill="#54A321" d="M30.1,80.6L30.1,80.6c-0.5,0-1-0.4-1-1V51.8c0-0.5,0.4-1,1-1h0c0.5,0,1,0.4,1,1v27.7	C31,80.1,30.6,80.6,30.1,80.6z"/><rect x="108.8" y="128.9" fill="#A5A5A5" width="17" height="1.9"/><circle fill="#FFFFFF" cx="48.5" cy="105.5" r="2.8"/><polygon fill="#D66243" points="35.8,87 24.5,87 23.6,76.7 36.7,76.7"/><rect x="22.3" y="75.9" fill="#D66243" width="15.6" height="3.5"/><path fill="#54A321" d="M43.2,68.7c0,3-2.4,5.4-5.4,5.4s-5.4-2.4-5.4-5.4"/><path fill="#54A321" d="M28.1,65.9c0,3-2.4,5.4-5.4,5.4s-5.4-2.4-5.4-5.4"/><path fill="#54A321" d="M38.8,61.1c0,2-1.6,3.7-3.7,3.7s-3.7-1.6-3.7-3.7"/><path fill="#54A321" d="M28.4,57.4c0,1.6-1.3,3-3,3c-1.6,0-3-1.3-3-3"/><path fill="#54A321" d="M36.3,53.6c0,1.2-1,2.2-2.2,2.2s-2.2-1-2.2-2.2"/></svg>