<?xml version="1.0" encoding="utf-8"?><!DOCTYPE svg PUBLIC "-//W3C//DTD SVG 1.1//EN" "http://www.w3.org/Graphics/SVG/1.1/DTD/svg11.dtd"><svg version="1.1" id="Layer_1" xmlns="http://www.w3.org/2000/svg" xmlns:xlink="http://www.w3.org/1999/xlink" x="0px" y="0px" width="150px" height="150px" viewBox="0 0 150 150" enable-background="new 0 0 150 150" xml:space="preserve"><rect x="15.6" y="37" fill="#75B70D" width="131.2" height="63"/><rect x="21.4" y="43.1" fill="#99D12F" width="119.2" height="51.3"/><path fill="#7AC70C" d="M81,55.6C70.1,55.6,61.3,66,61.3,79c0,8.2,3.6,15.5,9,19.6h21.4c5.4-4.2,9-11.4,9-19.6	C100.8,66,91.9,55.6,81,55.6z"/><path fill="#75B70D" d="M15.6,55.6c1.8,0.8,3.7,1.3,5.8,1.3c7.6,0,13.8-6.2,13.8-13.8c0-2.2-0.5-4.3-1.5-6.2H15.6V55.6z"/><path fill="#75B70D" d="M127.4,43.1c0,7.6,6.2,13.8,13.8,13.8c2,0,3.9-0.4,5.6-1.2V37h-18C127.9,38.8,127.4,40.9,127.4,43.1z"/><path fill="#7AC70C" d="M21.4,80.2c-2.1,0-4.1,0.5-5.8,1.3V100h18.3c0.9-1.8,1.4-3.8,1.4-5.9C35.2,86.4,29.1,80.2,21.4,80.2z"/><path fill="#75B70D" d="M146.8,81.4c-1.7-0.8-3.6-1.2-5.6-1.2c-7.6,0-13.8,6.2-13.8,13.8c0,2.1,0.5,4.1,1.4,5.9h18.1V81.4z"/><g><path fill="#7AC70C" d="M41.7,66.7c1.9,0,3.4,1.5,3.4,3.4s-1.5,3.4-3.4,3.4c-1.9,0-3.4-1.5-3.4-3.4S39.8,66.7,41.7,66.7 M41.7,62.6 c-4.2,0-7.6,3.4-7.6,7.6c0,4.2,3.4,7.6,7.6,7.6c4.2,0,7.6-3.4,7.6-7.6C49.3,66,45.9,62.6,41.7,62.6L41.7,62.6z"/></g><circle fill="#7AC70C" cx="118.8" cy="70.2" r="7.6"/><rect x="1.8" y="50.7" fill="#7AC70C" width="131.2" height="63"/><rect x="7.7" y="56.9" fill="#9EDB3E" width="119.2" height="51.3"/><path fill="#7AC70C" d="M67.3,69.3c-10.9,0-19.7,10.5-19.7,23.4c0,8.2,3.6,15.5,9,19.6H78c5.4-4.2,9-11.4,9-19.6	C87,79.8,78.2,69.3,67.3,69.3z"/><path fill="#7AC70C" d="M1.8,69.4c1.8,0.8,3.7,1.3,5.8,1.3c7.6,0,13.8-6.2,13.8-13.8c0-2.2-0.5-4.3-1.5-6.2H1.8V69.4z"/><path fill="#7AC70C" d="M113.6,56.9c0,7.6,6.2,13.8,13.8,13.8c2,0,3.9-0.4,5.6-1.2V50.7h-18C114.1,52.6,113.6,54.7,113.6,56.9z"/><path fill="#7AC70C" d="M7.7,94c-2.1,0-4.1,0.5-5.8,1.3v18.4h18.3c0.9-1.8,1.4-3.8,1.4-5.9C21.5,100.2,15.3,94,7.7,94z"/><path fill="#7AC70C" d="M133,95.2c-1.7-0.8-3.6-1.2-5.6-1.2c-7.6,0-13.8,6.2-13.8,13.8c0,2.1,0.5,4.1,1.4,5.9H133V95.2z"/><g><path fill="#7AC70C" d="M28,80.5c1.9,0,3.4,1.5,3.4,3.4s-1.5,3.4-3.4,3.4c-1.9,0-3.4-1.5-3.4-3.4S26.1,80.5,28,80.5 M28,76.3 c-4.2,0-7.6,3.4-7.6,7.6s3.4,7.6,7.6,7.6c4.2,0,7.6-3.4,7.6-7.6S32.2,76.3,28,76.3L28,76.3z"/></g><circle fill="#7AC70C" cx="105.1" cy="83.9" r="7.6"/></svg>