<?xml version="1.0" encoding="utf-8"?><!DOCTYPE svg PUBLIC "-//W3C//DTD SVG 1.1//EN" "http://www.w3.org/Graphics/SVG/1.1/DTD/svg11.dtd"><svg version="1.1" id="Layer_1" xmlns="http://www.w3.org/2000/svg" xmlns:xlink="http://www.w3.org/1999/xlink" x="0px" y="0px" width="150px" height="150px" viewBox="0 0 150 150" enable-background="new 0 0 150 150" xml:space="preserve"><ellipse fill="#FFCE00" cx="89.9" cy="30.8" rx="3.3" ry="3.2"/><ellipse fill="#FFCE00" cx="77.6" cy="43" rx="3.3" ry="3.2"/><ellipse fill="#FFCE00" cx="99.2" cy="65.5" rx="2.7" ry="2.6"/><ellipse fill="#FFCE00" cx="75.3" cy="11.2" rx="1.9" ry="1.9"/><ellipse fill="#FFCE00" cx="72.1" cy="88.9" rx="1.9" ry="1.9"/><ellipse fill="#FFCE00" cx="89.9" cy="56.4" rx="3.3" ry="3.2"/><path fill="#FFBC00" d="M57.9,141.7l32.6-39.8c4.8-5.9,13.9-5.9,18.7,0l32.6,39.8H57.9z"/><ellipse fill="#FFCE00" cx="66.6" cy="68.6" rx="3.3" ry="3.2"/><ellipse fill="#FFCE00" cx="87.9" cy="78.1" rx="3.3" ry="3.2"/><path fill="#FFCE00" d="M8.8,141.7l31.6-54.1c4.6-7.9,16.2-7.9,20.8,0l31.6,54.1H8.8z"/><ellipse fill="#FFBC00" cx="55.3" cy="116.1" rx="1.9" ry="1.9"/><ellipse fill="#FFBC00" cx="53.3" cy="91.2" rx="1.9" ry="1.9"/><ellipse fill="#FFBC00" cx="33.3" cy="128.3" rx="1.9" ry="1.9"/><ellipse fill="#FFBC00" cx="43.2" cy="107.2" rx="1.9" ry="1.9"/><ellipse fill="#FFCE00" cx="106.2" cy="132.6" rx="1.9" ry="1.9"/><ellipse fill="#FFCE00" cx="89" cy="115.6" rx="1.9" ry="1.9"/><ellipse fill="#FFCE00" cx="111.1" cy="118" rx="1.9" ry="1.9"/><ellipse fill="#FFBC00" cx="65.6" cy="130.2" rx="1.9" ry="1.9"/></svg>