<?xml version="1.0" encoding="utf-8"?><!DOCTYPE svg PUBLIC "-//W3C//DTD SVG 1.1//EN" "http://www.w3.org/Graphics/SVG/1.1/DTD/svg11.dtd"><svg version="1.1" id="Layer_1" xmlns="http://www.w3.org/2000/svg" xmlns:xlink="http://www.w3.org/1999/xlink" x="0px" y="0px" width="150px" height="150px" viewBox="0 0 150 150" enable-background="new 0 0 150 150" xml:space="preserve"><g><path fill="#00BDFF" d="M10.2,85.4v-1.1c0-2.2,0.4-3.9,1.7-5.7L42.6,34c1.3-2.1,3-3,5.6-3h8.7c3.1,0,4.7,1.7,4.7,4.7V78h5.6 c3,0,4.7,1.6,4.7,4.6v2.8c0,3-1.3,4.6-3.8,4.6h-6.5v15.8c0,3.1-1.6,4.7-4.7,4.7H52c-3,0-4.6-1.6-4.6-4.7V90H14.8 C11.8,90,10.2,88.4,10.2,85.4z M47.4,78V53.4c0-3.9,0.6-8.3,0.6-8.3h-0.2c0,0-1.8,4.3-3.9,7.3L25.5,77.8V78H47.4z"/><path fill="#00BDFF" d="M77.7,70.6c0-22.8,7.1-41,28.8-41c21.7,0,28.9,18.1,28.9,41s-7.2,41.2-28.9,41.2 C84.7,111.9,77.7,93.5,77.7,70.6z M120.4,70.6c0-15.5-3.1-27.7-14-27.7c-10.9,0-14,12.2-14,27.7c0,15.7,3.1,28,14,28 C117.3,98.6,120.4,86.3,120.4,70.6z"/></g></svg>