<?xml version="1.0" encoding="utf-8"?><!DOCTYPE svg PUBLIC "-//W3C//DTD SVG 1.1//EN" "http://www.w3.org/Graphics/SVG/1.1/DTD/svg11.dtd"><svg version="1.1" id="Layer_1" xmlns="http://www.w3.org/2000/svg" xmlns:xlink="http://www.w3.org/1999/xlink" x="0px" y="0px" width="150px" height="150px" viewBox="0 0 150 150" enable-background="new 0 0 150 150" xml:space="preserve"><path fill="#00BDFF" d="M58,66.3c-5.5-3.9-9.2-8.9-9.2-16.2c0-10.9,8.3-22,25.8-22c15.2,0,26.5,8.5,26.5,21.8	c0,10.4-7.3,18.4-9.1,20.2c6.5,3.9,11.1,9.4,11.1,17.5c0,12.2-10.6,23.9-28.7,23.9c-17.5,0-28.9-11-28.9-24.2	C45.6,75.5,55.4,68.1,58,66.3z M74.6,98.9c7.3,0,13.5-4.7,13.5-11.4c0-7.7-8.5-10.1-20.2-15.4c-2.2,1.9-7.6,6.4-7.6,13.7	C60.3,93.7,66.8,98.9,74.6,98.9z M86.9,51.7c0-6.9-4.8-10.8-12.2-10.8c-7.7,0-11.6,4.2-11.6,9.4c0,7.8,8.8,10.7,18.4,14.8	C82.8,63.3,86.9,58.3,86.9,51.7z"/></svg>