<?xml version="1.0" encoding="utf-8"?><!DOCTYPE svg PUBLIC "-//W3C//DTD SVG 1.1//EN" "http://www.w3.org/Graphics/SVG/1.1/DTD/svg11.dtd"><svg version="1.1" id="Layer_1" xmlns="http://www.w3.org/2000/svg" xmlns:xlink="http://www.w3.org/1999/xlink" x="0px" y="0px" width="150px" height="150px" viewBox="0 0 150 150" enable-background="new 0 0 150 150" xml:space="preserve"><g><path fill="#B7B7B7" d="M41.1,73.8l-13-13c-9-9-9-23.6,0-32.6c9-9,23.6-9,32.6,0l13,13c9,9,9,23.6,0,32.6 C64.7,82.8,50.1,82.8,41.1,73.8z M52.2,36.7c-4.3-4.3-11.3-4.3-15.6,0c-4.3,4.3-4.3,11.3,0,15.6l13,13c4.3,4.3,11.3,4.3,15.6,0 c4.3-4.3,4.3-11.3,0-15.6L52.2,36.7z"/></g><g><path fill="#B7B7B7" d="M87.8,120.5l-13-13c-9-9-9-23.6,0-32.6c9-9,23.6-9,32.6,0l13,13c9,9,9,23.6,0,32.6 C111.4,129.5,96.8,129.5,87.8,120.5z M98.9,83.4c-4.3-4.3-11.3-4.3-15.6,0C79,87.7,79,94.7,83.3,99l13,13c4.3,4.3,11.3,4.3,15.6,0 c4.3-4.3,4.3-11.3,0-15.6L98.9,83.4z"/></g><path fill="#D1D1D1" d="M83.8,94.1L54.8,65.1c-2.8-2.8-2.8-7.4,0-10.2l0,0c2.8-2.8,7.4-2.8,10.2,0L94,83.9c2.8,2.8,2.8,7.4,0,10.2	l0,0C91.2,97,86.6,97,83.8,94.1z"/><path fill="#D1D1D1" d="M35.2,46.1L6.1,17.1c-2.8-2.8-2.8-7.4,0-10.2l0,0c2.8-2.8,7.4-2.8,10.2,0l29.1,29.1c2.8,2.8,2.8,7.4,0,10.2	l0,0C42.6,49,38,49,35.2,46.1z"/><path fill="#D1D1D1" d="M131.2,142.1l-29.1-29.1c-2.8-2.8-2.8-7.4,0-10.2l0,0c2.8-2.8,7.4-2.8,10.2,0l29.1,29.1	c2.8,2.8,2.8,7.4,0,10.2l0,0C138.6,145,134,145,131.2,142.1z"/></svg>