<?xml version="1.0" encoding="utf-8"?><!DOCTYPE svg PUBLIC "-//W3C//DTD SVG 1.1//EN" "http://www.w3.org/Graphics/SVG/1.1/DTD/svg11.dtd"><svg version="1.1" id="Layer_1" xmlns="http://www.w3.org/2000/svg" xmlns:xlink="http://www.w3.org/1999/xlink" x="0px" y="0px" width="150px" height="150px" viewBox="0 0 150 150" enable-background="new 0 0 150 150" xml:space="preserve"><path fill="#B5B5B5" d="M74.8,59.5L74.8,59.5c-10.9,0-19.8-8.9-19.8-19.8V23.7c0-10.9,8.9-19.8,19.8-19.8h0	c10.9,0,19.8,8.9,19.8,19.8v15.9C94.6,50.6,85.7,59.5,74.8,59.5z"/><path fill="#B5B5B5" d="M74.8,144.3L74.8,144.3c-2.6,0-4.8-2.1-4.8-4.8V38.1c0-2.6,2.1-4.8,4.8-4.8h0c2.6,0,4.8,2.1,4.8,4.8v101.4	C79.5,142.1,77.4,144.3,74.8,144.3z"/><path fill="none" stroke="#DBDBDB" stroke-width="5.0397" stroke-linecap="round" stroke-linejoin="round" stroke-miterlimit="10" d="M83.3,16.4c-4.7-4.7-12.4-4.7-17.1,0l0,0"/><path fill="#B5B5B5" d="M74.8,144.3L74.8,144.3c-5.2,0-9.4-4.2-9.4-9.4v-26.2c0-5.2,4.2-9.4,9.4-9.4h0c5.2,0,9.4,4.2,9.4,9.4v26.2	C84.2,140,79.9,144.3,74.8,144.3z"/></svg>