<?xml version="1.0" encoding="utf-8"?><!DOCTYPE svg PUBLIC "-//W3C//DTD SVG 1.1//EN" "http://www.w3.org/Graphics/SVG/1.1/DTD/svg11.dtd"><svg version="1.1" id="Layer_1" xmlns="http://www.w3.org/2000/svg" xmlns:xlink="http://www.w3.org/1999/xlink" x="0px" y="0px" width="150px" height="150px" viewBox="0 0 150 150" enable-background="new 0 0 150 150" xml:space="preserve"><linearGradient id="SVGID_1_" gradientUnits="userSpaceOnUse" x1="75.4776" y1="139.1037" x2="75.4776" y2="9.6292"><stop offset="0" style="stop-color:#B3F6E3"/><stop offset="1" style="stop-color:#3CCFFF"/></linearGradient><path fill="url(#SVGID_1_)" d="M128.2,139.1H22.8c-6.7,0-12.1-5.4-12.1-12.1V21.7c0-6.7,5.4-12.1,12.1-12.1h105.4	c6.7,0,12.1,5.4,12.1,12.1V127C140.2,133.7,134.8,139.1,128.2,139.1z"/><path fill="#FFB600" d="M140.2,54.9l-15.5-17.7L35.3,139.1h94.2c5.9,0,10.7-4.5,10.7-10.1V54.9z"/><path fill="#FFCE00" d="M140.2,128.4v-37L74.5,24.6L10.7,94.1v34.3c0,5.9,4.8,10.7,10.7,10.7h108	C135.4,139.1,140.2,134.3,140.2,128.4z"/><path fill="#B28E50" d="M20.8,132.7V87.4H10.7v40.9c0,1.5,0.3,3,0.9,4.3H20.8z"/><rect x="30.8" y="87.4" fill="#B28E50" width="10.4" height="45.2"/><rect x="10.7" y="79.3" fill="#A07C47" width="53.6" height="8.1"/><rect x="51" y="87.4" fill="#B28E50" width="10.4" height="45.2"/><polygon fill="#B28E50" points="10.7,80 68.4,80 25.6,59.5 10.7,66.7"/><polygon fill="#A07C47" points="10.7,76.9 52.7,76.9 25.6,64 10.7,71.1"/><path fill="#B28E50" d="M14.8,136.8H67v-4.9H11.4C12,133.9,13.2,135.5,14.8,136.8z"/><path fill="#B28E50" d="M20.7,139.1h50.1v-3.6H13.2C15.1,137.6,17.7,138.9,20.7,139.1z"/><path fill="#B28E50" d="M21.6,87.4H10.7v3.5h10.8c0.8,0,1.4-0.6,1.4-1.4v-0.6C23,88.1,22.4,87.4,21.6,87.4z"/><path fill="#B28E50" d="M41.7,90.9H30.2c-0.9,0-1.6-0.7-1.6-1.6v-0.3c0-0.9,0.7-1.6,1.6-1.6h11.5c0.9,0,1.6,0.7,1.6,1.6v0.3	C43.3,90.2,42.6,90.9,41.7,90.9z"/><path fill="#B28E50" d="M62,90.9H50.5c-0.9,0-1.6-0.7-1.6-1.6v-0.3c0-0.9,0.7-1.6,1.6-1.6H62c0.9,0,1.6,0.7,1.6,1.6v0.3	C63.6,90.2,62.8,90.9,62,90.9z"/><g><path fill="#9E9E9E" d="M43.4,139.1v-14.9c0-6.1,5.4-11,12-11h38.1c6.6,0,12,5,12,11v14.9"/><path fill="#ADADAD" d="M74.8,133.6L74.8,133.6c-11,0-19.9-8.9-19.9-19.9v-53c0-6.2,5-11.1,11.1-11.1h17.6c6.2,0,11.1,5,11.1,11.1 v53C94.7,124.7,85.8,133.6,74.8,133.6z"/><path fill="#919191" d="M86.3,69.7H62.4c-1.8,0-3.4-1.5-3.4-3.4v0c0-1.8,1.5-3.4,3.4-3.4h23.9c1.8,0,3.4,1.5,3.4,3.4v0 C89.7,68.2,88.2,69.7,86.3,69.7z"/><path fill="#919191" d="M80.7,105H68.8c-0.9,0-1.6-0.7-1.6-1.6v0c0-0.9,0.7-1.6,1.6-1.6h11.9c0.9,0,1.6,0.7,1.6,1.6v0 C82.3,104.3,81.6,105,80.7,105z"/><path fill="#BCBCBC" d="M81,91.6H68.5V68.9c0-1.8,1.4-3.2,3.2-3.2h6.1c1.8,0,3.2,1.4,3.2,3.2V91.6z"/><path fill="#ADADAD" d="M54.6,105.3L54.6,105.3c-2.5,0-4.5-2-4.5-4.5V78.2c0-2.5,2-4.5,4.5-4.5h0c2.5,0,4.5,2,4.5,4.5v22.7 C59.1,103.3,57,105.3,54.6,105.3z"/><path fill="#ADADAD" d="M94.4,105.3L94.4,105.3c-2.5,0-4.5-2-4.5-4.5V78.2c0-2.5,2-4.5,4.5-4.5h0c2.5,0,4.5,2,4.5,4.5v22.7 C98.9,103.3,96.9,105.3,94.4,105.3z"/><path fill="#BCBCBC" d="M80.8,96.3H68.5c-1.5,0-2.7-1.2-2.7-2.7v0c0-1.5,1.2-2.7,2.7-2.7h12.3c1.5,0,2.7,1.2,2.7,2.7v0 C83.6,95.1,82.3,96.3,80.8,96.3z"/></g><rect x="117.1" y="102.2" fill="#FFB600" width="17" height="7.4"/><rect x="107.5" y="91.6" fill="#FFB600" width="17" height="7.4"/></svg>