<?xml version="1.0" encoding="utf-8"?><!DOCTYPE svg PUBLIC "-//W3C//DTD SVG 1.1//EN" "http://www.w3.org/Graphics/SVG/1.1/DTD/svg11.dtd"><svg version="1.1" id="Layer_1" xmlns="http://www.w3.org/2000/svg" xmlns:xlink="http://www.w3.org/1999/xlink" x="0px" y="0px" width="150px" height="150px" viewBox="0 0 150 150" enable-background="new 0 0 150 150" xml:space="preserve"><path fill="#6B6B6B" d="M40,148v-8.4c0-26.7,21.7-48.4,48.4-48.4h0c26.7,0,48.4,21.7,48.4,48.4v8.4"/><path fill="#7F7F7F" d="M61.8,148v-45c0-14.5,11.8-26.3,26.3-26.3h0c14.5,0,26.3,11.8,26.3,26.3v45"/><path fill="#AA4F3A" d="M122.8,42.8H55c-6.5,0-11.8-5.3-11.8-11.8v0c0-6.5,5.3-11.8,11.8-11.8h67.8c6.5,0,11.8,5.3,11.8,11.8v0	C134.6,37.5,129.3,42.8,122.8,42.8z"/><g><ellipse fill="#FF9D8A" cx="54.9" cy="50.7" rx="8.4" ry="7.9"/></g><path fill="#FFFFFF" d="M109.7,124v-18.4c0-11.6-9.5-21.1-21.1-21.1h0c-11.6,0-21.1,9.5-21.1,21.1V124l21.3-6.9L109.7,124z"/><path fill="#E08070" d="M88.9,69.5c-7.6,0-13.8,6-13.8,13.4v16c0,7.4,6.2,13.4,13.8,13.4s13.8-6,13.8-13.4v-16	C102.6,75.6,96.4,69.5,88.9,69.5z"/><polygon fill="#E08070" points="97.5,109.4 88.9,116.8 80.2,109.4"/><g><ellipse fill="#FF9D8A" cx="122.8" cy="50.7" rx="8.4" ry="7.9"/></g><g><path fill="#FFB5A1" d="M88.9,93.1L88.9,93.1c-18.7,0-33.9-15.2-33.9-33.9V36.2c0-18.7,15.2-33.9,33.9-33.9h0 c18.7,0,33.9,15.2,33.9,33.9v22.9C122.8,77.9,107.6,93.1,88.9,93.1z"/></g><path fill="#8C382A" d="M103.5,71.8H74c-5.7,0-10.4-4.7-10.4-10.4v0C63.6,55.7,68.3,51,74,51h29.5c5.7,0,10.4,4.7,10.4,10.4v0	C114,67.1,109.3,71.8,103.5,71.8z"/><path fill="#AA4F3A" d="M88.9,102.9L88.9,102.9c-18.7,0-33.9-15.2-33.9-33.9v-7.5h67.9v7.5C122.8,87.7,107.6,102.9,88.9,102.9z"/><g><rect x="83.3" y="41.4" fill="#FF9D8A" width="11" height="15.3"/></g><g><path fill="#CC7262" d="M75.4,42.2c0,2.3-1.9,4.2-4.2,4.2S67,44.5,67,42.2"/></g><g><path fill="#CC7262" d="M110.5,42.2c0,2.3-1.9,4.2-4.2,4.2c-2.3,0-4.2-1.9-4.2-4.2"/></g><path fill="#FFC5B8" d="M93.3,19.2H84c-1.3,0-2.3-1-2.3-2.3v0c0-1.3,1-2.3,2.3-2.3h9.4c1.3,0,2.3,1,2.3,2.3v0	C95.7,18.2,94.6,19.2,93.3,19.2z"/><rect x="71.5" y="116.8" fill="#FFFFFF" width="34.2" height="31.2"/><polygon fill="#4F4F4F" points="71.5,122.4 88.8,148 105.8,122.9 105.8,148 71.5,148"/><g><path fill="#661818" d="M106.4,59.3c0,9.8-7.9,17.7-17.7,17.7l0,0c-9.8,0-17.7-7.9-17.7-17.7H106.4z"/></g><g><path fill="#FFFFFF" d="M71.9,65h33.6c0.6-1.8,0.9-3.7,0.9-5.7H70.9C70.9,61.3,71.3,63.2,71.9,65z"/></g><g><path fill="#842020" d="M98.6,73.9c-2.4-2.8-5.9-4.5-9.8-4.5l0,0c-4,0-7.5,1.8-9.9,4.6c2.8,1.9,6.2,3,9.8,3 C92.3,77,95.8,75.9,98.6,73.9z"/></g><path fill="#D33131" d="M74.5,108.8l16.3,8.7c1.4,0.8,1.4,2.8,0,3.5l-16.3,8.7c-1.3,0.7-2.9-0.3-2.9-1.8v-17.4	C71.5,109.1,73.1,108.1,74.5,108.8z"/><path fill="#D33131" d="M103,108.8l-16.3,8.7c-1.4,0.8-1.4,2.8,0,3.5l16.3,8.7c1.3,0.7,2.9-0.3,2.9-1.8v-17.4	C106,109.1,104.4,108.1,103,108.8z"/><circle fill="#E2E2E2" cx="88.9" cy="128.6" r="2.2"/><circle fill="#E2E2E2" cx="88.9" cy="139" r="2.2"/><circle opacity="0.28" fill="#FFFFFF" cx="71.2" cy="42.2" r="10.2"/><path fill="none" stroke="#68443C" stroke-width="2.3076" stroke-linecap="round" stroke-linejoin="round" stroke-miterlimit="10" d="M83.1,46.1c0-3.1,2.6-5.7,5.7-5.7h0c3.1,0,5.7,2.6,5.7,5.7"/><circle fill="none" stroke="#68443C" stroke-width="2.3076" stroke-linecap="round" stroke-linejoin="round" stroke-miterlimit="10" cx="71.2" cy="42.2" r="10.1"/><circle opacity="0.28" fill="#FFFFFF" cx="106.3" cy="42.2" r="10.2"/><circle fill="none" stroke="#68443C" stroke-width="2.3076" stroke-linecap="round" stroke-linejoin="round" stroke-miterlimit="10" cx="106.3" cy="42.2" r="10.1"/><line fill="none" stroke="#68443C" stroke-width="2.3076" stroke-linecap="round" stroke-linejoin="round" stroke-miterlimit="10" x1="52.5" y1="42.5" x2="60.4" y2="42.5"/><line fill="none" stroke="#68443C" stroke-width="2.3076" stroke-linecap="round" stroke-linejoin="round" stroke-miterlimit="10" x1="117" y1="42.5" x2="124.9" y2="42.5"/><rect x="18.6" y="116.6" fill="#FF9D8A" width="25.5" height="31.3"/><rect x="18.6" y="138.6" fill="#6B6B6B" width="25.9" height="9.5"/><rect x="18.6" y="129.1" fill="#FFFFFF" width="25.5" height="9.5"/><path fill="#AD6A27" d="M26.9,142.8L26.9,142.8c-1.6,0-2.9-1.3-2.9-2.9V7.9C24,6.3,25.3,5,26.9,5h0c1.6,0,2.9,1.3,2.9,2.9v132	C29.8,141.5,28.5,142.8,26.9,142.8z"/><path fill="#FFB5A1" d="M33,135.8H18.9c-2.8,0-5.2-2.3-5.2-5.2l0,0c0-2.8,2.3-5.2,5.2-5.2H33c2.8,0,5.2,2.3,5.2,5.2l0,0	C38.1,133.5,35.8,135.8,33,135.8z"/><path fill="#FF9D8A" d="M38,123h-0.5c-3.4,0-6.1-2.8-6.1-6.1v-0.5c0-3.4,2.8-6.1,6.1-6.1H38c3.4,0,6.1,2.8,6.1,6.1v0.5	C44.1,120.2,41.3,123,38,123z"/><path fill="#FFB5A1" d="M33,117.1H18.9c-2.8,0-5.2-2.3-5.2-5.2v0c0-2.8,2.3-5.2,5.2-5.2H33c2.8,0,5.2,2.3,5.2,5.2v0	C38.1,114.8,35.8,117.1,33,117.1z"/><path fill="#FFB5A1" d="M33,126.4H18.9c-2.8,0-5.2-2.3-5.2-5.2v0c0-2.8,2.3-5.2,5.2-5.2H33c2.8,0,5.2,2.3,5.2,5.2v0	C38.1,124.1,35.8,126.4,33,126.4z"/></svg>