<?xml version="1.0" encoding="utf-8"?><!DOCTYPE svg PUBLIC "-//W3C//DTD SVG 1.1//EN" "http://www.w3.org/Graphics/SVG/1.1/DTD/svg11.dtd"><svg version="1.1" id="Layer_1" xmlns="http://www.w3.org/2000/svg" xmlns:xlink="http://www.w3.org/1999/xlink" x="0px" y="0px" width="150px" height="150px" viewBox="0 0 150 150" enable-background="new 0 0 150 150" xml:space="preserve"><path fill="#88C11A" d="M125.9,67.9l-4.3-4.8l-1-13.5c0-0.4-0.2-0.8-0.5-1.1l-5.3-5.7l2.8-13.7c0.2-0.7-0.2-1.5-0.9-1.9l-2.4-1.4	l-2.3-5.9c-0.3-0.7-0.9-1.1-1.6-1.1h-7.9l-4.8-4.7c-0.7-0.7-1.8-0.7-2.4,0L86,23.4h-4.7L82,18c0.1-0.5-0.1-1-0.4-1.4	c-0.3-0.4-0.8-0.6-1.3-0.6h-6.8l-1.1-6.5c-0.1-0.8-0.8-1.4-1.6-1.5l-12.1-1c-0.6,0-1.1,0.2-1.5,0.7c-0.4,0.5-0.5,1.1-0.3,1.6	l1.9,6.1v7.8l-3.2,3.5l-4.8,3.6l-4.4-2.8c-0.4-0.3-0.9-0.3-1.4-0.2l-5.2,1.4c-0.5,0.1-0.8,0.4-1.1,0.8c-0.2,0.4-0.3,0.9-0.2,1.3	l2,7.2l-3.2,4.4c-0.3,0.5-0.4,1-0.2,1.6l1.2,3.8l-3.7,7.5l-9,1.4c-0.6,0.1-1,0.4-1.3,0.9s-0.3,1.1,0,1.6l3.7,7.7l-3.5,4.3	c-0.3,0.4-0.4,0.9-0.4,1.4l3,18.5v8c0,0.2,0,0.4,0.1,0.6l1.7,5c0.2,0.5,0.6,0.9,1.1,1.1l17.4,6.1l-4.5,5c-0.2,0.2-0.3,0.5-0.4,0.8	l-2.9,13.9c-0.1,0.7,0.1,1.4,0.7,1.8l5.5,3.7c0.6,0.4,1.3,0.4,1.9,0l6-3.7l4.1,2.4c0.8,0.5,1.7,0.3,2.3-0.4l0.8-1l10.1,8.7	c0.3,0.3,0.7,0.4,1.1,0.4c0.4,0,0.9-0.2,1.2-0.5l3.8-3.5c0.2-0.2,0.3-0.4,0.4-0.6l2.2,0.9c0.3,0.1,0.7,0.2,1,0.1l16.4-3.3l7.6,1.9	c0.8,0.2,1.7-0.2,2.1-1l1.3-3.2c0.2-0.6,0.1-1.3-0.3-1.8l-4.5-5.5l11.1-12c0.3-0.4,0.5-0.8,0.5-1.3c0-0.5-0.3-0.9-0.7-1.2	l-14.7-11.4l0.2-0.4c0.3-0.5,0.4-1,0.2-1.5l-2.1-5.8L96.1,89L118,78.1l2.9,1c0.9,0.3,1.9-0.2,2.2-1.1l3.1-8.4	C126.5,69.1,126.4,68.4,125.9,67.9z"/><path fill="#FFFFFF" d="M105.4,52.1c0-16.2-13.2-29.4-29.4-29.4c-16.2,0-29.4,13.2-29.4,29.4c0,9.3,4.3,17.6,11.1,23h-0.1L76,93.8	l18.4-18.7h-0.1C101.1,69.7,105.4,61.4,105.4,52.1z"/><circle fill="#D33131" cx="76" cy="51.8" r="26.8"/><path fill="#FFC200" d="M76,78.6c11.7,0,21.7-7.5,25.3-18H50.7C54.3,71.1,64.3,78.6,76,78.6z"/><path fill="#2D2D2D" d="M50.8,42.8h50.5C97.6,32.5,87.7,25,76,25S54.5,32.5,50.8,42.8z"/><path fill="#7CAA18" d="M84.1,113.6h-0.5c-0.6,0-1-0.5-1-1v-3.4c0-0.6,0.5-1,1-1h0.5c0.6,0,1,0.5,1,1v3.4	C85.2,113.1,84.7,113.6,84.1,113.6z"/><path fill="#7CAA18" d="M87.8,113.6h-0.5c-0.6,0-1-0.5-1-1v-5.3c0-0.6,0.5-1,1-1h0.5c0.6,0,1,0.5,1,1v5.3	C88.8,113.1,88.4,113.6,87.8,113.6z"/><path fill="#7CAA18" d="M91.5,113.6h-0.5c-0.6,0-1-0.5-1-1v-2.7c0-0.6,0.5-1,1-1h0.5c0.6,0,1,0.5,1,1v2.7	C92.5,113.1,92,113.6,91.5,113.6z"/><path fill="#7CAA18" d="M48.3,92.4h-0.5c-0.6,0-1-0.5-1-1V88c0-0.6,0.5-1,1-1h0.5c0.6,0,1,0.5,1,1v3.4C49.3,92,48.8,92.4,48.3,92.4z"/><path fill="#7CAA18" d="M51.9,92.4h-0.5c-0.6,0-1-0.5-1-1v-5.3c0-0.6,0.5-1,1-1h0.5c0.6,0,1,0.5,1,1v5.3C53,92,52.5,92.4,51.9,92.4z"/><path fill="#7CAA18" d="M55.6,92.4H55c-0.6,0-1-0.5-1-1v-2.7c0-0.6,0.5-1,1-1h0.5c0.6,0,1,0.5,1,1v2.7C56.6,92,56.1,92.4,55.6,92.4z"/><path fill="#7CAA18" d="M53.9,124.9h-0.5c-0.6,0-1-0.5-1-1v-3.4c0-0.6,0.5-1,1-1h0.5c0.6,0,1,0.5,1,1v3.4	C54.9,124.5,54.4,124.9,53.9,124.9z"/><path fill="#7CAA18" d="M57.5,124.9H57c-0.6,0-1-0.5-1-1v-5.3c0-0.6,0.5-1,1-1h0.5c0.6,0,1,0.5,1,1v5.3	C58.5,124.5,58.1,124.9,57.5,124.9z"/><path fill="#7CAA18" d="M61.2,124.9h-0.5c-0.6,0-1-0.5-1-1v-2.7c0-0.6,0.5-1,1-1h0.5c0.6,0,1,0.5,1,1v2.7	C62.2,124.5,61.7,124.9,61.2,124.9z"/></svg>