<?xml version="1.0" encoding="utf-8"?><!DOCTYPE svg PUBLIC "-//W3C//DTD SVG 1.1//EN" "http://www.w3.org/Graphics/SVG/1.1/DTD/svg11.dtd"><svg version="1.1" id="Layer_1" xmlns="http://www.w3.org/2000/svg" xmlns:xlink="http://www.w3.org/1999/xlink" x="0px" y="0px" width="150px" height="150px" viewBox="0 0 150 150" enable-background="new 0 0 150 150" xml:space="preserve"><rect x="86.6" y="87.6" fill="#96EDE0" width="9.8" height="13.1"/><rect x="86.6" y="110.6" fill="#96EDE0" width="9.8" height="13.1"/><rect x="86.6" y="64.6" fill="#96EDE0" width="9.8" height="13.1"/><rect x="61.1" y="17.9" fill="#9B9B9B" width="35.2" height="87.7"/><rect x="65" y="9.6" fill="#9B9B9B" width="27.4" height="68.2"/><rect x="56.6" y="26.6" fill="#A5A5A5" width="44.3" height="110.2"/><rect x="29.3" y="56.7" fill="#B5B5B5" width="44.3" height="80.1"/><rect x="83.9" y="34.6" fill="#96EDE0" width="9.8" height="13.1"/><rect x="63.9" y="34.6" fill="#96EDE0" width="9.8" height="13.1"/><rect x="83.9" y="57.6" fill="#96EDE0" width="9.8" height="13.1"/><rect x="83.9" y="81" fill="#96EDE0" width="9.8" height="13.1"/><rect x="83.9" y="104.4" fill="#96EDE0" width="9.8" height="13.1"/><rect x="34.1" y="64.6" fill="#96EDE0" width="34.7" height="4.8"/><rect x="87.3" y="85.8" fill="#A5826A" width="44.3" height="51"/><rect x="34.1" y="75.5" fill="#96EDE0" width="34.7" height="4.8"/><rect x="34.1" y="86.5" fill="#96EDE0" width="34.7" height="4.8"/><rect x="117.3" y="91.8" fill="#96EDE0" width="8.2" height="10.5"/><rect x="105.4" y="91.8" fill="#96EDE0" width="8.2" height="10.5"/><rect x="93.6" y="91.8" fill="#96EDE0" width="8.2" height="10.5"/><rect x="117.3" y="109.8" fill="#96EDE0" width="8.2" height="10.5"/><rect x="105.4" y="109.8" fill="#96EDE0" width="8.2" height="10.5"/><rect x="93.6" y="109.8" fill="#96EDE0" width="8.2" height="10.5"/><rect x="34.1" y="97.5" fill="#96EDE0" width="34.7" height="4.8"/><rect x="34.1" y="108.5" fill="#96EDE0" width="34.7" height="4.8"/><rect x="34.1" y="119.5" fill="#96EDE0" width="34.7" height="4.8"/><g><path fill="#B25A4B" d="M31.8,131.8v-3.5c1.3,0,2.4-1.1,2.4-2.4v-8.2h3.5v8.2C37.6,129.2,35,131.8,31.8,131.8z"/></g><path fill="#B25A4B" d="M32.4,136.8h-4.9v-27.1c0-1.3,1.1-2.5,2.5-2.5h0c1.3,0,2.5,1.1,2.5,2.5V136.8z"/><path fill="#60960B" d="M29.8,123L29.8,123c-8-0.3-14.2-7.1-13.9-15.1l0.3-7.5c0.3-8,7.1-14.2,15.1-13.9h0c8,0.3,14.2,7.1,13.9,15.1	l-0.3,7.5C44.5,117.1,37.8,123.4,29.8,123z"/><rect x="115.6" y="77" fill="#A5826A" width="12.3" height="10.5"/><path fill="#91674A" d="M131.8,86.5H87.5c-0.9,0-1.6-0.7-1.6-1.6l0,0c0-0.9,0.7-1.6,1.6-1.6h44.3c0.9,0,1.6,0.7,1.6,1.6l0,0	C133.4,85.8,132.7,86.5,131.8,86.5z"/></svg>