<?xml version="1.0" encoding="utf-8"?><!DOCTYPE svg PUBLIC "-//W3C//DTD SVG 1.1//EN" "http://www.w3.org/Graphics/SVG/1.1/DTD/svg11.dtd"><svg version="1.1" id="Layer_1" xmlns="http://www.w3.org/2000/svg" xmlns:xlink="http://www.w3.org/1999/xlink" x="0px" y="0px" width="150px" height="150px" viewBox="0 0 150 150" enable-background="new 0 0 150 150" xml:space="preserve"><path fill="#A55F38" d="M67.6,24.7c-3.8,0.6-7.5,1.2-11.1,1.8c-5.5,0.9-10.8,2.3-16.1,3.7v89.2c0,13.8,11.3,25,25,25h0	c13.8,0,25-11.3,25-25V24.3C82.9,24.8,75.2,24.7,67.6,24.7z"/><path fill="#A55F38" d="M89.6,146.6L89.6,146.6c-11.7,0-21.2-9.5-21.2-21.2V48.6c0-11.7,9.5-21.2,21.2-21.2h0	c11.7,0,21.2,9.5,21.2,21.2v76.8C110.7,137.2,101.2,146.6,89.6,146.6z"/><path fill="#FFFFFF" d="M35.7,147.4v-6.9c0-22.1,17.9-39.9,39.9-39.9h0c22.1,0,39.9,17.9,39.9,39.9v6.9"/><path fill="#14BBE2" d="M38.4,126h74.4c-1.5-3.9-3.6-7.5-6.3-10.7H44.7C42.1,118.5,40,122.1,38.4,126z"/><path fill="#14BBE2" d="M113.9,137.2H35.7c-0.1,1.2-0.2,2.5-0.2,3.7v6.8H114V141C114,139.7,114,138.5,113.9,137.2z"/><path fill="#93502E" d="M75.4,70.9L75.4,70.9c-5.9,0-10.6-4.8-10.6-10.6V20c0-5.9,4.8-10.6,10.6-10.6h0C81.2,9.4,86,14.2,86,20	l0,40.3C86,66.1,81.2,70.9,75.4,70.9z"/><path fill="#FFAB8D" d="M75.7,77.7c-6.8,0-12.3,5.4-12.3,12v14.4c0,6.6,5.5,12,12.3,12c6.8,0,12.3-5.4,12.3-12V89.7	C88.1,83.1,82.5,77.7,75.7,77.7z"/><path fill="#A55F38" d="M40.5,92.4v49c15.3,0,27.7-12.5,27.7-27.7V92.4H40.5z"/><g><ellipse fill="#FFAB8D" cx="43.9" cy="59.9" rx="7.9" ry="7.4"/></g><g><ellipse fill="#FFAB8D" cx="107.2" cy="60.1" rx="7.9" ry="7.4"/></g><g><path fill="#FFBEA4" d="M75.5,99.1L75.5,99.1c-17.5,0-31.6-14.2-31.6-31.6V50.2c0-17.5,14.2-31.6,31.6-31.6h0 c17.5,0,31.6,14.2,31.6,31.6v17.2C107.2,84.9,93,99.1,75.5,99.1z"/></g><g><path fill="#B2473B" d="M92.1,67.9c0,9.1-7.4,16.5-16.5,16.5l0,0c-9.1,0-16.5-7.4-16.5-16.5H92.1z"/></g><g><path fill="#FFFFFF" d="M59.9,73.3h31.3c0.6-1.7,0.9-3.5,0.9-5.3H59C59,69.8,59.3,71.6,59.9,73.3z"/></g><g><path fill="#CC4F46" d="M84.8,81.6c-2.2-2.6-5.5-4.2-9.2-4.2l0,0c-3.7,0-7,1.7-9.2,4.3c2.6,1.7,5.8,2.8,9.2,2.8 C79,84.5,82.2,83.4,84.8,81.6z"/></g><g><circle fill="#E89C85" cx="59.5" cy="52.6" r="3.9"/></g><g><circle fill="#E89C85" cx="92.1" cy="52.6" r="3.9"/></g><g><rect x="70.3" y="48.8" fill="#FFAB8D" width="10.7" height="14.1"/></g><path fill="#353535" d="M77.9,7.7H59.2C46.4,7.7,36,18.1,36,30.9v0h0v7.5c0,7.9,6.5,14.4,14.4,14.4h0c7.9,0,14.4-6.5,14.4-14.4V38	c0.2-4,3.5-7.1,7.5-7.1h28.8v0C101.1,18.1,90.7,7.7,77.9,7.7z"/><path fill="#353535" d="M68.4,12.6L68.4,12.6c-1.3,0-2.3-1-2.3-2.3V3.2c0-1.3,1-2.3,2.3-2.3h0c1.3,0,2.3,1,2.3,2.3v7.1	C70.7,11.6,69.7,12.6,68.4,12.6z"/><path fill="#EFA759" d="M84.3,145.4c4.5,0,8.2-3.7,8.2-8.2v-0.1c0-2.2,1.8-4,4-4c2.2,0,4,1.8,4,4v7.4c0,1.1,0.1,2.2,0.4,3.3h27.5	c0.3-1.1,0.4-2.2,0.4-3.3v-20.7v-1.2c0-1.1-0.1-2.1-0.4-3.1c-2.1-12.4-12.9-21.9-25.9-21.9c-14.5,0-26.3,11.8-26.3,26.3	c0,0.1,0,0.1,0,0.2c0,0,0,0.1,0,0.1v13.1C76.1,141.7,79.8,145.4,84.3,145.4z"/><rect x="18.6" y="118.6" fill="#FFAB8D" width="23.8" height="29.2"/><path fill="#56340F" d="M25.8,147.8L25.8,147.8c-2.3,0-4.3-1.9-4.3-4.3l0-50.9c0-2.3,1.9-4.3,4.3-4.3h0c2.3,0,4.3,1.9,4.3,4.3v50.9	C30.1,145.9,28.2,147.8,25.8,147.8z"/><path fill="#FFBEA4" d="M32,136.1H18.8c-2.6,0-4.8-2.2-4.8-4.8v0c0-2.6,2.2-4.8,4.8-4.8H32c2.6,0,4.8,2.2,4.8,4.8v0	C36.8,133.9,34.6,136.1,32,136.1z"/><path fill="#FFBEA4" d="M36.4,124.6L36.4,124.6c-3.3,0-5.9-2.7-5.9-5.9v0c0-3.3,2.7-5.9,5.9-5.9h0c3.3,0,5.9,2.7,5.9,5.9v0	C42.4,121.9,39.7,124.6,36.4,124.6z"/><path fill="#FFBEA4" d="M32,119.1H18.8c-2.6,0-4.8-2.2-4.8-4.8v0c0-2.6,2.2-4.8,4.8-4.8H32c2.6,0,4.8,2.2,4.8,4.8v0	C36.8,116.9,34.6,119.1,32,119.1z"/><path fill="#3D3D3D" d="M20.3,84.7c3,3,7.9,3,10.9,0c3-3,3-7.9,0-10.9l-5.5-5.5l-5.5,5.5C17.3,76.8,17.3,81.7,20.3,84.7z"/><circle fill="#0098ED" cx="90.4" cy="117.6" r="6.6"/><circle fill="#FFCE00" cx="115" cy="117.6" r="6.6"/><circle fill="#0098ED" cx="98.2" cy="111" r="2.1"/><circle fill="#CC2F2F" cx="107.5" cy="139.1" r="2.1"/><circle fill="#FFCE00" cx="118.9" cy="121.9" r="3.7"/><path fill="#FFBEA4" d="M32,127.8H18.8c-2.6,0-4.8-2.2-4.8-4.8v0c0-2.6,2.2-4.8,4.8-4.8H32c2.6,0,4.8,2.2,4.8,4.8v0	C36.8,125.6,34.6,127.8,32,127.8z"/><path fill="#FFBEA4" d="M129,145.8h-0.8c-2.6,0-4.8-2.2-4.8-4.8v0c0-2.6,2.2-4.8,4.8-4.8h0.8c2.6,0,4.8,2.2,4.8,4.8v0	C133.8,143.6,131.7,145.8,129,145.8z"/><path fill="#FFBEA4" d="M129,128.8h-0.8c-2.6,0-4.8-2.2-4.8-4.8v0c0-2.6,2.2-4.8,4.8-4.8h0.8c2.6,0,4.8,2.2,4.8,4.8v0	C133.8,126.6,131.7,128.8,129,128.8z"/><path fill="#FFBEA4" d="M129,137.5h-0.8c-2.6,0-4.8-2.2-4.8-4.8v0c0-2.6,2.2-4.8,4.8-4.8h0.8c2.6,0,4.8,2.2,4.8,4.8v0	C133.8,135.4,131.7,137.5,129,137.5z"/><rect x="20.8" y="85.6" fill="#BCBCBC" width="10.1" height="12.2"/><path opacity="0.4" fill="#FFFFFF" d="M23.6,93.6L23.6,93.6c-0.7,0-1.3-0.6-1.3-1.3v-6.7h2.6v6.7C24.9,93,24.3,93.6,23.6,93.6z"/><path fill="#CC2F2F" d="M111,147.8h8.1c0.2-0.2,0.4-0.4,0.7-0.6c2.6-2.6,2.6-6.8,0-9.4c-2.6-2.6-6.8-2.6-9.4,0	c-2.6,2.6-2.6,6.8,0,9.4C110.5,147.4,110.7,147.6,111,147.8z"/></svg>