<?xml version="1.0" encoding="utf-8"?><!DOCTYPE svg PUBLIC "-//W3C//DTD SVG 1.1//EN" "http://www.w3.org/Graphics/SVG/1.1/DTD/svg11.dtd"><svg version="1.1" id="Layer_1" xmlns="http://www.w3.org/2000/svg" xmlns:xlink="http://www.w3.org/1999/xlink" x="0px" y="0px" width="150px" height="150px" viewBox="0 0 150 150" enable-background="new 0 0 150 150" xml:space="preserve"><g><path fill="#FFAA00" d="M102.7,0.7v2.1c0,9.6-7.8,17.4-17.4,17.4S67.8,12.5,67.8,2.9v-2c-22.2,7.4-38.3,28.4-38.3,53v31.9h111.8 V53.9C141.3,29.2,125,8.1,102.7,0.7z"/><path fill="#FFFFFF" d="M94.3,17.7c-2.7,1.6-5.8,2.6-9.1,2.6c-3.3,0-6.4-0.9-9-2.6c-16.1,4.1-28.1,18.8-28.1,36.1v66.3h74.6V53.9 C122.7,36.5,110.6,21.7,94.3,17.7z"/><path fill="#FFAA00" d="M85.2,27.7c12.9,0,23.5-10.6,23.5-23.5v-1c-2-0.9-4-1.7-6.1-2.4v2.1c0,9.6-7.8,17.4-17.4,17.4 S67.8,12.5,67.8,2.9v-2c-2.1,0.7-4.1,1.5-6.1,2.4v0.9C61.7,17.1,72.3,27.7,85.2,27.7z"/><g><path fill="#1980BA" d="M10.1,26v123.2h27.1V64.5c0-2.6,2.1-4.7,4.7-4.7c2.6,0,4.7,2.1,4.7,4.7v84.7h27.1V26H10.1z"/><rect x="8.2" y="140.1" fill="#60BAE2" width="30.8" height="9"/><rect x="45.1" y="140.1" fill="#60BAE2" width="30.8" height="9"/><path fill="#1E6BA5" d="M57.1,32.8c0,9.2,7.4,16.6,16.6,16.6V32.8H57.1z"/><path fill="#1E6BA5" d="M10.1,49.5c9.2,0,16.6-7.4,16.6-16.6H10.1V49.5z"/><path fill="#1C91C4" d="M36.4,32.8V48c0,6,4.9,11,11,11V32.8H36.4z"/><circle fill="#FFCE00" cx="41.9" cy="38.7" r="4.3"/><path fill="#1C92C6" d="M66.1,106.9l2-2c0.4-0.4,0.4-0.9,0-1.3c-0.4-0.4-0.9-0.4-1.3,0l-2,2l-3.2-3.2l2-2c0.4-0.4,0.4-0.9,0-1.3 s-0.9-0.4-1.3,0l-2,2l-2-2c-0.4-0.4-0.9-0.4-1.3,0s-0.4,0.9,0,1.3l2,2l-3.2,3.2l-2-2c-0.4-0.4-0.9-0.4-1.3,0 c-0.4,0.4-0.4,0.9,0,1.3l2,2l-2,2c-0.4,0.4-0.4,0.9,0,1.3c0.2,0.2,0.4,0.3,0.6,0.3s0.5-0.1,0.6-0.3l2-2l3.2,3.2l-2,2 c-0.4,0.4-0.4,0.9,0,1.3c0.2,0.2,0.4,0.3,0.6,0.3s0.5-0.1,0.6-0.3l2-2l2,2c0.2,0.2,0.4,0.3,0.6,0.3s0.5-0.1,0.6-0.3 c0.4-0.4,0.4-0.9,0-1.3l-2-2l3.2-3.2l2,2c0.2,0.2,0.4,0.3,0.6,0.3c0.2,0,0.5-0.1,0.6-0.3c0.4-0.4,0.4-0.9,0-1.3L66.1,106.9z M60.4,110l-3.2-3.2l3.2-3.2l3.2,3.2L60.4,110z"/></g><g><g><path fill="#6D362F" d="M85.9,129.5c0.9,0,1.6-0.7,1.6-1.6v-5.9c0-3.1,2.5-5.6,5.6-5.6c0.9,0,1.6-0.7,1.6-1.6 c0-0.9-0.7-1.6-1.6-1.6c-4.8,0-8.8,3.9-8.8,8.8v5.9C84.3,128.7,85,129.5,85.9,129.5z"/></g><path fill="#844438" d="M101.8,100.8c-4.4,0-8.1,3.6-8.1,8.1v11.3c0,4.4,3.6,8.1,8.1,8.1c4.4,0,8.1-3.6,8.1-8.1v-11.3 C109.9,104.4,106.2,100.8,101.8,100.8z"/><rect x="66.9" y="124.9" fill="#934F3D" width="45.6" height="20.4"/><path fill="#934F3D" d="M51.6,145.2v-9.5c0-5.9,4.8-10.7,10.7-10.7h11.3c5.9,0,10.7,4.8,10.7,10.7v9.5"/><ellipse fill="#F2F2F2" cx="117.2" cy="133.4" rx="3.2" ry="6.6"/><path fill="#B75D4F" d="M70.1,131.1h-7.5c-1.2,0-2.2-1-2.2-2.2l0,0c0-1.2,1-2.2,2.2-2.2h7.5c1.2,0,2.2,1,2.2,2.2l0,0 C72.3,130.1,71.3,131.1,70.1,131.1z"/><rect x="106" y="107.8" fill="#934F3D" width="17" height="37.2"/><path fill="none" stroke="#F2F2F2" stroke-width="3.6241" stroke-linecap="round" stroke-linejoin="round" stroke-miterlimit="10" d="M119.9,138.7"/><g><path fill="#6D362F" d="M119.4,129.5c-0.9,0-1.6-0.7-1.6-1.6v-5.9c0-3.1-2.5-5.6-5.6-5.6c-0.9,0-1.6-0.7-1.6-1.6 c0-0.9,0.7-1.6,1.6-1.6c4.8,0,8.8,3.9,8.8,8.8v5.9C121,128.7,120.3,129.5,119.4,129.5z"/></g><rect x="91.1" y="108.8" fill="#934F3D" width="5.2" height="26.2"/><path fill="#6D362F" d="M106.5,122l-12-5.9c-0.9-0.4-1.2-1.5-0.8-2.3l0,0c0.4-0.9,1.5-1.2,2.3-0.8l12,5.9c0.9,0.4,1.2,1.5,0.8,2.3 l0,0C108.4,122,107.4,122.4,106.5,122z"/><path fill="#6D362F" d="M96,122l12-5.9c0.9-0.4,1.2-1.5,0.8-2.3l0,0c-0.4-0.9-1.5-1.2-2.3-0.8l-12,5.9c-0.9,0.4-1.2,1.5-0.8,2.3 l0,0C94.1,122,95.2,122.4,96,122z"/><path fill="#353535" d="M123,149.3H51.6c-1.3,0-2.3-1-2.3-2.3l0,0c0-1.3,1-2.3,2.3-2.3H123c1.3,0,2.3,1,2.3,2.3l0,0 C125.3,148.2,124.2,149.3,123,149.3z"/></g><polygon fill="#FFAA00" points="95.3,58.8 87.7,58.9 87.7,42.2 73.6,62.8 81.1,62.7 81.1,79.4"/></g></svg>