<?xml version="1.0" encoding="utf-8"?><!DOCTYPE svg PUBLIC "-//W3C//DTD SVG 1.1//EN" "http://www.w3.org/Graphics/SVG/1.1/DTD/svg11.dtd"><svg version="1.1" id="Layer_1" xmlns="http://www.w3.org/2000/svg" xmlns:xlink="http://www.w3.org/1999/xlink" x="0px" y="0px" width="150px" height="150px" viewBox="0 0 150 150" enable-background="new 0 0 150 150" xml:space="preserve"><rect x="78.7" y="36.7" fill="#2199DB" width="7.8" height="15"/><path fill="#B26938" d="M33,33.7c-3,0-5.5,2.5-5.5,5.5v99.7h11V39.2C38.5,36.2,36.1,33.7,33,33.7z"/><path fill="#FFCE00" d="M24,24.6l7.8-16.1c0.4-0.8,1.5-0.8,1.8,0l7.8,16.1c0.2,0.4,0.1,0.9-0.3,1.2l-7.8,6.4c-0.4,0.3-0.9,0.3-1.3,0	l-7.8-6.4C23.9,25.5,23.8,25,24,24.6z"/><path fill="#1CB0F6" d="M82.6,32.8h-3.8h-7.5H41.6v65.8h37.3V48.5h3.8c-1.9,0-3.4-1.3-3.8-3.1v-1.7c0.4-1.8,2-3.1,3.8-3.1h-0.1	c2.2,0,3.9-1.8,3.9-3.9v0C86.5,34.6,84.8,32.8,82.6,32.8z"/><path fill="#1FC0FF" d="M82.7,48.5c-2.2,0-3.9-1.8-3.9-3.9v3.9v60.9c0,1.5,1.2,2.7,2.7,2.7h47V48.5H82.7z"/><rect x="26" y="32.8" fill="#1CB0F6" width="15.6" height="10.9"/><rect x="26" y="60.3" fill="#1CB0F6" width="15.6" height="10.9"/><rect x="26" y="87.8" fill="#1CB0F6" width="15.6" height="10.9"/><path fill="#FFB600" d="M31.9,8.5L24,24.6c-0.2,0.4-0.1,0.9,0.3,1.2l7.8,6.4c0.2,0.2,0.4,0.2,0.6,0.2V8C32.4,8,32.1,8.2,31.9,8.5z"/></svg>