<?xml version="1.0" encoding="utf-8"?><!DOCTYPE svg PUBLIC "-//W3C//DTD SVG 1.1//EN" "http://www.w3.org/Graphics/SVG/1.1/DTD/svg11.dtd"><svg version="1.1" id="Layer_1" xmlns="http://www.w3.org/2000/svg" xmlns:xlink="http://www.w3.org/1999/xlink" x="0px" y="0px" width="150px" height="150px" viewBox="0 0 150 150" enable-background="new 0 0 150 150" xml:space="preserve"><path fill="#4F2816" d="M125,49.9L125,49.9c-2.6,0-4.8-2.1-4.8-4.8V29c0-2.6,2.1-4.8,4.8-4.8h0c2.6,0,4.8,2.1,4.8,4.8v16	C129.8,47.7,127.7,49.9,125,49.9z"/><path fill="#CEBFBA" d="M124,29.9V24c0-2.6-2.1-4.8-4.8-4.8c-1.9,0-3.5,1.1-4.3,2.7c-3.3-7.7-10.9-13-19.7-13h-9.9	c-9.7,0-17.5,7.8-17.5,17.5v27.9c-0.1,0.1-0.2,0.2-0.3,0.3L32.3,89.8c-11.2,11.2-11.2,29.3,0,40.5h0c11.2,11.2,29.3,11.2,40.5,0	l18.8-18.8v19.4v0c0,5.3,4.3,9.6,9.6,9.6h9.5c5.3,0,9.6-4.3,9.6-9.6v0c0-5.3-4.2-9.5-9.5-9.5V91.9c0.1-0.2,0.3-0.3,0.4-0.5	c3.4-3.8,5.6-8.8,5.6-14.4V62c9.6-4.9,16.2-14.9,16.2-26.4v-5.7H124z"/><path fill="#9B4E2C" d="M89.4,75.9L67.8,54.3L32.3,89.8c-3.6,3.6-6,7.9-7.3,12.4h-0.5c-4.6,0-8.3,3.7-8.3,8.3s3.7,8.3,8.3,8.3h0.8	c1.3,4.2,3.7,8.1,7,11.5v0c11.2,11.2,29.3,11.2,40.5,0l16.7-16.7C99.9,103.2,99.9,86.3,89.4,75.9z"/><path fill="#9B4E2C" d="M106.3,36.7L106.3,36.7c-3.8,3.8-9.9,3.8-13.7,0l0,0c-3.8-3.8-3.8-9.9,0-13.7l0,0c3.8-3.8,9.9-3.8,13.7,0	l0,0C110.1,26.8,110.1,32.9,106.3,36.7z"/><path fill="#A85231" d="M82,121.3h-0.5c1.3-3.3,2-7,2-10.8c0-16.5-13.3-29.8-29.8-29.8s-29.8,13.3-29.8,29.8	c0,13.9,9.6,25.6,22.5,28.9c1.3,0.6,2.7,1,4.2,1H82c5.3,0,9.5-4.3,9.5-9.5v0C91.6,125.6,87.3,121.3,82,121.3z"/><path fill="#4F2816" d="M106.1,27.3c0,2.1-1.7,3.8-3.8,3.8c-2.1,0-3.8-1.7-3.8-3.8"/><path fill="#9B4E2C" d="M83.2,8.9H69.4c-0.9,0-1.6,0.7-1.6,1.6v15c0,1.4,1.8,2.1,2.7,1.1l13.7-15C85.3,10.5,84.5,8.9,83.2,8.9z"/><circle fill="#8E7369" cx="129.9" cy="36.6" r="1.4"/><circle fill="#8E7369" cx="126.4" cy="33.2" r="1.4"/></svg>