<?xml version="1.0" encoding="utf-8"?><!DOCTYPE svg PUBLIC "-//W3C//DTD SVG 1.1//EN" "http://www.w3.org/Graphics/SVG/1.1/DTD/svg11.dtd"><svg version="1.1" id="Layer_1" xmlns="http://www.w3.org/2000/svg" xmlns:xlink="http://www.w3.org/1999/xlink" x="0px" y="0px" width="150px" height="150px" viewBox="0 0 150 150" enable-background="new 0 0 150 150" xml:space="preserve"><g><path fill="#C6C6C6" d="M73.6,83.2c1.5-0.3,2.5-1.6,2.5-3.1l0-11.1c0-5.8,4.7-10.6,10.5-10.6c1.3,0,2.6-0.7,3-2 c0.7-2.1-0.8-4.1-2.9-4.1C77.5,52.2,70,59.7,70,69v11.3C70,82.1,71.7,83.6,73.6,83.2z"/></g><path fill="#66A00B" d="M103.3,28.7c-8.5,0-15.4,6.9-15.4,15.4v21.5c0,8.5,6.9,15.4,15.4,15.4c8.5,0,15.4-6.9,15.4-15.4V44.1	C118.7,35.6,111.8,28.7,103.3,28.7z"/><rect x="36.9" y="74.6" fill="#7AC70C" width="86.8" height="38.7"/><path fill="#C6C6C6" d="M7.9,113.2V95.1c0-11.2,9.2-20.4,20.4-20.4h21.5c11.2,0,20.4,9.2,20.4,20.4v18.1"/><path fill="#F2F2F2" d="M43,86.5H28.7c-2.3,0-4.2-1.9-4.2-4.2v0c0-2.3,1.9-4.2,4.2-4.2H43c2.3,0,4.2,1.9,4.2,4.2v0	C47.2,84.6,45.3,86.5,43,86.5z"/><rect x="111.3" y="44.1" fill="#7AC70C" width="32.3" height="70.8"/><path fill="none" stroke="#F2F2F2" stroke-width="6.8941" stroke-linecap="round" stroke-linejoin="round" stroke-miterlimit="10" d="M137.8,100.9"/><g><path fill="#F2F2F2" d="M136.9,83.3c-1.7,0-3-1.4-3-3V69c0-5.9-4.8-10.6-10.6-10.6c-1.7,0-3-1.4-3-3s1.4-3,3-3 c9.2,0,16.7,7.5,16.7,16.7v11.3C139.9,81.9,138.6,83.3,136.9,83.3z"/></g><rect x="83" y="44.1" fill="#7AC70C" width="10" height="49.9"/><path fill="#F2F2F2" d="M112.3,69.1L89.5,57.8C87.9,57,87.2,55,88,53.4v0c0.8-1.6,2.8-2.3,4.4-1.5l22.8,11.3	c1.6,0.8,2.3,2.8,1.5,4.4v0C115.9,69.2,114,69.9,112.3,69.1z"/><path fill="#F2F2F2" d="M92.4,69.1l22.8-11.3c1.6-0.8,2.3-2.8,1.5-4.4v0c-0.8-1.6-2.8-2.3-4.4-1.5L89.5,63.2	C87.9,64,87.2,66,88,67.6v0C88.8,69.2,90.8,69.9,92.4,69.1z"/><path fill="#AAAAAA" d="M143.7,122.4H7.6c-2.8,0-5.1-2.3-5.1-5.1v0c0-2.8,2.3-5.1,5.1-5.1h136.1c2.8,0,5.1,2.3,5.1,5.1v0	C148.8,120.1,146.5,122.4,143.7,122.4z"/></svg>