<svg id="Layer_1" data-name="Layer 1" xmlns="http://www.w3.org/2000/svg" width="150" height="150" viewBox="0 0 150 150"><defs><style>.cls-1 { fill: #d5d5d5; } .cls-11, .cls-2 { fill: none; } .cls-2 { stroke: #969696; stroke-width: 3px; } .cls-3 { fill: #fdb39f; } .cls-4 { fill: #d33131; } .cls-5 { fill: #f0f0f0; } .cls-6 { fill: #1980ba; } .cls-7 { fill: #1e6ba5; } .cls-8 { fill: #ff9d8a; } .cls-9 { fill: #6d3a23; } .cls-10 { fill: #6b1d1d; opacity: 0.21; } .cls-11 { stroke: #b2b2b2; stroke-linecap: round; stroke-linejoin: round; stroke-width: 0.93px; } .cls-12 { fill: #93502e; } .cls-13 { fill: #e83d3c; } .cls-14 { fill: #ffb5a1; } .cls-15 { fill: #a55f38; } .cls-16 { fill: #60bae2; } .cls-17 { fill: #f4aa9b; } .cls-18 { fill: #840e0b; } .cls-19 { fill: #fff; } .cls-20 { fill: #ea9486; } .cls-21 { fill: #d68a69; } .cls-22 { fill: #edb198; } .cls-23 { fill: #bf7055; } .cls-24 { fill: #e53838; } .cls-25 { fill: #199bce; } .cls-26 { fill: #fa0; } .cls-27 { fill: #ffc715; } .cls-28 { fill: #bc2e2e; } .cls-29 { fill: #1c1c1c; } .cls-30 { fill: #1fb6e5; } .cls-31 { fill: #1c92c6; } .cls-32 { fill: #8549ba; } .cls-33 { fill: #ff8500; } .cls-34 { fill: #231f20; } .cls-35 { fill: #3c3c3c; }</style></defs><title>chat_.Suspects_numbers</title><g><path class="cls-1" d="M137.47,0H12.53A12.53,12.53,0,0,0,0,12.51v125A12.53,12.53,0,0,0,12.53,150H137.47A12.53,12.53,0,0,0,150,137.49v-125A12.53,12.53,0,0,0,137.47,0Z"/><line class="cls-2" y1="24.16" x2="150" y2="24.16"/><line class="cls-2" y1="45.96" x2="150" y2="45.96"/><line class="cls-2" y1="67.76" x2="150" y2="67.76"/><line class="cls-2" y1="89.55" x2="150" y2="89.55"/><g><path class="cls-3" d="M62.07,86.7v56.72H72.91V97.48a1.86,1.86,0,0,1,3.72,0v45.94H87.47V86.7Z"/><path class="cls-4" d="M95.5,63.88A20.73,20.73,0,0,0,74.77,43.15h0A20.73,20.73,0,0,0,54,63.88h7v18A1.09,1.09,0,0,0,62.13,83H87.38a1.09,1.09,0,0,0,1.09-1.09v-18Z"/><circle class="cls-5" cx="74.86" cy="60.85" r="1.18"/><circle class="cls-5" cx="74.86" cy="73.51" r="1.18"/><path class="cls-6" d="M62.07,86.7v25.67H72.91V97.48a1.86,1.86,0,0,1,3.72,0v14.89H87.47V86.7Z"/><path class="cls-7" d="M80.84,86.88a6.63,6.63,0,0,0,6.63,6.63V86.88Z"/><path class="cls-7" d="M62.07,93.51a6.63,6.63,0,0,0,6.63-6.63H62.07Z"/><rect class="cls-8" x="58.71" y="143.42" width="14.97" height="1.37"/><rect class="cls-8" x="75.89" y="143.42" width="14.97" height="1.37"/><rect class="cls-9" x="62.07" y="82.96" width="25.4" height="4"/><path class="cls-10" d="M54,64h7v5.44H88.47V64h7s0-.08,0-.12H54S54,64,54,64Z"/><rect class="cls-10" x="61.03" y="75.21" width="27.44" height="5.76"/><rect class="cls-10" x="57.82" y="63.04" width="34.11" height="5.76" transform="translate(8.95 140.79) rotate(-90)"/><path class="cls-10" d="M88.47,48.33a20.75,20.75,0,0,0-5-3.24V83h3.87a1.09,1.09,0,0,0,1.09-1Z"/><path class="cls-10" d="M66.11,45A20.75,20.75,0,0,0,61,48.36V81.87A1.09,1.09,0,0,0,62.13,83h4Z"/><path class="cls-10" d="M54.9,58H94.64a20.64,20.64,0,0,0-2.74-5.76H57.63A20.64,20.64,0,0,0,54.9,58Z"/><path class="cls-11" d="M72.51,82.5h4.17a.55.55,0,0,1,.55.55v3.84a.55.55,0,0,1-.55.55H72.51"/><line class="cls-11" x1="78.02" y1="84.97" x2="75.24" y2="84.97"/><rect class="cls-12" x="55.13" y="18.87" width="39.43" height="9.19" rx="4.44" ry="4.44"/><path class="cls-12" d="M96.5,27h0A6.53,6.53,0,0,1,90,33.48H59.49A6.53,6.53,0,0,1,53,27h0"/><path class="cls-13" d="M83.35,55.39v-7.6a8.76,8.76,0,0,0-8.73-8.73h0a8.76,8.76,0,0,0-8.73,8.73v7.6l8.82-2.86Z"/><path class="cls-14" d="M74.68,34.62a5.08,5.08,0,0,0-5.13,5v6a5.13,5.13,0,0,0,10.26,0v-6A5.08,5.08,0,0,0,74.68,34.62Z"/><ellipse class="cls-8" cx="60.38" cy="25.71" rx="3.55" ry="3.33"/><ellipse class="cls-8" cx="89.07" cy="25.71" rx="3.55" ry="3.33"/><rect class="cls-14" x="60.43" y="6.34" width="28.55" height="37.11" rx="13.79" ry="13.79"/><path class="cls-15" d="M60.38,29H89.05a0,0,0,0,1,0,0v5.42A13.84,13.84,0,0,1,75.21,48.3h-1A13.84,13.84,0,0,1,60.38,34.46V29a0,0,0,0,1,0,0Z"/><rect class="cls-15" x="64.71" y="26.97" width="19.87" height="7.84" rx="3.17" ry="3.17"/><polygon class="cls-14" points="78.16 49.23 74.68 52.53 71.19 49.23 78.16 49.23"/><path class="cls-8" d="M73.68,143.53a5.2,5.2,0,0,0-5.2-5.2H63.92a5.2,5.2,0,0,0-5.2,5.2Z"/><path class="cls-8" d="M90.86,143.53a5.2,5.2,0,0,0-5.2-5.2H81.09a5.2,5.2,0,0,0-5.2,5.2Z"/><rect class="cls-16" x="75.78" y="109.57" width="12.58" height="3.66"/><rect class="cls-16" x="61.2" y="109.57" width="12.58" height="3.66"/><rect class="cls-17" x="63.4" y="19.51" width="22.74" height="3.24" rx="1.62" ry="1.62"/><path class="cls-18" d="M74.81,35h8.71a5.78,5.78,0,0,0-5.76-5.76H74.81Z"/><path class="cls-19" d="M74.81,32.4V35h8.71a5.7,5.7,0,0,0-.64-2.63Z"/><circle class="cls-20" cx="67.35" cy="22.27" r="1.78"/><circle class="cls-20" cx="82.1" cy="22.37" r="1.78"/><rect class="cls-8" x="72.36" y="21.13" width="4.69" height="5.84"/><rect class="cls-14" x="62.48" y="18.55" width="24.58" height="2.92"/></g><g><path class="cls-21" d="M13.51,86.7v50.6H24.35V97.48a1.86,1.86,0,0,1,3.72,0V137.3H38.91V86.7Z"/><rect class="cls-22" x="12.76" y="136.35" width="12.28" height="6.23"/><rect class="cls-22" x="27.49" y="136.35" width="12.28" height="6.23"/><path class="cls-23" d="M32.28,86.88a6.63,6.63,0,0,0,6.63,6.63V86.88Z"/><path class="cls-23" d="M13.51,93.51a6.63,6.63,0,0,0,6.63-6.63H13.51Z"/><rect class="cls-19" x="10.15" y="143.42" width="14.97" height="1.37"/><rect class="cls-19" x="27.32" y="143.42" width="14.97" height="1.37"/><path class="cls-24" d="M25.12,143.53a5.2,5.2,0,0,0-5.2-5.2H15.35a5.2,5.2,0,0,0-5.2,5.2Z"/><path class="cls-24" d="M42.29,143.53a5.2,5.2,0,0,0-5.2-5.2H32.53a5.2,5.2,0,0,0-5.2,5.2Z"/><path class="cls-25" d="M47,63.88A20.73,20.73,0,0,0,26.22,43.15h0A20.73,20.73,0,0,0,5.49,63.88v8.8l7,.09v9.1A1.09,1.09,0,0,0,13.58,83H38.83a1.09,1.09,0,0,0,1.09-1.09V73.2l7,.31Z"/><rect class="cls-9" x="13.53" y="82.96" width="25.4" height="4"/><path class="cls-26" d="M28.14,87.9H24A.46.46,0,0,1,24,87h4.17a.09.09,0,0,0,.09-.09V83a.09.09,0,0,0-.09-.09H24A.46.46,0,0,1,24,82h4.17a1,1,0,0,1,1,1v3.84A1,1,0,0,1,28.14,87.9Z"/><path class="cls-27" d="M29.47,85.43H26.69a.46.46,0,0,1,0-.93h2.78a.46.46,0,0,1,0,.93Z"/><path class="cls-8" d="M26.13,34.62a5.08,5.08,0,0,0-5.13,5v6a5.13,5.13,0,0,0,10.26,0v-6A5.08,5.08,0,0,0,26.13,34.62Z"/><ellipse class="cls-8" cx="12.3" cy="27.06" rx="3.5" ry="3.28"/><ellipse class="cls-8" cx="40.45" cy="27.15" rx="3.5" ry="3.28"/><rect class="cls-14" x="12.3" y="7.97" width="28.15" height="36.5" rx="14.07" ry="14.07"/><circle class="cls-20" cx="18.71" cy="23.84" r="1.75"/><circle class="cls-20" cx="34.04" cy="23.84" r="1.75"/><rect class="cls-8" x="24.06" y="22.08" width="4.62" height="6.48"/><circle class="cls-4" cx="26.38" cy="6.24" r="1.51"/><rect class="cls-28" x="27.86" y="16.9" width="22.29" height="3.1" rx="1.55" ry="1.55"/><path class="cls-25" d="M12.3,20a14,14,0,1,1,28.09,0"/><path class="cls-29" d="M15.69,16.94a6.08,6.08,0,1,1,12.17,0"/><path class="cls-30" d="M15.75,16.94H27.86a0,0,0,0,1,0,0V20a0,0,0,0,1,0,0H15.75a1.53,1.53,0,0,1-1.53-1.53v0A1.53,1.53,0,0,1,15.75,16.94Z"/><circle class="cls-25" cx="25.59" cy="18.55" r="0.49"/><circle class="cls-25" cx="22.75" cy="18.55" r="0.49"/><circle class="cls-25" cx="19.92" cy="18.55" r="0.49"/><circle class="cls-25" cx="17.26" cy="18.55" r="0.49"/><path class="cls-29" d="M34.89,20a5.6,5.6,0,0,0,5.6,5.6V20Z"/><path class="cls-29" d="M31.12,20a4,4,0,0,0,4,4V20Z"/><path class="cls-29" d="M15.69,16.85a5,5,0,0,0,5,5v-5Z"/><rect class="cls-20" x="18.71" y="30.95" width="5.35" height="1.65" rx="0.83" ry="0.83"/></g><g><path class="cls-6" d="M111.26,86.7v50.6H122.1V97.48a1.86,1.86,0,0,1,3.72,0V137.3h10.84V86.7Z"/><rect class="cls-16" x="110.51" y="136.35" width="12.28" height="6.23"/><rect class="cls-16" x="125.24" y="136.35" width="12.28" height="6.23"/><path class="cls-7" d="M130,86.88a6.63,6.63,0,0,0,6.63,6.63V86.88Z"/><path class="cls-7" d="M111.26,93.51a6.63,6.63,0,0,0,6.63-6.63h-6.63Z"/><path class="cls-31" d="M133.61,119l.79-.79a.36.36,0,1,0-.51-.51l-.79.79-1.27-1.27.79-.79a.36.36,0,0,0-.51-.51l-.79.79-.79-.79a.36.36,0,0,0-.51.51l.79.79-1.27,1.27-.79-.79a.36.36,0,1,0-.51.51l.79.79-.79.79a.36.36,0,1,0,.51.51l.79-.79,1.27,1.27-.79.79a.36.36,0,1,0,.51.51l.79-.79.79.79a.36.36,0,0,0,.51-.51l-.79-.79,1.27-1.27.79.79a.36.36,0,1,0,.51-.51Zm-2.28,1.27L130.06,119l1.27-1.27,1.27,1.27Z"/><rect class="cls-19" x="107.9" y="143.42" width="14.97" height="1.37"/><rect class="cls-8" x="125.08" y="143.42" width="14.97" height="1.37"/><path class="cls-24" d="M122.87,143.53a5.2,5.2,0,0,0-5.2-5.2h-4.56a5.2,5.2,0,0,0-5.2,5.2Z"/><path class="cls-8" d="M140,143.53a5.2,5.2,0,0,0-5.2-5.2h-4.56a5.2,5.2,0,0,0-5.2,5.2Z"/><path class="cls-32" d="M144.71,63.88A20.73,20.73,0,0,0,124,43.15h0a20.73,20.73,0,0,0-20.73,20.73v8.8l7,.09v9.1A1.09,1.09,0,0,0,111.33,83h25.25a1.09,1.09,0,0,0,1.09-1.09V73.2l7,.31Z"/><rect class="cls-9" x="111.28" y="82.96" width="25.4" height="4"/><path class="cls-11" d="M121.72,82.5h4.17a.55.55,0,0,1,.55.55v3.84a.55.55,0,0,1-.55.55h-4.17"/><line class="cls-11" x1="127.22" y1="84.97" x2="124.44" y2="84.97"/><path class="cls-8" d="M124,34.45a5.14,5.14,0,0,0-5.2,5.06v6.06a5.2,5.2,0,0,0,10.39,0V39.51A5.14,5.14,0,0,0,124,34.45Z"/><ellipse class="cls-8" cx="110.06" cy="27.46" rx="3.46" ry="3.24"/><ellipse class="cls-8" cx="137.88" cy="27.46" rx="3.46" ry="3.24"/><rect class="cls-14" x="110.06" y="10.25" width="27.82" height="34.33" rx="13.91" ry="13.91"/><rect class="cls-14" x="110.06" y="16.93" width="27.82" height="6.85"/><path class="cls-33" d="M131.91,28.78a4.5,4.5,0,0,0-7.93-.07,4.5,4.5,0,0,0-7.93.07h-2.56a2.1,2.1,0,0,0,2,2.1h16.9a2.1,2.1,0,0,0,2.1-2.1Z"/><path class="cls-26" d="M136.51,17.19H110.06a8.11,8.11,0,0,1,8.11-8.11h26.45A8.11,8.11,0,0,1,136.51,17.19Z"/><rect class="cls-17" x="112.62" y="21.67" width="22.67" height="3.23" rx="1.62" ry="1.62"/><circle class="cls-20" cx="116.39" cy="24.19" r="1.73"/><circle class="cls-20" cx="131.55" cy="24.19" r="1.73"/><rect class="cls-8" x="121.69" y="22.9" width="4.57" height="5.83"/><rect class="cls-14" x="111.72" y="20.37" width="24.51" height="2.92"/><rect class="cls-20" x="126.18" y="32.24" width="5.38" height="1.7" rx="0.85" ry="0.85"/></g><circle class="cls-14" cx="39.96" cy="60.87" r="3.13"/><circle class="cls-34" cx="12.3" cy="60.87" r="3.13"/><rect class="cls-19" x="12.3" y="55.59" width="27.7" height="27.7" rx="1.73" ry="1.73"/><g><rect class="cls-14" x="34.14" y="67.95" width="20.22" height="8.51" rx="4.26" ry="4.26" transform="translate(-27.95 116.46) rotate(-90)"/><rect class="cls-8" x="41.95" y="68.91" width="7.97" height="4.66" rx="2.33" ry="2.33" transform="translate(91.87 142.48) rotate(180)"/><rect class="cls-8" x="38.35" y="60.47" width="11.57" height="4.66" rx="2.33" ry="2.33" transform="translate(88.27 125.6) rotate(180)"/><rect class="cls-8" x="38.35" y="64.69" width="11.57" height="4.66" rx="2.33" ry="2.33" transform="translate(88.27 134.04) rotate(180)"/></g><g><rect class="cls-14" x="-2.11" y="67.95" width="20.22" height="8.51" rx="4.26" ry="4.26" transform="translate(-64.2 80.2) rotate(-90)"/><rect class="cls-34" x="1.3" y="64.54" width="13.41" height="8.51" transform="translate(-60.79 76.8) rotate(-90)"/><rect class="cls-35" x="2.34" y="68.91" width="7.97" height="4.66" rx="2.33" ry="2.33"/><rect class="cls-35" x="2.34" y="60.47" width="11.57" height="4.66" rx="2.33" ry="2.33"/><rect class="cls-35" x="2.34" y="64.69" width="11.57" height="4.66" rx="2.33" ry="2.33"/></g><path class="cls-34" d="M20.39,77.64a1.08,1.08,0,0,1,1.21-1.21h3.34V64.77c0-.71,0-1.42,0-1.42h-.06a4,4,0,0,1-.8,1.07l-.92.89a1.08,1.08,0,0,1-1.72-.06l-.56-.59a1.12,1.12,0,0,1,0-1.75l3.73-3.58a2.17,2.17,0,0,1,1.54-.62h1.24a1.1,1.1,0,0,1,1.21,1.24V76.42H32a1.1,1.1,0,0,1,1.24,1.21v.83A1.11,1.11,0,0,1,32,79.71H21.6a1.09,1.09,0,0,1-1.21-1.24Z"/><circle class="cls-14" cx="137.8" cy="60.87" r="3.13"/><circle class="cls-34" cx="110.14" cy="60.87" r="3.13"/><rect class="cls-19" x="110.14" y="55.59" width="27.7" height="27.7" rx="1.73" ry="1.73"/><g><rect class="cls-14" x="131.99" y="67.95" width="20.22" height="8.51" rx="4.26" ry="4.26" transform="translate(69.9 214.3) rotate(-90)"/><rect class="cls-8" x="139.79" y="68.91" width="7.97" height="4.66" rx="2.33" ry="2.33" transform="translate(287.56 142.48) rotate(180)"/><rect class="cls-8" x="136.19" y="60.47" width="11.57" height="4.66" rx="2.33" ry="2.33" transform="translate(283.96 125.6) rotate(180)"/><rect class="cls-8" x="136.19" y="64.69" width="11.57" height="4.66" rx="2.33" ry="2.33" transform="translate(283.96 134.04) rotate(180)"/></g><g><rect class="cls-14" x="95.73" y="67.95" width="20.22" height="8.51" rx="4.26" ry="4.26" transform="translate(33.64 178.05) rotate(-90)"/><rect class="cls-34" x="99.14" y="64.54" width="13.41" height="8.51" transform="translate(37.05 174.64) rotate(-90)"/><rect class="cls-35" x="100.18" y="68.91" width="7.97" height="4.66" rx="2.33" ry="2.33"/><rect class="cls-35" x="100.18" y="60.47" width="11.57" height="4.66" rx="2.33" ry="2.33"/><rect class="cls-35" x="100.18" y="64.69" width="11.57" height="4.66" rx="2.33" ry="2.33"/></g><path class="cls-34" d="M117.32,76.3l.59-.92c.44-.68,1-.71,1.69-.27a6.71,6.71,0,0,0,3.79,1.33c2.19,0,3.79-1.33,3.79-3.14,0-2.22-2-3.25-4.5-3.25h-.44a1.32,1.32,0,0,1-1.36-.86l-.12-.24a1.37,1.37,0,0,1,.27-1.6l3.22-3.82a14.6,14.6,0,0,1,1.51-1.6V61.9a15.36,15.36,0,0,1-1.86.09h-5.06a1.08,1.08,0,0,1-1.21-1.21v-.83a1.1,1.1,0,0,1,1.21-1.24h10.36a1.09,1.09,0,0,1,1.24,1.21v.33a2,2,0,0,1-.56,1.51L125.28,67c2.93.41,5.74,2.49,5.74,6.12s-2.69,6.89-7.4,6.89a10.17,10.17,0,0,1-6.07-2A1.13,1.13,0,0,1,117.32,76.3Z"/><circle class="cls-34" cx="88.58" cy="60.87" r="3.13"/><circle class="cls-34" cx="60.92" cy="60.87" r="3.13"/><rect class="cls-19" x="60.92" y="55.59" width="27.7" height="27.7" rx="1.73" ry="1.73"/><g><rect class="cls-14" x="82.77" y="67.95" width="20.22" height="8.51" rx="4.26" ry="4.26" transform="translate(20.68 165.08) rotate(-90)"/><rect class="cls-34" x="86.17" y="64.54" width="13.41" height="8.51" transform="translate(24.08 161.67) rotate(-90)"/><rect class="cls-35" x="90.57" y="68.91" width="7.97" height="4.66" rx="2.33" ry="2.33" transform="translate(189.12 142.48) rotate(180)"/><rect class="cls-35" x="86.97" y="60.47" width="11.57" height="4.66" rx="2.33" ry="2.33" transform="translate(185.51 125.6) rotate(180)"/><rect class="cls-35" x="86.97" y="64.69" width="11.57" height="4.66" rx="2.33" ry="2.33" transform="translate(185.51 134.04) rotate(180)"/></g><g><rect class="cls-14" x="46.51" y="67.95" width="20.22" height="8.51" rx="4.26" ry="4.26" transform="translate(-15.58 128.83) rotate(-90)"/><rect class="cls-34" x="49.92" y="64.54" width="13.41" height="8.51" transform="translate(-12.17 125.42) rotate(-90)"/><rect class="cls-35" x="50.96" y="68.91" width="7.97" height="4.66" rx="2.33" ry="2.33"/><rect class="cls-35" x="50.96" y="60.47" width="11.57" height="4.66" rx="2.33" ry="2.33"/><rect class="cls-35" x="50.96" y="64.69" width="11.57" height="4.66" rx="2.33" ry="2.33"/></g><path class="cls-34" d="M68,77.84c0-7.57,9.82-8.79,9.82-13A2.93,2.93,0,0,0,74.64,62a4.09,4.09,0,0,0-3.11,1.57c-.56.56-1.15.77-1.75.27l-.8-.62a1.09,1.09,0,0,1-.33-1.66A7.69,7.69,0,0,1,75,58.35c3.67,0,6.83,2.25,6.83,6.21,0,6.75-9.41,7.9-9.59,11.86h8.67a1.09,1.09,0,0,1,1.24,1.21v.83a1.1,1.1,0,0,1-1.24,1.24H69.34A1.19,1.19,0,0,1,68,78.46Z"/></g></svg>