<?xml version="1.0" encoding="utf-8"?><!DOCTYPE svg PUBLIC "-//W3C//DTD SVG 1.1//EN" "http://www.w3.org/Graphics/SVG/1.1/DTD/svg11.dtd"><svg version="1.1" xmlns="http://www.w3.org/2000/svg" xmlns:xlink="http://www.w3.org/1999/xlink" x="0px" y="0px" width="150px" height="150px" viewBox="0 0 150 150" enable-background="new 0 0 150 150" xml:space="preserve"><g id="Layer_2" display="none"><rect x="-170" y="-1527.3" display="inline" fill="#F0F0F0" width="1680" height="1677.3"/></g><g id="Layer_1"/><g id="Layer_3"><path fill="#773D15" d="M77.3,24.1l-2.1,2.1c0.1,0.1,0.1,0.1,0.2,0.2c0.7,0.7,1.2,1.5,1.6,2.4c0.5,0.9,0.7,1.9,0.6,2.9 c-0.2,1.8-0.3,2.5-1.1,4.1c-0.1,0.2-0.3,0.5-0.4,0.7c-0.9,1.7-2.7,2.9-4.5,3.4c-1.9,0.6-4,0.2-5.8-0.8c-0.8-0.4-1.4-1-1.9-1.6 L7.7,93.7l25.1,25.1l69.5-69.5L77.3,24.1z"/><path fill="none" stroke="#8E8E8E" stroke-width="9.5917" stroke-linecap="round" stroke-linejoin="round" stroke-miterlimit="10" d="M92.1,95.5c0-3.7,3-6.6,6.6-6.6h33.5c3.7,0,6.6,3,6.6,6.6v31.1c0,3.7-3,6.6-6.6,6.6H98.8c-3.7,0-6.6-3-6.6-6.6"/><rect x="7.7" y="93.7" fill="#8E4819" width="89" height="35.5"/><path fill="#8E4819" d="M34,13.8c-9.8,0-17.7,7.9-17.7,17.7l0,0c0,9.8,7.9,17.7,17.7,17.7h68.4V13.8H34z M39.5,35.3 c-2.3,0-4.2-1.9-4.2-4.2c0-2.3,1.9-4.2,4.2-4.2s4.2,1.9,4.2,4.2C43.7,33.4,41.8,35.3,39.5,35.3z M65.4,35.3c-2.3,0-4.2-1.9-4.2-4.2 c0-2.3,1.9-4.2,4.2-4.2c2.3,0,4.2,1.9,4.2,4.2C69.6,33.4,67.7,35.3,65.4,35.3z"/><line fill="none" stroke="#A0A0A0" stroke-width="10" stroke-linecap="round" stroke-linejoin="round" stroke-miterlimit="10" x1="92.9" y1="111.4" x2="134.6" y2="111.4"/><rect x="67.5" y="88.9" fill="#773D15" width="14.7" height="46.3"/></g></svg>