<?xml version="1.0" encoding="utf-8"?><!DOCTYPE svg PUBLIC "-//W3C//DTD SVG 1.1//EN" "http://www.w3.org/Graphics/SVG/1.1/DTD/svg11.dtd"><svg version="1.1" id="Layer_1" xmlns="http://www.w3.org/2000/svg" xmlns:xlink="http://www.w3.org/1999/xlink" x="0px" y="0px" width="150px" height="150px" viewBox="0 0 150 150" enable-background="new 0 0 150 150" xml:space="preserve"><path fill="#88C11A" d="M144.1,50.4l-1.7-7c-0.3-1.3-1.6-2.1-2.9-1.9l-8.3,1.3l-6.3,0.4L114.5,38c-0.9-0.4-1.9-0.3-2.6,0.2l-1.8,1.3	l-16.7-2.7l-2.4-3.5c-0.4-0.5-0.9-0.9-1.5-1L84.1,31c-0.6-0.2-1.3-0.1-1.9,0.3l-1.5,0.8l-11.4-2.9c-0.4-0.1-0.8-0.1-1.2,0l-7.7,1.9	l-14.2-3.8c-0.3-0.1-0.6-0.1-0.9-0.1l-13.9,1.6L27,25.5c-0.9-0.7-2.2-0.7-3.1-0.1l-5.3,3.9l-10,3c-0.9,0.3-1.5,0.9-1.7,1.8l-0.8,3.4	c-0.3,1.1,0.2,2.3,1.3,2.8l1.9,1l-0.7,1.4c-0.4,0.8-0.4,1.7,0.1,2.5c0.5,0.8,1.3,1.2,2.2,1.2h3l0,0.1l-4.4,5.7	c-0.7,1-0.7,2.3,0.1,3.2c0.8,0.9,2.1,1.1,3.2,0.5l3.8-2.2c0.2,0.4,0.4,0.8,0.8,1.1l2.2,1.8c0.6,0.5,1.4,0.7,2.2,0.5l8.9-2.2l4.1,0.3	l3.2,3L31.8,63c-0.6,0.5-0.9,1.2-1,1.9l-0.4,10.6l-1.2,0.8c-0.9,0.6-1.3,1.7-1,2.8l0.7,2.6l-5,2.6c-0.7,0.3-1.2,1-1.3,1.7	c-0.2,0.7,0,1.5,0.5,2.1l4.4,5.7l-4.2,5.9c-0.6,0.8-0.6,1.8-0.2,2.6l1.8,3.5c0.3,0.5,0.7,0.9,1.2,1.1c0.2,0.1,0.4,0.2,0.6,0.3	c-0.3,0.3-0.7,0.6-1.1,0.9c-0.2,0.1-0.3,0.3-0.5,0.5l-4.9,6.3c-0.3,0.4-0.5,1-0.5,1.6v4.2c0,1,0.6,2,1.6,2.4l11.9,4.7v4.4	c0,0.8,0.4,1.6,1,2l8.6,6.3c0.4,0.3,1,0.5,1.5,0.5c0.7,0,1.3-0.3,1.8-0.8l4.8-4.9h3.8c0.7,0,1.4-0.3,1.9-0.8l3.3-3.7H73	c0.6,0,4.5,0.2,7.8,0.2c3.4,0,6.6,0,7-2.6c0.4-1.2,3.1-6.3,5.8-11.2h5.2c1.1,0,2.1-0.8,2.4-1.9l2.3-8.6l7-5.6	c0.6-0.4,0.9-1.1,0.9-1.8c0-0.7-0.2-1.4-0.7-1.9l-3.8-3.9l-1.2-5.3l12.8-20l11.2-3.2c0.4-0.1,0.7-0.3,1-0.6l12.5-11.6	C144,52.2,144.3,51.3,144.1,50.4z"/><path fill="#FFFFFF" d="M105,46.1c0-16.9-13.7-30.6-30.6-30.6c-16.9,0-30.6,13.7-30.6,30.6c0,9.7,4.5,18.3,11.5,23.9h-0.1l19.2,19.5	L93.6,70h-0.1C100.5,64.4,105,55.8,105,46.1z"/><circle fill="#FFC200" cx="74.4" cy="46.4" r="27.8"/><path fill="#CC2F2F" d="M49.7,59.1c4.6,9,14,15.1,24.8,15.1s20.1-6.1,24.8-15.1H49.7z"/><path fill="#CC2F2F" d="M49.7,33.7h49.5c-4.6-9-14-15.1-24.8-15.1S54.3,24.7,49.7,33.7z"/><path fill="#CC2F2F" d="M65.9,53.1h-1.2c-2.2,0-4.1-1.8-4.1-4.1v-7.1H70V49C70,51.2,68.2,53.1,65.9,53.1z"/><path fill="#CC2F2F" d="M68.6,41.2h-6.4c-0.8,0-1.4-0.6-1.4-1.4v-0.4c0-0.8,0.6-1.4,1.4-1.4h6.4c0.8,0,1.4,0.6,1.4,1.4v0.4	C70,40.5,69.3,41.2,68.6,41.2z"/><path fill="#FFFFFF" d="M59,41.9H55c-0.3,0-0.6,0.3-0.6,0.6v0.1c0,0.3,0.3,0.6,0.6,0.6h0.1v8.5H55c-0.3,0-0.6,0.3-0.6,0.6v0.1	c0,0.3,0.3,0.6,0.6,0.6H59c0.3,0,0.6-0.3,0.6-0.6v-0.1c0-0.3-0.3-0.6-0.6-0.6h-0.1v-8.5H59c0.3,0,0.6-0.3,0.6-0.6v-0.1	C59.6,42.2,59.3,41.9,59,41.9z"/><path fill="#FFFFFF" d="M75.6,43.2c0.3,0,0.6-0.3,0.6-0.6v-0.1c0-0.3-0.3-0.6-0.6-0.6h-3.9c-0.3,0-0.6,0.3-0.6,0.6v0.1	c0,0.3,0.3,0.6,0.6,0.6h0.1v8.5h-0.1c-0.3,0-0.6,0.3-0.6,0.6v0.1c0,0.3,0.3,0.6,0.6,0.6h3.9c0.3,0,0.6-0.3,0.6-0.6v-0.1	c0-0.3-0.3-0.6-0.6-0.6h-0.1v-8.5H75.6z"/><path fill="#7CAA18" d="M64,118.6h-0.6c-0.6,0-1.1-0.5-1.1-1.1v-3.6c0-0.6,0.5-1.1,1.1-1.1H64c0.6,0,1.1,0.5,1.1,1.1v3.6	C65,118.1,64.5,118.6,64,118.6z"/><path fill="#7CAA18" d="M67.7,118.6h-0.6c-0.6,0-1.1-0.5-1.1-1.1V112c0-0.6,0.5-1.1,1.1-1.1h0.6c0.6,0,1.1,0.5,1.1,1.1v5.5	C68.8,118.1,68.3,118.6,67.7,118.6z"/><path fill="#7CAA18" d="M71.5,118.6H71c-0.6,0-1.1-0.5-1.1-1.1v-2.8c0-0.6,0.5-1.1,1.1-1.1h0.6c0.6,0,1.1,0.5,1.1,1.1v2.8	C72.6,118.1,72.1,118.6,71.5,118.6z"/><path fill="#7CAA18" d="M17,42.5h-0.6c-0.6,0-1.1-0.5-1.1-1.1v-3.6c0-0.6,0.5-1.1,1.1-1.1H17c0.6,0,1.1,0.5,1.1,1.1v3.6	C18.1,42,17.6,42.5,17,42.5z"/><path fill="#7CAA18" d="M20.8,42.5h-0.6c-0.6,0-1.1-0.5-1.1-1.1v-5.5c0-0.6,0.5-1.1,1.1-1.1h0.6c0.6,0,1.1,0.5,1.1,1.1v5.5	C21.9,42,21.4,42.5,20.8,42.5z"/><path fill="#7CAA18" d="M24.6,42.5H24c-0.6,0-1.1-0.5-1.1-1.1v-2.8c0-0.6,0.5-1.1,1.1-1.1h0.6c0.6,0,1.1,0.5,1.1,1.1v2.8	C25.7,42,25.2,42.5,24.6,42.5z"/><path fill="#7CAA18" d="M42.1,92.8h-0.9c-0.5,0-0.8-0.4-0.8-0.8v-3.7c0-0.5,0.4-0.8,0.8-0.8h0.9c0.5,0,0.8,0.4,0.8,0.8V92	C42.9,92.4,42.5,92.8,42.1,92.8z"/><path fill="#7CAA18" d="M45.6,92.8h-0.9c-0.5,0-0.8-0.4-0.8-0.8v-5.5c0-0.5,0.4-0.8,0.8-0.8h0.9c0.5,0,0.8,0.4,0.8,0.8V92	C46.5,92.4,46.1,92.8,45.6,92.8z"/><path fill="#7CAA18" d="M49.2,92.8h-0.9c-0.5,0-0.8-0.4-0.8-0.8V89c0-0.5,0.4-0.8,0.8-0.8h0.9c0.5,0,0.8,0.4,0.8,0.8V92	C50,92.4,49.7,92.8,49.2,92.8z"/></svg>