<?xml version="1.0" encoding="utf-8"?><!DOCTYPE svg PUBLIC "-//W3C//DTD SVG 1.1//EN" "http://www.w3.org/Graphics/SVG/1.1/DTD/svg11.dtd"><svg version="1.1" id="Layer_1" xmlns="http://www.w3.org/2000/svg" xmlns:xlink="http://www.w3.org/1999/xlink" x="0px" y="0px" width="150px" height="150px" viewBox="0 0 150 150" enable-background="new 0 0 150 150" xml:space="preserve"><path fill="#FFFFFF" d="M81.5,26.5c-14.6,0-28.6,6.2-38.6,16.9c-3,3.3-3.3,8.1-1.1,11.7c-0.7,0.7-1.5,1.4-2.2,2.2	c-3.6,3.9-3.4,10,0.5,13.6c3.9,3.6,10,3.4,13.6-0.5c5.2-5.6,12.4-8.8,20-8.8c15,0,27.2,12.2,27.2,27.2v37.5c0,5.3,4.3,9.6,9.6,9.6	c5.3,0,9.6-4.3,9.6-9.6v-18.9c1.3,0.6,2.7,0.9,4.1,0.9c5.3,0,9.6-4.3,9.6-9.6V79.1C134.1,50.1,110.5,26.5,81.5,26.5z"/><rect x="20.1" y="39.1" transform="matrix(0.7071 0.7071 -0.7071 0.7071 62.6402 -13.0239)" fill="#BCBCBC" width="53.8" height="60"/><path fill="#C6C6C6" d="M24.6,71.3L24.6,71.3c-2-2-2-5.2,0-7.1l28.9-28.9l7.1,7.1L31.7,71.3C29.7,73.3,26.5,73.3,24.6,71.3z"/><path fill="#AFAFAF" d="M38.9,101.2l28.9-28.9c2-2,5.2-2,7.1,0l0,0c2,2,2,5.2,0,7.1L46,108.4"/><rect x="40" y="42.7" transform="matrix(0.7071 -0.7071 0.7071 0.7071 -35.5957 53.3443)" fill="#FFFFFF" width="13.2" height="54"/><rect x="55.5" y="80.1" transform="matrix(0.7071 -0.7071 0.7071 0.7071 -42.0149 68.8413)" fill="#EDEDED" width="13.2" height="10.1"/><line fill="none" stroke="#DDDDDD" stroke-width="2.7551" stroke-linecap="round" stroke-linejoin="round" stroke-miterlimit="10" x1="6.8" y1="71.3" x2="44.9" y2="109.3"/><line fill="none" stroke="#DDDDDD" stroke-width="2.7551" stroke-linecap="round" stroke-linejoin="round" stroke-miterlimit="10" x1="49.1" y1="28.9" x2="87.2" y2="67"/><circle fill="#FFFFFF" cx="138" cy="51.2" r="4.6"/><circle fill="#FFFFFF" cx="90" cy="107.5" r="5.3"/><circle fill="#FFFFFF" cx="86" cy="27.3" r="3.6"/><circle fill="#D1D1D1" cx="60.1" cy="55.8" r="5.5"/><path fill="#DDDDDD" d="M16.2,57.2h43.7c0.9,0,1.6-0.7,1.6-1.6v0c0-0.9-0.7-1.6-1.6-1.6H16.2c-0.9,0-1.6,0.7-1.6,1.6v0	C14.6,56.4,15.3,57.2,16.2,57.2z"/></svg>