<?xml version="1.0" encoding="utf-8"?><!DOCTYPE svg PUBLIC "-//W3C//DTD SVG 1.1//EN" "http://www.w3.org/Graphics/SVG/1.1/DTD/svg11.dtd"><svg version="1.1" id="Layer_1" xmlns="http://www.w3.org/2000/svg" xmlns:xlink="http://www.w3.org/1999/xlink" x="0px" y="0px" width="150px" height="150px" viewBox="0 0 150 150" enable-background="new 0 0 150 150" xml:space="preserve"><g><path fill="#C17134" d="M93.1,148.1H63.4c-11.5,0-20.9-9.4-20.9-20.9V86.3c0-15.8,13-28.8,28.8-28.8h13.9c15.8,0,28.8,13,28.8,28.8 v40.9C114,138.7,104.6,148.1,93.1,148.1z"/><path fill="#88C11A" d="M82.4,46.9c-1.1,12-11.6,20.8-23.6,19.7S38,55,39.1,43"/><path fill="#88C11A" d="M78.3,1C69.8,4.7,64,12.5,64,21.5c0,9,5.8,16.8,14.3,20.5V1z"/><path fill="#86B20D" d="M78.3,42c8.5-3.7,14.3-11.5,14.3-20.5c0-9-5.8-16.8-14.3-20.5V42z"/><path fill="#86B20D" d="M82.8,46.1c-8.5,8.5-22.3,8.5-30.7,0s-8.5-22.3,0-30.7"/><path fill="#86B20D" d="M74.2,46.9c1.1,12,11.6,20.8,23.6,19.7S118.5,55,117.5,43"/><path fill="#88C11A" d="M73.7,46.1c8.5,8.5,22.3,8.5,30.7,0s8.5-22.3,0-30.7"/><polygon fill="#D88841" points="49.4,89.7 57,76.4 64.7,89.7"/><polygon fill="#D88841" points="91.2,89.7 98.9,76.4 106.6,89.7"/><polygon fill="#D88841" points="70.6,89.7 78.3,76.4 85.9,89.7"/><polygon fill="#D88841" points="49.4,128.2 57,114.9 64.7,128.2"/><polygon fill="#D88841" points="91.2,128.2 98.9,114.9 106.6,128.2"/><polygon fill="#D88841" points="70.6,128.2 78.3,114.9 85.9,128.2"/><polygon fill="#D88841" points="59.3,109.6 67,96.3 74.6,109.6"/><polygon fill="#D88841" points="80.5,109.6 88.2,96.3 95.9,109.6"/></g><path fill="#88C11A" d="M2.1,96.5C0,102,0.9,108.2,5,112.3c4.1,4.1,10.3,5,15.8,2.8L2.1,96.5z"/><path fill="#86B20D" d="M20.8,115.1c2.2-5.5,1.3-11.7-2.8-15.8c-4.1-4.1-10.3-5-15.8-2.8L20.8,115.1z"/><path fill="#FFC200" d="M86.8,117.7c-0.3,0-0.7,0-1,0.1c-3.6-10.5-16.5-18.3-31.9-18.3c-15.4,0-28.3,7.8-31.9,18.3	c-0.3-0.1-0.7-0.1-1-0.1c-3.3,0-6.1,2.7-6.1,6.1c0,3.3,2.7,6.1,6.1,6.1c0.3,0,0.7,0,1-0.1c3.6,10.5,16.5,18.3,31.9,18.3	c15.4,0,28.3-7.8,31.9-18.3c0.3,0.1,0.7,0.1,1,0.1c3.3,0,6.1-2.7,6.1-6.1C92.8,120.4,90.1,117.7,86.8,117.7z"/><circle opacity="0.31" fill="#E58800" cx="35.4" cy="115.1" r="3.1"/><circle opacity="0.31" fill="#E58800" cx="48.6" cy="115.1" r="3.1"/><circle opacity="0.31" fill="#E58800" cx="42" cy="121.6" r="3.1"/><path fill="#9E5949" d="M106.4,148h-16v-46.3h16c12.8,0,23.2,10.4,23.2,23.2v0C129.5,137.6,119.2,148,106.4,148z"/><circle fill="#9E5949" cx="90.4" cy="124.9" r="23.2"/><circle fill="#86B20D" cx="90.4" cy="124.9" r="21.4"/><circle fill="#DBE8AF" cx="90.4" cy="124.9" r="11.5"/><path fill="#5E750A" d="M90.4,116.1L90.4,116.1c-1,0-1.8-0.8-1.8-1.8v-1.9c0-1,0.8-1.8,1.8-1.8l0,0c1,0,1.8,0.8,1.8,1.8v1.9	C92.2,115.3,91.3,116.1,90.4,116.1z"/><path fill="#5E750A" d="M90.4,139.3L90.4,139.3c-1,0-1.8-0.8-1.8-1.8v-1.9c0-1,0.8-1.8,1.8-1.8l0,0c1,0,1.8,0.8,1.8,1.8v1.9	C92.2,138.5,91.3,139.3,90.4,139.3z"/><path fill="#5E750A" d="M81.5,125L81.5,125c0,1-0.8,1.8-1.8,1.8h-1.9c-1,0-1.8-0.8-1.8-1.8l0,0c0-1,0.8-1.8,1.8-1.8h1.9	C80.7,123.2,81.5,124,81.5,125z"/><path fill="#5E750A" d="M104.7,125L104.7,125c0,1-0.8,1.8-1.8,1.8H101c-1,0-1.8-0.8-1.8-1.8l0,0c0-1,0.8-1.8,1.8-1.8h1.9	C103.9,123.2,104.7,124,104.7,125z"/><path fill="#5E750A" d="M84.1,118.7L84.1,118.7c-0.7,0.7-1.8,0.7-2.5,0l-1.3-1.3c-0.7-0.7-0.7-1.8,0-2.5l0,0c0.7-0.7,1.8-0.7,2.5,0	l1.3,1.3C84.8,116.9,84.8,118,84.1,118.7z"/><path fill="#5E750A" d="M100.5,135.1L100.5,135.1c-0.7,0.7-1.8,0.7-2.5,0l-1.3-1.3c-0.7-0.7-0.7-1.8,0-2.5h0c0.7-0.7,1.8-0.7,2.5,0	l1.3,1.3C101.2,133.3,101.2,134.4,100.5,135.1z"/><path fill="#5E750A" d="M96.6,118.7L96.6,118.7c-0.7-0.7-0.7-1.8,0-2.5l1.3-1.3c0.7-0.7,1.8-0.7,2.5,0l0,0c0.7,0.7,0.7,1.8,0,2.5	l-1.3,1.3C98.5,119.4,97.3,119.4,96.6,118.7z"/><path fill="#5E750A" d="M80.2,135.1L80.2,135.1c-0.7-0.7-0.7-1.8,0-2.5l1.3-1.3c0.7-0.7,1.8-0.7,2.5,0l0,0c0.7,0.7,0.7,1.8,0,2.5	l-1.3,1.3C82.1,135.8,80.9,135.8,80.2,135.1z"/><path fill="#87473A" d="M116.8,110.4L116.8,110.4c-0.5-0.5-0.5-1.2,0-1.6l4-4c0.5-0.5,1.2-0.5,1.6,0l0,0c0.5,0.5,0.5,1.2,0,1.6l-4,4	C118,110.9,117.3,110.9,116.8,110.4z"/><path fill="#87473A" d="M122.5,145.3L122.5,145.3c-0.5,0.5-1.2,0.5-1.6,0l-4-4c-0.5-0.5-0.5-1.2,0-1.6l0,0c0.5-0.5,1.2-0.5,1.6,0	l4,4C123,144.1,123,144.8,122.5,145.3z"/><path fill="#87473A" d="M132.6,125L132.6,125c0,0.6-0.5,1.2-1.2,1.2h-5.7c-0.6,0-1.2-0.5-1.2-1.2v0c0-0.6,0.5-1.2,1.2-1.2h5.7	C132.1,123.8,132.6,124.4,132.6,125z"/></svg>