<?xml version="1.0" encoding="utf-8"?><!DOCTYPE svg PUBLIC "-//W3C//DTD SVG 1.1//EN" "http://www.w3.org/Graphics/SVG/1.1/DTD/svg11.dtd"><svg version="1.1" id="Layer_1" xmlns="http://www.w3.org/2000/svg" xmlns:xlink="http://www.w3.org/1999/xlink" x="0px" y="0px" width="150px" height="150px" viewBox="0 0 150 150" enable-background="new 0 0 150 150" xml:space="preserve"><g><path fill="#B25A4B" d="M114.8,100.6c-3.9,0-7.1-3.2-7.1-7.1h5.4c0,1,0.8,1.8,1.8,1.8c1,0,1.8-0.8,1.8-1.8v-8.9h5.4v8.9 C121.9,97.4,118.7,100.6,114.8,100.6z"/></g><g><path fill="#B25A4B" d="M107.2,94.3c-3.9,0-7.1-3.2-7.1-7.1v-8.9h5.4v8.9c0,1,0.8,1.8,1.8,1.8c1,0,1.8-0.8,1.8-1.8h5.4 C114.3,91.1,111.1,94.3,107.2,94.3z"/></g><path fill="#88C11A" d="M22.1,139.6c0-28.9,23.4-52.3,52.3-52.3s52.3,23.4,52.3,52.3"/><g><path fill="#B25A4B" d="M43,94.3v-5.4c2,0,3.7-1.7,3.7-3.7V72.4h5.4v12.8C52.1,90.2,48,94.3,43,94.3z"/></g><path fill="#A04B40" d="M59.3,95.3L59.3,95.3c-2.1,0-3.8-1.7-3.8-3.8V53.2c0-2.1,1.7-3.8,3.8-3.8h0c2.1,0,3.8,1.7,3.8,3.8v38.3	C63.1,93.6,61.4,95.3,59.3,95.3z"/><path fill="#A04B40" d="M86.2,93.5L86.2,93.5c-2.1,0-3.8-1.7-3.8-3.8V51.4c0-2.1,1.7-3.8,3.8-3.8h0c2.1,0,3.8,1.7,3.8,3.8v38.3	C90,91.8,88.3,93.5,86.2,93.5z"/><path fill="#B25A4B" d="M40.1,108.3L40.1,108.3c-2.1,0-3.8-1.7-3.8-3.8V66.2c0-2.1,1.7-3.8,3.8-3.8h0c2.1,0,3.8,1.7,3.8,3.8v38.3	C43.9,106.6,42.2,108.3,40.1,108.3z"/><path fill="#578408" d="M69.4,64.5H39.7c-6.6,0-12-5.4-12-12V22.4c0-6.6,5.4-12,12-12h29.7c6.6,0,12,5.4,12,12v30.1	C81.4,59.1,76,64.5,69.4,64.5z"/><path fill="#578408" d="M99,71.2H67.5c-6.6,0-12-5.4-12-12V40.9c0-6.6,5.4-12,12-12H99c6.6,0,12,5.4,12,12v18.3	C111,65.8,105.6,71.2,99,71.2z"/><path fill="#60960B" d="M46.3,83.9H31.4c-8.3,0-15.1-6.7-15.1-15.1V35.7c0-8.3,6.7-15.1,15.1-15.1h14.9c8.3,0,15.1,6.7,15.1,15.1	v33.1C61.4,77.1,54.7,83.9,46.3,83.9z"/><path fill="#60960B" d="M61.2,83.9H44.7c-7.5,0-13.5-6.1-13.5-13.5v0c0-7.5,6.1-13.5,13.5-13.5h16.5c7.5,0,13.5,6.1,13.5,13.5v0	C74.7,77.8,68.7,83.9,61.2,83.9z"/><path fill="#578408" d="M51.4,31.7c-2.2-1-4.8-0.6-6.6,1.2s-2.2,4.5-1.2,6.6c2.2,1,4.8,0.6,6.6-1.2S52.4,33.9,51.4,31.7z"/><path fill="#578408" d="M25.6,46c-1,2.2-0.6,4.8,1.2,6.6s4.5,2.2,6.6,1.2c1-2.2,0.6-4.8-1.2-6.6C30.4,45.5,27.8,45.1,25.6,46z"/><path fill="#578408" d="M42.6,64c-1,2.2-0.6,4.8,1.2,6.6s4.5,2.2,6.6,1.2c1-2.2,0.6-4.8-1.2-6.6C47.5,63.4,44.8,63,42.6,64z"/><path fill="#B25A4B" d="M111,110.1L111,110.1c-2.1,0-3.8-1.7-3.8-3.8V68c0-2.1,1.7-3.8,3.8-3.8h0c2.1,0,3.8,1.7,3.8,3.8v38.3	C114.8,108.4,113.1,110.1,111,110.1z"/><path fill="#60960B" d="M118.4,84.8h-14.9c-8.3,0-15.1-6.7-15.1-15.1V36.6c0-8.3,6.7-15.1,15.1-15.1h14.9c8.3,0,15.1,6.7,15.1,15.1	v33.1C133.5,78,126.8,84.8,118.4,84.8z"/><path fill="#7CAA18" d="M94,126.1L94,126.1c-0.9,0-1.6-0.7-1.6-1.6V121c0-0.9,0.7-1.6,1.6-1.6h0c0.9,0,1.6,0.7,1.6,1.6v3.6	C95.6,125.4,94.9,126.1,94,126.1z"/><path fill="#7CAA18" d="M98.5,126.1L98.5,126.1c-0.9,0-1.6-0.7-1.6-1.6v-5.9c0-0.9,0.7-1.6,1.6-1.6l0,0c0.9,0,1.6,0.7,1.6,1.6v5.9	C100.1,125.4,99.4,126.1,98.5,126.1z"/><path fill="#7CAA18" d="M103,126.1L103,126.1c-0.9,0-1.6-0.7-1.6-1.6v-2.6c0-0.9,0.7-1.6,1.6-1.6h0c0.9,0,1.6,0.7,1.6,1.6v2.6	C104.6,125.4,103.9,126.1,103,126.1z"/><path fill="#7CAA18" d="M65.3,110L65.3,110c-0.9,0-1.6-0.7-1.6-1.6v-3.6c0-0.9,0.7-1.6,1.6-1.6l0,0c0.9,0,1.6,0.7,1.6,1.6v3.6	C66.9,109.3,66.2,110,65.3,110z"/><path fill="#7CAA18" d="M69.8,110L69.8,110c-0.9,0-1.6-0.7-1.6-1.6v-5.9c0-0.9,0.7-1.6,1.6-1.6h0c0.9,0,1.6,0.7,1.6,1.6v5.9	C71.4,109.3,70.7,110,69.8,110z"/><path fill="#7CAA18" d="M74.3,110L74.3,110c-0.9,0-1.6-0.7-1.6-1.6v-2.6c0-0.9,0.7-1.6,1.6-1.6h0c0.9,0,1.6,0.7,1.6,1.6v2.6	C75.9,109.3,75.2,110,74.3,110z"/><path fill="#7CAA18" d="M42.9,127.9L42.9,127.9c-0.9,0-1.6-0.7-1.6-1.6v-5.9c0-0.9,0.7-1.6,1.6-1.6h0c0.9,0,1.6,0.7,1.6,1.6v5.9	C44.5,127.2,43.8,127.9,42.9,127.9z"/><path fill="#7CAA18" d="M47.4,127.9L47.4,127.9c-0.9,0-1.6-0.7-1.6-1.6v-2.6c0-0.9,0.7-1.6,1.6-1.6l0,0c0.9,0,1.6,0.7,1.6,1.6v2.6	C49,127.2,48.3,127.9,47.4,127.9z"/><path fill="#578408" d="M124.1,32.6c-2.2-1-4.8-0.6-6.6,1.2s-2.2,4.5-1.2,6.6c2.2,1,4.8,0.6,6.6-1.2S125,34.8,124.1,32.6z"/><path fill="#578408" d="M121.4,64c-2.2-1-4.8-0.6-6.6,1.2c-1.8,1.8-2.2,4.5-1.2,6.6c2.2,1,4.8,0.6,6.6-1.2S122.3,66.2,121.4,64z"/><path fill="#578408" d="M98.2,46.9c-1,2.2-0.6,4.8,1.2,6.6c1.8,1.8,4.5,2.2,6.6,1.2c1-2.2,0.6-4.8-1.2-6.6S100.4,45.9,98.2,46.9z"/></svg>