<?xml version="1.0" encoding="utf-8"?><!DOCTYPE svg PUBLIC "-//W3C//DTD SVG 1.1//EN" "http://www.w3.org/Graphics/SVG/1.1/DTD/svg11.dtd"><svg version="1.1" id="Layer_1" xmlns="http://www.w3.org/2000/svg" xmlns:xlink="http://www.w3.org/1999/xlink" x="0px" y="0px" width="150px" height="150px" viewBox="0 0 150 150" enable-background="new 0 0 150 150" xml:space="preserve"><circle fill="#92E3FF" cx="74.8" cy="75" r="61"/><path fill="#7AC70C" d="M63.5,104.8c-5.8-5.8-15.3-5.8-21.2,0l-11.9,11.9C41.5,128.6,57.3,136,74.8,136c4.1,0,8.2-0.4,12.1-1.2	c0.1-3.9-1.4-7.9-4.3-10.9L63.5,104.8z"/><path fill="#7AC70C" d="M134.1,60.4h-15.5c-4.7,0-8.6,3.9-8.6,8.6c0,4.7,3.9,8.6,8.6,8.6h17.2c0-0.9,0.1-1.8,0.1-2.7	C135.8,70,135.2,65.1,134.1,60.4z"/><path fill="#7AC70C" d="M122.2,113.4c8.2-10.1,13.2-22.8,13.6-36.8H114c-9.4,0-17,7.7-17,17v0c0,9.3,7.6,17,17,17h-0.7	C116.6,110.7,119.7,111.7,122.2,113.4z"/><path fill="#7AC70C" d="M127.3,45v-1.1c-4-6.8-9.3-12.7-15.6-17.5c-0.9,1.3-1.4,3-1.4,4.7V45c0,4.7,3.8,8.5,8.5,8.5	C123.5,53.5,127.3,49.7,127.3,45z"/><path fill="#7AC70C" d="M80.6,39.1V27.9c0-4.9-4-8.9-8.9-8.9h-6.7C60,19,56,23,56,27.9v3.8c-0.1,0.1-0.3,0.2-0.4,0.3l-6.6,6.6h-8.6	v-14C24.4,35.6,13.8,54.1,13.8,75c0,9.4,2.1,18.2,5.9,26.2c2.8,2.3,6.8,3.1,10.5,1.6c5.3-2.1,7.8-8.2,5.7-13.5l-6.7-16.7h13.7	l7.9,7.9c2.3,2.3,6.2,2.3,8.5,0c2.3-2.3,2.3-6.2,0-8.5l-1.7-1.7c1.3-0.7,2.5-1.6,3.5-2.7c0.8-0.5,1.6-1.2,2.4-1.9l12.9-12.9	c3.4-3.4,4.7-8,4.1-12.4C80.5,40,80.6,39.6,80.6,39.1z"/></svg>