<?xml version="1.0" encoding="utf-8"?><!DOCTYPE svg PUBLIC "-//W3C//DTD SVG 1.1//EN" "http://www.w3.org/Graphics/SVG/1.1/DTD/svg11.dtd"><svg version="1.1" id="Layer_1" xmlns="http://www.w3.org/2000/svg" xmlns:xlink="http://www.w3.org/1999/xlink" x="0px" y="0px" width="150px" height="150px" viewBox="0 0 150 150" enable-background="new 0 0 150 150" xml:space="preserve"><path fill="#7AC70C" d="M2.5,137.4v-6.3c0-20.2,16.3-36.5,36.5-36.5h0c20.2,0,36.5,16.3,36.5,36.5v6.3"/><path fill="#66A00B" d="M54.8,115.8v-14c0-8.8-7.2-16-16-16h0c-8.8,0-16,7.2-16,16v14l16.2-5.2L54.8,115.8z"/><path fill="#753629" d="M39,73.5c-5.8,0-10.6,4.6-10.6,10.3v12.4c0,5.7,4.8,10.3,10.6,10.3s10.6-4.6,10.6-10.3V83.9	C49.6,78.2,44.8,73.5,39,73.5z"/><polygon fill="#753629" points="46.2,103.7 39,110.6 31.8,103.7"/><circle fill="#66A00B" cx="39" cy="118.9" r="2.2"/><circle fill="#66A00B" cx="39" cy="130" r="2.2"/><g><ellipse fill="#753629" cx="10.8" cy="59.3" rx="7.1" ry="6.6"/></g><g><ellipse fill="#753629" cx="67.5" cy="59.3" rx="7.1" ry="6.6"/></g><g><path fill="#773F32" d="M39.2,94.2L39.2,94.2c-15.7,0-28.4-12.7-28.4-28.4l0-23.6c0-15.7,12.7-28.4,28.4-28.4h0 c15.7,0,28.4,12.7,28.4,28.4v23.6C67.5,81.5,54.8,94.2,39.2,94.2z"/></g><path fill="#66362C" d="M10.8,66.3C11,81.7,23.6,94.2,39.2,94.2h0c15.5,0,28.1-12.5,28.4-27.9H10.8z"/><path fill="#44211C" d="M10.8,41.5h56.7c-0.4-15.4-12.9-27.7-28.4-27.7h0C23.7,13.8,11.2,26.2,10.8,41.5z"/><g><path fill="#571413" d="M54,66.3c0,8.2-6.6,14.8-14.8,14.8l0,0c-8.2,0-14.8-6.6-14.8-14.8H54z"/></g><rect x="17.8" y="35.5" fill="#773F32" width="42.6" height="23.8"/><g><path fill="#F2F2F2" d="M25.2,71h28.1c0.5-1.5,0.8-3.1,0.8-4.8H24.4C24.4,67.9,24.7,69.5,25.2,71z"/></g><g><circle fill="#602C25" cx="25.4" cy="52.6" r="3.5"/></g><g><circle fill="#602C25" cx="52.9" cy="52.6" r="3.5"/></g><g><rect x="32.8" y="48.2" fill="#662B23" width="13.4" height="15.2"/></g><g><path fill="#6D1818" d="M47.5,78.5c-2-2.3-4.9-3.8-8.2-3.8l0,0c-3.3,0-6.3,1.5-8.3,3.8c2.4,1.6,5.2,2.5,8.2,2.5 C42.3,81.1,45.1,80.1,47.5,78.5z"/></g><path fill="#FFAA00" d="M102.9,74.8L102.9,74.8c-11.3,0-20.5-9.2-20.5-20.5V24.9c0-11.3,9.2-20.5,20.5-20.5h0	c11.3,0,20.5,9.2,20.5,20.5v29.4C123.3,65.6,114.1,74.8,102.9,74.8z"/><path fill="#FFAA00" d="M128.6,75.5L128.6,75.5c-5.8,0-10.5-4.7-10.5-10.5V27.2c0-5.8,4.7-10.5,10.5-10.5h0	c5.8,0,10.5,4.7,10.5,10.5V65C139.1,70.8,134.4,75.5,128.6,75.5z"/><path fill="#7F3B20" d="M74.1,137.4v-6.3c0-20.2,16.3-36.5,36.5-36.5h0c20.2,0,36.5,16.3,36.5,36.5v6.3"/><path fill="#662E1B" d="M90.6,137.4v-36.8c0-10.9,8.9-19.9,19.9-19.9h0c10.9,0,19.9,8.9,19.9,19.9v36.8"/><rect x="100" y="96.2" fill="#FFFFFF" width="21.2" height="41.2"/><path fill="#F78C00" d="M112.8,47.5L112.8,47.5c-5.8,0-10.5-4.7-10.5-10.5V23.7c0-5.8,4.7-10.5,10.5-10.5h0	c5.8,0,10.5,4.7,10.5,10.5V37C123.3,42.8,118.6,47.5,112.8,47.5z"/><path fill="#FF9D8A" d="M110.6,73.5c-5.8,0-10.6,4.6-10.6,10.3v12.4c0,5.7,4.8,10.3,10.6,10.3c5.8,0,10.6-4.6,10.6-10.3V83.9	C121.2,78.2,116.4,73.5,110.6,73.5z"/><g><ellipse fill="#FF9D8A" cx="82.4" cy="59.3" rx="7.1" ry="6.6"/></g><g><ellipse fill="#FF9D8A" cx="139.1" cy="59.3" rx="7.1" ry="6.6"/></g><g><path fill="#FFB5A1" d="M110.8,94.2L110.8,94.2c-15.7,0-28.4-12.7-28.4-28.4V52.5c0-15.7,12.7-28.4,28.4-28.4h0 c15.7,0,28.4,12.7,28.4,28.4v13.3C139.1,81.5,126.4,94.2,110.8,94.2z"/></g><path fill="#FFAA00" d="M92.3,47.5L92.3,47.5c-5.4,0-9.9-4.5-9.9-9.9v-13c0-5.4,4.5-9.9,9.9-9.9h0c5.4,0,9.9,4.5,9.9,9.9v13	C102.2,43.1,97.7,47.5,92.3,47.5z"/><g opacity="0.68"><path fill="#B2473B" d="M125.7,67.1c0,8.2-6.6,14.8-14.8,14.8l0,0c-8.2,0-14.8-6.6-14.8-14.8H125.7z"/></g><g><path fill="#F2F2F2" d="M96.9,71.9h28.1c0.5-1.5,0.8-3.1,0.8-4.8H96.1C96.1,68.7,96.4,70.4,96.9,71.9z"/></g><g><circle fill="#EA9486" cx="96.3" cy="53.4" r="3.5"/></g><g><circle fill="#EA9486" cx="125.4" cy="53.4" r="3.5"/></g><g><rect x="106.2" y="49.9" fill="#FF9D8A" width="9.3" height="13.8"/></g><g opacity="0.68"><path fill="#B2473B" d="M119.2,79.4c-2-2.3-4.9-3.8-8.2-3.8l0,0c-3.3,0-6.3,1.5-8.3,3.8c2.4,1.6,5.2,2.5,8.2,2.5 C114,81.9,116.8,81,119.2,79.4z"/></g><path fill="#44211C" d="M39,91L39,91c-1.4,0-2.5-1.1-2.5-2.5v-2.6c0-1.4,1.1-2.5,2.5-2.5h0c1.4,0,2.5,1.1,2.5,2.5v2.6	C41.5,89.8,40.4,91,39,91z"/></svg>