<?xml version="1.0" encoding="UTF-8" standalone="no"?><svg width="125px" height="128px" viewBox="0 0 125 128" version="1.1" xmlns="http://www.w3.org/2000/svg" xmlns:xlink="http://www.w3.org/1999/xlink" xmlns:sketch="http://www.bohemiancoding.com/sketch/ns"><title>cat</title><desc>Created with Sketch.</desc><defs/><g id="Page-1" stroke="none" stroke-width="1" fill="none" fill-rule="evenodd" sketch:type="MSPage"><g id="cat" sketch:type="MSLayerGroup"><path d="M81.001,127.458 L48.505,127.458 C45.153,127.458 42.411,124.716 42.411,121.364 C42.411,118.012 45.153,115.269 48.505,115.269 L81.001,115.269 C84.353,115.269 87.095,118.012 87.095,121.364 C87.095,124.716 84.353,127.458 81.001,127.458" id="Fill-1" fill="#EF7E29" sketch:type="MSShapeGroup"/><path d="M118.75,127.458 L86.255,127.458 C82.903,127.458 80.16,124.716 80.16,121.364 C80.16,118.012 82.903,115.269 86.255,115.269 L118.75,115.269 C122.102,115.269 124.845,118.012 124.845,121.364 C124.845,124.716 122.102,127.458 118.75,127.458" id="Fill-2" fill="#EF7E29" sketch:type="MSShapeGroup"/><path d="M63.742,96.731 C54.308,96.731 46.633,89.056 46.633,79.622 C46.633,59.406 30.186,42.959 9.969,42.959 C4.57,42.959 0.193,47.336 0.193,52.736 C0.193,58.136 4.57,62.513 9.969,62.513 C19.404,62.513 27.079,70.188 27.079,79.622 C27.079,99.838 43.525,116.285 63.742,116.285 C69.142,116.285 73.518,111.908 73.518,106.508 C73.518,101.108 69.142,96.731 63.742,96.731" id="Fill-3" fill="#EF7E29" sketch:type="MSShapeGroup"/><path d="M90.362,127.458 L63.173,127.458 C61.153,127.458 59.499,125.805 59.499,123.784 L59.499,120.869 C59.499,118.848 61.153,117.194 63.173,117.194 L90.362,117.194 C92.383,117.194 94.036,118.848 94.036,120.869 L94.036,123.784 C94.036,125.805 92.383,127.458 90.362,127.458" id="Fill-4" fill="#EF7E29" sketch:type="MSShapeGroup"/><path d="M93.752,127.575 L74.183,127.575 C60.615,127.575 49.516,116.475 49.516,102.908 L49.516,31.518 C49.516,17.951 60.615,6.852 74.183,6.852 L93.752,6.852 C107.319,6.852 118.419,17.951 118.419,31.518 L118.419,102.908 C118.419,116.475 107.319,127.575 93.752,127.575" id="Fill-5" fill="#EF7E29" sketch:type="MSShapeGroup"/><path d="M93.453,55.328 C93.453,60.567 89.206,64.813 83.967,64.813 C78.728,64.813 74.481,60.567 74.481,55.328 C74.481,50.089 78.728,45.842 83.967,45.842 C89.206,45.842 93.453,50.089 93.453,55.328" id="Fill-6" fill="#FFDCC5" sketch:type="MSShapeGroup"/><path d="M92.344,58.372 L84.721,54.804 C84.171,54.546 83.535,54.546 82.984,54.804 L75.361,58.372 C75.061,58.513 74.729,58.592 74.398,58.569 C70.663,58.307 67.688,55.169 67.688,51.37 C67.688,47.401 70.935,44.154 74.903,44.154 L92.802,44.154 C96.77,44.154 100.017,47.401 100.017,51.37 C100.017,55.169 97.043,58.307 93.308,58.569 C92.977,58.592 92.644,58.513 92.344,58.372" id="Fill-7" fill="#FFFFFF" sketch:type="MSShapeGroup"/><path d="M107.245,18.602 L118.406,18.602 L118.406,59.777 L107.245,59.777 L107.245,18.602 Z" id="Fill-8" fill="#EF7E29" sketch:type="MSShapeGroup"/><path d="M72.561,32.891 C72.561,35.848 70.164,38.245 67.207,38.245 C64.25,38.245 61.853,35.848 61.853,32.891" id="Fill-9" fill="#C95F17" sketch:type="MSShapeGroup"/><path d="M106.081,32.891 C106.081,35.848 103.684,38.245 100.727,38.245 C97.77,38.245 95.373,35.848 95.373,32.891" id="Fill-10" fill="#C95F17" sketch:type="MSShapeGroup"/><path d="M118.419,20.132 L118.333,3.315 C118.323,1.328 116.018,0.235 114.472,1.484 L91.417,20.132 L118.419,20.132" id="Fill-11" fill="#EF7E29" sketch:type="MSShapeGroup"/><path d="M49.516,20.132 L49.602,3.315 C49.612,1.328 51.917,0.235 53.462,1.484 L76.518,20.132 L49.516,20.132" id="Fill-12" fill="#EF7E29" sketch:type="MSShapeGroup"/><path d="M49.516,19.841 L60.593,19.841 L60.593,59.487 L49.516,59.487 L49.516,19.841 Z" id="Fill-13" fill="#EF7E29" sketch:type="MSShapeGroup"/><path d="M92.287,127.458 L88.456,127.458 C85.8,127.458 83.628,125.285 83.628,122.63 L83.628,85.36 C83.628,82.704 85.8,80.532 88.456,80.532 L92.287,80.532 C94.943,80.532 97.116,82.704 97.116,85.36 L97.116,122.63 C97.116,125.285 94.943,127.458 92.287,127.458" id="Fill-14" fill="#E26917" sketch:type="MSShapeGroup"/><path d="M79.018,127.458 L75.188,127.458 C72.532,127.458 70.359,125.285 70.359,122.63 L70.359,85.36 C70.359,82.704 72.532,80.532 75.188,80.532 L79.018,80.532 C81.674,80.532 83.847,82.704 83.847,85.36 L83.847,122.63 C83.847,125.285 81.674,127.458 79.018,127.458" id="Fill-15" fill="#E26917" sketch:type="MSShapeGroup"/><path d="M103.695,76.538 C103.695,87.496 94.811,96.38 83.853,96.38 C72.894,96.38 64.011,87.496 64.011,76.538" id="Fill-16" fill="#EF7E29" sketch:type="MSShapeGroup"/><path d="M97.589,127.458 L70.345,127.458 C66.988,127.458 64.239,124.711 64.239,121.352 L64.239,121.343 C64.239,117.985 66.988,115.237 70.345,115.237 L97.589,115.237 C100.947,115.237 103.695,117.985 103.695,121.343 L103.695,121.352 C103.695,124.711 100.947,127.458 97.589,127.458" id="Fill-17" fill="#E26917" sketch:type="MSShapeGroup"/><path d="M69.667,74.734 L104.368,74.734 L104.368,90.796 L69.667,90.796 L69.667,74.734 Z" id="Fill-18" fill="#EF7E29" sketch:type="MSShapeGroup"/><path d="M49.516,59.778 L57.27,59.778 C61.4,59.778 64.748,63.126 64.748,67.256 C64.748,71.386 61.4,74.734 57.27,74.734 L49.516,74.734" id="Fill-19" fill="#E26917" sketch:type="MSShapeGroup"/><path d="M49.516,79.331 L57.27,79.331 C61.4,79.331 64.748,82.679 64.748,86.809 C64.748,90.939 61.4,94.287 57.27,94.287 L49.516,94.287" id="Fill-20" fill="#E26917" sketch:type="MSShapeGroup"/><path d="M118.406,94.287 L110.651,94.287 C106.521,94.287 103.173,90.939 103.173,86.809 C103.173,82.679 106.521,79.331 110.651,79.331 L118.406,79.331" id="Fill-21" fill="#E26917" sketch:type="MSShapeGroup"/><path d="M118.406,74.734 L110.651,74.734 C106.521,74.734 103.173,71.386 103.173,67.256 C103.173,63.126 106.521,59.778 110.651,59.778 L118.406,59.778" id="Fill-22" fill="#E26917" sketch:type="MSShapeGroup"/><path d="M87.967,45.689 L84.88,50.932 C84.474,51.622 83.46,51.622 83.054,50.932 L79.967,45.689 C79.561,44.999 80.069,44.138 80.88,44.138 L87.054,44.138 C87.866,44.138 88.373,44.999 87.967,45.689" id="Fill-23" fill="#FF8AC5" sketch:type="MSShapeGroup"/><path d="M72.053,49.473 L58.489,47.483 C57.872,47.392 57.442,46.814 57.533,46.198 C57.623,45.581 58.201,45.151 58.818,45.241 L72.382,47.231 C72.998,47.321 73.429,47.9 73.338,48.516 C73.247,49.133 72.669,49.563 72.053,49.473" id="Fill-24" fill="#E26917" sketch:type="MSShapeGroup"/><path d="M72.381,54.48 L58.814,56.443 C58.197,56.532 57.62,56.101 57.531,55.484 C57.441,54.868 57.872,54.29 58.489,54.201 L72.057,52.238 C72.674,52.148 73.251,52.58 73.34,53.196 C73.43,53.813 72.998,54.391 72.381,54.48" id="Fill-25" fill="#E26917" sketch:type="MSShapeGroup"/><path d="M95.132,49.909 L108.695,47.919 C109.312,47.829 109.742,47.251 109.652,46.634 C109.561,46.018 108.983,45.587 108.367,45.678 L94.802,47.667 C94.186,47.758 93.756,48.336 93.847,48.953 C93.937,49.569 94.515,50 95.132,49.909" id="Fill-26" fill="#E26917" sketch:type="MSShapeGroup"/><path d="M94.803,54.916 L108.37,56.88 C108.987,56.969 109.565,56.537 109.654,55.921 C109.743,55.304 109.312,54.727 108.695,54.637 L95.127,52.674 C94.511,52.585 93.933,53.016 93.844,53.633 C93.755,54.25 94.186,54.827 94.803,54.916" id="Fill-27" fill="#E26917" sketch:type="MSShapeGroup"/></g></g></svg>