<?xml version="1.0" encoding="utf-8"?><!DOCTYPE svg PUBLIC "-//W3C//DTD SVG 1.1//EN" "http://www.w3.org/Graphics/SVG/1.1/DTD/svg11.dtd"><svg version="1.1" id="Layer_1" xmlns="http://www.w3.org/2000/svg" xmlns:xlink="http://www.w3.org/1999/xlink" x="0px" y="0px" width="150px" height="150px" viewBox="0 0 150 150" enable-background="new 0 0 150 150" xml:space="preserve"><path fill="#A86C43" d="M126.3,51.2L42.7,78.3c-1.6,0.5-3.4-0.4-3.9-2v0c-0.5-1.6,0.4-3.4,2-3.9l83.6-27.2c1.6-0.5,3.4,0.4,3.9,2v0	C128.8,48.9,127.9,50.7,126.3,51.2z"/><path fill="#A86C43" d="M144.4,60.7l-104.9,9c-1.7,0.1-3.2-1.1-3.4-2.8v0c-0.1-1.7,1.1-3.2,2.8-3.4l104.9-9c1.7-0.1,3.2,1.1,3.4,2.8	v0C147.4,59.1,146.1,60.6,144.4,60.7z"/><path fill="#686868" d="M107.3,74c0,28.6-23.2,51.9-51.9,51.9S3.5,102.6,3.5,74"/><path fill="#FFFFFF" d="M9.3,74c0-25.4,20.6-46.1,46.1-46.1s46.1,20.6,46.1,46.1"/><path fill="#606060" d="M74.1,130.3H35.9c-2.1,0-3.9-1.7-3.9-3.9v0c0-2.1,1.7-3.9,3.9-3.9h38.1c2.1,0,3.9,1.7,3.9,3.9v0	C77.9,128.5,76.2,130.3,74.1,130.3z"/><path fill="#E0E0E0" d="M50.2,60.7h-9.8c-1.2,0-2.2-1-2.2-2.2v0c0-1.2,1-2.2,2.2-2.2h9.8c1.2,0,2.2,1,2.2,2.2v0	C52.3,59.7,51.4,60.7,50.2,60.7z"/><path fill="#E0E0E0" d="M57.6,54.3l-6.1-7.7c-0.7-0.9-0.6-2.3,0.4-3h0c0.9-0.7,2.3-0.6,3,0.4l6.1,7.7c0.7,0.9,0.6,2.3-0.4,3l0,0	C59.7,55.4,58.4,55.2,57.6,54.3z"/><path fill="#E0E0E0" d="M71,59.1l-8.2,5.5c-1,0.7-2.3,0.4-3-0.6h0c-0.7-1-0.4-2.3,0.6-3l8.2-5.5c1-0.7,2.3-0.4,3,0.6l0,0	C72.3,57.1,72,58.5,71,59.1z"/></svg>