<?xml version="1.0" encoding="utf-8"?><!DOCTYPE svg PUBLIC "-//W3C//DTD SVG 1.1//EN" "http://www.w3.org/Graphics/SVG/1.1/DTD/svg11.dtd"><svg version="1.1" id="Layer_1" xmlns="http://www.w3.org/2000/svg" xmlns:xlink="http://www.w3.org/1999/xlink" x="0px" y="0px" width="150px" height="150px" viewBox="0 0 150 150" enable-background="new 0 0 150 150" xml:space="preserve"><path fill="#DDDDDD" d="M42.7,119.5L42.7,119.5c-8,0-14.5-6.5-14.5-14.5V19.6c0-8,6.5-14.5,14.5-14.5h0c8,0,14.5,6.5,14.5,14.5V105	C57.2,113,50.6,119.5,42.7,119.5z"/><circle fill="#DDDDDD" cx="42.7" cy="115.5" r="29.2"/><ellipse fill="#D33131" cx="42.7" cy="115.5" rx="20.1" ry="19.9"/><path fill="#D33131" d="M42.8,13.6h-0.2c-3.9,0-7.1,3.2-7.1,7.1v79.4c0,3.9,3.2,7.1,7.1,7.1h0.2c3.9,0,7.1-3.2,7.1-7.1V20.7	C49.8,16.8,46.6,13.6,42.8,13.6z"/><g><polygon fill="#FF9D00" points="82.6,53.9 96.8,33.2 111,53.9"/><polygon fill="#FF9D00" points="111,92.6 96.8,113.2 82.6,92.6"/><polygon fill="#FF9D00" points="77.4,87.4 56.8,73.2 77.4,59"/><polygon fill="#FF9D00" points="116.2,59 136.8,73.2 116.2,87.4"/><polygon fill="#FFB000" points="72.9,71 66.9,46.6 91.8,49.7"/><polygon fill="#FFB000" points="120.7,75.5 126.7,99.8 101.8,96.7"/><polygon fill="#FFB000" points="99.1,49.3 123.4,43.4 120.3,68.2"/><polygon fill="#FFB000" points="94.5,97.1 70.2,103.1 73.3,78.2"/><circle fill="#FFC200" cx="96.7" cy="73.1" r="25.9"/></g><path fill="#BA2D2D" d="M38.4,47.8h-2.9v5.7h2.9c1.6,0,2.8-1.3,2.8-2.8C41.3,49.1,40,47.8,38.4,47.8z"/><rect x="28.2" y="47.8" fill="#C9C9C9" width="7.4" height="5.7"/><path fill="#BA2D2D" d="M38.4,73.9h-2.9v5.7h2.9c1.6,0,2.8-1.3,2.8-2.8C41.3,75.2,40,73.9,38.4,73.9z"/><rect x="28.2" y="73.9" fill="#C9C9C9" width="7.4" height="5.7"/><path fill="#BA2D2D" d="M38.4,25.3h-2.9v5.7h2.9c1.6,0,2.8-1.3,2.8-2.8C41.3,26.5,40,25.3,38.4,25.3z"/><rect x="28.2" y="25.3" fill="#C9C9C9" width="7.4" height="5.7"/></svg>