<?xml version="1.0" encoding="utf-8"?><!DOCTYPE svg PUBLIC "-//W3C//DTD SVG 1.1//EN" "http://www.w3.org/Graphics/SVG/1.1/DTD/svg11.dtd"><svg version="1.1" id="Layer_1" xmlns="http://www.w3.org/2000/svg" xmlns:xlink="http://www.w3.org/1999/xlink" x="0px" y="0px" width="150px" height="150px" viewBox="0 0 150 150" enable-background="new 0 0 150 150" xml:space="preserve"><g><path fill="#00BDFF" d="M43,103.2l2.6-4c2-3,4.4-3.1,7.4-1.2c3.4,2.3,9.2,5.8,16.6,5.8c9.6,0,16.6-5.8,16.6-13.8 c0-9.8-9-14.3-19.8-14.3h-2c-3,0-4.7-1-6-3.8l-0.5-1c-1.2-2.3-0.8-4.8,1.2-7l14.2-16.8c3.5-4.3,6.6-7,6.6-7v-0.3 c0,0-2.9,0.4-8.2,0.4H49.6c-3.5,0-5.3-1.8-5.3-5.3v-3.6c0-3.5,1.8-5.5,5.3-5.5h45.5c3.6,0,5.5,1.8,5.5,5.3v1.4 c0,2.7-0.7,4.7-2.5,6.6L78,62.5c12.9,1.8,25.2,10.9,25.2,26.9c0,15.7-11.8,30.3-32.5,30.3c-12.9,0-22.1-5.6-26.7-9 C41.3,108.7,41,106,43,103.2z"/></g></svg>