<?xml version="1.0" encoding="utf-8"?><!DOCTYPE svg PUBLIC "-//W3C//DTD SVG 1.1//EN" "http://www.w3.org/Graphics/SVG/1.1/DTD/svg11.dtd"><svg version="1.1" id="Layer_1" xmlns="http://www.w3.org/2000/svg" xmlns:xlink="http://www.w3.org/1999/xlink" x="0px" y="0px" width="150px" height="150px" viewBox="0 0 150 150" enable-background="new 0 0 150 150" xml:space="preserve"><path fill="#88C11A" d="M146,26c-0.1-0.5-0.4-0.9-0.9-1.1c-0.5-0.2-1-0.1-1.4,0.2l-4.3,3.6l-11.3-3l-10.1-10.9	c-0.3-0.4-0.9-0.5-1.4-0.4c-0.5,0.1-0.9,0.5-1,1l-3.5,11.7l-4.3,1.4c-0.5,0.2-0.8,0.5-0.9,1l-2,8.2c-0.1,0.6,0.1,1.2,0.6,1.5	c0.5,0.3,1.2,0.3,1.6-0.1l3.7-2.9l3.1,4l-15.4,4.7c-0.7,0.2-1.2,1-0.9,1.7l1.4,4.9l-14.7,5.6l-23.9-3.9v-2.1c0-0.5-0.3-1-0.8-1.3	l-9.8-4.7l3.5-7c0.3-0.6,0.2-1.2-0.3-1.7l-8.2-7.8c-0.3-0.3-0.7-0.4-1.1-0.4c-0.4,0-0.8,0.2-1,0.5L37.2,36l-12.9,1.6	c-0.7,0.1-1.2,0.6-1.2,1.3L22.6,48L5.8,50c-0.6,0.1-1.1,0.6-1.2,1.2L2.4,63.9c-0.1,0.4,0,0.8,0.2,1.1L10,75.1l-2.6,8.8	c-0.2,0.6,0.1,1.3,0.7,1.6l27.1,14.8l9.8,7.7c0.4,0.3,1,0.4,1.5,0.2l7.8-3.9l10.6,2l-6.3,9.8c-0.4,0.6-0.2,1.5,0.4,1.9l11.5,8.2	c0.4,0.3,1,0.3,1.5,0.1l11-6.2v4.6c0,0.7,0.6,1.3,1.3,1.4l7.7,0.7l2.9,7.4c0.2,0.5,0.7,0.8,1.2,0.9c0,0,0.1,0,0.1,0	c0.5,0,1-0.3,1.2-0.7l5.1-8.7l21.8-10.9c0.3-0.1,0.5-0.4,0.6-0.6l7.2-14.4c0.1-0.2,0.1-0.4,0.1-0.6v-6.6c0-0.3-0.1-0.6-0.3-0.9	L120.8,78l7.6-8.4c0.3-0.4,0.5-0.9,0.3-1.4c-0.2-0.5-0.6-0.8-1.1-0.9l-2.5-0.5l20-17.7c0.4-0.4,0.6-0.9,0.4-1.5l-2.9-9.7l3.9-2.4	c0.5-0.3,0.7-0.8,0.7-1.4L146,26z M119.9,66.4l-3.4,3.1l-2.5-3.1l8.3-6.1v5.9c0,0,0,0,0,0.1l-1.2-0.2	C120.7,65.9,120.2,66.1,119.9,66.4z"/><path fill="#7CAA18" d="M74.1,80.5h-0.1c-0.6,0-1-0.5-1-1v-2.6c0-0.6,0.5-1,1-1h0.1c0.6,0,1,0.5,1,1v2.6	C75.1,80.1,74.6,80.5,74.1,80.5z"/><path fill="#7CAA18" d="M77.1,80.5H77c-0.6,0-1-0.5-1-1v-4.2c0-0.6,0.5-1,1-1h0.1c0.6,0,1,0.5,1,1v4.2	C78.2,80.1,77.7,80.5,77.1,80.5z"/><path fill="#7CAA18" d="M80.2,80.5h-0.1c-0.6,0-1-0.5-1-1v-1.9c0-0.6,0.5-1,1-1h0.1c0.6,0,1,0.5,1,1v1.9	C81.2,80.1,80.8,80.5,80.2,80.5z"/><path fill="#7CAA18" d="M30.5,65.7h-0.1c-0.6,0-1-0.5-1-1v-2.6c0-0.6,0.5-1,1-1h0.1c0.6,0,1,0.5,1,1v2.6	C31.5,65.2,31.1,65.7,30.5,65.7z"/><path fill="#7CAA18" d="M33.6,65.7h-0.1c-0.6,0-1-0.5-1-1v-4.2c0-0.6,0.5-1,1-1h0.1c0.6,0,1,0.5,1,1v4.2	C34.6,65.2,34.1,65.7,33.6,65.7z"/><path fill="#7CAA18" d="M36.7,65.7h-0.1c-0.6,0-1-0.5-1-1v-1.9c0-0.6,0.5-1,1-1h0.1c0.6,0,1,0.5,1,1v1.9	C37.7,65.2,37.2,65.7,36.7,65.7z"/><path fill="#7CAA18" d="M41.1,90.1H41c-0.6,0-1-0.5-1-1v-2.6c0-0.6,0.5-1,1-1h0.1c0.6,0,1,0.5,1,1v2.6	C42.1,89.6,41.7,90.1,41.1,90.1z"/><path fill="#7CAA18" d="M44.2,90.1h-0.1c-0.6,0-1-0.5-1-1v-4.2c0-0.6,0.5-1,1-1h0.1c0.6,0,1,0.5,1,1v4.2	C45.2,89.6,44.8,90.1,44.2,90.1z"/><path fill="#7CAA18" d="M47.3,90.1h-0.1c-0.6,0-1-0.5-1-1v-1.9c0-0.6,0.5-1,1-1h0.1c0.6,0,1,0.5,1,1v1.9	C48.3,89.6,47.8,90.1,47.3,90.1z"/><path fill="#7CAA18" d="M125.2,50.9H125c-0.6,0-1-0.5-1-1v-2.6c0-0.6,0.5-1,1-1h0.1c0.6,0,1,0.5,1,1v2.6	C126.2,50.5,125.7,50.9,125.2,50.9z"/><path fill="#7CAA18" d="M128.2,50.9h-0.1c-0.6,0-1-0.5-1-1v-4.2c0-0.6,0.5-1,1-1h0.1c0.6,0,1,0.5,1,1v4.2	C129.3,50.5,128.8,50.9,128.2,50.9z"/><path fill="#7CAA18" d="M131.3,50.9h-0.1c-0.6,0-1-0.5-1-1V48c0-0.6,0.5-1,1-1h0.1c0.6,0,1,0.5,1,1v1.9	C132.4,50.5,131.9,50.9,131.3,50.9z"/><path fill="#7CAA18" d="M91.2,110.1h-0.1c-0.6,0-1-0.5-1-1v-2.6c0-0.6,0.5-1,1-1h0.1c0.6,0,1,0.5,1,1v2.6	C92.3,109.7,91.8,110.1,91.2,110.1z"/><path fill="#7CAA18" d="M94.3,110.1h-0.1c-0.6,0-1-0.5-1-1v-4.2c0-0.6,0.5-1,1-1h0.1c0.6,0,1,0.5,1,1v4.2	C95.3,109.7,94.9,110.1,94.3,110.1z"/><path fill="#7CAA18" d="M97.4,110.1h-0.1c-0.6,0-1-0.5-1-1v-1.9c0-0.6,0.5-1,1-1h0.1c0.6,0,1,0.5,1,1v1.9	C98.4,109.7,98,110.1,97.4,110.1z"/><g><path fill="#FFFFFF" d="M109.4,43.8c0-16.1-13.1-29.2-29.2-29.2c-16.1,0-29.2,13.1-29.2,29.2c0,9.2,4.3,17.5,11,22.8h-0.1 l18.3,18.6l18.3-18.6h-0.1C105.1,61.3,109.4,53.1,109.4,43.8z"/><circle fill="#D33131" cx="80.1" cy="43.5" r="26.4"/><path fill="#FFC200" d="M68.9,30.5l1.4,4.2c0.1,0.3,0.3,0.4,0.6,0.4h4.4c0.6,0,0.9,0.8,0.4,1.1l-3.6,2.6c-0.2,0.2-0.3,0.4-0.2,0.7 l1.4,4.2c0.2,0.6-0.5,1.1-1,0.7l-3.6-2.6c-0.2-0.2-0.5-0.2-0.7,0l-3.6,2.6c-0.5,0.4-1.2-0.1-1-0.7l1.4-4.2c0.1-0.3,0-0.5-0.2-0.7 L61,36.3c-0.5-0.4-0.2-1.1,0.4-1.1h4.4c0.3,0,0.5-0.2,0.6-0.4l1.4-4.2C67.9,29.9,68.8,29.9,68.9,30.5z"/><path fill="#FFC200" d="M77.1,22.7l0.6,1.7c0,0.1,0.1,0.2,0.2,0.2h1.8c0.2,0,0.3,0.3,0.1,0.5l-1.4,1c-0.1,0.1-0.1,0.2-0.1,0.3 l0.6,1.7c0.1,0.2-0.2,0.4-0.4,0.3l-1.4-1c-0.1-0.1-0.2-0.1-0.3,0l-1.4,1c-0.2,0.1-0.5,0-0.4-0.3l0.6-1.7c0-0.1,0-0.2-0.1-0.3 l-1.4-1c-0.2-0.1-0.1-0.5,0.1-0.5h1.8c0.1,0,0.2-0.1,0.2-0.2l0.6-1.7C76.7,22.4,77,22.4,77.1,22.7z"/><path fill="#FFC200" d="M81.9,30.6l0.6,1.7c0,0.1,0.1,0.2,0.2,0.2h1.8c0.2,0,0.3,0.3,0.1,0.5l-1.4,1c-0.1,0.1-0.1,0.2-0.1,0.3 l0.6,1.7c0.1,0.2-0.2,0.4-0.4,0.3l-1.4-1c-0.1-0.1-0.2-0.1-0.3,0l-1.4,1c-0.2,0.1-0.5,0-0.4-0.3l0.6-1.7c0-0.1,0-0.2-0.1-0.3 l-1.4-1c-0.2-0.1-0.1-0.5,0.1-0.5h1.8c0.1,0,0.2-0.1,0.2-0.2l0.6-1.7C81.5,30.4,81.8,30.4,81.9,30.6z"/><path fill="#FFC200" d="M81.9,39.4l0.6,1.7c0,0.1,0.1,0.2,0.2,0.2h1.8c0.2,0,0.3,0.3,0.1,0.5l-1.4,1c-0.1,0.1-0.1,0.2-0.1,0.3 l0.6,1.7c0.1,0.2-0.2,0.4-0.4,0.3l-1.4-1c-0.1-0.1-0.2-0.1-0.3,0L80,45c-0.2,0.1-0.5,0-0.4-0.3l0.6-1.7c0-0.1,0-0.2-0.1-0.3l-1.4-1 c-0.2-0.1-0.1-0.5,0.1-0.5h1.8c0.1,0,0.2-0.1,0.2-0.2l0.6-1.7C81.5,39.1,81.8,39.1,81.9,39.4z"/><path fill="#FFC200" d="M77.1,46.5l0.6,1.7c0,0.1,0.1,0.2,0.2,0.2h1.8c0.2,0,0.3,0.3,0.1,0.5l-1.4,1c-0.1,0.1-0.1,0.2-0.1,0.3 l0.6,1.7c0.1,0.2-0.2,0.4-0.4,0.3l-1.4-1c-0.1-0.1-0.2-0.1-0.3,0l-1.4,1c-0.2,0.1-0.5,0-0.4-0.3l0.6-1.7c0-0.1,0-0.2-0.1-0.3 l-1.4-1c-0.2-0.1-0.1-0.5,0.1-0.5h1.8c0.1,0,0.2-0.1,0.2-0.2l0.6-1.7C76.7,46.3,77,46.3,77.1,46.5z"/></g></svg>