<?xml version="1.0" encoding="utf-8"?><!DOCTYPE svg PUBLIC "-//W3C//DTD SVG 1.1//EN" "http://www.w3.org/Graphics/SVG/1.1/DTD/svg11.dtd"><svg version="1.1" id="Layer_1" xmlns="http://www.w3.org/2000/svg" xmlns:xlink="http://www.w3.org/1999/xlink" x="0px" y="0px" width="150px" height="150px" viewBox="0 0 150 150" enable-background="new 0 0 150 150" xml:space="preserve"><path fill="#FFAA00" d="M119.9,29.6H66.6c-1.3,2.3-3.8,3.8-6.6,3.8s-5.3-1.5-6.6-3.8H28.9c-3.5,0-6.4,2.9-6.4,6.4v31.3	c0.2,0,0.4,0,0.6,0c4.2,0,7.7,3.4,7.7,7.7s-3.4,7.7-7.7,7.7c-0.2,0-0.4,0-0.6,0v21.3c0,3.5,2.9,6.4,6.4,6.4h91	c3.5,0,6.4-2.9,6.4-6.4V35.9C126.2,32.4,123.4,29.6,119.9,29.6z"/><path fill="#E58D00" d="M122.6,110.2H86.7V29.6h35.9c2.9,0,5.2,2.3,5.2,5.2V105C127.8,107.9,125.5,110.2,122.6,110.2z"/><circle fill="#E58D00" cx="46.4" cy="50.3" r="7.7"/><circle fill="#E58D00" cx="66.1" cy="73.7" r="7.7"/><ellipse fill="#E58D00" cx="43.4" cy="94.1" rx="5.8" ry="5.6"/></svg>