<?xml version="1.0" encoding="utf-8"?><!DOCTYPE svg PUBLIC "-//W3C//DTD SVG 1.1//EN" "http://www.w3.org/Graphics/SVG/1.1/DTD/svg11.dtd"><svg version="1.1" id="Layer_1" xmlns="http://www.w3.org/2000/svg" xmlns:xlink="http://www.w3.org/1999/xlink" x="0px" y="0px" width="150px" height="150px" viewBox="0 0 150 150" enable-background="new 0 0 150 150" xml:space="preserve"><rect x="64.2" y="6.7" transform="matrix(0.7071 0.7071 -0.7071 0.7071 75.8438 -29.2822)" fill="#C17F3E" width="18.1" height="140.5"/><rect x="105.6" y="30.8" transform="matrix(0.7071 0.7071 -0.7071 0.7071 60.43 -66.3922)" fill="#935A2F" width="9.5" height="17.8"/><circle fill="#935A2F" cx="73.3" cy="76.9" r="3.8"/><circle fill="#935A2F" cx="53.3" cy="96.9" r="3.8"/><circle fill="#935A2F" cx="33.3" cy="116.9" r="3.8"/><path fill="#C17F3E" d="M129.2,33.8L116.4,21c-0.8-0.8-0.8-2.1,0-2.9v0c0.8-0.8,2.1-0.8,2.9,0l12.8,12.8c0.8,0.8,0.8,2.1,0,2.9v0	C131.3,34.6,130,34.6,129.2,33.8z"/></svg>