<?xml version="1.0" encoding="utf-8"?><!DOCTYPE svg PUBLIC "-//W3C//DTD SVG 1.1//EN" "http://www.w3.org/Graphics/SVG/1.1/DTD/svg11.dtd"><svg version="1.1" xmlns="http://www.w3.org/2000/svg" xmlns:xlink="http://www.w3.org/1999/xlink" x="0px" y="0px" width="150px" height="150px" viewBox="0 0 150 150" enable-background="new 0 0 150 150" xml:space="preserve"><g id="Layer_2"><rect x="-1020" y="-340" fill="#F0F0F0" width="1680" height="1677.3"/></g><g id="Layer_1"><path fill="#FFB600" d="M48.1,30.8c-9.4,0-17.1,7.7-17.1,17.1v2.8v9.9v37h0c9.4,0,17.1-7.7,17.1-17.1v-2.8v-9.9L48.1,30.8 L48.1,30.8z"/><path fill="#0C2930" d="M121.8,20.4C96-5.3,54.2-5.3,28.4,20.4l46.7,46.7L121.8,20.4z"/><path fill="#0C2930" d="M30,149.3v-7.7c0-24.6,19.9-44.5,44.5-44.5h0c24.6,0,44.5,19.9,44.5,44.5v7.7"/><g><path fill="#001419" d="M35.4,122.4c-0.3,0-0.7-0.1-1-0.2c-1-0.5-1.3-1.7-0.8-2.7c3.3-6.1,8.1-11.5,13.7-15.6 c0.9-0.6,2.1-0.4,2.8,0.5c0.6,0.9,0.4,2.2-0.5,2.8c-5.2,3.7-9.5,8.6-12.6,14.2C36.8,122,36.1,122.4,35.4,122.4z"/></g><g><path fill="#001419" d="M113.7,122.4c-0.7,0-1.4-0.4-1.8-1c-3-5.6-7.4-10.5-12.6-14.2c-0.9-0.6-1.1-1.9-0.5-2.8 c0.6-0.9,1.9-1.1,2.8-0.5c5.7,4.1,10.4,9.4,13.7,15.6c0.5,1,0.2,2.2-0.8,2.7C114.3,122.3,114,122.4,113.7,122.4z"/></g><polygon fill="#FF9D8A" points="84.5,106.9 74.6,116.4 64.6,106.9"/><polygon fill="#001419" points="84.3,117.3 74.6,134.3 64.8,117.3"/><path fill="#001419" d="M80.8,149.3l-4-26c-0.8,0.5-1.8-1.3-2.9-1.5c-0.4,0-0.8,1.8-1.2,1.6c0,0,0,0-0.1,0 c-0.1-0.1-0.2-0.1-0.3-0.2l-4,26.1H80.8z"/><path fill="#B2B2B2" d="M103.9,130.8v5.4c0,4.5-3.7,8.3-8.3,8.3h0c-4.5,0-8.3-3.7-8.3-8.3v-5.4"/><rect x="41.9" y="131.2" fill="#1F393D" width="22.2" height="18.1"/><path fill="#1F393D" d="M67.5,129.7L67.5,129.7c0,4-3.3,7.3-7.3,7.3H46.1c-4,0-7.3-3.3-7.3-7.3v0"/><g><ellipse fill="#FF9D8A" cx="42.8" cy="57.5" rx="7.9" ry="7.4"/></g><g><ellipse fill="#FF9D8A" cx="106.1" cy="57.5" rx="7.9" ry="7.4"/></g><path fill="#FF9D8A" d="M74.5,68.1c-8.1,0-14.6,6.4-14.6,14.3v17.1c0,7.8,6.6,14.3,14.6,14.3s14.6-6.4,14.6-14.3V82.3 C89.1,74.5,82.5,68.1,74.5,68.1z"/><path fill="#1F393D" d="M96.4,124.8v-20.5c0-12.1-9.9-22-22-22h0c-12.1,0-22,9.9-22,22v20.5l22.3-7.2L96.4,124.8z"/><path fill="#FF9D8A" d="M74.5,113.6L74.5,113.6c-6.7,0-12.2-5.5-12.2-12.2V87.8c0-6.7,5.5-12.2,12.2-12.2h0 c6.7,0,12.2,5.5,12.2,12.2v13.6C86.7,108.1,81.3,113.6,74.5,113.6z"/><g><path fill="#FFB5A1" d="M106.1,38v27C106.1,82.7,92,97,74.5,97h0C57,97,42.8,82.7,42.8,65.1V38"/></g><g><path fill="#B2473B" d="M90.8,65.9c0,9-7.3,16.4-16.4,16.4l0,0c-9,0-16.4-7.3-16.4-16.4H90.8z"/></g><g><circle fill="#EA9486" cx="58.2" cy="50.3" r="3.9"/></g><g><circle fill="#EA9486" cx="90.8" cy="50.3" r="3.9"/></g><g><path fill="#FFFFFF" d="M58.9,70.9h31.2c0.6-1.7,0.9-3.4,0.9-5.3H58C58,67.4,58.3,69.2,58.9,70.9z"/></g><path fill="#001419" d="M109.6,32.7L109.6,32.7c0,6.7-5.5,12.3-12.3,12.3H53.1c-6.7,0-12.3-5.5-12.3-12.3v0"/><path fill="#B2B2B2" d="M84.9,9.4v6.3c0,5.4-4.4,9.8-9.8,9.8h0c-5.4,0-9.8-4.4-9.8-9.8V9.4"/><g><path fill="#FF9D8A" d="M78.3,60.7h-7.7c-0.8,0-1.5-0.7-1.5-1.5V47.7c0-0.8,0.7-1.5,1.5-1.5h7.7c0.8,0,1.5,0.7,1.5,1.5v11.5 C79.8,60.1,79.1,60.7,78.3,60.7z"/></g><polygon fill="#FF9D8A" points="83.9,109.2 74.6,117.6 65.2,109.2"/><rect x="85.9" y="129.3" fill="#BFBFBF" width="19.6" height="4.9"/><rect x="56.4" y="32.7" fill="#3C4F54" width="7.7" height="12.3"/><path fill="#CC4F46" d="M84.1,79.1c-2.3-2.8-5.7-4.6-9.6-4.6c-3.9,0-7.4,1.8-9.6,4.7c2.7,1.9,6,3.1,9.6,3.1 C78.1,82.3,81.4,81.1,84.1,79.1z"/><path fill="#BFBFBF" d="M84.9,9.4h-11l-8.3,8.3c0.6,2.8,2.4,5.2,4.8,6.5L84.9,9.7V9.4z"/></g><g id="Layer_3"/></svg>