<?xml version="1.0" encoding="utf-8"?><!DOCTYPE svg PUBLIC "-//W3C//DTD SVG 1.1//EN" "http://www.w3.org/Graphics/SVG/1.1/DTD/svg11.dtd"><svg version="1.1" id="Layer_1" xmlns="http://www.w3.org/2000/svg" xmlns:xlink="http://www.w3.org/1999/xlink" x="0px" y="0px" width="150px" height="150px" viewBox="0 0 150 150" enable-background="new 0 0 150 150" xml:space="preserve"><path fill="#353535" d="M132,118.4H17.8c-2.8,0-5.1-2.3-5.1-5.1V35.6c0-2.8,2.3-5.1,5.1-5.1H132c2.8,0,5.1,2.3,5.1,5.1v77.7	C137.1,116.1,134.8,118.4,132,118.4z"/><path fill="#AFAFAF" d="M144.2,119.1H5.8c-2.5,0-4.6-2.1-4.6-4.6v-1.1c0-2.5,2.1-4.6,4.6-4.6h138.4c2.5,0,4.6,2.1,4.6,4.6v1.1	C148.8,117.1,146.7,119.1,144.2,119.1z"/><rect x="19.4" y="37.2" fill="#00BDFF" width="110.9" height="64.1"/><path fill="#FFFFFF" d="M103.4,91.9h-57c-1.3,0-2.4-1.1-2.4-2.4V49c0-1.3,1.1-2.4,2.4-2.4h57c1.3,0,2.4,1.1,2.4,2.4v40.4	C105.8,90.8,104.7,91.9,103.4,91.9z"/><path fill="#D1D1D1" d="M103.1,46.6H46.8c-1.5,0-2.8,1.3-2.8,3v4.2h61.8v-4.2C105.8,48,104.6,46.6,103.1,46.6z"/><circle fill="#CE1300" cx="48.7" cy="50.2" r="1.7"/><circle fill="#FFE600" cx="53.9" cy="50.2" r="1.7"/><circle fill="#54A321" cx="59.1" cy="50.2" r="1.7"/><path fill="#353535" d="M88.9,113.2h-28c-2.1,0-3.9-1.7-3.9-3.9v-0.9c0-2.1,1.7-3.9,3.9-3.9h28c2.1,0,3.9,1.7,3.9,3.9v0.9	C92.7,111.5,91,113.2,88.9,113.2z"/></svg>