<?xml version="1.0" encoding="utf-8"?><!DOCTYPE svg PUBLIC "-//W3C//DTD SVG 1.1//EN" "http://www.w3.org/Graphics/SVG/1.1/DTD/svg11.dtd"><svg version="1.1" xmlns="http://www.w3.org/2000/svg" xmlns:xlink="http://www.w3.org/1999/xlink" x="0px" y="0px" width="150px" height="150px" viewBox="0 0 150 150" enable-background="new 0 0 150 150" xml:space="preserve"><g id="Layer_2" display="none"><rect x="-1190" y="-1357.3" display="inline" fill="#F0F0F0" width="1680" height="1677.3"/></g><g id="Layer_1"/><g id="Layer_3"><path fill="#80AF1B" d="M111,59L46.7,90.1c-3,1.5-6.7,0.2-8.2-2.8l-16-33.2L96,18.5c1-0.5,2.2-0.1,2.7,0.9l15.2,31.4 C115.3,53.8,114,57.5,111,59z"/><path fill="#8BC12B" d="M116.8,69.2L48.3,89.4c-3.2,1-6.6-0.9-7.6-4.1L30.3,49.9l78.3-23.1c1.1-0.3,2.2,0.3,2.5,1.3l9.9,33.4 C121.9,64.8,120,68.2,116.8,69.2z"/><path fill="#8E4819" d="M118.8,128.7H26.1c-5.1,0-9.3-4.2-9.3-9.3V58c0-5.1,4.2-9.3,9.3-9.3h92.7c5.1,0,9.3,4.2,9.3,9.3v61.4 C128.1,124.5,123.9,128.7,118.8,128.7z"/><path fill="#773E18" d="M133.3,102.3h-30.5c-7.8,0-14.2-6.3-14.2-14.2v0c0-7.8,6.3-14.2,14.2-14.2h30.5V102.3z"/><circle fill="#FFC715" cx="106" cy="88.1" r="7.8"/></g></svg>