<?xml version="1.0" encoding="utf-8"?><!DOCTYPE svg PUBLIC "-//W3C//DTD SVG 1.1//EN" "http://www.w3.org/Graphics/SVG/1.1/DTD/svg11.dtd"><svg version="1.1" id="Layer_1" xmlns="http://www.w3.org/2000/svg" xmlns:xlink="http://www.w3.org/1999/xlink" x="0px" y="0px" width="150px" height="150px" viewBox="0 0 150 150" enable-background="new 0 0 150 150" xml:space="preserve"><path fill="none" stroke="#D38200" stroke-width="5.428" stroke-miterlimit="10" d="M75.5,81.7L75.5,81.7c-4.7,0-8.4-3.8-8.4-8.4	V57.4c0-4.7,3.8-8.4,8.4-8.4h0c4.7,0,8.4,3.8,8.4,8.4v15.8C83.9,77.9,80.1,81.7,75.5,81.7z"/><circle fill="#C97700" cx="75.5" cy="124.6" r="9.5"/><path fill="#D38200" d="M111.7,108.5L111.7,108.5c-4.6,0-8.3-3.7-8.3-8.3v-1.3V87c0-15.5-12.5-28-28-28h0c-15.5,0-28,12.5-28,28	v11.9v1.3c0,4.6-3.7,8.3-8.3,8.3h0.1c-3.7,0-6.7,3-6.7,6.7v9.3h85.8v-9.3C118.5,111.5,115.4,108.5,111.7,108.5z"/><path fill="none" stroke="#FFDE52" stroke-width="6.7876" stroke-linecap="round" stroke-linejoin="round" stroke-miterlimit="10" d="M76,65.1"/><path fill="none" stroke="#ED8C00" stroke-width="6.9788" stroke-linecap="round" stroke-linejoin="round" stroke-miterlimit="10" d="M57,98.4V86.8c0-7.7,4.7-14.2,11.3-17"/><rect x="19.6" y="21" fill="#A35D2E" width="111" height="30.2"/><rect x="19.6" y="44" fill="#A35D2E" width="24.3" height="25.7"/><rect x="106.3" y="44" fill="#A35D2E" width="24.3" height="25.7"/><path fill="#A35D2E" d="M86.6,47.2H65.9c-2.6,0-4.7-2.1-4.7-4.7V21.4c0-2.6,2.1-4.7,4.7-4.7h20.7c2.6,0,4.7,2.1,4.7,4.7v21.1	C91.3,45.1,89.2,47.2,86.6,47.2z"/><rect x="10.2" y="48.1" fill="#D38200" width="9.4" height="21.6"/><path fill="#915227" d="M72.2,46.1H53.1c-1.1,0-2.1-0.9-2.1-2.1v0c0-1.1,0.9-2.1,2.1-2.1h19.1c1.1,0,2.1,0.9,2.1,2.1v0	C74.2,45.2,73.3,46.1,72.2,46.1z"/><path fill="#915227" d="M104.2,35.1H82.1c-1.1,0-2.1-0.9-2.1-2.1v0c0-1.1,0.9-2.1,2.1-2.1h22.1c1.1,0,2.1,0.9,2.1,2.1v0	C106.3,34.2,105.4,35.1,104.2,35.1z"/><path fill="#915227" d="M124.3,40.1h-11.2c-1.1,0-2.1-0.9-2.1-2.1v0c0-1.1,0.9-2.1,2.1-2.1h11.2c1.1,0,2.1,0.9,2.1,2.1v0	C126.4,39.2,125.4,40.1,124.3,40.1z"/><path fill="#915227" d="M123.3,66.1h-13.2c-1.1,0-2.1-0.9-2.1-2.1v0c0-1.1,0.9-2.1,2.1-2.1h13.2c1.1,0,2.1,0.9,2.1,2.1v0	C125.4,65.2,124.4,66.1,123.3,66.1z"/><path fill="#915227" d="M103.3,45.1H92.1c-1.1,0-2.1-0.9-2.1-2.1v0c0-1.1,0.9-2.1,2.1-2.1h11.2c1.1,0,2.1,0.9,2.1,2.1v0	C105.4,44.2,104.4,45.1,103.3,45.1z"/><path fill="#915227" d="M37.3,63.1H26.1c-1.1,0-2.1-0.9-2.1-2.1v0c0-1.1,0.9-2.1,2.1-2.1h11.2c1.1,0,2.1,0.9,2.1,2.1v0	C39.4,62.2,38.4,63.1,37.3,63.1z"/><rect x="130.6" y="48.1" fill="#D38200" width="9.4" height="21.6"/><path fill="#D38200" d="M77.3,58L77.3,58c-1.2-0.5-1.8-1.9-1.4-3.1l14-35.9c0.5-1.2,1.9-1.8,3.1-1.4l0,0c1.2,0.5,1.8,1.9,1.4,3.1	l-14,35.9C79.9,57.9,78.6,58.5,77.3,58z"/><path fill="#D38200" d="M74,58L74,58c1.2-0.5,1.8-1.9,1.4-3.1L61.4,19c-0.5-1.2-1.9-1.8-3.1-1.4l0,0c-1.2,0.5-1.8,1.9-1.4,3.1	l14,35.9C71.4,57.9,72.8,58.5,74,58z"/><path fill="#915227" d="M52.2,36.1H33.1c-1.1,0-2.1-0.9-2.1-2.1v0c0-1.1,0.9-2.1,2.1-2.1h19.1c1.1,0,2.1,0.9,2.1,2.1v0	C54.2,35.2,53.3,36.1,52.2,36.1z"/></svg>