<?xml version="1.0" encoding="utf-8"?><!DOCTYPE svg PUBLIC "-//W3C//DTD SVG 1.1//EN" "http://www.w3.org/Graphics/SVG/1.1/DTD/svg11.dtd"><svg version="1.1" id="Layer_1" xmlns="http://www.w3.org/2000/svg" xmlns:xlink="http://www.w3.org/1999/xlink" x="0px" y="0px" width="150px" height="150px" viewBox="0 0 150 150" enable-background="new 0 0 150 150" xml:space="preserve"><circle fill="#FFFFFF" cx="74.4" cy="65.7" r="57.1"/><path fill="#FFFFFF" d="M58.2,112.3c0,17,13.8,30.8,30.8,30.8v-30.8H58.2z"/><circle fill="#FFC200" cx="74.4" cy="65.7" r="46.6"/><path fill="#CC2F2F" d="M32.9,86.9c7.7,15,23.4,25.3,41.5,25.3s33.7-10.3,41.5-25.3H32.9z"/><path fill="#CC2F2F" d="M32.9,44.4h82.9c-7.7-15-23.4-25.3-41.5-25.3S40.6,29.4,32.9,44.4z"/><path fill="#CC2F2F" d="M60,76.9h-1.7c-3.8,0-6.9-3.1-6.9-6.9l0-11.7H67v11.7C67,73.7,63.8,76.9,60,76.9z"/><path fill="#CC2F2F" d="M64.5,57H53.8c-1.4,0-2.5-1.1-2.5-2.5v-0.6c0-1.4,1.1-2.5,2.5-2.5h10.7c1.4,0,2.5,1.1,2.5,2.5v0.6	C67,55.9,65.8,57,64.5,57z"/><path fill="#FFFFFF" d="M48.5,58.1h-6.6c-0.6,0-1,0.5-1,1v0.2c0,0.6,0.5,1,1,1h0.2v14.3h-0.2c-0.6,0-1,0.5-1,1v0.2c0,0.6,0.5,1,1,1	h6.6c0.6,0,1-0.5,1-1v-0.2c0-0.6-0.5-1-1-1h-0.2V60.4h0.2c0.6,0,1-0.5,1-1v-0.2C49.6,58.6,49.1,58.1,48.5,58.1z"/><path fill="#FFFFFF" d="M76.4,60.4c0.6,0,1-0.5,1-1v-0.2c0-0.6-0.5-1-1-1h-6.6c-0.6,0-1,0.5-1,1v0.2c0,0.6,0.5,1,1,1H70v14.3h-0.2	c-0.6,0-1,0.5-1,1v0.2c0,0.6,0.5,1,1,1h6.6c0.6,0,1-0.5,1-1v-0.2c0-0.6-0.5-1-1-1h-0.2V60.4H76.4z"/></svg>