<?xml version="1.0" encoding="UTF-8" standalone="no"?><svg width="171px" height="147px" viewBox="0 0 171 147" version="1.1" xmlns="http://www.w3.org/2000/svg" xmlns:xlink="http://www.w3.org/1999/xlink" xmlns:sketch="http://www.bohemiancoding.com/sketch/ns"><title>dogs</title><desc>Created with Sketch.</desc><defs/><g id="Page-1" stroke="none" stroke-width="1" fill="none" fill-rule="evenodd" sketch:type="MSPage"><g id="dogs" sketch:type="MSLayerGroup"><path d="M121.005,145.451 L121.005,145.451 C116.949,145.451 113.662,142.164 113.662,138.109 L113.662,89.875 C113.662,85.82 116.949,82.532 121.005,82.532 C125.06,82.532 128.348,85.82 128.348,89.875 L128.348,138.109 C128.348,142.164 125.06,145.451 121.005,145.451" id="Fill-1" fill="#9B4E2C" sketch:type="MSShapeGroup"/><path d="M135.637,138.108 L135.637,138.109 C135.637,142.164 132.349,145.451 128.294,145.451 L121.005,145.451 C116.949,145.451 113.662,142.164 113.662,138.109 L113.662,138.108 C113.662,134.053 116.949,130.766 121.005,130.766 L128.294,130.766 C132.349,130.766 135.637,134.053 135.637,138.108" id="Fill-2" fill="#9B4E2C" sketch:type="MSShapeGroup"/><path d="M56.092,137.661 L56.092,137.661 C47.504,129.072 47.504,115.147 56.092,106.558 L105.36,57.29 C113.949,48.701 127.875,48.701 136.463,57.29 L136.464,57.29 C145.053,65.878 145.053,79.804 136.464,88.393 L87.195,137.661 C78.607,146.25 64.681,146.25 56.092,137.661" id="Fill-3" fill="#47221A" sketch:type="MSShapeGroup"/><path d="M64.005,145.438 C54.2,145.438 44.98,141.619 38.047,134.684 C23.731,120.371 23.731,97.078 38.047,82.764 C40.391,80.417 44.198,80.417 46.542,82.764 C48.889,85.109 48.889,88.914 46.542,91.259 C36.912,100.89 36.912,116.558 46.542,126.189 C51.207,130.853 57.409,133.422 64.005,133.422 C70.604,133.422 76.806,130.853 81.471,126.189 C83.814,123.843 87.622,123.843 89.966,126.189 C92.313,128.535 92.313,132.339 89.966,134.684 C83.033,141.619 73.813,145.438 64.005,145.438" id="Fill-4" fill="#3F1F17" sketch:type="MSShapeGroup"/><path d="M124.77,89.696 L124.77,89.696 C114.421,89.696 106.032,81.307 106.032,70.958 L106.032,33.456 C106.032,23.107 114.421,14.718 124.77,14.718 C135.119,14.718 143.508,23.107 143.508,33.456 L143.508,70.958 C143.508,81.307 135.119,89.696 124.77,89.696" id="Fill-5" fill="#47221A" sketch:type="MSShapeGroup"/><path d="M94.334,145.438 L70.147,145.438 C66.095,145.438 62.811,142.153 62.811,138.102 C62.811,134.05 66.095,130.766 70.147,130.766 L94.334,130.766 C98.385,130.766 101.67,134.05 101.67,138.102 C101.67,142.153 98.385,145.438 94.334,145.438" id="Fill-6" fill="#9B4E2C" sketch:type="MSShapeGroup"/><path d="M170.932,22.805 L170.932,26.436 C170.932,36.796 162.534,45.194 152.175,45.194 L142.626,45.194 C132.266,45.194 123.868,36.796 123.868,26.436 L123.868,22.805" id="Fill-7" fill="#47221A" sketch:type="MSShapeGroup"/><path d="M170.932,26.436 L170.932,22.805 L162.467,22.805 C152.108,22.805 143.709,31.203 143.709,41.563 L143.709,45.194 L152.175,45.194 C162.534,45.194 170.932,36.796 170.932,26.436" id="Fill-8" fill="#9B4E2C" sketch:type="MSShapeGroup"/><path d="M170.509,29.763 L170.603,29.763 C170.609,29.763 170.615,29.762 170.621,29.762 C170.814,28.681 170.932,27.573 170.932,26.436 L170.932,22.805 L163.552,22.805 C163.552,26.647 166.666,29.763 170.509,29.763" id="Fill-9" fill="#000000" sketch:type="MSShapeGroup"/><path d="M136.651,24.682 C136.651,26.79 134.942,28.499 132.834,28.499 C130.727,28.499 129.018,26.79 129.018,24.682" id="Fill-10" fill="#000000" sketch:type="MSShapeGroup"/><path d="M72.561,99.569 C59.907,99.569 49.65,109.826 49.65,122.479 C49.65,135.132 59.907,145.39 72.561,145.39 C85.214,145.39 95.471,135.132 95.471,122.479 C95.471,109.826 85.214,99.569 72.561,99.569" id="Fill-11" fill="#47221A" sketch:type="MSShapeGroup"/><path d="M161.506,28.983 C161.506,29.66 160.957,30.209 160.279,30.209 C159.602,30.209 159.053,29.66 159.053,28.983 C159.053,28.305 159.602,27.756 160.279,27.756 C160.957,27.756 161.506,28.305 161.506,28.983" id="Fill-12" fill="#874227" sketch:type="MSShapeGroup"/><path d="M165.638,33.115 C165.638,33.792 165.089,34.341 164.411,34.341 C163.734,34.341 163.185,33.792 163.185,33.115 C163.185,32.437 163.734,31.888 164.411,31.888 C165.089,31.888 165.638,32.437 165.638,33.115" id="Fill-13" fill="#874227" sketch:type="MSShapeGroup"/><path d="M161.506,33.115 C161.506,33.792 160.957,34.341 160.279,34.341 C159.602,34.341 159.053,33.792 159.053,33.115 C159.053,32.437 159.602,31.888 160.279,31.888 C160.957,31.888 161.506,32.437 161.506,33.115" id="Fill-14" fill="#874227" sketch:type="MSShapeGroup"/><path d="M106.032,1.281 L106.032,37.583 C106.032,38.193 106.525,38.686 107.135,38.686 L124.786,38.686 C125.6,38.686 126.134,37.834 125.778,37.101 L108.127,0.798 C107.615,-0.254 106.032,0.11 106.032,1.281" id="Fill-15" fill="#47221A" sketch:type="MSShapeGroup"/><path d="M128.348,124.252 L126.603,124.252 C119.456,124.252 113.662,118.458 113.662,111.311 L113.662,57.416 C113.662,50.269 119.456,44.474 126.603,44.474 L128.348,44.474" id="Fill-16" fill="#47221A" sketch:type="MSShapeGroup"/><path d="M104.337,49.15 L144.822,49.15 L144.822,56.623 L104.337,56.623 L104.337,49.15 Z" id="Fill-17" fill="#CC2F2F" sketch:type="MSShapeGroup"/><path d="M66.278,146.128 L66.278,146.128 C62.209,146.128 58.909,142.83 58.909,138.76 L58.909,103.875 C58.909,99.805 62.209,96.506 66.278,96.506 C70.347,96.506 73.647,99.805 73.647,103.875 L73.647,138.76 C73.647,142.83 70.347,146.128 66.278,146.128" id="Fill-18" fill="#CEBFBA" sketch:type="MSShapeGroup"/><path d="M80.962,138.76 L80.962,138.76 C80.962,142.83 77.662,146.128 73.593,146.128 L66.278,146.128 C62.209,146.128 58.909,142.83 58.909,138.76 C58.909,134.691 62.209,131.392 66.278,131.392 L73.593,131.392 C77.662,131.392 80.962,134.691 80.962,138.76" id="Fill-19" fill="#CEBFBA" sketch:type="MSShapeGroup"/><path d="M17.952,129.454 L7.184,129.454 C3.661,129.454 0.806,126.598 0.806,123.076 C0.806,119.554 3.661,116.698 7.184,116.698 L17.952,116.698 C21.475,116.698 24.33,119.554 24.33,123.076 C24.33,126.598 21.475,129.454 17.952,129.454" id="Fill-20" fill="#8E4629" sketch:type="MSShapeGroup"/><path d="M13.172,138.311 L13.172,138.311 C4.553,129.692 4.553,115.718 13.172,107.098 L40.39,79.88 C49.009,71.261 62.984,71.261 71.603,79.88 C80.222,88.499 80.222,102.473 71.603,111.092 L44.385,138.311 C35.765,146.93 21.791,146.93 13.172,138.311" id="Fill-21" fill="#CEBFBA" sketch:type="MSShapeGroup"/><path d="M59.423,113.785 L59.423,113.785 C49.038,113.785 40.619,105.366 40.619,94.981 L40.619,59.995 C40.619,51.523 47.486,44.656 55.957,44.656 L59.423,44.656 C69.808,44.656 78.227,53.075 78.227,63.46 L78.227,94.981 C78.227,105.366 69.808,113.785 59.423,113.785" id="Fill-22" fill="#CEBFBA" sketch:type="MSShapeGroup"/><path d="M84.7,76.262 L84.7,76.262 C82.657,76.262 81,74.606 81,72.563 L81,60.185 C81,58.142 82.657,56.485 84.7,56.485 C86.743,56.485 88.4,58.142 88.4,60.185 L88.4,72.563 C88.4,74.606 86.743,76.262 84.7,76.262" id="Fill-23" fill="#4F2816" sketch:type="MSShapeGroup"/><path d="M51.548,146.115 L27.276,146.115 C23.21,146.115 19.914,142.819 19.914,138.753 C19.914,134.688 23.21,131.392 27.276,131.392 L51.548,131.392 C55.613,131.392 58.909,134.688 58.909,138.753 C58.909,142.819 55.613,146.115 51.548,146.115" id="Fill-24" fill="#A85231" sketch:type="MSShapeGroup"/><path d="M13.172,138.311 L13.172,138.311 C4.553,129.692 4.553,115.718 13.172,107.098 L40.606,79.664 L57.259,96.317 C65.3,104.358 65.3,117.395 57.259,125.436 L44.385,138.311 C35.765,146.93 21.791,146.93 13.172,138.311" id="Fill-25" fill="#9B4E2C" sketch:type="MSShapeGroup"/><path d="M90.708,60.831 L90.708,65.259 C90.708,77.888 80.47,88.127 67.84,88.127 L68.792,88.127 C56.162,88.127 45.924,77.888 45.924,65.259 L45.924,60.831" id="Fill-26" fill="#CEBFBA" sketch:type="MSShapeGroup"/><path d="M70.258,66.1 L70.258,66.1 C67.348,69.01 62.63,69.01 59.72,66.1 C56.811,63.19 56.811,58.473 59.72,55.563 C62.63,52.653 67.348,52.653 70.258,55.563 C73.168,58.473 73.168,63.19 70.258,66.1" id="Fill-27" fill="#9B4E2C" sketch:type="MSShapeGroup"/><path d="M29.698,100.085 C17.001,100.085 6.708,110.378 6.708,123.076 C6.708,135.773 17.001,146.067 29.698,146.067 C42.396,146.067 52.688,135.773 52.688,123.076 C52.688,110.378 42.396,100.085 29.698,100.085" id="Fill-28" fill="#A85231" sketch:type="MSShapeGroup"/><path d="M80.239,79.22 L80.239,79.22 C78.196,79.22 76.54,77.564 76.54,75.521 L76.54,56.3 C76.54,54.257 78.196,52.601 80.239,52.601 C82.283,52.601 83.939,54.257 83.939,56.3 L83.939,75.521 C83.939,77.564 82.283,79.22 80.239,79.22" id="Fill-29" fill="#CEBFBA" sketch:type="MSShapeGroup"/><path d="M70.086,58.874 C70.086,60.497 68.771,61.812 67.147,61.812 C65.525,61.812 64.209,60.497 64.209,58.874" id="Fill-30" fill="#4F2816" sketch:type="MSShapeGroup"/><path d="M40.619,45.87 L40.619,57.475 C40.619,58.584 41.982,59.113 42.73,58.294 L53.328,46.689 C54.04,45.91 53.487,44.656 52.431,44.656 L41.833,44.656 C41.162,44.656 40.619,45.2 40.619,45.87" id="Fill-31" fill="#9B4E2C" sketch:type="MSShapeGroup"/><path d="M85.025,64.204 C84.592,63.772 84.592,63.07 85.025,62.638 C85.457,62.205 86.158,62.205 86.59,62.638 C87.023,63.07 87.023,63.772 86.59,64.204 C86.158,64.637 85.457,64.637 85.025,64.204" id="Fill-32" fill="#8E7369" sketch:type="MSShapeGroup"/></g></g></svg>