<?xml version="1.0" encoding="utf-8"?><!DOCTYPE svg PUBLIC "-//W3C//DTD SVG 1.1//EN" "http://www.w3.org/Graphics/SVG/1.1/DTD/svg11.dtd"><svg version="1.1" id="Layer_1" xmlns="http://www.w3.org/2000/svg" xmlns:xlink="http://www.w3.org/1999/xlink" x="0px" y="0px" width="150px" height="150px" viewBox="0 0 150 150" enable-background="new 0 0 150 150" xml:space="preserve"><path fill="#E28100" d="M79.8,136.6L79.8,136.6c-2,0-3.6-1.6-3.6-3.6v-17.8c0-2,1.6-3.6,3.6-3.6l0,0c2,0,3.6,1.6,3.6,3.6v17.8	C83.3,135,81.7,136.6,79.8,136.6z"/><path fill="#E28100" d="M94.3,135.8L94.3,135.8c0,2-1.6,3.6-3.6,3.6H74.8c-2,0-3.6-1.6-3.6-3.6v0c0-2,1.6-3.6,3.6-3.6h15.9	C92.7,132.2,94.3,133.8,94.3,135.8z"/><path fill="#FFAA00" d="M66,136.6L66,136.6c-2,0-3.6-1.6-3.6-3.6v-17.8c0-2,1.6-3.6,3.6-3.6h0c2,0,3.6,1.6,3.6,3.6v17.8	C69.6,135,67.9,136.6,66,136.6z"/><path fill="#FFAA00" d="M80.6,135.8L80.6,135.8c0,2-1.6,3.6-3.6,3.6H61.1c-2,0-3.6-1.6-3.6-3.6v0c0-2,1.6-3.6,3.6-3.6H77	C79,132.2,80.6,133.8,80.6,135.8z"/><path fill="#74B700" d="M99.7,94.2L99.7,94.2c-9.4,0-17-7.6-17-17V26.8c0-9.4,7.6-17,17-17h0c9.4,0,17,7.6,17,17v50.5	C116.6,86.6,109,94.2,99.7,94.2z"/><path fill="#FFAA00" d="M127.1,42.4h-21.5c-3.3,0-5.9-2.7-5.9-5.9v0c0-3.3,2.7-5.9,5.9-5.9h21.5c3.3,0,5.9,2.7,5.9,5.9v0	C133.1,39.7,130.4,42.4,127.1,42.4z"/><circle fill="#517209" cx="92.7" cy="28.5" r="4.2"/><path fill="#C4816A" d="M116.5,82.9c0,18.2-14.7,32.9-32.9,32.9H48.8c-18.2,0-32.9-14.7-32.9-32.9v0"/><path fill="#C4816A" d="M85,115.8H54.6c-14.2,0-25.7-11.5-25.7-25.7v0c0-12.3,10-22.3,22.3-22.3h65.4v16.4	C116.6,101.6,102.5,115.8,85,115.8z"/><rect x="82.7" y="60.6" fill="#FFFFFF" width="33.9" height="7.2"/><path fill="#A56B5B" d="M91.2,79.7c0,3.4-2.7,6.1-6.1,6.1c-3.4,0-6.1-2.7-6.1-6.1"/><path fill="#A56B5B" d="M111.9,79.7c0,3.4-2.7,6.1-6.1,6.1c-3.4,0-6.1-2.7-6.1-6.1"/><path fill="#A56B5B" d="M101.5,91.1c0,3.4-2.7,6.1-6.1,6.1c-3.4,0-6.1-2.7-6.1-6.1"/></svg>