<?xml version="1.0" encoding="utf-8"?><!DOCTYPE svg PUBLIC "-//W3C//DTD SVG 1.1//EN" "http://www.w3.org/Graphics/SVG/1.1/DTD/svg11.dtd"><svg version="1.1" xmlns="http://www.w3.org/2000/svg" xmlns:xlink="http://www.w3.org/1999/xlink" x="0px" y="0px" width="150px" height="150px" viewBox="0 0 150 150" enable-background="new 0 0 150 150" xml:space="preserve"><g id="Layer_2" display="none"><rect x="-1190" y="-510" display="inline" fill="#F0F0F0" width="1680" height="1677.3"/></g><g id="Layer_1"><path fill="#5B332D" d="M105.3,53.7H45.4c-3.6,0-6.6-2.9-6.6-6.6V47c0-3.6,2.9-6.6,6.6-6.6h59.9c3.6,0,6.6,2.9,6.6,6.6v0.1 C111.9,50.8,108.9,53.7,105.3,53.7z"/><rect x="45.7" y="33.6" fill="#BF7358" width="59.3" height="19.2"/><path fill="#FFFFFF" d="M33.9,147.8v-10.2c0-22.9,18.6-41.5,41.5-41.5h0c22.9,0,41.5,18.6,41.5,41.5v10.2"/><circle fill="#B25C4B" cx="104.9" cy="60.7" r="6.9"/><circle fill="#B25C4B" cx="45.8" cy="60.7" r="6.9"/><path fill="#B25C4B" d="M77.5,111.9h-4.1c-5.2,0-9.4-4.2-9.4-9.4V84.7c0-5.2,4.2-9.4,9.4-9.4h4.1c5.2,0,9.4,4.2,9.4,9.4v17.8 C86.8,107.7,82.6,111.9,77.5,111.9z"/><g><path fill="#D33131" d="M75.4,75.3c6.3,0,11.4,5.1,11.4,11.4v13.7c0,6.3-5.1,11.4-11.4,11.4h0c-6.3,0-11.4-5.1-11.4-11.4V86.8 C64,80.5,69.1,75.3,75.4,75.3L75.4,75.3 M75.4,69.5c-9.5,0-17.2,7.7-17.2,17.2v13.7c0,9.5,7.7,17.2,17.2,17.2 c9.5,0,17.2-7.7,17.2-17.2V86.8C92.6,77.3,84.9,69.5,75.4,69.5L75.4,69.5z"/></g><path fill="#BF7358" d="M75.3,96.4L75.3,96.4c-16.4,0-29.7-13.3-29.7-29.7V40.1c0-16.4,13.3-29.7,29.7-29.7h0 c16.4,0,29.7,13.3,29.7,29.7v26.6C105,83.1,91.7,96.4,75.3,96.4z"/><circle fill="#A85F48" cx="60.1" cy="52.9" r="3.7"/><circle fill="#A85F48" cx="90.5" cy="52.9" r="3.7"/><path fill="#933634" d="M90.7,67.2c0,8.5-6.9,15.4-15.4,15.4S60,75.7,60,67.2"/><path fill="#FFFFFF" d="M60.8,72.1h29.1c0.5-1.5,0.8-3.2,0.8-4.9H60C60,68.9,60.3,70.5,60.8,72.1z"/><path fill="#AF3F3F" d="M84.3,79.6c-2.1-2.6-5.3-4.3-8.9-4.3h0c-3.6,0-6.8,1.7-8.9,4.3c2.5,1.8,5.6,2.9,8.9,2.9 C78.7,82.5,81.8,81.5,84.3,79.6z"/><path fill="#5B332D" d="M102.4,60.9L102.4,60.9c0,3.7-3.2,6.6-7.1,6.6H55.3c-3.9,0-7.1-3-7.1-6.6v0"/><path fill="#B25C4B" d="M78.8,62.6h-6.9c-0.8,0-1.5-0.7-1.5-1.5V50.6c0-0.8,0.7-1.5,1.5-1.5h6.9c0.8,0,1.5,0.7,1.5,1.5v10.5 C80.3,62,79.6,62.6,78.8,62.6z"/><rect x="45.7" y="16.8" fill="#FFFFFF" width="59.3" height="23.6"/><path fill="#FFFFFF" d="M104.9,21.8H45.8c-5.6,0-10.1-4.6-10.1-10.1v0c0-5.6,4.6-10.1,10.1-10.1h59.1c5.6,0,10.1,4.6,10.1,10.1v0 C115,17.2,110.4,21.8,104.9,21.8z"/><circle fill="#D33131" cx="75.3" cy="116.7" r="4.5"/><path fill="#D33131" d="M76,117.9c3.2-3.2,8.4-3.2,11.7,0c3.2,3.2,3.2,8.4,0,11.7"/><path fill="#D33131" d="M74.6,117.9c-3.2-3.2-8.4-3.2-11.7,0c-3.2,3.2-3.2,8.4,0,11.7"/><circle fill="#DDDDDD" cx="56.8" cy="139.8" r="3.9"/><circle fill="#DDDDDD" cx="73.9" cy="139.8" r="3.9"/></g><g id="Layer_3"/></svg>