<?xml version="1.0" encoding="utf-8"?><!DOCTYPE svg PUBLIC "-//W3C//DTD SVG 1.1//EN" "http://www.w3.org/Graphics/SVG/1.1/DTD/svg11.dtd"><svg version="1.1" id="Layer_1" xmlns="http://www.w3.org/2000/svg" xmlns:xlink="http://www.w3.org/1999/xlink" x="0px" y="0px" width="150px" height="150px" viewBox="0 0 150 150" enable-background="new 0 0 150 150" xml:space="preserve"><circle fill="#C62828" cx="91.4" cy="49.5" r="5.5"/><path fill="#C62828" d="M65.4,105.1H6.7c-3.1,0-5.6-2.5-5.6-5.6v0c0-3.1,2.5-5.6,5.6-5.6h58.7c3.1,0,5.6,2.5,5.6,5.6v0	C71.1,102.6,68.5,105.1,65.4,105.1z"/><path fill="#D33131" d="M91.4,48.4c-30.4,0-55.2,23.9-56.7,54c-0.1,1.5,1.1,2.8,2.6,2.8h108.1c1.5,0,2.7-1.3,2.6-2.8	C146.6,72.3,121.8,48.4,91.4,48.4z"/><path fill="#992525" d="M115.3,73c-11.4,0-20.8,8.6-22,19.7c-0.1,1.3,0.9,2.4,2.2,2.4h39.5c1.3,0,2.3-1.1,2.2-2.4	C136.1,81.6,126.7,73,115.3,73z"/><path fill="#E84D4D" d="M92.9,105.1h44.4v-12H92.9c-3.3,0-6,2.7-6,6v0C86.9,102.4,89.6,105.1,92.9,105.1z"/><circle fill="#FF6E6E" cx="132" cy="99.5" r="1.9"/><circle fill="#FF6E6E" cx="120.9" cy="99.5" r="1.9"/><circle fill="#FF6E6E" cx="109.8" cy="99.5" r="1.9"/><circle fill="#FF6E6E" cx="98.7" cy="99.5" r="1.9"/></svg>