<?xml version="1.0" encoding="utf-8"?><!DOCTYPE svg PUBLIC "-//W3C//DTD SVG 1.1//EN" "http://www.w3.org/Graphics/SVG/1.1/DTD/svg11.dtd"><svg version="1.1" id="Layer_1" xmlns="http://www.w3.org/2000/svg" xmlns:xlink="http://www.w3.org/1999/xlink" x="0px" y="0px" width="150px" height="150px" viewBox="0 0 150 150" enable-background="new 0 0 150 150" xml:space="preserve"><g><path fill="#00BDFF" d="M16.3,99.6l2.2-3.5c1.7-2.6,3.8-2.7,6.4-1c2.9,2,8,5,14.3,5c8.3,0,14.3-5,14.3-11.9c0-8.4-7.7-12.3-17-12.3 h-1.7c-2.6,0-4-0.9-5.2-3.2l-0.4-0.9c-1-2-0.7-4.1,1-6l12.2-14.4c3-3.7,5.7-6,5.7-6v-0.2c0,0-2.5,0.3-7.1,0.3H22.1 c-3,0-4.6-1.6-4.6-4.6v-3.1c0-3,1.6-4.7,4.6-4.7h39.2c3.1,0,4.7,1.6,4.7,4.6v1.2c0,2.4-0.6,4-2.1,5.7l-17.4,20 c11.1,1.6,21.7,9.4,21.7,23.2c0,13.6-10.2,26.1-28,26.1c-11.1,0-19-4.8-23-7.7C14.9,104.3,14.7,102,16.3,99.6z"/><path fill="#00BDFF" d="M75.6,72.6c0-22.8,7.1-41,28.8-41c21.7,0,28.9,18.1,28.9,41s-7.2,41.2-28.9,41.2 C82.6,113.9,75.6,95.5,75.6,72.6z M118.4,72.6c0-15.5-3.1-27.7-14-27.7c-10.9,0-14,12.2-14,27.7c0,15.7,3.1,28,14,28 C115.2,100.6,118.4,88.3,118.4,72.6z"/></g></svg>