<?xml version="1.0" encoding="utf-8"?><!DOCTYPE svg PUBLIC "-//W3C//DTD SVG 1.1//EN" "http://www.w3.org/Graphics/SVG/1.1/DTD/svg11.dtd"><svg version="1.1" id="Layer_1" xmlns="http://www.w3.org/2000/svg" xmlns:xlink="http://www.w3.org/1999/xlink" x="0px" y="0px" width="150px" height="150px" viewBox="0 0 150 150" enable-background="new 0 0 150 150" xml:space="preserve"><path fill="#CCCCCC" d="M81.1,146.8l-43.2-10.7c-4.1-1-6.6-5.3-5.3-9.4L56,52.8l47.8,11.8l-13.7,76.3	C89.4,145.1,85.2,147.8,81.1,146.8z"/><path fill="#FFFFFF" d="M78.1,136.5l-32.8-8.1c-2.5-0.6-3.9-3.2-3.1-5.6l11.6-36.9l39.8-8.5l-10,55.6	C83,135.5,80.6,137.1,78.1,136.5z"/><path fill="#9E9E9E" d="M112.6,48.9c1.7-7-2.5-14-9.5-15.8l-31.6-7.8c-7-1.7-14,2.5-15.8,9.5l0,0c-1,3.9,0,7.9,2.2,10.9l-1-0.3	c-2.8-0.7-5.7,1-6.4,3.8s1,5.7,3.8,6.4L104.1,68c2.8,0.7,5.7-1,6.4-3.8v0c0.7-2.8-1-5.7-3.8-6.4l-1-0.3	C108.9,55.9,111.6,52.8,112.6,48.9z"/><circle fill="#FFFFFF" cx="79" cy="5.7" r="3.7"/><circle fill="#FFFFFF" cx="90.5" cy="23.1" r="3.7"/><circle fill="#FFFFFF" cx="69.9" cy="73.2" r="3.7"/><circle fill="#FFFFFF" cx="106.4" cy="6.6" r="3.7"/></svg>