<?xml version="1.0" encoding="utf-8"?><!DOCTYPE svg PUBLIC "-//W3C//DTD SVG 1.1//EN" "http://www.w3.org/Graphics/SVG/1.1/DTD/svg11.dtd"><svg version="1.1" xmlns="http://www.w3.org/2000/svg" xmlns:xlink="http://www.w3.org/1999/xlink" x="0px" y="0px" width="150px" height="150px" viewBox="0 0 150 150" enable-background="new 0 0 150 150" xml:space="preserve"><g id="Layer_2" display="none"><rect x="-1360" y="-1017.3" display="inline" fill="#F0F0F0" width="1680" height="1677.3"/></g><g id="Layer_1"/><g id="Layer_3"><path fill="none" stroke="#9B9B9B" stroke-width="3.8656" stroke-linecap="round" stroke-linejoin="round" stroke-miterlimit="10" d="M31,95.6c-8.9,0-16.1-7.2-16.1-16.1v0c0-8.9,7.2-16.1,16.1-16.1h4"/><path fill="none" stroke="#9B9B9B" stroke-width="3.8656" stroke-linecap="round" stroke-linejoin="round" stroke-miterlimit="10" d="M30.3,95.6h4.9c4.8,0,8.8,4,8.8,8.8v0c0,4.8-4,8.8-8.8,8.8h-4.9"/><path fill="#FFC715" d="M136.7,65.3L136.7,65.3c0,27.7-22.6,50.3-50.3,50.3h-1c-27.7,0-50.3-22.6-50.3-50.3v0"/><circle fill="#AD7B5A" cx="104.1" cy="115" r="17"/><path fill="#F47400" d="M14.1,47.7L14.1,47.7c0-6.3,5.2-11.5,11.5-11.5h32.6c6.3,0,11.5,5.2,11.5,11.5v0"/><path fill="#FFC715" d="M35.1,65.8V38.7c0-12.1,9.9-22,22-22h0c12.1,0,22,9.9,22,22v27.2"/><circle fill="#AD7B5A" cx="64.2" cy="115" r="17"/><circle fill="#CE906E" cx="64.2" cy="115" r="4.5"/><circle fill="#CE906E" cx="104.1" cy="115" r="4.5"/><circle fill="#E8AE0C" cx="48.8" cy="33.9" r="3.7"/><path fill="#AAAAAA" d="M78.9,65.3H34.9c-1.1,0-1.9-0.9-1.9-1.9v0c0-1.1,0.9-1.9,1.9-1.9h43.9c1.1,0,1.9,0.9,1.9,1.9v0 C80.8,64.4,79.9,65.3,78.9,65.3z"/></g></svg>