<?xml version="1.0" encoding="utf-8"?><!DOCTYPE svg PUBLIC "-//W3C//DTD SVG 1.1//EN" "http://www.w3.org/Graphics/SVG/1.1/DTD/svg11.dtd"><svg version="1.1" id="Layer_1" xmlns="http://www.w3.org/2000/svg" xmlns:xlink="http://www.w3.org/1999/xlink" x="0px" y="0px" width="150px" height="150px" viewBox="0 0 150 150" enable-background="new 0 0 150 150" xml:space="preserve"><polyline fill="#C17D57" points="100.5,40.1 100.5,145 50,145 50,40.1"/><path fill="#A0674A" d="M58.1,72.2V52.5c0-2.6,2.1-4.8,4.8-4.8h0c2.6,0,4.8,2.1,4.8,4.8v19.7"/><path fill="#5CC464" d="M50,40.5L50,40.5c0,0.7,0.6,1.3,1.3,1.3h47.9c0.7,0,1.3-0.6,1.3-1.3v0c0-0.3-0.1-0.5-0.2-0.7L75.8,4.6	c-0.5-0.7-1.6-0.7-2.1,0L50.2,39.8C50.1,40,50,40.3,50,40.5z"/><path fill="#A0674A" d="M70.5,72.2V52.5c0-2.6,2.1-4.8,4.8-4.8h0c2.6,0,4.8,2.1,4.8,4.8v19.7"/><path fill="#A0674A" d="M82.9,72.2V52.5c0-2.6,2.1-4.8,4.8-4.8h0c2.6,0,4.8,2.1,4.8,4.8v19.7"/><path fill="#D38862" d="M100.7,44h-51c-1.2,0-2.2-1-2.2-2.2v0c0-1.2,1-2.2,2.2-2.2h51c1.2,0,2.2,1,2.2,2.2v0	C102.8,43,101.9,44,100.7,44z"/><path fill="#D38862" d="M100.7,81h-51c-1.2,0-2.2-1-2.2-2.2v0c0-1.2,1-2.2,2.2-2.2h51c1.2,0,2.2,1,2.2,2.2v0	C102.8,80,101.9,81,100.7,81z"/><rect x="73.4" y="87.9" fill="#A0674A" width="3.1" height="17.1"/><rect x="73.4" y="119.9" fill="#A0674A" width="3.1" height="17.1"/><path fill="#D38862" d="M70.4,56.9h-2.9c-0.8,0-1.5-0.7-1.5-1.5l0,0c0-0.8,0.7-1.5,1.5-1.5h2.9c0.8,0,1.5,0.7,1.5,1.5l0,0	C71.9,56.2,71.3,56.9,70.4,56.9z"/><path fill="#D38862" d="M82.9,56.9H80c-0.8,0-1.5-0.7-1.5-1.5l0,0c0-0.8,0.7-1.5,1.5-1.5h2.9c0.8,0,1.5,0.7,1.5,1.5l0,0	C84.4,56.2,83.7,56.9,82.9,56.9z"/><rect x="88.9" y="85.4" fill="#AF7151" width="8" height="3.5"/><rect x="84.9" y="90.4" fill="#AF7151" width="8" height="3.5"/><rect x="53.9" y="100.4" fill="#AF7151" width="8" height="3.5"/><rect x="55.9" y="107.4" fill="#AF7151" width="8" height="3.5"/></svg>