<?xml version="1.0" encoding="utf-8"?><!DOCTYPE svg PUBLIC "-//W3C//DTD SVG 1.1//EN" "http://www.w3.org/Graphics/SVG/1.1/DTD/svg11.dtd"><svg version="1.1" id="Layer_1" xmlns="http://www.w3.org/2000/svg" xmlns:xlink="http://www.w3.org/1999/xlink" x="0px" y="0px" width="150px" height="150px" viewBox="0 0 150 150" enable-background="new 0 0 150 150" xml:space="preserve"><g><rect x="24.6" y="41.4" fill="#75B70D" width="113" height="54.3"/><rect x="29.7" y="46.7" fill="#99D12F" width="102.7" height="44.2"/><path fill="#7AC70C" d="M81,57.5c-9.4,0-17,9-17,20.2c0,7.1,3.1,13.3,7.8,16.9h18.4c4.7-3.6,7.8-9.8,7.8-16.9 C98,66.5,90.4,57.5,81,57.5z"/><path fill="#75B70D" d="M24.6,57.5c1.5,0.7,3.2,1.1,5,1.1c6.6,0,11.9-5.3,11.9-11.9c0-1.9-0.5-3.7-1.3-5.3H24.6V57.5z"/><path fill="#75B70D" d="M120.9,46.7c0,6.6,5.3,11.9,11.9,11.9c1.7,0,3.4-0.4,4.9-1V41.4h-15.5C121.4,43,120.9,44.8,120.9,46.7z"/><path fill="#7AC70C" d="M29.7,78.7c-1.8,0-3.5,0.4-5,1.1v15.9h15.8c0.7-1.5,1.2-3.3,1.2-5.1C41.6,84,36.2,78.7,29.7,78.7z"/><path fill="#75B70D" d="M137.7,79.8c-1.5-0.7-3.1-1-4.9-1c-6.6,0-11.9,5.3-11.9,11.9c0,1.8,0.4,3.6,1.2,5.1h15.6V79.8z"/><g><path fill="#7AC70C" d="M47.2,63.5c-3.6,0-6.5,2.9-6.5,6.5s2.9,6.5,6.5,6.5s6.5-2.9,6.5-6.5S50.8,63.5,47.2,63.5L47.2,63.5z"/></g><circle fill="#7AC70C" cx="113.6" cy="70" r="6.5"/><rect x="12.8" y="53.3" fill="#7AC70C" width="113" height="54.3"/><rect x="17.8" y="58.6" fill="#9EDB3E" width="102.7" height="44.2"/><path fill="#7AC70C" d="M69.1,69.3c-9.4,0-17,9-17,20.2c0,7.1,3.1,13.3,7.8,16.9h18.4c4.7-3.6,7.8-9.8,7.8-16.9 C86.1,78.3,78.5,69.3,69.1,69.3z"/><path fill="#7AC70C" d="M12.8,69.4c1.5,0.7,3.2,1.1,5,1.1c6.6,0,11.9-5.3,11.9-11.9c0-1.9-0.5-3.7-1.3-5.3H12.8V69.4z"/><path fill="#7AC70C" d="M109,58.6c0,6.6,5.3,11.9,11.9,11.9c1.7,0,3.4-0.4,4.9-1V53.3h-15.5C109.5,54.9,109,56.7,109,58.6z"/><path fill="#7AC70C" d="M17.8,90.6c-1.8,0-3.5,0.4-5,1.1v15.9h15.8c0.7-1.5,1.2-3.3,1.2-5.1C29.7,95.9,24.4,90.6,17.8,90.6z"/><path fill="#7AC70C" d="M125.8,91.6c-1.5-0.7-3.1-1-4.9-1c-6.6,0-11.9,5.3-11.9,11.9c0,1.8,0.4,3.6,1.2,5.1h15.6V91.6z"/><g><path fill="#7AC70C" d="M35.3,75.4c-3.6,0-6.5,2.9-6.5,6.5s2.9,6.5,6.5,6.5c3.6,0,6.5-2.9,6.5-6.5S38.9,75.4,35.3,75.4L35.3,75.4z"/></g><circle fill="#7AC70C" cx="101.7" cy="81.9" r="6.5"/></g><circle fill="#FFA300" cx="28" cy="44.6" r="23"/><circle fill="#FFBC00" cx="28" cy="41.6" r="23"/><circle fill="#BFBFBF" cx="127" cy="114.6" r="19.4"/><circle fill="#D3D3D3" cx="127" cy="111.6" r="19.4"/><circle fill="#BFBFBF" cx="101" cy="104.6" r="19.4"/><circle fill="#D3D3D3" cx="101" cy="101.6" r="19.4"/></svg>