<?xml version="1.0" encoding="utf-8"?><!DOCTYPE svg PUBLIC "-//W3C//DTD SVG 1.1//EN" "http://www.w3.org/Graphics/SVG/1.1/DTD/svg11.dtd"><svg version="1.1" xmlns="http://www.w3.org/2000/svg" xmlns:xlink="http://www.w3.org/1999/xlink" x="0px" y="0px" width="150px" height="150px" viewBox="0 0 150 150" enable-background="new 0 0 150 150" xml:space="preserve"><g id="Layer_2" display="none"><rect x="-340" y="-1527.3" display="inline" fill="#F0F0F0" width="1680" height="1677.3"/></g><g id="Layer_1"/><g id="Layer_3"><polygon fill="#C12525" points="103,116.1 75,7.9 47,116.1 47,116.1 75,147.5 103,116.1"/><path fill="#D33131" d="M94.3,11.5L79.6,36.9c-2.1,3.6-7.2,3.6-9.3,0L55.7,11.5c-2.1-3.6,0.5-8,4.6-8h29.3 C93.8,3.5,96.3,7.9,94.3,11.5z"/><polygon fill="#D33131" points="68.4,140.1 99.8,104 96.7,91.8 61.4,132.3"/><polygon fill="#D33131" points="93.1,78 89.9,65.9 47.5,114.6 47.1,116.2 47.1,116.2 53.5,123.4"/><polygon fill="#D33131" points="83.2,39.7 59.8,66.6 54,89.1 86.4,51.9"/><polygon fill="#D33131" points="76.5,13.7 72.2,18.6 66.4,41.1 79.7,25.9"/><polygon fill="#C12525" points="74.5,3.5 61.9,22.2 68.7,33.9 89.2,3.5"/></g></svg>