<?xml version="1.0" encoding="utf-8"?><!DOCTYPE svg PUBLIC "-//W3C//DTD SVG 1.1//EN" "http://www.w3.org/Graphics/SVG/1.1/DTD/svg11.dtd"><svg version="1.1" id="Layer_1" xmlns="http://www.w3.org/2000/svg" xmlns:xlink="http://www.w3.org/1999/xlink" x="0px" y="0px" width="150px" height="150px" viewBox="0 0 150 150" enable-background="new 0 0 150 150" xml:space="preserve"><circle fill="#FFE7AB" cx="21.3" cy="30.8" r="17.7"/><rect x="15.7" y="39.9" fill="#FFFFFF" width="10.7" height="47"/><path fill="#C6C6C6" d="M32.4,123h-4.7V91h0.1c1.9,0,3.4-1.5,3.4-3.4c0-1.9-1.5-3.4-3.4-3.4h-0.6c2.7-1.9,4.5-5,4.5-8.6v-5.8	c1.3,0,2.4-1.1,2.4-2.5l0,0c0-1.4-1.1-2.5-2.5-2.5H10.8c-1.4,0-2.5,1.1-2.5,2.5l0,0c0,1.3,1.1,2.4,2.4,2.5v5.8	c0,3.6,1.8,6.7,4.5,8.6h-1.1c-1.9,0-3.4,1.5-3.4,3.4c0,1.8,1.4,3.3,3.3,3.4v32H9.8c-2.3,0-4.2,1.9-4.2,4.2l0,0	c0,2.3,1.9,4.2,4.2,4.2h22.7c2.3,0,4.2-1.9,4.2-4.2l0,0C36.6,124.9,34.7,123,32.4,123z"/><path fill="#FFC200" d="M15.2,31.4c0,3.4,2.7,6.1,6.1,6.1c3.4,0,6.1-2.7,6.1-6.1c0-1.9-0.9-3.7-2.3-4.8h0l-3.8-3.9l-3.8,3.9h0	C16.1,27.7,15.2,29.4,15.2,31.4z"/><path fill="#FFFFFF" d="M100.4,61.2c-2.4,4.2-3.7,9.2-3.7,14.5c0,15,10.8,27.1,24.1,27.1c13.3,0,24.1-12.1,24.1-27.1	c0-5.3-1.4-10.3-3.7-14.5H100.4z"/><rect x="118.3" y="92.8" fill="#FFFFFF" width="5.2" height="37.7"/><path fill="#FFFFFF" d="M134.4,131.3h-27c-1.3,0-2.4-1.1-2.4-2.4v0c0-1.3,1.1-2.4,2.4-2.4h27c1.3,0,2.4,1.1,2.4,2.4v0	C136.8,130.3,135.7,131.3,134.4,131.3z"/><path fill="#963330" d="M101.5,85.2c3.4,8.2,10.7,13.8,19.3,13.8c8.5,0,15.9-5.7,19.3-13.8H101.5z"/><path fill="#A8A8A8" d="M76.5,82.5c0-0.2,0-0.4,0-0.7c0-4.8-3.9-8.8-8.8-8.8c-4.8,0-8.8,3.9-8.8,8.8c0,0.2,0,0.4,0,0.7	c-19.1,4-33.5,21-33.5,41.3h84.4C109.9,103.5,95.6,86.6,76.5,82.5z M67.7,78.1c2,0,3.7,1.6,3.8,3.7c-1.2-0.1-2.5-0.2-3.8-0.2	c-1.3,0-2.5,0.1-3.8,0.2C64,79.7,65.7,78.1,67.7,78.1z"/><path fill="none" stroke="#C6C6C6" stroke-width="5.0315" stroke-linecap="round" stroke-linejoin="round" stroke-miterlimit="10" d="M36.9,109.2C42.2,97.4,54,89.3,67.7,89.3"/><path fill="#FFFFFF" d="M105.6,79.5L105.6,79.5c-2.8,0-5-2.3-5-5v0c0-2.8,2.3-5,5-5h0c2.8,0,5,2.3,5,5v0	C110.6,77.2,108.3,79.5,105.6,79.5z"/><path fill="#999999" d="M116.5,131.3H19c-2.3,0-4.2-1.9-4.2-4.2v0c0-2.3,1.9-4.2,4.2-4.2h97.5c2.3,0,4.2,1.9,4.2,4.2v0	C120.7,129.5,118.8,131.3,116.5,131.3z"/></svg>