<?xml version="1.0" encoding="utf-8"?><!DOCTYPE svg PUBLIC "-//W3C//DTD SVG 1.1//EN" "http://www.w3.org/Graphics/SVG/1.1/DTD/svg11.dtd"><svg version="1.1" id="Layer_1" xmlns="http://www.w3.org/2000/svg" xmlns:xlink="http://www.w3.org/1999/xlink" x="0px" y="0px" width="150px" height="150px" viewBox="0 0 150 150" enable-background="new 0 0 150 150" xml:space="preserve"><path fill="#E2E2E2" d="M119,133.5H32.2c-7.2,0-13.1-5.9-13.1-13.1V41c0-7.2,5.9-13.1,13.1-13.1H119c7.2,0,13.1,5.9,13.1,13.1v79.3	C132.2,127.6,126.3,133.5,119,133.5z"/><path fill="#FFFFFF" d="M119,126.6H32.2c-7.2,0-13.1-5.9-13.1-13.1V34.2c0-7.2,5.9-13.1,13.1-13.1H119c7.2,0,13.1,5.9,13.1,13.1	v79.3C132.2,120.8,126.3,126.6,119,126.6z"/><path fill="#D33131" d="M132.2,49.9H19.1V34.2c0-7.2,5.9-13.1,13.1-13.1H119c7.2,0,13.1,5.9,13.1,13.1V49.9z"/><path fill="#AF2B2B" d="M41.8,44.1L41.8,44.1c-4.2,0-7.7-3.5-7.7-7.7v0c0-4.2,3.5-7.7,7.7-7.7h0c4.2,0,7.7,3.5,7.7,7.7v0	C49.5,40.6,46.1,44.1,41.8,44.1z"/><path fill="#AF2B2B" d="M109.4,44.1L109.4,44.1c-4.2,0-7.7-3.5-7.7-7.7v0c0-4.2,3.5-7.7,7.7-7.7h0c4.2,0,7.7,3.5,7.7,7.7v0	C117.1,40.6,113.6,44.1,109.4,44.1z"/><path fill="#C6C6C6" d="M41.8,40.2L41.8,40.2c-2.6,0-4.8-2.1-4.8-4.8V15c0-2.6,2.1-4.8,4.8-4.8h0c2.6,0,4.8,2.1,4.8,4.8v20.4	C46.6,38,44.4,40.2,41.8,40.2z"/><path fill="#C6C6C6" d="M109.4,40.2L109.4,40.2c-2.6,0-4.8-2.1-4.8-4.8V15c0-2.6,2.1-4.8,4.8-4.8h0c2.6,0,4.8,2.1,4.8,4.8v20.4	C114.2,38,112,40.2,109.4,40.2z"/><path fill="none" stroke="#AFAFAF" stroke-width="5.9744" stroke-linecap="round" stroke-linejoin="round" stroke-miterlimit="10" d="M48.1,65.2h26.4L61.3,81.1h0c7.3,0,13.2,5.9,13.2,13.2v0c0,7.3-5.9,13.2-13.2,13.2h0c-7.3,0-13.2-5.9-13.2-13.2v0"/><polyline fill="none" stroke="#AFAFAF" stroke-width="5.9744" stroke-linecap="round" stroke-linejoin="round" stroke-miterlimit="10" points="88.1,72 95.8,64.3 95.8,106.7"/><path fill="#FFFFFF" d="M109.4,22.4L109.4,22.4c-1.3,0-2.4-1.1-2.4-2.4v-3.9c0-1.3,1.1-2.4,2.4-2.4l0,0c1.3,0,2.4,1.1,2.4,2.4V20	C111.8,21.3,110.7,22.4,109.4,22.4z"/><path fill="#FFFFFF" d="M41.8,22.4L41.8,22.4c-1.3,0-2.4-1.1-2.4-2.4v-3.9c0-1.3,1.1-2.4,2.4-2.4h0c1.3,0,2.4,1.1,2.4,2.4V20	C44.2,21.3,43.1,22.4,41.8,22.4z"/></svg>