<?xml version="1.0" encoding="utf-8"?><!DOCTYPE svg PUBLIC "-//W3C//DTD SVG 1.1//EN" "http://www.w3.org/Graphics/SVG/1.1/DTD/svg11.dtd"><svg version="1.1" id="Layer_1" xmlns="http://www.w3.org/2000/svg" xmlns:xlink="http://www.w3.org/1999/xlink" x="0px" y="0px" width="150px" height="150px" viewBox="0 0 150 150" enable-background="new 0 0 150 150" xml:space="preserve"><path fill="#88C11A" d="M139.1,25.6c3.8,10.1,2,21.9-5.6,30.6s-19.1,12-29.6,9.6L139.1,25.6z"/><path fill="#86B20D" d="M104,65.8c-3.8-10.1-2-21.9,5.6-30.6c7.6-8.7,19.1-12,29.6-9.6L104,65.8z"/><circle fill="#F49000" cx="94" cy="79" r="42.5"/><path fill="#F49000" d="M101.5,77.9c0,25.5-20.7,46.2-46.2,46.2S9.1,103.5,9.1,77.9"/><path fill="#FFCC5A" d="M97.6,77.9c0,23.5-19,42.5-42.5,42.5s-42.5-19-42.5-42.5"/><path fill="#FFB000" d="M33.9,109.3c4,2.7,8.5,4.7,13.4,5.6c3.5,0.7,6.7-1.9,6.7-5.5V80h-0.2l-20.7,20.7	C30.6,103.2,31,107.3,33.9,109.3z"/><path fill="#FFB000" d="M76.2,109.3c-4,2.7-8.5,4.7-13.4,5.6c-3.5,0.7-6.7-1.9-6.7-5.5V80h0.2L77,100.7	C79.5,103.2,79.1,107.3,76.2,109.3z"/><path fill="#FFB000" d="M22.5,98c-2.7-4-4.7-8.5-5.6-13.4c-0.7-3.5,1.9-6.7,5.5-6.7h29.4v0.2L31,98.8C28.6,101.3,24.5,100.9,22.5,98	z"/><path fill="#FFB000" d="M87.6,98c2.7-4,4.7-8.5,5.6-13.4c0.7-3.5-1.9-6.7-5.5-6.7H58.4v0.2l20.7,20.7C81.5,101.3,85.6,100.9,87.6,98	z"/><path fill="#FFCC5A" d="M55,84.1c3.4,0,6.2-2.8,6.2-6.2H48.9C48.9,81.3,51.6,84.1,55,84.1z"/><circle fill="#F27300" cx="105.6" cy="67.5" r="3.7"/><circle fill="#F27300" cx="115.2" cy="56.9" r="3.7"/><circle fill="#F27300" cx="120.1" cy="70.3" r="3.7"/></svg>