<?xml version="1.0" encoding="utf-8"?><!DOCTYPE svg PUBLIC "-//W3C//DTD SVG 1.1//EN" "http://www.w3.org/Graphics/SVG/1.1/DTD/svg11.dtd"><svg version="1.1" xmlns="http://www.w3.org/2000/svg" xmlns:xlink="http://www.w3.org/1999/xlink" x="0px" y="0px" width="150px" height="150px" viewBox="0 0 150 150" enable-background="new 0 0 150 150" xml:space="preserve"><g id="Layer_2" display="none"><rect x="-170" display="inline" fill="#F0F0F0" width="1680" height="1677.3"/></g><g id="Layer_1"><path fill="#6E9B00" d="M60.2,29c-9.6,8.6-14,22.3-10,35.4c4,13.2,15.2,22.1,28,23.9c9.6-8.6,14-22.3,10-35.4S73,30.8,60.2,29z"/><path fill="#71A805" d="M105.9,20.4c-12.9-0.7-25.7,5.8-32.2,18c-6.5,12.1-4.9,26.4,2.9,36.7c12.9,0.7,25.7-5.8,32.2-18 S113.7,30.7,105.9,20.4z"/><circle fill="#C4DD80" stroke="#46842D" stroke-width="2" stroke-miterlimit="10" cx="99.8" cy="55" r="22"/><path fill="#72B20D" d="M56.1,44.8c-9.7-9.7-23.9-12.3-36-7.9c-4.5,12.1-1.8,26.3,7.9,36c9.7,9.7,23.9,12.3,36,7.9 C68.5,68.7,65.9,54.6,56.1,44.8z"/><path fill="#E5F4AB" d="M100.1,47.5h-0.8c-1,0-1.8-0.8-1.8-1.8v-6c0-1,0.8-1.8,1.8-1.8h0.8c1,0,1.8,0.8,1.8,1.8v6 C102,46.6,101.1,47.5,100.1,47.5z"/><path fill="#E5F4AB" d="M92.6,54.2V55c0,1-0.8,1.8-1.8,1.8h-6c-1,0-1.8-0.8-1.8-1.8v-0.8c0-1,0.8-1.8,1.8-1.8h6 C91.8,52.4,92.6,53.2,92.6,54.2z"/><path fill="#72B20D" d="M137,37c-12.1-4.5-26.3-1.8-36,7.9c-9.7,9.7-12.3,23.9-7.9,36c12.1,4.5,26.3,1.8,36-7.9 C138.8,63.2,141.4,49.1,137,37z"/><circle fill="#D33131" cx="54.1" cy="61.4" r="16.8"/><path fill="#DDA862" d="M7.9,61.4L7.9,61.4c0,37.3,30.5,67.8,67.8,67.8h0c37.3,0,67.8-30.5,67.8-67.8v0H7.9z"/><path fill="#DB9F58" d="M104,129.2H47.4c-2.1,0-3.7-1.7-3.7-3.7V121h64.1v4.5C107.7,127.5,106.1,129.2,104,129.2z"/><path fill="#DB9F58" d="M103.4,114.9H83.8c-1.2,0-2.2-1-2.2-2.2v-0.9c0-1.2,1-2.2,2.2-2.2h19.6c1.2,0,2.2,1,2.2,2.2v0.9 C105.6,113.9,104.6,114.9,103.4,114.9z"/><circle fill="#D33131" cx="117.1" cy="106" r="23.1"/><path fill="#7AC70C" d="M112.2,89.2l1.3,3c0.2,0.6,0.8,0.9,1.4,0.8l3.3-0.4c1.2-0.1,2,1.2,1.3,2.2l-2,2.7c-0.4,0.5-0.4,1.2,0,1.6 l2,2.7c0.7,1-0.1,2.3-1.3,2.2l-3.3-0.4c-0.6-0.1-1.2,0.3-1.4,0.8l-1.3,3c-0.5,1.1-2.1,1.1-2.5,0l-1.3-3c-0.2-0.6-0.8-0.9-1.4-0.8 l-3.3,0.4c-1.2,0.1-2-1.2-1.3-2.2l2-2.7c0.4-0.5,0.4-1.2,0-1.6l-2-2.7c-0.7-1,0.1-2.3,1.3-2.2l3.3,0.4c0.6,0.1,1.2-0.3,1.4-0.8 l1.3-3C110.1,88.1,111.7,88.1,112.2,89.2z"/><circle fill="#ED3A3A" cx="49.2" cy="53.4" r="4.1"/><path fill="#DB9F58" d="M47.6,83.1H28.5c-1.2,0-2.2-1-2.2-2.2V80c0-1.2,1-2.2,2.2-2.2h19.1c1.2,0,2.2,1,2.2,2.2v0.9 C49.8,82.1,48.8,83.1,47.6,83.1z"/><path fill="#DB9F58" d="M75.6,99H48.4c-1.2,0-2.2-1-2.2-2.2v-0.9c0-1.2,1-2.2,2.2-2.2h27.2c1.2,0,2.2,1,2.2,2.2v0.9 C77.8,98,76.8,99,75.6,99z"/><path fill="#DB9F58" d="M102.1,75.2H74.9c-1.2,0-2.2-1-2.2-2.2V72c0-1.2,1-2.2,2.2-2.2h27.2c1.2,0,2.2,1,2.2,2.2V73 C104.3,74.2,103.3,75.2,102.1,75.2z"/></g><g id="Layer_3"/></svg>