<?xml version="1.0" encoding="utf-8"?><!DOCTYPE svg PUBLIC "-//W3C//DTD SVG 1.1//EN" "http://www.w3.org/Graphics/SVG/1.1/DTD/svg11.dtd"><svg version="1.1" id="Layer_1" xmlns="http://www.w3.org/2000/svg" xmlns:xlink="http://www.w3.org/1999/xlink" x="0px" y="0px" width="150px" height="150px" viewBox="0 0 150 150" enable-background="new 0 0 150 150" xml:space="preserve"><path fill="#9FF4FF" d="M129.4,141.7H20.1c-6.7,0-12.1-5.4-12.1-12.1V20.3c0-6.7,5.4-12.1,12.1-12.1h109.3c6.7,0,12.1,5.4,12.1,12.1	v109.3C141.5,136.3,136.1,141.7,129.4,141.7z"/><path fill="#843C2D" d="M74.8,59.7L74.8,59.7c-5.1,0-9.2-4.1-9.2-9.2V39.4c0-5.1,4.1-9.2,9.2-9.2h0c5.1,0,9.2,4.1,9.2,9.2v11.1	C84,55.6,79.9,59.7,74.8,59.7z"/><rect x="45.2" y="125.8" fill="#00B1FF" width="59.1" height="15.9"/><path fill="#D33131" d="M41.2,134.8V84.5C41.2,66,56.2,51,74.7,51h0c18.5,0,33.5,15,33.5,33.5v50.2"/><circle fill="#843C2D" cx="98.7" cy="17.9" r="5.6"/><circle fill="#843C2D" cx="50.8" cy="17.9" r="5.6"/><path fill="#93503B" d="M98.7,8.3v14.9c0,13.3-10.7,24-24,24h0c-13.3,0-24-10.7-24-24V8.3"/><path fill="#783F30" d="M74.7,37.9L74.7,37.9c13.2,0,24-10.8,24-24V8.3H50.7v5.6C50.7,27.1,61.5,37.9,74.7,37.9z"/></svg>