<?xml version="1.0" encoding="utf-8"?><!DOCTYPE svg PUBLIC "-//W3C//DTD SVG 1.1//EN" "http://www.w3.org/Graphics/SVG/1.1/DTD/svg11.dtd"><svg version="1.1" id="Layer_1" xmlns="http://www.w3.org/2000/svg" xmlns:xlink="http://www.w3.org/1999/xlink" x="0px" y="0px" width="150px" height="150px" viewBox="0 0 150 150" enable-background="new 0 0 150 150" xml:space="preserve"><path fill="#FF9D00" d="M82.8,20.8C68,20.8,53.7,27.1,43.6,38c-3.1,3.3-3.4,8.2-1.1,11.9c-0.7,0.7-1.5,1.4-2.2,2.2	c-3.7,4-3.4,10.2,0.5,13.8c4,3.7,10.2,3.4,13.8-0.5c5.2-5.7,12.6-8.9,20.3-8.9c15.2,0,27.6,12.4,27.6,27.6v38.1	c0,5.4,4.4,9.8,9.8,9.8s9.8-4.4,9.8-9.8V103c1.3,0.6,2.7,1,4.2,1c5.4,0,9.8-4.4,9.8-9.8v-20C136.2,44.8,112.3,20.8,82.8,20.8z"/><g><path fill="#FFB000" d="M50.8,49.6c-1.2,0-2.4-0.4-3.3-1.3c-2-1.8-2.1-4.9-0.3-6.9c9.2-9.9,22.2-15.6,35.6-15.6 c12.2,0,23.9,4.6,32.9,12.9c2,1.8,2.1,4.9,0.3,6.9c-1.8,2-4.9,2.1-6.9,0.3c-7.2-6.7-16.5-10.3-26.2-10.3 c-10.7,0-21.1,4.6-28.4,12.5C53.5,49.1,52.1,49.6,50.8,49.6z"/></g><rect x="20.5" y="33.6" transform="matrix(0.7071 0.7071 -0.7071 0.7071 59.3332 -15.0624)" fill="#BCBCBC" width="54.7" height="60.9"/><path fill="#C6C6C6" d="M25,66.3L25,66.3c-2-2-2-5.2,0-7.3l29.4-29.4l7.3,7.3L32.3,66.3C30.3,68.3,27,68.3,25,66.3z"/><path fill="#AFAFAF" d="M39.6,96.7L69,67.3c2-2,5.2-2,7.3,0l0,0c2,2,2,5.2,0,7.3L46.8,104"/><rect x="40.7" y="37.2" transform="matrix(0.7071 -0.7071 0.7071 0.7071 -31.824 52.4447)" fill="#FF9D00" width="13.4" height="54.8"/><rect x="30.3" y="49.2" transform="matrix(0.7071 -0.7071 0.7071 0.7071 -27.5442 42.1125)" fill="#FFB000" width="13.4" height="10.3"/><rect x="56.4" y="75.2" transform="matrix(0.7071 -0.7071 0.7071 0.7071 -38.3436 68.1845)" fill="#FF8B00" width="13.4" height="10.3"/><line fill="none" stroke="#FFFFFF" stroke-width="2.7982" stroke-linecap="round" stroke-linejoin="round" stroke-miterlimit="10" x1="7" y1="66.3" x2="45.7" y2="105"/><line fill="none" stroke="#FFFFFF" stroke-width="2.7982" stroke-linecap="round" stroke-linejoin="round" stroke-miterlimit="10" x1="50" y1="23.3" x2="88.6" y2="62"/><circle fill="#FF9D00" cx="140.2" cy="45.9" r="4.7"/><circle fill="#FF9D00" cx="91.5" cy="103" r="5.4"/><circle fill="#FF9D00" cx="87.4" cy="21.6" r="3.7"/><circle fill="#D1D1D1" cx="61.1" cy="50.6" r="5.5"/><path fill="#F4F4F4" d="M16.5,52h44.4c0.9,0,1.6-0.7,1.6-1.6v0c0-0.9-0.7-1.6-1.6-1.6H16.5c-0.9,0-1.6,0.7-1.6,1.6v0	C14.9,51.2,15.6,52,16.5,52z"/><path fill="#FF8B00" d="M106.3,125L106.3,125c-2,0-3.7-1.7-3.7-3.7v-32c0-2,1.7-3.7,3.7-3.7h0c2,0,3.7,1.7,3.7,3.7v32	C110,123.3,108.3,125,106.3,125z"/></svg>