<?xml version="1.0" encoding="utf-8"?><!DOCTYPE svg PUBLIC "-//W3C//DTD SVG 1.1//EN" "http://www.w3.org/Graphics/SVG/1.1/DTD/svg11.dtd"><svg version="1.1" id="Layer_1" xmlns="http://www.w3.org/2000/svg" xmlns:xlink="http://www.w3.org/1999/xlink" x="0px" y="0px" width="150px" height="150px" viewBox="0 0 150 150" enable-background="new 0 0 150 150" xml:space="preserve"><rect x="27.3" y="12.9" fill="#B6FFFD" width="94.8" height="59.6"/><rect x="54.8" y="-4.5" transform="matrix(0.7071 -0.7071 0.7071 0.7071 -12.4301 57.3826)" fill="#E9FFFD" width="16.5" height="96.5"/><rect x="84.2" y="-3.9" transform="matrix(0.7071 -0.7071 0.7071 0.7071 -2.4469 74.2404)" fill="#E9FFFD" width="8.3" height="88"/><path fill="#823A23" d="M23.1,9.3v132h103.2V9.3H23.1z M118.1,40.7V49v81.5v2.6H31.4v-2.6V49v-8.2V17.5h40.6h5.8h40.4V40.7z"/><rect x="24.3" y="67.1" fill="#823A23" width="102" height="10.8"/><rect x="19.2" y="3.8" fill="#914226" width="111.1" height="13.8"/><rect x="19.2" y="133.2" fill="#914226" width="111.1" height="13.8"/><rect x="72.3" y="17.5" fill="#823A23" width="5.1" height="60.4"/><rect x="79.4" y="108.7" fill="#CC5200" width="34.1" height="8.6"/><polygon fill="#CC5200" points="108.8,133.2 84.1,133.2 82.2,117.3 110.7,117.3"/><polygon fill="#BC4C00" points="110.1,121.9 110.7,117.3 82.2,117.3 82.8,121.9"/><path fill="#75AF0E" d="M95.6,105c3.8,1,7.9,0.1,10.7-2.7s3.7-6.8,2.7-10.7L95.6,105z"/><path fill="#7AC70C" d="M109,91.6c-3.8-1-7.9-0.1-10.7,2.7s-3.7,6.8-2.7,10.7L109,91.6z"/><path fill="#75AF0E" d="M84.7,82.8c-0.8,3.3-0.1,6.7,2.3,9.1c2.4,2.4,5.8,3.1,9.1,2.3L84.7,82.8z"/><path fill="#7AC70C" d="M96.1,94.2c0.8-3.3,0.1-6.7-2.3-9.1S88,82,84.7,82.8L96.1,94.2z"/><path fill="#6B2F1E" d="M81.6,75.3H68.5c-1.6,0-2.9-1.3-2.9-2.9v0c0-1.6,1.3-2.9,2.9-2.9h13.1c1.6,0,2.9,1.3,2.9,2.9v0	C84.5,74,83.2,75.3,81.6,75.3z"/></svg>