<?xml version="1.0" encoding="utf-8"?><!DOCTYPE svg PUBLIC "-//W3C//DTD SVG 1.1//EN" "http://www.w3.org/Graphics/SVG/1.1/DTD/svg11.dtd"><svg version="1.1" id="Layer_1" xmlns="http://www.w3.org/2000/svg" xmlns:xlink="http://www.w3.org/1999/xlink" x="0px" y="0px" width="150px" height="150px" viewBox="0 0 150 150" enable-background="new 0 0 150 150" xml:space="preserve"><path fill="#D33131" d="M50.8,147.5V140c0-24.2,19.7-43.9,43.9-43.9h0c24.2,0,43.9,19.7,43.9,43.9v7.6"/><path fill="#FFFFFF" d="M116.6,127.5v-19.2c0-12.2-9.9-22.1-22.1-22.1h0c-12.2,0-22.1,9.9-22.1,22.1v19.2l22.3-10.1L116.6,127.5z"/><path fill="#FFAA00" d="M21.9,136.2v-4.7c0-14.8,12-26.9,26.9-26.9h0c14.8,0,26.9,12,26.9,26.9v4.7"/><path fill="#CC2F2F" d="M10.9,135.4L10.9,135.4c0-6.7,5.5-12.2,12.2-12.2h48.8c6.7,0,12.2,5.5,12.2,12.2v0c0,6.7-5.5,12.2-12.2,12.2	H23.1C16.4,147.5,10.9,142.1,10.9,135.4z"/><polygon fill="#B7674E" points="103.4,109.7 94.7,117.5 86,109.7"/><rect x="59.6" y="33.6" fill="#1C0D0C" width="70.8" height="62"/><path fill="#F4AB96" d="M94.7,71.2c-7,0-12.7,5.6-12.7,12.4v14.9c0,6.8,5.7,12.4,12.7,12.4c7,0,12.7-5.6,12.7-12.4V83.6	C107.4,76.8,101.7,71.2,94.7,71.2z"/><path fill="#B7674E" d="M94.7,69.3c-7.7,0-13.9,6.1-13.9,13.6v16.2c0,7.5,6.3,13.6,13.9,13.6s13.9-6.1,13.9-13.6V82.9	C108.6,75.4,102.4,69.3,94.7,69.3z"/><g><path fill="#BF7358" d="M94.9,96L94.9,96c-18.9,0-34.1-15.3-34.1-34.1V41c0-18.8,15.3-34.1,34.1-34.1h0C113.8,6.9,129,22.1,129,41 v20.9C129,80.8,113.8,96,94.9,96z"/></g><rect x="60.8" y="31.2" fill="#BF7358" width="68.3" height="16.3"/><g><path fill="#933634" d="M113.2,61.3c0,10.1-8.2,18.3-18.3,18.3h0c-10.1,0-18.3-8.2-18.3-18.3"/></g><path fill="#AF3F3F" d="M94.8,69.5L94.8,69.5c-4.7,0-8.8,2.6-10.9,6.4c3.1,2.3,6.9,3.7,11,3.7h0c4.1,0,7.8-1.4,10.9-3.6	C103.7,72.1,99.5,69.5,94.8,69.5z"/><g><rect x="89.3" y="41.2" fill="#B25C4B" width="11.2" height="15.4"/></g><path fill="#FFFFFF" d="M112,67.8c0.8-2,1.2-4.2,1.2-6.5H76.6c0,2.3,0.4,4.5,1.2,6.5H112z"/><path fill="#351A16" d="M95,3.9c-21.6,0-39.2,16.5-39.2,36.9v53.4c0,6.6,5.3,11.9,11.9,11.9V40.8h32V28.5l5.7,12.2h16.8v65.4	c6.6,0,11.9-5.3,11.9-11.9V40.8C134.1,20.4,116.6,3.9,95,3.9z"/><g><circle fill="#A85F48" cx="77" cy="45.6" r="4.3"/></g><g><circle fill="#A85F48" cx="114.1" cy="45.6" r="4.3"/></g><path fill="none" stroke="#FFCB6E" stroke-width="1.9071" stroke-miterlimit="10" d="M108.6,122.9c0,7.7-6.3,13.9-13.9,13.9h0	c-7.7,0-13.9-6.3-13.9-13.9"/><path fill="#D88868" d="M84.3,139.2H70.7c-2.3,0-4.3-1.9-4.3-4.3v0c0-2.3,1.9-4.3,4.3-4.3h13.6c2.3,0,4.3,1.9,4.3,4.3v0	C88.5,137.3,86.6,139.2,84.3,139.2z"/><path fill="#D88868" d="M84.3,147.5H70.7c-2.3,0-4.3-1.9-4.3-4.3v0c0-2.3,1.9-4.3,4.3-4.3h13.6c2.3,0,4.3,1.9,4.3,4.3v0	C88.5,145.6,86.6,147.5,84.3,147.5z"/><rect x="66.4" y="123.2" fill="#D88868" width="10.6" height="24.4"/><path fill="#D88868" d="M84.3,131.7H70.7c-2.3,0-4.3-1.9-4.3-4.3v0c0-2.3,1.9-4.3,4.3-4.3h13.6c2.3,0,4.3,1.9,4.3,4.3v0	C88.5,129.8,86.6,131.7,84.3,131.7z"/><circle fill="#C67458" cx="29.7" cy="95.8" r="5.8"/><circle fill="#C67458" cx="68.2" cy="95.8" r="5.8"/><path fill="#D88868" d="M49,120.4L49,120.4c-10.6,0-19.3-8.7-19.3-19.3V84.7c0-10.6,8.7-19.3,19.3-19.3h0c10.6,0,19.3,8.7,19.3,19.3	v16.3C68.2,111.7,59.6,120.4,49,120.4z"/><ellipse fill="#A85F48" cx="37.5" cy="88.7" rx="3.1" ry="2.9"/><ellipse fill="#A85F48" cx="60.2" cy="88.7" rx="3.1" ry="2.9"/><rect x="45.1" y="87.7" fill="#C67458" width="8.3" height="7.1"/><path fill="#AA403D" d="M35.7,98.9c0,6.9,5.9,12.4,13.3,12.4s13.3-5.6,13.3-12.4"/><path fill="none" stroke="#5B332D" stroke-width="3.8142" stroke-linecap="round" stroke-linejoin="round" stroke-miterlimit="10" d="M49.6,70.5c-2.5,0-4.6-2-4.6-4.6c0-2.5,2-4.6,4.6-4.6"/><path fill="#D88868" d="M78.5,137L78.5,137c-2.2,0-4-1.8-4-4v-9.6c0-2.2,1.8-4,4-4h0c2.2,0,4,1.8,4,4v9.6	C82.5,135.2,80.7,137,78.5,137z"/><rect x="45" y="98.9" fill="#FFFFFF" width="8.3" height="3.5"/></svg>