<?xml version="1.0" encoding="utf-8"?><!DOCTYPE svg PUBLIC "-//W3C//DTD SVG 1.1//EN" "http://www.w3.org/Graphics/SVG/1.1/DTD/svg11.dtd"><svg version="1.1" id="Layer_1" xmlns="http://www.w3.org/2000/svg" xmlns:xlink="http://www.w3.org/1999/xlink" x="0px" y="0px" width="150px" height="150px" viewBox="0 0 150 150" enable-background="new 0 0 150 150" xml:space="preserve"><path fill="#FF7DD5" d="M79,8.2c-3,0-5.6,1.6-6.9,4L57.6,3.9v24.7l14.5-8.4c1.4,2.4,4,4,6.9,4c3,0,5.5-1.6,6.9-4l14.5,8.3V3.9	l-14.5,8.3C84.6,9.8,82,8.2,79,8.2z"/><path fill="#FF7DD5" d="M39.1,147.2v-6.9c0-22.1,17.9-40,40-40h0c22.1,0,40,17.9,40,40v6.9"/><path fill="#3B1E18" d="M52.9,83.1v-6.4v-5.2V28.4c-12.3,0-22.4,10-22.4,22.4V54v21.2v30.3C42.9,105.5,52.9,95.5,52.9,83.1z"/><path fill="#3B1E18" d="M79,91.2L79,91.2c-17.6,0-31.9-14.3-31.9-31.9V47c0-17.6,14.3-31.9,31.9-31.9h0c17.6,0,31.9,14.3,31.9,31.9	v12.3C110.9,76.9,96.6,91.2,79,91.2z"/><path fill="#763627" d="M79.1,75.6c-7.4,0-13.5,6.1-13.5,13.5v16.2c0,7.4,6.1,13.5,13.5,13.5c7.4,0,13.5-6.1,13.5-13.5V89.1	C92.6,81.7,86.5,75.6,79.1,75.6z"/><ellipse fill="#763627" cx="47.1" cy="68.3" rx="8.2" ry="7.6"/><ellipse fill="#763627" cx="110.9" cy="68.3" rx="8.2" ry="7.6"/><path fill="#783F30" d="M47.1,47.3v26.2c0,16.5,14.4,30,32,30h0c17.6,0,32-13.5,32-30V47.3"/><ellipse fill="#612C23" cx="63.1" cy="62.3" rx="4" ry="3.7"/><ellipse fill="#612C23" cx="95.2" cy="62.3" rx="4" ry="3.7"/><rect x="73.8" y="55.7" fill="#672B21" width="10.5" height="12.5"/><path fill="#571413" d="M63.1,74.9c0,8.3,7.2,15,16,15s16-6.7,16-15"/><path fill="#FFFFFF" d="M94.2,80H64.1c-0.6-1.6-1-3.4-1-5.2h32.1C95.2,76.7,94.8,78.4,94.2,80z"/></svg>