<?xml version="1.0" encoding="utf-8"?><!DOCTYPE svg PUBLIC "-//W3C//DTD SVG 1.1//EN" "http://www.w3.org/Graphics/SVG/1.1/DTD/svg11.dtd"><svg version="1.1" id="Layer_1" xmlns="http://www.w3.org/2000/svg" xmlns:xlink="http://www.w3.org/1999/xlink" x="0px" y="0px" width="150px" height="150px" viewBox="0 0 150 150" enable-background="new 0 0 150 150" xml:space="preserve"><rect x="43.1" y="89.3" fill="#BABABA" width="64.4" height="42.1"/><path fill="#D1D1D1" d="M35.5,90.1l38.9-23.8c0.2-0.1,0.4-0.1,0.6,0l38.9,23.8c0.5,0.3,0.3,1.1-0.3,1.1H35.9	C35.2,91.2,35,90.4,35.5,90.1z"/><path fill="#BABABA" d="M52,85.6l22.6-13.8c0.1-0.1,0.3-0.1,0.4,0l22.6,13.8c0.3,0.2,0.2,0.6-0.2,0.6H52.2	C51.9,86.3,51.7,85.8,52,85.6z"/><rect x="37.9" y="91.2" fill="#D1D1D1" width="9.9" height="34.8"/><rect x="58.9" y="91.2" fill="#D1D1D1" width="9.9" height="34.8"/><path fill="#DDDDDD" d="M48.7,95H37.4c-1,0-1.9-0.8-1.9-1.9v-0.1c0-1,0.8-1.9,1.9-1.9h11.3c1,0,1.9,0.8,1.9,1.9v0.1	C50.6,94.2,49.7,95,48.7,95z"/><path fill="#DDDDDD" d="M69.5,95H58.2c-1,0-1.9-0.8-1.9-1.9v-0.1c0-1,0.8-1.9,1.9-1.9h11.3c1,0,1.9,0.8,1.9,1.9v0.1	C71.4,94.2,70.5,95,69.5,95z"/><rect x="81.1" y="91.2" fill="#D1D1D1" width="9.9" height="34.8"/><rect x="102.1" y="91.2" fill="#D1D1D1" width="9.9" height="34.8"/><path fill="#DDDDDD" d="M91.9,95H80.6c-1,0-1.9-0.8-1.9-1.9v-0.1c0-1,0.8-1.9,1.9-1.9h11.3c1,0,1.9,0.8,1.9,1.9v0.1	C93.7,94.2,92.9,95,91.9,95z"/><rect x="29.6" y="133.5" fill="#D1D1D1" width="90.5" height="4.1"/><rect x="27.3" y="137.6" fill="#D1D1D1" width="95.1" height="4.1"/><path fill="#DDDDDD" d="M112.7,95h-11.3c-1,0-1.9-0.8-1.9-1.9v-0.1c0-1,0.8-1.9,1.9-1.9h11.3c1,0,1.9,0.8,1.9,1.9v0.1	C114.5,94.2,113.7,95,112.7,95z"/><rect x="32.3" y="129.3" fill="#D1D1D1" width="85.1" height="4.3"/><rect x="56.4" y="124.3" fill="#D1D1D1" width="15" height="4.9"/><rect x="78.8" y="124.3" fill="#D1D1D1" width="15" height="4.9"/><rect x="99.6" y="124.3" fill="#D1D1D1" width="15" height="4.9"/><rect x="35.6" y="124.3" fill="#D1D1D1" width="15" height="4.9"/><g><path fill="#88C11A" d="M109.9,42.8c0-19.4-15.7-35.2-35.2-35.2S39.6,23.4,39.6,42.8c0,12.2,6.2,22.9,15.7,29.3l19.5,17.2L94.3,72 C103.7,65.7,109.9,55,109.9,42.8z"/></g><path fill="#FFFFFF" d="M83.4,39c1.4,0,2.6-1.2,2.6-2.6v-2.4c0-5-3.5-9.1-8.1-10.2v-2.8c0-1.3-1.1-2.4-2.4-2.4	c-1.3,0-2.4,1.1-2.4,2.4v2.8C68.4,25,65,29.1,65,34.1V36c0,5,3.5,9.1,8.1,10.2v12.2c-1.7-0.9-2.9-2.7-2.9-4.7v-2.4	c0-1.4-1.2-2.6-2.6-2.6c-1.4,0-2.6,1.2-2.6,2.6v2.4c0,5,3.5,9.1,8.1,10.2v3.8c0,1.3,1.1,2.4,2.4,2.4c1.3,0,2.4-1.1,2.4-2.4v-3.8	c4.6-1.1,8.1-5.2,8.1-10.2v-1.9c0-5-3.5-9.1-8.1-10.2V29.4c1.7,0.9,2.9,2.7,2.9,4.7v2.4C80.8,37.9,81.9,39,83.4,39z M70.2,36v-1.9	c0-2.1,1.2-3.8,2.9-4.7v11.3C71.4,39.8,70.2,38.1,70.2,36z M80.8,51.8v1.9c0,2.1-1.2,3.8-2.9,4.7V47C79.6,47.9,80.8,49.7,80.8,51.8z"/></svg>