<?xml version="1.0" encoding="utf-8"?><!DOCTYPE svg PUBLIC "-//W3C//DTD SVG 1.1//EN" "http://www.w3.org/Graphics/SVG/1.1/DTD/svg11.dtd"><svg version="1.1" id="Layer_1" xmlns="http://www.w3.org/2000/svg" xmlns:xlink="http://www.w3.org/1999/xlink" x="0px" y="0px" width="150px" height="150px" viewBox="0 0 150 150" enable-background="new 0 0 150 150" xml:space="preserve"><rect x="28.8" y="9.7" fill="#B26938" width="91.2" height="129.9"/><path fill="#D38F62" d="M34.2,39.3c0-6.7,5.4-12.1,12.1-12.1h0c6.7,0,12.1,5.4,12.1,12.1"/><path fill="#D38F62" d="M61.7,39.3c0-6.7,5.4-12.1,12.1-12.1h0c6.7,0,12.1,5.4,12.1,12.1"/><path fill="#D38F62" d="M89.5,39.3c0-6.7,5.4-12.1,12.1-12.1h0c6.7,0,12.1,5.4,12.1,12.1"/><path fill="#97DCF2" d="M82.9,51.5H64.7V39.6c0-5,4.1-9.1,9.1-9.1h0c5,0,9.1,4.1,9.1,9.1V51.5z"/><path fill="#97DCF2" d="M110.7,51.5H92.4V39.6c0-5,4.1-9.1,9.1-9.1h0c5,0,9.1,4.1,9.1,9.1V51.5z"/><path fill="#97DCF2" d="M55.7,51.5H37.5V39.6c0-5,4.1-9.1,9.1-9.1h0c5,0,9.1,4.1,9.1,9.1V51.5z"/><rect x="24.6" y="8.8" fill="#D38F62" width="99.6" height="11.5"/><rect x="35.9" y="51.5" fill="#D38F62" width="21.3" height="4.1"/><rect x="63.1" y="51.5" fill="#D38F62" width="21.3" height="4.1"/><rect x="90.9" y="51.5" fill="#D38F62" width="21.3" height="4.1"/><rect x="64.7" y="67.5" fill="#97DCF2" width="18.2" height="21"/><rect x="92.4" y="67.5" fill="#97DCF2" width="18.2" height="21"/><rect x="37.5" y="67.5" fill="#97DCF2" width="18.2" height="21"/><rect x="35.9" y="88.5" fill="#D38F62" width="21.3" height="4.1"/><rect x="35.9" y="63.4" fill="#D38F62" width="21.3" height="4.1"/><rect x="63.1" y="88.5" fill="#D38F62" width="21.3" height="4.1"/><rect x="63.1" y="63.4" fill="#D38F62" width="21.3" height="4.1"/><rect x="90.9" y="88.5" fill="#D38F62" width="21.3" height="4.1"/><rect x="90.9" y="63.4" fill="#D38F62" width="21.3" height="4.1"/><rect x="64.7" y="104.5" fill="#97DCF2" width="18.2" height="21"/><rect x="92.4" y="104.5" fill="#7C431D" width="18.2" height="35.1"/><rect x="37.5" y="104.5" fill="#97DCF2" width="18.2" height="21"/><rect x="35.9" y="125.5" fill="#D38F62" width="21.3" height="4.1"/><rect x="35.9" y="100.4" fill="#D38F62" width="21.3" height="4.1"/><rect x="63.1" y="125.5" fill="#D38F62" width="21.3" height="4.1"/><rect x="63.1" y="100.4" fill="#D38F62" width="21.3" height="4.1"/><rect x="90.9" y="100.4" fill="#D38F62" width="21.3" height="4.1"/><rect x="37.5" y="39.3" fill="#73CCE0" width="18.2" height="3"/><rect x="64.7" y="39.3" fill="#73CCE0" width="18.2" height="3"/><rect x="92.4" y="39.3" fill="#73CCE0" width="18.2" height="3"/><rect x="37.5" y="77.3" fill="#73CCE0" width="18.2" height="3"/><rect x="64.7" y="77.3" fill="#73CCE0" width="18.2" height="3"/><rect x="92.4" y="77.3" fill="#73CCE0" width="18.2" height="3"/><rect x="37.5" y="113.3" fill="#73CCE0" width="18.2" height="3"/><rect x="64.7" y="113.3" fill="#73CCE0" width="18.2" height="3"/><rect x="95.4" y="107.4" fill="#71CCCC" width="12.3" height="16.2"/><rect x="31.3" y="13.6" fill="#C17D57" width="8.8" height="6.6"/><rect x="47.3" y="13.6" fill="#C17D57" width="8.8" height="6.6"/><rect x="63.3" y="13.6" fill="#C17D57" width="8.8" height="6.6"/><rect x="79.3" y="13.6" fill="#C17D57" width="8.8" height="6.6"/><rect x="95.3" y="13.6" fill="#C17D57" width="8.8" height="6.6"/><rect x="109.3" y="13.6" fill="#C17D57" width="8.8" height="6.6"/></svg>