<?xml version="1.0" encoding="utf-8"?><!DOCTYPE svg PUBLIC "-//W3C//DTD SVG 1.1//EN" "http://www.w3.org/Graphics/SVG/1.1/DTD/svg11.dtd"><svg version="1.1" id="Layer_1" xmlns="http://www.w3.org/2000/svg" xmlns:xlink="http://www.w3.org/1999/xlink" x="0px" y="0px" width="150px" height="150px" viewBox="0 0 150 150" enable-background="new 0 0 150 150" xml:space="preserve"><path fill="#353535" d="M83.6,131.2H19.4c-2.8,0-5.1-2.3-5.1-5.1V83.7c0-2.8,2.3-5.1,5.1-5.1h64.2c2.8,0,5.1,2.3,5.1,5.1v42.4	C88.7,128.9,86.4,131.2,83.6,131.2z"/><path fill="#AFAFAF" d="M92.6,131.6H10.4c-1.7,0-3.1-1.4-3.1-3.1l0,0c0-1.7,1.4-3.1,3.1-3.1h82.2c1.7,0,3.1,1.4,3.1,3.1l0,0	C95.7,130.3,94.3,131.6,92.6,131.6z"/><rect x="18.3" y="82.6" fill="#00BDFF" width="66.4" height="38.4"/><path fill="#FFFFFF" d="M67.6,115.3H35.4c-1.3,0-2.4-1.1-2.4-2.4V90.6c0-1.3,1.1-2.4,2.4-2.4h32.2c1.3,0,2.4,1.1,2.4,2.4v22.3	C70,114.2,68.9,115.3,67.6,115.3z"/><path fill="#D1D1D1" d="M68.3,88.2H34.6C33.7,88.2,33,89,33,90v2.5h37V90C70,89,69.3,88.2,68.3,88.2z"/><circle fill="#CE1300" cx="35.8" cy="90.4" r="1"/><circle fill="#FFE600" cx="38.9" cy="90.4" r="1"/><circle fill="#54A321" cx="42" cy="90.4" r="1"/><path fill="#353535" d="M59.6,128.1H43.4c-1.4,0-2.6-1.2-2.6-2.6l0,0c0-1.4,1.2-2.6,2.6-2.6h16.2c1.4,0,2.6,1.2,2.6,2.6l0,0	C62.2,126.9,61,128.1,59.6,128.1z"/><path fill="#686868" stroke="#474747" stroke-width="2.6468" stroke-miterlimit="10" d="M123.8,129.9h-10.1c-2.9,0-5.3-2.4-5.3-5.3	V66.3c0-2.9,2.4-5.3,5.3-5.3h10.1c2.9,0,5.3,2.4,5.3,5.3v58.2C129.1,127.5,126.7,129.9,123.8,129.9z"/><path fill="#474747" d="M136.4,131.6h-34.9c-1.2,0-2.1-0.9-2.1-2.1v-2c0-1.2,0.9-2.1,2.1-2.1h34.9c1.2,0,2.1,0.9,2.1,2.1v2	C138.5,130.7,137.6,131.6,136.4,131.6z"/><circle fill="#A5A5A5" cx="118.7" cy="74.3" r="3.4"/><circle fill="#A5A5A5" cx="118.7" cy="92.6" r="3.4"/><circle fill="#A8FC15" cx="118.7" cy="110.9" r="3.4"/><path fill="none" stroke="#00BDFF" stroke-width="5.0384" stroke-linecap="round" stroke-miterlimit="10" d="M95.6,32	c4.9-7.6,13.4-12.6,23.1-12.6c9.7,0,18.1,5,23.1,12.5"/><path fill="none" stroke="#00BDFF" stroke-width="5.0384" stroke-linecap="round" stroke-miterlimit="10" d="M104,40.1	c3.1-4.8,8.6-8,14.8-8c6.2,0,11.6,3.2,14.7,8"/><path fill="none" stroke="#00BDFF" stroke-width="4.3607" stroke-linecap="round" stroke-miterlimit="10" d="M110.8,49.1	c1.7-2.6,4.6-4.3,7.9-4.3c3.3,0,6.2,1.7,7.9,4.3"/></svg>