<?xml version="1.0" encoding="utf-8"?><!DOCTYPE svg PUBLIC "-//W3C//DTD SVG 1.1//EN" "http://www.w3.org/Graphics/SVG/1.1/DTD/svg11.dtd"><svg version="1.1" xmlns="http://www.w3.org/2000/svg" xmlns:xlink="http://www.w3.org/1999/xlink" x="0px" y="0px" width="150px" height="150px" viewBox="0 0 150 150" enable-background="new 0 0 150 150" xml:space="preserve"><g id="Layer_2" display="none"><rect x="-1020" y="-510" display="inline" fill="#F0F0F0" width="1680" height="1677.3"/></g><g id="Layer_1"><path fill="#1E1E1E" d="M100,65.3c-4-0.6-7.2-3.8-7.7-7.8V52c0-17.2-14.1-31.3-31.3-31.3h0c-17.2,0-31.3,14.1-31.3,31.3v8.1 c-0.5,2.9-2.8,5.2-5.7,5.5l-0.1,0.1c6.3,6.3,16.1,6.7,22.9,1.4h22.2C78.1,74.3,91.4,73.7,100,65.3z"/><rect x="107.9" y="44" fill="#A5A5A5" width="41.3" height="102.8"/><rect x="82.5" y="72.1" fill="#B5B5B5" width="41.3" height="74.7"/><rect x="89.3" y="100.9" fill="#96EDE0" width="9.1" height="12.2"/><rect x="89.3" y="122.3" fill="#96EDE0" width="9.1" height="12.2"/><path fill="#632E39" d="M21.5,146.8V140c0-21.9,17.7-39.6,39.6-39.6h0c21.9,0,39.6,17.7,39.6,39.6v6.8"/><path fill="#7A3949" d="M38.2,146.8v-35.9c0-12.5,10.2-22.7,22.7-22.7h0c12.5,0,22.7,10.2,22.7,22.7l0,35.9"/><rect x="50.3" y="102.3" fill="#F0F0F0" width="21.7" height="44.5"/><path fill="#FFFFFF" d="M76.8,124.6v-13.7c0-8.7-7.1-15.7-15.7-15.7h0c-8.7,0-15.7,7.1-15.7,15.7v13.7l15.9-5.1L76.8,124.6z"/><polygon fill="#753629" points="69.2,111.7 61.2,119.5 53.2,111.7"/><path fill="#753629" d="M61.2,115.2L61.2,115.2c-6,0-10.9-4.9-10.9-10.9v-13c0-6,4.9-10.9,10.9-10.9h0c6,0,10.9,4.9,10.9,10.9v13 C72,110.4,67.2,115.2,61.2,115.2z"/><g><path fill="#773F32" d="M60.9,100.3L60.9,100.3c-15.6,0-28.3-12.7-28.3-28.3V54.5c0-15.6,12.7-28.3,28.3-28.3h0 c15.6,0,28.3,12.7,28.3,28.3v17.5C89.2,87.7,76.5,100.3,60.9,100.3z"/></g><g><path fill="#3A0D0D" d="M75.7,72.5c0,8.2-6.6,14.8-14.8,14.8l0,0c-8.2,0-14.8-6.6-14.8-14.8H75.7z"/></g><g><path fill="#FFFFFF" d="M47,77.3h28c0.5-1.5,0.8-3.1,0.8-4.8H46.2C46.2,74.2,46.5,75.8,47,77.3z"/></g><g><circle fill="#562722" cx="46.5" cy="58.9" r="3.5"/></g><g><circle fill="#562722" cx="75.6" cy="58.9" r="3.5"/></g><g><path fill="#571413" d="M69.2,84.8c-2-2.3-4.9-3.8-8.2-3.8l0,0c-3.3,0-6.3,1.5-8.3,3.8c2.3,1.6,5.2,2.5,8.2,2.5 C64,87.3,66.9,86.4,69.2,84.8z"/></g><g><rect x="56.2" y="55.4" fill="#662B23" width="9.3" height="12.8"/></g><path fill="#FFCE00" d="M92.6,45.8c0-17.5-14.2-31.7-31.7-31.7S29.2,28.3,29.2,45.8l-2.4,6.1H95L92.6,45.8z"/><polygon fill="#FFCE00" points="16.7,131.2 6.3,131.2 6.3,79.2 11.5,68 16.7,79.2"/><rect x="55.1" y="13.3" fill="#FFBC00" width="12.2" height="33.1"/><rect x="133.3" y="51.4" fill="#96EDE0" width="9.1" height="12.2"/><rect x="114.7" y="51.4" fill="#96EDE0" width="9.1" height="12.2"/><rect x="133.3" y="72.9" fill="#96EDE0" width="9.1" height="12.2"/><rect x="133.3" y="94.8" fill="#96EDE0" width="9.1" height="12.2"/><rect x="133.3" y="116.6" fill="#96EDE0" width="9.1" height="12.2"/><path fill="#FFBC00" d="M79.9,19.2c-2.8-2.1-5.9-3.7-9.2-4.8V37h9.2V19.2z"/><path fill="#FFBC00" d="M42,19.2c2.8-2.1,5.9-3.7,9.2-4.8V37H42V19.2z"/><rect x="16.7" y="119.1" fill="#753629" width="11.2" height="27.6"/><rect x="5.4" y="138.5" fill="#632E39" width="22.6" height="8.3"/><rect x="5.4" y="130.1" fill="#FFFFFF" width="22.5" height="8.3"/><polygon fill="#FFBC00" points="11.5,131.2 16.7,131.2 16.7,79.2 16.3,78.3 11.5,78.3"/><path fill="#773F32" d="M18.2,136H5.5c-2.4,0-4.4-2-4.4-4.4v-0.2c0-2.4,2-4.4,4.4-4.4h12.7c2.4,0,4.4,2,4.4,4.4v0.2 C22.6,134,20.6,136,18.2,136z"/><path fill="#753629" d="M22.4,124.7h-0.3c-3,0-5.5-2.5-5.5-5.5v-0.3c0-3,2.5-5.5,5.5-5.5h0.3c3,0,5.5,2.5,5.5,5.5v0.3 C27.9,122.2,25.4,124.7,22.4,124.7z"/><path fill="#773F32" d="M18.2,119.5H5.5c-2.4,0-4.4-2-4.4-4.4v-0.2c0-2.4,2-4.4,4.4-4.4h12.7c2.4,0,4.4,2,4.4,4.4v0.2 C22.6,117.5,20.6,119.5,18.2,119.5z"/><path fill="#773F32" d="M18.2,127.8H5.5c-2.4,0-4.4-2-4.4-4.4v-0.2c0-2.4,2-4.4,4.4-4.4h12.7c2.4,0,4.4,2,4.4,4.4v0.2 C22.6,125.8,20.6,127.8,18.2,127.8z"/><polygon fill="#C69C77" points="6.3,79.2 11.5,68 16.7,79.2 11.5,85.5"/><polygon fill="#303030" points="11.5,68 8.9,73.7 14.2,73.7"/><rect x="107.9" y="79.4" fill="#96EDE0" width="9.1" height="12.2"/><rect x="89.3" y="79.4" fill="#96EDE0" width="9.1" height="12.2"/><rect x="107.9" y="100.9" fill="#96EDE0" width="9.1" height="12.2"/><rect x="107.9" y="122.3" fill="#96EDE0" width="9.1" height="12.2"/><circle fill="#FFFFFF" cx="61.2" cy="127.8" r="1.8"/><circle fill="#FFFFFF" cx="61.2" cy="138.2" r="1.8"/></g><g id="Layer_3"/></svg>