<?xml version="1.0" encoding="utf-8"?><!DOCTYPE svg PUBLIC "-//W3C//DTD SVG 1.1//EN" "http://www.w3.org/Graphics/SVG/1.1/DTD/svg11.dtd"><svg version="1.1" xmlns="http://www.w3.org/2000/svg" xmlns:xlink="http://www.w3.org/1999/xlink" x="0px" y="0px" width="150px" height="150px" viewBox="0 0 150 150" enable-background="new 0 0 150 150" xml:space="preserve"><g id="Layer_2" display="none"><rect x="-680" y="-1527.3" display="inline" fill="#F0F0F0" width="1680" height="1677.3"/></g><g id="Layer_1"/><g id="Layer_3"><path fill="#1CB0F6" d="M73.3,58.6L25.2,23.9c-9.1-6.6-21.6,1.7-19,12.7l8.1,34.7c1.3,5.5,6.2,9.4,11.9,9.4h33.4L39.7,86 c-16.7,4.5-22.3,25.3-10.1,37.5l0,0c12.2,12.2,33.1,6.6,37.5-10.1l10.1-37.5l-1.8,0.5C79.7,71.4,79.7,63.2,73.3,58.6z"/><path fill="#1CB0F6" d="M124.1,23.9L76,58.6c-6.4,4.6-6.4,12.8-2.2,17.8L72,75.9l10.1,37.5c4.5,16.7,25.3,22.3,37.5,10.1v0 c12.2-12.2,6.6-33.1-10.1-37.5l-19.8-5.3h33.4c5.7,0,10.6-3.9,11.9-9.4l8.1-34.7C145.7,25.6,133.3,17.3,124.1,23.9z"/><path fill="#232323" d="M74.7,98.5L74.7,98.5c-3.7,0-6.8-3-6.8-6.8V59c0-3.7,3-6.8,6.8-6.8h0c3.7,0,6.8,3,6.8,6.8v32.7 C81.4,95.5,78.4,98.5,74.7,98.5z"/><circle fill="#14D4F4" cx="46" cy="106.8" r="7.1"/><circle fill="#14D4F4" cx="103.2" cy="106.8" r="7.1"/><circle fill="#14D4F4" cx="123.1" cy="45.1" r="9.4"/><circle fill="#14D4F4" cx="101.1" cy="55.6" r="4.4"/><circle fill="#14D4F4" cx="113.4" cy="68" r="4.4"/><circle fill="#14D4F4" cx="25.4" cy="45.1" r="9.4"/><circle fill="#14D4F4" cx="47.4" cy="55.6" r="4.4"/><circle fill="#14D4F4" cx="35" cy="68" r="4.4"/></g></svg>