<?xml version="1.0" encoding="utf-8"?><!DOCTYPE svg PUBLIC "-//W3C//DTD SVG 1.1//EN" "http://www.w3.org/Graphics/SVG/1.1/DTD/svg11.dtd"><svg version="1.1" id="Layer_1" xmlns="http://www.w3.org/2000/svg" xmlns:xlink="http://www.w3.org/1999/xlink" x="0px" y="0px" width="150px" height="150px" viewBox="0 0 150 150" enable-background="new 0 0 150 150" xml:space="preserve"><path fill="#7AC70C" d="M123.2,87.1L81.9,112c8.4,4.7,19,4.8,27.9-0.5C118.6,106.2,123.4,96.8,123.2,87.1z"/><path fill="#70AF0C" d="M81.9,112l41.3-24.9c-8.4-4.7-19-4.8-27.9,0.5C86.5,93,81.7,102.4,81.9,112z"/><rect x="73.1" y="48.4" fill="#70AF0C" width="6.3" height="87.8"/><path fill="#A52020" d="M73.3,19.3h0.3h4.2h27.8c0,7.6-6.2,13.7-13.7,13.7h-0.3H75.8H59.5C59.5,25.5,65.7,19.3,73.3,19.3z"/><path fill="#C63030" d="M81.6,22.8h-0.3h-4.2H49.3c0,7.6,6.2,13.7,13.7,13.7h0.3h15.7h16.3C95.4,29,89.2,22.8,81.6,22.8z"/><path fill="#BA2F2F" d="M107.6,29.7v23.6C107.6,70.8,93.4,85,76,85h0c-17.4,0-31.6-14.2-31.6-31.6V29.7"/><polygon fill="#70AF0C" points="73.4,105.9 63.7,100.3 73.4,94.7"/><polygon fill="#70AF0C" points="79.4,116.6 89,122.2 79.4,127.8"/><path fill="#D33535" d="M44.3,29.8v23.6C44.3,70.8,58.6,85,76,85c3.2,0,6.3-0.5,9.3-1.4c0-0.6,0-1.2,0-1.9	C85.3,56.5,67.8,35.4,44.3,29.8z"/><path fill="#C63030" d="M107.6,29.8v23.6C107.6,70.8,93.4,85,76,85c-3.2,0-6.3-0.5-9.3-1.4c0-0.6,0-1.2,0-1.9	C66.7,56.5,84.1,35.4,107.6,29.8z"/></svg>