<?xml version="1.0" encoding="utf-8"?><!DOCTYPE svg PUBLIC "-//W3C//DTD SVG 1.1//EN" "http://www.w3.org/Graphics/SVG/1.1/DTD/svg11.dtd"><svg version="1.1" id="Layer_1" xmlns="http://www.w3.org/2000/svg" xmlns:xlink="http://www.w3.org/1999/xlink" x="0px" y="0px" width="150px" height="150px" viewBox="0 0 150 150" enable-background="new 0 0 150 150" xml:space="preserve"><g><path fill="#00BDFF" d="M24.6,104.1c0-3,1.6-4.6,4.6-4.6h12.7V55.4c0-2.7,0.1-5.4,0.1-5.4h-0.2c0,0-1,2.1-3,4l-3.5,3.4 c-2.2,2-4.5,2-6.5-0.2L26.6,55c-2.1-2.1-2-4.5,0.1-6.6l14.1-13.6c1.8-1.6,3.5-2.4,5.8-2.4h4.7c3,0,4.6,1.7,4.6,4.7v62.4h12.5 c3,0,4.7,1.6,4.7,4.6v3.1c0,3.1-1.7,4.7-4.7,4.7H29.2c-3,0-4.6-1.6-4.6-4.7V104.1z"/><path fill="#00BDFF" d="M110,52.2c2.5-4.9,4.5-7.3,4.5-7.3v-0.2c0,0-1.2,0.2-5.2,0.2H80c-3,0-4.6-1.6-4.6-4.6v-3.1 c0-3,1.6-4.7,4.6-4.7h45.4c3,0,4.7,1.6,4.7,4.6v2.5c0,2.1-0.3,3.8-1.3,5.7l-31.8,63.4c-1.2,2.4-2.9,3.4-5.6,3.4h-5 c-3.6,0-4.9-2.2-3.4-5.5L110,52.2z"/></g></svg>