<?xml version="1.0" encoding="utf-8"?><!DOCTYPE svg PUBLIC "-//W3C//DTD SVG 1.1//EN" "http://www.w3.org/Graphics/SVG/1.1/DTD/svg11.dtd"><svg version="1.1" id="Layer_1" xmlns="http://www.w3.org/2000/svg" xmlns:xlink="http://www.w3.org/1999/xlink" x="0px" y="0px" width="150px" height="150px" viewBox="0 0 150 150" enable-background="new 0 0 150 150" xml:space="preserve"><circle fill="#00BDFF" cx="75.2" cy="74.3" r="57.3"/><circle fill="#FFFFFF" cx="75.2" cy="74.3" r="47.7"/><path fill="#C9C9C9" d="M75.4,43H75c-1,0-1.9-0.9-1.9-1.9v-8.5c0-1,0.9-1.9,1.9-1.9h0.4c1,0,1.9,0.9,1.9,1.9v8.5	C77.3,42.2,76.4,43,75.4,43z"/><path fill="#C9C9C9" d="M75.4,117.8H75c-1,0-1.9-0.9-1.9-1.9v-8.5c0-1,0.9-1.9,1.9-1.9h0.4c1,0,1.9,0.9,1.9,1.9v8.5	C77.3,117,76.4,117.8,75.4,117.8z"/><path fill="#C9C9C9" d="M43.9,74.1v0.4c0,1-0.9,1.9-1.9,1.9h-8.5c-1,0-1.9-0.9-1.9-1.9v-0.4c0-1,0.9-1.9,1.9-1.9H42	C43.1,72.2,43.9,73,43.9,74.1z"/><path fill="#C9C9C9" d="M118.2,74.1v0.4c0,1-0.9,1.9-1.9,1.9h-8.5c-1,0-1.9-0.9-1.9-1.9v-0.4c0-1,0.9-1.9,1.9-1.9h8.5	C117.3,72.2,118.2,73,118.2,74.1z"/><path fill="#DDDDDD" d="M56.4,44.3L56,44.5c-0.9,0.6-2.1,0.3-2.6-0.6l-2.3-3.6c-0.6-0.9-0.3-2.1,0.6-2.6l0.3-0.2	c0.9-0.6,2.1-0.3,2.6,0.6l2.3,3.6C57.5,42.5,57.2,43.7,56.4,44.3z"/><path fill="#DDDDDD" d="M98.7,110.9l-0.3,0.2c-0.9,0.6-2.1,0.3-2.6-0.6l-2.4-3.8c-0.6-0.9-0.3-2.1,0.6-2.6l0.3-0.2	c0.9-0.6,2.1-0.3,2.6,0.6l2.4,3.8C99.9,109.2,99.6,110.3,98.7,110.9z"/><path fill="#DDDDDD" d="M44.5,56.6L44.3,57c-0.5,0.9-1.7,1.2-2.6,0.7L38,55.6C37,55,36.7,53.9,37.2,53l0.2-0.4	c0.5-0.9,1.7-1.2,2.6-0.7l3.7,2.1C44.7,54.5,45,55.7,44.5,56.6z"/><path fill="#DDDDDD" d="M113.2,95.6L113,96c-0.5,0.9-1.7,1.2-2.6,0.7l-3.9-2.2c-0.9-0.5-1.2-1.7-0.7-2.6l0.2-0.4	c0.5-0.9,1.7-1.2,2.6-0.7l3.9,2.2C113.3,93.5,113.7,94.7,113.2,95.6z"/><path fill="#545454" d="M74.8,35.1h0.9c2.2,0,4,1.8,4,4v54.8c0,2.2-1.8,4-4,4h-0.9c-2.2,0-4-1.8-4-4V39.1	C70.7,36.9,72.5,35.1,74.8,35.1z"/><path fill="#DDDDDD" d="M45.1,93l0.2,0.3c0.6,0.9,0.3,2.1-0.6,2.6l-3.6,2.3c-0.9,0.6-2.1,0.3-2.6-0.6l-0.2-0.3	c-0.6-0.9-0.3-2.1,0.6-2.6l3.6-2.3C43.4,91.8,44.5,92.1,45.1,93z"/><path fill="#DDDDDD" d="M111.9,50.9l0.2,0.3c0.6,0.9,0.3,2.1-0.6,2.6l-3.8,2.4c-0.9,0.6-2.1,0.3-2.6-0.6l-0.2-0.3	c-0.6-0.9-0.3-2.1,0.6-2.6l3.8-2.4C110.2,49.8,111.4,50,111.9,50.9z"/><path fill="#DDDDDD" d="M57.8,105.1l0.4,0.2c0.9,0.5,1.2,1.7,0.7,2.6l-2.1,3.8c-0.5,0.9-1.7,1.2-2.6,0.7l-0.4-0.2	c-0.9-0.5-1.2-1.7-0.7-2.6l2.1-3.8C55.7,105,56.9,104.6,57.8,105.1z"/><path fill="#DDDDDD" d="M96.2,36.1l0.4,0.2c0.9,0.5,1.2,1.7,0.7,2.6l-2.2,3.9c-0.5,0.9-1.7,1.2-2.6,0.7l-0.4-0.2	c-0.9-0.5-1.2-1.7-0.7-2.6l2.2-3.9C94.1,36,95.3,35.6,96.2,36.1z"/><circle fill="#6B6B6B" cx="75.2" cy="74.3" r="5.9"/></svg>