<?xml version="1.0" encoding="utf-8"?><!DOCTYPE svg PUBLIC "-//W3C//DTD SVG 1.1//EN" "http://www.w3.org/Graphics/SVG/1.1/DTD/svg11.dtd"><svg version="1.1" id="Layer_1" xmlns="http://www.w3.org/2000/svg" xmlns:xlink="http://www.w3.org/1999/xlink" x="0px" y="0px" width="150px" height="150px" viewBox="0 0 150 150" enable-background="new 0 0 150 150" xml:space="preserve"><polygon fill="#844631" points="106.3,136 44.4,136 37.8,37.7 112.9,37.7"/><rect x="34" y="29.5" fill="#282828" width="82.8" height="8.2"/><polygon fill="#282828" points="113.6,32.6 37.3,32.6 38.8,14.8 112.2,14.8"/><polygon fill="#E2B77A" points="113.1,100.8 37,100.8 35.3,54.1 114.8,54.1"/><polygon fill="#6D372B" points="112.2,47.9 112.9,37.7 37.8,37.7 38.5,47.9"/><path fill="#592D22" d="M74.1,65.2c0-1.5-1.5-2.5-2.9-1.9c-5.3,2.4-9,7.7-9,13.8s3.7,11.5,9,13.8c1.4,0.6,2.9-0.4,2.9-1.9V65.2z"/><path fill="#592D22" d="M76.4,89.1c0,1.5,1.5,2.5,2.9,1.9c5.3-2.4,9-7.7,9-13.8s-3.7-11.5-9-13.8c-1.4-0.6-2.9,0.4-2.9,1.9V89.1z"/><polygon fill="#6D372B" points="108.2,108.2 108.7,100.8 42.1,100.8 42.6,108.2"/></svg>