<?xml version="1.0" encoding="utf-8"?><!DOCTYPE svg PUBLIC "-//W3C//DTD SVG 1.1//EN" "http://www.w3.org/Graphics/SVG/1.1/DTD/svg11.dtd"><svg version="1.1" id="Layer_1" xmlns="http://www.w3.org/2000/svg" xmlns:xlink="http://www.w3.org/1999/xlink" x="0px" y="0px" width="150px" height="150px" viewBox="0 0 150 150" enable-background="new 0 0 150 150" xml:space="preserve"><g><path fill="#00BDFF" d="M19.5,103.1c0-3,1.6-4.6,4.6-4.6h12.7V54.4c0-2.7,0.1-5.4,0.1-5.4h-0.2c0,0-1,2.1-3,4l-3.5,3.4 c-2.2,2-4.5,2-6.5-0.2L21.5,54c-2.1-2.1-2-4.5,0.1-6.6l14.1-13.6c1.8-1.6,3.5-2.4,5.8-2.4h4.7c3,0,4.6,1.7,4.6,4.7v62.4h12.5 c3,0,4.7,1.6,4.7,4.6v3.1c0,3.1-1.7,4.7-4.7,4.7H24.1c-3,0-4.6-1.6-4.6-4.7V103.1z"/><path fill="#00BDFF" d="M85.2,67.6c-5.4-3.8-9.1-8.7-9.1-15.9c0-10.8,8.2-21.6,25.4-21.6c15,0,26.1,8.4,26.1,21.5 c0,10.2-7.2,18.1-9,19.9c6.4,3.8,11,9.3,11,17.2c0,12-10.4,23.5-28.2,23.5c-17.2,0-28.4-10.9-28.4-23.9 C72.9,76.7,82.6,69.4,85.2,67.6z M101.5,99.8c7.2,0,13.3-4.6,13.3-11.2c0-7.6-8.4-10-19.9-15.1c-2.1,1.9-7.5,6.3-7.5,13.4 C87.4,94.6,93.8,99.8,101.5,99.8z M113.6,53.3c0-6.8-4.7-10.6-12-10.6c-7.6,0-11.4,4.1-11.4,9.3c0,7.7,8.6,10.5,18.1,14.6 C109.6,64.7,113.6,59.8,113.6,53.3z"/></g></svg>