<?xml version="1.0" encoding="utf-8"?><!DOCTYPE svg PUBLIC "-//W3C//DTD SVG 1.1//EN" "http://www.w3.org/Graphics/SVG/1.1/DTD/svg11.dtd"><svg version="1.1" id="Layer_1" xmlns="http://www.w3.org/2000/svg" xmlns:xlink="http://www.w3.org/1999/xlink" x="0px" y="0px" width="150px" height="150px" viewBox="0 0 150 150" enable-background="new 0 0 150 150" xml:space="preserve"><linearGradient id="SVGID_1_" gradientUnits="userSpaceOnUse" x1="75.5552" y1="131.8972" x2="75.5552" y2="19.1421"><stop offset="0" style="stop-color:#FF9BD6"/><stop offset="0.7134" style="stop-color:#B7D2EE"/></linearGradient><rect x="31.3" y="19.1" fill="url(#SVGID_1_)" width="88.4" height="112.8"/><path fill="#FDEEFF" d="M61.6,66.2h-5.3c0.1-0.4,0.1-0.7,0.1-1.1c0-4.3-3.5-7.9-7.9-7.9c-1,0-2,0.2-2.8,0.5	c-1.4-1.8-3.6-2.9-6.1-2.9c-4.3,0-7.9,3.5-7.9,7.9c0,1.3,0.3,2.5,0.8,3.5h-2.2c-0.8,0-1.4,0.6-1.4,1.4v0c0,0.8,0.6,1.4,1.4,1.4h31.3	c0.8,0,1.4-0.6,1.4-1.4v0C62.9,66.8,62.3,66.2,61.6,66.2z"/><path fill="#669E5C" d="M31.3,122v9.9h88.4v-12.7c-12.4-6.7-26.7-10.6-41.8-10.6C60.8,108.6,44.9,113.5,31.3,122z"/><rect x="31.3" y="16.7" fill="none" stroke="#895237" stroke-width="7.6634" stroke-miterlimit="10" width="88.4" height="115.2"/><line fill="none" stroke="#895237" stroke-width="7.6634" stroke-miterlimit="10" x1="31.5" y1="45.9" x2="119.8" y2="45.9"/><line fill="none" stroke="#895237" stroke-width="5.3644" stroke-miterlimit="10" x1="75.6" y1="15.6" x2="75.6" y2="44.8"/><path fill="#FDEEFF" d="M111.7,35.9h-3.8c0-4.4-3.6-8-8-8c-4.4,0-8,3.6-8,8h-1.4c-0.8,0-1.4,0.6-1.4,1.4c0,0.8,0.6,1.4,1.4,1.4h21.1	c0.8,0,1.4-0.6,1.4-1.4C113.1,36.5,112.5,35.9,111.7,35.9z"/><path fill="#FDEEFF" d="M86,38.7h-3.6c-0.7,0-1.4-0.6-1.4-1.4v0c0-0.7,0.6-1.4,1.4-1.4H86c0.7,0,1.4,0.6,1.4,1.4v0	C87.3,38.1,86.7,38.7,86,38.7z"/><rect x="35.1" y="42.1" fill="#6D3E2E" width="4.8" height="7.6"/><rect x="111.2" y="42.1" fill="#6D3E2E" width="4.8" height="7.6"/><rect x="72.9" y="20.4" fill="#6D3E2E" width="5.3" height="4.8"/><rect x="23.9" y="7.7" fill="#6D3E2E" width="103.5" height="12.8"/><rect x="23.9" y="128.1" fill="#6D3E2E" width="103.5" height="12.8"/><path fill="#5E8E54" d="M58.7,124.4L58.7,124.4c-0.8,0-1.4-0.6-1.4-1.4v-3.9c0-0.8,0.6-1.4,1.4-1.4h0c0.8,0,1.4,0.6,1.4,1.4v3.9	C60,123.7,59.4,124.4,58.7,124.4z"/><path fill="#5E8E54" d="M62,124.4L62,124.4c-0.8,0-1.4-0.6-1.4-1.4v-2.3c0-0.8,0.6-1.4,1.4-1.4h0c0.8,0,1.4,0.6,1.4,1.4v2.3	C63.4,123.7,62.8,124.4,62,124.4z"/><path fill="#5E8E54" d="M55.3,124.4L55.3,124.4c-0.8,0-1.4-0.6-1.4-1.4v-2.3c0-0.8,0.6-1.4,1.4-1.4h0c0.8,0,1.4,0.6,1.4,1.4v2.3	C56.7,123.7,56.1,124.4,55.3,124.4z"/><path fill="#5E8E54" d="M86.3,119.2L86.3,119.2c-0.8,0-1.4-0.6-1.4-1.4V114c0-0.8,0.6-1.4,1.4-1.4l0,0c0.8,0,1.4,0.6,1.4,1.4v3.9	C87.7,118.6,87,119.2,86.3,119.2z"/><path fill="#5E8E54" d="M89.6,119.2L89.6,119.2c-0.8,0-1.4-0.6-1.4-1.4v-2.3c0-0.8,0.6-1.4,1.4-1.4h0c0.8,0,1.4,0.6,1.4,1.4v2.3	C91,118.6,90.4,119.2,89.6,119.2z"/><path fill="#CC2F2F" d="M85.1,74.7c-1.1,0.1-2,0.8-2.2,1.8l-0.5-1.3c-0.5-1.2-2-1.8-3.2-1.3c-1.2,0.5-1.8,2-1.3,3.2l0.6,1.4	c-0.9-0.6-2.1-0.5-2.9,0.2c-1,0.9-1.1,2.4-0.2,3.4l4.6,5.3c0.9,1,2.4,1.1,3.4,0.2l0,0c0.5-0.4,0.8-1.1,0.8-1.7	c0.4,0.3,1,0.5,1.5,0.5c1.3-0.1,2.4-1.2,2.3-2.5L87.7,77C87.6,75.7,86.4,74.7,85.1,74.7z"/><path fill="#E28100" d="M76.2,108.8L76.2,108.8c-0.6,0-1-0.4-1-0.9v-4.4c0-0.5,0.4-0.9,0.9-0.9h0.1c0.5,0,0.9,0.4,0.9,0.9v4.4	C77.2,108.4,76.7,108.8,76.2,108.8z"/><path fill="#FFFFFF" d="M82.7,77.9c-3,0-5.4,2.4-5.4,5.4v1.5c0,2.9-2.3,5.2-5.2,5.2c-2.9,0-5.2-2.3-5.2-5.2c-3.6,0-6.5,2.9-6.5,6.5	v0c0,7.1,5.7,12.8,12.8,12.8h2c6.5,0,11.9-4.8,12.7-11.1c0.1-0.4,0.1-0.7,0.1-1.1v-0.6v0v-8C88,80.4,85.6,77.9,82.7,77.9z"/><circle fill="#CC2F2F" cx="85.5" cy="88.9" r="3"/><path fill="#E28100" d="M83.4,86.9L83.4,86.9c0-2.1,1.8-3.9,3.9-3.9h1.5c2.1,0,3.9,1.8,3.9,3.9v0"/><path fill="#C9C9C9" d="M82.9,83.1c0,0.6-0.5,1.1-1.1,1.1c-0.6,0-1.1-0.5-1.1-1.1"/><path fill="#E28100" d="M80.1,108.5L80.1,108.5c0,0.6-0.4,1-0.9,1h-4.4c-0.5,0-0.9-0.4-0.9-0.9v-0.1c0-0.5,0.4-0.9,0.9-0.9h4.4	C79.7,107.6,80.1,108,80.1,108.5z"/><path fill="#E28100" d="M72.5,108.8L72.5,108.8c-0.6,0-1-0.4-1-0.9v-4.4c0-0.5,0.4-0.9,0.9-0.9h0.1c0.5,0,0.9,0.4,0.9,0.9v4.4	C73.4,108.4,73,108.8,72.5,108.8z"/><path fill="#E28100" d="M76.4,108.5L76.4,108.5c0,0.6-0.4,1-0.9,1h-4.4c-0.5,0-0.9-0.4-0.9-0.9v-0.1c0-0.5,0.4-0.9,0.9-0.9h4.4	C76,107.6,76.4,108,76.4,108.5z"/><path fill="#FFFFFF" d="M60.3,78.9L60.3,78.9c3.6,0,6.5,2.9,6.5,6.5v0c0,3.6-2.9,6.5-6.5,6.5h0"/></svg>