<?xml version="1.0" encoding="utf-8"?><!DOCTYPE svg PUBLIC "-//W3C//DTD SVG 1.1//EN" "http://www.w3.org/Graphics/SVG/1.1/DTD/svg11.dtd"><svg version="1.1" id="Layer_1" xmlns="http://www.w3.org/2000/svg" xmlns:xlink="http://www.w3.org/1999/xlink" x="0px" y="0px" width="150px" height="150px" viewBox="0 0 150 150" enable-background="new 0 0 150 150" xml:space="preserve"><polygon fill="#BA7856" points="19.1,37.5 13.1,32.5 7.1,37.5 7.1,119 7.1,119 19.1,119 31,119 31,37.5"/><polygon fill="#C67F5C" points="19.1,37.5 25.1,32.5 31,37.5"/><polygon fill="#AF714F" points="85.2,32.5 79.2,37.3 73.2,32.5 67.3,37.3 61.3,32.5 55.3,37.3 49.3,32.5 43.3,37.3 37.3,32.5 31,37.5 28.1,37.5 28.1,119 91.5,119 91.5,37.5"/><rect x="19.1" y="37.5" fill="#C67F5C" width="11.9" height="81.5"/><path fill="#774335" d="M45.7,62.8L45.7,62.8c1.1,0,2,0.9,2,2v11.9c0,1.1-0.9,2-2,2h0c-1.1,0-2-0.9-2-2V64.8	C43.7,63.7,44.6,62.8,45.7,62.8z"/><path fill="#88C11A" d="M48.5,79c-5.9,4.6-14.4,3.6-19-2.3c-4.6-5.9-3.6-14.4,2.3-19"/><path fill="#CC3333" d="M32.3,113.4L32.3,113.4c-7.6-7.6-7.6-19.9,0-27.5l8-8c7.6-7.6,19.9-7.6,27.5,0l0,0c7.6,7.6,7.6,19.9,0,27.5	l-8,8C52.2,120.9,39.8,120.9,32.3,113.4z"/><path fill="#CC3333" d="M59.7,113.4L59.7,113.4c-7.6,7.6-19.9,7.6-27.5,0l-8-8c-7.6-7.6-7.6-19.9,0-27.5l0,0	c7.6-7.6,19.9-7.6,27.5,0l8,8C67.3,93.5,67.3,105.8,59.7,113.4z"/><circle fill="#FFFFFF" cx="33.4" cy="87.2" r="5.6"/><polygon fill="#AF714F" points="7.1,119 19.2,99.4 31.2,119"/><path fill="#DB976A" d="M139.6,107.8L139.6,107.8c0,6.2-5.1,11.3-11.3,11.3H66.6c-6.2,0-11.3-5.1-11.3-11.3v0"/><path fill="#EDB894" d="M100.5,107.8l-0.2,0c0,6.2-5.1,11.3-11.3,11.3l-22.4,0c-6.2,0-11.3-5.1-11.3-11.3v0"/><path fill="#DB976A" d="M55.4,93.1L55.4,93.1c0-12.3,10-22.3,22.3-22.3h39.6c12.3,0,22.3,10,22.3,22.3v0"/><path fill="#EDB894" d="M55.4,93.1L55.4,93.1c0-12.3,10-22.3,22.3-22.3h0.5c12.3,0,22.3,10,22.3,22.3l39.1,0"/><polygon fill="#FFB600" points="135.1,106.9 120.2,117.1 105.2,106.9"/><path fill="#88C11A" d="M139.4,107.8H55.6c-2.9,0-5.2-2.4-5.2-5.2v0c0-2.9,2.4-5.2,5.2-5.2h83.9c2.9,0,5.2,2.4,5.2,5.2v0	C144.7,105.4,142.3,107.8,139.4,107.8z"/><path fill="#D37F6C" d="M140,102.4h-36.3c-2.6,0-4.7-2.1-4.7-4.7v0c0-2.6,2.1-4.7,4.7-4.7H140c2.6,0,4.7,2.1,4.7,4.7v0	C144.7,100.3,142.6,102.4,140,102.4z"/><path fill="#BC6F62" d="M122.8,102.4H77.3c-2.6,0-4.7-2.1-4.7-4.7v0c0-2.6,2.1-4.7,4.7-4.7h45.5c2.6,0,4.7,2.1,4.7,4.7v0	C127.5,100.3,125.4,102.4,122.8,102.4z"/><path fill="#D37F6C" d="M100.6,102.4H55.5c-2.6,0-4.7-2.1-4.7-4.7v0c0-2.6,2.1-4.7,4.7-4.7h45.1c2.6,0,4.7,2.1,4.7,4.7v0	C105.2,100.3,103.1,102.4,100.6,102.4z"/><path fill="#EDB894" d="M121.5,78.4h-2.8c-0.9,0-1.6-0.7-1.6-1.6l0,0c0-0.9,0.7-1.6,1.6-1.6h2.8c0.9,0,1.6,0.7,1.6,1.6l0,0	C123.1,77.7,122.4,78.4,121.5,78.4z"/><path fill="#EDB894" d="M108.5,78.4h-2.8c-0.9,0-1.6-0.7-1.6-1.6l0,0c0-0.9,0.7-1.6,1.6-1.6h2.8c0.9,0,1.6,0.7,1.6,1.6l0,0	C110.1,77.7,109.4,78.4,108.5,78.4z"/><circle fill="#DDA57F" cx="68.8" cy="85.7" r="4"/><circle fill="#DDA57F" cx="84.5" cy="76.9" r="2.7"/><circle fill="#DDA57F" cx="84.5" cy="112.7" r="2.7"/></svg>