<?xml version="1.0" encoding="utf-8"?><!DOCTYPE svg PUBLIC "-//W3C//DTD SVG 1.1//EN" "http://www.w3.org/Graphics/SVG/1.1/DTD/svg11.dtd"><svg version="1.1" xmlns="http://www.w3.org/2000/svg" xmlns:xlink="http://www.w3.org/1999/xlink" x="0px" y="0px" width="150px" height="150px" viewBox="0 0 150 150" enable-background="new 0 0 150 150" xml:space="preserve"><g id="Layer_2" display="none"><rect x="-680" y="-170" display="inline" fill="#F0F0F0" width="1680" height="1677.3"/></g><g id="Layer_1"><ellipse fill="#932B61" cx="73.8" cy="73" rx="24.6" ry="5.3"/><path fill="#71B70D" d="M37.2,24.7c-1.7,9.8,1.2,20.3,8.7,27.9C53.5,60.1,64,63,73.8,61.3c1.7-9.8-1.2-20.3-8.7-27.9 C57.5,25.8,47,22.9,37.2,24.7z"/><path fill="#88C11A" d="M73.2,11C65,16.7,59.7,26.2,59.7,37c0,10.8,5.4,20.2,13.6,26c8.2-5.7,13.6-15.2,13.6-26 C86.8,26.2,81.4,16.7,73.2,11z"/><path fill="#71B70D" d="M73.6,61.3c-1.7-9.8,1.2-20.4,8.8-28c7.6-7.6,18.1-10.5,28-8.8c1.7,9.8-1.2,20.4-8.8,28 C93.9,60.1,83.4,63,73.6,61.3z"/><circle fill="#8C2861" cx="43.1" cy="65.2" r="16.8"/><circle fill="#932B61" cx="73.3" cy="65.2" r="16.8"/><circle fill="#8C2861" cx="58.9" cy="90.2" r="16.8"/><circle fill="#932B61" cx="73.3" cy="115.1" r="16.8"/><circle fill="#8C2861" cx="88.1" cy="90.2" r="16.8"/><circle fill="#8C2861" cx="103.5" cy="65.2" r="16.8"/><circle fill="#992C70" cx="37.6" cy="60.7" r="4.6"/><circle fill="#A83376" cx="67.8" cy="60.7" r="4.6"/><circle fill="#992C70" cx="98" cy="60.7" r="4.6"/><circle fill="#992C70" cx="53.8" cy="86.2" r="4.6"/><circle fill="#A83376" cx="67.8" cy="110.5" r="4.6"/><circle fill="#992C70" cx="83" cy="86.2" r="4.6"/></g><g id="Layer_3"/></svg>