<?xml version="1.0" encoding="utf-8"?><!DOCTYPE svg PUBLIC "-//W3C//DTD SVG 1.1//EN" "http://www.w3.org/Graphics/SVG/1.1/DTD/svg11.dtd"><svg version="1.1" id="Layer_1" xmlns="http://www.w3.org/2000/svg" xmlns:xlink="http://www.w3.org/1999/xlink" x="0px" y="0px" width="150px" height="150px" viewBox="0 0 150 150" enable-background="new 0 0 150 150" xml:space="preserve"><polygon fill="#6E9B00" points="60.3,62.9 88.4,7.6 116.5,62.9"/><rect x="83.5" y="105.3" fill="#B26938" width="11" height="13.8"/><polygon fill="#639600" points="52.7,109.4 88.4,29.2 124,109.4"/><polygon fill="#639600" points="24.7,98.4 60.4,18.2 96,98.4"/><path fill="#639600" d="M97,57.1c0-7.6-6.1-13.7-13.7-13.7c-0.4,0-0.8,0-1.2,0.1c-1.2-6.3-6.8-11-13.5-11c-3.5,0-6.7,1.3-9.1,3.4	c-6.2,0.3-12,2.4-16.7,5.8c0,0,0,0,0,0c-7.4,0-13.4,6-13.4,13.4c0,1.7,0.3,3.4,0.9,4.9c-0.6,2.5-0.9,5-0.9,7.7v4.2	c0,2.9,2.4,5.3,5.3,5.3h53c2.9,0,5.3-2.4,5.3-5.3v-4.2c0-0.3,0-0.6,0-0.8C95.5,64.3,97,60.9,97,57.1z"/><circle fill="#639600" cx="62.5" cy="87.7" r="17.6"/><circle fill="#639600" cx="87.3" cy="82.1" r="18.4"/><circle fill="#639600" cx="91.9" cy="64.2" r="22.9"/><polygon fill="#70AF0C" points="86.7,109.9 114.5,47.4 142.3,109.9"/><polygon fill="#70AF0C" points="92.6,73 114.5,33.7 136.4,73"/><rect x="107.7" y="109.9" fill="#B26938" width="12.3" height="8.6"/><polygon fill="#70AF0C" points="10.2,73 34.4,25.5 58.5,73"/><polygon fill="#70AF0C" points="3.7,109.6 34.4,40.7 65,109.6"/><path fill="#7C3A23" d="M77.7,109.3c-0.8-0.8-2.2-0.8-3,0l-0.5,0.5c0-0.1-0.1-0.1-0.1-0.2L58.8,94.3c-1.7-1.7-4.6-1.7-6.3,0	c-1.7,1.7-1.7,4.6,0,6.3l15.3,15.3c1.5,1.5,3.9,1.7,5.7,0.6c0.2-0.1,0.3-0.2,0.4-0.3L74,116c0,0,0.1-0.1,0.1-0.1s0.1-0.1,0.1-0.1	l3.5-3.5C78.5,111.5,78.5,110.1,77.7,109.3z"/><path fill="#7C3A23" d="M44.4,114.5h-0.6c0.1-0.3,0.1-0.6,0.1-0.9V93.3c0-2.8-2.3-5.1-5.1-5.1c-2.8,0-5.1,2.3-5.1,5.1v20.3	c0,2.8,2.3,5.1,5.1,5.1c0.1,0,0.2,0,0.3,0c0.1,0,0.2,0,0.3,0h5c1.2,0,2.1-1,2.1-2.1S45.5,114.5,44.4,114.5z"/><path fill="#CC7462" d="M93.8,102.6l-1.4,1.4c-4.1,4.1-10.7,4.1-14.8,0l-3.8-3.8c-4.1-4.1-4.1-10.7,0-14.8l1.4-1.4"/><path fill="#9B4E2C" d="M85.3,94.2c0.2-1.7-0.3-3.5-1.6-4.8l-1-1c1.6-1.6,1.6-4.2,0-5.8s-4.2-1.6-5.8,0l-4.4-4.4	c-1.5-1.5-3.6-1.9-5.5-1.4c-0.8-0.1-1.6-0.2-2.5-0.2H39.5c-5.9,0-10.9,3.6-13,8.7h-0.2c-2.9,0-5.3,2.4-5.3,5.3s2.4,5.3,5.3,5.3h0.1	c0.4,1.1,1,2.1,1.7,3.1l-10.2,10.2c-2.3,2.3-2.3,6,0,8.2v0c0.8,0.8,1.9,1.4,3,1.6c0.3,0.1,0.6,0.2,0.9,0.2h6.6c1.2,0,2.1-1,2.1-2.1	c0-1.1-0.9-2-2-2.1l10.1-10.1c0.3,0,0.5,0,0.8,0h13.4v9c0,3,2.4,5.4,5.4,5.4c0.1,0,0.2,0,0.4,0c0.1,0,0.2,0,0.4,0h5	c1.2,0,2.1-1,2.1-2.1s-1-2.1-2.1-2.1h-0.5c0.1-0.4,0.1-0.7,0.1-1.1v-9h0.9c2.2,0,4.3-0.5,6.2-1.4l1.7,1.7c3.3,3.3,8.7,3.3,12,0	C87.4,102.1,87.7,97.5,85.3,94.2z"/><path fill="#602D1B" d="M83.3,95.4c0,1-0.8,1.9-1.9,1.9s-1.9-0.8-1.9-1.9"/><path fill="#602D1B" d="M92.3,104l1.4-1.4l-2.3-2.3v4.5C91.8,104.6,92.1,104.3,92.3,104z"/><rect x="62.3" y="76.6" fill="#9B4E2C" width="6.4" height="2.5"/></svg>