<?xml version="1.0" encoding="utf-8"?><!DOCTYPE svg PUBLIC "-//W3C//DTD SVG 1.1//EN" "http://www.w3.org/Graphics/SVG/1.1/DTD/svg11.dtd"><svg version="1.1" xmlns="http://www.w3.org/2000/svg" xmlns:xlink="http://www.w3.org/1999/xlink" x="0px" y="0px" width="150px" height="150px" viewBox="0 0 150 150" enable-background="new 0 0 150 150" xml:space="preserve"><g id="Layer_2" display="none"><rect x="-680" y="-340" display="inline" fill="#F0F0F0" width="1680" height="1677.3"/></g><g id="Layer_1"><rect x="16" y="45.7" width="67.8" height="66.4"/><path d="M49.8,95.4L49.8,95.4C31.2,95.4,16,80.1,16,61.5V35.7C16,17,31.2,1.8,49.8,1.8h0c18.6,0,33.9,15.2,33.9,33.9v25.8 C83.7,80.1,68.5,95.4,49.8,95.4z"/><path fill="#FFFFFF" d="M7,147.9v-10.5c0-23.6,19.2-42.8,42.8-42.8h0c23.6,0,42.8,19.2,42.8,42.8v10.5"/><polygon fill="#D33131" points="58.6,114.9 49.9,129.5 41.1,114.9"/><polygon fill="#D33131" points="58.6,147.8 49.9,111.2 41.1,147.8"/><path fill="#EDEDED" d="M71.6,121v-13.9c0-12.2-9.8-22.1-21.8-22.1s-21.8,9.9-21.8,22.1V121l21.8-5.7L71.6,121z"/><polygon fill="#672B21" points="57.6,107.9 49.9,115.3 42.1,107.9"/><circle fill="#672B21" cx="80.4" cy="57.1" r="7.2"/><circle fill="#672B21" cx="19.3" cy="57.1" r="7.2"/><path fill="#672B21" d="M49.9,110.8L49.9,110.8c-6.5,0-11.8-5.3-11.8-11.8V84.9c0-6.5,5.3-11.8,11.8-11.8h0 c6.5,0,11.8,5.3,11.8,11.8V99C61.7,105.5,56.4,110.8,49.9,110.8z"/><path fill="#783F30" d="M49.8,94.9L49.8,94.9c-16.9,0-30.6-13.7-30.6-30.6v-19c0-16.9,13.7-30.6,30.6-30.6h0 c16.9,0,30.6,13.7,30.6,30.6v19C80.4,81.1,66.7,94.9,49.8,94.9z"/><path fill="#672B21" d="M53.4,60h-7.2c-0.8,0-1.5-0.7-1.5-1.5v-11c0-0.8,0.7-1.5,1.5-1.5h7.2c0.8,0,1.5,0.7,1.5,1.5v11 C54.9,59.3,54.3,60,53.4,60z"/><path fill="#612C23" d="M37.9,49.9c0,2.1-1.7,3.8-3.8,3.8s-3.8-1.7-3.8-3.8"/><path fill="#612C23" d="M69.4,49.9c0,2.1-1.7,3.8-3.8,3.8s-3.8-1.7-3.8-3.8"/><rect x="79.8" y="129.1" fill="#FFFFFF" width="20.1" height="18.7"/><path fill="#783F30" d="M81.4,129.1h18.4v-10.6H86.7c-2.9,0-5.3,2.4-5.3,5.3V129.1z"/><path fill="#A8A8A8" d="M71.4,118.5h67.3c1.3,0,2.3-1,2.3-2.3v-1c0-1.3-1-2.3-2.3-2.3H71.4c-1.3,0-2.3,1-2.3,2.3v1 C69.1,117.5,70.1,118.5,71.4,118.5z"/><path fill="#783F30" d="M85.4,125.5h36.7c1.6,0,2.9-1.3,2.9-2.9v-1.3c0-1.6-1.3-2.9-2.9-2.9H85.4c-1.6,0-2.9,1.3-2.9,2.9v1.3 C82.6,124.2,83.8,125.5,85.4,125.5z"/><path fill="#A8A8A8" d="M133.7,113.7c0-15.8-12.8-28.7-28.7-28.7s-28.7,12.8-28.7,28.7"/><path fill="none" stroke="#A8A8A8" stroke-width="3.4193" stroke-miterlimit="10" d="M105,89.8L105,89.8c2.3,0,4.3-1.9,4.3-4.3v0 c0-2.3-1.9-4.3-4.3-4.3h0c-2.3,0-4.3,1.9-4.3,4.3v0C100.8,87.8,102.7,89.8,105,89.8z"/><path fill="none" stroke="#C6C6C6" stroke-width="3.4193" stroke-linecap="round" stroke-linejoin="round" stroke-miterlimit="10" d="M126,103.8c-3.6-8-11.6-13.5-20.9-13.5"/><path fill="#612C23" d="M56.2,78.4h6.1c0.8,0,1.5-0.7,1.5-1.5v-0.7c0-0.8-0.7-1.5-1.5-1.5h-6.1c-0.8,0-1.5,0.7-1.5,1.5v0.7 C54.7,77.8,55.3,78.4,56.2,78.4z"/></g><g id="Layer_3"/></svg>