<?xml version="1.0" encoding="utf-8"?><!DOCTYPE svg PUBLIC "-//W3C//DTD SVG 1.1//EN" "http://www.w3.org/Graphics/SVG/1.1/DTD/svg11.dtd"><svg version="1.1" id="Layer_1" xmlns="http://www.w3.org/2000/svg" xmlns:xlink="http://www.w3.org/1999/xlink" x="0px" y="0px" width="150px" height="150px" viewBox="0 0 150 150" enable-background="new 0 0 150 150" xml:space="preserve"><path fill="#86B20D" d="M148.7,111.4c-3.3-4.7-8.7-7.8-14.9-7.8s-11.6,3.1-14.9,7.8H148.7z"/><path fill="#88C11A" d="M119,111.4c3.3,4.7,8.7,7.8,14.9,7.8s11.6-3.1,14.9-7.8H119z"/><path fill="#86B20D" d="M140,90.4c-5.6-1-11.6,0.7-16,5c-4.4,4.4-6,10.4-5,16L140,90.4z"/><path fill="#88C11A" d="M119,111.4c5.6,1,11.6-0.7,16-5c4.4-4.4,6-10.4,5-16L119,111.4z"/><path fill="#6B381C" d="M89.8,119.9h-47c-10.7,0-19.4-8.7-19.4-19.4V73.9c0-10.7,8.7-19.4,19.4-19.4h47"/><path fill="#BA4D69" d="M89.5,119.9L89.5,119.9c-7.6,0-13.7-6.1-13.7-13.7v-38c0-7.6,6.1-13.7,13.7-13.7h0c7.6,0,13.7,6.1,13.7,13.7	v38C103.2,113.8,97,119.9,89.5,119.9z"/><path fill="#C95576" d="M97.7,71.2L85.4,83.5c-1.1,1.1-3,1.1-4.2,0h0c-1.1-1.1-1.1-3,0-4.2L93.6,67c1.1-1.1,3-1.1,4.2,0v0	C98.9,68.2,98.9,70.1,97.7,71.2z"/><path fill="#C95576" d="M97.7,92.4l-12.3,12.3c-1.1,1.1-3,1.1-4.2,0h0c-1.1-1.1-1.1-3,0-4.2l12.3-12.3c1.1-1.1,3-1.1,4.2,0l0,0	C98.9,89.4,98.9,91.2,97.7,92.4z"/><path fill="#6B381C" d="M113.2,119.9H99.5c-6.9,0-12.5-5.6-12.5-12.5V67c0-6.9,5.6-12.5,12.5-12.5h13.7V119.9z"/><path fill="#BA4D69" d="M112.8,119.9L112.8,119.9c-7.6,0-13.7-6.1-13.7-13.7v-38c0-7.6,6.1-13.7,13.7-13.7h0	c7.6,0,13.7,6.1,13.7,13.7v38C126.5,113.8,120.3,119.9,112.8,119.9z"/><path fill="#492613" d="M42.4,105.2L42.4,105.2c-1.1-1.1-1.1-2.8,0-3.9l21.8-21.8c1.1-1.1,2.8-1.1,3.9,0l0,0c1.1,1.1,1.1,2.8,0,3.9	l-21.8,21.8C45.2,106.3,43.4,106.3,42.4,105.2z"/><path fill="#492613" d="M32,94.9L32,94.9c-1.1-1.1-1.1-2.8,0-3.9l21.8-21.8c1.1-1.1,2.8-1.1,3.9,0l0,0c1.1,1.1,1.1,2.8,0,3.9	L35.9,94.9C34.8,96,33.1,96,32,94.9z"/><path fill="#492613" d="M68,94.9L68,94.9c-1.1,1.1-2.8,1.1-3.9,0L42.4,73.1c-1.1-1.1-1.1-2.8,0-3.9l0,0c1.1-1.1,2.8-1.1,3.9,0L68,91	C69.1,92.1,69.1,93.8,68,94.9z"/><path fill="#492613" d="M57.7,105.2L57.7,105.2c-1.1,1.1-2.8,1.1-3.9,0L32,83.5c-1.1-1.1-1.1-2.8,0-3.9l0,0c1.1-1.1,2.8-1.1,3.9,0	l21.8,21.8C58.8,102.4,58.8,104.2,57.7,105.2z"/><circle fill="#FFFFFF" cx="31.3" cy="48.5" r="29.6"/><g><path fill="#AA5F2D" d="M51.2,37.7c-1.2-2.5-3.8-4.3-7-4.3c-3.1,0-5.8,1.8-7,4.3c1.2,2.5,3.8,4.3,7,4.3 C47.4,42,50.1,40.2,51.2,37.7z"/><path fill="#AA5F2D" d="M25.4,37.7c-1.2-2.5-3.8-4.3-7-4.3s-5.8,1.8-7,4.3c1.2,2.5,3.8,4.3,7,4.3S24.2,40.2,25.4,37.7z"/><path fill="#C17134" d="M32.1,45.5H31c-4.7,0-8.4-3.8-8.4-8.4v0c0-4.7,3.8-8.4,8.4-8.4h1.1c4.7,0,8.4,3.8,8.4,8.4v0 C40.5,41.8,36.8,45.5,32.1,45.5z"/><path fill="#C17134" d="M31.5,62.4L31.5,62.4c-7.1,0-12.8-5.8-12.8-12.8l0-7.8c0-4.1,3.4-7.5,7.5-7.5h10.7c4.1,0,7.5,3.4,7.5,7.5 v7.8C44.4,56.7,38.6,62.4,31.5,62.4z"/><path fill="#EFAD9A" d="M42.5,59.9c0,5.6-4.9,10.1-11,10.1s-11-4.5-11-10.1"/><path fill="#FFC9B6" d="M29.4,50.4h4.3c6.5,0,11.8,5.3,11.8,11.8v0c0,1.3-1,2.3-2.3,2.3H19.9c-1.3,0-2.3-1-2.3-2.3v0 C17.6,55.7,22.9,50.4,29.4,50.4z"/><path fill="#93542A" d="M26.4,42.8c0,1.3-1.1,2.3-2.5,2.3s-2.5-1-2.5-2.3"/><path fill="#93542A" d="M42.2,42.8c0,1.3-1.1,2.3-2.5,2.3c-1.4,0-2.5-1-2.5-2.3"/><ellipse fill="#FFC9B6" cx="38.5" cy="53.7" rx="3.7" ry="3.4"/><ellipse fill="#FFC9B6" cx="24.6" cy="53.7" rx="3.7" ry="3.4"/><ellipse fill="#D88E7D" cx="24.6" cy="53.7" rx="2.1" ry="1.9"/><ellipse fill="#D88E7D" cx="38.5" cy="53.7" rx="2.1" ry="1.9"/><path fill="none" stroke="#EA9C00" stroke-width="2.2139" stroke-linecap="round" stroke-miterlimit="10" d="M38.5,53.8 c0,3.5-3.1,6.4-7,6.4s-7-2.9-7-6.4"/><path fill="none" stroke="#FFB600" stroke-width="0.8856" stroke-linecap="round" stroke-miterlimit="10" d="M34.3,59.7 c-0.8,0.3-1.8,0.5-2.7,0.5c-1,0-1.9-0.2-2.7-0.5"/></g><path fill="#C95576" d="M121,71.2l-12.3,12.3c-1.1,1.1-3,1.1-4.2,0l0,0c-1.1-1.1-1.1-3,0-4.2L116.9,67c1.1-1.1,3-1.1,4.2,0v0	C122.2,68.2,122.2,70.1,121,71.2z"/><path fill="#C95576" d="M121,92.4l-12.3,12.3c-1.1,1.1-3,1.1-4.2,0l0,0c-1.1-1.1-1.1-3,0-4.2l12.3-12.3c1.1-1.1,3-1.1,4.2,0l0,0	C122.2,89.4,122.2,91.2,121,92.4z"/></svg>