<?xml version="1.0" encoding="utf-8"?><!DOCTYPE svg PUBLIC "-//W3C//DTD SVG 1.1//EN" "http://www.w3.org/Graphics/SVG/1.1/DTD/svg11.dtd"><svg version="1.1" id="Layer_1" xmlns="http://www.w3.org/2000/svg" xmlns:xlink="http://www.w3.org/1999/xlink" x="0px" y="0px" width="150px" height="150px" viewBox="0 0 150 150" enable-background="new 0 0 150 150" xml:space="preserve"><path fill="#FFA300" d="M91.3,53L91.3,53c-2.5-2.5-2.5-6.6,0-9.2L118,17.2c2.5-2.5,6.6-2.5,9.2,0l0,0c2.5,2.5,2.5,6.6,0,9.2	L100.5,53C98,55.6,93.8,55.6,91.3,53z"/><path fill="#FFA300" d="M53.6,53.6L53.6,53.6c-1.3-1.3-1.3-3.5,0-4.9L83.4,19c1.3-1.3,3.5-1.3,4.9,0l0,0c1.3,1.3,1.3,3.5,0,4.9	L58.5,53.6C57.2,55,55,55,53.6,53.6z"/><path fill="#FFA300" d="M93.4,33.5l-9.9-9.9c-1.3-1.3-1.3-3.4,0-4.7l0,0c1.3-1.3,3.4-1.3,4.7,0l9.9,9.9c1.3,1.3,1.3,3.4,0,4.7l0,0	C96.8,34.7,94.7,34.7,93.4,33.5z"/><path fill="#1E6BA5" d="M62,60.5l33.2-33.2c6-6,15.8-6,21.9,0l0,0c6,6,6,15.8,0,21.9L83.8,82.4"/><path fill="#1E6BA5" d="M84,78.4L45.3,117c-4.9,4.9-12.8,4.9-17.7,0l0,0c-4.9-4.9-4.9-12.8,0-17.7l38.7-38.7"/><polygon fill="#A5A5A5" points="37.2,120.7 19.7,125 24,107.5"/><path fill="#288FCE" d="M65.5,64.1l31.5-31.5c1.3-1.3,3.4-1.3,4.7,0l0,0c1.3,1.3,1.3,3.4,0,4.7L70.3,68.9"/><path fill="#FFA300" d="M60.4,61.5L82.9,84c1,1,2.7,1,3.8,0l0,0c1-1,1-2.7,0-3.8L64.2,57.8c-1-1-2.7-1-3.8,0l0,0	C59.4,58.8,59.4,60.5,60.4,61.5z"/><path fill="#0D2E42" d="M75.3,135.7H23.1c-1.8,0-3.4-1.5-3.4-3.4v0c0-1.8,1.5-3.4,3.4-3.4h52.2c1.8,0,3.4,1.5,3.4,3.4v0	C78.7,134.2,77.2,135.7,75.3,135.7z"/></svg>