<?xml version="1.0" encoding="utf-8"?><!DOCTYPE svg PUBLIC "-//W3C//DTD SVG 1.1//EN" "http://www.w3.org/Graphics/SVG/1.1/DTD/svg11.dtd"><svg version="1.1" id="Layer_1" xmlns="http://www.w3.org/2000/svg" xmlns:xlink="http://www.w3.org/1999/xlink" x="0px" y="0px" width="150px" height="150px" viewBox="0 0 150 150" enable-background="new 0 0 150 150" xml:space="preserve"><path fill="#B7B7B7" d="M11.9,126.4l60.6-105c1-1.7,3.4-1.7,4.4,0l60.6,105c1,1.7-0.2,3.8-2.2,3.8H14.1	C12.1,130.2,10.9,128.1,11.9,126.4z"/><path fill="#9DA5B2" d="M78.4,33.9l8.4,37.3c0.4,1.6-0.9,3.1-2.5,3.1H69.9c-1.5,0-2.7,1.4-2.5,2.9l6.6,50.8c0.2,1.3,1.3,2.2,2.5,2.2	h58.9c2,0,3.2-2.1,2.2-3.8L83.1,32.1C81.7,29.5,77.8,31,78.4,33.9z"/><path fill="#FFFFFF" d="M72.5,21.4L50.9,58.8l30.6-6.2c0.7-0.1,1.4,0,2,0.4l19.9,14.1L77,21.4C76,19.7,73.5,19.7,72.5,21.4z"/><path fill="#E3FBFF" d="M102.1,66.2l0.8,0L83.3,32.4c-1.5-2.5-5.3-1-4.7,1.8l3.8,17.2c0.1,0.6,0.5,1.2,1,1.5L102.1,66.2z"/></svg>