<?xml version="1.0" encoding="utf-8"?><!DOCTYPE svg PUBLIC "-//W3C//DTD SVG 1.1//EN" "http://www.w3.org/Graphics/SVG/1.1/DTD/svg11.dtd"><svg version="1.1" id="Layer_1" xmlns="http://www.w3.org/2000/svg" xmlns:xlink="http://www.w3.org/1999/xlink" x="0px" y="0px" width="150px" height="150px" viewBox="0 0 150 150" enable-background="new 0 0 150 150" xml:space="preserve"><rect x="76.2" y="74.9" fill="#FFFFFF" width="63.6" height="17.5"/><circle fill="#FFFFFF" cx="138.7" cy="92.3" r="9"/><circle fill="#FFFFFF" cx="138.7" cy="74.9" r="9"/><path fill="#A85E27" d="M123.8,82.9L123.8,82.9c0,20.6-16.8,37.4-37.4,37.4H57.1c-10.8,0-19.6-8.8-19.6-19.6V65.1	c0-10.8,8.8-19.6,19.6-19.6h29.4C107,45.6,123.8,62.4,123.8,82.9z"/><g><path fill="#F7ADDF" d="M56.3,117.9c-9,0-16.2-7.3-16.2-16.2V64.2c0-9,7.3-16.2,16.2-16.2s16.2,7.3,16.2,16.2v37.5 C72.5,110.7,65.3,117.9,56.3,117.9z"/><path fill="#C66D30" d="M56.3,50.3c7.7,0,13.9,6.2,13.9,13.9v37.5c0,7.7-6.2,13.9-13.9,13.9c-7.7,0-13.9-6.2-13.9-13.9V64.2 C42.4,56.5,48.6,50.3,56.3,50.3 M56.3,45.6L56.3,45.6c-10.2,0-18.6,8.4-18.6,18.6v37.5c0,10.2,8.4,18.6,18.6,18.6h0 c10.2,0,18.6-8.4,18.6-18.6V64.2C74.9,53.9,66.5,45.6,56.3,45.6L56.3,45.6z"/></g><path fill="#9B501E" d="M81.7,87.4L81.7,87.4c-1-1-1-2.5,0-3.5l17.4-17.4c1-1,2.5-1,3.5,0l0,0c1,1,1,2.5,0,3.5L85.2,87.4	C84.2,88.3,82.7,88.3,81.7,87.4z"/><g><g><path fill="#FFCCE8" d="M58.2,73.2c1.7,0,3.2,1.4,3.2,3.2s-1.4,3.2-3.2,3.2c-1.7,0-3.2-1.4-3.2-3.2S56.5,73.2,58.2,73.2 M58.2,68.4c-4.3,0-7.9,3.5-7.9,7.9s3.5,7.9,7.9,7.9c4.3,0,7.9-3.5,7.9-7.9S62.5,68.4,58.2,68.4L58.2,68.4z"/></g></g><path fill="#9B501E" d="M90.8,96.5L90.8,96.5c-1-1-1-2.5,0-3.5l17.4-17.4c1-1,2.5-1,3.5,0l0,0c1,1,1,2.5,0,3.5L94.4,96.5	C93.4,97.5,91.8,97.5,90.8,96.5z"/><path fill="#9B501E" d="M90.8,66.5L90.8,66.5c1-1,2.5-1,3.5,0l17.4,17.4c1,1,1,2.5,0,3.5l0,0c-1,1-2.5,1-3.5,0L90.8,70	C89.9,69,89.9,67.4,90.8,66.5z"/><path fill="#9B501E" d="M81.7,75.6L81.7,75.6c1-1,2.5-1,3.5,0L102.6,93c1,1,1,2.5,0,3.5l0,0c-1,1-2.5,1-3.5,0L81.7,79.1	C80.7,78.2,80.7,76.6,81.7,75.6z"/><circle fill="#FFFFFF" cx="29.6" cy="51.9" r="27.9"/><path fill="#F484BE" d="M24.8,48.1c0.6-3.5-0.4-7.1-3.1-9.8s-6.4-3.7-9.8-3.1c-0.6,3.5,0.4,7.1,3.1,9.8	C17.6,47.7,21.3,48.7,24.8,48.1z"/><path fill="#F484BE" d="M34.5,48.1c3.5,0.6,7.1-0.4,9.8-3.1c2.7-2.7,3.7-6.4,3.1-9.8c-3.5-0.6-7.1,0.4-9.8,3.1	C35,40.9,33.9,44.6,34.5,48.1z"/><path fill="#F7ADDF" d="M29.6,70.2L29.6,70.2c-8.1,0-14.6-6.6-14.6-14.6v-9.4c0-4.4,3.5-7.9,7.9-7.9h13.5c4.4,0,7.9,3.5,7.9,7.9v9.4	C44.3,63.6,37.7,70.2,29.6,70.2z"/><circle fill="#E090C9" cx="18.2" cy="51.4" r="2.1"/><circle fill="#E090C9" cx="41.1" cy="51.4" r="2.1"/><circle fill="#F484BE" cx="29.6" cy="57.7" r="6.8"/><path fill="#DB71AD" d="M25.8,58.8L25.8,58.8c-0.6-0.6-0.6-1.5,0-2.1l0.6-0.6c0.6-0.6,1.5-0.6,2.1,0h0c0.6,0.6,0.6,1.5,0,2.1	l-0.6,0.6C27.3,59.4,26.4,59.4,25.8,58.8z"/><path fill="#DB71AD" d="M33.6,58.9L33.6,58.9c0.6-0.6,0.6-1.5,0-2.1L32.8,56c-0.6-0.6-1.5-0.6-2.1,0l0,0c-0.6,0.6-0.6,1.5,0,2.1	l0.7,0.7C32,59.5,33,59.5,33.6,58.9z"/></svg>