<?xml version="1.0" encoding="utf-8"?><!DOCTYPE svg PUBLIC "-//W3C//DTD SVG 1.1//EN" "http://www.w3.org/Graphics/SVG/1.1/DTD/svg11.dtd"><svg version="1.1" xmlns="http://www.w3.org/2000/svg" xmlns:xlink="http://www.w3.org/1999/xlink" x="0px" y="0px" width="150px" height="150px" viewBox="0 0 150 150" enable-background="new 0 0 150 150" xml:space="preserve"><g id="Layer_2" display="none"><rect x="-170" y="-170" display="inline" fill="#F0F0F0" width="1680" height="1677.3"/></g><g id="Layer_1"><path fill="#DDA862" d="M75.2,126.2L75.2,126.2c-1.8,0-3.2-1.5-3.2-3.2v-12.8c0-1.8,1.5-3.2,3.2-3.2h0c1.8,0,3.2,1.5,3.2,3.2V123 C78.5,124.8,77,126.2,75.2,126.2z"/><path fill="#DDA862" d="M67.4,123.4L67.4,123.4c-1.8-0.4-2.9-2.1-2.5-3.8l2.1-10c0.4-1.8,2.1-2.9,3.8-2.5l0,0 c1.8,0.4,2.9,2.1,2.5,3.8l-2.1,10C70.9,122.7,69.2,123.8,67.4,123.4z"/><path fill="#DDA862" d="M83,123.4L83,123.4c1.8-0.4,2.9-2.1,2.5-3.8l-2.1-9.9c-0.4-1.8-2.1-2.9-3.8-2.5h0c-1.8,0.4-2.9,2.1-2.5,3.8 l2.1,9.9C79.5,122.6,81.3,123.7,83,123.4z"/><path fill="#DDA862" d="M90.6,119.6L90.6,119.6c1.4-1.1,1.7-3.1,0.6-4.6l-4.5-5.8c-1.1-1.4-3.1-1.7-4.6-0.6l0,0 c-1.4,1.1-1.7,3.1-0.6,4.6l4.5,5.8C87.2,120.4,89.2,120.7,90.6,119.6z"/><path fill="#DDA862" d="M60,119.6L60,119.6c-1.4-1.1-1.7-3.1-0.6-4.6l4.5-5.8c1.1-1.4,3.1-1.7,4.6-0.6l0,0c1.4,1.1,1.7,3.1,0.6,4.6 l-4.5,5.8C63.4,120.4,61.4,120.7,60,119.6z"/><path fill="#BA457D" d="M58.8,45.5l13.5-23.4c1.3-2.2,4.5-2.2,5.8,0l13.5,23.4H58.8z"/><path fill="#BA457D" d="M54.6,41.6c0,0,9.2-5,14.7-14.2c5.4-9.2,4,7.4,4,7.4l-1.2,12.8L60,48.1L54.6,41.6z"/><path fill="#BA457D" d="M95.8,41.6c0,0-9.2-5-14.7-14.2c-5.4-9.2-4,7.4-4,7.4l1.2,12.8l12.1,0.4L95.8,41.6z"/><path fill="#BA457D" d="M79.8,111.8h-9.2c-20.4,0-36.9-16.5-36.9-36.9v0c0-20.4,16.5-36.9,36.9-36.9h9.2 c20.4,0,36.9,16.5,36.9,36.9v0C116.8,95.3,100.2,111.8,79.8,111.8z"/><path fill="none" stroke="#CE4E91" stroke-width="7" stroke-linecap="round" stroke-miterlimit="10" d="M63.4,48.6 c-9,2.9-15.9,10.2-18.3,19.4"/></g><g id="Layer_3"/></svg>