<?xml version="1.0" encoding="utf-8"?><!DOCTYPE svg PUBLIC "-//W3C//DTD SVG 1.1//EN" "http://www.w3.org/Graphics/SVG/1.1/DTD/svg11.dtd"><svg version="1.1" id="Layer_1" xmlns="http://www.w3.org/2000/svg" xmlns:xlink="http://www.w3.org/1999/xlink" x="0px" y="0px" width="150px" height="150px" viewBox="0 0 150 150" enable-background="new 0 0 150 150" xml:space="preserve"><path fill="#9FF4FF" d="M131.2,142.7H21.8c-6.7,0-12.1-5.4-12.1-12.1V21.3c0-6.7,5.4-12.1,12.1-12.1h109.3c6.7,0,12.1,5.4,12.1,12.1	v109.3C143.2,137.3,137.8,142.7,131.2,142.7z"/><path fill="#FFB5A1" d="M79,121.3c-25.8,0-46.7-20.9-46.7-46.7S53.3,28,79,28"/><path fill="#FF9D8A" d="M79,104c-16.2,0-29.3-13.1-29.3-29.3S62.8,45.3,79,45.3"/><path fill="#FFB5A1" d="M48.8,88.8c5.4-5.4,14.1-5.4,19.5,0s5.4,14.1,0,19.5"/><path fill="#FFB5A1" d="M131.2,9.3H79v133.5h52.2c6.7,0,12.1-5.4,12.1-12.1V21.3C143.2,14.7,137.8,9.3,131.2,9.3z"/><circle fill="#FFCE00" cx="67" cy="118" r="8"/></svg>