<?xml version="1.0" encoding="utf-8"?><!DOCTYPE svg PUBLIC "-//W3C//DTD SVG 1.1//EN" "http://www.w3.org/Graphics/SVG/1.1/DTD/svg11.dtd"><svg version="1.1" id="Layer_1" xmlns="http://www.w3.org/2000/svg" xmlns:xlink="http://www.w3.org/1999/xlink" x="0px" y="0px" width="150px" height="150px" viewBox="0 0 150 150" enable-background="new 0 0 150 150" xml:space="preserve"><path fill="#B26938" d="M80.8,49.4l7.1-16.8h-5.4L65.1,49.4H39.7v0c-8,0.2-14.5,16.1-14.5,35.7s6.5,35.5,14.5,35.7v0.1h72.1V49.4	H80.8z"/><path fill="#70AF0C" d="M69.7,36.4L69.7,36.4C69.7,36.5,69.7,36.4,69.7,36.4c0.1,0,0.1,0,0.1,0l0-0.1c2-3.7,1.7-8.6-1-12.8	s-7.2-6.4-11.3-6.1l0-0.1c0,0,0,0,0,0.1c0,0,0,0-0.1,0l0,0.1c-2,3.7-1.7,8.6,1,12.8C61.1,34.5,65.6,36.7,69.7,36.4z"/><path fill="#A55D2B" d="M99.5,82.7H60.2c-2.2,0-4,1.8-4,4c0,2.2,1.8,4,4,4h39.3c2.2,0,4-1.8,4-4C103.5,84.5,101.7,82.7,99.5,82.7z"/><path fill="#A55D2B" d="M29.2,60.7c-0.9,2.4-1.7,5.1-2.3,8h35.6c2.2,0,4-1.8,4-4c0-2.2-1.8-4-4-4H29.2z"/><path fill="#A55D2B" d="M30.6,112.7h22.9c2.2,0,4-1.8,4-4c0-2.2-1.8-4-4-4H27.7C28.5,107.7,29.5,110.4,30.6,112.7z"/><ellipse fill="#EAC478" cx="111.8" cy="85.1" rx="14.7" ry="35.8"/><ellipse fill="#DBB167" cx="111.8" cy="85.1" rx="9.2" ry="22.6"/></svg>