<?xml version="1.0" encoding="utf-8"?><!DOCTYPE svg PUBLIC "-//W3C//DTD SVG 1.1//EN" "http://www.w3.org/Graphics/SVG/1.1/DTD/svg11.dtd"><svg version="1.1" id="Layer_1" xmlns="http://www.w3.org/2000/svg" xmlns:xlink="http://www.w3.org/1999/xlink" x="0px" y="0px" width="150px" height="150px" viewBox="0 0 150 150" enable-background="new 0 0 150 150" xml:space="preserve"><path fill="#D3D3D3" d="M70.6,99.8L70.6,99.8c-1.1,0-2.1-0.9-2.1-2.1V84.2c0-1.1,0.9-2.1,2.1-2.1h0c1.1,0,2.1,0.9,2.1,2.1v13.5	C72.7,98.9,71.7,99.8,70.6,99.8z"/><rect x="62.2" y="90.6" fill="#FFFFFF" width="17.5" height="47.1"/><path fill="#FFCE00" d="M106.4,126.5L106.4,126.5c0,7.8-6.4,14.3-14.2,14.3H49.7c-7.8,0-14.2-6.4-14.2-14.2v0"/><circle fill="none" stroke="#FFCE00" stroke-width="5" stroke-miterlimit="10" cx="101.5" cy="117.5" r="9.4"/><path fill="#D3D3D3" d="M96.7,51.2h-12c-6.4-1-11.4-6.6-11.4-13.3c0-7.4,6.1-13.5,13.5-13.5H47.9c-7.4,0-13.5,6.1-13.5,13.5	s6.1,13.5,13.5,13.5h22.9c6.4,1,11.4,6.6,11.4,13.3c0,7.4-6.1,13.5-13.5,13.5h28c7.4,0,13.5-6.1,13.5-13.5S104.1,51.2,96.7,51.2z"/></svg>