<?xml version="1.0" encoding="utf-8"?><!DOCTYPE svg PUBLIC "-//W3C//DTD SVG 1.1//EN" "http://www.w3.org/Graphics/SVG/1.1/DTD/svg11.dtd"><svg version="1.1" id="Layer_1" xmlns="http://www.w3.org/2000/svg" xmlns:xlink="http://www.w3.org/1999/xlink" x="0px" y="0px" width="150px" height="150px" viewBox="0 0 150 150" enable-background="new 0 0 150 150" xml:space="preserve"><path fill="#CCCCCC" d="M115.7,33.3H79.3v50.3l-20.9,20.9c-7.1,7.1-7.1,18.6,0,25.8v0c7.1,7.1,18.6,7.1,25.8,0l26.2-26.2	c3.5-3.5,5.3-8.1,5.3-12.6h0V33.3z"/><path fill="#A0A0A0" d="M84.2,130.2c-7.1,7.1-18.6,7.1-25.8,0l0,0c-7.1-7.1-7.1-18.6,0-25.8"/><path fill="#A0A0A0" d="M115.7,82L115.7,82c-8.4,0-15.3,6.8-15.3,15.3c0,4.6,2,8.7,5.2,11.5l4.7-4.7c3.5-3.5,5.3-8.1,5.3-12.6h0V82z"/><rect x="79.3" y="38.5" fill="#C12F2F" width="36.4" height="8.7"/><rect x="79.3" y="52.1" fill="#C12F2F" width="36.4" height="8.7"/><path fill="#FFFFFF" d="M96.4,13.9H60v50.3L39.1,85.1c-7.1,7.1-7.1,18.6,0,25.8v0c7.1,7.1,18.6,7.1,25.8,0l26.2-26.2	c3.5-3.5,5.3-8.1,5.3-12.6h0V13.9z"/><path fill="#AFAFAF" d="M64.9,110.9c-7.1,7.1-18.6,7.1-25.8,0l0,0c-7.1-7.1-7.1-18.6,0-25.8"/><path fill="#AFAFAF" d="M96.4,62.6L96.4,62.6c-8.4,0-15.3,6.8-15.3,15.3c0,4.6,2,8.7,5.2,11.5l4.7-4.7c3.5-3.5,5.3-8.1,5.3-12.6h0	V62.6z"/><rect x="60" y="19.2" fill="#D33131" width="36.4" height="8.7"/><rect x="60" y="32.7" fill="#D33131" width="36.4" height="8.7"/></svg>