<?xml version="1.0" encoding="utf-8"?><svg version="1.1" id="Layer_1" xmlns="http://www.w3.org/2000/svg" xmlns:xlink="http://www.w3.org/1999/xlink" x="0px" y="0px" width="150px" height="150px" viewBox="0 0 150 150" enable-background="new 0 0 150 150" xml:space="preserve"><g><path fill="#919191" d="M109.6,131.8c-5.2,0-9.3-4.2-9.3-9.3V86.1c0-14.5-11.8-26.4-26.4-26.4c-7.3,0-14.3,3.1-19.3,8.5 c-3.5,3.8-9.4,4-13.2,0.5s-4-9.4-0.5-13.2C49.4,46.3,61.4,41,73.9,41c24.8,0,45,20.2,45,45v36.4C119,127.6,114.8,131.8,109.6,131.8 z"/></g><g><path fill="#919191" d="M123,105c-5.2,0-9.3-4.2-9.3-9.3v-19c0-17.8-14.5-32.3-32.3-32.3c-8.9,0-17.6,3.8-23.7,10.4 c-3.5,3.8-9.4,4-13.2,0.5c-3.8-3.5-4-9.4-0.5-13.2c9.6-10.4,23.3-16.4,37.4-16.4c28.1,0,51,22.9,51,51v19 C132.3,100.8,128.1,105,123,105z"/></g><g><path fill="#A0A0A0" d="M50.8,53.1c-1.1,0-2.3-0.4-3.2-1.2c-1.9-1.8-2-4.7-0.3-6.6c8.8-9.5,21.1-14.9,34-14.9 c11.6,0,22.8,4.4,31.4,12.3c1.9,1.8,2,4.7,0.3,6.6c-1.8,1.9-4.7,2-6.6,0.3c-6.9-6.3-15.7-9.8-25-9.8c-10.2,0-20.1,4.3-27.1,11.9 C53.3,52.6,52.1,53.1,50.8,53.1z"/></g><rect x="21.9" y="37.9" transform="matrix(0.7071 0.7071 -0.7071 0.7071 61.3772 -14.3284)" fill="#BCBCBC" width="52.2" height="58.1"/><path fill="#C6C6C6" d="M26.2,69.1L26.2,69.1c-1.9-1.9-1.9-5,0-6.9l28-28l6.9,6.9l-28,28C31.2,71,28.1,71,26.2,69.1z"/><path fill="#AFAFAF" d="M40.1,98l28-28c1.9-1.9,5-1.9,6.9,0l0,0c1.9,1.9,1.9,5,0,6.9l-28,28"/><rect x="41.1" y="41.3" transform="matrix(0.7071 -0.7071 0.7071 0.7071 -33.7643 53.3785)" fill="#919191" width="12.8" height="52.3"/><rect x="31.3" y="52.7" transform="matrix(0.7071 -0.7071 0.7071 0.7071 -29.6816 43.522)" fill="#A0A0A0" width="12.8" height="9.8"/><rect x="56.2" y="77.5" transform="matrix(0.7071 -0.7071 0.7071 0.7071 -39.9838 68.3935)" fill="#7A7A7A" width="12.8" height="9.8"/><line fill="none" stroke="#FFFFFF" stroke-width="2.6694" stroke-linecap="round" stroke-linejoin="round" stroke-miterlimit="10" x1="9" y1="69" x2="45.9" y2="105.9"/><line fill="none" stroke="#FFFFFF" stroke-width="2.6694" stroke-linecap="round" stroke-linejoin="round" stroke-miterlimit="10" x1="50" y1="28" x2="86.9" y2="64.9"/><circle fill="#919191" cx="136.1" cy="49.6" r="4.4"/><circle fill="#919191" cx="89.6" cy="104.1" r="5.1"/><circle fill="#919191" cx="85.7" cy="21.1" r="3.5"/><circle fill="#D1D1D1" cx="60.7" cy="54" r="5.3"/><path fill="#F4F4F4" d="M18.1,55.4h42.4c0.9,0,1.6-0.7,1.6-1.6v0c0-0.9-0.7-1.6-1.6-1.6H18.1c-0.9,0-1.6,0.7-1.6,1.6v0	C16.5,54.7,17.2,55.4,18.1,55.4z"/><path fill="#7A7A7A" d="M103.8,125L103.8,125c-1.9,0-3.5-1.6-3.5-3.5V91c0-1.9,1.6-3.5,3.5-3.5h0c1.9,0,3.5,1.6,3.5,3.5v30.5	C107.3,123.4,105.7,125,103.8,125z"/></svg>