<?xml version="1.0" encoding="utf-8"?><!DOCTYPE svg PUBLIC "-//W3C//DTD SVG 1.1//EN" "http://www.w3.org/Graphics/SVG/1.1/DTD/svg11.dtd"><svg version="1.1" id="Layer_1" xmlns="http://www.w3.org/2000/svg" xmlns:xlink="http://www.w3.org/1999/xlink" x="0px" y="0px" width="150px" height="150px" viewBox="0 0 150 150" enable-background="new 0 0 150 150" xml:space="preserve"><path fill="#FFB5A1" d="M77.4,73.5h-3.7c-3.9,0-7.1-3.2-7.1-7.1V22.3c0-4.9,4-8.9,8.9-8.9h0c4.9,0,8.9,4,8.9,8.9v44.1	C84.5,70.3,81.3,73.5,77.4,73.5z"/><path fill="#FFB5A1" d="M54.9,73.5h-3.7c-3.9,0-7.1-3.2-7.1-7.1V22.3c0-4.9,4-8.9,8.9-8.9h0c4.9,0,8.9,4,8.9,8.9v44.1	C62,70.3,58.8,73.5,54.9,73.5z"/><path fill="#FFB5A1" d="M100,73.5h-3.7c-3.9,0-7.1-3.2-7.1-7.1V22.3c0-4.9,4-8.9,8.9-8.9h0c4.9,0,8.9,4,8.9,8.9v44.1	C107.1,70.3,103.9,73.5,100,73.5z"/><path fill="#FFB5A1" d="M61.6,81.3L41.7,65c-0.4-0.3-0.7-0.6-1-1c-3.6-3.6-9.4-3.9-13.3-0.6c-2.5,2.1-3.6,5.3-3.4,8.3	c0.2,2.6,1.7,4.9,3.7,6.6l19.9,16.3c0.4,0.3,0.7,0.6,1,1c3.6,3.6,9.4,3.9,13.3,0.6c2.5-2.1,3.6-5.3,3.4-8.3	C65.1,85.3,63.6,82.9,61.6,81.3z"/><path fill="#FFB5A1" d="M107.1,49.9v28.6c0,17.3-14.2,31.5-31.5,31.5h0c-17.3,0-31.5-14.2-31.5-31.5V49.9"/><path fill="#FFB5A1" d="M86.9,137.6H64.4c-6.2,0-11.3-5-11.3-11.3v-44h45.1v44C98.1,132.5,93.1,137.6,86.9,137.6z"/></svg>