<?xml version="1.0" encoding="utf-8"?><!DOCTYPE svg PUBLIC "-//W3C//DTD SVG 1.1//EN" "http://www.w3.org/Graphics/SVG/1.1/DTD/svg11.dtd"><svg version="1.1" xmlns="http://www.w3.org/2000/svg" xmlns:xlink="http://www.w3.org/1999/xlink" x="0px" y="0px" width="150px" height="150px" viewBox="0 0 150 150" enable-background="new 0 0 150 150" xml:space="preserve"><g id="Layer_2" display="none"><rect x="-1530" y="-1187.3" display="inline" fill="#F0F0F0" width="1680" height="1677.3"/></g><g id="Layer_1"/><g id="Layer_3"><path fill="#8AB6B7" d="M66.6,93.4c1.3,0.4,2.6,0.7,3.9,1.1c1.2-2.4,1.9-5.1,1.9-8c0-9.8-7.9-17.7-17.7-17.7v21.7 C58.7,91.1,62.7,92.3,66.6,93.4z"/><polygon fill="#FFFFFF" points="124.2,92.1 126.7,87.8 129.2,92.1"/><polygon fill="#FFFFFF" points="128.1,92.1 130.6,87.8 133.1,92.1"/><path fill="#89A3A3" d="M121.2,89.2c0.2-0.4,0.4-0.8,0.7-1.3c0-0.1,0.1-0.1,0.1-0.2c0.2-0.4,0.5-0.8,0.7-1.1 c0.1-0.1,0.1-0.2,0.2-0.2c0.2-0.4,0.5-0.7,0.8-1c0.1-0.1,0.1-0.2,0.2-0.3c0.3-0.3,0.5-0.7,0.8-1c0.1-0.1,0.2-0.2,0.2-0.2 c0.3-0.3,0.6-0.6,0.9-0.9c0.1-0.1,0.1-0.1,0.2-0.2c1-1,2.1-1.8,3.3-2.6c0.1-0.1,0.2-0.1,0.2-0.2c0.3-0.2,0.6-0.3,0.9-0.5 c0.2-0.1,0.4-0.2,0.6-0.3c0.3-0.1,0.5-0.3,0.8-0.4c0.2-0.1,0.5-0.2,0.7-0.3c0.3-0.1,0.5-0.2,0.8-0.3c0.3-0.1,0.5-0.2,0.8-0.3 c0.3-0.1,0.5-0.2,0.8-0.3c0.3-0.1,0.6-0.2,0.9-0.3c0.2-0.1,0.5-0.1,0.7-0.2c0.3-0.1,0.7-0.1,1-0.2c0.2,0,0.5-0.1,0.7-0.1 c0.4-0.1,0.8-0.1,1.2-0.1c0.2,0,0.4,0,0.6-0.1c0.6,0,1.2-0.1,1.8-0.1c0.4,0,0.8,0,1.3,0c0.4,0,0.8,0.1,1.2,0.1c0,0,0,0,0,0 c1.9-2.8,3.1-6.2,3.2-9.8c0-0.2,0-0.3,0-0.5c0,0,0-0.1,0-0.1h0c-0.1-1.7-1.4-3.2-3.4-3.2h-24.3h-17.4h-3.6 c-3.2-7.8-10.8-13.2-19.6-13.2v5.1c1.1,0.6,1.9,1.8,1.9,3.1s-0.8,2.5-1.9,3.1v2H29.1L21.2,48c-3.6-6.7-11.9-9.3-18.7-5.7h0L18.8,73 L6.2,92.7c5.2,3.3,12.2,1.8,15.5-3.4l5.9-9.2h5.1c6.2,11.8,18.5,19.9,32.7,19.9h54.4v-9.6L121.2,89.2 C121.2,89.2,121.2,89.2,121.2,89.2z"/><polygon fill="#FFFFFF" points="120.4,92.1 122.8,87.8 125.3,92.1"/><path fill="#BED3D2" d="M120,92.1c3.1-9.1,11.7-15.6,21.9-15.6c0.9,0,1.7,0.1,2.6,0.1c0.9-1.4,1.7-2.9,2.3-4.5c-0.5,0-1,0-1.5,0 c-11.6,0-21.8,5.5-28.4,13.9l0,0c0,0-5.2,6.2-19.2,6.2c-9.6,0-37.8,0-54.3,0c6.2,4.8,14,7.6,22.4,7.6h41.9H120h2.6 c5,0,9.2-3.3,10.7-7.8H120z"/><path fill="#BED3D2" d="M66,95.4c-3.8,0.2-7.6,0.4-11.3-0.6v10.3c7.1,0,13.2-4.2,16-10.2C69.1,95.2,67.5,95.3,66,95.4z"/><path fill="#89A3A3" d="M89.4,104.4c-1.8,1.5-3.6,3-5.5,4.6c-3.7-3-6.8-6.8-8.9-11.4c-7.1-15.7-0.1-34.2,15.6-41.3l15.8,34.9 C100.4,95.1,94.8,99.9,89.4,104.4z"/><circle fill="#758988" cx="124.7" cy="70.8" r="2.6"/><line fill="none" stroke="#758988" stroke-width="2" stroke-linecap="round" stroke-linejoin="round" stroke-miterlimit="10" x1="103.5" y1="78" x2="103.5" y2="86"/><line fill="none" stroke="#758988" stroke-width="2" stroke-linecap="round" stroke-linejoin="round" stroke-miterlimit="10" x1="108" y1="74.8" x2="108" y2="86"/></g></svg>