<?xml version="1.0" encoding="utf-8"?><!DOCTYPE svg PUBLIC "-//W3C//DTD SVG 1.1//EN" "http://www.w3.org/Graphics/SVG/1.1/DTD/svg11.dtd"><svg version="1.1" id="Layer_1" xmlns="http://www.w3.org/2000/svg" xmlns:xlink="http://www.w3.org/1999/xlink" x="0px" y="0px" width="150px" height="150px" viewBox="0 0 150 150" enable-background="new 0 0 150 150" xml:space="preserve"><rect x="18.6" y="66.3" fill="#E53838" width="113.4" height="70.1"/><line fill="none" stroke="#E53838" stroke-width="3" stroke-miterlimit="10" x1="67.5" y1="86.6" x2="67.5" y2="132.4"/><g><path fill="#C62828" d="M128.6,69.6v10.9H22V69.6H128.6 M132,66.3H18.6v17.6H132V66.3L132,66.3z"/></g><rect x="23.8" y="91.6" fill="#97DCF2" width="65.1" height="36.3"/><rect x="94.1" y="88.3" fill="#C12727" width="32.8" height="48"/><rect x="98.4" y="94.6" fill="#56321A" width="23.6" height="41.8"/><path fill="#7FD2E5" d="M76.4,91.6l0.4,0.4L74,94.9l-3.3-3.3h-6.4L61,94.9L58.1,92l0.4-0.4h-5.1l0.4,0.4L51,94.9l-3.3-3.3h-5.4	L39,94.9L36.1,92l0.4-0.4h-5.1l0.4,0.4L29,94.9l-3.3-3.3h-1.9v2.3l3.1,3.1L24,99.9l-0.2-0.2v4.6l0.2-0.2l2.9,2.9l-2.9,2.9l-0.2-0.2	v4.6l0.2-0.2l2.9,2.9l-2.9,2.9l-0.2-0.2v4.6l0.2-0.2l2.9,2.9l-0.8,0.8h5.9l-0.8-0.8l2.9-2.9l2.9,2.9l-0.8,0.8h5.9l-0.8-0.8l2.9-2.9	l0.4,0.4l0.6-0.6l0.6,0.6l0.4-0.4l2.9,2.9l-0.8,0.8h5.9l-0.8-0.8l2.9-2.9l2.9,2.9l-0.8,0.8h5.9l-0.8-0.8l2.9-2.9l0.4,0.4l1.1-1.1	l1.1,1.1l0.4-0.4l2.9,2.9l-0.8,0.8h5.9l-0.8-0.8l2.9-2.9l2.9,2.9l-0.8,0.8h5.9l-0.8-0.8l2.8-2.8v-4.4l-2.8-2.8l2.8-2.8v-4.4	l-2.8-2.8l2.8-2.8v-4.4L86.1,97l2.8-2.8v-2.6h-1.6L84,94.9L81.1,92l0.4-0.4H76.4z M76.8,102l-2.9,2.9l-2.9-2.9l2.9-2.9L76.8,102z M39,109.1l2.9,2.9l-2.9,2.9l-2.9-2.9L39,109.1z M34,109.9l-2.9-2.9l2.9-2.9l2.9,2.9L34,109.9z M41.1,107l2.9-2.9l0.4,0.4l0.6-0.6	l0.6,0.6l0.4-0.4l2.9,2.9l-2.9,2.9l-0.4-0.4l-0.6,0.6l-0.6-0.6l-0.4,0.4L41.1,107z M51,109.1l2.9,2.9l-2.9,2.9l-2.9-2.9L51,109.1z M53.1,107l2.9-2.9l2.9,2.9l-2.9,2.9L53.1,107z M61,109.1l2.9,2.9l-2.9,2.9l-2.9-2.9L61,109.1z M63.1,107l2.9-2.9l0.4,0.4l1.1-1.1	l1.1,1.1l0.4-0.4l2.9,2.9l-2.9,2.9l-0.4-0.4l-1.1,1.1l-1.1-1.1l-0.4,0.4L63.1,107z M74,109.1l2.9,2.9l-2.9,2.9l-2.9-2.9L74,109.1z M76.1,107l2.9-2.9l2.9,2.9l-2.9,2.9L76.1,107z M67.5,92.6l4.4,4.4L69,99.9l-0.4-0.4l-1.1,1.1l-1.1-1.1L66,99.9L63.1,97L67.5,92.6z M63.8,102l-2.9,2.9l-2.9-2.9l2.9-2.9L63.8,102z M56,94.1l2.9,2.9L56,99.9L53.1,97L56,94.1z M53.8,102l-2.9,2.9l-2.9-2.9l2.9-2.9	L53.8,102z M45,93.1l3.9,3.9L46,99.9l-0.4-0.4l-0.6,0.6l-0.6-0.6L44,99.9L41.1,97L45,93.1z M41.8,102l-2.9,2.9l-2.9-2.9l2.9-2.9	L41.8,102z M34,94.1l2.9,2.9L34,99.9L31.1,97L34,94.1z M26.1,102l2.9-2.9l2.9,2.9l-2.9,2.9L26.1,102z M26.1,112l2.9-2.9l2.9,2.9	l-2.9,2.9L26.1,112z M29,124.9l-2.9-2.9l2.9-2.9l2.9,2.9L29,124.9z M31.1,117l2.9-2.9l2.9,2.9l-2.9,2.9L31.1,117z M39,124.9	l-2.9-2.9l2.9-2.9l2.9,2.9L39,124.9z M45.6,119.5l-0.6,0.6l-0.6-0.6l-0.4,0.4l-2.9-2.9l2.9-2.9l0.4,0.4l0.6-0.6l0.6,0.6l0.4-0.4	l2.9,2.9l-2.9,2.9L45.6,119.5z M51,124.9l-2.9-2.9l2.9-2.9l2.9,2.9L51,124.9z M53.1,117l2.9-2.9l2.9,2.9l-2.9,2.9L53.1,117z M61,124.9l-2.9-2.9l2.9-2.9l2.9,2.9L61,124.9z M68.6,119.5l-1.1,1.1l-1.1-1.1l-0.4,0.4l-2.9-2.9l2.9-2.9l0.4,0.4l1.1-1.1l1.1,1.1	l0.4-0.4l2.9,2.9l-2.9,2.9L68.6,119.5z M74,124.9l-2.9-2.9l2.9-2.9l2.9,2.9L74,124.9z M76.1,117l2.9-2.9l2.9,2.9l-2.9,2.9L76.1,117z M86.8,122l-2.9,2.9l-2.9-2.9l2.9-2.9L86.8,122z M86.8,112l-2.9,2.9l-2.9-2.9l2.9-2.9L86.8,112z M86.8,102l-2.9,2.9l-2.9-2.9	l2.9-2.9L86.8,102z M81.8,97L79,99.9L76.1,97l2.9-2.9L81.8,97z"/><rect x="101.1" y="97" fill="#97DCF2" width="7.5" height="22"/><rect x="101.1" y="132" fill="#FFC715" width="17.8" height="4.3"/><rect x="111.3" y="97" fill="#97DCF2" width="7.5" height="22"/><path fill="#C62828" d="M45,80.9c-0.9,0-1.7,0.8-1.7,1.7v53.7h3.4V82.6C46.7,81.7,45.9,80.9,45,80.9z"/><path fill="#C62828" d="M130.2,80.9c-0.9,0-1.7,0.8-1.7,1.7v53.7h3.4V82.6C131.9,81.7,131.2,80.9,130.2,80.9z"/><path fill="#C62828" d="M67.8,80.9c-0.9,0-1.7,0.8-1.7,1.7v53.7h3.4V82.6C69.4,81.7,68.7,80.9,67.8,80.9z"/><g><path fill="#FFC715" d="M115.4,40.2c0-21.6-17.5-39.1-39.1-39.1S37.2,18.6,37.2,40.2c0,13.6,6.9,25.5,17.4,32.6l21.7,19.2L98,72.8 C108.5,65.7,115.4,53.8,115.4,40.2z"/><polygon fill="#FFFFFF" points="96.4,26.4 76.3,46.7 56.1,26.4"/><path fill="#FFFFFF" d="M64.9,60.9L76,55c0.2-0.1,0.4-0.1,0.6,0l11.1,5.9c0.6,0.3,0.4,1.2-0.3,1.2H65.2 C64.6,62.1,64.3,61.3,64.9,60.9z"/><rect x="74.4" y="33.8" fill="#FFFFFF" width="3.8" height="24.7"/><circle fill="#FFC715" cx="78.6" cy="36.9" r="3.4"/><g><path fill="#FFC715" d="M75.3,41.6c-0.3,0-0.6-0.1-0.8-0.3c-0.5-0.5-0.5-1.2,0-1.6l20-20c0.5-0.5,1.2-0.5,1.6,0s0.5,1.2,0,1.6 l-20,20C75.9,41.5,75.6,41.6,75.3,41.6z"/></g><path fill="#FFFFFF" d="M94.4,19.6l-6.8,6.8H91l5.1-5.1c0.5-0.5,0.5-1.2,0-1.6S94.9,19.2,94.4,19.6z"/></g></svg>