<?xml version="1.0" encoding="utf-8"?><!DOCTYPE svg PUBLIC "-//W3C//DTD SVG 1.1//EN" "http://www.w3.org/Graphics/SVG/1.1/DTD/svg11.dtd"><svg version="1.1" id="Layer_1" xmlns="http://www.w3.org/2000/svg" xmlns:xlink="http://www.w3.org/1999/xlink" x="0px" y="0px" width="150px" height="150px" viewBox="0 0 150 150" enable-background="new 0 0 150 150" xml:space="preserve"><path fill="#EAA542" d="M51.7,120.9L51.7,120.9c-3.4,0-6.2-2.8-6.2-6.2V80.2c0-3.4,2.8-6.2,6.2-6.2h0c3.4,0,6.2,2.8,6.2,6.2v34.5	C57.9,118.1,55.1,120.9,51.7,120.9z"/><path fill="#EAA542" d="M104.1,120.9L104.1,120.9c-3.4,0-6.2-2.8-6.2-6.2V80.2c0-3.4,2.8-6.2,6.2-6.2h0c3.4,0,6.2,2.8,6.2,6.2v34.5	C110.3,118.1,107.6,120.9,104.1,120.9z"/><path fill="#EAA542" d="M26.3,101.5L26.3,101.5c-2.4-2.4-2.4-6.4,0-8.8l12.8-12.8c2.4-2.4,6.4-2.4,8.8,0l0,0c2.4,2.4,2.4,6.4,0,8.8	l-12.8,12.8C32.7,103.9,28.8,103.9,26.3,101.5z"/><path fill="#EAA542" d="M41.4,108.3L41.4,108.3c-2.4,2.4-6.4,2.4-8.8,0l-6.5-6.5c-2.4-2.4-2.4-6.4,0-8.8l0,0c2.4-2.4,6.4-2.4,8.8,0	l6.5,6.5C43.9,101.9,43.9,105.9,41.4,108.3z"/><path fill="#EAA542" d="M100.2,101.8L100.2,101.8c-5.6,0-10.1-4.6-10.1-10.1V70.6c0-5.6,4.6-10.1,10.1-10.1h0	c5.6,0,10.1,4.6,10.1,10.1v21.1C110.3,97.3,105.8,101.8,100.2,101.8z"/><path fill="#EAA542" d="M89.8,91.2H24.9c-11.4,0-20.8-9.4-20.8-20.8v0c0-11.4,9.4-20.8,20.8-20.8h64.9c11.4,0,20.8,9.4,20.8,20.8v0	C110.6,81.9,101.2,91.2,89.8,91.2z"/><path fill="#D88D2B" d="M27.4,94.1h-2.3C12.3,94.1,2,83.8,2,71V52.4c0-12.8,10.3-23.1,23.1-23.1h2.3c12.8,0,23.1,10.3,23.1,23.1V71	C50.5,83.8,40.1,94.1,27.4,94.1z"/><path fill="#EAA542" d="M29.6,74.7h-6.8c-6.5,0-11.7-5.3-11.7-11.7v-9c0-6.5,5.3-11.7,11.7-11.7h6.8c6.5,0,11.7,5.3,11.7,11.7v9	C41.4,69.4,36.1,74.7,29.6,74.7z"/><path fill="#E8C08B" d="M33.2,74.5c0,4-3.2,7.2-7.2,7.2s-7.2-3.2-7.2-7.2"/><path fill="#E8C08B" d="M31.4,74.7H20.5c-3.2,0-5.8-2.6-5.8-5.8v-1.3c0-3.2,2.6-5.8,5.8-5.8h10.9c3.2,0,5.8,2.6,5.8,5.8v1.3	C37.2,72.1,34.6,74.7,31.4,74.7z"/><polygon fill="#CC5200" points="32.2,61.8 25.9,66.7 19.5,61.8"/><path fill="#EAA542" d="M27.9,56.6L27.9,56.6c-2.2,2.2-5.8,2.2-8,0L12,48.7c-2.2-2.2-2.2-5.8,0-8l0,0c2.2-2.2,5.8-2.2,8,0l7.9,7.9	C30.1,50.8,30.1,54.4,27.9,56.6z"/><path fill="#EAA542" d="M24.8,56.6L24.8,56.6c2.2,2.2,5.8,2.2,8,0l7.9-7.9c2.2-2.2,2.2-5.8,0-8l0,0c-2.2-2.2-5.8-2.2-8,0l-7.9,7.9	C22.6,50.8,22.6,54.4,24.8,56.6z"/><path fill="#D88D2B" d="M19.5,55.1c-1.1,1.1-2.9,1.1-4,0c-1.1-1.1-1.1-2.9,0-4"/><path fill="#D88D2B" d="M32.2,55.1c1.1,1.1,2.9,1.1,4,0c1.1-1.1,1.1-2.9,0-4"/><path fill="#D88D2B" d="M26.2,47L26.2,47c-2.8,0-5-2.3-5-5v-2.3c0-2.8,2.3-5,5-5h0c2.8,0,5,2.3,5,5V42C31.2,44.8,28.9,47,26.2,47z"/><rect x="19.5" y="55.1" fill="#F4A947" width="12.7" height="6.7"/><path fill="none" stroke="#EAA542" stroke-width="5.1992" stroke-linecap="round" stroke-linejoin="round" stroke-miterlimit="10" d="M145.9,107.3c-20.9,0-37.9-17-37.9-37.9"/></svg>