<?xml version="1.0" encoding="utf-8"?><!DOCTYPE svg PUBLIC "-//W3C//DTD SVG 1.1//EN" "http://www.w3.org/Graphics/SVG/1.1/DTD/svg11.dtd"><svg version="1.1" id="Layer_1" xmlns="http://www.w3.org/2000/svg" xmlns:xlink="http://www.w3.org/1999/xlink" x="0px" y="0px" width="150px" height="150px" viewBox="0 0 150 150" enable-background="new 0 0 150 150" xml:space="preserve"><path fill="#75AF0E" d="M89.3,22.9H60.7c-1.2,0-2.1-1-2.1-2.1v-7.2c0-1.2,1-2.1,2.1-2.1h28.6c1.2,0,2.1,1,2.1,2.1v7.2	C91.4,21.9,90.5,22.9,89.3,22.9z"/><path fill="#FFFFFF" d="M101.5,59.2L101.5,59.2c3.2,0,5.8-2.6,5.8-5.7V32.3c0-3.2-2.6-5.7-5.7-5.7h-4.2c0-2.6-2.1-4.8-4.8-4.8H57.5	c-2.6,0-4.8,2.1-4.8,4.8h-4.2c-3.2,0-5.7,2.6-5.7,5.7v21.2c0,3.2,2.6,5.7,5.7,5.7h0c2.9,0,5.3,2.4,5.3,5.3c0,2.9-2.4,5.3-5.3,5.3	h7.4v0h-7.4c-3.2,0-5.7,2.6-5.7,5.7v58.8c0,3.2,2.6,5.7,5.7,5.7h53.1c3.2,0,5.7-2.6,5.7-5.7V75.5c0-3.2-2.6-5.7-5.7-5.7h-8v0h8	c-2.9,0-5.3-2.4-5.3-5.3C96.2,61.6,98.6,59.2,101.5,59.2z"/><path fill="#FFC32E" d="M101.5,54.4c0.5,0,0.9-0.4,0.9-0.9V37.9H47.6v15.6c0,0.5,0.4,0.9,0.9,0.9c5.6,0,10.1,4.5,10.1,10.1	c0,5.5-4.5,10-10,10.1c-0.1,0-0.1,0-0.2,0c-0.5,0-0.9,0.4-0.9,0.9v58.8c0,0.5,0.4,0.9,0.9,0.9h53.1c0.5,0,0.9-0.4,0.9-0.9V75.5	c0-0.5-0.4-0.9-0.9-0.9c0,0-0.1,0-0.1,0c-3.6,0-6.8-2-8.5-4.8h-0.5v0h0.5c-0.9-1.5-1.5-3.3-1.5-5.3C91.4,58.9,95.9,54.4,101.5,54.4z"/><path fill="#75AF0E" d="M90.6,127.3H59.4c-1.7,0-3.1-1.4-3.1-3.1V85.6c0-1.7,1.4-3.1,3.1-3.1h31.1c1.7,0,3.1,1.4,3.1,3.1v38.6	C93.7,125.9,92.3,127.3,90.6,127.3z"/><path fill="#FFDE55" d="M56.3,37.9v12c0,2.4-2,4.4-4.4,4.4h0c-2.4,0-4.4-2-4.4-4.4v-12"/><path fill="#FFDE55" d="M52.3,131.5h-0.6c-2.2,0-4-1.8-4-4V82.9c0-2.2,1.8-4,4-4h0.6c2.2,0,4,1.8,4,4v44.5	C56.3,129.7,54.5,131.5,52.3,131.5z"/><path fill="#EDAE21" d="M98.3,134.7h-0.6c-2.2,0-4-1.8-4-4v-24.7c0-2.2,1.8-4,4-4h0.6c2.2,0,4,1.8,4,4v24.7	C102.4,132.8,100.6,134.7,98.3,134.7z"/></svg>