<?xml version="1.0" encoding="utf-8"?><!DOCTYPE svg PUBLIC "-//W3C//DTD SVG 1.1//EN" "http://www.w3.org/Graphics/SVG/1.1/DTD/svg11.dtd"><svg version="1.1" xmlns="http://www.w3.org/2000/svg" xmlns:xlink="http://www.w3.org/1999/xlink" x="0px" y="0px" width="150px" height="150px" viewBox="0 0 150 150" enable-background="new 0 0 150 150" xml:space="preserve"><g id="Layer_2" display="none"><rect x="-340" y="-1187.3" display="inline" fill="#F0F0F0" width="1680" height="1677.3"/></g><g id="Layer_1"><path fill="#14D4F4" d="M41.7,125.9L41.7,125.9c-4.9,0-8.8-3.9-8.8-8.8V29.8c0-4.9,3.9-8.8,8.8-8.8h0c4.9,0,8.8,3.9,8.8,8.8v87.3 C50.5,121.9,46.5,125.9,41.7,125.9z"/><path fill="#A82929" d="M69.7,90.2L69.7,90.2c-16.6,0-30-13.4-30-30v-8c0-16.6,13.4-30,30-30h0c16.6,0,30,13.4,30,30v8 C99.8,76.8,86.3,90.2,69.7,90.2z"/><path fill="#A82929" d="M59.4,143L59.4,143c-4.6,0-8.4-3.7-8.4-8.4V51.9c0-0.1,0.1-0.2,0.2-0.2h16.2c0.1,0,0.2,0.1,0.2,0.2v82.8 C67.7,139.3,64,143,59.4,143z"/><path fill="#D33131" d="M113.2,73.1l5.9,21.8c5.9,21.9-14.2,41.9-36,36l-21.8-5.9C29.6,116.6,19,77.1,42.1,54l0,0 C65.2,30.9,104.7,41.5,113.2,73.1z"/><path fill="#A82929" d="M67.9,44.6L67.9,44.6c-3.6,0-6.5-2.9-6.5-6.5v-27c0-3.6,2.9-6.5,6.5-6.5h0c3.6,0,6.5,2.9,6.5,6.5v27 C74.4,41.7,71.5,44.6,67.9,44.6z"/><path fill="#A82929" d="M70.3,45.5L70.3,45.5c-2.6-2.5-2.7-6.6-0.3-9.2l18.4-19.7c2.5-2.6,6.6-2.7,9.2-0.3l0,0 c2.6,2.5,2.7,6.6,0.3,9.2L79.5,45.2C77.1,47.8,73,47.9,70.3,45.5z"/><path fill="none" stroke="#B52828" stroke-width="5.6233" stroke-linecap="round" stroke-linejoin="round" stroke-miterlimit="10" d="M72.1,54.5c0,0,26.3,19.7,18.6,54.6"/><path fill="none" stroke="#B52828" stroke-width="5.6233" stroke-linecap="round" stroke-linejoin="round" stroke-miterlimit="10" d="M91.6,89.5c0,0,9.7-3.3,14.4,4"/><path fill="#A82929" d="M72.7,64.1H48.6c-4.9,0-8.9-4-8.9-8.9v-5.6c0-4.9,4-8.9,8.9-8.9h24.1c4.9,0,8.9,4,8.9,8.9v5.6 C81.6,60.1,77.6,64.1,72.7,64.1z"/><g><path fill="#CB7FDD" d="M73.5,77.5c-4.5,0-8.1-3.6-8.1-8.1c0-18.4,14.9-33.3,33.3-33.3c4.5,0,8.1,3.6,8.1,8.1s-3.6,8.1-8.1,8.1 c-9.5,0-17.2,7.7-17.2,17.2C81.6,73.9,78,77.5,73.5,77.5z"/></g></g><g id="Layer_3"/></svg>