<?xml version="1.0" encoding="utf-8"?><!DOCTYPE svg PUBLIC "-//W3C//DTD SVG 1.1//EN" "http://www.w3.org/Graphics/SVG/1.1/DTD/svg11.dtd"><svg version="1.1" id="Layer_1" xmlns="http://www.w3.org/2000/svg" xmlns:xlink="http://www.w3.org/1999/xlink" x="0px" y="0px" width="150px" height="150px" viewBox="0 0 150 150" enable-background="new 0 0 150 150" xml:space="preserve"><path fill="#C6C6C6" d="M57.3,37L19.6,55c-1.8,0.9-4,0.1-4.9-1.7l-3.4-7.2c-0.9-1.8-0.1-4,1.7-4.9l37.7-18c1.8-0.9,4-0.1,4.9,1.7	l3.4,7.2C59.9,33.9,59.1,36.1,57.3,37z"/><path fill="#AAAAAA" d="M57.8,42.9L24.4,58.9c-0.9,0.4-1.9,0-2.3-0.8l0,0c-0.4-0.9,0-1.9,0.8-2.3l33.4-15.9c0.9-0.4,1.9,0,2.3,0.8v0	C59,41.5,58.6,42.5,57.8,42.9z"/><path fill="#AAAAAA" d="M60.7,48L28.8,63.2c-0.9,0.4-1.9,0-2.3-0.8l0,0c-0.4-0.9,0-1.9,0.8-2.3l31.8-15.2c0.9-0.4,1.9,0,2.3,0.8v0	C61.9,46.5,61.6,47.5,60.7,48z"/><path fill="#AAAAAA" d="M62.7,52.9L32,67.6c-0.9,0.4-1.9,0-2.3-0.8l0,0c-0.4-0.9,0-1.9,0.8-2.3l30.8-14.7c0.9-0.4,1.9,0,2.3,0.8v0	C64,51.5,63.6,52.5,62.7,52.9z"/><path fill="#AAAAAA" d="M65.7,58L35.1,72.5c-0.9,0.4-1.9,0-2.3-0.8l0,0c-0.4-0.9,0-1.9,0.8-2.3l30.5-14.6c0.9-0.4,1.9,0,2.3,0.8v0	C66.9,56.5,66.5,57.6,65.7,58z"/><path fill="#AAAAAA" d="M68.6,63L38.1,77.6c-0.9,0.4-1.9,0-2.3-0.8v0c-0.4-0.9,0-1.9,0.8-2.3l30.5-14.6c0.9-0.4,1.9,0,2.3,0.8l0,0	C69.8,61.5,69.4,62.6,68.6,63z"/><path fill="#AAAAAA" d="M71.7,68L40.9,82.6c-0.9,0.4-1.9,0-2.3-0.8l0,0c-0.4-0.9,0-1.9,0.8-2.3l30.8-14.7c0.9-0.4,1.9,0,2.3,0.8v0	C72.9,66.5,72.6,67.5,71.7,68z"/><path fill="#AAAAAA" d="M73.7,72.9L43.3,87.5c-0.9,0.4-1.9,0-2.3-0.8l0,0c-0.4-0.9,0-1.9,0.8-2.3l30.4-14.5c0.9-0.4,1.9,0,2.3,0.8v0	C75,71.5,74.6,72.5,73.7,72.9z"/><path fill="#AAAAAA" d="M76.2,78.2L46.4,92.4c-0.9,0.4-1.9,0-2.3-0.8v0c-0.4-0.9,0-1.9,0.8-2.3L74.7,75c0.9-0.4,1.9,0,2.3,0.8h0	C77.5,76.7,77.1,77.7,76.2,78.2z"/><path fill="#AAAAAA" d="M93.7,42.9l33.4,15.9c0.9,0.4,1.9,0,2.3-0.8v0c0.4-0.9,0-1.9-0.8-2.3L95.2,39.8c-0.9-0.4-1.9,0-2.3,0.8v0	C92.5,41.5,92.9,42.5,93.7,42.9z"/><path fill="#898989" d="M109.6,109.8H97.8c-3.8,0-6.8-3.1-6.8-6.8v0c0-3.8,3.1-6.8,6.8-6.8h11.8c3.8,0,6.8,3.1,6.8,6.8v0	C116.4,106.8,113.4,109.8,109.6,109.8z"/><path fill="#AAAAAA" d="M90.8,48l31.8,15.2c0.9,0.4,1.9,0,2.3-0.8v0c0.4-0.9,0-1.9-0.8-2.3L92.3,44.8c-0.9-0.4-1.9,0-2.3,0.8v0	C89.6,46.5,89.9,47.5,90.8,48z"/><path fill="#AAAAAA" d="M88.8,52.9l30.8,14.7c0.9,0.4,1.9,0,2.3-0.8l0,0c0.4-0.9,0-1.9-0.8-2.3L90.3,49.8c-0.9-0.4-1.9,0-2.3,0.8v0	C87.5,51.5,87.9,52.5,88.8,52.9z"/><path fill="#AAAAAA" d="M59.4,122.3h-8.4c-4,0-7.2-3.2-7.2-7.2v-13.8c0-4,3.2-7.2,7.2-7.2h8.4c4,0,7.2,3.2,7.2,7.2v13.8	C66.7,119.1,63.4,122.3,59.4,122.3z"/><path fill="#AAAAAA" d="M98.4,129.1H63.9c-4,0-7.2-3.2-7.2-7.2v-5.5c0-4,3.2-7.2,7.2-7.2h34.6c4,0,7.2,3.2,7.2,7.2v5.5	C105.6,125.9,102.4,129.1,98.4,129.1z"/><path fill="#AAAAAA" d="M85.8,58l30.5,14.6c0.9,0.4,1.9,0,2.3-0.8l0,0c0.4-0.9,0-1.9-0.8-2.3L87.4,54.8c-0.9-0.4-1.9,0-2.3,0.8v0	C84.6,56.5,85,57.6,85.8,58z"/><path fill="#AAAAAA" d="M82.9,63l30.5,14.6c0.9,0.4,1.9,0,2.3-0.8v0c0.4-0.9,0-1.9-0.8-2.3L84.4,59.8c-0.9-0.4-1.9,0-2.3,0.8l0,0	C81.7,61.5,82.1,62.6,82.9,63z"/><path fill="#AAAAAA" d="M79.8,68l30.8,14.7c0.9,0.4,1.9,0,2.3-0.8h0c0.4-0.9,0-1.9-0.8-2.3L81.3,64.8c-0.9-0.4-1.9,0-2.3,0.8v0	C78.6,66.5,78.9,67.5,79.8,68z"/><path fill="#AAAAAA" d="M77.8,72.9l30.4,14.5c0.9,0.4,1.9,0,2.3-0.8l0,0c0.4-0.9,0-1.9-0.8-2.3L79.3,69.8c-0.9-0.4-1.9,0-2.3,0.8v0	C76.5,71.5,76.9,72.5,77.8,72.9z"/><path fill="#AAAAAA" d="M75.2,78.2l29.9,14.3c0.9,0.4,1.9,0,2.3-0.8l0,0c0.4-0.9,0-1.9-0.8-2.3L76.7,75c-0.9-0.4-1.9,0-2.3,0.8h0	C74,76.7,74.4,77.7,75.2,78.2z"/><path fill="#C6C6C6" d="M94.3,37L132,55c1.8,0.9,4,0.1,4.9-1.7l3.4-7.2c0.9-1.8,0.1-4-1.7-4.9l-37.7-18c-1.8-0.9-4-0.1-4.9,1.7	l-3.4,7.2C91.7,33.9,92.5,36.1,94.3,37z"/><path fill="#D6D6D6" d="M86.2,116.9H65.6c-8.9,0-16-7.2-16-16v0c0-8.9,7.2-16,16-16h20.6c8.9,0,16,7.2,16,16v0	C102.2,109.7,95.1,116.9,86.2,116.9z"/><circle fill="#D6D6D6" cx="75.9" cy="48.4" r="19.2"/><circle fill="#E5E5E5" cx="75.9" cy="48.4" r="12"/><circle fill="#D6D6D6" cx="75.9" cy="48.4" r="3.4"/><path fill="none" stroke="#D6D6D6" stroke-width="4.3626" stroke-linecap="round" stroke-linejoin="round" stroke-miterlimit="10" d="M56.7,32.6c0-5,4.1-9.1,9.1-9.1h20.4c5,0,9.1,4.1,9.1,9.1"/><path fill="#D6D6D6" d="M69.7,99.8L69.7,99.8c-1.5,0.8-3.3,0.3-4.1-1.2L45,61.4c-0.8-1.5-0.3-3.3,1.2-4.1h0c1.5-0.8,3.3-0.3,4.1,1.2	l20.6,37.3C71.7,97.2,71.2,99,69.7,99.8z"/><path fill="#D6D6D6" d="M79.2,98.8L79.2,98.8c1.5,0.8,3.3,0.3,4.1-1.2l20.6-37.3c0.8-1.5,0.3-3.3-1.2-4.1h0	c-1.5-0.8-3.3-0.3-4.1,1.2L78,94.7C77.2,96.2,77.8,98,79.2,98.8z"/><circle fill="#E5E5E5" cx="75.9" cy="100.2" r="10.4"/><circle fill="#D6D6D6" cx="75.9" cy="100.2" r="3.2"/><circle fill="#D6D6D6" cx="75.9" cy="94.1" r="1.6"/><circle fill="#D6D6D6" cx="75.9" cy="107.1" r="1.6"/><circle fill="#D6D6D6" cx="69.4" cy="100.6" r="1.6"/><circle fill="#D6D6D6" cx="82.4" cy="100.6" r="1.6"/></svg>