<?xml version="1.0" encoding="utf-8"?><!DOCTYPE svg PUBLIC "-//W3C//DTD SVG 1.1//EN" "http://www.w3.org/Graphics/SVG/1.1/DTD/svg11.dtd"><svg version="1.1" id="Layer_1" xmlns="http://www.w3.org/2000/svg" xmlns:xlink="http://www.w3.org/1999/xlink" x="0px" y="0px" width="150px" height="150px" viewBox="0 0 150 150" enable-background="new 0 0 150 150" xml:space="preserve"><rect x="18.5" y="69.3" fill="#FFFFFF" width="8.4" height="18.2"/><path fill="#91432D" d="M13.9,117.2L13.9,117.2c-2.5,0-4.6-2-4.6-4.6V43c0-2.5,2-4.6,4.6-4.6h0c2.5,0,4.6,2,4.6,4.6v69.6	C18.5,115.2,16.5,117.2,13.9,117.2z"/><rect x="16.7" y="87.6" fill="#91432D" width="114.8" height="9.1"/><path fill="#91432D" d="M136.1,117.2L136.1,117.2c-2.5,0-4.6-2-4.6-4.6V63.1c0-2.5,2-4.6,4.6-4.6h0c2.5,0,4.6,2,4.6,4.6v49.5	C140.7,115.2,138.6,117.2,136.1,117.2z"/><path fill="#8549BA" d="M131.5,105.8H22.6V69.3h99.7c5.1,0,9.2,4.1,9.2,9.2V105.8z"/><path fill="#FFFFFF" d="M52.6,69.1H32c-5.2,0-9.4-4.2-9.4-9.4v0c0-5.2,4.2-9.4,9.4-9.4h20.6c5.2,0,9.4,4.2,9.4,9.4v0	C62,64.9,57.8,69.1,52.6,69.1z"/><rect x="22.6" y="69.3" fill="#9556D8" width="10.8" height="36.5"/><circle fill="#91432D" cx="13.9" cy="36.2" r="3.1"/><circle fill="#91432D" cx="136.1" cy="55.9" r="3.1"/></svg>