<?xml version="1.0" encoding="utf-8"?><!DOCTYPE svg PUBLIC "-//W3C//DTD SVG 1.1//EN" "http://www.w3.org/Graphics/SVG/1.1/DTD/svg11.dtd"><svg version="1.1" id="Layer_1" xmlns="http://www.w3.org/2000/svg" xmlns:xlink="http://www.w3.org/1999/xlink" x="0px" y="0px" width="150px" height="150px" viewBox="0 0 150 150" enable-background="new 0 0 150 150" xml:space="preserve"><rect x="9.9" y="25.9" fill="#994537" width="25.6" height="110"/><path fill="#994537" d="M45.6,134.7L45.6,134.7c-12.2,0-22.2-10-22.2-22.2V38.6c0-12.2,10-22.2,22.2-22.2h0	c12.2,0,22.2,10,22.2,22.2v73.8C67.9,124.7,57.9,134.7,45.6,134.7z"/><path fill="#5B332D" d="M106.5,138.1L106.5,138.1c-13.1,0-23.8-10.7-23.8-23.8V30.4c0-13.1,10.7-23.8,23.8-23.8h0	c13.1,0,23.8,10.7,23.8,23.8v83.9C130.3,127.4,119.6,138.1,106.5,138.1z"/><path fill="#FFC200" d="M1.4,142.3l0-6.5c0-20.7,16.8-37.5,37.5-37.5h0c20.7,0,37.5,16.8,37.5,37.5v6.5"/><path fill="#FFD400" d="M39.2,123.7L39.2,123.7c-8.1,0-14.8-6.7-14.8-14.8v-1.6c0-8.1,6.7-14.8,14.8-14.8h0	c8.1,0,14.8,6.7,14.8,14.8v1.6C53.9,117,47.3,123.7,39.2,123.7z"/><path fill="#F0F0F0" d="M55.2,121v-14.3c0-9.1-7.4-16.5-16.5-16.5h0c-9.1,0-16.5,7.4-16.5,16.5V121l16.6-5.4L55.2,121z"/><path fill="#FF9D8A" d="M38.9,76.7c-6,0-10.9,5.4-10.9,11.9v14.3c0,6.6,4.9,11.9,10.9,11.9s10.9-5.4,10.9-11.9V88.6	C49.8,82,44.9,76.7,38.9,76.7z"/><g><ellipse fill="#FF9D8A" cx="9.9" cy="63.8" rx="7.3" ry="6.8"/></g><g><ellipse fill="#FF9D8A" cx="68.3" cy="63.8" rx="7.3" ry="6.8"/></g><g><path fill="#FFB5A1" d="M39.1,99.7L39.1,99.7C23,99.7,9.9,86.6,9.9,70.5V56.9c0-16.1,13.1-29.2,29.2-29.2h0 c16.1,0,29.2,13.1,29.2,29.2v13.7C68.3,86.6,55.2,99.7,39.1,99.7z"/></g><g><path fill="#BF5351" d="M54.4,71c0,8.4-6.8,15.2-15.2,15.2l0,0c-8.4,0-15.2-6.8-15.2-15.2H54.4z"/></g><g><path fill="#F2F2F2" d="M24.7,75.9h28.9c0.5-1.5,0.8-3.2,0.8-4.9H23.9C23.9,72.7,24.2,74.3,24.7,75.9z"/></g><g><circle fill="#EA9486" cx="24.1" cy="56.9" r="3.6"/></g><g><circle fill="#EA9486" cx="54.1" cy="56.9" r="3.6"/></g><path fill="#422421" d="M118,71.6L118,71.6c-6.8,0-12.3-5.5-12.3-12.3V28.7c0-6.8,5.5-12.3,12.3-12.3h0c6.8,0,12.3,5.5,12.3,12.3	v30.6C130.3,66.1,124.8,71.6,118,71.6z"/><g><rect x="34.3" y="53.3" fill="#FF9D8A" width="9.6" height="14.2"/></g><g><path fill="#B2473B" d="M47.7,83.6c-2.1-2.4-5.1-3.9-8.5-3.9l0,0c-3.4,0-6.5,1.5-8.5,3.9c2.4,1.6,5.3,2.6,8.4,2.6 C42.3,86.2,45.3,85.3,47.7,83.6z"/></g><path fill="#BF7358" d="M74.1,142.3v-6.5c0-20.7,16.8-37.5,37.5-37.5h0c20.7,0,37.5,16.8,37.5,37.5v6.5"/><path fill="#B7674E" d="M111.6,76.7c-6,0-10.9,6-10.9,13.4v16c0,7.4,4.9,13.4,10.9,13.4c6,0,10.9-6,10.9-13.4V90	C122.5,82.7,117.6,76.7,111.6,76.7z"/><g><ellipse fill="#B7674E" cx="82.7" cy="63.8" rx="7.3" ry="6.8"/></g><g><ellipse fill="#B7674E" cx="141" cy="63.8" rx="7.3" ry="6.8"/></g><g><path fill="#BF7358" d="M111.8,99.7L111.8,99.7c-16.1,0-29.2-13.1-29.2-29.2V56.9c0-16.1,13.1-29.2,29.2-29.2h0 c16.1,0,29.2,13.1,29.2,29.2v13.7C141,86.6,127.9,99.7,111.8,99.7z"/></g><path fill="none" stroke="#FFC200" stroke-width="1.3841" stroke-linecap="round" stroke-linejoin="round" stroke-miterlimit="10" d="M116.2,62.6c1.5,0,2.6,1.2,2.6,2.6c0,1.5-1.2,2.6-2.6,2.6c-1.5,0-2.6-1.2-2.6-2.6"/><g><circle fill="#A85F48" cx="96.8" cy="56.9" r="3.6"/></g><g><circle fill="#A85F48" cx="126.8" cy="56.9" r="3.6"/></g><rect x="91.7" y="49.5" fill="#BF7358" width="10.1" height="5.8"/><g><rect x="107" y="53.3" fill="#AD523D" width="9.6" height="12.4"/></g><path fill="#5B332D" d="M94.2,52.4L94.2,52.4c-6.3,0-11.5-5.2-11.5-11.5V28.6c0-6.3,5.2-11.5,11.5-11.5h0c6.3,0,11.5,5.2,11.5,11.5	v12.2C105.7,47.2,100.5,52.4,94.2,52.4z"/><path fill="#8549BA" d="M122.5,99.8v4.6c-0.1,5.8-4.9,10.5-10.8,10.5h0c-6,0-10.9-4.8-10.9-10.7v-4.4H87.9v42.5h47.4V99.8H122.5z"/><circle fill="#B7674E" cx="129.8" cy="39.4" r="1.5"/><circle fill="#B7674E" cx="129.8" cy="45" r="1.5"/><circle fill="#B7674E" cx="133.7" cy="42.3" r="1.5"/><circle fill="#B7674E" cx="133.7" cy="47.9" r="1.5"/><path fill="#AD523D" d="M27.1,51.5L27.1,51.5c-11.9,0-21.7-9.8-21.7-21.7v0c0-11.9,9.8-21.7,21.7-21.7h0c11.9,0,21.7,9.8,21.7,21.7	v0C48.8,41.7,39.1,51.5,27.1,51.5z"/><path fill="#5B332D" d="M82.7,97.5v31.9c9.9,0,18-8.1,18-18V97.5H82.7z"/><path fill="#C9C9C9" d="M6.8,76.1L6.8,76.1c-1.1,0-1.9-0.9-1.9-1.9v-4.9c0-1.1,0.9-1.9,1.9-1.9h0c1.1,0,1.9,0.9,1.9,1.9l0,4.9	C8.8,75.2,7.9,76.1,6.8,76.1z"/><path fill="#C9C9C9" d="M71.1,75.4L71.1,75.4c-1.1,0-1.9-0.9-1.9-1.9v-4.9c0-1.1,0.9-1.9,1.9-1.9l0,0c1.1,0,1.9,0.9,1.9,1.9v4.9	C73.1,74.5,72.2,75.4,71.1,75.4z"/><g><path fill="#9B3C35" d="M127.1,71c0,8.4-6.8,15.2-15.2,15.2l0,0c-8.4,0-15.2-6.8-15.2-15.2H127.1z"/></g><g><path fill="#F2F2F2" d="M97.4,75.9h28.9c0.5-1.5,0.8-3.2,0.8-4.9H96.6C96.6,72.7,96.9,74.3,97.4,75.9z"/></g><g><path fill="#B2423F" d="M120.4,83.6c-2.1-2.4-5.1-3.9-8.5-3.9l0,0c-3.4,0-6.5,1.5-8.5,3.9c2.4,1.6,5.3,2.6,8.4,2.6 C115,86.2,118,85.3,120.4,83.6z"/></g></svg>