<?xml version="1.0" encoding="utf-8"?><!DOCTYPE svg PUBLIC "-//W3C//DTD SVG 1.1//EN" "http://www.w3.org/Graphics/SVG/1.1/DTD/svg11.dtd"><svg version="1.1" xmlns="http://www.w3.org/2000/svg" xmlns:xlink="http://www.w3.org/1999/xlink" x="0px" y="0px" width="150px" height="150px" viewBox="0 0 150 150" enable-background="new 0 0 150 150" xml:space="preserve"><g id="Layer_2" display="none"><rect x="-1530" y="-1357.3" display="inline" fill="#F0F0F0" width="1680" height="1677.3"/></g><g id="Layer_1"/><g id="Layer_3"><path fill="#FF7F00" d="M19.4,105.6L19.4,105.6c0-14.8,12.1-26.9,26.9-26.9h55.2c14.8,0,26.9,12.1,26.9,26.9v0"/><path fill="#FF7F00" d="M1.2,105.6L1.2,105.6c0-6.3,5.2-11.5,11.5-11.5h17c6.3,0,11.5,5.2,11.5,11.5v0"/><path fill="none" stroke="#FF7F00" stroke-width="7.3156" stroke-linecap="round" stroke-linejoin="round" stroke-miterlimit="10" d="M110.6,101.9h16.8c9.6,0,17.5-7.9,17.5-17.5v0c0-9.6-7.9-17.5-17.5-17.5h-16.8"/><path fill="none" stroke="#FF7F00" stroke-width="7.3156" stroke-linecap="round" stroke-linejoin="round" stroke-miterlimit="10" d="M89.7,49.4L89.7,49.4c0,9.6,7.9,17.5,17.5,17.5H124"/><path fill="#FF9100" d="M22.7,105.6L22.7,105.6c0-6.3,5.2-11.5,11.5-11.5h17c6.3,0,11.5,5.2,11.5,11.5v0"/><path fill="#F47400" d="M105.9,105.6h-3c-7.2,0-13.2-5.9-13.2-13.2v0c0-7.2,5.9-13.2,13.2-13.2h3c7.2,0,13.2,5.9,13.2,13.2v0 C119.1,99.6,113.2,105.6,105.9,105.6z"/><path fill="#F47400" d="M76.4,105.6L76.4,105.6c0-3.7,3.1-6.8,6.8-6.8h16c3.7,0,6.8,3.1,6.8,6.8v0"/><path fill="#843C00" d="M72,78.7v14.5c0,1.7-1.4,3.1-3.1,3.1l0,0c-1.7,0-3.1-1.4-3.1-3.1V78.7"/><path fill="#FF9100" d="M62.4,86.2H25.6c-4.6,0-8.3-3.8-8.3-8.3v-5.1C17.3,59.1,28.4,48,42,48h4.1c13.6,0,24.7,11.1,24.7,24.7v5.1 C70.8,82.4,67,86.2,62.4,86.2z"/><path fill="#FF7F00" d="M48.2,86.2h-8.5c-10.2,0-18.5-8.3-18.5-18.5v-1.1c0-10.2,8.3-18.5,18.5-18.5h8.5c10.2,0,18.5,8.3,18.5,18.5 v1.1C66.8,77.8,58.4,86.2,48.2,86.2z"/><path fill="#843C00" d="M84.1,78.7v14.5c0,1.7-1.4,3.1-3.1,3.1h0c-1.7,0-3.1-1.4-3.1-3.1V78.7"/><path fill="#FF7F00" d="M38.4,63.5L38.4,63.5c-3,1.7-6.8,0.6-8.5-2.4l-4.2-7.4c-1.7-3-0.6-6.8,2.4-8.5l0,0c3-1.7,6.8-0.6,8.5,2.4 l4.2,7.4C42.5,58,41.4,61.8,38.4,63.5z"/><path fill="#FF7F00" d="M49.3,63.5L49.3,63.5c3,1.7,6.8,0.6,8.5-2.4l4.2-7.4c1.7-3,0.6-6.8-2.4-8.5l0,0c-3-1.7-6.8-0.6-8.5,2.4 L46.9,55C45.2,58,46.3,61.8,49.3,63.5z"/><path fill="#FF9100" d="M44.5,84.4h-9.7c-2.3,0-4.1-1.9-4.1-4.1v-9.5c0-2.3,1.9-4.1,4.1-4.1h9.7c2.3,0,4.1,1.9,4.1,4.1v9.5 C48.6,82.5,46.7,84.4,44.5,84.4z"/><path fill="#FFC783" d="M45.4,85.6H33.8c-1.8,0-3.2-1.4-3.2-3.2v-7.5h18v7.5C48.6,84.1,47.2,85.6,45.4,85.6z"/><path fill="#FFC783" d="M43.3,89.7h-7.5c-1.1,0-2.1-0.9-2.1-2.1v-4.8h11.6v4.8C45.4,88.8,44.5,89.7,43.3,89.7z"/><path fill="#E2A8D6" d="M43.9,74.9c0,2.8-2.2,5-5,5c-2.8,0-5-2.2-5-5"/><circle fill="#EA6A00" cx="53.4" cy="65.2" r="2.7"/><circle fill="#EA6A00" cx="29.2" cy="65.2" r="2.7"/><path fill="#F47400" d="M128.4,105.6L128.4,105.6c0-12-8-22.2-18.9-25.7c-1.8,6.5-5.2,18-5.2,18v7.7H128.4z"/></g></svg>