<?xml version="1.0" encoding="utf-8"?><!DOCTYPE svg PUBLIC "-//W3C//DTD SVG 1.1//EN" "http://www.w3.org/Graphics/SVG/1.1/DTD/svg11.dtd"><svg version="1.1" id="Layer_1" xmlns="http://www.w3.org/2000/svg" xmlns:xlink="http://www.w3.org/1999/xlink" x="0px" y="0px" width="150px" height="150px" viewBox="0 0 150 150" enable-background="new 0 0 150 150" xml:space="preserve"><path fill="#FFFFFF" d="M97,147.2H52.6c-4.1,0-7.4-3.4-7.4-7.4V98.5c0-1.6,1.3-2.9,2.9-2.9h53.4c1.6,0,2.9,1.3,2.9,2.9v41.2	C104.4,143.8,101.1,147.2,97,147.2z"/><path fill="#3381F2" d="M90.8,17.7h-32V5.2c0-1.3,1.1-2.4,2.4-2.4h27.2c1.3,0,2.4,1.1,2.4,2.4V17.7z"/><path fill="#FFFFFF" d="M102.2,96.3h-0.5v-27c2.3-4.3,3.6-9.2,3.6-14.4c0-11.2-6.1-21-15.2-26.3v-8.3h2.6c0.7,0,1.2-0.5,1.2-1.2	v-1.8c0-0.7-0.5-1.2-1.2-1.2H57.3c-0.9,0-1.6,0.7-1.6,1.6v1c0,0.9,0.7,1.6,1.6,1.6h2.4v8.4c-9,5.3-15,15-15,26.2	c0,5.1,1.2,9.8,3.4,14v27.4h-0.7c-1.1,0-2.1,0.9-2.1,2.1v6.9c0,1.1,0.9,2.1,2.1,2.1H48v4.8h-0.7c-1.1,0-2.1,0.9-2.1,2.1v6.9	c0,1.1,0.9,2.1,2.1,2.1H48v4.8h-0.7c-1.1,0-2.1,0.9-2.1,2.1v6.9c0,1.1,0.9,2.1,2.1,2.1H48v2.2c0,3.2,2.6,5.8,5.8,5.8H96	c3.2,0,5.8-2.6,5.8-5.8v-2.2h0.5c1.1,0,2.1-0.9,2.1-2.1v-6.9c0-1.1-0.9-2.1-2.1-2.1h-0.5v-4.8h0.5c1.1,0,2.1-0.9,2.1-2.1v-6.9	c0-1.1-0.9-2.1-2.1-2.1h-0.5v-4.8h0.5c1.1,0,2.1-0.9,2.1-2.1v-6.9C104.3,97.2,103.4,96.3,102.2,96.3z"/><path fill="#D7F7FF" d="M94.6,143.4H55c-2.4,0-4.4-2-4.4-4.4V64.2H99v74.8C99,141.5,97.1,143.4,94.6,143.4z"/><path fill="#D7F7FF" d="M54.2,38.3c-3.7,4.5-5.8,10.3-5.8,16.6c0,14.6,11.9,26.5,26.5,26.5s26.5-11.9,26.5-26.5	c0-6.3-2.2-12-5.8-16.6H54.2z"/><path fill="#C0DEE2" d="M91.7,93.2L91.7,93.2c-4.1,0-7.4-3.3-7.4-7.3V58.3c0-4,3.3-7.3,7.3-7.3h0.1c4,0,7.3,3.3,7.3,7.3v27.6	C99,89.9,95.7,93.2,91.7,93.2z"/><rect x="48" y="69.3" fill="#3381F2" width="53.9" height="26.3"/><path fill="#C0DEE2" d="M94.5,143.4h-5.7c-2.5,0-4.5-2-4.5-4.5v-30.4c0-4,3.3-7.3,7.3-7.3h0.1c4,0,7.3,3.3,7.3,7.3v30.4	C99,141.4,97,143.4,94.5,143.4z"/></svg>