<?xml version="1.0" encoding="utf-8"?><!DOCTYPE svg PUBLIC "-//W3C//DTD SVG 1.1//EN" "http://www.w3.org/Graphics/SVG/1.1/DTD/svg11.dtd"><svg version="1.1" id="Layer_1" xmlns="http://www.w3.org/2000/svg" xmlns:xlink="http://www.w3.org/1999/xlink" x="0px" y="0px" width="150px" height="150px" viewBox="0 0 150 150" enable-background="new 0 0 150 150" xml:space="preserve"><path fill="#FFB5A1" d="M88.8,56l0-2.9c0-6.2-5-11.2-11.2-11.2H16.2c-7,0-12.7,5.7-12.7,12.7v0c0,7,5.7,12.7,12.7,12.7h61.4	C83.8,67.2,88.8,62.1,88.8,56z"/><path fill="#FFB5A1" d="M53.9,117.7h34.5c20.9,0,37.9-17.1,37.9-37.9v0c0-20.9-17.1-37.9-37.9-37.9H53.9"/><rect x="93" y="52.6" fill="#FFB5A1" width="53.3" height="54.3"/><path fill="#F7A692" d="M88.8,79.8L88.8,79.8c0-7-5.7-12.7-12.7-12.7H55c-7,0-12.7,5.7-12.7,12.7v0c0,7,5.7,12.7,12.7,12.7h21.1	C83.1,92.5,88.8,86.8,88.8,79.8z"/><path fill="#F7A692" d="M88.8,105.1L88.8,105.1c0-7-5.7-12.7-12.7-12.7H55c-7,0-12.7,5.7-12.7,12.7v0c0,7,5.7,12.7,12.7,12.7h21.1	C83.1,117.8,88.8,112.1,88.8,105.1z"/><path fill="#F7A692" d="M90.1,29.4L90.1,29.4c-7,0-12.7,5.7-12.7,12.7v23.4c0,7,5.7,12.7,12.7,12.7h0c7,0,12.7-5.7,12.7-12.7V42.1	C102.8,35.1,97.1,29.4,90.1,29.4z"/></svg>