<?xml version="1.0" encoding="utf-8"?><!DOCTYPE svg PUBLIC "-//W3C//DTD SVG 1.1//EN" "http://www.w3.org/Graphics/SVG/1.1/DTD/svg11.dtd"><svg version="1.1" id="Layer_1" xmlns="http://www.w3.org/2000/svg" xmlns:xlink="http://www.w3.org/1999/xlink" x="0px" y="0px" width="150px" height="150px" viewBox="0 0 150 150" enable-background="new 0 0 150 150" xml:space="preserve"><g><path fill="#00BDFF" d="M37.4,87.3V86c0-2.6,0.5-4.6,2-6.6L75,27.6c1.6-2.5,3.5-3.5,6.5-3.5h10.1c3.6,0,5.5,2,5.5,5.5v49.1h6.5 c3.5,0,5.5,1.8,5.5,5.3v3.2c0,3.5-1.6,5.3-4.4,5.3h-7.5v18.3c0,3.6-1.8,5.5-5.5,5.5h-5.7c-3.5,0-5.3-1.8-5.3-5.5V92.6H42.7 C39.2,92.6,37.4,90.8,37.4,87.3z M80.6,78.7V50.1c0-4.5,0.7-9.6,0.7-9.6h-0.3c0,0-2.1,4.9-4.5,8.5L55.1,78.4v0.3H80.6z"/></g></svg>