<?xml version="1.0" encoding="utf-8"?><!DOCTYPE svg PUBLIC "-//W3C//DTD SVG 1.1//EN" "http://www.w3.org/Graphics/SVG/1.1/DTD/svg11.dtd"><svg version="1.1" id="Layer_1" xmlns="http://www.w3.org/2000/svg" xmlns:xlink="http://www.w3.org/1999/xlink" x="0px" y="0px" width="150px" height="150px" viewBox="0 0 150 150" enable-background="new 0 0 150 150" xml:space="preserve"><path fill="#E8E0CD" d="M126.9,142.7H26.1c-4.1,0-7.5-3.3-7.5-7.5V43.7h115.7v91.6C134.3,139.4,131,142.7,126.9,142.7z"/><g><path fill="#DBCEB9" d="M105.7,59H92.1V31.1c0-8.6-7-15.6-15.6-15.6s-15.6,7-15.6,15.6V59H47.3V31.1C47.3,15,60.4,1.8,76.5,1.8 s29.2,13.1,29.2,29.2V59z"/></g><path fill="#C9BEA9" d="M100.6,51.6l2.9-2.9c0.4-0.4,0.4-1.2,0-1.6c-0.4-0.4-1.2-0.4-1.6,0L99,50L96,47c-0.4-0.4-1.2-0.4-1.6,0	c-0.4,0.4-0.4,1.2,0,1.6l2.9,2.9l-2.9,2.9c-0.4,0.4-0.4,1.2,0,1.6c0.2,0.2,0.5,0.3,0.8,0.3c0.3,0,0.6-0.1,0.8-0.3l2.9-2.9l2.9,2.9	c0.2,0.2,0.5,0.3,0.8,0.3c0.3,0,0.6-0.1,0.8-0.3c0.4-0.4,0.4-1.2,0-1.6L100.6,51.6z"/><path fill="#C9BEA9" d="M55.8,51.6l2.9-2.9c0.4-0.4,0.4-1.2,0-1.6c-0.4-0.4-1.2-0.4-1.6,0L54.2,50L51.2,47c-0.4-0.4-1.2-0.4-1.6,0	c-0.4,0.4-0.4,1.2,0,1.6l2.9,2.9l-2.9,2.9c-0.4,0.4-0.4,1.2,0,1.6c0.2,0.2,0.5,0.3,0.8,0.3s0.6-0.1,0.8-0.3l2.9-2.9l2.9,2.9	c0.2,0.2,0.5,0.3,0.8,0.3s0.6-0.1,0.8-0.3c0.4-0.4,0.4-1.2,0-1.6L55.8,51.6z"/></svg>