<?xml version="1.0" encoding="utf-8"?><!DOCTYPE svg PUBLIC "-//W3C//DTD SVG 1.1//EN" "http://www.w3.org/Graphics/SVG/1.1/DTD/svg11.dtd"><svg version="1.1" id="Layer_1" xmlns="http://www.w3.org/2000/svg" xmlns:xlink="http://www.w3.org/1999/xlink" x="0px" y="0px" width="150px" height="150px" viewBox="0 0 150 150" enable-background="new 0 0 150 150" xml:space="preserve"><path fill="#CC9712" d="M118.2,126.8H34.1c-2.1,0-3.8-1.7-3.8-3.8V15.4c0-2.1,1.7-3.8,3.8-3.8h84.1c2.1,0,3.8,1.7,3.8,3.8V123	C122,125.1,120.3,126.8,118.2,126.8z"/><linearGradient id="SVGID_1_" gradientUnits="userSpaceOnUse" x1="76.1126" y1="118.7664" x2="76.1126" y2="19.6623"><stop offset="0" style="stop-color:#9FF4FF"/><stop offset="1" style="stop-color:#37D6ED"/></linearGradient><rect x="38.3" y="19.7" fill="url(#SVGID_1_)" width="75.6" height="99.1"/><path fill="#3D4421" d="M46.1,118.8v-9.4c0-16.1,13.2-29.3,29.3-29.3h0c16.1,0,29.3,13.2,29.3,29.3v9.4"/><path fill="#47301A" d="M56.5,88.5V54c0-10.4,8.4-18.8,18.8-18.8h0c10.4,0,18.8,8.4,18.8,18.8v34.5"/><rect x="61.2" y="61.9" fill="#352111" width="26.6" height="26.6"/><path fill="#F7B37C" d="M58,86.5c-0.5,2.2-1.7,4.3-2.6,6.3c0,0.1-0.1,0.1-0.1,0.2c-0.1,0.2-0.1,0.4-0.2,0.5c0,0.1,0,0.1,0,0.2	c0.7,1,1.1,2.1,1.1,3.3h45.7C97.1,87,87,80.1,75.4,80.1l0,0c-6.5,0-12.5,2.1-17.3,5.7C58,86.1,58,86.3,58,86.5z"/><path fill="#E29F6D" d="M79.2,88.7h-0.9c-4.5,0-8.1-3.6-8.1-8.1v-6c0-4.5,3.6-8.1,8.1-8.1h0.9c4.5,0,8.1,3.6,8.1,8.1v6	C87.2,85.1,83.6,88.7,79.2,88.7z"/><path fill="#F7B37C" d="M86.8,53.1c-1.1-4.9-3.5-9.8-7.7-12.7c0,0,0,0,0,0c-1-0.4-2.1-0.6-3.3-0.6c-1.4,0-2.6-0.3-3.5-0.9	c-1.8,1.9-4,3.4-5.8,5.3c-2.1,2.1-3.3,4.9-4.6,7.6c-0.2,0.4-0.4,0.7-0.6,1V63c0,8.2,6.7,15,15,15s15-6.7,15-15v-5.6	C89.1,56.9,87.3,55.5,86.8,53.1z"/><path fill="#3D4421" d="M90.7,84.5l-17.6,17.6l14,14l16-16C100.9,93.5,96.5,88.1,90.7,84.5z"/><path fill="#E29F6D" d="M78.2,118.8H65.9c-3,0-5.4-2.4-5.4-5.4v0c0-3,2.4-5.4,5.4-5.4l12.3,0c3,0,5.4,2.4,5.4,5.4v0	C83.6,116.3,81.2,118.8,78.2,118.8z"/><path fill="#F7B37C" d="M74.4,117.2l-7.2-7.2c-2.1-2.1-2.1-5.5,0-7.7l0,0c2.1-2.1,5.5-2.1,7.7,0l7.2,7.2c2.1,2.1,2.1,5.5,0,7.7l0,0	C79.9,119.3,76.5,119.3,74.4,117.2z"/><path fill="#47301A" d="M86.5,39v2.2c-2.7-2.6-6.4-4.2-10.4-4.2c-8.2,0-15,6.7-15,15v3.7c0-7,5.7-12.7,12.7-12.7	c7,0,12.7,5.7,12.7,12.7v32.9h7.6V54C94.1,47.8,91.1,42.4,86.5,39z"/><g><path fill="#3D4421" d="M70.2,80.7L70.2,80.7c-0.1,0-0.2,0-0.3,0C70,80.7,70.1,80.7,70.2,80.7z"/><path fill="#3D4421" d="M61.9,83.4c-5.7,3-10.3,7.7-13,13.5h7.6v-2.6C56.5,89.9,58.6,85.9,61.9,83.4z"/></g><g><path fill="#CECECE" d="M146,119.2c-3.4-10.4-13.2-18-24.8-18l0,0c-11.6,0-21.4,7.5-24.8,18H146z"/><path fill="#A8A8A8" d="M143.5,82.7L143.5,82.7c0,3.7-3,6.7-6.7,6.7h-31.1c-3.7,0-6.7-3-6.7-6.7v0"/><rect x="100.7" y="70.7" fill="#A8A8A8" width="41.1" height="10.2"/><circle fill="#CECECE" cx="139.8" cy="78.3" r="4.4"/><circle fill="#CECECE" cx="102.5" cy="78.3" r="4.4"/><path fill="#C4C4C4" d="M121.2,111.1L121.2,111.1c-4,0-7.2-3.2-7.2-7.2v-8.6c0-4,3.2-7.2,7.2-7.2h0c4,0,7.2,3.2,7.2,7.2v8.6 C128.4,107.9,125.2,111.1,121.2,111.1z"/><path fill="#CECECE" d="M121.2,101.3L121.2,101.3c-10.3,0-18.7-8.4-18.7-18.7V71c0-10.3,8.4-18.7,18.7-18.7h0 c10.3,0,18.7,8.4,18.7,18.7v11.6C139.9,93,131.5,101.3,121.2,101.3z"/><circle fill="#BCBCBC" cx="111.6" cy="73.9" r="2.3"/><circle fill="#BCBCBC" cx="130.8" cy="73.9" r="2.3"/><rect x="118.1" y="71.5" fill="#BCBCBC" width="6.2" height="8.5"/><path fill="#A8A8A8" d="M121.2,50c-11.3,0-20.5,9.2-20.5,20.5v1.1h4.8c3.3-0.3,5.9-3.2,5.9-6.6l0,6.6h4.3c8,0,14.6-6.5,14.6-14.6 c0,7,4.9,12.8,11.5,14.2v-0.8C141.8,59.2,132.6,50,121.2,50z"/><path fill="#BCBCBC" d="M123.6,88.7h-4.8c-0.4,0-0.7-0.3-0.7-0.7v-0.1c0-0.4,0.3-0.7,0.7-0.7h4.8c0.4,0,0.7,0.3,0.7,0.7V88 C124.3,88.4,124,88.7,123.6,88.7z"/><path fill="#C4C4C4" d="M117.9,134.7h16.3c-4.3,0-7.8-3.5-7.8-7.8v0c0-4.3,3.5-7.8,7.8-7.8h-16.3"/><path fill="#C4C4C4" d="M115.9,126.9c0,4.3-3.5,7.8-7.8,7.8h16.3v-15.5h-16.3C112.4,119.2,115.9,122.7,115.9,126.9z"/><rect x="104.9" y="134.7" fill="#CECECE" width="32.7" height="5.9"/></g><g><path fill="#EFA759" d="M54.6,100.5C52.5,88,41.7,78.6,28.7,78.6c-14.5,0-26.3,11.8-26.3,26.3c0,0.1,0,0.1,0,0.2c0,0,0,0.1,0,0.1 v13.1c0,4.5,3.7,8.2,8.2,8.2c4.5,0,8.2-3.7,8.2-8.2v-0.1c0-2.2,1.8-4,4-4c2.2,0,4,1.8,4,4v6.7v0.6v0.1c0,0.1,0,0.1,0,0.2 c0,0.5,0,0.9,0.1,1.4c0,0.1,0,0.2,0.1,0.4c0.1,0.4,0.1,0.8,0.2,1.2c0,0,0,0.1,0,0.1h0c1.5,6.2,7.1,10.8,13.7,10.8 s12.2-4.6,13.7-10.8h0c0,0,0-0.1,0-0.1c0.1-0.4,0.2-0.8,0.2-1.2c0-0.1,0-0.2,0.1-0.4c0.1-0.5,0.1-0.9,0.1-1.4c0-0.1,0-0.1,0-0.2 v-0.1v-0.6v-20v-1.2C55,102.6,54.8,101.5,54.6,100.5z"/><circle fill="#0098ED" cx="16.7" cy="98.7" r="6.6"/><circle fill="#FFCE00" cx="41.3" cy="98.7" r="6.6"/><circle fill="#0098ED" cx="24.5" cy="92" r="2.1"/><circle fill="#FFCE00" cx="45.2" cy="103" r="3.7"/><path fill="#CC2F2F" d="M41.5,116.7c-2.3,0-4.4,1.2-5.6,2.9c-0.2-0.9-1.1-1.6-2-1.6c-1.2,0-2.1,1-2.1,2.1c0,1.2,1,2.1,2.1,2.1 c0.4,0,0.7-0.1,1-0.3c0,0.1,0,0.1,0,0.2c0,0.2-0.1,0.4-0.1,0.6c0,0,0,0,0,0c-0.2,1.7,0.3,3.6,1.5,5c1.2,1.5,3.1,2.5,5.3,2.5 c3.8,0,6.8-3,6.8-6.8C48.3,119.8,45.2,116.7,41.5,116.7z"/></g></svg>