<?xml version="1.0" encoding="utf-8"?><!DOCTYPE svg PUBLIC "-//W3C//DTD SVG 1.1//EN" "http://www.w3.org/Graphics/SVG/1.1/DTD/svg11.dtd"><svg version="1.1" id="Layer_1" xmlns="http://www.w3.org/2000/svg" xmlns:xlink="http://www.w3.org/1999/xlink" x="0px" y="0px" width="150px" height="150px" viewBox="0 0 150 150" enable-background="new 0 0 150 150" xml:space="preserve"><path fill="#BCBCBC" d="M86.1,34V19.7h3.3c0.6,0,1.1-0.5,1.1-1.1v-0.5c0-0.6-0.5-1.1-1.1-1.1H62c-0.6,0-1.1,0.5-1.1,1.1v0.5	c0,0.6,0.5,1.1,1.1,1.1h0.3v2.4h-2.2c-6.3,0-11.4,5.1-11.4,11.4c0,5.4,3.7,9.9,8.7,11.1c0,0.4-0.1,0.8-0.1,1.2	c0,9.3,7.5,16.8,16.8,16.8S90.9,55,90.9,45.8C90.9,41.2,89.1,37.1,86.1,34z M53.1,33.5c0-3.8,3.1-7,7-7h2.2v7.4	c-1.8,1.8-3.1,3.9-4,6.3C55.3,39.4,53.1,36.7,53.1,33.5z"/><rect x="62.3" y="19.7" fill="#ADADAD" width="23.9" height="2.4"/><circle fill="#F0F0F0" cx="65.4" cy="38.6" r="2.6"/><rect x="69.6" y="74.1" fill="#9E5726" width="10.8" height="14.5"/><path fill="#C17134" d="M140.3,59.1H9.7c-4.1,0-7.5,3.4-7.5,7.5s3.4,7.5,7.5,7.5h59.9v21.6c-2.7,1.8-4.5,4.8-4.5,8.3	c0,3.5,1.8,6.5,4.5,8.3v18H50.9c-2.5,0-4.6,2.1-4.6,4.6v0.2h-5.5c-2.1,0-3.8,1.7-3.8,3.8v0c0,2.1,1.7,3.8,3.8,3.8h68.4	c2.1,0,3.8-1.7,3.8-3.8v0c0-2.1-1.7-3.8-3.8-3.8h-5.8v-0.2c0-2.5-2.1-4.6-4.6-4.6H80.4v-18c2.7-1.8,4.5-4.8,4.5-8.3	c0-3.5-1.8-6.5-4.5-8.3V74.1h59.9c4.1,0,7.5-3.4,7.5-7.5S144.4,59.1,140.3,59.1z"/></svg>