<?xml version="1.0" encoding="utf-8"?><!DOCTYPE svg PUBLIC "-//W3C//DTD SVG 1.1//EN" "http://www.w3.org/Graphics/SVG/1.1/DTD/svg11.dtd"><svg version="1.1" xmlns="http://www.w3.org/2000/svg" xmlns:xlink="http://www.w3.org/1999/xlink" x="0px" y="0px" width="150px" height="150px" viewBox="0 0 150 150" enable-background="new 0 0 150 150" xml:space="preserve"><g id="Layer_2" display="none"><rect x="-510" y="-1187.3" display="inline" fill="#F0F0F0" width="1680" height="1677.3"/></g><g id="Layer_1"><g><ellipse fill="#753629" cx="32.4" cy="77.7" rx="10.6" ry="9.9"/></g><g><ellipse fill="#753629" cx="117.4" cy="77.7" rx="10.6" ry="9.9"/></g><g><path fill="#773F32" d="M76,130h-2.1c-22.9,0-41.5-18.6-41.5-41.5V60c0-22.9,18.6-41.5,41.5-41.5H76c22.9,0,41.5,18.6,41.5,41.5 v28.5C117.4,111.4,98.9,130,76,130z"/></g><g><path fill="#3A0D0D" d="M97.2,88.2c0,12.3-10,22.2-22.2,22.2l0,0c-12.3,0-22.2-10-22.2-22.2H97.2z"/></g><g><path fill="#FFFFFF" d="M53.9,95.3H96c0.8-2.2,1.2-4.7,1.2-7.2H52.8C52.8,90.7,53.2,93.1,53.9,95.3z"/></g><g><circle fill="#562722" cx="53.2" cy="67.6" r="5.3"/></g><g><circle fill="#562722" cx="97" cy="67.6" r="5.3"/></g><g><path fill="#571413" d="M87.4,106.6c-3-3.5-7.4-5.7-12.3-5.7l0,0c-5,0-9.4,2.2-12.4,5.8c3.5,2.4,7.8,3.7,12.3,3.7 C79.6,110.4,83.9,109,87.4,106.6z"/></g><g><rect x="68.1" y="62.4" fill="#662B23" width="14" height="19.2"/></g></g><g id="Layer_3"/></svg>