<?xml version="1.0" encoding="utf-8"?><!DOCTYPE svg PUBLIC "-//W3C//DTD SVG 1.1//EN" "http://www.w3.org/Graphics/SVG/1.1/DTD/svg11.dtd"><svg version="1.1" xmlns="http://www.w3.org/2000/svg" xmlns:xlink="http://www.w3.org/1999/xlink" x="0px" y="0px" width="150px" height="150px" viewBox="0 0 150 150" enable-background="new 0 0 150 150" xml:space="preserve"><g id="Layer_2" display="none"><rect x="-1360" y="-340" display="inline" fill="#F0F0F0" width="1680" height="1677.3"/></g><g id="Layer_1"><path fill="#353535" d="M66.9,52.8L66.9,52.8c-10.2,0-18.6-8.4-18.6-18.6v0c0-10.2,8.4-18.6,18.6-18.6h0c10.2,0,18.6,8.4,18.6,18.6 v0C85.5,44.5,77.1,52.8,66.9,52.8z"/><path fill="#353535" d="M91,77.8L91,77.8c-14.8,0-26.9-12-26.9-26.9V29.6c0-14.8,12-26.9,26.9-26.9h0c14.8,0,26.9,12,26.9,26.9 v21.3C117.9,65.7,105.9,77.8,91,77.8z"/><path fill="#353535" d="M44.5,147v-10.2c0-23,18.6-41.7,41.7-41.7h0c23,0,41.7,18.6,41.7,41.7V147"/><path fill="#FFFFFF" d="M106.7,122.4v-18c0-11.4-9.3-20.7-20.7-20.7h0c-11.4,0-20.7,9.3-20.7,20.7v18l20.9-6.8L106.7,122.4z"/><circle fill="#B25C4B" cx="115.8" cy="58.6" r="7"/><circle fill="#B25C4B" cx="56.4" cy="58.6" r="7"/><path fill="#B25C4B" d="M86.1,110.9L86.1,110.9c-6.3,0-11.5-5.1-11.5-11.5V85.7c0-6.3,5.1-11.5,11.5-11.5h0 c6.3,0,11.5,5.1,11.5,11.5v13.8C97.6,105.8,92.5,110.9,86.1,110.9z"/><path fill="#BF7358" d="M86.1,95.4L86.1,95.4c-16.5,0-29.8-13.3-29.8-29.8V47c0-16.5,13.3-29.8,29.8-29.8h0 c16.5,0,29.8,13.3,29.8,29.8v18.5C115.9,82,102.5,95.4,86.1,95.4z"/><polygon fill="#BF7358" points="91,51.6 91,38.5 101.4,51.6"/><circle fill="#A85F48" cx="101.3" cy="51.6" r="3.7"/><circle fill="#A85F48" cx="70.7" cy="51.6" r="3.7"/><rect x="65.2" y="45" fill="#BF7358" width="11.3" height="5.1"/><rect x="95.4" y="45" fill="#BF7358" width="11.3" height="5.1"/><polygon fill="#B25C4B" points="93.3,108.4 86.1,114.6 79,108.4"/><path fill="#B25C4B" d="M89.5,61.4h-6.9c-0.8,0-1.5-0.7-1.5-1.5V49.3c0-0.8,0.7-1.5,1.5-1.5h6.9c0.8,0,1.5,0.7,1.5,1.5v10.6 C91,60.8,90.4,61.4,89.5,61.4z"/><path fill="#B25C4B" d="M52.5,147v-23.8c0-5.7-4.6-10.3-10.3-10.3h0c-5.7,0-10.3,4.6-10.3,10.3V147"/><path fill="#BF7358" d="M49.5,128.5L49.5,128.5c2.6,0,4.8-2.1,4.8-4.8v-12.7c0-2.6-2.1-4.8-4.8-4.8h0c-2.6,0-4.8,2.1-4.8,4.8v12.7 C44.7,126.4,46.8,128.5,49.5,128.5z"/><path fill="#56340F" d="M41.5,146.7L41.5,146.7c-2.3,0-4.1-1.9-4.1-4.1V93.1c0-2.3,1.9-4.1,4.1-4.1h0c2.3,0,4.1,1.9,4.1,4.1l0,49.4 C45.6,144.8,43.8,146.7,41.5,146.7z"/><rect x="32.7" y="81.2" fill="#FFB600" width="17.5" height="15.9"/><g><path fill="#56340F" d="M32,79.3c-1.1,0-1.9,0.9-1.9,1.9v0c0-2.3-1.9-4.2-4.2-4.2s-4.2,1.9-4.2,4.2v16c0,2.3,1.9,4.2,4.2,4.2 s4.2-1.9,4.2-4.2v0c0,1.1,0.9,1.9,1.9,1.9s1.9-0.9,1.9-1.9v-16C34,80.2,33.1,79.3,32,79.3z"/><path fill="#56340F" d="M56.3,77c-2.3,0-4.2,1.9-4.2,4.2v0c0-1.1-0.9-1.9-1.9-1.9s-1.9,0.9-1.9,1.9v16c0,1.1,0.9,1.9,1.9,1.9 s1.9-0.9,1.9-1.9v0c0,2.3,1.9,4.2,4.2,4.2s4.2-1.9,4.2-4.2v-16C60.5,78.9,58.6,77,56.3,77z"/></g><rect x="35.6" y="81.2" fill="#FFB600" width="11.5" height="15.9"/><path fill="#FFD400" d="M37.3,93.3L37.3,93.3c-1,0-1.7-0.8-1.7-1.7V81.2h3.5v10.3C39.1,92.5,38.3,93.3,37.3,93.3z"/><path fill="#56340F" d="M45.6,109.4h-8.3c-0.8,0-1.4-0.7-1.4-1.4l0,0c0-0.8,0.7-1.4,1.4-1.4h8.3c0.8,0,1.4,0.7,1.4,1.4l0,0 C47.1,108.7,46.4,109.4,45.6,109.4z"/><path fill="#BF7358" d="M40.5,119.6h-9.2c-2.8,0-5.1-2.3-5.1-5.1v0c0-2.8,2.3-5.1,5.1-5.1h9.2c2.8,0,5.1,2.3,5.1,5.1v0 C45.6,117.3,43.3,119.6,40.5,119.6z"/><path fill="#BF7358" d="M40.5,129.3h-9.2c-2.8,0-5.1-2.3-5.1-5.1v0c0-2.8,2.3-5.1,5.1-5.1h9.2c2.8,0,5.1,2.3,5.1,5.1v0 C45.6,127,43.3,129.3,40.5,129.3z"/><path fill="#BF7358" d="M40.5,139.1h-9.2c-2.8,0-5.1-2.3-5.1-5.1v0c0-2.8,2.3-5.1,5.1-5.1h9.2c2.8,0,5.1,2.3,5.1,5.1v0 C45.6,136.8,43.3,139.1,40.5,139.1z"/><path fill="#353535" d="M117.9,42.6c-1.2-15.6-14.3-27.8-30.2-27.8h0c-11,0-20.6,5.8-25.9,14.6c6.7,9.3,17.6,15.3,29.8,15.3v-4.2 c6.7,6.8,15.9,11,26.2,11V42.6z"/><path fill="#A85F48" d="M94.2,71.5h-7.2c-0.8,0-1.4-0.6-1.4-1.4v0c0-0.8,0.6-1.4,1.4-1.4h7.2c0.8,0,1.4,0.6,1.4,1.4v0 C95.6,70.8,95,71.5,94.2,71.5z"/></g><g id="Layer_3"/></svg>