<?xml version="1.0" encoding="utf-8"?><!DOCTYPE svg PUBLIC "-//W3C//DTD SVG 1.1//EN" "http://www.w3.org/Graphics/SVG/1.1/DTD/svg11.dtd"><svg version="1.1" id="Layer_1" xmlns="http://www.w3.org/2000/svg" xmlns:xlink="http://www.w3.org/1999/xlink" x="0px" y="0px" width="150px" height="150px" viewBox="0 0 150 150" enable-background="new 0 0 150 150" xml:space="preserve"><path fill="#EF7E29" d="M51.4,114.4H31.1c-2.1,0-3.8-1.7-3.8-3.8v0c0-2.1,1.7-3.8,3.8-3.8h20.3c2.1,0,3.8,1.7,3.8,3.8v0	C55.2,112.7,53.5,114.4,51.4,114.4z"/><path fill="#EF7E29" d="M74.9,114.4H54.7c-2.1,0-3.8-1.7-3.8-3.8v0c0-2.1,1.7-3.8,3.8-3.8h20.3c2.1,0,3.8,1.7,3.8,3.8v0	C78.8,112.7,77,114.4,74.9,114.4z"/><path fill="#EF7E29" d="M40.6,95.2c-5.9,0-10.7-4.8-10.7-10.7c0-12.6-10.3-22.9-22.9-22.9c-3.4,0-6.1,2.7-6.1,6.1s2.7,6.1,6.1,6.1	c5.9,0,10.7,4.8,10.7,10.7c0,12.6,10.3,22.9,22.9,22.9c3.4,0,6.1-2.7,6.1-6.1C46.7,97.9,44,95.2,40.6,95.2z"/><path fill="#EF7E29" d="M53.2,114.4L53.2,114.4c-11.8,0-21.5-9.7-21.5-21.5V60.6c0-11.8,9.7-21.5,21.5-21.5h0	c11.8,0,21.5,9.7,21.5,21.5v32.3C74.7,104.8,65.1,114.4,53.2,114.4z"/><circle fill="#FFDCC5" cx="53.2" cy="69.3" r="5.9"/><path fill="#FFFFFF" d="M58.5,71.2L53.7,69c-0.3-0.2-0.7-0.2-1.1,0l-4.8,2.2c-0.2,0.1-0.4,0.1-0.6,0.1c-2.3-0.2-4.2-2.1-4.2-4.5v0	c0-2.5,2-4.5,4.5-4.5h11.2c2.5,0,4.5,2,4.5,4.5v0c0,2.4-1.9,4.3-4.2,4.5C58.9,71.4,58.7,71.3,58.5,71.2z"/><rect x="67.8" y="46.4" fill="#EF7E29" width="7" height="25.7"/><path fill="#C95F17" d="M46.1,55.3c0,1.8-1.5,3.3-3.3,3.3s-3.3-1.5-3.3-3.3"/><path fill="#C95F17" d="M67,55.3c0,1.8-1.5,3.3-3.3,3.3c-1.8,0-3.3-1.5-3.3-3.3"/><path fill="#964427" d="M117.8,47.4l-0.1-10.5c0-1.2-1.4-1.9-2.4-1.1l-14.4,11.6H117.8z"/><path fill="#EF7E29" d="M74.7,47.4l-0.1-10.5c0-1.2-1.4-1.9-2.4-1.1L57.9,47.4H74.7z"/><path fill="#EF7E29" d="M31.7,47.4l0.1-10.5c0-1.2,1.4-1.9,2.4-1.1l14.4,11.6H31.7z"/><rect x="31.7" y="47.2" fill="#EF7E29" width="6.9" height="24.7"/><path fill="#E26917" d="M57.2,114.4L57.2,114.4c-2.3,0-4.2-1.9-4.2-4.2V89.3c0-2.3,1.9-4.2,4.2-4.2h0c2.3,0,4.2,1.9,4.2,4.2v20.9	C61.4,112.5,59.5,114.4,57.2,114.4z"/><path fill="#E26917" d="M48.9,114.4L48.9,114.4c-2.3,0-4.2-1.9-4.2-4.2V89.3c0-2.3,1.9-4.2,4.2-4.2h0c2.3,0,4.2,1.9,4.2,4.2v20.9	C53.2,112.5,51.3,114.4,48.9,114.4z"/><path fill="#EF7E29" d="M65.5,82.6C65.5,89.4,60,95,53.2,95s-12.4-5.5-12.4-12.4"/><path fill="#E26917" d="M61.7,114.4h-17c-2.1,0-3.8-1.7-3.8-3.8v0c0-2.1,1.7-3.8,3.8-3.8h17c2.1,0,3.8,1.7,3.8,3.8v0	C65.5,112.7,63.8,114.4,61.7,114.4z"/><rect x="44.3" y="81.5" fill="#EF7E29" width="21.7" height="10"/><path fill="#E26917" d="M31.7,72.1h4.8c2.6,0,4.7,2.1,4.7,4.7v0c0,2.6-2.1,4.7-4.7,4.7h-4.8"/><path fill="#E26917" d="M31.7,84.3h4.8c2.6,0,4.7,2.1,4.7,4.7v0c0,2.6-2.1,4.7-4.7,4.7h-4.8"/><path fill="#964427" d="M74.8,47.4l0.1-10.5c0-1.2,1.4-1.9,2.4-1.1l14.4,11.6H74.8z"/><path fill="#E26917" d="M74.7,93.7h-4.8c-2.6,0-4.7-2.1-4.7-4.7v0c0-2.6,2.1-4.7,4.7-4.7h4.8"/><path fill="#E26917" d="M74.7,81.5h-4.8c-2.6,0-4.7-2.1-4.7-4.7v0c0-2.6,2.1-4.7,4.7-4.7h4.8"/><path fill="#FF8AC5" d="M55.7,63.3l-1.9,3.3c-0.3,0.4-0.9,0.4-1.1,0l-1.9-3.3c-0.3-0.4,0.1-1,0.6-1h3.9C55.7,62.4,56,62.9,55.7,63.3	z"/><rect x="74.8" y="46.4" fill="#964427" width="7" height="25.7"/><path fill="#E26917" d="M45.8,65.7l-8.5-1.2c-0.4-0.1-0.7-0.4-0.6-0.8l0,0c0.1-0.4,0.4-0.7,0.8-0.6l8.5,1.2c0.4,0.1,0.7,0.4,0.6,0.8	v0C46.5,65.5,46.2,65.7,45.8,65.7z"/><path fill="#E26917" d="M46,68.8L37.5,70c-0.4,0.1-0.7-0.2-0.8-0.6v0c-0.1-0.4,0.2-0.7,0.6-0.8l8.5-1.2c0.4-0.1,0.7,0.2,0.8,0.6l0,0	C46.7,68.4,46.4,68.8,46,68.8z"/><rect x="110.9" y="47.2" fill="#964427" width="6.9" height="24.7"/><path fill="#E26917" d="M60.2,66l8.5-1.2c0.4-0.1,0.7-0.4,0.6-0.8v0c-0.1-0.4-0.4-0.7-0.8-0.6L60,64.6c-0.4,0.1-0.7,0.4-0.6,0.8l0,0	C59.5,65.8,59.8,66,60.2,66z"/><path fill="#E26917" d="M60,69.1l8.5,1.2c0.4,0.1,0.7-0.2,0.8-0.6l0,0c0.1-0.4-0.2-0.7-0.6-0.8l-8.5-1.2c-0.4-0.1-0.7,0.2-0.8,0.6	l0,0C59.3,68.7,59.6,69,60,69.1z"/><path fill="#51291D" d="M98.1,114.4h20.3c2.1,0,3.8-1.7,3.8-3.8v0c0-2.1-1.7-3.8-3.8-3.8H98.1c-2.1,0-3.8,1.7-3.8,3.8v0	C94.3,112.7,96,114.4,98.1,114.4z"/><path fill="#51291D" d="M74.6,114.4h20.3c2.1,0,3.8-1.7,3.8-3.8v0c0-2.1-1.7-3.8-3.8-3.8H74.6c-2.1,0-3.8,1.7-3.8,3.8v0	C70.7,112.7,72.5,114.4,74.6,114.4z"/><path fill="#51291D" d="M108.9,95.2c5.9,0,10.7-4.8,10.7-10.7c0-12.6,10.3-22.9,22.9-22.9c3.4,0,6.1,2.7,6.1,6.1s-2.7,6.1-6.1,6.1	c-5.9,0-10.7,4.8-10.7,10.7c0,12.6-10.3,22.9-22.9,22.9c-3.4,0-6.1-2.7-6.1-6.1C102.8,97.9,105.5,95.2,108.9,95.2z"/><path fill="#51291D" d="M96.3,114.4L96.3,114.4c11.8,0,21.5-9.7,21.5-21.5V60.6c0-11.8-9.7-21.5-21.5-21.5h0	c-11.8,0-21.5,9.7-21.5,21.5v32.3C74.8,104.8,84.4,114.4,96.3,114.4z"/><circle fill="#FFDCC5" cx="96.3" cy="69.3" r="5.9"/><path fill="#FFFFFF" d="M91,71.2l4.8-2.2c0.3-0.2,0.7-0.2,1.1,0l4.8,2.2c0.2,0.1,0.4,0.1,0.6,0.1c2.3-0.2,4.2-2.1,4.2-4.5v0	c0-2.5-2-4.5-4.5-4.5H90.8c-2.5,0-4.5,2-4.5,4.5v0c0,2.4,1.9,4.3,4.2,4.5C90.6,71.4,90.8,71.3,91,71.2z"/><path fill="#2D1611" d="M103.4,55.3c0,1.8,1.5,3.3,3.3,3.3s3.3-1.5,3.3-3.3"/><path fill="#2D1611" d="M82.5,55.3c0,1.8,1.5,3.3,3.3,3.3s3.3-1.5,3.3-3.3"/><path fill="#3D1E17" d="M92.3,114.4L92.3,114.4c2.3,0,4.2-1.9,4.2-4.2V89.3c0-2.3-1.9-4.2-4.2-4.2h0c-2.3,0-4.2,1.9-4.2,4.2v20.9	C88.1,112.5,90,114.4,92.3,114.4z"/><path fill="#3D1E17" d="M100.6,114.4L100.6,114.4c2.3,0,4.2-1.9,4.2-4.2V89.3c0-2.3-1.9-4.2-4.2-4.2h0c-2.3,0-4.2,1.9-4.2,4.2v20.9	C96.3,112.5,98.2,114.4,100.6,114.4z"/><path fill="#51291D" d="M84,82.6C84,89.4,89.5,95,96.3,95s12.4-5.5,12.4-12.4"/><path fill="#3D1E17" d="M87.8,114.4h17c2.1,0,3.8-1.7,3.8-3.8v0c0-2.1-1.7-3.8-3.8-3.8h-17c-2.1,0-3.8,1.7-3.8,3.8v0	C84,112.7,85.7,114.4,87.8,114.4z"/><path fill="#964427" d="M117.8,72.1h-4.8c-2.6,0-4.7,2.1-4.7,4.7v0c0,2.6,2.1,4.7,4.7,4.7h4.8"/><path fill="#964427" d="M117.8,84.3h-4.8c-2.6,0-4.7,2.1-4.7,4.7v0c0,2.6,2.1,4.7,4.7,4.7h4.8"/><path fill="#964427" d="M74.8,93.7h4.8c2.6,0,4.7-2.1,4.7-4.7v0c0-2.6-2.1-4.7-4.7-4.7h-4.8"/><path fill="#964427" d="M74.8,81.5h4.8c2.6,0,4.7-2.1,4.7-4.7v0c0-2.6-2.1-4.7-4.7-4.7h-4.8"/><path fill="#FF8AC5" d="M93.8,63.3l1.9,3.3c0.3,0.4,0.9,0.4,1.1,0l1.9-3.3c0.3-0.4-0.1-1-0.6-1h-3.9C93.8,62.4,93.5,62.9,93.8,63.3z"/><path fill="#964427" d="M103.7,65.7l8.5-1.2c0.4-0.1,0.7-0.4,0.6-0.8l0,0c-0.1-0.4-0.4-0.7-0.8-0.6l-8.5,1.2	c-0.4,0.1-0.7,0.4-0.6,0.8v0C103,65.5,103.3,65.7,103.7,65.7z"/><path fill="#964427" d="M103.5,68.8L112,70c0.4,0.1,0.7-0.2,0.8-0.6l0,0c0.1-0.4-0.2-0.7-0.6-0.8l-8.5-1.2c-0.4-0.1-0.7,0.2-0.8,0.6	l0,0C102.8,68.4,103.1,68.8,103.5,68.8z"/><path fill="#964427" d="M89.3,66l-8.5-1.2c-0.4-0.1-0.7-0.4-0.6-0.8v0c0.1-0.4,0.4-0.7,0.8-0.6l8.5,1.2c0.4,0.1,0.7,0.4,0.6,0.8l0,0	C90,65.8,89.7,66,89.3,66z"/><path fill="#964427" d="M89.5,69.1L81,70.3c-0.4,0.1-0.7-0.2-0.8-0.6l0,0c-0.1-0.4,0.2-0.7,0.6-0.8l8.5-1.2c0.4-0.1,0.7,0.2,0.8,0.6	l0,0C90.2,68.7,89.9,69,89.5,69.1z"/></svg>