<?xml version="1.0" encoding="utf-8"?><!DOCTYPE svg PUBLIC "-//W3C//DTD SVG 1.1//EN" "http://www.w3.org/Graphics/SVG/1.1/DTD/svg11.dtd"><svg version="1.1" id="Layer_1" xmlns="http://www.w3.org/2000/svg" xmlns:xlink="http://www.w3.org/1999/xlink" x="0px" y="0px" width="150px" height="150px" viewBox="0 0 150 150" enable-background="new 0 0 150 150" xml:space="preserve"><path fill="#C6C4AF" d="M32,141.6v-10.5c0-23.6,19.2-42.8,42.8-42.8h0c23.6,0,42.8,19.2,42.8,42.8v10.5"/><circle fill="none" stroke="#FFCE00" stroke-width="4" stroke-miterlimit="10" cx="74.8" cy="99.7" r="27.3"/><path fill="#3D94C4" d="M53.8,93.8c-13,7.4-21.7,21.3-21.7,37.2v10.5h21.7V93.8z"/><path fill="#3D94C4" d="M96.2,94v47.5h21.3v-10.5C117.6,115.2,109,101.4,96.2,94z"/><path fill="#FFFFFF" d="M74.8,60.2C57.3,60.2,43,74.4,43,91.9V119l31.5-9.7l31.9,9.7V91.9C106.5,74.4,92.2,60.2,74.8,60.2z"/><circle fill="#FF9D8A" cx="105.3" cy="50.8" r="7.2"/><circle fill="#FF9D8A" cx="44.3" cy="50.8" r="7.2"/><path fill="#FF9D8A" d="M74.9,103.5L74.9,103.5c-6.5,0-11.8-5.3-11.8-11.8V77.6c0-6.5,5.3-11.8,11.8-11.8h0	c6.5,0,11.8,5.3,11.8,11.8v14.1C86.7,98.2,81.4,103.5,74.9,103.5z"/><path fill="#FFB5A1" d="M74.8,88.5L74.8,88.5c-16.9,0-30.6-13.7-30.6-30.6v-19C44.2,22,57.9,8.3,74.8,8.3h0	c16.9,0,30.6,13.7,30.6,30.6v19C105.4,74.8,91.7,88.5,74.8,88.5z"/><path fill="#FF7900" d="M59.2,28.7c6.5,0.3,13,0.8,19.5,1.1c8.5,0.4,17.1,0.2,25.6-0.1C100.7,16.7,88.9,7.3,74.8,7.3h0	c-13.6,0-25.2,8.9-29.1,21.2C50.2,28.9,55,28.5,59.2,28.7z"/><circle fill="#EA9486" cx="59.1" cy="46.6" r="3.8"/><path fill="#FF7900" d="M69.6,20.3c-1,0.4-2,0.7-3,0.9c-1,1.4-2.6,2.6-4.6,2.8c-1.7,0.2-3.3,0.3-5,0.2v17.9	c8.5,0,15.4-6.9,15.4-15.4c0-2.5-0.6-4.9-1.7-7C70.4,19.9,70,20.1,69.6,20.3z"/><path fill="#FF7900" d="M45.6,22.8c-0.4,0-0.8,0-1.3-0.1v20.7c9.4,0,17.1-7.7,17.1-17.1c0-0.8-0.1-1.6-0.2-2.3	C56,24.6,50.8,23.9,45.6,22.8z"/><circle fill="#EA9486" cx="90.5" cy="46.6" r="3.8"/><rect x="69.7" y="42.7" fill="#FF9D8A" width="10.2" height="11.1"/><polygon fill="#FFCE00" points="105.4,32.4 44.2,32.4 44.2,9.7 59.8,18.7 74.3,9.7 90.6,18.7 105.4,9.7"/><path fill="#FFCE00" d="M104.7,32.4H43.9c-1.7,0-3.1-1.4-3.1-3.1v0c0-1.7,1.4-3.1,3.1-3.1h60.8c1.7,0,3.1,1.4,3.1,3.1v0	C107.8,31,106.4,32.4,104.7,32.4z"/><path fill="#EA9486" d="M80.4,63.7H68.8c-0.7,0-1.3-0.6-1.3-1.3v0c0-0.7,0.6-1.3,1.3-1.3h11.7c0.7,0,1.3,0.6,1.3,1.3v0	C81.7,63.1,81.1,63.7,80.4,63.7z"/><circle fill="#FF9D8A" cx="53.6" cy="59.5" r="1.8"/><circle fill="#FF9D8A" cx="49.6" cy="55.5" r="1.8"/><circle fill="#FF9D8A" cx="95.6" cy="59.5" r="1.8"/><circle fill="#FF9D8A" cx="99.6" cy="55.5" r="1.8"/></svg>