<?xml version="1.0" encoding="utf-8"?><!DOCTYPE svg PUBLIC "-//W3C//DTD SVG 1.1//EN" "http://www.w3.org/Graphics/SVG/1.1/DTD/svg11.dtd"><svg version="1.1" id="Layer_1" xmlns="http://www.w3.org/2000/svg" xmlns:xlink="http://www.w3.org/1999/xlink" x="0px" y="0px" width="150px" height="150px" viewBox="0 0 150 150" enable-background="new 0 0 150 150" xml:space="preserve"><circle fill="#A8A8A8" cx="74.4" cy="53" r="21.1"/><path fill="#91432D" d="M130.7,134.6H18.4c-3.3,0-6-2.7-6-6V51.8c0-3.3,2.7-6,6-6h112.2c3.3,0,6,2.7,6,6v76.8	C136.6,131.9,134,134.6,130.7,134.6z"/><path fill="#383838" d="M98.5,126.9H25c-2.5,0-4.5-2-4.5-4.5V58c0-2.5,2-4.5,4.5-4.5h73.5c2.5,0,4.5,2,4.5,4.5v64.4	C102.9,124.9,100.9,126.9,98.5,126.9z"/><path fill="#898989" d="M88.4,120.2H35.1c-4.3,0-7.8-3.5-7.8-7.8V68.1c0-4.3,3.5-7.8,7.8-7.8h53.3c4.3,0,7.8,3.5,7.8,7.8v44.2	C96.2,116.6,92.7,120.2,88.4,120.2z"/><rect x="107.1" y="104.9" fill="#383838" width="25.5" height="22.3"/><rect x="107.1" y="54.2" fill="#A8A8A8" width="25.5" height="46.7"/><rect x="107.1" y="104.9" fill="#A8A8A8" width="25.5" height="3.2"/><rect x="107.1" y="111.2" fill="#A8A8A8" width="25.5" height="3.2"/><rect x="107.1" y="117.6" fill="#A8A8A8" width="25.5" height="3.2"/><rect x="107.1" y="124" fill="#A8A8A8" width="25.5" height="3.2"/><circle fill="#383838" cx="119.8" cy="66.9" r="8.2"/><circle fill="#6D6D6D" cx="119.8" cy="66.9" r="5.6"/><circle fill="#383838" cx="119.8" cy="88.1" r="8.2"/><circle fill="#6D6D6D" cx="119.8" cy="88.1" r="5.6"/><line fill="none" stroke="#A8A8A8" stroke-width="3.9775" stroke-linecap="round" stroke-linejoin="round" stroke-miterlimit="10" x1="79.1" y1="39.3" x2="100.7" y2="17.6"/><line fill="none" stroke="#A8A8A8" stroke-width="3.9775" stroke-linecap="round" stroke-linejoin="round" stroke-miterlimit="10" x1="69.7" y1="39.3" x2="48.1" y2="17.6"/><rect x="27.2" y="67.2" fill="#AAAAAA" width="69" height="6.6"/><rect x="27.2" y="80.8" fill="#6D6D6D" width="69" height="6.6"/><rect x="27.2" y="94.3" fill="#AAAAAA" width="69" height="6.6"/><rect x="27.2" y="107.8" fill="#6D6D6D" width="69" height="6.6"/><path fill="none" stroke="#D6D6D6" stroke-width="3.182" stroke-linecap="round" stroke-linejoin="round" stroke-miterlimit="10" d="M62.2,41.3c3.1-3.2,7.4-5.2,12.2-5.2"/></svg>