<?xml version="1.0" encoding="utf-8"?><!DOCTYPE svg PUBLIC "-//W3C//DTD SVG 1.1//EN" "http://www.w3.org/Graphics/SVG/1.1/DTD/svg11.dtd"><svg version="1.1" id="Layer_1" xmlns="http://www.w3.org/2000/svg" xmlns:xlink="http://www.w3.org/1999/xlink" x="0px" y="0px" width="150px" height="150px" viewBox="0 0 150 150" enable-background="new 0 0 150 150" xml:space="preserve"><g><path d="M36.8,106.5c-16.7,0-30.3-13.6-30.3-30.3c0-16.7,13.6-30.3,30.3-30.3h76.3c16.7,0,30.3,13.6,30.3,30.3 c0,16.7-13.6,30.3-30.3,30.3H36.8z"/><path fill="#A3A3A3" d="M113.2,48.3c15.4,0,27.8,12.5,27.8,27.8v0c0,15.4-12.5,27.8-27.8,27.8H36.8C21.5,104,9,91.5,9,76.2v0 c0-15.4,12.5-27.8,27.8-27.8H113.2 M113.2,43.3H36.8C18.7,43.3,4,58.1,4,76.2S18.7,109,36.8,109h76.3c18.1,0,32.8-14.7,32.8-32.8 C146,58.1,131.3,43.3,113.2,43.3L113.2,43.3z"/></g><path fill="#FF3E3E" d="M57,93.2L57,93.2c1.2,0,2.3-1,2.3-2.3V62.2c0-1.2-1-2.3-2.3-2.3h0c-1.2,0-2.3,1-2.3,2.3v28.8	C54.8,92.2,55.8,93.2,57,93.2z"/><path fill="#FF3E3E" d="M42.8,79.9L42.8,79.9c1.2,0,2.3-1,2.3-2.3V62.2c0-1.2-1-2.3-2.3-2.3h0c-1.2,0-2.3,1-2.3,2.3v15.4	C40.5,78.9,41.6,79.9,42.8,79.9z"/><path fill="#FF3E3E" d="M59.3,77.6L59.3,77.6c0-1.2-1-2.3-2.3-2.3H42.9c-1.2,0-2.3,1-2.3,2.3v0c0,1.2,1,2.3,2.3,2.3H57	C58.3,79.9,59.3,78.9,59.3,77.6z"/><path fill="#FF3E3E" d="M99.3,62.2L99.3,62.2c0-1.2-1-2.3-2.3-2.3H80c-1.2,0-2.3,1-2.3,2.3v0c0,1.2,1,2.3,2.3,2.3h17	C98.3,64.5,99.3,63.4,99.3,62.2z"/><path fill="#FF3E3E" d="M99.3,90.9L99.3,90.9c0-1.2-1-2.3-2.3-2.3H80c-1.2,0-2.3,1-2.3,2.3l0,0c0,1.2,1,2.3,2.3,2.3h17	C98.3,93.2,99.3,92.2,99.3,90.9z"/><path fill="#FF3E3E" d="M126.3,62.2L126.3,62.2c0-1.2-1-2.3-2.3-2.3h-17c-1.2,0-2.3,1-2.3,2.3v0c0,1.2,1,2.3,2.3,2.3h17	C125.3,64.5,126.3,63.4,126.3,62.2z"/><path fill="#FF3E3E" d="M126.3,90.9L126.3,90.9c0-1.2-1-2.3-2.3-2.3h-17c-1.2,0-2.3,1-2.3,2.3l0,0c0,1.2,1,2.3,2.3,2.3h17	C125.3,93.2,126.3,92.2,126.3,90.9z"/><circle fill="#FF3E3E" cx="67.5" cy="68.7" r="2.2"/><circle fill="#FF3E3E" cx="67.5" cy="80.7" r="2.2"/><path fill="#FF3E3E" d="M80,93.2L80,93.2c-1.2,0-2.3-1-2.3-2.3V62.2c0-1.2,1-2.3,2.3-2.3h0c1.2,0,2.3,1,2.3,2.3v28.8	C82.3,92.2,81.3,93.2,80,93.2z"/><path fill="#FF3E3E" d="M97,93.2L97,93.2c-1.2,0-2.3-1-2.3-2.3V62.2c0-1.2,1-2.3,2.3-2.3h0c1.2,0,2.3,1,2.3,2.3v28.8	C99.3,92.2,98.3,93.2,97,93.2z"/><path fill="#FF3E3E" d="M107,93.2L107,93.2c-1.2,0-2.3-1-2.3-2.3V62.2c0-1.2,1-2.3,2.3-2.3h0c1.2,0,2.3,1,2.3,2.3v28.8	C109.3,92.2,108.3,93.2,107,93.2z"/><path fill="#FF3E3E" d="M124,93.2L124,93.2c-1.2,0-2.3-1-2.3-2.3V62.2c0-1.2,1-2.3,2.3-2.3h0c1.2,0,2.3,1,2.3,2.3v28.8	C126.3,92.2,125.3,93.2,124,93.2z"/><path fill="#A3A3A3" d="M87.1,48.2h-5.4c-2.7,0-4.8-2.2-4.8-4.8v0c0-2.7,2.2-4.8,4.8-4.8h5.4c2.7,0,4.8,2.2,4.8,4.8v0	C91.9,46,89.8,48.2,87.1,48.2z"/><path fill="#A3A3A3" d="M60.5,48.2H41.2c-2.7,0-4.8-2.2-4.8-4.8v0c0-2.7,2.2-4.8,4.8-4.8h19.3c2.7,0,4.8,2.2,4.8,4.8v0	C65.3,46,63.2,48.2,60.5,48.2z"/><path fill="#A3A3A3" d="M107.6,48.2h-5.4c-2.7,0-4.8-2.2-4.8-4.8v0c0-2.7,2.2-4.8,4.8-4.8h5.4c2.7,0,4.8,2.2,4.8,4.8v0	C112.4,46,110.3,48.2,107.6,48.2z"/></svg>