<?xml version="1.0" encoding="utf-8"?><!DOCTYPE svg PUBLIC "-//W3C//DTD SVG 1.1//EN" "http://www.w3.org/Graphics/SVG/1.1/DTD/svg11.dtd"><svg version="1.1" id="Layer_1" xmlns="http://www.w3.org/2000/svg" xmlns:xlink="http://www.w3.org/1999/xlink" x="0px" y="0px" width="150px" height="150px" viewBox="0 0 150 150" enable-background="new 0 0 150 150" xml:space="preserve"><path fill="#AEFBFF" d="M103.6,126.5h-55c-3.5,0-6.3-2.8-6.3-6.3V22.4h67.6v97.8C109.9,123.7,107.1,126.5,103.6,126.5z"/><path fill="none" stroke="#9CE8E8" stroke-width="4.5897" stroke-miterlimit="10" d="M109.9,22.4v98.3c0,3.2-2.6,5.8-5.8,5.8h-56	c-3.2,0-5.8-2.6-5.8-5.8V22.4"/><path fill="#9CE8E8" d="M107.6,126.5H44.5c-1.6,0-3-1.3-3-3V115c0-1.6,1.3-3,3-3h63.1c1.6,0,3,1.3,3,3v8.6	C110.5,125.2,109.2,126.5,107.6,126.5z"/><path fill="#DCFFFF" d="M59.3,83.2L59.3,83.2c-3.9,0-7-3.2-7-7V22.4h14.1v53.7C66.3,80,63.2,83.2,59.3,83.2z"/></svg>