<?xml version="1.0" encoding="utf-8"?><!DOCTYPE svg PUBLIC "-//W3C//DTD SVG 1.1//EN" "http://www.w3.org/Graphics/SVG/1.1/DTD/svg11.dtd"><svg version="1.1" id="Layer_1" xmlns="http://www.w3.org/2000/svg" xmlns:xlink="http://www.w3.org/1999/xlink" x="0px" y="0px" width="150px" height="150px" viewBox="0 0 150 150" enable-background="new 0 0 150 150" xml:space="preserve"><path fill="#282828" d="M41.7,148.1v-5.7c0-18.2,14.8-33,33-33h0c18.2,0,33,14.8,33,33v5.7"/><path fill="#0F0F0F" d="M91.3,148.1v-28.8c0-9.2-7.6-16.8-16.8-16.8h0c-9.2,0-16.8,7.6-16.8,16.8v28.8"/><rect x="65.1" y="110.9" fill="#E2E2E2" width="19.2" height="37.3"/><path fill="#FFB5A1" d="M120.9,115.1L120.9,115.1c-1.9,0-3.4-1.5-3.4-3.4V95.4c0-1.9,1.5-3.4,3.4-3.4h0c1.9,0,3.4,1.5,3.4,3.4v16.3	C124.4,113.6,122.8,115.1,120.9,115.1z"/><path fill="#FFB5A1" d="M112.2,115.1L112.2,115.1c-1.9,0-3.4-1.5-3.4-3.4V95.4c0-1.9,1.5-3.4,3.4-3.4h0c1.9,0,3.4,1.5,3.4,3.4v16.3	C115.7,113.6,114.1,115.1,112.2,115.1z"/><path fill="#FFB5A1" d="M129.6,115.1L129.6,115.1c-1.9,0-3.4-1.5-3.4-3.4V95.4c0-1.9,1.5-3.4,3.4-3.4h0c1.9,0,3.4,1.5,3.4,3.4v16.3	C133.1,113.6,131.5,115.1,129.6,115.1z"/><path fill="#FFB5A1" d="M116.1,118.6l-8.4-6.9c-1.3-1.6-3.7-1.8-5.3-0.4c-1.6,1.3-1.8,3.7-0.4,5.3l8.4,6.9c1.3,1.6,3.7,1.8,5.3,0.4	C117.2,122.5,117.4,120.1,116.1,118.6z"/><path fill="#FFB5A1" d="M133.1,106v11c0,6.7-5.5,12.1-12.1,12.1h0c-6.7,0-12.1-5.5-12.1-12.1v-11"/><polygon fill="#282828" points="79.6,120.4 74.7,128.9 69.8,120.4"/><polygon fill="#282828" points="80.2,148.1 74.7,123.5 69.2,148.1"/><rect x="125.6" y="102.7" fill="#FFDA00" width="8.2" height="3.4"/><rect x="112.2" y="118.5" fill="#FFB5A1" width="17.4" height="29.3"/><path fill="#FFFFFF" d="M86.5,125.1v-10.3c0-6.5-5.3-11.8-11.8-11.8h0c-6.5,0-11.8,5.3-11.8,11.8v10.3l11.9-3.9L86.5,125.1z"/><rect x="110.7" y="127.1" fill="#282828" width="20.5" height="20.6"/><path fill="#934A3A" d="M97.3,56.8H83.9H80H48.2c0-9.1,7.4-16.5,16.5-16.5h2.4h15.6h31.1C113.8,49.4,106.4,56.8,97.3,56.8z"/><path fill="#FFA792" d="M74.7,90.4c-5.3,0-9.6,4.2-9.6,9.3v11.2c0,5.1,4.3,9.3,9.6,9.3s9.6-4.2,9.6-9.3V99.7	C84.3,94.6,80,90.4,74.7,90.4z"/><ellipse fill="#FFA792" cx="48.3" cy="80.6" rx="6.7" ry="6.3"/><ellipse fill="#FFA792" cx="101.1" cy="80.6" rx="6.7" ry="6.3"/><path fill="#FFB5A1" d="M48.2,56.2v7.1v11.2v10.4c0,13.6,11.9,24.8,26.5,24.8l0,0c14.6,0,26.5-11.2,26.5-24.8V56.1"/><ellipse fill="#EA9486" cx="61.3" cy="70.8" rx="3.3" ry="3.1"/><ellipse fill="#EA9486" cx="87.3" cy="70.8" rx="3.3" ry="3.1"/><rect x="70.4" y="67.8" fill="#EA9486" width="8.7" height="14.3"/><path fill="#E5A393" d="M48.3,86.7V87c1.2,12.6,12.6,22.6,26.4,22.6c13.9,0,25.4-10.2,26.4-23H48.3z"/><circle fill="#FFFFFF" cx="47.1" cy="30.7" r="29.3"/><path fill="#FFFFFF" d="M52.9,70.1c-8.3,0-15-6.7-15-15s6.7-15,15-15"/><path fill="#D86B60" d="M60.7,86.7c0,7.2,6.3,13.1,14,13.1s14-5.9,14-13.1"/><path fill="#FFFFFF" d="M87.8,91.2H61.6c-0.6-1.4-0.9-2.9-0.9-4.5h28C88.7,88.3,88.4,89.8,87.8,91.2z"/><g><path fill="#FF9797" d="M47,47c-0.1,0-0.3,0-0.4-0.1c-0.1,0-0.2-0.1-0.3-0.2c-7.1-5.6-10.5-8.6-12.5-11.1c-2.3-2.8-2.7-5.1-2.7-8 c0,0,0-0.1,0-0.1c0-4.9,4-8.9,8.9-8.9c2.9,0,5.5,1.4,7.2,3.7c1.6-2.2,4.3-3.7,7.2-3.7c4.9,0,8.9,4,8.9,8.9c0,0,0,0.1,0,0.1 c0,2.9-0.5,5.2-2.7,8c-2,2.5-5.4,5.6-12.6,11.1c-0.1,0.1-0.2,0.1-0.3,0.2C47.3,47,47.1,47,47,47z"/></g></svg>