<?xml version="1.0" encoding="utf-8"?><!DOCTYPE svg PUBLIC "-//W3C//DTD SVG 1.1//EN" "http://www.w3.org/Graphics/SVG/1.1/DTD/svg11.dtd"><svg version="1.1" xmlns="http://www.w3.org/2000/svg" xmlns:xlink="http://www.w3.org/1999/xlink" x="0px" y="0px" width="150px" height="150px" viewBox="0 0 150 150" enable-background="new 0 0 150 150" xml:space="preserve"><g id="Layer_2" display="none"><rect x="-1020" y="-1017.3" display="inline" fill="#F0F0F0" width="1680" height="1677.3"/></g><g id="Layer_1"/><g id="Layer_3"><path fill="#44230C" d="M106.1,64.7l-15.3,0c-12.1,0-22-9.9-22-22v0c0-12.1,9.9-22,22-22l15.3,0c12.1,0,22,9.9,22,22v0 C128.1,54.9,118.2,64.8,106.1,64.7z"/><path fill="#44230C" d="M15.1,83.8l0,37.1l7.1,10.6l11.5,0c1.1,0,1.5-1.3,0.7-2L26,123l4.1-19L15.1,83.8z"/><path fill="#44230C" d="M100,43.1l-86-0.1c-6.9,0-12.5,5.6-12.5,12.5l0,22.1c0,14.6,11.8,26.4,26.4,26.4l2.3,0 c-0.1-1.4,0-2.8,0.5-4.2c1.8-6,8.3-9.4,14.2-7.5l37.9,11.7l17.2,0c6.9,0,12.5-5.6,12.5-12.5l0-36C112.5,48.7,106.9,43.2,100,43.1z"/><path fill="#44230C" d="M85.1,83.9l0,37.1l7.1,10.6l11.3,0c1.1,0,1.6-1.4,0.7-2.1l-8.2-6.4l4.1-19L85.1,83.9z"/><path fill="#44230C" d="M17.5,129.7L17.5,129.7c-1.4,0-2.5-1.1-2.5-2.5v-9.5c0-1.4,1.1-2.5,2.5-2.5h0c1.4,0,2.5,1.1,2.5,2.5v9.5 C20,128.6,18.9,129.7,17.5,129.7z"/><path fill="#44230C" d="M87.5,129.7L87.5,129.7c-1.4,0-2.5-1.1-2.5-2.5v-9.5c0-1.4,1.1-2.5,2.5-2.5h0c1.4,0,2.5,1.1,2.5,2.5v9.5 C90,128.6,88.9,129.7,87.5,129.7z"/><path fill="#44230C" d="M72.2,30.4c0,0-8.8,12.7-33.7,12.7c6,16.9,4.7,25.3,4.7,25.3L83,60.7l-1-21.8L72.2,30.4z"/><path fill="#44230C" d="M4.1,115.9L4.1,115.9c-1.4,0-2.6-1.2-2.6-2.6l0-47.8c0-1.4,1.2-2.6,2.6-2.6h0c1.4,0,2.6,1.2,2.6,2.6l0,47.8 C6.7,114.8,5.5,115.9,4.1,115.9z"/><path fill="#231206" d="M26.1,123.1l-11-2.4v0.3l7.1,10.6h11.5c1.1,0,1.5-1.3,0.7-2L26.1,123.1z"/><path fill="#231206" d="M96.1,123.1l-11-2.4v0.3l7.1,10.6h11.3c1.1,0,1.6-1.4,0.7-2.1L96.1,123.1z"/><path fill="#44230C" d="M141.1,60.1H95.6c-3.8,0-6.9-3.1-6.9-6.9v-3.9c0-3.8,3.1-6.9,6.9-6.9h45.5c3.8,0,6.9,3.1,6.9,6.9v3.9 C148,57,144.9,60.1,141.1,60.1z"/><path fill="#44230C" d="M135.8,59.4l-25,39c-3.3,5.1-10.2,6.7-15.3,3.4l0,0c-5.1-3.3-6.7-10.2-3.4-15.3l25-39 c3.3-5.1,10.2-6.7,15.3-3.4l0,0C137.5,47.4,139.1,54.3,135.8,59.4z"/><path fill="#44230C" d="M124.3,30.4c0,0,6.3,12,15.1,12l0.8,5.4l-10.8,5.7c0,0-15.7-6.4-15.8-7.6S124.3,30.4,124.3,30.4z"/><path fill="none" stroke="#CEC5AB" stroke-width="6" stroke-linecap="round" stroke-linejoin="round" stroke-miterlimit="10" d="M136.7,21.5L136.7,21.5c0,4.4-3.6,8-8,8h-16.4"/><path fill="#331A09" d="M147.1,50.8h-4.7c-0.8,0-1.4-0.6-1.4-1.4v0c0-0.8,0.6-1.4,1.4-1.4h4.7c0.8,0,1.4,0.6,1.4,1.4v0 C148.5,50.2,147.9,50.8,147.1,50.8z"/><path fill="#211106" d="M124.9,42.2c0,1.9-1.5,3.4-3.4,3.4s-3.4-1.5-3.4-3.4"/><path fill="#FFC715" d="M147.6,59.2L147.6,59.2c-0.8,0-1.4-0.6-1.4-1.4v-9c0-0.8,0.6-1.4,1.4-1.4l0,0c0.8,0,1.4,0.6,1.4,1.4v9 C149,58.5,148.4,59.2,147.6,59.2z"/></g></svg>