<?xml version="1.0" encoding="utf-8"?><!DOCTYPE svg PUBLIC "-//W3C//DTD SVG 1.1//EN" "http://www.w3.org/Graphics/SVG/1.1/DTD/svg11.dtd"><svg version="1.1" id="Layer_1" xmlns="http://www.w3.org/2000/svg" xmlns:xlink="http://www.w3.org/1999/xlink" x="0px" y="0px" width="150px" height="150px" viewBox="0 0 150 150" enable-background="new 0 0 150 150" xml:space="preserve"><path fill="#D13631" d="M119.2,145.6h-88v-8.2c0-24.3,19.7-44,44-44h0c24.3,0,44,19.7,44,44V145.6z"/><circle fill="#E83D3C" cx="75.2" cy="127.4" r="2.8"/><path fill="#E83D3C" d="M94.3,121.6v-16.8c0-10.6-8.7-19.3-19.3-19.3h0c-10.6,0-19.3,8.7-19.3,19.3v16.8l19.5-6.3L94.3,121.6z"/><polygon fill="#F3A28F" points="83.9,104.9 75.2,113.2 66.6,104.9"/><path fill="#F3A28F" d="M75.2,68.5c-7,0-12.8,5.6-12.8,12.4v14.9c0,6.8,5.7,12.4,12.8,12.4c7,0,12.8-5.6,12.8-12.4V81	C87.9,74.1,82.2,68.5,75.2,68.5z"/><g><ellipse fill="#F3A28F" cx="41.2" cy="50.2" rx="8.5" ry="8"/></g><g><ellipse fill="#F3A28F" cx="109.6" cy="50.2" rx="8.5" ry="8"/></g><g><path fill="#F5B7A4" d="M75.4,93L75.4,93c-18.9,0-34.2-15.3-34.2-34.2v-16c0-18.9,15.3-34.2,34.2-34.2h0 c18.9,0,34.2,15.3,34.2,34.2v16C109.6,77.7,94.3,93,75.4,93z"/></g><path fill="#9E5739" d="M41.2,58.2v0.6C41.2,77.7,56.5,93,75.4,93h0c18.9,0,34.2-15.3,34.2-34.2v-0.6H41.2z"/><path fill="#9E5739" d="M92.4,96.2H58.3c-9.5,0-17.2-7.7-17.2-17.2V58.2h68.4v20.8C109.6,88.5,101.9,96.2,92.4,96.2z"/><path fill="#9E5739" d="M88.1,70.2H62.6c-6.3,0-11.4-5.1-11.4-11.4v0c0-6.3,5.1-11.4,11.4-11.4h25.5c6.3,0,11.4,5.1,11.4,11.4v0	C99.4,65.1,94.3,70.2,88.1,70.2z"/><rect x="41.2" y="28" fill="#F5B7A4" width="68.4" height="16.4"/><g><path fill="#8E2F2A" d="M93.7,58.2c0,10.1-8.2,18.3-18.3,18.3h0c-10.1,0-18.3-8.2-18.3-18.3"/></g><path fill="#A53432" d="M75.3,66.4L75.3,66.4c-4.7,0-8.8,2.6-10.9,6.4c3.1,2.3,6.9,3.7,11,3.7h0c4.1,0,7.8-1.4,10.9-3.6	C84.1,69,80,66.4,75.3,66.4z"/><g><rect x="69.8" y="38.1" fill="#F3A28F" width="11.2" height="16.9"/></g><path fill="#9E5739" d="M106.5,28.5H88.6h-5.1H41.2c0-12.1,9.8-22,22-22h3.1h20.8h41.4C128.4,18.7,118.6,28.5,106.5,28.5z"/><g><circle fill="#E0988A" cx="56.8" cy="40.8" r="4.3"/></g><g><circle fill="#E0988A" cx="94" cy="40.8" r="4.3"/></g><path fill="#FFFFFF" d="M92.5,64.7c0.8-2,1.2-4.2,1.2-6.5H57.1c0,2.3,0.4,4.5,1.2,6.5H92.5z"/></svg>