<?xml version="1.0" encoding="utf-8"?><!DOCTYPE svg PUBLIC "-//W3C//DTD SVG 1.1//EN" "http://www.w3.org/Graphics/SVG/1.1/DTD/svg11.dtd"><svg version="1.1" id="Layer_1" xmlns="http://www.w3.org/2000/svg" xmlns:xlink="http://www.w3.org/1999/xlink" x="0px" y="0px" width="150px" height="150px" viewBox="0 0 150 150" enable-background="new 0 0 150 150" xml:space="preserve"><rect x="67" y="18.4" fill="#2D2D2D" width="16.4" height="43.2"/><path fill="#2D2D2D" d="M99.1,137.8V64.5c0-13.2-10.8-23.9-23.9-23.9h0c-13.2,0-23.9,10.8-23.9,23.9v73.3c0,2.5,2.1,4.6,4.6,4.6	h38.6C97.1,142.4,99.1,140.4,99.1,137.8z"/><rect x="65" y="5.8" fill="#963330" width="20.4" height="9.5"/><rect x="67" y="14.7" fill="#963330" width="16.4" height="7.9"/><rect x="58.1" y="73.7" fill="#FFFFFF" width="34.6" height="44.4"/><ellipse opacity="0.44" fill="#FFFFFF" cx="75.4" cy="51.1" rx="10.1" ry="6.4"/><path fill="#FFFFFF" d="M86.7,69.5c-2.4,4.3-3.9,9.5-3.9,15c0,15.5,11.2,28.2,25,28.2c13.8,0,25-12.6,25-28.2c0-5.5-1.4-10.7-3.9-15	H86.7z"/><circle fill="#872D3C" cx="36.7" cy="118.1" r="9.4"/><circle fill="#872D3C" cx="44.4" cy="102.9" r="9.4"/><circle fill="#9B354B" cx="41.1" cy="99.6" r="3.1"/><circle fill="#9B354B" cx="33.2" cy="115.5" r="3.1"/><circle fill="#75293D" cx="51" cy="118.1" r="9.4"/><path fill="#E5E5E5" d="M82.8,84.5c0,12.1,6.8,22.4,16.3,26.4V72.5c0-1-0.1-2-0.2-3H86.7C84.3,73.8,82.8,79,82.8,84.5z"/><rect x="105.3" y="102.3" fill="#FFFFFF" width="5.4" height="39.2"/><path fill="#FFFFFF" d="M122,142.3h-28c-1.4,0-2.5-1.1-2.5-2.5l0,0c0-1.4,1.1-2.5,2.5-2.5h28c1.4,0,2.5,1.1,2.5,2.5l0,0	C124.5,141.2,123.3,142.3,122,142.3z"/><circle fill="#75293D" cx="30.1" cy="133.3" r="9.4"/><path fill="#963330" d="M87.9,94.5c3.5,8.5,11.2,14.3,20,14.3c8.9,0,16.5-5.9,20-14.3H87.9z"/><circle fill="#75293D" cx="57.7" cy="133.3" r="9.4"/><path fill="#FFFFFF" d="M94.3,84.3L94.3,84.3c-3.1,0-5.6-2.5-5.6-5.6v0c0-3.1,2.5-5.6,5.6-5.6h0c3.1,0,5.6,2.5,5.6,5.6v0	C99.9,81.8,97.4,84.3,94.3,84.3z"/><circle fill="#872D3C" cx="44.4" cy="133.3" r="9.4"/><circle fill="#9B354B" cx="41.1" cy="130.6" r="3.1"/><circle fill="#822F48" cx="47.5" cy="115.5" r="3.1"/><circle fill="#822F48" cx="26.8" cy="130.6" r="3.1"/><rect x="67" y="15.4" fill="#842C2C" width="16.4" height="3"/></svg>