<?xml version="1.0" encoding="utf-8"?><!DOCTYPE svg PUBLIC "-//W3C//DTD SVG 1.1//EN" "http://www.w3.org/Graphics/SVG/1.1/DTD/svg11.dtd"><svg version="1.1" id="Layer_1" xmlns="http://www.w3.org/2000/svg" xmlns:xlink="http://www.w3.org/1999/xlink" x="0px" y="0px" width="150px" height="150px" viewBox="0 0 150 150" enable-background="new 0 0 150 150" xml:space="preserve"><polygon fill="#71B506" points="52,112.8 89.1,46.1 64.9,118.5"/><polygon fill="#71B506" points="94.7,119.4 92.5,28.4 108.8,118"/><polygon fill="#7AC70C" points="65.5,118.9 72.5,42.9 79.6,118.9"/><polygon fill="#7AC70C" points="52.2,118.9 59.3,28.4 66.4,118.9"/><polygon fill="#71B506" points="45.9,119.9 72.2,17.2 61.2,122.7"/><polygon fill="#7AC70C" points="46.5,119.4 36.1,29.3 60.4,116.7"/><polygon fill="#71B506" points="120.3,62.1 99.5,117.7 113.1,121.7 126.5,62.1"/><polygon fill="#7AC70C" points="92,118.9 99.9,34.3 107.8,118.9"/><polygon fill="#71B506" points="31,76.6 23.9,76.6 34.1,123.8 47.6,119.8"/><polygon fill="#7AC70C" points="111,131.5 35.4,131.5 31.8,113.6 115,113.6"/><polygon fill="#7AC70C" points="23.9,76.6 6,108.3 31.1,76.6"/><polygon fill="#71B506" points="88.2,68.8 72.2,35.1 82.8,75.2"/><polygon fill="#7AC70C" points="88.2,68.8 88.2,68.8 88.2,68.8 84.2,60.4 82.8,75.2 88.2,68.8 82.8,75.2 78.7,118.9 92.9,118.9"/><polygon fill="#7AC70C" points="126.3,62.1 120.4,62.1 120,63.2 144.2,93.7"/><polygon fill="#7AC70C" points="33.8,113.6 52.9,62.1 45.5,120.8"/><polygon fill="#7AC70C" points="115,113.6 110.4,73 106.5,122.7"/></svg>