<?xml version="1.0" encoding="utf-8"?><!DOCTYPE svg PUBLIC "-//W3C//DTD SVG 1.1//EN" "http://www.w3.org/Graphics/SVG/1.1/DTD/svg11.dtd"><svg version="1.1" id="Layer_1" xmlns="http://www.w3.org/2000/svg" xmlns:xlink="http://www.w3.org/1999/xlink" x="0px" y="0px" width="150px" height="150px" viewBox="0 0 150 150" enable-background="new 0 0 150 150" xml:space="preserve"><g><path fill="#00BDFF" d="M21.1,103.1c0-3,1.6-4.6,4.6-4.6h12.7V54.4c0-2.7,0.1-5.4,0.1-5.4h-0.2c0,0-1,2.1-3,4l-3.5,3.4 c-2.2,2-4.5,2-6.5-0.2L23.2,54c-2.1-2.1-2-4.5,0.1-6.6l14.1-13.6c1.8-1.6,3.5-2.4,5.8-2.4h4.7c3,0,4.6,1.7,4.6,4.7v62.4H65 c3,0,4.7,1.6,4.7,4.6v3.1c0,3.1-1.7,4.7-4.7,4.7H25.7c-3,0-4.6-1.6-4.6-4.7V103.1z"/><path fill="#00BDFF" d="M109.1,30.1c4.8,0,9.4,0.9,12,1.8c2.8,0.9,3.8,2.9,2.8,5.9l-1.3,3.7c-1,3.1-2.8,3.6-5.5,3 c-1.9-0.6-4-1.1-7.2-1.1c-12.9,0-19.4,10.6-21.4,22h0.2c2.6-3.2,8.3-6.3,16-6.3c15.1,0,24.6,11.6,24.6,25.5 c0,15-10.4,27.7-26.2,27.7c-16.6,0-30.7-13.9-30.7-37.3C72.4,53.4,84.5,30.1,109.1,30.1z M103.1,99.1c7.3,0,12-5.7,12-13.6 c0-8-4.9-14.6-15.2-14.6c-7.1,0-12.4,3.7-12.4,9.3C87.4,88.4,94,99.1,103.1,99.1z"/></g></svg>