<?xml version="1.0" encoding="utf-8"?><!DOCTYPE svg PUBLIC "-//W3C//DTD SVG 1.1//EN" "http://www.w3.org/Graphics/SVG/1.1/DTD/svg11.dtd"><svg version="1.1" id="Layer_1" xmlns="http://www.w3.org/2000/svg" xmlns:xlink="http://www.w3.org/1999/xlink" x="0px" y="0px" width="150px" height="150px" viewBox="0 0 150 150" enable-background="new 0 0 150 150" xml:space="preserve"><path fill="#444444" d="M18.9,131.6l-0.8-0.8c-3.4-3.4-3.4-8.8,0-12.2l38.4-38.4c3.4-3.4,8.8-3.4,12.2,0l0.8,0.8	c3.4,3.4,3.4,8.8,0,12.2l-38.4,38.4C27.7,135,22.2,135,18.9,131.6z"/><circle fill="#F0F0F0" cx="25.7" cy="124" r="3.7"/><circle fill="#444444" cx="86.8" cy="62.8" r="46.4"/><circle fill="#3D3D3D" cx="86.8" cy="62.8" r="35"/><path fill="#3A3A3A" d="M133.1,62.2c-0.3-25.1-20.6-45.4-45.8-45.7c-0.2,0-0.4-0.1-0.6-0.1c-3.2,0-5.7,2.6-5.7,5.7s2.6,5.7,5.7,5.7	c0,0,0,0,0.1,0c19.2,0,34.7,15.5,34.9,34.7c0,0,0,0.1,0,0.1c0,3.2,2.6,5.7,5.7,5.7c3.2,0,5.7-2.6,5.7-5.7	C133.2,62.5,133.2,62.4,133.1,62.2z"/><path fill="#515151" d="M86.9,97.7C86.8,97.7,86.8,97.7,86.9,97.7c-19.3,0-34.8-15.5-34.9-34.7c0,0,0-0.1,0-0.1	c0-3.2-2.6-5.7-5.7-5.7s-5.7,2.6-5.7,5.7c0,0.2,0,0.3,0,0.5c0.3,25.1,20.6,45.4,45.8,45.7c0.2,0,0.4,0.1,0.6,0.1	c3.2,0,5.7-2.6,5.7-5.7C92.6,100.3,90,97.7,86.9,97.7z"/><path fill="#444444" d="M87,85.5h-0.3c-1.4,0-2.5-1.1-2.5-2.5V39.9c0-1.4,1.1-2.5,2.5-2.5H87c1.4,0,2.5,1.1,2.5,2.5V83	C89.5,84.4,88.4,85.5,87,85.5z"/><path fill="#444444" d="M97.7,78.6h-0.3c-1.4,0-2.5-1.1-2.5-2.5V47.7c0-1.4,1.1-2.5,2.5-2.5h0.3c1.4,0,2.5,1.1,2.5,2.5v28.3	C100.2,77.5,99.1,78.6,97.7,78.6z"/><path fill="#444444" d="M108.3,73.1H108c-1.4,0-2.5-1.1-2.5-2.5V54.6c0-1.4,1.1-2.5,2.5-2.5h0.3c1.4,0,2.5,1.1,2.5,2.5v15.9	C110.9,71.9,109.7,73.1,108.3,73.1z"/><path fill="#444444" d="M76,45.2h0.3c1.4,0,2.5,1.1,2.5,2.5v28.3c0,1.4-1.1,2.5-2.5,2.5H76c-1.4,0-2.5-1.1-2.5-2.5V47.7	C73.5,46.3,74.6,45.2,76,45.2z"/><path fill="#444444" d="M65.3,50.7h0.3c1.4,0,2.5,1.1,2.5,2.5v15.9c0,1.4-1.1,2.5-2.5,2.5h-0.3c-1.4,0-2.5-1.1-2.5-2.5V53.2	C62.8,51.9,63.9,50.7,65.3,50.7z"/></svg>