<?xml version="1.0" encoding="utf-8"?><!DOCTYPE svg PUBLIC "-//W3C//DTD SVG 1.1//EN" "http://www.w3.org/Graphics/SVG/1.1/DTD/svg11.dtd"><svg version="1.1" id="Layer_1" xmlns="http://www.w3.org/2000/svg" xmlns:xlink="http://www.w3.org/1999/xlink" x="0px" y="0px" width="150px" height="150px" viewBox="0 0 150 150" enable-background="new 0 0 150 150" xml:space="preserve"><g><path fill="#009CF2" d="M69.2,32l-4.7,1.2c-0.7,0.2-1.7,0.3-2.3,0.3c-3.1,0-5.8-2.6-5.8-5.7c0-2.7,1.7-5,4.4-5.7l8.6-2.5 c2.5-0.7,4.4-1.1,6.3-1.1h0.2c3.7,0,6.6,3,6.6,6.6v49.1c0,3.7-3,6.6-6.6,6.6c-3.7,0-6.6-3-6.6-6.6V32z"/></g><g><path fill="#D33535" d="M92.7,100.1L110,85.9c7.6-6.2,10.5-9.6,10.5-14.6c0-5.1-3.4-7.9-8.2-7.9c-3.8,0-6.5,1.7-9.9,5.3 c-0.9,1-2.4,1.9-4.5,1.9c-3.4,0-6.1-2.7-6.1-6.1c0-1.5,0.6-3,1.6-4.2c4.9-5.7,10.6-9,19.8-9c12.6,0,21,7.4,21,18.8v0.2 c0,10.2-5.2,15.2-16,23.6l-9.9,7.7h21.2c3.2,0,5.8,2.6,5.8,5.8c0,3.2-2.6,5.7-5.8,5.7H96.4c-4.2,0-7.2-2.3-7.2-6.3 C89.2,104.2,90.4,101.9,92.7,100.1z"/></g><g><path fill="#FFCE00" d="M17.1,124.5c-1.2-1-2.3-2.9-2.3-4.8c0-3.5,3-6.4,6.4-6.4c1.9,0,3.2,0.8,4.3,1.7c3.5,3,7.1,4.5,11.9,4.5 c5,0,8.6-2.9,8.6-7.4v-0.2c0-5-4.4-7.7-11.9-7.7H32c-3.1,0-5.7-2.6-5.7-5.7c0-1.8,0.8-3.4,2.9-5.5L41,81H22.3 c-3.1,0-5.7-2.6-5.7-5.7s2.6-5.7,5.7-5.7H52c3.9,0,6.8,2.3,6.8,5.9c0,3.3-1.6,5.1-4,7.5L42.8,94.3c8.3,1.4,16.4,5.7,16.4,17v0.2 c0,11.5-8.4,19.9-21.9,19.9C28.6,131.5,22,128.8,17.1,124.5z"/></g></svg>