<?xml version="1.0" encoding="utf-8"?><!DOCTYPE svg PUBLIC "-//W3C//DTD SVG 1.1//EN" "http://www.w3.org/Graphics/SVG/1.1/DTD/svg11.dtd"><svg version="1.1" id="Layer_1" xmlns="http://www.w3.org/2000/svg" xmlns:xlink="http://www.w3.org/1999/xlink" x="0px" y="0px" width="150px" height="150px" viewBox="0 0 150 150" enable-background="new 0 0 150 150" xml:space="preserve"><path fill="#D6D6D6" d="M96.1,114.7c-0.8,0.2-1.6,0.7-2.2,1.7c-0.4,0.7-0.6,1.4-0.8,2.1c0,0-0.1,0.1-0.1,0.1	c-0.6,0.2,7.2,3.3,6.7,3.8c-2.2,0.1-1.6-1-0.7,1.7c0,0.1,0.1,0.2,0.1,0.2H32.5c0,0,0,0,0,0c-0.1,0-0.2,0-0.3,0	c-6.1,0-11.1-5-11.1-11.1V110c0,0,0,0,0,0v-5.2h78.2v7.8C98,112.6,96.7,113.3,96.1,114.7z"/><path fill="#FFFFFF" d="M109,30.3L109,30.3l-0.5,0c0,0,0-0.1,0-0.1H52.9c0,0,0,0,0,0c-0.1,0-0.2,0-0.3,0c-6.1,0-11.1,5-11.1,11.1	v3.4c0,0,0,0,0,0v2.9c0,0-0.1,0-0.1,0v57.2h45.4v8.6c0,6.1,5,11.1,11.1,11.1s11.1-5,11.1-11.1v-8.6h0V50h19.4v-8.6L109,30.3z"/><path fill="#D6D6D6" d="M109.1,30.2h8.3l0,0c6.1,0,11,5,11,11.1V50H109"/><path fill="#FFFFFF" d="M109,37c0-3.7,3-6.7,6.7-6.8h-10.6L109,37z"/><path fill="#D6D6D6" d="M93,52.2H52.5c-1.7,0-3-1.4-3-3v0c0-1.7,1.4-3,3-3H93c1.7,0,3,1.4,3,3v0C96,50.9,94.7,52.2,93,52.2z"/><path fill="#D6D6D6" d="M76.2,68.4H52.5c-1.7,0-3-1.4-3-3v0c0-1.7,1.4-3,3-3h23.8c1.7,0,3,1.4,3,3v0C79.3,67,77.9,68.4,76.2,68.4z"/><path fill="#D6D6D6" d="M86.7,84.6H52.5c-1.7,0-3-1.4-3-3v0c0-1.7,1.4-3,3-3h34.3c1.7,0,3,1.4,3,3v0C89.8,83.2,88.4,84.6,86.7,84.6z"/></svg>