<?xml version="1.0" encoding="utf-8"?><!DOCTYPE svg PUBLIC "-//W3C//DTD SVG 1.1//EN" "http://www.w3.org/Graphics/SVG/1.1/DTD/svg11.dtd"><svg version="1.1" id="Layer_1" xmlns="http://www.w3.org/2000/svg" xmlns:xlink="http://www.w3.org/1999/xlink" x="0px" y="0px" width="150px" height="150px" viewBox="0 0 150 150" enable-background="new 0 0 150 150" xml:space="preserve"><path fill="#FFC200" d="M94.1,44h-38C49.5,44,44,38.6,44,32v0c0-6.6,5.4-12.1,12.1-12.1h38c6.6,0,12.1,5.4,12.1,12.1v0	C106.2,38.6,100.7,44,94.1,44z"/><rect x="-2.6" y="52.2" transform="matrix(0.7071 -0.7071 0.7071 0.7071 -33.7647 45.7631)" fill="#FFC200" width="81.9" height="22.9"/><rect x="70.2" y="52.2" transform="matrix(-0.7071 -0.7071 0.7071 -0.7071 144.7597 187.2397)" fill="#FFC200" width="81.9" height="22.9"/><path fill="#FFC200" d="M111.2,130.8H38.4V62.4C38.4,42.3,54.7,26,74.8,26h0c20.1,0,36.4,16.3,36.4,36.4V130.8z"/><polygon fill="#E2A700" points="88,38.8 75.2,53.9 62.4,38.8"/><circle fill="#282828" cx="75.1" cy="93.3" r="2.9"/><circle fill="#282828" cx="75.1" cy="115.8" r="2.9"/><circle fill="#282828" cx="75.1" cy="70.8" r="2.9"/><path fill="#FFFFFF" d="M58.7,63.9L58.7,63.9c-0.8,0-1.4-0.6-1.4-1.4V45.1c0-0.8,0.6-1.4,1.4-1.4h0c0.8,0,1.4,0.6,1.4,1.4v17.4	C60.1,63.2,59.4,63.9,58.7,63.9z"/><path fill="#FFFFFF" d="M58.7,66.3L58.7,66.3c-1.3,0-2.4-1.1-2.4-2.4v-1.7c0-1.3,1.1-2.4,2.4-2.4h0c1.3,0,2.4,1.1,2.4,2.4v1.7	C61,65.2,60,66.3,58.7,66.3z"/><path fill="#FFFFFF" d="M91.5,66.3L91.5,66.3c-1.3,0-2.4-1.1-2.4-2.4v-1.7c0-1.3,1.1-2.4,2.4-2.4l0,0c1.3,0,2.4,1.1,2.4,2.4v1.7	C93.9,65.2,92.9,66.3,91.5,66.3z"/><path fill="#FFFFFF" d="M91.5,63.9L91.5,63.9c-0.8,0-1.4-0.6-1.4-1.4V45.1c0-0.8,0.6-1.4,1.4-1.4l0,0c0.8,0,1.4,0.6,1.4,1.4v17.4	C93,63.2,92.3,63.9,91.5,63.9z"/><path fill="#E2A700" d="M91.8,39H58.4c-5.2,0-9.5-4.3-9.5-9.5v0c0-5.2,4.3-9.5,9.5-9.5h33.3c5.2,0,9.5,4.3,9.5,9.5v0	C101.3,34.7,97,39,91.8,39z"/><path fill="#FFDA00" d="M26.4,69.6L26.4,69.6c-1-1-1-2.6,0-3.7L41.3,51c1-1,2.6-1,3.7,0l0,0c1,1,1,2.6,0,3.7L30,69.6	C29,70.6,27.4,70.6,26.4,69.6z"/><path fill="#FFDA00" d="M123.9,69.6L123.9,69.6c-1,1-2.6,1-3.7,0l-14.9-14.9c-1-1-1-2.6,0-3.7l0,0c1-1,2.6-1,3.7,0L123.9,66	C124.9,67,124.9,68.6,123.9,69.6z"/><path fill="#E2A700" d="M63.1,108.8H46c-1.2,0-2.2-1-2.2-2.2v-3.2c0-1.2,1-2.2,2.2-2.2h17.1c1.2,0,2.2,1,2.2,2.2v3.2	C65.3,107.8,64.3,108.8,63.1,108.8z"/><path fill="#E2A700" d="M17.2,92.4L5.2,80.4c-0.8-0.8-0.8-2.2,0-3L7.4,75c0.8-0.8,2.2-0.8,3,0l12.1,12.1c0.8,0.8,0.8,2.2,0,3	l-2.3,2.3C19.4,93.3,18.1,93.3,17.2,92.4z"/><path fill="#E2A700" d="M127.3,87.1L139.4,75c0.8-0.8,2.2-0.8,3,0l2.3,2.3c0.8,0.8,0.8,2.2,0,3l-12.1,12.1c-0.8,0.8-2.2,0.8-3,0	l-2.3-2.3C126.4,89.3,126.4,88,127.3,87.1z"/><path fill="#E2A700" d="M104.4,108.8H87.4c-1.2,0-2.2-1-2.2-2.2v-3.2c0-1.2,1-2.2,2.2-2.2h17.1c1.2,0,2.2,1,2.2,2.2v3.2	C106.6,107.8,105.6,108.8,104.4,108.8z"/></svg>