<?xml version="1.0" encoding="utf-8"?><!DOCTYPE svg PUBLIC "-//W3C//DTD SVG 1.1//EN" "http://www.w3.org/Graphics/SVG/1.1/DTD/svg11.dtd"><svg version="1.1" id="Layer_1" xmlns="http://www.w3.org/2000/svg" xmlns:xlink="http://www.w3.org/1999/xlink" x="0px" y="0px" width="150px" height="150px" viewBox="0 0 150 150" enable-background="new 0 0 150 150" xml:space="preserve"><path fill="#999999" d="M67.2,125.1h13.5c2.4,0,4.4-2,4.4-4.4v-29c0-2.4-2-4.4-4.4-4.4H67.2c-2.4,0-4.4,2-4.4,4.4v29	C62.8,123.1,64.8,125.1,67.2,125.1z"/><path fill="#999999" d="M81.9,99.6H5.6c-1.8,0-3.3-1.5-3.3-3.3l0-25.5c0-22.9,18.6-41.5,41.5-41.5h0c22.9,0,41.5,18.6,41.5,41.5	v25.5C85.2,98.1,83.7,99.6,81.9,99.6z"/><path fill="#999999" d="M89.6,87.2H41.5c-7.8,0-14.1-6.3-14.1-14.1V50.6c0-11.7,9.5-21.3,21.3-21.3h24.9c16.7,0,30.2,13.5,30.2,30.2	v13.6C103.7,80.9,97.4,87.2,89.6,87.2z"/><path fill="#999999" d="M52.4,104.8H35.1c-11.9,0-21.6-9.7-21.6-21.6v0c0-11.9,9.7-21.6,21.6-21.6h17.3c11.9,0,21.6,9.7,21.6,21.6v0	C74,95.1,64.3,104.8,52.4,104.8z"/><path fill="none" stroke="#999999" stroke-width="14.4697" stroke-linecap="round" stroke-linejoin="round" stroke-miterlimit="10" d="M140.4,78.6v5.9c0,6.6-5.4,12-12,12h0c-6.6,0-12-5.4-12-12V53.6"/><path fill="#999999" d="M6.7,125.1h13.5c2.4,0,4.4-2,4.4-4.4v-29c0-2.4-2-4.4-4.4-4.4H6.7c-2.4,0-4.4,2-4.4,4.4v29	C2.3,123.1,4.2,125.1,6.7,125.1z"/><path fill="#999999" d="M103,87.2H77c-7.8,0-14.2-6.4-14.2-14.2l0-29.5c0-7.8,6.4-14.2,14.2-14.2h26c7.8,0,14.2,6.4,14.2,14.2V73	C117.1,80.9,110.8,87.2,103,87.2z"/><path fill="#FFFFFF" d="M116.4,102.4L116.4,102.4c-2.3,2.3-6.1,2.3-8.4,0L89.5,83.8c-2.3-2.3-2.3-6.1,0-8.4l0,0	c2.3-2.3,6.1-2.3,8.4,0l18.6,18.6C118.7,96.4,118.7,100.1,116.4,102.4z"/><circle fill="#686868" cx="105.5" cy="66" r="3.8"/><path fill="#999999" d="M107.1,84.7L95.6,96.3c-0.9,0.9-2.5,0.9-3.4,0L75.8,79.9c-0.9-0.9-0.9-2.5,0-3.4l11.6-11.6	c0.9-0.9,2.5-0.9,3.4,0l16.4,16.4C108.1,82.2,108.1,83.8,107.1,84.7z"/><path fill="#848484" d="M71.7,72.3L47.2,44.3C40.9,37,46,25.7,55.6,25.6l24.5-0.2c6.2-0.1,11.3,5,11.3,11.2v28.3	C91.4,75.3,78.5,80.1,71.7,72.3z"/><path fill="#848484" d="M123.7,63.2H118c-1.6,0-2.9-1.3-2.9-2.9v0c0-1.6,1.3-2.9,2.9-2.9h5.7"/><path fill="#848484" d="M123.7,73.7H118c-1.6,0-2.9-1.3-2.9-2.9v0c0-1.6,1.3-2.9,2.9-2.9h5.7"/><path fill="#848484" d="M123.7,84.1H118c-1.6,0-2.9-1.3-2.9-2.9l0,0c0-1.6,1.3-2.9,2.9-2.9h5.7"/><path fill="#C6C6C6" d="M72.1,125.1v-2.5c0-2.4,2-4.4,4.4-4.4h0c2.4,0,4.4,2,4.4,4.4v2.5"/><path fill="#C6C6C6" d="M85.2,121.6v-3.3c-2.4,0-4.4,2-4.4,4.4v2.5h0.8C83.6,125.1,85.2,123.5,85.2,121.6z"/><path fill="#C6C6C6" d="M11.5,125.1l0-2.5c0-2.4,2-4.4,4.4-4.4h0c2.4,0,4.4,2,4.4,4.4v2.5"/><path fill="#C6C6C6" d="M24.7,121.6v-3.3c-2.4,0-4.4,2-4.4,4.4v2.5h0.8C23.1,125.1,24.7,123.5,24.7,121.6z"/><path fill="#848484" d="M85.2,110.5h-5.7c-1.6,0-2.9-1.3-2.9-2.9v0c0-1.6,1.3-2.9,2.9-2.9h5.7"/><path fill="#848484" d="M24.6,110.5h-5.7c-1.6,0-2.9-1.3-2.9-2.9v0c0-1.6,1.3-2.9,2.9-2.9h5.7"/></svg>