<?xml version="1.0" encoding="utf-8"?><!DOCTYPE svg PUBLIC "-//W3C//DTD SVG 1.1//EN" "http://www.w3.org/Graphics/SVG/1.1/DTD/svg11.dtd"><svg version="1.1" id="Layer_1" xmlns="http://www.w3.org/2000/svg" xmlns:xlink="http://www.w3.org/1999/xlink" x="0px" y="0px" width="150px" height="150px" viewBox="0 0 150 150" enable-background="new 0 0 150 150" xml:space="preserve"><path fill="#3B1E18" d="M83.3,87.6V84v-2.9V57.1c-7.2,0-13.1,5.6-13.1,12.5v1.8v11.8v16.9C77.5,100.1,83.3,94.5,83.3,87.6z"/><rect x="69.3" y="118.7" fill="#6D3DA0" width="68.2" height="10.2"/><path fill="#FFAA00" d="M104,94.4L104,94.4c-11.5,0-20.9-9.4-20.9-20.9V62.5c0-11.5,9.4-20.9,20.9-20.9h0c11.5,0,20.9,9.4,20.9,20.9	v10.9C124.9,85,115.5,94.4,104,94.4z"/><path fill="#6D3DA0" d="M76.1,128.9v-4.6c0-14.8,12.6-26.8,28-26.8h0c15.5,0,28,12,28,26.8v4.6"/><path fill="#9054D1" d="M63.9,127L63.9,127c-3.2-3.1-3.2-8.1,0-11.1l13.2-12.6c2.9-2.8,7.7-2.8,10.6,0l0,0c3.2,3.1,3.2,8.1,0,11.1	L74.6,127C71.6,129.8,66.9,129.8,63.9,127z"/><path fill="#9054D1" d="M142.7,127L142.7,127c-2.9,2.8-7.7,2.8-10.6,0l-13.2-12.6c-3.2-3.1-3.2-8.1,0-11.1l0,0	c2.9-2.8,7.7-2.8,10.6,0l13.2,12.6C146,118.9,146,123.9,142.7,127z"/><path fill="#FFAA00" d="M118.6,121.5L118.6,121.5c3.5,0,6.3-2.8,6.3-6.3V78.8c0-3.5-2.8-6.3-6.3-6.3h0c-3.5,0-6.3,2.8-6.3,6.3v36.4	C112.2,118.7,115.1,121.5,118.6,121.5z"/><path fill="#FFAA00" d="M89.6,121.5L89.6,121.5c-3.5,0-6.3-2.8-6.3-6.3V78.8c0-3.5,2.8-6.3,6.3-6.3h0c3.5,0,6.3,2.8,6.3,6.3v36.4	C96,118.7,93.1,121.5,89.6,121.5z"/><path fill="#C67458" d="M104.1,85.2c-4.5,0-8.1,3.2-8.1,7v8.4c0,3.9,3.7,7,8.1,7c4.5,0,8.1-3.2,8.1-7v-8.4	C112.2,88.4,108.6,85.2,104.1,85.2z"/><g><ellipse fill="#C67458" cx="82.4" cy="74.8" rx="5.4" ry="4.9"/></g><g><ellipse fill="#C67458" cx="126" cy="74.8" rx="5.4" ry="4.9"/></g><g><path fill="#D88868" d="M104.2,100.4L104.2,100.4c-12,0-21.8-9.8-21.8-21.8v-7.8c0-12,9.8-21.8,21.8-21.8h0 c12,0,21.8,9.8,21.8,21.8v7.8C126,90.6,116.3,100.4,104.2,100.4z"/></g><g opacity="0.68"><path fill="#B2473B" d="M115.7,79.9c0,6-5.1,10.9-11.4,10.9l0,0c-6.3,0-11.4-4.9-11.4-10.9H115.7z"/></g><g><path fill="#F2F2F2" d="M93.5,83.4h21.6c0.4-1.1,0.6-2.3,0.6-3.5H92.9C92.9,81.1,93.1,82.3,93.5,83.4z"/></g><g><ellipse fill="#A85F48" cx="116.1" cy="69.2" rx="2.7" ry="2.6"/></g><g><rect x="100.7" y="67.3" fill="#C67458" width="7.2" height="10"/></g><g><path fill="#B2473B" d="M110.7,88.9c-1.5-1.7-3.8-2.8-6.3-2.8l0,0c-2.6,0-4.8,1.1-6.4,2.8c1.8,1.2,4,1.8,6.3,1.8 C106.6,90.8,108.8,90.1,110.7,88.9z"/></g><ellipse fill="#C67458" cx="90.7" cy="32.1" rx="4.1" ry="3.9"/><ellipse fill="#C67458" cx="117.9" cy="32.1" rx="4.1" ry="3.9"/><path fill="#D88868" d="M104.3,48.6L104.3,48.6c-7.5,0-13.6-6.1-13.6-13.6v-9.8c0-7.5,6.1-13.6,13.6-13.6h0	c7.5,0,13.6,6.1,13.6,13.6v9.8C117.9,42.5,111.8,48.6,104.3,48.6z"/><ellipse fill="#A85F48" cx="96.2" cy="28.6" rx="2.2" ry="2"/><ellipse fill="#A85F48" cx="112.2" cy="28.6" rx="2.2" ry="2"/><rect x="101.6" y="26.7" fill="#C67458" width="5.8" height="4.8"/><path fill="#AA403D" d="M95,34.2c0,4.6,4.2,8.3,9.3,8.3c5.2,0,9.3-3.7,9.3-8.3"/><path fill="#D88868" d="M96.4,106.3H82c-1.4,0-2.5-1.1-2.5-2.5l0,0c0-1.4,1.1-2.5,2.5-2.5h14.4c1.4,0,2.5,1.1,2.5,2.5l0,0	C98.9,105.1,97.8,106.3,96.4,106.3z"/><path fill="#D88868" d="M96.4,110.6H82c-1.4,0-2.5-1.1-2.5-2.5v0c0-1.4,1.1-2.5,2.5-2.5h14.4c1.4,0,2.5,1.1,2.5,2.5v0	C98.9,109.5,97.8,110.6,96.4,110.6z"/><path fill="#D88868" d="M96.4,115.5H82c-1.4,0-2.5-1.1-2.5-2.5l0,0c0-1.4,1.1-2.5,2.5-2.5h14.4c1.4,0,2.5,1.1,2.5,2.5l0,0	C98.9,114.4,97.8,115.5,96.4,115.5z"/><path fill="#D88868" d="M124.8,106.3h-12.5c-1.4,0-2.5-1.1-2.5-2.5l0,0c0-1.4,1.1-2.5,2.5-2.5h12.5c1.4,0,2.5,1.1,2.5,2.5l0,0	C127.2,105.1,126.1,106.3,124.8,106.3z"/><path fill="#D88868" d="M124.8,110.6h-12.5c-1.4,0-2.5-1.1-2.5-2.5v0c0-1.4,1.1-2.5,2.5-2.5h12.5c1.4,0,2.5,1.1,2.5,2.5v0	C127.2,109.5,126.1,110.6,124.8,110.6z"/><path fill="#D88868" d="M124.8,115.5h-12.5c-1.4,0-2.5-1.1-2.5-2.5l0,0c0-1.4,1.1-2.5,2.5-2.5h12.5c1.4,0,2.5,1.1,2.5,2.5l0,0	C127.2,114.4,126.1,115.5,124.8,115.5z"/><rect x="79.6" y="103.4" fill="#D88868" width="6.5" height="9.8"/><rect x="120.8" y="103.8" fill="#D88868" width="6.5" height="9.4"/><g><path fill="#A85F48" d="M95.1,69.3c0,1.4-1.3,2.6-2.8,2.5c-1.5,0-2.7-1.2-2.6-2.7c0-1.4,1.3-2.6,2.8-2.5 C93.9,66.6,95.1,67.8,95.1,69.3z"/></g><path fill="#4C261F" d="M100.5,57.8v8.8h26c0-11.9-10.1-21.5-22.5-21.5s-22.5,9.6-22.5,21.5h11.8L100.5,57.8z"/><path fill="none" stroke="#5B332D" stroke-width="1.9674" stroke-linecap="round" stroke-linejoin="round" stroke-miterlimit="10" d="M104.8,18.3c-1.8,0-3.2-1.4-3.2-3.1s1.4-3.1,3.2-3.1"/><path fill="none" stroke="#5B332D" stroke-width="1.9674" stroke-linecap="round" stroke-linejoin="round" stroke-miterlimit="10" d="M104.7,12.2c1.8,0,3.2,1.4,3.2,3.1"/><rect x="10.4" y="118.7" fill="#00AAFF" width="68.2" height="10.2"/><path fill="#FFAA00" d="M45.1,94.4L45.1,94.4c-11.5,0-20.9-9.4-20.9-20.9V62.5c0-11.5,9.4-20.9,20.9-20.9h0C56.6,41.6,66,51,66,62.5	v10.9C66,85,56.6,94.4,45.1,94.4z"/><path fill="#00AAFF" d="M17.2,128.9v-4.6c0-14.8,12.6-26.8,28-26.8h0c15.5,0,28,12,28,26.8v4.6"/><path fill="#00BDFF" d="M5.1,127L5.1,127c-3.2-3.1-3.2-8.1,0-11.1l13.2-12.6c2.9-2.8,7.7-2.8,10.6,0l0,0c3.2,3.1,3.2,8.1,0,11.1	L15.7,127C12.8,129.8,8,129.8,5.1,127z"/><path fill="#00BDFF" d="M83.9,127L83.9,127c-2.9,2.8-7.7,2.8-10.6,0l-13.2-12.6c-3.2-3.1-3.2-8.1,0-11.1l0,0c2.9-2.8,7.7-2.8,10.6,0	l13.2,12.6C87.1,118.9,87.1,123.9,83.9,127z"/><path fill="#934A3A" d="M67.5,69.9H23.3c-3.5,0-6.3-2.8-6.3-6.3v0c0-3.5,2.8-6.3,6.3-6.3h44.2c3.5,0,6.3,2.8,6.3,6.3v0	C73.8,67.1,71,69.9,67.5,69.9z"/><path fill="#934A3A" d="M76.3,68.6L76.3,68.6c0,4.9-4.2,8.9-9.3,8.9H23.4c-5.1,0-9.3-4-9.3-8.9v0"/><path fill="#FFAA00" d="M59.7,121.5L59.7,121.5c3.5,0,6.3-2.8,6.3-6.3V78.8c0-3.5-2.8-6.3-6.3-6.3h0c-3.5,0-6.3,2.8-6.3,6.3v36.4	C53.4,118.7,56.2,121.5,59.7,121.5z"/><path fill="#FFAA00" d="M30.8,121.5L30.8,121.5c-3.5,0-6.3-2.8-6.3-6.3V78.8c0-3.5,2.8-6.3,6.3-6.3h0c3.5,0,6.3,2.8,6.3,6.3v36.4	C37.1,118.7,34.3,121.5,30.8,121.5z"/><path fill="#FF9D8A" d="M45.2,85.2c-4.5,0-8.1,3.2-8.1,7v8.4c0,3.9,3.7,7,8.1,7s8.1-3.2,8.1-7v-8.4C53.4,88.4,49.7,85.2,45.2,85.2z"/><g><ellipse fill="#FF9D8A" cx="23.6" cy="74.8" rx="5.4" ry="4.9"/></g><g><ellipse fill="#FF9D8A" cx="67.2" cy="74.8" rx="5.4" ry="4.9"/></g><g><path fill="#FFB5A1" d="M45.4,100.4L45.4,100.4c-12,0-21.8-9.8-21.8-21.8v-7.8c0-12,9.8-21.8,21.8-21.8h0c12,0,21.8,9.8,21.8,21.8 v7.8C67.2,90.6,57.4,100.4,45.4,100.4z"/></g><path fill="#934A3A" d="M30.4,79.9c0-4.1,3.5-7.4,7.8-7.4s7.8,3.3,7.8,7.4"/><path fill="#934A3A" d="M64.5,76.4c0,1.9-1.6,3.5-3.6,3.5c-2,0-3.6-1.6-3.6-3.5"/><path fill="#934A3A" d="M34.1,76.4c0,1.9-1.6,3.5-3.6,3.5s-3.6-1.6-3.6-3.5"/><path fill="#934A3A" d="M45.3,79.9c0-4.1,3.5-7.4,7.8-7.4s7.8,3.3,7.8,7.4"/><g opacity="0.68"><path fill="#B2473B" d="M56.8,79.9c0,6-5.1,10.9-11.4,10.9l0,0c-6.3,0-11.4-4.9-11.4-10.9H56.8z"/></g><g><path fill="#F2F2F2" d="M34.6,83.4h21.6c0.4-1.1,0.6-2.3,0.6-3.5H34C34,81.1,34.2,82.3,34.6,83.4z"/></g><g><ellipse fill="#EA9486" cx="33.5" cy="68.6" rx="2.7" ry="2.6"/></g><g><ellipse fill="#EA9486" cx="57.2" cy="68.6" rx="2.7" ry="2.6"/></g><g><rect x="41.9" y="67.5" fill="#FF9D8A" width="7.2" height="10.5"/></g><g><path fill="#B2473B" d="M51.8,88.9c-1.5-1.7-3.8-2.8-6.3-2.8l0,0c-2.6,0-4.8,1.1-6.4,2.8c1.8,1.2,4,1.8,6.3,1.8 C47.8,90.8,50,90.1,51.8,88.9z"/></g><ellipse fill="#C67458" cx="31.9" cy="32.1" rx="4.1" ry="3.9"/><ellipse fill="#C67458" cx="59" cy="32.1" rx="4.1" ry="3.9"/><path fill="#D88868" d="M45.4,48.6L45.4,48.6c-7.5,0-13.6-6.1-13.6-13.6v-9.8c0-7.5,6.1-13.6,13.6-13.6h0c7.5,0,13.6,6.1,13.6,13.6	v9.8C59,42.5,52.9,48.6,45.4,48.6z"/><ellipse fill="#A85F48" cx="37.3" cy="28.6" rx="2.2" ry="2"/><ellipse fill="#A85F48" cx="53.4" cy="28.6" rx="2.2" ry="2"/><rect x="42.7" y="26.7" fill="#C67458" width="5.8" height="4.8"/><path fill="#AA403D" d="M36.1,34.2c0,4.6,4.2,8.3,9.3,8.3s9.3-3.7,9.3-8.3"/><path fill="#FFB5A1" d="M37.5,106.3H23.2c-1.4,0-2.5-1.1-2.5-2.5l0,0c0-1.4,1.1-2.5,2.5-2.5h14.4c1.4,0,2.5,1.1,2.5,2.5l0,0	C40,105.1,38.9,106.3,37.5,106.3z"/><path fill="#FFB5A1" d="M37.5,110.6H23.2c-1.4,0-2.5-1.1-2.5-2.5v0c0-1.4,1.1-2.5,2.5-2.5h14.4c1.4,0,2.5,1.1,2.5,2.5v0	C40,109.5,38.9,110.6,37.5,110.6z"/><path fill="#FFB5A1" d="M37.5,115.5H23.2c-1.4,0-2.5-1.1-2.5-2.5l0,0c0-1.4,1.1-2.5,2.5-2.5h14.4c1.4,0,2.5,1.1,2.5,2.5l0,0	C40,114.4,38.9,115.5,37.5,115.5z"/><path fill="#FFB5A1" d="M65.9,106.3H53.4c-1.4,0-2.5-1.1-2.5-2.5l0,0c0-1.4,1.1-2.5,2.5-2.5h12.5c1.4,0,2.5,1.1,2.5,2.5l0,0	C68.4,105.1,67.2,106.3,65.9,106.3z"/><path fill="#FFB5A1" d="M65.9,110.6H53.4c-1.4,0-2.5-1.1-2.5-2.5v0c0-1.4,1.1-2.5,2.5-2.5h12.5c1.4,0,2.5,1.1,2.5,2.5v0	C68.4,109.5,67.2,110.6,65.9,110.6z"/><path fill="#FFB5A1" d="M65.9,115.5H53.4c-1.4,0-2.5-1.1-2.5-2.5l0,0c0-1.4,1.1-2.5,2.5-2.5h12.5c1.4,0,2.5,1.1,2.5,2.5l0,0	C68.4,114.4,67.2,115.5,65.9,115.5z"/><rect x="20.7" y="103.4" fill="#FFB5A1" width="6.5" height="9.8"/><rect x="61.9" y="103.8" fill="#FFB5A1" width="6.5" height="9.4"/><path fill="none" stroke="#5B332D" stroke-width="1.9674" stroke-linecap="round" stroke-linejoin="round" stroke-miterlimit="10" d="M45.2,18.3c-1.8,0-3.2-1.4-3.2-3.1s1.4-3.1,3.2-3.1"/><path fill="none" stroke="#5B332D" stroke-width="1.9674" stroke-linecap="round" stroke-linejoin="round" stroke-miterlimit="10" d="M45.2,12.2c1.8,0,3.2,1.4,3.2,3.1"/><path fill="#FFCFC0" d="M48.4,57.1h-5.5c-0.8,0-1.5-0.7-1.5-1.5v0c0-0.8,0.7-1.5,1.5-1.5h5.5c0.8,0,1.5,0.7,1.5,1.5v0	C49.9,56.4,49.2,57.1,48.4,57.1z"/></svg>