<?xml version="1.0" encoding="utf-8"?><!DOCTYPE svg PUBLIC "-//W3C//DTD SVG 1.1//EN" "http://www.w3.org/Graphics/SVG/1.1/DTD/svg11.dtd"><svg version="1.1" id="Layer_1" xmlns="http://www.w3.org/2000/svg" xmlns:xlink="http://www.w3.org/1999/xlink" x="0px" y="0px" width="150px" height="150px" viewBox="0 0 150 150" enable-background="new 0 0 150 150" xml:space="preserve"><path fill="#AAAAAA" d="M89.2,95.9h54.2c0-11.2-6.7-20.7-16.4-24.9c0.2-1.7,0.3-3.4,0.3-5.1c0-24-19.5-43.5-43.5-43.5	c-21.6,0-39.4,15.7-42.9,36.3c-1.1-0.1-2.3-0.2-3.5-0.2c-17,0-30.8,13.8-30.8,30.8c0,2.3,0.3,4.6,0.7,6.7H89.2z"/><g><path fill="#777777" d="M65.1,80.2c0-9.7,7.9-17.6,17.6-17.6l0,0c9.7,0,17.6,7.9,17.6,17.6H65.1z"/></g><g><path fill="#939393" d="M109.6,52.3c0,3.3-2.6,5.9-5.9,5.9c-3.3,0-5.9-2.6-5.9-5.9"/></g><g><path fill="#939393" d="M67.8,52.3c0,3.3-2.6,5.9-5.9,5.9c-3.3,0-5.9-2.6-5.9-5.9"/></g><g><path fill="#1CB0F6" d="M8.6,128.2c-0.6,0-1.3-0.2-1.9-0.6c-1.5-1-1.8-3.1-0.8-4.5l17-18.9c1-1.5,3.1-1.8,4.5-0.8 c1.5,1,1.8,3.1,0.8,4.5l-17,18.9C10.7,127.7,9.7,128.2,8.6,128.2z"/></g><g><path fill="#1CB0F6" d="M29.7,128.2c-0.6,0-1.3-0.2-1.9-0.6c-1.5-1-1.8-3.1-0.8-4.5l17-18.9c1-1.5,3.1-1.8,4.5-0.8 c1.5,1,1.8,3.1,0.8,4.5l-17,18.9C31.7,127.7,30.7,128.2,29.7,128.2z"/></g><g><path fill="#1CB0F6" d="M49.4,128.2c-0.6,0-1.3-0.2-1.9-0.6c-1.5-1-1.8-3.1-0.8-4.5l17-18.9c1-1.5,3.1-1.8,4.5-0.8 c1.5,1,1.8,3.1,0.8,4.5l-17,18.9C51.4,127.7,50.4,128.2,49.4,128.2z"/></g><g><path fill="#1CB0F6" d="M70.4,128.2c-0.6,0-1.3-0.2-1.9-0.6c-1.5-1-1.8-3.1-0.8-4.5l17-18.9c1-1.5,3.1-1.8,4.5-0.8 c1.5,1,1.8,3.1,0.8,4.5l-17,18.9C72.5,127.7,71.4,128.2,70.4,128.2z"/></g><g><path fill="#1CB0F6" d="M91.5,128.2c-0.6,0-1.3-0.2-1.9-0.6c-1.5-1-1.8-3.1-0.8-4.5l17-18.9c1-1.5,3.1-1.8,4.5-0.8 c1.5,1,1.8,3.1,0.8,4.5l-17,18.9C93.5,127.7,92.5,128.2,91.5,128.2z"/></g><g><path fill="#1CB0F6" d="M112.5,128.2c-0.6,0-1.3-0.2-1.9-0.6c-1.5-1-1.8-3.1-0.8-4.5l17-18.9c1-1.5,3.1-1.8,4.5-0.8 c1.5,1,1.8,3.1,0.8,4.5l-17,18.9C114.5,127.7,113.5,128.2,112.5,128.2z"/></g></svg>