<?xml version="1.0" encoding="utf-8"?><!DOCTYPE svg PUBLIC "-//W3C//DTD SVG 1.1//EN" "http://www.w3.org/Graphics/SVG/1.1/DTD/svg11.dtd"><svg version="1.1" id="Layer_1" xmlns="http://www.w3.org/2000/svg" xmlns:xlink="http://www.w3.org/1999/xlink" x="0px" y="0px" width="150px" height="150px" viewBox="0 0 150 150" enable-background="new 0 0 150 150" xml:space="preserve"><path fill="#1CB0F6" d="M53.9,51.1v15.4c0,4.9-4,8.9-8.9,8.9s-8.9-4-8.9-8.9V51.1H53.9z"/><path fill="#1CB0F6" d="M114.1,51.1v15.4c0,4.9-4,8.9-8.9,8.9s-8.9-4-8.9-8.9V51.1H114.1z"/><path fill="#FFFFFF" d="M145.4,83.1l0-6.5L89.6,53.7V15.3c0-7.9-6.5-14.4-14.4-14.4h0c-7.9,0-14.4,6.5-14.4,14.4v38.5L4.9,76.6	l0,6.5h19.4v5.5c0,1.6,1.3,3,3,3s3-1.3,3-3v-5.5h10.8v5.5c0,1.6,1.3,3,3,3c1.6,0,3-1.3,3-3v-5.5h13.9V110c0,7.9,6.5,14.4,14.4,14.4	h0c7.9,0,14.4-6.5,14.4-14.4V83.1h13.9v5.5c0,1.6,1.3,3,3,3c1.6,0,3-1.3,3-3v-5.5h10.8v5.5c0,1.6,1.3,3,3,3c1.6,0,3-1.3,3-3v-5.5	H145.4z"/><path fill="#1CB0F6" d="M107.5,142.7l0-2.9l-26.3-16.6c4.9-2.3,8.4-7.3,8.4-13.1v-24c0,7.9-6.5,14.4-14.4,14.4h0	c-7.9,0-14.4-6.5-14.4-14.4v24c0,5.8,3.5,10.8,8.5,13.1l-26.4,16.5l0,2.9l29.6-3.5v6.4c0,1.5,1.2,2.7,2.7,2.7c1.5,0,2.7-1.2,2.7-2.7	v-6.4L107.5,142.7z"/><g><path fill="#6D6D6D" d="M73.6,5.2c-3.7,0.5-6.9,2.9-8.5,6.4l3.1,1.4c1-2.2,3.1-3.8,5.4-4.3V5.2z"/><path fill="#6D6D6D" d="M76.7,5.2v3.5c2.3,0.5,4.4,2.1,5.4,4.3l3.1-1.4C83.6,8.1,80.4,5.8,76.7,5.2z"/></g><polygon fill="#199ACC" points="77.8,121.2 77.8,139.2 95.5,141.3 95.5,132.3"/></svg>