<?xml version="1.0" encoding="utf-8"?><!DOCTYPE svg PUBLIC "-//W3C//DTD SVG 1.1//EN" "http://www.w3.org/Graphics/SVG/1.1/DTD/svg11.dtd"><svg version="1.1" id="Layer_1" xmlns="http://www.w3.org/2000/svg" xmlns:xlink="http://www.w3.org/1999/xlink" x="0px" y="0px" width="150px" height="150px" viewBox="0 0 150 150" enable-background="new 0 0 150 150" xml:space="preserve"><path fill="#1CB0F6" d="M130.7,141.3H21.3c-6.7,0-12.1-5.4-12.1-12.1V19.9c0-6.7,5.4-12.1,12.1-12.1h109.3c6.7,0,12.1,5.4,12.1,12.1	v109.3C142.7,135.9,137.3,141.3,130.7,141.3z"/><g opacity="0.35"><polygon fill="#1298DB" points="23.9,34.4 18.7,26.2 23.9,18.1 29,26.2"/><polygon fill="#1298DB" points="43.9,34.4 38.7,26.2 43.9,18.1 49,26.2"/><polygon fill="#1298DB" points="63.9,34.4 58.7,26.2 63.9,18.1 69,26.2"/><polygon fill="#1298DB" points="83.9,34.4 78.7,26.2 83.9,18.1 89,26.2"/><polygon fill="#1298DB" points="103.9,34.4 98.7,26.2 103.9,18.1 109,26.2"/><polygon fill="#1298DB" points="123.9,34.4 118.7,26.2 123.9,18.1 129,26.2"/><polygon fill="#1298DB" points="142.7,32.6 142.7,19.9 138.7,26.2"/><path fill="#1298DB" d="M12.3,11.9l1.6,2.5l3.8-6C15.5,9.1,13.7,10.3,12.3,11.9z"/><polygon fill="#1298DB" points="33.9,14.4 38,7.8 29.7,7.8"/><polygon fill="#1298DB" points="53.9,14.4 58,7.8 49.7,7.8"/><polygon fill="#1298DB" points="73.9,14.4 78,7.8 69.7,7.8"/><polygon fill="#1298DB" points="93.9,14.4 98,7.8 89.7,7.8"/><polygon fill="#1298DB" points="113.9,14.4 118,7.8 109.7,7.8"/><path fill="#1298DB" d="M129.7,7.8l4.1,6.5l3-4.8c-1.8-1.1-3.9-1.7-6.2-1.7H129.7z"/><polygon fill="#1298DB" points="33.9,54.4 28.7,46.2 33.9,38.1 39,46.2"/><polygon fill="#1298DB" points="53.9,54.4 48.7,46.2 53.9,38.1 59,46.2"/><polygon fill="#1298DB" points="73.9,54.4 68.7,46.2 73.9,38.1 79,46.2"/><polygon fill="#1298DB" points="93.9,54.4 88.7,46.2 93.9,38.1 99,46.2"/><polygon fill="#1298DB" points="113.9,54.4 108.7,46.2 113.9,38.1 119,46.2"/><polygon fill="#1298DB" points="133.9,54.4 128.7,46.2 133.9,38.1 139,46.2"/><polygon fill="#1298DB" points="23.9,74.4 18.7,66.2 23.9,58.1 29,66.2"/><polygon fill="#1298DB" points="43.9,74.4 38.7,66.2 43.9,58.1 49,66.2"/><polygon fill="#1298DB" points="63.9,74.4 58.7,66.2 63.9,58.1 69,66.2"/><polygon fill="#1298DB" points="83.9,74.4 78.7,66.2 83.9,58.1 89,66.2"/><polygon fill="#1298DB" points="103.9,74.4 98.7,66.2 103.9,58.1 109,66.2"/><polygon fill="#1298DB" points="123.9,74.4 118.7,66.2 123.9,58.1 129,66.2"/><polygon fill="#1298DB" points="142.7,72.6 142.7,59.9 138.7,66.2"/><polygon fill="#1298DB" points="33.9,94.4 28.7,86.2 33.9,78.1 39,86.2"/><polygon fill="#1298DB" points="53.9,94.4 48.7,86.2 53.9,78.1 59,86.2"/><polygon fill="#1298DB" points="73.9,94.4 68.7,86.2 73.9,78.1 79,86.2"/><polygon fill="#1298DB" points="93.9,94.4 88.7,86.2 93.9,78.1 99,86.2"/><polygon fill="#1298DB" points="113.9,94.4 108.7,86.2 113.9,78.1 119,86.2"/><polygon fill="#1298DB" points="133.9,94.4 128.7,86.2 133.9,78.1 139,86.2"/><polygon fill="#1298DB" points="23.9,114.4 18.7,106.2 23.9,98.1 29,106.2"/><polygon fill="#1298DB" points="9.3,45.4 9.3,47.1 13.9,54.4 19,46.2 13.9,38.1"/><polygon fill="#1298DB" points="9.3,85.4 9.3,87.1 13.9,94.4 19,86.2 13.9,78.1"/><polygon fill="#1298DB" points="43.9,114.4 38.7,106.2 43.9,98.1 49,106.2"/><polygon fill="#1298DB" points="63.9,114.4 58.7,106.2 63.9,98.1 69,106.2"/><polygon fill="#1298DB" points="83.9,114.4 78.7,106.2 83.9,98.1 89,106.2"/><polygon fill="#1298DB" points="103.9,114.4 98.7,106.2 103.9,98.1 109,106.2"/><polygon fill="#1298DB" points="123.9,114.4 118.7,106.2 123.9,98.1 129,106.2"/><polygon fill="#1298DB" points="142.7,112.6 142.7,99.9 138.7,106.2"/></g><path fill="#B26938" d="M9.3,122v7.2c0,6.7,5.4,12.1,12.1,12.1h109.3c6.7,0,12.1-5.4,12.1-12.1V122H9.3z"/><rect x="9.3" y="110" fill="#FFFFFF" width="133.5" height="12"/><path fill="#FFFFFF" d="M132.5,100.7h-10.3c-0.5,0-1-0.4-1-1V83c0-0.5,0.4-1,1-1h10.3c0.5,0,1,0.4,1,1v16.7	C133.5,100.2,133.1,100.7,132.5,100.7z"/><circle fill="#EDEDED" cx="127.4" cy="87.1" r="3.6"/><path fill="#C4C4C4" d="M126.4,87.8L126.4,87.8c-0.3,0-0.5-0.2-0.5-0.5v-1.8c0-0.3,0.2-0.5,0.5-0.5l0,0c0.3,0,0.5,0.2,0.5,0.5v1.8	C126.9,87.5,126.6,87.8,126.4,87.8z"/><path fill="#C4C4C4" d="M128.4,87.8L128.4,87.8c-0.3,0-0.5-0.2-0.5-0.5v-1.8c0-0.3,0.2-0.5,0.5-0.5l0,0c0.3,0,0.5,0.2,0.5,0.5v1.8	C128.9,87.5,128.6,87.8,128.4,87.8z"/><path fill="#C4C4C4" d="M128.1,89.7c0.1-0.1,0.1-0.3,0.1-0.4c0-0.5-0.4-0.9-0.9-0.9s-0.9,0.4-0.9,0.9c0,0.2,0.1,0.3,0.1,0.4H128.1z"/><circle fill="#EDEDED" cx="127.4" cy="95.4" r="3.6"/><path fill="#C4C4C4" d="M126.4,96L126.4,96c-0.3,0-0.5-0.2-0.5-0.5v-1.8c0-0.3,0.2-0.5,0.5-0.5l0,0c0.3,0,0.5,0.2,0.5,0.5v1.8	C126.9,95.7,126.6,96,126.4,96z"/><path fill="#C4C4C4" d="M128.4,96L128.4,96c-0.3,0-0.5-0.2-0.5-0.5v-1.8c0-0.3,0.2-0.5,0.5-0.5l0,0c0.3,0,0.5,0.2,0.5,0.5v1.8	C128.9,95.7,128.6,96,128.4,96z"/><path fill="#C4C4C4" d="M128.1,97.9c0.1-0.1,0.1-0.3,0.1-0.4c0-0.5-0.4-0.9-0.9-0.9s-0.9,0.4-0.9,0.9c0,0.2,0.1,0.3,0.1,0.4H128.1z"/><path fill="#A8602F" d="M59.2,130.6H27c-1.1,0-2-0.9-2-2l0,0c0-1.1,0.9-2,2-2h32.2c1.1,0,2,0.9,2,2l0,0	C61.2,129.7,60.3,130.6,59.2,130.6z"/><path fill="#A8602F" d="M80.7,138.6H57c-1.1,0-2-0.9-2-2l0,0c0-1.1,0.9-2,2-2h23.7c1.1,0,2,0.9,2,2l0,0	C82.7,137.7,81.8,138.6,80.7,138.6z"/><path fill="#A8602F" d="M110.7,129.6H87c-1.1,0-2-0.9-2-2l0,0c0-1.1,0.9-2,2-2h23.7c1.1,0,2,0.9,2,2l0,0	C112.7,128.7,111.8,129.6,110.7,129.6z"/><path fill="#A8602F" d="M132,136.6h-27c-1.1,0-2-0.9-2-2l0,0c0-1.1,0.9-2,2-2h27c1.1,0,2,0.9,2,2l0,0	C134,135.7,133.1,136.6,132,136.6z"/></svg>