<?xml version="1.0" encoding="utf-8"?><!DOCTYPE svg PUBLIC "-//W3C//DTD SVG 1.1//EN" "http://www.w3.org/Graphics/SVG/1.1/DTD/svg11.dtd"><svg version="1.1" id="Layer_1" xmlns="http://www.w3.org/2000/svg" xmlns:xlink="http://www.w3.org/1999/xlink" x="0px" y="0px" width="150px" height="150px" viewBox="0 0 150 150" enable-background="new 0 0 150 150" xml:space="preserve"><path fill="#774335" d="M74.8,28.8L74.8,28.8c1.9,0,3.4,1.5,3.4,3.4v20.7c0,1.9-1.5,3.4-3.4,3.4h0c-1.9,0-3.4-1.5-3.4-3.4V32.2	C71.3,30.3,72.9,28.8,74.8,28.8z"/><path fill="#88C11A" d="M79.3,55.5c-10.3,8-25.1,6.2-33.1-4s-6.2-25.1,4-33.1"/><path fill="#CC2F2F" d="M50.9,115.6L50.9,115.6c-13.2-13.2-13.2-34.7,0-47.9l14-14c13.2-13.2,34.7-13.2,47.9,0l0,0	c13.2,13.2,13.2,34.7,0,47.9l-14,14C85.7,128.7,64.1,128.7,50.9,115.6z"/><path fill="#CC2F2F" d="M98.9,115.6L98.9,115.6c-13.2,13.2-34.7,13.2-47.9,0l-14-14c-13.2-13.2-13.2-34.7,0-47.9l0,0	c13.2-13.2,34.7-13.2,47.9,0l14,14C112.1,80.8,112.1,102.4,98.9,115.6z"/><path fill="none" stroke="#FFFFFF" stroke-width="9.9351" stroke-linecap="round" stroke-linejoin="round" stroke-miterlimit="10" d="M42.2,72.2c0-6.1,5-11.1,11.1-11.1"/></svg>