<?xml version="1.0" encoding="utf-8"?><!DOCTYPE svg PUBLIC "-//W3C//DTD SVG 1.1//EN" "http://www.w3.org/Graphics/SVG/1.1/DTD/svg11.dtd"><svg version="1.1" id="Layer_1" xmlns="http://www.w3.org/2000/svg" xmlns:xlink="http://www.w3.org/1999/xlink" x="0px" y="0px" width="150px" height="150px" viewBox="0 0 150 150" enable-background="new 0 0 150 150" xml:space="preserve"><path fill="#DDCDB6" d="M43.8,115.9h44.3c3.8,0,6.9,3.1,6.9,6.9v0c0,3.8-3.1,6.9-6.9,6.9H43.8"/><path fill="#E5D7C1" d="M131.3,122.8l-18.8,16.1H23.7c-2.3,0-4.2-1.9-4.2-4.2v-12"/><path fill="#FFFFFF" d="M123.8,111.5l-47-94.9c3,12.4,4.8,27.6,4.8,44c0,19.6-2.5,37.5-6.7,50.8H123.8z"/><polyline fill="#FFFFFF" points="71.9,11.9 71.9,111.5 22.5,111.5"/><polygon fill="#5983CE" points="121.6,131.1 19.6,131.1 19.6,134.5 117.7,134.5"/><path fill="#89765D" d="M118.8,128.2h-6.7c-0.9,0-1.7-0.8-1.7-1.7v-0.3c0-0.9,0.8-1.7,1.7-1.7h6.7c0.9,0,1.7,0.8,1.7,1.7v0.3	C120.5,127.4,119.8,128.2,118.8,128.2z"/><path fill="#89765D" d="M99.3,128.2h-6.7c-0.9,0-1.7-0.8-1.7-1.7v-0.3c0-0.9,0.8-1.7,1.7-1.7h6.7c0.9,0,1.7,0.8,1.7,1.7v0.3	C101,127.4,100.2,128.2,99.3,128.2z"/><path fill="#89765D" d="M77.5,128.2H62.7c-0.9,0-1.7-0.8-1.7-1.7v-0.3c0-0.9,0.8-1.7,1.7-1.7h14.8c0.9,0,1.7,0.8,1.7,1.7v0.3	C79.2,127.4,78.5,128.2,77.5,128.2z"/></svg>