<?xml version="1.0" encoding="utf-8"?><!DOCTYPE svg PUBLIC "-//W3C//DTD SVG 1.1//EN" "http://www.w3.org/Graphics/SVG/1.1/DTD/svg11.dtd"><svg version="1.1" id="Layer_1" xmlns="http://www.w3.org/2000/svg" xmlns:xlink="http://www.w3.org/1999/xlink" x="0px" y="0px" width="150px" height="150px" viewBox="0 0 150 150" enable-background="new 0 0 150 150" xml:space="preserve"><linearGradient id="SVGID_1_" gradientUnits="userSpaceOnUse" x1="74.75" y1="142.3963" x2="74.75" y2="8.937"><stop offset="0" style="stop-color:#9FF4FF"/><stop offset="1" style="stop-color:#37D6ED"/></linearGradient><path fill="url(#SVGID_1_)" d="M129.4,142.4H20.1C13.4,142.4,8,137,8,130.3V21c0-6.7,5.4-12.1,12.1-12.1h109.3	c6.7,0,12.1,5.4,12.1,12.1v109.3C141.5,137,136.1,142.4,129.4,142.4z"/><polygon opacity="0.13" fill="#231F20" points="32.6,39.3 131,109.6 127.8,112.7 19.5,112.5 22.1,91.1"/><path fill="#C63030" d="M8,81.8v26.5c12.2,3.1,25.6-0.1,35.1-9.6c14.4-14.4,14.4-37.6,0-52L8,81.8z"/><path fill="#D33535" d="M8,37.1v44.7l35.1-35.1C33.6,37.2,20.2,34,8,37.1z"/><path fill="#7AC70C" d="M8,130.3c0,6.7,5.4,12.1,12.1,12.1h109.3c6.7,0,12.1-5.4,12.1-12.1v-20.9H8V130.3z"/><path fill="#6DAA0C" d="M130.1,117.3H8v-7.8h122.1c2.2,0,3.9,1.8,3.9,3.9v0C134,115.6,132.2,117.3,130.1,117.3z"/></svg>