<?xml version="1.0" encoding="utf-8"?><!DOCTYPE svg PUBLIC "-//W3C//DTD SVG 1.1//EN" "http://www.w3.org/Graphics/SVG/1.1/DTD/svg11.dtd"><svg version="1.1" xmlns="http://www.w3.org/2000/svg" xmlns:xlink="http://www.w3.org/1999/xlink" x="0px" y="0px" width="150px" height="150px" viewBox="0 0 150 150" enable-background="new 0 0 150 150" xml:space="preserve"><g id="Layer_2" display="none"><rect x="-340" y="-1017.3" display="inline" fill="#F0F0F0" width="1680" height="1677.3"/></g><g id="Layer_1"/><g id="Layer_3"><g><g><path fill="#561D1D" d="M74.4,42.7c-4.3,0-7.8-3.5-7.8-7.8c0-0.9,0.7-1.6,1.6-1.6c0.9,0,1.6,0.7,1.6,1.6c0,2.5,2,4.5,4.5,4.5 c2.5,0,4.5-2,4.5-4.5c0-0.9,0.7-1.6,1.6-1.6c0.9,0,1.6,0.7,1.6,1.6C82.2,39.2,78.7,42.7,74.4,42.7z"/></g></g><g><path fill="#561D1D" d="M70.5,49.8c-0.5,0-1-0.2-1.4-0.6L49.9,30.1c-0.8-0.8-0.8-2.1,0-2.9c0.8-0.8,2.1-0.8,2.9,0l19.1,19.1 c0.8,0.8,0.8,2.1,0,2.9C71.5,49.6,71,49.8,70.5,49.8z"/></g><g><path fill="#561D1D" d="M79,49.8c-0.5,0-1-0.2-1.4-0.6c-0.8-0.8-0.8-2.1,0-2.9l19.1-19.1c0.8-0.8,2.1-0.8,2.9,0 c0.8,0.8,0.8,2.1,0,2.9L80.4,49.2C80,49.6,79.5,49.8,79,49.8z"/></g><g><path fill="#561D1D" d="M68.5,77c-0.3,0-0.5-0.1-0.8-0.2l-17.4-7.5c-0.7-0.3-1.2-1-1.2-1.9V46c0-1.1,0.9-2,2-2s2,0.9,2,2v20.1 l16.2,7c1,0.4,1.5,1.6,1.1,2.7C70,76.5,69.3,77,68.5,77z"/></g><g><path fill="#561D1D" d="M81.4,77c-0.8,0-1.5-0.5-1.9-1.2c-0.4-1,0-2.2,1.1-2.7l16.2-7V46c0-1.1,0.9-2,2-2s2,0.9,2,2v21.4 c0,0.8-0.5,1.5-1.2,1.9l-17.4,7.5C81.9,76.9,81.6,77,81.4,77z"/></g><g><path fill="#561D1D" d="M98.8,111.9c-1.1,0-2-0.9-2-2V89.9l-16.2-7c-1-0.4-1.5-1.6-1.1-2.7c0.4-1,1.6-1.5,2.7-1.1l17.4,7.5 c0.7,0.3,1.2,1,1.2,1.9v21.4C100.8,111,99.9,111.9,98.8,111.9z"/></g><g><path fill="#561D1D" d="M51.1,111.9c-1.1,0-2-0.9-2-2V88.5c0-0.8,0.5-1.5,1.2-1.9l17.4-7.5c1-0.4,2.2,0,2.7,1.1s0,2.2-1.1,2.7 l-16.2,7v20.1C53.1,111,52.2,111.9,51.1,111.9z"/></g><g><path fill="#561D1D" d="M113.4,79.7H35.9c-1.1,0-2-0.9-2-2s0.9-2,2-2h77.5c1.1,0,2,0.9,2,2S114.5,79.7,113.4,79.7z"/></g><path fill="#7C2C2C" d="M80,60.8H68.7c-5.3,0-9.7-4.4-9.7-9.7v0c0-5.3,4.4-9.7,9.7-9.7H80c5.3,0,9.7,4.4,9.7,9.7v0 C89.7,56.5,85.4,60.8,80,60.8z"/><path fill="#7C2C2C" d="M74.6,90.6L74.6,90.6c-3.6,0-6.6-3-6.6-6.6V67c0-3.6,3-6.6,6.6-6.6h0c3.6,0,6.6,3,6.6,6.6V84 C81.3,87.6,78.3,90.6,74.6,90.6z"/><path fill="#561D1D" d="M74.6,123.7L74.6,123.7c-7.7,0-14-6.3-14-14V104c0-7.7,6.3-14,14-14h0c7.7,0,14,6.3,14,14v5.7 C88.7,117.4,82.4,123.7,74.6,123.7z"/><path fill="#913434" d="M74.6,105.8L74.6,105.8c-2.7,0-4.8-2.2-4.8-4.8v0c0-2.7,2.2-4.8,4.8-4.8h0c2.7,0,4.8,2.2,4.8,4.8v0 C79.5,103.7,77.3,105.8,74.6,105.8z"/><path fill="#913434" d="M80.2,50H69.1c-1.5,0-2.7-1.2-2.7-2.7v0c0-1.5,1.2-2.7,2.7-2.7h11.2c1.5,0,2.7,1.2,2.7,2.7v0 C82.9,48.8,81.7,50,80.2,50z"/></g></svg>