<?xml version="1.0" encoding="utf-8"?><!DOCTYPE svg PUBLIC "-//W3C//DTD SVG 1.1//EN" "http://www.w3.org/Graphics/SVG/1.1/DTD/svg11.dtd"><svg version="1.1" id="Layer_1" xmlns="http://www.w3.org/2000/svg" xmlns:xlink="http://www.w3.org/1999/xlink" x="0px" y="0px" width="150px" height="150px" viewBox="0 0 150 150" enable-background="new 0 0 150 150" xml:space="preserve"><path fill="none" stroke="#1CB0F6" stroke-width="19.3378" stroke-linecap="round" stroke-linejoin="round" stroke-miterlimit="10" d="M47.4,61.8c6.8-7.3,16.4-11.9,27.1-11.9h0c20.3,0,36.9,16.6,36.9,36.9v37.6"/><path fill="none" stroke="#1CB0F6" stroke-width="19.3378" stroke-linecap="round" stroke-linejoin="round" stroke-miterlimit="10" d="M50.6,47.9C58.5,39.4,69.8,34,82.2,34h0c23.7,0,43.1,19.4,43.1,43.1v19.7"/><path fill="none" stroke="#1FC0FF" stroke-width="9.6689" stroke-linecap="round" stroke-linejoin="round" stroke-miterlimit="10" d="M50.6,47.9C58.5,39.4,69.8,34,82.2,34h0c11.2,0,21.5,4.4,29.2,11.5"/><rect x="20.7" y="37" transform="matrix(0.7071 0.7071 -0.7071 0.7071 61.3762 -14.0778)" fill="#BCBCBC" width="54" height="60.1"/><path fill="#C6C6C6" d="M25.1,69.3L25.1,69.3c-2-2-2-5.2,0-7.2l29-29l7.2,7.2l-29,29C30.3,71.3,27.1,71.3,25.1,69.3z"/><path fill="#AFAFAF" d="M39.5,99.2l29-29c2-2,5.2-2,7.2,0l0,0c2,2,2,5.2,0,7.2l-29,29"/><rect x="40.6" y="40.5" transform="matrix(0.7071 -0.7071 0.7071 0.7071 -33.9582 53.1953)" fill="#1CB0F6" width="13.3" height="54.1"/><rect x="30.4" y="52.3" transform="matrix(0.7071 -0.7071 0.7071 0.7071 -29.733 42.9948)" fill="#1FC0FF" width="13.3" height="10.1"/><rect x="56.1" y="78" transform="matrix(0.7071 -0.7071 0.7071 0.7071 -40.3945 68.7341)" fill="#1EA0E2" width="13.3" height="10.2"/><line fill="none" stroke="#FFFFFF" stroke-width="2.7625" stroke-linecap="round" stroke-linejoin="round" stroke-miterlimit="10" x1="7.3" y1="69.2" x2="45.5" y2="107.4"/><line fill="none" stroke="#FFFFFF" stroke-width="2.7625" stroke-linecap="round" stroke-linejoin="round" stroke-miterlimit="10" x1="49.8" y1="26.8" x2="88" y2="65"/><circle fill="#1CB0F6" cx="138.9" cy="49.1" r="4.6"/><circle fill="#1CB0F6" cx="90.8" cy="105.5" r="5.3"/><circle fill="#1CB0F6" cx="86.7" cy="19.6" r="3.6"/><circle fill="#D1D1D1" cx="60.8" cy="53.7" r="5.5"/><path fill="#F4F4F4" d="M16.7,55.1h43.8c0.9,0,1.6-0.7,1.6-1.6l0,0c0-0.9-0.7-1.6-1.6-1.6H16.7c-0.9,0-1.6,0.7-1.6,1.6l0,0	C15.1,54.4,15.8,55.1,16.7,55.1z"/><path fill="#00A5D8" d="M105.4,127.1L105.4,127.1c-2,0-3.6-1.6-3.6-3.6V91.9c0-2,1.6-3.6,3.6-3.6h0c2,0,3.6,1.6,3.6,3.6v31.6	C109,125.5,107.4,127.1,105.4,127.1z"/></svg>