<?xml version="1.0" encoding="utf-8"?><!DOCTYPE svg PUBLIC "-//W3C//DTD SVG 1.1//EN" "http://www.w3.org/Graphics/SVG/1.1/DTD/svg11.dtd"><svg version="1.1" id="Layer_1" xmlns="http://www.w3.org/2000/svg" xmlns:xlink="http://www.w3.org/1999/xlink" x="0px" y="0px" width="150px" height="150px" viewBox="0 0 150 150" enable-background="new 0 0 150 150" xml:space="preserve"><g><path fill="#A620ED" d="M82.9,23.6c-14.8,0-29.2,6.3-39.3,17.2c-3.1,3.3-3.4,8.3-1.1,11.9c-0.7,0.7-1.5,1.4-2.2,2.2 c-3.7,4-3.4,10.2,0.5,13.9c4,3.7,10.2,3.4,13.9-0.5c5.3-5.7,12.7-8.9,20.3-8.9c15.3,0,27.7,12.4,27.7,27.7v38.2 c0,5.4,4.4,9.8,9.8,9.8s9.8-4.4,9.8-9.8V106c1.3,0.6,2.7,1,4.2,1c5.4,0,9.8-4.4,9.8-9.8v-20C136.4,47.6,112.4,23.6,82.9,23.6z"/><circle fill="#A620ED" cx="140.4" cy="48.7" r="4.7"/><circle fill="#A620ED" cx="91.6" cy="106" r="5.4"/><circle fill="#A620ED" cx="87.5" cy="18.7" r="3.7"/></g><g><path fill="#B924FF" d="M50.8,52.4c-1.2,0-2.4-0.4-3.3-1.3c-2-1.8-2.1-4.9-0.3-6.9c9.2-10,22.2-15.7,35.7-15.7 c12.2,0,23.9,4.6,33,12.9c2,1.8,2.1,4.9,0.3,6.9c-1.8,2-4.9,2.1-6.9,0.3C102,42,92.7,38.3,82.9,38.3c-10.7,0-21.1,4.6-28.5,12.5 C53.5,51.9,52.1,52.4,50.8,52.4z"/></g><rect x="20.4" y="36.4" transform="matrix(0.7071 0.7071 -0.7071 0.7071 61.3322 -14.2279)" fill="#BCBCBC" width="54.8" height="61"/><path fill="#C6C6C6" d="M25,69.2L25,69.2c-2-2-2-5.3,0-7.3l29.5-29.5l7.3,7.3L32.2,69.2C30.2,71.2,27,71.2,25,69.2z"/><path fill="#AFAFAF" d="M39.6,99.6L69,70.2c2-2,5.3-2,7.3,0l0,0c2,2,2,5.3,0,7.3l-29.5,29.5"/><rect x="40.7" y="40" transform="matrix(0.7071 -0.7071 0.7071 0.7071 -33.8288 53.2678)" fill="#A620ED" width="13.5" height="55"/><rect x="30.3" y="52" transform="matrix(0.7071 -0.7071 0.7071 0.7071 -29.5386 42.9102)" fill="#B924FF" width="13.5" height="10.3"/><rect x="56.4" y="78.1" transform="matrix(0.7071 -0.7071 0.7071 0.7071 -40.3643 69.046)" fill="#8B1ED1" width="13.5" height="10.3"/><line fill="none" stroke="#FFFFFF" stroke-width="2.8051" stroke-linecap="round" stroke-linejoin="round" stroke-miterlimit="10" x1="6.9" y1="69.1" x2="45.6" y2="107.9"/><line fill="none" stroke="#FFFFFF" stroke-width="2.8051" stroke-linecap="round" stroke-linejoin="round" stroke-miterlimit="10" x1="50" y1="26" x2="88.7" y2="64.8"/><circle fill="#D1D1D1" cx="61.2" cy="53.4" r="5.6"/><path fill="#F4F4F4" d="M16.4,54.8h44.5c0.9,0,1.6-0.7,1.6-1.6l0,0c0-0.9-0.7-1.6-1.6-1.6H16.4c-0.9,0-1.6,0.7-1.6,1.6l0,0	C14.8,54,15.5,54.8,16.4,54.8z"/><path fill="#8B1ED1" d="M106.5,127.9L106.5,127.9c-2,0-3.7-1.7-3.7-3.7V92.2c0-2,1.7-3.7,3.7-3.7h0c2,0,3.7,1.7,3.7,3.7v32.1	C110.1,126.3,108.5,127.9,106.5,127.9z"/></svg>