<?xml version="1.0" encoding="utf-8"?><!DOCTYPE svg PUBLIC "-//W3C//DTD SVG 1.1//EN" "http://www.w3.org/Graphics/SVG/1.1/DTD/svg11.dtd"><svg version="1.1" xmlns="http://www.w3.org/2000/svg" xmlns:xlink="http://www.w3.org/1999/xlink" x="0px" y="0px" width="150px" height="150px" viewBox="0 0 150 150" enable-background="new 0 0 150 150" xml:space="preserve"><g id="Layer_2" display="none"><rect x="-340" y="-170" display="inline" fill="#F0F0F0" width="1680" height="1677.3"/></g><g id="Layer_1"><path fill="#D8BC9E" d="M75,131.2L75,131.2c-7,0-12.6-5.7-12.6-12.6V54.1c0-7,5.7-12.6,12.6-12.6h0c7,0,12.6,5.7,12.6,12.6v64.5 C87.6,125.5,82,131.2,75,131.2z"/><path fill="#D33131" d="M31,73.8c-7.3,0-12.7-6.9-10.9-14C26.3,35.3,48.5,17.2,75,17.2s48.7,18.1,54.9,42.6c1.8,7.1-3.5,14-10.9,14 H31z"/><circle fill="#FFFFFF" cx="96.7" cy="47.7" r="15.2"/><path fill="#FFFFFF" d="M29.6,39.9c2.6,2.7,6.3,4.4,10.4,4.4c8,0,14.5-6.5,14.5-14.5c0-2.9-0.9-5.6-2.3-7.8 C43.2,25.9,35.4,32.2,29.6,39.9z"/><path fill="#FFFFFF" d="M63.5,69.3c0-5.4-4.3-9.7-9.7-9.7c-5.4,0-9.7,4.3-9.7,9.7c0,1.6,0.4,3.2,1.1,4.6h17.1 C63.1,72.5,63.5,70.9,63.5,69.3z"/><path fill="#E2C9B3" d="M54.3,95.9L54.3,95.9c0-4.6,3.7-8.3,8.3-8.3h25.2c4.6,0,8.3,3.7,8.3,8.3v0"/><rect x="62.4" y="73.8" fill="#C99F7D" width="25.3" height="7.6"/></g><g id="Layer_3"/></svg>