<?xml version="1.0" encoding="utf-8"?><!DOCTYPE svg PUBLIC "-//W3C//DTD SVG 1.1//EN" "http://www.w3.org/Graphics/SVG/1.1/DTD/svg11.dtd"><svg version="1.1" xmlns="http://www.w3.org/2000/svg" xmlns:xlink="http://www.w3.org/1999/xlink" x="0px" y="0px" width="150px" height="150px" viewBox="0 0 150 150" enable-background="new 0 0 150 150" xml:space="preserve"><g id="Layer_2" display="none"><rect x="-680" y="-510" display="inline" fill="#F0F0F0" width="1680" height="1677.3"/></g><g id="Layer_1"><rect x="42.8" y="30.2" fill="#603229" width="66.8" height="57"/><path fill="#303030" d="M26.9,147.9v-8.2c0-26.2,21.3-47.5,47.5-47.5h0c26.2,0,47.5,21.3,47.5,47.5v8.2"/><path fill="#424242" d="M44.9,147.9v-41.2c0-16.2,13.3-29.5,29.5-29.5h0c16.2,0,29.5,13.3,29.5,29.5v41.2"/><rect x="57.4" y="113.2" fill="#E2E2E2" width="34" height="34.8"/><path fill="#FFFFFF" d="M94.5,120.1v-18.5c0-11.1-9.1-20.1-20.1-20.1h0c-11.1,0-20.1,9.1-20.1,20.1v18.5l20.3-6.6L94.5,120.1z"/><path fill="#E08070" d="M74.5,66.7c-7.2,0-13.2,5.8-13.2,12.8v15.3c0,7,5.9,12.8,13.2,12.8c7.2,0,13.2-5.8,13.2-12.8V79.5 C87.6,72.5,81.7,66.7,74.5,66.7z"/><polygon fill="#E08070" points="82.7,104.8 74.5,111.9 66.2,104.8"/><g><path fill="#E8957C" d="M74.5,92.2L74.5,92.2c-18.8,0-34-15.2-34-34V44c0-18.8,15.2-34,34-34h0c18.8,0,34,15.2,34,34v14.2 C108.5,77,93.3,92.2,74.5,92.2z"/></g><g><rect x="68.9" y="39.4" fill="#E08070" width="11.1" height="14.2"/></g><g><path fill="#CC7262" d="M61.3,42.2c0,2.3-1.9,4.2-4.2,4.2c-2.3,0-4.2-1.9-4.2-4.2"/></g><g><path fill="#CC7262" d="M96.2,42.2c0,2.3-1.9,4.2-4.2,4.2c-2.3,0-4.2-1.9-4.2-4.2"/></g><path fill="#CC7262" d="M79.2,62.6h-9.6c-0.8,0-1.5-0.7-1.5-1.5l0,0c0-0.8,0.7-1.5,1.5-1.5h9.6c0.8,0,1.5,0.7,1.5,1.5l0,0 C80.7,61.9,80,62.6,79.2,62.6z"/><path fill="#FFC4B8" d="M77.4,15h-6c-1.4,0-2.5-1.1-2.5-2.5v0c0-1.4,1.1-2.5,2.5-2.5h6c1.4,0,2.5,1.1,2.5,2.5v0 C79.9,13.9,78.8,15,77.4,15z"/><path fill="#773F32" d="M74.8,5.2C54.4,5.2,37.8,20.8,37.8,40v40.4c0,6.2,5,11.2,11.2,11.2V40h31V26.5L87.4,40h13.1v52.6 c6.2,0,11.2-5,11.2-11.2V40C111.7,20.8,95.1,5.2,74.8,5.2z"/><circle fill="#FFFFFF" cx="74.6" cy="124.5" r="2.2"/><circle fill="#FFFFFF" cx="74.6" cy="137.5" r="2.2"/></g><g id="Layer_3"/></svg>