<?xml version="1.0" encoding="utf-8"?><!DOCTYPE svg PUBLIC "-//W3C//DTD SVG 1.1//EN" "http://www.w3.org/Graphics/SVG/1.1/DTD/svg11.dtd"><svg version="1.1" id="Layer_1" xmlns="http://www.w3.org/2000/svg" xmlns:xlink="http://www.w3.org/1999/xlink" x="0px" y="0px" width="150px" height="150px" viewBox="0 0 150 150" enable-background="new 0 0 150 150" xml:space="preserve"><path fill="#282828" d="M65.9,139.1v-7.1c0-22.8,18.5-41.3,41.3-41.3h0c22.8,0,41.3,18.5,41.3,41.3v7.1"/><rect x="44.4" y="119.1" fill="#282828" width="21.4" height="19.8"/><path fill="#FFFFFF" d="M107.3,136.2L107.3,136.2c-6.3,0-11.4-5.1-11.4-11.4V93c0-0.4,0.3-0.7,0.7-0.7h21.2c0.4,0,0.7,0.3,0.7,0.7	v31.8C118.6,131.1,113.5,136.2,107.3,136.2z"/><path fill="#FFFFFF" d="M64.1,119H44.4v-11.3h14.4c2.9,0,5.3,2.4,5.3,5.3V119z"/><circle fill="#BFBFBF" cx="107.3" cy="115.8" r="2.2"/><circle fill="#BFBFBF" cx="107.3" cy="127.9" r="2.2"/><path fill="#A8A8A8" d="M74.2,107.7H3.5c-1.7,0-3-1.4-3-3v0c0-1.7,1.4-3,3-3h70.7c1.7,0,3,1.4,3,3l0,0	C77.2,106.4,75.9,107.7,74.2,107.7z"/><path fill="#FF9D8A" d="M107.3,69.9c-6.2,0-11.4,5.2-11.4,11.6v13.9c0,6.4,5.1,11.6,11.4,11.6s11.4-5.2,11.4-11.6V81.5	C118.6,75.1,113.5,69.9,107.3,69.9z"/><path fill="#44211C" d="M136.9,47.4H77.9c-5.1,0-9.2-4.1-9.2-9.2v0c0-5.1,4.1-9.2,9.2-9.2h58.9c5.1,0,9.2,4.1,9.2,9.2v0	C146.1,43.3,142,47.4,136.9,47.4z"/><g><ellipse fill="#FF9D8A" cx="77.6" cy="54.4" rx="7.4" ry="6.9"/></g><g><ellipse fill="#FF9D8A" cx="136.9" cy="54.3" rx="7.4" ry="6.9"/></g><g><path fill="#FFB5A1" d="M107.3,90.8L107.3,90.8c-16.4,0-29.6-13.3-29.6-29.6V42.8c0-16.4,13.3-29.6,29.6-29.6h0 c16.4,0,29.6,13.3,29.6,29.6v18.4C136.9,77.6,123.7,90.8,107.3,90.8z"/></g><g><path fill="#EA9486" d="M95.8,47.3c0,2-1.7,3.7-3.7,3.7c-2,0-3.7-1.7-3.7-3.7"/></g><g><path fill="#EA9486" d="M126.2,47.3c0,2-1.7,3.7-3.7,3.7c-2,0-3.7-1.7-3.7-3.7"/></g><path fill="#FFC4B8" d="M110.9,23.6h-7.1c-1.2,0-2.2-1-2.2-2.2v0c0-1.2,1-2.2,2.2-2.2h7.1c1.2,0,2.2,1,2.2,2.2v0	C113,22.7,112,23.6,110.9,23.6z"/><path fill="#D33131" d="M93.7,94.1l15.6,8.3c1.3,0.7,1.3,2.7,0,3.4l-15.6,8.3c-1.3,0.7-2.8-0.2-2.8-1.7V95.8	C90.9,94.3,92.4,93.4,93.7,94.1z"/><path fill="#D33131" d="M121,94.1l-15.6,8.3c-1.3,0.7-1.3,2.7,0,3.4l15.6,8.3c1.3,0.7,2.8-0.2,2.8-1.7V95.8	C123.8,94.3,122.3,93.4,121,94.1z"/><path fill="#FFFFFF" d="M47,115.2H21.3c-2.1,0-3.7-1.7-3.7-3.7v0c0-2.1,1.7-3.7,3.7-3.7H47c2.1,0,3.7,1.7,3.7,3.7v0	C50.7,113.5,49.1,115.2,47,115.2z"/><path fill="#A8A8A8" d="M8.2,102.6C8.2,85.7,21.9,72,38.9,72s30.6,13.7,30.6,30.6"/><path fill="none" stroke="#A8A8A8" stroke-width="3.6485" stroke-miterlimit="10" d="M38.9,77L38.9,77c-2.5,0-4.5-2-4.5-4.5v0	c0-2.5,2-4.5,4.5-4.5h0c2.5,0,4.5,2,4.5,4.5v0C43.4,75,41.4,77,38.9,77z"/><path fill="none" stroke="#C6C6C6" stroke-width="3.6485" stroke-linecap="round" stroke-linejoin="round" stroke-miterlimit="10" d="M16.5,92c3.9-8.5,12.4-14.4,22.3-14.4"/><path fill="#EA9486" d="M109.6,78.8h-4.7c-0.9,0-1.6-0.7-1.6-1.6v0c0-0.9,0.7-1.6,1.6-1.6h4.7c0.9,0,1.6,0.7,1.6,1.6v0	C111.2,78.1,110.5,78.8,109.6,78.8z"/><path fill="#44211C" d="M93.7,63.6L93.7,63.6c0-3.7,3-6.7,6.7-6.7h13.7c3.7,0,6.7,3,6.7,6.7v0"/><g><rect x="102.4" y="43.6" fill="#FF9D8A" width="9.7" height="16"/></g><path fill="#44211C" d="M97.2,60.1c0,2-1.6,3.6-3.6,3.6c-2,0-3.6-1.6-3.6-3.6"/><path fill="#44211C" d="M124.3,60.1c0,2-1.6,3.6-3.6,3.6s-3.6-1.6-3.6-3.6"/></svg>