<?xml version="1.0" encoding="utf-8"?><!DOCTYPE svg PUBLIC "-//W3C//DTD SVG 1.1//EN" "http://www.w3.org/Graphics/SVG/1.1/DTD/svg11.dtd"><svg version="1.1" id="Layer_1" xmlns="http://www.w3.org/2000/svg" xmlns:xlink="http://www.w3.org/1999/xlink" x="0px" y="0px" width="150px" height="150px" viewBox="0 0 150 150" enable-background="new 0 0 150 150" xml:space="preserve"><g><path fill="#783F30" d="M110.6,131.8c-5.2,0-9.3-4.2-9.3-9.3V86.1c0-14.5-11.8-26.4-26.4-26.4c-7.3,0-14.3,3.1-19.3,8.5 c-3.5,3.8-9.4,4-13.2,0.5s-4-9.4-0.5-13.2C50.4,46.3,62.4,41,74.9,41c24.8,0,45,20.2,45,45v36.4C120,127.6,115.8,131.8,110.6,131.8 z"/></g><g><path fill="#783F30" d="M124,105c-5.2,0-9.3-4.2-9.3-9.3v-19c0-17.8-14.5-32.3-32.3-32.3c-8.9,0-17.6,3.8-23.7,10.4 c-3.5,3.8-9.4,4-13.2,0.5c-3.8-3.5-4-9.4-0.5-13.2c9.6-10.4,23.3-16.4,37.4-16.4c28.1,0,51,22.9,51,51v19 C133.3,100.8,129.1,105,124,105z"/></g><g><path fill="#9B4D3E" d="M51.8,53.1c-1.1,0-2.3-0.4-3.2-1.2c-1.9-1.8-2-4.7-0.3-6.6c8.8-9.5,21.1-14.9,34-14.9 c11.6,0,22.8,4.4,31.4,12.3c1.9,1.8,2,4.7,0.3,6.6c-1.8,1.9-4.7,2-6.6,0.3c-6.9-6.3-15.7-9.8-25-9.8c-10.2,0-20.1,4.3-27.1,11.9 C54.3,52.6,53.1,53.1,51.8,53.1z"/></g><rect x="22.9" y="37.9" transform="matrix(0.7071 0.7071 -0.7071 0.7071 61.6701 -15.0356)" fill="#BCBCBC" width="52.2" height="58.1"/><path fill="#C6C6C6" d="M27.2,69.1L27.2,69.1c-1.9-1.9-1.9-5,0-6.9l28-28l6.9,6.9l-28,28C32.2,71,29.1,71,27.2,69.1z"/><path fill="#AFAFAF" d="M41.1,98l28-28c1.9-1.9,5-1.9,6.9,0l0,0c1.9,1.9,1.9,5,0,6.9l-28,28"/><rect x="42.1" y="41.3" transform="matrix(0.7071 -0.7071 0.7071 0.7071 -33.4714 54.0856)" fill="#783F30" width="12.8" height="52.3"/><rect x="32.3" y="52.7" transform="matrix(0.7071 -0.7071 0.7071 0.7071 -29.3888 44.2291)" fill="#9B4D3E" width="12.8" height="9.8"/><rect x="57.2" y="77.5" transform="matrix(0.7071 -0.7071 0.7071 0.7071 -39.6909 69.1006)" fill="#5B2D24" width="12.8" height="9.8"/><line fill="none" stroke="#FFFFFF" stroke-width="2.6694" stroke-linecap="round" stroke-linejoin="round" stroke-miterlimit="10" x1="10" y1="69" x2="46.9" y2="105.9"/><line fill="none" stroke="#FFFFFF" stroke-width="2.6694" stroke-linecap="round" stroke-linejoin="round" stroke-miterlimit="10" x1="51" y1="28" x2="87.9" y2="64.9"/><circle fill="#783F30" cx="137.1" cy="49.6" r="4.4"/><circle fill="#783F30" cx="90.6" cy="104.1" r="5.1"/><circle fill="#783F30" cx="86.7" cy="21.1" r="3.5"/><circle fill="#D1D1D1" cx="61.7" cy="54" r="5.3"/><path fill="#F4F4F4" d="M19.1,55.4h42.4c0.9,0,1.6-0.7,1.6-1.6v0c0-0.9-0.7-1.6-1.6-1.6H19.1c-0.9,0-1.6,0.7-1.6,1.6v0	C17.5,54.7,18.2,55.4,19.1,55.4z"/><path fill="#5B2D24" d="M104.8,125L104.8,125c-1.9,0-3.5-1.6-3.5-3.5V91c0-1.9,1.6-3.5,3.5-3.5h0c1.9,0,3.5,1.6,3.5,3.5v30.5	C108.3,123.4,106.7,125,104.8,125z"/></svg>