<?xml version="1.0" encoding="utf-8"?><!DOCTYPE svg PUBLIC "-//W3C//DTD SVG 1.1//EN" "http://www.w3.org/Graphics/SVG/1.1/DTD/svg11.dtd"><svg version="1.1" id="Layer_1" xmlns="http://www.w3.org/2000/svg" xmlns:xlink="http://www.w3.org/1999/xlink" x="0px" y="0px" width="150px" height="150px" viewBox="0 0 150 150" enable-background="new 0 0 150 150" xml:space="preserve"><path fill="#88C11A" d="M3.2,35.5c-3.4,8.8-2,18.5,4.4,25c6.5,6.5,16.2,7.9,25,4.4L3.2,35.5z"/><path fill="#86B20D" d="M32.7,64.9c3.4-8.8,2-18.5-4.4-25c-6.5-6.5-16.2-7.9-25-4.4L32.7,64.9z"/><path fill="#FFC200" d="M136.7,69c-0.5,0-1.1,0.1-1.6,0.2c-5.7-16.6-26.1-28.8-50.4-28.8c-24.3,0-44.7,12.3-50.4,28.8	c-0.5-0.1-1-0.2-1.6-0.2c-5.3,0-9.6,4.3-9.6,9.6c0,5.3,4.3,9.6,9.6,9.6c0.5,0,1.1-0.1,1.6-0.2c5.7,16.6,26.1,28.8,50.4,28.8	c24.3,0,44.7-12.3,50.4-28.8c0.5,0.1,1,0.2,1.6,0.2c5.3,0,9.6-4.3,9.6-9.6C146.2,73.3,141.9,69,136.7,69z"/><circle opacity="0.31" fill="#E58800" cx="57.3" cy="64.9" r="4.8"/><circle opacity="0.31" fill="#E58800" cx="78" cy="64.9" r="4.8"/><circle opacity="0.31" fill="#E58800" cx="67.7" cy="75.2" r="4.8"/></svg>