<?xml version="1.0" encoding="UTF-8"?><svg width="73px" height="73px" viewBox="0 0 73 73" version="1.1" xmlns="http://www.w3.org/2000/svg" xmlns:xlink="http://www.w3.org/1999/xlink"><title>achievement_spending_0</title><desc>Created with Sketch.</desc><defs/><g id="Page-1" stroke="none" stroke-width="1" fill="none" fill-rule="evenodd"><g id="locked" transform="translate(-120.000000, -169.000000)" fill-rule="nonzero" fill="#D1D1D1"><g id="achievement_spending_0" transform="translate(120.000000, 169.000000)"><path d="M7.0203536,45.7511662 L27.7181339,66.4489465 C32.6993809,71.4301934 40.7714818,71.4286308 45.7511662,66.4489465 L66.4489465,45.7511662 C71.4301934,40.7699192 71.4286308,32.6978183 66.4489465,27.7181339 L45.7511662,7.0203536 C40.7699192,2.03910668 32.6978183,2.04066925 27.7181339,7.0203536 L7.0203536,27.7181339 C2.03910668,32.6993809 2.04066925,40.7714818 7.0203536,45.7511662 Z M5.25258665,47.5189331 C-0.70390079,41.5624457 -0.70447871,31.9074323 5.25258665,25.950367 L25.950367,5.25258665 C31.9068544,-0.70390079 41.5618678,-0.70447871 47.5189331,5.25258665 L68.2167134,25.950367 C74.1732009,31.9068544 74.1737788,41.5618678 68.2167134,47.5189331 L47.5189331,68.2167134 C41.5624457,74.1732009 31.9074323,74.1737788 25.950367,68.2167134 L5.25258665,47.5189331 Z" id="Mask"/><path d="M35.2622925,19.127338 L25.3513293,24.8207298 C24.7031592,25.1930737 24.1173913,26.204457 24.1173913,26.9508357 L24.1173913,45.0491643 C24.1173913,45.7967419 24.7024377,46.8065118 25.3513293,47.1792702 L35.2622925,52.872662 C35.9123985,53.246118 37.0875558,53.2461442 37.7377075,52.872662 L47.6486707,47.1792702 C48.2968408,46.8069263 48.8826087,45.795543 48.8826087,45.0491643 L48.8826087,26.9508357 C48.8826087,26.2032581 48.2975623,25.1934882 47.6486707,24.8207298 L37.7377075,19.127338 C37.0876015,18.753882 35.9124442,18.7538558 35.2622925,19.127338 Z M34.266062,17.3931163 C35.5331119,16.6652545 37.4669634,16.6652978 38.733938,17.3931163 L48.6449012,23.0865082 C49.9144289,23.8157934 50.8826087,25.4868383 50.8826087,26.9508357 L50.8826087,45.0491643 C50.8826087,46.5118422 49.9138117,48.1845612 48.6449012,48.9134918 L38.733938,54.6068837 C37.4668881,55.3347455 35.5330366,55.3347022 34.266062,54.6068837 L24.3550988,48.9134918 C23.0855711,48.1842066 22.1173913,46.5131617 22.1173913,45.0491643 L22.1173913,26.9508357 C22.1173913,25.4881578 23.0861883,23.8154388 24.3550988,23.0865082 L34.266062,17.3931163 Z" id="Shape-Copy"/><path d="M36.5,26.2807962 L29.7521739,30.17587 L29.7521739,41.82413 L36.5,45.7192038 L43.2478261,41.82413 L43.2478261,30.17587 L36.5,26.2807962 Z M36.9999244,24.2600848 L44.7477505,28.7323925 C45.0571942,28.9110139 45.2478261,29.2411648 45.2478261,29.5984615 L45.2478261,42.4015385 C45.2478261,42.7588352 45.0571942,43.0889861 44.7477505,43.2676075 L36.9999244,47.7399152 C36.6905617,47.9184898 36.3094383,47.9184898 36.0000756,47.7399152 L28.2522495,43.2676075 C27.9428058,43.0889861 27.7521739,42.7588352 27.7521739,42.4015385 L27.7521739,29.5984615 C27.7521739,29.2411648 27.9428058,28.9110139 28.2522495,28.7323925 L36.0000756,24.2600848 C36.3094383,24.0815102 36.6905617,24.0815102 36.9999244,24.2600848 Z" id="Shape"/><polygon id="Line" points="37.5 25.5166482 37.5 18 35.5 18 35.5 25.5166482"/><polygon id="Line-Copy-5" points="37.5 53.5166482 37.5 46 35.5 46 35.5 53.5166482"/><polygon id="Line" points="29.2489027 28.2961293 24.2922664 24.5372476 23.0837639 26.1308353 28.0404001 29.889717"/><polygon id="Line" points="44.6332378 30.7739573 50.1332378 26.2739573 48.8667622 24.7260427 43.3667622 29.2260427"/><polygon id="Line" points="43.4189687 43.3582673 48.7874853 47.3174063 49.974542 45.7077801 44.6060254 41.7486412"/><polygon id="Line" points="28.1213799 41.9144568 23.4082997 45.9623584 24.7113884 47.4795795 29.4244686 43.4316779"/></g></g></g></svg>