<?xml version="1.0" encoding="UTF-8"?><svg width="65px" height="80px" viewBox="0 0 65 80" version="1.1" xmlns="http://www.w3.org/2000/svg" xmlns:xlink="http://www.w3.org/1999/xlink"><title>Icon/Achievements/06-Overtime</title><desc>Created with Sketch.</desc><defs/><g id="Page-1" stroke="none" stroke-width="1" fill="none" fill-rule="evenodd"><g id="Icon/Achievements/06-Overtime"><g><path d="M9.140625,6.21443001e-15 L55.859375,6.21443001e-15 L55.859375,5.32907052e-15 C60.9076028,-8.19656842e-17 65,4.09239721 65,9.140625 L65,59.9429806 L65,59.9429806 C65,63.4942357 62.9431103,66.724067 59.7250694,68.225941 L36.3077386,79.1549133 L36.3077386,79.1549133 C33.8529653,80.3005669 31.0164757,80.2983634 28.5634854,79.1488972 L5.26206614,68.2299006 L5.26206614,68.2299006 C2.05101258,66.7252076 2.61375782e-15,63.4990762 5.32907052e-15,59.9529564 L0,9.140625 L1.77635684e-15,9.140625 C1.15812724e-15,4.09239721 4.09239721,9.80910232e-15 9.140625,8.8817842e-15 Z" id="Shield" fill="#1CB0F6"/><g id="Illustration" transform="translate(19.000000, 7.000000)"><g id="Group-25"><path d="M11.1063651,18.8547967 L3.22932615,23.381358 L3.22932615,32.6799961 L23.6817251,32.6799961 L23.6817251,23.381358 L15.8058707,18.8547622 L15.8058707,18.8547622 C15.319438,18.5751882 15.1517459,17.954217 15.4313199,17.4677843 C15.520851,17.3120085 15.6500949,17.1827646 15.8058707,17.0932335 L23.6817251,12.5666377 L23.6817251,3.26799961 L3.22932615,3.26799961 L3.22932615,12.5666377 L11.1063651,17.0931989 L11.1063651,17.0931989 C11.5928169,17.3727397 11.7605514,17.9936995 11.4810106,18.4801513 C11.3914666,18.6359739 11.2621878,18.7652528 11.1063651,18.8547967 Z" id="Combined-Shape" fill="#FFFFFF"/><path d="M14.4534852,10.1894029 L17.9667243,12.8300729 L17.9667243,12.8300729 C18.8143684,13.467191 18.9850333,14.6708286 18.3479152,15.5184727 C17.985234,16.0009964 17.4167479,16.2848683 16.8131198,16.2848683 L9.78664173,16.2848683 L9.78664173,16.2848683 C8.72625501,16.2848683 7.86664173,15.425255 7.86664173,14.3648683 C7.86664173,13.7612403 8.1505136,13.1927541 8.63303729,12.8300729 L12.1462764,10.1894029 L12.1462764,10.1894029 C12.8295958,9.67579667 13.7701657,9.67579667 14.4534852,10.1894029 Z" id="Triangle-3" fill="#FFC800" transform="translate(13.299940, 13.044434) scale(1, -1) translate(-13.299940, -13.044434)"/><path d="M14.6399777,25.4561048 L19.6191794,29.2298139 L19.6191794,29.2298139 C20.4642756,29.8703076 20.6301388,31.0746163 19.989645,31.9197126 C19.6266693,32.3986391 19.060397,32.6799961 18.4594628,32.6799961 L8.45234375,32.6799961 L8.45234375,32.6799961 C7.39195703,32.6799961 6.53234375,31.8203828 6.53234375,30.7599961 C6.53234375,30.1559003 6.81665341,29.5870302 7.29980218,29.2244024 L12.3277196,25.4506933 L12.3277196,25.4506933 C13.0132703,24.9361525 13.956843,24.9383608 14.6399777,25.4561048 Z" id="Triangle-3" fill="#FFC800"/><ellipse id="Oval-6" fill="#FFC800" cx="14.5319677" cy="21.2419974" rx="1.61466307" ry="1.6339998"/><path d="M4.9994926,32.4076628 L21.9115586,32.4076628 L21.9115586,32.4076628 C22.8891946,32.4076628 23.6817251,33.2001933 23.6817251,34.1778292 L23.6817251,34.1778292 L23.6817251,34.1778292 C23.6817251,35.1554651 22.8891946,35.9479957 21.9115586,35.9479957 L4.9994926,35.9479957 L4.9994926,35.9479957 C4.02185666,35.9479957 3.22932615,35.1554651 3.22932615,34.1778292 L3.22932615,34.1778292 L3.22932615,34.1778292 C3.22932615,33.2001933 4.02185666,32.4076628 4.9994926,32.4076628 Z" id="Rectangle-17" fill="#895C27"/><rect id="Rectangle-19" fill="#895C27" x="21.528841" y="4.35733281" width="3.22932615" height="26.1439968"/><path d="M2.03980257,30.5013297 L24.8717742,30.5013297 L24.8717742,30.5013297 C25.8494102,30.5013297 26.6419407,31.2938602 26.6419407,32.2714961 L26.6419407,32.2714961 L26.6419407,32.2714961 C26.6419407,33.249132 25.8494102,34.0416626 24.8717742,34.0416626 L2.03980257,34.0416626 L2.03980257,34.0416626 C1.06216664,34.0416626 0.269636119,33.249132 0.269636119,32.2714961 L0.269636119,32.2714961 L0.269636119,32.2714961 C0.269636119,31.2938602 1.06216664,30.5013297 2.03980257,30.5013297 Z" id="Rectangle-17" fill="#976A34"/><path d="M2.03980257,2.1786664 L24.8717742,2.1786664 L24.8717742,2.1786664 C25.8494102,2.1786664 26.6419407,2.97119692 26.6419407,3.94883286 L26.6419407,3.94883286 L26.6419407,3.94883286 C26.6419407,4.92646879 25.8494102,5.71899931 24.8717742,5.71899931 L2.03980257,5.71899931 L2.03980257,5.71899931 C1.06216664,5.71899931 0.269636119,4.92646879 0.269636119,3.94883286 L0.269636119,3.94883286 L0.269636119,3.94883286 C0.269636119,2.97119692 1.06216664,2.1786664 2.03980257,2.1786664 Z" id="Rectangle-17" fill="#976A34"/><path d="M4.9994926,0.680833251 L21.9115586,0.680833251 L21.9115586,0.680833251 C22.8891946,0.680833251 23.6817251,1.47336377 23.6817251,2.4509997 L23.6817251,2.4509997 L23.6817251,2.4509997 C23.6817251,3.42863564 22.8891946,4.22116616 21.9115586,4.22116616 L4.9994926,4.22116616 L4.9994926,4.22116616 C4.02185666,4.22116616 3.22932615,3.42863564 3.22932615,2.4509997 L3.22932615,2.4509997 L3.22932615,2.4509997 C3.22932615,1.47336377 4.02185666,0.680833251 4.9994926,0.680833251 Z" id="Rectangle-17" fill="#976A34"/><path d="M5.26912872,30.5013297 L11.1471381,30.5013297 L11.1471381,30.5013297 C12.1247741,30.5013297 12.9173046,31.2938602 12.9173046,32.2714961 L12.9173046,32.2714961 L12.9173046,32.2714961 C12.9173046,33.249132 12.1247741,34.0416626 11.1471381,34.0416626 L5.26912872,34.0416626 L5.26912872,34.0416626 C4.29149278,34.0416626 3.49896226,33.249132 3.49896226,32.2714961 L3.49896226,32.2714961 L3.49896226,32.2714961 C3.49896226,31.2938602 4.29149278,30.5013297 5.26912872,30.5013297 Z" id="Rectangle-17" fill="#B48041"/><rect id="Rectangle-19" fill="#976A34" x="2.1528841" y="4.35733281" width="3.22932615" height="26.1439968"/><path d="M5.26912872,2.1786664 L11.1471381,2.1786664 L11.1471381,2.1786664 C12.1247741,2.1786664 12.9173046,2.97119692 12.9173046,3.94883286 L12.9173046,3.94883286 L12.9173046,3.94883286 C12.9173046,4.92646879 12.1247741,5.71899931 11.1471381,5.71899931 L5.26912872,5.71899931 L5.26912872,5.71899931 C4.29149278,5.71899931 3.49896226,4.92646879 3.49896226,3.94883286 L3.49896226,3.94883286 L3.49896226,3.94883286 C3.49896226,2.97119692 4.29149278,2.1786664 5.26912872,2.1786664 Z" id="Rectangle-17" fill="#B48041"/></g></g></g></g></g></svg>