<?xml version="1.0" encoding="UTF-8"?><svg width="73px" height="73px" viewBox="0 0 73 73" version="1.1" xmlns="http://www.w3.org/2000/svg" xmlns:xlink="http://www.w3.org/1999/xlink"><title>achievement_spending_3</title><desc>Created with Sketch.</desc><defs/><g id="Page-1" stroke="none" stroke-width="1" fill="none" fill-rule="evenodd"><g id="gold" transform="translate(-118.000000, -169.000000)"><g id="achievement_spending_3" transform="translate(116.000000, 167.000000)"><g id="bg"><path d="M9.0203536,47.7511662 L29.7181339,68.4489465 C34.6993809,73.4301934 42.7714818,73.4286308 47.7511662,68.4489465 L68.4489465,47.7511662 C73.4301934,42.7699192 73.4286308,34.6978183 68.4489465,29.7181339 L47.7511662,9.0203536 C42.7699192,4.03910668 34.6978183,4.04066925 29.7181339,9.0203536 L9.0203536,29.7181339 C4.03910668,34.6993809 4.04066925,42.7714818 9.0203536,47.7511662 Z M7.25258665,49.5189331 C1.29609921,43.5624457 1.29552129,33.9074323 7.25258665,27.950367 L27.950367,7.25258665 C33.9068544,1.29609921 43.5618678,1.29552129 49.5189331,7.25258665 L70.2167134,27.950367 C76.1732009,33.9068544 76.1737788,43.5618678 70.2167134,49.5189331 L49.5189331,70.2167134 C43.5624457,76.1732009 33.9074323,76.1737788 27.950367,70.2167134 L7.25258665,49.5189331 Z" id="Mask" fill="#D97C1F" fill-rule="nonzero"/><rect id="Mask-Copy" fill="#FFB103" transform="translate(38.734650, 38.734650) rotate(-45.000000) translate(-38.734650, -38.734650)" x="11.3478298" y="11.3478298" width="54.7736404" height="54.7736404" rx="12.75"/><polygon id="Rectangle-12" fill="#FFD986" transform="translate(43.715399, 33.715399) rotate(-45.000000) translate(-43.715399, -33.715399)" points="52.6678889 6.30082242 52.4116936 61.1207783 35.1972455 61.1299762 34.7629097 6.33234987"/></g><g id="lingot" transform="translate(24.000000, 19.000000)"><path d="M14.5,6.26307692 L28.8826087,13.9507692 L28.8826087,34.0491643 C28.8826087,35.1537705 28.1093372,36.5163188 27.1762551,37.0799392 L16.2063536,43.7062147 C15.2639605,44.2754592 13.7267285,44.269835 12.7936464,43.7062147 L1.82374494,37.0799392 C0.881351848,36.5106946 0.117391304,35.1555751 0.117391304,34.0491643 L0.117391304,13.9507692 L14.5,6.26307692 Z" id="Shape" fill="#ED9312" fill-rule="nonzero"/><path d="M12.7641772,2.26022714 C13.7228457,1.70951628 15.2773501,1.70962875 16.2358228,2.26022714 L26.1467859,7.95361901 C27.1054544,8.50432987 27.8826087,9.84442494 27.8826087,10.9508357 L27.8826087,29.0491643 C27.8826087,30.1537705 27.1052586,31.4957826 26.1467859,32.046381 L16.2358228,37.7397729 C15.2771543,38.2904837 13.7226499,38.2903713 12.7641772,37.7397729 L2.85321406,32.046381 C1.89454562,31.4956701 1.1173913,30.1555751 1.1173913,29.0491643 L1.1173913,10.9508357 C1.1173913,9.84622949 1.8947414,8.50421741 2.85321406,7.95361901 L12.7641772,2.26022714 Z" id="Shape-Copy" fill="#FFB103" fill-rule="nonzero"/><path d="M13.2622925,3.12733798 L3.3513293,8.82072985 C2.70315921,9.19307371 2.1173913,10.204457 2.1173913,10.9508357 L2.1173913,29.0491643 C2.1173913,29.7967419 2.70243767,30.8065118 3.3513293,31.1792702 L13.2622925,36.872662 C13.9123985,37.246118 15.0875558,37.2461442 15.7377075,36.872662 L25.6486707,31.1792702 C26.2968408,30.8069263 26.8826087,29.795543 26.8826087,29.0491643 L26.8826087,10.9508357 C26.8826087,10.2032581 26.2975623,9.1934882 25.6486707,8.82072985 L15.7377075,3.12733798 C15.0876015,2.75388205 13.9124442,2.75385575 13.2622925,3.12733798 Z M12.266062,1.3931163 C13.5331119,0.665254491 15.4669634,0.665297762 16.733938,1.3931163 L26.6449012,7.08650817 C27.9144289,7.81579337 28.8826087,9.4868383 28.8826087,10.9508357 L28.8826087,29.0491643 C28.8826087,30.5118422 27.9138117,32.1845612 26.6449012,32.9134918 L16.733938,38.6068837 C15.4668881,39.3347455 13.5330366,39.3347022 12.266062,38.6068837 L2.35509882,32.9134918 C1.0855711,32.1842066 0.117391304,30.5131617 0.117391304,29.0491643 L0.117391304,10.9508357 C0.117391304,9.4881578 1.08618835,7.81543879 2.35509882,7.08650817 L12.266062,1.3931163 Z" id="Shape-Copy-3" fill="#D97C1F" fill-rule="nonzero"/><path d="M14.4794343,37.1603618 C14.4794343,37.1603618 15.2777737,37.148122 15.7338669,36.8763601 C16.1899601,36.6045983 24.9395251,31.5888182 25.5996063,31.1999592 C26.2596875,30.8111003 26.5222154,30.2322691 26.5222154,30.2322691 L21.4014516,25.6727684 L14.4794343,29.364584 L14.4794343,37.1603618 Z" id="Shape" fill="#ED9312" fill-rule="nonzero"/><path d="M14.5293478,2.8470373 C14.5293478,2.8470373 13.6892834,2.87189329 13.3813359,3.04726943 C13.1326691,3.18888518 4.02368211,8.44517972 3.38116058,8.81329462 C2.73863904,9.18140952 2.46737489,9.7730289 2.46737489,9.7730289 L6.97838795,13.8210491 L14.5293478,11.0553846 L14.5293478,2.8470373 Z" id="Shape" fill="#FFC33F" fill-rule="nonzero"/><polygon id="Shape" fill="#FFBD29" fill-rule="nonzero" points="14.5 9.12615385 22.2478261 13.5984615 22.2478261 26.4015385 14.5 30.8738462 6.75217391 26.4015385 6.75217391 13.5984615"/><path d="M7.75217391,14.17587 L7.75217391,25.82413 L14.5,29.7192038 L21.2478261,25.82413 L21.2478261,14.17587 L14.5,10.2807962 L7.75217391,14.17587 Z M14.9999244,8.2600848 L22.7477505,12.7323925 C23.0571942,12.9110139 23.2478261,13.2411648 23.2478261,13.5984615 L23.2478261,26.4015385 C23.2478261,26.7588352 23.0571942,27.0889861 22.7477505,27.2676075 L14.9999244,31.7399152 C14.6905617,31.9184898 14.3094383,31.9184898 14.0000756,31.7399152 L6.25224952,27.2676075 C5.94280584,27.0889861 5.75217391,26.7588352 5.75217391,26.4015385 L5.75217391,13.5984615 C5.75217391,13.2411648 5.94280584,12.9110139 6.25224952,12.7323925 L14.0000756,8.2600848 C14.3094383,8.0815102 14.6905617,8.0815102 14.9999244,8.2600848 Z" id="Shape-Copy-4" fill="#D97C1F" fill-rule="nonzero"/><polygon id="Line" fill="#D97C1F" fill-rule="nonzero" points="15.5 9.51664819 15.5 2 13.5 2 13.5 9.51664819"/><polygon id="Line-Copy-5" fill="#D97C1F" fill-rule="nonzero" points="15.5 37.5166482 15.5 30 13.5 30 13.5 37.5166482"/><path d="M19.0694177,13.4162805 C18.6004685,13.1348946 17.8822107,13.1899712 17.4565279,13.5465143 L8.82235182,20.77832 C8.40052661,21.131632 8.05856971,21.871686 8.05856971,22.4181788 L8.05856971,24.7780113 C8.05856971,25.4393122 8.47023881,25.6278009 8.97061071,25.2053011 L20.5569405,15.4221343 C20.9826187,15.0627038 20.9466721,14.5426984 20.4785913,14.2618337 L19.0694177,13.4162805 Z" id="Shape" fill="#FFE18B" fill-rule="nonzero"/><path d="M20.9761566,18.7756728 C20.5775175,18.3891377 19.9084733,18.3740089 19.4917694,18.73329 L11.2985356,25.7974773 C10.8773704,26.160605 10.7966472,26.8202516 11.116404,27.2682729 L11.0137344,27.1244192 C11.3986164,27.6636896 12.1145099,27.75205 12.6145488,27.3202045 L20.7940327,20.2562068 C21.2932561,19.8250656 21.3186677,19.1077841 20.841524,18.6451281 L20.9761566,18.7756728 Z" id="Shape-Copy-2" fill="#FFE18B" fill-rule="nonzero"/><polygon id="Line" fill="#D97C1F" fill-rule="nonzero" points="7.24890268 12.2961293 2.29226642 8.5372476 1.08376388 10.1308353 6.04040014 13.889717"/><polygon id="Line" fill="#D97C1F" fill-rule="nonzero" points="22.6332378 14.7739573 28.1332378 10.2739573 26.8667622 8.7260427 21.3667622 13.2260427"/><polygon id="Line" fill="#D97C1F" fill-rule="nonzero" points="21.4189687 27.3582673 26.7874853 31.3174063 27.974542 29.7077801 22.6060254 25.7486412"/><polygon id="Line" fill="#D97C1F" fill-rule="nonzero" points="6.12137991 25.9144568 1.4082997 29.9623584 2.71138841 31.4795795 7.42446862 27.4316779"/><circle id="Oval-11-Copy" fill="#FFE18B" cx="10.5" cy="15.5" r="1.5"/></g><g id="sparkle" transform="translate(10.000000, 23.000000)" fill="#FFF0C4"><path d="M3.3154369,17.6337091 L9.76368214,17.6337091 L9.76368214,17.6337091 C10.1613272,17.6337091 10.4836822,17.9560641 10.4836822,18.3537092 L10.4836822,24.8019544 L10.4836822,24.8019544 C10.4836822,25.1995995 10.1613272,25.5219545 9.76368214,25.5219545 L3.3154369,25.5219545 L3.3154369,25.5219545 C2.91779184,25.5219545 2.59543684,25.1995995 2.59543684,24.8019544 L2.59543684,18.3537092 L2.59543684,18.3537092 C2.59543684,17.9560641 2.91779184,17.6337091 3.3154369,17.6337091 Z" id="Rectangle-2-Copy-5" transform="translate(6.539560, 21.577832) rotate(-315.000000) translate(-6.539560, -21.577832)"/><path d="M39.2867428,1.56674277 L43.9358481,1.56674277 L43.9358481,1.56674277 C44.3334932,1.56674277 44.6558482,1.88909777 44.6558482,2.28674282 L44.6558482,6.93584814 L44.6558482,6.93584814 C44.6558482,7.33349319 44.3334932,7.6558482 43.9358481,7.6558482 L39.2867428,7.6558482 L39.2867428,7.6558482 C38.8890978,7.6558482 38.5667428,7.33349319 38.5667428,6.93584814 L38.5667428,2.28674282 L38.5667428,2.28674282 C38.5667428,1.88909777 38.8890978,1.56674277 39.2867428,1.56674277 Z" id="Rectangle-2-Copy-6" transform="translate(41.611295, 4.611295) rotate(-315.000000) translate(-41.611295, -4.611295)"/></g></g></g></g></svg>