<?xml version="1.0" encoding="UTF-8"?><svg width="73px" height="73px" viewBox="0 0 73 73" version="1.1" xmlns="http://www.w3.org/2000/svg" xmlns:xlink="http://www.w3.org/1999/xlink"><title>achievmement_social_0</title><desc>Created with Sketch.</desc><defs/><g id="Page-1" stroke="none" stroke-width="1" fill="none" fill-rule="evenodd"><g id="locked" transform="translate(-120.000000, -447.000000)" fill-rule="nonzero" fill="#D1D1D1"><g id="achievmement_social_0" transform="translate(120.000000, 447.000000)"><path d="M7.0203536,45.7511662 L27.7181339,66.4489465 C32.6993809,71.4301934 40.7714818,71.4286308 45.7511662,66.4489465 L66.4489465,45.7511662 C71.4301934,40.7699192 71.4286308,32.6978183 66.4489465,27.7181339 L45.7511662,7.0203536 C40.7699192,2.03910668 32.6978183,2.04066925 27.7181339,7.0203536 L7.0203536,27.7181339 C2.03910668,32.6993809 2.04066925,40.7714818 7.0203536,45.7511662 Z M5.25258665,47.5189331 C-0.70390079,41.5624457 -0.70447871,31.9074323 5.25258665,25.950367 L25.950367,5.25258665 C31.9068544,-0.70390079 41.5618678,-0.70447871 47.5189331,5.25258665 L68.2167134,25.950367 C74.1732009,31.9068544 74.1737788,41.5618678 68.2167134,47.5189331 L47.5189331,68.2167134 C41.5624457,74.1732009 31.9074323,74.1737788 25.950367,68.2167134 L5.25258665,47.5189331 Z" id="Mask"/><path d="M37.8344765,31.5 C37.8344765,32.87782 38.9582459,34 40.3421543,34 L49.4923222,34 C50.8812656,34 52,32.8824525 52,31.5 C52,30.12218 50.8762306,29 49.4923222,29 L40.3421543,29 C38.9532108,29 37.8344765,30.1175475 37.8344765,31.5 Z M35.8344765,31.5 C35.8344765,29.0125025 37.8491163,27 40.3421543,27 L49.4923222,27 C51.9801669,27 54,29.0169764 54,31.5 C54,33.9874975 51.9853602,36 49.4923222,36 L40.3421543,36 C37.8543095,36 35.8344765,33.9830236 35.8344765,31.5 Z" id="Rectangle-11-Copy-5"/><path d="M37.8344765,38.5 C37.8344765,39.87782 38.9582459,41 40.3421543,41 L49.4923222,41 C50.8812656,41 52,39.8824525 52,38.5 C52,37.12218 50.8762306,36 49.4923222,36 L40.3421543,36 C38.9532108,36 37.8344765,37.1175475 37.8344765,38.5 Z M35.8344765,38.5 C35.8344765,36.0125025 37.8491163,34 40.3421543,34 L49.4923222,34 C51.9801669,34 54,36.0169764 54,38.5 C54,40.9874975 51.9853602,43 49.4923222,43 L40.3421543,43 C37.8543095,43 35.8344765,40.9830236 35.8344765,38.5 Z" id="Rectangle-11-Copy-4"/><path d="M37.8344765,45.5 C37.8344765,46.87782 38.9582459,48 40.3421543,48 L49.4923222,48 C50.8812656,48 52,46.8824525 52,45.5 C52,44.12218 50.8762306,43 49.4923222,43 L40.3421543,43 C38.9532108,43 37.8344765,44.1175475 37.8344765,45.5 Z M35.8344765,45.5 C35.8344765,43.0125025 37.8491163,41 40.3421543,41 L49.4923222,41 C51.9801669,41 54,43.0169764 54,45.5 C54,47.9874975 51.9853602,50 49.4923222,50 L40.3421543,50 C37.8543095,50 35.8344765,47.9830236 35.8344765,45.5 Z" id="Rectangle-11-Copy-3"/><path d="M37,29 L37,21.4919239 C37,20.1177195 35.8802505,19 34.5,19 C33.1211733,19 32,20.1177186 32,21.4919239 L32,45.5 C32,46.8784308 33.1200976,48 34.4981209,48 L49.5018791,48 C50.8824175,48 52,46.8814609 52,45.5 C52,44.2542747 51.0787084,43.1996787 49.8584768,43.0252317 L49,42.902502 L49,41.0971936 L49.8589706,40.9748305 C51.0806545,40.8007978 52,39.7487322 52,38.5 C52,37.2542747 51.0787084,36.1996787 49.8584768,36.0252317 L49,35.902502 L49,34.0971936 L49.8589706,33.9748305 C51.0806545,33.8007978 52,32.7487322 52,31.5 C52,30.1215692 50.8799024,29 49.5018791,29 L37,29 Z M54,45.5 C54,47.9856475 51.9873702,50 49.5018791,50 L34.4981209,50 C32.0149398,50 30,47.9824128 30,45.5 L30,21.4919239 C30,19.0117651 32.0179831,17 34.5,17 C36.9840085,17 39,19.0123368 39,21.4919239 L39,27 L49.5018791,27 C51.9850602,27 54,29.0175872 54,31.5 C54,32.9051821 53.3531329,34.172011 52.3294709,35.0009044 C51.7159552,35.4976887 50.9670941,35.8371658 50.1410294,35.9548414 L50,34.964836 L51,34.964836 L50,35.0352968 L50.1415232,34.0453619 C50.9670837,34.1633858 51.7158843,34.5035392 52.3294709,35.0009044 C53.3527752,35.8303816 54,37.0971223 54,38.5 C54,39.9051821 53.3531329,41.172011 52.3294709,42.0009044 C51.7159552,42.4976887 50.9670941,42.8371658 50.1410294,42.9548414 L50,41.964836 L51,41.964836 L50,42.0352968 L50.1415232,41.0453619 C50.9670837,41.1633858 51.7158843,41.5035392 52.3294709,42.0009044 C53.3527752,42.8303816 54,44.0971223 54,45.5 Z" id="Combined-Shape-Copy-7"/><path d="M21.7791328,32.1035314 L21.7791328,46.1133528 C21.7791328,46.6620612 22.2280314,47.1084421 22.7850518,47.1084421 L25.7732137,47.1084421 C26.3366339,47.1084421 26.7791328,46.6665785 26.7791328,46.1133528 L26.7791328,32.1035314 C26.7791328,31.554823 26.3302342,31.1084421 25.7732137,31.1084421 L22.7850518,31.1084421 C22.2216317,31.1084421 21.7791328,31.5503057 21.7791328,32.1035314 Z M19.7791328,32.1035314 C19.7791328,30.4450925 21.1177049,29.1084421 22.7850518,29.1084421 L25.7732137,29.1084421 C27.4322934,29.1084421 28.7791328,30.4477276 28.7791328,32.1035314 L28.7791328,46.1133528 C28.7791328,47.7717918 27.4405607,49.1084421 25.7732137,49.1084421 L22.7850518,49.1084421 C21.1259722,49.1084421 19.7791328,47.7691567 19.7791328,46.1133528 L19.7791328,32.1035314 Z" id="Rectangle-35-Copy"/></g></g></g></svg>