<?xml version="1.0" encoding="UTF-8"?><svg width="73px" height="73px" viewBox="0 0 73 73" version="1.1" xmlns="http://www.w3.org/2000/svg" xmlns:xlink="http://www.w3.org/1999/xlink"><title>achievmement_items_2</title><desc>Created with Sketch.</desc><defs/><g id="Page-1" stroke="none" stroke-width="1" fill="none" fill-rule="evenodd"><g id="silver" transform="translate(-28.000000, -258.000000)"><g id="achievmement_items_2" transform="translate(26.000000, 256.000000)"><g id="badge-bg"><path d="M9.0203536,47.7511662 L29.7181339,68.4489465 C34.6993809,73.4301934 42.7714818,73.4286308 47.7511662,68.4489465 L68.4489465,47.7511662 C73.4301934,42.7699192 73.4286308,34.6978183 68.4489465,29.7181339 L47.7511662,9.0203536 C42.7699192,4.03910668 34.6978183,4.04066925 29.7181339,9.0203536 L9.0203536,29.7181339 C4.03910668,34.6993809 4.04066925,42.7714818 9.0203536,47.7511662 Z M7.25258665,49.5189331 C1.29609921,43.5624457 1.29552129,33.9074323 7.25258665,27.950367 L27.950367,7.25258665 C33.9068544,1.29609921 43.5618678,1.29552129 49.5189331,7.25258665 L70.2167134,27.950367 C76.1732009,33.9068544 76.1737788,43.5618678 70.2167134,49.5189331 L49.5189331,70.2167134 C43.5624457,76.1732009 33.9074323,76.1737788 27.950367,70.2167134 L7.25258665,49.5189331 Z" id="Border" fill="#6E7E8A" fill-rule="nonzero"/><rect id="Mask-Copy" fill="#AFBDC9" transform="translate(38.734650, 38.734650) rotate(-45.000000) translate(-38.734650, -38.734650)" x="11.3478298" y="11.3478298" width="54.7736404" height="54.7736404" rx="12.75"/><polygon id="Rectangle-12" fill="#E5EDF3" transform="translate(42.715399, 34.715399) rotate(-45.000000) translate(-42.715399, -34.715399)" points="51.6678889 7.30082242 51.4116936 62.1207783 34.1972455 62.1299762 33.7629097 7.33234987"/></g><g id="wizard" transform="translate(19.000000, 13.000000)"><path d="M0.00482619506,23.8485795 C0.00482619506,21.9169096 1.57188954,20.3503948 3.50504289,20.3503948 L37.2539426,20.3503948 C39.187027,20.3503948 40.7541594,21.9183854 40.7541594,23.8485795 C40.7541594,25.7802495 39.187096,27.3467642 37.2539426,27.3467642 L3.50504289,27.3467642 C1.57195859,27.3467642 0.00482619506,25.7787736 0.00482619506,23.8485795 Z" id="Rectangle-34" fill="#94A3AF"/><path d="M8.15239305,22.7569132 L32.6065925,22.7569132 L32.6065925,39.6839609 C32.6065925,46.430614 27.1331455,51.8990506 20.3794928,51.8990506 C13.6271248,51.8990506 8.15239305,46.4292995 8.15239305,39.6839609 L8.15239305,22.7569132 Z" id="Rectangle" fill="#94A3AF"/><path d="M10.0204435,21.0662964 L10.0204435,36.1132093 C10.0204435,41.8373491 14.6583478,46.4756511 20.3794928,46.4756511 C26.1018957,46.4756511 30.7385421,41.8362278 30.7385421,36.1132093 L30.7385421,21.0662964 L10.0204435,21.0662964 Z M8.15239305,19.1980156 L32.6065925,19.1980156 L32.6065925,36.1132093 C32.6065925,42.868365 27.1332774,48.3439317 20.3794928,48.3439317 C13.6262108,48.3439317 8.15239305,42.8687307 8.15239305,36.1132093 L8.15239305,19.1980156 Z" id="Rectangle" fill="#6E7E8A"/><path d="M10.0204435,21.0662964 L10.0204435,36.1132093 C10.0204435,41.8373491 14.6583478,46.4756511 20.3794928,46.4756511 C26.1018957,46.4756511 30.7385421,41.8362278 30.7385421,36.1132093 L30.7385421,21.0662964 L10.0204435,21.0662964 Z" id="Rectangle-Copy-4" fill="#AFBDC9"/><path d="M13.7450455,21.0662964 L13.7450455,28.5302324 C13.7450455,32.2618322 16.7675,35.2862104 20.4958866,35.2862104 C24.225093,35.2862104 27.2467277,32.2614561 27.2467277,28.5302324 L27.2467277,21.0662964 L13.7450455,21.0662964 Z M11.8769951,19.1980156 L29.1147781,19.1980156 L29.1147781,28.5302324 C29.1147781,33.2932608 25.2568073,37.1544912 20.4958866,37.1544912 C15.7354239,37.1544912 11.8769951,33.2932748 11.8769951,28.5302324 L11.8769951,19.1980156 Z" id="Rectangle" fill="#6E7E8A"/><path d="M25.539813,32.7225473 C28.1291892,35.3155467 28.2552565,39.471573 25.8491639,42.2137099 C25.1478149,43.013012 23.9168718,43.0527179 23.1654813,42.3002761 L20.3853845,39.5162893 L17.6052877,42.3002761 C16.8538973,43.0527179 15.6229541,43.013012 14.9216051,42.2137099 C12.5155125,39.471573 12.6415798,35.3155466 15.2309561,32.7225473 C16.6106962,31.3408766 18.4756462,30.6236835 20.3853845,30.6916481 C22.2951228,30.6236835 24.1600728,31.3408766 25.539813,32.7225473 Z" id="Combined-Shape-Copy-2" fill="#6E7E8A" fill-rule="nonzero"/><path d="M20.3853845,32.5326266 C21.7715811,32.4656739 23.17986,32.9622548 24.2384932,34.0223692 C26.1507278,35.9372795 26.2268305,38.9946122 24.4668011,41.0004542 L20.3853845,36.9133268 L16.303968,41.0004542 C14.5439386,38.9946122 14.6200412,35.9372795 16.5322759,34.0223692 C17.5909091,32.9622548 18.9991879,32.4656739 20.3853845,32.5326266 Z" id="Combined-Shape-Copy-2-Copy" fill="#AFBDC9"/><path d="M21.1712246,43.4495267 C20.5893895,43.6957758 19.9300016,43.6942388 19.3522477,43.4499185 C18.8467993,43.2361747 18.2638001,43.4726986 18.0500827,43.9782093 C17.8363652,44.4837201 18.0728599,45.0667911 18.5783083,45.2805349 C19.6493782,45.7334684 20.8673436,45.7363075 21.9457058,45.2799138 C22.4510909,45.0660204 22.687413,44.4828794 22.4735459,43.9774319 C22.2596789,43.4719845 21.6766098,43.2356332 21.1712246,43.4495267 Z" id="Oval-13" fill="#94A3AF"/><path d="M19.6170428,35.1203498 C20.1944922,34.8639824 20.8538065,34.8540098 21.4357359,35.0882085 C21.9448372,35.2930974 22.5236201,35.0464336 22.7284837,34.5372695 C22.9333474,34.0281053 22.686714,33.4492511 22.1776126,33.2443622 C21.0988021,32.8101927 19.8809727,32.8286131 18.8107389,33.3037596 C18.3091632,33.5264417 18.0830531,34.1136188 18.3057078,34.6152563 C18.5283624,35.1168939 19.1154671,35.3430319 19.6170428,35.1203498 Z" id="Oval-13" fill="#E5EDF3"/><path d="M18.011893,4.3021247 L10.4860187,19.9007296 L30.5057545,19.9007296 L22.9798801,4.3021247 C21.6077715,1.45820517 19.3837648,1.45869614 18.011893,4.3021247 Z M16.222078,3.43837795 C18.3169219,-0.903528578 22.6747077,-0.903826075 24.7696952,3.43837795 L33.671229,21.8882623 L7.32054415,21.8882623 L16.222078,3.43837795 Z" id="Triangle" fill="#6E7E8A"/><path d="M18.011893,4.3021247 C19.3837648,1.45869614 21.6077715,1.45820517 22.9798801,4.3021247 L30.5057545,19.9007296 L10.4860187,19.9007296 L18.011893,4.3021247 Z" id="Triangle-Copy" fill="#AFBDC9"/><rect id="Rectangle-38" fill="#6E7E8A" opacity="0.384057971" x="8.1466437" y="23.8636565" width="24.4541994" height="6.76028703"/><path d="M1.87287658,21.532523 C1.87287658,22.4319039 2.60362233,23.1643165 3.50504289,23.1643165 L37.2539426,23.1643165 C38.1550758,23.1643165 38.8861089,22.4337377 38.8861089,21.532523 C38.8861089,20.6331422 38.1553632,19.9007296 37.2539426,19.9007296 L3.50504289,19.9007296 C2.60390978,19.9007296 1.87287658,20.6313084 1.87287658,21.532523 Z M0.00482619506,21.532523 C0.00482619506,19.5993867 1.57231269,18.0324489 3.50504289,18.0324489 L37.2539426,18.0324489 C39.1866034,18.0324489 40.7541594,19.6008633 40.7541594,21.532523 C40.7541594,23.4656594 39.1866729,25.0325972 37.2539426,25.0325972 L3.50504289,25.0325972 C1.57238216,25.0325972 0.00482619506,23.4641828 0.00482619506,21.532523 Z" id="Rectangle-34" fill="#6E7E8A"/><rect id="Rectangle-34-Copy" fill="#AFBDC9" x="1.87287658" y="19.9007296" width="37.0132324" height="3.26358684" rx="1.63179342"/><path d="M22.7229924,28.9946806 C21.9492205,28.9946806 21.3219545,28.3673372 21.3219545,27.59347 C21.3219545,26.8196028 21.9492205,26.1922595 22.7229924,26.1922595 L25.6421343,26.1922595 C26.4159061,26.1922595 27.0431721,26.8196028 27.0431721,27.59347 C27.0431721,28.3673372 26.4159061,28.9946806 25.6421343,28.9946806 L22.7229924,28.9946806 Z" id="Line" fill="#6E7E8A"/><path d="M15.3659489,28.9946806 C14.5921771,28.9946806 13.9649111,28.3673372 13.9649111,27.59347 C13.9649111,26.8196028 14.5921771,26.1922595 15.3659489,26.1922595 L18.5171918,26.1922595 C19.2909636,26.1922595 19.9182295,26.8196028 19.9182295,27.59347 C19.9182295,28.3673372 19.2909636,28.9946806 18.5171918,28.9946806 L15.3659489,28.9946806 Z" id="Line" fill="#6E7E8A"/><path d="M4.35698614,20.7166263 C4.35698614,20.266019 4.72507292,19.9007296 5.17492693,19.9007296 L35.3356476,19.9007296 C35.7873839,19.9007296 36.1535885,20.2628775 36.1535885,20.7166263 L36.1535885,20.7166263 C36.1535885,21.1672336 35.7855016,21.532523 35.3356476,21.532523 L5.17492693,21.532523 C4.72319071,21.532523 4.35698614,21.1703752 4.35698614,20.7166263 L4.35698614,20.7166263 Z" id="Rectangle-37" fill="#E5EDF3"/><path d="M21.848867,13.1547658 L21.848867,12.2793149 C21.848867,11.8676834 22.1825191,11.5339902 22.5940999,11.5339902 C23.0056806,11.5339902 23.3393327,11.8676834 23.3393327,12.2793149 L23.3393327,13.1547658 L24.2306437,13.1547658 C24.6422245,13.1547658 24.9758766,13.4884591 24.9758766,13.9000906 C24.9758766,14.3117221 24.6422245,14.6454153 24.2306437,14.6454153 L23.3393327,14.6454153 L23.3393327,15.5429018 C23.3393327,15.9545333 23.0056806,16.2882265 22.5940999,16.2882265 C22.1825191,16.2882265 21.848867,15.9545333 21.848867,15.5429018 L21.848867,14.6454153 L20.971617,14.6454153 C20.5600363,14.6454153 20.2263841,14.3117221 20.2263841,13.9000906 C20.2263841,13.4884591 20.5600363,13.1547658 20.971617,13.1547658 L21.848867,13.1547658 Z" id="Combined-Shape" fill="#94A3AF"/><rect id="Rectangle-39" fill="#E5EDF3" transform="translate(18.516411, 8.584874) rotate(24.000000) translate(-18.516411, -8.584874)" x="17.2743559" y="2.87649671" width="2.48410956" height="11.4167551" rx="1.24205478"/></g><g id="sparkle" transform="translate(13.000000, 22.000000)" fill="#FFFFFF"><path d="M34.3148289,1.54006548 L38.8748288,1.54006548 L38.8748288,1.54006548 C39.2724739,1.54006548 39.5948289,1.86242049 39.5948289,2.26006554 L39.5948289,6.82006543 L39.5948289,6.82006543 C39.5948289,7.21771048 39.2724739,7.54006548 38.8748288,7.54006548 L34.3148289,7.54006548 L34.3148289,7.54006548 C33.9171839,7.54006548 33.5948289,7.21771048 33.5948289,6.82006543 L33.5948289,2.26006554 L33.5948289,2.26006554 C33.5948289,1.86242049 33.9171839,1.54006548 34.3148289,1.54006548 Z" id="Rectangle-2-Copy-15" transform="translate(36.594829, 4.540065) rotate(-315.000000) translate(-36.594829, -4.540065)"/><path d="M2.37685431,21.6568542 L8.93685419,21.6568542 L8.93685419,21.6568542 C9.33449924,21.6568542 9.65685425,21.9792093 9.65685425,22.3768543 L9.65685425,28.9368542 L9.65685425,28.9368542 C9.65685425,29.3344992 9.33449924,29.6568542 8.93685419,29.6568542 L2.37685431,29.6568542 L2.37685431,29.6568542 C1.97920926,29.6568542 1.65685425,29.3344992 1.65685425,28.9368542 L1.65685425,22.3768543 L1.65685425,22.3768543 C1.65685425,21.9792093 1.97920926,21.6568542 2.37685431,21.6568542 Z" id="Rectangle-2-Copy-29" transform="translate(5.656854, 25.656854) rotate(-315.000000) translate(-5.656854, -25.656854)"/></g></g></g></g></svg>