<?xml version="1.0" encoding="UTF-8"?><svg width="73px" height="73px" viewBox="0 0 73 73" version="1.1" xmlns="http://www.w3.org/2000/svg" xmlns:xlink="http://www.w3.org/1999/xlink"><title>achievement_perfect_3</title><desc>Created with Sketch.</desc><defs/><g id="Page-1" stroke="none" stroke-width="1" fill="none" fill-rule="evenodd"><g id="gold" transform="translate(-118.000000, -78.000000)"><g id="achievement_perfect_3" transform="translate(116.000000, 76.000000)"><g id="bg"><path d="M9.0203536,47.7511662 L29.7181339,68.4489465 C34.6993809,73.4301934 42.7714818,73.4286308 47.7511662,68.4489465 L68.4489465,47.7511662 C73.4301934,42.7699192 73.4286308,34.6978183 68.4489465,29.7181339 L47.7511662,9.0203536 C42.7699192,4.03910668 34.6978183,4.04066925 29.7181339,9.0203536 L9.0203536,29.7181339 C4.03910668,34.6993809 4.04066925,42.7714818 9.0203536,47.7511662 Z M7.25258665,49.5189331 C1.29609921,43.5624457 1.29552129,33.9074323 7.25258665,27.950367 L27.950367,7.25258665 C33.9068544,1.29609921 43.5618678,1.29552129 49.5189331,7.25258665 L70.2167134,27.950367 C76.1732009,33.9068544 76.1737788,43.5618678 70.2167134,49.5189331 L49.5189331,70.2167134 C43.5624457,76.1732009 33.9074323,76.1737788 27.950367,70.2167134 L7.25258665,49.5189331 Z" id="Mask" fill="#D97C1F" fill-rule="nonzero"/><rect id="Mask-Copy" fill="#FFB103" transform="translate(38.734650, 38.734650) rotate(-45.000000) translate(-38.734650, -38.734650)" x="11.3478298" y="11.3478298" width="54.7736404" height="54.7736404" rx="12.75"/><polygon id="Rectangle-12-Copy" fill="#FFD986" transform="translate(42.692914, 34.692914) rotate(-45.000000) translate(-42.692914, -34.692914)" points="51.6445011 7.30923394 51.6445011 62.0673957 34.4300531 62.0765937 33.7413265 7.60340799"/></g><g id="target" transform="translate(21.000000, 21.000000)"><path d="M20.4725269,36.3895882 C28.0569032,34.7906309 33.75,28.0601625 33.75,20 C33.75,10.7492304 26.2507696,3.25 17,3.25 C7.74923044,3.25 0.25,10.7492304 0.25,20 C0.25,28.0601625 5.94309677,34.7906309 13.5274731,36.3895882 C12.9309496,37.0046069 12.5,37.9596151 12.5,38.7496128 L12.5,43.5003872 C12.5,44.4589553 13.1485596,44.817627 13.9485983,44.2842678 L15.5514017,43.2157322 C16.3552597,42.6798269 17,41.4666717 17,40.5003872 L17,38.6251936 L17,40.5003872 C17,41.4666717 17.6447403,42.6798269 18.4485983,43.2157322 L20.0514017,44.2842678 C20.8514404,44.817627 21.5,44.4589553 21.5,43.5003872 L21.5,38.7496128 C21.5,37.9596151 21.0690504,37.0046069 20.4725269,36.3895882 Z" id="Combined-Shape" fill="#ED9312"/><path d="M16.875,33.75 C26.1948052,33.75 33.75,26.1948052 33.75,16.875 C33.75,7.55519485 26.1948052,0 16.875,0 C7.55519485,0 0,7.55519485 0,16.875 C0,26.1948052 7.55519485,33.75 16.875,33.75 Z" id="Oval-12" fill="#D97C1F" fill-rule="nonzero"/><circle id="Oval-12-Copy" fill="#FFB103" cx="16.875" cy="16.875" r="14.875"/><path d="M28.1533978,7.85187834 C25.4406879,4.52256227 21.3826758,2.55121399 17.0040011,2.55121399 C12.5924122,2.55121399 8.50717859,4.55247794 5.79576137,7.92457587 C5.4064239,8.40878172 5.48332992,9.1169285 5.96753577,9.50626596 C6.45174162,9.89560343 7.1598884,9.81869742 7.54922586,9.33449157 C9.83800026,6.48802023 13.2813229,4.80121399 17.0040011,4.80121399 C20.698934,4.80121399 24.119243,6.4627715 26.4091022,9.27312166 C26.8015677,9.75479561 27.5101977,9.82711335 27.9918717,9.43464784 C28.4735456,9.04218233 28.5458633,8.33355229 28.1533978,7.85187834 Z" id="Oval-12" fill="#FFE18B" fill-rule="nonzero"/><path d="M17,28.75 C23.4893458,28.75 28.75,23.4893458 28.75,17 C28.75,10.5106542 23.4893458,5.25 17,5.25 C10.5106542,5.25 5.25,10.5106542 5.25,17 C5.25,23.4893458 10.5106542,28.75 17,28.75 Z" id="Oval-12" fill="#D97C1F" fill-rule="nonzero"/><circle id="Oval-12-Copy-2" fill="#FFBD28" cx="17" cy="17" r="9.75"/><path d="M16.875,22.75 C20.1196729,22.75 22.75,20.1196729 22.75,16.875 C22.75,13.6303271 20.1196729,11 16.875,11 C13.6303271,11 11,13.6303271 11,16.875 C11,20.1196729 13.6303271,22.75 16.875,22.75 Z" id="Oval-12" fill="#D97C1F" fill-rule="nonzero"/><circle id="Oval-12-Copy-3" fill="#FFB103" cx="16.875" cy="16.875" r="3.875"/><rect id="Rectangle-26" fill="#ED9312" x="15.8206007" y="16.75" width="2.75" height="17"/><path d="M23.3543537,11.054368 C21.8055924,9.15356924 19.4875627,8.0274898 16.9873757,8.0274898 C14.4683882,8.0274898 12.1348251,9.17064979 10.5868034,11.0958721 C10.1974659,11.5800779 10.274372,12.2882247 10.7585778,12.6775622 C11.2427836,13.0668996 11.9509304,12.9899936 12.3402679,12.5057878 C13.4656468,11.1061921 15.1572989,10.2774898 16.9873757,10.2774898 C18.8038208,10.2774898 20.4841475,11.0937785 21.610058,12.4756114 C22.0025235,12.9572853 22.7111536,13.0296031 23.1928275,12.6371375 C23.6745015,12.244672 23.7468192,11.536042 23.3543537,11.054368 Z" id="Oval-12" fill="#FFE18B" fill-rule="nonzero"/><path d="M16.6956007,18 L40.3078208,18 C40.8601056,18 41.3078208,17.5522847 41.3078208,17 C41.3078208,16.4477153 40.8601056,16 40.3078208,16 L16.6956007,16 C16.1433159,16 15.6956007,16.4477153 15.6956007,17 C15.6956007,17.5522847 16.1433159,18 16.6956007,18 Z" id="Line" fill="#D97C1F" fill-rule="nonzero"/><path d="M31.9555333,15.6181241 C31.2228865,16.7452731 31.90528,18 33.2500531,18 L39.7499469,18 C40.6403468,18 41.6474588,17.4541958 42.1324205,16.7081008 L44.2944667,13.3818759 C45.0271135,12.2547269 44.34472,11 42.9999469,11 L36.5000531,11 C35.6096532,11 34.6025412,11.5458042 34.1175795,12.2918992 L31.9555333,15.6181241 Z" id="Rectangle-25" fill="#D97C1F" fill-rule="nonzero"/><path d="M40.4555333,15.6181241 C40.3397358,15.7962741 39.963823,16 39.7499469,16 L34.092686,16 L35.7944667,13.3818759 C35.9102642,13.2037259 36.286177,13 36.5000531,13 L42.157314,13 L40.4555333,15.6181241 Z" id="Fill" fill="#FFB103"/><path d="M34.1175795,21.7081008 C34.6025412,22.4541958 35.6096532,23 36.5000531,23 L42.9999469,23 C44.34472,23 45.0271135,21.7452731 44.2944667,20.6181241 L42.1324205,17.2918992 C41.6474588,16.5458042 40.6403468,16 39.7499469,16 L33.2500531,16 C31.90528,16 31.2228865,17.2547269 31.9555333,18.3818759 L34.1175795,21.7081008 Z" id="Rectangle-25" fill="#D97C1F" fill-rule="nonzero"/><path d="M39.7499469,18 C39.963823,18 40.3397358,18.2037259 40.4555333,18.3818759 L42.157314,21 L36.5000531,21 C36.286177,21 35.9102642,20.7962741 35.7944667,20.6181241 L34.092686,18 L39.7499469,18 Z" id="Fill" fill="#FFB103"/></g><g id="sparkle" transform="translate(10.000000, 28.000000)" fill="#FFF0C4"><path d="M2.35370916,12.6337091 L8.80195441,12.6337091 L8.80195441,12.6337091 C9.19959946,12.6337091 9.52195447,12.9560641 9.52195447,13.3537092 L9.52195447,19.8019544 L9.52195447,19.8019544 C9.52195447,20.1995995 9.19959946,20.5219545 8.80195441,20.5219545 L2.35370916,20.5219545 L2.35370916,20.5219545 C1.95606411,20.5219545 1.63370911,20.1995995 1.63370911,19.8019544 L1.63370911,13.3537092 L1.63370911,13.3537092 C1.63370911,12.9560641 1.95606411,12.6337091 2.35370916,12.6337091 Z" id="Rectangle-2-Copy-8" transform="translate(5.577832, 16.577832) rotate(-315.000000) translate(-5.577832, -16.577832)"/><path d="M51.9626407,1.24264069 L56.5226406,1.24264069 L56.5226406,1.24264069 C56.9202857,1.24264069 57.2426407,1.56499569 57.2426407,1.96264074 L57.2426407,6.52264063 L57.2426407,6.52264063 C57.2426407,6.92028568 56.9202857,7.24264069 56.5226406,7.24264069 L51.9626407,7.24264069 L51.9626407,7.24264069 C51.5649957,7.24264069 51.2426407,6.92028568 51.2426407,6.52264063 L51.2426407,1.96264074 L51.2426407,1.96264074 C51.2426407,1.56499569 51.5649957,1.24264069 51.9626407,1.24264069 Z" id="Rectangle-2-Copy-7" transform="translate(54.242641, 4.242641) rotate(-315.000000) translate(-54.242641, -4.242641)"/></g></g></g></g></svg>