<?xml version="1.0" encoding="UTF-8"?><svg width="73px" height="73px" viewBox="0 0 73 73" version="1.1" xmlns="http://www.w3.org/2000/svg" xmlns:xlink="http://www.w3.org/1999/xlink"><title>achievmement_gold_skills_0</title><desc>Created with Sketch.</desc><defs/><g id="Page-1" stroke="none" stroke-width="1" fill="none" fill-rule="evenodd"><g id="locked" transform="translate(-29.000000, -447.000000)" fill-rule="nonzero" fill="#D1D1D1"><g id="achievmement_gold_skills_0" transform="translate(29.000000, 447.000000)"><path d="M7.0203536,45.7511662 L27.7181339,66.4489465 C32.6993809,71.4301934 40.7714818,71.4286308 45.7511662,66.4489465 L66.4489465,45.7511662 C71.4301934,40.7699192 71.4286308,32.6978183 66.4489465,27.7181339 L45.7511662,7.0203536 C40.7699192,2.03910668 32.6978183,2.04066925 27.7181339,7.0203536 L7.0203536,27.7181339 C2.03910668,32.6993809 2.04066925,40.7714818 7.0203536,45.7511662 Z M5.25258665,47.5189331 C-0.70390079,41.5624457 -0.70447871,31.9074323 5.25258665,25.950367 L25.950367,5.25258665 C31.9068544,-0.70390079 41.5618678,-0.70447871 47.5189331,5.25258665 L68.2167134,25.950367 C74.1732009,31.9068544 74.1737788,41.5618678 68.2167134,47.5189331 L47.5189331,68.2167134 C41.5624457,74.1732009 31.9074323,74.1737788 25.950367,68.2167134 L5.25258665,47.5189331 Z" id="Border"/><path d="M26.4594595,45.4738653 L26.4594595,46.5636347 C26.4594595,47.1686069 26.9404831,47.65 27.5338557,47.65 L46.4661443,47.65 C47.0606239,47.65 47.5405405,47.1636177 47.5405405,46.5636347 L47.5405405,45.4738653 C47.5405405,44.8688931 47.0595169,44.3875 46.4661443,44.3875 L27.5338557,44.3875 C26.9393761,44.3875 26.4594595,44.8738823 26.4594595,45.4738653 Z M24.4594595,45.4738653 C24.4594595,43.7741701 25.829876,42.3875 27.5338557,42.3875 L46.4661443,42.3875 C48.1693489,42.3875 49.5405405,43.7695687 49.5405405,45.4738653 L49.5405405,46.5636347 C49.5405405,48.2633299 48.170124,49.65 46.4661443,49.65 L27.5338557,49.65 C25.8306511,49.65 24.4594595,48.2679313 24.4594595,46.5636347 L24.4594595,45.4738653 Z" id="Mask"/><path d="M24.4711754,25.5317291 L25.6369327,36.0557709 C25.7033793,36.6556277 26.2423353,37.1375 26.8413267,37.1375 L47.1586733,37.1375 C47.7526687,37.1375 48.2968903,36.6531934 48.3630673,36.0557709 L49.5288246,25.5317291 C49.5952712,24.9318723 49.276158,24.7534027 48.8166674,25.1276689 L43.8049542,29.2098311 C43.3510134,29.5795769 42.6743695,29.502402 42.3060234,29.0273595 L38.0183009,23.4976405 C37.6535941,23.0272915 37.0445876,23.0098501 36.6661754,23.4691672 L32.0635543,29.0558328 C31.6827907,29.5180041 30.9926039,29.5889884 30.5167269,29.2207558 L25.2130028,25.1167442 C24.7291548,24.7423436 24.4049984,24.9343066 24.4711754,25.5317291 Z M35.1225641,22.1974502 C36.3204598,20.7434433 38.4522082,20.7933525 39.5988279,22.2721061 L43.2982226,27.0430803 L47.5535923,23.5769784 C49.4168775,22.0592873 51.7779676,23.3929872 51.5166662,25.7519241 L50.3509089,36.2759658 C50.1727062,37.8847169 48.7738644,39.1375 47.1586733,39.1375 L26.8413267,39.1375 C25.2213948,39.1375 23.8275916,37.8874053 23.6490911,36.2759658 L22.4833338,25.7519241 C22.2232143,23.4036578 24.5529537,22.0771551 26.436958,23.5349941 L31.0682004,27.1186405 L35.1225641,22.1974502 Z" id="Mask"/></g></g></g></svg>