<?xml version="1.0" encoding="UTF-8"?><svg width="65px" height="80px" viewBox="0 0 65 80" version="1.1" xmlns="http://www.w3.org/2000/svg" xmlns:xlink="http://www.w3.org/1999/xlink"><title>Icon/Achievements/02-Inner-Circle</title><desc>Created with Sketch.</desc><defs/><g id="Page-1" stroke="none" stroke-width="1" fill="none" fill-rule="evenodd"><g id="Icon/Achievements/02-Inner-Circle"><g><path d="M9.140625,6.21443001e-15 L55.859375,6.21443001e-15 L55.859375,5.32907052e-15 C60.9076028,-8.19656842e-17 65,4.09239721 65,9.140625 L65,59.9429806 L65,59.9429806 C65,63.4942357 62.9431103,66.724067 59.7250694,68.225941 L36.3077386,79.1549133 L36.3077386,79.1549133 C33.8529653,80.3005669 31.0164757,80.2983634 28.5634854,79.1488972 L5.26206614,68.2299006 L5.26206614,68.2299006 C2.05101258,66.7252076 2.61375782e-15,63.4990762 5.32907052e-15,59.9529564 L0,9.140625 L1.77635684e-15,9.140625 C1.15812724e-15,4.09239721 4.09239721,9.80910232e-15 9.140625,8.8817842e-15 Z" id="Shield" fill="#FA811B"/><g id="Illustration" transform="translate(14.300000, 8.000000)"><path d="M5.96899998,4.68999958 L29.914618,4.68999958 L29.914618,4.68999958 C30.4497819,4.68999958 30.883618,5.12383565 30.883618,5.65899956 L30.883618,19.5827866 L30.883618,19.5827866 C30.883618,26.7303503 25.0893727,32.5245955 17.941809,32.5245955 L17.941809,32.5245955 L17.941809,32.5245955 C10.7942452,32.5245955 5,26.7303503 5,19.5827866 L5,5.65899956 L5,5.65899956 C5,5.12383565 5.43383607,4.68999958 5.96899998,4.68999958 Z" id="Mask" fill="#39D4FF"/><path d="M24.8463372,5.4127007 L29.4127202,5.4127007 C29.9528222,5.4127007 30.3906614,5.8498449 30.3906614,6.38908959 L30.3906614,11.9406448 L11.3788627,30.6592871 C8.82610884,29.2208811 6.85645246,26.8718419 5.91221547,24.0537894 L24.8463372,5.4127007 L24.8463372,5.4127007 Z" id="Combined-Shape" fill="#128FE7"/><path d="M18.2382973,4.88688214 L5.65420093,4.79652758 C5.11409893,4.79652758 4.67625975,5.23367177 4.67625975,5.77291647 L4.67625975,20.4615674 C4.67625975,27.0035904 11.7021685,32.6520536 18.2382973,32.7208031 L18.2382973,4.88688214 Z" id="Combined-Shape" fill-opacity="0.144927536" fill="#000000"/><path d="M6.60638309,5.48683305 C6.06087462,5.48683305 5.61865263,5.92890779 5.61865263,6.47423462 L5.61865263,19.5554858 C5.61865263,26.2145661 11.0187019,31.6128173 17.6800003,31.6128173 C24.3412987,31.6128173 29.741348,26.2145661 29.741348,19.5554858 L29.741348,6.47423462 C29.741348,5.92890779 29.299126,5.48683305 28.7536175,5.48683305 L6.60638309,5.48683305 Z M6.60638309,0.549825175 L28.7536175,0.549825175 C32.0266684,0.549825175 34.6800003,3.20227363 34.6800003,6.47423462 L34.6800003,19.5554858 C34.6800003,28.9412003 27.0688411,36.5498252 17.6800003,36.5498252 C8.29115956,36.5498252 0.680000305,28.9412003 0.680000305,19.5554858 L0.680000305,6.47423462 C0.680000305,3.20227363 3.33333226,0.549825175 6.60638309,0.549825175 Z" id="Mask" fill="#DBDBDB" fill-rule="nonzero"/><path d="M18,4.19696018 C18.5522847,4.19696018 19,3.74992538 19,3.19848 C19,2.64703462 18.5522847,2.19999981 18,2.19999981 C17.4477153,2.19999981 17,2.64703462 17,3.19848 C17,3.74992538 17.4477153,4.19696018 18,4.19696018 Z" id="Oval-13-Copy" fill="#F5F5F5"/><path d="M18,35.0969588 C18.5522847,35.0969588 19,34.649924 19,34.0984787 C19,33.5470333 18.5522847,33.0999985 18,33.0999985 C17.4477153,33.0999985 17,33.5470333 17,34.0984787 C17,34.649924 17.4477153,35.0969588 18,35.0969588 Z" id="Oval-13-Copy-2" fill="#F5F5F5"/><path d="M4.25948767,5.12563131 C4.80909425,5.12563131 5.25463841,4.68076429 5.25463841,4.13199301 C5.25463841,3.58322172 4.80909425,3.1383547 4.25948767,3.1383547 C3.70988108,3.1383547 3.26433692,3.58322172 3.26433692,4.13199301 C3.26433692,4.68076429 3.70988108,5.12563131 4.25948767,5.12563131 Z" id="Oval-13" fill="#F5F5F5"/><path d="M3.25948767,18.1256313 C3.80909425,18.1256313 4.25463841,17.6807643 4.25463841,17.131993 C4.25463841,16.5832217 3.80909425,16.1383547 3.25948767,16.1383547 C2.70988108,16.1383547 2.26433692,16.5832217 2.26433692,17.131993 C2.26433692,17.6807643 2.70988108,18.1256313 3.25948767,18.1256313 Z" id="Oval-13" fill="#F5F5F5"/><path d="M31.2594877,5.12563131 C31.8090942,5.12563131 32.2546384,4.68076429 32.2546384,4.13199301 C32.2546384,3.58322172 31.8090942,3.1383547 31.2594877,3.1383547 C30.7098811,3.1383547 30.2643369,3.58322172 30.2643369,4.13199301 C30.2643369,4.68076429 30.7098811,5.12563131 31.2594877,5.12563131 Z" id="Oval-13" fill="#F5F5F5"/><path d="M32.2594877,18.1256313 C32.8090942,18.1256313 33.2546384,17.6807643 33.2546384,17.131993 C33.2546384,16.5832217 32.8090942,16.1383547 32.2594877,16.1383547 C31.7098811,16.1383547 31.2643369,16.5832217 31.2643369,17.131993 C31.2643369,17.6807643 31.7098811,18.1256313 32.2594877,18.1256313 Z" id="Oval-13" fill="#F5F5F5"/><path d="M28.7117858,30.5360334 C29.2613924,30.5360334 29.7069365,30.0911664 29.7069365,29.5423951 C29.7069365,28.9936238 29.2613924,28.5487568 28.7117858,28.5487568 C28.1621792,28.5487568 27.716635,28.9936238 27.716635,29.5423951 C27.716635,30.0911664 28.1621792,30.5360334 28.7117858,30.5360334 Z" id="Oval-13" fill="#F5F5F5"/><path d="M6.81846932,30.5360334 C7.36807591,30.5360334 7.81362007,30.0911664 7.81362007,29.5423951 C7.81362007,28.9936238 7.36807591,28.5487568 6.81846932,28.5487568 C6.26886274,28.5487568 5.82331857,28.9936238 5.82331857,29.5423951 C5.82331857,30.0911664 6.26886274,30.5360334 6.81846932,30.5360334 Z" id="Oval-13" fill="#F5F5F5"/></g></g></g></g></svg>