<?xml version="1.0" encoding="UTF-8"?><svg width="65px" height="80px" viewBox="0 0 65 80" version="1.1" xmlns="http://www.w3.org/2000/svg" xmlns:xlink="http://www.w3.org/1999/xlink"><title>Icon/Achievements/10-Champion</title><desc>Created with Sketch.</desc><defs/><g id="Page-1" stroke="none" stroke-width="1" fill="none" fill-rule="evenodd"><g id="Icon/Achievements/10-Champion"><g transform="translate(-7.000000, -11.000000)"><path d="M16.140625,11 L62.859375,11 L62.859375,11 C67.9076028,11 72,15.0923972 72,20.140625 L72,70.9429806 L72,70.9429806 C72,74.4942357 69.9431103,77.724067 66.7250694,79.225941 L43.3077386,90.1549133 L43.3077386,90.1549133 C40.8529653,91.3005669 38.0164757,91.2983634 35.5634854,90.1488972 L12.2620661,79.2299006 L12.2620661,79.2299006 C9.05101258,77.7252076 7,74.4990762 7,70.9529564 L7,20.140625 L7,20.140625 C7,15.0923972 11.0923972,11 16.140625,11 Z" id="Shield" fill="#E53B3B"/><g id="Illustration"><g id="Group-11"><g id="Group-10" transform="translate(40.265855, 38.608898) rotate(-315.000000) translate(-40.265855, -38.608898) translate(13.345473, 11.432428)"><g id="Group" transform="translate(26.788987, 27.270630) scale(-1, 1) rotate(-232.000000) translate(-26.788987, -27.270630) translate(6.410006, 9.404617)"><g id="Group-20" transform="translate(20.363359, 17.862083) rotate(-128.000000) translate(-20.363359, -17.862083) translate(14.325142, -3.023538)"><g id="Line-2-+-Line-2-Mask" transform="translate(3.037727, 0.470144)"><path d="M-6.9162596,7.83587139 L11.1598669,7.83587139 L11.1598669,7.83587139 C12.242345,7.83587139 13.1198669,8.71339329 13.1198669,9.79587142 L13.1198669,11.2476359 L13.1198669,11.2476359 C13.1198669,12.330114 12.242345,13.2076359 11.1598669,13.2076359 L-6.9162596,13.2076359 L-6.9162596,7.83587139 Z" id="Mask" fill="#8D4300" transform="translate(3.101804, 10.521754) rotate(-270.000000) translate(-3.101804, -10.521754)"/><path d="M5.78724157,2.89985941 L5.78724157,6.05705844 L0.622129248,11.1583319 C0.55823424,11.2214371 0.489188916,11.276134 0.416365727,11.3224311 L0.416365727,7.89585106 L5.13329688,3.23721946 C5.31900379,3.05380782 5.5482174,2.94142525 5.78724157,2.89985941 L5.78724157,2.89985941 Z" id="Combined-Shape" fill="#793A01"/><path d="M0.416365727,3.98818194 L0.416365727,0.561601861 L0.476680304,0.50203275 L3.98575231,0.50203275 L0.622129248,3.82408265 C0.55823424,3.88718794 0.489188916,3.94188482 0.416365727,3.98818194 L0.416365727,3.98818194 Z" id="Combined-Shape" fill="#793A01"/></g><g id="Rectangle-114" transform="translate(0.113915, 11.199048)"><path d="M0.493630573,-1.38555833e-13 L11.3989772,-1.38555833e-13 L11.2101318,23.4391468 C11.2084109,23.6527413 11.1374145,23.8600058 11.0078155,24.0297823 L6.64454387,29.7457282 C6.31400982,30.1787323 5.69509787,30.2617564 5.26216536,29.9311677 C5.19814881,29.8822844 5.14036029,29.8257422 5.09009085,29.7628042 L0.520605146,24.0417472 C0.379276324,23.8648016 0.303129857,23.6446049 0.304954456,23.4181389 L0.493630573,-1.38555833e-13 Z" id="Mask" fill="#E2E2E2"/><polygon id="Combined-Shape" fill="#FFFFFF" points="10.4120278 -1.30444675e-13 11.3989772 -1.30444675e-13 11.3092774 11.1333759 0.315339769 22.1291327 0.413057172 10.0006251 10.4120278 -1.31450406e-13"/><path d="M1.01170026,-4.18210129e-13 L11.3989772,-4.18210129e-13 L11.2101318,23.4391468 C11.2084109,23.6527413 11.1374145,23.8600058 11.0078155,24.0297823 L6.64454387,29.7457282 C6.43941881,30.0144448 6.12323138,30.1483743 5.80935548,30.1323082 L5.80935548,19.5518539 L0.336104483,19.5518539 L0.379672624,14.1442549 L5.80935548,14.1442549 L5.80935548,5.83808068 C3.99591222,5.86448967 2.20244818,6.13560628 0.440098747,6.64427362 L0.492602667,0.127581895 C0.665385612,0.0829937776 0.838421083,0.0404646715 1.01170026,-4.36983782e-13 L1.01170026,-4.18210129e-13 Z" id="Combined-Shape" fill="#D7C1C1"/><path d="M1.01170026,-4.60842693e-13 L11.3989772,-4.60842693e-13 L11.2101318,23.4391468 C11.2084109,23.6527413 11.1374145,23.8600058 11.0078155,24.0297823 L6.64454387,29.7457282 C6.43941881,30.0144448 6.12323138,30.1483743 5.80935548,30.1323082 L5.80935548,19.5518539 L0.336104483,19.5518539 L0.379672624,14.1442549 L5.80935548,14.1442549 L5.80935548,5.83808068 C3.99591222,5.86448967 2.20244818,6.13560628 0.440098747,6.64427362 L0.492602667,0.127581895 C0.665385612,0.0829937776 0.838421083,0.0404646715 1.01170026,-4.79616347e-13 L1.01170026,-4.60842693e-13 Z" id="Combined-Shape" fill="#D7C1C1"/></g></g><path d="M1.82383577,29.0503556 L4.87823447,32.9599725" id="Line-4" stroke="#FCD000" stroke-width="3.43000007" stroke-linecap="round"/></g><rect id="Rectangle-7" fill="#FCD000" x="18.2547771" y="14.8095417" width="16.7834395" height="4.4428625" rx="2.22143125"/></g><g id="Group-10" transform="translate(38.723140, 38.608898) scale(-1, 1) rotate(-315.000000) translate(-38.723140, -38.608898) translate(11.802757, 11.432428)"><g id="Group" transform="translate(26.788987, 27.270630) scale(-1, 1) rotate(-232.000000) translate(-26.788987, -27.270630) translate(6.410006, 9.404617)"><g id="Line-2-+-Line-2-Mask" transform="translate(12.395499, 24.064656) rotate(-128.000000) translate(-12.395499, -24.064656) translate(9.376391, 13.747663)"><path d="M-6.9162596,7.83587139 L11.1598669,7.83587139 L11.1598669,7.83587139 C12.242345,7.83587139 13.1198669,8.71339329 13.1198669,9.79587142 L13.1198669,11.2476359 L13.1198669,11.2476359 C13.1198669,12.330114 12.242345,13.2076359 11.1598669,13.2076359 L-6.9162596,13.2076359 L-6.9162596,7.83587139 Z" id="Mask" fill="#8D4300" transform="translate(3.101804, 10.521754) rotate(-270.000000) translate(-3.101804, -10.521754)"/><path d="M5.78724157,2.89985941 L5.78724157,6.05705844 L0.622129248,11.1583319 C0.55823424,11.2214371 0.489188916,11.276134 0.416365727,11.3224311 L0.416365727,7.89585106 L5.13329688,3.23721946 C5.31900379,3.05380782 5.5482174,2.94142525 5.78724157,2.89985941 L5.78724157,2.89985941 Z" id="Combined-Shape" fill="#793A01"/><path d="M0.416365727,3.98818194 L0.416365727,0.561601861 L0.476680304,0.50203275 L3.98575231,0.50203275 L0.622129248,3.82408265 C0.55823424,3.88718794 0.489188916,3.94188482 0.416365727,3.98818194 L0.416365727,3.98818194 Z" id="Combined-Shape" fill="#793A01"/></g><g id="Rectangle-114" transform="translate(24.711710, 14.638961) rotate(-128.000000) translate(-24.711710, -14.638961) translate(18.925086, -0.459078)"><path d="M0.493630573,-6.39488462e-14 L11.3989772,-6.39488462e-14 L11.2101143,23.4413264 L11.2101143,23.4413264 C11.2084048,23.6535075 11.1378752,23.8594023 11.0091258,24.0280657 L6.63974025,29.752021 L6.63974025,29.752021 C6.31133252,30.1822396 5.69634432,30.2647737 5.26612568,29.9363659 C5.20246859,29.8877732 5.14500782,29.8315609 5.09502874,29.7689865 L0.519172252,24.0399532 L0.519172252,24.0399532 C0.378769316,23.8641668 0.303123247,23.6454253 0.304935777,23.4204574 L0.493630573,-6.39488462e-14 Z" id="Mask" fill="#E2E2E2"/><polygon id="Combined-Shape" fill="#FFFFFF" points="10.4120278 9.9475983e-14 11.3989772 9.9475983e-14 11.3092774 11.1333759 0.315339769 22.1291327 0.413057172 10.0006251"/><path d="M5.80935548,30.1323082 C6.12323138,30.1483743 6.43941881,30.0144448 6.64454387,29.7457282 L11.0078155,24.0297823 C11.1374145,23.8600058 11.2084109,23.6527413 11.2101318,23.4391468 L11.3989772,-3.26849658e-13 L0.493630573,-3.26849658e-13 L0.465153976,3.53446385 C2.2194456,3.24682768 4.00450538,3.09349637 5.80935548,3.07849648 L5.80935548,30.1323082 L5.80935548,30.1323082 Z" id="Combined-Shape" fill="#D7C1C1"/></g><path d="M1.82383577,29.0503556 L4.87823447,32.9599725" id="Line-4" stroke="#FCD000" stroke-width="3.43000007" stroke-linecap="round"/></g><path d="M20.4758408,14.8095417 L32.8171528,14.8095417 C34.0438125,14.8095417 35.0382166,15.8041103 35.0382166,17.0309729 C35.0382166,18.2578355 34.0438125,19.2524041 32.8171528,19.2524041 L20.4758408,19.2524041 C19.2491812,19.2524041 18.2547771,18.2578355 18.2547771,17.0309729 C18.2547771,15.8041103 19.2491812,14.8095417 20.4758408,14.8095417 Z" id="Rectangle-7" fill="#FCD000"/></g></g></g></g></g></g></svg>