<?xml version="1.0" encoding="UTF-8"?><svg width="73px" height="73px" viewBox="0 0 73 73" version="1.1" xmlns="http://www.w3.org/2000/svg" xmlns:xlink="http://www.w3.org/1999/xlink"><title>achievmement_social_3</title><desc>Created with Sketch.</desc><defs/><g id="Page-1" stroke="none" stroke-width="1" fill="none" fill-rule="evenodd"><g id="gold" transform="translate(-118.000000, -447.000000)"><g id="achievmement_social_3" transform="translate(116.000000, 445.000000)"><g id="bg"><path d="M9.0203536,47.7511662 L29.7181339,68.4489465 C34.6993809,73.4301934 42.7714818,73.4286308 47.7511662,68.4489465 L68.4489465,47.7511662 C73.4301934,42.7699192 73.4286308,34.6978183 68.4489465,29.7181339 L47.7511662,9.0203536 C42.7699192,4.03910668 34.6978183,4.04066925 29.7181339,9.0203536 L9.0203536,29.7181339 C4.03910668,34.6993809 4.04066925,42.7714818 9.0203536,47.7511662 Z M7.25258665,49.5189331 C1.29609921,43.5624457 1.29552129,33.9074323 7.25258665,27.950367 L27.950367,7.25258665 C33.9068544,1.29609921 43.5618678,1.29552129 49.5189331,7.25258665 L70.2167134,27.950367 C76.1732009,33.9068544 76.1737788,43.5618678 70.2167134,49.5189331 L49.5189331,70.2167134 C43.5624457,76.1732009 33.9074323,76.1737788 27.950367,70.2167134 L7.25258665,49.5189331 Z" id="Mask" fill="#D97C1F" fill-rule="nonzero"/><rect id="Mask-Copy" fill="#FFB103" transform="translate(38.734650, 38.734650) rotate(-45.000000) translate(-38.734650, -38.734650)" x="11.3478298" y="11.3478298" width="54.7736404" height="54.7736404" rx="12.75"/><polygon id="Rectangle-12" fill="#FFD986" transform="translate(42.715399, 34.715399) rotate(-45.000000) translate(-42.715399, -34.715399)" points="51.6678889 7.30082242 51.4116936 62.1207783 34.1972455 62.1299762 33.7629097 7.33234987"/></g><g id="thumb" transform="translate(21.000000, 19.000000)"><path d="M33.0664346,24.9177374 L33.312283,25.4913837 C33.902874,26.8694294 33.6514946,28.1437153 32.8099036,28.9324027 C33.9772912,29.690434 34.75,31.0061279 34.75,32.5 C34.75,34.8476242 32.8492511,36.75 30.5018791,36.75 L15.4981209,36.75 C13.1530845,36.75 11.25,34.8444151 11.25,32.5 L11.25,8.49192389 C11.25,6.15000926 13.1558819,4.25 15.5,4.25 C17.8460387,4.25 19.75,6.15050967 19.75,8.49192389 L19.75,14.25 L27.4929651,14.25 C29.8424937,14.25 31.75,16.1551576 31.75,18.5 C31.75,19.8662876 31.0980472,21.1080323 30.0577098,21.8927674 C31.3920617,22.5548634 32.5285635,23.662705 33.0664346,24.9177374 Z" id="Combined-Shape" fill="#ED9312" fill-rule="nonzero"/><path d="M19,11 L30.5018791,11 C32.4338379,11 34,12.5709366 34,14.5 C34,16.2639165 32.6971841,17.7230667 31,17.964836 L31,18.0352968 C32.6960216,18.2777637 34,19.7397946 34,21.5 C34,23.2639165 32.6971841,24.7230667 31,24.964836 L31,25.0352968 C32.6960216,25.2777637 34,26.7397946 34,28.5 C34,30.4329966 32.4354509,32 30.5018791,32 L15.4981209,32 C13.5661621,32 12,30.4290634 12,28.5 L12,15.2540381 L12,4.49192389 C12,2.56338758 13.5709366,1 15.5,1 C17.4329966,1 19,2.56589374 19,4.49192389 L19,11 Z" id="Combined-Shape" stroke="#D97C1F" stroke-width="2" fill="#FFB103"/><path d="M17.0546738,14.5 C17.0546738,15.87782 18.3021687,17 19.8384436,17 L30.2048259,17 C31.7466902,17 32.9885957,15.8824525 32.9885957,14.5 C32.9885957,13.12218 31.7411008,12 30.2048259,12 L19.8384436,12 C18.2965793,12 17.0546738,13.1175475 17.0546738,14.5 Z M14.8344765,14.5 C14.8344765,12.0125025 17.0709254,10 19.8384436,10 L30.2048259,10 C32.9665791,10 34.8484743,12.0169764 34.8484743,14.5 C34.8484743,16.9874975 32.9723441,19 30.2048259,19 L19.8384436,19 C17.0766905,19 14.8344765,16.9830236 14.8344765,14.5 Z" id="Rectangle-11" fill="#F49E0C" fill-rule="nonzero"/><path d="M17.0546738,21.5 C17.0546738,22.87782 18.3021687,24 19.8384436,24 L30.2048259,24 C31.7466902,24 32.9885957,22.8824525 32.9885957,21.5 C32.9885957,20.12218 31.7411008,19 30.2048259,19 L19.8384436,19 C18.2965793,19 17.0546738,20.1175475 17.0546738,21.5 Z M14.8344765,21.5 C14.8344765,19.0125025 17.0709254,17 19.8384436,17 L30.2048259,17 C32.9665791,17 34.8484743,19.0169764 34.8484743,21.5 C34.8484743,23.9874975 32.9723441,26 30.2048259,26 L19.8384436,26 C17.0766905,26 14.8344765,23.9830236 14.8344765,21.5 Z" id="Rectangle-11-Copy" fill="#F49E0C" fill-rule="nonzero"/><path d="M17.0546738,28.5 C17.0546738,29.87782 18.3021687,31 19.8384436,31 L30.2048259,31 C31.7466902,31 32.9885957,29.8824525 32.9885957,28.5 C32.9885957,27.12218 31.7411008,26 30.2048259,26 L19.8384436,26 C18.2965793,26 17.0546738,27.1175475 17.0546738,28.5 Z M14.8344765,28.5 C14.8344765,26.0125025 17.0709254,24 19.8384436,24 L30.2048259,24 C32.9665791,24 34.8484743,26.0169764 34.8484743,28.5 C34.8484743,30.9874975 32.9723441,33 30.2048259,33 L19.8384436,33 C17.0766905,33 14.8344765,30.9830236 14.8344765,28.5 Z" id="Rectangle-11-Copy-2" fill="#F49E0C" fill-rule="nonzero"/><path d="M18.8344765,14.5 C18.8344765,15.87782 19.9582459,17 21.3421543,17 L30.4923222,17 C31.8812656,17 33,15.8824525 33,14.5 C33,13.12218 31.8762306,12 30.4923222,12 L21.3421543,12 C19.9532108,12 18.8344765,13.1175475 18.8344765,14.5 Z M16.8344765,14.5 C16.8344765,12.0125025 18.8491163,10 21.3421543,10 L30.4923222,10 C32.9801669,10 35,12.0169764 35,14.5 C35,16.9874975 32.9853602,19 30.4923222,19 L21.3421543,19 C18.8543095,19 16.8344765,16.9830236 16.8344765,14.5 Z" id="Rectangle-11-Copy-5" fill="#D97C1F" fill-rule="nonzero"/><path d="M18.8344765,21.5 C18.8344765,22.87782 19.9582459,24 21.3421543,24 L30.4923222,24 C31.8812656,24 33,22.8824525 33,21.5 C33,20.12218 31.8762306,19 30.4923222,19 L21.3421543,19 C19.9532108,19 18.8344765,20.1175475 18.8344765,21.5 Z M16.8344765,21.5 C16.8344765,19.0125025 18.8491163,17 21.3421543,17 L30.4923222,17 C32.9801669,17 35,19.0169764 35,21.5 C35,23.9874975 32.9853602,26 30.4923222,26 L21.3421543,26 C18.8543095,26 16.8344765,23.9830236 16.8344765,21.5 Z" id="Rectangle-11-Copy-4" fill="#D97C1F" fill-rule="nonzero"/><path d="M18.8344765,28.5 C18.8344765,29.87782 19.9582459,31 21.3421543,31 L30.4923222,31 C31.8812656,31 33,29.8824525 33,28.5 C33,27.12218 31.8762306,26 30.4923222,26 L21.3421543,26 C19.9532108,26 18.8344765,27.1175475 18.8344765,28.5 Z M16.8344765,28.5 C16.8344765,26.0125025 18.8491163,24 21.3421543,24 L30.4923222,24 C32.9801669,24 35,26.0169764 35,28.5 C35,30.9874975 32.9853602,33 30.4923222,33 L21.3421543,33 C18.8543095,33 16.8344765,30.9830236 16.8344765,28.5 Z" id="Rectangle-11-Copy-3" fill="#D97C1F" fill-rule="nonzero"/><path d="M18,12 L18,4.49192389 C18,3.11771953 16.8802505,2 15.5,2 C14.1211733,2 13,3.1177186 13,4.49192389 L13,28.5 C13,29.8784308 14.1200976,31 15.4981209,31 L30.5018791,31 C31.8824175,31 33,29.8814609 33,28.5 C33,27.2542747 32.0787084,26.1996787 30.8584768,26.0252317 L30,25.902502 L30,24.0971936 L30.8589706,23.9748305 C32.0806545,23.8007978 33,22.7487322 33,21.5 C33,20.2542747 32.0787084,19.1996787 30.8584768,19.0252317 L30,18.902502 L30,17.0971936 L30.8589706,16.9748305 C32.0806545,16.8007978 33,15.7487322 33,14.5 C33,13.1215692 31.8799024,12 30.5018791,12 L18,12 Z M35,28.5 C35,30.9856475 32.9873702,33 30.5018791,33 L15.4981209,33 C13.0149398,33 11,30.9824128 11,28.5 L11,4.49192389 C11,2.01176506 13.0179831,0 15.5,0 C17.9840085,0 20,2.01233684 20,4.49192389 L20,10 L30.5018791,10 C32.9850602,10 35,12.0175872 35,14.5 C35,15.9051821 34.3531329,17.172011 33.3294709,18.0009044 C32.7159552,18.4976887 31.9670941,18.8371658 31.1410294,18.9548414 L31,17.964836 L32,17.964836 L31,18.0352968 L31.1415232,17.0453619 C31.9670837,17.1633858 32.7158843,17.5035392 33.3294709,18.0009044 C34.3527752,18.8303816 35,20.0971223 35,21.5 C35,22.9051821 34.3531329,24.172011 33.3294709,25.0009044 C32.7159552,25.4976887 31.9670941,25.8371658 31.1410294,25.9548414 L31,24.964836 L32,24.964836 L31,25.0352968 L31.1415232,24.0453619 C31.9670837,24.1633858 32.7158843,24.5035392 33.3294709,25.0009044 C34.3527752,25.8303816 35,27.0971223 35,28.5 Z" id="Combined-Shape-Copy-7" fill="#D97C1F" fill-rule="nonzero"/><path d="M1.02913279,20.1035314 C1.02913279,18.5832441 2.25569574,17.3584421 3.78505184,17.3584421 L6.77321374,17.3584421 C8.294536,17.3584421 9.52913279,18.5861145 9.52913279,20.1035314 L9.52913279,34.1133528 C9.52913279,35.6336401 8.30256983,36.8584421 6.77321374,36.8584421 L3.78505184,36.8584421 C2.26372958,36.8584421 1.02913279,35.6307697 1.02913279,34.1133528 L1.02913279,20.1035314 Z" id="Combined-Shape" fill="#ED9312"/><rect id="Rectangle-35-Copy" fill="#FFB103" x="1.77913279" y="13.1084421" width="7" height="18" rx="2"/><path d="M2.77913279,15.1035314 L2.77913279,29.1133528 C2.77913279,29.6620612 3.22803139,30.1084421 3.78505184,30.1084421 L6.77321374,30.1084421 C7.33663391,30.1084421 7.77913279,29.6665785 7.77913279,29.1133528 L7.77913279,15.1035314 C7.77913279,14.554823 7.33023418,14.1084421 6.77321374,14.1084421 L3.78505184,14.1084421 C3.22163167,14.1084421 2.77913279,14.5503057 2.77913279,15.1035314 Z M0.779132789,15.1035314 C0.779132789,13.4450925 2.1177049,12.1084421 3.78505184,12.1084421 L6.77321374,12.1084421 C8.4322934,12.1084421 9.77913279,13.4477276 9.77913279,15.1035314 L9.77913279,29.1133528 C9.77913279,30.7717918 8.44056068,32.1084421 6.77321374,32.1084421 L3.78505184,32.1084421 C2.12597218,32.1084421 0.779132789,30.7691567 0.779132789,29.1133528 L0.779132789,15.1035314 Z" id="Rectangle-35-Copy-2" fill="#D97C1F" fill-rule="nonzero"/><path d="M21,14 L30.5131488,14 C31.0654335,14 31.5131488,13.5522847 31.5131488,13 C31.5131488,12.4477153 31.0654335,12 30.5131488,12 L21,12 C20.4477153,12 20,12.4477153 20,13 C20,13.5522847 20.4477153,14 21,14 Z" id="Line" fill="#FFE18B" fill-rule="nonzero"/><path d="M21,24 L30.5131488,24 C31.0654335,24 31.5131488,23.5522847 31.5131488,23 C31.5131488,22.4477153 31.0654335,22 30.5131488,22 L21,22 C20.4477153,22 20,22.4477153 20,23 C20,23.5522847 20.4477153,24 21,24 Z" id="Line-Copy" fill="#F49E0C" fill-rule="nonzero"/><path d="M21,17 L30.5131488,17 C31.0654335,17 31.5131488,16.5522847 31.5131488,16 C31.5131488,15.4477153 31.0654335,15 30.5131488,15 L21,15 C20.4477153,15 20,15.4477153 20,16 C20,16.5522847 20.4477153,17 21,17 Z" id="Line-Copy-4" fill="#F49E0C" fill-rule="nonzero"/><path d="M21,31 L30.5131488,31 C31.0654335,31 31.5131488,30.5522847 31.5131488,30 C31.5131488,29.4477153 31.0654335,29 30.5131488,29 L21,29 C20.4477153,29 20,29.4477153 20,30 C20,30.5522847 20.4477153,31 21,31 Z" id="Line-Copy-3" fill="#F49E0C" fill-rule="nonzero"/><circle id="Oval-24" fill="#FFE18B" cx="14.5" cy="3.5" r="1.5"/></g><g id="sparkle" transform="translate(10.000000, 26.000000)" fill="#FFF0C4"><path d="M2.35370916,14.6337091 L8.80195441,14.6337091 L8.80195441,14.6337091 C9.19959946,14.6337091 9.52195447,14.9560641 9.52195447,15.3537092 L9.52195447,21.8019544 L9.52195447,21.8019544 C9.52195447,22.1995995 9.19959946,22.5219545 8.80195441,22.5219545 L2.35370916,22.5219545 L2.35370916,22.5219545 C1.95606411,22.5219545 1.63370911,22.1995995 1.63370911,21.8019544 L1.63370911,15.3537092 L1.63370911,15.3537092 C1.63370911,14.9560641 1.95606411,14.6337091 2.35370916,14.6337091 Z" id="Rectangle-2-Copy-11" transform="translate(5.577832, 18.577832) rotate(-315.000000) translate(-5.577832, -18.577832)"/><path d="M42.4910996,1.71028338 L47.0510995,1.71028338 L47.0510995,1.71028338 C47.4487445,1.71028338 47.7710995,2.03263838 47.7710995,2.43028343 L47.7710995,6.99028332 L47.7710995,6.99028332 C47.7710995,7.38792837 47.4487445,7.71028338 47.0510995,7.71028338 L42.4910996,7.71028338 L42.4910996,7.71028338 C42.0934546,7.71028338 41.7710995,7.38792837 41.7710995,6.99028332 L41.7710995,2.43028343 L41.7710995,2.43028343 C41.7710995,2.03263838 42.0934546,1.71028338 42.4910996,1.71028338 Z" id="Rectangle-2-Copy-12" transform="translate(44.771100, 4.710283) rotate(-315.000000) translate(-44.771100, -4.710283)"/></g></g></g></g></svg>