<?xml version="1.0" encoding="UTF-8"?><svg width="73px" height="73px" viewBox="0 0 73 73" version="1.1" xmlns="http://www.w3.org/2000/svg" xmlns:xlink="http://www.w3.org/1999/xlink"><title>achievement_clubs_0</title><desc>Created with Sketch.</desc><defs/><g id="Page-1" stroke="none" stroke-width="1" fill="none" fill-rule="evenodd"><g id="locked" transform="translate(-119.000000, -258.000000)"><g id="achievement_clubs_0" transform="translate(119.000000, 258.000000)"><g id="silver-fire-copy-5" fill-rule="nonzero" fill="#D1D1D1"><g id="gold-badge-bg-copy"><path d="M7.0203536,45.7511662 L27.7181339,66.4489465 C32.6993809,71.4301934 40.7714818,71.4286308 45.7511662,66.4489465 L66.4489465,45.7511662 C71.4301934,40.7699192 71.4286308,32.6978183 66.4489465,27.7181339 L45.7511662,7.0203536 C40.7699192,2.03910668 32.6978183,2.04066925 27.7181339,7.0203536 L7.0203536,27.7181339 C2.03910668,32.6993809 2.04066925,40.7714818 7.0203536,45.7511662 Z M5.25258665,47.5189331 C-0.70390079,41.5624457 -0.70447871,31.9074323 5.25258665,25.950367 L25.950367,5.25258665 C31.9068544,-0.70390079 41.5618678,-0.70447871 47.5189331,5.25258665 L68.2167134,25.950367 C74.1732009,31.9068544 74.1737788,41.5618678 68.2167134,47.5189331 L47.5189331,68.2167134 C41.5624457,74.1732009 31.9074323,74.1737788 25.950367,68.2167134 L5.25258665,47.5189331 Z" id="Mask"/></g></g><g id="Group-6-Copy-2" transform="translate(22.000000, 22.000000)"><g id="Rectangle-6" stroke="#D1D1D1" stroke-width="2"><path d="M1,16 C1,23.7319865 7.2680135,30 15,30 C22.7319865,30 29,23.7319865 29,16 L29,3 C29,1.8954305 28.1045695,1 27,1 L3,1 C1.8954305,1 1,1.8954305 1,3 L1,16 Z" id="Combined-Shape"/></g><polygon id="Line" fill="#D1D1D1" fill-rule="nonzero" points="2.72303006 20.8369364 16.5825813 1.96555071 14.9706082 0.781683014 1.11105696 19.6530687"/></g></g></g></g></svg>