<?xml version="1.0" encoding="UTF-8"?><svg width="65px" height="80px" viewBox="0 0 65 80" version="1.1" xmlns="http://www.w3.org/2000/svg" xmlns:xlink="http://www.w3.org/1999/xlink"><title>Icon/Achievements/05-Overachiever</title><desc>Created with Sketch.</desc><defs><path d="M33.1955737,14.0909091 C33.0334081,14.3656608 32.8239401,14.6109102 32.5758167,14.8147964 L19.6275548,25.4545455 L17.4920021,25.4545455 L4.42454925,14.8165057 C4.17409457,14.6126139 3.96256728,14.3667353 3.79878623,14.0909091 L33.1955737,14.0909091 Z" id="path-1"/></defs><g id="Page-1" stroke="none" stroke-width="1" fill="none" fill-rule="evenodd"><g id="Icon/Achievements/05-Overachiever"><g><path d="M9.140625,6.21443001e-15 L55.859375,6.21443001e-15 L55.859375,5.32907052e-15 C60.9076028,-8.19656842e-17 65,4.09239721 65,9.140625 L65,59.9429806 L65,59.9429806 C65,63.4942357 62.9431103,66.724067 59.7250694,68.225941 L36.3077386,79.1549133 L36.3077386,79.1549133 C33.8529653,80.3005669 31.0164757,80.2983634 28.5634854,79.1488972 L5.26206614,68.2299006 L5.26206614,68.2299006 C2.05101258,66.7252076 2.61375782e-15,63.4990762 5.32907052e-15,59.9529564 L0,9.140625 L1.77635684e-15,9.140625 C1.15812724e-15,4.09239721 4.09239721,9.80910232e-15 9.140625,8.8817842e-15 Z" id="Shield" fill="#E53B3B"/><g id="Illustration" transform="translate(14.000000, 10.000000)"><g id="Group-12"><g id="Rectangle-24"><path d="M33.3797335,13.7163938 L36.7097464,5.30623943 C36.8961626,4.83543375 36.9922192,4.32941066 36.9922192,3.81818182 C36.9922192,1.70945823 35.392795,-1.29189588e-14 33.4198054,0 L3.57333729,0 C3.09501514,0 2.62156365,0.102664917 2.1810627,0.301905815 C0.364078458,1.12373734 -0.485535729,3.36425382 0.283396299,5.30623943 L3.61098508,13.7102717 L3.61098508,13.7102717 C3.78105743,14.1397999 4.05849544,14.5185062 4.41676086,14.8101653 L17.9303942,25.8114347 L19.1932312,25.8114347 L32.5835073,14.8084769 L32.5835073,14.8084769 C32.9372073,14.5178372 33.2111998,14.1420362 33.3797335,13.7163938 Z" id="Mask" fill="#00AFF9"/><mask id="mask-2" fill="white"><use xlink:href="#path-1"/></mask><use id="Combined-Shape" fill="#009DE0" xlink:href="#path-1"/></g><rect id="Rectangle-22" fill="#80D7FC" x="12.7901235" y="0" width="10.0493827" height="17.7272727"/><path d="M13.0185185,1.14864865 L13.0185185,18.4520069" id="Line-2" stroke="#009DE0" stroke-width="2.24999994" stroke-linecap="square"/><path d="M23.0679012,1.14864865 L23.0679012,18.4520069" id="Line-2-Copy" stroke="#009DE0" stroke-width="2.24999994" stroke-linecap="square"/></g><path d="M19.173321,9.32762099 L28.7930741,14.8957215 L28.7930741,14.8957215 C29.3490288,15.2175189 29.691358,15.8112052 29.691358,16.4535751 L29.691358,27.5977073 L29.691358,27.5977073 C29.691358,28.2400772 29.3490288,28.8337636 28.7930741,29.155561 L19.173321,34.7236614 L19.173321,34.7236614 C18.6155275,35.0465232 17.9276824,35.0465232 17.3698889,34.7236614 L7.75013576,29.155561 L7.75013576,29.155561 C7.19418111,28.8337636 6.85185185,28.2400772 6.85185185,27.5977073 L6.85185185,16.4535751 L6.85185185,16.4535751 C6.85185185,15.8112052 7.19418111,15.2175189 7.75013576,14.8957215 L17.3698889,9.32762099 L17.3698889,9.32762099 C17.9276824,9.00475927 18.6155275,9.00475927 19.173321,9.32762099 Z" id="Polygon-Copy" fill="#FED557"/><path d="M29.1626834,28.8677633 C29.050305,28.9812483 28.9221275,29.0808623 28.7802327,29.1629938 L19.1851371,34.716822 C18.6199748,35.043949 17.9232351,35.043949 17.3580727,34.716822 L7.76297713,29.1629938 C7.19910443,28.8366133 6.85185185,28.2341532 6.85185185,27.5822521 L6.85185185,16.4690303 C6.85185185,16.2438441 6.89328669,16.0245573 6.97077204,15.8205113 L29.1626834,28.8677633 L29.1626834,28.8677633 Z" id="Combined-Shape" fill="#FFC800"/><path d="M18.726219,13.3631701 L24.913256,16.9921086 L24.913256,16.9921086 C25.326428,17.23445 25.5802469,17.6775826 25.5802469,18.156582 L25.5802469,25.4515995 L25.5802469,25.4515995 C25.5802469,25.9305989 25.326428,26.3737315 24.913256,26.616073 L18.726219,30.2450114 L18.726219,30.2450114 C18.3044761,30.49238 17.7819437,30.49238 17.3602008,30.2450114 L11.1731637,26.616073 L11.1731637,26.616073 C10.7599918,26.3737315 10.5061728,25.9305989 10.5061728,25.4515995 L10.5061728,18.156582 L10.5061728,18.156582 C10.5061728,17.6775826 10.7599918,17.23445 11.1731637,16.9921086 L17.3602008,13.3631701 L17.3602008,13.3631701 C17.7819437,13.1158015 18.3044761,13.1158015 18.726219,13.3631701 Z" id="Polygon-Copy-2" stroke="#FCB71A" stroke-width="2.24999994"/><rect id="Rectangle-15-Copy" fill="#FFF3CD" transform="translate(22.888201, 18.684819) rotate(-315.000000) translate(-22.888201, -18.684819)" x="20.9157721" y="16.7220828" width="3.94485731" height="3.92547226" rx="0.449999988"/><rect id="Rectangle-15-Copy-2" fill="#FFF3CD" transform="translate(18.777090, 15.503001) rotate(-315.000000) translate(-18.777090, -15.503001)" x="17.4506598" y="14.183089" width="2.65285973" height="2.63982357" rx="0.449999988"/></g></g></g></g></svg>