<?xml version="1.0" encoding="UTF-8"?><svg width="65px" height="80px" viewBox="0 0 65 80" version="1.1" xmlns="http://www.w3.org/2000/svg" xmlns:xlink="http://www.w3.org/1999/xlink"><title>Icon/Achievements/03-Sharpshooter</title><desc>Created with Sketch.</desc><defs/><g id="Page-1" stroke="none" stroke-width="1" fill="none" fill-rule="evenodd"><g id="Icon/Achievements/03-Sharpshooter"><g><path d="M9.140625,2.91066135e-10 L55.859375,2.91066135e-10 L55.859375,2.9106495e-10 C60.9076028,2.91068506e-10 65,4.09239721 65,9.140625 L65,59.9466717 L65,59.9466717 C65,63.4978583 62.9431888,66.7276402 59.7252411,68.2295519 L36.3079107,79.1591154 L36.3079107,79.1591154 C33.8530408,80.304876 31.0164004,80.3026723 28.5633137,79.1530988 L5.26189408,68.2335113 L5.26189408,68.2335113 C2.05093401,66.7287807 1.80743529e-15,63.5026989 -1.77635684e-15,59.9566477 L0,9.140625 L-1.77635684e-15,9.140625 C-2.39458644e-15,4.09239721 4.09239721,2.9106943e-10 9.140625,2.91068503e-10 Z" id="Shield" fill="#7AC70C"/><g id="Illustration" transform="translate(33.000000, 26.000000) rotate(-90.000000) translate(-33.000000, -26.000000) translate(14.000000, 5.000000)"><path d="M17.1463415,36.8089888 C23.6398798,34.394215 28.2682927,28.1182118 28.2682927,20.7564276 C28.2682927,13.4100734 23.6592615,7.14495359 17.1871477,4.71910112" id="Oval-10" stroke="#936E3D" stroke-width="3.72400007"/><path d="M15.3026216,4.71910112 C16.384878,4.27408692 17.1562801,3.11749387 17.1562801,1.76080423 C17.1562801,1.10870999 16.9780667,0.502843141 16.6727801,1.13686838e-13" id="Oval-10" stroke="#936E3D" stroke-width="3.72400007" stroke-linecap="round" stroke-linejoin="round" transform="translate(16.229451, 2.359551) scale(-1, 1) translate(-16.229451, -2.359551)"/><path d="M15.2446948,41.5677051 C16.3269512,41.1226909 17.0983533,39.9660979 17.0983533,38.6094082 C17.0983533,37.957314 16.9201398,37.3514472 16.6148533,36.848604" id="Oval-10" stroke="#936E3D" stroke-width="3.72400007" stroke-linecap="round" stroke-linejoin="round" transform="translate(16.171524, 39.208155) scale(-1, -1) translate(-16.171524, -39.208155)"/><polyline id="Line" stroke="#FFFFFF" stroke-width="1.44304998" stroke-linecap="round" stroke-linejoin="round" points="17.706585 2.36967143 8.34146341 20.4787611 17.9382923 38.8837164"/><path d="M28.6053215,20.7741658 L1.91984247,20.7741658" id="Line-5" stroke="#EEB467" stroke-width="1.62925003" stroke-linecap="round" stroke-linejoin="round"/><path d="M37.3138424,21.21998 L32.4903994,24.0074584 L32.4903994,24.0074584 C32.1987727,24.1759902 31.8267673,24.0945286 31.6322616,23.8195438 L29.810874,21.2445349 L29.810874,21.2445349 C29.5860113,20.9266325 29.5827455,20.5023708 29.8026876,20.1810445 L31.6345461,17.5047755 L31.6345461,17.5047755 C31.8269716,17.2236499 32.203452,17.1381663 32.4984143,17.3086257 L37.3138424,20.0914723 L37.3138424,20.0914723 C37.6254712,20.2715632 37.7321036,20.6701809 37.5520127,20.9818097 C37.4948646,21.0806985 37.4127312,21.1628319 37.3138424,21.21998 Z" id="Triangle-2" fill="#FFFFFF"/><path d="M27.3456342,19.2994467 L29.1909512,19.2994467 L29.1909512,19.2994467 C29.7051283,19.2994467 30.1219512,19.7162696 30.1219512,20.2304467 L30.1219512,21.2487753 L30.1219512,21.2487753 C30.1219512,21.7629524 29.7051283,22.1797753 29.1909512,22.1797753 L27.3456342,22.1797753 L27.3456342,22.1797753 C26.8314571,22.1797753 26.4146341,21.7629524 26.4146341,21.2487753 L26.4146341,20.2304467 L26.4146341,20.2304467 C26.4146341,19.7162696 26.8314571,19.2994467 27.3456342,19.2994467 Z" id="Rectangle-14" fill="#D7A056"/><path d="M0.697375214,19.9483231 L6.94994702,19.9483231 C7.16514045,19.9483231 7.3682804,19.8560406 7.50039639,19.6982648 L9.73170732,16.8639153 L1.712261,16.8639153 L0.146925846,18.9029419 C-0.0895223251,19.1853135 -0.0347568636,19.59226 0.269247928,19.8118824 C0.391654582,19.9003127 0.542302927,19.9483231 0.697375214,19.9483231 Z" id="Rectangle-13" fill="#FF3E3E" transform="translate(4.865854, 18.406119) scale(1, -1) translate(-4.865854, -18.406119)"/><path d="M0.697375214,24.6674242 L6.94994702,24.6674242 C7.16514045,24.6674242 7.3682804,24.5751418 7.50039639,24.4173659 L9.73170732,21.5830164 L1.712261,21.5830164 L0.146925846,23.622043 C-0.0895223251,23.9044146 -0.0347568636,24.3113611 0.269247928,24.5309835 C0.391654582,24.6194138 0.542302927,24.6674242 0.697375214,24.6674242 Z" id="Rectangle-13" fill="#FF3E3E"/><rect id="Rectangle-11" fill="#FF3E3E" x="24.5609756" y="15.5730337" width="6.48780488" height="2.60874495" rx="1.30437248"/><rect id="Rectangle-11" fill="#FF3E3E" x="24.5609756" y="23.1235955" width="6.48780488" height="2.60874495" rx="1.30437248"/></g></g></g></g></svg>