<?xml version="1.0" encoding="UTF-8"?><svg width="73px" height="73px" viewBox="0 0 73 73" version="1.1" xmlns="http://www.w3.org/2000/svg" xmlns:xlink="http://www.w3.org/1999/xlink"><title>achievmement_xp_0</title><desc>Created with Sketch.</desc><defs/><g id="Page-1" stroke="none" stroke-width="1" fill="none" fill-rule="evenodd"><g id="locked" transform="translate(-29.000000, -351.000000)" fill-rule="nonzero" fill="#D1D1D1"><g id="achievmement_xp_0" transform="translate(29.000000, 351.000000)"><path d="M7.0203536,45.7511662 L27.7181339,66.4489465 C32.6993809,71.4301934 40.7714818,71.4286308 45.7511662,66.4489465 L66.4489465,45.7511662 C71.4301934,40.7699192 71.4286308,32.6978183 66.4489465,27.7181339 L45.7511662,7.0203536 C40.7699192,2.03910668 32.6978183,2.04066925 27.7181339,7.0203536 L7.0203536,27.7181339 C2.03910668,32.6993809 2.04066925,40.7714818 7.0203536,45.7511662 Z M5.25258665,47.5189331 C-0.70390079,41.5624457 -0.70447871,31.9074323 5.25258665,25.950367 L25.950367,5.25258665 C31.9068544,-0.70390079 41.5618678,-0.70447871 47.5189331,5.25258665 L68.2167134,25.950367 C74.1732009,31.9068544 74.1737788,41.5618678 68.2167134,47.5189331 L47.5189331,68.2167134 C41.5624457,74.1732009 31.9074323,74.1737788 25.950367,68.2167134 L5.25258665,47.5189331 Z" id="Mask"/><path d="M36.7366333,47.6947123 C38.5021139,49.4232581 40.9192806,50.4890091 43.5852007,50.4890091 C48.9924653,50.4890091 53.3747007,46.1071979 53.3747007,40.70109 L53.3747007,34.9479282 C53.3747007,29.5428097 48.9914383,25.1600091 43.5852007,25.1600091 C41.7143774,25.1600091 39.9662547,25.6845314 38.4798737,26.5945221 C38.3474589,26.6755889 38.2171213,26.759715 38.0889592,26.8468018 C38.5963074,27.3391066 38.9302234,28.0091466 38.9902586,28.7564729 C40.2734254,27.8030738 41.8633035,27.2390091 43.5852007,27.2390091 C47.8432873,27.2390091 51.2957007,30.6910588 51.2957007,34.9479282 L51.2957007,40.70109 C51.2957007,44.9589529 47.8443104,48.4100091 43.5852007,48.4100091 C41.4477415,48.4100091 39.5132961,47.5401604 38.1166459,46.1353063 C37.750134,46.732159 37.2821169,47.2599739 36.7366333,47.6947123 L36.7366333,47.6947123 Z" id="Combined-Shape"/><path d="M40.8747007,35.1973722 C40.8747007,33.7015405 42.0878217,32.4890091 43.5852007,32.4890091 C45.0815341,32.4890091 46.2957007,33.7029256 46.2957007,35.1973722 L46.2957007,40.4516461 C46.2957007,41.9474777 45.0825798,43.1600091 43.5852007,43.1600091 C42.0888674,43.1600091 40.8747007,41.9460926 40.8747007,40.4516461 L40.8747007,35.1973722 Z M38.7957007,35.1973722 L38.7957007,40.4516461 C38.7957007,43.0943885 40.9407633,45.2390091 43.5852007,45.2390091 C46.2305536,45.2390091 48.3747007,43.095904 48.3747007,40.4516461 L48.3747007,35.1973722 C48.3747007,32.5546298 46.2296382,30.4100091 43.5852007,30.4100091 C40.9398479,30.4100091 38.7957007,32.5531142 38.7957007,35.1973722 Z" id="Rectangle-29-Copy-2"/><path d="M27.06455,30.3612111 L36.767653,30.3612111 C37.6137913,30.3612111 38.2997219,29.6625054 38.2997219,28.8006083 C38.2997219,27.9387112 37.6137913,27.2400055 36.767653,27.2400055 L25.5324811,27.2400055 C25.1094119,27.2400055 24.7263947,27.4146819 24.4491448,27.6970955 C24.1718948,27.979509 24.0004122,28.3696597 24.0004122,28.8006083 L24.0004122,38.164225 C24.0004122,38.1955248 24.0013168,38.2266094 24.0031008,38.2574531 C23.9597526,38.9404879 24.3741374,39.5919674 25.0431021,39.8100955 C25.8320918,40.0673599 26.6764351,39.6243992 26.9289957,38.8207151 C26.9690654,38.7110191 26.9885598,38.6546954 27.0048744,38.5969993 C27.6823296,36.7388192 29.3345674,35.497888 31.1860236,35.497888 C33.6526264,35.497888 35.6860236,37.6842266 35.6860236,40.4212394 L35.6860236,40.7607809 C35.6860236,43.4977937 33.6526264,45.6841322 31.1860236,45.6841322 C29.3262712,45.6841322 27.6635599,44.4325131 26.9915903,42.5480098 C26.7087691,41.7548527 25.8482726,41.3454138 25.0696176,41.6335023 C24.2909625,41.9215909 23.8890098,42.7981136 24.1718309,43.5912707 C25.2646888,46.6561329 28.0330057,48.7400055 31.1860236,48.7400055 C35.3468379,48.7400055 38.6860236,45.149664 38.6860236,40.7607809 L38.6860236,40.4212394 C38.6860236,36.0323563 35.3468379,32.4420148 31.1860236,32.4420148 C29.6753113,32.4420148 28.2548067,32.9202036 27.06455,33.7533486 L27.06455,30.3612111 Z M28.8754118,41.8762833 C29.2722522,42.9892011 30.1999076,43.6841322 31.1860236,43.6841322 C32.5206783,43.6841322 33.6860236,42.4159951 33.6860236,40.7607809 L33.6860236,40.4212394 C33.6860236,38.7660252 32.5206783,37.497888 31.1860236,37.497888 C30.2212055,37.497888 29.3108134,38.1647991 28.9016463,39.2345144 C28.8804527,39.302343 28.8572566,39.3694642 28.8320967,39.4357958 C28.6830626,39.9027007 28.4460592,40.3173327 28.1452566,40.6666225 C28.4586413,41.0059499 28.7102964,41.4132258 28.8754118,41.8762833 Z M40.6860236,40.4212394 L40.6860236,40.7607809 C40.6860236,46.2392102 36.4693611,50.7400055 31.1860236,50.7400055 C27.1939256,50.7400055 23.668018,48.1331586 22.2880094,44.2629972 C21.8459172,43.0231729 22.1345938,41.691916 22.93694,40.7575794 C22.322125,40.0903531 21.9737837,39.1941026 22.0014996,38.2517467 C22.0010494,38.230285 22.0008087,38.2053274 22.0004122,38.164225 L22.0004122,28.8006083 C22.0004122,27.8530446 22.3720805,26.9579564 23.021944,26.2959895 C23.6788033,25.6268966 24.5767921,25.2400055 25.5324811,25.2400055 L36.767653,25.2400055 C38.7267058,25.2400055 40.2997219,26.8423181 40.2997219,28.8006083 C40.2997219,30.7507921 38.7397019,32.3479394 36.7919616,32.3611288 C39.1592299,34.1820941 40.6860236,37.124673 40.6860236,40.4212394 Z" id="Combined-Shape"/></g></g></g></svg>