<?xml version="1.0" encoding="UTF-8"?><svg width="73px" height="73px" viewBox="0 0 73 73" version="1.1" xmlns="http://www.w3.org/2000/svg" xmlns:xlink="http://www.w3.org/1999/xlink"><title>achievmement_social_2</title><desc>Created with Sketch.</desc><defs/><g id="Page-1" stroke="none" stroke-width="1" fill="none" fill-rule="evenodd"><g id="silver" transform="translate(-119.000000, -447.000000)"><g id="achievmement_social_2" transform="translate(117.000000, 445.000000)"><g id="bg"><path d="M9.0203536,47.7511662 L29.7181339,68.4489465 C34.6993809,73.4301934 42.7714818,73.4286308 47.7511662,68.4489465 L68.4489465,47.7511662 C73.4301934,42.7699192 73.4286308,34.6978183 68.4489465,29.7181339 L47.7511662,9.0203536 C42.7699192,4.03910668 34.6978183,4.04066925 29.7181339,9.0203536 L9.0203536,29.7181339 C4.03910668,34.6993809 4.04066925,42.7714818 9.0203536,47.7511662 Z M7.25258665,49.5189331 C1.29609921,43.5624457 1.29552129,33.9074323 7.25258665,27.950367 L27.950367,7.25258665 C33.9068544,1.29609921 43.5618678,1.29552129 49.5189331,7.25258665 L70.2167134,27.950367 C76.1732009,33.9068544 76.1737788,43.5618678 70.2167134,49.5189331 L49.5189331,70.2167134 C43.5624457,76.1732009 33.9074323,76.1737788 27.950367,70.2167134 L7.25258665,49.5189331 Z" id="Mask" fill="#6E7E8A" fill-rule="nonzero"/><rect id="Mask-Copy" fill="#AFBDC9" transform="translate(38.734650, 38.734650) rotate(-45.000000) translate(-38.734650, -38.734650)" x="11.3478298" y="11.3478298" width="54.7736404" height="54.7736404" rx="12.75"/><polygon id="Rectangle-12" fill="#E5EDF3" transform="translate(42.715399, 34.715399) rotate(-45.000000) translate(-42.715399, -34.715399)" points="51.6678889 7.30082242 51.4116936 62.1207783 34.1972455 62.1299762 33.7629097 7.33234987"/></g><g id="thumb" transform="translate(21.000000, 20.000000)"><path d="M33.0664346,23.9177374 L33.312283,24.4913837 C33.902874,25.8694294 33.6514946,27.1437153 32.8099036,27.9324027 C33.9772912,28.690434 34.75,30.0061279 34.75,31.5 C34.75,33.8476242 32.8492511,35.75 30.5018791,35.75 L15.4981209,35.75 C13.1530845,35.75 11.25,33.8444151 11.25,31.5 L11.25,7.49192389 C11.25,5.15000926 13.1558819,3.25 15.5,3.25 C17.8460387,3.25 19.75,5.15050967 19.75,7.49192389 L19.75,13.25 L27.4929651,13.25 C29.8424937,13.25 31.75,15.1551576 31.75,17.5 C31.75,18.8662876 31.0980472,20.1080323 30.0577098,20.8927674 C31.3920617,21.5548634 32.5285635,22.662705 33.0664346,23.9177374 Z" id="Combined-Shape" fill="#94A3AF" fill-rule="nonzero"/><path d="M19,10 L30.5018791,10 C32.4338379,10 34,11.5709366 34,13.5 C34,15.2639165 32.6971841,16.7230667 31,16.964836 L31,17.0352968 C32.6960216,17.2777637 34,18.7397946 34,20.5 C34,22.2639165 32.6971841,23.7230667 31,23.964836 L31,24.0352968 C32.6960216,24.2777637 34,25.7397946 34,27.5 C34,29.4329966 32.4354509,31 30.5018791,31 L15.4981209,31 C13.5661621,31 12,29.4290634 12,27.5 L12,3.49192389 C12,1.56338758 13.5709366,0 15.5,0 C17.4329966,0 19,1.56589374 19,3.49192389 L19,10 Z" id="Combined-Shape" fill="#AFBDC9"/><path d="M16.8344765,13.5 C16.8344765,14.87782 17.9582459,16 19.3421543,16 L28.4923222,16 C29.8812656,16 31,14.8824525 31,13.5 C31,12.12218 29.8762306,11 28.4923222,11 L19.3421543,11 C17.9532108,11 16.8344765,12.1175475 16.8344765,13.5 Z M14.8344765,13.5 C14.8344765,11.0125025 16.8491163,9 19.3421543,9 L28.4923222,9 C30.9801669,9 33,11.0169764 33,13.5 C33,15.9874975 30.9853602,18 28.4923222,18 L19.3421543,18 C16.8543095,18 14.8344765,15.9830236 14.8344765,13.5 Z" id="Rectangle-11" fill="#A1B0BC" fill-rule="nonzero"/><path d="M16.8344765,20.5 C16.8344765,21.87782 17.9582459,23 19.3421543,23 L28.4923222,23 C29.8812656,23 31,21.8824525 31,20.5 C31,19.12218 29.8762306,18 28.4923222,18 L19.3421543,18 C17.9532108,18 16.8344765,19.1175475 16.8344765,20.5 Z M14.8344765,20.5 C14.8344765,18.0125025 16.8491163,16 19.3421543,16 L28.4923222,16 C30.9801669,16 33,18.0169764 33,20.5 C33,22.9874975 30.9853602,25 28.4923222,25 L19.3421543,25 C16.8543095,25 14.8344765,22.9830236 14.8344765,20.5 Z" id="Rectangle-11-Copy" fill="#A1B0BC" fill-rule="nonzero"/><path d="M16.8344765,27.5 C16.8344765,28.87782 17.9582459,30 19.3421543,30 L28.4923222,30 C29.8812656,30 31,28.8824525 31,27.5 C31,26.12218 29.8762306,25 28.4923222,25 L19.3421543,25 C17.9532108,25 16.8344765,26.1175475 16.8344765,27.5 Z M14.8344765,27.5 C14.8344765,25.0125025 16.8491163,23 19.3421543,23 L28.4923222,23 C30.9801669,23 33,25.0169764 33,27.5 C33,29.9874975 30.9853602,32 28.4923222,32 L19.3421543,32 C16.8543095,32 14.8344765,29.9830236 14.8344765,27.5 Z" id="Rectangle-11-Copy-2" fill="#A1B0BC" fill-rule="nonzero"/><rect id="Rectangle-11-Copy-5" stroke="#6E7E8A" stroke-width="2" fill="#AFBDC9" x="17.8344765" y="10" width="16.1655235" height="7" rx="3.5"/><rect id="Rectangle-11-Copy-4" stroke="#6E7E8A" stroke-width="2" fill="#AFBDC9" x="17.8344765" y="17" width="16.1655235" height="7" rx="3.5"/><rect id="Rectangle-11-Copy-3" stroke="#6E7E8A" stroke-width="2" fill="#AFBDC9" x="17.8344765" y="24" width="16.1655235" height="7" rx="3.5"/><path d="M19,10 L30.5018791,10 C32.4338379,10 34,11.5709366 34,13.5 C34,15.2639165 32.6971841,16.7230667 31,16.964836 L31,17.0352968 C32.6960216,17.2777637 34,18.7397946 34,20.5 C34,22.2639165 32.6971841,23.7230667 31,23.964836 L31,24.0352968 C32.6960216,24.2777637 34,25.7397946 34,27.5 C34,29.4329966 32.4354509,31 30.5018791,31 L15.4981209,31 C13.5661621,31 12,29.4290634 12,27.5 L12,14.2540381 L12,3.49192389 C12,1.56338758 13.5709366,0 15.5,0 C17.4329966,0 19,1.56589374 19,3.49192389 L19,10 Z" id="Combined-Shape-Copy-7" stroke="#6E7E8A" stroke-width="2"/><path d="M1.02913279,19.1035314 C1.02913279,17.5832441 2.25569574,16.3584421 3.78505184,16.3584421 L6.77321374,16.3584421 C8.294536,16.3584421 9.52913279,17.5861145 9.52913279,19.1035314 L9.52913279,33.1133528 C9.52913279,34.6336401 8.30256983,35.8584421 6.77321374,35.8584421 L3.78505184,35.8584421 C2.26372958,35.8584421 1.02913279,34.6307697 1.02913279,33.1133528 L1.02913279,19.1035314 Z" id="Combined-Shape" fill="#94A3AF" fill-rule="nonzero"/><rect id="Rectangle-35-Copy" fill="#AFBDC9" x="1.77913279" y="12.1084421" width="7" height="18" rx="2"/><path d="M2.77913279,14.1035314 L2.77913279,28.1133528 C2.77913279,28.6620612 3.22803139,29.1084421 3.78505184,29.1084421 L6.77321374,29.1084421 C7.33663391,29.1084421 7.77913279,28.6665785 7.77913279,28.1133528 L7.77913279,14.1035314 C7.77913279,13.554823 7.33023418,13.1084421 6.77321374,13.1084421 L3.78505184,13.1084421 C3.22163167,13.1084421 2.77913279,13.5503057 2.77913279,14.1035314 Z M0.779132789,14.1035314 C0.779132789,12.4450925 2.1177049,11.1084421 3.78505184,11.1084421 L6.77321374,11.1084421 C8.4322934,11.1084421 9.77913279,12.4477276 9.77913279,14.1035314 L9.77913279,28.1133528 C9.77913279,29.7717918 8.44056068,31.1084421 6.77321374,31.1084421 L3.78505184,31.1084421 C2.12597218,31.1084421 0.779132789,29.7691567 0.779132789,28.1133528 L0.779132789,14.1035314 Z" id="Rectangle-35-Copy-2" fill="#6E7E8A" fill-rule="nonzero"/><path d="M21,13 L30.5131488,13 C31.0654335,13 31.5131488,12.5522847 31.5131488,12 C31.5131488,11.4477153 31.0654335,11 30.5131488,11 L21,11 C20.4477153,11 20,11.4477153 20,12 C20,12.5522847 20.4477153,13 21,13 Z" id="Line" fill="#E5EDF3" fill-rule="nonzero"/><path d="M21,23 L30.5131488,23 C31.0654335,23 31.5131488,22.5522847 31.5131488,22 C31.5131488,21.4477153 31.0654335,21 30.5131488,21 L21,21 C20.4477153,21 20,21.4477153 20,22 C20,22.5522847 20.4477153,23 21,23 Z" id="Line-Copy" fill="#A1B0BC" fill-rule="nonzero"/><path d="M21,16 L30.5131488,16 C31.0654335,16 31.5131488,15.5522847 31.5131488,15 C31.5131488,14.4477153 31.0654335,14 30.5131488,14 L21,14 C20.4477153,14 20,14.4477153 20,15 C20,15.5522847 20.4477153,16 21,16 Z" id="Line-Copy-4" fill="#A1B0BC" fill-rule="nonzero"/><path d="M21,30 L30.5131488,30 C31.0654335,30 31.5131488,29.5522847 31.5131488,29 C31.5131488,28.4477153 31.0654335,28 30.5131488,28 L21,28 C20.4477153,28 20,28.4477153 20,29 C20,29.5522847 20.4477153,30 21,30 Z" id="Line-Copy-3" fill="#A1B0BC" fill-rule="nonzero"/><circle id="Oval-24" fill="#E5EDF3" cx="14.5" cy="2.5" r="1.5"/></g><g id="sparkle" transform="translate(10.000000, 25.000000)" fill="#FFFFFF"><path d="M42.9626407,1.24264069 L47.5226406,1.24264069 L47.5226406,1.24264069 C47.9202857,1.24264069 48.2426407,1.56499569 48.2426407,1.96264074 L48.2426407,6.52264063 L48.2426407,6.52264063 C48.2426407,6.92028568 47.9202857,7.24264069 47.5226406,7.24264069 L42.9626407,7.24264069 L42.9626407,7.24264069 C42.5649957,7.24264069 42.2426407,6.92028568 42.2426407,6.52264063 L42.2426407,1.96264074 L42.2426407,1.96264074 C42.2426407,1.56499569 42.5649957,1.24264069 42.9626407,1.24264069 Z" id="Rectangle-2-Copy-25" transform="translate(45.242641, 4.242641) rotate(-315.000000) translate(-45.242641, -4.242641)"/><path d="M2.37685431,16.6568542 L8.93685419,16.6568542 L8.93685419,16.6568542 C9.33449924,16.6568542 9.65685425,16.9792093 9.65685425,17.3768543 L9.65685425,23.9368542 L9.65685425,23.9368542 C9.65685425,24.3344992 9.33449924,24.6568542 8.93685419,24.6568542 L2.37685431,24.6568542 L2.37685431,24.6568542 C1.97920926,24.6568542 1.65685425,24.3344992 1.65685425,23.9368542 L1.65685425,17.3768543 L1.65685425,17.3768543 C1.65685425,16.9792093 1.97920926,16.6568542 2.37685431,16.6568542 Z" id="Rectangle-2-Copy-26" transform="translate(5.656854, 20.656854) rotate(-315.000000) translate(-5.656854, -20.656854)"/></g></g></g></g></svg>