<?xml version="1.0" encoding="UTF-8"?><svg width="213px" height="160px" viewBox="0 0 213 160" version="1.1" xmlns="http://www.w3.org/2000/svg" xmlns:xlink="http://www.w3.org/1999/xlink"><title>ad-free</title><desc>Created with Sketch.</desc><defs><radialGradient cx="52.850467%" cy="51.3124746%" fx="52.850467%" fy="51.3124746%" r="74.7785453%" id="radialGradient-1"><stop stop-color="#A9E3FF" offset="0%"/><stop stop-color="#EDF9FF" offset="100%"/></radialGradient><ellipse id="path-2" cx="80.6948052" cy="79.9025974" rx="79.9025974" ry="79.9025974"/><radialGradient cx="50%" cy="54.9824714%" fx="50%" fy="54.9824714%" r="55.8535491%" id="radialGradient-4"><stop stop-color="#C9EEFF" offset="0%"/><stop stop-color="#6DCFFD" offset="100%"/></radialGradient><path d="M9.37364616,44.128884 C4.01481155,54.8604951 1,66.9670417 1,79.7777352 C1,114.465492 23.103819,143.990625 53.9947661,155.036444 C55.2165394,152.943349 57.4873037,151.536787 60.0845741,151.536787 L77.921805,151.536787 C78.643601,135.860649 91.9528175,123.366745 108.265478,123.366745 C109.967776,123.366745 111.637367,123.502802 113.26336,123.764333 C118.738826,112.192758 130.774643,104.158271 144.741893,104.158271 C148.820225,104.158271 152.733884,104.843289 156.367633,106.10136 C159.242571,97.8586615 160.805195,89.0006835 160.805195,79.7777352 C160.805195,37.1605913 127.440776,2.33612513 85.4076008,5.96744876e-16 C89.0944095,5.02216609 91.2716676,11.2193071 91.2716676,17.9244299 C91.2716676,22.080179 90.4353041,26.0407939 88.9215467,29.6474752 L100.315179,29.6474752 C102.945753,29.6474752 105.078255,31.7842569 105.078255,34.4092875 L105.078255,39.3670717 C105.078255,41.996948 102.933117,44.128884 100.315179,44.128884 L9.37364616,44.128884 Z" id="path-5"/><linearGradient x1="50.032557%" y1="99.9406074%" x2="50.032557%" y2="-0.0137232846%" id="linearGradient-7"><stop stop-color="#78C800" offset="20.55%"/><stop stop-color="#0BAE00" offset="100%"/></linearGradient></defs><g id="Page-1" stroke="none" stroke-width="1" fill="none" fill-rule="evenodd"><g id="ad-free"><g id="Group" transform="translate(-1.000000, 0.000000)"><g id="bg" transform="translate(26.000000, 0.000000)"><mask id="mask-3" fill="white"><use xlink:href="#path-2"/></mask><use id="Oval-3-Copy" fill="url(#radialGradient-1)" xlink:href="#path-2"/><mask id="mask-6" fill="white"><use xlink:href="#path-5"/></mask><use id="Combined-Shape" fill="url(#radialGradient-4)" xlink:href="#path-5"/></g><g id="Layer_1" transform="translate(106.212854, 80.150408) rotate(-345.000000) translate(-106.212854, -80.150408) translate(8.712854, 33.650408)"><path d="M101.423589,12.8638357 C105.586888,13.0187961 109.055922,10.6185368 109.171895,7.50270648 C109.287868,4.38687618 106.006863,1.73537646 101.843564,1.5804161 C97.680266,1.42545574 94.211231,3.82571507 94.095258,6.94154537 C93.979285,10.0573757 97.2602906,12.7088754 101.423589,12.8638357 Z" id="Oval" fill="#F49000"/><path d="M101.342301,9.9046698 C98.2653061,9.8056231 95.5853432,8.61706272 93.8979592,6.83422216 C94.096475,9.8056231 97.2727273,12.1827439 101.243043,12.2817905 C105.213358,12.3808372 108.488868,10.3008566 108.985158,7.32945565 C107.198516,9.01324952 104.419295,10.0037165 101.342301,9.9046698 L101.342301,9.9046698 Z" id="Shape" fill="#DB6D00" opacity="0.7"/><path d="M192.262523,31.9920834 C189.284787,31.9920834 180.450835,37.5386985 166.058442,37.5386985 C161.294063,37.5386985 158.018553,35.6568113 156.529685,34.6663443 L156.529685,30.4073363 C156.529685,18.026499 154.246753,11.489417 150.077922,11.489417 C146.40538,11.489417 136.181818,20.7007599 134.494434,19.2150594 C123.576067,9.7065764 109.084416,8.12182923 91.6150278,8.02278254 C89.729128,6.73517546 86.1558442,4.65519481 83.674397,4.65519481 C79.2077922,4.65519481 75.8330241,8.12182923 73.8478664,10.6970434 C61.4406308,15.6493783 56.1799629,26.1483283 54.9888683,29.6149627 C53.6985158,32.8835037 54.8896104,44.273874 41.5890538,49.2262089 C23.1270872,55.9613844 0.694805195,49.0281155 0.694805195,56.2585245 C0.694805195,68.7384084 35.1372913,83.8925532 73.4508349,80.029732 C77.8181818,79.6335452 83.8729128,92.7077093 112.260668,92.7077093 C129.333024,92.7077093 139.755102,85.1801603 146.206865,75.2754905 C183.329314,67.549848 193.949907,37.4396518 193.949907,34.765391 C194.049165,34.2701575 194.446197,31.9920834 192.262523,31.9920834 L192.262523,31.9920834 Z" id="Shape" fill="url(#linearGradient-7)"/><path d="M145.01577,26.9407019 C142.534323,26.9407019 141.938776,28.2283089 141.045455,27.4359353 C140.648423,27.0397485 142.732839,26.1483283 142.732839,25.7521415 C142.732839,25.5540481 142.435065,25.5540481 141.938776,25.5540481 C139.358071,25.5540481 134.295918,29.3178226 133.601113,29.3178226 C133.30334,29.3178226 132.80705,29.4168693 132.80705,28.9216358 C132.80705,27.8321221 136.380334,26.9407019 133.898887,26.9407019 C131.41744,26.9407019 127.744898,30.1101962 123.87384,30.1101962 C115.93321,30.1101962 109.481447,23.8702542 109.481447,25.4550014 C109.481447,26.0492816 110.374768,26.8416552 110.970315,28.0302155 C110.970315,28.0302155 111.367347,29.7140094 110.672542,29.0206825 C103.426716,21.7902736 96.0816327,20.007433 96.0816327,20.007433 C96.0816327,20.007433 95.4860853,20.007433 95.4860853,20.2055264 C95.4860853,20.9979 97.0742115,22.1864603 97.0742115,22.4836004 C97.0742115,22.7807405 96.8756957,22.9788339 96.5779221,22.9788339 C94.9897959,22.9788339 93.8979592,20.007433 87.6447124,20.007433 C78.2152134,20.007433 75.6345083,34.765391 75.6345083,46.9481348 C75.6345083,64.1822603 86.7513915,69.6298287 95.8831169,69.6298287 C103.128942,69.6298287 110.970315,65.3708207 114.245826,59.031832 L123.973098,59.7251589 C123.973098,59.7251589 128.737477,68.7384084 137.273655,68.7384084 C145.313544,68.7384084 152.261596,63.6870268 152.261596,46.1557613 C152.360853,27.7330754 147.497217,26.9407019 145.01577,26.9407019 L145.01577,26.9407019 Z" id="Shape" fill="#8EE000"/><ellipse id="Oval" fill="#FFFFFF" cx="94.9897959" cy="47.6414617" rx="12.4072356" ry="15.0550981"/><path d="M147.794991,50.513816 C147.397959,57.8432716 142.435065,63.5879801 136.777365,63.3898867 C131.020408,63.1917933 126.752319,57.1499447 127.149351,49.8204891 C127.546382,42.4910334 132.509276,36.746325 138.166976,36.9444183 C143.824675,37.1425117 148.192022,43.1843603 147.794991,50.513816 L147.794991,50.513816 Z" id="Shape" fill="#FFFFFF"/><ellipse id="Oval" fill="#3F3F3F" cx="97.7690167" cy="46.9481348" rx="6.84879406" ry="8.22087593"/><ellipse id="Oval" fill="#FFFFFF" cx="93.4016698" cy="41.6986599" rx="3.17625232" ry="3.46663443"/><path d="M65.436397,12.2830824 C69.8700445,12.0391625 73.3229383,9.27329071 73.1486512,6.10533489 C72.9743641,2.93737908 69.2388951,0.566979637 64.8052476,0.81089956 C60.3716002,1.05481948 56.9187064,3.82069125 57.0929935,6.98864707 C57.2672806,10.1566029 61.0027496,12.5270023 65.436397,12.2830824 Z" id="Oval" fill="#F49000"/><path d="M65.0139147,9.50848301 C61.8376623,9.7065764 58.8599258,8.81515612 57.0732839,7.42850235 C57.5695733,10.3999033 61.1428571,12.5789306 65.4109462,12.2817905 C69.877551,12.0836972 73.351577,9.21134291 73.1530612,6.04184858 C73.1530612,6.04184858 73.1530612,6.04184858 73.1530612,5.94280188 C71.6641929,7.92373584 68.5871985,9.31038961 65.0139147,9.50848301 L65.0139147,9.50848301 Z" id="Shape" fill="#DB6D00" opacity="0.7"/><path d="M145.412801,49.9195358 C145.115028,54.1785438 142.236549,57.5461315 138.961039,57.4470848 C135.685529,57.2489914 133.30334,53.6833103 133.700371,49.4243023 C133.998145,45.1652943 136.876623,41.7977065 140.152134,41.8967532 C143.328386,42.0948466 145.710575,45.6605278 145.412801,49.9195358 L145.412801,49.9195358 Z" id="Shape" fill="#3F3F3F"/><path d="M110.871058,64.9746339 C110.871058,64.9746339 108.8859,81.6144791 114.345083,81.5154324 C119.804267,81.4163857 119.605751,73.3936032 119.506494,73.2945565 C119.407236,73.1955098 110.871058,64.9746339 110.871058,64.9746339 L110.871058,64.9746339 Z" id="Shape" fill="#71B200"/><path d="M135.861691,48.2070544 C137.450636,48.1581517 138.695079,46.7001868 138.641232,44.9505987 C138.587385,43.2010105 137.255639,41.8223325 135.666694,41.8712352 C134.077749,41.9201379 132.833306,43.3781027 132.887153,45.1276909 C132.941,46.877279 134.272746,48.255957 135.861691,48.2070544 Z" id="Oval" fill="#FFFFFF"/><path d="M55.0881262,29.6149627 C54.2940631,31.6949434 54.4925788,36.9444183 51.3163265,41.7977065 C52.5074212,40.2129594 54.1948052,38.6282122 56.6762523,38.6282122 C60.8450835,38.6282122 60.3487941,50.4147693 64.4183673,50.4147693 C68.4879406,50.4147693 66.9990724,22.4836004 72.458256,13.0741641 C72.9545455,12.1827439 73.4508349,11.489417 73.9471243,10.6970434 C61.5398887,15.6493783 56.2792208,26.1483283 55.0881262,29.6149627 L55.0881262,29.6149627 Z" id="Shape" fill="#000000" opacity="0.1"/><path d="M110.871058,63.29084 C110.871058,63.29084 109.679963,75.4735839 115.635436,75.4735839 C121.590909,75.4735839 124.469388,70.6202957 124.469388,66.262241 C124.469388,61.9041862 110.871058,63.29084 110.871058,63.29084 L110.871058,63.29084 Z" id="Shape" fill="#F49000"/><path d="M119.804267,56.1594778 C124.072356,56.1594778 127.347866,61.1118127 127.347866,66.0641476 C127.347866,71.0164825 123.278293,76.0678641 121.987941,76.0678641 C120.697588,76.0678641 110.871058,66.9555678 110.871058,63.0927466 C110.871058,59.2299254 114.543599,56.1594778 119.804267,56.1594778 L119.804267,56.1594778 Z" id="Shape" fill="#FFC200"/><path d="M119.538357,60.6399041 C121.125713,60.7277017 122.451703,60.0904245 122.50004,59.2165056 C122.548377,58.3425868 121.300756,57.5629616 119.713401,57.475164 C118.126046,57.3873664 116.800055,58.0246436 116.751718,58.8985625 C116.703381,59.7724813 117.951002,60.5521065 119.538357,60.6399041 Z" id="Oval" fill="#FFF3B8"/><path d="M134.990724,19.4131528 C134.990724,19.4131528 134.891466,19.4131528 134.990724,19.4131528 C133.104824,19.9083863 128.340445,20.7998066 120.995362,20.7998066 C109.183673,20.7998066 99.1586271,12.777024 91.7142857,8.02278254 L91.7142857,8.02278254 C91.4165121,7.82468914 91.1187384,7.62659574 90.8209647,7.42850235 C90.3246753,7.13136225 89.8283859,6.83422216 89.3320965,6.53708207 C87.5454545,5.54661509 85.461039,4.65519481 83.7736549,4.65519481 C80.7959184,4.65519481 78.3144712,6.14089527 76.3293135,8.02278254 C75.1382189,9.21134291 73.8478664,10.8951368 72.5575139,13.0741641 C71.2671614,15.2531915 70.3738404,18.3236391 69.7782931,21.8893203 L69.9768089,21.8893203 C70.6716141,18.8188726 71.4656772,16.1446118 72.5575139,14.1636778 C78.0166976,4.7542415 83.4758813,5.84375518 84.567718,5.84375518 C90.3246753,5.84375518 104.717069,21.8893203 120.995362,21.8893203 C130.325603,21.8893203 135.387755,20.2055264 136.479592,19.6112462 C136.380334,19.6112462 136.281076,19.5121995 136.181818,19.5121995 C135.983302,19.2150594 135.288497,19.5121995 134.990724,19.4131528 L134.990724,19.4131528 Z" id="Shape" fill="#9CFF00" opacity="0.6"/><path d="M113.650278,90.8258221 C85.1632653,90.8258221 74.8404453,72.6012296 70.4730983,72.6012296 C68.7857143,72.6012296 68.6864564,76.8602376 53.7977737,76.8602376 C22.6307978,76.8602376 1.88589981,59.6261122 1.2903525,54.6737773 L1.2903525,54.6737773 L0.99257885,57.5461315 C3.2755102,69.7288754 36.6261596,83.7935065 73.5500928,80.029732 C77.9174397,79.6335452 83.9721707,92.7077093 112.359926,92.7077093 L112.359926,92.7077093 L112.359926,92.7077093 L113.253247,92.7077093 L113.55102,92.7077093 L113.749536,92.7077093 L114.245826,92.7077093 L114.543599,92.7077093 L114.841373,92.7077093 L115.238404,92.7077093 L115.43692,92.7077093 L115.833952,92.7077093 L116.330241,92.7077093 L116.727273,92.7077093 L117.223562,92.7077093 L117.32282,92.7077093 L117.719852,92.7077093 L118.116883,92.7077093 L118.216141,92.7077093 L118.613173,92.7077093 C118.71243,92.7077093 118.910946,92.7077093 119.010204,92.6086626 L119.010204,92.6086626 C119.109462,92.6086626 119.307978,92.6086626 119.407236,92.5096159 C119.506494,92.5096159 119.705009,92.5096159 119.804267,92.4105692 C120.002783,92.4105692 120.102041,92.4105692 120.300557,92.3115225 C120.399814,92.3115225 120.59833,92.3115225 120.697588,92.2124758 C120.896104,92.2124758 120.995362,92.1134291 121.193878,92.1134291 C121.293135,92.1134291 121.491651,92.1134291 121.590909,92.0143824 C121.789425,92.0143824 121.888683,91.9153357 122.087199,91.9153357 C122.186456,91.9153357 122.384972,91.816289 122.48423,91.816289 C122.682746,91.816289 122.782004,91.7172423 122.980519,91.7172423 C123.079777,91.7172423 123.278293,91.6181956 123.377551,91.6181956 C123.576067,91.6181956 123.675325,91.5191489 123.87384,91.5191489 C123.973098,91.5191489 124.072356,91.4201022 124.270872,91.4201022 C124.469388,91.4201022 124.568646,91.3210555 124.767161,91.3210555 C124.866419,91.3210555 124.965677,91.2220088 125.064935,91.2220088 C125.263451,91.2220088 125.362709,91.1229621 125.561224,91.1229621 C125.660482,91.1229621 125.75974,91.0239154 125.858998,91.0239154 C126.057514,91.0239154 126.156772,90.9248687 126.355288,90.9248687 C126.454545,90.9248687 126.553803,90.8258221 126.653061,90.8258221 C126.851577,90.7267754 126.950835,90.7267754 127.149351,90.6277287 C127.248609,90.6277287 127.347866,90.528682 127.447124,90.528682 C127.64564,90.4296353 127.744898,90.4296353 127.943414,90.3305886 C128.042672,90.3305886 128.141929,90.2315419 128.241187,90.2315419 C128.439703,90.1324952 128.538961,90.1324952 128.737477,90.0334485 C128.836735,90.0334485 128.935993,89.9344018 128.935993,89.9344018 C129.134508,89.8353551 129.233766,89.8353551 129.432282,89.7363084 L129.53154,89.7363084 C129.53154,89.7363084 129.630798,89.7363084 129.630798,89.6372617 C129.829314,89.538215 129.928571,89.538215 130.127087,89.4391683 L130.226345,89.4391683 C130.226345,89.4391683 130.325603,89.4391683 130.325603,89.3401216 C130.524119,89.2410749 130.722635,89.1420282 130.92115,89.1420282 L131.020408,89.1420282 C131.913729,88.7458414 132.707792,88.3496546 133.501855,87.9534678 L133.501855,87.9534678 C133.998145,87.6563277 134.494434,87.3591876 134.990724,87.0620475 L134.990724,87.0620475 C135.487013,86.7649074 135.983302,86.4677673 136.380334,86.1706272 L136.479592,86.1706272 C136.678108,85.9725338 136.975881,85.8734872 137.174397,85.6753938 L137.174397,85.6753938 C133.799629,86.7649074 123.576067,90.8258221 113.650278,90.8258221 L113.650278,90.8258221 Z" id="Shape" fill="#000000" opacity="0.1"/><path d="M194.049165,33.9730174 L194.049165,33.5768306 L194.049165,33.5768306 C194.049165,33.3787372 193.949907,33.1806438 193.949907,32.9825504 L193.949907,32.9825504 C193.949907,32.8835037 193.850649,32.784457 193.751391,32.6854103 L193.751391,32.6854103 C193.652134,32.5863636 193.552876,32.4873169 193.453618,32.3882702 L193.453618,32.3882702 C193.35436,32.3882702 193.35436,32.2892235 193.255102,32.2892235 L193.255102,32.2892235 C191.071429,37.9348853 181.443414,62.0032329 155.834879,68.3422216 C153.651206,68.9365018 151.070501,69.4317353 148.78757,69.6298287 C148.192022,71.808856 147.298701,73.6907433 146.504638,75.1764438 C146.703154,75.1764438 146.90167,75.0773971 147.199443,75.0773971 C147.497217,74.9783504 147.794991,74.9783504 148.092764,74.8793037 C148.390538,74.780257 148.589054,74.780257 148.886827,74.6812103 C149.184601,74.5821636 149.482375,74.5821636 149.780148,74.4831169 C150.077922,74.3840702 150.276438,74.3840702 150.574212,74.2850235 C150.871985,74.1859768 151.169759,74.0869301 151.467532,74.0869301 C151.765306,73.9878834 151.963822,73.8888367 152.261596,73.8888367 C152.559369,73.78979 152.857143,73.6907433 153.055659,73.5916966 C153.353432,73.4926499 153.551948,73.3936032 153.849722,73.3936032 C154.147495,73.2945565 154.445269,73.1955098 154.643785,73.0964631 C154.842301,72.9974164 155.140074,72.8983697 155.33859,72.799323 C155.636364,72.7002763 155.834879,72.6012296 156.132653,72.5021829 C156.331169,72.4031362 156.628942,72.3040895 156.827458,72.2050428 C157.125232,72.1059961 157.323748,72.0069494 157.621521,71.9079027 C157.820037,71.808856 158.117811,71.7098093 158.316327,71.6107626 C158.6141,71.5117159 158.812616,71.4126692 159.11039,71.3136225 C159.308905,71.2145758 159.507421,71.1155292 159.805195,71.0164825 C160.102968,70.9174358 160.301484,70.8183891 160.599258,70.7193424 C160.797774,70.6202957 160.996289,70.521249 161.294063,70.4222023 C161.492579,70.3231556 161.790353,70.2241089 161.988868,70.1250622 C162.187384,70.0260155 162.3859,69.9269688 162.584416,69.8279221 C162.782931,69.7288754 163.080705,69.6298287 163.279221,69.530782 C163.477737,69.4317353 163.676252,69.3326886 163.874768,69.2336419 C164.073284,69.1345952 164.371058,69.0355485 164.569573,68.8374551 C164.768089,68.7384084 164.966605,68.6393617 165.165121,68.540315 C165.363636,68.4412683 165.66141,68.3422216 165.859926,68.1441282 C166.058442,68.0450815 166.256957,67.9460348 166.455473,67.8469881 C166.653989,67.7479414 166.951763,67.549848 167.150278,67.4508013 C167.348794,67.3517546 167.54731,67.2527079 167.745826,67.1536612 C167.944341,67.0546145 168.142857,66.8565211 168.440631,66.7574744 C168.639147,66.6584277 168.837662,66.559381 169.036178,66.4603343 C169.234694,66.3612876 169.43321,66.1631943 169.631725,66.0641476 C169.830241,65.9651009 170.028757,65.8660542 170.128015,65.7670075 C170.326531,65.6679608 170.525046,65.4698674 170.723562,65.3708207 C170.922078,65.271774 171.021336,65.1727273 171.219852,64.9746339 C171.418367,64.8755872 171.616883,64.6774938 171.815399,64.5784471 C172.013915,64.4794004 172.113173,64.3803537 172.311688,64.1822603 C172.510204,64.0832136 172.70872,63.8851202 172.907236,63.7860735 C173.105751,63.6870268 173.205009,63.5879801 173.403525,63.3898867 C173.602041,63.29084 173.800557,63.0927466 173.999072,62.9936999 C174.197588,62.8946532 174.296846,62.7956065 174.495362,62.5975131 C174.693878,62.4984664 174.892393,62.300373 175.090909,62.2013263 C175.289425,62.1022796 175.388683,62.0032329 175.587199,61.8051395 C175.785714,61.7060928 175.98423,61.5079994 176.083488,61.4089527 C176.182746,61.3099061 176.381262,61.2108594 176.480519,61.012766 C176.679035,60.9137193 176.877551,60.7156259 176.976809,60.6165792 C177.076067,60.5175325 177.274583,60.4184858 177.37384,60.2203924 C177.572356,60.022299 177.671614,59.9232523 177.87013,59.7251589 C177.969388,59.6261122 178.167904,59.5270655 178.267161,59.3289721 C178.465677,59.1308787 178.564935,59.031832 178.763451,58.8337386 C178.862709,58.7346919 179.061224,58.5365985 179.160482,58.4375518 C179.358998,58.2394584 179.458256,58.1404117 179.656772,57.9423183 C179.75603,57.8432716 179.954545,57.7442249 180.053803,57.5461315 C180.252319,57.3480381 180.351577,57.2489914 180.550093,57.050898 C180.649351,56.9518513 180.748609,56.8528046 180.947124,56.6547112 C181.14564,56.4566179 181.244898,56.3575712 181.344156,56.1594778 C181.443414,56.0604311 181.542672,55.9613844 181.741187,55.763291 C181.840445,55.5651976 182.038961,55.4661509 182.138219,55.2680575 C182.237477,55.1690108 182.336735,55.0699641 182.435993,54.8718707 C182.53525,54.6737773 182.733766,54.5747306 182.833024,54.3766372 C182.932282,54.2775905 183.03154,54.1785438 183.130798,53.9804504 C183.230056,53.782357 183.428571,53.6833103 183.527829,53.4852169 C183.627087,53.3861702 183.726345,53.2871235 183.825603,53.0890301 C183.924861,52.8909367 184.123377,52.79189 184.222635,52.5937966 C184.321892,52.4947499 184.42115,52.3957032 184.520408,52.1976098 C184.619666,51.9995164 184.818182,51.9004697 184.91744,51.7023763 C185.016698,51.6033296 185.115955,51.504283 185.215213,51.3061896 C185.314471,51.1080962 185.413729,51.0090495 185.612245,50.8109561 C185.711503,50.7119094 185.810761,50.6128627 185.910019,50.4147693 C186.009276,50.2166759 186.108534,50.1176292 186.207792,49.9195358 C186.30705,49.8204891 186.406308,49.7214424 186.505566,49.523349 C186.604824,49.3252556 186.704082,49.2262089 186.80334,49.0281155 C186.902597,48.9290688 187.001855,48.8300221 187.001855,48.6319287 C187.101113,48.4338353 187.200371,48.3347886 187.299629,48.1366952 C187.398887,48.0376485 187.498145,47.9386018 187.498145,47.8395551 C187.597403,47.7405084 187.69666,47.542415 187.795918,47.4433683 C187.895176,47.3443216 187.994434,47.2452749 187.994434,47.1462282 C188.093692,47.0471815 188.19295,46.8490881 188.292208,46.7500414 C188.391466,46.6509947 188.391466,46.5519481 188.490724,46.4529014 C188.589981,46.3538547 188.689239,46.1557613 188.788497,46.0567146 C188.887755,45.9576679 188.887755,45.8586212 188.987013,45.7595745 C189.086271,45.6605278 189.185529,45.4624344 189.284787,45.3633877 C189.384045,45.264341 189.384045,45.1652943 189.483302,45.0662476 C189.58256,44.9672009 189.681818,44.7691075 189.781076,44.6700608 C189.880334,44.5710141 189.880334,44.4719674 189.979592,44.3729207 C190.07885,44.273874 190.178108,44.0757806 190.178108,43.9767339 C190.277365,43.8776872 190.277365,43.7786405 190.376623,43.6795938 C190.475881,43.5805471 190.575139,43.3824537 190.575139,43.283407 C190.674397,43.1843603 190.674397,43.0853136 190.773655,42.9862669 C190.872913,42.8872202 190.872913,42.6891268 190.972171,42.5900801 C191.071429,42.4910334 191.071429,42.3919867 191.170686,42.29294 C191.269944,42.1938933 191.269944,41.9957999 191.369202,41.8967532 C191.369202,41.7977065 191.46846,41.6986599 191.46846,41.5996132 C191.567718,41.5005665 191.567718,41.3024731 191.666976,41.2034264 C191.666976,41.1043797 191.766234,41.005333 191.766234,40.9062863 C191.865492,40.8072396 191.865492,40.7081929 191.96475,40.5100995 C191.96475,40.4110528 192.064007,40.3120061 192.064007,40.2129594 C192.163265,40.1139127 192.163265,40.014866 192.262523,39.9158193 C192.262523,39.8167726 192.361781,39.7177259 192.361781,39.6186792 C192.461039,39.5196325 192.461039,39.4205858 192.560297,39.3215391 C192.560297,39.2224924 192.659555,39.1234457 192.659555,39.024399 C192.659555,38.9253523 192.758813,38.8263056 192.758813,38.7272589 C192.758813,38.6282122 192.858071,38.5291655 192.858071,38.5291655 C192.858071,38.4301188 192.957328,38.3310721 192.957328,38.2320254 C192.957328,38.1329787 193.056586,38.033932 193.056586,38.033932 C193.056586,37.9348853 193.155844,37.8358386 193.155844,37.7367919 C193.155844,37.6377452 193.255102,37.5386985 193.255102,37.5386985 C193.255102,37.4396518 193.35436,37.3406051 193.35436,37.2415584 C193.35436,37.1425117 193.453618,37.1425117 193.453618,37.043465 C193.453618,36.9444183 193.552876,36.8453716 193.552876,36.8453716 C193.552876,36.746325 193.552876,36.746325 193.652134,36.6472783 C193.652134,36.5482316 193.751391,36.4491849 193.751391,36.4491849 C193.751391,36.3501382 193.751391,36.3501382 193.850649,36.2510915 C193.850649,36.1520448 193.850649,36.1520448 193.949907,36.0529981 C193.949907,35.9539514 193.949907,35.9539514 194.049165,35.8549047 C194.049165,35.755858 194.049165,35.755858 194.148423,35.6568113 C194.148423,35.5577646 194.148423,35.5577646 194.247681,35.4587179 L194.247681,35.3596712 L194.247681,35.1615778 L194.247681,35.0625311 L194.247681,34.8644377 L194.247681,34.765391 L194.247681,34.6663443 L194.247681,34.5672976 L194.247681,34.4682509 L194.247681,34.3692042 L194.247681,34.2701575 C194.247681,34.2701575 194.247681,34.2701575 194.247681,34.1711108 L194.247681,34.1711108 L194.247681,34.0720641 L194.247681,33.774924 L194.247681,33.774924 C194.049165,34.1711108 194.049165,34.0720641 194.049165,33.9730174 L194.049165,33.9730174 L194.049165,33.9730174 Z" id="Shape" fill="#000000" opacity="0.1"/><path d="M134.494434,19.2150594 C123.576067,9.7065764 109.084416,8.12182923 91.6150278,8.02278254 C98.8608534,12.6779773 109.382189,20.7998066 120.896104,20.7998066 C130.226345,20.7998066 133.601113,20.007433 134.69295,19.4131528 L134.69295,19.4131528 C134.69295,19.3141061 134.593692,19.3141061 134.494434,19.2150594 L134.494434,19.2150594 Z" id="Shape" fill="#000000" opacity="0.1"/></g></g></g></g></svg>