<?xml version="1.0" encoding="UTF-8"?><svg width="32px" height="32px" viewBox="0 0 32 32" version="1.1" xmlns="http://www.w3.org/2000/svg" xmlns:xlink="http://www.w3.org/1999/xlink"><title>Group 2 Copy</title><desc>Created with Sketch.</desc><defs/><g id="Page-1" stroke="none" stroke-width="1" fill="none" fill-rule="evenodd"><g id="Group-2-Copy"><rect id="Rectangle" fill="#CFCFCF" x="0" y="0" width="32" height="32" rx="16"/><g id="Group-6"><g id="Group-3" fill="#CFCFCF"><g id="Group-2"><rect id="Rectangle" x="0" y="0" width="32" height="32" rx="16"/></g></g><g id="Page-1" transform="translate(16.146447, 15.353553) rotate(-45.000000) translate(-16.146447, -15.353553) translate(6.146447, 7.353553)" fill="#FFFFFF"><path d="M4.92000219,9.49884591 C4.87591916,10.0094625 4.80884667,10.4888844 4.71867011,10.9044031 L4.04698507,13.9994169 C3.69503557,15.621142 4.60467586,16.3123316 6.07642626,15.5444307 L17.9306082,9.35938928 C19.4033871,8.59095172 19.4023586,7.34453164 17.9306082,6.57663072 L6.07642626,0.391589276 C4.60364734,-0.376848279 3.69271933,0.304205115 4.04698507,1.93660312 L4.71867011,5.03161688 C4.80859503,5.4459761 4.87569489,5.92541833 4.91985376,6.4368635 L10.1696446,7.5187511 C11.3799629,7.76817597 11.3732503,8.16894738 10.1696446,8.4169889 L4.92000219,9.49884591 Z" id="Combined-Shape"/></g></g></g></g></svg>