<?xml version="1.0" encoding="UTF-8"?><svg width="107px" height="120px" viewBox="0 0 107 120" version="1.1" xmlns="http://www.w3.org/2000/svg" xmlns:xlink="http://www.w3.org/1999/xlink"><title>chest_half</title><desc>Created with Sketch.</desc><defs><rect id="path-1" x="0" y="0" width="28.8398438" height="30.7207031" rx="4"/><path d="M16.8,0 C19.2370696,3.83026943e-15 21,1.58488094 21,4 L21,42 C21,44.4186037 19.2366707,46 16.8,46 L4.2,46 C1.76293041,46 0,44.4151191 0,42 L0,4 C1.86517468e-14,1.58139626 1.76332928,0 4.2,0 L16.8,0 Z" id="path-3"/><path d="M16.8,0 C19.2370696,3.83026943e-15 21,1.58488094 21,4 L21,42 C21,44.4186037 19.2366707,46 16.8,46 L4.2,46 C1.76293041,46 0,44.4151191 0,42 L0,4 C1.86517468e-14,1.58139626 1.76332928,0 4.2,0 L16.8,0 Z" id="path-5"/></defs><g id="Page-1" stroke="none" stroke-width="1" fill="none" fill-rule="evenodd"><g id="chest_half"><g id="half" transform="translate(0.000000, 15.000000)"><g id="Group-9" transform="translate(1.000000, 0.000000)"><polygon id="Rectangle-60" fill="#785305" points="0 35 105 35 98.75 76 6.25 76"/><rect id="Rectangle" fill="#4C2B0D" x="20" y="31" width="65" height="40"/><rect id="Rectangle-56" fill="#E3A800" x="0" y="17" width="105" height="20" rx="2"/><rect id="Rectangle-59" fill="#A86425" x="10.703125" y="4.82857169" width="86.5195312" height="19.0468359"/><rect id="Rectangle-56" fill="#FFBC00" x="0.044921875" y="16.046875" width="105" height="15" rx="6"/><path d="M0,1.99821383 C0,0.894630804 0.90234375,0 1.99456145,0 L19.0054385,0 C20.1070044,0 21,0.894337654 21,1.99821383 L21,31 L1.99456145,31 C0.892995579,31 0,30.1056623 0,29.0017862 L0,1.99821383 Z" id="Rectangle-64" fill="#FFE600"/><circle id="Oval-26" fill="#FFBC00" cx="10.5" cy="15.5" r="3.5"/><path d="M84,1.99821383 C84,0.894630804 84.9023438,0 85.9945615,0 L103.005439,0 C104.107004,0 105,0.894337654 105,1.99821383 L105,29.0017862 C105,30.1053692 104.097656,31 103.005439,31 L84,31 L84,1.99821383 Z" id="Rectangle-64-Copy" fill="#FFE600"/><circle id="Oval-26" fill="#FFBC00" cx="94.5" cy="15.5" r="3.5"/><g id="Rectangle-68" transform="translate(39.542969, 17.554688)"><mask id="mask-2" fill="white"><use xlink:href="#path-1"/></mask><use id="Mask" fill="#E3A800" xlink:href="#path-1"/></g><rect id="Mask" fill="#FFD300" x="39.5429688" y="11.9121094" width="28.8398438" height="30.7207031" rx="4"/><path d="M68.3828125,20.5474499 L68.3828125,15.9125456 C68.3828125,13.6965702 66.5942321,11.9121094 64.3879063,11.9121094 L43.5378749,11.9121094 C41.3252659,11.9121094 39.5429688,13.7031657 39.5429688,15.9125456 L39.5429688,37.1981415 L68.3828125,20.5474499 Z" id="Combined-Shape" fill="#FFE600"/><rect id="Rectangle-72" fill="#FFE900" x="49.5742188" y="35.7363281" width="9.40429688" height="2.5078125" rx="1.25390625"/><g id="Group-35" transform="translate(48.947266, 18.181641)" fill="#E09201"><circle id="Oval-25" cx="5.32910156" cy="5.32910156" r="5.32910156"/><path d="M3.07276833,8.90124751 C4.3188686,6.4090208 6.33602616,6.40263814 7.58534396,8.90124751 L9.67419399,13.0789037 C10.9101605,15.5508108 9.67867429,17.5546875 6.9158302,17.5546875 L3.74237292,17.5546875 C0.98300413,17.5546875 -0.254099551,15.5550531 0.98396215,13.0789037 L3.07276833,8.90124751 Z" id="Triangle-4"/></g></g><g id="Group-3" transform="translate(0.000000, 59.000000)"><g id="chest"><polygon id="Rectangle-59" fill="#A86425" points="11 0 97 0 97 35 11 35"/><rect id="Rectangle-5" fill="#9C5A1D" x="28" y="10" width="51" height="6" rx="3"/><path d="M0,32.0006595 C0,28.6865868 2.68504822,26 6.00134484,26 L100.998655,26 C104.313106,26 107,28.6765363 107,32.0006595 L107,39.9993405 C107,43.3134132 104.314952,46 100.998655,46 L6.00134484,46 C2.68689361,46 0,43.3234637 0,39.9993405 L0,32.0006595 Z" id="Rectangle-56-Copy" fill="#FFBC00"/><g id="Rectangle-68" transform="translate(86.000000, 0.000000)"><mask id="mask-4" fill="white"><use xlink:href="#path-3"/></mask><use id="Mask" fill="#FFD300" xlink:href="#path-3"/></g><g id="Rectangle-68"><mask id="mask-6" fill="white"><use xlink:href="#path-5"/></mask><use id="Mask" fill="#FFD300" xlink:href="#path-5"/></g><circle id="Oval-26" fill="#FFE900" cx="10.5" cy="36.5" r="3.5"/><circle id="Oval-26" fill="#FFE900" cx="53.875" cy="36.5" r="3.5"/><circle id="Oval-26" fill="#FFE900" cx="97.5" cy="36.5" r="3.5"/><circle id="Oval-26" fill="#FFE900" cx="10.5" cy="9.5" r="3.5"/><circle id="Oval-26" fill="#FFE900" cx="97.5" cy="9.5" r="3.5"/></g></g></g></g></g></svg>