<?xml version="1.0" encoding="UTF-8"?><svg width="107px" height="120px" viewBox="0 0 107 120" version="1.1" xmlns="http://www.w3.org/2000/svg" xmlns:xlink="http://www.w3.org/1999/xlink"><title>chest_top</title><desc>Created with Sketch.</desc><defs><rect id="path-1" x="39" y="5" width="29" height="24" rx="4"/></defs><g id="Page-1" stroke="none" stroke-width="1" fill="none" fill-rule="evenodd"><g id="chest_top"><g id="Group"><polygon id="Rectangle-60" fill="#785305" points="0 16 107 16 102.92381 90 4.07619048 90"/><rect id="Rectangle-11" fill="#4C2B0D" x="19" y="14" width="69" height="60"/><rect id="Rectangle-56" fill="#E3A800" x="0" y="4" width="107" height="19" rx="6"/><rect id="Rectangle-56" fill="#FFBC00" x="0" y="2" width="107" height="15" rx="6"/><path d="M0,7.99306515 C0,4.68318666 2.68193801,2 5.99867589,2 L13.0013241,2 C16.3143013,2 19,4.6816994 19,7.99306515 L19,17 L5.99867589,17 C2.68569868,17 0,14.3183006 0,11.0069348 L0,7.99306515 Z" id="Rectangle-64" fill="#FFE600"/><path d="M88,7.99306515 C88,4.68318666 90.681938,2 93.9986759,2 L101.001324,2 C104.314301,2 107,4.6816994 107,7.99306515 L107,17 L93.9986759,17 C90.6856987,17 88,14.3183006 88,11.0069348 L88,7.99306515 Z" id="Rectangle-64" fill="#FFE600" transform="translate(97.500000, 9.500000) scale(-1, 1) translate(-97.500000, -9.500000)"/><mask id="mask-2" fill="white"><use xlink:href="#path-1"/></mask><use id="Mask" fill="#E3A800" xlink:href="#path-1"/><path d="M39,4.00002024 C39,1.79087006 40.7921947,0 43.0018785,0 L63.9981215,0 C66.208298,0 68,1.79445134 68,4.00002024 L68,10.9999798 C68,13.2091299 66.2078053,15 63.9981215,15 L43.0018785,15 C40.791702,15 39,13.2055487 39,10.9999798 L39,4.00002024 Z" id="Mask" fill="#FFD300"/></g></g></g></svg>