<?xml version="1.0" encoding="UTF-8"?><svg width="107px" height="120px" viewBox="0 0 107 120" version="1.1" xmlns="http://www.w3.org/2000/svg" xmlns:xlink="http://www.w3.org/1999/xlink"><title>chest-closed</title><desc>Created with Sketch.</desc><defs><rect id="path-1" x="0" y="0" width="28.75" height="30.625" rx="4"/><path d="M16.8,0 C19.2370696,4.18230851e-15 21,1.58488094 21,4 L21,89 C21,91.4186037 19.2366707,93 16.8,93 L4.2,93 C1.76293041,93 0,91.4151191 0,89 L0,4 C1.86517468e-14,1.58139626 1.76332928,0 4.2,0" id="path-3"/><path d="M16.8,0 C19.2370696,4.18230851e-15 21,1.58488094 21,4 L21,89 C21,91.4186037 19.2366707,93 16.8,93 L4.2,93 C1.76293041,93 0,91.4151191 0,89 L0,4 C1.86517468e-14,1.58139626 1.76332928,0 4.2,0" id="path-5"/></defs><g id="Page-1" stroke="none" stroke-width="1" fill="none" fill-rule="evenodd"><g id="chest-closed"><g id="closed" transform="translate(0.000000, 27.000000)"><polygon id="Rectangle-59" fill="#A86425" points="11 5 97 5 97 83 11 83"/><rect id="Rectangle-67" fill="#864E1B" opacity="0.528985507" x="17.25" y="15.625" width="73.75" height="6.875" rx="3.4375"/><polygon id="Rectangle-61" fill="#864E1B" points="16.625 53.125 90.375 53.125 90.375 65.1776695 16.625 65.1776695"/><rect id="Rectangle-56" fill="#FFBC00" x="0" y="33" width="103" height="20" rx="6"/><path d="M39.75,54.6244871 C39.75,52.4156314 41.5484413,50.625 43.7475643,50.625 L64.5024357,50.625 C66.7102295,50.625 68.5,52.4151231 68.5,54.6244871 L68.5,68.5005129 C68.5,70.7093686 66.7015587,72.5 64.5024357,72.5 L43.7475643,72.5 C41.5397705,72.5 39.75,70.7098769 39.75,68.5005129 L39.75,54.6244871 Z" id="Rectangle-61" fill="#864E1B"/><path d="M0,79.0006595 C0,75.6865868 2.68504822,73 6.00134484,73 L100.998655,73 C104.313106,73 107,75.6765363 107,79.0006595 L107,86.9993405 C107,90.3134132 104.314952,93 100.998655,93 L6.00134484,93 C2.68689361,93 0,90.3234637 0,86.9993405 L0,79.0006595 Z" id="Rectangle-56-Copy" fill="#FFBC00"/><g id="Rectangle-68"/><g id="Rectangle-68" transform="translate(39.750000, 33.125000)"><mask id="mask-2" fill="white"><use xlink:href="#path-1"/></mask><use id="Mask" fill="#FFE600" xlink:href="#path-1"/><path d="M28.75,8.60843918 L28.75,26.6213161 C28.75,28.8324896 26.9515587,30.625 24.7524357,30.625 L3.99756432,30.625 C1.78977051,30.625 0,28.8348651 0,26.6213161 L0,25.2072594 L28.75,8.60843918 Z" id="Combined-Shape" fill="#FFD300"/></g><g id="Group-35" transform="translate(49.125000, 38.750000)"><circle id="Oval-25" fill="#E09201" cx="5.3125" cy="5.3125" r="5.3125"/><path d="M3.06319584,8.87351777 C4.30541418,6.38905501 6.31628776,6.38269222 7.5617136,8.87351777 L9.63489094,13.0198289 C10.872069,15.4941591 9.63364518,17.5 6.87555867,17.5 L3.74944133,17.5 C0.988326125,17.5 -0.253307963,15.506595 0.990062026,13.0198289 L3.06319584,8.87351777 Z" id="Triangle-4" fill="#E09201"/><rect id="Rectangle-72" fill="#FFE900" x="0.625" y="17.5" width="9.375" height="2.5" rx="1.25"/></g><g id="Group"><mask id="mask-4" fill="white"><use xlink:href="#path-3"/></mask><use id="Mask" fill="#FFD300" xlink:href="#path-3"/><path d="M21,15.4938022 L21,4 C21,1.58488094 19.2370696,4.18230851e-15 16.8,0 L4.2,0 C1.76332928,0 1.86517468e-14,1.58139626 0,4 L0,27.6181578 L21,15.4938022 Z" id="Combined-Shape" fill="#FFE600"/><polygon id="Rectangle-62" fill="#EC9A00" opacity="0.673856431" points="0 53 21 53 21 62 0 62"/><circle id="Oval-26" fill="#FFE900" cx="10.5" cy="42.5" r="3.5"/><circle id="Oval-26" fill="#FFE900" cx="10.5" cy="83.5" r="3.5"/></g><g id="Group" transform="translate(86.000000, 0.000000)"><mask id="mask-6" fill="white"><use xlink:href="#path-5"/></mask><use id="Mask" fill="#FFD300" xlink:href="#path-5"/><path d="M21,15.4938022 L21,4 C21,1.58488094 19.2370696,4.18230851e-15 16.8,0 L4.2,0 C1.76332928,0 1.86517468e-14,1.58139626 0,4 L0,27.6181578 L21,15.4938022 Z" id="Combined-Shape" fill="#FFE600"/><polygon id="Rectangle-62" fill="#EC9A00" opacity="0.673856431" points="0 53 21 53 21 62 0 62"/><circle id="Oval-26" fill="#FFE900" cx="10.5" cy="42.5" r="3.5"/><circle id="Oval-26" fill="#FFE900" cx="10.5" cy="83.5" r="3.5"/></g><circle id="Oval-26" fill="#FFE900" cx="53.875" cy="83.5" r="3.5"/></g></g></g></svg>