<?xml version="1.0" encoding="UTF-8"?><svg width="200px" height="200px" viewBox="0 0 200 200" version="1.1" xmlns="http://www.w3.org/2000/svg" xmlns:xlink="http://www.w3.org/1999/xlink"><title>04_chest_of_gems</title><desc>Created with Sketch.</desc><defs><rect id="path-1" x="0" y="5.40740741" width="39.2037037" height="32.4444444" rx="4"/><path d="M22.7111111,0 C26.0056682,5.17795683e-15 28.3888889,2.14252424 28.3888889,5.40740741 L28.3888889,56.7777778 C28.3888889,60.0473717 26.0051289,62.1851852 22.7111111,62.1851852 L5.67777778,62.1851852 C2.38322074,62.1851852 0,60.042661 0,56.7777778 L0,5.40740741 C2.52143985e-14,2.13781346 2.38375995,0 5.67777778,0 L22.7111111,0 Z" id="path-3"/><path d="M22.7111111,0 C26.0056682,5.17795683e-15 28.3888889,2.14252424 28.3888889,5.40740741 L28.3888889,56.7777778 C28.3888889,60.0473717 26.0051289,62.1851852 22.7111111,62.1851852 L5.67777778,62.1851852 C2.38322074,62.1851852 0,60.042661 0,56.7777778 L0,5.40740741 C2.52143985e-14,2.13781346 2.38375995,0 5.67777778,0 L22.7111111,0 Z" id="path-5"/></defs><g id="Page-1" stroke="none" stroke-width="1" fill="none" fill-rule="evenodd"><g id="04_chest_of_gems"><path d="M16.3107358,174.534771 C17.0166306,173.68714 18.4848868,173 19.5906139,173 L28.0460585,173 C29.1515904,173 30.0478011,173.893397 30.0478011,174.991884 L30.0478011,186.008116 C30.0478011,187.108203 29.1597919,188 28.0481561,188 L7.09673038,188 C5.99235693,188 5.66629156,187.316503 6.37522081,186.465229 L16.3107358,174.534771 Z" id="Rectangle-9" fill="#44C3FF"/><path d="M179.310736,174.534771 C180.016631,173.68714 181.484887,173 182.590614,173 L191.046058,173 C192.15159,173 193.047801,173.893397 193.047801,174.991884 L193.047801,186.008116 C193.047801,187.108203 192.159792,188 191.048156,188 L170.09673,188 C168.992357,188 168.666292,187.316503 169.375221,186.465229 L179.310736,174.534771 Z" id="Rectangle-9" fill="#44C3FF" transform="translate(181.023901, 180.500000) scale(-1, 1) translate(-181.023901, -180.500000)"/><g id="gem-copy" transform="translate(30.375742, 170.817520) rotate(146.000000) translate(-30.375742, -170.817520) translate(13.375742, 149.343836)"><path d="M13.163564,1.46238695 C15.0356743,0.215488927 18.0809454,0.222136238 19.9430754,1.46238695 L29.7168836,7.97212179 C31.588994,9.21901981 33.1066393,12.0530591 33.1066393,14.2998928 L33.1066393,28.2100719 C33.1066393,30.4579054 31.5790136,33.2975923 29.7168836,34.537843 L19.9430754,41.0475778 C18.070965,42.2944758 15.025694,42.2878285 13.163564,41.0475778 L3.38975571,34.537843 C1.51764532,33.290945 -3.44058828e-13,30.4569057 -3.45146169e-13,28.2100719 L-3.51877911e-13,14.2998928 C-3.52965735e-13,12.0520594 1.52762569,9.2123725 3.38975571,7.97212179 L13.163564,1.46238695 Z" id="Polygon-1" fill="#1CB0F6"/><path d="M26.8408698,42.1222221 C29.6531575,40.1990619 32.1362189,35.8865173 32.386319,32.4983344 L32.4548392,31.5700699 C32.7052184,28.1781037 30.6069687,26.9474071 27.7551588,28.8298849 L19.2940625,34.4150491 C16.4481215,36.2936529 16.6054269,39.046591 19.6638037,40.573087 L19.599461,40.5409723 C22.6496045,42.0633588 27.4090564,41.7336722 30.2143317,39.8153075 L26.8408698,42.1222221 Z" id="Path-3" fill="#1C8EF6" transform="translate(24.342955, 34.584702) scale(-1, -1) translate(-24.342955, -34.584702)"/><path d="M26.5086893,15.6201671 C29.320977,13.697007 31.8111869,9.38923426 32.0717335,5.98536118 L32.1145565,5.42590512 C32.4084573,1.58628084 30.0563854,0.221574836 26.8543996,2.38224117 L19.1325832,7.59284166 C16.3075466,9.49914666 16.4484275,12.3423038 19.4510681,13.9452495 L19.3563877,13.8947048 C22.3573187,15.4967377 27.0768759,15.2316173 29.8821512,13.3132526 L26.5086893,15.6201671 Z" id="Path-3" fill="#099DE4" transform="translate(24.119519, 7.953016) scale(-1, 1) translate(-24.119519, -7.953016)"/><path d="M13.164094,10.2861502 C15.0359116,9.03944711 18.0721282,9.0403799 19.9425454,10.2861502 L23.093087,12.3845329 C24.9649046,13.631236 26.4823127,16.467047 26.4823127,18.7181024 L26.4823127,23.7918623 C26.4823127,26.0430931 24.9635041,28.8796616 23.093087,30.1254319 L19.9425454,32.2238146 C18.0707277,33.4705177 15.0345111,33.4695849 13.164094,32.2238146 L10.0135524,30.1254319 C8.14173469,28.8787288 6.62432666,26.0429178 6.62432666,23.7918623 L6.62432666,18.7181024 C6.62432666,16.4668716 8.14313519,13.6303032 10.0135524,12.3845329 L13.164094,10.2861502 Z" id="Polygon-1" fill="#44C3FF"/></g><path d="M0,194 C0,190.686293 2.98243333,188 6.65435667,188 L193.345633,188 C197.020733,188 200,190.66319 200,194 C200,197.313708 197.017567,200 193.345633,200 L6.65435667,200 C2.97925667,200 0,197.336811 0,194 L0,194 Z" id="shadow" fill="#D8D8D8"/><g id="open-chest" transform="translate(21.161922, 26.346342)"><polygon id="Rectangle-60" fill="#785305" points="7 24.3333333 148.944444 24.3333333 143.537037 125.722222 12.4074074 125.722222"/><rect id="Rectangle-11" fill="#4C2B0D" x="32.8751148" y="18.5795837" width="90.5740741" height="81.1111111"/><rect id="Rectangle-56" fill="#E3A800" x="7" y="5.40740741" width="141.944444" height="25.6851852" rx="6"/><rect id="Rectangle-56" fill="#FFBC00" x="7" y="2.7037037" width="141.944444" height="20.2777778" rx="6"/><path d="M7,8.70540081 C7,5.39075502 9.68813675,2.7037037 13.0058198,2.7037037 L26.6793653,2.7037037 C29.9962881,2.7037037 32.6851852,5.39643603 32.6851852,8.70540081 L32.6851852,22.9814815 L13.0058198,22.9814815 C9.68889713,22.9814815 7,20.2887492 7,16.9797844 L7,8.70540081 Z" id="Rectangle-64" fill="#FFE600"/><path d="M123.259259,8.70540081 C123.259259,5.39075502 125.947396,2.7037037 129.265079,2.7037037 L142.938625,2.7037037 C146.255547,2.7037037 148.944444,5.39643603 148.944444,8.70540081 L148.944444,22.9814815 L129.265079,22.9814815 C125.948156,22.9814815 123.259259,20.2887492 123.259259,16.9797844 L123.259259,8.70540081 Z" id="Rectangle-64" fill="#FFE600" transform="translate(136.101852, 12.842593) scale(-1, 1) translate(-136.101852, -12.842593)"/><g id="Rectangle-68" transform="translate(58.269819, 0.592133)"><mask id="mask-2" fill="white"><use xlink:href="#path-1"/></mask><use id="Mask" fill="#E3A800" xlink:href="#path-1"/><path d="M0,4.00623636 C0,1.79365311 1.7863732,0 3.99300909,0 L35.2106946,0 C37.4159726,0 39.2037037,1.79951751 39.2037037,4.00623636 L39.2037037,16.2715414 C39.2037037,18.4841247 37.4173305,20.2777778 35.2106946,20.2777778 L3.99300909,20.2777778 C1.78773106,20.2777778 0,18.4782603 0,16.2715414 L0,4.00623636 Z" id="Mask" fill="#FFD300"/></g><g id="gems" transform="translate(0.000000, 19.000000)"><rect id="Rectangle" fill="#1CB0F6" x="70" y="34" width="41" height="29"/><g id="gem-copy" transform="translate(45.227561, 64.958046) scale(-1, 1) rotate(-350.000000) translate(-45.227561, -64.958046) translate(27.227561, 44.958046)" fill="#44C3FF"><path d="M14.3009212,1.36552058 C16.2455421,0.236227576 19.4035496,0.239220736 21.3430162,1.36552058 L32.1228899,7.62567969 C34.0675108,8.75497269 35.6439375,11.489236 35.6439375,13.7476221 L35.6439375,26.2926507 C35.6439375,28.5444131 34.0623566,31.2882932 32.1228899,32.4145931 L21.3430162,38.6747522 C19.3983954,39.8040452 16.2403879,39.801052 14.3009212,38.6747522 L3.52104752,32.4145931 C1.57642667,31.2853001 -3.03384527e-13,28.5510368 -3.04638016e-13,26.2926507 L-3.11600981e-13,13.7476221 C-3.12850794e-13,11.4958597 1.58158084,8.75197953 3.52104752,7.62567969 L14.3009212,1.36552058 Z" id="Polygon-1"/><path d="M12.7655842,14.1793766 C15.687248,12.4373364 18.2887458,8.27267437 18.576093,4.87851423 L18.5853211,4.7695114 C18.8727127,1.37482712 16.7085103,0.00258343445 13.7572786,1.70115881 L4.24862188,7.17384679 C1.29477604,8.87392673 1.43649921,11.355876 4.55190937,12.7116651 L5.07131759,12.9377053 C8.19266448,14.2960779 13.09361,13.9837914 16.0131564,12.2430138 L12.7655842,14.1793766 Z" id="Path-3"/></g><g id="Group-45" transform="translate(59.462364, 49.179772) rotate(-10.000000) translate(-59.462364, -49.179772) translate(40.462364, 24.179772)"><path d="M15.722339,2.05601999 C17.4258662,0.920511503 20.1897604,0.921798451 21.8913569,2.05601999 L34.5291869,10.4799316 C36.2327142,11.6154401 37.6136959,14.2004059 37.6136959,16.2353972 L37.6136959,33.9084091 C37.6136959,35.9515565 36.2307835,38.5296532 34.5291869,39.6638747 L21.8913569,48.0877863 C20.1878297,49.2232948 17.4239355,49.2220079 15.722339,48.0877863 L3.08450898,39.6638747 C1.38098171,38.5283663 3.68104276e-14,35.9434004 3.58263813e-14,33.9084091 L2.72803693e-14,16.2353972 C2.62923791e-14,14.1922498 1.38291243,11.6141531 3.08450898,10.4799316 L15.722339,2.05601999 Z" id="Polygon-1" fill="#099DE4"/><path d="M14.4294564,17.3414224 C16.9832571,15.5936515 19.2377271,11.6793489 19.4660955,8.58313427 L19.748936,4.74838997 C19.9767943,1.65909192 18.0684849,0.53741328 15.4822899,2.24590303 L3.51865422,10.149309 C0.934392377,11.8565217 1.08433042,14.3618451 3.86003592,15.748345 L6.29499065,16.9646357 C9.06779241,18.3496852 13.3892154,18.0533429 15.9396575,16.3078705 L14.4294564,17.3414224 Z" id="Path-3" fill="#44C3FF"/><path d="M15.9420302,11.5272098 C17.6444487,10.3924404 20.407767,10.3945418 22.1070328,11.5272098 L27.2227319,14.9371463 C28.9251504,16.0719157 30.3052332,18.6586808 30.3052332,20.7092356 L30.3052332,28.3130203 C30.3052332,30.3660878 28.9219978,32.9524417 27.2227319,34.0851097 L22.1070328,37.4950461 C20.4046144,38.6298155 17.6412961,38.6277141 15.9420302,37.4950461 L10.8263311,34.0851097 C9.12391264,32.9503403 7.74382979,30.3635751 7.74382979,28.3130203 L7.74382979,20.7092356 C7.74382979,18.6561681 9.12706525,16.0698142 10.8263311,14.9371463 L15.9420302,11.5272098 Z" id="Polygon-1" fill="#1CB0F6"/></g><g id="Group-45" transform="translate(117.462364, 50.179772) rotate(-10.000000) translate(-117.462364, -50.179772) translate(98.462364, 25.179772)"><path d="M15.722339,2.05601999 C17.4258662,0.920511503 20.1897604,0.921798451 21.8913569,2.05601999 L34.5291869,10.4799316 C36.2327142,11.6154401 37.6136959,14.2004059 37.6136959,16.2353972 L37.6136959,33.9084091 C37.6136959,35.9515565 36.2307835,38.5296532 34.5291869,39.6638747 L21.8913569,48.0877863 C20.1878297,49.2232948 17.4239355,49.2220079 15.722339,48.0877863 L3.08450898,39.6638747 C1.38098171,38.5283663 3.68104276e-14,35.9434004 3.58263813e-14,33.9084091 L2.72803693e-14,16.2353972 C2.62923791e-14,14.1922498 1.38291243,11.6141531 3.08450898,10.4799316 L15.722339,2.05601999 Z" id="Polygon-1" fill="#099DE4"/><path d="M14.4294564,17.3414224 C16.9832571,15.5936515 19.2377271,11.6793489 19.4660955,8.58313427 L19.748936,4.74838997 C19.9767943,1.65909192 18.0684849,0.53741328 15.4822899,2.24590303 L3.51865422,10.149309 C0.934392377,11.8565217 1.08433042,14.3618451 3.86003592,15.748345 L6.29499065,16.9646357 C9.06779241,18.3496852 13.3892154,18.0533429 15.9396575,16.3078705 L14.4294564,17.3414224 Z" id="Path-3" fill="#44C3FF"/><path d="M15.9420302,11.5272098 C17.6444487,10.3924404 20.407767,10.3945418 22.1070328,11.5272098 L27.2227319,14.9371463 C28.9251504,16.0719157 30.3052332,18.6586808 30.3052332,20.7092356 L30.3052332,28.3130203 C30.3052332,30.3660878 28.9219978,32.9524417 27.2227319,34.0851097 L22.1070328,37.4950461 C20.4046144,38.6298155 17.6412961,38.6277141 15.9420302,37.4950461 L10.8263311,34.0851097 C9.12391264,32.9503403 7.74382979,30.3635751 7.74382979,28.3130203 L7.74382979,20.7092356 C7.74382979,18.6561681 9.12706525,16.0698142 10.8263311,14.9371463 L15.9420302,11.5272098 Z" id="Polygon-1" fill="#1CB0F6"/></g><g id="Group-45" transform="translate(29.462364, 83.179772) scale(-1, 1) rotate(-330.000000) translate(-29.462364, -83.179772) translate(10.462364, 58.179772)"><path d="M15.722339,2.05601999 C17.4258662,0.920511503 20.1897604,0.921798451 21.8913569,2.05601999 L34.5291869,10.4799316 C36.2327142,11.6154401 37.6136959,14.2004059 37.6136959,16.2353972 L37.6136959,33.9084091 C37.6136959,35.9515565 36.2307835,38.5296532 34.5291869,39.6638747 L21.8913569,48.0877863 C20.1878297,49.2232948 17.4239355,49.2220079 15.722339,48.0877863 L3.08450898,39.6638747 C1.38098171,38.5283663 3.68104276e-14,35.9434004 3.58263813e-14,33.9084091 L2.72803693e-14,16.2353972 C2.62923791e-14,14.1922498 1.38291243,11.6141531 3.08450898,10.4799316 L15.722339,2.05601999 Z" id="Polygon-1" fill="#1CB0F6"/><path d="M14.4294564,17.3414224 C16.9832571,15.5936515 19.2377271,11.6793489 19.4660955,8.58313427 L19.748936,4.74838997 C19.9767943,1.65909192 18.0684849,0.53741328 15.4822899,2.24590303 L3.51865422,10.149309 C0.934392377,11.8565217 1.08433042,14.3618451 3.86003592,15.748345 L6.29499065,16.9646357 C9.06779241,18.3496852 13.3892154,18.0533429 15.9396575,16.3078705 L14.4294564,17.3414224 Z" id="Path-3" fill="#44C3FF"/><path d="M15.9420302,11.5272098 C17.6444487,10.3924404 20.407767,10.3945418 22.1070328,11.5272098 L27.2227319,14.9371463 C28.9251504,16.0719157 30.3052332,18.6586808 30.3052332,20.7092356 L30.3052332,28.3130203 C30.3052332,30.3660878 28.9219978,32.9524417 27.2227319,34.0851097 L22.1070328,37.4950461 C20.4046144,38.6298155 17.6412961,38.6277141 15.9420302,37.4950461 L10.8263311,34.0851097 C9.12391264,32.9503403 7.74382979,30.3635751 7.74382979,28.3130203 L7.74382979,20.7092356 C7.74382979,18.6561681 9.12706525,16.0698142 10.8263311,14.9371463 L15.9420302,11.5272098 Z" id="Polygon-1" fill="#1CB0F6"/></g><g id="Group-45" transform="translate(132.462364, 70.179772) rotate(-330.000000) translate(-132.462364, -70.179772) translate(113.462364, 45.179772)"><path d="M15.722339,2.05601999 C17.4258662,0.920511503 20.1897604,0.921798451 21.8913569,2.05601999 L34.5291869,10.4799316 C36.2327142,11.6154401 37.6136959,14.2004059 37.6136959,16.2353972 L37.6136959,33.9084091 C37.6136959,35.9515565 36.2307835,38.5296532 34.5291869,39.6638747 L21.8913569,48.0877863 C20.1878297,49.2232948 17.4239355,49.2220079 15.722339,48.0877863 L3.08450898,39.6638747 C1.38098171,38.5283663 3.68104276e-14,35.9434004 3.58263813e-14,33.9084091 L2.72803693e-14,16.2353972 C2.62923791e-14,14.1922498 1.38291243,11.6141531 3.08450898,10.4799316 L15.722339,2.05601999 Z" id="Polygon-1" fill="#099DE4"/><path d="M14.4294564,17.3414224 C16.9832571,15.5936515 19.2377271,11.6793489 19.4660955,8.58313427 L19.748936,4.74838997 C19.9767943,1.65909192 18.0684849,0.53741328 15.4822899,2.24590303 L3.51865422,10.149309 C0.934392377,11.8565217 1.08433042,14.3618451 3.86003592,15.748345 L6.29499065,16.9646357 C9.06779241,18.3496852 13.3892154,18.0533429 15.9396575,16.3078705 L14.4294564,17.3414224 Z" id="Path-3" fill="#44C3FF"/><path d="M15.9420302,11.5272098 C17.6444487,10.3924404 20.407767,10.3945418 22.1070328,11.5272098 L27.2227319,14.9371463 C28.9251504,16.0719157 30.3052332,18.6586808 30.3052332,20.7092356 L30.3052332,28.3130203 C30.3052332,30.3660878 28.9219978,32.9524417 27.2227319,34.0851097 L22.1070328,37.4950461 C20.4046144,38.6298155 17.6412961,38.6277141 15.9420302,37.4950461 L10.8263311,34.0851097 C9.12391264,32.9503403 7.74382979,30.3635751 7.74382979,28.3130203 L7.74382979,20.7092356 C7.74382979,18.6561681 9.12706525,16.0698142 10.8263311,14.9371463 L15.9420302,11.5272098 Z" id="Polygon-1" fill="#1CB0F6"/></g><g id="Group-45" transform="translate(97.667579, 32.793973) rotate(-330.000000) translate(-97.667579, -32.793973) translate(77.667579, 6.793973)"><path d="M16.7034505,2.06183414 C18.4117951,0.923114589 21.1730288,0.917422041 22.8899136,2.06183414 L36.5001325,11.1339044 C38.2084771,12.2726239 39.5933641,14.8466436 39.5933641,16.9070734 L39.5933641,35.8758806 C39.5933641,37.9255943 38.2170173,40.5046376 36.5001325,41.6490497 L22.8899136,50.7211199 C21.181569,51.8598394 18.4203352,51.865532 16.7034505,50.7211199 L3.09323157,41.6490497 C1.38488695,40.5103301 3.26398238e-14,37.9363104 3.16434765e-14,35.8758806 L2.24708659e-14,16.9070734 C2.14797005e-14,14.8573597 1.3763468,12.2783165 3.09323157,11.1339044 L16.7034505,2.06183414 Z" id="Polygon-1" fill="#1CB0F6"/><path d="M33.5438195,50.351057 C36.0953548,48.6048364 38.348587,44.6836728 38.5766191,41.5920193 L38.91725,36.9737526 C39.1452532,33.8824902 37.2387367,32.7581123 34.6523477,34.4667303 L21.5635347,43.1134499 C18.980091,44.8201221 19.1284826,47.3239035 21.9069578,48.711787 L24.9974324,50.2555181 C27.7705435,51.6407221 32.0950442,51.3425703 34.6385574,49.6018399 L33.5438195,50.351057 Z" id="Path-3" fill="#1C8EF6" transform="translate(29.099600, 42.340507) scale(-1, -1) translate(-29.099600, -42.340507)"/><path d="M15.4363752,18.0847627 C17.9879105,16.3385422 20.2411428,12.4173786 20.4691748,9.32572504 L20.8098057,4.70745837 C21.0378089,1.61619596 19.1312925,0.491818082 16.5449034,2.20043603 L3.45609043,10.8471556 C0.872646728,12.5538278 1.0210383,15.0576092 3.79951354,16.4454927 L6.88998812,17.9892238 C9.66309917,19.3744278 13.9875999,19.076276 16.5311131,17.3355456 L15.4363752,18.0847627 Z" id="Path-3" fill="#E0F5FF"/><path d="M16.7078153,12.6202966 C18.4137493,11.4831839 21.1820688,11.4848196 22.8855488,12.6202966 L28.5822382,16.4174997 C30.2881722,17.5546124 31.6711049,20.1406033 31.6711049,22.1878808 L31.6711049,30.5950733 C31.6711049,32.644854 30.2857182,35.2299773 28.5822382,36.3654543 L22.8855488,40.1626574 C21.1796148,41.2997702 18.4112953,41.2981344 16.7078153,40.1626574 L11.0111259,36.3654543 C9.30519193,35.2283416 7.92225917,32.6423507 7.92225917,30.5950733 L7.92225917,22.1878808 C7.92225917,20.1381 9.30764594,17.5529767 11.0111259,16.4174997 L16.7078153,12.6202966 Z" id="Polygon-1" fill="#44C3FF"/></g><g id="Group-45" transform="translate(73.423698, 73.701138) rotate(-350.000000) translate(-73.423698, -73.701138) translate(54.423698, 48.701138)"><path d="M15.722339,2.05601999 C17.4258662,0.920511503 20.1897604,0.921798451 21.8913569,2.05601999 L34.5291869,10.4799316 C36.2327142,11.6154401 37.6136959,14.2004059 37.6136959,16.2353972 L37.6136959,33.9084091 C37.6136959,35.9515565 36.2307835,38.5296532 34.5291869,39.6638747 L21.8913569,48.0877863 C20.1878297,49.2232948 17.4239355,49.2220079 15.722339,48.0877863 L3.08450898,39.6638747 C1.38098171,38.5283663 4.14782535e-14,35.9434004 4.04942073e-14,33.9084091 L3.19481952e-14,16.2353972 C3.0960205e-14,14.1922498 1.38291243,11.6141531 3.08450898,10.4799316 L15.722339,2.05601999 Z" id="Polygon-1" fill="#1CB0F6"/><path d="M14.4294564,17.3414224 C16.9832571,15.5936515 19.2377271,11.6793489 19.4660955,8.58313427 L19.748936,4.74838997 C19.9767943,1.65909192 18.0684849,0.53741328 15.4822899,2.24590303 L3.51865422,10.149309 C0.934392377,11.8565217 1.08433042,14.3618451 3.86003592,15.748345 L6.29499065,16.9646357 C9.06779241,18.3496852 13.3892154,18.0533429 15.9396575,16.3078705 L14.4294564,17.3414224 Z" id="Path-3" fill="#E0F5FF"/><path d="M15.7243466,12.087985 C17.4267651,10.9532156 20.1900834,10.955317 21.8893493,12.087985 L27.0050483,15.4979215 C28.7074668,16.6326909 30.0875497,19.219456 30.0875497,21.2700108 L30.0875497,28.8737955 C30.0875497,30.926863 28.7043142,33.5132169 27.0050483,34.6458849 L21.8893493,38.0558213 C20.1869308,39.1905907 17.4236125,39.1884893 15.7243466,38.0558213 L10.6086475,34.6458849 C8.90622906,33.5111155 7.52614621,30.9243504 7.52614621,28.8737955 L7.52614621,21.2700108 C7.52614621,19.2169433 8.90938167,16.6305895 10.6086475,15.4979215 L15.7243466,12.087985 Z" id="Polygon-1" fill="#44C3FF"/></g><g id="gem-copy" transform="translate(105.234113, 73.995209) scale(-1, 1) rotate(-350.000000) translate(-105.234113, -73.995209) translate(87.234113, 53.957473)"><path d="M14.3009212,1.36552058 C16.2455421,0.236227576 19.4035496,0.239220736 21.3430162,1.36552058 L32.1228899,7.62567969 C34.0675108,8.75497269 35.6439375,11.489236 35.6439375,13.7476221 L35.6439375,26.2926507 C35.6439375,28.5444131 34.0623566,31.2882932 32.1228899,32.4145931 L21.3430162,38.6747522 C19.3983954,39.8040452 16.2403879,39.801052 14.3009212,38.6747522 L3.52104752,32.4145931 C1.57642667,31.2853001 -3.03384527e-13,28.5510368 -3.04638016e-13,26.2926507 L-3.11600981e-13,13.7476221 C-3.12850794e-13,11.4958597 1.58158084,8.75197953 3.52104752,7.62567969 L14.3009212,1.36552058 Z" id="Polygon-1" fill="#1CB0F6"/><path d="M29.0610174,39.4882619 C31.9826812,37.7462217 34.584179,33.5815597 34.8715262,30.1873995 L34.8807543,30.0783967 C35.1681459,26.6837124 33.0039435,25.3114687 30.0527118,27.0100441 L20.5440551,32.4827321 C17.5902092,34.182812 17.7319324,36.6647613 20.8473426,38.0205504 L21.3667508,38.2465906 C24.4880977,39.6049632 29.3890432,39.2926767 32.3085896,37.5518991 L29.0610174,39.4882619 Z" id="Path-3" fill="#1C8EF6" transform="translate(26.194024, 32.530172) scale(-1, -1) translate(-26.194024, -32.530172)"/><path d="M12.7655842,14.1793766 C15.687248,12.4373364 18.2887458,8.27267437 18.576093,4.87851423 L18.5853211,4.7695114 C18.8727127,1.37482712 16.7085103,0.00258343445 13.7572786,1.70115881 L4.24862188,7.17384679 C1.29477604,8.87392673 1.43649921,11.355876 4.55190937,12.7116651 L5.07131759,12.9377053 C8.19266448,14.2960779 13.09361,13.9837914 16.0131564,12.2430138 L12.7655842,14.1793766 Z" id="Path-3" fill="#44C3FF"/><path d="M14.2920521,9.65417368 C16.2415712,8.52203611 19.3993081,8.52026013 21.3518854,9.65417368 L24.9820047,11.7622804 C26.9315238,12.894418 28.5119213,15.6442025 28.5119213,17.8948166 L28.5119213,22.1454562 C28.5119213,24.4002248 26.934582,27.1440788 24.9820047,28.2779923 L21.3518854,30.3860991 C19.4023663,31.5182366 16.2446294,31.5200126 14.2920521,30.3860991 L10.6619328,28.2779923 C8.71241363,27.1458548 7.13201611,24.3960702 7.13201611,22.1454562 L7.13201611,17.8948166 C7.13201611,15.6400479 8.70935543,12.896194 10.6619328,11.7622804 L14.2920521,9.65417368 Z" id="Polygon-1" fill="#44C3FF"/></g></g></g><g id="chest" transform="translate(27.000000, 126.037037)"><polygon id="Rectangle-59" fill="#A86425" points="14.8703704 0 131.12963 0 131.12963 47.3148148 14.8703704 47.3148148"/><path d="M0,41.148543 C0,37.8346164 2.68113906,35.1481481 6.00834829,35.1481481 L138.6398,35.1481481 C141.958119,35.1481481 144.648148,37.8394082 144.648148,41.148543 L144.648148,56.1847904 C144.648148,59.4987169 141.967009,62.1851852 138.6398,62.1851852 L6.00834829,62.1851852 C2.69002916,62.1851852 0,59.4939251 0,56.1847904 L0,41.148543 Z" id="Rectangle-56-Copy" fill="#FFBC00"/><g id="Rectangle-68" transform="translate(116.259259, 0.000000)"><mask id="mask-4" fill="white"><use xlink:href="#path-3"/></mask><use id="Mask" fill="#FFD300" xlink:href="#path-3"/></g><g id="Rectangle-68"><mask id="mask-6" fill="white"><use xlink:href="#path-5"/></mask><use id="Mask" fill="#FFD300" xlink:href="#path-5"/></g><circle id="Oval-26" fill="#FFE900" cx="14.1944444" cy="49.3425926" r="4.73148148"/><circle id="Oval-26" fill="#FFE900" cx="72.8310185" cy="49.3425926" r="4.73148148"/><circle id="Oval-26" fill="#FFE900" cx="131.805556" cy="49.3425926" r="4.73148148"/><circle id="Oval-26" fill="#FFE900" cx="14.1944444" cy="12.8425926" r="4.73148148"/><circle id="Oval-26" fill="#FFE900" cx="131.805556" cy="12.8425926" r="4.73148148"/><rect id="Rectangle-5" fill="#925218" x="39.2037037" y="13.5185185" width="68.9444444" height="8.11111111" rx="4.05555556"/></g><g id="gem-copy" transform="translate(171.500000, 167.785714) rotate(-326.000000) translate(-171.500000, -167.785714) translate(153.000000, 144.000000)"><path d="M14.9404855,1.38031445 C16.8155464,0.131451262 19.8516608,0.128813733 21.7306817,1.38031445 L33.2760691,9.06998961 C35.15113,10.3188528 36.6711672,13.1670575 36.6711672,15.4193548 L36.6711672,31.6675757 C36.6711672,33.9253701 35.15509,36.7654402 33.2760691,38.0169409 L21.7306817,45.7066161 C19.8556208,46.9554792 16.8195064,46.9581168 14.9404855,45.7066161 L3.3950981,38.0169409 C1.52003719,36.7680777 -3.43181427e-13,33.919873 -3.44271411e-13,31.6675757 L-3.52134634e-13,15.4193548 C-3.53227279e-13,13.1615604 1.51607717,10.3214903 3.3950981,9.06998961 L14.9404855,1.38031445 Z" id="Polygon-1" fill="#1CB0F6"/><path d="M30.2764275,46.2842998 C33.0901529,44.3601565 35.5743099,40.0477614 35.8245451,36.6577474 L35.9979352,34.3087783 C36.2483505,30.9163234 34.1472697,29.6871188 31.3127976,31.5581521 L20.8021225,38.4962418 C17.9641771,40.3695677 18.1250394,43.1167673 21.1759093,44.6395164 L22.3147553,45.2079368 C25.3591375,46.7274478 30.1110276,46.3974073 32.9217973,44.4752852 L30.2764275,46.2842998 Z" id="Path-3" fill="#1C8EF6" transform="translate(26.963914, 38.308370) scale(-1, -1) translate(-26.963914, -38.308370)"/><path d="M29.9084818,16.9288198 C32.7222072,15.0046765 35.2143287,10.6863584 35.4744036,7.28864711 L35.6282293,5.27901324 C35.9228677,1.42975312 33.5691649,0.0587396565 30.3725241,2.21579924 L20.6406895,8.7827389 C17.8162716,10.6886264 17.9701466,13.5381142 20.9691115,15.1390975 L22.0166681,15.6983308 C25.0224685,17.3029632 29.7430818,17.0419273 32.5538515,15.1198052 L29.9084818,16.9288198 Z" id="Path-3" fill="#099DE4" transform="translate(26.716420, 8.809302) scale(-1, 1) translate(-26.716420, -8.809302)"/><path d="M13.4813756,16.4137025 C16.295101,14.4895592 18.779258,10.177164 19.0294932,6.78715003 L19.2028832,4.4381809 C19.4532986,1.04572609 17.3522177,-0.18347851 14.5177456,1.68755471 L4.00707055,8.62564444 C1.16912514,10.4989703 1.32998742,13.2461699 4.38085731,14.768919 L5.51970335,15.3373395 C8.56408548,16.8568504 13.3159756,16.5268099 16.1267453,14.6046878 L13.4813756,16.4137025 Z" id="Path-3" fill="#8DDBFF"/><path d="M14.946072,11.1507854 C16.8180476,9.90397716 19.8532655,9.90407429 21.7250952,11.1507854 L25.9441005,13.9608063 C27.8160761,15.2076145 29.3336121,18.0441919 29.3336121,20.299257 L29.3336121,26.7876735 C29.3336121,29.0414949 27.8159302,31.8794131 25.9441005,33.1261242 L21.7250952,35.9361451 C19.8531196,37.1829533 16.8179017,37.1828562 14.946072,35.9361451 L10.7270667,33.1261242 C8.85509114,31.879316 7.33755511,29.0427386 7.33755511,26.7876735 L7.33755511,20.299257 C7.33755511,18.0454356 8.85523697,15.2075174 10.7270667,13.9608063 L14.946072,11.1507854 Z" id="Polygon-1" fill="#44C3FF"/></g></g></g></svg>