<?xml version="1.0" encoding="UTF-8"?><svg width="107px" height="120px" viewBox="0 0 107 120" version="1.1" xmlns="http://www.w3.org/2000/svg" xmlns:xlink="http://www.w3.org/1999/xlink"><title>chest-open</title><desc>Created with Sketch.</desc><defs><rect id="path-1" x="0" y="4" width="29" height="24" rx="4"/><path d="M16.8,0 C19.2370696,3.83026943e-15 21,1.58488094 21,4 L21,42 C21,44.4186037 19.2366707,46 16.8,46 L4.2,46 C1.76293041,46 0,44.4151191 0,42 L0,4 C1.86517468e-14,1.58139626 1.76332928,0 4.2,0 L16.8,0 Z" id="path-3"/><path d="M16.8,0 C19.2370696,3.83026943e-15 21,1.58488094 21,4 L21,42 C21,44.4186037 19.2366707,46 16.8,46 L4.2,46 C1.76293041,46 0,44.4151191 0,42 L0,4 C1.86517468e-14,1.58139626 1.76332928,0 4.2,0 L16.8,0 Z" id="path-5"/></defs><g id="Page-1" stroke="none" stroke-width="1" fill="none" fill-rule="evenodd"><g id="chest-open"><g id="open-chest"><g transform="translate(0.859504, 0.256198)"><polygon id="Rectangle-60" fill="#785305" points="0 18 105 18 101 93 4 93"/><rect id="Rectangle-11" fill="#4C2B0D" x="19.1404959" y="13.7438017" width="67" height="60"/><g id="gems" transform="translate(0.000000, 25.000000)"><g id="gem-copy" transform="translate(49.212560, 30.034077) scale(-1, 1) rotate(-330.000000) translate(-49.212560, -30.034077) translate(31.212560, 6.534077)"><path d="M14.4424627,2.26290959 C16.3188858,1.01313913 19.361058,1.01306535 21.2375919,2.26290959 L32.28249,9.61923953 C34.1589131,10.86901 35.6800546,13.7074343 35.6800546,15.9673776 L35.6800546,31.5612189 C35.6800546,33.8174283 34.1590239,36.6595127 32.28249,37.9093569 L21.2375919,45.2656869 C19.3611688,46.5154573 16.3189966,46.5155311 14.4424627,45.2656869 L3.39756457,37.9093569 C1.52114147,36.6595865 -3.4342199e-13,33.8211622 -3.44515675e-13,31.5612189 L-3.52062214e-13,15.9673776 C-3.53154092e-13,13.7111682 1.52103069,10.8690838 3.39756457,9.61923953 L14.4424627,2.26290959 Z" id="Polygon-1" fill="#1CB0F6"/><path d="M29.3171806,45.9869135 C32.1327122,44.061535 34.6178006,39.7553587 34.8685085,36.3589405 L35.0128237,34.4038567 C35.2632058,31.0118525 33.1656986,29.7806365 30.3230838,31.6570446 L20.3833249,38.2182729 C17.542871,40.0932547 17.7067811,42.8443329 20.7591583,44.3678343 L21.556083,44.7655951 C24.6041039,46.2869222 29.3572431,45.9595171 32.1729841,44.0339955 L29.3171806,45.9869135 Z" id="Path-3" fill="#1C8EF6" transform="translate(26.235159, 38.130151) scale(-1, -1) translate(-26.235159, -38.130151)"/><path d="M28.9591794,17.4248249 C31.774711,15.4994464 34.2678504,11.1859577 34.5270328,7.79990644 L34.6521215,6.16570413 C34.9460772,2.32536134 32.6007109,0.955578093 29.4040999,3.1126176 L20.2253107,9.30636798 C17.3985402,11.213843 17.540831,14.0594517 20.5550569,15.6685821 L21.2689448,16.0496879 C24.2778292,17.6559667 28.9992418,17.3974285 31.8149828,15.4719068 L28.9591794,17.4248249 Z" id="Path-3" fill="#099EE4" transform="translate(25.994355, 9.428355) scale(-1, 1) translate(-25.994355, -9.428355)"/><path d="M12.976049,16.9236296 C15.7915806,14.9982511 18.2766689,10.6920748 18.5273768,7.29565657 L18.6716921,5.34057275 C18.9220742,1.94856856 16.8245669,0.717352552 13.9819521,2.59376072 L4.04219331,9.15498902 C1.20173936,11.0299708 1.36564945,13.7810489 4.41802663,15.3045504 L5.21495131,15.7023112 C8.26297226,17.2236383 13.0161114,16.8962332 15.8318524,14.9707115 L12.976049,16.9236296 Z" id="Path-3" fill="#E0F6FF"/><path d="M14.4395293,11.7748878 C16.3175725,10.5240383 19.3618246,10.5236004 21.2405253,11.7748878 L25.1403138,14.372298 C27.018357,15.6231475 28.5408118,18.471477 28.5408118,20.7218641 L28.5408118,26.8067324 C28.5408118,29.0626514 27.0190145,31.9050111 25.1403138,33.1562985 L21.2405253,35.7537087 C19.3624821,37.0045582 16.31823,37.0049961 14.4395293,35.7537087 L10.5397408,33.1562985 C8.66169763,31.905449 7.13924281,29.0571195 7.13924281,26.8067324 L7.13924281,20.7218641 C7.13924281,18.4659451 8.66104013,15.6235854 10.5397408,14.372298 L14.4395293,11.7748878 Z" id="Polygon-1" fill="#44C3FF"/></g><g id="Group-45" transform="translate(25.960735, 49.180235) scale(-1, 1) rotate(-330.000000) translate(-25.960735, -49.180235) translate(9.460735, 27.680235)"><path d="M13.0311008,2.05904991 C14.7371385,0.921868046 17.4945508,0.916121298 19.20921,2.05904991 L29.1512562,8.68605145 C30.8572939,9.82323331 32.2403108,12.3957181 32.2403108,14.4516297 L32.2403108,28.5287757 C32.2403108,30.5758348 30.8659154,33.1514254 29.1512562,34.294354 L19.20921,40.9213555 C17.5031722,42.0585374 14.74576,42.0642841 13.0311008,40.9213555 L3.08905458,34.294354 C1.38301684,33.1571721 3.54852995e-14,30.5846873 3.4491137e-14,28.5287757 L2.76839521e-14,14.4516297 C2.66940704e-14,12.4045706 1.37439538,9.82898006 3.08905458,8.68605145 L13.0311008,2.05904991 Z" id="Polygon-1" fill="#099DE4"/><path d="M11.7070501,15.3164897 C14.2611129,13.5685393 16.5158285,9.65364239 16.7440007,6.5600893 L16.8688835,4.86693148 C17.0966516,1.77885543 15.1847972,0.660461094 12.5984861,2.36902756 L3.68803747,8.25543992 C1.10179395,9.96396173 1.24701069,12.4687904 4.02337751,13.8556207 L4.68093098,14.184077 C7.45237769,15.5684497 11.7703649,15.2731582 14.323619,13.5257614 L11.7070501,15.3164897 Z" id="Path-3" fill="#44C3FF"/><path d="M13.2207699,10.1763046 C14.9251048,9.04025772 17.692098,9.0427375 19.3927127,10.1763046 L22.8899428,12.5074292 C24.5942777,13.6434761 25.9759142,16.2232071 25.9759142,18.2755184 L25.9759142,23.7435581 C25.9759142,25.7931389 24.5905575,28.3780802 22.8899428,29.5116473 L19.3927127,31.8427719 C17.6883778,32.9788188 14.9213846,32.976339 13.2207699,31.8427719 L9.72353983,29.5116473 C8.01920487,28.3756004 6.63756839,25.7958694 6.63756839,23.7435581 L6.63756839,18.2755184 C6.63756839,16.2259376 8.02292512,13.6409963 9.72353983,12.5074292 L13.2207699,10.1763046 Z" id="Polygon-1" fill="#1CB0F6"/></g><g id="Group-45" transform="translate(71.729592, 35.956143) rotate(-330.000000) translate(-71.729592, -35.956143) translate(55.229592, 14.456143)"><path d="M13.0311008,2.05904991 C14.7371385,0.921868046 17.4945508,0.916121298 19.20921,2.05904991 L29.1512562,8.68605145 C30.8572939,9.82323331 32.2403108,12.3957181 32.2403108,14.4516297 L32.2403108,28.5287757 C32.2403108,30.5758348 30.8659154,33.1514254 29.1512562,34.294354 L19.20921,40.9213555 C17.5031722,42.0585374 14.74576,42.0642841 13.0311008,40.9213555 L3.08905458,34.294354 C1.38301684,33.1571721 3.08174736e-14,30.5846873 2.98233111e-14,28.5287757 L2.30161262e-14,14.4516297 C2.20262444e-14,12.4045706 1.37439538,9.82898006 3.08905458,8.68605145 L13.0311008,2.05904991 Z" id="Polygon-1" fill="#1CB0F6"/><path d="M26.4516833,41.5904721 C29.0057461,39.8425218 31.2604617,35.9276249 31.4886339,32.8340718 L31.6135167,31.1409139 C31.8412848,28.0528379 29.9294304,26.9344436 27.3431193,28.64301 L18.4326707,34.5294224 C15.8464272,36.2379442 15.9916439,38.7427729 18.7680107,40.1296032 L19.4255642,40.4580595 C22.1970109,41.8424321 26.5149981,41.5471407 29.0682522,39.7997439 L26.4516833,41.5904721 Z" id="Path-3" fill="#1C8EF6" transform="translate(23.695389, 34.477270) scale(-1, -1) translate(-23.695389, -34.477270)"/><path d="M11.7070501,15.3164897 C14.2611129,13.5685393 16.5158285,9.65364239 16.7440007,6.5600893 L16.8688835,4.86693148 C17.0966516,1.77885543 15.1847972,0.660461094 12.5984861,2.36902756 L3.68803747,8.25543992 C1.10179395,9.96396173 1.24701069,12.4687904 4.02337751,13.8556207 L4.68093098,14.184077 C7.45237769,15.5684497 11.7703649,15.2731582 14.323619,13.5257614 L11.7070501,15.3164897 Z" id="Path-3" fill="#8DDBFF"/><path d="M13.0341839,10.656969 C14.7385189,9.52092218 17.5055121,9.52340197 19.2061268,10.656969 L22.7033569,12.9880937 C24.4076918,14.1241405 25.7893283,16.7038715 25.7893283,18.7561829 L25.7893283,24.2242225 C25.7893283,26.2738034 24.4039716,28.8587447 22.7033569,29.9923118 L19.2061268,32.3234364 C17.5017919,33.4594832 14.7347986,33.4570035 13.0341839,32.3234364 L9.53695391,29.9923118 C7.83261894,28.8562649 6.45098247,26.2765339 6.45098247,24.2242225 L6.45098247,18.7561829 C6.45098247,16.706602 7.8363392,14.1216607 9.53695391,12.9880937 L13.0341839,10.656969 Z" id="Polygon-1" fill="#44C3FF"/></g><g id="Group-45" transform="translate(48.513032, 56.484263) rotate(-330.000000) translate(-48.513032, -56.484263) translate(32.013032, 34.984263)"><path d="M13.0311008,2.05904991 C14.7371385,0.921868046 17.4945508,0.916121298 19.20921,2.05904991 L29.1512562,8.68605145 C30.8572939,9.82323331 32.2403108,12.3957181 32.2403108,14.4516297 L32.2403108,28.5287757 C32.2403108,30.5758348 30.8659154,33.1514254 29.1512562,34.294354 L19.20921,40.9213555 C17.5031722,42.0585374 14.74576,42.0642841 13.0311008,40.9213555 L3.08905458,34.294354 C1.38301684,33.1571721 4.01531254e-14,30.5846873 3.91589629e-14,28.5287757 L3.2351778e-14,14.4516297 C3.13618963e-14,12.4045706 1.37439538,9.82898006 3.08905458,8.68605145 L13.0311008,2.05904991 Z" id="Polygon-1" fill="#1CB0F6"/><path d="M11.7070501,15.3164897 C14.2611129,13.5685393 16.5158285,9.65364239 16.7440007,6.5600893 L16.8688835,4.86693148 C17.0966516,1.77885543 15.1847972,0.660461094 12.5984861,2.36902756 L3.68803747,8.25543992 C1.10179395,9.96396173 1.24701069,12.4687904 4.02337751,13.8556207 L4.68093098,14.184077 C7.45237769,15.5684497 11.7703649,15.2731582 14.323619,13.5257614 L11.7070501,15.3164897 Z" id="Path-3" fill="#8DDBFF"/><path d="M13.0341839,10.656969 C14.7385189,9.52092218 17.5055121,9.52340197 19.2061268,10.656969 L22.7033569,12.9880937 C24.4076918,14.1241405 25.7893283,16.7038715 25.7893283,18.7561829 L25.7893283,24.2242225 C25.7893283,26.2738034 24.4039716,28.8587447 22.7033569,29.9923118 L19.2061268,32.3234364 C17.5017919,33.4594832 14.7347986,33.4570035 13.0341839,32.3234364 L9.53695391,29.9923118 C7.83261894,28.8562649 6.45098247,26.2765339 6.45098247,24.2242225 L6.45098247,18.7561829 C6.45098247,16.706602 7.8363392,14.1216607 9.53695391,12.9880937 L13.0341839,10.656969 Z" id="Polygon-1" fill="#1CB0F6"/></g><g id="gem-copy" transform="translate(82.737911, 52.500885) scale(-1, 1) rotate(-350.000000) translate(-82.737911, -52.500885) translate(64.737911, 29.000885)"><path d="M14.251268,2.26359359 C16.1313227,1.01344537 19.1759792,1.01110836 21.0595486,2.26359359 L31.9066762,9.47642456 C33.786731,10.7265728 35.3108165,13.5629193 35.3108165,15.8165176 L35.3108165,31.143555 C35.3108165,33.3949435 33.7902456,36.2311628 31.9066762,37.483648 L21.0595486,44.696479 C19.1794938,45.9466272 16.1348373,45.9489642 14.251268,44.696479 L3.4041403,37.483648 C1.52408553,36.2334998 -3.03341217e-13,33.3971533 -3.04433612e-13,31.143555 L-3.11863143e-13,15.8165176 C-3.12954467e-13,13.5651291 1.52057098,10.7289098 3.4041403,9.47642456 L14.251268,2.26359359 Z" id="Polygon-1" fill="#1CB0F6"/><path d="M28.9454335,45.4569002 C31.7536277,43.5396696 34.2331399,39.2395404 34.4848317,35.835352 L34.6155584,34.0672429 C34.8666894,30.6706392 32.7643389,29.4368111 29.9154884,31.3142702 L20.2084115,37.7114608 C17.3615036,39.5876397 17.5231972,42.3391843 20.566825,43.8558425 L21.2527442,44.1976402 C24.2975984,45.7149096 29.0444411,45.389305 31.8506258,43.4734463 L28.9454335,45.4569002 Z" id="Path-3" fill="#1C8EF6" transform="translate(25.949220, 37.670610) scale(-1, -1) translate(-25.949220, -37.670610)"/><path d="M12.802294,16.7481419 C15.6104882,14.8309112 18.0900005,10.5307821 18.3416922,7.12659369 L18.472419,5.35848456 C18.7235499,1.96188086 16.6211995,0.728052833 13.772349,2.60551192 L4.06527209,9.00270254 C1.21836415,10.8788814 1.3800578,13.630426 4.42368552,15.1470842 L5.10960473,15.4888819 C8.15445894,17.0061513 12.9013017,16.6805467 15.7074864,14.764688 L12.802294,16.7481419 Z" id="Path-3" fill="#44C3FF"/><path d="M14.2609541,11.6534209 C16.1356594,10.4068299 19.1727037,10.4051984 21.0498625,11.6534209 L24.8510006,14.1809994 C26.7257059,15.4275905 28.2454548,18.2649205 28.2454548,20.5117615 L28.2454548,26.4483111 C28.2454548,28.6981034 26.7281593,31.5308507 24.8510006,32.7790731 L21.0498625,35.3066517 C19.1751572,36.5532427 16.1381128,36.5548741 14.2609541,35.3066517 L10.4598159,32.7790731 C8.58511066,31.5324821 7.06536175,28.6951521 7.06536175,26.4483111 L7.06536175,20.5117615 C7.06536175,18.2619692 8.58265722,15.4292219 10.4598159,14.1809994 L14.2609541,11.6534209 Z" id="Polygon-1" fill="#44C3FF"/></g></g><rect id="Rectangle-56" fill="#E3A800" x="0" y="4" width="105" height="19" rx="6"/><rect id="Rectangle-56" fill="#FFBC00" x="0" y="2" width="105" height="15" rx="6"/><path d="M0,7.99306515 C0,4.68318666 2.68193801,2 5.99867589,2 L13.0013241,2 C16.3143013,2 19,4.6816994 19,7.99306515 L19,17 L5.99867589,17 C2.68569868,17 0,14.3183006 0,11.0069348 L0,7.99306515 Z" id="Rectangle-64" fill="#FFE600"/><path d="M86,7.99306515 C86,4.68318666 88.681938,2 91.9986759,2 L99.0013241,2 C102.314301,2 105,4.6816994 105,7.99306515 L105,17 L91.9986759,17 C88.6856987,17 86,14.3183006 86,11.0069348 L86,7.99306515 Z" id="Rectangle-64" fill="#FFE600" transform="translate(95.500000, 9.500000) scale(-1, 1) translate(-95.500000, -9.500000)"/><g id="Rectangle-68" transform="translate(37.925620, 0.438017)"><mask id="mask-2" fill="white"><use xlink:href="#path-1"/></mask><use id="Mask" fill="#E4A800" xlink:href="#path-1"/><path d="M0,4.00002024 C0,1.79087006 1.79219474,0 4.00187852,0 L24.9981215,0 C27.208298,0 29,1.79445134 29,4.00002024 L29,10.9999798 C29,13.2091299 27.2078053,15 24.9981215,15 L4.00187852,15 C1.79170204,15 0,13.2055487 0,10.9999798 L0,4.00002024 Z" id="Mask" fill="#FFD300"/></g></g><g id="chest" transform="translate(0.000000, 74.000000)"><polygon id="Rectangle-59" fill="#A86324" points="11 0 97 0 97 35 11 35"/><path d="M0,32.0006595 C0,28.6865868 2.68504822,26 6.00134484,26 L100.998655,26 C104.313106,26 107,28.6765363 107,32.0006595 L107,39.9993405 C107,43.3134132 104.314952,46 100.998655,46 L6.00134484,46 C2.68689361,46 0,43.3234637 0,39.9993405 L0,32.0006595 Z" id="Rectangle-56-Copy" fill="#FFBD00"/><g id="Rectangle-68" transform="translate(86.000000, 0.000000)"><mask id="mask-4" fill="white"><use xlink:href="#path-3"/></mask><use id="Mask" fill="#FFD300" xlink:href="#path-3"/></g><g id="Rectangle-68"><mask id="mask-6" fill="white"><use xlink:href="#path-5"/></mask><use id="Mask" fill="#FFD300" xlink:href="#path-5"/></g><circle id="Oval-26" fill="#FFE900" cx="10.5" cy="36.5" r="3.5"/><circle id="Oval-26" fill="#FFE900" cx="53.875" cy="36.5" r="3.5"/><circle id="Oval-26" fill="#FFE900" cx="97.5" cy="36.5" r="3.5"/><circle id="Oval-26" fill="#FFE900" cx="10.5" cy="9.5" r="3.5"/><circle id="Oval-26" fill="#FFE900" cx="97.5" cy="9.5" r="3.5"/><rect id="Rectangle-5" fill="#9C5A1D" x="29" y="10" width="51" height="6" rx="3"/></g></g></g></g></svg>