<?xml version="1.0" encoding="UTF-8" standalone="no"?><svg width="201px" height="96px" viewBox="0 0 201 96" version="1.1" xmlns="http://www.w3.org/2000/svg" xmlns:xlink="http://www.w3.org/1999/xlink" xmlns:sketch="http://www.bohemiancoding.com/sketch/ns"><title>children</title><desc>Created with Sketch.</desc><defs/><g id="Page-1" stroke="none" stroke-width="1" fill="none" fill-rule="evenodd" sketch:type="MSPage"><g id="children" sketch:type="MSArtboardGroup"><g id="Imported-Layers" sketch:type="MSLayerGroup" transform="translate(5.000000, 19.000000)"><path d="M171.428571,19.8810667 C171.428571,21.3131652 172.579992,22.4745763 174.00029,22.4745763 C175.420008,22.4745763 176.571429,21.3131652 176.571429,19.8810667 C176.571429,18.4489683 175.420008,17.2881356 174.00029,17.2881356 C172.579992,17.2881356 171.428571,18.4489683 171.428571,19.8810667" id="Fill-1" fill="#F29B83" sketch:type="MSShapeGroup"/><path d="M149.142857,19.8810667 C149.142857,21.3131652 150.294278,22.4745763 151.713996,22.4745763 C153.134294,22.4745763 154.285714,21.3131652 154.285714,19.8810667 C154.285714,18.4489683 153.134294,17.2881356 151.713996,17.2881356 C150.294278,17.2881356 149.142857,18.4489683 149.142857,19.8810667" id="Fill-2" fill="#F29B83" sketch:type="MSShapeGroup"/><path d="M178.285714,65.6949153 L178.285714,49.0061996 C178.285714,41.0697059 171.72874,34.5762712 163.714286,34.5762712 C155.700506,34.5762712 149.142857,41.0697059 149.142857,49.0061996 L149.142857,65.6949153" id="Fill-3" fill="#93CC17" sketch:type="MSShapeGroup"/><path d="M163.934138,39.7627119 L161.780148,39.7627119 C160.486456,39.7627119 159.428571,38.7387464 159.428571,37.4880857 L159.428571,28.2061321 C159.428571,26.9554713 160.486456,25.9322034 161.780148,25.9322034 L163.934138,25.9322034 C165.227829,25.9322034 166.285714,26.9554713 166.285714,28.2061321 L166.285714,37.4880857 C166.285714,38.7387464 165.227829,39.7627119 163.934138,39.7627119" id="Fill-4" fill="#F29B83" sketch:type="MSShapeGroup"/><path d="M152.571429,8.6440678 L152.571429,21.4695583 C152.571429,27.7275967 157.58581,32.8474576 163.714286,32.8474576 C169.8434,32.8474576 174.857143,27.7275967 174.857143,21.4695583 L174.857143,8.6440678 L152.571429,8.6440678" id="Fill-5" fill="#F4A68C" sketch:type="MSShapeGroup"/><path d="M176.571429,60.5084746 L180,60.5084746 L180,98.5423729 L176.571429,98.5423729 L176.571429,60.5084746 Z" id="Fill-6" fill="#B7B7B7" sketch:type="MSShapeGroup"/><path d="M140.571429,60.5084746 L144,60.5084746 L144,98.5423729 L140.571429,98.5423729 L140.571429,60.5084746 Z" id="Fill-7" fill="#B7B7B7" sketch:type="MSShapeGroup"/><path d="M140.571429,55.3220339 L186.857143,55.3220339 L186.857143,67.4237288 L140.571429,67.4237288 L140.571429,55.3220339 Z" id="Fill-8" fill="#2D2D2D" sketch:type="MSShapeGroup"/><path d="M149.142857,67.4237288 L159.428571,67.4237288 L159.428571,77.7966102 L149.142857,77.7966102 L149.142857,67.4237288 Z" id="Fill-9" fill="#2F5C89" sketch:type="MSShapeGroup"/><path d="M171.428571,22.4745763 L159.428571,22.4745763 C159.428571,26.2935125 162.114658,29.3898305 165.428571,29.3898305 C168.742485,29.3898305 171.428571,26.2935125 171.428571,22.4745763" id="Fill-10" fill="#C96856" sketch:type="MSShapeGroup"/><path d="M183.428571,67.4237288 L186.857143,67.4237288 L186.857143,98.5423729 L183.428571,98.5423729 L183.428571,67.4237288 Z" id="Fill-11" fill="#E2E2E2" sketch:type="MSShapeGroup"/><path d="M158.314769,3.45762712 L181.714286,3.45762712 C181.714286,6.31025946 179.129178,8.6440678 175.970274,8.6440678 L152.571429,8.6440678 C152.571429,5.79143545 155.155865,3.45762712 158.314769,3.45762712" id="Fill-12" fill="#FFBA1F" sketch:type="MSShapeGroup"/><path d="M136.572027,57.0508475 L190.856544,57.0508475 C191.485212,57.0508475 192,56.5176297 192,55.8649214 L192,54.7784557 C192,54.1264381 191.485212,53.5932203 190.856544,53.5932203 L136.572027,53.5932203 C135.942694,53.5932203 135.428571,54.1264381 135.428571,54.7784557 L135.428571,55.8649214 C135.428571,56.5176297 135.942694,57.0508475 136.572027,57.0508475" id="Fill-13" fill="#D6A85F" sketch:type="MSShapeGroup"/><path d="M147.428571,67.4237288 L150.857143,67.4237288 L150.857143,98.5423729 L147.428571,98.5423729 L147.428571,67.4237288 Z" id="Fill-14" fill="#E2E2E2" sketch:type="MSShapeGroup"/><path d="M157.714286,67.4237288 L173.142857,67.4237288 L173.142857,77.7966102 L157.714286,77.7966102 L157.714286,67.4237288 Z" id="Fill-15" fill="#2F5C89" sketch:type="MSShapeGroup"/><path d="M162.857143,98.5423729 L162.857143,71.515304 C162.857143,69.2650687 160.92819,67.4237288 158.571429,67.4237288 C156.213974,67.4237288 154.285714,69.2650687 154.285714,71.515304 L154.285714,98.5423729 L162.857143,98.5423729" id="Fill-16" fill="#376E9B" sketch:type="MSShapeGroup"/><path d="M178.285714,98.5423729 L178.285714,71.515304 C178.285714,69.2650687 176.357455,67.4237288 174,67.4237288 C171.643238,67.4237288 169.714286,69.2650687 169.714286,71.515304 L169.714286,98.5423729 L178.285714,98.5423729" id="Fill-17" fill="#376E9B" sketch:type="MSShapeGroup"/><path d="M140.571429,57.0508475 L147.428571,57.0508475 L147.428571,67.4237288 L140.571429,67.4237288 L140.571429,57.0508475 Z" id="Fill-20" fill="#1E1E1E" sketch:type="MSShapeGroup"/><path d="M185.142857,53.5932203 C185.142857,51.6837761 183.223744,50.1355932 180.857143,50.1355932 C178.490542,50.1355932 176.571429,51.6837761 176.571429,53.5932203" id="Fill-21" fill="#F4A68C" sketch:type="MSShapeGroup"/><path d="M84,13.8305085 L106.285714,13.8305085 L106.285714,43.220339 L84,43.220339 L84,13.8305085 Z" id="Fill-22" fill="#512D22" sketch:type="MSShapeGroup"/><path d="M157.714286,53.5932203 C157.714286,51.6837761 155.795172,50.1355932 153.428571,50.1355932 C151.061971,50.1355932 149.142857,51.6837761 149.142857,53.5932203" id="Fill-23" fill="#F4A68C" sketch:type="MSShapeGroup"/><path d="M102.857143,18.1528316 C102.857143,19.5849301 104.008563,20.7457627 105.428282,20.7457627 C106.848579,20.7457627 108,19.5849301 108,18.1528316 C108,16.7201547 106.848579,15.559322 105.428282,15.559322 C104.008563,15.559322 102.857143,16.7201547 102.857143,18.1528316" id="Fill-24" fill="#F4A68C" sketch:type="MSShapeGroup"/><path d="M80.5714286,18.1528316 C80.5714286,19.5849301 81.7222696,20.7457627 83.1425674,20.7457627 C84.5628652,20.7457627 85.7142857,19.5849301 85.7142857,18.1528316 C85.7142857,16.7201547 84.5628652,15.559322 83.1425674,15.559322 C81.7222696,15.559322 80.5714286,16.7201547 80.5714286,18.1528316" id="Fill-25" fill="#F4A68C" sketch:type="MSShapeGroup"/><path d="M111.428571,65.6949153 L111.428571,49.0061996 C111.428571,41.0697059 104.871597,34.5762712 96.8571429,34.5762712 C88.8426885,34.5762712 82.2857143,41.0697059 82.2857143,49.0061996 L82.2857143,65.6949153" id="Fill-26" fill="#EF78B1" sketch:type="MSShapeGroup"/><path d="M97.0769947,39.7627119 L94.9222842,39.7627119 C93.6293136,39.7627119 92.5714286,38.7387464 92.5714286,37.4880857 L92.5714286,28.2061321 C92.5714286,26.9554713 93.6293136,25.9322034 94.9222842,25.9322034 L97.0769947,25.9322034 C98.3699653,25.9322034 99.4285714,26.9554713 99.4285714,28.2061321 L99.4285714,37.4880857 C99.4285714,38.7387464 98.3699653,39.7627119 97.0769947,39.7627119" id="Fill-27" fill="#F4A68C" sketch:type="MSShapeGroup"/><path d="M95.1428571,1.72881356 L95.1428571,1.72881356 C101.271333,1.72881356 106.285714,6.86139857 106.285714,13.1343422 L106.285714,21.4412814 C106.285714,27.7148726 101.271333,32.8474576 95.1428571,32.8474576 C89.0143816,32.8474576 84,27.7148726 84,21.4412814 L84,13.1343422 C84,6.86139857 89.0143816,1.72881356 95.1428571,1.72881356" id="Fill-28" fill="#F4A68C" sketch:type="MSShapeGroup"/><path d="M109.714286,60.5084746 L113.142857,60.5084746 L113.142857,98.5423729 L109.714286,98.5423729 L109.714286,60.5084746 Z" id="Fill-29" fill="#B7B7B7" sketch:type="MSShapeGroup"/><path d="M73.7142857,60.5084746 L77.1428571,60.5084746 L77.1428571,98.5423729 L73.7142857,98.5423729 L73.7142857,60.5084746 Z" id="Fill-30" fill="#B7B7B7" sketch:type="MSShapeGroup"/><path d="M73.7142857,55.3220339 L120,55.3220339 L120,67.4237288 L73.7142857,67.4237288 L73.7142857,55.3220339 Z" id="Fill-31" fill="#2D2D2D" sketch:type="MSShapeGroup"/><path d="M80.5714286,67.4237288 L90.8571429,67.4237288 L90.8571429,77.7966102 L80.5714286,77.7966102 L80.5714286,67.4237288 Z" id="Fill-32" fill="#D8609F" sketch:type="MSShapeGroup"/><path d="M90.8571429,22.4745763 C90.8571429,26.29391 93.5432297,29.3898305 96.8571429,29.3898305 C100.170425,29.3898305 102.857143,26.29391 102.857143,22.4745763" id="Fill-33" fill="#AF5448" sketch:type="MSShapeGroup"/><path d="M116.571429,67.4237288 L120,67.4237288 L120,98.5423729 L116.571429,98.5423729 L116.571429,67.4237288 Z" id="Fill-34" fill="#E2E2E2" sketch:type="MSShapeGroup"/><path d="M69.7142319,57.0508475 L124.000054,57.0508475 C124.628729,57.0508475 125.142857,56.5176297 125.142857,55.8649214 L125.142857,54.7784557 C125.142857,54.1264381 124.628729,53.5932203 124.000054,53.5932203 L69.7142319,53.5932203 C69.0855569,53.5932203 68.5714286,54.1264381 68.5714286,54.7784557 L68.5714286,55.8649214 C68.5714286,56.5176297 69.0855569,57.0508475 69.7142319,57.0508475" id="Fill-35" fill="#D6A85F" sketch:type="MSShapeGroup"/><path d="M80.5714286,67.4237288 L84,67.4237288 L84,98.5423729 L80.5714286,98.5423729 L80.5714286,67.4237288 Z" id="Fill-36" fill="#E2E2E2" sketch:type="MSShapeGroup"/><path d="M90.8571429,67.4237288 L106.285714,67.4237288 L106.285714,77.7966102 L90.8571429,77.7966102 L90.8571429,67.4237288 Z" id="Fill-37" fill="#2F5C89" sketch:type="MSShapeGroup"/><path d="M106.285714,98.5423729 L106.285714,79.0235379 C106.285714,77.398012 105.128499,76.0677966 103.714575,76.0677966 C102.300072,76.0677966 101.142857,77.398012 101.142857,79.0235379 L101.142857,98.5423729 L106.285714,98.5423729" id="Fill-38" fill="#F4A68C" sketch:type="MSShapeGroup"/><path d="M94.2857143,98.5423729 L94.2857143,79.0235379 C94.2857143,77.398012 93.128499,76.0677966 91.713996,76.0677966 C90.299493,76.0677966 89.1428571,77.398012 89.1428571,79.0235379 L89.1428571,98.5423729 L94.2857143,98.5423729" id="Fill-39" fill="#F4A68C" sketch:type="MSShapeGroup"/><path d="M73.7142857,57.0508475 L80.5714286,57.0508475 L80.5714286,67.4237288 L73.7142857,67.4237288 L73.7142857,57.0508475 Z" id="Fill-42" fill="#1E1E1E" sketch:type="MSShapeGroup"/><path d="M90.8571429,53.5932203 C90.8571429,51.6837761 88.9385772,50.1355932 86.5717815,50.1355932 C84.2042799,50.1355932 82.2857143,51.6837761 82.2857143,53.5932203" id="Fill-43" fill="#F4A68C" sketch:type="MSShapeGroup"/><path d="M85.7142857,67.4237288 L109.714286,67.4237288 L109.714286,82.9830508 L85.7142857,82.9830508 L85.7142857,67.4237288 Z" id="Fill-44" fill="#EF78B1" sketch:type="MSShapeGroup"/><path d="M95.1428571,1.72881356 C101.271333,1.72881356 106.285714,7.17467933 106.285714,13.8305085 L84,13.8305085 C84,7.17467933 89.0143816,1.72881356 95.1428571,1.72881356" id="Fill-45" fill="#512D22" sketch:type="MSShapeGroup"/><path d="M28.2857143,0 C34.4141898,0 39.4285714,5.44586578 39.4285714,12.1016949 L17.1428571,12.1016949 C17.1428571,5.44586578 22.1572387,0 28.2857143,0" id="Fill-46" fill="#3F221B" sketch:type="MSShapeGroup"/><path d="M36,19.8810667 C36,21.3131652 37.1514205,22.4745763 38.5717183,22.4745763 C39.9914366,22.4745763 41.1428571,21.3131652 41.1428571,19.8810667 C41.1428571,18.4489683 39.9914366,17.2881356 38.5717183,17.2881356 C37.1514205,17.2881356 36,18.4489683 36,19.8810667" id="Fill-47" fill="#7C3E2F" sketch:type="MSShapeGroup"/><path d="M13.7142857,19.8810667 C13.7142857,21.3131652 14.8651268,22.4745763 16.2854245,22.4745763 C17.7057223,22.4745763 18.8571429,21.3131652 18.8571429,19.8810667 C18.8571429,18.4489683 17.7057223,17.2881356 16.2854245,17.2881356 C14.8651268,17.2881356 13.7142857,18.4489683 13.7142857,19.8810667" id="Fill-48" fill="#7C3E2F" sketch:type="MSShapeGroup"/><path d="M42.8571429,65.6949153 L42.8571429,49.0061996 C42.8571429,41.0697059 36.3001686,34.5762712 28.2857143,34.5762712 C20.27126,34.5762712 13.7142857,41.0697059 13.7142857,49.0061996 L13.7142857,65.6949153" id="Fill-49" fill="#C93831" sketch:type="MSShapeGroup"/><path d="M28.5055662,39.7627119 L26.3515767,39.7627119 C25.057885,39.7627119 24,38.7387464 24,37.4880857 L24,28.2061321 C24,26.9554713 25.057885,25.9322034 26.3515767,25.9322034 L28.5055662,25.9322034 C29.7992578,25.9322034 30.8571429,26.9554713 30.8571429,28.2061321 L30.8571429,37.4880857 C30.8571429,38.7387464 29.7992578,39.7627119 28.5055662,39.7627119" id="Fill-50" fill="#844331" sketch:type="MSShapeGroup"/><path d="M17.1428571,12.1016949 L17.1428571,21.5993933 C17.1428571,27.7860203 22.1572387,32.8474576 28.2857143,32.8474576 C34.4141898,32.8474576 39.4285714,27.7860203 39.4285714,21.5993933 L39.4285714,12.1016949" id="Fill-51" fill="#84483A" sketch:type="MSShapeGroup"/><path d="M41.1428571,60.5084746 L44.5714286,60.5084746 L44.5714286,98.5423729 L41.1428571,98.5423729 L41.1428571,60.5084746 Z" id="Fill-52" fill="#B7B7B7" sketch:type="MSShapeGroup"/><path d="M5.14285714,60.5084746 L8.57142857,60.5084746 L8.57142857,98.5423729 L5.14285714,98.5423729 L5.14285714,60.5084746 Z" id="Fill-53" fill="#B7B7B7" sketch:type="MSShapeGroup"/><path d="M5.14285714,55.3220339 L51.4285714,55.3220339 L51.4285714,67.4237288 L5.14285714,67.4237288 L5.14285714,55.3220339 Z" id="Fill-54" fill="#2D2D2D" sketch:type="MSShapeGroup"/><path d="M13.7142857,67.4237288 L24,67.4237288 L24,77.7966102 L13.7142857,77.7966102 L13.7142857,67.4237288 Z" id="Fill-55" fill="#2F5C89" sketch:type="MSShapeGroup"/><path d="M24,22.4745763 C24,26.29391 26.6860869,29.3898305 30,29.3898305 C33.3139131,29.3898305 36,26.29391 36,22.4745763" id="Fill-56" fill="#511912" sketch:type="MSShapeGroup"/><path d="M48,67.4237288 L51.4285714,67.4237288 L51.4285714,98.5423729 L48,98.5423729 L48,67.4237288 Z" id="Fill-57" fill="#E2E2E2" sketch:type="MSShapeGroup"/><path d="M1.14345584,57.0508475 L55.4279727,57.0508475 C56.0566404,57.0508475 56.5714286,56.5176297 56.5714286,55.8649214 L56.5714286,54.7784557 C56.5714286,54.1264381 56.0566404,53.5932203 55.4279727,53.5932203 L1.14345584,53.5932203 C0.514122251,53.5932203 0,54.1264381 0,54.7784557 L0,55.8649214 C0,56.5176297 0.514122251,57.0508475 1.14345584,57.0508475" id="Fill-58" fill="#D6A85F" sketch:type="MSShapeGroup"/><path d="M12,67.4237288 L15.4285714,67.4237288 L15.4285714,98.5423729 L12,98.5423729 L12,67.4237288 Z" id="Fill-59" fill="#E2E2E2" sketch:type="MSShapeGroup"/><path d="M22.2857143,67.4237288 L37.7142857,67.4237288 L37.7142857,77.7966102 L22.2857143,77.7966102 L22.2857143,67.4237288 Z" id="Fill-60" fill="#2F5C89" sketch:type="MSShapeGroup"/><path d="M27.4285714,98.5423729 L27.4285714,71.515304 C27.4285714,69.2650687 25.500156,67.4237288 23.1432039,67.4237288 C20.7855583,67.4237288 18.8571429,69.2650687 18.8571429,71.515304 L18.8571429,98.5423729 L27.4285714,98.5423729" id="Fill-61" fill="#376E9B" sketch:type="MSShapeGroup"/><path d="M42.8571429,98.5423729 L42.8571429,71.515304 C42.8571429,69.2650687 40.9288834,67.4237288 38.5714286,67.4237288 C36.2146671,67.4237288 34.2857143,69.2650687 34.2857143,71.515304 L34.2857143,98.5423729 L42.8571429,98.5423729" id="Fill-62" fill="#376E9B" sketch:type="MSShapeGroup"/><path d="M5.14285714,57.0508475 L12,57.0508475 L12,67.4237288 L5.14285714,67.4237288 L5.14285714,57.0508475 Z" id="Fill-65" fill="#1E1E1E" sketch:type="MSShapeGroup"/><path d="M49.7142857,53.5932203 C49.7142857,51.6837761 47.7951722,50.1355932 45.4285714,50.1355932 C43.0619706,50.1355932 41.1428571,51.6837761 41.1428571,53.5932203" id="Fill-66" fill="#844331" sketch:type="MSShapeGroup"/><path d="M22.2857143,53.5932203 C22.2857143,51.6837761 20.3671486,50.1355932 18.0003529,50.1355932 C15.6335573,50.1355932 13.7142857,51.6837761 13.7142857,53.5932203" id="Fill-67" fill="#844331" sketch:type="MSShapeGroup"/><path d="M171.055031,24.2033898 L159.802112,24.2033898 C159.564863,23.6634946 159.428571,23.0833943 159.428571,22.4745763 L171.428571,22.4745763 C171.428571,23.0833943 171.292279,23.6634946 171.055031,24.2033898" id="Fill-69" fill="#FFFFFF" sketch:type="MSShapeGroup"/><path d="M102.483602,24.2033898 L91.2306837,24.2033898 C90.9934348,23.6634946 90.8571429,23.0833943 90.8571429,22.4745763 L102.857143,22.4745763 C102.857143,23.0833943 102.720851,23.6634946 102.483602,24.2033898" id="Fill-70" fill="#FFFFFF" sketch:type="MSShapeGroup"/><path d="M35.6264591,24.2033898 L24.3735409,24.2033898 C24.1362919,23.6634946 24,23.0833943 24,22.4745763 L36,22.4745763 C36,23.0833943 35.8637081,23.6634946 35.6264591,24.2033898" id="Fill-71" fill="#FFFFFF" sketch:type="MSShapeGroup"/><path d="M94.2857143,13.8305085 L94.2857143,6.91525424 L89.1428571,13.8305085 L94.2857143,13.8305085" id="Fill-72" fill="#F4A68C" sketch:type="MSShapeGroup"/></g></g></g></svg>