<?xml version="1.0" encoding="UTF-8" standalone="no"?><svg width="343px" height="130px" viewBox="0 0 343 130" version="1.1" xmlns="http://www.w3.org/2000/svg" xmlns:xlink="http://www.w3.org/1999/xlink"><title>Group 55 Copy</title><desc>Created with Sketch.</desc><defs><rect id="path-1" x="-3.41060513e-13" y="1.42108547e-14" width="343" height="130"/></defs><g id="Page-1" stroke="none" stroke-width="1" fill="none" fill-rule="evenodd"><g id="Group-55-Copy"><mask id="mask-2" fill="white"><use xlink:href="#path-1"/></mask><use id="Mask" fill="#F7C8C9" xlink:href="#path-1"/><g id="Group-55" mask="url(#mask-2)"><g transform="translate(117.000000, 11.000000)" id="Group-54"><g><g id="Group-50"><g id="Group-48-Copy-2" transform="translate(1.941176, 16.813348)"><path d="M9.45650588,43.3626592 C9.45650588,43.3626592 5.59421176,62.0862623 2.24827059,88.037665 C-1.0912,113.941214 0.760682353,119.140419 4.19074118,119.311139 C7.62144706,119.481212 17.8825059,117.598764 21.4956824,108.064949 C25.1088588,98.5311341 18.8744471,79.5436909 18.8744471,79.5436909 L13.2430941,57.4470716 L9.45650588,43.3626592 Z" id="Fill-10" fill="#78C800"/><path d="M96.9859647,43.3626592 C96.9859647,43.3626592 100.848259,62.0862623 104.1942,88.037665 C107.533671,113.941214 105.681788,119.140419 102.251729,119.311139 C98.8210235,119.481212 88.5599647,117.598764 84.9467882,108.064949 C81.3336118,98.5311341 87.5680235,79.5436909 87.5680235,79.5436909 L93.1993765,57.4470716 L96.9859647,43.3626592 Z" id="Fill-12" fill="#78C800"/><path d="M53.2324941,12.6856064 C70.3692,12.6856064 77.9850824,-6.46667231e-05 87.1319059,-6.46667231e-05 C97.9216118,-6.46667231e-05 97.6602,17.2750038 97.6602,23.207529 C97.6602,63.5039509 95.9429059,129.246728 53.4563765,129.246728 C21.8714941,129.246728 8.73037647,96.2634662 8.73037647,23.2818957 C8.73037647,6.11870068 12.9116706,-6.46667231e-05 19.6320235,-6.46667231e-05 C29.4880235,-6.46667231e-05 35.4797882,12.6856064 53.2324941,12.6856064" id="Fill-21" fill="#78C800"/><path d="M82.1661176,14.5351394 C78.2915294,14.5351394 75.2827059,17.3778885 74.4991176,17.3778885 C74.1898235,17.3778885 74.1283529,17.130215 74.1283529,16.8010614 C74.1283529,15.7709205 75.3027647,15.4210735 75.3027647,14.9470664 C75.3027647,14.6586528 74.8084118,14.5972194 74.6641176,14.5972194 C70.8309412,14.5972194 64.9977059,22.0325993 64.1118824,22.0325993 C63.8025882,22.0325993 63.7411176,21.6206722 63.7411176,21.352952 C63.7411176,20.0964776 64.8540588,19.3340569 64.8540588,18.9842099 C64.8540588,18.634363 64.5855294,18.5102028 64.3797647,18.5102028 C62.4832353,18.5102028 58.3278235,22.7646266 53.2607059,22.7937266 C48.1935882,22.7646266 44.0381765,18.5102028 42.1416471,18.5102028 C41.9352353,18.5102028 41.6673529,18.634363 41.6673529,18.9842099 C41.6673529,19.3340569 42.7802941,20.0964776 42.7802941,21.352952 C42.7802941,21.6206722 42.7188235,22.0325993 42.4095294,22.0325993 C41.5230588,22.0325993 35.6904706,14.5972194 31.8572941,14.5972194 C31.713,14.5972194 31.218,14.6586528 31.218,14.9470664 C31.218,15.4210735 32.3930588,15.7709205 32.3930588,16.8010614 C32.3930588,17.130215 32.3309412,17.3778885 32.0222941,17.3778885 C31.2387059,17.3778885 28.2298824,14.5351394 24.3552941,14.5351394 C19.6563529,14.5351394 12.6487059,20.219991 12.6487059,39.4990812 C12.6487059,58.2841176 22.6651765,62.4260212 30.5793529,62.4260212 C38.4928824,62.4260212 45.2125882,56.5950228 45.2125882,56.5950228 L48.4278235,51.6105118 L53.2607059,49.2055564 L58.0935882,51.6105118 L61.3088235,56.5950228 C61.3088235,56.5950228 68.0285294,62.4260212 75.9420588,62.4260212 C83.8562353,62.4260212 93.8727059,58.2841176 93.8727059,39.4990812 C93.8727059,20.219991 86.8650588,14.5351394 82.1661176,14.5351394" id="Fill-24" fill="#8EE000"/><path d="M42.1603471,41.4961836 C42.1603471,49.6765241 36.7030529,56.3080966 29.9704059,56.3080966 C23.2384059,56.3080966 17.7811118,49.6765241 17.7811118,41.4961836 C17.7811118,33.3158431 23.2384059,26.6842707 29.9704059,26.6842707 C36.7030529,26.6842707 42.1603471,33.3158431 42.1603471,41.4961836" id="Fill-26" fill="#FFFFFF"/><path d="M36.4159529,41.4961836 C36.4159529,45.9898742 33.4181294,49.6325507 29.7195412,49.6325507 C26.0216,49.6325507 23.0237765,45.9898742 23.0237765,41.4961836 C23.0237765,37.002493 26.0216,33.3598165 29.7195412,33.3598165 C33.4181294,33.3598165 36.4159529,37.002493 36.4159529,41.4961836" id="Fill-28" fill="#3F3F3F"/><path d="M28.5158176,36.3344858 C28.5158176,38.2046474 27.1117,39.7210821 25.3795235,39.7210821 C23.6473471,39.7210821 22.2432294,38.2046474 22.2432294,36.3344858 C22.2432294,34.4643241 23.6473471,32.9478895 25.3795235,32.9478895 C27.1117,32.9478895 28.5158176,34.4643241 28.5158176,36.3344858" id="Fill-30" fill="#FFFFFF"/><path d="M104.193618,111.971725 C95.7935,111.971725 91.0479706,81.4574379 91.0479706,81.4574379 L89.8573824,84.7716074 L88.9612059,91.8235136 L86.2733235,100.666041 L84.1529118,105.005178 C84.3327941,106.098046 84.5916176,107.12754 84.9468529,108.065208 C88.5600294,117.599023 98.8210882,119.480824 102.251794,119.310751 C104.573441,119.195644 106.171029,116.774522 105.926441,107.194147 L105.873382,107.15858 C105.873382,107.15858 106.097912,111.971725 104.193618,111.971725" id="Fill-38" fill="#71B200"/><path d="M2.24464706,111.971725 C10.6447647,111.971725 15.3902941,81.4574379 15.3902941,81.4574379 L16.5808824,84.7716074 L17.4770588,91.8235136 L20.1649412,100.666041 L22.2853529,105.005178 C22.1054706,106.098046 21.8466471,107.12754 21.4914118,108.065208 C17.8782353,117.599023 7.61717647,119.480824 4.18647059,119.310751 C1.86482353,119.195644 0.267235294,116.774522 0.511823529,107.194147 L0.564882353,107.15858 C0.564882353,107.15858 0.340352941,111.971725 2.24464706,111.971725" id="Fill-40" fill="#71B200"/><path d="M91.0481647,81.6810554 C86.8338706,81.6810554 92.3578118,115.875525 53.5012824,115.988045 C14.6454,115.875525 19.7215765,81.6810554 15.5066353,81.6810554 C14.9119882,81.6810554 15.3772235,98.7763504 23.7689294,112.493456 C30.8658706,123.818539 40.6435765,129.24731 53.4566353,129.24731 C69.2726941,129.24731 79.4379882,120.135122 85.9694,106.617837 C91.3471059,94.3434465 91.5599882,81.6810554 91.0481647,81.6810554" id="Fill-42" fill="#71B200"/><path d="M44.6061,56.1902091 C44.6061,58.7742914 47.1930412,75.6516595 52.5798059,75.6516595 C58.2946294,75.6516595 61.0193941,62.883215 61.0193941,56.6073095 C61.0193941,50.331404 56.5210412,56.6842629 56.5210412,56.6842629 L50.7169235,57.9827707 C50.7169235,57.9827707 44.6061,53.6061269 44.6061,56.1902091" id="Fill-52" fill="#71B200"/><path d="M44.4994647,55.6101486 C44.4994647,55.6101486 45.3270529,69.6383009 53.1254059,69.6383009 C60.6843471,69.6383009 61.5992882,55.634722 61.5992882,55.634722" id="Fill-54" fill="#F49000"/><path d="M53.0514471,48.5269438 C60.5780353,48.5269438 62.2176824,55.8252301 62.2176824,56.7939377 C62.2176824,59.7724869 55.3685647,66.9491999 53.0514471,66.9491999 C50.7951529,66.9491999 43.9602706,59.7724869 43.9602706,56.8683044 C43.9602706,55.2296496 46.1958588,48.5269438 53.0514471,48.5269438" id="Fill-56" fill="#FFC200"/><path d="M56.7259647,51.850878 C56.7259647,52.8299322 55.0973176,53.6233929 53.0888471,53.6233929 C51.0803765,53.6233929 49.4517294,52.8299322 49.4517294,51.850878 C49.4517294,50.8718238 51.0803765,50.0783631 53.0888471,50.0783631 C55.0973176,50.0783631 56.7259647,50.8718238 56.7259647,51.850878" id="Fill-58" fill="#FFF3B8"/></g><path d="M86.6903818,60.1453837 C86.283883,60.1453837 85.8726575,60.0563857 85.4850656,59.8573112 C81.4815254,57.8525138 73.9116674,57.8478297 69.8963104,59.8619953 C68.5704626,60.5271384 66.9515576,59.9954923 66.2874521,58.6839426 C65.6209831,57.3700508 66.1527403,55.7704286 67.4762246,55.1076276 C73.0206788,52.3322947 82.3654239,52.3322947 87.902788,55.1123117 C89.2286357,55.7727706 89.7603928,57.3747349 89.0891972,58.6839426 C88.6165242,59.6113956 87.6735416,60.1453837 86.6903818,60.1453837" id="Fill-67" fill="#3F3F3F"/><path d="M16.4277498,42.3708703 C16.2859479,42.3708703 16.1417827,42.3451078 16.0023441,42.2935826 C15.8747224,42.2467415 15.7589175,42.178822 15.6596562,42.0968501 C8.3497684,36.443134 4.86380509,33.3797286 2.79586075,30.8034702 C0.477399722,27.9086926 0.00945345984,25.6228488 0.00472672992,22.6671778 C0.00236336496,22.6390732 0,22.6109685 0,22.5805218 C0,17.6177114 4.07444119,13.5800119 9.08241154,13.5800119 C12.0129841,13.5800119 14.7426706,15.0110063 16.4301132,17.2968501 C18.1175558,15.0110063 20.8496057,13.5800119 23.7778149,13.5800119 C28.7857852,13.5800119 32.8602264,17.6177114 32.8602264,22.5805218 C32.8602264,22.6086265 32.8602264,22.6367311 32.857863,22.6671778 C32.8507729,25.6205067 32.38519,27.9086926 30.0620023,30.8034702 C27.9940579,33.3797286 24.5033679,36.443134 17.18639,42.1038763 C17.0989455,42.1764799 16.9973208,42.2350313 16.888606,42.2818723 C16.7420774,42.3404237 16.5860953,42.3708703 16.4277498,42.3708703" id="Fill-69" fill="#D33131"/><path d="M97.2787233,54.2643466 C97.1700086,54.2643466 97.0589304,54.2456102 96.9549423,54.2057953 C96.8580444,54.1683224 96.7705999,54.1191393 96.6926088,54.0559039 C91.124521,49.7488683 88.4704621,47.4161834 86.8940977,45.4512009 C85.1263007,43.2473289 84.771796,41.5048414 84.7670692,39.2541284 C84.7647059,39.23305 84.7647059,39.2119715 84.7647059,39.188551 C84.7647059,35.4084773 87.8678041,32.3333616 91.6822751,32.3333616 C93.915655,32.3333616 95.9954162,33.4224163 97.2810867,35.1649038 C98.5643939,33.4224163 100.646518,32.3333616 102.877535,32.3333616 C106.692006,32.3333616 109.797468,35.4084773 109.797468,39.188551 C109.797468,39.2096294 109.795104,39.2307079 109.795104,39.2541284 C109.790377,41.5048414 109.433509,43.2473289 107.663349,45.4512009 C106.089348,47.4161834 103.430562,49.7488683 97.8577478,54.060588 C97.7892102,54.1167973 97.7135825,54.1612963 97.6308647,54.1964271 C97.5197866,54.2409261 97.399255,54.2643466 97.2787233,54.2643466" id="Fill-71" fill="#D33131"/><path d="M70.5275059,17.0079894 C70.4424248,17.0079894 70.3573437,16.9939371 70.2746259,16.9611484 C70.2013616,16.9353858 70.132824,16.8955709 70.0737399,16.8463878 C65.7558721,13.5066201 63.6973812,11.6962131 62.4755215,10.1738786 C61.1047698,8.46417982 60.8282561,7.11515725 60.8258928,5.36798565 L60.8235294,5.31646048 C60.8235294,2.38655208 63.2294349,0 66.1883679,0 C67.918351,0 69.5325293,0.845481161 70.5298693,2.19684579 C71.5248459,0.845481161 73.1390242,0 74.8690074,0 C77.8279403,0 80.2338458,2.38655208 80.2338458,5.31646048 L80.2338458,5.35159128 C80.2291191,7.11281519 79.9526054,8.46417982 78.5818537,10.1738786 C77.359994,11.6985551 75.2991398,13.5066201 70.9765453,16.8510719 C70.9245512,16.8932288 70.8631038,16.9283596 70.7992929,16.9541222 C70.7142118,16.989253 70.6220405,17.0079894 70.5275059,17.0079894" id="Fill-74" fill="#D33131"/></g></g></g></g></g></g></svg>