<?xml version="1.0" encoding="UTF-8" standalone="no"?><svg width="343px" height="160px" viewBox="0 0 343 160" version="1.1" xmlns="http://www.w3.org/2000/svg" xmlns:xlink="http://www.w3.org/1999/xlink"><title>Group 24</title><desc>Created with Sketch.</desc><defs><path d="M0.778944565,0.430239188 L6.27904526,0.430239188 C6.27904526,3.35412771 3.85976769,4.47649655 0.778944565,4.47649655 L0.778944565,0.430239188 Z" id="path-1"/></defs><g id="Page-1" stroke="none" stroke-width="1" fill="none" fill-rule="evenodd"><g id="Group-24"><g id="Group-23"><rect id="Rectangle-16-Copy-3" fill="#1CB0F6" fill-rule="nonzero" x="0" y="2.84217094e-14" width="343" height="160"/><g id="Group-21" transform="translate(12.000000, 42.000000)"><g id="Rectangle-2-Copy-3" transform="translate(47.607247, 32.557763) rotate(-11.000000) translate(-47.607247, -32.557763) translate(4.607247, 9.057763)"><g id="path-1-link" fill-rule="nonzero" fill="#FFFFFF"><rect id="path-1" x="0.180407572" y="0.621890445" width="84.8227457" height="45.315666" rx="10"/></g><g id="path-1-link"/></g><path d="M41.2762181,23.2463673 L69.357064,17.7275576 C70.5823544,17.4867478 71.3825718,16.2872389 71.1443994,15.0483796 C70.9062271,13.8095202 69.7198561,13.0004412 68.4945657,13.2412511 L40.4137198,18.7600607 C39.1884294,19.0008706 38.3882121,20.2003795 38.6263844,21.4392389 C38.8645567,22.6780982 40.0509277,23.4871772 41.2762181,23.2463673 Z" id="Line-Copy-12" fill="#BDBDBD" fill-rule="nonzero"/><path d="M43.6579516,31.4052644 L66.6234161,26.8917954 C67.8487065,26.6509856 68.6489238,25.4514767 68.4107514,24.2126174 C68.1725791,22.973758 66.9862082,22.1646791 65.7609177,22.4054889 L42.7954533,26.9189579 C41.5701629,27.1597677 40.7699455,28.3592766 41.0081179,29.5981359 C41.2462902,30.8369954 42.4326612,31.6460743 43.6579516,31.4052644 Z" id="Line-Copy-13" fill="#BDBDBD" fill-rule="nonzero"/><g id="Group-77" transform="translate(24.333180, 23.959649) rotate(-11.000000) translate(-24.333180, -23.959649) translate(11.333180, 2.459649)" fill-rule="nonzero"><path d="M17.3614508,4.94141433 C17.3614508,7.59116694 15.236937,9.73922553 12.6161749,9.73922553 C9.99544782,9.73922553 7.87089889,7.59116694 7.87089889,4.94141433 C7.87089889,2.29162972 9.99544782,0.14358894 12.6161749,0.14358894 C15.236937,0.14358894 17.3614508,2.29162972 17.3614508,4.94141433 Z" id="Fill-1" fill="#282828"/><path d="M0.208173319,42.6487641 C0.208173319,35.7185698 5.76188734,30.1033359 12.6161749,30.1033359 L12.6161749,30.1033359 C19.4704625,30.1033359 25.0242116,35.7185698 25.0242116,42.6487641" id="Fill-3" fill="#FF7F00"/><path d="M12.6513274,38.2418718 L12.6513274,38.2418718 C16.1312176,38.2418718 18.978362,35.4697913 19.1892773,32.022466 C17.291181,30.8141225 15.0415593,30.1033359 12.61621,30.1033359 L12.61621,30.1033359 C10.2259782,30.1033359 7.9763565,30.7785842 6.07826016,31.9869279 C6.28914023,35.4697948 9.13631985,38.2418718 12.6513274,38.2418718 Z" id="Fill-20" fill="#BF7358"/><path d="M12.6161749,26.2650756 L12.6161749,26.2650756 C7.69517136,26.2650756 3.72318085,22.2491169 3.72318085,17.2735931 L3.72318085,12.7245426 C3.72318085,7.74901882 7.69517136,3.73306364 12.6161749,3.73306364 L12.6161749,3.73306364 C17.5372136,3.73306364 21.5092041,7.74901882 21.5092041,12.7245426 L21.5092041,17.2735931 C21.5092041,22.2135751 17.5372136,26.2650756 12.6161749,26.2650756 Z" id="Fill-21" fill="#333333"/><path d="M23.6533682,19.1927232 C23.6533682,20.3900239 22.6933875,21.3606283 21.5092041,21.3606283 C20.3249854,21.3606283 19.36504,20.3900239 19.36504,19.1927232 C19.36504,17.9954225 20.3249854,17.0248145 21.5092041,17.0248145 C22.6933875,17.0248145 23.6533682,17.9954225 23.6533682,19.1927232 Z" id="Fill-22" fill="#B25C4B"/><path d="M5.86734494,19.1927232 C5.86734494,20.3900239 4.90736434,21.3606283 3.72318085,21.3606283 C2.53899738,21.3606283 1.57901676,20.3900239 1.57901676,19.1927232 C1.57901676,17.9954225 2.53899738,17.0248145 3.72318085,17.0248145 C4.90736434,17.0248145 5.86734494,17.9954225 5.86734494,19.1927232 Z" id="Fill-23" fill="#B25C4B"/><path d="M12.6513274,34.865623 L12.6513274,34.865623 C10.753231,34.865623 9.24177745,33.3018862 9.24177745,31.4182978 L9.24177745,27.2601789 C9.24177745,25.3410488 10.7883836,23.8128537 12.6513274,23.8128537 L12.6513274,23.8128537 C14.5494589,23.8128537 16.0609125,25.3765871 16.0609125,27.2601789 L16.0609125,31.4182943 C16.0609125,33.3018862 14.5494589,34.865623 12.6513274,34.865623 Z" id="Fill-24" fill="#B25C4B"/><path d="M12.6161749,30.174416 L12.6161749,30.174416 C7.69517136,30.174416 3.72318085,26.1584573 3.72318085,21.1829334 L3.72318085,15.6032379 C3.72318085,10.627714 7.69517136,6.61177309 12.6161749,6.61177309 L12.6161749,6.61177309 C17.5372136,6.61177309 21.5092041,10.627714 21.5092041,15.6032379 L21.5092041,21.1829334 C21.5092041,26.1584573 17.5372136,30.174416 12.6161749,30.174416 Z" id="Fill-25" fill="#BF7358"/><path d="M18.3105342,16.9892763 C18.3105342,17.6173677 17.806939,18.1265398 17.1857234,18.1265398 C16.5645077,18.1265398 16.0609125,17.6173677 16.0609125,16.9892763 C16.0609125,16.3611813 16.5645077,15.8520129 17.1857234,15.8520129 C17.806939,15.8520129 18.3105342,16.3611813 18.3105342,16.9892763 Z" id="Fill-26" fill="#A85F48"/><path d="M9.17147241,16.9892763 C9.17147241,17.6173677 8.66787719,18.1265398 8.04666157,18.1265398 C7.42544595,18.1265398 6.92185072,17.6173677 6.92185072,16.9892763 C6.92185072,16.3611813 7.42544595,15.8520129 8.04666157,15.8520129 C8.66787719,15.8520129 9.17147241,16.3611813 9.17147241,16.9892763 Z" id="Fill-27" fill="#A85F48"/><path d="M13.6004107,19.9390516 L11.7022793,19.9390516 C11.4210941,19.9390516 11.1750264,19.6902731 11.1750264,19.4059599 L11.1750264,16.3851045 C11.1750264,16.1007913 11.4210941,15.8520129 11.7022793,15.8520129 L13.6004107,15.8520129 C13.8815958,15.8520129 14.1276636,16.1007913 14.1276636,16.3851045 L14.1276636,19.4059599 C14.1276636,19.7258149 13.8815958,19.9390516 13.6004107,19.9390516 Z" id="Fill-28" fill="#B25C4B"/><path d="M17.2208758,21.32509 C17.2208758,23.8839303 15.1470169,25.9807588 12.6161749,25.9807588 C10.0853681,25.9807588 8.01150903,23.8839303 8.01150903,21.32509" id="Fill-29" fill="#933634"/><path d="M8.25757679,22.8177468 L16.9748082,22.8177468 C17.1154182,22.3557352 17.2208758,21.8581818 17.2208758,21.32509 L8.01150903,21.32509 C8.01150903,21.8581818 8.11696664,22.3557352 8.25757679,22.8177468 Z" id="Fill-30" fill="#FFFFFF"/><path d="M15.3227444,25.0922703 C14.6900691,24.3104036 13.7409857,23.7773119 12.6513274,23.7773119 L12.6513274,23.7773119 C11.5616691,23.7773119 10.612621,24.2748653 9.97991047,25.0922703 C10.7180786,25.6253655 11.6671267,25.9452206 12.6513274,25.9452206 C13.6355633,25.9807588 14.5494589,25.6609038 15.3227444,25.0922703 Z" id="Fill-31" fill="#AF3F3F"/><path d="M5.69161741,18.9794865 C5.69161741,19.1953924 5.51849117,19.3704216 5.30493952,19.3704216 C5.09142302,19.3704216 4.91829678,19.1953924 4.91829678,18.9794865 C4.91829678,18.7635807 5.09142302,18.5885514 5.30493952,18.5885514 C5.51849117,18.5885514 5.69161741,18.7635807 5.69161741,18.9794865 Z" id="Fill-32" fill="#A85F48"/><path d="M6.64066558,19.9390516 C6.64066558,20.1549575 6.46753935,20.3299867 6.25398769,20.3299867 C6.04047118,20.3299867 5.86734494,20.1549575 5.86734494,19.9390516 C5.86734494,19.7231457 6.04047118,19.5481165 6.25398769,19.5481165 C6.46753935,19.5481165 6.64066558,19.7231457 6.64066558,19.9390516 Z" id="Fill-33" fill="#A85F48"/><path d="M20.3492406,18.9794865 C20.3492406,19.1953924 20.1761145,19.3704216 19.9625979,19.3704216 C19.7490462,19.3704216 19.5759201,19.1953924 19.5759201,18.9794865 C19.5759201,18.7635807 19.7490462,18.5885514 19.9625979,18.5885514 C20.1761145,18.5885514 20.3492406,18.7635807 20.3492406,18.9794865 Z" id="Fill-34" fill="#A85F48"/><path d="M19.4001925,19.9390516 C19.4001925,20.1549575 19.2270663,20.3299867 19.0135146,20.3299867 C18.7999981,20.3299867 18.6268718,20.1549575 18.6268718,19.9390516 C18.6268718,19.7231457 18.7999981,19.5481165 19.0135146,19.5481165 C19.2270663,19.5481165 19.4001925,19.7231457 19.4001925,19.9390516 Z" id="Fill-35" fill="#A85F48"/></g><path d="M6.99682105,48.1682627 L87.759163,32.2958067 L89.169791,39.6332235 C89.9488593,43.6855669 87.3313262,47.6091939 83.323367,48.3968897 L17.075129,61.4168471 C13.0671699,62.2045428 9.18651738,59.558023 8.40744905,55.5056796 L6.99682105,48.1682627 Z" id="Rectangle-2-Copy-3" fill="#F2F2F2" fill-rule="nonzero"/><path d="M17.8926159,52.3864425 C17.8926159,53.4798711 18.533765,54.4298991 19.5132983,55.0393511 L19.5132983,55.0752012 C19.5132983,56.258255 18.0885226,56.580906 19.0858655,56.580906 C20.0119698,56.580906 20.8668353,55.935604 21.0627419,55.612953 C21.3298874,55.648803 21.5970329,55.6846532 21.8641783,55.6846532 C24.054771,55.6846532 25.8357407,54.2147984 25.8357407,52.4043676 C25.8535504,50.5580867 24.0725807,49.106157 21.8641783,49.106157 C19.6735856,49.106157 17.8926159,50.5760118 17.8926159,52.3864425 Z" id="path-3" fill="#979797" fill-rule="nonzero" transform="translate(21.864244, 52.843532) rotate(-11.000000) translate(-21.864244, -52.843532)"/><path d="M35.7331427,53.8640295 C35.6967147,53.8640295 35.6599053,53.8573926 35.624431,53.8439265 C35.5921035,53.8316146 35.5628276,53.8143972 35.5372709,53.7928515 C33.6727691,52.3248532 32.7834308,51.5297755 32.2561789,50.860606 C31.6642721,50.1091971 31.5453567,49.5157264 31.5437355,48.7484468 C31.5432588,48.7408479 31.543068,48.7335378 31.543068,48.7259391 C31.543068,47.4375209 32.5822187,46.3892805 33.8595817,46.3892805 C34.6068318,46.3892805 35.3035406,46.7608489 35.7338102,47.3543196 C36.1640799,46.7608489 36.8610746,46.3892805 37.6081341,46.3892805 C38.885497,46.3892805 39.9249338,47.4375209 39.9249338,48.7259391 C39.9249338,48.7332492 39.9247431,48.7405595 39.9240746,48.7481582 C39.9225488,49.5151493 39.8034427,50.1089085 39.2108684,50.8605099 C38.6837118,51.5298717 37.7932292,52.3252369 35.927011,53.794678 C35.904315,53.8133382 35.8785675,53.8289214 35.8508174,53.840559 C35.8136275,53.856046 35.7735758,53.8640295 35.7331427,53.8640295 L35.7331427,53.8640295 Z" id="path-5" fill="#FF9797" fill-rule="nonzero" transform="translate(35.734001, 50.126655) rotate(-11.000000) translate(-35.734001, -50.126655)"/><g id="Rectangle-2-Copy-3" transform="translate(88.036595, 44.597446) rotate(9.000000) translate(-88.036595, -44.597446) translate(47.036595, 21.097446)"><g id="path-7-link" fill-rule="nonzero" fill="#FFFFFF"><rect id="path-7" x="0.316522592" y="0.594061033" width="80.4059543" height="45.5480147" rx="10"/></g><g id="path-7-link"/></g><g id="Group-76" transform="translate(69.486591, 31.634381) rotate(9.000000) translate(-69.486591, -31.634381) translate(56.986591, 10.634381)" fill-rule="nonzero"><path d="M1.57211721,41.643429 L1.57211721,38.7972427 C1.57211721,32.4178563 6.46544765,27.2489184 12.5046865,27.2489184 L12.5046865,27.2489184 C18.5439344,27.2489184 23.4372494,32.4178563 23.4372494,38.7972427 L23.4372494,41.643429" id="Fill-4" fill="#64CCF4"/><path d="M18.9274647,41.391 L6.35346744,41.391 L6.35346744,29.6473049 C6.35346744,26.063396 9.17177951,23.1514697 12.6404677,23.1514697 L12.6404677,23.1514697 C16.1091527,23.1514697 18.9274647,26.063396 18.9274647,29.6473049 L18.9274647,41.391 Z" id="Fill-5" fill="#53C6EA"/><polygon id="Fill-6" fill="#F2F2F2" points="9.48259669 27.690183 15.5218293 27.690183 15.5218293 41.2230815 9.48259669 41.2230815"/><path d="M12.7726127,18.5301415 L10.2764602,18.5301415 C5.47042912,18.5301415 1.55854639,14.5927323 1.55854639,9.7088322 L1.55854639,9.7088322 C1.55854639,4.82493577 5.47042912,0.887530391 10.2764602,0.887530391 L12.7726127,0.887530391 C13.1079169,0.887530391 13.3687078,1.15252804 13.3687078,1.49328797 L13.3687078,17.9243877 C13.3687078,18.2651249 13.1079169,18.5301415 12.7726127,18.5301415 Z" id="Fill-7" fill="#FFAA00"/><path d="M14.220772,8.77752456 L10.1226079,8.77752456 C7.99901438,8.77752456 6.24797992,6.98904179 6.24797992,4.82004454 L6.24797992,4.82004454 C6.24797992,2.65104728 7.99901066,0.862564506 10.1226079,0.862564506 L14.220772,0.862564506 C16.3443655,0.862564506 18.0954037,2.65104728 18.0954037,4.82004454 L18.0954037,4.82004454 C18.0954037,7.02709705 16.3443655,8.77752456 14.220772,8.77752456 Z" id="Fill-8" fill="#FFAA00"/><path d="M19.0892225,16.4014576 L19.0892225,16.4014576 C16.8166024,16.4014576 14.9910472,14.545368 14.9910472,12.2347219 L14.9910472,9.5831648 C14.9910472,7.2725376 16.8166024,5.41643669 19.0892225,5.41643669 L19.0892225,5.41643669 C21.3618426,5.41643669 23.1873978,7.2725376 23.1873978,9.5831648 L23.1873978,12.2347219 C23.1873978,14.5074899 21.3618426,16.4014576 19.0892225,16.4014576 Z" id="Fill-9" fill="#FFAA00"/><path d="M24.5476765,17.0476364 C24.5476765,18.3542655 23.5038792,19.413498 22.2163037,19.413498 C20.9287282,19.413498 19.884931,18.3542655 19.884931,17.0476364 C19.884931,15.7410034 20.9287282,14.6817708 22.2163037,14.6817708 C23.5038792,14.6817708 24.5476765,15.7410034 24.5476765,17.0476364 Z" id="Fill-10" fill="#FF9D8A"/><path d="M5.20875278,17.0476364 C5.20875278,18.3542655 4.16496314,19.413498 2.87738382,19.413498 C1.58980068,19.413498 0.546011042,18.3542655 0.546011042,17.0476364 C0.546011042,15.7410034 1.58980068,14.6817708 2.87738382,14.6817708 C4.16496314,14.6817708 5.20875278,15.7410034 5.20875278,17.0476364 Z" id="Fill-11" fill="#FF9D8A"/><path d="M12.4398019,31.660106 L12.4398019,31.660106 C10.7286423,31.660106 9.36605334,30.255619 9.36605334,28.5638542 L9.36605334,24.8291954 C9.36605334,23.1055083 10.7603326,21.7329404 12.4398019,21.7329404 L12.4398019,21.7329404 C14.1509614,21.7329404 15.5135504,23.1374274 15.5135504,24.8291954 L15.5135504,28.563851 C15.5135504,30.2875381 14.1192744,31.660106 12.4398019,31.660106 Z" id="Fill-12" fill="#FF9D8A"/><path d="M12.7957218,29.119132 L12.7957218,29.119132 C7.57987694,29.119132 3.36994476,24.8385972 3.36994476,19.5352801 L3.36994476,13.6258708 C3.36994476,8.32255364 7.61713172,4.04201122 12.7957218,4.04201122 L12.7957218,4.04201122 C18.0115555,4.04201122 22.2215063,8.32255364 22.2215063,13.6258708 L22.2215063,19.5731634 C22.2215063,24.838601 18.0115555,29.119132 12.7957218,29.119132 Z" id="Fill-13" fill="#FFB5A1"/><path d="M18.8311675,14.2556869 C18.8311675,14.9574409 18.2685138,15.5263214 17.5744461,15.5263214 C16.8803783,15.5263214 16.3177247,14.9574409 16.3177247,14.2556869 C16.3177247,13.553937 16.8803783,12.9850525 17.5744461,12.9850525 C18.2685138,12.9850525 18.8311675,13.553937 18.8311675,14.2556869 Z" id="Fill-14" fill="#EA9486"/><path d="M8.62033935,14.2556869 C8.62033935,14.9574409 8.05768964,15.5263214 7.36362186,15.5263214 C6.669558,15.5263214 6.1069083,14.9574409 6.1069083,14.2556869 C6.1069083,13.553937 6.669558,12.9850525 7.36362186,12.9850525 C8.05768964,12.9850525 8.62033935,13.553937 8.62033935,14.2556869 Z" id="Fill-15" fill="#EA9486"/><path d="M13.5776189,17.9016679 L11.5137791,17.9016679 C11.2080243,17.9016679 10.9404913,17.6304179 10.9404913,17.3204152 L10.9404913,14.026647 C10.9404913,13.7166482 11.2080243,13.4453943 11.5137791,13.4453943 L13.5776189,13.4453943 C13.8833736,13.4453943 14.1509066,13.7166482 14.1509066,14.026647 L14.1509066,17.3204152 C14.1509066,17.6304179 13.9215915,17.9016679 13.5776189,17.9016679 Z" id="Fill-16" fill="#FF9D8A"/><g id="Group-74" transform="translate(2.218714, 12.351945)"><polygon id="Fill-36" fill="#000000" points="0.147390939 1.22707908 5.92207621 1.22707908 5.92207621 2.72171135 0.147390939 2.72171135"/><polygon id="Fill-37" fill="#000000" points="7.59859738 0.0390354988 13.3732714 0.0390354988 13.3732714 1.53366776 7.59859738 1.53366776"/><polygon id="Fill-38" fill="#000000" points="15.0497927 1.22707908 20.8244891 1.22707908 20.8244891 2.72171135 15.0497927 2.72171135"/><path d="M5.9965895,6.47745523 L5.13969966,6.47745523 C3.57494657,6.47745523 2.27098442,5.17443994 2.27098442,3.52651333 L2.27098442,0.767192233 C2.27098442,0.34562801 2.60628865,0.000712872179 3.01610618,0.000712872179 L8.15743777,0.000712872179 C8.56725529,0.000712872179 8.90255953,0.34562801 8.90255953,0.767192233 L8.90255953,3.52651333 C8.86530474,5.17443994 7.59859738,6.47745523 5.9965895,6.47745523 Z" id="Fill-39" fill="#231F20"/><path d="M15.7204085,6.47745523 L14.8635373,6.47745523 C13.2987545,6.47745523 11.9948109,5.17443994 11.9948109,3.52651333 L11.9948109,0.767192233 C11.9948109,0.34562801 12.3301152,0.00071287221 12.7399141,0.00071287221 L17.8812531,0.00071287221 C18.2910967,0.00071287221 18.626386,0.34562801 18.626386,0.767192233 L18.626386,3.52651333 C18.5891275,5.17443994 17.3224127,6.47745523 15.7204085,6.47745523 Z" id="Fill-40" fill="#231F20"/><path d="M18.2165797,0.115684584 C18.1048042,0.077361958 17.9930287,0.0390354988 17.8812531,0.0390354988 L15.7576671,0.0390354988 L13.8203736,2.03188107 C13.485047,2.37679621 13.485047,2.98997739 13.8203736,3.33489253 C14.1556629,3.67980767 14.7517618,3.67980767 15.0870511,3.33489253 L18.2165797,0.115684584 Z" id="Fill-41" fill="#2D292B"/><path d="M6.14561237,4.86785125 L8.86530474,2.0702037 L8.86530474,0.767192233 C8.86530474,0.422273263 8.60451381,0.115684584 8.26920957,0.0390354987 L4.87890872,3.52651333 C4.54360449,3.87142847 4.54360449,4.48460966 4.87890872,4.8295248 C5.21421668,5.17443994 5.81030813,5.21276256 6.14561237,4.86785125 Z" id="Fill-42" fill="#2D292B"/><path d="M3.46317849,0.0390354988 L2.27098814,1.26540171 L2.27098814,3.56483596 L2.27098814,3.60315858 C2.45726951,3.56483596 2.64354717,3.48818687 2.79257375,3.33489253 L5.9965895,0.0390354988 L3.46317849,0.0390354988 Z" id="Fill-43" fill="#2D292B"/><path d="M8.12018298,0.80551486 L8.12018298,3.56483596 C8.12018298,4.75287571 7.15152879,5.7492985 5.9965895,5.7492985 L5.13969966,5.7492985 C3.9847641,5.7492985 3.01610991,4.75287954 3.01610991,3.56483596 L3.01610991,0.80551486 L8.12018298,0.80551486 L8.12018298,0.80551486 Z M8.12018298,0.0390354988 L2.97885139,0.0390354988 C2.56903387,0.0390354988 2.23372964,0.383950636 2.23372964,0.80551486 L2.23372964,3.56483596 C2.23372964,5.17443994 3.50043328,6.51577786 5.10244115,6.51577786 L5.959331,6.51577786 C7.52408408,6.51577786 8.82804623,5.21276256 8.82804623,3.56483596 L8.82804623,0.767192233 C8.86530474,0.383950636 8.53000051,0.0390354988 8.12018298,0.0390354988 L8.12018298,0.0390354988 Z" id="Fill-44" fill="#000000"/><path d="M17.8439946,0.80551486 L17.8439946,3.56483596 C17.8439946,4.75287571 16.8753478,5.7492985 15.7204085,5.7492985 L14.8635373,5.7492985 C13.7085981,5.7492985 12.7399513,4.75287954 12.7399513,3.56483596 L12.7399513,0.80551486 L17.8439946,0.80551486 L17.8439946,0.80551486 Z M17.8812531,0.0390354988 L12.7399141,0.0390354988 C12.3301152,0.0390354988 11.9948109,0.383950636 11.9948109,0.80551486 L11.9948109,3.56483596 C11.9948109,5.17443994 13.2615332,6.51577786 14.8635373,6.51577786 L15.7204085,6.51577786 C17.2851542,6.51577786 18.5891275,5.21276256 18.5891275,3.56483596 L18.5891275,0.767192233 C18.5891275,0.383950636 18.2910967,0.0390354988 17.8812531,0.0390354988 L17.8812531,0.0390354988 Z" id="Fill-45" fill="#000000"/></g></g><path d="M95.1325047,35.6144573 L118.239772,39.3148179 C119.472628,39.5122456 120.630349,38.6617973 120.825615,37.4152885 C121.02088,36.1687796 120.179746,34.9982379 118.94689,34.8008102 L95.8396233,31.1004495 C94.6067672,30.903022 93.4490461,31.7534703 93.2537808,32.9999791 C93.0585155,34.246488 93.8996486,35.4170297 95.1325047,35.6144573 Z" id="Line-Copy-12" fill="#BDBDBD" fill-rule="nonzero"/><path d="M94.4394196,43.2797502 L114.298019,46.4598744 C115.530875,46.6573019 116.688596,45.8068536 116.883861,44.5603448 C117.079127,43.313836 116.237993,42.1432942 115.005136,41.9458666 L95.1465373,38.7657425 C93.9136812,38.5683148 92.7559602,39.4187632 92.5606949,40.6652721 C92.3654305,41.9117809 93.2065635,43.0823226 94.4394196,43.2797502 Z" id="Line-Copy-14" fill="#BDBDBD" fill-rule="nonzero"/><g id="Group-79" transform="translate(72.586855, 33.764546) rotate(9.000000) translate(-72.586855, -33.764546) translate(69.086855, 31.764546)"><g id="teeth-Clipped" transform="translate(0.000000, 0.914055)"/></g><path d="M46.6887545,45.7027541 L126.104778,58.4203088 L124.935866,65.882258 C124.290294,70.0033787 120.462717,72.8150719 116.386734,72.1623505 L51.7311507,61.8085091 C47.6551675,61.1557877 44.8742701,57.285824 45.5198424,53.1647033 L46.6887545,45.7027541 Z" id="Rectangle-2-Copy-3" fill="#F3F3F3" fill-rule="nonzero"/><path d="M54.7364517,54.6917117 C54.7364517,55.7851402 55.3776007,56.7351682 56.3571341,57.3446201 L56.3571341,57.3804703 C56.3571341,58.5635241 54.9323583,58.8861751 55.9297013,58.8861751 C56.8558056,58.8861751 57.7106711,58.240873 57.9065777,57.918222 C58.1737231,57.9540721 58.4408686,57.9899222 58.708014,57.9899222 C60.8986067,57.9899222 62.6795764,56.5200675 62.6795764,54.7096367 C62.6973862,52.8633558 60.9164165,51.4114261 58.708014,51.4114261 C56.5174213,51.4114261 54.7364517,52.8812808 54.7364517,54.6917117 Z" id="path-11" fill="#979797" fill-rule="nonzero" transform="translate(58.708080, 55.148801) rotate(9.000000) translate(-58.708080, -55.148801)"/><path d="M72.6626187,61.12097 C72.6261907,61.12097 72.5893813,61.1143331 72.5539069,61.100867 C72.5215795,61.0885551 72.4923035,61.0713377 72.4667468,61.049792 C70.6022451,59.5817936 69.7129068,58.786716 69.1856549,58.1175465 C68.593748,57.3661376 68.4748327,56.7726669 68.4732115,56.0053871 C68.4727348,55.9977884 68.472544,55.9904783 68.472544,55.9828795 C68.472544,54.6944614 69.5116947,53.6462209 70.7890576,53.6462209 C71.5363078,53.6462209 72.2330166,54.0177894 72.6632861,54.6112601 C73.0935558,54.0177894 73.7905506,53.6462209 74.53761,53.6462209 C75.814973,53.6462209 76.8544098,54.6944614 76.8544098,55.9828795 C76.8544098,55.9901897 76.854219,55.9974999 76.8535506,56.0050987 C76.8520248,56.7720898 76.7329187,57.365849 76.1403444,58.1174503 C75.6131877,58.7868121 74.7227051,59.5821774 72.8564869,61.0516185 C72.833791,61.0702787 72.8080435,61.0858619 72.7802933,61.0974995 C72.7431034,61.1129864 72.7030518,61.12097 72.6626187,61.12097 L72.6626187,61.12097 Z" id="path-13" fill="#FF9797" fill-rule="nonzero" transform="translate(72.663477, 57.383595) rotate(9.000000) translate(-72.663477, -57.383595)"/><g id="Group-8" transform="translate(80.150615, 45.641312) rotate(9.000000) translate(-80.150615, -45.641312) translate(68.650615, 40.141312)" fill-rule="nonzero"><path d="M14.9005941,6.65073645 L14.9005941,3.12791128 C14.9005941,2.46443449 14.3706534,1.89573828 13.6848788,1.89573828 C13.0302773,1.89573828 12.4691947,2.43283885 12.4691947,3.12791128 L12.4691947,6.65073645 L12.4691947,7.17211408 C12.4691947,7.83559152 13.0302773,8.40428804 13.6848788,8.40428804 C14.3394803,8.40428804 14.9005941,7.86718779 14.9005941,7.17211408 L14.9005941,6.65073645 Z" id="Combined-Shape" fill="#FF9D8A"/><path d="M21.1966646,6.31902648 L1.09102336,6.31902648 C0.498767786,6.31902648 3.69482223e-13,5.81351839 3.69482223e-13,5.21322971 L3.69482223e-13,5.21322971 C3.69482223e-13,4.61293786 0.498767786,4.10743294 1.09102336,4.10743294 L21.1966646,4.10743294 C21.7889201,4.10743294 22.2876879,4.61293786 22.2876879,5.21322971 L22.2876879,5.21322971 C22.2876879,5.81351839 21.8200931,6.31902648 21.1966646,6.31902648 Z" id="Fill-27" fill="#D1D1D1"/><path d="M7.4815168,5.33099626 L7.4815168,10.968661 L7.51268978,10.968661 L13.6223146,10.968661 L13.6223146,4.21669091 C13.6223146,4.12561118 13.6115427,4.03705663 13.5913287,3.95248201 L13.5913287,2.93834694 C13.5913287,2.36965073 13.1237651,1.89573828 12.5626825,1.89573828 C12.0783199,1.89573828 11.6636268,2.24890976 11.559276,2.71134928 C11.5151941,2.18144269 11.0659402,1.75425963 10.5322289,1.75425963 C10.0069967,1.75425963 9.56353228,2.1679772 9.50755742,2.68617251 C9.39408674,2.23615233 8.98572806,1.89573828 8.51019418,1.89573828 C7.9491116,1.89573828 7.4815168,2.36965073 7.4815168,2.93834694 L7.4815168,5.33099626 Z" id="Combined-Shape" fill="#FFB5A1"/><path d="M4.64474384,10.2997061 L4.64474384,10.2997061 C3.95896931,10.2997061 3.42902853,9.73100973 3.42902853,9.06753197 L3.42902853,1.23217301 C3.42902853,0.537103728 3.99011112,1.46016532e-12 4.64474384,1.46016532e-12 L4.64474384,1.46016532e-12 C5.33048719,1.46016532e-12 5.86042797,0.568696206 5.86042797,1.23217301 L5.86042797,9.06753451 C5.86042797,9.73100973 5.29934538,10.2997061 4.64474384,10.2997061 Z" id="Fill-30" fill="#3F3F3F"/><path d="M2.23488929,8.70661494 L2.23488929,8.70661494 C1.54911476,8.70661494 1.01920516,8.13791842 1.01920516,7.47444099 L1.01920516,2.79850079 C1.01920516,2.10343151 1.58028775,1.56632778 2.23488929,1.56632778 L2.23488929,1.56632778 C2.92066383,1.56632778 3.45057343,2.13502399 3.45057343,2.79850079 L3.45057343,7.44284725 C3.45057343,8.13791842 2.88949084,8.70661494 2.23488929,8.70661494 Z" id="Fill-31" fill="#3F3F3F"/><path d="M16.8034478,-3.69482223e-13 L16.8034478,-3.69482223e-13 C17.4892223,-3.69482223e-13 18.0191319,0.568696206 18.0191319,1.23217301 L18.0191319,9.06753451 C18.0191319,9.76260569 17.4580182,10.2997085 16.8034478,10.2997085 L16.8034478,10.2997085 C16.1176733,10.2997085 15.5877325,9.73101193 15.5877325,9.06753451 L15.5877325,1.23217301 C15.5565595,0.537100569 16.1176733,-3.69482223e-13 16.8034478,-3.69482223e-13 Z" id="Fill-32" fill="#3F3F3F"/><path d="M19.1697696,1.60019731 L19.1697696,1.60019731 C19.8555441,1.60019731 20.3854537,2.16889351 20.3854537,2.83237031 L20.3854537,7.47671677 C20.3854537,8.17178795 19.8243712,8.70889073 19.1697696,8.70889073 L19.1697696,8.70889073 C18.4839951,8.70889073 17.9540854,8.14019452 17.9540854,7.47671677 L17.9540854,2.83237031 C17.9229125,2.16889035 18.4839951,1.60019731 19.1697696,1.60019731 Z" id="Fill-33" fill="#3F3F3F"/></g></g></g><g id="teeth" transform="translate(80.000000, 73.000000)"><mask id="mask-2" fill="white"><use xlink:href="#path-1"/></mask><use id="Mask" fill="#933634" fill-rule="nonzero" transform="translate(3.528995, 2.453368) scale(-1, 1) rotate(-188.000000) translate(-3.528995, -2.453368)" xlink:href="#path-1"/><polygon fill="#FFFFFF" fill-rule="nonzero" mask="url(#mask-2)" transform="translate(3.393676, 3.897171) scale(-1, 1) rotate(-9.000000) translate(-3.393676, -3.897171)" points="-0.0985666167 3.04532694 6.88591892 3.04532694 6.88591892 4.74901425 -0.0985666167 4.74901425"/></g></g></g></svg>