<?xml version="1.0" encoding="utf-8"?><svg version="1.1" id="Layer_1" xmlns="http://www.w3.org/2000/svg" xmlns:xlink="http://www.w3.org/1999/xlink" x="0px" y="0px" width="41px" height="36px" viewBox="0 0 41 36" style="enable-background:new 0 0 41 36;" xml:space="preserve"><style type="text/css">.st0{fill:#FF82BD;} .st1{fill:#9F3165;} .st2{fill:#F5117C;}</style><path id="Fill-1" class="st0" d="M20.4,35.5c-0.2,0-0.4,0-0.5-0.1c-0.2-0.1-0.3-0.1-0.4-0.2c-9-6.9-13.3-10.7-15.8-13.9	c-2.9-3.6-3.4-6.4-3.4-10c0,0,0-0.1,0-0.1c0-6.1,5-11.1,11.2-11.1c3.6,0,7,1.8,9,4.6c2.1-2.8,5.4-4.6,9-4.6c6.2,0,11.2,5,11.2,11.1	c0,0,0,0.1,0,0.1c0,3.6-0.6,6.4-3.4,10c-2.5,3.2-6.8,6.9-15.8,13.9c-0.1,0.1-0.2,0.2-0.4,0.2C20.8,35.4,20.6,35.5,20.4,35.5z"/><path id="Fill-3" class="st1" d="M9.2,14c0-1.7,1.4-3.1,3.2-3.1s3.2,1.4,3.2,3.1"/><path id="Fill-4" class="st1" d="M25.5,14c0-1.7,1.4-3.1,3.2-3.1s3.2,1.4,3.2,3.1"/><path id="Fill-5" class="st1" d="M28.1,18.2c0,4-3.2,7.2-7.2,7.2s-7.2-3.2-7.2-7.2"/><path id="Fill-6" class="st2" d="M25.7,23.5c-1.3-1.2-3-1.9-4.9-1.9c-1.9,0-3.6,0.7-4.9,1.9c1.3,1.2,3,1.9,4.9,1.9	S24.4,24.7,25.7,23.5z"/></svg>