<?xml version="1.0" encoding="UTF-8" standalone="no"?><svg width="343px" height="160px" viewBox="0 0 343 160" version="1.1" xmlns="http://www.w3.org/2000/svg" xmlns:xlink="http://www.w3.org/1999/xlink"><title>clubs_banner_5</title><desc>Created with Sketch.</desc><defs/><g id="Page-1" stroke="none" stroke-width="1" fill="none" fill-rule="evenodd"><g id="clubs_banner_5"><rect id="Rectangle" fill="#767676" x="0" y="0" width="343" height="160"/><g id="Sparkles" transform="translate(96.000000, 20.000000)" fill="#FFFFFF" opacity="0.5"><path d="M102.95628,0.763946065 C103.379817,0.342030304 104.065758,0.341286447 104.48854,0.762450673 L107.721535,3.98307422 C108.144242,4.4041641 108.143645,5.0874807 107.720034,5.50947096 L104.480698,8.73641111 C104.057162,9.15832687 103.37122,9.15907072 102.948438,8.7379065 L99.7154434,5.51728295 C99.2927361,5.09619307 99.2933334,4.41287647 99.7169446,3.99088621 L102.95628,0.763946065 Z" id="Rectangle-Copy-12"/><path d="M9.69342629,40.3996535 C10.1129989,39.9816864 10.8009964,39.9893927 11.2113459,40.3981721 L16.9072649,46.0722955 C17.3260162,46.4894444 17.3266249,47.1651701 16.9057779,47.5844067 L11.1986874,53.2696588 C10.7791149,53.6876259 10.0911174,53.6799195 9.68076782,53.2711402 L3.98484879,47.5970168 C3.56609751,47.1798679 3.56548883,46.5041422 3.98633587,46.0849055 L9.69342629,40.3996535 Z" id="Rectangle-Copy-13"/><path d="M144.086822,70.4038543 C144.508724,69.9835672 145.185039,69.9758742 145.613168,70.4023646 L150.306123,75.0773621 C150.727198,75.4968265 150.733596,76.1705397 150.304627,76.5978667 L145.602468,81.2820332 C145.180566,81.7023203 144.504251,81.7100133 144.076123,81.2835228 L139.383168,76.6085254 C138.962092,76.189061 138.955694,75.5153477 139.384663,75.0880207 L144.086822,70.4038543 Z" id="Rectangle-Copy-15"/><path d="M2.5420166,64.6665552 C2.75315717,64.4562226 3.0981515,64.4588802 3.30587591,64.6658097 L5.46136113,66.8130469 C5.67208841,67.0229679 5.66874461,67.3666479 5.46061279,67.5739833 L3.30090002,69.7254319 C3.08975944,69.9357645 2.74476512,69.9331069 2.53704071,69.7261774 L0.381555483,67.5789402 C0.170828208,67.3690192 0.174172004,67.0253392 0.382303826,66.8180038 L2.5420166,64.6665552 Z" id="Rectangle-Copy-16"/><path d="M58.4703137,113.95227 C58.6814542,113.741937 59.0264486,113.744594 59.234173,113.951524 L61.3896582,116.098761 C61.6003855,116.308682 61.5970417,116.652362 61.3889098,116.859698 L59.2291971,119.011146 C59.0180565,119.221479 58.6730622,119.218821 58.4653378,119.011892 L56.3098525,116.864654 C56.0991253,116.654734 56.1024691,116.311053 56.3106009,116.103718 L58.4703137,113.95227 Z" id="Rectangle-Copy-18"/><path d="M137.936127,53.9522695 C138.147267,53.7419369 138.492262,53.7445945 138.699986,53.951524 L140.855471,56.0987612 C141.066199,56.3086821 141.062855,56.6523622 140.854723,56.8596976 L138.69501,59.0111462 C138.48387,59.2214788 138.138875,59.2188212 137.931151,59.0118916 L135.775666,56.8646544 C135.564938,56.6547335 135.568282,56.3110535 135.776414,56.1037181 L137.936127,53.9522695 Z" id="Rectangle-Copy-17"/></g><g id="Group" transform="translate(127.000000, 35.000000)"><path d="M0,0 L90,0 L90,45 C90,69.8528137 69.8582782,90 45,90 C20.1471863,90 0,69.8582782 0,45 L0,0 Z" id="Combined-Shape" fill="#6F6F6F"/><path d="M7.26923077,45 C7.26923077,65.8371606 24.1624408,82.7307692 45,82.7307692 C65.8371606,82.7307692 82.7307692,65.8375592 82.7307692,45 L82.7307692,7.26923077 L7.26923077,7.26923077 L7.26923077,45 Z M0,0 L90,0 L90,45 C90,69.8528137 69.8512766,90 45,90 C20.1471863,90 0,69.8512766 0,45 L0,0 Z" id="Mask" fill-opacity="0.25" fill="#000000" fill-rule="nonzero"/><rect id="Rectangle-27-Copy" fill="#FFFFFF" transform="translate(45.088521, 42.492367) rotate(-315.000000) translate(-45.088521, -42.492367)" x="29.7279439" y="27.1317901" width="30.7211538" height="30.7211538"/></g></g></g></svg>