<?xml version="1.0" encoding="UTF-8"?><svg width="32px" height="31px" viewBox="0 0 32 31" version="1.1" xmlns="http://www.w3.org/2000/svg" xmlns:xlink="http://www.w3.org/1999/xlink"><title>Group 18</title><desc>Created with Sketch.</desc><defs/><g id="Page-1" stroke="none" stroke-width="1" fill="none" fill-rule="evenodd"><g id="User-Posts-No-Fab-2" transform="translate(-313.000000, -62.000000)"><g id="Group-18" transform="translate(313.000000, 62.000000)"><path d="M3.04878049,8.43902439 C2.71202149,8.43902439 2.43902439,8.71202149 2.43902439,9.04878049 L2.43902439,27.9512195 C2.43902439,28.2879785 2.71202149,28.5609756 3.04878049,28.5609756 L21.9512195,28.5609756 C22.2879785,28.5609756 22.5609756,28.2879785 22.5609756,27.9512195 L22.5609756,9.04878049 C22.5609756,8.71202149 22.2879785,8.43902439 21.9512195,8.43902439 L3.04878049,8.43902439 Z M3.04878049,6 L21.9512195,6 C23.6350145,6 25,7.36498552 25,9.04878049 L25,27.9512195 C25,29.6350145 23.6350145,31 21.9512195,31 L3.04878049,31 C1.36498552,31 2.06205412e-16,29.6350145 0,27.9512195 L0,9.04878049 C-2.06205412e-16,7.36498552 1.36498552,6 3.04878049,6 Z" id="Rectangle-5" fill="#00AFF9" fill-rule="nonzero"/><rect id="Rectangle-8" fill="#FFFFFF" transform="translate(20.500000, 11.000000) rotate(-45.000000) translate(-20.500000, -11.000000)" x="9" y="7" width="23" height="8"/><path d="M11.6682759,17.996179 L11.2165925,19.5752913 C11.1944854,19.6415114 11.1944854,19.7131044 11.2165925,19.7793244 C11.2730208,19.9483509 11.4559973,20.0396996 11.6252821,19.9833575 L13.5973646,19.4057391 L13.5973646,19.4057391 C13.802439,19.3456733 13.9925327,19.2430148 14.1552257,19.1044709 L14.1552257,19.1044709 C14.2251072,19.0381768 14.2658811,18.9973811 14.2775475,18.9820836 L27.7741635,5.47824231 C28.3419618,4.9113101 28.3419618,3.99213137 27.7741635,3.42519916 C27.2063651,2.85826695 26.2857821,2.85826695 25.7179838,3.42519916 L12.2341641,16.9162374 C12.2220237,16.9307655 12.1999265,16.9590275 12.1678727,17.0010233 L12.1678702,17.0010214 C11.9406958,17.2986572 11.771246,17.6361896 11.6682759,17.996179 Z" id="Combined-Shape" fill="#00AFF9"/></g></g></g></svg>