<?xml version="1.0" encoding="utf-8"?><svg version="1.1" id="Layer_1" xmlns="http://www.w3.org/2000/svg" xmlns:xlink="http://www.w3.org/1999/xlink" x="0px" y="0px" width="343px" height="130px" viewBox="0 0 343 130" style="enable-background:new 0 0 343 130;" xml:space="preserve"><style type="text/css">.st0{fill:#1CB0F6;} .st1{fill:#FFAA00;} .st2{fill:#FFCE00;} .st3{fill:#FFDE00;} .st4{fill:#7F1717;} .st5{fill:#CC2B2B;}</style><polygon id="Blue" class="st0" points="0,0 343,0 343,130 0,130"/><image style="overflow:visible;enable-background:new ;" width="77" height="109" id="Image-4" xlink:href="CCEA87AD8680D332.png" transform="matrix(1.026 0 0 1.0183 52 0)"/><path id="Clip-6" class="st1" d="M123.4,75.6c0.1,17-13.5,30.9-30.4,31C76.1,106.8,62.3,93,62.2,76c-0.1-17,13.5-30.9,30.4-31	C109.5,44.9,123.3,58.6,123.4,75.6z"/><path id="Clip-9" class="st2" d="M123.4,72c0,17-13.7,30.8-30.6,30.8C75.9,102.8,62.2,89,62.2,72s13.7-30.8,30.6-30.8	C109.7,41.1,123.4,55,123.4,72z"/><path id="Clip-12" class="st3" d="M113.3,94.9c-3.7,3.4-8.2,5.8-13.2,7L63,64.8c1.2-5,3.6-9.6,6.9-13.3L113.3,94.9z"/><path id="Clip-15" class="st3" d="M122,81.4c-0.9,2.8-2.2,5.4-3.8,7.8L75.6,46.4c2.4-1.6,5-2.9,7.8-3.8L122,81.4z"/><polygon id="Clip-18" class="st4" points="54,0 78.5,0 103.3,37 78.8,37"/><polygon id="Clip-21" class="st5" points="128.1,0 103.6,0 78.8,37 103.3,37"/></svg>