<?xml version="1.0" encoding="utf-8"?><svg version="1.1" id="Layer_1" xmlns="http://www.w3.org/2000/svg" xmlns:xlink="http://www.w3.org/1999/xlink" x="0px" y="0px" width="22px" height="22px" viewBox="0 0 22 22" style="enable-background:new 0 0 22 22;" xml:space="preserve"><style type="text/css">.st0{fill:#969696;}</style><path id="Oval-6" class="st0" d="M11,20c5,0,9-4,9-9s-4-9-9-9s-9,4-9,9S6,20,11,20z M11,22C4.9,22,0,17.1,0,11S4.9,0,11,0	s11,4.9,11,11S17.1,22,11,22z"/><ellipse id="Oval-7" class="st0" cx="7.2" cy="8.2" rx="1.7" ry="1.7"/><ellipse id="Oval-7-Copy" class="st0" cx="14.8" cy="8.2" rx="1.7" ry="1.7"/><path id="Oval-8" class="st0" d="M11,16.8c2.5,0,4.5-1.8,4.7-4.2c0,0,0-0.1,0-0.1l-9.5,0c0,0,0,0.1,0,0.1C6.5,15,8.5,16.8,11,16.8z"/></svg>