<?xml version="1.0" encoding="utf-8"?><svg version="1.1" id="Layer_1" xmlns="http://www.w3.org/2000/svg" xmlns:xlink="http://www.w3.org/1999/xlink" x="0px" y="0px" width="39px" height="36px" viewBox="0 0 39 36" style="enable-background:new 0 0 39 36;" xml:space="preserve"><style type="text/css">.st0{fill:#E2AC1F;} .st1{fill:#FEC634;} .st2{fill:#1CB0F6;} .st3{fill:#4C4C4C;}</style><ellipse id="Oval-Copy-69" class="st0" cx="3.8" cy="17.4" rx="3.3" ry="3.3"/><ellipse id="Oval-Copy-70" class="st0" cx="35.3" cy="17.4" rx="3.3" ry="3.3"/><path id="Shape-Copy-133" class="st1" d="M19.5,35.3L19.5,35.3c-8.7,0-15.7-7-15.7-15.7v-3.8c0-8.7,7-15.7,15.7-15.8l0,0	c8.7,0.1,15.7,7.1,15.7,15.8v3.8C35.2,28.3,28.2,35.3,19.5,35.3z"/><path id="Combined-Shape" class="st2" d="M30.8,30.5c-1.5,1.5-3.3,2.8-5.3,3.6V17.7v-0.9l4,0.9l1.3,1.3V30.5z"/><path id="Combined-Shape_1_" class="st2" d="M13.2,34c-2-0.9-3.8-2.2-5.3-3.8V19.5l1.3-1.3l1.8-1.3h2.2C13.2,16.8,13.2,34,13.2,34z"/><path id="Rectangle-3" class="st3" d="M16.2,24.3c0-1.7,1.4-3.1,3.1-3.1c1.7,0,3.1,1.4,3.1,3.1v4.9h-6.2V24.3z"/><path id="Oval-17-Copy" class="st3" d="M25.7,17.7c0.2,0,0.4,0,0.6,0c1.6,0,3,0.9,3.6,2.4c0.2,0.4,0.7,0.7,1.2,0.5	c0.4-0.2,0.7-0.7,0.5-1.2c-0.9-2.1-3-3.4-5.3-3.4c-0.3,0-0.6,0-0.9,0.1c-0.5,0.1-0.8,0.5-0.7,1S25.2,17.8,25.7,17.7z"/><path id="Oval-17" class="st3" d="M13.3,16c-0.3,0-0.6-0.1-0.9-0.1c-2.3,0-4.4,1.4-5.3,3.4c-0.2,0.4,0,1,0.5,1.2s1,0,1.2-0.5	c0.6-1.4,2.1-2.4,3.6-2.4c0.2,0,0.4,0,0.6,0c0.5,0.1,0.9-0.3,1-0.7C14.1,16.5,13.7,16.1,13.3,16z"/></svg>