<?xml version="1.0" encoding="utf-8"?><svg version="1.1" id="Layer_1" xmlns="http://www.w3.org/2000/svg" xmlns:xlink="http://www.w3.org/1999/xlink" x="0px" y="0px" width="38px" height="36px" viewBox="0 0 38 36" style="enable-background:new 0 0 38 36;" xml:space="preserve"><style type="text/css">.st0{fill:#E2AC1F;} .st1{fill:#FEC634;} .st2{fill:#644800;} .st3{fill:#4C4C4C;} .st4{fill:#FF6262;} .st5{fill:#A8382F;}</style><ellipse id="Oval-Copy-67" transform="matrix(0.309 -0.9511 0.9511 0.309 -9.4155 12.981)" class="st0" cx="4.2" cy="13" rx="3.3" ry="3.3"/><ellipse id="Oval-Copy-68" transform="matrix(0.309 -0.9511 0.9511 0.309 2.0254 48.1925)" class="st0" cx="34.2" cy="22.7" rx="3.3" ry="3.3"/><path id="Shape-Copy-131" class="st1" d="M13.6,34.6L13.6,34.6C5.3,31.9,0.8,23,3.5,14.8l1.2-3.6C7.4,2.9,16.2-1.6,24.5,1l0,0	c8.2,2.7,12.7,11.6,10.1,19.9l-1.2,3.6C30.7,32.8,21.8,37.3,13.6,34.6z"/><g id="Group-3" transform="translate(8.564168, 9.123120)"><path id="Path-5-Copy-9" class="st2" d="M1.5,3C1,3.1,0.7,3.5,0.8,4c0.1,0.5,0.6,0.8,1,0.7L9,3.2L3.9-2.3C3.6-2.6,3-2.7,2.7-2.3 s-0.4,0.9,0,1.3l3,3.2L1.5,3z"/><path id="Path-5-Copy-10" class="st2" d="M22.6,5.4c0.5-0.1,0.8-0.6,0.7-1c-0.1-0.5-0.6-0.8-1-0.7L15,5.1l4.9,5.4 c0.3,0.4,0.9,0.4,1.2,0.1c0.4-0.3,0.4-0.9,0.1-1.2l-2.8-3.1L22.6,5.4z"/></g><g id="Group-8-Copy" transform="translate(10.596981, 18.786677)"><path id="Shape" class="st3" d="M16.7,3c-1.5,4.7-6.6,7.3-11.3,5.7S-1.9,2.2-0.3-2.5"/><path id="Shape_1_" class="st4" d="M2.2,4.3C1.8,4.4,1.6,4.8,1.3,5.5L0.7,7.4c-0.8,2.6,0.6,5.4,3.2,6.2s5.4-0.6,6.2-3.2l0,0 l0.6-1.9c0.2-0.7,0.2-1.2,0-1.5L2.2,4.3z"/><path id="Shape_2_" class="st5" d="M6.1,5.5l1.1,0.4l0,0L6,9.5C5.9,9.8,5.6,10,5.2,9.9l0,0l0,0C4.9,9.8,4.8,9.4,4.9,9.1l0,0 L6.1,5.5L6.1,5.5z"/></g></svg>