<?xml version="1.0" encoding="utf-8"?><svg version="1.1" id="Layer_1" xmlns="http://www.w3.org/2000/svg" xmlns:xlink="http://www.w3.org/1999/xlink" x="0px" y="0px" width="24px" height="23px" viewBox="0 0 24 23" style="enable-background:new 0 0 24 23;" xml:space="preserve"><style type="text/css">.st0{fill:#969696;}</style><g id="Page-1"><path id="Clip-2" class="st0" d="M7.1,18.4l0.7,0.4c1.4,0.8,2.9,1.2,4.6,1.2c5,0,9-4,9-9s-4-9-9-9s-9,4-9,9c0,1.3,0.3,2.6,0.8,3.8 l0.4,0.8l-1.4,3.7L7.1,18.4z M6.8,20.5L0,22l2.4-6.3c-0.7-1.4-1-3-1-4.6c0-6.1,4.9-11,11-11s11,4.9,11,11s-4.9,11-11,11 C10.3,22,8.4,21.4,6.8,20.5z"/></g></svg>