<?xml version="1.0" encoding="UTF-8" standalone="no"?><svg width="189px" height="223px" viewBox="0 0 189 223" version="1.1" xmlns="http://www.w3.org/2000/svg" xmlns:xlink="http://www.w3.org/1999/xlink" xmlns:sketch="http://www.bohemiancoding.com/sketch/ns"><title>Artboard 62</title><desc>Created with Sketch.</desc><defs/><g id="Page-1" stroke="none" stroke-width="1" fill="none" fill-rule="evenodd" sketch:type="MSPage"><g id="Artboard-62" sketch:type="MSArtboardGroup"><g id="Imported-Layers-2" sketch:type="MSLayerGroup" transform="translate(2.000000, 1.000000)"><path d="M69.8972286,202.424312 C78.2655714,203.2605 83.953,205.952875 83.2056,213.503 C82.4592571,221.053125 72.7853429,221.08925 67.3653714,220.547375 C61.9454,220.0055 55.4904857,217.007125 56.0296286,211.558625 C56.5687714,206.111187 62.3376,201.668875 69.8972286,202.424312" id="Fill-1" fill="#D98500" sketch:type="MSShapeGroup"/><path d="M116.280429,201.442563 C107.913143,202.27875 102.225714,204.971125 102.972057,212.520188 C103.719457,220.070312 113.392314,220.1075 118.813343,219.565625 C124.233314,219.02375 130.688229,216.024313 130.149086,210.576875 C129.609943,205.129438 123.841114,200.687125 116.280429,201.442563" id="Fill-2" fill="#D98500" sketch:type="MSShapeGroup"/><path d="M176.081943,144.617938 C172.285743,115.00075 168.0836,91.13275 165.873114,79.3230625 C165.496771,75.584125 165.239886,71.780375 165.198657,68.58225 C165.188086,67.7970625 165.156371,67.1595625 165.110914,66.6198125 C165.364629,56.6344375 165.416429,47.03475 165.416429,38.18625 C165.416429,28.4463125 165.843514,0.085 148.2294,0.085 C133.298314,0.085 120.865257,20.912125 92.8911429,20.912125 C63.9116857,20.912125 54.1299429,0.085 38.0402286,0.085 C27.0692,0.085 20.2432286,10.1309375 20.2432286,38.3084375 C20.2432286,49.1013125 20.4208286,59.3523125 20.7749714,69.088 C20.7654571,69.3504375 20.7548857,69.608625 20.7517143,69.9093125 C20.6639714,76.721 19.6068286,86.2760625 18.463,92.1145 L18.4651143,92.120875 C16.1288286,102.842562 12.7607714,120.450313 9.66228571,144.617938 C4.2106,187.1445 7.23297143,195.679563 12.8337143,195.959 C18.3868857,196.236312 34.8973429,193.193313 40.9251714,177.881625 C52.7302857,201.164187 69.9056857,212.271563 93.2569143,212.271563 C117.932743,212.271563 134.177857,198.6025 144.876143,178.01975 C150.949429,193.210313 167.375314,196.23525 172.911571,195.959 C178.511257,195.679563 181.533629,187.1445 176.081943,144.617938" id="Fill-3" fill="#78C800" sketch:type="MSShapeGroup"/><path d="M140.123229,23.94875 C133.798343,23.94875 128.8858,28.61525 127.607714,28.61525 C127.1024,28.61525 127.001971,28.209375 127.001971,27.6675 C127.001971,25.9770625 128.919629,25.40225 128.919629,24.6245 C128.919629,24.1516875 128.111971,24.0496875 127.877286,24.0496875 C121.619,24.0496875 112.097314,36.25675 110.651143,36.25675 C110.145829,36.25675 110.0454,35.581 110.0454,35.141125 C110.0454,33.0788125 111.861571,31.8271875 111.861571,31.252375 C111.861571,30.6775625 111.424971,30.474625 111.087743,30.474625 C107.992429,30.474625 101.208743,37.4584375 92.9366,37.50625 C84.6655143,37.4584375 77.8818286,30.474625 74.7854571,30.474625 C74.4492857,30.474625 74.0116286,30.6775625 74.0116286,31.252375 C74.0116286,31.8271875 75.8288571,33.0788125 75.8288571,35.141125 C75.8288571,35.581 75.7273714,36.25675 75.2231143,36.25675 C73.7758857,36.25675 64.2552571,24.0496875 57.9969714,24.0496875 C57.7622857,24.0496875 56.9546286,24.1516875 56.9546286,24.6245 C56.9546286,25.40225 58.8722857,25.9770625 58.8722857,27.6675 C58.8722857,28.209375 58.7708,28.61525 58.2665429,28.61525 C56.9874,28.61525 52.0759143,23.94875 45.7510286,23.94875 C38.0793429,23.94875 26.64,33.28175 26.64,64.9325625 C26.64,95.771625 42.9918857,102.571625 55.9101714,102.571625 C68.8295143,102.571625 79.7984286,92.9985 79.7984286,92.9985 L85.0471429,84.815125 L92.9366,80.866875 L100.827114,84.815125 L106.074771,92.9985 C106.074771,92.9985 117.044743,102.571625 129.963029,102.571625 C142.882371,102.571625 159.2332,95.771625 159.2332,64.9325625 C159.2332,33.28175 147.794914,23.94875 140.123229,23.94875" id="Fill-4" fill="#8EE000" sketch:type="MSShapeGroup"/><path d="M74.8161143,68.210375 C74.8161143,81.640375 65.9075714,92.5278125 54.9175143,92.5278125 C43.9274571,92.5278125 35.0178571,81.640375 35.0178571,68.210375 C35.0178571,54.780375 43.9274571,43.894 54.9175143,43.894 C65.9075714,43.894 74.8161143,54.780375 74.8161143,68.210375" id="Fill-5" fill="#FFFFFF" sketch:type="MSShapeGroup"/><path d="M65.4392571,68.210375 C65.4392571,75.588375 60.5446857,81.568125 54.5084,81.568125 C48.4710571,81.568125 43.5764857,75.588375 43.5764857,68.210375 C43.5764857,60.8334375 48.4710571,54.852625 54.5084,54.852625 C60.5446857,54.852625 65.4392571,60.8334375 65.4392571,68.210375" id="Fill-6" fill="#3F3F3F" sketch:type="MSShapeGroup"/><path d="M51.4860286,58.6744375 C51.4860286,61.7450625 49.1941429,64.2345 46.3662857,64.2345 C43.5384286,64.2345 41.2465429,61.7450625 41.2465429,58.6744375 C41.2465429,55.6038125 43.5384286,53.114375 46.3662857,53.114375 C49.1941429,53.114375 51.4860286,55.6038125 51.4860286,58.6744375" id="Fill-7" fill="#FFFFFF" sketch:type="MSShapeGroup"/><path d="M150.683029,68.210375 C150.683029,81.640375 141.774486,92.5278125 130.784429,92.5278125 C119.794371,92.5278125 110.885829,81.640375 110.885829,68.210375 C110.885829,54.780375 119.794371,43.894 130.784429,43.894 C141.774486,43.894 150.683029,54.780375 150.683029,68.210375" id="Fill-8" fill="#FFFFFF" sketch:type="MSShapeGroup"/><path d="M141.306171,68.210375 C141.306171,75.588375 136.4116,81.568125 130.375314,81.568125 C124.337971,81.568125 119.444457,75.588375 119.444457,68.210375 C119.444457,60.8334375 124.337971,54.852625 130.375314,54.852625 C136.4116,54.852625 141.306171,60.8334375 141.306171,68.210375" id="Fill-9" fill="#3F3F3F" sketch:type="MSShapeGroup"/><path d="M127.352943,58.6744375 C127.352943,61.7450625 125.061057,64.2345 122.2332,64.2345 C119.4064,64.2345 117.113457,61.7450625 117.113457,58.6744375 C117.113457,55.6038125 119.4064,53.114375 122.2332,53.114375 C125.061057,53.114375 127.352943,55.6038125 127.352943,58.6744375" id="Fill-10" fill="#FFFFFF" sketch:type="MSShapeGroup"/><path d="M161.103286,67.7396875 C161.256571,68.278375 161.425714,68.8319375 161.611771,69.39825 C161.580057,69.294125 161.545171,69.1910625 161.514514,69.0869375 C161.376029,68.6194375 161.2386,68.17425 161.103286,67.7396875" id="Fill-11" fill="#71B200" sketch:type="MSShapeGroup"/><path d="M79.1895143,97.4344375 C80.4052286,106.389187 84.5513429,125.34525 91.8255429,125.34525 C99.9380571,125.34525 104.360086,109.493812 105.374943,98.5840625 C101.926543,103.843437 95.3289143,109.996375 92.5951429,109.996375 C89.7260571,109.996375 82.3228857,102.848937 79.1895143,97.4344375" id="Fill-12" fill="#74BB00" sketch:type="MSShapeGroup"/><path d="M78.6345143,92.4428125 C78.6345143,92.4428125 79.9866,115.473562 92.7167143,115.473562 C105.055686,115.473562 106.549429,92.4831875 106.549429,92.4831875" id="Fill-13" fill="#F49000" sketch:type="MSShapeGroup"/><path d="M92.5951429,79.7523125 C104.882314,79.7523125 107.557943,91.7351875 107.557943,93.3246875 C107.557943,98.215375 96.3786571,109.996375 92.5951429,109.996375 C88.9120571,109.996375 77.7539143,98.215375 77.7539143,93.446875 C77.7539143,90.756625 81.4031714,79.7523125 92.5951429,79.7523125" id="Fill-14" fill="#FFC200" sketch:type="MSShapeGroup"/><path d="M92.6564571,82.3001875 C89.3772,82.3001875 86.7195429,83.6028125 86.7195429,85.2093125 C86.7195429,86.816875 89.3772,88.1195 92.6564571,88.1195 C95.9357143,88.1195 98.5933714,86.816875 98.5933714,85.2093125 C98.5933714,83.6028125 95.9357143,82.3001875 92.6564571,82.3001875" id="Fill-15" fill="#FFE071" sketch:type="MSShapeGroup"/><path d="M141.956314,183.229187 C141.949971,183.233437 141.941514,183.237687 141.935171,183.240875 C141.922486,183.270625 141.908743,183.300375 141.896057,183.330125 C141.916143,183.296125 141.936229,183.263187 141.956314,183.229187" id="Fill-16" fill="#74BB00" sketch:type="MSShapeGroup"/><path d="M12.8094,195.957937 L12.8168,195.957937 L12.8094,195.957937 M12.7935429,195.956875 L12.7977714,195.956875 L12.7935429,195.956875 M12.7755714,195.955812 L12.7798,195.955812 L12.7755714,195.955812 M12.7565429,195.95475 L12.7618286,195.95475 L12.7565429,195.95475 M12.7406857,195.953687 L12.7417429,195.953687 L12.7406857,195.953687" id="Fill-17" fill="#AED36E" sketch:type="MSShapeGroup"/><path d="M38.1808286,183.116563 C37.4989714,183.369438 36.7092857,183.6255 35.8054286,183.865625 C33.2122571,184.59025 29.6771714,185.164 24.9855714,185.164 C24.9158,185.164 24.8449714,185.164 24.7752,185.162938 C24.6758286,185.164 24.5754,185.164 24.4739143,185.164 C24.3798286,185.164 24.2857429,185.162938 24.1927143,185.161875 C21.5519714,190.545563 17.7134857,194.119813 12.0588286,194.119813 C10.6581143,194.119813 9.61577143,193.716063 8.83242857,193.151875 C9.84622857,195.090938 11.1845714,195.84425 12.7227143,195.952625 C12.7290571,195.952625 12.7343429,195.953688 12.7406857,195.953688 L12.7417429,195.953688 C12.7470286,195.953688 12.7523143,195.95475 12.7565429,195.95475 L12.7618286,195.95475 C12.7671143,195.95475 12.7713429,195.955813 12.7755714,195.955813 L12.7798,195.955813 C12.7840286,195.955813 12.7882571,195.956875 12.7935429,195.956875 L12.7977714,195.956875 C12.802,195.956875 12.8062286,195.957938 12.8094,195.957938 L12.8168,195.957938 C12.8220857,195.957938 12.8284286,195.959 12.8337143,195.959 C13.0536,195.969625 13.2914571,195.976 13.5441143,195.976 C18.87,195.976 31.2290571,193.420688 38.1808286,183.116563" id="Fill-18" fill="#74BB00" sketch:type="MSShapeGroup"/><path d="M172.934829,195.957938 L172.928486,195.957938 L172.934829,195.957938 M172.950686,195.956875 L172.9454,195.956875 L172.950686,195.956875 M172.966543,195.955813 L172.963371,195.955813 L172.966543,195.955813 M172.983457,195.95475 L172.980286,195.95475 L172.983457,195.95475" id="Fill-19" fill="#AED36E" sketch:type="MSShapeGroup"/><path d="M132.370143,195.894187 C124.709029,199.896625 107.664714,203.56225 92.6649143,203.571812 L92.6078286,203.571812 C78.1144,203.56225 61.7128286,200.139937 53.7102571,196.299 C64.1685714,207.062125 77.2644571,212.271562 93.2569143,212.271562 C109.790629,212.271562 122.538714,206.135625 132.370143,195.894187 M147.8076,183.46825 C154.8006,193.478062 166.935543,195.976 172.201171,195.976 C172.454886,195.976 172.691686,195.969625 172.911571,195.959 C172.916857,195.959 172.922143,195.959 172.928486,195.957937 L172.934829,195.957937 C172.939057,195.957937 172.942229,195.956875 172.9454,195.956875 L172.950686,195.956875 C172.954914,195.956875 172.959143,195.956875 172.963371,195.955812 L172.966543,195.955812 C172.970771,195.955812 172.976057,195.955812 172.980286,195.95475 L172.983457,195.95475 C174.449714,195.862312 175.734143,195.18125 176.733143,193.46425 C176.017457,193.857375 175.125229,194.119812 174.000429,194.119812 C168.3352,194.119812 164.493543,190.53175 161.851743,185.131062 C161.387657,185.152312 160.913,185.164 160.430943,185.164 C160.311486,185.164 160.193086,185.162937 160.075743,185.162937 C160.023943,185.162937 159.971086,185.164 159.919286,185.164 C154.395714,185.164 150.475829,184.368187 147.8076,183.46825" id="Fill-20" fill="#74BB00" sketch:type="MSShapeGroup"/><path d="M118.203371,183.792313 L92.6363714,190.872813 L67.0693714,183.792313 L42.6113143,181.50475 C42.6113143,181.50475 45.3419143,188.7085 49.5504,193.509938 C53.7546571,198.307125 74.6469714,203.560125 92.6078286,203.571813 L92.6649143,203.571813 C110.625771,203.560125 131.517029,198.307125 135.721286,193.509938 C139.930829,188.7085 142.660371,181.50475 142.660371,181.50475 L118.203371,183.792313" id="Fill-21" fill="#D3D3D3" sketch:type="MSShapeGroup"/><path d="M4.96434286,166.069813 C4.96434286,166.069813 3.59957143,175.216875 4.62394286,176.245375 C5.64725714,177.274938 12.2448857,185.164 24.9855714,185.164 C37.7273143,185.164 41.9358,180.933125 41.9358,180.933125 L42.9601714,174.302063 L40.2295714,166.299313 C40.2295714,166.299313 20.2083429,164.354938 19.8668857,164.24125 C19.5254286,164.1265 4.96434286,166.069813 4.96434286,166.069813" id="Fill-22" fill="#D3D3D3" sketch:type="MSShapeGroup"/><path d="M180.452171,166.069813 C180.452171,166.069813 181.818,175.216875 180.793629,176.245375 C179.770314,177.274938 173.171629,185.164 160.430943,185.164 C147.690257,185.164 143.481771,180.933125 143.481771,180.933125 L142.4574,174.302063 L145.188,166.299313 C145.188,166.299313 165.209229,164.354938 165.550686,164.24125 C165.892143,164.1265 180.452171,166.069813 180.452171,166.069813" id="Fill-23" fill="#D3D3D3" sketch:type="MSShapeGroup"/><path d="M167.941943,44.2478125 C167.652286,44.0608125 167.381657,43.8504375 167.135343,43.60925 C166.550743,43.03975 166.487314,42.2460625 166.752657,41.58625 L166.819257,41.3684375 L166.834057,41.2643125 C166.746314,41.00825 166.683943,40.751125 166.6702,40.4483125 C166.663857,40.30275 166.672314,40.1614375 166.691343,40.024375 C166.358343,39.4686875 166.357286,38.745125 166.649057,38.150125 L166.674429,37.9556875 C166.7738,36.9165625 167.604714,35.96775 168.843686,36.30775 C168.723171,33.762 168.291857,30.0953125 166.841457,29.49925 C150.887057,22.038375 129.557086,18.094375 92.7854286,18.094375 C37.4144,18.094375 18.2177429,29.1560625 17.3646286,29.756375 C16.6013714,30.2929375 15.2936857,30.3545625 15.0251714,36.4905 C15.7567143,36.369375 16.5326571,36.6594375 16.9375429,37.37875 C17.2642,37.9599375 17.3456,38.5645 17.2726571,39.1648125 C17.5781714,39.69075 17.6458286,40.3548125 17.279,40.997625 C16.8487429,41.7509375 16.3455429,42.4479375 15.8286,43.14175 C15.6827143,43.33725 15.5125143,43.50725 15.3285714,43.649625 C16.1838,48.9908125 18.3985143,51.5365625 19.7537714,51.5365625 C19.7537714,51.5365625 24.1895429,39.4453125 91.7610571,39.4453125 C159.333629,39.4453125 164.395229,50.93625 164.793771,50.93625 C166.319229,50.93625 167.566657,47.99525 168.2686,44.418875 C168.159714,44.3731875 168.050829,44.3179375 167.941943,44.2478125" id="Fill-24" fill="#CF131B" sketch:type="MSShapeGroup"/><path d="M168.218914,44.669625 C168.647057,42.5818125 168.889143,40.256 168.889143,38.1596875 C168.889143,37.6858125 168.878571,36.9845625 168.837343,36.182375 C160.971143,32.489125 142.641343,23.75325 92.3393143,23.75325 C46.6432571,23.75325 22.2856286,33.016125 15.0315143,36.3640625 C14.9955714,37.1226875 14.9754857,37.9705625 14.9754857,38.9310625 C14.9754857,40.8648125 15.133,42.565875 15.3941143,44.04275 C20.4536,40.814875 39.2083714,31.8781875 91.8509143,31.8781875 C140.273343,31.8781875 163.122429,42.1036875 168.218914,44.669625" id="Fill-25" fill="#FFFFFF" sketch:type="MSShapeGroup"/><path d="M33.9163143,167.899438 L25.1568286,173.273562 C25.1568286,173.273562 24.3766571,181.435688 21.8278857,185.042875 C22.6799429,185.118313 23.5594857,185.164 24.4739143,185.164 C37.2146,185.164 41.7656,181.276313 41.7656,181.276313 L42.4474571,174.302063 L41.8512286,172.552125 L40.2866571,169.500625 L33.9163143,167.899438" id="Fill-26" fill="#C4C4C4" sketch:type="MSShapeGroup"/><path d="M17.6194,104.759312 C19.8721714,107.587687 22.1376286,110.41075 24.2963143,113.312437 C26.4486571,114.802062 31.931,112.985187 34.0537429,114.522625 C30.9298857,118.507 41.6218286,120.322812 36.2494286,117.715437 C37.3974857,118.27325 40.2570571,125.33675 41.4241429,125.852062 L42.587,126.354625 C43.0648286,126.551187 43.5416,126.74775 44.0226,126.935812 C48.9309143,128.85575 53.9756,130.44525 59.1291714,131.552375 C64.4518857,132.694562 69.8517714,135.942625 75.2432,136.682125 C76.0212571,136.789437 77.4843429,133.02925 76.9029143,132.949563 C77.3416286,133.006937 76.4145143,136.83725 76.8542857,136.8925 C77.5118286,136.976437 78.1704286,137.059312 78.8290286,137.139 C80.1451714,137.298375 81.4623714,138.482 82.7806286,138.6265 C85.4055143,138.914437 88.0325143,138.493687 90.6616286,138.730625 C96.0752571,139.21725 101.474086,136.7905 106.909914,136.885063 C109.737771,136.933937 112.571971,136.9435 115.3956,136.767125 C116.695886,136.686375 117.996171,136.59075 119.289057,136.431375 C119.463486,136.410125 121.646486,130.563187 121.753257,130.5515 C121.854743,130.532375 121.312429,129.821562 121.503771,129.788625 C122.090486,129.687687 124.041971,130.958437 124.624457,130.833062 C126.579114,130.41125 126.800057,128.161937 128.696571,127.526562 C129.075029,127.140875 131.210457,128.514687 131.689343,128.234187 C134.952743,126.327 136.516257,126.137875 140.116886,125.048812 L139.681343,124.63125 C140.504857,124.18075 141.320971,123.71325 142.1244,123.225562 L142.836914,123.546437 C144.008229,122.788875 145.190114,122.046188 146.368829,121.29925 C149.174486,119.439875 151.229571,117.135312 153.985543,115.2005 L154.749857,115.4895 C158.5376,112.627125 161.611771,105.944 165.646886,103.448187 C166.909114,101.858688 168.151257,100.250062 169.446257,98.691375 C168.570943,95.73975 169.213686,95.3944375 168.728457,93.8113125 C168.728457,93.8113125 143.475429,124.602562 93.6818857,124.602562 L91.7748,124.602562 C41.9812571,124.602562 17.7515429,94.1545 17.7515429,94.1545 C17.2208571,95.8885 17.4280571,96.205125 16.4385714,99.549875 C18.3784286,99.2895625 16.4100286,103.239937 17.6194,104.759312" id="Fill-27" fill="#D3D3D3" sketch:type="MSShapeGroup"/><path d="M148.433429,167.899438 L143.727029,169.082 L141.945743,174.302063 L142.970114,180.933125 C142.970114,180.933125 147.1786,185.164 159.919286,185.164 C160.148686,185.164 160.370686,185.1555 160.595857,185.15125 C157.986829,181.599313 157.191857,173.273562 157.191857,173.273562 L148.433429,167.899438" id="Fill-28" fill="#C4C4C4" sketch:type="MSShapeGroup"/><path d="M93.3541714,193.967875 C127.310657,193.967875 144.801086,181.448438 146.251486,180.333875 C147.701886,179.21825 145.312743,173.301188 146.251486,173.301188 C147.786457,173.301188 147.360429,174.988438 154.441171,174.988438 C177.875914,174.988438 184.587714,164.698125 184.587714,158.638688 C184.587714,152.578188 171.618686,107.302938 168.433514,96.8989375 C168.433514,96.8989375 143.862343,133.941938 93.3541714,133.941938 L91.4206571,133.941938 C40.9124857,133.941938 16.6817143,96.8989375 16.6817143,96.8989375 C13.4965429,107.302938 0.187114286,152.578188 0.187114286,158.638688 C0.187114286,164.698125 6.89891429,174.988438 30.3326,174.988438 C37.4144,174.988438 36.9873143,173.301188 38.5233429,173.301188 C39.4620857,173.301188 37.0729429,179.21825 38.5233429,180.333875 C39.9737429,181.448438 57.4641714,193.967875 91.4206571,193.967875 L93.3541714,193.967875" id="Fill-29" fill="#C6C6C6" sketch:type="MSShapeGroup"/><path d="M122.800886,158.78425 C122.614829,158.78425 122.437229,158.71625 122.298743,158.589812 C122.149686,158.454875 122.060886,158.26575 122.052429,158.064937 L121.850514,153.28475 C121.8336,152.879938 122.137,152.535687 122.537657,152.501688 L124.960629,152.304062 L124.891914,138.285438 L122.036571,138.359813 C121.638029,138.359813 121.306086,138.04425 121.288114,137.6405 L121.094657,133.20775 C121.0862,133.001625 121.161257,132.800813 121.303971,132.652062 C121.445629,132.505437 121.640143,132.422562 121.843114,132.422562 L137.381,132.542625 C137.576571,132.543688 137.762629,132.62125 137.901114,132.759375 L142.419343,137.25375 C142.564171,137.396125 142.643457,137.592688 142.641343,137.796688 L142.503914,151.198 C142.502857,151.35525 142.452114,151.509312 142.359086,151.63575 L137.951857,157.6665 C137.818657,157.848187 137.613571,157.95975 137.389457,157.9725 L122.800886,158.78425 L122.800886,158.78425 Z M131.152314,151.422188 L134.748714,151.394563 L136.394686,149.070875 L136.3154,140.129938 L134.190543,137.864688 L130.949343,137.883813 L131.152314,151.422188 L131.152314,151.422188 Z" id="Fill-30" fill="#CF131B" sketch:type="MSShapeGroup"/><path d="M121.843114,133.174813 L137.374657,133.294875 L141.891829,137.78925 L141.755457,151.190562 L137.347171,157.22025 L122.800886,158.032 L122.597914,153.252875 L125.713314,152.997875 L125.636143,137.514063 L122.036571,137.6065 L121.843114,133.174813 L121.843114,133.174813 Z M130.415486,152.17975 L135.136686,152.144688 L137.145257,149.308875 L137.061743,139.828188 L134.510857,137.110313 L130.189257,137.13475 L130.415486,152.17975 L130.415486,152.17975 Z M121.843114,131.66925 C121.437171,131.66925 121.048143,131.836063 120.764829,132.130375 C120.480457,132.426813 120.329286,132.828438 120.347257,133.240688 L120.540714,137.672375 C120.5756,138.479875 121.237371,139.112063 122.036571,139.112063 L122.075686,139.112063 L124.146629,139.057875 L124.209,151.61025 L122.476343,151.751563 C121.675029,151.817438 121.067171,152.508062 121.102057,153.316625 L121.303971,158.09575 C121.320886,158.498438 121.497429,158.876688 121.794486,159.147625 C122.0704,159.399438 122.429829,159.537563 122.800886,159.537563 L122.883343,159.535438 L137.430686,158.723688 C137.877857,158.698188 138.290143,158.474 138.554429,158.111688 L142.962714,152.082 C143.147714,151.827 143.250257,151.521 143.253429,151.205438 L143.3898,137.804125 C143.394029,137.397188 143.233343,137.005125 142.9458,136.719313 L138.428629,132.224938 C138.1506,131.948688 137.776371,131.7925 137.386286,131.789312 L121.854743,131.66925 L121.843114,131.66925 L121.843114,131.66925 Z M131.709429,138.631813 L133.868114,138.619063 L135.569057,140.431688 L135.643057,148.833937 L134.359686,150.6455 L131.8902,150.663563 L131.709429,138.631813 L131.709429,138.631813 Z" id="Fill-31" fill="#FFFFFF" sketch:type="MSShapeGroup"/><path d="M144.110771,181.777813 C143.553657,182.124188 142.892943,182.517313 142.127571,182.946562 C142.070486,183.041125 142.0134,183.134625 141.956314,183.229188 C142.862286,182.734063 143.637171,182.280375 144.282029,181.883 C144.222829,181.847938 144.165743,181.811813 144.110771,181.777813" id="Fill-32" fill="#F0F0F0" sketch:type="MSShapeGroup"/><path d="M142.127571,182.946563 C142.100086,182.961438 142.071543,182.977375 142.044057,182.99225 C142.009171,183.073 141.973229,183.155875 141.935171,183.240875 C141.941514,183.237688 141.949971,183.233438 141.956314,183.229188 C142.0134,183.134625 142.070486,183.041125 142.127571,182.946563" id="Fill-33" fill="#6DB000" sketch:type="MSShapeGroup"/><path d="M142.044057,182.99225 C134.868171,186.993625 118.697057,193.967875 93.3541714,193.967875 L93.6956286,193.967875 C118.522629,193.967875 134.545743,187.275188 141.935171,183.240875 C141.973229,183.155875 142.009171,183.073 142.044057,182.99225" id="Fill-34" fill="#C7C7C7" sketch:type="MSShapeGroup"/><path d="M146.251486,173.301187 C145.312743,173.301187 147.701886,179.21825 146.251486,180.333875 C146.004114,180.523 145.290543,181.044687 144.110771,181.777813 C144.165743,181.811813 144.222829,181.847938 144.282029,181.883 C145.564343,181.094625 146.333943,180.532562 146.592943,180.333875 C147.996829,179.254375 145.804314,173.677312 146.5126,173.31925 C146.4312,173.307562 146.344514,173.301187 146.251486,173.301187" id="Fill-35" fill="#B8B8B8" sketch:type="MSShapeGroup"/><path d="M38.5233429,173.301187 C36.9978857,173.301187 37.4080571,174.965062 30.4774286,174.988438 L30.6740571,174.988438 C37.3245429,174.988438 37.3530857,173.500937 38.6036857,173.31925 C38.5804286,173.307562 38.5529429,173.301187 38.5233429,173.301187" id="Fill-36" fill="#B8B8B8" sketch:type="MSShapeGroup"/><path d="M157.6792,174.919375 C157.586171,174.923625 157.4942,174.927875 157.400114,174.931062 C157.400114,174.935313 157.401171,174.9385 157.401171,174.94275 C157.509,174.9385 157.615771,174.935313 157.721486,174.931062 C157.707743,174.926813 157.694,174.923625 157.6792,174.919375" id="Fill-37" fill="#C7C7C7" sketch:type="MSShapeGroup"/><path d="M157.400114,174.931062 C156.506829,174.966125 155.585,174.98525 154.6378,174.988438 L154.782629,174.988438 C155.6812,174.988438 156.552286,174.971438 157.401171,174.94275 C157.401171,174.9385 157.400114,174.935312 157.400114,174.931062" id="Fill-38" fill="#B8B8B8" sketch:type="MSShapeGroup"/><path d="M151.938914,136.457938 C147.502086,136.457938 150.574143,183.792313 91.7610571,183.792313 C32.9490286,183.792313 36.4756571,136.457938 32.0388286,136.457938 C28.2902,136.457938 31.4616286,174.775938 26.4835429,174.871563 C27.7574,174.944875 29.0883429,174.984188 30.4774286,174.988438 C37.4080571,174.965063 36.9978857,173.301188 38.5233429,173.301188 C38.5529429,173.301188 38.5804286,173.307563 38.6036857,173.31925 C38.6850857,173.307563 38.7707143,173.301188 38.8648,173.301188 C39.8024857,173.301188 37.4144,179.21825 38.8648,180.333875 C40.3152,181.448438 57.8056286,193.967875 91.7610571,193.967875 L93.3541714,193.967875 C118.697057,193.967875 134.868171,186.993625 142.044057,182.99225 C142.071543,182.977375 142.100086,182.961438 142.127571,182.946563 C142.892943,182.517313 143.553657,182.124188 144.110771,181.777813 C145.290543,181.044688 146.004114,180.523 146.251486,180.333875 C147.701886,179.21825 145.312743,173.301188 146.251486,173.301188 C146.344514,173.301188 146.4312,173.307563 146.5126,173.31925 C146.535857,173.307563 146.562286,173.301188 146.592943,173.301188 C148.117343,173.301188 147.707171,174.965063 154.6378,174.988438 C155.585,174.98525 156.506829,174.966125 157.400114,174.931063 C157.4942,174.927875 157.586171,174.923625 157.6792,174.919375 C157.558686,174.889625 157.4276,174.873688 157.285943,174.873688 C151.938914,174.873688 156.375743,136.457938 151.938914,136.457938" id="Fill-39" fill="#BABABA" sketch:type="MSShapeGroup"/><path d="M102.160171,155.789062 L102.1496,155.79225 L102.160171,155.791188 L102.160171,155.789062" id="Fill-40" fill="#BABABA" sketch:type="MSShapeGroup"/><path d="M90.6204,147.118 C90.6954571,145.977937 91.6394857,145.072688 92.7917714,145.072688 C93.9736571,145.072688 94.9356571,146.0215 94.9684286,147.200875 C94.2157429,147.009625 93.4271143,146.906563 92.6152286,146.906563 C91.9312571,146.906563 91.2642,146.979875 90.6204,147.118 M92.7917714,142.569437 C90.2176286,142.569437 88.1223714,144.675312 88.1223714,147.2625 C88.1223714,147.514313 88.1477429,147.758687 88.1858,147.999875 C85.1338286,149.606375 83.0502,152.81725 83.0502,156.520062 C83.0502,161.829375 87.3326857,166.1325 92.6152286,166.1325 C93.6766,166.1325 94.6978,165.956125 95.6524,165.63525 C95.1777429,168.353125 94.4314,171.949687 94.4314,171.949687 C94.4314,171.949687 96.8057429,173.141812 99.7530571,173.792062 C100.433857,170.89675 101.442371,166.211125 101.915971,161.605187 L100.556486,161.48725 L101.214029,155.862375 L102.1496,155.79225 C101.906457,152.530375 100.045886,149.72325 97.3713143,148.178375 C97.4305143,147.881937 97.4622286,147.575938 97.4622286,147.2625 C97.4622286,144.675312 95.3669714,142.569437 92.7917714,142.569437" id="Fill-41" fill="#BABABA" sketch:type="MSShapeGroup"/><path d="M15.8571429,94.52425 C19.4123143,100.395625 24.8798571,106.307375 31.3495714,111.924813 C41.0552,120.345125 53.0231143,128.083313 64.2140286,133.745375 C69.8105429,136.574813 75.2114857,138.884688 80.0532,140.4965 C84.8991429,142.105125 89.1710571,143.027375 92.6152286,143.031625 C101.3948,143.024188 113.467371,139.754875 127.033686,132.09425 C140.593657,124.430438 155.620943,112.35725 170.168286,94.68575 C170.648229,94.1024375 170.567886,93.2375625 169.986457,92.754125 C169.405029,92.2706875 168.545571,92.3525 168.064571,92.936875 C153.717029,110.366125 138.940286,122.21725 125.695343,129.702562 C112.4578,137.191063 100.727743,140.295687 92.6152286,140.28825 C88.6689143,140.298875 82.7573714,138.785875 76.0424,136.107313 C65.9530286,132.097438 53.9756,125.512063 43.2836571,117.833375 C32.5896,110.162125 23.1778571,101.3625 18.1892,93.098375 C17.7980571,92.4513125 16.9576286,92.2451875 16.3138286,92.639375 C15.6700286,93.0325 15.4649429,93.876125 15.8571429,94.52425" id="Fill-42" fill="#0074FF" sketch:type="MSShapeGroup"/><path d="M102.160171,151.674 L102.1496,151.676125 L102.160171,151.675063 L102.160171,151.674" id="Fill-43" fill="#FFFFFF" sketch:type="MSShapeGroup"/><path d="M102.1496,151.676125 C101.906457,148.415313 100.045886,145.607125 97.3713143,144.06225 C97.4305143,143.765813 97.4622286,143.459813 97.4622286,143.146375 C97.4622286,140.559188 95.3669714,138.453313 92.7917714,138.453313 C90.2176286,138.453313 88.1223714,140.559188 88.1223714,143.146375 C88.1223714,143.398188 88.1477429,143.643625 88.1858,143.88375 C85.1338286,145.49025 83.0502,148.701125 83.0502,152.403938 C83.0502,157.71325 87.3326857,162.016375 92.6152286,162.016375 C93.6766,162.016375 94.6978,161.84 95.6513429,161.519125 C95.1777429,164.238063 94.4314,167.833562 94.4314,167.833562 C94.4314,167.833562 96.8057429,169.025688 99.7530571,169.675938 C100.433857,166.780625 101.442371,162.096063 101.915971,157.489063 L100.556486,157.371125 L101.214029,151.74625 L102.1496,151.676125 L102.1496,151.676125 Z M92.7917714,140.956563 C93.9736571,140.956563 94.9356571,141.906438 94.9684286,143.085813 C94.2157429,142.8935 93.4271143,142.790438 92.6152286,142.790438 C91.9312571,142.790438 91.2642,142.864812 90.6204,143.001875 C90.6954571,141.861813 91.6394857,140.956563 92.7917714,140.956563 L92.7917714,140.956563 Z" id="Fill-44" fill="#FFFFFF" sketch:type="MSShapeGroup"/><path d="M89.1594286,139.996062 C89.1594286,139.996062 91.5919143,141.041562 92.8467429,141.033062 C93.2643143,141.628062 93.0856571,142.520563 93.0856571,142.520563 C93.0856571,142.520563 90.4385714,143.111312 87.7798571,142.548187 C85.1222,141.986125 87.6117714,140.869438 87.6117714,140.869438 L89.1594286,139.996062" id="Fill-45" fill="#0074FF" sketch:type="MSShapeGroup"/></g></g></g></svg>