<?xml version="1.0" encoding="UTF-8"?><svg width="20px" height="16px" viewBox="0 0 20 16" version="1.1" xmlns="http://www.w3.org/2000/svg" xmlns:xlink="http://www.w3.org/1999/xlink"><title>crown_header_active</title><desc>Created with Sketch.</desc><defs/><g id="Page-1" stroke="none" stroke-width="1" fill="none" fill-rule="evenodd"><g id="Home-onboard" transform="translate(-210.000000, -15.000000)"><g id="fab" transform="translate(210.000000, 15.000000)"><g id="crown_header_active"><path d="M0.964857104,2.79620799 C0.841948291,2.75504088 0.709462967,2.74592643 0.581481444,2.76983329 C0.190286949,2.84290817 -0.0637806282,3.20006509 0.0140056287,3.5675656 L2.52989589,15.4538679 C2.59709271,15.7713387 2.89366094,16 3.23821618,16 L16.7619949,16 C17.1065516,16 17.4031207,15.7713368 17.470316,15.4538642 L19.9861334,3.56755928 C20.0115807,3.44733051 20.0018783,3.32287097 19.9580575,3.20740774 C19.8241112,2.85447357 19.4109702,2.67037201 19.0352812,2.79620539 L14.2452641,4.40057497 C13.9366096,4.50395579 13.5925477,4.39915593 13.4071892,4.14530076 L10.595609,0.29474017 C10.5453109,0.225855225 10.481904,0.166288699 10.4085778,0.11903715 C10.0796681,-0.0929129637 9.63013677,-0.0142480423 9.40452153,0.29474017 L6.59294125,4.14530076 C6.40758274,4.39915593 6.06352084,4.50395579 5.75486636,4.40057497 L0.964857104,2.79620799 Z" id="Path" fill="#FFB500"/><path d="M5.71428571,4.38698288 L5.75486636,4.40057497 C6.06352084,4.50395579 6.40758274,4.39915593 6.59294125,4.14530076 L9.40452153,0.29474017 C9.54434763,0.103243276 9.77017897,0.000212608878 10,3.28691561e-07 L10,16 L5.71428571,16 L5.71428571,4.38698288 Z" id="Combined-Shape" fill="#FFC300"/></g></g></g></g></svg>