<?xml version="1.0" encoding="UTF-8"?><svg width="34px" height="30px" viewBox="0 0 34 30" version="1.1" xmlns="http://www.w3.org/2000/svg" xmlns:xlink="http://www.w3.org/1999/xlink"><title>skill_crown</title><desc>Created with Sketch.</desc><defs/><g id="Page-1" stroke="none" stroke-width="1" fill="none" fill-rule="evenodd"><g id="skill_crown"><g id="Crown"><path d="M10.6221555,6.23023811 L13.671891,1.76219694 C14.9328532,-0.0851864089 17.4452806,-0.555509419 19.2835548,0.711701095 C19.6933744,0.994209367 20.0477556,1.3503466 20.3288709,1.76219694 L23.3786064,6.23023811 L28.6081928,4.3564684 C30.7079162,3.60413393 33.0169587,4.70484313 33.7655835,6.81497122 C34.0104978,7.5053045 34.0647243,8.24942505 33.9224998,8.96825065 L30.407278,26.7347551 C30.0317243,28.6328647 28.3742015,30 26.4484761,30 L7.55239841,30 C5.62668143,30 3.9691635,28.6328765 3.59360092,26.7347773 L0.0782773671,8.96827674 C-0.356469514,6.77105915 1.06351251,4.635684 3.24989599,4.19878283 C3.96518389,4.05584811 4.70564349,4.11034176 5.39258005,4.3564723 L10.6221555,6.23023811 Z" id="outline" fill="#F2F2F2" fill-rule="nonzero"/><path d="M4.35079995,7.19431199 C4.17872761,7.13256133 3.99324815,7.11888964 3.81407402,7.15474994 C3.26640173,7.26436225 2.91070712,7.80009763 3.01960788,8.35134841 L6.54185424,26.1808019 C6.63592979,26.6570081 7.05112532,27 7.53350266,27 L26.4667928,27 C26.9491723,27 27.364369,26.6570051 27.4584423,26.1807963 L30.9805868,8.35133893 C31.0162129,8.17099576 31.0026296,7.98430646 30.9412805,7.81111161 C30.7537557,7.28171036 30.1753582,7.00555801 29.6493936,7.19430808 L22.9433698,9.60086246 C22.5112535,9.75593368 22.0295668,9.5987339 21.7700649,9.21795114 L17.8338525,3.44211025 C17.7634353,3.33878284 17.6746655,3.24943305 17.5720089,3.17855572 C17.1115353,2.86063055 16.4821915,2.97862794 16.1663301,3.44211025 L12.2301178,9.21795114 C11.9706158,9.5987339 11.4889292,9.75593368 11.0568129,9.60086246 L4.35079995,7.19431199 Z" id="Path" fill="#FFB500"/><path d="M11,9.58047432 L11.0568129,9.60086246 C11.4889292,9.75593368 11.9706158,9.5987339 12.2301178,9.21795114 L16.1663301,3.44211025 C16.3620867,3.15486491 16.6782506,3.00031891 17,3.00000049 L17,27 L11,27 L11,9.58047432 Z" id="Combined-Shape" fill="#FFC300"/></g></g></g></svg>