<?xml version="1.0" encoding="UTF-8"?><svg width="20px" height="16px" viewBox="0 0 20 16" version="1.1" xmlns="http://www.w3.org/2000/svg" xmlns:xlink="http://www.w3.org/1999/xlink"><title>crown_header_inactive</title><desc>Created with Sketch.</desc><defs/><g id="Page-1" stroke="none" stroke-width="1" fill="none" fill-rule="evenodd"><g id="Home-onboard" transform="translate(-234.000000, -15.000000)" fill="#CFCFCF"><g id="fab" transform="translate(210.000000, 15.000000)"><path d="M24.9648571,2.79620799 C24.8419483,2.75504088 24.709463,2.74592643 24.5814814,2.76983329 C24.1902869,2.84290817 23.9362194,3.20006509 24.0140056,3.5675656 L26.5298959,15.4538679 C26.5970927,15.7713387 26.8936609,16 27.2382162,16 L40.7619949,16 C41.1065516,16 41.4031207,15.7713368 41.470316,15.4538642 L43.9861334,3.56755928 C44.0115807,3.44733051 44.0018783,3.32287097 43.9580575,3.20740774 C43.8241112,2.85447357 43.4109702,2.67037201 43.0352812,2.79620539 L38.2452641,4.40057497 C37.9366096,4.50395579 37.5925477,4.39915593 37.4071892,4.14530076 L34.595609,0.29474017 C34.5453109,0.225855225 34.481904,0.166288699 34.4085778,0.11903715 C34.0796681,-0.0929129637 33.6301368,-0.0142480423 33.4045215,0.29474017 L30.5929413,4.14530076 C30.4075827,4.39915593 30.0635208,4.50395579 29.7548664,4.40057497 L24.9648571,2.79620799 Z" id="crown_header_inactive"/></g></g></g></svg>