<?xml version="1.0" encoding="UTF-8" standalone="no"?><svg width="270px" height="270px" viewBox="0 0 270 270" version="1.1" xmlns="http://www.w3.org/2000/svg" xmlns:xlink="http://www.w3.org/1999/xlink" xmlns:sketch="http://www.bohemiancoding.com/sketch/ns"><title>duo_proper_sad</title><desc>Created with Sketch.</desc><defs/><g id="Page-1" stroke="none" stroke-width="1" fill="none" fill-rule="evenodd" sketch:type="MSPage"><g id="duo_proper_sad" sketch:type="MSArtboardGroup"><g id="Imported-Layers" sketch:type="MSLayerGroup" transform="translate(33.000000, 4.000000)"><path d="M83.538,244.333 L83.659,244.333 L83.655,244.333 L83.538,244.333 M83.334,244.333 L83.527,244.333 L83.334,244.333 M83.135,244.332 C83.199,244.332 83.264,244.332 83.328,244.333 C83.264,244.332 83.2,244.332 83.135,244.332 M77.317,238.547 L61.161,243.282 C61.273,243.36 61.382,243.439 61.487,243.518 C68.552,244.02 75.989,244.311 83.115,244.332 C79.048,244.32 74.881,244.22 70.738,244.043 C72.668,242.113 74.845,240.256 77.317,238.547 M128.764,235.937 L128.764,235.94 L128.764,235.938 M128.764,235.93 C128.764,235.929 128.764,235.931 128.764,235.932 L128.764,235.93 M128.765,235.922 C128.765,235.922 128.765,235.923 128.764,235.924 C128.765,235.923 128.765,235.922 128.765,235.922 M128.766,235.914 C128.765,235.915 128.765,235.915 128.765,235.916 C128.765,235.916 128.765,235.915 128.766,235.914 M128.766,235.906 L128.766,235.908 L128.766,235.906 M128.767,235.899 L128.767,235.9 L128.767,235.899 M128.769,235.891 L128.769,235.892 C128.769,235.893 128.769,235.893 128.768,235.893 C128.769,235.892 128.769,235.892 128.769,235.891 M128.77,235.884 C128.77,235.884 128.77,235.884 128.77,235.885 L128.77,235.884 M128.772,235.876 L128.772,235.877 C128.772,235.877 128.772,235.877 128.772,235.876 M128.774,235.869 L128.774,235.869 C128.774,235.869 128.774,235.869 128.774,235.87 L128.774,235.869 M128.776,235.861 C128.776,235.861 128.776,235.861 128.776,235.862 L128.775,235.862 L128.776,235.861 M124.581,224.697 L108.994,229.264 C109.425,229.257 109.852,229.252 110.278,229.252 C115.648,229.252 120.574,229.889 125.088,231.013 L126.268,230.667 C125.266,229.192 124.716,227.907 124.638,227.335 C124.544,226.637 124.35,225.682 124.581,224.697 M91.891,219.072 C91.923,219.387 91.713,219.648 91.27,219.824 C91.27,219.824 91.272,219.823 91.273,219.823 C91.714,219.648 91.924,219.387 91.895,219.073 L91.891,219.072 M147.521,217.975 L138.777,220.537 C142.821,221.248 144.67,223.319 145.523,225.025 L165.99,219.027 C172.286,219.628 179.741,220.478 186.425,221.54 L147.933,232.82 C156.959,232.197 166.781,231.866 171.584,231.866 C175.222,231.866 180.501,232.074 185.784,232.074 C195.267,232.074 204.757,231.401 204.757,227.636 C204.757,221.773 156.445,217.988 151.918,217.988 C150.684,217.988 149.192,217.982 147.521,217.975 M129.701,217.947 C129.698,217.947 129.695,217.947 129.692,217.948 C129.695,217.947 129.698,217.947 129.701,217.947 M130.549,217.929 L130.519,217.929 L130.549,217.929 M130.586,217.928 L130.585,217.928 L130.586,217.928 M130.83,217.924 L130.817,217.924 L130.83,217.924 M130.916,217.922 L130.907,217.922 L130.916,217.922 M131.194,217.918 L131.189,217.918 L131.194,217.918 M131.221,217.918 L131.218,217.918 L131.221,217.918 M131.277,217.917 C131.271,217.917 131.266,217.918 131.26,217.918 C131.266,217.918 131.271,217.917 131.277,217.917 M131.354,217.917 L131.351,217.917 L131.354,217.917 M131.435,217.916 L131.426,217.916 L131.435,217.916 M131.459,217.916 L131.454,217.916 L131.459,217.916 M131.645,217.914 C131.613,217.915 131.579,217.915 131.546,217.915 C131.58,217.915 131.612,217.915 131.645,217.914 M131.663,217.914 L131.645,217.914 L131.663,217.914 M131.676,217.914 L131.668,217.914 L131.676,217.914 M132.531,217.914 C137.361,217.917 142.353,217.948 146.454,217.969 C142.353,217.948 137.359,217.917 132.531,217.914 M131.799,217.914 L131.734,217.914 L131.799,217.914 M131.881,217.914 L132.342,217.914 L131.881,217.914 M71.397,214.5 C52.325,214.5 10.914,219.027 10.914,224.296 C10.914,229.046 32.733,228.155 32.733,230.678 C32.733,233.201 25.757,231.42 25.757,235.947 C25.757,236.541 26.299,237.124 27.3,237.687 L27.303,237.687 C26.805,237.407 26.421,237.122 26.161,236.834 L70.945,223.71 C72.942,221.597 76.087,220.204 79.185,219.729 C80.613,219.51 82.388,219.338 84.254,219.338 C84.743,219.338 85.238,219.35 85.734,219.376 L89.081,218.395 C85.763,217.495 82.78,216.318 80.092,214.947 C77.61,214.668 74.717,214.5 71.397,214.5" id="Fill-1" fill="#659DFF" sketch:type="MSShapeGroup"/><path d="M83.693,244.333 L83.939,244.333 L83.693,244.333 M83.527,244.333 L83.538,244.333 L83.527,244.333 M83.328,244.333 L83.334,244.333 L83.328,244.333 M83.115,244.332 L83.135,244.332 L83.115,244.332 M128.764,235.929 L128.764,235.929 C128.764,235.929 128.764,235.929 128.764,235.93 L128.764,235.929 M128.765,235.92 L128.765,235.921 C128.765,235.921 128.765,235.921 128.765,235.922 L128.765,235.92 M128.766,235.912 L128.766,235.914 L128.766,235.912 M128.767,235.904 L128.767,235.905 C128.766,235.905 128.766,235.906 128.766,235.906 C128.767,235.905 128.767,235.905 128.767,235.904 M128.768,235.896 L128.768,235.897 C128.768,235.898 128.768,235.898 128.767,235.899 C128.768,235.898 128.768,235.897 128.768,235.896 M128.77,235.888 C128.769,235.888 128.769,235.889 128.769,235.889 L128.769,235.891 C128.769,235.89 128.769,235.889 128.77,235.888 M128.771,235.88 L128.771,235.882 C128.771,235.882 128.77,235.883 128.77,235.884 C128.77,235.882 128.771,235.881 128.771,235.88 M128.773,235.872 C128.773,235.872 128.773,235.873 128.772,235.874 L128.772,235.876 C128.772,235.875 128.773,235.873 128.773,235.872 M128.775,235.864 C128.775,235.864 128.775,235.865 128.774,235.866 L128.774,235.869 C128.774,235.867 128.775,235.865 128.775,235.864 M128.777,235.855 L128.777,235.858 C128.776,235.859 128.776,235.86 128.776,235.861 C128.776,235.859 128.777,235.857 128.777,235.855 M128.78,235.848 C128.78,235.849 128.779,235.85 128.779,235.851 C128.779,235.852 128.778,235.853 128.778,235.854 C128.779,235.852 128.779,235.85 128.78,235.848 M128.783,235.84 C128.782,235.841 128.782,235.842 128.781,235.843 C128.781,235.844 128.781,235.845 128.78,235.846 C128.781,235.844 128.782,235.842 128.783,235.84 M128.785,235.832 C128.785,235.833 128.785,235.834 128.784,235.835 C128.784,235.836 128.783,235.837 128.783,235.838 C128.784,235.836 128.785,235.834 128.785,235.832 M128.789,235.824 C128.788,235.825 128.788,235.826 128.787,235.827 C128.787,235.828 128.786,235.829 128.786,235.831 C128.787,235.828 128.788,235.826 128.789,235.824 M128.792,235.816 C128.791,235.817 128.791,235.818 128.79,235.82 C128.79,235.821 128.789,235.822 128.789,235.823 C128.79,235.821 128.791,235.818 128.792,235.816 M134.274,234.176 C131.736,234.563 129.89,234.995 129.138,235.471 L129.136,235.471 C129.129,235.476 129.121,235.481 129.114,235.486 L129.113,235.486 C129.09,235.502 129.068,235.517 129.047,235.532 C129.047,235.532 129.047,235.532 129.046,235.532 C129.039,235.537 129.033,235.542 129.027,235.547 C129.026,235.547 129.026,235.548 129.025,235.548 C129.022,235.55 129.019,235.553 129.016,235.555 C129.016,235.555 129.016,235.555 129.015,235.556 C129.013,235.558 129.01,235.56 129.007,235.562 C129.006,235.563 129.006,235.563 129.005,235.564 C129.002,235.566 129,235.568 128.997,235.57 L128.996,235.571 C128.993,235.573 128.991,235.575 128.988,235.577 L128.986,235.579 C128.983,235.581 128.981,235.583 128.979,235.584 C128.978,235.585 128.977,235.586 128.976,235.587 C128.974,235.589 128.972,235.59 128.971,235.592 C128.97,235.593 128.968,235.594 128.967,235.595 C128.965,235.596 128.963,235.598 128.962,235.6 C128.96,235.601 128.96,235.601 128.959,235.602 C128.957,235.604 128.955,235.606 128.953,235.607 C128.952,235.608 128.951,235.609 128.95,235.61 C128.948,235.611 128.946,235.613 128.945,235.615 C128.944,235.616 128.942,235.617 128.942,235.618 C128.94,235.619 128.938,235.621 128.937,235.622 C128.936,235.623 128.935,235.624 128.933,235.625 C128.931,235.627 128.93,235.629 128.927,235.631 L128.926,235.632 C128.924,235.634 128.922,235.636 128.92,235.638 C128.919,235.639 128.918,235.639 128.918,235.639 C128.916,235.642 128.914,235.644 128.912,235.646 C128.912,235.645 128.911,235.647 128.91,235.648 C128.908,235.65 128.906,235.653 128.903,235.655 C128.898,235.66 128.893,235.666 128.889,235.671 C128.888,235.671 128.888,235.672 128.888,235.672 C128.886,235.674 128.884,235.676 128.882,235.678 C128.881,235.679 128.88,235.68 128.88,235.681 C128.878,235.683 128.877,235.684 128.875,235.686 C128.874,235.687 128.874,235.688 128.873,235.688 C128.872,235.69 128.87,235.692 128.869,235.694 C128.868,235.694 128.867,235.695 128.867,235.696 C128.865,235.698 128.864,235.699 128.863,235.701 C128.862,235.702 128.861,235.703 128.86,235.705 C128.859,235.706 128.858,235.707 128.857,235.709 C128.856,235.71 128.855,235.711 128.854,235.712 C128.853,235.714 128.852,235.715 128.851,235.716 C128.85,235.717 128.849,235.719 128.848,235.72 C128.847,235.721 128.846,235.723 128.845,235.724 C128.844,235.725 128.843,235.726 128.843,235.727 C128.842,235.729 128.841,235.73 128.839,235.732 C128.839,235.733 128.838,235.734 128.837,235.735 C128.836,235.736 128.835,235.738 128.834,235.739 C128.833,235.74 128.833,235.741 128.832,235.743 C128.831,235.744 128.83,235.745 128.829,235.747 C128.828,235.748 128.828,235.749 128.827,235.75 C128.826,235.752 128.825,235.753 128.824,235.755 C128.823,235.756 128.823,235.757 128.822,235.758 C128.821,235.759 128.82,235.761 128.819,235.762 C128.819,235.763 128.818,235.765 128.817,235.766 C128.816,235.767 128.816,235.769 128.815,235.77 C128.814,235.771 128.813,235.772 128.813,235.773 C128.812,235.775 128.811,235.776 128.811,235.777 C128.81,235.779 128.809,235.78 128.809,235.781 C128.808,235.783 128.807,235.784 128.806,235.786 C128.806,235.787 128.805,235.788 128.805,235.789 C128.804,235.791 128.803,235.792 128.802,235.794 C128.801,235.795 128.801,235.796 128.801,235.797 C128.798,235.802 128.796,235.807 128.793,235.812 C128.793,235.812 128.793,235.814 128.792,235.814 L128.792,235.816 C129.055,235.203 131.136,234.655 134.275,234.176 C134.275,234.176 134.275,234.176 134.274,234.176" id="Fill-2" fill="#CAF47F" sketch:type="MSShapeGroup"/><path d="M84.285,244.333 L84.24,244.333 L84.285,244.333 M84.396,244.333 L84.317,244.333 L84.396,244.333 M84.529,244.333 L84.456,244.333 L84.529,244.333 M84.641,244.333 L84.546,244.333 L84.641,244.333 M84.771,244.332 C84.744,244.332 84.715,244.332 84.688,244.333 C84.716,244.332 84.744,244.332 84.771,244.332 M84.886,244.332 L84.788,244.332 L84.886,244.332 M85.365,244.331 C85.221,244.331 85.078,244.332 84.934,244.332 C85.077,244.332 85.222,244.331 85.365,244.331 M85.585,244.33 C85.524,244.33 85.463,244.331 85.402,244.331 C85.463,244.331 85.524,244.33 85.585,244.33 M85.723,244.33 L85.647,244.33 L85.723,244.33 M85.836,244.329 L85.761,244.329 L85.836,244.329 M86.802,244.324 C86.497,244.326 86.191,244.328 85.885,244.329 C86.192,244.328 86.496,244.326 86.802,244.324 M86.932,244.323 C86.898,244.323 86.865,244.323 86.831,244.324 C86.865,244.323 86.898,244.323 86.932,244.323 M87.287,244.32 C87.171,244.321 87.054,244.322 86.937,244.323 C87.053,244.322 87.171,244.321 87.287,244.32 M128.797,236.311 C129.003,237.361 130.134,237.515 131.201,237.724 L111.9,243.379 C104.773,243.905 96.326,244.251 87.297,244.32 C112.52,244.127 133.216,241.778 133.216,239.361 C133.216,236.966 129.205,238.382 128.797,236.311 M128.792,236.286 C128.794,236.294 128.795,236.302 128.797,236.311 C128.795,236.303 128.794,236.294 128.792,236.286 M128.788,236.26 C128.789,236.268 128.79,236.277 128.792,236.285 C128.79,236.277 128.789,236.268 128.788,236.26 M128.783,236.233 C128.785,236.241 128.786,236.25 128.787,236.259 C128.786,236.25 128.785,236.241 128.783,236.233 M128.774,236.152 C128.776,236.18 128.78,236.206 128.783,236.233 C128.78,236.206 128.776,236.18 128.774,236.152 M128.771,236.125 C128.772,236.134 128.773,236.142 128.773,236.151 C128.773,236.142 128.772,236.134 128.771,236.125 M128.769,236.097 C128.769,236.105 128.77,236.114 128.771,236.122 C128.77,236.114 128.769,236.105 128.769,236.097 M128.767,236.068 C128.767,236.076 128.768,236.085 128.769,236.093 C128.768,236.085 128.767,236.076 128.767,236.068 M128.766,236.039 C128.766,236.047 128.766,236.056 128.767,236.064 C128.766,236.056 128.766,236.047 128.766,236.039 M128.764,236.009 C128.765,236.018 128.765,236.026 128.765,236.035 C128.765,236.026 128.765,236.017 128.764,236.009 M128.764,235.979 L128.764,236.005 L128.764,235.979 M128.764,235.947 L128.764,235.976 L128.764,235.947 M128.764,235.937 L128.764,235.94 L128.764,235.938 L128.764,235.937 M128.764,235.929 L128.764,235.932 L128.764,235.93 L128.764,235.929 M128.765,235.921 C128.765,235.922 128.765,235.923 128.764,235.924 C128.765,235.923 128.765,235.922 128.765,235.922 L128.765,235.921 M128.766,235.913 C128.766,235.914 128.765,235.915 128.765,235.916 C128.765,235.915 128.765,235.915 128.766,235.914 L128.766,235.913 M128.767,235.905 C128.766,235.906 128.766,235.907 128.766,235.908 L128.766,235.906 C128.766,235.906 128.766,235.905 128.767,235.905 M128.768,235.897 C128.768,235.898 128.767,235.899 128.767,235.9 L128.767,235.899 C128.768,235.898 128.768,235.898 128.768,235.897 M128.769,235.889 L128.769,235.892 C128.769,235.892 128.769,235.892 128.769,235.891 L128.769,235.889 M128.771,235.882 C128.77,235.883 128.77,235.884 128.77,235.885 L128.77,235.884 L128.77,235.882 M128.772,235.874 L128.772,235.877 L128.772,235.876 L128.772,235.874 M128.774,235.866 L128.774,235.869 L128.774,235.866 M128.777,235.858 C128.776,235.859 128.776,235.86 128.776,235.862 L128.776,235.861 C128.776,235.86 128.776,235.859 128.777,235.858 M128.779,235.851 C128.779,235.852 128.778,235.853 128.778,235.854 C128.778,235.853 128.779,235.852 128.779,235.851 M128.781,235.843 C128.781,235.844 128.781,235.845 128.78,235.846 C128.781,235.845 128.781,235.844 128.781,235.843 M128.784,235.835 C128.784,235.836 128.783,235.837 128.783,235.838 C128.783,235.837 128.784,235.836 128.784,235.835 M128.787,235.827 C128.787,235.828 128.786,235.83 128.786,235.831 C128.786,235.829 128.787,235.828 128.787,235.827 M128.79,235.82 C128.79,235.821 128.789,235.822 128.789,235.823 C128.789,235.822 128.79,235.821 128.79,235.82 M128.793,235.812 C128.793,235.813 128.793,235.813 128.792,235.814 C128.793,235.814 128.793,235.812 128.793,235.812 M128.802,235.794 C128.801,235.795 128.801,235.796 128.801,235.797 C128.801,235.796 128.801,235.795 128.802,235.794 M128.806,235.786 C128.806,235.787 128.805,235.788 128.805,235.789 C128.805,235.788 128.806,235.787 128.806,235.786 M128.811,235.777 C128.81,235.779 128.809,235.78 128.809,235.781 C128.809,235.78 128.81,235.779 128.811,235.777 M128.815,235.77 C128.814,235.771 128.814,235.772 128.813,235.773 C128.813,235.772 128.814,235.771 128.815,235.77 M128.819,235.762 C128.819,235.763 128.818,235.765 128.817,235.766 C128.818,235.765 128.819,235.763 128.819,235.762 M128.824,235.755 C128.824,235.756 128.823,235.757 128.822,235.758 C128.823,235.757 128.823,235.756 128.824,235.755 M128.829,235.747 C128.828,235.748 128.828,235.749 128.827,235.75 C128.828,235.749 128.828,235.748 128.829,235.747 M128.834,235.739 C128.833,235.74 128.833,235.741 128.832,235.743 C128.833,235.741 128.833,235.74 128.834,235.739 M128.839,235.732 C128.839,235.733 128.838,235.734 128.837,235.735 C128.838,235.734 128.839,235.733 128.839,235.732 M128.845,235.724 C128.844,235.725 128.843,235.726 128.843,235.727 C128.843,235.726 128.844,235.725 128.845,235.724 M128.851,235.716 C128.85,235.717 128.849,235.719 128.848,235.72 C128.849,235.719 128.85,235.717 128.851,235.716 M128.857,235.709 C128.856,235.71 128.855,235.711 128.854,235.712 C128.855,235.711 128.856,235.71 128.857,235.709 M128.863,235.701 C128.862,235.702 128.861,235.703 128.86,235.705 C128.861,235.703 128.862,235.702 128.863,235.701 M128.869,235.694 C128.868,235.694 128.867,235.695 128.867,235.696 C128.867,235.695 128.868,235.694 128.869,235.694 M128.875,235.686 C128.874,235.687 128.874,235.688 128.873,235.688 C128.874,235.688 128.874,235.687 128.875,235.686 M128.882,235.678 C128.881,235.679 128.88,235.68 128.88,235.681 C128.88,235.68 128.881,235.679 128.882,235.678 M128.889,235.671 C128.888,235.671 128.888,235.672 128.888,235.672 C128.888,235.672 128.888,235.671 128.889,235.671 M128.912,235.646 C128.912,235.645 128.911,235.647 128.91,235.648 C128.911,235.647 128.912,235.646 128.912,235.646 M128.92,235.638 L128.918,235.64 L128.92,235.638 M128.927,235.631 L128.926,235.632 L128.927,235.631 M128.937,235.622 C128.936,235.623 128.934,235.624 128.933,235.625 C128.935,235.624 128.936,235.623 128.937,235.622 M128.945,235.615 C128.944,235.616 128.943,235.617 128.942,235.618 C128.942,235.617 128.944,235.616 128.945,235.615 M128.953,235.607 C128.952,235.608 128.951,235.609 128.95,235.61 C128.951,235.609 128.952,235.608 128.953,235.607 M128.962,235.6 C128.961,235.601 128.96,235.601 128.959,235.602 C128.96,235.601 128.96,235.601 128.962,235.6 M128.971,235.592 C128.969,235.593 128.968,235.594 128.967,235.595 C128.968,235.594 128.97,235.593 128.971,235.592 M128.979,235.584 C128.978,235.585 128.977,235.586 128.976,235.587 C128.977,235.586 128.978,235.585 128.979,235.584 M128.988,235.577 L128.986,235.579 C128.986,235.578 128.987,235.578 128.988,235.577 M128.997,235.57 L128.996,235.571 L128.997,235.57 M129.007,235.562 C129.006,235.563 129.006,235.563 129.005,235.564 C129.006,235.563 129.006,235.563 129.007,235.562 M129.016,235.555 C129.016,235.555 129.016,235.555 129.015,235.556 L129.016,235.555 M129.027,235.547 C129.026,235.547 129.025,235.548 129.025,235.548 C129.026,235.548 129.026,235.547 129.027,235.547 M129.047,235.532 C129.047,235.532 129.047,235.532 129.046,235.532 L129.047,235.532 M129.114,235.486 L129.113,235.486 L129.114,235.486 M129.138,235.471 L129.136,235.471 L129.138,235.471 M110.278,229.252 C109.852,229.252 109.425,229.257 108.994,229.264 L94.823,233.417 C92.643,236.063 88.58,237.467 83.496,238.246 C82.623,238.38 81.769,238.444 80.942,238.444 C80.059,238.444 79.206,238.371 78.389,238.233 L77.317,238.547 C74.845,240.256 72.668,242.113 70.738,244.043 C74.881,244.22 79.048,244.32 83.115,244.332 L83.135,244.332 C83.2,244.332 83.264,244.332 83.328,244.333 L83.334,244.333 L83.527,244.333 L83.538,244.333 L83.655,244.333 C82.36,244.332 81.053,244.321 79.74,244.302 L125.088,231.013 C120.574,229.889 115.648,229.252 110.278,229.252" id="Fill-3" fill="#7DC37F" sketch:type="MSShapeGroup"/><path d="M138.777,220.537 L124.581,224.697 C124.35,225.682 124.544,226.637 124.638,227.335 C124.716,227.907 125.266,229.192 126.268,230.667 L145.523,225.025 C144.67,223.319 142.821,221.248 138.777,220.537" id="Fill-4" fill="#AF987F" sketch:type="MSShapeGroup"/><path d="M84.254,219.338 C82.388,219.338 80.613,219.51 79.185,219.729 C76.087,220.204 72.942,221.597 70.945,223.71 L85.734,219.376 C85.238,219.35 84.743,219.338 84.254,219.338" id="Fill-5" fill="#AF987F" sketch:type="MSShapeGroup"/><path d="M94.823,233.417 L78.389,238.233 C79.206,238.371 80.059,238.444 80.942,238.444 C81.769,238.444 82.623,238.38 83.496,238.246 C88.58,237.467 92.643,236.063 94.823,233.417" id="Fill-6" fill="#BBAB3F" sketch:type="MSShapeGroup"/><path d="M94.757,219.599 C93.383,219.682 92.201,219.758 91.273,219.823 L91.272,219.823 C92.202,219.758 93.384,219.682 94.757,219.599 M146.454,217.969 C146.817,217.971 147.173,217.973 147.521,217.975 C147.173,217.973 146.817,217.971 146.454,217.969 M129.692,217.948 C127.449,218.003 124.252,218.123 120.623,218.278 C124.252,218.123 127.448,218.003 129.692,217.948 M130.519,217.929 C130.263,217.934 129.99,217.94 129.701,217.947 C129.991,217.94 130.263,217.934 130.519,217.929 M130.585,217.928 C130.572,217.928 130.561,217.928 130.549,217.929 C130.561,217.928 130.572,217.928 130.585,217.928 M130.817,217.924 C130.742,217.925 130.665,217.926 130.586,217.928 C130.665,217.926 130.743,217.925 130.817,217.924 M130.907,217.922 C130.882,217.923 130.856,217.923 130.83,217.924 C130.856,217.923 130.881,217.923 130.907,217.922 M131.189,217.918 C131.101,217.92 131.01,217.921 130.916,217.922 C131.01,217.921 131.101,217.92 131.189,217.918 M131.218,217.918 L131.194,217.918 L131.218,217.918 M131.26,217.918 L131.221,217.918 L131.26,217.918 M131.351,217.917 L131.277,217.917 L131.351,217.917 M131.426,217.916 C131.402,217.916 131.378,217.916 131.354,217.917 C131.378,217.916 131.402,217.916 131.426,217.916 M131.454,217.916 L131.435,217.916 L131.454,217.916 M131.546,217.915 C131.518,217.915 131.489,217.915 131.459,217.916 C131.488,217.915 131.518,217.915 131.546,217.915 M131.668,217.914 L131.663,217.914 L131.668,217.914 M131.734,217.914 L131.676,217.914 L131.734,217.914 M132.342,217.914 L132.531,217.914 L132.342,217.914 M131.881,217.914 L131.799,217.914 L131.881,217.914" id="Fill-7" fill="#FFFFFF" sketch:type="MSShapeGroup"/><path d="M131.881,217.914 L131.799,217.914 L131.734,217.914 L131.676,217.914 L131.668,217.914 L131.663,217.914 L131.645,217.914 C131.612,217.915 131.58,217.915 131.546,217.915 C131.518,217.915 131.488,217.915 131.459,217.916 L131.454,217.916 L131.435,217.916 L131.426,217.916 C131.402,217.916 131.378,217.916 131.354,217.917 L131.351,217.917 L131.277,217.917 C131.271,217.917 131.266,217.918 131.26,217.918 L131.221,217.918 L131.218,217.918 L131.194,217.918 L131.189,217.918 C131.101,217.92 131.01,217.921 130.916,217.922 L130.907,217.922 C130.881,217.923 130.856,217.923 130.83,217.924 L130.817,217.924 C130.743,217.925 130.665,217.926 130.586,217.928 L130.585,217.928 C130.572,217.928 130.561,217.928 130.549,217.929 L130.519,217.929 C130.263,217.934 129.991,217.94 129.701,217.947 C129.698,217.947 129.695,217.947 129.692,217.948 C127.448,218.003 124.252,218.123 120.623,218.278 C115.799,219.582 110.446,220.326 104.513,220.326 C101.008,220.326 97.763,220.068 94.757,219.599 C93.384,219.682 92.202,219.758 91.272,219.823 L91.273,219.823 L91.271,219.823 C91.713,219.648 91.923,219.387 91.891,219.072 C90.929,218.869 89.992,218.642 89.081,218.395 L85.734,219.376 C90.613,219.63 95.643,221.239 96.423,226.332 C96.675,227.978 96.608,229.409 96.262,230.654 C98.904,230.108 101.729,229.705 104.753,229.47 C106.196,229.358 107.61,229.29 108.994,229.264 L124.581,224.697 C124.971,223.028 126.578,221.275 131.951,220.549 C133.307,220.366 134.534,220.283 135.645,220.283 C136.813,220.283 137.852,220.374 138.777,220.537 L147.521,217.975 C147.173,217.973 146.817,217.971 146.454,217.969 C142.353,217.948 137.361,217.917 132.531,217.914 L132.342,217.914 L131.881,217.914" id="Fill-8" fill="#85B1FF" sketch:type="MSShapeGroup"/><path d="M108.994,229.264 C107.61,229.29 106.196,229.358 104.753,229.47 C101.729,229.705 98.904,230.108 96.262,230.654 C95.971,231.7 95.484,232.616 94.823,233.417 L108.994,229.264" id="Fill-9" fill="#97CF99" sketch:type="MSShapeGroup"/><path d="M135.645,220.283 C134.534,220.283 133.307,220.366 131.951,220.549 C126.578,221.275 124.971,223.028 124.581,224.697 L138.777,220.537 C137.852,220.374 136.813,220.283 135.645,220.283" id="Fill-10" fill="#BFAD99" sketch:type="MSShapeGroup"/><path d="M70.945,223.71 L26.161,236.834 C26.421,237.122 26.805,237.407 27.303,237.687 C28.859,237.617 30.453,237.581 32.074,237.581 C45.142,237.581 56.356,239.931 61.161,243.282 L77.317,238.547 C77.513,238.412 77.711,238.277 77.91,238.144 C73.039,237.153 69.54,233.811 68.92,229.759 C68.555,227.38 69.411,225.333 70.945,223.71" id="Fill-11" fill="#85B1FF" sketch:type="MSShapeGroup"/><path d="M77.91,238.144 C77.711,238.277 77.513,238.412 77.317,238.547 L78.389,238.233 C78.228,238.206 78.069,238.176 77.91,238.144" id="Fill-12" fill="#97CF99" sketch:type="MSShapeGroup"/><path d="M85.734,219.376 L70.945,223.71 C69.411,225.333 68.555,227.38 68.92,229.759 C69.54,233.811 73.039,237.153 77.91,238.144 C82.792,234.879 88.795,232.196 96.262,230.654 C96.608,229.409 96.675,227.978 96.423,226.332 C95.643,221.239 90.613,219.63 85.734,219.376" id="Fill-13" fill="#BFAD99" sketch:type="MSShapeGroup"/><path d="M96.262,230.654 C88.795,232.196 82.792,234.879 77.91,238.144 C78.069,238.176 78.228,238.206 78.389,238.233 L94.823,233.417 C95.484,232.616 95.971,231.7 96.262,230.654" id="Fill-14" fill="#C8BB66" sketch:type="MSShapeGroup"/><path d="M84.24,244.333 L83.939,244.333 L84.24,244.333 M83.659,244.333 L83.693,244.333 L83.661,244.333 L83.659,244.333 M84.317,244.333 L84.285,244.333 L84.317,244.333 M84.456,244.333 L84.396,244.333 L84.456,244.333 M84.546,244.333 L84.529,244.333 L84.546,244.333 M84.688,244.333 L84.641,244.333 L84.688,244.333 M84.788,244.332 L84.771,244.332 L84.788,244.332 M84.934,244.332 L84.886,244.332 L84.934,244.332 M85.402,244.331 L85.365,244.331 L85.402,244.331 M85.647,244.33 L85.585,244.33 L85.647,244.33 M85.761,244.329 C85.748,244.329 85.736,244.33 85.723,244.33 C85.736,244.33 85.748,244.329 85.761,244.329 M85.885,244.329 L85.836,244.329 L85.885,244.329 M86.831,244.324 L86.802,244.324 L86.831,244.324 M86.937,244.323 L86.932,244.323 L86.937,244.323 M87.297,244.32 L87.287,244.32 L87.297,244.32 M128.792,236.285 C128.792,236.285 128.792,236.285 128.792,236.286 L128.792,236.285 M128.787,236.259 C128.788,236.259 128.788,236.259 128.788,236.26 C128.788,236.259 128.788,236.259 128.787,236.259 M128.773,236.151 L128.774,236.152 L128.773,236.151 M128.771,236.122 L128.771,236.125 L128.771,236.122 M128.769,236.093 L128.769,236.097 L128.769,236.093 M128.767,236.064 L128.767,236.068 L128.767,236.064 M128.765,236.035 C128.766,236.036 128.766,236.037 128.766,236.039 C128.766,236.037 128.766,236.036 128.765,236.035 M128.764,236.005 L128.764,236.009 L128.764,236.005 M128.764,235.976 L128.764,235.979 L128.764,235.976 M128.764,235.94 L128.764,235.94 L128.764,235.947 L128.764,235.94 M128.764,235.932 L128.764,235.932 L128.764,235.937 L128.764,235.932 M128.764,235.924 L128.764,235.924 L128.764,235.929 L128.764,235.924 M128.765,235.916 L128.765,235.917 L128.765,235.92 L128.765,235.916 M128.766,235.908 L128.766,235.909 L128.766,235.912 L128.766,235.908 M128.767,235.901 L128.767,235.901 L128.767,235.904 L128.767,235.901 M128.768,235.893 L128.768,235.893 L128.768,235.896 L128.768,235.893 M128.77,235.885 C128.77,235.885 128.77,235.885 128.77,235.886 L128.77,235.888 L128.77,235.885 M128.772,235.877 L128.771,235.878 L128.771,235.88 C128.771,235.879 128.771,235.878 128.772,235.877 M128.774,235.87 L128.773,235.87 L128.773,235.872 C128.773,235.871 128.773,235.87 128.774,235.87 M128.775,235.862 L128.775,235.862 L128.775,235.864 L128.775,235.862 M128.778,235.854 C128.778,235.854 128.778,235.854 128.778,235.855 L128.777,235.855 L128.778,235.855 M128.78,235.846 L128.78,235.847 C128.78,235.847 128.78,235.847 128.78,235.848 L128.78,235.846 M128.783,235.838 L128.783,235.84 L128.783,235.839 M128.786,235.831 L128.785,235.832 L128.786,235.831 M147.933,232.82 C142.752,233.178 137.832,233.632 134.274,234.175 L134.274,234.176 C137.832,233.633 142.75,233.179 147.931,232.821 L147.933,232.82" id="Fill-15" fill="#FFFFFF" sketch:type="MSShapeGroup"/><path d="M83.655,244.333 L83.659,244.333 L83.661,244.333 L83.655,244.333 M128.765,235.916 L128.765,235.917 L128.765,235.916 M128.766,235.908 L128.766,235.909 C128.766,235.909 128.766,235.909 128.766,235.908 M128.767,235.9 L128.767,235.901 L128.767,235.9 M128.769,235.892 C128.769,235.893 128.768,235.893 128.768,235.893 C128.769,235.893 128.769,235.893 128.769,235.892 M128.77,235.885 C128.77,235.885 128.77,235.885 128.77,235.886 L128.77,235.885 M128.772,235.877 C128.772,235.877 128.772,235.878 128.771,235.878 L128.772,235.877 M128.774,235.869 C128.774,235.87 128.773,235.87 128.773,235.87 L128.774,235.87 L128.774,235.869 M128.776,235.862 L128.775,235.862 L128.776,235.862 M128.778,235.854 C128.778,235.854 128.778,235.854 128.778,235.855 L128.778,235.854 M128.78,235.846 L128.78,235.847 L128.78,235.846 M128.783,235.838 L128.783,235.839 L128.783,235.838 M126.268,230.667 L125.088,231.013 C125.685,231.162 126.275,231.319 126.858,231.485 C126.647,231.208 126.45,230.935 126.268,230.667 M165.99,219.027 L145.523,225.025 C146.135,226.249 146.234,227.286 146.263,227.499 C146.31,227.845 146.737,230.421 145.916,232.885 C141.461,233.205 137.253,233.596 134.002,234.055 C134.093,234.095 134.183,234.135 134.274,234.175 C137.832,233.632 142.752,233.178 147.933,232.82 L186.425,221.54 C179.741,220.478 172.286,219.628 165.99,219.027" id="Fill-16" fill="#85B1FF" sketch:type="MSShapeGroup"/><path d="M83.661,244.333 L83.693,244.333 L83.939,244.333 L83.661,244.333 M128.764,235.94 L128.764,235.947 L128.764,235.94 M128.764,235.932 L128.764,235.937 L128.764,235.932 M128.764,235.924 L128.764,235.929 L128.764,235.924 M128.765,235.917 L128.765,235.921 L128.765,235.92 L128.765,235.917 M128.766,235.909 L128.766,235.913 L128.766,235.912 L128.766,235.909 M128.767,235.901 L128.767,235.905 L128.767,235.904 L128.767,235.901 M128.768,235.893 L128.768,235.897 L128.768,235.896 L128.768,235.893 M128.77,235.886 C128.77,235.887 128.769,235.888 128.769,235.889 C128.769,235.889 128.769,235.888 128.77,235.888 L128.77,235.887 M128.771,235.878 L128.771,235.882 L128.771,235.88 L128.771,235.878 M128.773,235.87 C128.773,235.871 128.773,235.873 128.772,235.874 C128.773,235.873 128.773,235.872 128.773,235.872 L128.773,235.87 M128.775,235.862 C128.775,235.864 128.775,235.865 128.774,235.866 C128.775,235.865 128.775,235.864 128.775,235.864 L128.775,235.863 M128.778,235.855 C128.777,235.856 128.777,235.857 128.777,235.858 L128.777,235.855 L128.778,235.855 M128.78,235.847 C128.78,235.848 128.779,235.849 128.779,235.851 C128.779,235.85 128.78,235.849 128.78,235.848 L128.78,235.847 M128.783,235.839 C128.782,235.84 128.782,235.842 128.781,235.843 C128.782,235.842 128.782,235.841 128.783,235.84 L128.783,235.839 M128.786,235.831 C128.785,235.833 128.785,235.834 128.784,235.835 C128.785,235.834 128.785,235.833 128.785,235.832 L128.786,235.831 M128.789,235.823 C128.788,235.824 128.788,235.826 128.787,235.827 C128.788,235.826 128.788,235.825 128.789,235.824 L128.789,235.823 M128.792,235.814 C128.792,235.816 128.791,235.818 128.79,235.82 C128.791,235.818 128.791,235.817 128.792,235.816 L128.792,235.814 M128.801,235.797 C128.798,235.802 128.796,235.807 128.793,235.812 C128.796,235.807 128.798,235.802 128.801,235.797 M128.805,235.789 C128.804,235.791 128.803,235.792 128.802,235.794 C128.803,235.792 128.804,235.791 128.805,235.789 M128.809,235.781 C128.808,235.783 128.807,235.784 128.806,235.786 C128.807,235.784 128.808,235.783 128.809,235.781 M128.813,235.773 C128.812,235.775 128.811,235.776 128.811,235.777 C128.811,235.776 128.812,235.775 128.813,235.773 M128.817,235.766 C128.816,235.767 128.816,235.769 128.815,235.77 C128.816,235.769 128.816,235.767 128.817,235.766 M128.822,235.758 C128.821,235.759 128.82,235.761 128.819,235.762 C128.82,235.761 128.821,235.759 128.822,235.758 M128.827,235.75 C128.826,235.752 128.825,235.753 128.824,235.755 C128.825,235.753 128.826,235.752 128.827,235.75 M128.832,235.743 C128.831,235.744 128.83,235.745 128.829,235.747 C128.83,235.745 128.831,235.744 128.832,235.743 M128.837,235.735 C128.836,235.736 128.835,235.738 128.834,235.739 C128.835,235.738 128.836,235.736 128.837,235.735 M128.843,235.727 C128.842,235.729 128.84,235.73 128.839,235.732 C128.841,235.73 128.842,235.729 128.843,235.727 M128.848,235.72 C128.847,235.721 128.846,235.723 128.845,235.724 C128.846,235.723 128.847,235.721 128.848,235.72 M128.854,235.712 C128.853,235.714 128.852,235.715 128.851,235.716 C128.852,235.715 128.853,235.714 128.854,235.712 M128.86,235.705 C128.859,235.706 128.858,235.707 128.857,235.709 C128.858,235.707 128.859,235.706 128.86,235.705 M128.867,235.696 C128.865,235.698 128.864,235.699 128.863,235.701 C128.864,235.699 128.865,235.698 128.867,235.696 M128.873,235.688 C128.871,235.69 128.87,235.692 128.869,235.694 C128.87,235.692 128.872,235.69 128.873,235.688 M128.88,235.681 C128.878,235.683 128.877,235.684 128.875,235.686 C128.877,235.684 128.878,235.683 128.88,235.681 M128.888,235.672 C128.886,235.674 128.884,235.676 128.882,235.678 C128.884,235.676 128.886,235.674 128.888,235.672 M128.903,235.655 C128.898,235.66 128.893,235.666 128.889,235.671 C128.893,235.666 128.898,235.66 128.903,235.655 M128.91,235.648 C128.908,235.65 128.905,235.653 128.903,235.655 C128.906,235.653 128.908,235.65 128.91,235.648 M128.918,235.64 C128.916,235.642 128.914,235.644 128.912,235.646 C128.914,235.644 128.916,235.642 128.918,235.64 M128.926,235.632 C128.924,235.634 128.922,235.636 128.92,235.638 C128.922,235.636 128.924,235.634 128.926,235.632 M128.933,235.625 C128.931,235.627 128.929,235.629 128.927,235.631 C128.93,235.629 128.931,235.627 128.933,235.625 M128.942,235.618 C128.94,235.619 128.938,235.621 128.937,235.622 C128.938,235.621 128.94,235.619 128.942,235.618 M128.95,235.61 C128.948,235.612 128.947,235.613 128.945,235.615 C128.946,235.613 128.948,235.611 128.95,235.61 M128.959,235.602 C128.957,235.604 128.955,235.606 128.953,235.607 C128.955,235.606 128.957,235.604 128.959,235.602 M128.967,235.595 C128.965,235.597 128.963,235.598 128.962,235.6 C128.963,235.598 128.965,235.596 128.967,235.595 M128.976,235.587 C128.974,235.589 128.972,235.59 128.971,235.592 C128.972,235.59 128.974,235.589 128.976,235.587 M128.986,235.579 C128.983,235.581 128.981,235.583 128.979,235.584 C128.981,235.583 128.983,235.581 128.986,235.579 M128.996,235.571 C128.993,235.573 128.991,235.575 128.988,235.577 C128.991,235.575 128.993,235.573 128.996,235.571 M129.005,235.564 C129.002,235.566 129,235.568 128.997,235.57 C129,235.568 129.002,235.566 129.005,235.564 M129.015,235.556 C129.013,235.558 129.01,235.56 129.007,235.562 C129.01,235.56 129.013,235.558 129.015,235.556 M129.025,235.548 C129.022,235.551 129.019,235.553 129.016,235.555 C129.019,235.553 129.022,235.55 129.025,235.548 M129.046,235.532 C129.039,235.537 129.033,235.542 129.027,235.547 C129.033,235.542 129.039,235.537 129.046,235.532 M129.113,235.486 C129.09,235.501 129.068,235.517 129.047,235.532 C129.068,235.517 129.09,235.502 129.113,235.486 M129.136,235.471 C129.129,235.476 129.121,235.481 129.114,235.486 C129.121,235.481 129.129,235.476 129.136,235.471 M134.274,234.175 C131.736,234.563 129.891,234.995 129.138,235.471 C129.89,234.995 131.736,234.563 134.274,234.176 L134.274,234.175" id="Fill-17" fill="#D4F899" sketch:type="MSShapeGroup"/><path d="M125.088,231.013 L79.74,244.302 C81.053,244.321 82.36,244.332 83.655,244.333 L83.661,244.333 L83.939,244.333 L84.24,244.333 L84.285,244.333 L84.317,244.333 L84.396,244.333 L84.456,244.333 L84.529,244.333 L84.546,244.333 L84.641,244.333 L84.688,244.333 C84.715,244.332 84.744,244.332 84.771,244.332 L84.788,244.332 L84.886,244.332 L84.934,244.332 C85.078,244.332 85.221,244.331 85.365,244.331 L85.402,244.331 C85.463,244.331 85.524,244.33 85.585,244.33 L85.647,244.33 L85.723,244.33 C85.736,244.33 85.748,244.329 85.761,244.329 L85.836,244.329 L85.885,244.329 C86.191,244.328 86.497,244.326 86.802,244.324 L86.831,244.324 C86.865,244.323 86.898,244.323 86.932,244.323 L86.937,244.323 C87.054,244.322 87.171,244.321 87.287,244.32 L87.297,244.32 C96.326,244.251 104.773,243.905 111.9,243.379 L131.201,237.724 C130.134,237.515 129.003,237.361 128.797,236.311 C128.795,236.302 128.794,236.294 128.792,236.286 L128.792,236.285 C128.79,236.277 128.789,236.268 128.788,236.26 C128.788,236.259 128.788,236.259 128.787,236.259 C128.786,236.25 128.785,236.241 128.783,236.233 C128.78,236.206 128.776,236.18 128.774,236.152 L128.773,236.151 C128.773,236.142 128.772,236.134 128.771,236.125 L128.771,236.122 C128.77,236.114 128.769,236.105 128.769,236.097 L128.769,236.093 C128.768,236.085 128.767,236.076 128.767,236.068 L128.767,236.064 C128.766,236.056 128.766,236.047 128.766,236.039 C128.766,236.037 128.766,236.036 128.765,236.035 C128.765,236.026 128.765,236.018 128.764,236.009 L128.764,236.005 L128.764,235.979 L128.764,235.976 L128.764,235.947 L128.764,235.94 L128.764,235.937 L128.764,235.932 L128.764,235.929 L128.764,235.924 C128.765,235.923 128.765,235.922 128.765,235.921 L128.765,235.917 L128.765,235.916 C128.765,235.915 128.766,235.914 128.766,235.913 L128.766,235.909 L128.766,235.908 C128.766,235.907 128.766,235.906 128.767,235.905 L128.767,235.901 C128.767,235.901 128.767,235.901 128.767,235.9 C128.767,235.899 128.768,235.898 128.768,235.897 L128.768,235.893 C128.768,235.893 128.769,235.893 128.769,235.892 L128.769,235.889 C128.769,235.888 128.77,235.887 128.77,235.886 L128.77,235.885 C128.77,235.884 128.77,235.883 128.771,235.882 L128.771,235.878 C128.772,235.878 128.772,235.877 128.772,235.877 L128.772,235.874 C128.773,235.873 128.773,235.871 128.773,235.87 C128.773,235.87 128.774,235.87 128.774,235.869 L128.774,235.866 C128.775,235.865 128.775,235.864 128.775,235.862 C128.776,235.86 128.776,235.859 128.777,235.858 C128.777,235.857 128.777,235.856 128.778,235.855 L128.778,235.854 C128.778,235.853 128.779,235.852 128.779,235.851 C128.779,235.849 128.78,235.848 128.78,235.847 L128.78,235.846 C128.781,235.845 128.781,235.844 128.781,235.843 C128.782,235.842 128.782,235.84 128.783,235.839 L128.783,235.838 C128.783,235.837 128.784,235.836 128.784,235.835 C128.785,235.834 128.785,235.833 128.786,235.831 C128.786,235.83 128.787,235.828 128.787,235.827 C128.788,235.826 128.788,235.824 128.789,235.823 C128.789,235.822 128.79,235.821 128.79,235.82 C128.791,235.818 128.792,235.816 128.792,235.814 C128.793,235.813 128.793,235.813 128.793,235.812 C128.796,235.807 128.798,235.802 128.801,235.797 C128.801,235.796 128.801,235.795 128.802,235.794 C128.803,235.792 128.804,235.791 128.805,235.789 C128.805,235.788 128.806,235.787 128.806,235.786 C128.807,235.784 128.808,235.783 128.809,235.781 C128.809,235.78 128.81,235.779 128.811,235.777 C128.811,235.776 128.812,235.775 128.813,235.773 C128.814,235.772 128.814,235.771 128.815,235.77 C128.816,235.769 128.816,235.767 128.817,235.766 C128.818,235.765 128.819,235.763 128.819,235.762 C128.82,235.761 128.821,235.759 128.822,235.758 C128.823,235.757 128.824,235.756 128.824,235.755 C128.825,235.753 128.826,235.752 128.827,235.75 C128.828,235.749 128.828,235.748 128.829,235.747 C128.83,235.745 128.831,235.744 128.832,235.743 C128.833,235.741 128.833,235.74 128.834,235.739 C128.835,235.738 128.836,235.736 128.837,235.735 C128.838,235.734 128.839,235.733 128.839,235.732 C128.84,235.73 128.842,235.729 128.843,235.727 C128.843,235.726 128.844,235.725 128.845,235.724 C128.846,235.723 128.847,235.721 128.848,235.72 C128.849,235.719 128.85,235.717 128.851,235.716 C128.852,235.715 128.853,235.714 128.854,235.712 C128.855,235.711 128.856,235.71 128.857,235.709 C128.858,235.707 128.859,235.706 128.86,235.705 C128.861,235.703 128.862,235.702 128.863,235.701 C128.864,235.699 128.865,235.698 128.867,235.696 C128.867,235.695 128.868,235.694 128.869,235.694 C128.87,235.692 128.871,235.69 128.873,235.688 C128.874,235.688 128.874,235.687 128.875,235.686 C128.877,235.684 128.878,235.683 128.88,235.681 C128.88,235.68 128.881,235.679 128.882,235.678 C128.884,235.676 128.886,235.674 128.888,235.672 C128.887,235.672 128.888,235.671 128.889,235.671 C128.893,235.666 128.898,235.66 128.903,235.655 C128.905,235.653 128.908,235.65 128.91,235.648 C128.911,235.647 128.912,235.646 128.912,235.646 C128.914,235.644 128.916,235.642 128.918,235.64 L128.92,235.638 C128.922,235.636 128.924,235.634 128.926,235.632 L128.927,235.631 C128.929,235.629 128.931,235.627 128.933,235.625 C128.934,235.624 128.936,235.623 128.937,235.622 C128.938,235.621 128.94,235.619 128.942,235.618 C128.943,235.617 128.944,235.616 128.945,235.615 C128.947,235.613 128.948,235.612 128.95,235.61 C128.951,235.609 128.952,235.608 128.953,235.607 C128.955,235.606 128.957,235.604 128.959,235.602 C128.96,235.601 128.961,235.601 128.962,235.6 C128.963,235.598 128.965,235.597 128.967,235.595 C128.968,235.594 128.969,235.593 128.971,235.592 C128.972,235.59 128.974,235.589 128.976,235.587 C128.977,235.586 128.978,235.585 128.979,235.584 C128.981,235.583 128.983,235.581 128.986,235.579 L128.988,235.577 C128.991,235.575 128.993,235.573 128.996,235.571 L128.997,235.57 C129,235.568 129.002,235.566 129.005,235.564 C129.006,235.563 129.006,235.563 129.007,235.562 C129.01,235.56 129.013,235.558 129.015,235.556 L129.016,235.555 C129.019,235.553 129.022,235.551 129.025,235.548 C129.025,235.548 129.026,235.547 129.027,235.547 C129.033,235.542 129.039,235.537 129.046,235.532 L129.047,235.532 C129.068,235.517 129.09,235.501 129.113,235.486 L129.114,235.486 C129.121,235.481 129.129,235.476 129.136,235.471 L129.138,235.471 C129.891,234.995 131.736,234.563 134.274,234.175 C134.183,234.135 134.093,234.095 134.002,234.055 C132.457,234.273 131.128,234.506 130.092,234.754 C128.784,233.747 127.703,232.591 126.858,231.485 C126.275,231.319 125.685,231.162 125.088,231.013" id="Fill-18" fill="#97CF99" sketch:type="MSShapeGroup"/><path d="M145.523,225.025 L126.268,230.667 C126.45,230.935 126.647,231.208 126.858,231.485 C129.37,232.198 131.749,233.064 134.002,234.055 C137.253,233.596 141.461,233.205 145.916,232.885 C146.737,230.421 146.31,227.845 146.263,227.499 C146.234,227.286 146.135,226.249 145.523,225.025" id="Fill-19" fill="#BFAD99" sketch:type="MSShapeGroup"/><path d="M126.858,231.485 C127.703,232.591 128.784,233.747 130.092,234.754 C131.128,234.506 132.457,234.273 134.002,234.055 C131.749,233.064 129.37,232.198 126.858,231.485" id="Fill-20" fill="#C8BB66" sketch:type="MSShapeGroup"/><path d="M138.283,210.067 C145.645,210.485 144.929,218.445 144.894,219.059 C144.859,219.672 144.772,227.404 131.888,226.673 C123.738,226.21 124.383,222.598 124.485,220.801 C124.587,219.004 128.949,209.537 138.283,210.067" id="Fill-21" fill="#D98500" sketch:type="MSShapeGroup"/><path d="M60.593,0.286 C78.409,0.286 95.788,29.201 131.129,29.201 C160.482,29.201 161.504,16.058 175.524,16.058 C184.87,16.058 184.87,32.56 184.87,34.75 C184.87,47.273 180.744,78.269 180.744,83.088 C180.744,95.027 194.764,127.009 194.764,143 C194.764,159.21 182.825,172.024 171.325,172.024 C165.63,172.024 163.191,169.979 162.891,171.039 C161.468,176.077 150.296,220.326 104.513,220.326 C63.989,220.326 58.293,185.934 52.378,185.934 C50.078,185.934 42.959,200.611 22.478,200.611 C6.268,200.611 7.473,191.411 7.473,189.987 C7.473,171.805 41.973,91.193 41.973,76.298 C41.973,61.402 40.878,58.117 40.878,52.092 C40.878,46.068 40.659,0.286 60.593,0.286" id="Fill-22" fill="#78C800" sketch:type="MSShapeGroup"/><path d="M165.226,37.925 C161.13,37.997 160.176,40.129 158.699,38.833 C158.027,38.184 161.502,36.603 161.49,35.942 C161.484,35.612 160.957,35.687 160.23,35.7 C155.936,35.776 147.59,42.201 146.4,42.222 C145.872,42.232 145.015,42.379 145.001,41.586 C144.97,39.802 150.955,38.177 146.793,38.25 C142.63,38.324 136.58,43.783 130.172,43.896 C116.958,44.13 106.138,33.944 106.183,36.521 C106.199,37.446 107.745,38.873 108.768,40.705 C108.768,40.705 109.412,43.47 108.27,42.432 C95.933,30.522 83.757,27.796 83.757,27.796 C83.757,27.796 82.832,27.812 82.839,28.209 C82.863,29.596 85.539,31.4 85.548,31.928 C85.557,32.457 85.233,32.793 84.704,32.802 C82.128,32.848 80.19,27.925 69.818,28.108 C54.159,28.384 50.28,53.104 50.637,73.321 C51.143,101.995 69.756,110.781 85.018,110.512 C97.122,110.298 109.955,102.934 115.193,92.361 L131.323,93.305 C131.323,93.305 139.484,108.132 153.689,107.881 C167.019,107.646 178.464,99.006 177.948,69.754 C177.406,39.032 169.322,37.853 165.226,37.925" id="Fill-23" fill="#8EE000" sketch:type="MSShapeGroup"/><path d="M103.335,73.594 C103.579,87.434 94.549,98.817 83.166,99.018 C71.782,99.218 62.357,88.161 62.112,74.321 C61.868,60.481 70.898,49.098 82.281,48.898 C93.665,48.697 103.09,59.754 103.335,73.594" id="Fill-24" fill="#FFFFFF" sketch:type="MSShapeGroup"/><path d="M170.023,76.326 C169.594,88.585 161.69,98.399 152.37,98.246 C143.05,98.094 135.843,88.032 136.273,75.774 C136.703,63.515 144.606,53.701 153.926,53.853 C163.246,54.006 170.453,64.067 170.023,76.326" id="Fill-25" fill="#FFFFFF" sketch:type="MSShapeGroup"/><path d="M93.622,73.765 C93.756,81.368 88.795,87.621 82.542,87.731 C76.289,87.842 71.111,81.768 70.977,74.165 C70.843,66.562 75.803,60.309 82.056,60.199 C88.31,60.089 93.487,66.163 93.622,73.765" id="Fill-26" fill="#3F3F3F" sketch:type="MSShapeGroup"/><path d="M80.11,65.268 C80.165,68.433 77.836,71.04 74.908,71.091 C71.979,71.143 69.559,68.62 69.504,65.455 C69.448,62.291 71.777,59.683 74.706,59.632 C77.634,59.58 80.054,62.104 80.11,65.268" id="Fill-27" fill="#FFFFFF" sketch:type="MSShapeGroup"/><path d="M162.412,76.461 C162.028,83.67 157.436,89.382 152.154,89.219 C146.873,89.055 142.903,83.079 143.287,75.87 C143.671,68.661 148.264,62.949 153.545,63.112 C158.826,63.275 162.796,69.252 162.412,76.461" id="Fill-28" fill="#3F3F3F" sketch:type="MSShapeGroup"/><path d="M151.251,68.277 C151.392,71.211 149.439,73.693 146.89,73.82 C144.34,73.947 142.159,71.671 142.019,68.737 C141.878,65.803 143.831,63.322 146.38,63.195 C148.929,63.068 151.11,65.343 151.251,68.277" id="Fill-29" fill="#FFFFFF" sketch:type="MSShapeGroup"/><path d="M109.029,100.883 C109.029,100.883 106.541,129.239 116.906,129.516 C127.271,129.794 126.206,116.103 126.134,115.936 C126.061,115.77 109.029,100.883 109.029,100.883" id="Fill-30" fill="#71B200" sketch:type="MSShapeGroup"/><path d="M143.177,108.334 C143.177,108.334 147.065,102.694 150.734,102.694 C154.403,102.694 159.496,105.323 159.496,105.323 L162.07,106.308 L164.26,107.896 C164.26,107.896 161.577,110.799 161.358,110.854 C161.139,110.908 150.789,115.728 150.843,115.509 C150.898,115.29 143.834,115.18 143.669,115.18 C143.505,115.18 140.986,114.359 140.986,114.359 L141.424,111.73 L142.465,109.32 L143.177,108.334" id="Fill-31" fill="#78C800" sketch:type="MSShapeGroup"/><path d="M106.94,220.28 C107.431,220.263 107.919,220.24 108.402,220.213 C108.545,220.204 108.69,220.198 108.833,220.189 C109.438,220.15 110.037,220.105 110.63,220.05 C110.752,220.039 110.873,220.025 110.995,220.014 C111.478,219.967 111.957,219.914 112.431,219.857 C112.595,219.837 112.759,219.817 112.922,219.796 C113.456,219.727 113.985,219.653 114.508,219.572 L114.646,219.551 C115.215,219.461 115.775,219.362 116.331,219.257 C116.476,219.23 116.619,219.201 116.763,219.173 C117.202,219.086 117.638,218.996 118.069,218.9 C118.198,218.872 118.327,218.845 118.455,218.816 C118.995,218.693 119.53,218.564 120.057,218.427 L120.281,218.366 C120.738,218.246 121.19,218.121 121.638,217.99 C121.773,217.951 121.909,217.911 122.043,217.87 C122.5,217.734 122.952,217.592 123.399,217.446 L123.57,217.391 C124.076,217.223 124.574,217.048 125.067,216.868 C125.174,216.828 125.281,216.787 125.388,216.747 C125.789,216.598 126.185,216.445 126.577,216.288 C126.684,216.244 126.792,216.202 126.899,216.159 C127.38,215.962 127.857,215.761 128.326,215.553 L128.382,215.527 C128.827,215.329 129.265,215.125 129.7,214.917 C129.806,214.866 129.913,214.814 130.019,214.763 C130.414,214.569 130.806,214.373 131.193,214.173 L131.363,214.085 C131.809,213.852 132.248,213.613 132.681,213.37 L132.899,213.245 C133.264,213.039 133.625,212.828 133.981,212.614 L134.243,212.457 C135.079,211.949 135.892,211.423 136.682,210.881 L136.926,210.711 C137.269,210.473 137.607,210.233 137.94,209.99 L138.099,209.875 C138.486,209.59 138.868,209.301 139.243,209.009 L139.376,208.905 C139.704,208.648 140.027,208.389 140.347,208.127 L140.564,207.948 C141.282,207.353 141.979,206.745 142.653,206.126 L142.843,205.951 C143.132,205.684 143.417,205.415 143.698,205.144 L143.853,204.995 C144.182,204.675 144.506,204.354 144.824,204.03 L144.896,203.956 C145.184,203.662 145.467,203.366 145.746,203.069 L145.936,202.865 C146.223,202.557 146.507,202.246 146.785,201.934 L146.818,201.899 C147.112,201.568 147.401,201.235 147.685,200.901 L147.847,200.71 C148.08,200.434 148.311,200.156 148.538,199.879 L148.7,199.68 C148.97,199.346 149.236,199.012 149.497,198.677 L149.541,198.619 C149.781,198.309 150.017,197.998 150.249,197.687 L150.432,197.44 C150.642,197.156 150.85,196.872 151.054,196.587 L151.162,196.436 C151.397,196.106 151.627,195.776 151.853,195.446 L152.009,195.215 C152.186,194.955 152.36,194.695 152.531,194.436 C152.591,194.345 152.651,194.255 152.71,194.164 C152.921,193.84 153.13,193.516 153.333,193.193 L153.394,193.095 C153.578,192.803 153.756,192.512 153.933,192.222 C153.998,192.116 154.062,192.009 154.126,191.903 C154.267,191.669 154.405,191.435 154.541,191.202 C154.597,191.106 154.654,191.01 154.71,190.915 C154.886,190.611 155.059,190.308 155.228,190.007 C155.289,189.897 155.348,189.789 155.409,189.68 C155.525,189.472 155.639,189.264 155.752,189.057 C155.82,188.93 155.888,188.804 155.955,188.678 C156.073,188.46 156.187,188.242 156.301,188.025 C156.384,187.866 156.466,187.707 156.548,187.549 C156.657,187.337 156.765,187.125 156.871,186.915 C156.944,186.769 157.015,186.625 157.087,186.481 C157.164,186.324 157.241,186.168 157.317,186.013 C157.389,185.866 157.46,185.718 157.53,185.572 C157.624,185.378 157.714,185.186 157.804,184.994 C157.91,184.768 158.014,184.544 158.116,184.322 C158.169,184.206 158.222,184.09 158.274,183.974 C158.352,183.802 158.43,183.631 158.505,183.461 C158.546,183.369 158.586,183.278 158.626,183.186 C158.699,183.02 158.773,182.853 158.844,182.689 L158.845,182.688 C161.326,176.949 162.492,172.451 162.891,171.039 C163.191,169.979 165.63,172.024 171.325,172.024 C171.74,172.024 172.155,172.003 172.571,171.97 L172.475,171.97 C166.009,171.97 160.898,169.789 156.974,166.925 C149.307,159.789 140.767,145.237 140.767,124.818 C140.767,111.566 143.505,107.951 143.505,107.951 C143.505,107.951 136.714,112.661 136.714,136.866 C136.714,161.51 150.734,177.282 150.734,180.239 C150.734,182.676 141.576,191.579 124.564,194.637 C122.192,194.955 119.671,195.135 116.999,195.135 C57.636,195.135 71.546,147.052 67.384,147.052 C64.536,147.052 57.636,197.544 18.754,197.544 C11.544,197.544 8.686,194.72 7.554,192.362 C7.582,192.558 7.618,192.762 7.663,192.97 L7.668,192.991 C7.713,193.194 7.766,193.402 7.829,193.614 L7.841,193.653 C7.905,193.861 7.979,194.072 8.064,194.285 L8.085,194.336 C8.171,194.547 8.268,194.759 8.378,194.972 L8.409,195.031 C8.462,195.131 8.517,195.231 8.576,195.331 L8.586,195.349 C8.648,195.454 8.714,195.558 8.782,195.663 L8.826,195.728 C8.889,195.821 8.954,195.914 9.022,196.006 L9.049,196.045 C9.126,196.146 9.206,196.247 9.289,196.348 L9.347,196.417 L9.576,196.676 L9.622,196.726 C9.713,196.824 9.809,196.921 9.909,197.018 L9.981,197.086 C10.067,197.167 10.156,197.248 10.248,197.327 L10.314,197.385 C10.423,197.478 10.537,197.57 10.655,197.661 L10.74,197.725 C10.84,197.801 10.944,197.876 11.051,197.95 L11.137,198.01 C11.265,198.098 11.398,198.183 11.537,198.268 L11.634,198.326 C11.751,198.396 11.871,198.465 11.994,198.533 L12.102,198.592 C12.252,198.672 12.406,198.75 12.566,198.827 L12.673,198.877 C12.809,198.941 12.948,199.004 13.091,199.064 L13.22,199.12 C13.394,199.191 13.571,199.261 13.755,199.329 L13.868,199.369 C14.025,199.426 14.186,199.481 14.351,199.534 L14.503,199.583 C14.701,199.646 14.904,199.706 15.114,199.763 L15.226,199.792 C15.409,199.841 15.596,199.888 15.787,199.933 L15.961,199.973 C16.187,200.024 16.417,200.073 16.654,200.119 L16.76,200.138 C16.972,200.177 17.188,200.214 17.409,200.249 L17.605,200.279 C17.86,200.317 18.12,200.354 18.387,200.385 L18.477,200.395 C18.722,200.424 18.973,200.449 19.229,200.472 L19.448,200.491 C19.734,200.514 20.025,200.536 20.324,200.553 L20.383,200.556 C20.667,200.571 20.959,200.582 21.255,200.591 L21.5,200.598 C21.82,200.606 22.144,200.611 22.478,200.611 C42.959,200.611 50.078,185.934 52.378,185.934 C58.293,185.934 63.989,220.326 104.513,220.326 C105.153,220.326 105.784,220.314 106.411,220.297 C106.588,220.292 106.764,220.286 106.94,220.28" id="Fill-32" fill="#71B200" sketch:type="MSShapeGroup"/><path d="M82.76,213.68 C90.841,214.283 96.383,216.727 95.842,223.981 C95.301,231.235 85.282,231.874 80.048,231.483 C74.814,231.093 69.227,227.999 69.618,222.765 C70.008,217.531 75.46,213.136 82.76,213.68" id="Fill-33" fill="#D98500" sketch:type="MSShapeGroup"/><path d="M109.622,99.708 C109.622,99.708 108.032,119.984 117.887,119.81 C127.743,119.637 132.499,111.465 132.37,104.206 C132.243,96.947 109.622,99.708 109.622,99.708" id="Fill-34" fill="#F49000" sketch:type="MSShapeGroup"/><path d="M119.786,81.049 C121.891,81.049 122.808,82.72 122.808,85.036 C122.808,87.353 121.381,86.859 119.824,87.277 C111.014,89.593 106.571,102.352 100.572,102.352 C98.217,102.352 97.268,100.795 97.268,100.226 C97.268,98.099 97.572,100.074 99.471,100.074 C106.116,100.074 108.812,81.049 119.786,81.049" id="Fill-35" fill="#000000" sketch:type="MSShapeGroup"/><path d="M126.398,81.386 C127.766,81.386 131.457,82.777 134.379,90.617 C136.893,96.276 138.89,96.202 138.89,96.202 C140.776,96.202 140.184,95.462 140.665,95.462 C141.146,95.462 141.22,98.162 138.594,98.162 C135.969,98.162 135.71,94.168 133.528,91.838 C128.646,86.291 125.93,87.07 125.281,86.217 C124.228,84.833 124.689,81.386 126.398,81.386" id="Fill-36" fill="#000000" sketch:type="MSShapeGroup"/><path d="M123.954,86.977 C131.019,86.977 136.879,94.808 136.879,103.242 C136.879,111.675 130.636,120.109 128.5,120.109 C126.364,120.109 120.066,103.461 109.168,103.461 C108.183,103.461 108.018,103.022 108.018,102.475 C108.018,101.927 108.237,86.977 123.954,86.977" id="Fill-37" fill="#FFC200" sketch:type="MSShapeGroup"/><path d="M128.82,92.475 C128.766,93.908 126.591,94.99 123.963,94.891 C121.334,94.792 119.247,93.55 119.301,92.117 C119.355,90.683 121.53,89.602 124.158,89.701 C126.786,89.799 128.874,91.042 128.82,92.475" id="Fill-38" fill="#FFF3B8" sketch:type="MSShapeGroup"/><path d="M88.508,53.367 C91.875,53.367 94.658,54.227 96.804,55.274 C92.944,52.098 88.281,50.27 83.282,50.358 C70.942,50.576 61.043,62.358 60.395,77.095 C64.589,59.86 79.324,53.367 88.508,53.367" id="Fill-39" fill="#8EE000" sketch:type="MSShapeGroup"/><path d="M152.985,53.562 C149.656,53.507 146.488,54.584 143.696,56.516 C144.742,56.108 145.929,55.816 147.204,55.816 C156.92,55.816 169.682,64.379 169.682,79.941 C169.682,83.66 169.404,87.045 168.894,89.687 C170.203,86.433 171.001,82.776 171.137,78.902 C171.622,65.079 163.495,53.734 152.985,53.562" id="Fill-40" fill="#8EE000" sketch:type="MSShapeGroup"/><path d="M59.571,75.203 L61.615,71.406 L63.368,66.732 L66.142,62.059 L71.254,56.948 L77.241,54.465 L86.003,51.399 L89.946,52.567 L92.429,53.297 L94.766,54.027 L97.686,52.275 C97.686,52.275 85.565,44.535 84.981,43.951 C84.397,43.367 72.714,40.884 71.108,41.176 C69.501,41.468 60.593,48.186 60.593,48.186 L56.212,62.79 C56.212,62.79 55.92,70.968 56.212,71.406 C56.504,71.844 59.571,75.203 59.571,75.203" id="Fill-41" fill="#8EE000" sketch:type="MSShapeGroup"/><path d="M141.935,53.735 L147.338,54.758 L153.91,56.656 L159.752,58.409 L163.841,61.037 L166.177,65.126 C166.177,65.126 167.345,68.777 167.638,69.215 C167.93,69.653 169.098,72.282 169.39,72.72 C169.682,73.158 170.266,77.539 170.266,77.539 C170.266,77.539 169.974,82.358 170.412,82.65 C170.85,82.943 172.603,82.504 173.041,80.314 C173.479,78.123 173.771,70.968 173.917,69.215 C174.063,67.463 173.333,60.161 172.749,58.555 C172.165,56.948 168.952,52.129 167.93,50.669 C166.907,49.208 157.123,46.141 156.685,45.995 C156.247,45.849 149.091,46.58 147.923,46.872 C146.754,47.164 142.081,52.567 142.081,52.567 L141.351,54.174" id="Fill-42" fill="#8EE000" sketch:type="MSShapeGroup"/><path d="M103.369,102.363 C103.369,106.626 100.965,109.126 97.999,109.126 C95.033,109.126 92.629,106.626 92.629,102.363 C92.629,98.101 95.652,92.339 97.999,90.827 C100.346,92.498 103.369,98.101 103.369,102.363" id="Fill-43" fill="#2199EB" sketch:type="MSShapeGroup"/><path d="M17.432,152.746 C14.686,160.804 12.242,168.35 10.462,174.712 C12.678,173.815 16.405,172.824 22.073,172.824 C32.434,172.824 47.832,178.437 47.256,183.185 C46.68,187.934 35.168,197.432 15.597,197.432 C12.231,197.432 10.042,196.588 8.625,195.413 C10.213,198.044 13.916,200.611 22.478,200.611 C42.959,200.611 50.078,185.934 52.378,185.934 C54.129,185.934 55.86,188.947 58.481,193.188 L60.687,181.315 L36.319,155.987 L17.432,152.746" id="Fill-44" fill="#71B200" sketch:type="MSShapeGroup"/><path d="M97.718,97.603 C97.311,99.053 96.38,100.059 95.637,99.851 C94.895,99.643 94.623,98.299 95.03,96.849 C95.437,95.399 96.368,94.393 97.111,94.601 C97.853,94.809 98.125,96.153 97.718,97.603" id="Fill-45" fill="#27C2FF" sketch:type="MSShapeGroup"/><path d="M63.613,252.115 L63.613,246.935 L62.318,246.167 L60.111,248.47 L59.2,251.108 L59.296,253.171 L63.613,252.115" id="Fill-46" fill="#000000" sketch:type="MSShapeGroup"/><path d="M114.603,146.057 L112.38,149.923 L115.762,154.175 L122.367,154.82 L123.075,151.373 L128.778,152.726 L131.806,155.979 L135.446,154.079 L139.892,150.986 C139.892,150.986 141.309,145.96 141.309,145.864 C141.309,145.767 137.54,143.222 137.25,143.19 C136.96,143.158 131.194,143.286 131.194,143.286 C131.194,143.286 122.367,142.868 122.238,142.835 C122.109,142.803 114.603,146.057 114.603,146.057" id="Fill-47" fill="#B2B2B2" sketch:type="MSShapeGroup"/><path d="M127.734,159.093 C130.701,157.397 133.721,155.802 136.885,154.51 L132.458,146.829 L122.305,147.937 L119.16,156.597 C122.074,157.12 124.892,158.19 127.734,159.093" id="Fill-48" fill="#111111" sketch:type="MSShapeGroup"/><path d="M114.27,143.933 C114.27,143.933 123.954,150.99 127.494,150.929 C131.034,150.868 138.501,144.364 138.478,143.019 C138.454,141.674 129.027,130.797 126.885,130.911 C124.501,131.038 117.088,138.926 114.27,143.933" id="Fill-49" fill="#111111" sketch:type="MSShapeGroup"/><path d="M141.113,128.118 C136.688,129.454 131.825,130.362 126.489,130.647 C78.684,133.195 55.727,105.201 55.727,105.201 L54.263,116.563 L62.407,127.633 L79.143,143.572 L90.905,144.269 C90.905,144.269 105.357,151.063 108.94,150.872 C112.523,150.681 121.363,132.054 126.927,131.758 C130.604,131.562 139.884,146.007 141.864,145.902 C142.338,145.876 143.279,145.705 144.559,145.291 C142.097,140.239 141.366,133.401 141.113,128.118" id="Fill-50" fill="#FFFFFF" sketch:type="MSShapeGroup"/><path d="M125.226,130.702 L126.103,131.924 C126.384,131.829 126.659,131.772 126.927,131.758 C127.677,131.718 128.661,132.288 129.769,133.22 L129.486,132.194 L128.004,130.647 L127.682,130.569 C127.286,130.597 126.89,130.625 126.489,130.647 C126.064,130.669 125.646,130.684 125.226,130.702" id="Fill-51" fill="#B2B2B2" sketch:type="MSShapeGroup"/><path d="M130.389,133.748 C130.389,133.748 126.7,131.061 125.136,130.104 C123.572,129.147 132.204,131.429 142.041,127.926" id="Fill-52" fill="#FFFFFF" sketch:type="MSShapeGroup"/><path d="M41.02,77.32 C41.02,75.497 35.839,86.05 35.839,89.792 C35.839,96.795 29.7,102.839 29.7,106.101 C29.7,109.363 30.851,111.089 31.235,111.761 C29.796,113.488 14.926,145.818 14.926,149.464 C14.926,153.109 16.461,154.644 15.885,155.22 C15.309,155.796 9.937,162.703 10.896,169.227 C14.542,168.268 36.223,168.843 55.219,181.986 C52.149,185.632 50.422,187.167 50.422,187.167 C50.422,187.167 59.632,204.531 102.515,204.531 C102.323,206.546 101.748,208.944 102.995,208.944 C104.242,208.944 153.265,209.424 165.545,178.437 C166.6,175.463 166.504,171.241 166.504,171.241 C166.504,171.241 169.67,172.297 173.7,172.297 C177.729,172.297 196.148,165.965 196.148,146.202 C196.148,126.439 187.898,105.237 187.898,105.237 C187.898,105.237 188.857,98.906 188.857,96.028 C188.857,93.149 183.965,87.393 183.965,84.707 C183.965,82.021 184.252,75.593 182.142,75.593 C180.895,76.745 182.909,91.711 169.67,110.706 C171.301,111.377 175.043,113.488 177.345,116.078 C179.648,118.668 167.848,145.914 146.358,148.217 C144.823,145.531 143.96,144.188 143.96,144.188 L129.665,156.467 C129.665,156.467 41.02,112.145 41.02,77.32" id="Fill-53" fill="#68111B" sketch:type="MSShapeGroup"/><path d="M173.721,172.297 L173.7,172.297 L173.721,172.297 M173.743,172.297 L173.727,172.297 L173.743,172.297 M173.771,172.296 L173.749,172.296 L173.771,172.296 M173.792,172.296 L173.776,172.296 L173.792,172.296 M173.817,172.295 C173.812,172.295 173.806,172.295 173.801,172.296 C173.806,172.295 173.812,172.295 173.817,172.295 M173.845,172.294 C173.837,172.295 173.83,172.295 173.823,172.295 C173.83,172.295 173.837,172.295 173.845,172.294 M173.868,172.293 C173.862,172.294 173.857,172.294 173.852,172.294 C173.857,172.294 173.862,172.294 173.868,172.293 M173.897,172.292 C173.89,172.293 173.883,172.293 173.875,172.293 C173.883,172.293 173.89,172.293 173.897,172.292 M173.921,172.291 C173.915,172.291 173.91,172.292 173.904,172.292 C173.91,172.292 173.915,172.291 173.921,172.291 M173.946,172.29 C173.941,172.29 173.935,172.29 173.93,172.291 C173.935,172.29 173.941,172.29 173.946,172.29 M173.976,172.288 C173.968,172.289 173.961,172.289 173.953,172.289 C173.961,172.289 173.969,172.289 173.976,172.288 M174.001,172.287 C173.995,172.287 173.99,172.287 173.984,172.288 C173.99,172.287 173.995,172.287 174.001,172.287 M174.029,172.285 C174.022,172.285 174.016,172.286 174.01,172.286 C174.016,172.286 174.023,172.285 174.029,172.285 M174.057,172.283 C174.051,172.283 174.046,172.284 174.04,172.284 C174.046,172.284 174.052,172.283 174.057,172.283 M174.083,172.281 C174.077,172.281 174.073,172.282 174.067,172.282 C174.073,172.282 174.077,172.281 174.083,172.281 M174.115,172.278 C174.107,172.279 174.1,172.279 174.093,172.28 C174.1,172.279 174.107,172.279 174.115,172.278 M174.141,172.276 C174.137,172.276 174.132,172.277 174.127,172.277 C174.132,172.277 174.137,172.276 174.141,172.276 M174.169,172.274 C174.163,172.274 174.157,172.275 174.152,172.275 C174.157,172.275 174.163,172.274 174.169,172.274 M174.202,172.271 C174.196,172.271 174.19,172.272 174.184,172.272 C174.19,172.272 174.196,172.271 174.202,172.271 M174.227,172.268 C174.223,172.269 174.218,172.269 174.213,172.27 C174.218,172.269 174.223,172.269 174.227,172.268 M174.263,172.265 C174.255,172.266 174.247,172.266 174.24,172.267 C174.247,172.266 174.255,172.266 174.263,172.265 M174.288,172.262 C174.284,172.262 174.28,172.263 174.276,172.263 C174.28,172.263 174.284,172.262 174.288,172.262 M174.314,172.259 C174.311,172.26 174.307,172.26 174.304,172.26 C174.307,172.26 174.311,172.26 174.314,172.259 M174.377,172.252 C174.375,172.252 174.372,172.253 174.37,172.253 C174.373,172.253 174.375,172.252 174.377,172.252 M174.466,172.241 L174.465,172.241 L174.466,172.241 M15.893,155.212 C15.892,155.213 15.892,155.213 15.891,155.214 C15.892,155.213 15.892,155.213 15.893,155.212 M15.899,155.205 C15.899,155.206 15.898,155.207 15.897,155.208 C15.898,155.207 15.899,155.206 15.899,155.205 M15.905,155.199 C15.904,155.2 15.904,155.2 15.903,155.201 C15.904,155.2 15.904,155.2 15.905,155.199 M15.912,155.19 C15.912,155.191 15.911,155.192 15.91,155.193 C15.911,155.192 15.911,155.191 15.912,155.19 M15.918,155.184 C15.917,155.185 15.916,155.186 15.915,155.187 C15.916,155.186 15.917,155.185 15.918,155.184 M15.923,155.177 C15.922,155.178 15.921,155.179 15.921,155.18 C15.921,155.179 15.922,155.178 15.923,155.177 M15.93,155.168 C15.929,155.169 15.928,155.17 15.927,155.172 C15.928,155.17 15.929,155.169 15.93,155.168 M15.935,155.161 C15.934,155.162 15.933,155.163 15.932,155.165 C15.933,155.163 15.934,155.162 15.935,155.161 M15.939,155.154 C15.938,155.155 15.937,155.157 15.936,155.158 C15.937,155.157 15.938,155.155 15.939,155.154 M15.95,155.136 C15.947,155.142 15.944,155.147 15.94,155.152 C15.944,155.147 15.947,155.142 15.95,155.136 M15.954,155.13 C15.953,155.132 15.952,155.134 15.951,155.136 C15.952,155.134 15.953,155.132 15.954,155.13 M15.996,155.026 C15.986,155.063 15.973,155.097 15.954,155.13 C15.973,155.097 15.986,155.063 15.996,155.026 M15.998,155.019 C15.997,155.021 15.997,155.023 15.996,155.025 C15.997,155.023 15.997,155.021 15.998,155.019 M15.999,155.012 C15.999,155.014 15.999,155.016 15.998,155.018 C15.999,155.016 15.999,155.014 15.999,155.012 M16.002,155.001 C16.001,155.004 16.001,155.007 16,155.009 C16.001,155.007 16.001,155.004 16.002,155.001 M16.003,154.993 L16.003,154.996 L16.003,154.993 M16.005,154.985 L16.005,154.987 L16.005,154.985" id="Fill-54" fill="#CCCCCC" sketch:type="MSShapeGroup"/><path d="M115.116,195.242 C110.577,195.242 105.573,194.845 106.928,190.141 C109.23,180.643 117.385,169.611 117.385,169.611 C123.825,166.577 137.166,164.357 141.854,163.644 C144.954,171.023 150.195,175.556 150.195,179.684 C150.195,189.373 122.661,195.225 117.769,195.225 C116.942,195.225 116.038,195.242 115.116,195.242 M187.706,124.137 L184.06,124.137 L172.356,139.774 L171.688,144.773 L150.291,150.519 L141.513,153.685 L140.979,155.182 L138.131,155.34 L127.842,161.384 C127.842,161.384 126.714,162.117 125.05,163.323 L124.964,161.552 C97.047,181.411 108.847,192.443 98.39,192.443 C63.757,192.443 72.487,148.313 68.074,148.313 C63.661,148.313 67.402,165.197 62.51,165.197 C59.536,165.197 48.215,150.519 22.792,150.519 C22.285,150.501 21.817,150.493 21.382,150.493 C18.332,150.493 16.904,150.919 15.124,151.641 C15.459,153.435 16.093,154.441 16.006,154.976 C16.006,154.979 16.005,154.982 16.005,154.985 L16.005,154.987 C16.004,154.989 16.004,154.991 16.003,154.993 L16.003,154.996 C16.002,154.998 16.002,155 16.002,155.001 C16.001,155.004 16.001,155.007 16,155.009 C16,155.01 16,155.011 15.999,155.012 C15.999,155.014 15.999,155.016 15.998,155.018 L15.998,155.019 C15.997,155.021 15.997,155.023 15.996,155.025 L15.996,155.026 C15.986,155.063 15.973,155.097 15.954,155.13 C15.953,155.132 15.952,155.134 15.951,155.136 C15.951,155.136 15.951,155.136 15.95,155.136 C15.947,155.142 15.944,155.147 15.94,155.152 C15.94,155.153 15.94,155.154 15.939,155.154 C15.938,155.155 15.937,155.157 15.936,155.158 C15.936,155.159 15.935,155.16 15.935,155.161 C15.934,155.162 15.933,155.163 15.932,155.165 C15.931,155.166 15.93,155.167 15.93,155.168 C15.929,155.169 15.928,155.17 15.927,155.172 C15.926,155.174 15.924,155.175 15.923,155.177 C15.922,155.178 15.921,155.179 15.921,155.18 C15.92,155.181 15.919,155.182 15.918,155.184 C15.917,155.185 15.916,155.186 15.915,155.187 C15.914,155.188 15.913,155.189 15.912,155.19 C15.911,155.191 15.911,155.192 15.91,155.193 C15.908,155.195 15.907,155.197 15.905,155.199 C15.904,155.2 15.904,155.2 15.903,155.201 C15.902,155.202 15.901,155.204 15.899,155.205 C15.899,155.206 15.898,155.207 15.897,155.208 C15.896,155.209 15.894,155.21 15.893,155.212 C15.892,155.213 15.892,155.213 15.891,155.214 C15.889,155.216 15.887,155.218 15.885,155.22 C15.356,155.748 10.786,161.612 10.782,167.617 C10.781,168.154 10.818,168.692 10.896,169.227 C11.578,169.047 12.889,168.922 14.695,168.922 C22.553,168.922 39.773,171.299 55.219,181.986 C52.149,185.632 50.422,187.167 50.422,187.167 C50.422,187.167 59.632,204.531 102.515,204.531 C102.416,205.57 102.215,206.711 102.215,207.572 C102.214,208.382 102.391,208.944 102.995,208.944 C103.032,208.944 103.113,208.945 103.234,208.945 C107.148,208.945 153.633,208.495 165.545,178.437 C166.436,175.927 166.506,172.53 166.507,171.53 C166.507,171.344 166.504,171.241 166.504,171.241 C166.504,171.241 169.67,172.297 173.7,172.297 L173.721,172.297 L173.727,172.297 L173.743,172.297 C173.745,172.297 173.747,172.296 173.749,172.296 L173.771,172.296 L173.776,172.296 L173.792,172.296 L173.801,172.296 C173.806,172.295 173.812,172.295 173.817,172.295 L173.823,172.295 C173.83,172.295 173.837,172.295 173.845,172.294 L173.852,172.294 C173.857,172.294 173.862,172.294 173.868,172.293 L173.875,172.293 C173.883,172.293 173.89,172.293 173.897,172.292 L173.904,172.292 C173.91,172.292 173.915,172.291 173.921,172.291 L173.93,172.291 C173.935,172.29 173.941,172.29 173.946,172.29 C173.949,172.29 173.951,172.29 173.953,172.289 C173.961,172.289 173.968,172.289 173.976,172.288 L173.984,172.288 C173.99,172.287 173.995,172.287 174.001,172.287 C174.004,172.287 174.007,172.286 174.01,172.286 C174.016,172.286 174.022,172.285 174.029,172.285 C174.033,172.285 174.036,172.284 174.04,172.284 C174.046,172.284 174.051,172.283 174.057,172.283 C174.061,172.283 174.064,172.282 174.067,172.282 C174.073,172.282 174.077,172.281 174.083,172.281 C174.086,172.281 174.09,172.28 174.093,172.28 C174.1,172.279 174.107,172.279 174.115,172.278 C174.119,172.278 174.123,172.278 174.127,172.277 C174.132,172.277 174.137,172.276 174.141,172.276 C174.145,172.276 174.148,172.275 174.152,172.275 C174.157,172.275 174.163,172.274 174.169,172.274 C174.174,172.273 174.179,172.273 174.184,172.272 C174.19,172.272 174.196,172.271 174.202,172.271 C174.205,172.27 174.209,172.27 174.213,172.27 C174.218,172.269 174.223,172.269 174.227,172.268 C174.231,172.268 174.235,172.267 174.24,172.267 C174.247,172.266 174.255,172.266 174.263,172.265 C174.267,172.264 174.271,172.264 174.276,172.263 C174.28,172.263 174.284,172.262 174.288,172.262 C174.294,172.261 174.299,172.261 174.304,172.26 C174.307,172.26 174.311,172.26 174.314,172.259 C174.332,172.257 174.351,172.255 174.37,172.253 C174.372,172.253 174.375,172.252 174.377,172.252 C174.406,172.249 174.435,172.245 174.465,172.241 C174.464,172.241 174.465,172.241 174.466,172.241 C178.12,171.775 187.401,168.318 192.557,159.763 C189.868,162.197 187.59,163.19 185.663,163.19 C181.931,163.19 179.515,159.468 177.977,155.282 C177.662,153.862 177.698,152.294 178.688,150.999 C187.419,139.774 187.994,129.893 188.282,127.399 C188.57,124.905 187.706,124.137 187.706,124.137" id="Fill-55" fill="#530E16" sketch:type="MSShapeGroup"/><path d="M178.304,113.968 C176.865,113.296 176.77,114.735 176.29,114.927 L176.237,114.964 C176.63,115.324 177.004,115.695 177.345,116.078 C179.648,118.669 167.848,145.914 146.358,148.217 C144.823,145.531 143.959,144.188 143.959,144.188 L129.665,156.467 C129.665,156.467 41.02,112.145 41.02,77.32 C41.02,75.497 35.84,86.05 35.84,89.792 C35.84,96.795 29.7,102.839 29.7,106.101 C29.7,110.802 44.762,143.9 124.197,161.552 C121.031,163.854 118.536,167.692 117.385,169.61 C120.071,168.939 143.192,158.098 146.454,156.083 C147.605,155.7 149.811,162.703 152.114,162.319 C154.416,161.936 181.374,160.688 187.898,124.808 C188.57,119.724 179.743,114.639 178.304,113.968" id="Fill-56" fill="#A3171E" sketch:type="MSShapeGroup"/><path d="M56.754,183.233 C58.289,183.233 63.469,179.588 63.469,172.489 C63.469,162.319 33.153,154.645 19.435,154.645 C17.929,154.645 16.808,154.821 15.982,155.056 L15.885,155.22 C15.309,155.796 9.937,162.703 10.896,169.227 C14.542,168.267 36.223,168.843 55.219,181.986 L55.198,182.011 C55.861,182.489 55.398,183.233 56.754,183.233" id="Fill-57" fill="#A3171E" sketch:type="MSShapeGroup"/><path d="M187.898,105.237 C187.898,105.237 188.857,98.906 188.857,96.028 C188.857,93.15 183.965,87.393 183.965,84.707 C183.965,82.021 184.253,75.593 182.142,75.593 C180.895,76.745 182.909,91.711 169.67,110.706 C171.301,111.377 175.043,113.488 177.345,116.078 C177.92,116.725 177.615,118.911 176.499,121.862 C177.377,121.301 178.328,120.597 179.36,119.724 C184.102,115.712 186.609,110.261 187.924,105.304 L187.898,105.237" id="Fill-58" fill="#A3171E" sketch:type="MSShapeGroup"/><path d="M0.487,252.115 L0.487,246.935 L1.782,246.167 L3.989,248.47 L4.9,251.108 L4.804,253.171 L0.487,252.115" id="Fill-59" fill="#000000" sketch:type="MSShapeGroup"/><path d="M68.458,245.208 C68.458,246.455 68.362,247.702 68.362,247.846 C68.362,247.99 65.1,248.95 64.764,250.005 C64.429,251.06 63.469,253.698 62.942,253.986 C62.414,254.274 61.455,252.115 61.455,252.115 L60.639,249.189 L61.742,245.448 L64.86,244.345 L68.458,245.208" id="Fill-60" fill="#000000" sketch:type="MSShapeGroup"/><path d="M63.661,252.115 C63.661,257.281 49.519,261.469 32.074,261.469 C14.629,261.469 0.487,257.281 0.487,252.115 C0.487,246.949 14.629,242.762 32.074,242.762 C49.519,242.762 63.661,246.949 63.661,252.115" id="Fill-61" fill="#000000" sketch:type="MSShapeGroup"/><path d="M63.661,246.935 C63.661,252.101 49.519,256.289 32.074,256.289 C14.629,256.289 0.487,252.101 0.487,246.935 C0.487,241.769 14.629,237.581 32.074,237.581 C49.519,237.581 63.661,241.769 63.661,246.935" id="Fill-62" fill="#772B11" sketch:type="MSShapeGroup"/><path d="M32.121,251.828 L32.152,251.828 L32.121,251.828 M32.323,251.828 L32.292,251.828 L32.323,251.828 M32.048,251.828 L32.082,251.828 L32.048,251.828 M32.395,251.828 L32.361,251.828 L32.395,251.828 M31.98,251.828 L32.004,251.828 L31.98,251.828 M32.464,251.828 L32.44,251.828 L32.464,251.828 M31.879,251.827 L31.928,251.827 L31.879,251.827 M32.565,251.827 L32.515,251.827 L32.565,251.827 M31.807,251.827 L31.84,251.827 L31.807,251.827 M32.637,251.827 L32.604,251.827 L32.637,251.827 M31.736,251.827 L31.768,251.827 L31.736,251.827 M32.708,251.827 L32.675,251.827 L32.708,251.827 M31.663,251.826 L31.695,251.826 L31.663,251.826 M32.781,251.826 L32.748,251.826 L32.781,251.826 M31.56,251.826 L31.628,251.826 L31.56,251.826 M32.884,251.826 L32.813,251.826 L32.884,251.826 M31.496,251.825 C31.507,251.825 31.517,251.825 31.528,251.826 C31.518,251.825 31.507,251.825 31.496,251.825 M32.948,251.825 C32.937,251.825 32.926,251.825 32.915,251.826 C32.926,251.825 32.937,251.825 32.948,251.825 M31.422,251.825 L31.454,251.825 L31.422,251.825 M33.022,251.825 L32.989,251.825 L33.022,251.825 M31.352,251.824 L31.384,251.824 L31.352,251.824 M33.092,251.824 L33.058,251.824 L33.092,251.824 M31.255,251.823 C31.275,251.823 31.295,251.824 31.315,251.824 C31.295,251.824 31.275,251.823 31.255,251.823 M33.19,251.823 C33.168,251.823 33.147,251.824 33.126,251.824 C33.147,251.824 33.169,251.823 33.19,251.823 M31.181,251.823 L31.213,251.823 L31.181,251.823 M33.263,251.823 L33.229,251.823 L33.263,251.823 M31.109,251.822 L31.148,251.822 L31.109,251.822 M33.335,251.822 L33.295,251.822 L33.335,251.822 M30.859,251.819 C30.932,251.82 31.008,251.821 31.081,251.822 C31.007,251.821 30.933,251.82 30.859,251.819 M33.586,251.819 C33.511,251.82 33.436,251.821 33.361,251.822 C33.436,251.821 33.511,251.82 33.586,251.819 M30.792,251.818 C30.809,251.818 30.826,251.819 30.844,251.819 C30.827,251.819 30.809,251.818 30.792,251.818 M33.653,251.818 C33.635,251.818 33.616,251.819 33.598,251.819 C33.616,251.819 33.635,251.818 33.653,251.818 M55.368,247.81 L55.564,247.653 L55.368,247.81 M55.687,247.55 L55.844,247.402 L55.687,247.55 M55.959,247.283 L56.08,247.143 L55.959,247.283 M56.18,247.009 L56.269,246.877 L56.18,247.009 M56.349,246.726 L56.406,246.605 L56.349,246.726 M56.463,246.428 L56.491,246.329 L56.463,246.428 M32.51,240.268 C35.471,240.276 38.303,240.411 40.919,240.65 L36.35,244.38 C44.961,244.73 52.023,246.159 54.999,248.061 C55.033,248.039 55.066,248.018 55.098,247.996 L55.251,247.891 C55.201,247.926 55.15,247.961 55.098,247.996 L55.001,248.062 C55.001,248.062 55,248.061 54.999,248.061 C51.721,250.158 43.474,251.682 33.658,251.818 C46.409,251.641 56.521,249.125 56.521,246.048 C56.521,242.878 45.798,240.304 32.51,240.268 M9.076,247.81 L8.88,247.653 L9.076,247.81 M8.756,247.55 L8.6,247.402 L8.756,247.55 M8.484,247.283 L8.363,247.143 L8.484,247.283 M8.264,247.009 L8.175,246.877 L8.264,247.009 M8.095,246.726 L8.037,246.605 L8.095,246.726 M7.98,246.428 L7.952,246.329 L7.98,246.428 M32.014,240.268 C18.689,240.294 7.922,242.871 7.922,246.048 C7.922,249.125 18.032,251.641 30.782,251.818 C20.967,251.681 12.722,250.158 9.444,248.061 C9.444,248.061 9.443,248.062 9.442,248.062 L9.345,247.996 C9.293,247.961 9.242,247.926 9.193,247.891 L9.345,247.996 C9.378,248.018 9.411,248.039 9.444,248.061 C11.455,246.776 15.331,245.707 20.289,245.041 L25.893,240.467 C27.848,240.342 29.898,240.272 32.014,240.268 M32.366,240.267 C32.413,240.268 32.46,240.268 32.507,240.268 C32.461,240.268 32.413,240.268 32.366,240.267 M32.108,240.267 C32.078,240.267 32.049,240.268 32.02,240.268 C32.049,240.268 32.078,240.267 32.108,240.267 M32.222,240.267 L32.363,240.267 L32.222,240.267 L32.125,240.267 L32.222,240.267" id="Fill-63" fill="#9F8070" sketch:type="MSShapeGroup"/><path d="M8.363,247.143 L8.484,247.283 L8.363,247.143" id="Fill-64" fill="#C5B3A9" sketch:type="MSShapeGroup"/><path d="M32.292,251.828 L32.222,251.828 L32.292,251.828 M32.152,251.828 L32.222,251.828 L32.152,251.828 M32.361,251.828 L32.323,251.828 L32.361,251.828 M32.082,251.828 L32.121,251.828 L32.082,251.828 M32.44,251.828 L32.395,251.828 L32.44,251.828 M32.004,251.828 L32.048,251.828 L32.004,251.828 M32.515,251.827 C32.498,251.827 32.481,251.828 32.464,251.828 C32.481,251.828 32.498,251.827 32.515,251.827 M31.928,251.827 C31.945,251.827 31.963,251.828 31.98,251.828 C31.963,251.828 31.945,251.827 31.928,251.827 M32.604,251.827 L32.565,251.827 L32.604,251.827 M31.84,251.827 L31.879,251.827 L31.84,251.827 M32.675,251.827 L32.637,251.827 L32.675,251.827 M31.768,251.827 L31.807,251.827 L31.768,251.827 M32.748,251.826 C32.734,251.826 32.722,251.827 32.708,251.827 C32.721,251.827 32.735,251.826 32.748,251.826 M31.695,251.826 C31.708,251.826 31.722,251.827 31.736,251.827 C31.722,251.827 31.709,251.826 31.695,251.826 M32.813,251.826 L32.781,251.826 L32.813,251.826 M31.628,251.826 L31.663,251.826 L31.628,251.826 M32.915,251.826 L32.884,251.826 L32.915,251.826 M31.528,251.826 L31.56,251.826 L31.528,251.826 M32.989,251.825 L32.948,251.825 L32.989,251.825 M31.454,251.825 L31.496,251.825 L31.454,251.825 M33.058,251.824 C33.046,251.825 33.034,251.825 33.022,251.825 C33.033,251.825 33.047,251.825 33.058,251.824 M31.384,251.824 C31.397,251.825 31.409,251.825 31.422,251.825 C31.41,251.825 31.396,251.825 31.384,251.824 M33.126,251.824 L33.092,251.824 L33.126,251.824 M31.315,251.824 L31.352,251.824 L31.315,251.824 M33.229,251.823 L33.19,251.823 L33.229,251.823 M31.213,251.823 L31.255,251.823 L31.213,251.823 M33.295,251.822 C33.284,251.822 33.274,251.822 33.263,251.823 C33.274,251.822 33.285,251.822 33.295,251.822 M31.148,251.822 C31.159,251.822 31.17,251.822 31.181,251.823 C31.17,251.822 31.159,251.822 31.148,251.822 M33.361,251.822 L33.335,251.822 L33.361,251.822 M31.081,251.822 L31.109,251.822 L31.081,251.822 M33.598,251.819 L33.586,251.819 L33.598,251.819 M30.844,251.819 L30.859,251.819 L30.844,251.819 M33.658,251.818 L33.653,251.818 L33.658,251.818 M30.782,251.818 L30.792,251.818 L30.782,251.818" id="Fill-65" fill="#AD8070" sketch:type="MSShapeGroup"/><path d="M9.345,247.996 L9.442,248.062 C9.443,248.062 9.444,248.061 9.444,248.061 C9.411,248.039 9.378,248.018 9.345,247.996 M55.098,247.996 C55.066,248.018 55.033,248.039 54.999,248.061 C55,248.061 55.001,248.062 55.001,248.062 L55.098,247.996 M9.193,247.891 C9.242,247.926 9.293,247.961 9.345,247.996 L9.193,247.891 M55.251,247.891 L55.098,247.996 C55.15,247.961 55.201,247.926 55.251,247.891 M36.35,244.38 L27.367,251.712 L27.336,251.711 L27.228,251.705 C26.906,251.689 26.586,251.671 26.268,251.652 C26.14,251.644 26.014,251.636 25.887,251.628 C25.66,251.613 25.434,251.598 25.21,251.582 L24.793,251.552 C24.578,251.535 24.364,251.518 24.151,251.5 C24.019,251.489 23.886,251.478 23.755,251.466 C23.478,251.442 23.204,251.416 22.932,251.389 C22.782,251.375 22.633,251.359 22.485,251.344 C22.266,251.321 22.047,251.297 21.831,251.273 C21.68,251.256 21.532,251.238 21.382,251.221 C21.217,251.201 21.052,251.181 20.889,251.161 C20.729,251.14 20.571,251.12 20.414,251.099 C20.266,251.079 20.12,251.059 19.973,251.039 C19.811,251.016 19.649,250.994 19.489,250.971 C19.365,250.952 19.243,250.933 19.12,250.914 C18.791,250.864 18.467,250.812 18.149,250.758 C18.053,250.742 17.956,250.726 17.861,250.709 C17.681,250.678 17.505,250.646 17.329,250.613 C17.236,250.596 17.143,250.579 17.052,250.561 C16.872,250.527 16.695,250.492 16.519,250.457 L16.302,250.412 C15.649,250.277 15.027,250.135 14.438,249.985 L14.43,249.983 L14.283,249.944 L20.289,245.041 C15.331,245.707 11.455,246.776 9.444,248.061 C12.722,250.158 20.967,251.681 30.782,251.818 L30.792,251.818 C30.809,251.818 30.827,251.819 30.844,251.819 L30.859,251.819 C30.933,251.82 31.007,251.821 31.081,251.822 L31.109,251.822 L31.148,251.822 C31.159,251.822 31.17,251.822 31.181,251.823 L31.213,251.823 L31.255,251.823 C31.275,251.823 31.295,251.824 31.315,251.824 L31.352,251.824 L31.384,251.824 C31.396,251.825 31.41,251.825 31.422,251.825 L31.454,251.825 L31.496,251.825 C31.507,251.825 31.518,251.825 31.528,251.826 L31.56,251.826 L31.628,251.826 L31.663,251.826 L31.695,251.826 C31.709,251.826 31.722,251.827 31.736,251.827 L31.768,251.827 L31.807,251.827 L31.84,251.827 L31.879,251.827 L31.928,251.827 C31.945,251.827 31.963,251.828 31.98,251.828 L32.004,251.828 L32.048,251.828 L32.082,251.828 L32.121,251.828 L32.152,251.828 L32.222,251.828 L32.292,251.828 L32.323,251.828 L32.361,251.828 L32.395,251.828 L32.44,251.828 L32.464,251.828 C32.481,251.828 32.498,251.827 32.515,251.827 L32.565,251.827 L32.604,251.827 L32.637,251.827 L32.675,251.827 L32.708,251.827 C32.722,251.827 32.734,251.826 32.748,251.826 L32.781,251.826 L32.813,251.826 L32.884,251.826 L32.915,251.826 C32.926,251.825 32.937,251.825 32.948,251.825 L32.989,251.825 L33.022,251.825 C33.034,251.825 33.046,251.825 33.058,251.824 L33.092,251.824 L33.126,251.824 C33.147,251.824 33.168,251.823 33.19,251.823 L33.229,251.823 L33.263,251.823 C33.274,251.822 33.284,251.822 33.295,251.822 L33.335,251.822 L33.361,251.822 C33.436,251.821 33.511,251.82 33.586,251.819 L33.598,251.819 C33.616,251.819 33.635,251.818 33.653,251.818 L33.658,251.818 C43.474,251.682 51.721,250.158 54.999,248.061 C52.023,246.159 44.961,244.73 36.35,244.38" id="Fill-66" fill="#C5B3A9" sketch:type="MSShapeGroup"/><path d="M7.952,246.329 L7.98,246.428 L7.952,246.329" id="Fill-67" fill="#C5B3A9" sketch:type="MSShapeGroup"/><path d="M8.88,247.653 L9.076,247.81 L8.88,247.653" id="Fill-68" fill="#C5B3A9" sketch:type="MSShapeGroup"/><path d="M8.037,246.605 L8.095,246.726 L8.037,246.605" id="Fill-69" fill="#C5B3A9" sketch:type="MSShapeGroup"/><path d="M8.175,246.877 L8.264,247.009 L8.175,246.877" id="Fill-70" fill="#C5B3A9" sketch:type="MSShapeGroup"/><path d="M8.6,247.402 L8.756,247.55 L8.6,247.402" id="Fill-71" fill="#C5B3A9" sketch:type="MSShapeGroup"/><path d="M56.269,246.877 L56.18,247.009 L56.269,246.877" id="Fill-72" fill="#C5B3A9" sketch:type="MSShapeGroup"/><path d="M56.08,247.143 L55.959,247.283 L56.08,247.143" id="Fill-73" fill="#C5B3A9" sketch:type="MSShapeGroup"/><path d="M56.406,246.605 L56.349,246.726 L56.406,246.605" id="Fill-74" fill="#C5B3A9" sketch:type="MSShapeGroup"/><path d="M55.844,247.402 L55.687,247.55 L55.844,247.402" id="Fill-75" fill="#C5B3A9" sketch:type="MSShapeGroup"/><path d="M55.564,247.653 L55.368,247.81 L55.564,247.653" id="Fill-76" fill="#C5B3A9" sketch:type="MSShapeGroup"/><path d="M56.491,246.329 L56.463,246.428 L56.491,246.329" id="Fill-77" fill="#C5B3A9" sketch:type="MSShapeGroup"/><path d="M118.633,148.997 C116.376,147.344 113.239,146.444 109.865,146.438 C105.718,146.438 101.167,147.839 97.633,151.241 C94.094,154.64 91.687,160.006 91.697,167.58 C91.697,169.168 91.801,170.855 92.02,172.646 C92.966,180.391 93.978,189.32 93.977,198.174 C93.981,208.097 92.697,217.908 88.733,225.824 C86.751,229.785 84.111,233.279 80.615,236.137 C77.117,238.993 72.753,241.223 67.277,242.609 C66.583,242.785 66.163,243.489 66.339,244.183 C66.514,244.876 67.219,245.296 67.912,245.121 C73.712,243.654 78.447,241.254 82.254,238.143 C87.968,233.476 91.557,227.243 93.699,220.326 C95.843,213.404 96.566,205.78 96.568,198.174 C96.567,189.125 95.539,180.096 94.591,172.332 C94.384,170.637 94.287,169.055 94.287,167.58 C94.296,160.531 96.463,155.974 99.43,153.106 C102.401,150.24 106.286,149.029 109.865,149.028 C112.765,149.022 115.433,149.846 117.097,151.082 C117.672,151.506 118.483,151.384 118.907,150.808 C119.332,150.232 119.209,149.421 118.633,148.997" id="Fill-78" fill="#000000" sketch:type="MSShapeGroup"/><path d="M60.543,242.905 C61.886,243.385 64.716,242.81 65.436,242.762 C66.155,242.714 68.218,244.728 68.458,245.208 C68.698,245.688 64.045,245.64 63.709,246.743 C63.373,247.846 61.071,245.4 61.071,245.4 L60.351,242.905" id="Fill-79" fill="#772B11" sketch:type="MSShapeGroup"/><path d="M32.507,240.268 L32.51,240.268 L32.507,240.268 M32.02,240.268 L32.014,240.268 L32.02,240.268 M32.363,240.267 L32.366,240.267 L32.363,240.267 M32.125,240.267 L32.108,240.267 L32.125,240.267" id="Fill-80" fill="#A06B59" sketch:type="MSShapeGroup"/><path d="M32.222,240.267 L32.222,240.267 L32.125,240.267 L32.108,240.267 C32.078,240.267 32.049,240.268 32.02,240.268 L32.014,240.268 C29.898,240.272 27.848,240.342 25.893,240.467 L20.289,245.041 C23.814,244.567 27.885,244.297 32.222,244.297 C33.629,244.297 35.008,244.325 36.35,244.38 L40.919,240.65 C38.303,240.411 35.471,240.276 32.51,240.268 L32.507,240.268 C32.46,240.268 32.413,240.268 32.366,240.267 L32.363,240.267 L32.222,240.267" id="Fill-81" fill="#BCA69B" sketch:type="MSShapeGroup"/><path d="M32.222,244.297 C27.885,244.297 23.814,244.567 20.289,245.041 L14.283,249.944 L14.43,249.983 L14.438,249.985 C15.027,250.135 15.649,250.277 16.302,250.412 L16.519,250.457 C16.695,250.492 16.872,250.527 17.052,250.561 C17.143,250.579 17.236,250.596 17.329,250.613 C17.505,250.646 17.681,250.678 17.861,250.709 C17.956,250.726 18.053,250.742 18.149,250.758 C18.467,250.812 18.791,250.864 19.12,250.914 C19.243,250.933 19.365,250.952 19.489,250.971 C19.649,250.994 19.811,251.016 19.973,251.039 C20.12,251.059 20.266,251.079 20.414,251.099 C20.571,251.12 20.729,251.14 20.889,251.161 C21.052,251.181 21.217,251.201 21.382,251.221 C21.532,251.238 21.68,251.256 21.831,251.273 C22.047,251.297 22.266,251.321 22.485,251.344 C22.633,251.359 22.782,251.375 22.932,251.389 C23.204,251.416 23.478,251.442 23.755,251.466 C23.886,251.478 24.019,251.489 24.151,251.5 C24.364,251.518 24.578,251.535 24.793,251.552 C24.932,251.562 25.071,251.572 25.21,251.582 C25.434,251.598 25.66,251.613 25.887,251.628 C26.014,251.636 26.14,251.644 26.268,251.652 C26.586,251.671 26.906,251.689 27.228,251.705 L27.336,251.711 L27.367,251.712 L36.35,244.38 C35.008,244.325 33.629,244.297 32.222,244.297" id="Fill-82" fill="#D7CAC3" sketch:type="MSShapeGroup"/></g></g></g></svg>