<?xml version="1.0" encoding="UTF-8"?><svg width="230px" height="234px" viewBox="0 0 230 234" version="1.1" xmlns="http://www.w3.org/2000/svg" xmlns:xlink="http://www.w3.org/1999/xlink"><title>smiling_coach_2 maybe</title><desc>Created with Sketch.</desc><defs/><g id="Page-1" stroke="none" stroke-width="1" fill="none" fill-rule="evenodd"><g id="smiling_coach_2-maybe" transform="translate(0.000000, -1.000000)" fill-rule="nonzero"><g id="body"><g id="Shape"><path d="M50.86,1 C68.86,0.52 85.33,30.69 123.08,29.67 C150.45,28.93 153.17,16.56 166.16,16.21 C174.79,15.98 175.59,32.7 175.66,35.21 C176.07,50.55 172.6,73.76 172.86,83.35 C173.08,91.35 181.86,90.61 182.65,90.59 C206.97,89.93 218.32,83.96 224.25,83.8 C230.18,83.64 229.25,89.51 229.31,90.12 C229.37,90.73 230.21,136.42 160.67,164.81 C154.38,167.81 149.04,221.91 97.61,223.3 C58.56,224.35 48.53,189.03 44.87,189.13 C41.21,189.23 37.59,203.63 13.27,204.29 C-0.5,204.66 0.05,196.19 0.02,194.79 C-0.63,170.56 33.4,96.89 32.94,79.89 C32.62,68.4 26.98,1.65 50.86,1 Z" fill="#78C800"/><path d="M156.4,38.65 C152.29,38.76 151.4,40.91 149.87,39.65 C149.19,39.01 152.66,37.39 152.64,36.73 C152.64,36.4 152.1,36.48 151.37,36.5 C147.07,36.62 138.76,43.14 137.57,43.17 C137.04,43.17 136.18,43.34 136.16,42.55 C136.16,40.76 142.1,39.08 137.92,39.19 C133.74,39.3 127.73,44.83 121.31,45.01 C108.07,45.37 97.12,35.26 97.19,37.84 C97.19,38.77 98.78,40.18 99.82,42.01 C99.82,42.01 100.49,44.78 99.34,43.75 C86.86,31.93 74.63,29.31 74.63,29.31 C74.63,29.31 73.7,29.31 73.71,29.73 C73.71,31.12 76.45,32.9 76.46,33.43 C76.4837571,33.6627988 76.4043947,33.894328 76.2428179,34.0635989 C76.0812411,34.2328698 75.8536515,34.3229095 75.62,34.31 C73.04,34.38 71.05,29.46 60.62,29.74 C44.93,30.16 41.27,54.98 41.82,75.25 C42.6,103.99 61.34,112.62 76.64,112.25 C88.77,111.92 101.57,104.42 106.72,93.77 L122.9,94.56 C122.9,94.56 131.22,109.35 145.46,108.96 C158.82,108.6 170.21,99.83 169.46,70.51 C168.62,39.65 160.51,38.54 156.4,38.65 Z" fill="#8EE000"/><path d="M127.66,212.46 C135.01,212.81 134.37,220.76 134.34,221.37 C134.31,221.98 134.34,229.7 121.44,229.09 C113.31,228.7 113.91,225.09 114,223.3 C114.09,221.51 118.34,212.02 127.66,212.46 Z" fill="#D98500"/><path d="M221.44,116.4 C200.58,144.13 169.96,149.59 166.19,149.7 C162.19,149.81 164.19,145.1 162,145.16 C158.16,145.26 158.38,196.16 106.31,197.61 C54.94,199 60.85,155.11 60.78,152.55 C60.71,149.99 60.35,149.42 59.65,149.44 C58.95,149.46 57.34,150.08 57.43,153.34 C58.23,183.09 26.05,201.76 12.81,202.12 C6.89,202.28 3.21,200.89 0.95,199.31 C2.26,201.89 5.46,204.52 13.28,204.31 C37.6,203.65 41.22,189.25 44.88,189.15 C48.54,189.05 58.57,224.37 97.62,223.32 C149.05,221.93 154.39,167.88 160.68,164.83 C195.94,150.42 213.1,131.56 221.44,116.4 Z" fill="#71B200"/><path d="M72.31,216.58 C80.38,217.11 85.93,219.49 85.46,226.73 C84.99,233.97 75,234.73 69.77,234.36 C64.54,233.99 58.94,230.99 59.28,225.76 C59.62,220.53 65.02,216.11 72.31,216.58 Z" fill="#D98500"/><path d="M172.86,84.38 C172.86,84.38 173.94,111.02 115.1,161.38 C58.73,123.29 50.53,117.87 36.43,94.64 C29.31,100.21 34.73,104.86 34.73,104.86 L33.49,119.57 C33.49,119.57 48.82,141.09 48.98,141.57 C49.14,142.05 65.98,158.45 65.55,158.45 C65.12,158.45 97.14,177.03 96.55,176.72 C95.96,176.41 124.73,190.97 125.2,191.28 C125.67,191.59 145.86,169.86 145.86,169.86 L146.17,169.09 L162.89,142.76 L182.56,124.64 L183.86,97.39 L172.86,84.38 Z" fill="#71B200"/><path d="M49.52,188.08 L52.93,177.55 C52.93,177.55 49.21,164.65 48.93,164.34 C48.65,164.03 14.24,151.75 13.42,151.44 C12.4768694,151.28822 11.5248543,151.198029 10.57,151.17 C8.35,157.73 6.29,164.12 4.57,170.02 C8.05,169.76 20.39,169.8 35.49,181.02 C36.59,182.1 41.49,187.52 35.34,192.7 C28.42,198.48 36.48,195.23 36.48,195.23 L41.28,190.95 L43.34,187.72 L44.54,188.86 C44.6510613,188.830449 44.7651332,188.813674 44.88,188.81 C45.51,188.81 46.34,189.81 47.47,191.57 C61.86,204.6 49.52,188.08 49.52,188.08 Z" fill="#71B200"/><path d="M212.92,120.19 C217.34,98.19 216.52,88.26 215.57,85.37 L213.47,85.93 L209.86,89.65 L202.12,98.32 L203.28,138.71 C205.77725,136.443014 208.15702,134.049893 210.41,131.54 C210.58,130.84 210.74,130.15 210.9,129.47 L213.18,127.26 L215.54,124.43 C216.419501,123.324253 217.183485,122.131367 217.82,120.87 C212.96,125.12 212.8,121.66 212.92,120.19 Z" fill="#71B200"/></g><g id="beak" transform="translate(101.000000, 89.000000)"><path d="M0.73,9.71 C0.73,9.71 -2.75,40.64 7.36,40.36 C17.47,40.08 16.94,25.27 16.87,25.09 C16.8,24.91 0.73,9.71 0.73,9.71 Z" id="Shape" fill="#71B200"/><path d="M0.59,11.83 C0.332932419,13.3939067 0.195865943,14.9751858 0.18,16.56 C0.18,18.95 -0.01,33.97 9.39,33.97 C16.39,33.97 17.09,25.69 17.09,25.69 C17.09,25.69 15.8,18.59 15.74,18.69 C15.68,18.79 11.94,11.69 11.94,11.69 C11.94,11.69 4.18,10.18 4.27,10.2 C4.36,10.22 0.59,11.83 0.59,11.83 Z" id="Shape" fill="#F49000"/><path d="M2.29,16.92 C2.44,18.84 4.85,29.63 11.81,29.63 C15.96,29.63 15.81,24.95 15.81,24.95 C15.7593895,22.9849681 15.4225121,21.037817 14.81,19.17 C14.81,19.17 12.25,15.57 12.17,15.51 C12.09,15.45 6.53,13.12 6.53,13.12 L2.29,12.12 L1.52,12.97 L1.63,13.58 C2.03741236,14.6479656 2.26058231,15.7773408 2.29,16.92 Z" id="Shape" fill="#935400"/><path d="M12.61,0.49 C19.03,0.49 27.21,8.59 27.21,18.28 C27.21,26.75 23.87,28.91 23.21,28.91 C19.65,28.91 0.4,18.39 0.4,11.2 C0.36,5.04 7.36,0.49 12.61,0.49 Z" id="Shape" fill="#FFC200"/><ellipse id="Oval" fill="#FFF3B8" transform="translate(14.082378, 5.041037) rotate(-86.830000) translate(-14.082378, -5.041037)" cx="14.0823784" cy="5.04103722" rx="2.42" ry="4.43"/></g><g id="eyes" transform="translate(52.000000, 49.000000)"><ellipse id="Oval" fill="#FFFFFF" transform="translate(22.036688, 26.535462) rotate(-1.550000) translate(-22.036688, -26.535462)" cx="22.036688" cy="26.5354625" rx="20.67" ry="25.13"/><path d="M108.95,27.91 C108.63,39.91 100.77,49.62 91.4,49.56 C82.03,49.5 74.68,39.71 75,27.71 C75.32,15.71 83.18,6 92.55,6.06 C101.92,6.12 109.27,15.89 108.95,27.91 Z" id="Shape" fill="#FFFFFF"/><ellipse id="Oval" fill="#000000" transform="translate(21.617112, 26.546819) rotate(-1.550000) translate(-21.617112, -26.546819)" cx="21.6171121" cy="26.5468195" rx="11.35" ry="13.8"/><ellipse id="Oval" fill="#FFFFFF" transform="translate(14.018621, 17.995523) rotate(-1.550000) translate(-14.018621, -17.995523)" cx="14.0186214" cy="17.9955227" rx="5.32" ry="5.75"/><path d="M101.3,28.11 C100.98,35.18 96.41,40.82 91.1,40.71 C85.79,40.6 81.74,34.78 82.1,27.71 C82.46,20.64 86.99,15 92.3,15.11 C97.61,15.22 101.62,21.05 101.3,28.11 Z" id="Shape" fill="#000000"/><ellipse id="Oval" fill="#FFFFFF" transform="translate(85.361991, 20.469503) rotate(-3.310000) translate(-85.361991, -20.469503)" cx="85.3619913" cy="20.469503" rx="4.65" ry="5.21"/><rect id="Rectangle-path" fill="#8EE000" x="6.08" y="42.86" width="33.42" height="11.69"/><rect id="Rectangle-path" fill="#8EE000" x="78.68" y="44.13" width="26.58" height="9.16"/></g></g><g id="jacket" transform="translate(2.000000, 70.000000)"><g id="Shape"><path d="M30.4,1.88 L29.56,2.56 C28.5021217,5.54634902 27.9282204,8.68255105 27.86,11.85 C27.86,16.65 28.32,18.28 28.32,19.98 C28.32,38.72 0.68,69.22 0.68,80.06 C0.68,86.18 3.62,85.94 3.62,87.34 C3.62,88.74 3.08,88.5 3.08,93.22 C2.99576161,94.8334443 2.7884929,96.4381053 2.46,98.02 C6.54,93.92 29.74,106.02 27,104.45 C43,109.79 41.71,118 43.34,118 C42.9785472,118.025244 42.6427236,118.195787 42.4090998,118.472744 C42.1754761,118.749701 42.0639678,119.109463 42.1,119.47 C42.1,120.63 42.02,124.12 47.98,126.21 C47.98,128.61 50.69,132.87 52.32,133.72 C53.95,134.57 64.24,141.72 88.01,141.72 C111.78,141.72 128.12,141.57 146.31,127.78 C148.25,126.08 146.85,123.37 147.47,122.9 C148.09,122.43 155.99,118.25 155.99,115.23 C155.99,112.21 153.67,101.68 164.43,95.33 C167.06,93.63 182.63,92.47 189.05,79.53 C190.83,79.38 193,78.6 195.05,78.6 C197.1,78.6 198.69,79.45 199.85,75.81 C201.01,72.17 213.01,32.22 213.01,18.28 C213.01,15.49 212.24,15.28 211.54,15.28 C208.37,15.28 202.79,18.45 200.54,18.45 C198.6,18.45 198.14,18.06 198.14,18.06 C198.14,18.06 198.29,15.74 194.97,15.74 C191.65,15.74 186.38,19.3 180.41,19.3 C175.68,19.3 172.14,15.37 171,13.76 C171.300998,15.9198735 171.438057,18.0994344 171.41,20.28 C171.393929,23.4992911 170.994448,26.7052083 170.22,29.83 C168.630449,36.0909808 165.630711,41.9057529 161.45,46.83 C160.814197,47.6401954 159.829206,48.0973802 158.8,48.06 C158.29,48.8 157.8,49.53 157.22,50.26 C156.64,50.99 156.17,51.63 155.64,52.26 C155.35979,53.1364001 155.025823,53.9946944 154.64,54.83 C150.29,60.83 145.14,66.05 140.1,71.41 C139.437758,72.0957103 138.532943,72.49426 137.58,72.52 C136.58,73.97 135.58,75.44 134.25,77.02 C132.957973,78.6047672 131.290964,79.8421345 129.4,80.62 C123.32219,87.5701868 118.289339,95.368748 114.46,103.77 C114.54,107.64 113.38,106.17 113.38,106.17 C113.38,106.17 110.68,93.93 93.06,80.71 C90.4,79.41 87.73,78.11 85.12,76.71 C83.0423432,75.6258336 81.0380404,74.4065494 79.12,73.06 C77.38,71.82 75.74,70.42 73.94,69.26 C70.06,66.77 65.73,65.26 61.64,63.17 C54.21,59.4 48.27,53.17 43.64,46.39 C39.2032539,39.6675661 35.5843482,32.4398259 32.86,24.86 C31.161084,20.2648024 30.2745336,15.4090779 30.24,10.51 C30.24,7.95 29.88,4.88 31.05,2.51 L31.05,2.36" fill="#FFB103"/><path d="M171.62,21.45 C171.62,21.45 174.41,53.14 170.07,62.64 C162.64,64.29 130.66,74.59 118.07,97.64 C135.41,73.64 162.46,47.47 162.46,47.47 L170.31,27.85 L171.62,21.45 Z" fill="#F79B08"/><path d="M101.93,89.59 C101.93,89.59 76.12,74.93 58.78,77 C37.1,65 30.08,39.73 28.84,25.07 C27.44,8.46 35.24,48.92 89.75,79.07 C100.07,84.43 101.93,89.59 101.93,89.59 Z" fill="#F79B08"/><path d="M198.56,32.5 C198.56,45.09 185.45,80.92 167.56,80.92 C161.88,80.92 166.01,79.16 162.81,79.16 C160.75,79.16 153.81,127.47 104.48,127.47 C56.99,127.47 60.29,89.99 60.29,83.47 C60.29,81.2 59.88,79.24 58.43,79.24 C56.98,79.24 56.88,89.24 56.88,91.24 C56.88,93.24 56.16,97.24 50.58,97.24 C45.52,97.24 30.76,84.34 13.31,84.34 C5.67,84.34 2.2,81.71 0.65,79.7 L0.65,80.09 C0.65,86.21 3.59,85.97 3.59,87.37 C3.59,88.77 3.05,88.53 3.05,93.25 C2.96576161,94.8634443 2.7584929,96.4681053 2.43,98.05 C2.43,98.05 4.6,95.57 26.36,102.31 C42.36,107.65 41.69,118.03 43.36,118.03 C42.9985472,118.055244 42.6627236,118.225787 42.4290998,118.502744 C42.1954761,118.779701 42.0839678,119.139463 42.12,119.5 C42.12,120.66 42.04,124.15 48,126.24 C48,128.64 50.71,132.9 52.34,133.75 C53.97,134.6 64.26,141.75 88.03,141.75 C111.8,141.75 128.14,141.6 146.33,127.81 C148.27,126.11 146.87,123.4 147.49,122.93 C148.11,122.46 156.01,118.28 156.01,115.26 C156.01,112.24 153.69,101.71 164.45,95.36 C167.08,93.66 182.65,92.5 189.07,79.56 L189.63,79.49 C199.17,55.33 198.86,38.13 198.56,32.5 Z" fill="#F79B08"/><path d="M111.3,117.48 C111.3,117.48 112.3,131.57 109.15,135.13 C111.28,135.13 113.15,134.86 113.15,134.86 C114.136739,133.678822 114.659329,132.1786 114.62,130.64 C114.62,127.93 114.47,117.21 114.47,117.21 L111.14,117.44" fill="#878787"/><path d="M31.01,2.45 L29.46,7.26 L31.78,28.17 L38.78,46.6 L48.54,62.86 L59.07,67.04 L70.65,70.71 L84.43,75.98 L92.48,81.09 L97.75,85.43 L98.19,84.86 C93.9978682,81.1978162 89.4789754,77.9274767 84.69,75.09 C59.53,59.99 39.01,38.16 34.36,23.52 C30.98,12.89 30.84,5.93 31.01,2.93" fill="#E58800"/><path d="M31.03,2.42 C30.3412729,4.85077437 29.9847032,7.36358101 29.97,9.89 C29.97,15.89 34.02,47.29 54.64,64.5 C58.87,64.5 96.35,71.93 114,104.76 C114.52,109.2 113,104.97 113,104.97 C113,104.97 99.27,72.97 53.74,68.42 C30.61,53.66 27.47,15.42 27.47,11.42 C27.47,7.15 28.52,2.95 30.57,0.58" fill="#CCCCCC"/><path d="M174.71,35.29 C174.71,35.29 173.78,24.76 173.78,24.29 C173.78,23.82 172.39,17.94 172.39,17.94 L171.62,15.35 C171.309255,14.6182033 171.058431,13.8623876 170.87,13.09 C170.87,13.09 170.79,15.49 170.79,16.88 C170.79,18.27 171.02,32.44 149.5,58.88 C141.38,69.54 126.75,79.72 116.5,99.59 L116.93,100.28 L119.76,96.28 C120,95.92 120.24,95.56 120.49,95.21 C121.474533,93.7425732 122.585426,92.3639953 123.81,91.09 L125.17,89.56 L125.43,89.25 C126.53,87.7 127.89,85.63 129.66,84.5 L131.71,82.61 L131.8,82.41 C134.01,78.01 138.73,75.27 142.15,71.91 C145.57,68.55 149.29,65.25 153.7,63.08 L160.7,57.68 L171.85,49.94 L174.02,47.31 L175.1,40.5 L174.71,35.29 Z" fill="#E58800"/><path d="M50.93,107.55 C49.2,100.48 28.45,86.7 8.93,86.7 C7.08458007,86.6405291 5.25421208,87.0499535 3.61,87.89 C3.18831597,89.6369237 3.01660501,91.4348384 3.1,93.23 C3.01576161,94.8434443 2.8084929,96.4481053 2.48,98.03 C2.48,98.03 12.9,97.15 27.02,104.46 C40.09,111.22 42.17,116.2 43.02,118.16 C43.2086092,118.191528 43.39896,118.211565 43.59,118.22 C45.05,118.21 50.67,113.1 50.93,107.55 Z" fill="#F2F2F2"/><path d="M4.06,94.71 C36.68,98.5 45.3,112.64 46.58,116.21 C48.0887965,114.81321 49.2791106,113.107889 50.07,111.21 C38.88,93.74 13.25,90.11 8.07,90.11 C4.82,90.11 3.99,90.29 3.2,90.63 C3.08826829,91.5187442 3.0414776,92.4144515 3.06,93.31 C3.06,93.72 3.06,94.19 2.98,94.68 C3.32,94.61 3.67,94.63 4.06,94.71 Z" fill="#FFB103"/><path d="M211.59,15.26 C208.42,15.26 202.84,18.43 200.59,18.43 C199.777423,18.4521115 198.965863,18.3578223 198.18,18.15 C198.855783,22.1128178 199.153787,26.1308474 199.07,30.15 C199.07,45.96 195.07,68.81 189.37,79.52 C191.09,79.31 193.13,78.62 195.09,78.62 C197.05,78.62 200.09,79.41 201.44,75.83 C211.04,50.38 213.05,32.24 213.05,18.3 C213.06,15.49 212.29,15.26 211.59,15.26 Z" fill="#F2F2F2"/><path d="M147.69,122.55 C139.205913,127.229699 130.200672,130.894896 120.86,133.47 C119,133.86 116.37,135.72 115.21,135.72 C114.438437,135.675886 113.703339,135.376922 113.12,134.87 C113.12,134.87 110.49,135.1 109.48,135.1 C108.47,135.1 107.48,136.88 104.83,136.88 C103.98,136.88 102.35,136.26 100.83,136.26 C81.2355814,136.09538 61.8832744,131.912477 43.97,123.97 C45.1338969,124.987829 46.4957662,125.753881 47.97,126.22 C47.97,128.62 50.68,132.88 52.31,133.73 C53.94,134.58 64.23,141.73 88,141.73 C111.77,141.73 128.11,141.58 146.3,127.79 C148.24,126.09 146.84,123.38 147.46,122.91 C147.68,122.75 148.81,122.11 150.19,121.23 C149.46,121.57 148.62,122.01 147.69,122.55 Z" fill="#CCCCCC"/></g><g id="zipper" transform="translate(105.000000, 103.000000)"><path d="M7.63,0.55 C7.63,0.55 14.63,0.04 14.63,4.55 C14.63,9.06 12.58,9.21 12.58,9.21 L3.28,8.96 C1.91828499,7.8826055 1.07264133,6.28205248 0.95,4.55 C0.93,1.9 3.86,0.55 7.63,0.55 Z" id="Shape" fill="#898989"/><path d="M8.3,0.28 C8.3,0.28 14.74,-0.23 14.74,4.28 C14.74,8.79 12.85,8.97 12.85,8.97 L4.26,8.71 C2.97665253,7.58262563 2.20164127,5.98574194 2.11,4.28 C2.12,1.63 4.8,0.28 8.3,0.28 Z" id="Shape" fill="#B5B5B5"/><path d="M10.94,7.14 C10.94,7.14 5.03,7.32 4.36,7.32 C3.94333445,7.34270176 3.58456707,7.62174305 3.46,8.02 C3.46,8.02 0.46,14.65 0.46,17.7 C0.46,20.75 5.16,20.62 7.46,20.62 C9.76,20.62 13.65,19.74 13.65,16.57 C13.65,13.4 10.94,7.14 10.94,7.14 Z M7.39,19.32 C4.56,19.32 2.27,18.32 2.27,17.15 C2.27,15.98 4.56,14.98 7.39,14.98 C10.22,14.98 12.51,15.98 12.51,17.15 C12.51,18.32 10.22,19.32 7.4,19.32 L7.39,19.32 Z" id="Shape" fill="#898989"/><path d="M12.18,7.14 C12.18,7.14 6.27,7.32 5.6,7.32 C5.0923631,7.40275241 4.63306598,7.66978562 4.31,8.07 C4.31,8.07 1.65,14.65 1.65,17.7 C1.65,20.75 6.35,20.62 8.65,20.62 C10.95,20.62 14.86,19.71 14.86,16.56 C14.86,13.41 12.18,7.14 12.18,7.14 Z M8.32,19.32 C5.49,19.32 3.2,18.32 3.2,17.15 C3.2,15.98 5.49,14.98 8.32,14.98 C11.15,14.98 13.44,15.98 13.44,17.15 C13.44,18.32 11.15,19.32 8.32,19.32 Z" id="Shape" fill="#B5B5B5"/><path d="M6.25,9.79 C6.25,9.79 4.42,13.35 8.52,13.35 C12.62,13.35 10.52,9.74 10.52,9.74 L6.25,9.79 Z" id="Shape" fill="#727272"/><path d="M6.3,1.97 C6.3,1.97 6.35,0.86 7.93,0.86 C9.51,0.86 9.93,1.17 9.93,2.25 L9.93,10.17 C9.85497383,10.5614918 9.62720605,10.9070203 9.2969878,11.1302929 C8.96676955,11.3535654 8.56126154,11.4362177 8.17,11.36 C6.52,11.36 6.26,10.66 6.26,9.97 C6.26,9.28 6.3,1.97 6.3,1.97 Z" id="Shape" fill="#898989"/><path d="M7.23,1.97 C7.23,1.97 7.28,0.86 8.86,0.86 C10.44,0.86 10.86,1.17 10.86,2.25 L10.86,10.17 C10.7849738,10.5614918 10.557206,10.9070203 10.2269878,11.1302929 C9.89676955,11.3535654 9.49126154,11.4362177 9.1,11.36 C7.45,11.36 7.19,10.66 7.19,9.97 C7.19,9.28 7.23,1.97 7.23,1.97 Z" id="Shape" fill="#CCCCCC"/><ellipse id="Oval" fill="#FFFFFF" cx="9.11" cy="2.49" rx="1.14" ry="1.03"/></g><g id="jacket-shadow" transform="translate(3.000000, 0.000000)"><path d="M205.32,22.36 C205.32,19.27 205.53,17.24 205.14,15.98 C203.3,16.59 201.34,17.43 199.76,17.98 C199.76,20.34 199.82,23.17 199.82,26.56 C199.871942,44.334141 196.826394,61.9814012 190.82,78.71 C191.261024,78.6523086 191.705224,78.62225 192.15,78.62 C192.75,78.62 193.31,78.69 193.83,78.7 C201.44,63.16 205.32,40.24 205.32,22.36 Z" id="Shape" fill="#FFB103"/><path d="M167.86,12.9 L167.81,13.16 C169.12,18.65 173.88,40.67 167.76,48.5 C123.56,80.07 113.04,99.57 111.63,103.33 L111.92,103.33 C131.04,73.33 170.75,49.84 170.75,49.84 C170.75,49.84 173.07,47.36 173.07,36.99 C173.11,28.23 169.13,16.38 167.86,12.9 Z" id="Shape" fill="#CCCCCC"/><path d="M196.8,55.83 C196.07,54.55 197.36,25.47 197.59,18.43 C196.780761,18.451157 195.972636,18.3568757 195.19,18.15 C195.865783,22.1128178 196.163787,26.1308474 196.08,30.15 C196.08,45.96 192.08,68.81 186.38,79.52 C188.1,79.31 190.14,78.62 192.1,78.62 C194.06,78.62 197.1,79.41 198.45,75.83 C201,69.07 203.01,62.83 204.59,57.05 C198.86,60.49 197.55,57.14 196.8,55.83 Z" id="Shape" fill="#000000" opacity="0.05"/><path d="M5.91,86.71 C4.06458007,86.6505291 2.23421208,87.0599535 0.59,87.9 C0.52,88.43 0.36,88.79 0.23,89.82 C7.69,89.12 25.3,89.3 39.46,103.54 C43.73,109.2 38.66,113.44 37.59,114.24 C38.5935945,115.408689 39.4007644,116.732582 39.98,118.16 C40.1686092,118.191528 40.35896,118.211565 40.55,118.22 C42.05,118.22 47.67,113.11 47.93,107.56 C46.2,100.48 25.45,86.71 5.91,86.71 Z" id="Shape" fill="#000000" opacity="0.05"/><path d="M167.86,13.24 C169.16,18.7 173.62,39.5 168.27,47.82 L170.73,49.88 L170.78,49.88 C170.78,49.88 173.1,47.4 173.1,37.03 C173.1,28.27 169.1,16.41 167.89,12.94" id="Shape" fill="#FFFFFF" opacity="0.703566576"/><path d="M26.97,9.89 C26.9847032,7.36358101 27.3412729,4.85077437 28.03,2.42 L27.54,0.6 C25.54,2.97 24.44,7.17 24.44,11.44 C24.44,15.44 27.59,53.66 50.71,68.44 L50.79,68.44 L51.39,64.29 C31,47.03 26.97,15.86 26.97,9.89 Z" id="Shape" fill="#FFFFFF" opacity="0.703566576"/></g><g id="sparkle" transform="translate(18.000000, 53.000000)" fill="#FFFFFF"><path d="M127.06,63.79 C126.932035,63.7873297 126.81797,63.7086643 126.77,63.59 C125.795748,61.1795401 123.903586,59.2550029 121.51,58.24 C121.397311,58.1874336 121.325277,58.0743462 121.325277,57.95 C121.325277,57.8256538 121.397311,57.7125664 121.51,57.66 C123.903586,56.6449971 125.795748,54.7204599 126.77,52.31 C126.81797,52.1913357 126.932035,52.1126703 127.06,52.11 L127.06,52.11 C127.187965,52.1126703 127.30203,52.1913357 127.35,52.31 C128.323314,54.7210752 130.215783,56.6459249 132.61,57.66 C132.722689,57.7125664 132.794723,57.8256538 132.794723,57.95 C132.794723,58.0743462 132.722689,58.1874336 132.61,58.24 C130.215783,59.2540751 128.323314,61.1789248 127.35,63.59 C127.30203,63.7086643 127.187965,63.7873297 127.06,63.79 Z" id="Shape"/><path d="M127.06,52.42 C128.059766,54.9139273 130.01473,56.9048948 132.49,57.95 C130.01473,58.9951052 128.059766,60.9860727 127.06,63.48 C126.060234,60.9860727 124.10527,58.9951052 121.63,57.95 C124.10527,56.9048948 126.060234,54.9139273 127.06,52.42 L127.06,52.42 Z M127.06,51.79 C126.799558,51.7885609 126.565079,51.9475298 126.47,52.19 C125.528182,54.5238542 123.69699,56.3874246 121.38,57.37 C121.147183,57.4687335 120.995967,57.6971124 120.995967,57.95 C120.995967,58.2028876 121.147183,58.4312665 121.38,58.53 C123.69699,59.5125754 125.528182,61.3761458 126.47,63.71 C126.565635,63.9492636 126.797331,64.1061731 127.055,64.1061731 C127.312669,64.1061731 127.544365,63.9492636 127.64,63.71 C128.581818,61.3761458 130.41301,59.5125754 132.73,58.53 C132.962817,58.4312665 133.114033,58.2028876 133.114033,57.95 C133.114033,57.6971124 132.962817,57.4687335 132.73,57.37 C130.41301,56.3874246 128.581818,54.5238542 127.64,52.19 C127.544921,51.9475298 127.310442,51.7885609 127.05,51.79 L127.05,51.79 L127.06,51.79 Z" id="Shape"/><path d="M8.44,15.91 C8.27448204,15.9110113 8.12459049,15.8123984 8.06,15.66 C6.80931168,12.5602231 4.37729256,10.085032 1.3,8.78 C1.15152814,8.71437312 1.05575584,8.56732923 1.05575584,8.405 C1.05575584,8.24267077 1.15152814,8.09562688 1.3,8.03 C4.37729256,6.72496796 6.80931168,4.2497769 8.06,1.15 C8.12562688,1.00152814 8.27267077,0.905755845 8.435,0.905755845 C8.59732923,0.905755845 8.74437312,1.00152814 8.81,1.15 C10.0606883,4.2497769 12.4927074,6.72496796 15.57,8.03 C15.7184719,8.09562688 15.8142442,8.24267077 15.8142442,8.405 C15.8142442,8.56732923 15.7184719,8.71437312 15.57,8.78 C12.4927074,10.085032 10.0606883,12.5602231 8.81,15.66 C8.74540951,15.8123984 8.59551796,15.9110113 8.43,15.91 L8.43,15.91 L8.44,15.91 Z" id="Shape"/><path d="M8.44,1.29 C9.73128377,4.4966783 12.2519594,7.05336362 15.44,8.39 C12.2519594,9.72663638 9.73128377,12.2833217 8.44,15.49 C7.14871623,12.2833217 4.62804057,9.72663638 1.44,8.39 C4.62804057,7.05336362 7.14871623,4.4966783 8.44,1.29 L8.44,1.29 Z M8.44,0.48 C8.10933709,0.480978761 7.81246683,0.682850532 7.69,0.99 C6.48089966,3.99038685 4.12790913,6.38655151 1.15,7.65 C0.845183272,7.77434132 0.645941171,8.07079793 0.645941171,8.4 C0.645941171,8.72920207 0.845183272,9.02565868 1.15,9.15 C4.12790913,10.4134485 6.48089966,12.8096132 7.69,15.81 C7.81246683,16.1171495 8.10933709,16.3190212 8.44,16.32 L8.44,16.32 C8.77066291,16.3190212 9.06753317,16.1171495 9.19,15.81 C10.3991003,12.8096132 12.7520909,10.4134485 15.73,9.15 C16.0348167,9.02565868 16.2340588,8.72920207 16.2340588,8.4 C16.2340588,8.07079793 16.0348167,7.77434132 15.73,7.65 C12.7520909,6.38655151 10.3991003,3.99038685 9.19,0.99 C9.06753317,0.682850532 8.77066291,0.480978761 8.44,0.48 L8.44,0.48 L8.44,0.48 Z" id="Shape"/></g></g><path d="M170.18,56.13 C170.412355,56.4091987 170.5271,56.7677758 170.5,57.13 L170.69,57.48 C177.23,41.33 177.69,23.25 177.69,23.25 L176.3,21.71 L173.3,30.86 L171.57,39.17 L167.71,53.67 L167.71,53.67 C168.619733,54.3984193 169.447896,55.2232291 170.18,56.13 L170.18,56.13 Z" id="sunglass-arm" fill="#000000"/><g id="headband" transform="translate(29.000000, 23.000000)"><path d="M144.99,42.11 C145.73,35.11 146.05,27.45 146.36,19.76 C139.8,14.29 123.42,9.93 99.6,7.14 C98.25,7.2 96.84,7.24 95.36,7.24 C88.9320069,7.29742807 82.5211062,6.56868765 76.27,5.07 C62.18,4.16 46.39,3.67 29.2,3.67 C16.25,3.67 8.85,4.45 4.63,6.45 C3.63700149,14.1794248 3.16926198,21.9672877 3.23,29.76 C7.4,28.43 17.76,25.01 47.35,25.01 C108.94,25 139.86,40.1 144.99,42.11 Z" id="Shape" fill="#000000" opacity="0.2"/><path d="M151.45,22.31 C151.45,26.53 149.45,35.53 149.45,37.23 C149.454526,37.8067317 149.209857,38.3573414 148.778789,38.7405129 C148.347721,39.1236844 147.772224,39.3021114 147.2,39.23 C145.58,39.23 115.2,21.9 49.2,21.9 C12.51,21.9 5.38,27.17 2.97,27.17 C0.56,27.17 0.86,22.31 0.86,16.94 C0.86,4.47 2.21,0.6 31.02,0.6 C103.79,0.59 151.45,9.26 151.45,22.31 Z" id="Shape" fill="#FFB103"/><path d="M151.28,25.03 C130.77,13.87 92.61,6.71 61.45,6.71 C26.75,6.71 8.45,10.17 1.07,12.03 C0.93,13.49 0.91,15.11 0.91,16.91 L0.91,19.33 C7.99,17.18 27.91,13.72 61.47,13.72 C82.3335672,13.7952469 103.101918,16.5374757 123.27,21.88 C134.56,24.96 143.85,28.65 150.15,32.44 C150.54,30.13 151.02,27.36 151.28,25.03 Z" id="Shape" fill="#FFFFFF"/></g><g id="sunglasses" transform="translate(29.000000, 5.000000)"><polygon id="Shape" fill="#303030" points="0.8 47.07 2.24 48.21 21.66 22.84 19.14 20.42 15.63 23.14"/><polygon id="Shape" fill="#000000" points="17.26 6.39 0.93 34.09 0.8 47.07 20.7 21.84 19.2 11.41"/><path d="M71.23,10.24 L69.23,5.01 L64.69,3.01 C64.6298276,3.0859098 64.562886,3.15619844 64.49,3.22 C64.5007654,3.60441293 64.3562463,3.97696021 64.0890634,4.25355101 C63.8218804,4.5301418 63.4545553,4.68746146 63.07,4.69 C58.62,4.41 54.25,3.52 49.78,3.42 C45.3629819,3.37435962 40.9474995,3.60815975 36.56,4.12 C36.2494528,4.17438332 35.9302499,4.09773241 35.678259,3.90826556 C35.4262681,3.71879872 35.2639919,3.43343524 35.23,3.12 C30.62,3.62 27.23,4.02 27.23,4.12 C26.7258129,4.04476936 26.2344769,3.90006082 25.77,3.69 C24.6530668,3.92673315 23.5106138,4.02081751 22.37,3.97 C21.16,3.97 20.27,3.38 18.94,3.18 C18.41,4.27 17.61,5.7 17,6.86 C17.060681,8.48222217 17.0005148,10.106711 16.82,11.72 C16.8098294,12.1494546 16.5988137,12.5492737 16.25,12.8 C17.25,20.03 22.42,33.86 45.01,35.06 C72.71,36.53 72.09,14.34 72.15,13.21 L71.23,10.24 Z" id="Shape" fill="#000000"/><path d="M23.42,0.46 C23.42,0.46 18.76,0.93 18.22,4.93 C16.22,19.93 27.94,28.93 43.89,31.08 C59.84,33.23 70.57,23.25 71.56,18.8 C72.3539493,14.890974 72.5126512,10.8795312 72.03,6.92 C71.66,3.48 66.62,2.7 57.89,1.63 C52.27,1.07 36.37,-0.85 23.42,0.46 Z" id="Shape" fill="#303030"/><path d="M54.86,4.71 C62.13,5.51 65.57,5.38 65.21,8.71 L64.43,15.84 C64.43,15.84 63.05,26.48 44.35,24.43 C25.65,22.38 25.75,14.25 25.29,9.27 C25,6.08 24.66,3.91 30.75,3.79 C39.5,3.58 54.86,4.71 54.86,4.71 Z" id="Shape" fill="#3D3D3D"/><path d="M85.01,19.48 C80.230023,18.7913835 75.3595859,19.0908933 70.7,20.36 C70.48,21.36 70.28,21.99 70.28,21.99 C70.28,21.99 78.88,20.75 85.38,21.63 C90.5335632,22.5085024 95.6118868,23.7822623 100.57,25.44 C100.627458,24.9192867 100.727798,24.4042046 100.87,23.9 C95.7297132,21.9444856 90.4207734,20.464945 85.01,19.48 Z" id="Shape" fill="#1E1E1E"/><path d="M54.86,4.71 C54.86,4.71 39.53,3.61 30.74,3.79 C24.8,3.91 24.98,5.97 25.26,9.04 C25.66,7.62 26.77,6.04 30.84,6.15 C35.97,6.28 62.04,7.63 63.62,8.15 C64.4480133,8.4168695 65.0224766,9.17085249 65.06,10.04 L65.21,8.68 C65.54,5.35 62.1,5.48 54.86,4.71 Z" id="Shape" fill="#000000"/><path d="M147.49,19.16 L146.19,14.06 L142.29,11.77 C142.228898,11.835909 142.161959,11.8961546 142.09,11.95 C142.069477,12.3048228 141.907791,12.6366705 141.641013,12.8715105 C141.374235,13.1063505 141.02456,13.2246437 140.67,13.2 C136.67,12.52 132.82,11.27 128.8,10.77 C124.816877,10.3164366 120.808181,10.1260235 116.8,10.2 C116.516304,10.2314024 116.23271,10.140079 116.020647,9.94903169 C115.808585,9.75798442 115.688267,9.48542346 115.69,9.2 C111.48,9.2 108.35,9.3 108.34,9.36 C107.893091,9.24145648 107.465429,9.05961609 107.07,8.82 C106.042285,8.93933172 105.003316,8.92251992 103.98,8.77 C102.957751,8.48310833 101.955569,8.12900413 100.98,7.71 C100.39,8.71 99.53,9.96 98.87,10.99 C98.7652198,12.5199648 98.5513428,14.0404968 98.23,15.54 C98.1930745,15.9526147 97.9631573,16.323449 97.61,16.54 C97.77,23.43 101.13,36.92 121.39,40.15 C146.24,44.15 147.83,23.15 148,22.15 L147.49,19.16 Z" id="Shape" fill="#000000"/><path d="M105.3,5.5 C105.3,5.5 101.05,5.5 100.18,9.22 C96.88,23.14 106.63,32.67 120.8,36.22 C134.97,39.77 145.63,31.34 146.95,27.22 C148.047467,23.6136755 148.580436,19.8592792 148.53,16.09 C148.53,12.82 144.06,11.62 136.29,9.8 C131.28,8.76 117.11,5.48 105.3,5.5 Z" id="Shape" fill="#303030"/><path d="M133.23,12.4 C139.71,13.82 142.83,14.03 142.23,17.11 L140.83,23.74 C140.83,23.74 138.56,33.61 121.83,29.95 C105.1,26.29 106.03,18.65 106.11,13.95 C106.11,10.95 106.11,8.86 111.56,9.31 C119.5,9.94 133.23,12.4 133.23,12.4 Z" id="Shape" fill="#3D3D3D"/><path d="M133.23,12.4 C133.23,12.4 119.5,9.94 111.56,9.29 C106.19,8.85 106.15,10.8 106.11,13.72 C106.61,12.42 107.76,11.05 111.42,11.53 C116.03,12.13 139.42,15.83 140.8,16.47 C141.51995,16.8260308 141.95708,17.5782083 141.91,18.38 L142.18,17.11 C142.86,14.03 139.71,13.82 133.23,12.4 Z" id="Shape" fill="#000000"/><path d="M28.75,18.8 C30.88,20.9 34.4,22.73 40.32,23.8 L55.45,4.71 L54.86,4.71 C54.86,4.71 47.86,4.21 40.6,3.94 L28.75,18.8 Z" id="Shape" fill="#000000" opacity="0.1"/><path d="M65.18,8.71 C65.44,6.36 63.78,5.71 60.18,5.29 L44.96,24.45 C47.9969661,24.795825 51.0676685,24.708283 54.08,24.19 L64.98,10.45 L65.18,8.71 Z" id="Shape" fill="#000000" opacity="0.1"/><path d="M109.78,24.71 C111.91,26.59 115.25,28.3 120.48,29.59 L133.48,12.4 L133.27,12.4 C133.27,12.4 127.12,11.3 120.67,10.4 L109.78,24.71 Z" id="Shape" fill="#000000" opacity="0.1"/><path d="M142.18,17.11 C142.63,14.96 141.26,14.21 138.18,13.47 L125.29,30.55 C128.094839,30.9719525 130.956203,30.8188474 133.7,30.1 L141.63,19.59 L142.18,17.11 Z" id="Shape" fill="#000000" opacity="0.1"/><path d="M100.66,7.9 C99.7281966,9.0003957 98.9324552,10.2091168 98.29,11.5 C97.98,12.58 97.38,16.14 97.66,17.05 C97.94,17.96 98.6,17.22 98.6,17.22 L98.84,13.22 L99.75,10.01 L100.31,8.93 L100.66,7.9 Z" id="Shape" fill="#000000"/><path d="M87.31,5.57 C94.89,6.49 101.14,9.86 100.93,10.72 C99.36,17.02 101.37,22.08 100.93,23.61 C100.746884,24.2103082 100.619676,24.8262641 100.55,25.45 C95.5918868,23.7922623 90.5135632,22.5185024 85.36,21.64 C78.86,20.76 70.26,22 70.26,22 C70.6134499,20.8091736 70.8709401,19.5919473 71.03,18.36 C71.33,16.17 71.92,7.95 71.35,6.8 C70.78,5.65 80.59,4.71 87.31,5.57 Z" id="Shape" fill="#2B2B2B"/></g></g></g></svg>