<?xml version="1.0" encoding="utf-8"?><!DOCTYPE svg PUBLIC "-//W3C//DTD SVG 1.1//EN" "http://www.w3.org/Graphics/SVG/1.1/DTD/svg11.dtd"><svg version="1.1" id="Layer_1" xmlns="http://www.w3.org/2000/svg" xmlns:xlink="http://www.w3.org/1999/xlink" x="0px" y="0px" width="295px" height="313px" viewBox="0 0 295 313" enable-background="new 0 0 295 313" xml:space="preserve"><path fill="#78C800" d="M70.675,151.959v9.417l0.298,3.529l2.966,4.194l3.5-2.078c0,0,2.044,2.389,1.522-4.67	c-0.522-7.059,2.311-1.642-0.522-7.059c-2.833-5.417-2.833-5.417-2.833-5.417L70.675,151.959z"/><path fill="#78C800" d="M260.388,168.815c-6.022-0.157-17.863,5.295-42.573,4.65c-0.797-0.021-9.756,0.277-9.543-7.871	c0.009-0.346,0.025-0.713,0.045-1.092c-0.363,0.26-0.766,0.504-1.219,0.722c-1.063,0.514-2.184,0.867-3.303,1.231	c-1.916,2.453-3.786,4.942-5.577,7.48c-1.588,3.423-3.304,6.787-5.137,10.086c-0.252,0.772-0.505,1.544-0.762,2.313	c-1.441,4.307-3.103,8.575-4.578,12.89c-0.675,4.753-1.549,9.472-2.699,14.128c-0.12,1.912-0.229,3.824-0.319,5.738	c0.042,0.194,0.082,0.391,0.111,0.598c1.146,8.205,0.181,18.846,4.337,26.494c0.721,0.366,1.368,0.922,1.919,1.649	c0.141-0.104,0.282-0.195,0.421-0.253c72.086-25.061,73.651-71.46,73.667-72.08C265.193,174.878,266.411,168.972,260.388,168.815z"/><path fill="#71B200" d="M197.929,232.532c-4.015-0.105-1.766-4.773-4.01-4.831c-1.41-0.037-2.644,6.713-6.149,15.274	c0.389,1.113,0.847,2.189,1.401,3.208c0.721,0.366,1.368,0.922,1.919,1.649c0.141-0.104,0.282-0.195,0.421-0.253	c36.568-12.713,54.988-30.917,64.264-45.85C233.114,228.733,201.752,232.631,197.929,232.532z"/><path fill="#71B200" d="M197.929,232.532c-4.015-0.105-1.766-4.773-4.01-4.831c-1.41-0.037-2.644,6.713-6.149,15.274	c0.389,1.113,0.847,2.189,1.401,3.208c0.721,0.366,1.368,0.922,1.919,1.649c0.141-0.104,0.282-0.195,0.421-0.253	c36.568-12.713,54.988-30.917,64.264-45.85C233.114,228.733,201.752,232.631,197.929,232.532z"/><ellipse fill="#E5E5E5" cx="147.831" cy="293.863" rx="144.782" ry="15.802"/><path fill="#FFBF0D" d="M38.859,227.358c-9.143,8.611-28.925,7.669-27.114,14.191s1.453,9.084-0.433,12.73s11.882,1.69,11.882,1.69	l11.594-13.633L38.859,227.358z"/><path fill="#FFBF0D" d="M60.816,191.193c-5.521,9.124-19.453,9.269-19.453,14.342c0,3.841,3.933,1.812,3.933,8.551	c0,6.739-2.724,9.125-2.724,9.125l3.449,3.012l13.116-6.34l6.014-17.898v-10.072L60.816,191.193z"/><path fill="#D33131" d="M66.475,178.266c0,0-13.136,32.559-25.112,46.4C29.559,238.307,9.354,246.04,9.354,262.961	s21.956,26.564,48.261,26.564s133.26,0,133.26,0s-2.717,2.531-2.717,5.357c0,2.826,19.022,5.456,44.239,5.456	s45.326-3.717,45.326-18.282c0-14.565-14.937-27.197-57.686-27.197l-105.091-18.454l-36.244-22.609L66.475,178.266z"/><path fill="#B72E2E" d="M277.701,281.164c-0.003-0.075-0.007-0.151-0.011-0.226c-0.015-0.279-0.034-0.558-0.061-0.835	c-0.002-0.018-0.003-0.037-0.005-0.055c-0.029-0.297-0.067-0.593-0.109-0.888c-0.01-0.066-0.02-0.131-0.03-0.197	c-0.043-0.276-0.09-0.55-0.145-0.824c-0.004-0.021-0.007-0.042-0.012-0.062c-0.061-0.299-0.13-0.597-0.206-0.894	c-0.013-0.05-0.026-0.099-0.039-0.148c-0.074-0.281-0.154-0.561-0.241-0.839c-0.005-0.016-0.009-0.031-0.014-0.047	c-0.096-0.303-0.201-0.604-0.313-0.903c-0.011-0.03-0.023-0.059-0.034-0.088c-0.11-0.29-0.227-0.578-0.353-0.864	c-0.004-0.009-0.007-0.018-0.011-0.027c-0.135-0.305-0.278-0.608-0.431-0.91c-0.004-0.007-0.008-0.015-0.011-0.022	c-0.152-0.3-0.313-0.597-0.483-0.893c-0.001-0.003-0.003-0.005-0.004-0.008c-1.044-1.809-2.429-3.535-4.189-5.148h0	c1.16,1.454,2.195,3.652,2.195,6.871c0,11.449-24.638,12.174-30.507,12.174s-49.13-2.029-35.507-9.203	c20.942-11.739,31.811-5.725,31.811-9.638s-107.97-7.246-151.014-7.246s-55.217-13.188-55.217-20.942	c0-3.832,2.101-7.45,4.226-10.13c-11.82,11.04-27.632,18.819-27.632,33.788c0,16.921,21.956,26.564,48.261,26.564s133.26,0,133.26,0	s-2.717,2.531-2.717,5.357c0,2.826,19.022,5.456,44.239,5.456s45.326-3.717,45.326-18.282	C277.722,281.758,277.713,281.461,277.701,281.164z"/><path fill="#78C800" d="M192.644,246.971c1.626-3.881,2.908-7.326,4.026-9.94c12.361-33.659,14.665-72.269,15.094-85.201	c-0.024-1.281,0.014-2.792,0.098-4.486v0l0,0c0.546-10.965,3.001-29.546,2.653-42.456c-0.067-2.48-0.852-18.891-9.319-18.662	c-12.743,0.344-15.41,12.483-42.263,13.208c-37.03,1-53.235-28.602-70.852-28.126c-23.433,0.633-17.898,66.125-17.593,77.414	c0.45,16.677-32.943,88.954-32.301,112.729c0.037,1.368-0.509,9.685,13.003,9.32c23.86-0.644,27.415-14.776,31.007-14.873	c3.592-0.097,13.428,34.555,51.741,33.52c32.904-0.889,46.579-23.749,53.822-40.377	C192.033,248.371,192.326,247.684,192.644,246.971z"/><path fill="#D98500" d="M167.422,278.77c7.208,0.342,6.581,8.139,6.552,8.739s-0.043,8.169-12.658,7.571	c-7.981-0.378-7.383-3.919-7.3-5.679S158.282,278.337,167.422,278.77z"/><path fill="#8EE000" d="M195.621,108.25c-4.028,0.109-4.947,2.214-6.411,0.953c-0.667-0.632,2.736-2.22,2.718-2.869	c-0.009-0.325-0.527-0.246-1.241-0.227c-4.223,0.114-12.373,6.511-13.542,6.543c-0.52,0.014-1.361,0.167-1.382-0.613	c-0.047-1.754,5.825-3.408,1.731-3.298c-4.093,0.111-9.993,5.536-16.296,5.707c-12.994,0.351-23.73-9.567-23.662-7.033	c0.025,0.91,1.558,2.299,2.581,4.092c0,0,0.658,2.713-0.474,1.703c-12.244-11.6-24.245-14.17-24.245-14.17s-0.91,0.025-0.899,0.414	c0.037,1.364,2.685,3.113,2.699,3.633c0.014,0.52-0.302,0.853-0.822,0.867c-2.534,0.068-4.485-4.755-14.685-4.48	c-15.398,0.416-18.985,24.765-18.449,44.646c0.761,28.197,19.149,36.667,34.158,36.262c11.904-0.321,24.457-7.682,29.512-18.13	l15.873,0.779c0,0,8.163,14.508,22.132,14.131c13.108-0.354,24.286-8.957,23.509-37.723	C207.611,109.226,199.649,108.141,195.621,108.25z"/><ellipse transform="matrix(0.9996 -0.027 0.027 0.9996 -3.8578 3.152)" fill="#FFFFFF" cx="114.807" cy="144.45" rx="20.276" ry="24.653"/><path fill="#FFFFFF" d="M200.083,145.784c-0.313,11.79-8.022,21.298-17.219,21.237c-9.197-0.061-16.399-9.668-16.086-21.459	c0.313-11.79,8.022-21.298,17.219-21.237S200.396,133.993,200.083,145.784z"/><ellipse transform="matrix(0.9996 -0.027 0.027 0.9996 -3.8582 3.1407)" fill="#3F3F3F" cx="114.39" cy="144.461" rx="11.138" ry="13.542"/><ellipse transform="matrix(0.9996 -0.027 0.027 0.9996 -3.6343 2.9366)" fill="#FFFFFF" cx="106.941" cy="136.068" rx="5.217" ry="5.637"/><path fill="#3F3F3F" d="M192.574,145.983c-0.313,6.935-4.793,12.469-10.005,12.36c-5.212-0.109-9.183-5.818-8.87-12.753	s4.793-12.469,10.005-12.36C188.917,133.339,192.888,139.048,192.574,145.983z"/><path fill="#71B200" d="M141.639,171.094c0,0-3.044,27.048,5.798,26.801c8.842-0.247,8.376-13.195,8.319-13.35	C155.7,184.39,141.639,171.094,141.639,171.094z"/><path fill="#FFFFFF" d="M181.488,138.217c0.165,2.82-1.739,5.223-4.253,5.369s-4.687-2.022-4.852-4.842	c-0.165-2.82,1.739-5.223,4.253-5.369S181.323,135.398,181.488,138.217z"/><path fill="#FFC200" d="M135.652,185.884"/><path fill="#F49000" d="M141.406,169.372c0,0-1.379,19.975,8.322,19.713c9.7-0.262,14.306-8.35,14.114-15.494	S141.406,169.372,141.406,169.372z"/><path fill="#FFC200" d="M155.667,157.187c7.057-0.191,12.593,7.856,12.812,15.959c0.219,8.103-6.179,16.559-8.358,16.618	c-2.178,0.059-18.612-14.407-18.784-20.768C141.166,162.636,147.128,157.418,155.667,157.187z"/><ellipse transform="matrix(0.9996 0.0283 -0.0283 0.9996 4.6374 -4.33)" fill="#FFF3B8" cx="155.551" cy="161.943" rx="4.689" ry="2.557"/><path fill="#8EE000" d="M195.621,108.25c-4.028,0.109-4.947,2.214-6.411,0.953c-0.667-0.632,2.736-2.22,2.718-2.869	c-0.009-0.325-0.527-0.246-1.241-0.227c-4.223,0.114-12.373,6.511-13.542,6.543c-0.52,0.014-1.361,0.167-1.382-0.613	c-0.047-1.754,5.825-3.408,1.731-3.298c-4.093,0.111-9.993,5.536-16.296,5.707c-12.994,0.351-23.73-9.567-23.662-7.033	c0.025,0.91,1.558,2.299,2.581,4.092c0,0,0.658,2.713-0.474,1.703c-12.244-11.6-24.245-14.17-24.245-14.17s-0.91,0.025-0.899,0.414	c0.037,1.364,2.685,3.113,2.699,3.633c0.014,0.52-0.302,0.853-0.822,0.867c-2.534,0.068-4.485-4.755-14.685-4.48	c-15.398,0.416-18.985,24.765-18.449,44.646c0.761,28.197,19.149,36.667,34.158,36.262c11.904-0.321,24.457-7.682,29.512-18.13	l15.873,0.779c0,0,8.163,14.508,22.132,14.131c13.108-0.354,24.286-8.957,23.509-37.723	C207.611,109.226,199.649,108.141,195.621,108.25z"/><ellipse transform="matrix(0.9996 -0.027 0.027 0.9996 -3.8578 3.152)" fill="#FFFFFF" cx="114.807" cy="144.45" rx="20.276" ry="24.653"/><path fill="#FFFFFF" d="M200.083,145.784c-0.313,11.79-8.022,21.298-17.219,21.237c-9.197-0.061-16.399-9.668-16.086-21.459	c0.313-11.79,8.022-21.298,17.219-21.237S200.396,133.993,200.083,145.784z"/><ellipse transform="matrix(0.9996 -0.027 0.027 0.9996 -3.8582 3.1407)" fill="#3F3F3F" cx="114.39" cy="144.461" rx="11.138" ry="13.542"/><ellipse transform="matrix(0.9996 -0.027 0.027 0.9996 -3.6343 2.9366)" fill="#FFFFFF" cx="106.941" cy="136.068" rx="5.217" ry="5.637"/><path fill="#3F3F3F" d="M192.574,145.983c-0.313,6.935-4.793,12.469-10.005,12.36c-5.212-0.109-9.183-5.818-8.87-12.753	s4.793-12.469,10.005-12.36C188.917,133.339,192.888,139.048,192.574,145.983z"/><path fill="#71B200" d="M141.639,171.094c0,0-3.044,27.048,5.798,26.801c8.842-0.247,8.376-13.195,8.319-13.35	C155.7,184.39,141.639,171.094,141.639,171.094z"/><path fill="#FFFFFF" d="M181.488,138.217c0.165,2.82-1.739,5.223-4.253,5.369s-4.687-2.022-4.852-4.842	c-0.165-2.82,1.739-5.223,4.253-5.369S181.323,135.398,181.488,138.217z"/><path fill="#FFC200" d="M135.652,185.884"/><path fill="#F49000" d="M141.406,169.372c0,0-1.379,19.975,8.322,19.713c9.7-0.262,14.306-8.35,14.114-15.494	S141.406,169.372,141.406,169.372z"/><path fill="#FFC200" d="M155.667,157.187c7.057-0.191,12.593,7.856,12.812,15.959c0.219,8.103-6.179,16.559-8.358,16.618	c-2.178,0.059-18.612-14.407-18.784-20.768C141.166,162.636,147.128,157.418,155.667,157.187z"/><ellipse transform="matrix(0.9996 0.0283 -0.0283 0.9996 4.6374 -4.33)" fill="#FFF3B8" cx="155.551" cy="161.943" rx="4.689" ry="2.557"/><path fill="#71B200" d="M192.644,246.971c1.626-3.881,2.908-7.326,4.026-9.94c2.504-6.818,4.594-13.837,6.34-20.807	c-0.861-1.323-0.399-3.524-1.9-3.483c-3.763,0.102-3.554,50.076-54.638,51.456c-50.4,1.361-44.602-41.701-44.67-44.209	c-0.068-2.509-0.425-3.069-1.109-3.051c-0.684,0.019-2.265,0.632-2.179,3.824c0.788,29.191-30.782,47.502-43.781,47.854	c-5.804,0.157-9.415-1.202-11.639-2.753c1.289,2.528,4.429,5.116,12.097,4.909c23.86-0.644,27.415-14.776,31.007-14.873	c3.592-0.097,13.428,34.555,51.741,33.52c32.904-0.889,46.579-23.749,53.822-40.377	C192.033,248.371,192.326,247.684,192.644,246.971z"/><linearGradient id="SVGID_1_" gradientUnits="userSpaceOnUse" x1="142.7157" y1="94.3145" x2="142.7157" y2="165.7221"><stop offset="0" style="stop-color:#000000"/><stop offset="1" style="stop-color:#000000;stop-opacity:0.2"/></linearGradient><path fill="url(#SVGID_1_)" d="M182.293,98.394c-4.935,1.728-11.159,2.974-19.616,2.953c-11.362-0.028-20.752-3.008-28.859-7.032	h-24.925l-32.99,4.919c-1.919,11.856-1.763,23.738-1.769,26.232c-0.013,5.287,0.815,11.332,0.784,23.753	c-0.005,1.946-0.837,5.509-2.232,10.202c-0.51,1.949-1.114,4.057-1.797,6.302c2.785-1.328,35.784-16.564,84.151-16.564	c43.482,0,54.194,8.331,56.343,10.666c0.196-3.23,0.312-5.939,0.38-7.994c-0.024-1.281,0.014-2.792,0.098-4.486v0	c0.504-10.113,2.626-26.695,2.68-39.341L182.293,98.394z"/><path fill="#FFAD08" d="M212.354,73.833c0,0,11.492-2.233,11.806-11.793s-3.774-14.262-10.787-19.277s3.88-2.157,3.88-2.157	s13.012,7.713,12.578,20.967s-14.055,19.623-17.068,20.207c-3.013,0.585-5.042-5.924-5.042-5.924l4.087-1.932L212.354,73.833z"/><path fill="#D33131" d="M76.06,4.982c8.908,0.292,28.792,20.737,33.572,20.894c4.78,0.157,14.399-4.639,33.628-4.009	c19.229,0.63,23.572,4.144,28.461,4.305c13.362,0.438,2.777-21.66,14.618-21.271c11.841,0.388,19.717,12.283,22.819,17.17	c3.102,4.887,4.652,17.336,4.652,17.336l-1.229,4.31c0,0,5.4,7.79,5.15,15.394s-3.562,15.761-5.259,17.772s-6.358,14.8-6.358,14.8	l-25.902,7.198l-52.605-7.598l-32.046,15.48l-14.337,19.323l-8.557,25.494l-1.81,12.085c0,0-26.115-29.422-25.306-54.083	c0.239-7.279,2.541-7.856,3.519-7.824c2.716,0.089,2.841,2.921,5.991,3.024s4.844-1.799,4.997-6.47	c0.477-14.557-13.868-24.815-13.437-37.961c0.218-6.663,3.457-9.239,6.064-9.154s3.544,4.684,6.586,4.784	c3.042,0.1,4.276-1.056,4.511-8.226s0.476-17.82,0.476-17.82l2.532-4.267c0,0,1.532-0.276,1.678-4.73	c0.146-4.454-2.962-5.861-2.823-10.098C65.784,6.602,71.28,4.825,76.06,4.982z"/><path fill="#B72E2E" d="M67.732,7.089L67.732,7.089c-1.233,0.924-2.035,2.165-2.087,3.75c-0.139,4.237,2.969,5.644,2.823,10.098	c-0.146,4.454-1.678,4.73-1.678,4.73l-2.532,4.267c0,0-0.018,0.802-0.049,2.11l6.404,3.1c0,0,6.069,0.635,6.626-9.709	C77.794,15.092,66.371,8.512,67.732,7.089z"/><path fill="#FF7C24" d="M70.118,44.685c0,0-6.188,29.52,23.995,33.256c30.183,3.735,39.955,2.026,39.955,2.026l6.145-10.529	l-2.392-11.076l-15.034-14.69L94.56,37.779l-18.812,3.443L70.118,44.685z"/><path fill="#D98500" d="M113.117,282.815c7.914,0.515,13.36,2.857,12.897,9.961s-10.263,7.82-15.389,7.487	c-5.126-0.334-10.621-3.311-10.287-8.437S105.968,282.35,113.117,282.815z"/><circle fill="#FFFFFF" cx="107.794" cy="68.664" r="17.717"/><circle fill="#511313" cx="109.069" cy="69.576" r="11.45"/><path fill="#DB0B0B" d="M100.04,74.065c0,0,18.289-18.251,44.97-9.401s20.383,15.169,20.383,15.169l-46.207,7.33l-16.698-3.738	L100.04,74.065z"/><path fill="#FF7C24" d="M212.58,43.715l1.229-4.31c0,0-0.08-0.64-0.238-1.682l-15.818,1.589l-18.091,7.782l-3.911,8.717	l0.636,11.421l11.008,13.766l23.086-0.332c0.786-1.772,1.508-3.214,1.99-3.786c1.697-2.011,5.01-10.167,5.259-17.772	S212.58,43.715,212.58,43.715z"/><ellipse transform="matrix(0.9995 0.0328 -0.0328 0.9995 2.3897 -6.3861)" fill="#FFFFFF" cx="196.013" cy="69.708" rx="16.033" ry="16.956"/><ellipse transform="matrix(0.9995 0.0328 -0.0328 0.9995 2.448 -6.4118)" fill="#511313" cx="196.825" cy="71.475" rx="10.515" ry="11.121"/><path fill="#DB0B0B" d="M181.68,65.142c0,0,29.848,0.689,33.315,18.783s-8.499,15.962-8.499,15.962l-19.828-14.426l-0.615-12.201	L181.68,65.142z"/><path fill="#511313" d="M67.869,24.399c-2.883-0.095-8.479,4.723-8.732,12.436s1.937,10.83,7.934,11.897	c5.997,1.067,20.598-3.131,38.849-2.533s26.886,9.219,28.25,17.384s12.085-0.401,12.085-0.401s-2.114-31.717-41.658-33.013	c-16.296-0.534-16.881,0.752-25.029,0.484s-13.986-3.856-12.778-4.987C67.997,24.536,67.869,24.399,67.869,24.399z"/><path fill="#511313" d="M169.918,61.24c0.199-6.084,0.946-25.526,36.447-33.606c5.264-1.35,2.792-5.564,2.792-5.564	s12.878,1.945,12.472,14.329c-0.207,6.301-5.623,7.946-8.702,7.845c-3.079-0.101-32.068-1.57-35.187,17.251	C174.621,80.317,169.918,61.24,169.918,61.24z"/><path fill="#FFAD08" d="M95.386,74.492c0,0-28.478,6.171-41.645-21.231c-2.357-3.847,5.985-26.086-8.128-38.457	c-1.972-1.691-5.918,1.383-3.592,3.417c8.63,8.766,7.533,15.69,7.491,16.994c-0.043,1.304-1.818,12.338-1.979,17.227	s5.888,29.375,44.128,30.629C129.901,84.324,95.386,74.492,95.386,74.492z"/><path fill="#FF7C24" d="M103.429,71.268c12.785,0.419,12.932,4.782,17.132,4.92c6.772,0.222,11.861-19.005,46.127-17.882	c23.854,0.782,34.123,25.915,38.143,26.046c4.889,0.16,6.545-3.918,15.344-3.63c8.8,0.289,12.572,11.288,12.572,11.288l1.405,6.898	l-1.996,17.77l-24.342,6.053l-59.75-8.593l-37.163,2.37l-24.189-5.252c0,0-1.396-17.12-1.236-22.009S90.122,71.295,103.429,71.268z"/><path fill="#ED7524" d="M163.487,102.709c-52.75-15.072-21.896-40.467-21.896-40.467l0,0c-12.627,5.328-16.444,14.096-21.03,13.946	c-4.201-0.138-4.348-4.5-17.132-4.92c-13.307,0.027-17.792,13.091-17.952,17.98c-0.12,3.67,0.636,14.231,1.021,19.27l8.963,4.638h0	l17.976,3.191l34.627-2.209l10.804,1.554l6.973-0.786C165.841,114.906,216.237,117.782,163.487,102.709z"/><ellipse transform="matrix(0.9995 0.0328 -0.0328 0.9995 3.3355 -3.281)" fill="#B74A00" cx="101.76" cy="100.114" rx="12.295" ry="13.043"/><circle fill="#B74A00" cx="220.356" cy="105.09" r="11.087"/><path fill="#FFBF0D" d="M84.111,87.789c4.237,0.139,4.901,22.999,27.497,23.74c47.583,1.56,62.04-21.457,65.3-21.35	c3.259,0.107,12.433,22.158,39.049,23.031c0,0,16.021,2.265,16.791-21.2c2.281,0.075,3.975,4.807,3.697,13.28	c-0.278,8.474-5.314,29.407-17.482,29.008c-12.167-0.399-10.402-4.474-10.402-4.474s-5.975-0.196-9.647-0.969	c-3.672-0.773-18.463-4.085-25.23-3.329s-40.7,4.103-55.624,1.548s-21.136-5.478-21.136-5.478s-12.713,2.991-26.066,42.067	c-2.309-9.175-1.996-25.369-1.996-25.369S70.649,97.027,84.111,87.789z"/><path fill="#7C3006" d="M110.651,91.072c-0.518-0.16-1.06-0.262-1.625-0.28c-3.614-0.119-6.646,2.894-6.772,6.728	c-0.126,3.834,2.702,7.039,6.317,7.157c2.152,0.071,4.093-0.974,5.341-2.637c0.072-0.499,0.12-1.007,0.137-1.524	C114.168,96.862,112.857,93.514,110.651,91.072z"/><path fill="#7C3006" d="M212.222,97.56c-1.75,1.889-2.856,4.391-2.947,7.166c-0.058,1.763,0.301,3.443,0.986,4.947	c0.379,0.136,0.776,0.222,1.189,0.236c2.682,0.088,4.947-2.613,5.059-6.033C216.615,100.614,214.724,97.883,212.222,97.56z"/><path fill="#FFFFFF" d="M209.936,125.447c4.49,0.147,7.113,3.68,6.16,8.668c-0.953,4.988-5.494,17.454-11.36,17.262	c-3.839-0.126-3.714-1.717-3.683-2.658c0.031-0.942,2.17-4.279,2.458-13.042c0.178-5.432-1.821-6.377-1.821-6.377	S204.36,125.265,209.936,125.447z"/><path fill="#71B200" d="M157.109,212.74c-74.747,0-85.799-42.06-85.799-42.06s2.4,82.091,86.926,82.091	c15.557,0,28.051-5.688,37.603-13.731c0.288-0.712,0.564-1.386,0.831-2.009c5.051-13.755,8.422-28.335,10.673-41.654	C200.742,203.807,186.757,212.74,157.109,212.74z"/><path fill="#FFFFFF" d="M96.606,119.085c5.359,0.176,6.898,4.105,6.834,6.061s-4.078,20.457-11.9,20.2	c-5.142-0.169-2.777-5.964-2.618-10.816s-0.326-5.521-0.26-7.549C88.729,124.953,89.726,118.86,96.606,119.085z"/><path fill="#511313" d="M179.703,242.495c0,0-1.802,17.766-16.493,20.467c2.535-11.069-0.53-24.769-0.53-24.769l9.372-3.699	l7.022,1.028L179.703,242.495z"/><path fill="#511313" d="M167.85,245.98c0,0-1.799,17.737-16.466,20.433c2.531-11.051-0.529-24.728-0.529-24.728l9.356-3.693	l7.011,1.026L167.85,245.98z"/><path fill="#511313" d="M162.623,241.625c0,0-1.799,17.737-16.466,20.433c2.531-11.051-0.529-24.728-0.529-24.728l9.356-3.693	l7.011,1.026L162.623,241.625z"/><path fill="#511313" d="M150.428,241.625c0,0-1.799,17.737-16.466,20.433c2.531-11.051-0.529-24.728-0.529-24.728l9.356-3.693	l7.011,1.026L150.428,241.625z"/><path fill="#511313" d="M141.591,234.149c0,0-1.785,17.6-16.338,20.275c2.512-10.965-0.525-24.537-0.525-24.537l9.284-3.664	l6.957,1.018L141.591,234.149z"/><path fill="#F2721C" d="M204.831,84.352c-1.481-0.049-3.813-3.494-7.359-7.863c2.301,2.896,1.624,8.074,1.514,9.23	c-0.11,1.156-1.463,4.81,1.496,5.233c2.959,0.423,3.688-4.486,8.246-7.406l0.001,0C207.534,84.049,206.336,84.402,204.831,84.352z"/><path fill="#D33131" d="M157.801,242.337c41.7,0,61.404-34.774,61.404-52.361c0-9.789-6.399-13.605-6.399-13.605	s0,32.022-56.133,32.022c-74.747,0-85.799-42.06-85.799-42.06S73.275,242.337,157.801,242.337z"/><path fill="#B72E2E" d="M214.266,176.707c-0.174,0.592-0.358,1.18-0.561,1.763c-0.648,2.579-1.311,5.151-2.462,7.585	c-0.387,0.817-1.223,1.22-2.09,1.259c-1.887,2.669-4.14,5.077-6.724,7.095c-1.123,0.877-2.447,0.702-3.386,0.056	c-7.78,6.693-21.152,12.447-44.149,12.447c-73.196,0-84.019-43.176-84.019-43.176s2.35,69.064,85.123,69.064	c40.835,0,63.976-26.74,63.976-44.794C219.974,182.548,216.991,178.902,214.266,176.707z"/><path fill="#B72E2E" d="M191.588,23.886c0.347-13.909-9.051-15.848-8.641-18.219c-6.239,3.86,0.52,20.889-11.227,20.503	c-0.667-0.022-1.324-0.108-2.009-0.238l0,0C178.814,28.17,191.311,32.359,191.588,23.886z"/><path fill="#FFBF0D" d="M157.801,222.705c41.7,0,65.331-22.831,65.331-38.246c0-8.58-10.325-11.925-10.325-11.925	s0,28.066-56.133,28.066c-74.747,0-85.799-36.864-85.799-36.864S73.275,222.705,157.801,222.705z"/><path fill="#FFFFFF" d="M188.823,203.812c4.435,0.81,7.757-2.097,7.884-7.191c0.126-5.094-1.677-18.284-7.471-19.343	c-3.791-0.693-4.007,0.894-4.177,1.824c-0.17,0.93,1.219,4.658-0.363,13.312c-0.98,5.365-3.142,5.867-3.142,5.867	S183.315,202.806,188.823,203.812z"/><path fill="#FFFFFF" d="M115.078,204.909c5.267,1.101,7.7-2.364,8.102-4.286c0.402-1.922,0.881-20.912-6.805-22.519	c-5.053-1.057-4.123,5.155-5.121,9.923c-0.997,4.769-1.629,5.305-2.046,7.298C108.791,197.318,108.317,203.495,115.078,204.909z"/><circle fill="#FFFFFF" cx="100.894" cy="62.513" r="3.902"/><circle fill="#FFFFFF" cx="192.633" cy="62.078" r="3.304"/><path fill="#FFBF0D" d="M210.306,171.094c0,0,3.268,4.636,0.187,9.172c-3.081,4.536,5.798,1.61,5.798,1.61l6.519,0.109	c0,0-2.595-10.444-11.941-14.964C210.306,171.094,210.306,171.094,210.306,171.094z"/><polygon fill="#78C800" points="526.093,170.06 529.51,171.416 532.343,176.583 529.218,183.645 522.51,181.333"/><path fill="#78C800" d="M387.625,152.083v9.417l0.298,3.529l2.966,4.194l3.5-2.078c0,0,2.044,2.389,1.522-4.67	c-0.522-7.059,2.311-1.642-0.522-7.059c-2.833-5.417-2.833-5.417-2.833-5.417L387.625,152.083z"/><ellipse fill="#E5E5E5" cx="464.782" cy="293.986" rx="144.782" ry="15.802"/><path fill="#FFBF0D" d="M355.81,227.482c-9.143,8.611-28.925,7.669-27.114,14.191c1.812,6.522,1.453,9.084-0.433,12.73	c-1.886,3.647,11.882,1.69,11.882,1.69l11.594-13.633L355.81,227.482z"/><path fill="#FFBF0D" d="M377.767,191.317c-5.521,9.124-19.453,9.269-19.453,14.342c0,3.841,3.933,1.812,3.933,8.551	s-2.724,9.125-2.724,9.125l3.449,3.012l13.116-6.34l6.014-17.898v-10.072L377.767,191.317z"/><path fill="#D33131" d="M383.426,178.389c0,0-13.136,32.559-25.112,46.4c-11.804,13.642-32.009,21.375-32.009,38.296	s21.956,26.564,48.261,26.564s133.26,0,133.26,0s-2.717,2.531-2.717,5.357s19.022,5.456,44.239,5.456	c25.217,0,45.326-3.717,45.326-18.282c0-14.565-14.937-27.197-57.686-27.197l-105.091-18.454l-36.244-22.609L383.426,178.389z"/><path fill="#B72E2E" d="M594.651,281.287c-0.003-0.075-0.007-0.151-0.011-0.226c-0.015-0.279-0.034-0.558-0.061-0.835	c-0.002-0.018-0.003-0.037-0.005-0.055c-0.029-0.297-0.067-0.593-0.109-0.888c-0.009-0.066-0.02-0.131-0.03-0.197	c-0.043-0.276-0.09-0.55-0.145-0.824c-0.004-0.021-0.007-0.042-0.012-0.062c-0.061-0.299-0.13-0.597-0.206-0.894	c-0.013-0.05-0.026-0.099-0.039-0.148c-0.074-0.281-0.154-0.561-0.241-0.839c-0.005-0.016-0.009-0.031-0.014-0.047	c-0.096-0.303-0.201-0.604-0.313-0.903c-0.011-0.03-0.023-0.059-0.034-0.088c-0.11-0.29-0.227-0.578-0.353-0.864	c-0.004-0.009-0.008-0.018-0.011-0.026c-0.135-0.305-0.278-0.608-0.431-0.91c-0.004-0.007-0.008-0.015-0.011-0.022	c-0.152-0.3-0.313-0.597-0.483-0.893c-0.001-0.003-0.003-0.005-0.004-0.008c-1.044-1.809-2.429-3.535-4.189-5.148l0,0	c1.16,1.454,2.195,3.652,2.195,6.871c0,11.449-24.638,12.174-30.507,12.174c-5.87,0-49.13-2.029-35.507-9.203	c20.942-11.739,31.811-5.725,31.811-9.638s-107.97-7.246-151.014-7.246s-55.217-13.188-55.217-20.942	c0-3.832,2.101-7.45,4.226-10.13c-11.82,11.04-27.632,18.819-27.632,33.788c0,16.921,21.956,26.564,48.261,26.564s133.26,0,133.26,0	s-2.717,2.531-2.717,5.357s19.022,5.456,44.239,5.456c25.217,0,45.326-3.717,45.326-18.282	C594.672,281.881,594.664,281.584,594.651,281.287z"/><path fill="#78C800" d="M509.594,247.094c1.626-3.881,2.908-7.326,4.026-9.94c12.361-33.659,14.665-72.269,15.094-85.201	c-0.024-1.281,0.014-2.792,0.098-4.486v0l0,0c0.546-10.965,3.001-29.546,2.653-42.456c-0.067-2.48-0.852-18.891-9.319-18.662	c-12.743,0.344-15.41,12.483-42.263,13.208c-37.03,1-53.235-28.602-70.852-28.126c-23.433,0.633-17.898,66.125-17.593,77.414	c0.45,16.677-32.943,88.954-32.301,112.729c0.037,1.368-0.509,9.685,13.003,9.32c23.86-0.644,27.415-14.776,31.007-14.873	c3.592-0.097,13.428,34.555,51.741,33.521c32.904-0.889,46.579-23.749,53.822-40.377	C508.984,248.495,509.276,247.807,509.594,247.094z"/><path fill="#D98500" d="M484.372,278.894c7.208,0.342,6.581,8.139,6.552,8.739s-0.043,8.169-12.658,7.571	c-7.981-0.378-7.383-3.919-7.3-5.679C471.05,287.766,475.233,278.46,484.372,278.894z"/><path fill="#8EE000" d="M512.571,108.373c-4.028,0.109-4.947,2.214-6.411,0.953c-0.667-0.632,2.736-2.22,2.718-2.869	c-0.009-0.325-0.527-0.246-1.241-0.227c-4.223,0.114-12.373,6.511-13.542,6.543c-0.52,0.014-1.361,0.167-1.382-0.613	c-0.047-1.754,5.825-3.408,1.731-3.298c-4.093,0.111-9.993,5.536-16.296,5.707c-12.994,0.351-23.73-9.567-23.662-7.033	c0.025,0.91,1.558,2.299,2.581,4.092c0,0,0.658,2.713-0.474,1.703c-12.244-11.6-24.245-14.17-24.245-14.17s-0.91,0.025-0.899,0.414	c0.037,1.364,2.685,3.113,2.699,3.633s-0.302,0.853-0.822,0.867c-2.534,0.068-4.485-4.755-14.685-4.48	c-15.398,0.416-18.986,24.765-18.449,44.646c0.762,28.197,19.149,36.667,34.158,36.262c11.904-0.321,24.457-7.682,29.512-18.13	l15.873,0.779c0,0,8.163,14.508,22.132,14.131c13.108-0.354,24.286-8.957,23.509-37.723	C524.561,109.35,516.599,108.264,512.571,108.373z"/><path fill="#FFC200" d="M452.602,186.008"/><path fill="#FFC200" d="M452.602,186.008"/><path fill="#71B200" d="M509.594,247.094c1.626-3.881,2.908-7.326,4.026-9.94c2.504-6.818,4.594-13.837,6.34-20.807	c-0.861-1.323-0.399-3.524-1.9-3.483c-3.763,0.102-3.554,50.076-54.638,51.456c-50.4,1.361-44.602-41.701-44.67-44.209	c-0.068-2.509-0.425-3.069-1.109-3.051c-0.684,0.019-2.265,0.632-2.179,3.824c0.788,29.191-30.782,47.502-43.781,47.854	c-5.804,0.157-9.415-1.202-11.639-2.753c1.289,2.528,4.429,5.116,12.097,4.909c23.86-0.644,27.415-14.776,31.007-14.873	c3.592-0.097,13.428,34.555,51.741,33.521c32.904-0.889,46.579-23.749,53.822-40.377	C508.984,248.495,509.276,247.807,509.594,247.094z"/><g><ellipse transform="matrix(0.9998 -0.0176 0.0176 0.9998 -2.4836 7.6417)" fill="#FFFFFF" cx="432.039" cy="144.642" rx="20.138" ry="24.485"/><path fill="#FFFFFF" d="M517.321,146.956c-0.42,11.975-8.141,21.563-17.245,21.414s-16.145-9.978-15.725-21.953 s8.141-21.563,17.245-21.414S517.741,134.98,517.321,146.956z"/><ellipse transform="matrix(0.9998 -0.0176 0.0176 0.9998 -2.4838 7.6344)" fill="#3F3F3F" cx="431.625" cy="144.649" rx="11.062" ry="13.45"/><ellipse transform="matrix(0.9998 -0.0176 0.0176 0.9998 -2.3368 7.504)" fill="#FFFFFF" cx="424.305" cy="136.245" rx="5.181" ry="5.598"/><path fill="#3F3F3F" d="M509.886,147.087c-0.375,7.043-4.861,12.622-10.021,12.463c-5.159-0.16-9.037-5.998-8.662-13.04 c0.375-7.043,4.861-12.622,10.021-12.463C506.383,134.207,510.261,140.045,509.886,147.087z"/><path fill="#FFFFFF" d="M498.983,139.093c0.138,2.866-1.77,5.29-4.26,5.414c-2.491,0.124-4.621-2.099-4.758-4.965 c-0.138-2.866,1.77-5.29,4.26-5.414C496.715,134.004,498.845,136.227,498.983,139.093z"/><path fill="#8EE000" d="M437.69,124.527c3.289,0,6.008,0.84,8.104,1.863c-3.772-3.103-8.327-4.889-13.21-4.802 c-12.055,0.213-21.725,11.722-22.359,26.119C414.323,130.871,428.718,124.527,437.69,124.527z"/><path fill="#8EE000" d="M500.677,124.717c-3.253-0.053-6.348,0.999-9.075,2.886c1.023-0.399,2.181-0.684,3.427-0.684 c9.491,0,21.959,8.365,21.959,23.567c0,3.633-0.272,6.94-0.77,9.521c1.279-3.179,2.059-6.751,2.191-10.535 C518.883,135.969,510.944,124.885,500.677,124.717z"/><path fill="#8EE000" d="M409.421,145.858l1.997-3.709l1.712-4.565l2.711-4.565l4.993-4.993l5.849-2.425l8.56-2.996l3.852,1.141 l2.425,0.713l2.283,0.713l2.853-1.712c0,0-11.841-7.561-12.411-8.132c-0.571-0.571-11.984-2.996-13.553-2.711 c-1.569,0.285-10.272,6.848-10.272,6.848l-4.28,14.266c0,0-0.285,7.989,0,8.417C406.425,142.577,409.421,145.858,409.421,145.858z"/><path fill="#8EE000" d="M489.882,124.887l5.278,0.999l6.42,1.855l5.706,1.712l3.995,2.568l2.283,3.995c0,0,1.141,3.567,1.427,3.995 s1.427,2.996,1.712,3.424c0.285,0.428,0.856,4.708,0.856,4.708s-0.285,4.708,0.143,4.993c0.428,0.285,2.14-0.143,2.568-2.283 c0.428-2.14,0.713-9.13,0.856-10.842c0.143-1.712-0.571-8.845-1.141-10.414c-0.571-1.569-3.709-6.277-4.708-7.704 c-0.999-1.427-10.557-4.422-10.985-4.565s-7.418,0.571-8.56,0.856c-1.141,0.285-5.706,5.564-5.706,5.564l-0.713,1.569"/><path fill="#2199EA" d="M452.208,172.391c0,4.164-2.349,6.606-5.246,6.606c-2.897,0-5.246-2.443-5.246-6.606 s2.953-9.793,5.246-11.27C449.254,162.754,452.208,168.228,452.208,172.391z"/><ellipse transform="matrix(0.9628 0.2702 -0.2702 0.9628 61.7852 -114.1078)" fill="#27C2FF" cx="445.374" cy="167.373" rx="1.364" ry="2.663"/></g><linearGradient id="SVGID_2_" gradientUnits="userSpaceOnUse" x1="459.6663" y1="94.438" x2="459.6663" y2="165.8456"><stop offset="0" style="stop-color:#000000"/><stop offset="1" style="stop-color:#000000;stop-opacity:0.2"/></linearGradient><path fill="url(#SVGID_2_)" d="M499.243,98.518c-4.935,1.728-11.159,2.974-19.616,2.953c-11.362-0.028-20.752-3.008-28.859-7.032	h-24.925l-32.99,4.919c-1.919,11.856-1.763,23.738-1.769,26.232c-0.013,5.287,0.815,11.332,0.784,23.753	c-0.005,1.946-0.837,5.509-2.232,10.202c-0.51,1.949-1.114,4.057-1.797,6.302c2.785-1.328,35.784-16.564,84.151-16.564	c43.482,0,54.194,8.331,56.343,10.666c0.196-3.23,0.312-5.939,0.38-7.994c-0.024-1.281,0.014-2.792,0.098-4.486v0	c0.504-10.113,2.626-26.695,2.68-39.341L499.243,98.518z"/><path fill="#FFAD08" d="M529.304,73.956c0,0,11.492-2.233,11.806-11.793c0.313-9.56-3.774-14.262-10.787-19.277	c-7.013-5.015,3.88-2.157,3.88-2.157s13.012,7.713,12.578,20.967s-14.055,19.623-17.068,20.207	c-3.013,0.585-5.042-5.924-5.042-5.924l4.087-1.932L529.304,73.956z"/><path fill="#D33131" d="M393.01,5.105c8.908,0.292,28.792,20.737,33.572,20.894c4.78,0.157,14.399-4.639,33.628-4.009	c19.229,0.63,23.572,4.144,28.461,4.305c13.362,0.438,2.776-21.66,14.618-21.271c11.841,0.388,19.717,12.283,22.819,17.17	s4.652,17.336,4.652,17.336l-1.229,4.31c0,0,5.4,7.79,5.15,15.394c-0.249,7.605-3.562,15.761-5.259,17.772	c-1.697,2.011-6.358,14.8-6.358,14.8l-25.902,7.198l-52.605-7.598l-32.046,15.48l-14.337,19.323l-8.557,25.494l-1.81,12.085	c0,0-26.115-29.422-25.306-54.083c0.239-7.279,2.541-7.856,3.519-7.824c2.716,0.089,2.841,2.921,5.991,3.024	c3.15,0.103,4.844-1.799,4.997-6.47c0.477-14.557-13.868-24.815-13.437-37.961c0.218-6.663,3.457-9.239,6.064-9.154	c2.607,0.085,3.544,4.684,6.586,4.784c3.042,0.1,4.276-1.056,4.511-8.226s0.476-17.82,0.476-17.82l2.533-4.267	c0,0,1.532-0.276,1.678-4.73c0.146-4.454-2.962-5.861-2.823-10.098S388.23,4.948,393.01,5.105z"/><path fill="#B72E2E" d="M384.682,7.213L384.682,7.213c-1.233,0.924-2.035,2.165-2.087,3.75c-0.139,4.237,2.969,5.644,2.823,10.098	c-0.146,4.454-1.678,4.73-1.678,4.73l-2.533,4.267c0,0-0.018,0.802-0.049,2.11l6.404,3.1c0,0,6.069,0.635,6.626-9.709	C394.745,15.215,383.321,8.635,384.682,7.213z"/><path fill="#FF7C24" d="M387.068,44.808c0,0-6.188,29.52,23.995,33.256c30.184,3.735,39.955,2.026,39.955,2.026l6.145-10.529	l-2.392-11.076l-15.034-14.69l-28.228-5.892l-18.812,3.443L387.068,44.808z"/><path fill="#D98500" d="M430.068,282.939c7.914,0.516,13.36,2.857,12.897,9.961s-10.263,7.82-15.389,7.487	c-5.126-0.334-10.621-3.311-10.287-8.437S422.918,282.473,430.068,282.939z"/><circle fill="#FFFFFF" cx="424.744" cy="68.788" r="17.717"/><circle fill="#511313" cx="426.019" cy="69.699" r="11.45"/><path fill="#DB0B0B" d="M416.991,74.189c0,0,18.289-18.251,44.97-9.401c26.681,8.85,20.383,15.169,20.383,15.169l-46.207,7.33	l-16.698-3.738L416.991,74.189z"/><path fill="#FF7C24" d="M529.531,43.839l1.229-4.31c0,0-0.08-0.64-0.238-1.682l-15.818,1.589l-18.091,7.782l-3.911,8.717	l0.636,11.421l11.008,13.766l23.085-0.332c0.786-1.772,1.508-3.214,1.99-3.786c1.697-2.011,5.01-10.167,5.259-17.772	C534.93,51.629,529.531,43.839,529.531,43.839z"/><ellipse transform="matrix(0.9995 0.0328 -0.0328 0.9995 2.564 -16.7729)" fill="#FFFFFF" cx="512.964" cy="69.831" rx="16.033" ry="16.956"/><ellipse transform="matrix(0.9995 0.0328 -0.0328 0.9995 2.6223 -16.7986)" fill="#511313" cx="513.776" cy="71.598" rx="10.515" ry="11.121"/><path fill="#DB0B0B" d="M498.631,65.265c0,0,29.848,0.689,33.315,18.783s-8.499,15.962-8.499,15.962L503.62,85.584l-0.615-12.201	L498.631,65.265z"/><path fill="#511313" d="M384.819,24.523c-2.883-0.095-8.479,4.723-8.732,12.436s1.937,10.83,7.934,11.897	c5.997,1.067,20.598-3.131,38.849-2.533c18.251,0.598,26.886,9.219,28.25,17.384c1.364,8.165,12.085-0.401,12.085-0.401	s-2.114-31.717-41.658-33.013c-16.296-0.534-16.881,0.752-25.029,0.484c-8.148-0.267-13.986-3.856-12.778-4.987	S384.819,24.523,384.819,24.523z"/><path fill="#511313" d="M486.868,61.363c0.199-6.084,0.946-25.526,36.447-33.606c5.264-1.35,2.792-5.564,2.792-5.564	s12.878,1.945,12.472,14.329c-0.207,6.301-5.623,7.946-8.702,7.845c-3.079-0.101-32.068-1.57-35.187,17.251	C491.572,80.44,486.868,61.363,486.868,61.363z"/><path fill="#FFAD08" d="M412.337,74.616c0,0-28.478,6.171-41.645-21.231c-2.357-3.847,5.985-26.086-8.128-38.457	c-1.972-1.691-5.918,1.383-3.592,3.417c8.63,8.766,7.533,15.69,7.491,16.994c-0.043,1.304-1.818,12.338-1.979,17.227	c-0.16,4.889,5.888,29.375,44.128,30.629C446.852,84.448,412.337,74.616,412.337,74.616z"/><path fill="#FF7C24" d="M420.38,71.392c12.785,0.419,12.932,4.782,17.132,4.92c6.772,0.222,11.861-19.005,46.127-17.882	c23.854,0.782,34.123,25.915,38.143,26.046c4.889,0.16,6.545-3.918,15.344-3.63c8.8,0.289,12.572,11.288,12.572,11.288l1.405,6.898	l-1.996,17.77l-24.342,6.053l-59.75-8.593l-37.163,2.37l-24.189-5.252c0,0-1.396-17.12-1.236-22.009	C402.588,84.483,407.073,71.419,420.38,71.392z"/><path fill="#ED7524" d="M480.438,102.833c-52.75-15.072-21.896-40.467-21.896-40.467l0,0c-12.627,5.328-16.444,14.096-21.03,13.946	c-4.201-0.138-4.348-4.5-17.132-4.92c-13.307,0.027-17.792,13.091-17.952,17.98c-0.12,3.67,0.636,14.231,1.021,19.27l8.963,4.638h0	l17.976,3.191l34.627-2.209l10.804,1.554l6.973-0.786C482.792,115.03,533.187,117.905,480.438,102.833z"/><ellipse transform="matrix(0.9995 0.0328 -0.0328 0.9995 3.5098 -13.6678)" fill="#B74A00" cx="418.71" cy="100.237" rx="12.295" ry="13.043"/><circle fill="#B74A00" cx="537.306" cy="105.213" r="11.087"/><path fill="#FFBF0D" d="M401.061,87.913c4.237,0.139,4.901,22.999,27.497,23.74c47.583,1.56,62.04-21.457,65.3-21.35	c3.259,0.107,12.433,22.158,39.049,23.031c0,0,16.021,2.265,16.791-21.2c2.281,0.075,3.975,4.807,3.697,13.28	s-5.314,29.407-17.482,29.008s-10.402-4.474-10.402-4.474s-5.975-0.196-9.647-0.969c-3.672-0.773-18.463-4.085-25.23-3.329	c-6.768,0.757-40.7,4.103-55.624,1.548c-14.924-2.556-21.136-5.478-21.136-5.478s-12.713,2.991-26.066,42.067	c-2.309-9.175-1.996-25.369-1.996-25.369S387.599,97.151,401.061,87.913z"/><path fill="#7C3006" d="M427.601,91.195c-0.518-0.16-1.06-0.262-1.625-0.28c-3.614-0.119-6.646,2.894-6.772,6.728	c-0.126,3.834,2.702,7.039,6.317,7.157c2.152,0.071,4.093-0.974,5.341-2.637c0.072-0.499,0.12-1.007,0.137-1.524	C431.119,96.985,429.807,93.637,427.601,91.195z"/><path fill="#7C3006" d="M529.172,97.684c-1.75,1.889-2.856,4.391-2.947,7.166c-0.058,1.763,0.301,3.443,0.986,4.947	c0.379,0.136,0.776,0.222,1.189,0.236c2.682,0.088,4.947-2.613,5.059-6.033C533.566,100.738,531.674,98.006,529.172,97.684z"/><path fill="#FFFFFF" d="M526.887,125.571c4.49,0.147,7.113,3.68,6.16,8.668s-5.494,17.454-11.36,17.262	c-3.839-0.126-3.714-1.717-3.683-2.658c0.031-0.942,2.17-4.279,2.458-13.042c0.178-5.432-1.821-6.377-1.821-6.377	S521.31,125.388,526.887,125.571z"/><path fill="#71B200" d="M474.059,212.863c-74.747,0-85.799-42.06-85.799-42.06s2.4,82.091,86.926,82.091	c15.557,0,28.051-5.688,37.603-13.731c0.288-0.712,0.564-1.386,0.831-2.009c5.051-13.755,8.422-28.335,10.673-41.654	C517.693,203.93,503.707,212.863,474.059,212.863z"/><path fill="#FFFFFF" d="M413.557,119.209c5.359,0.176,6.898,4.105,6.834,6.061s-4.078,20.457-11.9,20.2	c-5.142-0.169-2.777-5.964-2.618-10.816c0.159-4.852-0.326-5.521-0.26-7.549S406.677,118.983,413.557,119.209z"/><path fill="#511313" d="M496.654,242.618c0,0-1.802,17.766-16.493,20.467c2.535-11.069-0.53-24.769-0.53-24.769l9.372-3.699	l7.022,1.028L496.654,242.618z"/><path fill="#511313" d="M484.8,246.104c0,0-1.799,17.737-16.466,20.433c2.531-11.051-0.529-24.728-0.529-24.728l9.356-3.693	l7.011,1.026L484.8,246.104z"/><path fill="#511313" d="M479.574,241.748c0,0-1.799,17.737-16.466,20.433c2.531-11.051-0.529-24.728-0.529-24.728l9.356-3.693	l7.011,1.026L479.574,241.748z"/><path fill="#511313" d="M467.378,241.748c0,0-1.799,17.737-16.466,20.433c2.531-11.051-0.529-24.728-0.529-24.728l9.356-3.693	l7.011,1.026L467.378,241.748z"/><path fill="#511313" d="M458.541,234.273c0,0-1.785,17.6-16.338,20.275c2.512-10.965-0.525-24.537-0.525-24.537l9.284-3.664	l6.957,1.018L458.541,234.273z"/><path fill="#F2721C" d="M521.782,84.476c-1.481-0.049-3.813-3.494-7.359-7.863c2.301,2.896,1.624,8.074,1.514,9.23	c-0.11,1.156-1.463,4.81,1.496,5.233c2.959,0.423,3.688-4.486,8.246-7.406l0.001,0C524.484,84.173,523.286,84.525,521.782,84.476z"/><path fill="#D33131" d="M474.752,242.46c41.7,0,61.404-34.774,61.404-52.361c0-9.789-6.399-13.605-6.399-13.605	s0,32.022-56.133,32.022c-74.747,0-85.799-42.06-85.799-42.06S390.225,242.46,474.752,242.46z"/><path fill="#B72E2E" d="M531.216,176.831c-0.174,0.592-0.358,1.18-0.561,1.763c-0.648,2.579-1.311,5.151-2.462,7.585	c-0.387,0.817-1.223,1.22-2.09,1.259c-1.887,2.669-4.14,5.077-6.724,7.095c-1.123,0.877-2.447,0.702-3.386,0.056	c-7.78,6.693-21.152,12.447-44.149,12.447c-73.196,0-84.019-43.175-84.019-43.175s2.35,69.064,85.123,69.064	c40.835,0,63.976-26.74,63.976-44.794C536.924,182.671,533.942,179.026,531.216,176.831z"/><path fill="#71B200" d="M536.76,187.333c0,0.25,5.955,15.667,5.852,27.833c-0.102,12.167-10.769,3.75-10.769,3.75l-11-14.846	l9.583-15.541L536.76,187.333z"/><path fill="#B72E2E" d="M508.539,24.01c0.347-13.909-9.051-15.848-8.641-18.219c-6.239,3.86,0.52,20.889-11.227,20.503	c-0.667-0.022-1.324-0.108-2.009-0.238l0,0C495.765,28.293,508.261,32.482,508.539,24.01z"/><path fill="#FFBF0D" d="M474.752,222.828c41.7,0,65.331-22.831,65.331-38.246c0-8.58-10.325-11.925-10.325-11.925	s0,28.066-56.133,28.066c-74.747,0-85.799-36.864-85.799-36.864S390.225,222.828,474.752,222.828z"/><path fill="#FFFFFF" d="M432.028,205.033c5.267,1.101,7.7-2.364,8.102-4.286c0.402-1.922,0.881-20.912-6.805-22.519	c-5.053-1.057-4.123,5.155-5.121,9.923s-1.629,5.305-2.046,7.298C425.742,197.441,425.267,203.619,432.028,205.033z"/><circle fill="#FFFFFF" cx="417.845" cy="62.636" r="3.902"/><circle fill="#FFFFFF" cx="509.583" cy="62.201" r="3.304"/><path fill="#FFBF0D" d="M527.257,171.217c0,0,3.268,4.636,0.187,9.172c-3.081,4.536,5.798,1.61,5.798,1.61l6.519,0.109	c0,0-2.595-10.444-11.941-14.964C527.257,171.217,527.257,171.217,527.257,171.217z"/><path fill="#71B200" d="M458.486,169.747c0,0-2.431,27.701,7.695,27.972c10.126,0.271,9.085-13.104,9.014-13.266	S458.486,169.747,458.486,169.747z"/><path fill="#F49000" d="M459.065,168.599c0,0-1.554,19.808,8.074,19.638c9.628-0.17,14.273-8.152,14.148-15.244	C481.162,165.902,459.065,168.599,459.065,168.599z"/><path fill="#FFC200" d="M473.066,156.162c6.901,0,12.626,7.65,12.626,15.889s-6.099,16.477-8.185,16.477	s-8.239-16.263-18.885-16.263c-0.963,0-1.123-0.428-1.123-0.963C457.498,170.767,457.712,156.162,473.066,156.162z"/><ellipse transform="matrix(0.9993 0.0376 -0.0376 0.9993 6.4035 -17.6819)" fill="#FFF3B8" cx="473.169" cy="161.358" rx="4.653" ry="2.537"/><path fill="#78C800" d="M521.486,187.874L521.486,187.874c-5.268-4.548-15.324-12.358-22.26-12.358	c-9.784,0-9.681,18.498-9.523,31.358c0.158,12.86,12.181,37.87,29.348,37.87c15.701,0,23.561-14.904,23.561-28.283	S521.486,187.874,521.486,187.874z"/><path fill="#71B200" d="M520.742,244.679c0.365-0.026,0.728-0.056,1.084-0.099c0.076-0.009,0.151-0.021,0.227-0.03	c0.402-0.052,0.8-0.111,1.19-0.183c0.012-0.002,0.025-0.005,0.037-0.007c9.99-1.87,16.105-10.33,18.351-19.685	c-3.686,7.665-10.583,13.069-20.579,13.069c-17.167,0-29.19-25.009-29.348-37.87c-0.075-6.082-0.135-13.422,0.854-19.472	c-0.184,0.385-0.355,0.789-0.516,1.209c-0.01,0.026-0.021,0.052-0.031,0.078c-0.326,0.859-0.609,1.785-0.853,2.765	c-0.001,0.005-0.002,0.01-0.004,0.016c-0.122,0.491-0.234,0.995-0.337,1.51c-0.002,0.008-0.003,0.015-0.005,0.022	c-0.207,1.038-0.378,2.124-0.519,3.243c-0.003,0.02-0.005,0.039-0.007,0.059c-0.208,1.664-0.35,3.399-0.444,5.16	c-0.003,0.049-0.005,0.097-0.008,0.146c-0.061,1.167-0.102,2.344-0.128,3.517c0,0.016-0.001,0.032-0.001,0.049	c-0.012,0.549-0.02,1.098-0.026,1.644c-0.001,0.082-0.002,0.163-0.003,0.245c-0.011,1.125-0.011,2.239-0.005,3.33	c0.001,0.111,0.001,0.222,0.002,0.332c0.003,0.433,0.006,0.862,0.01,1.286c0.001,0.13,0.002,0.261,0.004,0.39	c0.005,0.496,0.011,0.989,0.017,1.471c0.158,12.86,12.181,37.87,29.348,37.87c0.47,0,0.931-0.015,1.387-0.041	C520.54,244.697,520.64,244.686,520.742,244.679z"/></svg>