<?xml version="1.0" encoding="UTF-8" standalone="no"?><svg width="270px" height="270px" viewBox="0 0 270 270" version="1.1" xmlns="http://www.w3.org/2000/svg" xmlns:xlink="http://www.w3.org/1999/xlink" xmlns:sketch="http://www.bohemiancoding.com/sketch/ns"><title>duo_nude_sad</title><desc>Created with Sketch.</desc><defs/><g id="Page-1" stroke="none" stroke-width="1" fill="none" fill-rule="evenodd" sketch:type="MSPage"><g id="duo_nude_sad" sketch:type="MSArtboardGroup"><g id="Imported-Layers" sketch:type="MSLayerGroup" transform="translate(45.000000, 24.000000)"><path d="M69.828,222.991 L69.942,222.991 L69.828,222.991 M70.257,222.991 L70.216,222.991 L70.257,222.991 M70.375,222.991 L70.286,222.991 L70.375,222.991 M70.486,222.991 L70.4,222.991 L70.486,222.991 M70.593,222.991 L70.493,222.991 L70.593,222.991 M70.691,222.99 C70.666,222.99 70.642,222.991 70.618,222.991 C70.642,222.991 70.667,222.99 70.691,222.99 M70.809,222.99 L70.721,222.99 L70.809,222.99 M70.917,222.99 L70.842,222.99 L70.917,222.99 M71.033,222.99 L70.932,222.99 L71.033,222.99 M71.246,222.989 C71.178,222.989 71.111,222.989 71.044,222.99 C71.11,222.989 71.179,222.989 71.246,222.989 M71.464,222.988 C71.399,222.988 71.336,222.989 71.271,222.989 C71.335,222.989 71.4,222.988 71.464,222.988 M71.584,222.988 L71.485,222.988 L71.584,222.988 M71.682,222.987 C71.651,222.987 71.619,222.987 71.588,222.988 C71.62,222.987 71.649,222.987 71.682,222.987 M71.803,222.987 L71.703,222.987 L71.803,222.987 M71.909,222.986 C71.874,222.986 71.839,222.987 71.803,222.987 C71.839,222.987 71.874,222.986 71.909,222.986 M110.821,215.532 C110.93,216.62 112.014,216.766 113.033,216.964 L95.436,222.121 C88.651,222.622 80.555,222.943 71.913,222.986 C95.401,222.87 114.871,220.696 114.871,218.458 C114.871,216.22 111.032,217.63 110.821,215.532 M110.82,215.521 L110.82,215.531 L110.82,215.521 M110.819,215.508 L110.819,215.517 L110.819,215.508 M110.817,215.495 C110.818,215.498 110.818,215.501 110.818,215.504 C110.818,215.501 110.818,215.498 110.817,215.495 M110.816,215.482 C110.817,215.485 110.817,215.488 110.817,215.491 C110.817,215.488 110.817,215.485 110.816,215.482 M110.815,215.469 C110.816,215.472 110.816,215.475 110.816,215.477 C110.816,215.475 110.816,215.472 110.815,215.469 M110.815,215.456 L110.815,215.464 L110.815,215.456 M110.814,215.443 L110.814,215.45 L110.814,215.443 M110.813,215.429 C110.813,215.431 110.813,215.434 110.814,215.436 C110.814,215.434 110.813,215.431 110.813,215.429 M110.813,215.415 L110.813,215.422 L110.813,215.415 M110.812,215.402 C110.812,215.404 110.812,215.406 110.813,215.408 C110.812,215.406 110.812,215.404 110.812,215.402 M110.812,215.388 L110.812,215.393 L110.812,215.388 M110.812,215.374 L110.812,215.378 L110.812,215.374 M110.812,215.359 L110.812,215.363 L110.812,215.359 M110.812,215.336 L110.812,215.338 L110.812,215.336 M110.812,215.328 L110.812,215.331 L110.812,215.328 M110.813,215.321 C110.813,215.322 110.812,215.323 110.812,215.324 C110.812,215.323 110.813,215.322 110.813,215.321 M110.813,215.313 L110.813,215.317 L110.813,215.313 M110.814,215.306 L110.814,215.309 L110.814,215.306 M110.815,215.299 L110.815,215.302 L110.815,215.299 M110.817,215.292 C110.816,215.293 110.816,215.294 110.816,215.295 C110.816,215.294 110.816,215.293 110.817,215.292 M110.818,215.285 C110.818,215.286 110.818,215.287 110.817,215.288 C110.817,215.287 110.818,215.286 110.818,215.285 M110.82,215.278 C110.819,215.279 110.819,215.28 110.819,215.281 C110.819,215.28 110.819,215.279 110.82,215.278 M110.821,215.271 L110.821,215.274 L110.821,215.271 M110.823,215.264 C110.823,215.265 110.823,215.266 110.822,215.267 C110.823,215.266 110.823,215.265 110.823,215.264 M110.825,215.257 C110.825,215.258 110.825,215.259 110.824,215.26 C110.825,215.259 110.825,215.258 110.825,215.257 M110.828,215.25 C110.828,215.251 110.827,215.252 110.827,215.253 C110.827,215.252 110.828,215.251 110.828,215.25 M110.83,215.243 C110.83,215.243 110.83,215.244 110.829,215.245 C110.83,215.244 110.83,215.244 110.83,215.243 M110.833,215.235 C110.833,215.236 110.832,215.237 110.832,215.238 C110.832,215.237 110.833,215.236 110.833,215.235 M110.836,215.229 C110.835,215.229 110.835,215.23 110.835,215.231 C110.835,215.23 110.835,215.229 110.836,215.229 M110.839,215.221 C110.838,215.222 110.838,215.222 110.838,215.223 C110.838,215.222 110.839,215.222 110.839,215.221 M110.846,215.206 C110.846,215.207 110.846,215.207 110.845,215.207 C110.845,215.207 110.846,215.207 110.846,215.206 M110.85,215.199 C110.849,215.199 110.849,215.2 110.849,215.2 C110.849,215.2 110.849,215.199 110.85,215.199 M110.854,215.191 C110.853,215.192 110.853,215.192 110.853,215.193 C110.853,215.192 110.853,215.192 110.854,215.191 M110.858,215.183 C110.858,215.183 110.857,215.185 110.857,215.186 C110.857,215.185 110.858,215.184 110.858,215.184 M110.862,215.177 C110.862,215.177 110.861,215.178 110.861,215.179 C110.861,215.178 110.862,215.178 110.862,215.178 M110.866,215.17 C110.866,215.17 110.865,215.171 110.865,215.172 C110.866,215.171 110.866,215.17 110.866,215.17 M110.871,215.163 C110.871,215.163 110.87,215.164 110.869,215.165 C110.87,215.164 110.871,215.163 110.871,215.163 M110.876,215.156 C110.875,215.156 110.874,215.157 110.874,215.158 C110.875,215.157 110.875,215.156 110.876,215.156 M110.88,215.148 C110.88,215.149 110.879,215.15 110.879,215.151 C110.879,215.15 110.88,215.149 110.88,215.148 M110.885,215.142 C110.885,215.142 110.884,215.143 110.884,215.144 C110.884,215.143 110.885,215.142 110.885,215.142 M110.891,215.135 C110.89,215.135 110.889,215.136 110.889,215.137 C110.89,215.136 110.89,215.135 110.891,215.135 M110.896,215.128 C110.896,215.128 110.895,215.129 110.894,215.13 C110.895,215.129 110.896,215.128 110.896,215.128 M110.902,215.121 C110.901,215.121 110.901,215.122 110.9,215.123 C110.901,215.122 110.901,215.121 110.902,215.121 M110.907,215.114 L110.906,215.115 C110.907,215.115 110.907,215.114 110.907,215.114 M110.913,215.107 C110.913,215.107 110.913,215.107 110.912,215.107 L110.913,215.107 M110.975,215.043 L110.975,215.044 L110.975,215.043 M110.983,215.036 C110.983,215.036 110.983,215.036 110.982,215.037 L110.983,215.036 M110.991,215.029 L110.99,215.029 L110.991,215.029 M110.999,215.022 C110.999,215.022 110.998,215.022 110.998,215.023 C110.998,215.022 110.999,215.022 110.999,215.022 M111.007,215.015 L111.006,215.015 L111.007,215.015 M91.576,199.793 C91.371,199.803 91.167,199.813 90.962,199.824 C91.166,199.813 91.371,199.803 91.576,199.793 M92.019,199.77 C91.881,199.777 91.745,199.784 91.607,199.791 C91.745,199.784 91.881,199.777 92.019,199.77 M92.192,199.761 C92.146,199.764 92.099,199.766 92.054,199.768 C92.1,199.766 92.145,199.764 92.192,199.761 M92.257,199.758 C92.24,199.759 92.223,199.76 92.206,199.761 C92.222,199.76 92.24,199.759 92.257,199.758 M92.36,199.753 C92.355,199.753 92.351,199.753 92.346,199.754 C92.35,199.753 92.355,199.753 92.36,199.753 M92.663,199.738 C92.632,199.739 92.604,199.741 92.573,199.742 C92.603,199.741 92.633,199.739 92.663,199.738 M92.905,199.726 C92.859,199.728 92.813,199.73 92.767,199.732 C92.814,199.73 92.859,199.728 92.905,199.726 M92.986,199.722 C92.975,199.722 92.965,199.722 92.954,199.723 C92.965,199.722 92.976,199.722 92.986,199.722 M93.318,199.705 L93.315,199.705 L93.318,199.705 M93.718,199.685 C93.711,199.685 93.704,199.686 93.697,199.686 C93.704,199.686 93.711,199.685 93.718,199.685 M95.846,199.581 L95.834,199.581 L95.846,199.581 M127.914,198.958 L119.941,201.294 C123.628,201.943 125.315,203.831 126.092,205.386 L144.754,199.917 C150.494,200.466 157.29,201.241 163.385,202.209 L128.288,212.494 C136.519,211.926 145.475,211.623 149.854,211.623 C153.17,211.623 157.984,211.814 162.8,211.814 C171.447,211.814 180.1,211.2 180.1,207.767 C180.1,202.421 136.05,198.97 131.923,198.97 C130.798,198.97 129.437,198.965 127.914,198.958 M112.439,198.916 C112.429,198.917 112.421,198.917 112.412,198.917 C112.421,198.917 112.43,198.917 112.439,198.916 M112.572,198.914 L112.569,198.914 L112.572,198.914 M112.656,198.912 C112.632,198.913 112.608,198.913 112.584,198.914 C112.608,198.913 112.632,198.913 112.656,198.912 M112.685,198.912 L112.674,198.912 L112.685,198.912 M112.693,198.912 L112.691,198.912 L112.692,198.912 M112.767,198.911 L112.754,198.911 L112.767,198.911 M112.811,198.91 C112.799,198.91 112.787,198.91 112.775,198.911 C112.787,198.91 112.799,198.91 112.811,198.91 M112.853,198.909 L112.836,198.909 L112.853,198.909 M112.864,198.909 L112.858,198.909 L112.864,198.909 M117.391,198.908 C117.4,198.909 117.409,198.909 117.419,198.909 C117.409,198.909 117.4,198.909 117.391,198.908 M112.947,198.908 L112.937,198.908 L112.947,198.908 M112.968,198.908 L112.962,198.908 L112.968,198.908 M112.992,198.907 L112.981,198.907 L112.992,198.907 M113.024,198.907 L113,198.907 L113.024,198.907 M116.666,198.907 L116.685,198.907 L116.666,198.907 M116.431,198.906 L116.487,198.906 L116.431,198.906 M113.111,198.906 C113.094,198.906 113.075,198.906 113.058,198.907 C113.076,198.906 113.093,198.906 113.111,198.906 M113.113,198.906 L113.111,198.906 L113.112,198.906 M113.144,198.906 L113.135,198.906 L113.144,198.906 M113.166,198.905 C113.162,198.905 113.156,198.906 113.151,198.906 C113.156,198.906 113.161,198.905 113.166,198.905 M115.957,198.905 L116.026,198.905 L115.957,198.905 M113.209,198.905 L113.207,198.905 L113.209,198.905 M113.236,198.905 L113.229,198.905 L113.236,198.905 M113.256,198.904 C113.253,198.904 113.25,198.904 113.247,198.905 C113.251,198.904 113.253,198.904 113.256,198.904 M115.376,198.904 L115.545,198.904 L115.376,198.904 M115.287,198.904 L115.314,198.904 L115.287,198.904 M113.4,198.903 C113.391,198.903 113.381,198.904 113.372,198.904 C113.382,198.904 113.391,198.903 113.4,198.903 M113.421,198.903 L113.406,198.903 L113.421,198.903 M114.79,198.903 L114.831,198.903 L114.79,198.903 M113.438,198.903 L113.421,198.903 L113.438,198.903 M114.655,198.903 L114.758,198.903 L114.655,198.903 M113.47,198.903 L113.44,198.903 L113.47,198.903 M113.48,198.903 L113.476,198.903 L113.48,198.903 M114.545,198.903 L114.628,198.903 L114.545,198.903 M114.485,198.903 L114.503,198.903 L114.485,198.903 M113.506,198.903 L113.492,198.903 L113.506,198.903 M113.555,198.903 L113.507,198.903 L113.555,198.903 M114.131,198.903 L114.138,198.903 L114.131,198.903 M113.565,198.903 L113.558,198.903 L113.565,198.903 M113.653,198.903 L114.116,198.903 L113.653,198.903 M58.507,195.79 C41.117,195.79 3.36,199.917 3.36,204.722 C3.36,209.052 23.254,208.24 23.254,210.541 C23.254,212.841 16.893,211.218 16.893,215.345 C16.893,219.466 45.488,222.979 69.821,222.991 C68.595,222.99 67.357,222.981 66.113,222.963 L108.537,210.531 C107.622,209.186 107.121,208.015 107.05,207.493 C106.964,206.856 106.788,205.985 106.997,205.087 L79.866,213.038 C77.878,215.451 74.174,216.731 69.539,217.441 C68.742,217.563 67.965,217.621 67.21,217.621 C66.405,217.621 65.627,217.555 64.882,217.429 L48.644,222.187 C33.05,221.035 19.616,218.762 17.262,216.153 L58.095,204.187 C59.915,202.261 62.783,200.99 65.607,200.558 C66.909,200.358 68.528,200.202 70.229,200.202 C70.675,200.202 71.126,200.213 71.578,200.236 L76.266,198.862 C77.384,199.617 77.48,200.305 76.626,200.644 C79.489,200.442 84.993,200.13 90.944,199.825 C84.995,200.13 79.494,200.442 76.629,200.644 C79.084,199.667 73.706,195.79 58.507,195.79" id="Fill-1" fill="#659DFF" sketch:type="MSShapeGroup"/><path d="M119.941,201.294 L106.997,205.087 C106.788,205.985 106.964,206.856 107.05,207.493 C107.121,208.015 107.622,209.186 108.537,210.531 L126.092,205.386 C125.315,203.831 123.628,201.943 119.941,201.294" id="Fill-2" fill="#AF987F" sketch:type="MSShapeGroup"/><path d="M79.866,213.038 L64.882,217.429 C65.627,217.555 66.405,217.621 67.21,217.621 C67.965,217.621 68.742,217.563 69.539,217.441 C74.174,216.731 77.878,215.451 79.866,213.038 M70.229,200.202 C68.528,200.202 66.909,200.358 65.607,200.558 C62.783,200.99 59.915,202.261 58.095,204.187 L71.578,200.236 C71.126,200.213 70.675,200.202 70.229,200.202" id="Fill-3" fill="#AF987F" sketch:type="MSShapeGroup"/><path d="M90.962,199.824 C90.956,199.824 90.951,199.825 90.944,199.825 C90.95,199.825 90.956,199.824 90.962,199.824 M91.607,199.791 C91.597,199.792 91.586,199.792 91.576,199.793 C91.587,199.792 91.597,199.792 91.607,199.791 M92.054,199.768 C92.042,199.769 92.03,199.77 92.019,199.77 C92.03,199.77 92.043,199.769 92.054,199.768 M92.206,199.761 L92.192,199.761 L92.206,199.761 M92.346,199.754 C92.316,199.755 92.287,199.757 92.257,199.758 C92.287,199.757 92.316,199.755 92.346,199.754 M92.573,199.742 C92.502,199.746 92.431,199.749 92.36,199.753 C92.431,199.749 92.503,199.746 92.573,199.742 M92.767,199.732 C92.732,199.734 92.698,199.736 92.663,199.738 C92.697,199.736 92.733,199.734 92.767,199.732 M92.954,199.723 C92.938,199.724 92.921,199.725 92.905,199.726 C92.922,199.725 92.938,199.724 92.954,199.723 M93.315,199.705 C93.205,199.711 93.095,199.716 92.986,199.722 C93.096,199.716 93.205,199.711 93.315,199.705 M93.697,199.686 C93.57,199.692 93.444,199.699 93.318,199.705 C93.444,199.699 93.57,199.692 93.697,199.686 M95.834,199.581 C95.13,199.615 94.423,199.65 93.718,199.685 C94.423,199.65 95.13,199.615 95.834,199.581 M112.412,198.917 C109.069,198.981 102.547,199.256 95.846,199.581 C102.546,199.256 109.068,198.981 112.412,198.917 M112.569,198.914 C112.526,198.915 112.482,198.916 112.439,198.916 C112.483,198.916 112.526,198.915 112.569,198.914 M112.584,198.914 L112.572,198.914 L112.584,198.914 M112.674,198.912 L112.656,198.912 L112.674,198.912 M112.691,198.912 L112.685,198.912 L112.691,198.912 M112.754,198.911 C112.734,198.911 112.714,198.911 112.693,198.912 C112.714,198.911 112.734,198.911 112.754,198.911 M112.775,198.911 L112.767,198.911 L112.775,198.911 M112.836,198.909 C112.828,198.91 112.82,198.91 112.811,198.91 C112.82,198.91 112.828,198.91 112.836,198.909 M112.858,198.909 L112.853,198.909 L112.858,198.909 M112.888,198.909 L112.864,198.909 L112.888,198.909 M117.419,198.909 C121.172,198.92 124.867,198.943 127.914,198.958 C124.866,198.943 121.172,198.92 117.419,198.909 M112.937,198.908 C112.921,198.908 112.905,198.909 112.888,198.909 C112.905,198.909 112.921,198.908 112.937,198.908 M112.962,198.908 L112.947,198.908 L112.962,198.908 M112.981,198.907 C112.977,198.908 112.973,198.908 112.968,198.908 C112.972,198.908 112.977,198.908 112.981,198.907 M113,198.907 L112.992,198.907 L113,198.907 M116.685,198.907 C116.92,198.907 117.156,198.908 117.391,198.908 C117.156,198.908 116.92,198.907 116.685,198.907 M113.058,198.907 L113.024,198.907 L113.058,198.907 M116.487,198.906 C116.546,198.906 116.606,198.906 116.666,198.907 C116.606,198.906 116.547,198.906 116.487,198.906 M113.135,198.906 L113.113,198.906 L113.135,198.906 M113.151,198.906 L113.144,198.906 L113.151,198.906 M116.026,198.905 C116.161,198.905 116.296,198.906 116.431,198.906 C116.296,198.906 116.161,198.905 116.026,198.905 M113.206,198.905 L113.166,198.905 L113.206,198.905 M113.229,198.905 L113.209,198.905 L113.229,198.905 M113.247,198.905 L113.236,198.905 L113.247,198.905 M115.545,198.904 C115.682,198.904 115.819,198.905 115.957,198.905 C115.819,198.905 115.682,198.904 115.545,198.904 M115.314,198.904 L115.376,198.904 L115.314,198.904 M113.372,198.904 L113.256,198.904 L113.372,198.904 M113.406,198.903 L113.4,198.903 L113.406,198.903 M114.831,198.903 C114.983,198.903 115.135,198.904 115.287,198.904 C115.135,198.904 114.983,198.903 114.831,198.903 M113.44,198.903 L113.438,198.903 L113.44,198.903 M114.758,198.903 L114.79,198.903 L114.758,198.903 M114.628,198.903 L114.655,198.903 L114.628,198.903 M113.476,198.903 L113.47,198.903 L113.476,198.903 M113.492,198.903 L113.48,198.903 L113.492,198.903 M114.503,198.903 L114.545,198.903 L114.503,198.903 M113.507,198.903 C113.506,198.903 113.507,198.903 113.507,198.903 M113.558,198.903 L113.555,198.903 L113.558,198.903 M114.138,198.903 L114.485,198.903 L114.138,198.903 M114.116,198.903 L114.131,198.903 L114.116,198.903 M113.653,198.903 L113.565,198.903 L113.653,198.903" id="Fill-4" fill="#FFFFFF" sketch:type="MSShapeGroup"/><path d="M58.095,204.187 L17.262,216.153 C19.616,218.762 33.05,221.035 48.644,222.187 L64.882,217.429 C60.214,216.641 56.832,213.517 56.247,209.703 C55.915,207.533 56.696,205.667 58.095,204.187 M76.266,198.862 L71.578,200.236 C76.027,200.467 80.613,201.934 81.325,206.579 C81.748,209.339 81.185,211.438 79.866,213.038 L106.997,205.087 C107.353,203.566 108.819,201.968 113.717,201.305 C114.955,201.138 116.073,201.063 117.086,201.063 C118.151,201.063 119.098,201.146 119.941,201.294 L127.914,198.958 C124.867,198.943 121.172,198.92 117.419,198.909 C117.409,198.909 117.4,198.909 117.391,198.908 C117.156,198.908 116.92,198.907 116.685,198.907 L116.666,198.907 C116.606,198.906 116.546,198.906 116.487,198.906 L116.431,198.906 C116.296,198.906 116.161,198.905 116.026,198.905 L115.957,198.905 C115.819,198.905 115.682,198.904 115.545,198.904 L115.376,198.904 L115.314,198.904 L115.287,198.904 C115.135,198.904 114.983,198.903 114.831,198.903 L114.79,198.903 L114.758,198.903 L114.655,198.903 L114.628,198.903 L114.545,198.903 L114.503,198.903 L114.485,198.903 L114.138,198.903 L114.131,198.903 L114.116,198.903 L113.653,198.903 L113.565,198.903 L113.558,198.903 L113.555,198.903 L113.507,198.903 L113.506,198.903 L113.492,198.903 L113.48,198.903 L113.476,198.903 L113.47,198.903 L113.44,198.903 L113.438,198.903 L113.421,198.903 L113.406,198.903 L113.4,198.903 C113.391,198.903 113.382,198.904 113.372,198.904 L113.256,198.904 C113.253,198.904 113.251,198.904 113.247,198.905 L113.236,198.905 L113.229,198.905 L113.209,198.905 L113.206,198.905 L113.166,198.905 C113.161,198.905 113.156,198.906 113.151,198.906 L113.144,198.906 L113.135,198.906 L113.113,198.906 L113.111,198.906 C113.093,198.906 113.076,198.906 113.058,198.907 L113.024,198.907 L113,198.907 L112.992,198.907 L112.981,198.907 C112.977,198.908 112.972,198.908 112.968,198.908 L112.962,198.908 L112.947,198.908 L112.937,198.908 C112.921,198.908 112.905,198.909 112.888,198.909 L112.864,198.909 L112.858,198.909 L112.853,198.909 L112.836,198.909 C112.828,198.91 112.82,198.91 112.811,198.91 C112.799,198.91 112.787,198.91 112.775,198.911 L112.767,198.911 L112.754,198.911 C112.734,198.911 112.714,198.911 112.693,198.912 L112.691,198.912 L112.685,198.912 L112.674,198.912 L112.656,198.912 C112.632,198.913 112.608,198.913 112.584,198.914 L112.572,198.914 L112.569,198.914 C112.526,198.915 112.483,198.916 112.439,198.916 C112.43,198.917 112.421,198.917 112.412,198.917 C109.068,198.981 102.546,199.256 95.846,199.581 L95.834,199.581 C95.13,199.615 94.423,199.65 93.718,199.685 C93.711,199.685 93.704,199.686 93.697,199.686 C93.57,199.692 93.444,199.699 93.318,199.705 L93.315,199.705 C93.205,199.711 93.096,199.716 92.986,199.722 C92.976,199.722 92.965,199.722 92.954,199.723 C92.938,199.724 92.922,199.725 92.905,199.726 C92.859,199.728 92.814,199.73 92.767,199.732 C92.733,199.734 92.697,199.736 92.663,199.738 C92.633,199.739 92.603,199.741 92.573,199.742 C92.503,199.746 92.431,199.749 92.36,199.753 C92.355,199.753 92.35,199.753 92.346,199.754 C92.316,199.755 92.287,199.757 92.257,199.758 C92.24,199.759 92.222,199.76 92.206,199.761 L92.192,199.761 C92.145,199.764 92.1,199.766 92.054,199.768 C92.043,199.769 92.03,199.77 92.019,199.77 C91.881,199.777 91.745,199.784 91.607,199.791 C91.597,199.792 91.587,199.792 91.576,199.793 C91.371,199.803 91.166,199.813 90.962,199.824 C90.956,199.824 90.95,199.825 90.944,199.825 C84.993,200.13 79.489,200.442 76.626,200.644 C77.48,200.305 77.384,199.617 76.266,198.862" id="Fill-5" fill="#85B1FF" sketch:type="MSShapeGroup"/><path d="M117.086,201.063 C116.073,201.063 114.955,201.138 113.717,201.305 C108.819,201.968 107.353,203.566 106.997,205.087 L119.941,201.294 C119.098,201.146 118.151,201.063 117.086,201.063" id="Fill-6" fill="#BFAD99" sketch:type="MSShapeGroup"/><path d="M71.578,200.236 L58.095,204.187 C56.696,205.667 55.915,207.533 56.247,209.703 C56.832,213.517 60.214,216.641 64.882,217.429 L79.866,213.038 C81.185,211.438 81.748,209.339 81.325,206.579 C80.613,201.934 76.027,200.467 71.578,200.236" id="Fill-7" fill="#BFAD99" sketch:type="MSShapeGroup"/><path d="M69.821,222.991 L69.828,222.991 L69.821,222.991 M70.216,222.991 L69.942,222.991 L70.216,222.991 M70.286,222.991 L70.257,222.991 L70.286,222.991 M70.4,222.991 L70.375,222.991 L70.4,222.991 M70.493,222.991 L70.486,222.991 L70.493,222.991 M70.618,222.991 L70.593,222.991 L70.618,222.991 M70.721,222.99 L70.691,222.99 L70.721,222.99 M70.842,222.99 L70.809,222.99 L70.842,222.99 M70.932,222.99 L70.917,222.99 L70.932,222.99 M71.044,222.99 L71.033,222.99 L71.044,222.99 M71.271,222.989 L71.246,222.989 L71.271,222.989 M71.485,222.988 L71.464,222.988 L71.485,222.988 M71.588,222.988 L71.584,222.988 L71.588,222.988 M71.703,222.987 L71.682,222.987 L71.703,222.987 M71.913,222.986 L71.909,222.986 L71.913,222.986 M110.82,215.531 C110.821,215.531 110.821,215.531 110.821,215.532 C110.821,215.531 110.82,215.531 110.82,215.531 M110.819,215.517 C110.819,215.518 110.819,215.52 110.82,215.521 C110.819,215.52 110.819,215.518 110.819,215.517 M110.818,215.504 C110.818,215.506 110.818,215.507 110.819,215.508 C110.818,215.507 110.818,215.506 110.818,215.504 M110.817,215.491 L110.817,215.495 L110.817,215.491 M110.816,215.477 L110.816,215.482 L110.816,215.477 M110.815,215.464 L110.815,215.469 L110.815,215.464 M110.814,215.45 C110.814,215.452 110.815,215.454 110.815,215.456 C110.815,215.454 110.814,215.452 110.814,215.45 M110.814,215.436 L110.814,215.443 L110.814,215.436 M110.813,215.422 L110.813,215.429 L110.813,215.422 M110.813,215.408 L110.813,215.415 L110.813,215.408 M110.812,215.393 L110.812,215.402 L110.812,215.393 M110.812,215.378 L110.812,215.388 L110.812,215.378 M110.812,215.363 L110.812,215.374 L110.812,215.363 M110.812,215.345 L110.812,215.345 L110.812,215.359 L110.812,215.345 M110.812,215.338 L110.812,215.345 L110.812,215.338 M110.812,215.331 L110.812,215.336 L110.812,215.331 M110.812,215.324 L110.812,215.328 L110.812,215.324 M110.813,215.317 L110.813,215.321 L110.813,215.317 M110.814,215.309 C110.814,215.311 110.813,215.312 110.813,215.313 C110.813,215.312 110.814,215.311 110.814,215.309 M110.815,215.302 C110.815,215.304 110.814,215.305 110.814,215.306 C110.814,215.305 110.815,215.304 110.815,215.302 M110.816,215.295 C110.816,215.297 110.816,215.298 110.815,215.299 C110.816,215.298 110.816,215.297 110.816,215.295 M110.817,215.288 L110.817,215.292 L110.817,215.288 M110.819,215.281 C110.819,215.282 110.818,215.284 110.818,215.285 C110.818,215.284 110.819,215.282 110.819,215.281 M110.821,215.274 C110.82,215.275 110.82,215.276 110.82,215.278 C110.82,215.276 110.82,215.275 110.821,215.274 M110.822,215.267 C110.822,215.268 110.822,215.269 110.821,215.271 C110.822,215.269 110.822,215.268 110.822,215.267 M110.824,215.26 C110.824,215.261 110.824,215.262 110.823,215.264 C110.824,215.262 110.824,215.261 110.824,215.26 M110.827,215.253 C110.826,215.254 110.826,215.255 110.825,215.257 C110.826,215.255 110.826,215.254 110.827,215.253 M110.829,215.245 C110.829,215.247 110.828,215.248 110.828,215.25 C110.828,215.248 110.829,215.247 110.829,215.245 M110.832,215.238 C110.831,215.24 110.831,215.241 110.83,215.243 C110.831,215.241 110.831,215.24 110.832,215.238 M110.835,215.231 C110.834,215.232 110.834,215.234 110.833,215.235 C110.834,215.234 110.834,215.232 110.835,215.231 M110.838,215.223 C110.837,215.225 110.836,215.227 110.836,215.229 C110.836,215.227 110.837,215.225 110.838,215.223 M110.845,215.207 C110.843,215.212 110.841,215.217 110.839,215.221 C110.841,215.217 110.843,215.212 110.845,215.207 M110.849,215.2 C110.848,215.202 110.847,215.204 110.846,215.206 C110.847,215.204 110.848,215.202 110.849,215.2 M110.853,215.193 C110.852,215.195 110.851,215.197 110.85,215.199 C110.851,215.197 110.852,215.195 110.853,215.193 M110.857,215.186 C110.856,215.188 110.855,215.189 110.854,215.191 C110.855,215.189 110.856,215.188 110.857,215.186 M110.861,215.179 C110.86,215.181 110.859,215.182 110.858,215.183 C110.859,215.182 110.86,215.181 110.861,215.179 M110.865,215.172 C110.864,215.173 110.863,215.175 110.862,215.177 C110.863,215.175 110.864,215.174 110.865,215.172 M110.869,215.165 C110.868,215.167 110.867,215.168 110.866,215.17 C110.867,215.168 110.868,215.167 110.869,215.165 M110.874,215.158 C110.873,215.159 110.872,215.161 110.871,215.163 C110.872,215.161 110.873,215.159 110.874,215.158 M110.879,215.151 C110.878,215.153 110.877,215.154 110.876,215.156 C110.877,215.154 110.878,215.153 110.879,215.151 M110.884,215.144 C110.883,215.145 110.882,215.147 110.88,215.148 C110.882,215.147 110.883,215.145 110.884,215.144 M110.889,215.137 C110.888,215.138 110.887,215.14 110.885,215.142 C110.887,215.14 110.888,215.138 110.889,215.137 M110.894,215.13 C110.893,215.131 110.892,215.133 110.891,215.135 C110.892,215.133 110.893,215.131 110.894,215.13 M110.9,215.123 C110.899,215.124 110.897,215.126 110.896,215.128 C110.897,215.126 110.899,215.124 110.9,215.123 M110.906,215.115 C110.905,215.117 110.903,215.119 110.902,215.121 C110.903,215.119 110.905,215.117 110.906,215.115 M110.912,215.107 C110.911,215.11 110.909,215.112 110.907,215.114 C110.909,215.112 110.911,215.11 110.912,215.107 M110.919,215.1 C110.917,215.102 110.915,215.104 110.913,215.107 C110.915,215.105 110.917,215.102 110.919,215.1 M110.967,215.05 C110.95,215.067 110.934,215.083 110.919,215.1 C110.934,215.083 110.95,215.067 110.967,215.05 M110.975,215.044 C110.972,215.046 110.97,215.048 110.967,215.05 C110.97,215.048 110.972,215.046 110.975,215.044 M110.982,215.037 C110.98,215.039 110.977,215.041 110.975,215.043 C110.978,215.041 110.98,215.039 110.982,215.037 M110.99,215.029 C110.988,215.032 110.985,215.034 110.983,215.036 C110.986,215.034 110.988,215.032 110.99,215.029 M110.998,215.023 C110.995,215.025 110.993,215.027 110.991,215.029 C110.993,215.027 110.996,215.025 110.998,215.023 M111.006,215.015 C111.004,215.018 111.002,215.02 110.999,215.022 C111.002,215.02 111.004,215.018 111.006,215.015 M111.015,215.008 C111.012,215.011 111.01,215.013 111.007,215.015 C111.01,215.013 111.012,215.01 111.015,215.008 M128.289,212.494 C119.942,213.07 112.341,213.921 111.015,215.008 C112.341,213.921 119.941,213.071 128.288,212.494" id="Fill-8" fill="#FFFFFF" sketch:type="MSShapeGroup"/><path d="M144.754,199.917 L126.092,205.386 C126.65,206.502 126.741,207.448 126.767,207.642 C126.81,207.958 127.199,210.306 126.451,212.553 C120.457,212.983 114.953,213.556 112.023,214.257 C110.531,213.109 109.365,211.749 108.537,210.531 L66.113,222.963 C67.357,222.981 68.595,222.99 69.821,222.991 L69.828,222.991 L69.942,222.991 L70.216,222.991 L70.257,222.991 L70.286,222.991 L70.375,222.991 L70.4,222.991 L70.486,222.991 L70.493,222.991 L70.593,222.991 L70.618,222.991 C70.642,222.991 70.666,222.99 70.691,222.99 L70.721,222.99 L70.809,222.99 L70.842,222.99 L70.917,222.99 L70.932,222.99 L71.033,222.99 L71.044,222.99 C71.111,222.989 71.178,222.989 71.246,222.989 L71.271,222.989 C71.336,222.989 71.399,222.988 71.464,222.988 L71.485,222.988 L71.584,222.988 L71.588,222.988 C71.619,222.987 71.651,222.987 71.682,222.987 L71.703,222.987 L71.803,222.987 C71.839,222.987 71.874,222.986 71.909,222.986 L71.913,222.986 C80.555,222.943 88.651,222.622 95.436,222.121 L113.033,216.964 C112.014,216.766 110.93,216.62 110.821,215.532 C110.821,215.531 110.821,215.531 110.82,215.531 L110.82,215.521 C110.819,215.52 110.819,215.518 110.819,215.517 L110.819,215.508 C110.818,215.507 110.818,215.506 110.818,215.504 C110.818,215.501 110.818,215.498 110.817,215.495 L110.817,215.491 C110.817,215.488 110.817,215.485 110.816,215.482 L110.816,215.477 C110.816,215.475 110.816,215.472 110.815,215.469 L110.815,215.464 L110.815,215.456 C110.815,215.454 110.814,215.452 110.814,215.45 L110.814,215.443 L110.814,215.436 C110.813,215.434 110.813,215.431 110.813,215.429 L110.813,215.422 L110.813,215.415 L110.813,215.408 C110.812,215.406 110.812,215.404 110.812,215.402 L110.812,215.393 L110.812,215.388 L110.812,215.378 L110.812,215.374 L110.812,215.363 L110.812,215.359 L110.812,215.345 L110.812,215.338 L110.812,215.336 L110.812,215.331 L110.812,215.328 L110.812,215.324 C110.812,215.323 110.813,215.322 110.813,215.321 L110.813,215.317 L110.813,215.313 C110.813,215.312 110.814,215.311 110.814,215.309 L110.814,215.306 C110.814,215.305 110.815,215.304 110.815,215.302 L110.815,215.299 C110.816,215.298 110.816,215.297 110.816,215.295 C110.816,215.294 110.816,215.293 110.817,215.292 L110.817,215.288 C110.818,215.287 110.818,215.286 110.818,215.285 C110.818,215.284 110.819,215.282 110.819,215.281 C110.819,215.28 110.819,215.279 110.82,215.278 C110.82,215.276 110.82,215.275 110.821,215.274 L110.821,215.271 C110.822,215.269 110.822,215.268 110.822,215.267 C110.823,215.266 110.823,215.265 110.823,215.264 C110.824,215.262 110.824,215.261 110.824,215.26 C110.825,215.259 110.825,215.258 110.825,215.257 C110.826,215.255 110.826,215.254 110.827,215.253 C110.827,215.252 110.828,215.251 110.828,215.25 C110.828,215.248 110.829,215.247 110.829,215.245 C110.83,215.244 110.83,215.243 110.83,215.243 C110.831,215.241 110.831,215.24 110.832,215.238 C110.832,215.237 110.833,215.236 110.833,215.235 C110.834,215.234 110.834,215.232 110.835,215.231 C110.835,215.23 110.835,215.229 110.836,215.229 C110.836,215.227 110.837,215.225 110.838,215.223 C110.838,215.222 110.838,215.222 110.839,215.221 C110.841,215.217 110.843,215.212 110.845,215.207 C110.846,215.207 110.846,215.207 110.846,215.206 C110.847,215.204 110.848,215.202 110.849,215.2 C110.849,215.2 110.849,215.199 110.85,215.199 C110.851,215.197 110.852,215.195 110.853,215.193 C110.853,215.192 110.853,215.192 110.854,215.191 C110.855,215.189 110.856,215.188 110.857,215.186 C110.857,215.185 110.858,215.184 110.858,215.184 C110.859,215.182 110.86,215.181 110.861,215.179 C110.861,215.178 110.862,215.177 110.862,215.177 C110.863,215.175 110.864,215.173 110.865,215.172 C110.865,215.171 110.866,215.17 110.866,215.17 C110.867,215.168 110.868,215.167 110.869,215.165 C110.87,215.164 110.871,215.163 110.871,215.163 C110.872,215.161 110.873,215.159 110.874,215.158 C110.874,215.157 110.875,215.156 110.876,215.156 C110.877,215.154 110.878,215.153 110.879,215.151 C110.879,215.15 110.88,215.149 110.88,215.148 C110.882,215.147 110.883,215.145 110.884,215.144 C110.884,215.143 110.885,215.142 110.885,215.142 C110.887,215.14 110.888,215.138 110.889,215.137 C110.889,215.136 110.89,215.135 110.891,215.135 C110.892,215.133 110.893,215.131 110.894,215.13 C110.895,215.129 110.896,215.128 110.896,215.128 C110.897,215.126 110.899,215.124 110.9,215.123 C110.901,215.122 110.901,215.121 110.902,215.121 C110.903,215.119 110.905,215.117 110.906,215.115 L110.907,215.114 C110.909,215.112 110.911,215.11 110.912,215.107 L110.913,215.107 C110.915,215.104 110.917,215.102 110.919,215.1 C110.934,215.083 110.95,215.067 110.967,215.05 C110.97,215.048 110.972,215.046 110.975,215.044 L110.975,215.043 C110.977,215.041 110.98,215.039 110.982,215.037 L110.983,215.036 C110.985,215.034 110.988,215.032 110.99,215.029 L110.991,215.029 C110.993,215.027 110.995,215.025 110.998,215.023 C110.998,215.022 110.999,215.022 110.999,215.022 C111.002,215.02 111.004,215.018 111.006,215.015 L111.007,215.015 C111.01,215.013 111.012,215.011 111.015,215.008 C112.341,213.921 119.942,213.07 128.289,212.494 L163.385,202.209 C157.29,201.241 150.494,200.466 144.754,199.917" id="Fill-9" fill="#85B1FF" sketch:type="MSShapeGroup"/><path d="M126.092,205.386 L108.537,210.531 C109.365,211.749 110.531,213.109 112.023,214.257 C114.953,213.556 120.457,212.983 126.451,212.553 C127.199,210.306 126.81,207.958 126.767,207.642 C126.741,207.448 126.65,206.502 126.092,205.386" id="Fill-10" fill="#BFAD99" sketch:type="MSShapeGroup"/><path d="M119.491,191.748 C126.203,192.129 125.55,199.387 125.518,199.946 C125.487,200.506 125.407,207.556 113.661,206.889 C106.229,206.467 106.817,203.173 106.91,201.535 C107.003,199.897 110.98,191.265 119.491,191.748" id="Fill-11" fill="#D98500" sketch:type="MSShapeGroup"/><path d="M48.656,0.477 C64.9,0.477 80.745,26.841 112.968,26.841 C139.731,26.841 140.663,14.857 153.446,14.857 C161.967,14.857 161.967,29.903 161.967,31.901 C161.967,43.318 158.206,71.58 158.206,75.974 C158.206,86.859 170.988,116.019 170.988,130.599 C170.988,145.378 160.103,157.062 149.618,157.062 C144.425,157.062 142.201,155.198 141.928,156.164 C140.63,160.757 130.444,201.102 88.701,201.102 C51.752,201.102 46.559,169.745 41.166,169.745 C39.069,169.745 32.578,183.127 13.904,183.127 C-0.876,183.127 0.222,174.738 0.222,173.44 C0.222,156.863 31.679,83.363 31.679,69.782 C31.679,56.201 30.681,53.205 30.681,47.712 C30.681,42.22 30.481,0.477 48.656,0.477" id="Fill-12" fill="#78C800" sketch:type="MSShapeGroup"/><path d="M144.057,34.795 C140.322,34.861 139.452,36.804 138.106,35.623 C137.493,35.031 140.661,33.589 140.65,32.987 C140.645,32.686 140.164,32.755 139.502,32.766 C135.586,32.835 127.976,38.694 126.892,38.713 C126.41,38.722 125.629,38.856 125.616,38.133 C125.588,36.506 131.045,35.024 127.25,35.091 C123.455,35.158 117.939,40.136 112.095,40.24 C100.047,40.452 90.182,31.166 90.223,33.515 C90.238,34.358 91.647,35.659 92.581,37.33 C92.581,37.33 93.167,39.85 92.126,38.904 C80.877,28.045 69.776,25.56 69.776,25.56 C69.776,25.56 68.932,25.575 68.939,25.936 C68.961,27.201 71.401,28.845 71.409,29.327 C71.418,29.809 71.122,30.116 70.64,30.124 C68.29,30.166 66.524,25.677 57.066,25.844 C42.79,26.096 39.253,48.635 39.578,67.068 C40.039,93.212 57.01,101.222 70.925,100.977 C81.962,100.782 93.662,94.068 98.439,84.428 L113.145,85.288 C113.145,85.288 120.586,98.807 133.538,98.579 C145.691,98.364 156.127,90.487 155.656,63.816 C155.162,35.804 147.792,34.729 144.057,34.795" id="Fill-13" fill="#8EE000" sketch:type="MSShapeGroup"/><path d="M87.626,67.317 C87.849,79.936 79.615,90.314 69.237,90.497 C58.858,90.68 50.264,80.599 50.041,67.98 C49.819,55.361 58.052,44.983 68.431,44.799 C78.809,44.616 87.403,54.698 87.626,67.317" id="Fill-14" fill="#FFFFFF" sketch:type="MSShapeGroup"/><path d="M148.431,69.808 C148.039,80.985 140.833,89.933 132.335,89.794 C123.838,89.655 117.266,80.481 117.658,69.304 C118.05,58.127 125.256,49.179 133.754,49.318 C142.252,49.457 148.823,58.631 148.431,69.808" id="Fill-15" fill="#FFFFFF" sketch:type="MSShapeGroup"/><path d="M78.77,67.473 C78.892,74.405 74.37,80.106 68.668,80.207 C62.967,80.307 58.246,74.769 58.124,67.837 C58.001,60.905 62.524,55.204 68.225,55.104 C73.927,55.003 78.648,60.541 78.77,67.473" id="Fill-16" fill="#3F3F3F" sketch:type="MSShapeGroup"/><path d="M66.45,59.726 C66.501,62.611 64.378,64.988 61.707,65.035 C59.037,65.082 56.831,62.781 56.78,59.896 C56.729,57.011 58.853,54.634 61.523,54.587 C64.193,54.539 66.399,56.84 66.45,59.726" id="Fill-17" fill="#FFFFFF" sketch:type="MSShapeGroup"/><path d="M141.491,69.931 C141.141,76.504 136.954,81.711 132.138,81.563 C127.323,81.414 123.703,75.965 124.053,69.392 C124.404,62.819 128.591,57.611 133.406,57.76 C138.221,57.908 141.841,63.358 141.491,69.931" id="Fill-18" fill="#3F3F3F" sketch:type="MSShapeGroup"/><path d="M131.315,62.469 C131.443,65.144 129.663,67.407 127.338,67.523 C125.014,67.638 123.025,65.563 122.897,62.888 C122.769,60.213 124.549,57.951 126.873,57.835 C129.198,57.719 131.186,59.794 131.315,62.469" id="Fill-19" fill="#FFFFFF" sketch:type="MSShapeGroup"/><path d="M92.819,92.197 C92.819,92.197 90.55,118.052 100,118.305 C109.451,118.558 108.48,106.075 108.414,105.923 C108.348,105.771 92.819,92.197 92.819,92.197" id="Fill-20" fill="#71B200" sketch:type="MSShapeGroup"/><path d="M123.953,98.992 C123.953,98.992 127.498,93.849 130.843,93.849 C134.189,93.849 138.832,96.246 138.832,96.246 L141.179,97.144 L143.176,98.593 C143.176,98.593 140.73,101.239 140.53,101.289 C140.33,101.339 130.893,105.733 130.943,105.533 C130.993,105.333 124.552,105.233 124.402,105.233 C124.252,105.233 121.955,104.484 121.955,104.484 L122.355,102.088 L123.304,99.891 L123.953,98.992" id="Fill-21" fill="#78C800" sketch:type="MSShapeGroup"/><path d="M90.913,201.06 C91.361,201.044 91.806,201.024 92.246,200.999 C92.377,200.991 92.509,200.985 92.639,200.977 C93.191,200.942 93.738,200.9 94.278,200.851 C94.389,200.84 94.499,200.828 94.611,200.817 C95.051,200.774 95.488,200.727 95.92,200.674 C96.069,200.656 96.219,200.638 96.367,200.619 C96.854,200.556 97.337,200.489 97.814,200.414 L97.94,200.396 C98.458,200.313 98.969,200.223 99.476,200.127 C99.608,200.103 99.738,200.076 99.87,200.05 C100.27,199.972 100.667,199.889 101.061,199.802 C101.178,199.777 101.296,199.752 101.412,199.725 C101.905,199.613 102.392,199.495 102.873,199.371 L103.078,199.316 C103.494,199.206 103.906,199.091 104.314,198.972 C104.438,198.936 104.561,198.9 104.684,198.863 C105.101,198.738 105.513,198.61 105.92,198.476 L106.076,198.426 C106.537,198.273 106.991,198.113 107.441,197.949 C107.539,197.913 107.636,197.875 107.734,197.839 C108.099,197.703 108.46,197.563 108.818,197.42 C108.916,197.381 109.014,197.342 109.112,197.302 C109.55,197.123 109.985,196.94 110.412,196.75 L110.463,196.727 C110.869,196.546 111.269,196.36 111.665,196.17 C111.762,196.124 111.859,196.077 111.956,196.029 C112.317,195.854 112.674,195.675 113.026,195.492 L113.182,195.412 C113.588,195.199 113.988,194.982 114.383,194.76 L114.582,194.646 C114.915,194.458 115.244,194.266 115.569,194.071 L115.807,193.928 C116.569,193.464 117.31,192.985 118.031,192.49 L118.254,192.336 C118.566,192.119 118.874,191.9 119.178,191.678 L119.323,191.573 C119.676,191.313 120.024,191.05 120.367,190.784 L120.488,190.688 C120.786,190.455 121.081,190.218 121.372,189.979 L121.571,189.816 C122.225,189.273 122.86,188.719 123.476,188.156 L123.649,187.996 C123.912,187.752 124.172,187.507 124.428,187.26 L124.57,187.124 C124.87,186.833 125.165,186.539 125.455,186.244 L125.521,186.176 C125.783,185.908 126.041,185.638 126.295,185.367 L126.468,185.182 C126.73,184.901 126.989,184.618 127.243,184.333 L127.272,184.301 C127.541,183.999 127.804,183.696 128.064,183.391 L128.211,183.217 C128.424,182.965 128.634,182.712 128.841,182.459 L128.989,182.278 C129.235,181.974 129.478,181.669 129.715,181.363 L129.756,181.31 C129.975,181.028 130.189,180.744 130.401,180.461 L130.568,180.236 C130.76,179.977 130.949,179.717 131.135,179.458 L131.234,179.32 C131.448,179.019 131.657,178.718 131.863,178.417 L132.006,178.207 C132.167,177.97 132.326,177.733 132.482,177.496 L132.645,177.249 C132.837,176.953 133.028,176.658 133.213,176.363 L133.269,176.273 C133.436,176.008 133.599,175.743 133.76,175.478 C133.819,175.381 133.878,175.284 133.936,175.187 C134.064,174.973 134.19,174.76 134.315,174.548 L134.469,174.286 C134.629,174.009 134.786,173.733 134.941,173.458 C134.996,173.358 135.051,173.26 135.106,173.16 C135.211,172.97 135.315,172.781 135.418,172.592 C135.48,172.476 135.543,172.361 135.604,172.247 C135.711,172.047 135.815,171.849 135.919,171.651 C135.995,171.506 136.07,171.362 136.144,171.217 C136.244,171.024 136.342,170.831 136.439,170.639 C136.505,170.507 136.57,170.375 136.635,170.244 C136.706,170.101 136.776,169.958 136.845,169.816 C136.911,169.682 136.976,169.547 137.04,169.414 C137.125,169.237 137.208,169.062 137.29,168.887 C137.386,168.682 137.481,168.477 137.574,168.275 C137.622,168.169 137.671,168.063 137.718,167.958 C137.79,167.801 137.86,167.645 137.929,167.489 L138.039,167.239 C138.106,167.088 138.173,166.936 138.238,166.786 L138.238,166.785 C140.5,161.552 141.564,157.452 141.928,156.164 C142.201,155.198 144.425,157.062 149.618,157.062 C149.996,157.062 150.374,157.043 150.753,157.013 L150.666,157.012 C144.771,157.012 140.111,155.024 136.533,152.413 C129.543,145.906 121.756,132.638 121.756,114.021 C121.756,101.938 124.252,98.643 124.252,98.643 C124.252,98.643 118.061,102.937 118.061,125.006 C118.061,147.476 130.843,161.856 130.843,164.552 C130.843,166.774 122.494,174.891 106.983,177.68 C104.82,177.97 102.521,178.133 100.085,178.133 C45.96,178.133 58.642,134.294 54.847,134.294 C52.251,134.294 45.96,180.33 10.508,180.33 C3.934,180.33 1.329,177.756 0.297,175.605 C0.322,175.784 0.355,175.97 0.397,176.16 L0.401,176.179 C0.441,176.364 0.49,176.554 0.548,176.747 L0.559,176.783 C0.617,176.972 0.684,177.165 0.762,177.359 L0.78,177.405 C0.859,177.597 0.947,177.791 1.048,177.985 L1.076,178.039 C1.125,178.13 1.175,178.221 1.228,178.313 L1.238,178.329 C1.294,178.425 1.354,178.52 1.417,178.615 L1.457,178.675 L1.635,178.928 L1.66,178.963 C1.729,179.056 1.802,179.148 1.878,179.24 L1.931,179.302 L2.14,179.539 L2.182,179.585 C2.265,179.674 2.353,179.762 2.444,179.85 L2.51,179.912 L2.753,180.133 L2.813,180.185 C2.912,180.27 3.016,180.354 3.124,180.437 L3.201,180.496 C3.293,180.565 3.387,180.633 3.485,180.7 L3.563,180.755 C3.681,180.835 3.802,180.913 3.928,180.99 L4.017,181.043 C4.123,181.107 4.233,181.17 4.345,181.232 L4.443,181.285 C4.58,181.359 4.721,181.43 4.866,181.5 L4.964,181.546 C5.088,181.604 5.215,181.661 5.345,181.716 L5.463,181.767 C5.621,181.832 5.783,181.896 5.95,181.958 L6.053,181.994 C6.196,182.046 6.344,182.096 6.494,182.145 L6.632,182.19 C6.813,182.246 6.998,182.301 7.19,182.354 L7.292,182.38 C7.458,182.425 7.629,182.467 7.804,182.508 L7.962,182.545 C8.168,182.592 8.378,182.636 8.594,182.678 L8.691,182.695 C8.883,182.731 9.081,182.765 9.282,182.796 L9.461,182.824 C9.694,182.859 9.93,182.891 10.174,182.921 L10.255,182.929 C10.479,182.955 10.708,182.979 10.941,183 L11.141,183.017 C11.402,183.039 11.667,183.058 11.94,183.074 L11.994,183.076 C12.253,183.09 12.519,183.101 12.789,183.109 L13.012,183.115 C13.303,183.122 13.599,183.127 13.904,183.127 C32.578,183.127 39.069,169.745 41.166,169.745 C46.559,169.745 51.752,201.102 88.701,201.102 C89.285,201.102 89.86,201.091 90.431,201.076 C90.593,201.071 90.753,201.066 90.913,201.06" id="Fill-22" fill="#71B200" sketch:type="MSShapeGroup"/><path d="M68.867,195.043 C76.234,195.592 81.288,197.821 80.795,204.435 C80.302,211.049 71.166,211.631 66.394,211.275 C61.622,210.919 56.528,208.098 56.884,203.326 C57.24,198.554 62.211,194.547 68.867,195.043" id="Fill-23" fill="#D98500" sketch:type="MSShapeGroup"/><path d="M93.359,91.126 C93.359,91.126 91.909,109.614 100.895,109.455 C109.881,109.297 114.217,101.846 114.1,95.228 C113.983,88.609 93.359,91.126 93.359,91.126" id="Fill-24" fill="#F49000" sketch:type="MSShapeGroup"/><path d="M106.427,79.519 C112.868,79.519 118.21,86.659 118.21,94.348 C118.21,102.038 112.518,109.727 110.571,109.727 C108.624,109.727 102.882,94.548 92.945,94.548 C92.046,94.548 91.897,94.149 91.897,93.649 C91.897,93.15 92.096,79.519 106.427,79.519" id="Fill-25" fill="#FFC200" sketch:type="MSShapeGroup"/><path d="M110.863,84.532 C110.813,85.839 108.831,86.825 106.434,86.735 C104.037,86.644 102.135,85.512 102.184,84.205 C102.233,82.898 104.216,81.912 106.612,82.002 C109.009,82.092 110.912,83.225 110.863,84.532" id="Fill-26" fill="#FFF3B8" sketch:type="MSShapeGroup"/><path d="M74.108,48.874 C77.178,48.874 79.716,49.658 81.672,50.614 C78.152,47.718 73.901,46.051 69.343,46.131 C58.092,46.33 49.066,57.072 48.475,70.509 C52.299,54.795 65.734,48.874 74.108,48.874" id="Fill-27" fill="#8EE000" sketch:type="MSShapeGroup"/><path d="M132.896,49.052 C129.86,49.002 126.971,49.984 124.426,51.746 C125.38,51.374 126.462,51.107 127.624,51.107 C136.483,51.107 148.119,58.915 148.119,73.104 C148.119,76.495 147.866,79.581 147.401,81.99 C148.595,79.023 149.322,75.689 149.446,72.157 C149.888,59.553 142.478,49.209 132.896,49.052" id="Fill-28" fill="#8EE000" sketch:type="MSShapeGroup"/><path d="M154.611,107.713 C154.962,107.978 156.484,109.044 157.407,108.429 C158.455,107.73 156.683,105.982 156.358,105.608 L156.347,105.588 C152.62,101.866 146.752,98.078 137.534,95.597 C144.114,98.615 150.319,103.237 154.611,107.713" id="Fill-29" fill="#71B200" sketch:type="MSShapeGroup"/><path d="M47.724,68.783 L49.588,65.321 L51.186,61.061 L53.716,56.8 L58.376,52.14 L63.835,49.876 L71.824,47.08 L75.419,48.145 L77.683,48.811 L79.813,49.477 L82.476,47.879 C82.476,47.879 71.425,40.822 70.892,40.289 C70.359,39.756 59.707,37.493 58.243,37.759 C56.778,38.026 48.656,44.151 48.656,44.151 L44.661,57.466 C44.661,57.466 44.395,64.922 44.661,65.321 C44.928,65.721 47.724,68.783 47.724,68.783" id="Fill-30" fill="#8EE000" sketch:type="MSShapeGroup"/><path d="M122.821,49.21 L127.747,50.142 L133.739,51.873 L139.065,53.471 L142.794,55.868 L144.924,59.596 C144.924,59.596 145.989,62.925 146.255,63.324 C146.522,63.724 147.587,66.12 147.853,66.52 C148.12,66.919 148.652,70.914 148.652,70.914 C148.652,70.914 148.386,75.308 148.785,75.574 C149.185,75.84 150.783,75.441 151.182,73.444 C151.582,71.446 151.848,64.922 151.981,63.324 C152.114,61.726 151.448,55.069 150.916,53.604 C150.383,52.14 147.454,47.746 146.522,46.414 C145.59,45.083 136.669,42.286 136.269,42.153 C135.87,42.02 129.345,42.686 128.28,42.952 C127.215,43.218 122.954,48.145 122.954,48.145 L122.288,49.61" id="Fill-31" fill="#8EE000" sketch:type="MSShapeGroup"/><path d="M87.658,93.548 C87.658,97.434 85.466,99.714 82.761,99.714 C80.057,99.714 77.865,97.434 77.865,93.548 C77.865,89.661 80.621,84.408 82.761,83.029 C84.901,84.553 87.658,89.661 87.658,93.548" id="Fill-32" fill="#2199EB" sketch:type="MSShapeGroup"/><path d="M82.505,89.208 C82.134,90.529 81.285,91.447 80.608,91.257 C79.931,91.067 79.683,89.841 80.054,88.52 C80.425,87.198 81.275,86.28 81.951,86.47 C82.628,86.66 82.876,87.886 82.505,89.208" id="Fill-33" fill="#27C2FF" sketch:type="MSShapeGroup"/></g></g></g></svg>