<?xml version="1.0" encoding="UTF-8" standalone="no"?><svg width="480px" height="480px" viewBox="0 0 480 480" version="1.1" xmlns="http://www.w3.org/2000/svg" xmlns:xlink="http://www.w3.org/1999/xlink" xmlns:sketch="http://www.bohemiancoding.com/sketch/ns"><title>duo-nude</title><description>Created with Sketch (http://www.bohemiancoding.com/sketch)</description><defs/><g id="Page-1" stroke="none" stroke-width="1" fill="none" fill-rule="evenodd" sketch:type="MSPage"><g id="mannequin-1" sketch:type="MSArtboardGroup"><g id="Imported-Layers-copy" sketch:type="MSLayerGroup" transform="translate(30.000000, 15.000000)"><path d="M372.078802,431.05589 C372.144966,440.96271 289.749797,449.56332 188.038802,450.266344 C86.3298744,450.969368 3.82305314,443.506494 3.75482126,433.599673 C3.68658937,423.692853 86.0838261,415.090163 187.794821,414.389219 C289.503749,413.686194 372.01057,421.149069 372.078802,431.05589" id="Fill-1" fill="#D6D6D6" sketch:type="MSShapeGroup"/><path d="M237.676464,396.233301 C251.355923,396.886407 250.164966,411.768477 250.111208,412.914532 C250.057449,414.062666 250.028502,428.507946 226.091517,427.368131 C210.946106,426.644307 212.081237,419.886537 212.240444,416.527412 C212.397585,413.170366 220.335227,395.405479 237.676464,396.233301" id="Fill-2" fill="#D98500" sketch:type="MSShapeGroup"/><path d="M94.712058,0.2121553 C128.141546,-0.696784562 158.891382,55.8114035 229.157816,53.9020058 C280.114628,52.5167565 285.176193,29.3439899 309.357159,28.6888044 C325.422667,28.2520141 326.91343,59.5782 327.039556,64.3121751 C327.810783,93.0425786 321.345295,136.511535 321.827053,154.467778 C322.230242,169.487125 338.595556,168.062356 340.055304,168.022837 C385.332329,166.793585 406.467671,155.599273 417.502628,155.299759 C428.537585,155.000246 426.883478,165.990722 426.914493,167.132617 C426.945507,168.276592 428.593411,253.835496 299.126512,307.015758 C287.425778,312.725231 277.476329,413.956588 181.730454,416.558611 C109.028348,418.532487 90.3617585,352.385793 83.5468406,352.570909 C76.7319227,352.756024 69.9852367,379.733027 24.7082126,380.962279 C-0.932502415,381.659064 0.103381643,365.784856 0.0330821256,363.172434 C-1.18475362,317.789919 62.1819903,179.820336 61.328058,147.986641 C60.7491208,126.438319 50.2476135,1.42060853 94.712058,0.2121553" id="Fill-3" fill="#78C800" sketch:type="MSShapeGroup"/><path d="M412.259111,216.333927 C373.422763,268.259976 316.416058,278.50167 309.40885,278.693025 C302.052213,278.892701 305.71399,270.079936 301.603536,270.192254 C294.461932,270.385689 294.858918,365.780696 197.922087,368.413918 C102.285797,371.01386 113.285604,288.812001 113.157411,284.023947 C113.029217,279.235893 112.351034,278.164717 111.05256,278.200076 C109.754087,278.235435 106.753952,279.40645 106.917295,285.500715 C108.414261,341.22268 48.5066667,376.176306 23.8398068,376.846051 C12.8275942,377.145564 5.97545894,374.551862 1.75335266,371.592087 C4.19936232,376.41758 10.1582802,381.357471 24.7082126,380.962279 C69.9852367,379.733027 76.7319227,352.756024 83.5468406,352.570909 C90.3617585,352.385793 109.028348,418.532487 181.730454,416.558611 C277.476329,413.956588 287.425778,312.725231 299.126512,307.015758 C364.802802,280.038756 396.737391,244.729458 412.259111,216.333927" id="Fill-4" fill="#71B200" sketch:type="MSShapeGroup"/><path d="M134.629778,403.95409 C149.646995,404.937908 159.983092,409.407729 159.104348,422.969029 C158.225604,436.530328 139.629314,437.898938 129.903169,437.260392 C120.177024,436.623926 109.747884,430.941492 110.382647,421.155309 C111.015343,411.371206 121.064039,403.06595 134.629778,403.95409" id="Fill-5" fill="#D98500" sketch:type="MSShapeGroup"/><path d="M291.186802,70.7288329 C283.542763,70.9368283 281.799749,74.9573793 279.02085,72.5487926 C277.755459,71.3424194 284.212676,68.3119265 284.179594,67.072274 C284.163053,66.4524477 283.17886,66.6042843 281.82456,66.6396435 C273.810415,66.8580387 258.344522,79.0694482 256.125952,79.1297668 C255.139691,79.1568062 253.543478,79.4479998 253.504193,77.9587528 C253.413217,74.610027 264.555691,71.4526569 256.789662,71.6648122 C249.021565,71.8748876 237.825333,82.2330581 225.866145,82.5575309 C201.209623,83.227276 180.837237,64.2955355 180.967498,69.1314283 C181.012986,70.8681899 183.922145,73.5201311 185.86572,76.9416553 C185.86572,76.9416553 187.11457,82.1207406 184.964232,80.1926233 C161.730242,58.0494339 138.959401,53.1449025 138.959401,53.1449025 C138.959401,53.1449025 137.232928,53.1927415 137.253604,53.937365 C137.321836,56.5414673 142.348251,59.8797933 142.37513,60.8719313 C142.399942,61.8640694 141.800329,62.5005353 140.814068,62.5275747 C136.006821,62.6586118 132.303691,53.4506558 112.94858,53.9768841 C83.7287923,54.7693465 76.9221449,101.250077 77.9414879,139.200916 C79.3867633,193.025963 114.278068,209.193445 142.757643,208.419702 C165.344464,207.806116 189.165662,193.756027 198.759478,173.813429 L228.878686,175.300596 C228.878686,175.300596 244.369391,202.995182 270.876444,202.273438 C295.750068,201.597453 316.961913,185.176217 315.487691,130.265434 C313.939034,72.5945516 298.830841,70.5229175 291.186802,70.7288329" id="Fill-6" fill="#8EE000" sketch:type="MSShapeGroup"/><path d="M176.298783,138.787005 C176.995575,164.767709 160.340792,186.295232 139.1,186.87346 C117.85714,187.449607 100.07343,166.855983 99.37457,140.875279 C98.6777778,114.896654 115.33256,93.3670514 136.573353,92.7888242 C157.816213,92.212677 175.599923,112.806301 176.298783,138.787005" id="Fill-7" fill="#FFFFFF" sketch:type="MSShapeGroup"/><path d="M299.653758,142.377006 C299.060348,164.884187 284.431845,183.033865 266.981024,182.917387 C249.528135,182.80091 235.86315,164.459876 236.45656,141.954775 C237.049971,119.449674 251.678473,101.297916 269.131362,101.414393 C286.582184,101.530871 300.247169,119.871904 299.653758,142.377006" id="Fill-8" fill="#FFFFFF" sketch:type="MSShapeGroup"/><path d="M158.173913,139.277874 C158.556425,153.550518 149.40715,165.377136 137.739498,165.693289 C126.069778,166.011522 116.300213,154.698653 115.9177,140.426009 C115.533121,126.155445 124.682396,114.328827 136.352116,114.010594 C148.019768,113.694441 157.789333,125.00731 158.173913,139.277874" id="Fill-9" fill="#3F3F3F" sketch:type="MSShapeGroup"/><path d="M132.806126,123.561742 C132.965333,129.502091 128.664657,134.437821 123.199903,134.587578 C117.73515,134.735255 113.173952,130.040799 113.014744,124.10045 C112.855536,118.160102 117.156213,113.224371 122.620966,113.076695 C128.087787,112.926938 132.646918,117.621394 132.806126,123.561742" id="Fill-10" fill="#FFFFFF" sketch:type="MSShapeGroup"/><path d="M285.4057,142.757637 C284.81229,155.996544 276.312251,166.55855 266.420696,166.352634 C256.531208,166.144639 248.994686,155.24568 249.590164,142.008854 C250.183575,128.769947 258.683614,118.207941 268.575169,118.413856 C278.464657,118.621852 286.001179,129.52081 285.4057,142.757637" id="Fill-11" fill="#3F3F3F" sketch:type="MSShapeGroup"/><path d="M188.752135,190.692255 C188.752135,190.692255 182.977237,242.322951 199.75401,241.850802 C216.53285,241.378652 215.647903,216.66256 215.542454,216.367206 C215.434937,216.073933 188.752135,190.692255 188.752135,190.692255" id="Fill-12" fill="#71B200" sketch:type="MSShapeGroup"/><path d="M264.369604,127.933806 C264.683884,133.316726 261.069662,137.905105 256.299633,138.181738 C251.529604,138.460452 247.406744,134.321344 247.092464,128.940503 C246.778184,123.557582 250.390338,118.969204 255.162435,118.69049 C259.932464,118.413856 264.055324,122.552965 264.369604,127.933806" id="Fill-13" fill="#FFFFFF" sketch:type="MSShapeGroup"/><path d="M188.309662,187.405928 C188.311729,187.405928 185.694106,225.535643 204.102242,225.036454 C222.508309,224.535185 231.248193,209.097767 230.882222,195.459509 C230.516251,181.821252 188.309662,187.405928 188.309662,187.405928" id="Fill-15" fill="#F49000" sketch:type="MSShapeGroup"/><path d="M215.372908,164.145803 C228.764966,163.781811 239.268541,179.142271 239.684135,194.608808 C240.099729,210.077426 227.958589,226.217868 223.825391,226.330185 C219.692193,226.442503 188.508155,198.829035 188.181469,186.688344 C187.854783,174.547653 199.16887,164.586753 215.372908,164.145803" id="Fill-16" fill="#FFC200" sketch:type="MSShapeGroup"/><path d="M224.04456,173.476476 C223.968058,176.172097 219.925836,178.241651 215.01314,178.102294 C210.102512,177.962937 206.18228,175.664588 206.256715,172.971048 C206.333217,170.277507 210.37544,168.205873 215.288135,168.34523 C220.200831,168.484587 224.121063,170.782936 224.04456,173.476476" id="Fill-17" fill="#FFF3B8" sketch:type="MSShapeGroup"/><path d="M372.078802,431.05589 C372.144966,440.96271 289.749797,449.56332 188.038802,450.266344 C86.3298744,450.969368 3.82305314,443.506494 3.75482126,433.599673 C3.68658937,423.692853 86.0838261,415.090163 187.794821,414.389219 C289.503749,413.686194 372.01057,421.149069 372.078802,431.05589" id="Fill-18" fill="#D6D6D6" sketch:type="MSShapeGroup"/><path d="M237.676464,396.233301 C251.355923,396.886407 250.164966,411.768477 250.111208,412.914532 C250.057449,414.062666 250.028502,428.507946 226.091517,427.368131 C210.946106,426.644307 212.081237,419.886537 212.240444,416.527412 C212.397585,413.170366 220.335227,395.405479 237.676464,396.233301" id="Fill-19" fill="#D98500" sketch:type="MSShapeGroup"/><path d="M94.712058,0.2121553 C128.141546,-0.696784562 158.891382,55.8114035 229.157816,53.9020058 C280.114628,52.5167565 285.176193,29.3439899 309.357159,28.6888044 C325.422667,28.2520141 326.91343,59.5782 327.039556,64.3121751 C327.810783,93.0425786 321.345295,136.511535 321.827053,154.467778 C322.230242,169.487125 338.595556,168.062356 340.055304,168.022837 C385.332329,166.793585 406.467671,155.599273 417.502628,155.299759 C428.537585,155.000246 426.883478,165.990722 426.914493,167.132617 C426.945507,168.276592 428.593411,253.835496 299.126512,307.015758 C287.425778,312.725231 277.476329,413.956588 181.730454,416.558611 C109.028348,418.532487 90.3617585,352.385793 83.5468406,352.570909 C76.7319227,352.756024 69.9852367,379.733027 24.7082126,380.962279 C-0.932502415,381.659064 0.103381643,365.784856 0.0330821256,363.172434 C-1.18475362,317.789919 62.1819903,179.820336 61.328058,147.986641 C60.7491208,126.438319 50.2476135,1.42060853 94.712058,0.2121553" id="Fill-20" fill="#78C800" sketch:type="MSShapeGroup"/><path d="M412.259111,216.333927 C373.422763,268.259976 316.416058,278.50167 309.40885,278.693025 C302.052213,278.892701 305.71399,270.079936 301.603536,270.192254 C294.461932,270.385689 294.858918,365.780696 197.922087,368.413918 C102.285797,371.01386 113.285604,288.812001 113.157411,284.023947 C113.029217,279.235893 112.351034,278.164717 111.05256,278.200076 C109.754087,278.235435 106.753952,279.40645 106.917295,285.500715 C108.414261,341.22268 48.5066667,376.176306 23.8398068,376.846051 C12.8275942,377.145564 5.97545894,374.551862 1.75335266,371.592087 C4.19936232,376.41758 10.1582802,381.357471 24.7082126,380.962279 C69.9852367,379.733027 76.7319227,352.756024 83.5468406,352.570909 C90.3617585,352.385793 109.028348,418.532487 181.730454,416.558611 C277.476329,413.956588 287.425778,312.725231 299.126512,307.015758 C364.802802,280.038756 396.737391,244.729458 412.259111,216.333927" id="Fill-21" fill="#71B200" sketch:type="MSShapeGroup"/><path d="M134.629778,403.95409 C149.646995,404.937908 159.983092,409.407729 159.104348,422.969029 C158.225604,436.530328 139.629314,437.898938 129.903169,437.260392 C120.177024,436.623926 109.747884,430.941492 110.382647,421.155309 C111.015343,411.371206 121.064039,403.06595 134.629778,403.95409" id="Fill-22" fill="#D98500" sketch:type="MSShapeGroup"/><path d="M291.186802,70.7288329 C283.542763,70.9368283 281.799749,74.9573793 279.02085,72.5487926 C277.755459,71.3424194 284.212676,68.3119265 284.179594,67.072274 C284.163053,66.4524477 283.17886,66.6042843 281.82456,66.6396435 C273.810415,66.8580387 258.344522,79.0694482 256.125952,79.1297668 C255.139691,79.1568062 253.543478,79.4479998 253.504193,77.9587528 C253.413217,74.610027 264.555691,71.4526569 256.789662,71.6648122 C249.021565,71.8748876 237.825333,82.2330581 225.866145,82.5575309 C201.209623,83.227276 180.837237,64.2955355 180.967498,69.1314283 C181.012986,70.8681899 183.922145,73.5201311 185.86572,76.9416553 C185.86572,76.9416553 187.11457,82.1207406 184.964232,80.1926233 C161.730242,58.0494339 138.959401,53.1449025 138.959401,53.1449025 C138.959401,53.1449025 137.232928,53.1927415 137.253604,53.937365 C137.321836,56.5414673 142.348251,59.8797933 142.37513,60.8719313 C142.399942,61.8640694 141.800329,62.5005353 140.814068,62.5275747 C136.006821,62.6586118 132.303691,53.4506558 112.94858,53.9768841 C83.7287923,54.7693465 76.9221449,101.250077 77.9414879,139.200916 C79.3867633,193.025963 114.278068,209.193445 142.757643,208.419702 C165.344464,207.806116 189.165662,193.756027 198.759478,173.813429 L228.878686,175.300596 C228.878686,175.300596 244.369391,202.995182 270.876444,202.273438 C295.750068,201.597453 316.961913,185.176217 315.487691,130.265434 C313.939034,72.5945516 298.830841,70.5229175 291.186802,70.7288329" id="Fill-23" fill="#8EE000" sketch:type="MSShapeGroup"/><path d="M176.298783,138.787005 C176.995575,164.767709 160.340792,186.295232 139.1,186.87346 C117.85714,187.449607 100.07343,166.855983 99.37457,140.875279 C98.6777778,114.896654 115.33256,93.3670514 136.573353,92.7888242 C157.816213,92.212677 175.599923,112.806301 176.298783,138.787005" id="Fill-24" fill="#FFFFFF" sketch:type="MSShapeGroup"/><path d="M299.653758,142.377006 C299.060348,164.884187 284.431845,183.033865 266.981024,182.917387 C249.528135,182.80091 235.86315,164.459876 236.45656,141.954775 C237.049971,119.449674 251.678473,101.297916 269.131362,101.414393 C286.582184,101.530871 300.247169,119.871904 299.653758,142.377006" id="Fill-25" fill="#FFFFFF" sketch:type="MSShapeGroup"/><path d="M158.173913,139.277874 C158.556425,153.550518 149.40715,165.377136 137.739498,165.693289 C126.069778,166.011522 116.300213,154.698653 115.9177,140.426009 C115.533121,126.155445 124.682396,114.328827 136.352116,114.010594 C148.019768,113.694441 157.789333,125.00731 158.173913,139.277874" id="Fill-26" fill="#3F3F3F" sketch:type="MSShapeGroup"/><path d="M132.806126,123.561742 C132.965333,129.502091 128.664657,134.437821 123.199903,134.587578 C117.73515,134.735255 113.173952,130.040799 113.014744,124.10045 C112.855536,118.160102 117.156213,113.224371 122.620966,113.076695 C128.087787,112.926938 132.646918,117.621394 132.806126,123.561742" id="Fill-27" fill="#FFFFFF" sketch:type="MSShapeGroup"/><path d="M285.4057,142.757637 C284.81229,155.996544 276.312251,166.55855 266.420696,166.352634 C256.531208,166.144639 248.994686,155.24568 249.590164,142.008854 C250.183575,128.769947 258.683614,118.207941 268.575169,118.413856 C278.464657,118.621852 286.001179,129.52081 285.4057,142.757637" id="Fill-28" fill="#3F3F3F" sketch:type="MSShapeGroup"/><path d="M188.752135,190.692255 C188.752135,190.692255 182.977237,242.322951 199.75401,241.850802 C216.53285,241.378652 215.647903,216.66256 215.542454,216.367206 C215.434937,216.073933 188.752135,190.692255 188.752135,190.692255" id="Fill-29" fill="#71B200" sketch:type="MSShapeGroup"/><path d="M264.369604,127.933806 C264.683884,133.316726 261.069662,137.905105 256.299633,138.181738 C251.529604,138.460452 247.406744,134.321344 247.092464,128.940503 C246.778184,123.557582 250.390338,118.969204 255.162435,118.69049 C259.932464,118.413856 264.055324,122.552965 264.369604,127.933806" id="Fill-30" fill="#FFFFFF" sketch:type="MSShapeGroup"/><path d="M188.309662,187.405928 C188.311729,187.405928 185.694106,225.535643 204.102242,225.036454 C222.508309,224.535185 231.248193,209.097767 230.882222,195.459509 C230.516251,181.821252 188.309662,187.405928 188.309662,187.405928" id="Fill-32" fill="#F49000" sketch:type="MSShapeGroup"/><path d="M215.372908,164.145803 C228.764966,163.781811 239.268541,179.142271 239.684135,194.608808 C240.099729,210.077426 227.958589,226.217868 223.825391,226.330185 C219.692193,226.442503 188.508155,198.829035 188.181469,186.688344 C187.854783,174.547653 199.16887,164.586753 215.372908,164.145803" id="Fill-33" fill="#FFC200" sketch:type="MSShapeGroup"/><path d="M224.04456,173.476476 C223.968058,176.172097 219.925836,178.241651 215.01314,178.102294 C210.102512,177.962937 206.18228,175.664588 206.256715,172.971048 C206.333217,170.277507 210.37544,168.205873 215.288135,168.34523 C220.200831,168.484587 224.121063,170.782936 224.04456,173.476476" id="Fill-34" fill="#FFF3B8" sketch:type="MSShapeGroup"/></g><g id="Imported-Layers" sketch:type="MSLayerGroup" transform="translate(29.000000, 16.000000)"><path d="M372.948145,429.76659 C373.014464,439.643779 290.426783,448.218664 188.478145,448.919585 C86.5315797,449.620507 3.83198551,442.179954 3.7635942,432.302765 C3.6952029,422.425576 86.2849565,413.848618 188.233594,413.14977 C290.180159,412.448848 372.879754,419.889401 372.948145,429.76659" id="Fill-1" fill="#D6D6D6" sketch:type="MSShapeGroup"/><path d="M238.231783,395.048157 C251.943203,395.699309 250.749464,410.536866 250.69558,411.679493 C250.641696,412.824194 250.612681,427.226267 226.619768,426.089862 C211.438971,425.368203 212.576754,418.630645 212.736333,415.281567 C212.893841,411.934562 220.850029,394.222811 238.231783,395.048157" id="Fill-2" fill="#D98500" sketch:type="MSShapeGroup"/><path d="M94.9333478,0.211520737 C128.440942,-0.694700461 159.262623,55.64447 229.693232,53.7407834 C280.769101,52.3596774 285.842493,29.2562212 310.079957,28.6029954 C326.183,28.1675115 327.677246,59.4 327.803667,64.1198157 C328.576696,92.7642857 322.096101,136.103226 322.578986,154.00576 C322.983116,168.980184 339.386667,167.559677 340.849826,167.520276 C386.232638,166.2947 407.417362,155.133871 418.478101,154.835253 C429.538841,154.536636 427.88087,165.49424 427.911957,166.632719 C427.943043,167.773272 429.594797,253.076267 299.825406,306.097465 C288.097333,311.789862 278.124638,412.718433 182.155058,415.312673 C109.283087,417.280645 90.5728841,351.331797 83.7420435,351.516359 C76.9112029,351.700922 70.1487536,378.597235 24.765942,379.822811 C-0.934681159,380.517512 0.103623188,364.690783 0.0331594203,362.086175 C-1.18752174,316.839401 62.3272754,179.282488 61.4713478,147.544009 C60.891058,126.060138 50.3650145,1.41635945 94.9333478,0.211520737" id="Fill-3" fill="#78C800" sketch:type="MSShapeGroup"/><path d="M413.222333,215.686866 C374.295246,267.457604 317.155348,277.668664 310.131768,277.859447 C302.757942,278.058525 306.428275,269.27212 302.308217,269.384101 C295.149928,269.576959 295.547841,364.686636 198.384522,367.311982 C102.524783,369.904147 113.55029,287.948157 113.421797,283.174424 C113.293304,278.400691 112.613536,277.332719 111.312029,277.367972 C110.010522,277.403226 107.003377,278.570737 107.167101,284.646774 C108.667565,340.202074 48.62,375.051152 23.8955072,375.718894 C12.8575652,376.017512 5.98942029,373.431567 1.75744928,370.480645 C4.20917391,375.291705 10.1820145,380.21682 24.765942,379.822811 C70.1487536,378.597235 76.9112029,351.700922 83.7420435,351.516359 C90.5728841,351.331797 109.283087,417.280645 182.155058,415.312673 C278.124638,412.718433 288.097333,311.789862 299.825406,306.097465 C365.655145,279.201152 397.664348,243.997465 413.222333,215.686866" id="Fill-4" fill="#71B200" sketch:type="MSShapeGroup"/><path d="M134.944333,402.745853 C149.996638,403.726728 160.356884,408.18318 159.476087,421.703917 C158.59529,435.224654 139.955551,436.589171 130.206681,435.952535 C120.457812,435.317972 110.004304,429.652535 110.640551,419.895622 C111.274725,410.140783 121.346899,401.860369 134.944333,402.745853" id="Fill-5" fill="#D98500" sketch:type="MSShapeGroup"/><path d="M291.867145,70.5172811 C284.205246,70.7246544 282.458159,74.7331797 279.672768,72.3317972 C278.40442,71.1290323 284.876725,68.1076037 284.843565,66.871659 C284.826986,66.2536866 283.840493,66.4050691 282.483029,66.4403226 C274.450159,66.6580645 258.94813,78.8329493 256.724377,78.8930876 C255.735812,78.9200461 254.13587,79.2103687 254.096493,77.725576 C254.005304,74.3868664 265.173812,71.2389401 257.389638,71.4504608 C249.603391,71.6599078 238.381,81.9870968 226.39387,82.3105991 C201.679739,82.978341 181.259754,64.1032258 181.390319,68.9246544 C181.435913,70.6562212 184.35187,73.3002304 186.299986,76.7115207 C186.299986,76.7115207 187.551754,81.8751152 185.396391,79.952765 C162.108116,57.8758065 139.284072,52.9859447 139.284072,52.9859447 C139.284072,52.9859447 137.553565,53.0336406 137.57429,53.7760369 C137.642681,56.3723502 142.680841,59.7006912 142.707783,60.6898618 C142.732652,61.6790323 142.131638,62.3135945 141.143072,62.340553 C136.324594,62.4711982 132.612812,53.2907834 113.212478,53.8154378 C83.9244203,54.60553 77.1018696,100.947235 78.1235942,138.784562 C79.5722464,192.448618 114.545072,208.567742 143.091188,207.796313 C165.730783,207.184562 189.607638,193.176498 199.22387,173.293548 L229.413449,174.776267 C229.413449,174.776267 244.940348,202.385945 271.509333,201.668433 C296.441072,200.99447 317.702478,184.62235 316.224812,129.875806 C314.672536,72.3774194 299.529043,70.3119816 291.867145,70.5172811" id="Fill-6" fill="#8EE000" sketch:type="MSShapeGroup"/><path d="M176.710696,138.371889 C177.409116,164.274885 160.71542,185.738018 139.425,186.314516 C118.132507,186.88894 100.307246,166.356912 99.6067536,140.453917 C98.9083333,114.550922 115.602029,93.087788 136.892449,92.5112903 C158.184942,91.9368664 176.010203,112.468894 176.710696,138.371889" id="Fill-7" fill="#FFFFFF" sketch:type="MSShapeGroup"/><path d="M300.353884,141.951152 C299.759087,164.391014 285.096406,182.486406 267.604812,182.370276 C250.111145,182.254147 236.414232,163.967972 237.009029,141.530184 C237.603826,119.092396 252.266507,100.994931 269.760174,101.11106 C287.251768,101.227189 300.948681,119.513364 300.353884,141.951152" id="Fill-8" fill="#FFFFFF" sketch:type="MSShapeGroup"/><path d="M158.543478,138.86129 C158.926884,153.091244 149.756232,164.882488 138.061319,165.197696 C126.364333,165.514977 116.571942,154.235945 116.188536,140.005991 C115.803058,125.778111 124.97371,113.986866 136.670696,113.669585 C148.365609,113.354378 158.158,124.63341 158.543478,138.86129" id="Fill-9" fill="#3F3F3F" sketch:type="MSShapeGroup"/><path d="M133.11642,123.192166 C133.276,129.114747 128.965275,134.035714 123.487754,134.185023 C118.010232,134.332258 113.438377,129.651843 113.278797,123.729263 C113.119217,117.806682 117.429942,112.885714 122.907464,112.736406 C128.387058,112.589171 132.956841,117.269585 133.11642,123.192166" id="Fill-10" fill="#FFFFFF" sketch:type="MSShapeGroup"/><path d="M286.072536,142.330645 C285.477739,155.529954 276.957841,166.060369 267.043174,165.855069 C257.13058,165.647696 249.576449,154.781336 250.173319,141.584101 C250.768116,128.384793 259.288014,117.854378 269.202681,118.059677 C279.115275,118.267051 286.669406,129.13341 286.072536,142.330645" id="Fill-11" fill="#3F3F3F" sketch:type="MSShapeGroup"/><path d="M189.694681,182.391014 C189.694681,182.391014 182.733275,244.294009 202.956377,243.729954 C223.179478,243.163825 222.114232,213.530184 221.985739,213.175576 C221.857246,212.823041 189.694681,182.391014 189.694681,182.391014" id="Fill-12" fill="#71B200" sketch:type="MSShapeGroup"/><path d="M264.98729,127.551152 C265.302304,132.917972 261.679638,137.492627 256.898464,137.768433 C252.11729,138.046313 247.984797,133.919585 247.669783,128.554839 C247.354768,123.188018 250.975362,118.613364 255.758609,118.335484 C260.539783,118.059677 264.672275,122.186406 264.98729,127.551152" id="Fill-13" fill="#FFFFFF" sketch:type="MSShapeGroup"/><path d="M189.416971,186.592396 C189.416971,186.592396 188.59213,191.272811 188.59213,196.06106 C188.59213,200.849309 188.206652,230.905991 207.022551,230.905991 C220.939145,230.905991 222.425101,214.336866 222.425101,214.336866 C222.425101,214.336866 219.838667,200.133871 219.728826,200.29977 C219.618986,200.465668 212.137391,186.208756 212.137391,186.208756 C212.137391,186.208756 196.625,183.181106 196.788725,183.235023 C196.954522,183.291014 189.416971,186.592396 189.416971,186.592396" id="Fill-15" fill="#F49000" sketch:type="MSShapeGroup"/><path d="M192.828246,196.776498 C193.134971,200.617051 197.945159,222.208756 211.861754,222.208756 C220.170261,222.208756 219.838667,212.85 219.838667,212.85 C219.838667,207.124424 217.803507,201.291014 217.803507,201.291014 C217.803507,201.291014 212.686594,194.078571 212.52287,193.968664 C212.357072,193.858756 201.244522,189.180415 201.244522,189.180415 L192.774362,187.088018 L191.232449,188.7947 L191.45213,190.00576 C191.45213,190.00576 192.442768,191.969585 192.828246,196.776498" id="Fill-16" fill="#935400" sketch:type="MSShapeGroup"/><path d="M213.457551,163.895392 C226.294391,163.895392 242.650275,180.116129 242.650275,199.493088 C242.650275,216.445853 235.976942,220.775806 234.582174,220.775806 C227.467406,220.775806 188.958957,199.712903 188.958957,185.327419 C188.958957,172.997005 202.968812,163.895392 213.457551,163.895392" id="Fill-17" fill="#FFC200" sketch:type="MSShapeGroup"/><path d="M225.20842,173.449078 C225.061275,176.117972 220.976449,178.063134 216.085435,177.791475 C211.19442,177.521889 207.35,175.139171 207.497145,172.470276 C207.64429,169.801382 211.729116,167.856221 216.62013,168.12788 C221.511145,168.397465 225.357638,170.780184 225.20842,173.449078" id="Fill-18" fill="#FFF3B8" sketch:type="MSShapeGroup"/></g></g></g></svg>