<?xml version="1.0" encoding="UTF-8" standalone="no"?><svg width="270px" height="270px" viewBox="0 0 270 270" version="1.1" xmlns="http://www.w3.org/2000/svg" xmlns:xlink="http://www.w3.org/1999/xlink" xmlns:sketch="http://www.bohemiancoding.com/sketch/ns"><title>duo_tracksuit_sad</title><desc>Created with Sketch.</desc><defs/><g id="Page-1" stroke="none" stroke-width="1" fill="none" fill-rule="evenodd" sketch:type="MSPage"><g id="duo_tracksuit_sad" sketch:type="MSArtboardGroup"><g id="Imported-Layers" sketch:type="MSLayerGroup" transform="translate(39.000000, 16.000000)"><path d="M74.579,238.883 L74.693,238.883 L74.579,238.883 M74.372,238.882 C74.433,238.882 74.493,238.883 74.554,238.883 C74.493,238.883 74.433,238.882 74.372,238.882 M74.174,238.882 L74.369,238.882 L74.174,238.882 M118.754,230.681 L118.754,230.683 L118.754,230.681 M118.754,230.673 L118.754,230.675 L118.754,230.673 M118.755,230.666 L118.755,230.667 C118.755,230.667 118.755,230.667 118.755,230.668 L118.755,230.666 M118.756,230.658 L118.756,230.66 L118.755,230.66 C118.756,230.659 118.756,230.658 118.756,230.658 M118.757,230.65 C118.757,230.651 118.756,230.651 118.756,230.652 C118.756,230.652 118.757,230.651 118.757,230.65 M118.758,230.642 L118.757,230.645 C118.757,230.644 118.758,230.643 118.758,230.643 M118.759,230.635 L118.759,230.637 L118.759,230.635 M118.76,230.628 L118.76,230.629 L118.76,230.63 L118.76,230.628 M118.762,230.621 L118.762,230.622 L118.762,230.621 M118.764,230.614 L118.763,230.615 C118.763,230.614 118.764,230.614 118.764,230.614 M118.766,230.606 C118.766,230.606 118.766,230.606 118.766,230.607 L118.765,230.607 L118.766,230.606 M118.768,230.599 L118.768,230.599 C118.768,230.599 118.768,230.599 118.768,230.6 L118.768,230.599 M114.667,219.7 L99.442,224.162 C99.863,224.154 100.28,224.15 100.695,224.15 C105.941,224.15 110.754,224.772 115.163,225.87 L116.316,225.532 C115.337,224.092 114.799,222.837 114.724,222.278 C114.632,221.595 114.443,220.662 114.667,219.7 M82.733,214.206 C82.764,214.513 82.559,214.768 82.127,214.939 C83.035,214.875 84.191,214.801 85.533,214.719 C84.191,214.801 83.037,214.875 82.129,214.939 C82.56,214.768 82.766,214.513 82.737,214.206 L82.733,214.206 M137.078,213.133 L128.535,215.636 C132.485,216.331 134.293,218.354 135.126,220.02 L155.12,214.161 C161.271,214.749 168.552,215.579 175.082,216.616 L137.478,227.636 C136.602,227.697 135.734,227.76 134.879,227.826 C144.342,227.094 155.426,226.703 160.585,226.703 C164.138,226.703 169.294,226.907 174.454,226.907 C183.718,226.907 192.991,226.249 192.991,222.571 C192.991,216.844 145.796,213.146 141.373,213.146 C140.168,213.146 138.71,213.141 137.078,213.133 M136.234,213.129 L136.28,213.129 L136.234,213.129 M118.897,213.127 C116.77,213.187 113.953,213.294 110.801,213.43 C113.953,213.295 116.771,213.187 118.897,213.127 M135.349,213.124 C135.374,213.124 135.4,213.124 135.426,213.125 C135.4,213.124 135.375,213.124 135.349,213.124 M134.882,213.122 L134.986,213.122 L134.882,213.122 M134.581,213.12 C134.667,213.12 134.753,213.121 134.838,213.121 C134.753,213.121 134.667,213.12 134.581,213.12 M133.962,213.117 C134.158,213.118 134.353,213.119 134.546,213.12 C134.353,213.119 134.158,213.118 133.962,213.117 M119.3,213.116 C119.17,213.119 119.038,213.123 118.902,213.127 C119.037,213.123 119.17,213.119 119.3,213.116 M133.431,213.114 C133.58,213.115 133.728,213.115 133.876,213.116 C133.728,213.115 133.58,213.115 133.431,213.114 M133.344,213.114 L133.429,213.114 L133.344,213.114 M133.034,213.112 C133.085,213.112 133.136,213.112 133.186,213.113 C133.136,213.112 133.085,213.112 133.034,213.112 M119.501,213.111 C119.439,213.112 119.374,213.114 119.311,213.116 C119.375,213.114 119.438,213.112 119.501,213.111 M119.578,213.109 C119.566,213.109 119.554,213.109 119.542,213.11 C119.554,213.109 119.566,213.109 119.578,213.109 M119.632,213.107 L119.627,213.107 L119.632,213.107 M132.085,213.107 L132.115,213.107 L132.085,213.107 M119.677,213.106 C119.668,213.106 119.661,213.107 119.652,213.107 C119.66,213.107 119.669,213.106 119.677,213.106 M131.934,213.106 L131.985,213.106 L131.934,213.106 M131.693,213.105 C131.752,213.105 131.811,213.105 131.87,213.106 C131.811,213.105 131.752,213.105 131.693,213.105 M131.587,213.104 L131.637,213.104 L131.587,213.104 M131.447,213.104 L131.479,213.104 L131.447,213.104 M131.242,213.102 C131.254,213.102 131.266,213.102 131.278,213.103 C131.266,213.102 131.254,213.102 131.242,213.102 M130.675,213.1 C130.795,213.1 130.916,213.101 131.036,213.101 C130.915,213.101 130.796,213.1 130.675,213.1 M130.43,213.098 C130.476,213.099 130.522,213.099 130.569,213.099 C130.523,213.099 130.476,213.099 130.43,213.098 M130.071,213.097 C130.161,213.097 130.25,213.097 130.34,213.098 C130.25,213.097 130.161,213.097 130.071,213.097 M120.101,213.096 C120.099,213.096 120.096,213.096 120.093,213.097 C120.096,213.096 120.098,213.096 120.101,213.096 M129.513,213.094 C129.676,213.095 129.838,213.096 130.001,213.096 C129.839,213.096 129.676,213.095 129.513,213.094 M129.439,213.094 L129.471,213.094 L129.439,213.094 M129.241,213.093 L129.35,213.093 L129.241,213.093 M120.29,213.092 C120.289,213.092 120.287,213.092 120.286,213.093 C120.288,213.092 120.289,213.092 120.29,213.092 M129.106,213.092 L129.12,213.092 L129.106,213.092 M128.799,213.091 L128.853,213.091 L128.799,213.091 M120.502,213.088 C120.49,213.088 120.477,213.089 120.465,213.089 C120.478,213.089 120.489,213.088 120.502,213.088 M120.684,213.085 C120.661,213.085 120.639,213.086 120.616,213.086 C120.639,213.086 120.661,213.085 120.684,213.085 M120.711,213.084 L120.71,213.084 L120.711,213.084 M120.777,213.083 C120.77,213.083 120.764,213.083 120.757,213.084 C120.764,213.083 120.77,213.083 120.777,213.083 M120.827,213.083 L120.822,213.083 L120.827,213.083 M120.867,213.082 L120.838,213.082 L120.867,213.082 M126.315,213.081 C126.336,213.081 126.358,213.081 126.379,213.082 C126.358,213.081 126.337,213.081 126.315,213.081 M126.2,213.081 L126.212,213.081 L126.2,213.081 M120.939,213.081 L120.935,213.081 L120.939,213.081 M125.667,213.08 L125.869,213.08 L125.667,213.08 M121.047,213.079 L121.045,213.079 L121.047,213.079 M125.288,213.078 C125.378,213.079 125.469,213.079 125.559,213.079 C125.469,213.079 125.379,213.079 125.288,213.078 M121.109,213.078 C121.106,213.078 121.101,213.079 121.098,213.079 C121.101,213.079 121.105,213.078 121.109,213.078 M124.812,213.077 L124.826,213.077 L124.812,213.077 M121.217,213.077 C121.194,213.077 121.17,213.078 121.147,213.078 C121.17,213.078 121.194,213.077 121.217,213.077 M121.29,213.076 C121.283,213.076 121.275,213.076 121.268,213.077 C121.275,213.076 121.282,213.076 121.29,213.076 M121.309,213.076 L121.307,213.076 L121.309,213.076 M121.361,213.076 L121.354,213.076 L121.361,213.076 M123.746,213.075 L123.812,213.075 L123.746,213.075 M123.665,213.075 L123.74,213.075 L123.665,213.075 M121.481,213.075 L121.48,213.075 L121.481,213.075 M123.399,213.075 L123.447,213.075 L123.399,213.075 M121.521,213.074 C121.514,213.074 121.507,213.075 121.5,213.075 C121.507,213.075 121.514,213.074 121.521,213.074 M123.248,213.074 C123.285,213.074 123.322,213.075 123.359,213.075 C123.322,213.075 123.284,213.074 123.248,213.074 M123.056,213.074 L123.098,213.074 L123.056,213.074 M121.563,213.074 L121.543,213.074 L121.563,213.074 M121.586,213.074 L121.57,213.074 L121.586,213.074 M122.892,213.074 L122.952,213.074 L122.892,213.074 M122.468,213.074 L122.8,213.074 L122.468,213.074 M121.718,213.074 L121.643,213.074 L121.718,213.074 M62.713,209.739 C44.081,209.739 3.628,214.161 3.628,219.309 C3.628,223.948 24.942,223.078 24.942,225.543 C24.942,228.008 18.127,226.268 18.127,230.69 C18.127,235.068 48.245,238.806 74.168,238.882 C70.193,238.87 66.118,238.772 62.07,238.599 C63.955,236.714 66.081,234.9 68.496,233.23 L52.146,238.022 C35.438,236.787 21.045,234.351 18.522,231.556 L62.271,218.736 C64.222,216.673 67.294,215.311 70.32,214.847 C71.715,214.633 73.449,214.466 75.272,214.466 C75.75,214.466 76.234,214.477 76.718,214.502 L79.988,213.544 C76.747,212.665 73.833,211.515 71.208,210.176 C68.782,209.904 65.957,209.739 62.713,209.739" id="Fill-1" fill="#659DFF" sketch:type="MSShapeGroup"/><path d="M74.722,238.883 L74.965,238.883 L74.722,238.883 M74.693,238.883 L74.696,238.883 L74.694,238.883 L74.693,238.883 M74.554,238.883 L74.579,238.883 L74.554,238.883 M74.369,238.882 L74.372,238.882 L74.369,238.882 M74.168,238.882 L74.174,238.882 L74.168,238.882 M118.754,230.68 L118.754,230.681 L118.754,230.68 M118.755,230.67 L118.754,230.673 C118.754,230.672 118.755,230.671 118.755,230.67 M118.755,230.663 L118.755,230.664 L118.755,230.666 L118.755,230.663 M118.756,230.655 L118.756,230.656 L118.756,230.658 L118.756,230.655 M118.757,230.647 L118.757,230.649 L118.757,230.65 L118.757,230.647 M118.758,230.639 L118.758,230.642 L118.758,230.639 M118.76,230.631 C118.76,230.632 118.759,230.633 118.759,230.633 L118.759,230.635 C118.759,230.634 118.759,230.633 118.76,230.631 M118.761,230.623 L118.761,230.626 C118.761,230.627 118.761,230.627 118.76,230.628 C118.761,230.627 118.761,230.625 118.761,230.623 M118.763,230.615 L118.763,230.618 C118.762,230.619 118.762,230.62 118.762,230.621 C118.762,230.619 118.763,230.617 118.763,230.615 M118.765,230.608 L118.765,230.61 C118.764,230.612 118.764,230.612 118.764,230.614 C118.764,230.612 118.765,230.61 118.765,230.608 M118.768,230.6 C118.767,230.601 118.767,230.602 118.767,230.603 C118.766,230.604 118.766,230.605 118.766,230.606 C118.766,230.604 118.767,230.602 118.768,230.6 M118.77,230.592 C118.77,230.593 118.769,230.594 118.769,230.595 C118.768,230.597 118.768,230.598 118.768,230.599 C118.768,230.597 118.769,230.594 118.77,230.592 M124.137,228.959 C123.255,229.094 122.46,229.234 121.767,229.38 L121.763,229.38 C121.753,229.382 121.743,229.385 121.733,229.387 L121.732,229.387 C121.712,229.391 121.692,229.395 121.672,229.4 C121.67,229.4 121.668,229.401 121.666,229.401 C121.658,229.403 121.65,229.404 121.642,229.406 C121.64,229.407 121.638,229.407 121.636,229.407 C121.628,229.409 121.62,229.411 121.612,229.413 C121.61,229.413 121.608,229.413 121.607,229.414 C121.589,229.418 121.57,229.422 121.552,229.426 C121.549,229.426 121.546,229.427 121.543,229.428 C121.536,229.429 121.531,229.43 121.525,229.432 C121.522,229.432 121.517,229.433 121.514,229.434 C121.507,229.435 121.5,229.437 121.493,229.439 C121.49,229.439 121.488,229.44 121.486,229.44 C121.478,229.442 121.47,229.444 121.462,229.445 C121.46,229.446 121.459,229.446 121.458,229.446 C121.45,229.448 121.443,229.45 121.436,229.451 C121.432,229.452 121.428,229.453 121.424,229.454 C121.419,229.455 121.414,229.456 121.409,229.457 C121.405,229.458 121.401,229.459 121.396,229.46 C121.39,229.462 121.385,229.463 121.379,229.464 C121.375,229.465 121.371,229.466 121.367,229.467 C121.361,229.468 121.356,229.469 121.35,229.471 C121.346,229.472 121.342,229.472 121.339,229.473 C121.335,229.474 121.332,229.475 121.329,229.476 C121.279,229.487 121.229,229.499 121.18,229.51 C121.177,229.511 121.174,229.512 121.17,229.512 C121.165,229.514 121.159,229.515 121.154,229.516 C121.151,229.517 121.148,229.518 121.144,229.519 C121.139,229.52 121.136,229.521 121.131,229.522 C121.125,229.523 121.12,229.524 121.115,229.526 C121.109,229.527 121.103,229.529 121.097,229.53 C121.095,229.53 121.093,229.531 121.091,229.531 C121.086,229.533 121.079,229.534 121.073,229.536 C121.069,229.537 121.066,229.537 121.062,229.539 C121.055,229.54 121.05,229.541 121.043,229.543 C121.042,229.543 121.04,229.544 121.038,229.544 C121.032,229.546 121.024,229.547 121.018,229.549 C121.015,229.55 121.013,229.55 121.01,229.551 C121.003,229.553 120.995,229.555 120.988,229.556 C120.988,229.557 120.987,229.557 120.987,229.557 C120.979,229.559 120.971,229.56 120.964,229.562 C120.962,229.563 120.96,229.563 120.959,229.564 C120.952,229.565 120.945,229.567 120.938,229.569 C120.936,229.569 120.935,229.57 120.934,229.57 C120.926,229.572 120.919,229.574 120.911,229.576 L120.909,229.576 C119.942,229.819 119.264,230.077 118.95,230.348 C118.947,230.351 118.945,230.353 118.943,230.355 L118.942,230.355 C118.939,230.358 118.937,230.36 118.934,230.362 C118.935,230.362 118.934,230.362 118.934,230.363 C118.929,230.367 118.924,230.372 118.919,230.377 L118.918,230.377 C118.899,230.396 118.88,230.415 118.864,230.434 C118.862,230.436 118.86,230.438 118.859,230.44 C118.858,230.441 118.858,230.441 118.857,230.442 C118.856,230.443 118.854,230.445 118.853,230.447 C118.852,230.448 118.852,230.448 118.851,230.449 C118.85,230.451 118.848,230.453 118.846,230.455 C118.847,230.455 118.846,230.456 118.845,230.456 C118.844,230.458 118.842,230.46 118.841,230.462 C118.841,230.463 118.84,230.463 118.84,230.464 C118.838,230.465 118.837,230.467 118.836,230.469 C118.835,230.47 118.835,230.471 118.834,230.471 C118.833,230.473 118.832,230.474 118.83,230.476 C118.83,230.477 118.829,230.478 118.829,230.479 C118.827,230.48 118.826,230.482 118.825,230.484 C118.825,230.484 118.824,230.485 118.824,230.486 C118.823,230.488 118.821,230.489 118.82,230.491 C118.82,230.492 118.819,230.493 118.819,230.494 C118.817,230.495 118.816,230.497 118.815,230.498 C118.815,230.499 118.814,230.5 118.814,230.501 C118.813,230.503 118.812,230.504 118.811,230.506 L118.809,230.508 C118.808,230.51 118.807,230.512 118.806,230.513 C118.806,230.514 118.805,230.515 118.805,230.515 C118.804,230.517 118.803,230.519 118.802,230.521 C118.802,230.521 118.801,230.522 118.801,230.523 C118.8,230.525 118.799,230.526 118.798,230.528 C118.797,230.529 118.797,230.529 118.797,230.53 C118.796,230.532 118.795,230.534 118.794,230.535 C118.793,230.536 118.793,230.537 118.793,230.538 C118.789,230.546 118.785,230.554 118.781,230.562 C118.781,230.563 118.78,230.564 118.78,230.565 C118.779,230.567 118.779,230.568 118.778,230.57 C118.778,230.571 118.777,230.572 118.777,230.573 C118.776,230.574 118.776,230.576 118.775,230.577 C118.775,230.578 118.774,230.579 118.774,230.58 C118.774,230.582 118.773,230.583 118.773,230.584 C118.772,230.585 118.772,230.587 118.771,230.588 C118.771,230.589 118.771,230.59 118.77,230.592 C118.971,229.981 121.02,229.436 124.138,228.96 L124.137,228.96" id="Fill-2" fill="#CAF47F" sketch:type="MSShapeGroup"/><path d="M75.31,238.883 L75.257,238.883 L75.31,238.883 M75.424,238.883 L75.326,238.883 L75.424,238.883 M75.552,238.883 L75.47,238.883 L75.552,238.883 M75.656,238.882 C75.622,238.882 75.588,238.883 75.554,238.883 C75.589,238.883 75.621,238.882 75.656,238.882 M75.763,238.882 L75.701,238.882 L75.763,238.882 M75.889,238.882 L75.8,238.882 L75.889,238.882 M76.138,238.881 C76.07,238.881 76.003,238.882 75.935,238.882 C76.003,238.882 76.07,238.881 76.138,238.881 M76.363,238.881 L76.142,238.881 L76.363,238.881 M76.598,238.88 C76.529,238.88 76.46,238.88 76.391,238.881 C76.46,238.88 76.528,238.88 76.598,238.88 M76.837,238.879 C76.763,238.879 76.689,238.88 76.616,238.88 C76.689,238.88 76.764,238.879 76.837,238.879 M118.761,230.863 C118.863,232.054 120.034,232.211 121.134,232.425 L102.28,237.951 C94.951,238.492 86.192,238.838 76.847,238.879 C102.116,238.768 123.104,236.431 123.104,234.025 C123.104,231.619 118.956,233.152 118.761,230.863 M118.759,230.836 C118.76,230.844 118.76,230.853 118.761,230.862 C118.76,230.853 118.76,230.844 118.759,230.836 M118.757,230.808 C118.758,230.816 118.758,230.825 118.759,230.833 C118.758,230.825 118.758,230.816 118.757,230.808 M118.756,230.779 C118.756,230.788 118.757,230.796 118.757,230.805 C118.757,230.796 118.756,230.788 118.756,230.779 M118.755,230.75 C118.755,230.759 118.755,230.768 118.756,230.776 C118.755,230.768 118.755,230.759 118.755,230.75 M118.754,230.721 C118.754,230.729 118.754,230.739 118.755,230.747 C118.754,230.739 118.754,230.73 118.754,230.721 M118.754,230.69 L118.754,230.719 L118.754,230.69 M118.754,230.68 L118.754,230.683 L118.754,230.681 L118.754,230.68 M118.754,230.672 L118.754,230.675 L118.754,230.673 L118.754,230.672 M118.755,230.664 L118.755,230.667 L118.755,230.666 L118.755,230.664 M118.756,230.656 L118.756,230.66 L118.756,230.658 L118.756,230.656 M118.757,230.649 C118.757,230.65 118.757,230.651 118.756,230.652 C118.756,230.651 118.757,230.651 118.757,230.65 L118.757,230.649 M118.758,230.641 C118.758,230.642 118.758,230.643 118.757,230.644 L118.758,230.641 M118.759,230.633 L118.759,230.637 L118.759,230.635 L118.759,230.633 M118.761,230.626 C118.761,230.627 118.76,230.628 118.76,230.629 C118.76,230.629 118.76,230.629 118.76,230.628 C118.761,230.627 118.761,230.627 118.761,230.626 M118.763,230.618 C118.762,230.619 118.762,230.62 118.762,230.622 L118.762,230.621 C118.762,230.62 118.762,230.619 118.763,230.618 M118.765,230.61 C118.764,230.612 118.764,230.613 118.764,230.614 C118.764,230.612 118.764,230.612 118.765,230.61 M118.767,230.603 C118.766,230.604 118.766,230.605 118.766,230.607 L118.766,230.606 C118.766,230.605 118.766,230.604 118.767,230.603 M118.769,230.595 C118.768,230.597 118.768,230.598 118.768,230.599 C118.768,230.598 118.768,230.597 118.769,230.595 M118.771,230.588 C118.771,230.589 118.771,230.591 118.77,230.592 C118.771,230.59 118.771,230.589 118.771,230.588 M118.774,230.58 C118.774,230.582 118.773,230.583 118.773,230.584 C118.773,230.583 118.774,230.582 118.774,230.58 M118.777,230.573 C118.776,230.574 118.776,230.576 118.775,230.577 C118.776,230.576 118.776,230.574 118.777,230.573 M118.78,230.565 C118.779,230.567 118.779,230.568 118.778,230.57 C118.779,230.568 118.779,230.567 118.78,230.565 M118.793,230.538 C118.789,230.546 118.785,230.554 118.781,230.562 C118.785,230.554 118.789,230.546 118.793,230.538 M118.797,230.53 C118.796,230.532 118.795,230.534 118.794,230.535 C118.795,230.534 118.796,230.532 118.797,230.53 M118.801,230.523 C118.8,230.525 118.799,230.526 118.798,230.528 C118.799,230.526 118.8,230.525 118.801,230.523 M118.805,230.515 C118.804,230.517 118.803,230.519 118.802,230.521 C118.803,230.519 118.804,230.517 118.805,230.515 M118.809,230.508 C118.808,230.51 118.807,230.512 118.806,230.513 C118.807,230.512 118.808,230.51 118.809,230.508 M118.814,230.501 C118.813,230.503 118.812,230.504 118.811,230.506 C118.812,230.504 118.813,230.503 118.814,230.501 M118.819,230.494 C118.817,230.495 118.816,230.497 118.815,230.498 C118.816,230.497 118.817,230.495 118.819,230.494 M118.824,230.486 C118.823,230.488 118.821,230.489 118.82,230.491 C118.821,230.489 118.823,230.488 118.824,230.486 M118.829,230.479 C118.827,230.48 118.826,230.482 118.825,230.484 C118.826,230.482 118.827,230.48 118.829,230.479 M118.834,230.471 C118.833,230.473 118.832,230.474 118.83,230.476 C118.832,230.474 118.833,230.473 118.834,230.471 M118.84,230.464 C118.838,230.466 118.837,230.467 118.836,230.469 C118.837,230.467 118.838,230.465 118.84,230.464 M118.845,230.456 C118.844,230.458 118.842,230.46 118.841,230.462 C118.842,230.46 118.844,230.458 118.845,230.456 M118.851,230.449 C118.85,230.451 118.848,230.453 118.846,230.455 C118.848,230.453 118.85,230.451 118.851,230.449 M118.857,230.442 C118.856,230.444 118.854,230.445 118.853,230.447 C118.854,230.445 118.856,230.443 118.857,230.442 M118.864,230.434 C118.862,230.436 118.86,230.438 118.859,230.44 C118.86,230.438 118.862,230.436 118.864,230.434 M118.918,230.377 C118.898,230.396 118.88,230.415 118.864,230.434 C118.88,230.415 118.899,230.396 118.918,230.377 M118.934,230.363 C118.929,230.367 118.924,230.372 118.919,230.377 C118.924,230.372 118.929,230.367 118.934,230.363 M118.942,230.355 C118.939,230.358 118.937,230.36 118.934,230.362 C118.937,230.36 118.939,230.358 118.942,230.355 M118.95,230.348 C118.947,230.351 118.945,230.353 118.943,230.355 C118.945,230.353 118.947,230.351 118.95,230.348 M120.909,229.576 C119.941,229.819 119.264,230.077 118.95,230.348 C119.264,230.077 119.942,229.819 120.909,229.576 M120.934,229.57 C120.927,229.572 120.918,229.574 120.911,229.576 C120.919,229.574 120.926,229.572 120.934,229.57 M120.959,229.564 C120.951,229.565 120.945,229.567 120.938,229.569 C120.945,229.567 120.952,229.565 120.959,229.564 M120.987,229.557 C120.979,229.559 120.971,229.56 120.964,229.562 C120.971,229.56 120.979,229.559 120.987,229.557 M121.01,229.551 C121.003,229.553 120.996,229.555 120.988,229.556 C120.995,229.555 121.003,229.553 121.01,229.551 M121.038,229.544 C121.032,229.546 121.024,229.547 121.018,229.549 C121.024,229.547 121.032,229.546 121.038,229.544 M121.062,229.539 C121.056,229.54 121.049,229.541 121.043,229.543 C121.05,229.541 121.055,229.54 121.062,229.539 M121.091,229.531 C121.085,229.533 121.079,229.534 121.073,229.536 C121.079,229.534 121.086,229.533 121.091,229.531 M121.115,229.526 C121.109,229.527 121.102,229.529 121.097,229.53 C121.103,229.529 121.109,229.527 121.115,229.526 M121.144,229.519 C121.14,229.52 121.135,229.521 121.131,229.522 C121.136,229.521 121.139,229.52 121.144,229.519 M121.17,229.512 C121.165,229.514 121.159,229.515 121.154,229.516 C121.159,229.515 121.165,229.514 121.17,229.512 M121.329,229.476 C121.279,229.487 121.229,229.499 121.18,229.51 C121.229,229.499 121.279,229.487 121.329,229.476 M121.35,229.471 C121.346,229.472 121.342,229.472 121.339,229.473 C121.342,229.472 121.346,229.472 121.35,229.471 M121.379,229.464 C121.375,229.465 121.371,229.466 121.367,229.467 C121.371,229.466 121.375,229.465 121.379,229.464 M121.409,229.457 C121.405,229.458 121.401,229.459 121.396,229.46 C121.401,229.459 121.405,229.458 121.409,229.457 M121.436,229.451 C121.432,229.452 121.428,229.453 121.424,229.454 C121.428,229.453 121.432,229.452 121.436,229.451 M121.462,229.445 C121.461,229.446 121.459,229.446 121.458,229.446 C121.459,229.446 121.46,229.446 121.462,229.445 M121.493,229.439 C121.49,229.439 121.488,229.44 121.486,229.44 C121.488,229.44 121.49,229.439 121.493,229.439 M121.525,229.432 C121.521,229.432 121.517,229.433 121.514,229.434 C121.517,229.433 121.522,229.432 121.525,229.432 M121.552,229.426 C121.549,229.426 121.546,229.427 121.543,229.428 C121.546,229.427 121.549,229.426 121.552,229.426 M121.612,229.413 C121.61,229.413 121.609,229.413 121.607,229.414 C121.608,229.413 121.61,229.413 121.612,229.413 M121.642,229.406 C121.64,229.407 121.638,229.407 121.636,229.407 C121.638,229.407 121.64,229.407 121.642,229.406 M121.672,229.4 C121.67,229.4 121.668,229.401 121.666,229.401 C121.668,229.401 121.67,229.4 121.672,229.4 M121.733,229.387 L121.732,229.387 L121.733,229.387 M121.767,229.38 L121.763,229.38 L121.767,229.38 M100.695,224.15 C100.28,224.15 99.863,224.154 99.442,224.162 L85.598,228.219 C83.468,230.803 79.498,232.175 74.533,232.936 C73.679,233.067 72.846,233.129 72.037,233.129 C71.175,233.129 70.342,233.058 69.544,232.924 L68.496,233.23 C66.081,234.9 63.955,236.714 62.07,238.599 C66.118,238.772 70.193,238.87 74.168,238.882 L74.174,238.882 L74.369,238.882 L74.372,238.882 C74.433,238.882 74.493,238.883 74.554,238.883 L74.579,238.883 L74.693,238.883 L74.694,238.883 C73.427,238.881 72.148,238.87 70.863,238.852 L115.163,225.87 C110.754,224.772 105.941,224.15 100.695,224.15" id="Fill-3" fill="#7DC37F" sketch:type="MSShapeGroup"/><path d="M128.535,215.636 L114.667,219.7 C114.443,220.662 114.632,221.595 114.724,222.278 C114.799,222.837 115.337,224.092 116.316,225.532 L135.126,220.02 C134.293,218.354 132.485,216.331 128.535,215.636" id="Fill-4" fill="#AF987F" sketch:type="MSShapeGroup"/><path d="M75.272,214.466 C73.449,214.466 71.715,214.633 70.32,214.847 C67.294,215.311 64.222,216.673 62.271,218.736 L76.718,214.502 C76.234,214.477 75.75,214.466 75.272,214.466" id="Fill-5" fill="#AF987F" sketch:type="MSShapeGroup"/><path d="M85.598,228.219 L69.544,232.924 C70.342,233.058 71.175,233.129 72.037,233.129 C72.846,233.129 73.679,233.067 74.533,232.936 C79.498,232.175 83.468,230.803 85.598,228.219" id="Fill-6" fill="#BBAB3F" sketch:type="MSShapeGroup"/><path d="M136.28,213.129 C136.55,213.13 136.816,213.132 137.078,213.133 C136.816,213.132 136.55,213.13 136.28,213.129 M118.902,213.127 L118.897,213.127 L118.902,213.127 M135.426,213.125 C135.699,213.126 135.969,213.127 136.234,213.129 C135.968,213.127 135.699,213.126 135.426,213.125 M134.986,213.122 C135.108,213.123 135.229,213.123 135.349,213.124 C135.229,213.123 135.108,213.123 134.986,213.122 M134.838,213.121 C134.853,213.121 134.867,213.122 134.882,213.122 C134.867,213.122 134.853,213.121 134.838,213.121 M134.546,213.12 L134.581,213.12 L134.546,213.12 M133.876,213.116 C133.905,213.117 133.933,213.117 133.962,213.117 C133.933,213.117 133.905,213.117 133.876,213.116 M119.311,213.116 L119.3,213.116 L119.311,213.116 M133.429,213.114 L133.431,213.114 L133.429,213.114 M133.186,213.113 C133.239,213.113 133.292,213.113 133.344,213.114 C133.292,213.113 133.239,213.113 133.186,213.113 M119.542,213.11 C119.529,213.11 119.514,213.11 119.501,213.111 C119.515,213.11 119.528,213.11 119.542,213.11 M119.627,213.107 C119.611,213.108 119.594,213.108 119.578,213.109 C119.594,213.108 119.611,213.108 119.627,213.107 M132.115,213.107 C132.424,213.109 132.731,213.11 133.034,213.112 C132.731,213.11 132.425,213.109 132.115,213.107 M119.652,213.107 L119.632,213.107 L119.652,213.107 M131.985,213.106 C132.018,213.106 132.051,213.107 132.085,213.107 C132.051,213.107 132.018,213.106 131.985,213.106 M131.87,213.106 L131.934,213.106 L131.87,213.106 M131.637,213.104 C131.656,213.105 131.674,213.105 131.693,213.105 C131.674,213.105 131.656,213.105 131.637,213.104 M131.479,213.104 L131.587,213.104 L131.479,213.104 M131.278,213.103 C131.334,213.103 131.391,213.103 131.447,213.104 C131.391,213.103 131.334,213.103 131.278,213.103 M131.036,213.101 C131.104,213.102 131.173,213.102 131.242,213.102 C131.173,213.102 131.105,213.102 131.036,213.101 M130.569,213.099 C130.604,213.099 130.639,213.099 130.675,213.1 C130.64,213.099 130.604,213.099 130.569,213.099 M130.34,213.098 L130.43,213.098 L130.34,213.098 M120.093,213.097 C119.958,213.099 119.82,213.103 119.677,213.106 C119.819,213.103 119.959,213.099 120.093,213.097 M130.001,213.096 C130.024,213.096 130.047,213.097 130.071,213.097 C130.048,213.097 130.024,213.096 130.001,213.096 M129.471,213.094 L129.513,213.094 L129.471,213.094 M129.35,213.093 C129.38,213.093 129.409,213.094 129.439,213.094 C129.409,213.094 129.38,213.093 129.35,213.093 M120.286,213.093 C120.226,213.094 120.164,213.095 120.101,213.096 C120.164,213.095 120.225,213.094 120.286,213.093 M129.12,213.092 C129.16,213.093 129.201,213.093 129.241,213.093 C129.201,213.093 129.16,213.093 129.12,213.092 M128.853,213.091 C128.937,213.091 129.022,213.092 129.106,213.092 C129.022,213.092 128.938,213.091 128.853,213.091 M120.465,213.089 C120.408,213.09 120.349,213.091 120.29,213.092 C120.35,213.091 120.408,213.09 120.465,213.089 M120.616,213.086 C120.579,213.087 120.54,213.088 120.502,213.088 C120.54,213.088 120.578,213.087 120.616,213.086 M120.71,213.084 C120.701,213.084 120.692,213.085 120.684,213.085 C120.693,213.085 120.701,213.085 120.71,213.084 M120.757,213.084 L120.711,213.084 L120.757,213.084 M120.822,213.083 L120.777,213.083 L120.822,213.083 M120.838,213.082 C120.834,213.082 120.83,213.082 120.827,213.083 C120.831,213.082 120.834,213.082 120.838,213.082 M126.379,213.082 C127.191,213.084 128,213.087 128.799,213.091 C128,213.087 127.191,213.084 126.379,213.082 M126.212,213.081 L126.315,213.081 L126.212,213.081 M120.935,213.081 C120.913,213.081 120.89,213.081 120.867,213.082 C120.89,213.081 120.913,213.081 120.935,213.081 M125.869,213.08 C125.979,213.08 126.089,213.081 126.2,213.081 C126.089,213.081 125.979,213.08 125.869,213.08 M121.045,213.079 C121.01,213.08 120.975,213.08 120.939,213.081 C120.975,213.08 121.01,213.08 121.045,213.079 M125.559,213.079 C125.595,213.079 125.632,213.079 125.667,213.08 C125.631,213.079 125.595,213.079 125.559,213.079 M121.098,213.079 L121.047,213.079 L121.098,213.079 M121.147,213.078 L121.109,213.078 L121.147,213.078 M124.826,213.077 C124.98,213.078 125.135,213.078 125.288,213.078 C125.134,213.078 124.981,213.078 124.826,213.077 M121.268,213.077 L121.217,213.077 L121.268,213.077 M121.307,213.076 L121.29,213.076 L121.307,213.076 M121.354,213.076 L121.309,213.076 L121.354,213.076 M123.812,213.075 C124.145,213.076 124.479,213.076 124.812,213.077 C124.479,213.076 124.145,213.076 123.812,213.075 M123.74,213.075 L123.746,213.075 L123.74,213.075 M121.48,213.075 C121.441,213.075 121.402,213.075 121.361,213.076 C121.402,213.075 121.441,213.075 121.48,213.075 M123.447,213.075 L123.665,213.075 L123.447,213.075 M123.359,213.075 L123.399,213.075 L123.359,213.075 M121.5,213.075 L121.481,213.075 L121.5,213.075 M121.543,213.074 L121.521,213.074 L121.543,213.074 M123.098,213.074 L123.248,213.074 L123.098,213.074 M121.57,213.074 L121.563,213.074 L121.57,213.074 M122.952,213.074 L123.056,213.074 L122.952,213.074 M122.8,213.074 L122.892,213.074 L122.8,213.074 M121.643,213.074 L121.586,213.074 L121.643,213.074 M121.798,213.074 L121.718,213.074 L121.798,213.074 L122.468,213.074 L121.798,213.074" id="Fill-7" fill="#FFFFFF" sketch:type="MSShapeGroup"/><path d="M121.798,213.074 L121.718,213.074 L121.643,213.074 L121.586,213.074 L121.57,213.074 L121.563,213.074 L121.543,213.074 L121.521,213.074 C121.514,213.074 121.507,213.075 121.5,213.075 L121.481,213.075 L121.48,213.075 C121.441,213.075 121.402,213.075 121.361,213.076 L121.354,213.076 L121.309,213.076 L121.307,213.076 L121.29,213.076 C121.282,213.076 121.275,213.076 121.268,213.077 L121.217,213.077 C121.194,213.077 121.17,213.078 121.147,213.078 L121.109,213.078 C121.105,213.078 121.101,213.079 121.098,213.079 L121.047,213.079 L121.045,213.079 C121.01,213.08 120.975,213.08 120.939,213.081 L120.935,213.081 C120.913,213.081 120.89,213.081 120.867,213.082 L120.838,213.082 C120.834,213.082 120.831,213.082 120.827,213.083 L120.822,213.083 L120.777,213.083 C120.77,213.083 120.764,213.083 120.757,213.084 L120.711,213.084 L120.71,213.084 C120.701,213.085 120.693,213.085 120.684,213.085 C120.661,213.085 120.639,213.086 120.616,213.086 C120.578,213.087 120.54,213.088 120.502,213.088 C120.489,213.088 120.478,213.089 120.465,213.089 C120.408,213.09 120.35,213.091 120.29,213.092 C120.289,213.092 120.288,213.092 120.286,213.093 C120.225,213.094 120.164,213.095 120.101,213.096 C120.098,213.096 120.096,213.096 120.093,213.097 C119.959,213.099 119.819,213.103 119.677,213.106 C119.669,213.106 119.66,213.107 119.652,213.107 L119.632,213.107 L119.627,213.107 C119.611,213.108 119.594,213.108 119.578,213.109 C119.566,213.109 119.554,213.109 119.542,213.11 C119.528,213.11 119.515,213.11 119.501,213.111 C119.438,213.112 119.375,213.114 119.311,213.116 L119.3,213.116 C119.17,213.119 119.037,213.123 118.902,213.127 L118.897,213.127 C116.771,213.187 113.953,213.295 110.801,213.43 C106.088,214.704 100.859,215.43 95.064,215.43 C91.64,215.43 88.47,215.179 85.533,214.719 C84.191,214.801 83.035,214.875 82.127,214.939 C82.559,214.768 82.764,214.513 82.733,214.206 C81.793,214.007 80.878,213.786 79.988,213.544 L76.718,214.502 C81.485,214.75 86.398,216.322 87.161,221.298 C87.407,222.905 87.341,224.303 87.003,225.519 C89.584,224.986 92.344,224.593 95.298,224.363 C96.708,224.253 98.089,224.187 99.442,224.162 L114.667,219.7 C115.048,218.07 116.619,216.357 121.867,215.648 C123.193,215.469 124.391,215.388 125.477,215.388 C126.618,215.388 127.632,215.477 128.535,215.636 L137.078,213.133 C136.816,213.132 136.55,213.13 136.28,213.129 L136.234,213.129 C135.969,213.127 135.699,213.126 135.426,213.125 C135.4,213.124 135.374,213.124 135.349,213.124 C135.229,213.123 135.108,213.123 134.986,213.122 L134.882,213.122 C134.867,213.122 134.853,213.121 134.838,213.121 C134.753,213.121 134.667,213.12 134.581,213.12 L134.546,213.12 C134.353,213.119 134.158,213.118 133.962,213.117 C133.933,213.117 133.905,213.117 133.876,213.116 C133.728,213.115 133.58,213.115 133.431,213.114 L133.429,213.114 L133.344,213.114 C133.292,213.113 133.239,213.113 133.186,213.113 C133.136,213.112 133.085,213.112 133.034,213.112 C132.731,213.11 132.424,213.109 132.115,213.107 L132.085,213.107 C132.051,213.107 132.018,213.106 131.985,213.106 L131.934,213.106 L131.87,213.106 C131.811,213.105 131.752,213.105 131.693,213.105 C131.674,213.105 131.656,213.105 131.637,213.104 L131.587,213.104 L131.479,213.104 L131.447,213.104 C131.391,213.103 131.334,213.103 131.278,213.103 C131.266,213.102 131.254,213.102 131.242,213.102 C131.173,213.102 131.104,213.102 131.036,213.101 C130.916,213.101 130.795,213.1 130.675,213.1 C130.639,213.099 130.604,213.099 130.569,213.099 C130.522,213.099 130.476,213.099 130.43,213.098 L130.34,213.098 C130.25,213.097 130.161,213.097 130.071,213.097 C130.047,213.097 130.024,213.096 130.001,213.096 C129.838,213.096 129.676,213.095 129.513,213.094 L129.471,213.094 L129.439,213.094 C129.409,213.094 129.38,213.093 129.35,213.093 L129.241,213.093 C129.201,213.093 129.16,213.093 129.12,213.092 L129.106,213.092 C129.022,213.092 128.937,213.091 128.853,213.091 L128.799,213.091 C128,213.087 127.191,213.084 126.379,213.082 C126.358,213.081 126.336,213.081 126.315,213.081 L126.212,213.081 L126.2,213.081 C126.089,213.081 125.979,213.08 125.869,213.08 L125.667,213.08 C125.632,213.079 125.595,213.079 125.559,213.079 C125.469,213.079 125.378,213.079 125.288,213.078 C125.135,213.078 124.98,213.078 124.826,213.077 L124.812,213.077 C124.479,213.076 124.145,213.076 123.812,213.075 L123.746,213.075 L123.74,213.075 L123.665,213.075 L123.447,213.075 L123.399,213.075 L123.359,213.075 C123.322,213.075 123.285,213.074 123.248,213.074 L123.098,213.074 L123.056,213.074 L122.952,213.074 L122.892,213.074 L122.8,213.074 L122.468,213.074 L121.798,213.074" id="Fill-8" fill="#85B1FF" sketch:type="MSShapeGroup"/><path d="M99.442,224.162 C98.089,224.187 96.708,224.253 95.298,224.363 C92.344,224.593 89.584,224.986 87.003,225.519 C86.719,226.542 86.243,227.436 85.598,228.219 L99.442,224.162" id="Fill-9" fill="#97CF99" sketch:type="MSShapeGroup"/><path d="M125.477,215.388 C124.391,215.388 123.193,215.469 121.867,215.648 C116.619,216.357 115.048,218.07 114.667,219.7 L128.535,215.636 C127.632,215.477 126.618,215.388 125.477,215.388" id="Fill-10" fill="#BFAD99" sketch:type="MSShapeGroup"/><path d="M62.271,218.736 L18.522,231.556 C21.045,234.351 35.438,236.787 52.146,238.022 L68.496,233.23 C68.687,233.098 68.881,232.967 69.076,232.836 C64.317,231.868 60.899,228.604 60.293,224.646 C59.936,222.321 60.773,220.321 62.271,218.736" id="Fill-11" fill="#85B1FF" sketch:type="MSShapeGroup"/><path d="M69.076,232.836 C68.881,232.967 68.687,233.098 68.496,233.23 L69.544,232.924 C69.386,232.897 69.23,232.868 69.076,232.836" id="Fill-12" fill="#97CF99" sketch:type="MSShapeGroup"/><path d="M76.718,214.502 L62.271,218.736 C60.773,220.321 59.936,222.321 60.293,224.646 C60.899,228.604 64.317,231.868 69.076,232.836 C73.844,229.647 79.709,227.026 87.003,225.519 C87.341,224.303 87.407,222.905 87.161,221.298 C86.398,216.322 81.485,214.75 76.718,214.502" id="Fill-13" fill="#BFAD99" sketch:type="MSShapeGroup"/><path d="M87.003,225.519 C79.709,227.026 73.844,229.647 69.076,232.836 C69.23,232.868 69.386,232.897 69.544,232.924 L85.598,228.219 C86.243,227.436 86.719,226.542 87.003,225.519" id="Fill-14" fill="#C8BB66" sketch:type="MSShapeGroup"/><path d="M75.257,238.883 L74.965,238.883 L75.257,238.883 M74.696,238.883 L74.722,238.883 L74.696,238.883 M75.326,238.883 L75.31,238.883 L75.326,238.883 M75.47,238.883 L75.424,238.883 L75.47,238.883 M75.554,238.883 L75.552,238.883 L75.554,238.883 M75.701,238.882 L75.656,238.882 L75.701,238.882 M75.8,238.882 L75.763,238.882 L75.8,238.882 M75.935,238.882 L75.889,238.882 L75.935,238.882 M76.142,238.881 L76.138,238.881 L76.142,238.881 M76.391,238.881 L76.363,238.881 L76.391,238.881 M76.616,238.88 L76.598,238.88 L76.616,238.88 M76.847,238.879 L76.837,238.879 L76.847,238.879 M118.761,230.862 L118.761,230.863 L118.761,230.862 M118.759,230.833 L118.759,230.836 L118.759,230.833 M118.757,230.805 L118.757,230.808 L118.757,230.805 M118.756,230.776 L118.756,230.779 L118.756,230.776 M118.755,230.747 L118.755,230.75 L118.755,230.747 M118.754,230.719 L118.754,230.721 L118.754,230.719 M118.754,230.683 L118.754,230.683 L118.754,230.69 L118.754,230.683 M118.754,230.675 L118.754,230.675 L118.754,230.68 L118.754,230.675 M118.755,230.668 L118.755,230.668 L118.755,230.67 L118.755,230.668 M118.755,230.66 L118.755,230.66 L118.755,230.663 L118.755,230.66 M118.756,230.652 L118.756,230.653 L118.756,230.655 L118.756,230.652 M118.757,230.645 L118.757,230.645 L118.757,230.647 L118.757,230.645 M118.759,230.637 L118.758,230.639 C118.758,230.639 118.759,230.638 118.759,230.637 M118.76,230.63 L118.76,230.631 L118.76,230.63 M118.762,230.622 L118.762,230.623 C118.762,230.623 118.762,230.623 118.761,230.623 C118.762,230.623 118.762,230.623 118.762,230.622 M118.765,230.607 L118.765,230.608 L118.765,230.607 M134.879,227.826 C130.794,228.142 127.01,228.521 124.137,228.959 C127.011,228.521 130.794,228.142 134.879,227.826" id="Fill-15" fill="#FFFFFF" sketch:type="MSShapeGroup"/><path d="M118.755,230.667 L118.755,230.668 L118.755,230.667 M118.756,230.66 L118.755,230.66 L118.756,230.66 M118.756,230.652 L118.756,230.653 L118.756,230.652 M118.757,230.644 L118.757,230.645 L118.757,230.644 M118.759,230.637 L118.759,230.638 L118.759,230.637 M118.76,230.629 L118.76,230.63 L118.76,230.629 M118.762,230.622 L118.762,230.623 L118.762,230.622 M118.764,230.614 C118.763,230.614 118.763,230.615 118.763,230.615 L118.764,230.614 M118.766,230.607 L118.765,230.607 L118.766,230.607 M118.768,230.599 L118.768,230.6 L118.768,230.599 M116.316,225.532 L115.163,225.87 C115.747,226.016 116.323,226.169 116.892,226.331 C116.686,226.061 116.494,225.794 116.316,225.532 M155.12,214.161 L135.126,220.02 C135.723,221.216 135.821,222.229 135.849,222.437 C135.895,222.776 136.312,225.291 135.51,227.699 C131.158,228.012 127.046,228.394 123.871,228.842 C123.96,228.881 124.048,228.92 124.137,228.959 C127.01,228.521 130.794,228.142 134.879,227.826 C135.734,227.76 136.602,227.697 137.478,227.636 L175.082,216.616 C168.552,215.579 161.271,214.749 155.12,214.161" id="Fill-16" fill="#85B1FF" sketch:type="MSShapeGroup"/><path d="M74.694,238.883 L74.696,238.883 L74.722,238.883 L74.965,238.883 L74.694,238.883 M118.754,230.683 L118.754,230.69 L118.754,230.683 M118.754,230.675 L118.754,230.68 L118.754,230.675 M118.755,230.668 C118.755,230.669 118.755,230.671 118.754,230.672 L118.755,230.67 L118.755,230.668 M118.755,230.66 L118.755,230.664 L118.755,230.663 L118.755,230.66 M118.756,230.653 L118.756,230.656 C118.756,230.656 118.756,230.656 118.756,230.655 L118.756,230.653 M118.757,230.645 L118.757,230.649 L118.757,230.647 L118.757,230.645 M118.759,230.638 C118.758,230.639 118.758,230.64 118.758,230.641 L118.759,230.638 M118.76,230.63 C118.76,230.631 118.76,230.632 118.759,230.633 C118.759,230.633 118.76,230.632 118.76,230.631 L118.76,230.63 M118.762,230.623 C118.761,230.623 118.761,230.625 118.761,230.626 L118.761,230.623 L118.762,230.623 M118.763,230.615 L118.763,230.618 L118.763,230.615 M118.765,230.607 L118.765,230.61 L118.765,230.608 L118.765,230.607 M118.768,230.6 C118.767,230.601 118.767,230.602 118.767,230.603 C118.767,230.602 118.767,230.601 118.768,230.6 M118.77,230.592 C118.77,230.593 118.769,230.594 118.769,230.595 C118.769,230.594 118.77,230.593 118.77,230.592 M118.773,230.584 C118.772,230.586 118.772,230.586 118.771,230.588 C118.772,230.587 118.772,230.585 118.773,230.584 M118.775,230.577 C118.775,230.578 118.774,230.579 118.774,230.58 C118.774,230.579 118.775,230.578 118.775,230.577 M118.778,230.57 C118.778,230.571 118.777,230.572 118.777,230.573 C118.777,230.572 118.778,230.571 118.778,230.57 M118.781,230.562 C118.781,230.563 118.78,230.564 118.78,230.565 C118.78,230.564 118.781,230.563 118.781,230.562 M118.794,230.535 C118.794,230.535 118.793,230.537 118.793,230.538 C118.793,230.537 118.793,230.536 118.794,230.535 M118.798,230.528 C118.797,230.529 118.797,230.529 118.797,230.53 C118.797,230.529 118.797,230.529 118.798,230.528 M118.802,230.521 C118.802,230.521 118.801,230.522 118.801,230.523 L118.801,230.521 M118.806,230.513 C118.806,230.514 118.805,230.515 118.805,230.515 C118.805,230.515 118.806,230.514 118.806,230.513 M118.811,230.506 L118.809,230.508 L118.811,230.506 M118.815,230.498 C118.815,230.499 118.814,230.5 118.814,230.501 C118.814,230.5 118.815,230.499 118.815,230.498 M118.82,230.491 C118.82,230.492 118.819,230.493 118.819,230.494 C118.819,230.493 118.82,230.492 118.82,230.491 M118.825,230.484 C118.825,230.484 118.824,230.485 118.824,230.486 L118.824,230.485 M118.83,230.476 C118.83,230.477 118.829,230.478 118.829,230.479 C118.829,230.478 118.83,230.477 118.83,230.476 M118.836,230.469 C118.835,230.47 118.835,230.471 118.834,230.471 C118.835,230.471 118.835,230.47 118.836,230.469 M118.841,230.462 C118.841,230.463 118.84,230.463 118.84,230.464 C118.84,230.463 118.841,230.463 118.841,230.462 M118.846,230.455 C118.847,230.455 118.846,230.456 118.845,230.456 C118.846,230.456 118.846,230.455 118.846,230.455 M118.853,230.447 C118.852,230.448 118.852,230.448 118.851,230.449 C118.852,230.448 118.852,230.448 118.853,230.447 M118.859,230.44 C118.858,230.441 118.858,230.441 118.857,230.442 C118.858,230.441 118.858,230.441 118.859,230.44 M118.919,230.377 L118.918,230.377 M118.934,230.362 C118.935,230.362 118.934,230.362 118.934,230.363 L118.934,230.362 M118.943,230.355 L118.942,230.355 L118.943,230.355 M120.911,229.576 L120.909,229.576 L120.911,229.576 M120.938,229.569 C120.937,229.569 120.935,229.57 120.934,229.57 C120.935,229.57 120.936,229.569 120.938,229.569 M120.964,229.562 C120.962,229.563 120.961,229.563 120.959,229.564 C120.96,229.563 120.962,229.563 120.964,229.562 M120.988,229.556 C120.988,229.557 120.987,229.557 120.987,229.557 C120.987,229.557 120.988,229.557 120.988,229.556 M121.018,229.549 C121.015,229.55 121.013,229.55 121.01,229.551 C121.013,229.55 121.015,229.55 121.018,229.549 M121.043,229.543 C121.042,229.543 121.04,229.544 121.038,229.544 C121.04,229.544 121.042,229.543 121.043,229.543 M121.073,229.536 C121.07,229.536 121.065,229.537 121.062,229.539 C121.066,229.537 121.069,229.537 121.073,229.536 M121.097,229.53 C121.095,229.53 121.093,229.531 121.091,229.531 C121.093,229.531 121.095,229.53 121.097,229.53 M121.131,229.522 C121.126,229.523 121.12,229.524 121.115,229.526 C121.12,229.524 121.125,229.523 121.131,229.522 M121.154,229.516 C121.151,229.517 121.147,229.518 121.144,229.519 C121.148,229.518 121.151,229.517 121.154,229.516 M121.18,229.51 C121.177,229.511 121.174,229.511 121.17,229.512 C121.174,229.512 121.177,229.511 121.18,229.51 M121.339,229.473 C121.335,229.474 121.332,229.475 121.329,229.476 C121.332,229.475 121.335,229.474 121.339,229.473 M121.367,229.467 C121.361,229.468 121.356,229.469 121.35,229.471 C121.356,229.469 121.361,229.468 121.367,229.467 M121.396,229.46 C121.391,229.461 121.385,229.463 121.379,229.464 C121.385,229.463 121.39,229.462 121.396,229.46 M121.424,229.454 C121.419,229.455 121.414,229.456 121.409,229.457 C121.414,229.456 121.419,229.455 121.424,229.454 M121.458,229.446 C121.451,229.448 121.443,229.45 121.436,229.451 C121.443,229.45 121.45,229.448 121.458,229.446 M121.486,229.44 C121.478,229.442 121.47,229.444 121.462,229.445 C121.47,229.444 121.478,229.442 121.486,229.44 M121.514,229.434 C121.507,229.436 121.5,229.437 121.493,229.439 C121.5,229.437 121.507,229.435 121.514,229.434 M121.543,229.428 C121.537,229.429 121.531,229.43 121.525,229.432 C121.531,229.43 121.536,229.429 121.543,229.428 M121.607,229.414 C121.589,229.418 121.57,229.422 121.552,229.426 C121.57,229.422 121.589,229.418 121.607,229.414 M121.636,229.407 C121.628,229.409 121.62,229.411 121.612,229.413 C121.62,229.411 121.628,229.409 121.636,229.407 M121.666,229.401 C121.659,229.403 121.65,229.404 121.642,229.406 C121.65,229.404 121.658,229.403 121.666,229.401 M121.732,229.387 C121.711,229.391 121.692,229.395 121.672,229.4 C121.692,229.395 121.712,229.391 121.732,229.387 M121.763,229.38 C121.753,229.382 121.743,229.385 121.733,229.387 C121.743,229.385 121.753,229.382 121.763,229.38 M124.137,228.959 C123.255,229.094 122.46,229.234 121.767,229.38 C122.46,229.234 123.255,229.094 124.137,228.959" id="Fill-17" fill="#D4F899" sketch:type="MSShapeGroup"/><path d="M115.163,225.87 L70.863,238.852 C72.148,238.87 73.427,238.881 74.694,238.883 L74.965,238.883 L75.257,238.883 L75.31,238.883 L75.326,238.883 L75.424,238.883 L75.47,238.883 L75.552,238.883 L75.554,238.883 C75.588,238.883 75.622,238.882 75.656,238.882 L75.701,238.882 L75.763,238.882 L75.8,238.882 L75.889,238.882 L75.935,238.882 C76.003,238.882 76.07,238.881 76.138,238.881 L76.142,238.881 L76.363,238.881 L76.391,238.881 C76.46,238.88 76.529,238.88 76.598,238.88 L76.616,238.88 C76.689,238.88 76.763,238.879 76.837,238.879 L76.847,238.879 C86.192,238.838 94.951,238.492 102.28,237.951 L121.134,232.425 C120.034,232.211 118.863,232.054 118.761,230.863 L118.761,230.862 C118.76,230.853 118.76,230.844 118.759,230.836 L118.759,230.833 C118.758,230.825 118.758,230.816 118.757,230.808 L118.757,230.805 C118.757,230.796 118.756,230.788 118.756,230.779 L118.756,230.776 C118.755,230.768 118.755,230.759 118.755,230.75 L118.755,230.747 C118.754,230.739 118.754,230.729 118.754,230.721 L118.754,230.719 L118.754,230.69 L118.754,230.683 L118.754,230.68 L118.754,230.675 L118.754,230.672 C118.755,230.671 118.755,230.669 118.755,230.668 L118.755,230.667 L118.755,230.664 L118.755,230.66 L118.756,230.66 L118.756,230.656 L118.756,230.653 L118.756,230.652 C118.757,230.651 118.757,230.65 118.757,230.649 L118.757,230.645 C118.757,230.645 118.757,230.645 118.757,230.644 C118.758,230.643 118.758,230.642 118.758,230.641 C118.758,230.64 118.758,230.639 118.759,230.638 L118.759,230.637 L118.759,230.633 C118.76,230.632 118.76,230.631 118.76,230.63 C118.76,230.63 118.76,230.63 118.76,230.629 C118.76,230.628 118.761,230.627 118.761,230.626 C118.761,230.625 118.761,230.623 118.762,230.623 L118.762,230.622 C118.762,230.62 118.762,230.619 118.763,230.618 L118.763,230.615 C118.763,230.615 118.763,230.614 118.764,230.614 C118.764,230.613 118.764,230.612 118.765,230.61 L118.765,230.607 L118.766,230.607 C118.766,230.605 118.766,230.604 118.767,230.603 C118.767,230.602 118.767,230.601 118.768,230.6 L118.768,230.599 C118.768,230.598 118.768,230.597 118.769,230.595 C118.769,230.594 118.77,230.593 118.77,230.592 C118.771,230.591 118.771,230.589 118.771,230.588 C118.772,230.586 118.772,230.586 118.773,230.584 C118.773,230.583 118.774,230.582 118.774,230.58 C118.774,230.579 118.775,230.578 118.775,230.577 C118.776,230.576 118.776,230.574 118.777,230.573 C118.777,230.572 118.778,230.571 118.778,230.57 C118.779,230.568 118.779,230.567 118.78,230.565 C118.78,230.564 118.781,230.563 118.781,230.562 C118.785,230.554 118.789,230.546 118.793,230.538 C118.793,230.537 118.794,230.536 118.794,230.536 C118.795,230.534 118.796,230.532 118.797,230.53 C118.797,230.529 118.797,230.529 118.798,230.528 C118.799,230.526 118.8,230.525 118.801,230.523 L118.801,230.521 C118.803,230.519 118.804,230.517 118.805,230.515 C118.805,230.515 118.806,230.514 118.806,230.513 C118.807,230.512 118.808,230.51 118.809,230.508 L118.811,230.506 C118.812,230.504 118.813,230.503 118.814,230.501 C118.814,230.5 118.815,230.499 118.815,230.498 C118.816,230.497 118.817,230.495 118.819,230.494 C118.819,230.493 118.82,230.492 118.82,230.491 C118.821,230.489 118.823,230.488 118.824,230.486 C118.824,230.485 118.825,230.485 118.825,230.485 C118.826,230.482 118.827,230.48 118.829,230.479 C118.829,230.478 118.83,230.477 118.83,230.476 C118.832,230.474 118.833,230.473 118.834,230.471 C118.835,230.471 118.835,230.47 118.836,230.469 C118.837,230.467 118.838,230.466 118.84,230.464 C118.84,230.463 118.841,230.463 118.841,230.462 C118.842,230.46 118.844,230.458 118.845,230.456 C118.846,230.456 118.846,230.455 118.846,230.455 C118.848,230.453 118.85,230.451 118.851,230.449 C118.852,230.448 118.852,230.448 118.853,230.447 C118.854,230.445 118.856,230.444 118.857,230.442 C118.858,230.441 118.858,230.441 118.859,230.44 C118.86,230.438 118.862,230.436 118.864,230.434 C118.88,230.415 118.898,230.396 118.918,230.377 L118.919,230.377 C118.924,230.372 118.929,230.367 118.934,230.363 L118.934,230.362 C118.937,230.36 118.939,230.358 118.942,230.355 L118.943,230.355 C118.945,230.353 118.947,230.351 118.95,230.348 C119.264,230.077 119.941,229.819 120.909,229.576 L120.911,229.576 C120.918,229.574 120.927,229.572 120.934,229.57 C120.935,229.57 120.937,229.569 120.938,229.569 C120.945,229.567 120.951,229.565 120.959,229.564 C120.961,229.563 120.962,229.563 120.964,229.562 C120.971,229.56 120.979,229.559 120.987,229.557 C120.987,229.557 120.988,229.557 120.988,229.556 C120.996,229.555 121.003,229.553 121.01,229.551 C121.013,229.55 121.015,229.55 121.018,229.549 C121.024,229.547 121.032,229.546 121.038,229.544 C121.04,229.544 121.042,229.543 121.043,229.543 C121.049,229.541 121.056,229.54 121.062,229.539 C121.065,229.537 121.07,229.536 121.073,229.536 C121.079,229.534 121.085,229.533 121.091,229.531 C121.093,229.531 121.095,229.53 121.097,229.53 C121.102,229.529 121.109,229.527 121.115,229.526 C121.12,229.524 121.126,229.523 121.131,229.522 C121.135,229.521 121.14,229.52 121.144,229.519 C121.147,229.518 121.151,229.517 121.154,229.516 C121.159,229.515 121.165,229.514 121.17,229.512 C121.174,229.511 121.177,229.511 121.18,229.51 C121.229,229.499 121.279,229.487 121.329,229.476 C121.332,229.475 121.335,229.474 121.339,229.473 C121.342,229.472 121.346,229.472 121.35,229.471 C121.356,229.469 121.361,229.468 121.367,229.467 C121.371,229.466 121.375,229.465 121.379,229.464 C121.385,229.463 121.391,229.461 121.396,229.46 C121.401,229.459 121.405,229.458 121.409,229.457 C121.414,229.456 121.419,229.455 121.424,229.454 C121.428,229.453 121.432,229.452 121.436,229.451 C121.443,229.45 121.451,229.448 121.458,229.446 C121.459,229.446 121.461,229.446 121.462,229.445 C121.47,229.444 121.478,229.442 121.486,229.44 C121.488,229.44 121.49,229.439 121.493,229.439 C121.5,229.437 121.507,229.436 121.514,229.434 C121.517,229.433 121.521,229.432 121.525,229.432 C121.531,229.43 121.537,229.429 121.543,229.428 C121.546,229.427 121.549,229.426 121.552,229.426 C121.57,229.422 121.589,229.418 121.607,229.414 C121.609,229.413 121.61,229.413 121.612,229.413 C121.62,229.411 121.628,229.409 121.636,229.407 C121.638,229.407 121.64,229.407 121.642,229.406 C121.65,229.404 121.659,229.403 121.666,229.401 C121.668,229.401 121.67,229.4 121.672,229.4 C121.692,229.395 121.711,229.391 121.732,229.387 L121.733,229.387 C121.743,229.385 121.753,229.382 121.763,229.38 L121.767,229.38 C122.46,229.234 123.255,229.094 124.137,228.959 C124.048,228.92 123.96,228.881 123.871,228.842 C122.361,229.055 121.063,229.283 120.051,229.525 C118.773,228.541 117.718,227.412 116.892,226.331 C116.323,226.169 115.747,226.016 115.163,225.87" id="Fill-18" fill="#97CF99" sketch:type="MSShapeGroup"/><path d="M135.126,220.02 L116.316,225.532 C116.494,225.794 116.686,226.061 116.892,226.331 C119.346,227.028 121.671,227.874 123.871,228.842 C127.046,228.394 131.158,228.012 135.51,227.699 C136.312,225.291 135.895,222.776 135.849,222.437 C135.821,222.229 135.723,221.216 135.126,220.02" id="Fill-19" fill="#BFAD99" sketch:type="MSShapeGroup"/><path d="M116.892,226.331 C117.718,227.412 118.773,228.541 120.051,229.525 C121.063,229.283 122.361,229.055 123.871,228.842 C121.671,227.874 119.346,227.028 116.892,226.331" id="Fill-20" fill="#C8BB66" sketch:type="MSShapeGroup"/><path d="M128.053,205.408 C135.244,205.817 134.545,213.593 134.511,214.192 C134.477,214.791 134.392,222.345 121.806,221.63 C113.844,221.178 114.474,217.649 114.574,215.894 C114.673,214.139 118.935,204.89 128.053,205.408" id="Fill-21" fill="#D98500" sketch:type="MSShapeGroup"/><path d="M169.533,81.364 C169.533,76.656 173.563,46.377 173.563,34.144 C173.563,32.004 173.563,15.883 164.433,15.883 C150.737,15.883 149.739,28.722 121.064,28.722 C86.54,28.722 69.563,0.475 52.159,0.475 C32.685,0.475 32.899,45.2 32.899,51.085 C32.899,56.969 33.969,60.179 33.969,74.731 C33.969,77.267 32.944,81.756 31.253,87.531 L31.266,87.544 C32.077,87.203 33.127,87.575 33.145,88.764 C33.291,98.547 30.461,108.604 25.508,117.019 C24.596,118.57 22.182,117.166 23.097,115.61 C24.022,114.039 24.867,112.409 25.629,110.733 C25.517,110.876 25.406,111.018 25.29,111.159 C24.799,111.757 23.973,111.661 23.427,111.234 C18.957,124.004 13.795,138.187 9.48,150.927 C9.17,153.775 8.038,156.317 7.174,159.035 C6.198,162.106 5.477,165.269 4.541,168.358 C3.141,172.974 1.779,177.603 0.57,182.271 C0.372,183.619 0.266,184.802 0.266,185.792 C0.266,187.183 -0.911,196.171 14.924,196.171 C34.932,196.171 41.887,181.833 44.134,181.833 C49.911,181.833 55.476,215.43 95.064,215.43 C139.788,215.43 150.702,172.204 152.092,167.282 C152.385,166.247 154.767,168.245 160.332,168.245 C171.566,168.245 183.228,155.726 183.228,139.891 C183.228,124.27 169.533,93.027 169.533,81.364" id="Fill-22" fill="#78C800" sketch:type="MSShapeGroup"/><path d="M154.373,37.244 C150.372,37.315 149.44,39.397 147.997,38.132 C147.341,37.498 150.735,35.953 150.724,35.307 C150.718,34.985 150.203,35.058 149.493,35.071 C145.298,35.145 137.145,41.422 135.983,41.443 C135.466,41.452 134.63,41.595 134.616,40.821 C134.585,39.078 140.432,37.49 136.366,37.562 C132.3,37.634 126.39,42.968 120.129,43.078 C114.327,43.18 108.998,41.227 104.892,39.273 C99.863,36.88 96.67,34.487 96.695,35.873 C96.711,36.777 98.22,38.17 99.221,39.96 C99.221,39.96 99.849,42.661 98.734,41.648 C86.681,30.013 74.787,27.35 74.787,27.35 C74.787,27.35 73.883,27.365 73.89,27.753 C73.914,29.108 76.528,30.87 76.537,31.386 C76.546,31.903 76.229,32.231 75.713,32.24 C74.471,32.262 73.381,31.104 71.38,29.945 C69.324,28.755 66.306,27.564 61.17,27.654 C45.873,27.924 42.084,52.073 42.433,71.823 C42.927,99.834 61.109,108.417 76.019,108.154 C87.844,107.945 100.379,100.752 105.497,90.423 L121.254,91.344 C121.254,91.344 129.227,105.829 143.103,105.584 C156.125,105.354 167.305,96.914 166.801,68.338 C166.272,38.326 158.375,37.174 154.373,37.244" id="Fill-23" fill="#8EE000" sketch:type="MSShapeGroup"/><path d="M93.912,72.089 C94.151,85.61 85.329,96.729 74.209,96.925 C63.089,97.122 53.881,86.32 53.643,72.8 C53.404,59.279 62.226,48.16 73.346,47.964 C84.466,47.768 93.674,58.569 93.912,72.089" id="Fill-24" fill="#FFFFFF" sketch:type="MSShapeGroup"/><path d="M159.06,74.758 C158.64,86.734 150.919,96.321 141.815,96.172 C132.71,96.023 125.67,86.194 126.09,74.219 C126.509,62.243 134.23,52.656 143.335,52.805 C152.439,52.954 159.48,62.783 159.06,74.758" id="Fill-25" fill="#FFFFFF" sketch:type="MSShapeGroup"/><path d="M84.424,72.257 C84.555,79.684 79.709,85.792 73.6,85.9 C67.492,86.008 62.434,80.074 62.303,72.647 C62.172,65.22 67.017,59.112 73.126,59.004 C79.235,58.896 84.293,64.83 84.424,72.257" id="Fill-26" fill="#3F3F3F" sketch:type="MSShapeGroup"/><path d="M71.224,63.956 C71.279,67.047 69.004,69.594 66.142,69.644 C63.281,69.695 60.918,67.23 60.863,64.138 C60.808,61.047 63.084,58.5 65.945,58.45 C68.806,58.399 71.17,60.864 71.224,63.956" id="Fill-27" fill="#FFFFFF" sketch:type="MSShapeGroup"/><path d="M151.624,74.89 C151.249,81.932 146.763,87.512 141.604,87.353 C136.445,87.193 132.566,81.355 132.941,74.312 C133.317,67.27 137.803,61.69 142.962,61.849 C148.121,62.009 152,67.847 151.624,74.89" id="Fill-28" fill="#3F3F3F" sketch:type="MSShapeGroup"/><path d="M140.721,66.896 C140.859,69.762 138.951,72.186 136.461,72.31 C133.97,72.434 131.84,70.211 131.702,67.344 C131.565,64.478 133.472,62.054 135.963,61.93 C138.453,61.806 140.584,64.029 140.721,66.896" id="Fill-29" fill="#FFFFFF" sketch:type="MSShapeGroup"/><path d="M99.476,98.747 C99.476,98.747 97.045,126.448 107.17,126.719 C117.296,126.99 116.255,113.615 116.185,113.453 C116.114,113.29 99.476,98.747 99.476,98.747" id="Fill-30" fill="#71B200" sketch:type="MSShapeGroup"/><path d="M132.833,106.027 C132.833,106.027 136.632,100.517 140.216,100.517 C143.801,100.517 148.776,103.084 148.776,103.084 L151.29,104.047 L153.43,105.599 C153.43,105.599 150.809,108.434 150.595,108.488 C150.381,108.541 140.27,113.249 140.323,113.035 C140.377,112.821 133.475,112.714 133.315,112.714 C133.155,112.714 130.694,111.912 130.694,111.912 L131.122,109.344 L132.138,106.99 L132.833,106.027" id="Fill-31" fill="#78C800" sketch:type="MSShapeGroup"/><path d="M97.434,215.385 C97.914,215.368 98.39,215.346 98.863,215.32 C99.002,215.311 99.144,215.305 99.284,215.296 C99.875,215.259 100.461,215.214 101.039,215.161 C101.159,215.15 101.276,215.136 101.396,215.125 C101.868,215.079 102.335,215.028 102.799,214.972 C102.959,214.952 103.118,214.933 103.278,214.913 C103.799,214.845 104.316,214.773 104.828,214.693 L104.962,214.673 C105.518,214.585 106.065,214.489 106.608,214.386 C106.75,214.359 106.89,214.331 107.03,214.304 C107.46,214.219 107.885,214.131 108.306,214.038 C108.432,214.01 108.558,213.984 108.683,213.955 C109.211,213.835 109.733,213.709 110.249,213.575 L110.468,213.516 C110.914,213.398 111.355,213.276 111.792,213.148 C111.925,213.11 112.057,213.071 112.189,213.031 C112.635,212.898 113.077,212.76 113.513,212.617 L113.68,212.563 C114.174,212.399 114.661,212.228 115.142,212.052 C115.247,212.013 115.352,211.973 115.456,211.934 C115.847,211.788 116.234,211.639 116.617,211.485 C116.722,211.443 116.828,211.402 116.932,211.359 C117.403,211.167 117.868,210.971 118.326,210.767 L118.381,210.742 C118.816,210.549 119.244,210.349 119.668,210.146 C119.772,210.096 119.876,210.046 119.98,209.995 C120.367,209.807 120.749,209.615 121.127,209.419 L121.293,209.334 C121.728,209.106 122.157,208.873 122.581,208.635 L122.794,208.514 C123.15,208.312 123.502,208.106 123.851,207.897 L124.106,207.743 C124.923,207.247 125.717,206.733 126.489,206.203 L126.728,206.038 C127.062,205.806 127.393,205.571 127.718,205.333 L127.873,205.221 C128.251,204.943 128.624,204.661 128.991,204.375 L129.121,204.273 C129.441,204.022 129.757,203.769 130.069,203.513 L130.282,203.338 C130.983,202.757 131.663,202.164 132.323,201.559 L132.508,201.388 C132.79,201.127 133.068,200.864 133.343,200.599 L133.495,200.454 C133.816,200.142 134.132,199.827 134.443,199.511 L134.514,199.438 C134.794,199.151 135.071,198.862 135.343,198.572 L135.529,198.374 C135.81,198.071 136.087,197.768 136.359,197.463 L136.39,197.429 C136.678,197.106 136.96,196.78 137.238,196.454 L137.396,196.268 C137.624,195.998 137.849,195.727 138.07,195.455 L138.229,195.261 C138.493,194.936 138.753,194.609 139.008,194.281 L139.051,194.224 C139.286,193.922 139.516,193.618 139.743,193.315 L139.922,193.073 C140.127,192.796 140.33,192.518 140.529,192.24 L140.634,192.093 C140.864,191.77 141.088,191.448 141.309,191.125 L141.462,190.899 C141.635,190.646 141.805,190.392 141.972,190.138 L142.146,189.873 C142.353,189.557 142.557,189.24 142.756,188.925 L142.815,188.828 C142.994,188.544 143.169,188.26 143.341,187.976 C143.405,187.872 143.467,187.768 143.529,187.664 C143.667,187.435 143.802,187.207 143.936,186.979 C143.991,186.886 144.046,186.792 144.101,186.698 C144.272,186.402 144.441,186.106 144.606,185.811 C144.666,185.705 144.724,185.599 144.783,185.493 C144.896,185.289 145.008,185.086 145.118,184.883 C145.185,184.76 145.251,184.637 145.317,184.514 C145.431,184.3 145.544,184.088 145.654,183.876 C145.736,183.721 145.816,183.565 145.895,183.411 C146.002,183.203 146.108,182.997 146.211,182.791 C146.283,182.649 146.353,182.508 146.422,182.368 C146.498,182.214 146.573,182.062 146.647,181.91 C146.717,181.766 146.788,181.622 146.856,181.479 C146.947,181.289 147.035,181.102 147.123,180.914 C147.227,180.694 147.328,180.476 147.428,180.258 C147.479,180.145 147.531,180.031 147.583,179.919 C147.659,179.75 147.734,179.583 147.808,179.417 L147.926,179.149 C147.997,178.986 148.069,178.823 148.139,178.663 L148.14,178.662 C150.563,173.056 151.703,168.662 152.092,167.282 C152.385,166.247 154.767,168.245 160.332,168.245 C160.737,168.245 161.143,168.224 161.548,168.192 L161.455,168.192 C155.138,168.192 150.146,166.061 146.312,163.263 C138.823,156.292 130.48,142.076 130.48,122.13 C130.48,109.183 133.155,105.652 133.155,105.652 C133.155,105.652 126.521,110.253 126.521,133.899 C126.521,157.973 140.216,173.381 140.216,176.27 C140.216,178.65 131.27,187.347 114.651,190.335 C112.334,190.646 109.871,190.821 107.262,190.821 C49.269,190.821 62.858,143.85 58.792,143.85 C56.01,143.85 49.269,193.175 11.286,193.175 C4.243,193.175 1.451,190.416 0.345,188.112 C0.373,188.304 0.408,188.503 0.452,188.706 L0.457,188.727 C0.5,188.925 0.552,189.129 0.614,189.336 L0.626,189.374 C0.688,189.577 0.76,189.783 0.843,189.991 L0.864,190.041 C0.948,190.246 1.042,190.454 1.15,190.662 L1.181,190.72 C1.232,190.818 1.286,190.915 1.343,191.013 L1.354,191.031 C1.414,191.133 1.478,191.235 1.545,191.337 L1.588,191.401 C1.649,191.492 1.713,191.582 1.779,191.673 L1.806,191.71 C1.88,191.809 1.959,191.908 2.04,192.006 L2.097,192.074 L2.32,192.327 L2.365,192.376 C2.455,192.471 2.549,192.566 2.646,192.661 L2.716,192.727 L2.977,192.963 L3.041,193.02 C3.148,193.11 3.259,193.201 3.374,193.289 L3.457,193.352 C3.555,193.426 3.657,193.499 3.761,193.571 L3.845,193.63 C3.971,193.715 4.101,193.799 4.235,193.882 L4.331,193.938 C4.445,194.007 4.562,194.074 4.683,194.14 L4.788,194.198 C4.934,194.277 5.085,194.353 5.241,194.428 L5.346,194.477 C5.479,194.539 5.615,194.601 5.755,194.66 L5.88,194.714 C6.049,194.784 6.223,194.853 6.403,194.919 L6.513,194.958 C6.667,195.013 6.824,195.067 6.986,195.12 L7.134,195.167 C7.327,195.228 7.526,195.286 7.731,195.343 L7.84,195.371 C8.018,195.419 8.201,195.464 8.389,195.508 L8.558,195.548 C8.778,195.598 9.004,195.645 9.235,195.69 L9.339,195.709 C9.545,195.747 9.757,195.783 9.972,195.817 L10.164,195.847 C10.413,195.884 10.667,195.919 10.929,195.95 L11.016,195.959 C11.255,195.988 11.5,196.012 11.751,196.035 L11.964,196.054 C12.244,196.076 12.528,196.097 12.821,196.114 L12.878,196.117 C13.155,196.132 13.44,196.143 13.73,196.152 L13.969,196.158 C14.281,196.166 14.597,196.171 14.924,196.171 C34.932,196.171 41.887,181.833 44.134,181.833 C49.911,181.833 55.476,215.43 95.064,215.43 C95.689,215.43 96.305,215.419 96.917,215.402 C97.091,215.397 97.262,215.391 97.434,215.385" id="Fill-32" fill="#71B200" sketch:type="MSShapeGroup"/><path d="M73.813,208.938 C81.707,209.527 87.121,211.915 86.593,219.001 C86.065,226.088 76.277,226.711 71.164,226.33 C66.051,225.948 60.593,222.926 60.975,217.813 C61.356,212.7 66.682,208.406 73.813,208.938" id="Fill-33" fill="#D98500" sketch:type="MSShapeGroup"/><path d="M100.055,97.599 C100.055,97.599 98.501,117.407 108.129,117.237 C117.757,117.068 122.402,109.085 122.277,101.994 C122.152,94.903 100.055,97.599 100.055,97.599" id="Fill-34" fill="#F49000" sketch:type="MSShapeGroup"/><path d="M114.056,85.163 C120.957,85.163 126.681,92.813 126.681,101.052 C126.681,109.29 120.582,117.529 118.496,117.529 C116.41,117.529 110.257,101.266 99.611,101.266 C98.648,101.266 98.488,100.838 98.488,100.303 C98.488,99.768 98.702,85.163 114.056,85.163" id="Fill-35" fill="#FFC200" sketch:type="MSShapeGroup"/><path d="M118.808,90.534 C118.756,91.934 116.631,92.991 114.064,92.894 C111.496,92.797 109.457,91.584 109.51,90.184 C109.562,88.784 111.687,87.727 114.254,87.823 C116.822,87.92 118.861,89.134 118.808,90.534" id="Fill-36" fill="#FFF3B8" sketch:type="MSShapeGroup"/><path d="M79.429,52.33 C82.718,52.33 85.437,53.17 87.533,54.193 C83.762,51.09 79.206,49.305 74.323,49.391 C62.269,49.603 52.598,61.113 51.965,75.509 C56.062,58.673 70.457,52.33 79.429,52.33" id="Fill-37" fill="#8EE000" sketch:type="MSShapeGroup"/><path d="M142.416,52.52 C139.163,52.467 136.068,53.518 133.341,55.406 C134.363,55.007 135.522,54.722 136.768,54.722 C146.259,54.722 158.726,63.087 158.726,78.29 C158.726,81.923 158.454,85.229 157.956,87.81 C159.235,84.631 160.015,81.059 160.148,77.275 C160.621,63.771 152.682,52.688 142.416,52.52" id="Fill-38" fill="#8EE000" sketch:type="MSShapeGroup"/><path d="M51.16,73.661 L53.157,69.951 L54.869,65.386 L57.58,60.821 L62.573,55.828 L68.422,53.403 L76.982,50.407 L80.834,51.548 L83.259,52.261 L85.541,52.975 L88.395,51.263 C88.395,51.263 76.554,43.702 75.983,43.131 C75.412,42.56 63.999,40.135 62.43,40.421 C60.861,40.706 52.159,47.268 52.159,47.268 L47.879,61.534 C47.879,61.534 47.593,69.523 47.879,69.951 C48.164,70.379 51.16,73.661 51.16,73.661" id="Fill-39" fill="#8EE000" sketch:type="MSShapeGroup"/><path d="M131.621,52.69 L136.899,53.688 L143.319,55.543 L149.026,57.255 L153.02,59.823 L155.303,63.817 C155.303,63.817 156.444,67.384 156.729,67.812 C157.015,68.24 158.156,70.807 158.441,71.235 C158.726,71.664 159.297,75.943 159.297,75.943 C159.297,75.943 159.012,80.651 159.44,80.936 C159.868,81.222 161.58,80.794 162.008,78.654 C162.436,76.514 162.721,69.523 162.864,67.812 C163.006,66.1 162.293,58.967 161.722,57.397 C161.152,55.828 158.013,51.12 157.015,49.694 C156.016,48.267 146.458,45.271 146.03,45.128 C145.602,44.986 138.611,45.699 137.47,45.984 C136.329,46.27 131.764,51.548 131.764,51.548 L131.05,53.117" id="Fill-40" fill="#8EE000" sketch:type="MSShapeGroup"/><path d="M93.946,100.194 C93.946,104.357 91.598,106.8 88.7,106.8 C85.803,106.8 83.454,104.357 83.454,100.194 C83.454,96.03 86.407,90.401 88.7,88.924 C90.993,90.556 93.946,96.03 93.946,100.194" id="Fill-41" fill="#2199EB" sketch:type="MSShapeGroup"/><path d="M88.426,95.544 C88.028,96.96 87.118,97.943 86.393,97.739 C85.668,97.536 85.402,96.223 85.8,94.807 C86.197,93.39 87.107,92.407 87.832,92.611 C88.557,92.814 88.823,94.127 88.426,95.544" id="Fill-42" fill="#27C2FF" sketch:type="MSShapeGroup"/><path d="M46.525,175.837 C46.734,175.627 41.498,167.669 41.498,167.669 C41.498,167.669 32.494,160.828 32.144,160.758 C31.795,160.689 12.389,157.687 12.389,157.687 L7.766,157.278 C7.563,157.858 7.362,158.443 7.174,159.035 C6.335,161.675 5.684,164.383 4.923,167.054 L4.99,167.041 C27.049,162.713 38.148,181.282 36.891,183.655 C36.891,183.655 37.798,185.051 38.008,184.982 C38.218,184.912 42.685,181.142 42.685,181.142 C42.685,181.142 46.315,176.046 46.525,175.837" id="Fill-43" fill="#71B200" sketch:type="MSShapeGroup"/><path d="M52.039,112.592 C68.607,125.436 108.257,148.24 112.539,161.177 C116.856,174.224 117.099,144.982 139.717,135.395 L142.137,142.748 L139.903,152.428 L123.149,170.671 L94.296,174.766 L62.278,137.908 L52.039,112.592" id="Fill-44" fill="#71B200" sketch:type="MSShapeGroup"/><path d="M169.316,53.885 C169.553,54.174 169.647,54.514 169.629,54.842 C169.694,54.956 169.757,55.071 169.82,55.187 C176.25,39.309 176.699,21.537 176.699,21.537 L175.33,20.023 L172.344,29.022 L170.64,37.193 L166.846,51.449 L166.836,51.493 C167.734,52.204 168.578,52.98 169.316,53.885" id="Fill-45" fill="#000000" sketch:type="MSShapeGroup"/><path d="M171.478,60.608 C172.188,53.89 172.891,46.461 173.187,39.048 C166.854,33.767 151.058,29.563 128.071,26.868 C126.773,26.927 125.413,26.96 123.977,26.96 C116.895,26.96 110.841,26.174 105.562,24.865 C91.965,23.985 76.732,23.517 60.145,23.517 C47.655,23.517 40.516,24.273 36.438,26.196 C35.066,36.142 35.087,45.611 35.092,48.683 C39.114,47.404 49.112,44.101 77.659,44.101 C137.079,44.101 166.549,58.669 171.478,60.608" id="Fill-46" fill="#71B200" sketch:type="MSShapeGroup"/><path d="M177.28,40.9 C177.28,44.969 175.325,53.635 175.325,55.273 C175.325,56.911 174.004,57.228 173.158,57.228 C171.6,57.228 142.352,40.53 78.784,40.53 C43.433,40.53 36.564,45.602 34.239,45.602 C31.914,45.602 32.231,40.9 32.231,35.721 C32.231,23.709 33.535,19.975 61.294,19.975 C131.361,19.975 177.28,28.324 177.28,40.9" id="Fill-47" fill="#FFB103" sketch:type="MSShapeGroup"/><path d="M177.108,43.518 C157.356,32.769 120.583,25.893 90.568,25.893 C57.136,25.893 39.48,29.225 32.389,31.022 C32.259,32.425 32.231,33.986 32.231,35.721 C32.231,36.516 32.223,37.3 32.219,38.058 C39.041,35.982 58.191,32.656 90.568,32.656 C110.127,32.656 131.831,35.521 150.114,40.516 C160.989,43.487 169.941,47.039 176.012,50.686 C176.404,48.43 176.864,45.759 177.108,43.518" id="Fill-48" fill="#FFFFFF" sketch:type="MSShapeGroup"/><path d="M116.361,9.093 C123.811,9.994 129.957,13.308 129.746,14.155 C128.204,20.345 130.179,25.321 129.763,26.825 C129.431,28.026 129.394,28.637 129.394,28.637 C129.394,28.637 120.845,25.758 114.459,24.892 C108.072,24.025 99.617,25.247 99.617,25.247 C99.617,25.247 100.08,23.819 100.376,21.665 C100.672,19.512 101.247,11.43 100.689,10.301 C100.131,9.173 109.754,8.294 116.361,9.093" id="Fill-49" fill="#2B2B2B" sketch:type="MSShapeGroup"/><path d="M31.324,49.89 L32.629,51.056 L51.727,26.11 L49.349,23.694 L45.897,26.362 L31.324,49.89" id="Fill-50" fill="#303030" sketch:type="MSShapeGroup"/><path d="M47.501,9.903 L31.445,37.131 L31.324,49.89 L50.876,25.09 L49.402,14.835 L47.501,9.903" id="Fill-51" fill="#000000" sketch:type="MSShapeGroup"/><path d="M100.55,13.691 L98.586,8.553 L94.122,6.603 L93.925,6.813 C93.93,7.554 93.32,8.303 92.527,8.254 C88.151,7.981 83.855,7.099 79.459,7.008 C75.113,6.917 70.785,7.238 66.466,7.695 C65.697,7.777 65.263,7.307 65.157,6.731 C60.623,7.225 57.252,7.616 57.248,7.684 C57.245,7.748 56.646,7.555 55.815,7.257 C54.717,7.524 53.526,7.554 52.473,7.533 C51.286,7.509 50.411,6.956 49.106,6.753 C48.58,7.824 47.794,9.233 47.195,10.367 C47.347,11.955 47.099,13.538 47.013,15.141 C46.987,15.628 46.761,15.982 46.449,16.205 C47.386,23.312 52.513,36.909 74.716,38.089 C101.949,39.537 101.338,17.724 101.397,16.609 L100.55,13.691" id="Fill-52" fill="#000000" sketch:type="MSShapeGroup"/><path d="M53.549,4.072 C53.549,4.072 48.968,4.531 48.438,8.464 C46.424,23.219 57.996,32.032 73.674,34.172 C89.351,36.312 99.9,26.479 100.873,22.102 C101.846,17.726 101.667,13.455 101.339,10.424 C100.974,7.044 96.018,6.276 87.443,5.221 C81.917,4.67 66.28,2.785 53.549,4.072" id="Fill-53" fill="#303030" sketch:type="MSShapeGroup"/><path d="M84.429,8.224 C91.576,9.006 94.96,8.884 94.603,12.145 C94.247,15.407 93.837,19.154 93.837,19.154 C93.837,19.154 92.483,29.61 74.094,27.599 C55.705,25.588 55.806,17.594 55.359,12.699 C55.071,9.559 54.74,7.435 60.722,7.317 C69.355,7.146 84.429,8.224 84.429,8.224" id="Fill-54" fill="#3D3D3D" sketch:type="MSShapeGroup"/><path d="M114.1,22.773 C108.086,21.795 102.515,22.966 100.029,23.64 C99.811,24.646 99.617,25.247 99.617,25.247 C99.617,25.247 108.072,24.025 114.459,24.892 C120.845,25.758 129.394,28.637 129.394,28.637 C129.394,28.637 129.428,28.122 129.686,27.119 C127.3,26.219 120.617,23.834 114.1,22.773" id="Fill-55" fill="#1E1E1E" sketch:type="MSShapeGroup"/><path d="M84.429,8.224 C84.429,8.224 69.355,7.146 60.722,7.317 C54.88,7.433 55.059,9.461 55.338,12.481 C55.735,11.082 56.821,9.542 60.819,9.645 C65.861,9.775 91.487,11.103 93.045,11.624 C94.081,11.971 94.354,12.761 94.457,13.483 C94.506,13.036 94.555,12.586 94.603,12.145 C94.96,8.884 91.576,9.006 84.429,8.224" id="Fill-56" fill="#000000" sketch:type="MSShapeGroup"/><path d="M175.512,22.452 L174.238,17.438 L170.401,15.189 L170.202,15.368 C170.135,16.064 169.513,16.713 168.801,16.593 C164.88,15.929 161.09,14.7 157.133,14.205 C153.221,13.715 149.285,13.614 145.344,13.642 C144.643,13.647 144.297,13.165 144.257,12.613 C140.118,12.656 137.039,12.709 137.029,12.773 C137.02,12.833 136.499,12.596 135.778,12.238 C134.761,12.387 133.684,12.304 132.736,12.187 C131.668,12.054 130.931,11.452 129.774,11.14 C129.196,12.098 128.349,13.349 127.699,14.36 C127.682,15.868 127.305,17.334 127.072,18.833 C127.001,19.289 126.763,19.6 126.46,19.78 C126.616,26.551 129.922,39.815 149.838,42.992 C174.266,46.888 175.832,26.318 175.994,25.275 L175.512,22.452" id="Fill-57" fill="#000000" sketch:type="MSShapeGroup"/><path d="M134.043,9.032 C134.043,9.032 129.865,9.037 129.005,12.686 C125.756,26.375 135.342,35.739 149.278,39.211 C163.214,42.682 173.685,34.417 174.987,30.393 C176.289,26.368 176.543,22.334 176.541,19.453 C176.539,16.241 172.143,15.058 164.509,13.268 C159.577,12.235 145.653,9.008 134.043,9.032" id="Fill-58" fill="#303030" sketch:type="MSShapeGroup"/><path d="M161.498,15.811 C167.871,17.211 170.935,17.412 170.297,20.446 C169.659,23.48 168.926,26.965 168.926,26.965 C168.926,26.965 166.689,36.671 150.295,33.069 C133.9,29.466 134.767,21.958 134.838,17.314 C134.883,14.334 134.791,12.306 140.199,12.751 C148.003,13.394 161.498,15.811 161.498,15.811" id="Fill-59" fill="#3D3D3D" sketch:type="MSShapeGroup"/><path d="M161.498,15.811 C161.498,15.811 148.003,13.394 140.199,12.751 C134.917,12.317 134.882,14.241 134.841,17.106 C135.334,15.828 136.463,14.481 140.06,14.95 C144.596,15.541 167.587,19.175 168.942,19.81 C169.843,20.233 170.012,21.002 170.035,21.69 C170.123,21.274 170.211,20.856 170.297,20.446 C170.935,17.412 167.871,17.211 161.498,15.811" id="Fill-60" fill="#000000" sketch:type="MSShapeGroup"/><path d="M175.877,108.892 C176.01,104.616 177.225,91.199 170.903,82.894 C170.694,84.317 170.377,85.723 170.091,87.137 C169.663,92.254 167.612,100.529 159.821,110.916 C161.287,112.033 162.939,111.987 162.707,112.592 C162.474,113.196 152.701,128.019 131.131,142.678 C128.967,144.214 132.247,144.563 131.2,145.541 C130.153,146.518 122.684,152.451 116.052,168.228 C114.586,171.369 114.377,169.973 111.934,165.715 C109.491,161.457 102.579,148.542 80.66,135.977 C58.741,123.412 33.098,97.979 33.983,70.801 C30.609,73.57 29.422,82.621 30.911,91.836 C28.491,103.75 5.501,139.584 5.501,145.261 C5.501,148.612 7.456,152.521 7.456,153.824 C7.456,155.128 5.967,161.736 5.594,163.784 C5.374,164.997 5.48,164.641 6.784,164.286 C7.681,164.042 9.145,163.797 11.458,164.063 C33.89,164.063 44.966,183.329 46.082,183.329 C45.571,183.771 45.058,184.935 45.338,186.215 C45.896,188.821 50.786,190.269 51.109,191.147 C51.946,193.428 53.575,205.993 94.691,205.993 C135.807,205.993 146.697,192.381 147.326,191.195 C147.954,190.007 147.465,188.263 147.465,188.263 C147.465,188.263 155.284,183.725 155.284,181.212 C155.284,178.699 155.424,171.509 156.4,169.554 C160.519,170.322 179.786,170.531 183.625,142.12 C185.091,131.37 175.877,108.892 175.877,108.892" id="Fill-61" fill="#FFB103" sketch:type="MSShapeGroup"/><path d="M172.107,89.323 L170.294,86.149 C170.225,86.481 170.156,86.813 170.089,87.146 C169.66,92.263 167.608,100.533 159.821,110.916 C161.287,112.033 162.939,111.987 162.707,112.592 C162.635,112.778 161.658,114.313 159.713,116.774 C161.993,117.861 165.059,119.293 165.406,119.293 C165.964,119.293 171.176,115.943 171.176,115.943 L174.527,110.916 L174.713,100.12 L172.107,89.323" id="Fill-62" fill="#E58800" sketch:type="MSShapeGroup"/><path d="M99.32,151.583 C99.32,151.583 77.17,139.677 58.489,143.145 C38.677,132.201 32.262,106.016 31.13,92.619 C29.847,77.436 36.979,114.412 86.792,141.96 C96.226,146.866 99.32,151.583 99.32,151.583" id="Fill-63" fill="#F89B07" sketch:type="MSShapeGroup"/><path d="M104.348,156.151 L110.305,163.411 L110.442,163.154 C106.996,157.474 99.193,146.601 80.66,135.977 C58.993,123.557 33.693,98.563 33.966,71.74 L33.424,72.011 L32.121,78.154 L32.307,89.323 L34.727,101.423 L39.753,113.15 L48.503,126.925 L56.507,132.696 L62.091,133.813 L77.914,138.281 L89.27,143.493 L98.205,150.008 L104.348,156.151" id="Fill-64" fill="#E58800" sketch:type="MSShapeGroup"/><path d="M56.6,135.581 C94.236,138.886 106.342,159.481 113.007,167.637 C112.705,167.089 112.327,166.469 111.944,165.733 C102.161,146.937 76.332,132.277 57.903,130.835 C31.283,107.286 31.882,75.944 33.972,71.43 C33.975,71.22 33.976,71.011 33.983,70.801 C30.609,73.57 29.422,82.621 30.911,91.836 C30.882,91.98 30.847,92.13 30.812,92.281 C34.029,115.455 48.483,129.867 56.6,135.581" id="Fill-65" fill="#CCCCCC" sketch:type="MSShapeGroup"/><path d="M175.877,108.892 C176.01,104.616 177.225,91.199 170.903,82.894 C170.726,84.103 170.47,85.3 170.221,86.499 C174.481,104.516 173.617,108.543 170.897,113.802 C168.105,119.2 161.59,118.176 161.59,118.176 L157.481,119.482 C152.509,125.291 143.882,134.013 131.131,142.678 C128.966,144.214 132.247,144.563 131.2,145.541 C130.193,146.481 123.242,152.013 116.81,166.479 C122.62,156.552 135.249,145.727 135.249,145.727 L152.468,133.068 L166.523,120.875 C166.523,120.875 171.269,118.176 173.876,115.943 C175.168,114.834 175.797,112.26 176.068,109.367 C175.945,109.06 175.877,108.892 175.877,108.892" id="Fill-66" fill="#FFFFFF" sketch:type="MSShapeGroup"/><path d="M182.787,146.863 C180.803,152.687 176.622,159.642 168.756,159.642 C160.798,159.642 157.727,154.615 157.727,151.404 C157.727,148.193 172.247,133.813 172.247,124.18 L166.941,122.644 L154.036,123.313 C148.874,128.794 141.319,135.754 131.131,142.678 C128.967,144.214 132.247,144.563 131.2,145.541 C130.796,145.918 129.431,147.039 127.529,149.177 C128.055,161.615 140.089,173.937 140.089,176.814 C140.089,182.026 129.385,192.451 106.489,192.451 C51.667,192.451 67.955,146.565 61.533,146.565 C58.276,146.565 62.836,160.619 50.736,160.619 C44.989,160.619 38.008,152.242 24.954,151.218 C10.923,150.148 7.216,148.405 5.521,145.832 C5.717,149.044 7.456,152.595 7.456,153.824 C7.456,155.128 5.967,161.736 5.594,163.784 C5.374,164.997 5.48,164.641 6.784,164.286 C7.681,164.042 9.145,163.797 11.458,164.063 C33.89,164.063 45.058,183.329 46.082,183.329 C45.571,183.771 45.058,184.935 45.338,186.215 C45.896,188.821 50.786,190.269 51.109,191.147 C51.946,193.428 53.575,205.993 94.691,205.993 C135.807,205.993 146.697,192.381 147.326,191.195 C147.954,190.007 147.465,188.263 147.465,188.263 C147.465,188.263 155.284,183.725 155.284,181.212 C155.284,178.699 155.424,171.509 156.4,169.554 C160.276,170.277 177.558,170.502 182.787,146.863" id="Fill-67" fill="#F89B07" sketch:type="MSShapeGroup"/><path d="M112.611,182.562 C112.611,182.561 113.56,196.101 110.547,199.523 C112.593,199.486 114.397,199.262 114.397,199.262 C114.397,199.262 115.81,197.812 115.81,195.208 C115.81,192.604 115.661,182.301 115.661,182.301 L112.463,182.524" id="Fill-68" fill="#878787" sketch:type="MSShapeGroup"/><path d="M113.893,169.184 C113.893,169.184 120.597,168.698 120.597,173.013 C120.597,177.329 118.627,177.49 118.627,177.49 L109.688,177.248 C109.688,177.248 107.453,175.549 107.453,173.013 C107.453,170.478 110.247,169.184 113.893,169.184" id="Fill-69" fill="#898989" sketch:type="MSShapeGroup"/><path d="M114.534,168.917 C114.534,168.917 120.72,168.429 120.72,172.77 C120.72,177.111 118.902,177.273 118.902,177.273 L110.655,177.029 C110.655,177.029 108.593,175.32 108.593,172.77 C108.593,170.22 111.17,168.917 114.534,168.917" id="Fill-70" fill="#B5B5B5" sketch:type="MSShapeGroup"/><path d="M117.075,175.507 C117.075,175.507 111.396,175.68 110.751,175.68 C110.107,175.68 109.883,176.35 109.883,176.35 C109.883,176.35 106.958,182.723 106.958,185.649 C106.958,188.575 111.471,188.451 113.727,188.451 C115.984,188.451 119.678,187.608 119.678,184.558 C119.678,181.508 117.075,175.507 117.075,175.507 L117.075,175.507 Z M113.665,187.211 C110.951,187.211 108.75,186.278 108.75,185.127 C108.75,183.975 110.951,183.042 113.665,183.042 C116.38,183.042 118.58,183.975 118.58,185.127 C118.58,186.278 116.38,187.211 113.665,187.211 L113.665,187.211 Z" id="Fill-71" fill="#898989" sketch:type="MSShapeGroup"/><path d="M118.265,175.507 C118.265,175.507 112.586,175.68 111.942,175.68 C111.297,175.68 110.702,176.399 110.702,176.399 C110.702,176.399 108.148,182.723 108.148,185.649 C108.148,188.575 112.661,188.451 114.917,188.451 C117.174,188.451 120.869,187.608 120.869,184.558 C120.869,181.508 118.265,175.507 118.265,175.507 L118.265,175.507 Z M114.558,187.211 C111.843,187.211 109.643,186.278 109.643,185.127 C109.643,183.975 111.843,183.042 114.558,183.042 C117.272,183.042 119.473,183.975 119.473,185.127 C119.473,186.278 117.272,187.211 114.558,187.211 L114.558,187.211 Z" id="Fill-72" fill="#B5B5B5" sketch:type="MSShapeGroup"/><path d="M112.568,178.061 C112.568,178.061 110.807,181.483 114.75,181.483 C118.693,181.483 116.709,178.011 116.709,178.011 L112.568,178.061" id="Fill-73" fill="#727272" sketch:type="MSShapeGroup"/><path d="M113.504,170.547 C113.504,170.547 113.554,169.481 115.066,169.481 C116.579,169.481 117,169.779 117,170.82 L117,178.433 C117,178.433 116.901,179.573 115.314,179.573 C113.727,179.573 113.479,178.904 113.479,178.234 C113.479,177.565 113.504,170.547 113.504,170.547" id="Fill-74" fill="#CCCCCC" sketch:type="MSShapeGroup"/><path d="M116.405,171.043 C116.405,171.591 115.917,172.035 115.314,172.035 C114.712,172.035 114.223,171.591 114.223,171.043 C114.223,170.495 114.712,170.051 115.314,170.051 C115.917,170.051 116.405,170.495 116.405,171.043" id="Fill-75" fill="#FFFFFF" sketch:type="MSShapeGroup"/><path d="M173.94,115.881 C173.011,115.193 171.911,114.389 170.945,113.709 L170.897,113.802 C168.105,119.2 161.59,118.176 161.59,118.176 L157.481,119.482 C152.509,125.291 143.882,134.013 131.131,142.678 C128.966,144.214 132.247,144.563 131.2,145.541 C130.193,146.481 123.242,152.013 116.81,166.479 C122.62,156.552 135.249,145.727 135.249,145.727 L152.468,133.068 L166.523,120.875 C166.523,120.875 171.269,118.176 173.876,115.943 L173.94,115.881" id="Fill-76" fill="#CCCCCC" sketch:type="MSShapeGroup"/><path d="M29.252,133.716 C29.08,133.716 28.925,133.611 28.861,133.451 C27.581,130.251 25.023,127.647 21.845,126.309 C21.688,126.243 21.587,126.09 21.587,125.921 C21.587,125.751 21.688,125.599 21.845,125.533 C25.023,124.195 27.58,121.592 28.861,118.392 C28.925,118.231 29.08,118.127 29.252,118.127 C29.424,118.127 29.579,118.231 29.642,118.392 C30.924,121.592 33.48,124.195 36.659,125.533 C36.815,125.599 36.917,125.751 36.917,125.921 C36.917,126.09 36.815,126.243 36.659,126.309 C33.48,127.647 30.923,130.251 29.642,133.451 C29.579,133.611 29.424,133.716 29.252,133.716" id="Fill-77" fill="#FFFFFF" sketch:type="MSShapeGroup"/><path d="M29.252,118.548 C30.581,121.87 33.203,124.535 36.496,125.921 C33.203,127.308 30.581,129.973 29.252,133.295 C27.922,129.973 25.301,127.308 22.008,125.921 C25.301,124.535 27.922,121.87 29.252,118.548 M29.252,117.706 C28.908,117.706 28.598,117.915 28.47,118.235 C27.231,121.332 24.756,123.851 21.681,125.145 C21.369,125.277 21.166,125.583 21.166,125.921 C21.166,126.26 21.369,126.566 21.681,126.698 C24.756,127.992 27.231,130.511 28.47,133.608 C28.598,133.928 28.908,134.137 29.252,134.137 C29.596,134.137 29.906,133.928 30.034,133.608 C31.273,130.511 33.748,127.992 36.823,126.698 C37.135,126.566 37.338,126.26 37.338,125.921 C37.338,125.583 37.135,125.277 36.823,125.145 C33.748,123.851 31.273,121.332 30.034,118.235 C29.906,117.915 29.596,117.706 29.252,117.706" id="Fill-78" fill="#FFFFFF" sketch:type="MSShapeGroup"/><path d="M54.134,173.184 C55.669,168.856 37.31,153.15 17.066,153.15 C13.792,153.15 10.964,153.471 7.422,154.294 C7.199,156.272 5.935,161.913 5.594,163.784 C5.377,164.978 5.699,164.621 7.001,164.263 C7.932,164.008 9.364,163.753 11.458,164.063 C33.89,164.063 45.058,183.329 46.082,183.329 C47.878,183.329 52.866,176.755 54.134,173.184" id="Fill-79" fill="#F2F2F2" sketch:type="MSShapeGroup"/><path d="M147.326,191.194 C147.954,190.008 147.465,188.262 147.465,188.262 L147.47,188.26 C137.458,193.837 117.856,199.804 116.448,199.804 C114.866,199.804 114.028,198.594 111.98,198.594 C109.56,198.594 109.467,200.548 105.744,200.548 C72.298,200.548 50.715,190.666 46.257,187.789 C47.847,189.437 50.858,190.465 51.109,191.148 C51.946,193.428 53.575,205.993 94.691,205.993 C135.808,205.993 146.697,192.381 147.326,191.194" id="Fill-80" fill="#CCCCCC" sketch:type="MSShapeGroup"/><path d="M6.714,157.697 C6.429,159.19 6.341,160.104 6.043,161.543 C33.114,157.566 46.52,175.466 49.369,180.738 C50.618,179.295 51.924,177.455 52.897,175.758 C40.425,154.721 12.623,154.597 6.714,157.697" id="Fill-81" fill="#FFB103" sketch:type="MSShapeGroup"/><path d="M163.172,111.475 C162.464,111.514 162.044,111.62 161.613,111.842 C162.341,112.108 162.841,112.241 162.707,112.592 C162.474,113.197 152.701,128.019 131.131,142.678 C129.432,143.884 131.088,144.358 131.372,144.98 C132.407,145.918 136.096,148.693 137.204,151.614 C137.972,153.638 137.9,154.406 139.368,154.406 C151.444,154.406 172.875,130.044 172.875,123.97 C172.875,122.558 170.851,121.667 169.245,118.874 C166.174,112.313 164.428,111.405 163.172,111.475" id="Fill-82" fill="#F2F2F2" sketch:type="MSShapeGroup"/><path d="M136.834,150.82 C143.767,148.082 162.669,139.072 170.249,120.351 C169.911,119.922 169.569,119.438 169.245,118.874 C168.425,117.123 167.7,115.777 167.054,114.742 C164.94,120.458 154.267,135.678 132.938,146.327 C134.243,147.473 135.913,149.093 136.834,150.82" id="Fill-83" fill="#FFB103" sketch:type="MSShapeGroup"/><path d="M7.417,154.335 C7.417,154.339 7.416,154.344 7.416,154.349 C7.416,154.344 7.417,154.339 7.417,154.335 M7.42,154.314 C7.42,154.316 7.419,154.318 7.419,154.321 C7.419,154.318 7.42,154.316 7.42,154.314" id="Fill-84" fill="#EB9307" sketch:type="MSShapeGroup"/><path d="M7.228,155.583 C7.186,155.824 7.14,156.081 7.09,156.349 C7.14,156.081 7.186,155.824 7.228,155.583" id="Fill-85" fill="#F2F2F2" sketch:type="MSShapeGroup"/><path d="M7.415,154.357 C7.376,154.685 7.311,155.103 7.228,155.583 C7.186,155.824 7.14,156.081 7.09,156.349 C7.048,156.574 7.004,156.806 6.958,157.045 C7.169,155.955 7.34,154.987 7.415,154.357" id="Fill-86" fill="#EB9307" sketch:type="MSShapeGroup"/><path d="M44.188,181.261 L44.188,181.261 C44.345,181.45 44.493,181.629 44.632,181.795 C44.493,181.629 44.345,181.45 44.188,181.261" id="Fill-87" fill="#F2A803" sketch:type="MSShapeGroup"/><path d="M46.077,183.329 L46.078,183.329 L46.077,183.329" id="Fill-90" fill="#F2A803" sketch:type="MSShapeGroup"/><path d="M17.066,153.15 C13.792,153.15 10.964,153.471 7.422,154.294 C7.421,154.301 7.421,154.307 7.42,154.314 C7.42,154.316 7.419,154.318 7.419,154.321 C7.419,154.325 7.418,154.33 7.417,154.335 C7.417,154.339 7.416,154.344 7.416,154.349 C7.416,154.352 7.415,154.355 7.415,154.357 C7.34,154.987 7.169,155.955 6.958,157.044 C8.754,156.092 11.97,154.941 17.043,154.941 C25.699,154.941 41.15,157.733 48.782,169.927 C48.841,170.034 48.889,170.151 48.926,170.275 C50.369,171.922 51.703,173.743 52.897,175.758 C51.924,177.455 50.618,179.295 49.369,180.738 C48.868,179.81 48.039,178.491 46.866,176.968 C45.997,178.534 45.009,180.062 44.188,181.261 C44.345,181.45 44.493,181.629 44.632,181.795 C45.336,182.646 45.795,183.197 46.013,183.308 L46.013,183.309 C46.017,183.311 46.022,183.313 46.026,183.315 C46.028,183.316 46.03,183.317 46.032,183.317 C46.032,183.317 46.032,183.318 46.033,183.318 C46.036,183.319 46.04,183.321 46.044,183.322 L46.045,183.322 C46.047,183.323 46.048,183.323 46.05,183.324 L46.051,183.324 C46.052,183.325 46.054,183.325 46.056,183.326 C46.058,183.326 46.059,183.326 46.061,183.327 L46.062,183.327 C46.064,183.327 46.065,183.328 46.067,183.328 C46.069,183.328 46.07,183.328 46.072,183.329 L46.073,183.329 L46.077,183.329 L46.078,183.329 L46.082,183.329 C47.878,183.329 52.866,176.755 54.134,173.184 C54.194,173.015 54.223,172.829 54.224,172.626 C54.232,167.653 36.519,153.15 17.066,153.15" id="Fill-91" fill="#E6E6E6" sketch:type="MSShapeGroup"/><path d="M48.926,170.275 C49.375,171.776 48.278,174.422 46.866,176.968 C48.039,178.491 48.868,179.81 49.369,180.738 C50.618,179.295 51.924,177.455 52.897,175.758 C51.703,173.743 50.369,171.922 48.926,170.275" id="Fill-92" fill="#F2A803" sketch:type="MSShapeGroup"/><path d="M57.541,130.508 C31.293,106.997 31.892,75.923 33.972,71.43 C33.975,71.22 33.976,71.011 33.983,70.801 C30.609,73.57 29.422,82.621 30.911,91.836 C30.882,91.98 30.847,92.13 30.812,92.281 C34.029,115.455 48.483,129.867 56.6,135.581 C56.729,135.593 56.855,135.607 56.984,135.618 L57.541,130.508" id="Fill-93" fill="#FFFFFF" sketch:type="MSShapeGroup"/><path d="M129.49,11.337 C129.49,11.337 127.431,13.85 127.117,14.932 C126.802,16.014 126.209,19.574 126.488,20.482 C126.767,21.389 127.431,20.656 127.431,20.656 L127.675,16.677 L128.583,13.466 L129.141,12.384 L129.49,11.337" id="Fill-94" fill="#000000" sketch:type="MSShapeGroup"/><path d="M84.587,8.241 C84.739,8.258 84.888,8.274 85.036,8.289 C84.888,8.273 84.739,8.258 84.587,8.241 M84.424,8.224 L84.429,8.224 L84.424,8.224 M84.418,8.223 C84.419,8.223 84.42,8.223 84.421,8.224 L84.423,8.224 C84.421,8.223 84.42,8.223 84.418,8.223 M84.414,8.223 L84.416,8.223 L84.414,8.223 M84.405,8.222 L84.407,8.222 L84.405,8.222 M84.399,8.222 L84.403,8.222 L84.399,8.222 M84.389,8.221 L84.392,8.221 L84.389,8.221 M84.378,8.22 C84.38,8.221 84.381,8.221 84.382,8.221 C84.381,8.221 84.379,8.221 84.378,8.22 M84.368,8.22 L84.374,8.22 L84.368,8.22 M84.363,8.219 L84.364,8.219 L84.363,8.219 M84.353,8.219 L84.357,8.219 L84.353,8.219 M84.34,8.218 L84.345,8.218 L84.34,8.218 M84.272,8.213 C84.292,8.214 84.309,8.216 84.325,8.217 C84.309,8.216 84.291,8.214 84.272,8.213 M84.259,8.212 C84.263,8.212 84.267,8.213 84.271,8.213 C84.267,8.213 84.263,8.212 84.259,8.212 M84.227,8.21 C84.233,8.21 84.238,8.211 84.243,8.211 C84.238,8.211 84.233,8.21 84.227,8.21 M84.214,8.209 L84.216,8.209 L84.214,8.209" id="Fill-95" fill="#454545" sketch:type="MSShapeGroup"/><path d="M68.421,9.968 L58.791,22.099 C60.882,24.162 64.346,25.961 70.16,27.031 L83.063,10.776 C78.384,10.482 72.882,10.185 68.421,9.968 M84.418,8.223 C84.419,8.223 84.42,8.223 84.421,8.224 C84.42,8.223 84.419,8.223 84.418,8.223 M84.414,8.223 L84.416,8.223 L84.414,8.223 M84.405,8.222 L84.407,8.222 L84.405,8.222 M84.399,8.222 L84.403,8.222 L84.399,8.222 M84.389,8.221 L84.393,8.221 L84.392,8.221 L84.389,8.221 M84.378,8.22 C84.379,8.221 84.381,8.221 84.382,8.221 L84.382,8.221 C84.381,8.221 84.38,8.221 84.378,8.22 M84.368,8.22 L84.374,8.22 L84.368,8.22 M84.362,8.219 L84.364,8.219 L84.363,8.219 L84.362,8.219 M84.353,8.219 L84.357,8.219 L84.353,8.219 M84.339,8.218 L84.345,8.218 L84.34,8.218 L84.339,8.218 M84.258,8.212 C84.284,8.214 84.307,8.215 84.328,8.217 L84.325,8.217 C84.309,8.216 84.292,8.214 84.272,8.213 L84.271,8.213 C84.267,8.213 84.263,8.212 84.259,8.212 L84.258,8.212 M84.227,8.21 C84.233,8.21 84.238,8.211 84.244,8.211 L84.243,8.211 C84.238,8.211 84.233,8.21 84.227,8.21 M84.213,8.209 L84.216,8.209 L84.214,8.209 L84.213,8.209" id="Fill-96" fill="#515151" sketch:type="MSShapeGroup"/><path d="M70.407,7.465 L68.421,9.968 C72.882,10.185 78.384,10.482 83.063,10.776 L85.036,8.289 C84.888,8.274 84.739,8.258 84.587,8.241 C84.534,8.236 84.482,8.23 84.429,8.224 L84.424,8.224 L84.423,8.224 L84.421,8.224 C84.42,8.223 84.419,8.223 84.418,8.223 L84.416,8.223 L84.414,8.223 C84.412,8.223 84.409,8.223 84.407,8.222 L84.405,8.222 L84.403,8.222 L84.399,8.222 C84.397,8.222 84.395,8.222 84.393,8.221 L84.389,8.221 L84.382,8.221 C84.381,8.221 84.379,8.221 84.378,8.22 L84.374,8.22 L84.368,8.22 C84.367,8.22 84.365,8.22 84.364,8.219 L84.362,8.219 L84.357,8.219 L84.353,8.219 C84.351,8.219 84.348,8.218 84.345,8.218 L84.339,8.218 C84.335,8.217 84.332,8.217 84.328,8.217 C84.307,8.215 84.284,8.214 84.258,8.212 C84.253,8.212 84.249,8.211 84.244,8.211 C84.238,8.211 84.233,8.21 84.227,8.21 C84.223,8.21 84.22,8.209 84.216,8.209 L84.213,8.209 C82.995,8.124 76.798,7.704 70.407,7.465" id="Fill-97" fill="#1A1A1A" sketch:type="MSShapeGroup"/><path d="M94.457,13.482 C94.442,13.622 94.427,13.761 94.411,13.9 L94.412,13.9 C94.427,13.761 94.442,13.622 94.457,13.483 C94.457,13.483 94.457,13.483 94.457,13.482 M94.607,12.111 C94.606,12.122 94.604,12.134 94.603,12.145 C94.604,12.134 94.606,12.122 94.607,12.111 M94.611,12.074 C94.61,12.084 94.609,12.093 94.608,12.103 C94.609,12.093 94.61,12.083 94.611,12.074 M94.614,12.033 C94.613,12.045 94.612,12.056 94.611,12.068 C94.612,12.056 94.613,12.045 94.614,12.033 M94.617,11.999 C94.616,12.009 94.615,12.019 94.615,12.029 C94.615,12.019 94.616,12.009 94.617,11.999 M94.622,11.925 C94.621,11.947 94.619,11.969 94.617,11.992 C94.619,11.969 94.621,11.947 94.622,11.925 M94.624,11.889 C94.624,11.898 94.623,11.908 94.622,11.917 C94.623,11.908 94.624,11.898 94.624,11.889 M94.626,11.852 C94.625,11.863 94.625,11.874 94.624,11.884 C94.625,11.874 94.625,11.863 94.626,11.852 M94.627,11.819 C94.627,11.827 94.626,11.835 94.626,11.844 C94.626,11.835 94.627,11.827 94.627,11.819 M94.628,11.78 C94.628,11.79 94.627,11.8 94.627,11.811 C94.627,11.8 94.628,11.79 94.628,11.78 M94.628,11.749 L94.628,11.773 L94.628,11.749 M94.629,11.717 C94.629,11.724 94.629,11.731 94.628,11.738 C94.629,11.731 94.629,11.724 94.629,11.717 M94.629,11.679 L94.629,11.702 L94.629,11.679 M94.628,11.65 L94.628,11.665 L94.628,11.65 M94.628,11.624 L94.628,11.635 L94.628,11.624 M94.627,11.583 L94.627,11.591 L94.627,11.583 M94.626,11.561 L94.626,11.562 C94.626,11.562 94.626,11.562 94.626,11.561" id="Fill-98" fill="#454545" sketch:type="MSShapeGroup"/><path d="M87.871,11.099 L74.724,27.662 C76.095,27.794 77.368,27.854 78.551,27.854 C80.502,27.854 82.205,27.689 83.693,27.404 L94.412,13.9 C94.427,13.761 94.442,13.622 94.457,13.482 C94.353,12.76 94.081,11.971 93.045,11.624 C92.647,11.491 90.673,11.305 87.871,11.099" id="Fill-99" fill="#515151" sketch:type="MSShapeGroup"/><path d="M89.71,8.783 L87.871,11.099 C90.673,11.305 92.647,11.491 93.045,11.624 C94.081,11.971 94.353,12.76 94.457,13.482 L94.457,13.483 C94.506,13.035 94.555,12.586 94.603,12.145 C94.604,12.134 94.606,12.122 94.607,12.111 C94.607,12.108 94.607,12.106 94.608,12.103 C94.609,12.093 94.61,12.084 94.611,12.074 L94.611,12.068 C94.612,12.056 94.613,12.045 94.614,12.033 C94.614,12.032 94.614,12.03 94.615,12.029 C94.615,12.019 94.616,12.009 94.617,11.999 L94.617,11.992 C94.619,11.969 94.621,11.947 94.622,11.925 L94.622,11.917 C94.623,11.908 94.624,11.898 94.624,11.889 L94.624,11.884 C94.625,11.874 94.625,11.863 94.626,11.852 L94.626,11.844 C94.626,11.835 94.627,11.827 94.627,11.819 L94.627,11.811 C94.627,11.8 94.628,11.79 94.628,11.78 L94.628,11.773 L94.628,11.749 L94.628,11.738 C94.629,11.731 94.629,11.724 94.629,11.717 L94.629,11.702 L94.629,11.679 C94.629,11.675 94.629,11.67 94.628,11.665 L94.628,11.65 L94.628,11.635 L94.628,11.624 C94.628,11.613 94.627,11.602 94.627,11.591 L94.627,11.583 C94.626,11.577 94.626,11.569 94.626,11.562 C94.626,11.562 94.626,11.562 94.626,11.561 C94.548,9.724 92.91,9.182 89.71,8.783" id="Fill-100" fill="#1A1A1A" sketch:type="MSShapeGroup"/><path d="M161.498,15.811 L161.498,15.811 C161.569,15.826 161.639,15.842 161.709,15.857 L161.498,15.811 M161.496,15.81 C161.496,15.81 161.496,15.811 161.497,15.811 C161.496,15.811 161.496,15.81 161.496,15.81 M161.486,15.809 L161.487,15.809 L161.486,15.809 M149.218,13.834 C149.226,13.835 149.234,13.837 149.242,13.838 C149.234,13.837 149.226,13.836 149.218,13.834 M149.113,13.819 L149.113,13.819 C149.141,13.823 149.169,13.827 149.198,13.831 C149.17,13.827 149.141,13.823 149.113,13.819" id="Fill-101" fill="#454545" sketch:type="MSShapeGroup"/><path d="M147.433,16.045 L138.441,27.961 C140.534,29.804 143.818,31.486 148.957,32.756 L160.028,18.085 C156.022,17.405 151.337,16.652 147.433,16.045" id="Fill-102" fill="#515151" sketch:type="MSShapeGroup"/><path d="M149.113,13.819 L147.433,16.045 C151.337,16.652 156.022,17.405 160.028,18.085 L161.709,15.857 C161.639,15.842 161.569,15.826 161.498,15.811 C161.498,15.811 161.498,15.811 161.497,15.811 C161.496,15.811 161.496,15.81 161.496,15.81 L161.495,15.81 C161.493,15.81 161.49,15.809 161.487,15.809 L161.486,15.809 C161.184,15.755 155.368,14.719 149.242,13.838 C149.234,13.837 149.226,13.835 149.218,13.834 C149.211,13.833 149.204,13.832 149.198,13.831 C149.169,13.827 149.141,13.823 149.113,13.819" id="Fill-103" fill="#1A1A1A" sketch:type="MSShapeGroup"/><path d="M170.297,20.446 C170.265,20.6 170.232,20.755 170.199,20.911 L170.196,20.926 C170.23,20.765 170.264,20.605 170.297,20.446 M170.304,20.415 C170.301,20.425 170.299,20.435 170.297,20.446 C170.299,20.435 170.301,20.425 170.304,20.415 M170.31,20.381 C170.309,20.389 170.307,20.397 170.305,20.405 C170.307,20.397 170.309,20.389 170.31,20.381 M170.317,20.344 C170.316,20.354 170.314,20.364 170.312,20.373 C170.314,20.364 170.316,20.354 170.317,20.344 M170.323,20.313 C170.322,20.32 170.321,20.327 170.319,20.334 C170.321,20.327 170.322,20.32 170.323,20.313 M170.33,20.275 C170.328,20.284 170.327,20.293 170.325,20.302 C170.327,20.293 170.328,20.284 170.33,20.275 M170.335,20.245 C170.334,20.251 170.333,20.257 170.332,20.262 C170.333,20.257 170.334,20.251 170.335,20.245 M170.339,20.216 C170.338,20.221 170.338,20.226 170.337,20.231 C170.338,20.226 170.338,20.221 170.339,20.216 M170.345,20.179 C170.344,20.182 170.344,20.185 170.343,20.188 C170.344,20.185 170.344,20.182 170.345,20.179 M170.348,20.154 L170.348,20.16 L170.348,20.154 M170.357,20.088 L170.357,20.089 C170.357,20.089 170.357,20.089 170.357,20.088" id="Fill-104" fill="#454545" sketch:type="MSShapeGroup"/><path d="M170.297,20.446 C170.265,20.6 170.232,20.755 170.199,20.911 C170.232,20.755 170.265,20.6 170.297,20.446 M164.838,18.928 L153.721,33.659 C154.902,33.804 155.992,33.869 157,33.869 C158.96,33.869 160.606,33.621 161.986,33.218 L169.784,22.884 C169.866,22.493 169.951,22.092 170.035,21.69 C170.012,21.001 169.843,20.233 168.942,19.81 C168.62,19.659 167.071,19.338 164.838,18.928" id="Fill-105" fill="#515151" sketch:type="MSShapeGroup"/><path d="M166.391,16.871 L164.838,18.928 C167.071,19.338 168.62,19.659 168.942,19.81 C169.843,20.233 170.012,21.001 170.035,21.69 C170.089,21.435 170.143,21.179 170.196,20.926 L170.199,20.911 C170.232,20.755 170.265,20.6 170.297,20.446 C170.299,20.435 170.301,20.425 170.304,20.415 C170.304,20.412 170.305,20.408 170.305,20.405 C170.307,20.397 170.309,20.389 170.31,20.381 C170.311,20.379 170.311,20.376 170.312,20.373 C170.314,20.364 170.316,20.354 170.317,20.344 C170.318,20.341 170.319,20.337 170.319,20.334 C170.321,20.327 170.322,20.32 170.323,20.313 C170.324,20.31 170.324,20.306 170.325,20.302 C170.327,20.293 170.328,20.284 170.33,20.275 C170.33,20.271 170.331,20.266 170.332,20.262 C170.333,20.257 170.334,20.251 170.335,20.245 C170.335,20.24 170.336,20.236 170.337,20.231 C170.338,20.226 170.338,20.221 170.339,20.216 C170.341,20.207 170.342,20.197 170.343,20.188 C170.344,20.185 170.344,20.182 170.345,20.179 C170.346,20.173 170.346,20.166 170.348,20.16 L170.348,20.154 C170.351,20.132 170.354,20.111 170.357,20.089 C170.357,20.089 170.357,20.089 170.357,20.088 C170.577,18.25 169.217,17.554 166.391,16.871" id="Fill-106" fill="#1A1A1A" sketch:type="MSShapeGroup"/></g></g></g></svg>