<?xml version="1.0" encoding="utf-8"?><svg version="1.1" id="Layer_1" xmlns="http://www.w3.org/2000/svg" xmlns:xlink="http://www.w3.org/1999/xlink" x="0px" y="0px" width="107px" height="287px" viewBox="0 0 107 287" style="enable-background:new 0 0 107 287;" xml:space="preserve"><style type="text/css">.st0{fill:#00843F;} .st1{fill:#02662D;} .st2{fill:#E8957C;} .st3{fill:#FFFFFF;} .st4{fill:#017033;} .st5{fill:#1980BA;} .st6{fill:#1E6BA5;} .st7{fill:#934F3F;} .st8{fill:#3C3C3C;} .st9{fill:#60BAE2;} .st10{fill:#E08070;} .st11{fill:#FFB000;} .st12{fill:#EDAF9F;} .st13{fill:#CC7262;} .st14{fill:#B2473B;} .st15{fill:#CC4F46;} .st16{fill:#FFC200;} .st17{fill:#DDDDDD;} .st18{fill:#54231C;} .st19{fill:#2E5329;} .st20{fill:#017737;} .st21{fill:none;stroke:#B2B2B2;stroke-width:2.0034;stroke-linecap:round;stroke-linejoin:round;stroke-miterlimit:10;} .st22{fill:#2D2D2D;} .st23{fill:#444444;} .st24{fill:#515151;} .st25{fill:#F0F0F0;fill-opacity:0.15;} .st26{fill:#1CB0F6;} .st27{fill:#1CB0F6;fill-opacity:0.2;} .st28{fill:#7AC70C;} .st29{fill:#FFFFFF;fill-opacity:0.5;} .st30{fill:#D33131;} .st31{fill:#FFD833;} .st32{fill:#FF9700;} .st33{fill:#E86E00;} .st34{fill:#FFCCCC;fill-opacity:0.8;} .st35{fill:#E29256;} .st36{fill:#562C1F;} .st37{fill:#4949DB;} .st38{fill:#1CB0F6;fill-opacity:0.3;} .st39{fill:#FFFFFF;fill-opacity:0.7;} .st40{fill:#3F3F3F;}</style><path class="st0" d="M29.6,96.9h42.4c6.5,0,11.8-5.3,11.8-11.8v-4.3h-66v4.3C17.8,91.6,23.1,96.9,29.6,96.9z"/><path class="st1" d="M24.6,87.1H77c3.7,0,6.8-3,6.8-6.8v0c0-3.7-3-6.8-6.8-6.8H24.6c-3.7,0-6.8,3-6.8,6.8v0	C17.8,84.1,20.8,87.1,24.6,87.1z"/><path class="st0" d="M28.7,189.8L28.7,189.8c-8.8,0-15.9-7.1-15.9-15.9v-49.8l15.9,0.1v60.2h0V189.8"/><path class="st2" d="M28.7,189.8L28.7,189.8c-8.8,0-15.9-7.1-15.9-15.9V160h15.9v24.3h0V189.8"/><path class="st0" d="M12.8,124.1c0-20.7,16.8-37.6,37.6-37.6h0c20.7,0,37.6,16.8,37.6,37.6H75.3v42.4l-49.7,0v-42.4H12.8z"/><path class="st3" d="M64.9,113.2L64.9,113.2c0.7,0,1.2-0.5,1.2-1.2V93.6c0-0.7-0.5-1.2-1.2-1.2l0,0c-0.7,0-1.2,0.5-1.2,1.2V112	C63.7,112.7,64.3,113.2,64.9,113.2z"/><path class="st3" d="M36.1,113.2L36.1,113.2c0.7,0,1.2-0.5,1.2-1.2V93.6c0-0.7-0.5-1.2-1.2-1.2l0,0c-0.7,0-1.2,0.5-1.2,1.2V112	C34.9,112.7,35.5,113.2,36.1,113.2z"/><path class="st3" d="M33.4,109.5L33.4,109.5c0,0.7,0.5,1.2,1.2,1.2h3c0.7,0,1.2-0.5,1.2-1.2v0c0-0.7-0.5-1.2-1.2-1.2h-3	C34,108.3,33.4,108.9,33.4,109.5z"/><path class="st3" d="M62.2,109.5L62.2,109.5c0,0.7,0.5,1.2,1.2,1.2h3c0.7,0,1.2-0.5,1.2-1.2v0c0-0.7-0.5-1.2-1.2-1.2h-3	C62.7,108.3,62.2,108.9,62.2,109.5z"/><rect x="11" y="151.4" transform="matrix(-1 -4.541935e-11 4.541935e-11 -1 36.5838 311.405)" class="st4" width="14.6" height="8.6"/><path class="st5" d="M75.3,173.8v107H54.1v-86.8c0-2-1.6-3.6-3.6-3.6c-2,0-3.6,1.6-3.6,3.6v86.8H25.6v-107H75.3z"/><path class="st6" d="M38.5,174.1c0,7.2-5.8,13-13,13v-13H38.5z"/><path class="st6" d="M75.3,187.1c-7.2,0-13-5.8-13-13h13V187.1z"/><rect x="52.6" y="283.8" transform="matrix(-1 -4.523460e-11 4.523460e-11 -1 134.3772 570.3129)" class="st7" width="29.3" height="2.7"/><rect x="25.6" y="166.5" transform="matrix(-1 -4.496460e-11 4.496460e-11 -1 100.8391 340.7215)" class="st8" width="49.7" height="7.8"/><rect x="24.5" y="268.5" transform="matrix(-1 -4.488910e-11 4.488910e-11 -1 72.4163 552.5689)" class="st9" width="23.3" height="15.5"/><rect x="53" y="268.5" transform="matrix(-1 -4.504498e-11 4.504498e-11 -1 129.3858 552.5689)" class="st9" width="23.3" height="15.5"/><path class="st7" d="M52.6,284c0-5.6,4.6-10.2,10.2-10.2h8.9c5.6,0,10.2,4.6,10.2,10.2H52.6z"/><rect x="19" y="283.8" transform="matrix(-1 -4.486157e-11 4.486157e-11 -1 67.1991 570.3129)" class="st7" width="29.3" height="2.7"/><path class="st7" d="M19,284c0-5.6,4.6-10.2,10.2-10.2h8.9c5.6,0,10.2,4.6,10.2,10.2H19z"/><polygon class="st10" points="43.2,97.9 50.6,104.6 57.9,97.9"/><path class="st10" d="M50.6,101L50.6,101c5.7,0,10.4-4.6,10.4-10.4V78.2c0-5.7-4.6-10.4-10.4-10.4h0c-5.7,0-10.4,4.6-10.4,10.4v12.4	C40.2,96.4,44.9,101,50.6,101z"/><path class="st11" d="M21.6,42C9.8,42,0.1,51.7,0.1,63.4V67v12.3v21.3h0c11.8,0,21.5-9.6,21.5-21.4v-3.5L21.6,42L21.6,42z"/><path class="st11" d="M69.7,49h-2.4c-7,0-12.7-5.7-12.7-12.7v-4.6c0-7,5.7-12.7,12.7-12.7h2.4c7,0,12.7,5.7,12.7,12.7v4.6	C82.5,43.3,76.7,49,69.7,49z"/><circle class="st10" cx="79.7" cy="51.5" r="7.1"/><circle class="st10" cx="21.5" cy="51.5" r="7.1"/><path class="st2" d="M50.7,87.1L50.7,87.1c-16,0-29-13-29-29V40c0-16,13-29,29-29h0c16,0,29,13,29,29v18.1	C79.7,74.1,66.7,87.1,50.7,87.1z"/><path class="st12" d="M35.7,53.2L35.7,53.2c-4.5,0-8.2-3.7-8.2-8.2v-7.3h16.3V45C43.8,49.5,40.2,53.2,35.7,53.2z"/><circle class="st13" cx="35.7" cy="44.5" r="3.6"/><path class="st14" d="M65.7,58.5c0,8.3-6.7,15-15,15s-15-6.7-15-15"/><path class="st3" d="M36.4,63.3h28.5c0.5-1.5,0.8-3.1,0.8-4.8H35.6C35.6,60.2,35.9,61.8,36.4,63.3z"/><path class="st12" d="M65.5,53.2L65.5,53.2c-4.5,0-8.2-3.7-8.2-8.2v-7.3h16.3V45C73.7,49.5,70,53.2,65.5,53.2z"/><path class="st15" d="M59.4,70.7c-2-2.6-5.2-4.2-8.7-4.2h0c-3.6,0-6.7,1.7-8.8,4.2c2.5,1.8,5.5,2.8,8.7,2.8	C53.9,73.5,56.9,72.5,59.4,70.7z"/><path class="st10" d="M53.6,54h-5.9c-1.1,0-1.9-0.9-1.9-1.9v-9.4c0-1.1,0.9-1.9,1.9-1.9h5.9c1.1,0,1.9,0.9,1.9,1.9v9.4	C55.5,53.2,54.6,54,53.6,54z"/><path class="st16" d="M21.6,44.5V40c0-16,13-29,29-29h0.1c7.9,0,15.1,3.2,20.3,8.3C67.5,8.4,57.2,0.5,45.2,0.5l0,0	c-15,0-27.2,12.3-27.2,27.2v17.7C19,44.9,20.2,44.5,21.6,44.5C21.5,44.5,21.6,44.5,21.6,44.5z"/><path class="st11" d="M21.6,44.5v-2h-3.7v3C19,44.9,20.2,44.5,21.6,44.5C21.5,44.5,21.6,44.5,21.6,44.5z"/><circle class="st13" cx="65.5" cy="44.5" r="3.6"/><path class="st17" d="M18.8,62.7L18.8,62.7c-0.5,0-0.9-0.4-0.9-0.9v-5.1c0-0.5,0.4-0.9,0.9-0.9h0c0.5,0,0.9,0.4,0.9,0.9v5.1	C19.7,62.3,19.3,62.7,18.8,62.7z"/><path class="st17" d="M82.2,62.7L82.2,62.7c-0.5,0-0.9-0.4-0.9-0.9v-5.1c0-0.5,0.4-0.9,0.9-0.9l0,0c0.5,0,0.9,0.4,0.9,0.9v5.1	C83.1,62.3,82.7,62.7,82.2,62.7z"/><path class="st18" d="M35.7,55.5c-5.9,0-10.8-4.8-10.8-10.8v-3.5c0-3.2,2.6-5.8,5.8-5.8h9.9c3.2,0,5.8,2.6,5.8,5.8v3.5	C46.5,50.7,41.7,55.5,35.7,55.5z M30.8,38.5c-1.5,0-2.8,1.2-2.8,2.8v3.5c0,4.3,3.5,7.7,7.7,7.7s7.7-3.5,7.7-7.7v-3.5	c0-1.5-1.2-2.8-2.8-2.8H30.8z"/><path class="st18" d="M65.6,55.5c-5.9,0-10.8-4.8-10.8-10.8v-3.5c0-3.2,2.6-5.8,5.8-5.8h9.9c3.2,0,5.8,2.6,5.8,5.8v3.5	C76.3,50.7,71.5,55.5,65.6,55.5z M60.6,38.5c-1.5,0-2.8,1.2-2.8,2.8v3.5c0,4.3,3.5,7.7,7.7,7.7s7.7-3.5,7.7-7.7v-3.5	c0-1.5-1.2-2.8-2.8-2.8H60.6z"/><path class="st18" d="M56.3,43H45c-0.8,0-1.5-0.7-1.5-1.5s0.7-1.5,1.5-1.5h11.3c0.8,0,1.5,0.7,1.5,1.5S57.1,43,56.3,43z"/><path class="st18" d="M25.5,45.3h-7.8c-0.8,0-1.5-0.7-1.5-1.5s0.7-1.5,1.5-1.5h7.8c0.8,0,1.5,0.7,1.5,1.5S26.3,45.3,25.5,45.3z"/><path class="st18" d="M83.6,45.3h-7.8c-0.8,0-1.5-0.7-1.5-1.5s0.7-1.5,1.5-1.5h7.8c0.8,0,1.5,0.7,1.5,1.5S84.4,45.3,83.6,45.3z"/><path class="st16" d="M70.9,19.1C65.6,14.1,58.5,11,50.7,11h-0.1c-13.4,0-24.7,9.1-28,21.5c5,6.1,12.6,10,21.2,10	C57.5,42.4,68.9,32.3,70.9,19.1z"/><rect x="17.9" y="29.3" class="st16" width="25.9" height="13.2"/><path class="st19" d="M64.3,120.3c0-0.3,0-0.8-0.6-0.8c-0.7,0-3.3,1.7-4,1.7c-0.5,0,0.3-3.3,0.3-6.3c0-0.8-0.3-1.9-0.9-1.9	c-1.4,0-1.6,1.3-4.7,1.3c-4.9,0-5.5-3.3-8-3.3c-2.2,0-2.1,5.2-2.1,5.9c0,0.7,0.2,3-0.9,3c-1.2,0-4-2.2-5.3-2.2	c-0.5,0-0.9,0.7-0.9,2.1c0,6.2,7.1,9,7.3,9.8c1,4.3,3.5,6.1,6.8,6.1c5,0,6.4-6.1,6.7-6.3C64.5,125.5,64.3,120.6,64.3,120.3z M48.6,122c-1.3,0-2.3-1.2-2.3-2.8s1-2.8,2.3-2.8c1.3,0,2.3,1.2,2.3,2.8S49.9,122,48.6,122z M52.5,124.4	C52.5,124.4,52.5,124.4,52.5,124.4c-0.2,0.1-0.4,0.1-0.6,0.1c-0.7,0-0.8-1-0.8-1.6c0-0.1,0-0.2,0.1-0.2c0.1,0,0.1,0.1,0.2,0.1	c0.3,0.4,0.7,1,1.2,1.4l0,0C52.5,124.2,52.7,124.3,52.5,124.4z M53.5,124.4c-0.2,0-2-1.7-2-2.4s0.7-1.3,1.6-1.3	c0.8,0,1.4,0.9,1.4,1.8C54.5,123.5,53.8,124.4,53.5,124.4z M58.3,119.8c-0.1,1.3-1,2.4-2,2.4c-1,0-1.8-1.2-1.8-2.5	c0.1-1.3,1-2.4,2-2.4C57.6,117.3,58.4,118.4,58.3,119.8z"/><path class="st19" d="M48.6,117.7c-0.2,0-0.3,0-0.5,0.1c0.1,0.1,0.2,0.3,0.2,0.5c0,0.3-0.3,0.6-0.6,0.6c-0.1,0-0.2,0-0.3-0.1	c0,0.1,0,0.3,0,0.4c0,0.8,0.6,1.5,1.2,1.5c0.7,0,1.2-0.7,1.2-1.5S49.2,117.7,48.6,117.7z"/><path class="st19" d="M56.5,118.3c-0.2,0-0.3,0-0.5,0.1c0.1,0.1,0.2,0.3,0.2,0.4c0,0.3-0.2,0.6-0.5,0.6c-0.1,0-0.3,0-0.3-0.1	c0,0.1-0.1,0.2-0.1,0.4c-0.1,0.8,0.4,1.5,1,1.5c0.6,0,1.1-0.6,1.2-1.4C57.5,119,57.1,118.3,56.5,118.3z"/><path class="st19" d="M50.8,123.9"/><path class="st19" d="M50.2,136.5c0.9,0,1.5,0.1,1.5,0.9c0,0.8-1,1-1.5,1s-1.2-0.2-1.2-0.8C48.9,137.1,49.4,136.6,50.2,136.5z"/><path class="st19" d="M55.4,135c0.8,0,0.8,0.8,0.8,0.9c0,0.1,0.1,0.9-1.3,1c-0.9,0-0.9-0.4-0.9-0.6C54,136.1,54.4,135,55.4,135z"/><rect x="29.6" y="142.6" transform="matrix(-1 -4.490953e-11 4.490953e-11 -1 100.9948 305.4726)" class="st20" width="41.7" height="20.2"/><path class="st21" d="M45.9,165.5H54c0.6,0,1.1,0.5,1.1,1.1v7.5c0,0.6-0.5,1.1-1.1,1.1h-8.2"/><line class="st21" x1="56.7" y1="170.4" x2="51.2" y2="170.4"/><path class="st0" d="M28.7,151.4c5.8,0,10.6-4.7,10.6-10.6c0-5.8-4.7-10.6-10.6-10.6h-1.9v21.2L28.7,151.4z"/><path class="st0" d="M72.2,130.4c-5.8,0-10.6,4.7-10.6,10.6s4.7,10.6,10.6,10.6h1.9v-21.2L72.2,130.4z"/><g><path id="Fill-23" class="st2" d="M78.1,99.7L78.1,99.7c1.6,0,2.9-1.3,2.9-2.9V81.2c0-1.6-1.3-2.9-2.9-2.9l0,0 c-1.6,0-2.9,1.3-2.9,2.9v15.5C75.2,98.3,76.5,99.7,78.1,99.7L78.1,99.7L78.1,99.7z"/><path id="Fill-24" class="st2" d="M92,135.5v-43c0-4.8-3.8-8.8-8.3-8.8l0,0c-4.6,0-8.3,3.9-8.3,8.8v43"/><path id="Fill-25_1_" class="st22" d="M99.1,110.4H82.3c-1.2,0-2.1-1-2.1-2.2V76.4c0-1.2,0.9-2.2,2.1-2.2h16.8c1.2,0,2.1,1,2.1,2.2 v31.9C101.2,109.4,100.3,110.4,99.1,110.4L99.1,110.4L99.1,110.4z"/><path id="Fill-26" class="st23" d="M100.4,74.6c-0.4-0.3-0.8-0.5-1.3-0.5H82.3c-1.2,0-2.1,1-2.1,2.2v31.9c0,0.6,0.2,1.1,0.6,1.5 L100.4,74.6L100.4,74.6L100.4,74.6z"/><path id="Fill-27_1_" class="st24" d="M92.1,107.6c0,0.8-0.6,1.5-1.4,1.5s-1.4-0.7-1.4-1.5c0-0.8,0.6-1.5,1.4-1.5 S92.1,106.7,92.1,107.6L92.1,107.6z"/><path id="Fill-28" d="M92.4,76.7H89c-0.2,0-0.3-0.2-0.3-0.3v-0.2c0-0.2,0.2-0.3,0.3-0.3h3.4c0.2,0,0.3,0.2,0.3,0.3v0.2 C92.7,76.6,92.6,76.7,92.4,76.7L92.4,76.7L92.4,76.7z"/><polygon id="Fill-29_1_" class="st3" points="81.6,79.1 99.7,79.1 99.7,105.1 81.6,105.1"/><polygon id="Fill-31_1_" class="st25" points="81.6,79.1 99.7,79.1 99.7,105.1 81.6,105.1"/><path id="Fill-33_1_" class="st26" d="M92.7,85.6c0,1.2-0.9,2.1-2.1,2.1c-1.2,0-2.1-1-2.1-2.1s0.9-2.1,2.1-2.1 C91.8,83.5,92.7,84.4,92.7,85.6L92.7,85.6z"/><path id="Fill-35" class="st3" d="M91.1,84.7l-0.2,0.2L91,85l-0.2,0.5l0.1-0.5l-0.2-0.2l0.2-0.4c-0.1-0.1-0.2-0.1-0.3-0.1 c-0.5,0-0.9,0.9-0.9,1.4c0,0.5,0.4,0.9,0.9,0.9s0.9-0.4,0.9-0.9C91.5,85.5,91.3,85,91.1,84.7L91.1,84.7L91.1,84.7z"/><path id="Fill-37_1_" class="st27" d="M90.6,86.3c-0.4,0-0.7-0.2-0.9-0.4l0,0c0,0.5,0.4,0.9,0.9,0.9c0.5,0,0.9-0.4,0.9-0.9l0,0 C91.3,86.1,91,86.3,90.6,86.3L90.6,86.3L90.6,86.3z"/><path id="Fill-40_1_" class="st28" d="M90.1,91.8c0,1.2-0.9,2.1-2.1,2.1c-1.2,0-2.1-1-2.1-2.1c0-1.2,0.9-2.1,2.1-2.1 C89.1,89.7,90.1,90.6,90.1,91.8L90.1,91.8z"/><path id="Fill-42" class="st3" d="M88.5,91.5c0-0.5-0.4-0.9-0.8-0.9c-0.5,0-0.8,0.4-0.8,0.9c0,0.4,0.3,0.8,0.6,0.8 c0.1,0.2,0.2,0.3,0.4,0.3v-0.3C88.2,92.3,88.5,91.9,88.5,91.5L88.5,91.5L88.5,91.5z"/><path id="Fill-44" class="st29" d="M89.2,91.9c0-0.4-0.3-0.8-0.7-0.8s-0.7,0.3-0.7,0.8c0,0.4,0.3,0.6,0.6,0.7 c0.1,0.2,0.2,0.3,0.3,0.3v-0.3C88.9,92.5,89.2,92.2,89.2,91.9L89.2,91.9L89.2,91.9z"/><path id="Fill-46_1_" class="st30" d="M95.4,91.8c0,1.2-0.9,2.1-2.1,2.1c-1.2,0-2.1-1-2.1-2.1c0-1.2,0.9-2.1,2.1-2.1 C94.4,89.7,95.4,90.6,95.4,91.8L95.4,91.8z"/><path id="Fill-48_1_" class="st31" d="M92.6,92.2c0.2,0.1,0.4,0.1,0.5,0.2l0,0c0.1,0,0.2,0,0.3,0.1c0.1-0.1,0.3-0.2,0.3-0.3 c0,0,0,0,0.1,0c0,0,0.1-0.1,0.1-0.1c0,0,0,0,0.1,0v-0.6c0-0.4-0.3-0.8-0.7-0.8s-0.7,0.3-0.7,0.8L92.6,92.2 C92.6,92.1,92.6,92.2,92.6,92.2L92.6,92.2L92.6,92.2z"/><path id="Fill-49_1_" class="st31" d="M93.8,91.1v-0.6c-0.3,0-0.5,0.2-0.6,0.5L93.8,91.1L93.8,91.1L93.8,91.1z"/><path id="Fill-50_1_" class="st31" d="M93.2,91.1v-0.5c0.2,0,0.4,0.2,0.5,0.5H93.2L93.2,91.1L93.2,91.1z"/><polygon id="Fill-53_1_" class="st32" points="93.1,91.4 93.4,91.1 93.7,91.4 93.4,91.7"/><path id="Fill-54_1_" class="st31" d="M92.1,91.4c0,0.3,0.3,0.6,0.6,0.6v-0.6H92.1L92.1,91.4L92.1,91.4z"/><path id="Fill-55_1_" class="st31" d="M94.5,91.4c0,0.3-0.3,0.6-0.6,0.6v-0.6H94.5L94.5,91.4L94.5,91.4z"/><polygon id="Fill-56_1_" class="st33" points="93.6,91.4 93.4,91.5 93.1,91.4 93.4,91.9"/><path id="Fill-57_1_" class="st31" d="M92.5,91.9l0,0.2l0.1,0.3l0.4,0.2l0.7-0.1l0.4-0.3l0-0.2l0-0.1c0,0-0.5-0.1-0.5-0.1 c0,0-0.7-0.1-0.7-0.1L92.5,91.9L92.5,91.9L92.5,91.9z"/><path id="Fill-58_1_" class="st3" d="M94.2,91.9v0.3c0,0.5-0.4,0.9-0.9,0.9l0,0c-0.5,0-0.9-0.4-0.9-0.9v-0.3l0.4,0.3l0.5-0.3 l0.5,0.3L94.2,91.9L94.2,91.9L94.2,91.9z"/><path id="Fill-60_1_" class="st34" d="M93.3,92.7c-0.4,0-0.7-0.2-0.9-0.4c0.1,0.4,0.4,0.8,0.9,0.8c0.5,0,0.8-0.4,0.9-0.8 C94,92.5,93.7,92.7,93.3,92.7L93.3,92.7L93.3,92.7z"/><path id="Fill-63_1_" class="st30" d="M87.4,98c0,1.2-0.9,2.1-2.1,2.1c-1.2,0-2.1-1-2.1-2.1c0-1.2,0.9-2.1,2.1-2.1 C86.5,95.8,87.4,96.8,87.4,98L87.4,98z"/><path id="Fill-65" class="st35" d="M86.3,98.4h-0.7h-1.3c-0.1,0-0.1,0.1-0.1,0.3c0,0.2,0.1,0.3,0.1,0.3h0.8h1.1 c0.1,0,0.1-0.1,0.1-0.3C86.4,98.5,86.4,98.4,86.3,98.4L86.3,98.4L86.3,98.4z"/><path id="Fill-66" class="st36" d="M86.5,98.3c0,0.2-0.1,0.3-0.2,0.3h-2c-0.1,0-0.2-0.1-0.2-0.3l0,0c0-0.2,0.1-0.3,0.2-0.3h2 C86.4,98,86.5,98.1,86.5,98.3L86.5,98.3L86.5,98.3L86.5,98.3z"/><path id="Fill-69" class="st35" d="M84.2,97.9L84.2,97.9c0-0.4,0.3-0.7,0.7-0.7h0.7c0.4,0,0.7,0.3,0.7,0.7l0,0"/><path id="Fill-74_1_" class="st26" d="M92.7,98c0,1.2-0.9,2.1-2.1,2.1c-1.2,0-2.1-1-2.1-2.1c0-1.2,0.9-2.1,2.1-2.1 C91.8,95.8,92.7,96.8,92.7,98L92.7,98z"/><path id="Fill-75_1_" class="st37" d="M91.7,98c0,0.6-0.5,1.1-1.1,1.1c-0.6,0-1.1-0.5-1.1-1.1"/><path id="Fill-76_1_" class="st37" d="M91.4,98.7c-0.4,0.4-1.1,0.4-1.5,0c-0.4-0.4-0.4-1.1,0-1.5"/><path id="Fill-77_1_" class="st37" d="M90.4,96.9c0.1,0.2,0,0.4-0.1,0.5c-0.1,0.1-0.3,0-0.4-0.1"/><path id="Fill-78" class="st37" d="M89.6,96.9c-0.1,0.2,0,0.5,0.2,0.5c0.2,0.1,0.3,0,0.4-0.3"/><path id="Fill-80_1_" class="st38" d="M90.7,99.1c0.6,0,1.1-0.5,1.1-1.1l-1.7,0.9C90.2,99,90.4,99.1,90.7,99.1L90.7,99.1L90.7,99.1 z"/><path id="Fill-83" class="st37" d="M89.8,98.9L89.8,98.9c0.1,0.2,0.3,0.3,0.5,0.2l0,0c0.2-0.1,0.3-0.3,0.2-0.6l0,0"/><path id="Fill-88" class="st39" d="M91.8,97.5c0,0.1-0.1,0.2-0.2,0.2c-0.1,0-0.2-0.1-0.2-0.2c0-0.1,0.1-0.2,0.2-0.2 C91.7,97.2,91.8,97.4,91.8,97.5L91.8,97.5z"/><path id="Fill-91" class="st39" d="M91.6,97.2c0,0.1-0.1,0.2-0.2,0.2c-0.1,0-0.2-0.1-0.2-0.2c0-0.1,0.1-0.2,0.2-0.2 C91.5,96.9,91.6,97,91.6,97.2L91.6,97.2z"/><path id="Fill-96" class="st28" d="M96,95.8c1.2,0,2.1,1,2.1,2.1c0,1.2-0.9,2.1-2.1,2.1c-1.2,0-2.1-1-2.1-2.1 C93.9,96.8,94.8,95.8,96,95.8"/><path id="Fill-97" class="st40" d="M95.6,97.1C95.6,97.1,95.6,97.1,95.6,97.1L95.6,97.1C95.6,97,95.7,97,95.6,97.1l0.5,0.4 c0,0,0,0.1,0,0.1l0,0c0,0-0.1,0-0.1,0L95.6,97.1L95.6,97.1L95.6,97.1z"/><path id="Fill-98" class="st40" d="M96.2,97C96.3,97,96.3,97,96.2,97L96.2,97C96.4,97.1,96.4,97.1,96.2,97l-0.4,0.5 c0,0-0.1,0-0.1,0l0,0c0,0,0-0.1,0-0.1L96.2,97L96.2,97L96.2,97z"/><path id="Fill-99" class="st40" d="M96.3,97.4c0,0.2-0.1,0.3-0.3,0.3c-0.2,0-0.3-0.1-0.3-0.3c0-0.2,0.1-0.3,0.3-0.3 C96.1,97.1,96.3,97.2,96.3,97.4L96.3,97.4z"/><path id="Fill-100" class="st31" d="M95.4,98c0-0.3,0.3-0.6,0.6-0.6s0.6,0.3,0.6,0.6c0,0.3-0.3,0.7-0.6,0.9 C95.7,98.7,95.4,98.3,95.4,98L95.4,98L95.4,98z"/><path id="Fill-101" class="st40" d="M95.4,98c0,0.1,0,0.2,0.1,0.3h1c0.1-0.1,0.1-0.2,0.1-0.3c0-0.1,0-0.2-0.1-0.3h-1.1 C95.4,97.8,95.4,97.9,95.4,98L95.4,98L95.4,98z"/><path id="Fill-103" class="st39" d="M95.5,98.4c-0.2,0.2-0.6,0.2-0.8,0c-0.2-0.2-0.2-0.6,0-0.8c0.2-0.2,0.7-0.2,1-0.2 C95.7,97.7,95.7,98.2,95.5,98.4L95.5,98.4L95.5,98.4z"/><path id="Fill-105" class="st39" d="M96.4,98.4c0.2,0.2,0.6,0.2,0.8,0s0.2-0.6,0-0.8c-0.2-0.2-0.7-0.2-1-0.2 C96.2,97.7,96.2,98.2,96.4,98.4L96.4,98.4L96.4,98.4z"/><path id="Fill-107" class="st2" d="M103.4,89.1h-5.6c-1.9,0-3.5-1.6-3.5-3.5l0,0c0-1.9,1.6-3.5,3.5-3.5h5.6c1.9,0,3.5,1.6,3.5,3.5 l0,0C106.9,87.4,105.3,89.1,103.4,89.1L103.4,89.1L103.4,89.1z"/><path id="Fill-109" class="st2" d="M103.4,95.8h-5.6c-1.9,0-3.5-1.6-3.5-3.5l0,0c0-1.9,1.6-3.5,3.5-3.5h5.6c1.9,0,3.5,1.6,3.5,3.5 l0,0C106.9,94.3,105.3,95.8,103.4,95.8L103.4,95.8L103.4,95.8z"/><path id="Fill-110" class="st2" d="M103.4,102.6h-5.6c-1.9,0-3.5-1.6-3.5-3.5l0,0c0-1.9,1.6-3.5,3.5-3.5h5.6c1.9,0,3.5,1.6,3.5,3.5 l0,0C106.9,101,105.3,102.6,103.4,102.6L103.4,102.6L103.4,102.6z"/></g><path class="st4" d="M83.7,151.8L83.7,151.8c-4.7,0-8.4-3.8-8.4-8.4v-26.8h16.9v26.8C92.2,148,88.4,151.8,83.7,151.8z"/><rect x="75.3" y="113.5" transform="matrix(-1 -4.496060e-11 4.496060e-11 -1 169.2268 235.6482)" class="st1" width="18.7" height="8.6"/></svg>