<?xml version="1.0" encoding="UTF-8"?><svg width="269px" height="296px" viewBox="0 0 269 296" version="1.1" xmlns="http://www.w3.org/2000/svg" xmlns:xlink="http://www.w3.org/1999/xlink"><title>duo_dragon_cheer</title><desc>Created with Sketch.</desc><defs><linearGradient x1="50.010442%" y1="-0.112044818%" x2="50.010442%" y2="99.9019608%" id="linearGradient-1"><stop stop-color="#000000" offset="0%"/><stop stop-color="#000000" stop-opacity="0.2" offset="100%"/></linearGradient></defs><g id="Page-1" stroke="none" stroke-width="1" fill="none" fill-rule="evenodd"><g id="duo_dragon_cheer"><g id="dragon-tail" transform="translate(0.000000, 173.000000)"><path d="M29.5,49.47 C20.36,58.08 0.57,57.14 2.39,63.66 C4.21,70.18 3.84,72.74 1.96,76.39 C0.08,80.04 13.84,78.08 13.84,78.08 L25.43,64.45 L29.5,49.47 Z" id="Shape" fill="#FFBF0D"/><path d="M51.46,13.3 C45.94,22.42 32.01,22.57 32.01,27.64 C32.01,31.48 35.94,29.45 35.94,36.19 C35.94,42.93 33.22,45.32 33.22,45.32 L36.67,48.32 L49.79,41.98 L55.79,24.08 L55.79,14.02 L51.46,13.3 Z" id="Shape" fill="#FFBF0D"/><path d="M57.12,0.38 C57.12,0.38 43.98,32.94 32.01,46.78 C20.21,60.42 0.01,68.16 0.01,85.08 C0.01,102 22.01,111.64 48.27,111.64 L181.53,111.64 C181.53,111.64 178.81,114.17 178.81,117 C178.81,119.83 197.81,122.46 223.05,122.46 C248.29,122.46 268.38,118.74 268.38,104.18 C268.38,89.62 253.44,76.98 210.69,76.98 L105.59,58.51 L69.35,35.9 L57.12,0.38 Z" id="Shape" fill="#D33131"/><path d="M268.34,103.27 L268.34,103.05 C268.34,102.77 268.34,102.49 268.28,102.21 L268.28,102.15 C268.28,101.85 268.21,101.56 268.17,101.26 L268.17,101.06 C268.17,100.78 268.08,100.51 268.03,100.24 L268.03,100.18 C267.97,99.88 267.9,99.58 267.82,99.29 L267.82,99.14 C267.75,98.86 267.67,98.58 267.58,98.3 L267.58,98.3 C267.486667,98 267.383333,97.7 267.27,97.4 L267.27,97.31 C267.16,97.02 267.04,96.73 266.92,96.45 L266.92,96.45 C266.786667,96.1433333 266.643333,95.84 266.49,95.54 L266.49,95.54 C266.336667,95.24 266.176667,94.9433333 266.01,94.65 L266.01,94.65 C264.885113,92.7290268 263.471986,90.9921296 261.82,89.5 L261.82,89.5 C263.32435,91.4668723 264.098498,93.8953639 264.01,96.37 C264.01,107.82 239.37,108.54 233.5,108.54 C227.63,108.54 184.37,106.54 197.99,99.34 C218.93,87.6 229.8,93.62 229.8,89.7 C229.8,85.78 121.8,82.45 78.8,82.45 C35.8,82.45 23.58,69.26 23.58,61.51 C23.58,57.68 25.68,54.06 27.81,51.38 C15.99,62.38 0.18,70.2 0.18,85.17 C0.18,102.09 22.18,111.73 48.44,111.73 L181.7,111.73 C181.7,111.73 178.98,114.26 178.98,117.09 C178.98,119.92 197.98,122.55 223.22,122.55 C248.46,122.55 268.55,118.83 268.55,104.27 C268.37,103.87 268.36,103.57 268.34,103.27 Z" id="Shape" fill="#B72E2E"/></g><g id="duo-" transform="translate(32.000000, 66.000000)"><g id="duo-body"><path d="M29.32,81.07 L29.32,90.49 L29.62,94.02 L32.62,98.21 L36.12,96.13 C36.12,96.13 38.12,98.52 37.64,91.46 C37.16,84.4 39.95,89.82 37.12,84.4 L34.29,78.98 L29.32,81.07 Z" id="Shape" fill="#78C800"/><path d="M219.03,97.92 C213.03,97.76 201.17,103.21 176.46,102.57 C175.66,102.57 166.7,102.85 166.92,94.7 L166.92,93.61 C166.53481,93.8846601 166.126628,94.1255544 165.7,94.33 C164.629064,94.8141135 163.526535,95.225056 162.4,95.56 C160.48,98.01 158.61,100.5 156.82,103.04 C155.233333,106.466667 153.52,109.83 151.68,113.13 C151.426667,113.903333 151.173333,114.673333 150.92,115.44 C149.48,119.75 147.82,124.02 146.34,128.33 C145.678686,133.08249 144.777536,137.798508 143.64,142.46 C143.52,144.373333 143.413333,146.286667 143.32,148.2 C143.32,148.39 143.4,148.59 143.43,148.8 C144.58,157 143.61,167.65 147.77,175.29 C148.527159,175.686819 149.183818,176.251135 149.69,176.94 C149.819843,176.840678 149.960788,176.756782 150.11,176.69 C222.2,151.63 223.76,105.23 223.78,104.61 C223.8,103.99 225.06,98.08 219.03,97.92 Z" id="Shape" fill="#78C800"/><path d="M156.57,161.64 C152.57,161.54 154.8,156.87 152.57,156.81 C151.16,156.81 149.93,163.52 146.42,172.08 C146.799464,173.185954 147.267654,174.259446 147.82,175.29 C148.577159,175.686819 149.233818,176.251135 149.74,176.94 C149.869843,176.840678 150.010788,176.756782 150.16,176.69 C186.73,163.98 205.16,145.77 214.42,130.84 C191.76,157.84 160.4,161.75 156.57,161.64 Z" id="Shape" fill="#71B200"/><path d="M151.29,176.08 C152.92,172.2 154.2,168.75 155.29,166.14 C167.65,132.48 169.96,93.87 170.38,80.94 C170.38,79.66 170.38,78.15 170.48,76.45 L170.48,76.45 C171.03,65.45 173.48,46.9 173.13,33.99 C173.06,31.51 172.28,15.1 163.81,15.33 C151.07,15.67 148.4,27.81 121.55,28.54 C84.55,29.54 68.32,-0.06 50.7,0.41 C27.27,1.04 32.8,66.54 33.11,77.82 C33.56,94.5 0.17,166.82 0.81,190.55 C0.81,191.92 0.3,200.23 13.81,199.87 C37.67,199.23 41.23,185.09 44.81,185 C48.39,184.91 58.24,219.56 96.55,218.52 C129.45,217.63 143.13,194.77 150.37,178.14 C150.68,177.48 150.97,176.75 151.29,176.08 Z" id="Shape" fill="#78C800"/><path d="M126.07,207.88 C133.28,208.22 132.65,216.02 132.62,216.62 C132.59,217.22 132.62,224.79 119.96,224.19 C111.96,223.81 112.58,220.27 112.66,218.51 C112.74,216.75 116.93,207.45 126.07,207.88 Z" id="Shape" fill="#D98500"/><path d="M154.27,37.36 C150.27,37.47 149.32,39.57 147.86,38.36 C147.19,37.73 150.6,36.14 150.58,35.49 C150.58,35.17 150.05,35.24 149.34,35.26 C145.12,35.37 136.97,41.77 135.8,41.8 C135.28,41.8 134.44,41.97 134.42,41.19 C134.42,39.44 140.24,37.78 136.15,37.89 C132.06,38 126.15,43.43 119.85,43.6 C106.85,43.95 96.12,34.03 96.19,36.6 C96.19,37.51 97.75,38.9 98.77,40.69 C98.77,40.69 99.43,43.4 98.3,42.39 C86.04,30.75 74.04,28.15 74.04,28.15 C74.04,28.15 73.13,28.15 73.14,28.56 C73.14,29.92 75.82,31.67 75.84,32.19 C75.8634574,32.4183234 75.7864546,32.6455606 75.6290264,32.8125881 C75.4715982,32.9796156 75.2493108,33.069918 75.02,33.06 C72.49,33.13 70.54,28.3 60.33,28.58 C44.93,29 41.33,53.34 41.88,73.23 C42.64,101.43 61.03,109.9 76.04,109.49 C87.94,109.17 100.5,101.81 105.55,91.36 L121.42,92.14 C121.42,92.14 129.58,106.65 143.55,106.27 C156.66,105.92 167.84,97.27 167.06,68.55 C166.25,38.34 158.29,37.25 154.27,37.36 Z" id="Shape" fill="#8EE000"/></g><g id="eyes" transform="translate(52.000000, 48.000000)"><ellipse id="Oval" fill="#FFFFFF" transform="translate(21.460986, 25.503196) rotate(-1.550000) translate(-21.460986, -25.503196)" cx="21.460986" cy="25.5031962" rx="20.28" ry="24.65"/><path d="M106.73,26.89 C106.42,38.68 98.73,48.19 89.51,48.13 C80.29,48.07 73.11,38.46 73.42,26.67 C73.73,14.88 81.42,5.37 90.64,5.43 C99.86,5.49 107.04,15.1 106.73,26.89 Z" id="Shape" fill="#FFFFFF"/><ellipse id="Oval" fill="#3F3F3F" transform="translate(21.041410, 25.514553) rotate(-1.550000) translate(-21.041410, -25.514553)" cx="21.0414102" cy="25.5145533" rx="11.14" ry="13.54"/><ellipse id="Oval" fill="#FFFFFF" transform="translate(13.597189, 17.128870) rotate(-1.550000) translate(-13.597189, -17.128870)" cx="13.5971888" cy="17.12887" rx="5.22" ry="5.64"/><path d="M99.22,27.09 C98.91,34.02 94.43,39.56 89.22,39.45 C84.01,39.34 80.04,33.63 80.35,26.7 C80.66,19.77 85.14,14.23 90.35,14.34 C95.56,14.45 99.53,20.16 99.22,27.09 Z" id="Shape" fill="#3F3F3F"/><ellipse id="Oval" fill="#FFFFFF" transform="translate(83.587207, 19.584923) rotate(-3.310000) translate(-83.587207, -19.584923)" cx="83.5872068" cy="19.5849231" rx="4.56" ry="5.11"/><rect id="Rectangle-path" fill="#8EE000" x="5.45" y="40.91" width="33.42" height="11.69"/><rect id="Rectangle-path" fill="#8EE000" x="76.87" y="42.17" width="26.58" height="9.16"/></g><g id="duo-body-shadows" transform="translate(1.000000, 23.000000)"><path d="M150.29,153.08 C151.92,149.2 153.2,145.75 154.29,143.14 C156.769624,136.320255 158.885928,129.373839 160.63,122.33 C159.77,121.01 160.23,118.81 158.73,118.85 C154.97,118.95 155.18,168.93 104.09,170.31 C53.69,171.67 59.49,128.61 59.42,126.1 C59.35,123.59 58.99,123.03 58.31,123.05 C57.63,123.07 56.04,123.68 56.13,126.87 C56.92,156.06 25.35,174.37 12.35,174.72 C6.55,174.88 2.94,173.52 0.71,171.97 C2,174.5 5.14,177.09 12.81,176.88 C36.67,176.24 40.23,162.1 43.81,162.01 C47.39,161.92 57.24,196.57 95.55,195.53 C128.45,194.64 142.13,171.78 149.37,155.15 C149.68,154.48 149.97,153.75 150.29,153.08 Z" id="Shape" fill="#71B200"/><path d="M139.94,4.5 C133.621998,6.62420195 126.984084,7.63917353 120.32,7.5 C110.283678,7.46620565 100.396531,5.06807552 91.46,0.5 L66.54,0.5 L33.54,5.42 C32.2629651,14.1033782 31.6711387,22.8737763 31.77,31.65 C31.77,36.94 32.59,42.98 32.55,55.4 C32.55,57.35 31.71,60.91 30.32,65.6 C29.81,67.55 29.21,69.66 28.52,71.9 C31.31,70.57 64.3,55.34 112.67,55.34 C156.15,55.34 166.86,63.67 169.01,66.01 C169.21,62.78 169.32,60.07 169.39,58.01 C169.39,56.73 169.39,55.22 169.49,53.52 L169.49,53.52 C169.99,43.41 172.12,26.82 172.17,14.18 L139.94,4.5 Z" id="Shape" fill="url(#linearGradient-1)"/><path d="M114.75,118.85 C40,118.85 28.95,76.79 28.95,76.79 C28.95,76.79 31.35,158.88 115.88,158.88 C129.657752,158.98033 143.0089,154.105031 153.48,145.15 C153.77,144.44 154.04,143.76 154.31,143.15 C159.121234,129.618622 162.692593,115.677938 164.98,101.5 C158.39,109.92 144.4,118.85 114.75,118.85 Z" id="Shape" fill="#71B200"/></g><g id="beak" transform="translate(101.000000, 86.000000)"><path d="M0.71,9.75 C0.71,9.75 -2.77,40.68 7.34,40.4 C17.45,40.12 16.92,25.31 16.85,25.13 C16.78,24.95 0.71,9.75 0.71,9.75 Z" id="Shape" fill="#71B200"/><path d="M0.57,11.87 C0.312932419,13.4339067 0.175865943,15.0151858 0.16,16.6 C0.16,18.99 -0.03,34.01 9.37,34.01 C16.37,34.01 17.07,25.73 17.07,25.73 C17.07,25.73 15.78,18.63 15.72,18.73 C15.66,18.83 11.92,11.73 11.92,11.73 C11.92,11.73 4.16,10.22 4.25,10.24 C4.34,10.26 0.57,11.87 0.57,11.87 Z" id="Shape" fill="#F49000"/><path d="M2.27,16.96 C2.42,18.88 4.83,29.67 11.79,29.67 C15.94,29.67 15.79,24.99 15.79,24.99 C15.7393895,23.0249681 15.4025121,21.077817 14.79,19.21 C14.79,19.21 12.23,15.61 12.15,15.55 C12.07,15.49 6.51,13.16 6.51,13.16 L2.27,12.16 L1.5,13.01 L1.61,13.62 C2.01741236,14.6879656 2.24058231,15.8173408 2.27,16.96 L2.27,16.96 Z" id="Shape" fill="#935400"/><path d="M12.59,0.53 C19.01,0.53 27.19,8.63 27.19,18.32 C27.19,26.79 23.85,28.95 23.19,28.95 C19.63,28.95 0.38,18.43 0.38,11.24 C0.34,5.08 7.34,0.53 12.59,0.53 Z" id="Shape" fill="#FFC200"/><ellipse id="Oval" fill="#FFF3B8" transform="translate(14.104324, 5.082552) rotate(-86.830000) translate(-14.104324, -5.082552)" cx="14.1043241" cy="5.08255198" rx="2.42" ry="4.43"/></g></g><g id="dragon-suit-top" transform="translate(31.000000, 0.000000)"><g id="dragon-beard" transform="translate(84.000000, 221.000000)" fill="#511313"><path d="M55.35,16.6 C55.35,16.6 53.55,34.37 38.86,37.07 C41.4,26 38.33,12.3 38.33,12.3 L47.7,8.6 L54.7,9.6 L55.35,16.6 Z" id="Shape"/><path d="M43.49,20.09 C43.49,20.09 41.69,37.83 27.02,40.52 C29.55,29.47 26.49,15.79 26.49,15.79 L35.85,12.1 L42.85,13.1 L43.49,20.09 Z" id="Shape"/><path d="M38.27,15.75 C38.27,15.75 36.47,33.49 21.8,36.18 C24.33,25.13 21.27,11.45 21.27,11.45 L30.63,7.76 L37.63,8.76 L38.27,15.75 Z" id="Shape"/><path d="M26.07,15.75 C26.07,15.75 24.27,33.49 9.6,36.18 C12.13,25.13 9.07,11.45 9.07,11.45 L18.43,7.76 L25.43,8.76 L26.07,15.75 Z" id="Shape"/><path d="M17.24,8.26 C17.24,8.26 15.45,25.86 0.9,28.53 C3.41,17.53 0.37,3.99 0.37,3.99 L9.65,0.33 L16.65,1.33 L17.24,8.26 Z" id="Shape"/></g><g id="dragon"><path d="M172,68.94 C172,68.94 183.49,66.75 183.84,57.15 C184.19,47.55 180.07,42.89 173.05,37.87 C166.03,32.85 176.93,35.71 176.93,35.71 C176.93,35.71 189.93,43.42 189.51,56.71 C189.09,70 175.45,76.33 172.44,76.92 C169.43,77.51 167.44,71 167.44,71 L171.53,69.07 L172,68.94 Z" id="Shape" fill="#FFAD08"/><path d="M35.7,0.09 C44.61,0.38 64.49,20.83 69.27,20.98 C74.05,21.13 83.67,16.34 102.9,16.98 C122.13,17.62 126.47,21.12 131.36,21.28 C144.72,21.72 134.14,-0.38 145.98,0.01 C157.82,0.4 165.7,12.29 168.8,17.18 C171.9,22.07 173.45,34.52 173.45,34.52 L172.22,38.83 C172.22,38.83 177.62,46.62 177.37,54.22 C177.12,61.82 173.81,69.98 172.11,71.99 C170.41,74 165.75,86.79 165.75,86.79 L139.85,93.99 L87.24,86.39 L55.24,101.87 L40.84,121.19 L32.28,146.68 L30.5,158.75 C30.5,158.75 4.39,129.33 5.19,104.67 C5.43,97.39 7.73,96.81 8.71,96.85 C11.43,96.94 11.55,99.77 14.71,99.85 C17.87,99.93 19.55,98.05 19.71,93.38 C20.19,78.82 5.84,68.56 6.27,55.38 C6.49,48.72 9.73,46.14 12.33,46.23 C14.93,46.32 15.87,50.91 18.92,51.01 C21.97,51.11 23.2,49.95 23.43,42.78 C23.66,35.61 23.91,24.96 23.91,24.96 L26.43,20.75 C26.43,20.75 27.96,20.47 28.11,16.02 C28.26,11.57 25.11,10.16 25.29,5.92 C25.47,1.68 30.92,-0.07 35.7,0.09 Z" id="Shape" fill="#D33131"/><path d="M27.38,2.2 L27.38,2.2 C26.1308126,3.05034473 25.3561417,4.44030445 25.29,5.95 C25.15,10.19 28.29,11.59 28.11,16.05 C27.93,20.51 26.43,20.75 26.43,20.75 L23.9,25.02 L23.9,27.13 L30.3,30.23 C30.3,30.23 36.37,30.86 36.93,20.52 C37.49,10.18 26.02,3.62 27.38,2.2 Z" id="Shape" fill="#B72E2E"/><path d="M29.76,39.75 C29.76,39.75 23.57,69.27 53.76,73.01 C83.95,76.75 93.76,75.01 93.76,75.01 L99.84,64.55 L97.45,53.47 L82.43,38.75 L54.2,32.86 L35.39,36.3 L29.76,39.75 Z" id="Shape" fill="#FF7C24"/><path d="M72.76,277.92 C80.67,278.44 86.12,280.78 85.66,287.92 C85.2,295.06 75.4,295.74 70.27,295.41 C65.14,295.08 59.65,292.1 59.98,286.97 C60.31,281.84 65.61,277.46 72.76,277.92 Z" id="Shape" fill="#D98500"/><circle id="Oval" fill="#FFFFFF" transform="translate(67.466541, 63.768095) rotate(-88.120000) translate(-67.466541, -63.768095)" cx="67.4665406" cy="63.7680954" r="17.72"/><circle id="Oval" fill="#511313" transform="translate(68.757709, 64.688961) rotate(-88.120000) translate(-68.757709, -64.688961)" cx="68.7577094" cy="64.6889608" r="11.45"/><path d="M59.68,69.17 C59.68,69.17 77.97,50.92 104.68,59.77 C131.39,68.62 125.06,74.94 125.06,74.94 L78.84,82.27 L62.14,78.53 L59.68,69.17 Z" id="Shape" fill="#DB0B0B"/><path d="M172.22,38.82 L173.45,34.51 C173.45,34.51 173.37,33.87 173.21,32.83 L157.39,34.42 L139.3,42.2 L135.39,50.92 L136.03,62.34 L147.03,76.11 L170.12,75.78 C170.650259,74.4492617 171.320705,73.1787667 172.12,71.99 C173.82,69.99 177.12,61.82 177.38,54.22 C177.64,46.62 172.22,38.82 172.22,38.82 Z" id="Shape" fill="#FF7C24"/><ellipse id="Oval" fill="#FFFFFF" transform="translate(155.700147, 64.820028) rotate(-88.120000) translate(-155.700147, -64.820028)" cx="155.700147" cy="64.8200283" rx="16.96" ry="16.03"/><ellipse id="Oval" fill="#511313" transform="translate(156.505773, 66.588203) rotate(-88.120000) translate(-156.505773, -66.588203)" cx="156.505773" cy="66.5882034" rx="11.12" ry="10.51"/><path d="M141.32,60.25 C141.32,60.25 171.17,60.94 174.64,79.03 C178.11,97.12 166.14,95.03 166.14,95.03 L146.31,80.6 L145.7,68.4 L141.32,60.25 Z" id="Shape" fill="#DB0B0B"/><path d="M27.51,19.51 C24.63,19.42 19.03,24.23 18.78,31.95 C18.53,39.67 20.72,42.78 26.71,43.85 C32.7,44.92 47.31,40.72 65.56,41.32 C83.81,41.92 92.45,50.54 93.81,58.7 C95.17,66.86 105.89,58.3 105.89,58.3 C105.89,58.3 103.78,26.58 64.23,25.3 C47.93,24.77 47.35,26.05 39.23,25.78 C31.11,25.51 25.23,21.92 26.45,20.78 C27.67,19.64 27.51,19.51 27.51,19.51 Z" id="Shape" fill="#511313"/><path d="M129.56,56.35 C129.76,50.27 130.51,30.82 166.01,22.74 C171.27,21.39 168.8,17.18 168.8,17.18 C168.8,17.18 181.68,19.12 181.27,31.51 C181.06,37.81 175.65,39.46 172.57,39.36 C169.49,39.26 140.5,37.79 137.38,56.61 C134.26,75.43 129.56,56.35 129.56,56.35 Z" id="Shape" fill="#511313"/><path d="M55.03,69.6 C55.03,69.6 26.55,75.77 13.38,48.37 C11.02,44.52 19.38,22.28 5.25,9.91 C3.25,8.22 -0.67,11.29 1.66,13.33 C10.29,22.1 9.19,29.02 9.15,30.33 C9.11,31.64 7.33,42.67 7.15,47.56 C6.97,52.45 13.04,76.94 51.28,78.19 C89.52,79.44 55.03,69.6 55.03,69.6 Z" id="Shape" fill="#FFAD08"/><path d="M63.07,66.38 C75.85,66.8 76,71.16 80.2,71.3 C86.97,71.52 92.06,52.3 126.33,53.42 C150.18,54.2 160.45,79.33 164.47,79.42 C169.36,79.58 171.01,75.5 179.81,75.79 C188.61,76.08 192.38,87.08 192.38,87.08 L193.79,93.98 L191.84,111.75 L167.5,117.8 L107.75,109.21 L70.59,111.58 L46.4,106.33 C46.4,106.33 45,89.21 45.16,84.33 C45.32,79.45 49.77,66.4 63.07,66.38 Z" id="Shape" fill="#FF7C24"/><path d="M123.13,97.82 C70.38,82.75 101.23,57.35 101.23,57.35 L101.23,57.35 C88.6,62.68 84.79,71.45 80.23,71.3 C76.03,71.16 75.88,66.8 63.1,66.38 C49.79,66.38 45.31,79.47 45.1,84.38 C44.98,88.05 45.74,98.61 46.1,103.65 L55.1,108.29 L55.1,108.29 L73.1,111.48 L107.73,109.27 L118.53,110.82 L125.53,110.03 C125.53,110.03 175.84,112.89 123.13,97.82 Z" id="Shape" fill="#ED7524"/><ellipse id="Oval" fill="#B74A00" transform="translate(61.441462, 95.226602) rotate(-88.120000) translate(-61.441462, -95.226602)" cx="61.4414619" cy="95.2266024" rx="13.04" ry="12.3"/><circle id="Oval" fill="#B74A00" transform="translate(180.039609, 100.203817) rotate(-88.120000) translate(-180.039609, -100.203817)" cx="180.039609" cy="100.203817" r="11.09"/><path d="M43.76,82.9 C48,83.04 48.66,105.9 71.26,106.64 C118.84,108.2 133.26,85.18 136.56,85.29 C139.86,85.4 148.99,107.45 175.56,108.29 C175.56,108.29 191.56,110.56 192.35,87.09 C194.63,87.16 196.35,91.9 196.05,100.37 C195.75,108.84 190.74,129.78 178.57,129.37 C166.4,128.96 168.17,124.9 168.17,124.9 C164.934409,124.785442 161.710329,124.45134 158.52,123.9 C154.85,123.13 140.06,119.81 133.29,120.57 C126.52,121.33 92.59,124.67 77.67,122.12 C62.75,119.57 56.57,116.75 56.57,116.75 C56.57,116.75 43.86,119.75 30.5,158.82 C28.19,149.65 28.5,133.45 28.5,133.45 C28.5,133.45 30.29,92.14 43.76,82.9 Z" id="Shape" fill="#FFBF0D"/><path d="M70.3,86.18 C69.7748514,86.0150528 69.2300475,85.9208892 68.68,85.9 C65.1544888,86.2107229 62.415546,89.104037 62.2984021,92.6412754 C62.1812581,96.1785137 64.7227717,99.2467026 68.22,99.79 C70.3252476,99.8390415 72.3206966,98.8525274 73.56,97.15 C73.6342737,96.6462563 73.6810098,96.1388356 73.7,95.63 C73.8345875,92.1583455 72.6155453,88.7701252 70.3,86.18 L70.3,86.18 Z" id="Shape" fill="#7C3006"/><path d="M171.84,92.67 C168.794151,95.9349358 168.005686,100.709092 169.84,104.78 C170.221571,104.922103 170.623178,105.0031 171.03,105.02 C173.71,105.11 175.98,102.41 176.09,99.02 C176.26,95.75 174.37,92.99 171.84,92.67 Z" id="Shape" fill="#7C3006"/><path d="M164.48,79.46 C163,79.46 160.67,75.97 157.12,71.6 C159.42,74.5 158.74,79.67 158.63,80.83 C158.52,81.99 157.17,85.64 160.13,86.06 C163.09,86.48 163.82,81.57 168.38,78.65 L168.38,78.65 C167.15844,79.2128464 165.824661,79.4898621 164.48,79.46 Z" id="Shape" fill="#F2721C"/><path d="M117.45,237.45 C159.15,237.45 178.85,202.68 178.85,185.09 C178.85,175.3 172.45,171.48 172.45,171.48 C172.45,171.48 172.45,203.48 116.32,203.48 C41.57,203.48 30.52,161.42 30.52,161.42 C30.52,161.42 32.92,237.45 117.45,237.45 Z" id="Shape" fill="#D33131"/><path d="M173.91,171.82 C173.74,172.41 173.55,173 173.35,173.58 C172.780558,176.181225 171.95659,178.720119 170.89,181.16 C170.484841,181.938793 169.677864,182.425296 168.8,182.42 C166.918556,185.101981 164.654541,187.49402 162.08,189.52 C161.093142,190.303064 159.70395,190.327652 158.69,189.58 C150.91,196.27 137.54,202.03 114.54,202.03 C41.34,202.03 30.54,158.85 30.54,158.85 C30.54,158.85 32.89,227.91 115.66,227.91 C156.49,227.91 179.66,201.17 179.66,183.12 C179.610691,178.662677 177.48421,174.483679 173.91,171.82 L173.91,171.82 Z" id="Shape" fill="#B72E2E"/><path d="M151.23,19 C151.58,5.09 142.18,3.15 142.59,0.78 C136.35,4.64 143.11,21.67 131.36,21.28 C130.6881,21.2522115 130.019398,21.1719673 129.36,21.04 L129.36,21.04 C138.46,23.28 150.95,27.47 151.23,19 Z" id="Shape" fill="#B72E2E"/><path d="M117.45,217.81 C159.15,217.81 182.78,194.98 182.78,179.56 C182.78,170.98 172.46,167.64 172.46,167.64 C172.46,167.64 172.46,195.71 116.33,195.71 C41.58,195.71 30.53,158.85 30.53,158.85 C30.53,158.85 32.92,217.81 117.45,217.81 Z" id="Shape" fill="#FFBF0D"/><path d="M169.95,166.2 C169.95,166.2 173.22,170.84 170.14,175.37 C167.06,179.9 175.94,176.98 175.94,176.98 L182.46,177.09 C182.46,177.09 179.87,166.65 170.52,162.09 L169.95,166.2 Z" id="Shape" fill="#FFBF0D"/><path d="M56.25,114.19 C61.61,114.37 63.15,118.3 63.08,120.25 C63.01,122.2 59,140.71 51.18,140.45 C46.04,140.28 48.4,134.45 48.56,129.63 C48.72,124.81 48.23,124.11 48.3,122.08 C48.37,120.05 49.37,113.97 56.25,114.19 Z" id="Shape" fill="#FFFFFF"/><path d="M169.58,120.56 C174.07,120.71 176.69,124.24 175.74,129.23 C174.79,134.22 170.25,146.68 164.38,146.49 C160.54,146.36 160.67,144.77 160.7,143.83 C160.73,142.89 162.87,139.55 163.16,130.83 C163.34,125.4 161.34,124.45 161.34,124.45 C163.274533,121.870668 166.3591,120.414482 169.58,120.56 Z" id="Shape" fill="#FFFFFF"/><path d="M148.47,198.92 C152.9,199.73 156.23,196.82 156.35,191.73 C156.47,186.64 154.67,173.45 148.88,172.39 C145.09,171.7 144.88,173.28 144.7,174.21 C144.52,175.14 145.92,178.87 144.34,187.52 C143.34,192.88 141.2,193.39 141.2,193.39 C142.560809,196.32128 145.281832,198.391053 148.47,198.92 Z" id="Shape" fill="#FFFFFF"/><path d="M74.72,200.02 C79.99,201.12 82.42,197.66 82.82,195.73 C83.22,193.8 83.7,174.82 76.01,173.21 C70.96,172.15 71.89,178.36 70.89,183.13 C69.89,187.9 69.26,188.43 68.89,190.43 C68.52,192.43 67.96,198.61 74.72,200.02 Z" id="Shape" fill="#FFFFFF"/><circle id="Oval" fill="#FFFFFF" cx="60.54" cy="57.62" r="3.9"/><circle id="Oval" fill="#FFFFFF" cx="152.28" cy="57.18" r="3.3"/></g></g></g></g></svg>