<?xml version="1.0" encoding="UTF-8" standalone="no"?><svg width="207px" height="217px" viewBox="0 0 207 217" version="1.1" xmlns="http://www.w3.org/2000/svg" xmlns:xlink="http://www.w3.org/1999/xlink" xmlns:sketch="http://www.bohemiancoding.com/sketch/ns"><title>duo-left-facing</title><description>Created with Sketch (http://www.bohemiancoding.com/sketch)</description><defs/><g id="Page-1" stroke="none" stroke-width="1" fill="none" fill-rule="evenodd" sketch:type="MSPage"><g id="duo-left-facing" sketch:type="MSArtboardGroup" transform="translate(-34.000000, -16.000000)"><g id="Rectangle-657-+-Imported-Layers-copy-2" sketch:type="MSLayerGroup" transform="translate(137.500000, 124.500000) scale(-1, 1) translate(-137.500000, -124.500000) translate(34.000000, 16.000000)"><g id="Imported-Layers" sketch:type="MSShapeGroup"><path d="M179.954,207.243 C179.986,212.006 140.136,216.141 90.944,216.479 C41.753,216.817 1.849,213.229 1.816,208.466 C1.783,203.703 41.634,199.567 90.826,199.23 C140.017,198.892 179.921,202.48 179.954,207.243" id="Fill-1" fill="#D6D6D6"/><path d="M114.951,190.501 C121.567,190.815 120.991,197.97 120.965,198.521 C120.939,199.073 120.925,206.018 109.348,205.47 C102.023,205.122 102.572,201.873 102.649,200.258 C102.725,198.644 106.564,190.103 114.951,190.501" id="Fill-2" fill="#D98500"/><path d="M45.807,0.102 C61.975,-0.335 76.847,26.833 110.831,25.915 C135.476,25.249 137.924,14.108 149.619,13.793 C157.389,13.583 158.11,28.644 158.171,30.92 C158.544,44.733 155.417,65.632 155.65,74.265 C155.845,81.486 163.76,80.801 164.466,80.782 C186.364,80.191 196.586,74.809 201.923,74.665 C207.26,74.521 206.46,79.805 206.475,80.354 C206.49,80.904 207.287,122.039 144.671,147.607 C139.012,150.352 134.2,199.022 87.893,200.273 C52.731,201.222 43.703,169.42 40.407,169.509 C37.111,169.598 33.848,182.568 11.95,183.159 C-0.451,183.494 0.05,175.862 0.016,174.606 C-0.573,152.787 30.074,86.454 29.661,71.149 C29.381,60.789 24.302,0.683 45.807,0.102" id="Fill-3" fill="#78C800"/><path d="M199.387,104.009 C180.604,128.974 153.033,133.898 149.644,133.99 C146.086,134.086 147.857,129.849 145.869,129.903 C142.415,129.996 142.607,175.86 95.724,177.126 C49.47,178.376 54.79,138.855 54.728,136.553 C54.666,134.251 54.338,133.736 53.71,133.753 C53.082,133.77 51.631,134.333 51.71,137.263 C52.434,164.053 23.46,180.858 11.53,181.18 C6.204,181.324 2.89,180.077 0.848,178.654 C2.031,180.974 4.913,183.349 11.95,183.159 C33.848,182.568 37.111,169.598 40.407,169.509 C43.703,169.42 52.731,201.222 87.893,200.273 C134.2,199.022 139.012,150.352 144.671,147.607 C176.435,134.637 191.88,117.661 199.387,104.009" id="Fill-4" fill="#71B200"/><path d="M65.113,194.213 C72.376,194.686 77.375,196.835 76.95,203.355 C76.525,209.875 67.531,210.533 62.827,210.226 C58.123,209.92 53.079,207.188 53.386,202.483 C53.692,197.779 58.552,193.786 65.113,194.213" id="Fill-5" fill="#D98500"/><path d="M140.831,34.005 C137.134,34.105 136.291,36.038 134.947,34.88 C134.335,34.3 137.458,32.843 137.442,32.247 C137.434,31.949 136.958,32.022 136.303,32.039 C132.427,32.144 124.947,38.015 123.874,38.044 C123.397,38.057 122.625,38.197 122.606,37.481 C122.562,35.871 127.951,34.353 124.195,34.455 C120.438,34.556 115.023,39.536 109.239,39.692 C97.314,40.014 87.461,30.912 87.524,33.237 C87.546,34.072 88.953,35.347 89.893,36.992 C89.893,36.992 90.497,39.482 89.457,38.555 C78.22,27.909 67.207,25.551 67.207,25.551 C67.207,25.551 66.372,25.574 66.382,25.932 C66.415,27.184 68.846,28.789 68.859,29.266 C68.871,29.743 68.581,30.049 68.104,30.062 C65.779,30.125 63.988,25.698 54.627,25.951 C40.495,26.332 37.203,48.679 37.696,66.925 C38.395,92.803 55.27,100.576 69.044,100.204 C79.968,99.909 91.489,93.154 96.129,83.566 L110.696,84.281 C110.696,84.281 118.188,97.595 131.008,97.249 C143.038,96.924 153.297,89.029 152.584,62.629 C151.835,34.902 144.528,33.906 140.831,34.005" id="Fill-6" fill="#8EE000"/><path d="M85.266,66.726 C85.603,79.217 77.548,89.567 67.275,89.845 C57.001,90.122 48.4,80.221 48.062,67.73 C47.725,55.239 55.78,44.889 66.053,44.611 C76.327,44.334 84.928,54.235 85.266,66.726" id="Fill-7" fill="#FFFFFF"/><path d="M144.926,68.452 C144.639,79.273 137.564,87.999 129.124,87.943 C120.683,87.887 114.074,79.069 114.361,68.249 C114.648,57.429 121.723,48.702 130.164,48.758 C138.604,48.814 145.213,57.632 144.926,68.452" id="Fill-8" fill="#FFFFFF"/><path d="M76.5,66.962 C76.685,73.824 72.26,79.51 66.617,79.662 C60.973,79.815 56.248,74.376 56.063,67.514 C55.877,60.653 60.302,54.967 65.946,54.814 C71.589,54.662 76.314,60.101 76.5,66.962" id="Fill-9" fill="#3F3F3F"/><path d="M77.231,62.406 C77.308,65.262 75.228,67.635 72.585,67.707 C69.942,67.778 67.736,65.521 67.659,62.665 C67.582,59.809 69.662,57.436 72.305,57.364 C74.949,57.293 77.154,59.55 77.231,62.406" id="Fill-10" fill="#FFFFFF"/><path d="M138.035,68.635 C137.748,75 133.637,80.078 128.853,79.979 C124.07,79.879 120.425,74.639 120.713,68.275 C121,61.91 125.111,56.832 129.895,56.931 C134.678,57.031 138.323,62.271 138.035,68.635" id="Fill-11" fill="#3F3F3F"/><path d="M91.531,87.953 C91.531,87.953 88.172,117.804 97.93,117.532 C107.688,117.259 107.174,102.969 107.112,102.798 C107.05,102.628 91.531,87.953 91.531,87.953" id="Fill-12" fill="#71B200"/><path d="M139.861,62.508 C140.013,65.096 138.265,67.302 135.958,67.435 C133.651,67.569 131.657,65.579 131.505,62.992 C131.353,60.404 133.1,58.198 135.408,58.064 C137.715,57.931 139.709,59.921 139.861,62.508" id="Fill-13" fill="#FFFFFF"/><path d="M91.397,89.979 C91.397,89.979 90.999,92.236 90.999,94.545 C90.999,96.854 90.813,111.348 99.892,111.348 C106.607,111.348 107.324,103.358 107.324,103.358 C107.324,103.358 106.076,96.509 106.023,96.589 C105.97,96.669 102.36,89.794 102.36,89.794 C102.36,89.794 94.875,88.334 94.954,88.36 C95.034,88.387 91.397,89.979 91.397,89.979" id="Fill-15" fill="#F49000"/><path d="M93.043,94.89 C93.191,96.742 95.512,107.154 102.227,107.154 C106.236,107.154 106.076,102.641 106.076,102.641 C106.076,99.88 105.094,97.067 105.094,97.067 C105.094,97.067 102.625,93.589 102.546,93.536 C102.466,93.483 97.104,91.227 97.104,91.227 L93.017,90.218 L92.273,91.041 L92.379,91.625 C92.379,91.625 92.857,92.572 93.043,94.89" id="Fill-16" fill="#935400"/><path d="M102.997,79.034 C109.191,79.034 117.083,86.856 117.083,96.2 C117.083,104.375 113.863,106.463 113.19,106.463 C109.757,106.463 91.176,96.306 91.176,89.369 C91.176,83.423 97.936,79.034 102.997,79.034" id="Fill-17" fill="#FFC200"/><path d="M108.667,83.641 C108.596,84.928 106.625,85.866 104.265,85.735 C101.905,85.605 100.05,84.456 100.121,83.169 C100.192,81.882 102.163,80.944 104.523,81.075 C106.883,81.205 108.739,82.354 108.667,83.641" id="Fill-18" fill="#FFF3B8"/></g></g></g></g></svg>