<?xml version="1.0" encoding="UTF-8"?><svg width="16px" height="16px" viewBox="0 0 16 16" version="1.1" xmlns="http://www.w3.org/2000/svg" xmlns:xlink="http://www.w3.org/1999/xlink"><title>Fill 1</title><desc>Created with Sketch.</desc><defs/><g id="approved" stroke="none" stroke-width="1" fill="none" fill-rule="evenodd"><g id="test-b---4-copy-11" transform="translate(-30.000000, -386.000000)" fill="#FEFEFE"><path d="M45.1169563,386 L30.8830474,386 C30.3953031,386 30,386.395303 30,386.883047 L30,401.116956 C30,401.604641 30.3953031,402.000064 30.8830474,402.000064 L38.5461364,402.000064 L38.5461364,395.803984 L36.4609935,395.803984 L36.4609935,393.389242 L38.5461364,393.389242 L38.5461364,391.60846 C38.5461364,389.541901 39.8083007,388.4166 41.6518495,388.4166 C42.5349569,388.4166 43.2939101,388.482304 43.5150616,388.511679 L43.5150616,390.671399 L42.2364713,390.671998 C41.2338857,390.671998 41.0397112,391.148412 41.0397112,391.847536 L41.0397112,393.389242 L43.4308933,393.389242 L43.1195786,395.803984 L41.0397112,395.803984 L41.0397112,402.000064 L45.1169563,402.000064 C45.6046407,402.000064 46.0000037,401.604641 46.0000037,401.116956 L46.0000037,386.883047 C46.0000037,386.395303 45.6046407,386 45.1169563,386" id="Fill-1"/></g></g></svg>