<?xml version="1.0" encoding="UTF-8" standalone="no"?><svg width="12px" height="22px" viewBox="0 0 12 22" version="1.1" xmlns="http://www.w3.org/2000/svg" xmlns:xlink="http://www.w3.org/1999/xlink"><title>facebook-icon</title><desc>Created with Sketch.</desc><defs/><g id="Page-1" stroke="none" stroke-width="1" fill="none" fill-rule="evenodd"><g id="3-copy-4" transform="translate(-204.000000, -586.000000)" fill="#FFFFFF"><path d="M211.893397,593.094053 L215.863267,593.094053 L215.399858,596.825 L211.893397,596.825 L211.893397,607.65 L206.625983,607.65 L206.625983,596.825 L204,596.825 L204,593.094053 L206.625983,593.094053 L206.625983,590.847603 C206.625983,589.253631 207.068796,588.047204 207.954422,587.228322 C208.840048,586.409441 210.297211,586 212.325912,586 L215.832373,586 L215.832373,589.730947 L213.638904,589.730947 C213.237283,589.730947 212.915471,589.75941 212.673469,589.816338 C212.431467,589.873266 212.256401,589.976173 212.148272,590.125061 C212.040144,590.273948 211.970632,590.425025 211.939738,590.578292 C211.908844,590.731558 211.893397,590.948321 211.893397,591.22858 L211.893397,593.094053 L211.893397,593.094053 Z" id="facebook-icon"/></g></g></svg>