<?xml version="1.0" encoding="UTF-8"?><svg width="92px" height="68px" viewBox="0 0 92 68" version="1.1" xmlns="http://www.w3.org/2000/svg" xmlns:xlink="http://www.w3.org/1999/xlink"><title>fire-r</title><desc>Created with Sketch.</desc><defs/><g id="Page-1" stroke="none" stroke-width="1" fill="none" fill-rule="evenodd"><g id="fire-r"><path d="M79.3050711,68 C75.96363,63.1715164 74,57.2752103 74,50.9096308 C74,43.1103639 76.9749193,36.0407522 81.7926593,30.7521886 C83.683236,34.3947191 87.4306793,36.8968043 91.7259122,36.8968043 C91.8175264,36.8968043 91.9088932,36.8956685 92,36.8934099 L92,68 L79.3050711,68 L79.3050711,68 Z" id="Combined-Shape" fill="#FFAF2B"/><path d="M92,27.6520311 C86.0252922,26.1171244 81.6065574,20.6530492 81.6065574,14.1478196 C81.6065574,7.64258998 86.0252922,2.1785148 92,0.643608011 L92,27.6520311 L92,27.6520311 Z" id="Combined-Shape" fill="#FFAF2B"/><path d="M79.4379654,68 C78.3116129,61.5787977 75.3069187,55.8304141 71.0374714,51.3652351 L70.8783169,51.1862135 C70.8663053,51.1707806 48.9630488,28.6634429 48.9630488,28.6634429 L48.9630488,46.2631192 C48.9630488,53.0535941 43.5578031,58.6125238 36.9483889,58.6125238 C32.356933,58.6125238 28.3510454,55.9241131 26.3300841,52.0103303 C22.3699306,56.3798753 19.5745914,61.8809844 18.4943201,68 L79.4379654,68 L79.4379654,68 Z" id="Combined-Shape" fill="#FF940E"/><path d="M40.8963247,19.1973713 C32.7417425,19.1973713 26.1311475,25.9006063 26.1311475,34.1694657 C26.1311475,42.4383251 32.7417425,49.1415601 40.8963247,49.1415601 L40.8963247,19.1973713 Z" id="Oval-6" fill="#FFAF2B"/><path d="M65.12,5 C59.6413353,5 55.2,9.50357555 55.2,15.0590175 C55.2,20.6144595 59.6413353,25.1180351 65.12,25.1180351 L65.12,5 Z" id="Oval-6" fill="#FFD15B"/><path d="M14.8963247,68 L14.8963247,54.1973713 C7.12985663,54.1973713 0.763902315,60.2777152 0.175525165,68 L14.8963247,68 L14.8963247,68 Z" id="Combined-Shape" fill="#FFAF2B"/><path d="M36.12,40 C30.6413353,40 26.2,44.5035756 26.2,50.0590175 C26.2,55.6144595 30.6413353,60.1180351 36.12,60.1180351 L36.12,40 Z" id="Oval-6" fill="#FFD15B"/></g></g></svg>