<?xml version="1.0" encoding="UTF-8"?><svg width="25px" height="25px" viewBox="0 0 25 25" version="1.1" xmlns="http://www.w3.org/2000/svg" xmlns:xlink="http://www.w3.org/1999/xlink"><title>flag_circle_es</title><desc>Created with Sketch.</desc><defs><circle id="path-1" cx="12.5" cy="12.5" r="12.5"/></defs><g id="Page-1" stroke="none" stroke-width="1" fill="none" fill-rule="evenodd"><g id="flag_circle_es"><g id="Fill-1"><mask id="mask-2" fill="white"><use xlink:href="#path-1"/></mask><use id="Mask" fill="#FFC200" xlink:href="#path-1"/><g id="Group" mask="url(#mask-2)" fill-rule="nonzero" fill="#7A221E"><g transform="translate(8.000000, 8.000000)"><path d="M4.48548147,7.7794568 C3.61367897,7.7794568 2.88632097,7.5303704 2.49824687,7.1387654 L2.49824687,7.3900988 C2.49824687,7.567284 2.35476547,7.7110864 2.17725927,7.7110864 L0.93535802,7.7110864 C0.75817284,7.7110864 0.61437037,7.567284 0.61437037,7.3900988 L0.61437037,6.8229136 C0.61437037,6.6938765 0.69044444,6.5824938 0.80022222,6.5317778 L0.80022222,4.7772593 L0.64197531,4.7772593 C0.46446913,4.7772593 0.32098765,4.6334568 0.32098765,4.4562716 L0.32098765,4.0062469 C0.32098765,3.8290617 0.46446913,3.6852593 0.64197531,3.6852593 L0.80022222,3.6852593 L0.80022222,2.8327161 C0.80022222,2.7900247 0.8085679,2.7492593 0.82365432,2.7123457 C0.79508642,2.6337037 0.78064197,2.5595556 0.78064197,2.4905432 C0.78064197,2.0129136 1.32664197,2.0129136 1.53207407,2.0129136 C2.22861727,2.0129136 2.29955557,2.3948889 2.30276547,2.5287407 C2.35861727,2.4815556 2.43083947,2.4529877 2.51012347,2.4529877 L6.46116047,2.4529877 C6.53113577,2.4529877 6.59629627,2.4754568 6.64893827,2.5139753 C6.64861727,2.5059506 6.64861727,2.4982469 6.64861727,2.4905432 C6.64861727,2.0129136 7.19429627,2.0129136 7.39972837,2.0129136 C8.11488887,2.0129136 8.17074077,2.4157531 8.17074077,2.5393333 C8.17074077,2.6067407 8.15886417,2.6661235 8.13992597,2.7184444 C8.15372837,2.7540741 8.16111107,2.7925926 8.16111107,2.8327161 L8.16111107,3.6852593 L8.23108637,3.6852593 C8.40827157,3.6852593 8.55207407,3.8290617 8.55207407,4.0062469 L8.55207407,4.4562716 C8.55207407,4.6334568 8.40827157,4.7772593 8.23108637,4.7772593 L8.16111107,4.7772593 L8.16111107,6.5176543 C8.27602467,6.5664444 8.35659257,6.6803951 8.35659257,6.813284 L8.35659257,7.3900988 C8.35659257,7.567284 8.21279017,7.7110864 8.03560497,7.7110864 L6.79338267,7.7110864 C6.61619757,7.7110864 6.47239507,7.567284 6.47239507,7.3900988 L6.47239507,7.1387654 C6.08432097,7.5303704 5.35728397,7.7794568 4.48548147,7.7794568" id="Fill-4"/><path d="M7.39972837,2.3339012 C7.59553087,2.3339012 7.84975307,2.3730617 7.84975307,2.5393333 C7.84975307,2.6821728 7.71172837,2.7534321 7.67128397,2.8327161 L7.83980247,2.8327161 L7.83980247,4.0062469 L8.23108637,4.0062469 L8.23108637,4.4562716 L7.83980247,4.4562716 L7.83980247,6.813284 L8.03560497,6.813284 L8.03560497,7.3900988 L6.79338267,7.3900988 L6.79338267,6.813284 L6.98918517,6.813284 L6.98918517,4.4562716 L6.46083947,4.4562716 L6.46083947,6.500321 L6.45313577,6.500321 C6.41172837,7.0325185 5.54987657,7.4587901 4.48548147,7.4587901 C3.42108637,7.4587901 2.55923457,7.0325185 2.51782717,6.500321 L2.50980247,6.500321 L2.50980247,4.4562716 L1.97214817,4.4562716 L1.97214817,6.8229136 L2.17725927,6.8229136 L2.17725927,7.3900988 L0.93535802,7.3900988 L0.93535802,6.8229136 L1.12120987,6.8229136 L1.12120987,4.4562716 L0.64197531,4.4562716 L0.64197531,4.0062469 L1.12120987,4.0062469 L1.12120987,2.8327161 L1.25185185,2.8327161 C1.19824691,2.756321 1.10162963,2.6038519 1.10162963,2.4905432 C1.10162963,2.3339012 1.3362716,2.3339012 1.53207407,2.3339012 C1.72755557,2.3339012 1.98177777,2.3730617 1.98177777,2.5393333 C1.98177777,2.6821728 1.84375307,2.7534321 1.80330867,2.8327161 L1.97214817,2.8327161 L1.97214817,4.0062469 L2.50980247,4.0062469 L2.50980247,2.7739753 L6.46083947,2.7739753 L6.46083947,4.0062469 L6.98918517,4.0062469 L6.98918517,2.8327161 L7.11982717,2.8327161 C7.06622227,2.756321 6.96960497,2.6038519 6.96960497,2.4905432 C6.96960497,2.3339012 7.20424687,2.3339012 7.39972837,2.3339012 M7.39972837,1.6919259 C6.79434567,1.6919259 6.52311107,1.9028148 6.40755557,2.132 L2.51172837,2.132 C2.36407407,1.8874074 2.05945677,1.6919259 1.53207407,1.6919259 C0.59896296,1.6919259 0.45965432,2.1923457 0.45965432,2.4905432 C0.45965432,2.5653333 0.46960494,2.6410864 0.48918518,2.7184444 C0.48276543,2.755679 0.47923457,2.7938765 0.47923457,2.8327161 L0.47923457,3.3851358 C0.20350617,3.457358 0,3.7080494 0,4.0062469 L0,4.4562716 C0,4.7544691 0.20350617,5.0054815 0.47923457,5.0773827 L0.47923457,6.371284 C0.36432099,6.4871605 0.29338271,6.6466914 0.29338271,6.8229136 L0.29338271,7.3900988 C0.29338271,7.7447901 0.58066667,8.0320741 0.93535802,8.0320741 L2.17725927,8.0320741 C2.41832097,8.0320741 2.62856787,7.8991852 2.73834567,7.7027407 C3.19414817,7.9534321 3.80113577,8.1007654 4.48548147,8.1007654 C5.16982717,8.1007654 5.77681477,7.9534321 6.23261727,7.7027407 C6.34239507,7.8991852 6.55232097,8.0320741 6.79338267,8.0320741 L8.03560497,8.0320741 C8.38997527,8.0320741 8.67758027,7.7447901 8.67758027,7.3900988 L8.67758027,6.813284 C8.67758027,6.6322469 8.60246917,6.4685432 8.48209877,6.3517037 L8.48209877,5.0472099 C8.71192597,4.9496296 8.87306177,4.7217284 8.87306177,4.4562716 L8.87306177,4.0062469 C8.87306177,3.7407901 8.71192597,3.5128889 8.48209877,3.4153086 L8.48209877,2.8327161 C8.48209877,2.7945185 8.47856787,2.757284 8.47214817,2.7210124 C8.48434567,2.6648395 8.49172837,2.6044938 8.49172837,2.5393333 C8.49172837,2.1483704 8.20572837,1.6919259 7.39972837,1.6919259" id="Fill-5"/><path d="M4.46590127,2.9778025 C3.57516047,2.9778025 3.02306177,2.9604691 2.89980247,2.6436543 L2.13585187,1.8071605 C2.08192597,1.7480988 2.05207407,1.6707407 2.05207407,1.5908148 C2.05207407,0.80760494 2.96560497,0.32098766 4.43669137,0.32098766 C5.22311107,0.32098766 6.86014817,0.32098766 6.86014817,1.6200247 C6.86014817,2.0825679 6.44928397,2.2995556 6.20340737,2.4289136 C6.15012347,2.4571605 6.07501237,2.496642 6.03360497,2.5255309 C5.96651847,2.9778025 5.26837037,2.9778025 4.46590127,2.9778025" id="Fill-6"/><path d="M4.43669137,0.64197531 C5.68854317,0.64197531 6.53916047,0.81787655 6.53916047,1.6200247 C6.53916047,2.0992593 5.71775307,2.158 5.71775307,2.4513827 C5.71775307,2.6568148 5.01350617,2.6568148 4.46590127,2.6568148 C3.91829627,2.6568148 3.19446917,2.6468642 3.19446917,2.4905432 L2.37306177,1.5908148 C2.37306177,1.02330865 3.18483947,0.64197531 4.43669137,0.64197531 M4.43669137,0 C2.44175307,0 1.73108637,0.8217284 1.73108637,1.5908148 C1.73108637,1.7509877 1.79079017,1.9053827 1.89896297,2.0235062 L2.61476547,2.807358 C2.83817287,3.2987901 3.63261727,3.2987901 4.46590127,3.2987901 C5.24140737,3.2987901 6.10711107,3.2987901 6.31350617,2.7338519 C6.32762967,2.7264691 6.34143207,2.7194074 6.35330867,2.7129877 C6.62197527,2.5711111 7.18113577,2.2758025 7.18113577,1.6200247 C7.18113577,0 5.18716047,0 4.43669137,0" id="Fill-7"/></g></g><polygon id="Fill-2" fill="#D33131" fill-rule="nonzero" mask="url(#mask-2)" points="0 18 25.6732345 18 25.6732345 25.5414815 0 25.5414815"/><polygon id="Fill-2" fill="#D33131" fill-rule="nonzero" mask="url(#mask-2)" points="0 -1 26 -1 26 7 0 7"/></g></g></g></svg>