<?xml version="1.0" encoding="UTF-8"?><svg width="25px" height="25px" viewBox="0 0 25 25" version="1.1" xmlns="http://www.w3.org/2000/svg" xmlns:xlink="http://www.w3.org/1999/xlink"><title>flag_circle_eo</title><desc>Created with Sketch.</desc><defs><circle id="path-1" cx="12.5" cy="12.5" r="12.5"/></defs><g id="Page-1" stroke="none" stroke-width="1" fill="none" fill-rule="evenodd"><g id="flag_circle_en" transform="translate(18.000000, 5.000000)"><g id="Mask-8"><circle id="path-1" cx="12.75" cy="12.5" r="12.5"/></g></g><g id="flag_circle_eo"><g id="Fill-1"><mask id="mask-2" fill="white"><use xlink:href="#path-1"/></mask><use id="Mask" fill="#7AC70C" xlink:href="#path-1"/><polygon id="Fill-2" fill="#FFFFFF" fill-rule="nonzero" mask="url(#mask-2)" points="0 0 13 0 13 13 0 13"/><path d="M11,5.8 L11,5.8 L8.2,5.8 L7.4,3.2 C7.3,3.1 7.3,3 7.2,3 C7.1,3 7,3.1 6.9,3.2 L6.1,5.8 L3.3,5.8 C3.2,5.8 3.1,5.9 3,6 C3,6.1 3,6.2 3.1,6.3 L5.4,7.9 L4.5,10.6 C4.5,10.7 4.5,10.8 4.6,10.9 L4.7,10.9 L4.8,10.9 L7.1,9.3 L9.4,10.9 L9.5,10.9 L9.6,10.9 C9.7,10.8 9.7,10.7 9.7,10.6 L8.9,7.9 L11.2,6.3 C11.3,6.3 11.3,6.2 11.3,6.1 C11.3,5.9 11.2,5.8 11,5.8 Z" id="Shape" fill="#7AC70C" fill-rule="nonzero" mask="url(#mask-2)"/></g></g></g></svg>