<svg id="Layer_1" data-name="Layer 1" xmlns="http://www.w3.org/2000/svg" xmlns:xlink="http://www.w3.org/1999/xlink" x="0px" y="0px" width="25px" height="25px" viewBox="0 0 24.96 24.96"><defs><style>.cls-1, .cls-6{fill:none;} .cls-2{clip-path:url(#clip-path);} .cls-3{fill:#7ac70c;} .cls-4{fill:#ff9100;} .cls-5{fill:#ffffff;} .cls-6{stroke:#1cb0f6;stroke-miterlimit:10;stroke-width:1.92px;} .cls-7{fill:#1cb0f6;}</style><clipPath id="clip-path" transform="translate(-17.26 -317.79)"><circle class="cls-1" cx="29.72" cy="330.27" r="12.5"/></clipPath></defs><g class="cls-2"><rect class="cls-3" y="16.69" width="24.96" height="8.28"/><rect class="cls-4" width="24.96" height="8.3"/><rect class="cls-5" y="8.3" width="24.96" height="8.39"/><circle class="cls-6" cx="12.69" cy="12.88" r="2.51"/><path class="cls-7" d="M29.92,328.41L30,329.8l0.56-1.28-0.3,1.36,0.92-1L30.52,330l1.2-.7-1,.92L32,330l-1.28.55,1.38,0.13-1.38.13L32,331.33l-1.36-.3,1,0.92-1.2-.71,0.71,1.2-0.92-1,0.3,1.36L30,331.48l-0.13,1.39-0.13-1.39-0.56,1.28,0.3-1.36-0.92,1,0.71-1.2-1.2.71,1-.92-1.36.3,1.28-.56-1.38-.13,1.38-.13L27.8,330l1.36,0.3-1-.92,1.2,0.7-0.71-1.2,0.92,1-0.3-1.36,0.56,1.28Z" transform="translate(-17.26 -317.79)"/></g></svg>