<?xml version="1.0" encoding="utf-8"?><svg version="1.1" id="Layer_1" xmlns="http://www.w3.org/2000/svg" xmlns:xlink="http://www.w3.org/1999/xlink" x="0px" y="0px" width="25px" height="25px" viewBox="0 0 25 25" style="enable-background:new 0 0 25 25;" xml:space="preserve"><style type="text/css">.st0{fill:#D33131;} .st1{fill:#FFC200;}</style><g><path class="st0" d="M4.7,22.2h15.7c1-0.8,1.8-1.7,2.5-2.8H2.1C2.8,20.5,3.7,21.4,4.7,22.2z"/><path class="st0" d="M0.1,11.1h24.8c-0.1-1-0.3-1.9-0.6-2.8H0.7C0.4,9.2,0.2,10.1,0.1,11.1z"/><path class="st0" d="M0.7,16.7h23.5c0.3-0.9,0.5-1.8,0.6-2.8H0.1C0.2,14.9,0.4,15.8,0.7,16.7z"/><path class="st0" d="M2.1,5.6h20.8c-0.7-1.1-1.6-2-2.5-2.8H4.7C3.7,3.6,2.8,4.5,2.1,5.6z"/><path class="st1" d="M20.4,2.8C18.2,1,15.5,0,12.5,0S6.8,1,4.7,2.8H20.4z"/><path class="st1" d="M0.7,8.3h23.5c-0.3-1-0.8-1.9-1.4-2.8H2.1C1.5,6.4,1.1,7.3,0.7,8.3z"/><path class="st1" d="M0,12.5c0,0.5,0,0.9,0.1,1.4h24.8c0-0.4,0.1-0.8,0.1-1.3v-0.3c0-0.4,0-0.8-0.1-1.3H0.1C0,11.6,0,12,0,12.5z"/><path class="st1" d="M2.1,19.4h20.8c0.6-0.9,1-1.8,1.4-2.8H0.7C1.1,17.7,1.5,18.6,2.1,19.4z"/><path class="st1" d="M12.1,25c0.1,0,0.3,0,0.4,0s0.3,0,0.4,0H12.1z"/><path class="st1" d="M12.1,25h0.8c2.8-0.1,5.4-1.1,7.5-2.8H4.7C6.7,23.9,9.3,24.9,12.1,25z"/></g></svg>