<?xml version="1.0" encoding="utf-8"?><svg version="1.1" id="Layer_1" xmlns="http://www.w3.org/2000/svg" xmlns:xlink="http://www.w3.org/1999/xlink" x="0px" y="0px" width="25px" height="25px" viewBox="0 0 25 25" style="enable-background:new 0 0 25 25;" xml:space="preserve"><style type="text/css">.st1{fill:#D33131;} .st2{fill:#FFFFFF;} .st3{fill:#1CB0F6;}</style><path class="st1" d="M12.5,25c5.4,0,10-3.4,11.7-8.2H0.8C2.5,21.6,7.1,25,12.5,25z"/><path class="st2" d="M12.5,0C7.1,0,2.5,3.4,0.8,8.2h23.5C22.5,3.4,17.9,0,12.5,0z"/><path class="st3" d="M0,12.5c0,1.5,0.3,2.9,0.8,4.3h23.5c0.5-1.3,0.8-2.8,0.8-4.3s-0.3-2.9-0.8-4.3H0.8C0.3,9.6,0,11,0,12.5z"/></svg>