<?xml version="1.0" encoding="UTF-8"?><svg width="25px" height="25px" viewBox="0 0 25 25" version="1.1" xmlns="http://www.w3.org/2000/svg" xmlns:xlink="http://www.w3.org/1999/xlink"><title>flag_circle_nb</title><desc>Created with Sketch.</desc><defs><circle id="path-1" cx="12.5" cy="12.5" r="12.5"/></defs><g id="Page-1" stroke="none" stroke-width="1" fill="none" fill-rule="evenodd"><g id="flag_circle_nb"><g id="Fill-1"><mask id="mask-2" fill="white"><use xlink:href="#path-1"/></mask><use id="Mask" fill="#D33131" xlink:href="#path-1"/></g><path d="M13.8,0.1 C13.4,0 12.9,0 12.5,0 C9.5,0 6.8,1 4.7,2.7 L4.7,8 L0.8,8 C0.3,9.4 0,10.9 0,12.5 C0,14.2 0.3,15.7 0.9,17.2 L4.7,17.2 L4.7,22.3 C6.8,24 9.5,25 12.5,25 C12.9,25 13.4,25 13.8,24.9 L13.8,17.2 L24.1,17.2 C24.7,15.7 25,14.2 25,12.5 C25,10.9 24.7,9.4 24.2,8 L13.8,8 L13.8,0.1 Z" id="Shape" fill="#FFFFFF" fill-rule="nonzero"/><path d="M11.5,0.1 C9.9,0.2 8.4,0.7 7,1.3 L7,10.3 L0.2,10.3 C0.1,11 0,11.7 0,12.5 C0,13.3 0.1,14.1 0.2,14.8 L7,14.8 L7,23.7 C8.4,24.4 9.9,24.8 11.5,24.9 L11.5,14.8 L24.8,14.8 C24.9,14.1 25,13.3 25,12.5 C25,11.7 24.9,11 24.8,10.3 L11.5,10.3 L11.5,0.1 Z" id="Shape" fill="#1CB0F6" fill-rule="nonzero"/></g></g></svg>