<?xml version="1.0" encoding="utf-8"?><svg version="1.1" id="Layer_1" xmlns="http://www.w3.org/2000/svg" xmlns:xlink="http://www.w3.org/1999/xlink" x="0px" y="0px" width="25px" height="25px" viewBox="0 0 25 25" style="enable-background:new 0 0 25 25;" xml:space="preserve"><style type="text/css">.st0{fill:#7AC70C;} .st1{fill:#FFFFFF;} .st2{fill:#D33131;}</style><g><g><g><path class="st0" d="M12.5,25C19.4,25,25,19.4,25,12.5H0C0,19.4,5.6,25,12.5,25z"/></g><path class="st1" d="M12.5,0C5.6,0,0,5.6,0,12.5h25C25,5.6,19.4,0,12.5,0z"/></g><path class="st2" d="M22.2,9.7l-0.9-1.5c-0.1-0.1-0.3-0.1-0.3,0l-0.9,1.5c-0.1,0.1,0,0.3,0.2,0.3h0.3c0,0,0,0.1,0,0.1 c0,0.9-0.7,1.6-1.6,1.7v0h-1.9h-1.1h-0.9L19,8c-1.7-1.7-4.4-1.7-6,0l-2.6,2.6V7.2h0.4c0.6,0,1.2-0.5,1.2-1.2H9H7.5H7 C6.5,6,6.1,6.3,6,6.8h0H4.3c-0.5,0-0.9,0.4-0.9,0.9h1.4c0,0.1,0,0.2,0,0.3c0,0.6,0.5,1.2,1.2,1.2h0.7v4.4l-2.1-0.9v-0.7 c0-0.2-0.2-0.4-0.4-0.4h0c-0.2,0-0.4,0.2-0.4,0.4v2.8c0,0.2,0.2,0.4,0.4,0.4h0c0.2,0,0.4-0.2,0.4-0.4v-0.1L8,16c0,0,0.1,0,0.1,0 l0.3,0.1l-0.6,1.4H7.1c-0.2,0-0.4,0.2-0.4,0.4v0c0,0.2,0.2,0.4,0.4,0.4h2.8c0.2,0,0.4-0.2,0.4-0.4v0c0-0.2-0.2-0.4-0.4-0.4H9.8 l0.6-1.4h3.9l0.2,0.2l-1.2,1.2h-0.9c-0.3,0-0.5,0.2-0.5,0.5c0,0.3,0.2,0.5,0.5,0.5h3.3c0.3,0,0.5-0.2,0.5-0.5 c0-0.2-0.1-0.4-0.3-0.4l0.6-0.6c0.2-0.2,0.3-0.4,0.3-0.7c0-0.1,0-0.1,0-0.2h0.5c0.6,0,1.2-0.3,1.6-0.7l0.6,0.8c0,0,0,0,0.1,0.1v1.3 h-0.9c-0.2,0-0.4,0.2-0.4,0.4v0c0,0.2,0.2,0.4,0.4,0.4h1.8h0h0.9c0.2,0,0.4-0.2,0.4-0.4v0c0-0.2-0.2-0.4-0.4-0.4h0v-1.9 c0-0.1,0-0.2-0.1-0.3c0-0.1-0.1-0.3-0.2-0.4l-1.4-1.8V13c1.3-0.3,2.3-1.4,2.3-2.8c0,0,0-0.1,0-0.1h0.3C22.2,10,22.3,9.9,22.2,9.7z"/></g></svg>