<svg id="Layer_1" data-name="Layer 1" xmlns="http://www.w3.org/2000/svg" xmlns:xlink="http://www.w3.org/1999/xlink" x="0px" y="0px" width="25px" height="25px" viewBox="0 0 25.03 25.03"><defs><style>.cls-1{fill:none;} .cls-2{clip-path:url(#clip-path);} .cls-3{fill:#d33131;} .cls-4{fill:#ffc200;}</style><clipPath id="clip-path" transform="translate(-17.22 -93.14)"><circle class="cls-1" cx="29.72" cy="105.57" r="12.5"/></clipPath></defs><g class="cls-2"><rect class="cls-3" width="25.03" height="25.03"/><path class="cls-4" d="M20.67,102.24a0.08,0.08,0,0,1-.07-0.08v0l0.54-1.68-1.41-1a0.08,0.08,0,0,1,0-.13h1.76l0.54-1.68a0.08,0.08,0,0,1,.14,0l0.54,1.68h1.76a0.08,0.08,0,0,1,0,.13l-1.43,1,0.54,1.68a0.08,0.08,0,0,1-.06.09H23.58l-1.43-1-1.43,1H20.67Z" transform="translate(-17.22 -93.14)"/><path class="cls-4" d="M22.15,97.65l0.56,1.73h1.81L23,100.45l0.56,1.73-1.47-1.07-1.47,1.07,0.56-1.73-1.47-1.07h1.81l0.56-1.73m0-.15a0.15,0.15,0,0,0-.14.1l-0.53,1.62H19.76a0.15,0.15,0,0,0-.09.27l1.38,1-0.53,1.62a0.15,0.15,0,0,0,.23.17l1.38-1,1.38,1a0.15,0.15,0,0,0,.23-0.17l-0.53-1.62,1.38-1a0.15,0.15,0,0,0-.08-0.27H22.8l-0.53-1.62a0.15,0.15,0,0,0-.14-0.1h0Z" transform="translate(-17.22 -93.14)"/><path class="cls-4" d="M26.19,97.85a0,0,0,0,1,0,0L25.87,97,25,97A0,0,0,1,1,25,97h0l0.68-.52-0.29-.81a0,0,0,0,1,0,0h0l0.71,0.48,0.68-.52h0a0,0,0,0,1,0,0l-0.24.82,0.71,0.48a0,0,0,0,1,0,.07l-0.86,0-0.24.82a0,0,0,0,1,0,0h0Z" transform="translate(-17.22 -93.14)"/><path class="cls-4" d="M26.85,95.6l-0.25.85,0.73,0.5-0.88,0-0.25.85L25.89,97,25,97l0.7-.54-0.3-.83,0.73,0.5,0.7-.54m0-.07h0L26.14,96l-0.68-.47a0.07,0.07,0,0,0-.11.08l0.28,0.78L25,96.94a0.07,0.07,0,0,0,0,.13l0.83,0,0.28,0.78a0.07,0.07,0,0,0,.13,0l0.23-.8,0.83,0a0.07,0.07,0,0,0,0-.13l-0.68-.47,0.23-.8a0.07,0.07,0,0,0,0-.08h0Z" transform="translate(-17.22 -93.14)"/><path class="cls-4" d="M28.22,100.11a0,0,0,0,1,0,0l0-.85L27.33,99a0,0,0,0,1,0-.07l0.8-.31,0-.85a0,0,0,0,1,0,0h0l0.54,0.67,0.8-.31h0a0,0,0,0,1,0,0L29,98.83l0.54,0.67a0,0,0,0,1,0,0l0,0-0.83-.23-0.47.72,0,0v0Z" transform="translate(-17.22 -93.14)"/><path class="cls-4" d="M28.11,97.76l0.55,0.69,0.83-.31L29,98.88l0.55,0.69-0.85-.23-0.48.74,0-.88L27.34,99l0.83-.31,0-.88m0-.07h0a0.07,0.07,0,0,0,0,.07l0,0.83-0.78.29a0.07,0.07,0,0,0,0,.13l0.8,0.22,0,0.83a0.07,0.07,0,0,0,.05.07h0a0.07,0.07,0,0,0,.06,0l0.45-.69,0.8,0.22h0a0.07,0.07,0,0,0,.06-0.12l-0.52-.65,0.45-.69a0.07,0.07,0,0,0,0,0,0.07,0.07,0,0,0-.07-0.07h0l-0.78.29-0.51-.63a0.07,0.07,0,0,0-.06,0h0Z" transform="translate(-17.22 -93.14)"/><path class="cls-4" d="M29.22,103.19h0l-0.69-.5-0.69.5h0a0,0,0,0,1,0,0l0.27-.81-0.69-.5a0,0,0,1,1,0-.07h0.86l0.27-.81a0,0,0,0,1,0,0,0,0,0,0,1,0,0l0.27,0.81h0.86a0,0,0,0,1,0,0,0,0,0,0,1,0,0l-0.69.5,0.27,0.81a0,0,0,0,1,0,0H29.22Z" transform="translate(-17.22 -93.14)"/><path class="cls-4" d="M28.51,101l0.27,0.84h0.88l-0.71.52,0.27,0.84-0.71-.52-0.71.51,0.27-.84-0.71-.52h0.88l0.27-.84m0-.07a0.07,0.07,0,0,0-.07.05l-0.26.79H27.35a0.07,0.07,0,0,0,0,.13L28,102.34l-0.26.79a0.07,0.07,0,0,0,.11.08l0.67-.49,0.67,0.49a0.07,0.07,0,0,0,.11-0.08L29,102.34l0.67-.48a0.07,0.07,0,0,0,0-.13H28.83l-0.26-.79a0.07,0.07,0,0,0-.07-0.05h0Z" transform="translate(-17.22 -93.14)"/><path class="cls-4" d="M25.74,105.67l0,0-0.41-.75-0.85.16,0,0a0,0,0,0,1,0,0l0.59-.63-0.41-.75a0,0,0,0,1,0,0h0l0.77,0.37L26,103.3h0a0,0,0,0,1,0,0l-0.11.85,0.77,0.37a0,0,0,0,1,0,0,0,0,0,0,1,0,0l-0.84.15-0.11.85a0,0,0,0,1,0,0h0Z" transform="translate(-17.22 -93.14)"/><path class="cls-4" d="M26,103.35l-0.12.88,0.79,0.38-0.87.16-0.12.88-0.42-.78-0.87.16,0.61-.63-0.42-.78L25.44,104l0.61-.63m0-.07-0.05,0-0.57.6-0.75-.36h0a0.07,0.07,0,0,0-.06.11L25,104.4l-0.57.6a0.07,0.07,0,0,0,0,.1l0.05,0,0.82-.15,0.39,0.73a0.06,0.06,0,0,0,.12,0l0.11-.82,0.82-.15a0.07,0.07,0,0,0,0-.13L26,104.21l0.11-.82a0.07,0.07,0,0,0,0-.08h0Z" transform="translate(-17.22 -93.14)"/></g></svg>