<?xml version="1.0" encoding="UTF-8"?><svg width="25px" height="25px" viewBox="0 0 25 25" version="1.1" xmlns="http://www.w3.org/2000/svg" xmlns:xlink="http://www.w3.org/1999/xlink"><defs><circle id="path-1" cx="12.5" cy="12.5" r="12.5"/></defs><g id="Page-1" stroke="none" stroke-width="1" fill="none" fill-rule="evenodd"><g id="Artboard-2"><g id="Group-2"><mask id="mask-2" fill="white"><use xlink:href="#path-1"/></mask><g id="Mask"/><g mask="url(#mask-2)" id="flag_circle_el"><g transform="translate(-1.000000, -1.000000)"><g><g id="Layer_1"><g id="Group"><polygon id="Shape" fill="#1CB0F6" points="0.61 0.66 13.51 0.66 13.51 13.49 0.61 13.49"/><polygon id="Shape" fill="#1CB0F6" points="13.5 0.67 26.14 0.67 26.14 3.23 13.5 3.23"/><polygon id="Shape" fill="#FFFFFF" points="13.5 3.24 26.14 3.24 26.14 5.8 13.5 5.8"/><polygon id="Shape" fill="#FFFFFF" points="0.64 5.78 13.51 5.78 13.51 8.34 0.64 8.34"/><polygon id="Shape" fill="#FFFFFF" points="5.91 0.75 8.47 0.75 8.47 13.5 5.91 13.5"/><polygon id="Shape" fill="#1CB0F6" points="13.5 5.8 26.14 5.8 26.14 8.36 13.5 8.36"/><polygon id="Shape" fill="#FFFFFF" points="13.5 8.36 26.14 8.36 26.14 10.92 13.5 10.92"/><polygon id="Shape" fill="#1CB0F6" points="13.5 10.93 26.14 10.93 26.14 13.49 13.5 13.49"/><polygon id="Shape" fill="#FFFFFF" points="0.63 13.48 26.1 13.48 26.1 16.02 0.63 16.02"/><polygon id="Shape" fill="#1CB0F6" points="0.63 16.03 26.1 16.03 26.1 18.54 0.63 18.54"/><polygon id="Shape" fill="#FFFFFF" points="0.63 18.54 26.1 18.54 26.1 21.05 0.63 21.05"/><polygon id="Shape" fill="#1CB0F6" points="0.63 21.06 26.1 21.06 26.1 23.57 0.63 23.57"/><polygon id="Shape" fill="#FFFFFF" points="0.63 23.58 26.1 23.58 26.1 26.09 0.63 26.09"/></g></g></g></g></g></g></g></g></svg>