<?xml version="1.0" encoding="UTF-8" standalone="no"?><svg width="24px" height="19px" viewBox="0 0 24 19" version="1.1" xmlns="http://www.w3.org/2000/svg" xmlns:xlink="http://www.w3.org/1999/xlink"><title>Artboard Copy 2</title><desc>Created with Sketch.</desc><defs/><g id="Page-1" stroke="none" stroke-width="1" fill="none" fill-rule="evenodd"><g id="Artboard-Copy-2"><path d="M4.75143257,18.0368789 C5.2748924,18.7124718 6.18229305,19.1010648 7.15484203,18.9770972 C8.12739101,18.8530087 8.91072292,18.2487727 9.25143257,17.463121 C8.72797415,16.7875283 7.82057209,16.398935 6.84802311,16.5229028 C5.87547554,16.6469913 5.09214222,17.2512266 4.75143257,18.0368789 L4.75143257,18.0368789 Z" id="Mask" fill="#77C924"/><path d="M1,13.9932831 C1.23768333,14.8707684 1.9511042,15.6220895 2.92361525,15.8951224 C3.8961263,16.1681539 4.87355776,15.8916491 5.5,15.2567178 C5.26219304,14.3791042 4.54877218,13.6279114 3.57626257,13.3548784 C2.60375152,13.0818455 1.62631861,13.3583503 1,13.9932831 L1,13.9932831 Z" id="Clip-17" fill="#77C924"/><path d="M0.191130852,8.01183714 C-0.153911809,8.81480311 -0.0367394964,9.81731485 0.583016926,10.622609 C1.20277346,11.4279046 2.16312925,11.8255265 3.05886957,11.7381323 C3.40391171,10.9351663 3.28673928,9.93265455 2.6669829,9.12736038 C2.04722652,8.32218845 1.08687058,7.92456661 0.191130852,8.01183714 L0.191130852,8.01183714 Z" id="Clip-20" fill="#77C924"/><path d="M16.8465911,18.9771021 C15.8740398,18.8530133 15.09071,18.2487763 14.75,17.4630024 C15.2733408,16.787529 16.180866,16.398935 17.1534173,16.5229031 C18.1259546,16.6468712 18.9092928,17.2512281 19.25,18.036882 C18.7265467,18.7123554 17.8190299,19.1010699 16.8465911,18.9771021 Z" id="Clip-23" fill="#77C924"/><path d="M21.076316,15.8951224 C20.1038306,16.1681539 19.1264349,15.8916491 18.5,15.2567178 C18.7378105,14.3791042 19.4512129,13.6279114 20.423684,13.3548784 C21.3961694,13.0818455 22.3735795,13.3583503 23,13.9932831 C22.762204,14.8707684 22.0488015,15.6220895 21.076316,15.8951224 Z" id="Clip-26" fill="#77C924"/><path d="M23.8088744,8.01183714 C24.1539121,8.81480311 24.0367337,9.81731485 23.4169832,10.622609 C22.7972327,11.4279046 21.8368705,11.8255265 20.9411256,11.7381323 C20.5960879,10.9351663 20.7132663,9.93265455 21.3330168,9.12736038 C21.9527673,8.32218845 22.9131295,7.92456661 23.8088744,8.01183714 L23.8088744,8.01183714 Z" id="Clip-29" fill="#77C924"/><path d="M20,0 L20,8.03405556 C20,12.4153822 16.4000538,16 12,16 C7.59994157,16 4,12.4153822 4,8.03405556 L4,0 L20,0 L20,0 Z" id="Clip-2" fill="#CCCCCC"/><path d="M12,16 C7.59994156,16 4,12.4153822 4,8.03405556 L4,0 L12,0 C12,0 12,16.0000003 12,16 Z" id="Clip-2-Copy" fill="#B3B3B3"/></g></g></svg>