<?xml version="1.0" encoding="UTF-8"?><svg width="14px" height="14px" viewBox="0 0 14 14" version="1.1" xmlns="http://www.w3.org/2000/svg" xmlns:xlink="http://www.w3.org/1999/xlink"><title>Artboard</title><desc>Created with Sketch.</desc><defs/><g id="Page-1" stroke="none" stroke-width="1" fill="none" fill-rule="evenodd"><g id="Artboard" fill-rule="nonzero" fill="#FFFFFF"><path d="M0.018951134,6.64972938 C0.0804418641,3.04372228 3.46243201,-0.114636443 7.14102451,0.00591836958 C8.90345735,-0.0747469845 10.56009,0.677834146 11.9101729,1.73357516 C11.3341495,2.37535224 10.7373279,2.99319564 10.0998138,3.57203601 C8.47754361,2.47197337 6.16892841,2.15817629 4.54665827,3.42843395 C2.22447894,5.00185151 2.11867871,8.71866264 4.35223905,10.412635 C6.52340438,12.3441712 10.6288149,11.3850514 11.2283492,8.4279128 C9.86831924,8.40752486 8.50467188,8.4279128 7.14464161,8.38447761 C7.14102451,7.58846132 7.13740741,6.79333143 7.14102451,5.99820155 C9.41527725,5.99111009 11.6886254,5.98845079 13.9664953,6.00440658 C14.1030409,7.87655185 13.850748,9.86836549 12.6779028,11.4151901 C10.9010015,13.8652893 7.33544373,14.5806403 4.5529882,13.5311043 C1.76148991,12.4877733 -0.216160481,9.59711717 0.018951134,6.64972938 Z" id="icon-google"/></g></g></svg>