<?xml version="1.0" encoding="UTF-8" standalone="no"?><svg width="45px" height="57px" viewBox="0 0 45 57" version="1.1" xmlns="http://www.w3.org/2000/svg" xmlns:xlink="http://www.w3.org/1999/xlink" xmlns:sketch="http://www.bohemiancoding.com/sketch/ns"><title>powerup_refill</title><description>Created with Sketch (http://www.bohemiancoding.com/sketch)</description><defs/><g id="Page-1" stroke="none" stroke-width="1" fill="none" fill-rule="evenodd" sketch:type="MSPage"><g id="powerup_refill" sketch:type="MSArtboardGroup" transform="translate(-6.000000, -6.000000)"><g id="Imported-Layers-copy-3" sketch:type="MSLayerGroup" transform="translate(8.000000, 6.000000)"><path d="M9.41713468,10.7439626 C9.32914545,10.7439626 9.24702216,10.6944874 9.20537393,10.6118276 L5.51041273,3.34983323 C5.47639022,3.28225735 5.47404384,3.20321769 5.50396018,3.13383174 C5.53446312,3.06504914 5.5937092,3.01436722 5.66527378,2.99626654 L16.6674475,0.23229211 L16.7243472,0.225051836 L16.8704093,0.276337107 C16.9278956,0.322192173 16.9625047,0.392181484 16.9636779,0.466997644 L17.093902,8.62437252 C17.0962484,8.73901018 17.019991,8.83977066 16.911471,8.86752504 L9.47344779,10.7367223 L9.41713468,10.7439626" id="Fill-2" fill="#B5774D" sketch:type="MSShapeGroup"/><path d="M8.7495897,2.79293552 C8.64165624,2.79293552 8.53489597,2.81103621 8.43165527,2.84844429 C7.71014356,3.10788742 7.4303378,4.21444257 7.80634512,5.319791 C7.85737887,5.46881996 7.91779815,5.61060865 7.98584315,5.74395035 L10.5738998,5.09353245 C10.5521958,4.86124034 10.501162,4.61989789 10.4190388,4.37855543 C10.0964116,3.43188967 9.39719046,2.79293552 8.7495897,2.79293552" id="Fill-4" fill="#915F3E" sketch:type="MSShapeGroup"/><path d="M16.7923922,4.73091541 L15.0572445,5.16653854 C15.5136154,5.35719908 15.8632259,5.95874514 15.894902,6.68578927 C15.9336173,7.58659997 15.4672744,8.33958842 14.8542827,8.36794616 C14.8425508,8.36794616 14.8308189,8.36854952 14.819087,8.36854952 C14.2207602,8.36854952 13.7115959,7.67046648 13.6734672,6.78654975 C13.6488302,6.21879163 13.8248087,5.71016241 14.1116536,5.40426085 L10.3550999,6.34790984 C10.2213563,6.58683887 10.0312995,6.76422557 9.7937286,6.84990214 C9.6904879,6.88731022 9.58372763,6.90480755 9.47579417,6.90480755 C9.27048596,6.90480755 9.06107158,6.8408518 8.85928294,6.72380071 L7.65148407,7.02728884 L9.36551433,10.3964295 L16.8533981,8.51516506 L16.7923922,4.73091541" id="Fill-6" fill="#BA8F72" sketch:type="MSShapeGroup"/><path d="M7.65148407,7.02728884 L7.17223604,7.14735671 L8.8868529,10.5164973 L9.36551433,10.3964295 L7.65148407,7.02728884 M17.2692939,4.61084754 L16.7923922,4.73091541 L16.8533981,8.51516506 L17.3297131,8.39570054 L17.2692939,4.61084754" id="Fill-7" fill="#BA8F72" sketch:type="MSShapeGroup"/><path d="M10.3550999,6.34790984 L8.85928294,6.72380071 C9.06107158,6.8408518 9.27048596,6.90480755 9.47579417,6.90480755 C9.58372763,6.90480755 9.6904879,6.88731022 9.7937286,6.84990214 C10.0312995,6.76422557 10.2213563,6.58683887 10.3550999,6.34790984" id="Fill-8" fill="#A17E67" sketch:type="MSShapeGroup"/><path d="M15.0572445,5.16653854 L14.1116536,5.40426085 C13.8248087,5.71016241 13.6488302,6.21879163 13.6734672,6.78654975 C13.7115959,7.67046648 14.2207602,8.36854952 14.819087,8.36854952 C14.8308189,8.36854952 14.8425508,8.36794616 14.8542827,8.36794616 C15.4672744,8.33958842 15.9336173,7.58659997 15.894902,6.68578927 C15.8632259,5.95874514 15.5136154,5.35719908 15.0572445,5.16653854" id="Fill-9" fill="#A17E67" sketch:type="MSShapeGroup"/><path d="M12.9020949,2.74165025 C12.8944692,2.74165025 12.8862569,2.74165025 12.8786311,2.74225361 C12.5407525,2.75733751 12.2808909,3.10668071 12.2990754,3.52239309 C12.3166732,3.92845176 12.5923728,4.24762715 12.9202794,4.24762715 C12.9279051,4.24762715 12.9355308,4.2470238 12.9437431,4.2470238 C13.2816218,4.23133654 13.5408967,3.88199334 13.5232989,3.46688432 C13.5057011,3.06082565 13.2300015,2.74165025 12.9020949,2.74165025" id="Fill-10" fill="#915F3E" sketch:type="MSShapeGroup"/><path d="M16.1659089,0.765055572 C16.1635625,0.765055572 16.1612161,0.765055572 16.1588697,0.765658929 C15.9705728,0.774105914 15.832723,1.11801891 15.8509074,1.53312793 C15.8685053,1.94341009 16.030992,2.27042912 16.216356,2.27042912 L16.2233952,2.27042912 C16.4111055,2.26198213 16.5489553,1.91806914 16.5313575,1.50235676 C16.5137596,1.09207459 16.3506863,0.765055572 16.1659089,0.765055572" id="Fill-11" fill="#915F3E" sketch:type="MSShapeGroup"/><path d="M3.57749044,9.49900325 C3.91515326,10.9174069 5.7146863,11.0305566 5.7146863,11.0305566 L7.07838086,11.0305568 L9.47872714,21.1379786 C10.139233,23.9212605 5.30627771,28.1737145 5.30627771,28.1737145 C0.861648237,32.6126055 -1.3140322,38.6238426 0.0709183278,44.4570897 C1.74154057,51.4916188 7.71248994,54.5699418 15.2285302,54.5699418 C17.8992968,54.5699418 20.7648128,54.1813804 23.7030666,53.4434759 C34.9076155,50.6282162 42.9111162,43.7982248 40.6468599,34.2639912 C39.101769,27.7555887 33.5238382,23.1525848 26.5750352,21.7805529 C24.694412,21.1108276 22.0254052,19.8667073 21.6042301,18.0922369 L19.2038838,7.98481502 C19.2038838,7.98481502 21.8453118,7.45440665 21.2542914,5.31402588 C20.6632711,3.17364512 18.7084744,3.42653402 18.7084744,3.42653402 L4.67411555,7.03456618 C4.67411555,7.03456618 3.23982768,8.08059958 3.57749044,9.49900325 Z" id="Fill-13" stroke="#C8C8C8" stroke-width="3" sketch:type="MSShapeGroup"/><path d="M0.0650523789,44.4317487 C0.0656389738,44.4335588 0.0662255687,44.4359722 0.0668121635,44.4377823 C0.0662255687,44.4359722 0.0656389738,44.4335588 0.0650523789,44.4317487 M0.0603596198,44.411838 C0.0609462147,44.4142514 0.0615328095,44.4160615 0.0621194044,44.4184749 C0.0615328095,44.4166648 0.0609462147,44.4142514 0.0603596198,44.411838 M0.0562534556,44.3925306 C0.0562534556,44.394944 0.0568400504,44.3967541 0.0574266453,44.3985642 C0.0568400504,44.3967541 0.0562534556,44.3943407 0.0562534556,44.3925306 M0.0515606964,44.3738266 C0.0515606964,44.3750333 0.0521472913,44.3756366 0.0521472913,44.37624 C0.0521472913,44.3756366 0.0515606964,44.3750333 0.0515606964,44.3738266 M40.6427538,34.2452872 C40.643927,34.2513208 40.6456867,34.2573543 40.6468599,34.2639912 C42.6741319,42.8014805 36.4697177,49.1705078 27.1053169,52.4298376 C36.4697177,49.1705078 42.6741319,42.8014805 40.6468599,34.2639912 C40.6456867,34.2573543 40.643927,34.2513208 40.6427538,34.2452872 M40.6386476,34.2277899 L40.6421672,34.2422704 L40.6386476,34.2277899 M40.6345414,34.2121026 C40.635128,34.2139127 40.6357146,34.2163261 40.6363012,34.2181362 C40.6357146,34.2163261 40.635128,34.2139127 40.6345414,34.2121026" id="Fill-20" fill="#D9D9D9" sketch:type="MSShapeGroup"/><path d="M27.1053169,52.4298376 C26.0165968,52.8087453 24.8850553,53.1460213 23.7194912,53.4392524 C24.8850553,53.1460213 26.0165968,52.8087453 27.1053169,52.4298376" id="Fill-21" fill="#C9C9C9" sketch:type="MSShapeGroup"/><g id="Group" transform="translate(4.555556, 27.500000)" sketch:type="MSShapeGroup"><path d="M17.6699933,20.757172 C25.780442,18.6642544 31.5736197,13.5861324 29.9345869,6.49749965 C29.3049049,3.77261373 27.7490376,1.49687284 25.6120447,-0.15344861 C25.7546142,0.85235246 25.7200049,3.67383457 21.1908403,4.84281227 C18.4520593,5.54954715 16.5454504,4.84335801 14.5706561,4.13716887 C12.5369744,3.41024156 10.4309748,2.68331426 7.27068403,3.49865164 C3.78702908,4.39748743 1.70065863,6.84077088 0.618989964,8.56258443 C0.181983427,10.3575273 0.137559595,12.2283282 0.564751564,14.0756622 C2.2032678,21.1648407 9.56006107,22.8495438 17.6699933,20.757172" id="Fill-15" fill="#E83C1E"/><path d="M7.18700193,0.219838385 C5.88837966,0.219838385 4.40431373,1.00024833 3.29578414,2.40826068 C2.20378436,3.79498912 1.74404935,5.44913076 1.95583739,6.78783398 C3.15683053,5.45240521 4.88677721,4.113702 7.27068403,3.49865164 C8.25420702,3.24488197 9.13596843,3.14009966 9.94489543,3.13900817 C9.90925305,2.21888848 9.58692199,1.40464258 8.96757112,0.860538578 C8.47425995,0.426674308 7.85490908,0.219838385 7.18700193,0.219838385" id="Fill-16" fill="#F8F8F8"/><path d="M9.94489543,3.13900817 C9.13596843,3.14009966 8.25420702,3.24488197 7.27068403,3.49865164 C4.88677721,4.113702 3.15683053,5.45240521 1.95583739,6.78783398 C2.0699963,7.50766665 2.37786379,8.13581479 2.88615508,8.58277685 C3.3799828,9.01664112 3.99881712,9.22347705 4.66724083,9.22347705 C5.96586309,9.22347705 7.44941247,8.4430671 8.55845861,7.03450901 C9.52235246,5.81095719 9.99345171,4.37838649 9.94489543,3.13900817" id="Fill-17" fill="#E99898"/><path d="M30.1484412,7.73305777 C25.6265083,12.9328801 20.2047345,15.179151 12.2482195,15.179151 C5.53350556,15.179151 2.11751947,12.2004954 0.4134006,9.59076089 C0.181983427,11.0658994 0.218658916,12.5786941 0.564751564,14.0756622 C1.77349305,19.3060461 6.0955187,21.5948848 11.5358885,21.5948848 C13.4693583,21.5948848 15.5433314,21.3056419 17.6699933,20.757172 C25.3010779,18.7881377 30.8809178,14.1760786 30.1484412,7.73305777" id="Fill-25" fill="#CE2A0D"/></g></g></g></g></svg>