<?xml version="1.0" encoding="UTF-8"?><svg width="60px" height="60px" viewBox="0 0 60 60" version="1.1" xmlns="http://www.w3.org/2000/svg" xmlns:xlink="http://www.w3.org/1999/xlink"><title>home_plus_ribbon</title><desc>Created with Sketch.</desc><defs/><g id="Page-1" stroke="none" stroke-width="1" fill="none" fill-rule="evenodd"><g id="home_plus_ribbon"><path d="M0.32233047,0 L35.6776695,0 L60,24.3223305 L60,59.6776695 L0.32233047,-7.99360578e-15 Z" id="Combined-Shape" fill="#2B70C9"/><path d="M23.3646695,24.6316695 L23.3646695,16.4936695 C23.3646695,16.1426695 23.5466695,15.9476695 23.8976695,15.9476695 L26.9136695,15.9476695 C28.6426695,15.9476695 29.8516695,17.1566695 29.8516695,18.9506695 C29.8516695,20.7446695 28.6426695,21.9926695 26.9136695,21.9926695 L25.0286695,21.9926695 L25.0286695,24.6316695 C25.0286695,24.9956695 24.8466695,25.1776695 24.4956695,25.1776695 L23.8976695,25.1776695 C23.5466695,25.1776695 23.3646695,24.9956695 23.3646695,24.6316695 Z M25.0286695,20.5366695 L26.6016695,20.5366695 C27.5896695,20.5366695 28.1486695,19.9126695 28.1486695,18.9506695 C28.1486695,18.0016695 27.5896695,17.3906695 26.6276695,17.3906695 L25.0286695,17.3906695 L25.0286695,20.5366695 Z M32.2166695,24.6316695 C32.2166695,24.9956695 32.3986695,25.1776695 32.7496695,25.1776695 L37.3256695,25.1776695 C37.6896695,25.1776695 37.8716695,24.9956695 37.8716695,24.6316695 L37.8716695,24.2676695 C37.8716695,23.9166695 37.6896695,23.7346695 37.3256695,23.7346695 L33.8806695,23.7346695 L33.8806695,16.4936695 C33.8806695,16.1426695 33.6986695,15.9476695 33.3476695,15.9476695 L32.7496695,15.9476695 C32.3986695,15.9476695 32.2166695,16.1426695 32.2166695,16.4936695 L32.2166695,24.6316695 Z M39.5346695,21.8626695 C39.5346695,23.9296695 41.0166695,25.3336695 43.2526695,25.3336695 C45.4756695,25.3336695 46.9576695,23.9296695 46.9576695,21.8626695 L46.9576695,16.4936695 C46.9576695,16.1426695 46.7756695,15.9476695 46.4246695,15.9476695 L45.8266695,15.9476695 C45.4756695,15.9476695 45.2936695,16.1426695 45.2936695,16.4936695 L45.2936695,21.8496695 C45.2936695,23.0976695 44.4746695,23.7996695 43.2396695,23.7996695 C42.0046695,23.7996695 41.1986695,23.0976695 41.1986695,21.8496695 L41.1986695,16.4936695 C41.1986695,16.1426695 41.0166695,15.9476695 40.6526695,15.9476695 L40.0676695,15.9476695 C39.7166695,15.9476695 39.5346695,16.1426695 39.5346695,16.4936695 L39.5346695,21.8626695 Z M49.6606695,24.3976695 C50.1156695,24.7486695 51.1816695,25.3336695 52.4946695,25.3336695 C54.4316695,25.3336695 55.5496695,24.0986695 55.5496695,22.6036695 C55.5496695,19.6656695 51.2466695,20.1076695 51.2466695,18.3786695 C51.2466695,17.7546695 51.7926695,17.3386695 52.6506695,17.3386695 C53.3656695,17.3386695 53.8726695,17.6246695 54.2496695,17.8456695 C54.5226695,17.9886695 54.7956695,18.0406695 54.9906695,17.6636695 L55.2246695,17.2346695 C55.3806695,16.9486695 55.3416695,16.7016695 55.0556695,16.4936695 C54.6656695,16.2076695 53.7686695,15.7916695 52.6766695,15.7916695 C50.9216695,15.7916695 49.5696695,16.8446695 49.5696695,18.4696695 C49.5696695,21.3426695 53.8726695,20.9786695 53.8726695,22.7336695 C53.8726695,23.3576695 53.3526695,23.7866695 52.4946695,23.7866695 C51.5846695,23.7866695 50.9216695,23.3186695 50.6226695,23.1106695 C50.2976695,22.9286695 50.0766695,22.9416695 49.8686695,23.2276695 L49.5826695,23.6436695 C49.3226695,23.9946695 49.4526695,24.2156695 49.6606695,24.3976695 Z" id="plus" fill="#FFFFFF" transform="translate(39.457170, 20.562670) rotate(45.000000) translate(-39.457170, -20.562670)"/></g></g></svg>