<?xml version="1.0" encoding="utf-8"?><!DOCTYPE svg PUBLIC "-//W3C//DTD SVG 1.1//EN" "http://www.w3.org/Graphics/SVG/1.1/DTD/svg11.dtd"><svg version="1.1" id="Locked" xmlns="http://www.w3.org/2000/svg" xmlns:xlink="http://www.w3.org/1999/xlink" x="0px" y="0px" width="110px" height="110px" viewBox="0 0 110 110" enable-background="new 0 0 110 110" xml:space="preserve"><path fill="#A3A3A3" d="M85.48,40.374c-2.415,0.409-4.856,0.669-7.341,0.708c0.029,0.504-0.109,1.026-0.515,1.461	c-4.157,4.457-9.606,6.052-15.346,5.985c-0.369,0.051-0.738,0.117-1.106,0.158c-0.231,0.095-0.46,0.191-0.7,0.285	c-0.525,0.206-0.998,0.114-1.397-0.123c-2.051,0.122-4.103,0.105-6.158-0.031c-3.398,0.198-6.649-0.128-9.531-1.283	c-0.081-0.016-0.162-0.028-0.243-0.043c-0.397-0.077-0.675-0.256-0.9-0.47c-2.426-1.212-4.549-3.083-6.2-5.864	c-0.048-0.082-0.07-0.16-0.099-0.24c-2.68-0.152-5.345-0.418-7.998-0.776c-1.702,1.275-3.452,2.473-5.246,3.601	c-2.343,2.232-4.973,4.125-7.791,5.739c-0.159,0.132-0.316,0.267-0.475,0.398c7.092,16.63,23.575,28.294,42.796,28.294	c18.883,0,35.073-11.281,42.354-27.446C94.539,47.733,89.87,44.26,85.48,40.374z"/><path fill="#BCBCBC" d="M78.571,31.011c-9.801,0-18.152,6.12-21.498,14.738c-3.345-8.618-11.696-14.738-21.497-14.738	c-12.743,0-23.073,10.33-23.073,23.074h42.993h3.154h42.994C101.645,41.341,91.315,31.011,78.571,31.011z"/></svg>