<?xml version="1.0" encoding="utf-8"?><!DOCTYPE svg PUBLIC "-//W3C//DTD SVG 1.1//EN" "http://www.w3.org/Graphics/SVG/1.1/DTD/svg11.dtd"><svg version="1.1" id="Unlocked" xmlns="http://www.w3.org/2000/svg" xmlns:xlink="http://www.w3.org/1999/xlink" x="0px" y="0px" width="110px" height="110px" viewBox="0 0 110 110" enable-background="new 0 0 110 110" xml:space="preserve"><circle fill="#FFFFFF" cx="30.495" cy="63.769" r="7.62"/><circle fill="#FFFFFF" cx="54.965" cy="55.172" r="16.265"/><circle fill="#4C4C4C" cx="30.495" cy="63.769" r="5.861"/><circle fill="#757575" cx="30.495" cy="63.769" r="1.866"/><circle fill="#FFFFFF" cx="79.261" cy="63.764" r="7.62"/><circle fill="#4C4C4C" cx="79.261" cy="63.764" r="5.861"/><circle fill="#757575" cx="79.261" cy="63.764" r="1.866"/><path fill="#CBE9F4" d="M38.933,57.812c1.264,7.725,7.951,13.627,16.034,13.626c8.083-0.001,14.769-5.904,16.031-13.629	L38.933,57.812z"/><g><polygon fill="#106282" points="55.918,53.974 64.398,53.973 62.464,50.105 55.917,50.106"/><polygon fill="#106282" points="53.811,50.106 46.99,50.107 45.056,53.975 53.811,53.974"/></g><path fill="#FFFFFF" d="M42.01,51.184l-36.298,4.57l0,2.055l5.776-0.001c0.171,1.091,1.075,1.94,2.214,1.94	c1.139,0,2.042-0.85,2.214-1.941l24.725-0.003L42.01,51.184z"/><path fill="#FFFFFF" d="M104.106,55.743l-36.299-4.562l1.371,6.62l25.105-0.003c0.171,1.091,1.075,1.94,2.214,1.94	s2.042-0.85,2.214-1.941l5.396-0.001L104.106,55.743z"/><polygon fill="#FFFFFF" points="53.288,42.166 54.621,24.511 55.787,24.511 56.453,41.832"/><polygon fill="#FFFFFF" points="62.785,42.105 80.439,43.438 80.439,44.604 63.118,45.27"/><polygon fill="#FFFFFF" points="47.565,42.105 29.911,43.438 29.911,44.604 47.232,45.27"/></svg>