<?xml version="1.0" encoding="utf-8"?><!DOCTYPE svg PUBLIC "-//W3C//DTD SVG 1.1//EN" "http://www.w3.org/Graphics/SVG/1.1/DTD/svg11.dtd"><svg version="1.1" id="Golden" xmlns="http://www.w3.org/2000/svg" xmlns:xlink="http://www.w3.org/1999/xlink" x="0px" y="0px" width="110px" height="110px" viewBox="0 0 110 110" enable-background="new 0 0 110 110" xml:space="preserve"><g><path fill="#EF8200" d="M52.307,54.213c-1.758-1.285-4.225-0.901-5.51,0.857l-10.8,14.779L21.006,58.894 c-1.758-1.285-4.225-0.901-5.51,0.857c-1.285,1.758-0.901,4.225,0.857,5.51L34.25,78.34c0.285,0.209,0.593,0.357,0.908,0.479 c1.688,0.836,3.778,0.373,4.927-1.199l13.078-17.897C54.449,57.965,54.066,55.498,52.307,54.213z"/><path fill="#EF8200" d="M60.403,73.715c-2.178,0-3.943,1.765-3.943,3.943v22.166c0,2.178,1.765,3.943,3.943,3.943 c2.178,0,3.943-1.766,3.943-3.943V77.658C64.346,75.481,62.581,73.715,60.403,73.715z"/><path fill="#EF8200" d="M88.359,50.177c-1.548-1.184-3.763-0.89-4.947,0.658l-3.467,5.236L65.758,45.792 c-0.945-0.685-2.072-0.927-3.144-0.781c-0.287-0.332-0.623-0.631-1.027-0.86L42.295,33.234c-0.582-0.33-1.212-0.477-1.838-0.492 c-0.107-0.009-0.212-0.006-0.319-0.006c-0.043,0.002-0.086,0.001-0.129,0.005c-0.98,0.042-1.933,0.481-2.593,1.299 c-0.015,0.017-0.031,0.031-0.046,0.048c-0.005,0.006-0.011,0.011-0.016,0.017l-0.059,0.089c-0.134,0.166-0.266,0.337-0.374,0.53 c-0.02,0.035-0.029,0.072-0.047,0.107l-5.569,8.411c-1.184,1.548-0.89,3.762,0.658,4.947c1.548,1.184,3.762,0.89,4.947-0.658 l3.989-6.025l16.803,9.51c0.55,0.311,1.143,0.46,1.734,0.491c0.297,0.512,0.697,0.975,1.207,1.345l16.56,11.997 c0.978,0.709,2.151,0.951,3.256,0.771c0.957-0.081,1.878-0.537,2.508-1.36l0.057-0.086c0.088-0.1,0.186-0.188,0.266-0.298 c0.181-0.25,0.329-0.512,0.45-0.783l5.277-7.969C90.201,53.576,89.907,51.362,88.359,50.177z"/><path fill="#EF8200" d="M67.752,46.084l3.574-5.156c1.279,0.387,2.634,0.599,4.04,0.599c2.157,0,4.192-0.504,6.015-1.379 c-2.787-2.335-3.401-6.432-1.278-9.467l6.786,4.748c1.524-2.235,2.418-4.934,2.418-7.844c0-7.699-6.242-13.941-13.941-13.941 s-13.941,6.242-13.941,13.941c0,3.446,1.257,6.594,3.328,9.027l-3.461,4.993L67.752,46.084z"/></g><path fill="#E26600" d="M76.405,104.434c0-3.158-2.56-5.717-5.717-5.717l-14.242-0.02v5.709c0,0.01-0.003,0.019-0.003,0.028H76.405z"/><path fill="#E26600" d="M51.608,79.78l16.844-25.018c2.941-4.19,1.928-9.97-2.262-12.911l0,0c-4.19-2.941-9.97-1.928-12.911,2.262	l-16.963,24.19"/><path fill="#E26600" d="M6.044,72.803c2.597,1.796,6.159,1.146,7.954-1.452l8.115-11.704L17.418,56.4	c-0.008-0.006-0.014-0.013-0.022-0.019L6.044,72.803z"/><rect x="36.571" y="65.954" transform="matrix(0.825 0.5651 -0.5651 0.825 49.0912 -15.1194)" fill="#E26600" width="24.781" height="11.525"/><path fill="#70B700" d="M62.288,35.722"/><path fill="#E26600" d="M62.215,22.547c-1.861,4.041-6.645,5.808-10.686,3.947c-4.041-1.861-5.808-6.645-3.947-10.686"/><path fill="#E26600" d="M41.958,60.014l-6.476,9.455l9.115,6.243c-4.864-3.705-6.062-10.584-2.576-15.695	C42.021,60.017,41.97,60.015,41.958,60.014z"/><path fill="#E26600" d="M67.063,25.081c2.128-2.656,5.935-3.137,8.672-1.186c-0.181-1.859,0.41-3.779,1.834-5.203	c1.991-1.991,4.949-2.387,7.353-1.238c0.311,0.293,0.593,0.615,0.876,0.935c-3.682-4.616-10.073-6.512-15.856-4.238	c-7.101,2.793-10.594,10.813-7.801,17.915l0.455-0.179L67.063,25.081z"/><path fill="#E26600" d="M82.002,26.885L82.002,26.885c0.546-0.96,1.767-1.297,2.727-0.751l0,0c0.96,0.546,1.297,1.767,0.751,2.727	l0,0"/></svg>