<?xml version="1.0" encoding="utf-8"?><!DOCTYPE svg PUBLIC "-//W3C//DTD SVG 1.1//EN" "http://www.w3.org/Graphics/SVG/1.1/DTD/svg11.dtd"><svg version="1.1" id="Unlocked" xmlns="http://www.w3.org/2000/svg" xmlns:xlink="http://www.w3.org/1999/xlink" x="0px" y="0px" width="110px" height="110px" viewBox="0 0 110 110" enable-background="new 0 0 110 110" xml:space="preserve"><circle fill="#68A9EA" cx="55.156" cy="55.859" r="44.038"/><path fill="#FFFFFF" d="M87.307,39.073c9.266,17.756,2.389,39.664-15.365,48.935c-17.756,9.269-39.667,2.39-48.937-15.363	c-9.267-17.756-2.389-39.664,15.365-48.935C56.126,14.441,78.036,21.319,87.307,39.073z"/><polygon fill="#D33131" points="45.557,62.116 40.806,31.863 64.567,51.177"/><polygon fill="#BFBFBF" points="64.563,51.161 69.313,81.414 45.551,62.095"/><path fill="#FFFFFF" d="M58.555,54.503c1.125,1.952,0.451,4.449-1.504,5.575c-1.956,1.124-4.453,0.453-5.578-1.505	c-1.124-1.956-0.451-4.451,1.505-5.575C54.932,51.872,57.431,52.546,58.555,54.503z"/></svg>