<?xml version="1.0" encoding="utf-8"?><!DOCTYPE svg PUBLIC "-//W3C//DTD SVG 1.1//EN" "http://www.w3.org/Graphics/SVG/1.1/DTD/svg11.dtd"><svg version="1.1" id="Locked" xmlns="http://www.w3.org/2000/svg" xmlns:xlink="http://www.w3.org/1999/xlink" x="0px" y="0px" width="110px" height="110px" viewBox="0 0 110 110" enable-background="new 0 0 110 110" xml:space="preserve"><path fill="#FFFFFF" d="M20.255,65.726l20.974-20.974c-2.69-2.727-6.425-4.42-10.558-4.42c-8.194,0-14.835,6.642-14.835,14.836	C15.836,59.301,17.529,63.036,20.255,65.726z"/><path fill="#FFFFFF" d="M88.714,44.527c-2.671-2.592-6.308-4.194-10.324-4.194c-8.194,0-14.835,6.642-14.835,14.836	c0,4.016,1.602,7.653,4.194,10.324L88.714,44.527z"/><path fill="#BCBCBC" d="M100.72,53.332h-4.554c-0.993-8.849-8.514-15.753-17.623-15.753c-8.128,0-14.979,5.502-17.07,12.972	c-1.887-1.575-4.298-2.494-6.829-2.494c-2.533,0-4.901,0.88-6.767,2.42c-2.115-7.433-8.951-12.898-17.053-12.898	c-9.109,0-16.629,6.905-17.621,15.753h-3.79v4.588h3.883c1.264,8.551,8.631,15.141,17.528,15.141c9.782,0,17.742-7.958,17.742-17.74	c0-0.003,0-0.006,0-0.01c1.236-2.214,3.524-3.584,6.078-3.584c2.584,0,4.968,1.466,6.166,3.743c0.081,9.713,8,17.591,17.733,17.591	c8.897,0,16.265-6.59,17.53-15.141h4.648V53.332z M30.824,69.391c-7.759,0-14.07-6.311-14.07-14.07s6.311-14.071,14.07-14.071	s14.071,6.313,14.071,14.071S38.583,69.391,30.824,69.391z M78.542,69.391c-7.759,0-14.07-6.311-14.07-14.07	s6.311-14.071,14.07-14.071s14.071,6.313,14.071,14.071S86.301,69.391,78.542,69.391z"/></svg>