<?xml version="1.0" encoding="utf-8"?><!DOCTYPE svg PUBLIC "-//W3C//DTD SVG 1.1//EN" "http://www.w3.org/Graphics/SVG/1.1/DTD/svg11.dtd"><svg version="1.1" id="Locked" xmlns="http://www.w3.org/2000/svg" xmlns:xlink="http://www.w3.org/1999/xlink" x="0px" y="0px" width="110px" height="110px" viewBox="0 0 110 110" enable-background="new 0 0 110 110" xml:space="preserve"><path fill="#D8D8D8" d="M71.294,20.659l-7.74,8.534l5.727,4.125l-8.707,21.074l3.667-17.868l-7.79-5.956l7.964-15.529	c-3.212-1.929-6.615-3.044-10.141-3.044c-19.419,0-35.162,33.627-35.162,53.048c0,19.419,15.743,33.787,35.162,33.787	c19.421,0,35.164-14.367,35.164-33.787C89.439,51.801,82.113,31.947,71.294,20.659z"/><path fill="#C6C6C6" d="M54.275,82.357c-14.579,0-27.437-6.668-35.162-17.315v0.001c0,19.42,15.743,33.787,35.162,33.787	c19.421,0,35.164-14.367,35.164-33.787v-0.003C81.714,75.689,68.855,82.357,54.275,82.357z"/></svg>