<?xml version="1.0" encoding="utf-8"?><!DOCTYPE svg PUBLIC "-//W3C//DTD SVG 1.1//EN" "http://www.w3.org/Graphics/SVG/1.1/DTD/svg11.dtd"><svg version="1.1" id="Golden" xmlns="http://www.w3.org/2000/svg" xmlns:xlink="http://www.w3.org/1999/xlink" x="0px" y="0px" width="110px" height="110px" viewBox="0 0 110 110" enable-background="new 0 0 110 110" xml:space="preserve"><rect x="22.314" y="35.58" fill="#EF8200" width="32.703" height="46.72"/><polygon fill="#E26600" points="54.906,35.58 22.018,35.58 9.528,28.104 42.416,28.104"/><path fill="#E26600" d="M67.422,28.104l-12.49,7.475h0.086V82.3h32.705V35.58h0.099l12.49-7.475H67.422z M76.18,49.595h-7.213	c-1.42,0-2.568-0.918-2.568-2.334c0-1.419,1.149-2.338,2.568-2.338h7.213c1.419,0,2.57,0.919,2.57,2.338	C78.75,48.678,77.6,49.595,76.18,49.595z"/><rect x="69.969" y="72.956" fill="#EF8200" width="5.609" height="9.344"/></svg>