<?xml version="1.0" encoding="utf-8"?><!DOCTYPE svg PUBLIC "-//W3C//DTD SVG 1.1//EN" "http://www.w3.org/Graphics/SVG/1.1/DTD/svg11.dtd"><svg version="1.1" id="Golden" xmlns="http://www.w3.org/2000/svg" xmlns:xlink="http://www.w3.org/1999/xlink" x="0px" y="0px" width="110px" height="110px" viewBox="0 0 110 110" enable-background="new 0 0 110 110" xml:space="preserve"><polygon fill="#EF8200" points="82.312,90.756 13.079,90.756 26.002,61.768 95.236,61.768"/><path fill="#E26600" d="M96.684,64.438c-1.235-4.431-4.905-7.834-9.477-8.698c3.787-4.061,6.122-9.494,6.122-15.484	c0-12.555-10.178-22.732-22.732-22.732c-12.555,0-22.733,10.178-22.733,22.732c0,1.335,0.138,2.634,0.358,3.906	c-3.235,0.773-5.793,3.204-6.784,6.35c-1.177-0.31-2.407-0.491-3.682-0.491c-7.984,0-14.456,6.472-14.456,14.456h10.527v0.038H84.48	v-0.076H96.684z"/></svg>