<?xml version="1.0" encoding="utf-8"?><!DOCTYPE svg PUBLIC "-//W3C//DTD SVG 1.1//EN" "http://www.w3.org/Graphics/SVG/1.1/DTD/svg11.dtd"><svg version="1.1" id="Golden" xmlns="http://www.w3.org/2000/svg" xmlns:xlink="http://www.w3.org/1999/xlink" x="0px" y="0px" width="110px" height="110px" viewBox="0 0 110 110" enable-background="new 0 0 110 110" xml:space="preserve"><path fill="#EF8200" d="M97.67,41.315h-6.255c-0.039-11.046-9.002-19.988-20.057-19.988v9.095	c-5.933-3.967-13.044-6.309-20.723-6.309c-20.605,0-37.313,16.641-37.445,37.215h-0.001v0.017c0,0.076-0.011,0.149-0.011,0.225	h0.011v7.105h-0.009c0,12.077,9.789,21.867,21.866,21.867s21.866-9.79,21.866-21.867H44.318c0,5.121-4.152,9.272-9.272,9.272	s-9.273-4.151-9.273-9.272h-0.014V61.57h4.007v7.149c0,2.989,2.423,5.412,5.412,5.412c2.989,0,5.412-2.423,5.412-5.412V61.57h19.973	v7.149c0,2.989,2.423,5.412,5.412,5.412c2.989,0,5.412-2.423,5.412-5.412V61.57h5.861c0.054,0,0.105,0.008,0.16,0.008	c0.055,0,0.106-0.008,0.16-0.008h1.27c-0.002-0.022,0.007-0.043,0.005-0.064C89.359,60.767,97.67,52.021,97.67,41.315z"/><path fill="#E26600" d="M34.972,45.746c2.292,0,4.15-1.858,4.15-4.15V25.934c-2.949,0.952-5.722,2.277-8.3,3.889v11.773	C30.822,43.888,32.68,45.746,34.972,45.746z"/><path fill="#E26600" d="M48.915,45.746c2.292,0,4.149-1.858,4.149-4.15V24.224c-0.807-0.052-1.61-0.112-2.43-0.112	c-2.002,0-3.952,0.202-5.869,0.505v16.979C44.765,43.888,46.623,45.746,48.915,45.746z"/><path fill="#E26600" d="M62.858,45.746c2.292,0,4.15-1.858,4.15-4.15V27.88c-2.607-1.272-5.396-2.217-8.299-2.857v16.573	C58.708,43.888,60.566,45.746,62.858,45.746z"/><circle fill="#E26600" cx="79.543" cy="45.318" r="6.349"/><circle fill="#FAA918" cx="79.543" cy="45.318" r="2.104"/></svg>