<?xml version="1.0" encoding="utf-8"?><!DOCTYPE svg PUBLIC "-//W3C//DTD SVG 1.1//EN" "http://www.w3.org/Graphics/SVG/1.1/DTD/svg11.dtd"><svg version="1.1" id="Golden" xmlns="http://www.w3.org/2000/svg" xmlns:xlink="http://www.w3.org/1999/xlink" x="0px" y="0px" width="110px" height="110px" viewBox="0 0 110 110" enable-background="new 0 0 110 110" xml:space="preserve"><path fill="#EF8200" d="M87.007,47.622c0,0-17.81,0-21.912,0c-4.178-0.048-7.55-3.306-7.853-7.417V29.739	c0-8.505-6.895-15.4-15.4-15.4v26.037c-0.384,4.03-3.716,7.199-7.836,7.246c-4.102,0-15.926,0-15.926,0V80.63h7.218h6.98h3.753	c1.044,4.38,4.958,7.648,9.658,7.648h33.948c3.397,0,6.39-1.709,8.186-4.307h-0.817V47.622z"/><g><path fill="#EF8200" d="M68.745,60.995h18.488c3.706,0,6.71-3.004,6.71-6.71c0-3.706-3.004-6.71-6.71-6.71H68.745 c-3.706,0-6.71,3.004-6.71,6.71C62.035,57.991,65.039,60.995,68.745,60.995z"/><path fill="#EF8200" d="M87.233,61.202H68.745c-3.706,0-6.71,3.004-6.71,6.71c0,3.706,3.004,6.71,6.71,6.71h18.488 c3.706,0,6.71-3.004,6.71-6.71C93.943,64.207,90.939,61.202,87.233,61.202z"/><path fill="#EF8200" d="M87.233,74.83H68.745c-3.706,0-6.71,3.004-6.71,6.71c0,3.706,3.004,6.71,6.71,6.71h18.488 c3.706,0,6.71-3.004,6.71-6.71C93.943,77.834,90.939,74.83,87.233,74.83z"/></g><g><path fill="#E26600" d="M68.745,60.995h18.488c3.706,0,6.71-3.004,6.71-6.71c0-3.706-3.004-6.71-6.71-6.71H68.745 c-3.706,0-6.71,3.004-6.71,6.71C62.035,57.991,65.039,60.995,68.745,60.995z"/><path fill="#E26600" d="M87.233,61.202H68.745c-3.706,0-6.71,3.004-6.71,6.71c0,3.706,3.004,6.71,6.71,6.71h18.488 c3.706,0,6.71-3.004,6.71-6.71C93.943,64.207,90.939,61.202,87.233,61.202z"/><path fill="#E26600" d="M87.233,74.83H68.745c-3.706,0-6.71,3.004-6.71,6.71c0,3.706,3.004,6.71,6.71,6.71h18.488 c3.706,0,6.71-3.004,6.71-6.71C93.943,77.834,90.939,74.83,87.233,74.83z"/></g><rect x="16.614" y="45.775" fill="#E26600" width="18.078" height="35.625"/></svg>