<?xml version="1.0" encoding="utf-8"?><!DOCTYPE svg PUBLIC "-//W3C//DTD SVG 1.1//EN" "http://www.w3.org/Graphics/SVG/1.1/DTD/svg11.dtd"><svg version="1.1" id="Golden" xmlns="http://www.w3.org/2000/svg" xmlns:xlink="http://www.w3.org/1999/xlink" x="0px" y="0px" width="110px" height="110px" viewBox="0 0 110 110" enable-background="new 0 0 110 110" xml:space="preserve"><path fill="#EF8200" d="M96.222,81.079v-3.776h-4.453v-3.852h-3.34V46.429h0.047c0.572,0,1.035-0.464,1.035-1.036	c0-0.325-0.159-0.603-0.393-0.793h5.16L54.845,23.252L15.412,44.601h6.59c-0.234,0.19-0.393,0.468-0.393,0.793	c0,0.572,0.464,1.036,1.035,1.036h0.101v27.022h-3.711v3.852h-4.082v3.776h-3.865v3.825h89.2v-3.825H96.222z M80.536,46.429h0.1	v27.022H68.205V46.429h0.093c0.572,0,1.036-0.464,1.036-1.036c0-0.325-0.159-0.603-0.393-0.793h10.952	c-0.234,0.19-0.393,0.468-0.393,0.793C79.5,45.966,79.963,46.429,80.536,46.429z M59.715,44.601	c-0.234,0.19-0.393,0.468-0.393,0.793c0,0.572,0.464,1.036,1.036,1.036h0.054v27.022H48.815V46.429h0.093	c0.572,0,1.035-0.464,1.035-1.036c0-0.325-0.159-0.603-0.393-0.793H59.715z M30.539,46.429h0.046c0.572,0,1.035-0.464,1.035-1.036	c0-0.325-0.159-0.603-0.393-0.793h9.097c-0.234,0.19-0.393,0.468-0.393,0.793c0,0.572,0.464,1.036,1.035,1.036h0.054v27.022H30.539	V46.429z"/><g><path fill="#E26600" d="M79.5,45.394c0,0.572,0.464,1.036,1.036,1.036h0.1v9.76h7.793v-9.76h0.047c0.572,0,1.035-0.464,1.035-1.036 c0-0.302-0.146-0.557-0.354-0.745h-9.304C79.645,44.836,79.5,45.091,79.5,45.394z"/><path fill="#E26600" d="M30.539,56.19v-9.76h0.046c0.572,0,1.035-0.464,1.035-1.036c0-0.302-0.146-0.557-0.354-0.745h-9.304 c-0.208,0.188-0.354,0.443-0.354,0.745c0,0.572,0.464,1.036,1.035,1.036h0.101v9.76H30.539z"/><path fill="#E26600" d="M68.205,56.19v-9.76h0.093c0.572,0,1.036-0.464,1.036-1.036c0-0.302-0.146-0.557-0.354-0.745h-9.304 c-0.208,0.188-0.354,0.443-0.354,0.745c0,0.572,0.464,1.036,1.036,1.036h0.054v9.76H68.205z"/><path fill="#E26600" d="M48.815,56.19v-9.76h0.093c0.572,0,1.035-0.464,1.035-1.036c0-0.302-0.146-0.557-0.354-0.745h-9.304 c-0.208,0.188-0.354,0.443-0.354,0.745c0,0.572,0.464,1.036,1.035,1.036h0.054v9.76H48.815z"/></g></svg>