<?xml version="1.0" encoding="utf-8"?><!DOCTYPE svg PUBLIC "-//W3C//DTD SVG 1.1//EN" "http://www.w3.org/Graphics/SVG/1.1/DTD/svg11.dtd"><svg version="1.1" id="Locked" xmlns="http://www.w3.org/2000/svg" xmlns:xlink="http://www.w3.org/1999/xlink" x="0px" y="0px" width="110px" height="110px" viewBox="0 0 110 110" enable-background="new 0 0 110 110" xml:space="preserve"><path fill="#D3D3D3" d="M95.901,60.814V50.401l-8.865-2.442c-0.831-3.7-2.311-7.177-4.237-10.311l4.386-7.828l-7.374-7.362	l-7.706,4.339c-3.189-2.046-6.749-3.662-10.544-4.556l-2.347-8.485H48.8l-2.304,8.356c-3.913,0.849-7.575,2.415-10.857,4.486	l-7.421-4.162l-7.36,7.371l4.167,7.403c-2.093,3.293-3.569,6.968-4.434,10.904l-8.123,2.288v10.413l8.213,2.309	c0.889,3.859,2.401,7.462,4.484,10.696l-4.294,7.578l7.353,7.362l7.706-4.348c3.18,1.96,6.704,3.357,10.461,4.185l2.408,8.591	h10.413l2.444-8.722c3.646-0.867,7.063-2.295,10.15-4.235l7.987,4.517l7.365-7.355l-4.52-8.012	c1.915-3.074,3.454-6.475,4.309-10.101L95.901,60.814z M53.745,65.454c-5.536,0-10.019-4.486-10.019-10.022	c0-5.534,4.483-10.019,10.019-10.019c5.534,0,10.017,4.486,10.017,10.019C63.762,60.968,59.279,65.454,53.745,65.454z"/><path fill="#E0E0E0" d="M83.81,84.743L61.189,62.122c-1.833,2.039-4.484,3.331-7.444,3.331c-5.536,0-10.019-4.486-10.019-10.022	c0-2.96,1.29-5.611,3.329-7.444L24.868,25.804l-4.01,4.013l4.167,7.396c-1.34,2.105-2.424,4.384-3.282,6.772L65.2,87.436	c2.324-0.831,4.547-1.885,6.609-3.182l7.987,4.504L83.81,84.743z"/><path fill="#E0E0E0" d="M85.186,77.897l-2.546-4.515c1.306-2.096,2.365-4.355,3.193-6.72L42.522,23.35	c-2.426,0.849-4.744,1.94-6.882,3.288l-3.927-2.211l21.039,21.037c0.326-0.032,0.659-0.052,0.994-0.052	c5.534,0,10.017,4.486,10.017,10.019c0,0.335-0.016,0.665-0.048,0.991L85.186,77.897z"/></svg>