<?xml version="1.0" encoding="utf-8"?><!DOCTYPE svg PUBLIC "-//W3C//DTD SVG 1.1//EN" "http://www.w3.org/Graphics/SVG/1.1/DTD/svg11.dtd"><svg version="1.1" id="Golden" xmlns="http://www.w3.org/2000/svg" xmlns:xlink="http://www.w3.org/1999/xlink" x="0px" y="0px" width="110px" height="110px" viewBox="0 0 110 110" enable-background="new 0 0 110 110" xml:space="preserve"><path fill="#EF8200" d="M55.417,17.525c0,8.349-6.768,15.118-15.118,15.118c-4.208,0-8.011-1.722-10.751-4.496	c-0.006,0.006-0.012,0.013-0.018,0.02c2.643,2.722,4.277,6.43,4.277,10.524c0,7.965-6.164,14.476-13.979,15.06	c7.815,0.584,13.979,7.096,13.979,15.06c0,4.184-1.7,7.97-4.447,10.707c0.006,0.006,0.012,0.013,0.018,0.02	c2.718-2.617,6.406-4.235,10.477-4.235c8.349,0,15.118,6.768,15.118,15.118c0,0.011-0.002,0.023-0.002,0.034	c0,0,0.032,0.002,0.048,0.002c-0.002-0.087-0.013-0.171-0.013-0.259c0-8.349,6.769-15.118,15.118-15.118	c4.357,0,8.272,1.854,11.03,4.802c0.011-0.011,0.023-0.02,0.033-0.03c-2.817-2.746-4.571-6.576-4.571-10.82	c0-7.965,6.164-14.476,13.979-15.06c-7.815-0.584-13.979-7.095-13.979-15.06c0-4.264,1.772-8.109,4.612-10.857	c-0.006-0.006-0.013-0.012-0.02-0.018c-2.732,2.708-6.49,4.383-10.641,4.383c-8.318,0-15.063-6.72-15.113-15.026	c0,0-0.014-0.001-0.021-0.001l-0.023,0.001C55.411,17.439,55.417,17.481,55.417,17.525z"/><circle fill="#E26600" cx="55.434" cy="53.936" r="19.373"/><path fill="#EF8200" d="M17.503,83.627c-1.453-1.988-2.751-4.095-3.86-6.263l-1.892,0.968c1.16,2.267,2.517,4.471,4.032,6.548	L17.503,83.627z"/><path fill="#EF8200" d="M62.621,9.605l0.325-2.101c-2.468-0.381-4.998-0.573-7.518-0.573h-0.148l0.148,2.126	C57.84,9.057,60.262,9.242,62.621,9.605z"/><path fill="#EF8200" d="M6.983,63.752c0.404,2.532,1.012,5.048,1.806,7.479l2.02-0.66c-0.759-2.324-1.34-4.732-1.727-7.154	L6.983,63.752z"/><path fill="#EF8200" d="M48.138,102.349l-0.325,2.101c2.505,0.389,5.067,0.587,7.616,0.587h0.049l-0.049-2.126	C52.988,102.911,50.537,102.722,48.138,102.349z"/><path fill="#EF8200" d="M63.146,104.432c2.53-0.399,5.047-1.004,7.483-1.796l-0.66-2.022c-2.328,0.759-4.734,1.336-7.153,1.718	L63.146,104.432z"/><path fill="#EF8200" d="M27.893,93.99c-1.985-1.441-3.872-3.048-5.601-4.775l-1.503,1.505c1.81,1.806,3.779,3.484,5.857,4.992	L27.893,93.99z"/><path fill="#EF8200" d="M9.055,48.739l-2.104-0.323c-0.382,2.494-0.579,5.041-0.579,7.568v0.099L8.5,55.984	C8.5,53.564,8.685,51.127,9.055,48.739z"/><path fill="#EF8200" d="M10.752,41.579c0.751-2.334,1.695-4.625,2.803-6.806l-1.897-0.963c-1.158,2.282-2.145,4.676-2.931,7.119	L10.752,41.579z"/><path fill="#EF8200" d="M47.611,7.552c-2.532,0.405-5.047,1.015-7.476,1.812l0.66,2.02c2.325-0.762,4.732-1.345,7.151-1.733	L47.611,7.552z"/><path fill="#EF8200" d="M33.206,99.729c2.291,1.165,4.685,2.153,7.116,2.939l0.655-2.022c-2.325-0.751-4.616-1.697-6.806-2.81	L33.206,99.729z"/><path fill="#EF8200" d="M22.161,22.885l-1.507-1.5c-1.803,1.81-3.478,3.781-4.983,5.86l1.719,1.246	C18.831,26.504,20.437,24.617,22.161,22.885z"/><path fill="#EF8200" d="M77.558,12.195c-2.288-1.159-4.683-2.143-7.121-2.925l-0.65,2.025c2.333,0.748,4.623,1.689,6.811,2.797	L77.558,12.195z"/><path fill="#EF8200" d="M99.15,78.248c1.165-2.282,2.158-4.675,2.946-7.112l-2.02-0.655c-0.756,2.33-1.705,4.618-2.818,6.802	L99.15,78.248z"/><path fill="#EF8200" d="M93.298,28.262c1.451,1.978,2.751,4.081,3.87,6.255l1.892-0.973c-1.17-2.272-2.532-4.472-4.047-6.539	L93.298,28.262z"/><path fill="#EF8200" d="M103.853,48.115c-0.411-2.531-1.022-5.046-1.82-7.473l-2.02,0.663c0.764,2.324,1.35,4.729,1.741,7.151	L103.853,48.115z"/><path fill="#EF8200" d="M101.406,62.597l2.01,0.316c0.38-2.412,0.573-4.884,0.573-7.345v-0.189l-2.039,0.189	C101.951,57.924,101.767,60.288,101.406,62.597z"/><path fill="#EF8200" d="M88.625,89.153l1.503,1.503c1.81-1.813,3.493-3.781,4.998-5.85l-1.719-1.251	C91.965,85.535,90.357,87.419,88.625,89.153z"/><path fill="#EF8200" d="M76.765,97.793l0.97,1.892c2.278-1.166,4.483-2.521,6.55-4.029l-1.251-1.717	C81.056,95.38,78.947,96.677,76.765,97.793z"/><path fill="#EF8200" d="M82.881,17.922c1.988,1.435,3.875,3.037,5.614,4.764l1.498-1.507c-1.815-1.806-3.788-3.48-5.865-4.981	L82.881,17.922z"/><circle fill="#EF8200" cx="30.113" cy="15.929" r="5.315"/></svg>