<?xml version="1.0" encoding="utf-8"?><!DOCTYPE svg PUBLIC "-//W3C//DTD SVG 1.1//EN" "http://www.w3.org/Graphics/SVG/1.1/DTD/svg11.dtd"><svg version="1.1" id="Unlocked" xmlns="http://www.w3.org/2000/svg" xmlns:xlink="http://www.w3.org/1999/xlink" x="0px" y="0px" width="110px" height="110px" viewBox="0 0 110 110" enable-background="new 0 0 110 110" xml:space="preserve"><path fill="#6D0000" d="M85.219,41.526c-2.387,0.404-4.801,0.662-7.256,0.7c0.029,0.498-0.108,1.015-0.509,1.444	c-4.109,4.406-9.496,5.982-15.17,5.916c-0.365,0.05-0.73,0.116-1.094,0.156c-0.229,0.094-0.454,0.189-0.692,0.282	c-0.519,0.204-0.987,0.112-1.381-0.121c-2.028,0.121-4.056,0.104-6.088-0.03c-3.359,0.195-6.572-0.127-9.421-1.269	c-0.08-0.015-0.16-0.028-0.24-0.043c-0.392-0.076-0.667-0.253-0.89-0.464c-2.398-1.198-4.497-3.048-6.129-5.797	c-0.048-0.081-0.07-0.159-0.098-0.237c-2.649-0.15-5.284-0.414-7.906-0.767c-1.682,1.261-3.412,2.445-5.186,3.559	c-2.317,2.206-4.916,4.078-7.701,5.673c-0.157,0.131-0.312,0.264-0.47,0.394C22,67.362,38.294,78.892,57.294,78.892	c18.667,0,34.67-11.151,41.869-27.132C94.174,48.801,89.559,45.368,85.219,41.526z"/><path fill="#9B0000" d="M13.079,55.079c0-12.597,10.212-22.809,22.809-22.809s22.809,10.212,22.809,22.809"/><path fill="#9B0000" d="M55.58,55.079c0-12.597,10.212-22.809,22.809-22.809s22.809,10.212,22.809,22.809"/></svg>