<?xml version="1.0" encoding="utf-8"?><!DOCTYPE svg PUBLIC "-//W3C//DTD SVG 1.1//EN" "http://www.w3.org/Graphics/SVG/1.1/DTD/svg11.dtd"><svg version="1.1" id="Unlocked" xmlns="http://www.w3.org/2000/svg" xmlns:xlink="http://www.w3.org/1999/xlink" x="0px" y="0px" width="110px" height="110px" viewBox="0 0 110 110" enable-background="new 0 0 110 110" xml:space="preserve"><path fill="#FFD833" d="M32.281,70.543c6.778,2.458,13.571,4.775,19.908,8.307c0.04,0.022,0.058,0.055,0.096,0.079	c3.906,0.766,7.896,1.256,11.938,1.542c4.916-2.937,9.294-7.008,11.712-11.862c0.441-0.885,1.249-1.116,2.008-0.956	c1.138-0.925,2.276-1.85,3.414-2.775c0.462-0.474,1.005-0.632,1.525-0.587V42.465c0-14.979-12.143-27.123-27.123-27.123	S28.638,27.486,28.638,42.465v25.691C29.839,68.977,31.051,69.778,32.281,70.543z"/><path fill="#FFD833" d="M62.218,18.315v-7.701c-4.315,0-7.823,3.423-7.977,7.701H62.218z"/><path fill="#FFD833" d="M50.678,18.315v-6.752c3.784,0,6.859,3.001,6.994,6.752H50.678z"/><path fill="#353535" d="M46.929,35.504c0-2.74-2.221-4.96-4.96-4.96s-4.96,2.221-4.96,4.96"/><path fill="#353535" d="M76.477,35.504c0-2.74-2.221-4.96-4.96-4.96s-4.96,2.221-4.96,4.96"/><rect x="50.348" y="35.289" transform="matrix(0.7071 -0.7071 0.7071 0.7071 -12.7826 52.1558)" fill="#FF9700" width="12.437" height="12.437"/><path fill="#FFD833" d="M11.639,43.977c0,9.989,8.097,18.086,18.086,18.086V43.977H11.639z"/><path fill="#FFD833" d="M98.05,43.977c0,9.989-8.097,18.086-18.086,18.086V43.977H98.05z"/><polygon fill="#E86E00" points="65.36,41.508 56.409,44.099 47.772,41.508 56.566,50.302"/><path fill="#FFD833" d="M26.041,58.379l0.837,8.708L31.4,76.8l15.072,6.029l24.45-2.01l16.077-11.053l-1.34-7.703l-1.005-3.684	c0,0-17.751-3.182-18.756-3.182c-1.005,0-25.12-4.522-25.12-4.522L26.041,58.379z"/><path fill="#FFFFFF" d="M88.008,58.336v9.862c0,17.908-14.518,32.426-32.426,32.426l0,0c-17.908,0-32.426-14.518-32.426-32.426	v-9.862l13.15,10.609l19.698-10.83L75.312,69.1L88.008,58.336z"/><path fill="#FFD9D9" d="M55.096,88.188c-12.937,0-24.393-6.218-31.638-15.797c2.061,15.923,15.641,28.234,32.125,28.234	c17.007,0,30.931-13.101,32.291-29.757C80.726,81.321,68.716,88.188,55.096,88.188z"/></svg>