<?xml version="1.0" encoding="utf-8"?><!DOCTYPE svg PUBLIC "-//W3C//DTD SVG 1.1//EN" "http://www.w3.org/Graphics/SVG/1.1/DTD/svg11.dtd"><svg version="1.1" id="Unlocked" xmlns="http://www.w3.org/2000/svg" xmlns:xlink="http://www.w3.org/1999/xlink" x="0px" y="0px" width="110px" height="110px" viewBox="0 0 110 110" enable-background="new 0 0 110 110" xml:space="preserve"><path fill="#FFE1E1" d="M73.702,86.594c-0.74,0.175-1.426,0.622-1.883,1.493c-0.317,0.604-0.528,1.223-0.709,1.848	c-0.032,0.036-0.063,0.072-0.093,0.11c-0.515,0.186,6.268,2.913,5.884,3.328c-1.928,0.051-1.398-0.846-0.615,1.502	c0.024,0.073,0.048,0.145,0.072,0.218H18.161c0.002-0.009-0.002-0.017,0-0.026c-0.087,0.002-0.168,0.026-0.255,0.026	c-5.345,0-9.679-4.334-9.679-9.679v-2.971c-0.011,0-0.022-0.002-0.033-0.002v-4.556h68.293v6.846	C75.346,84.744,74.228,85.312,73.702,86.594z"/><path fill="#FFFFFF" d="M65.523,77.884v7.528c0,5.346,4.334,9.679,9.679,9.679l0,0c5.346,0,9.679-4.334,9.679-9.679v-7.528"/><path fill="#FFFFFF" d="M84.915,30.059v-0.101l0,0v47.926H25.898v-49.97c0.023-0.002,0.044-0.012,0.067-0.014v-2.498	c0.011,0,0.022-0.002,0.033-0.002v-2.971c0-5.346,4.334-9.679,9.679-9.679c0.087,0,0.169,0.023,0.255,0.026	c-0.002-0.009,0.002-0.017,0-0.026h48.565c-0.007,0.022-0.015,0.045-0.022,0.067h0.44v0.033h9.727l-2.408,0.005	c5.324,0.026,9.632,4.345,9.632,9.675v7.528H84.915z"/><path fill="#FFE1E1" d="M85.009,12.851h7.226l0,0.005c5.324,0.026,9.632,4.345,9.632,9.675v7.528H84.915"/><polygon fill="#1CB0F6" points="62.349,72.161 54.392,72.26 64.369,58.178 69.62,61.899"/><polygon fill="#1CB0F6" points="68.684,72.161 76.64,72.26 66.663,58.178 61.412,61.899"/><path fill="#FFFFFF" d="M85.055,18.744c0-3.251,2.61-5.883,5.848-5.939h-9.231L85.055,18.744z"/><circle fill="#FFC200" cx="65.557" cy="56.925" r="9.574"/><path fill="#DBC3C3" d="M75.197,28.21c0,0.831-0.674,1.505-1.505,1.505H34.863c-0.831,0-1.505-0.674-1.505-1.505l0,0	c0-0.831,0.674-1.505,1.505-1.505h38.829C74.523,26.705,75.197,27.379,75.197,28.21L75.197,28.21z"/><path fill="#DBC3C3" d="M67.973,40.251c0,0.831-0.674,1.505-1.505,1.505H34.863c-0.831,0-1.505-0.674-1.505-1.505l0,0	c0-0.831,0.674-1.505,1.505-1.505h31.605C67.299,38.746,67.973,39.419,67.973,40.251L67.973,40.251z"/><path fill="#DBC3C3" d="M46.301,52.291c0,0.831-0.674,1.505-1.505,1.505h-9.933c-0.831,0-1.505-0.674-1.505-1.505l0,0	c0-0.831,0.674-1.505,1.505-1.505h9.933C45.627,50.786,46.301,51.459,46.301,52.291L46.301,52.291z"/></svg>