<?xml version="1.0" encoding="utf-8"?><!DOCTYPE svg PUBLIC "-//W3C//DTD SVG 1.1//EN" "http://www.w3.org/Graphics/SVG/1.1/DTD/svg11.dtd"><svg version="1.1" id="Locked" xmlns="http://www.w3.org/2000/svg" xmlns:xlink="http://www.w3.org/1999/xlink" x="0px" y="0px" width="110px" height="110px" viewBox="0 0 110 110" enable-background="new 0 0 110 110" xml:space="preserve"><path fill="#BCBCBC" d="M32.01,70.121c6.782,2.46,13.58,4.778,19.921,8.312c0.04,0.022,0.058,0.055,0.096,0.079	c3.909,0.766,7.901,1.257,11.946,1.543c4.919-2.939,9.3-7.012,11.719-11.869c0.441-0.885,1.249-1.117,2.01-0.956	c1.139-0.925,2.278-1.851,3.417-2.776c0.462-0.474,1.006-0.633,1.526-0.587v-21.84c0-14.989-12.151-27.14-27.14-27.14	s-27.14,12.151-27.14,27.14v25.707C29.566,68.553,30.779,69.355,32.01,70.121z"/><path fill="#BCBCBC" d="M61.965,17.86v-7.706c-4.318,0-7.828,3.425-7.982,7.706H61.965z"/><path fill="#BCBCBC" d="M50.418,17.86v-6.756c3.786,0,6.863,3.003,6.998,6.756H50.418z"/><path fill="#A3A3A3" d="M46.666,35.06c0-2.741-2.222-4.964-4.964-4.964s-4.964,2.222-4.964,4.964"/><path fill="#A3A3A3" d="M76.233,35.06c0-2.741-2.222-4.964-4.964-4.964c-2.741,0-4.964,2.222-4.964,4.964"/><rect x="50.088" y="34.845" transform="matrix(0.7071 -0.7071 0.7071 0.7071 -12.5462 51.8456)" fill="#F0F0F0" width="12.445" height="12.445"/><path fill="#BCBCBC" d="M11.354,43.538c0,9.995,8.103,18.097,18.097,18.097V43.538H11.354z"/><path fill="#BCBCBC" d="M97.82,43.538c0,9.995-8.103,18.097-18.097,18.097V43.538H97.82z"/><polygon fill="#D8D8D8" points="65.11,41.067 56.153,43.66 47.511,41.067 56.31,49.867"/><path fill="#BCBCBC" d="M25.765,57.949l0.838,8.714l4.524,9.719l15.081,6.033l24.465-2.011l16.087-11.06l-1.341-7.708l-1.005-3.687	c0,0-17.762-3.184-18.768-3.184s-25.135-4.524-25.135-4.524L25.765,57.949z"/><path fill="#D8D8D8" d="M87.772,57.906v9.869c0,17.92-14.527,32.446-32.446,32.446l0,0c-17.92,0-32.446-14.527-32.446-32.446v-9.869	l13.158,10.616l19.71-10.836l19.321,10.991L87.772,57.906z"/><path fill="#D3D3D3" d="M54.839,87.777c-12.945,0-24.408-6.222-31.658-15.807c2.062,15.933,15.65,28.251,32.145,28.251	c17.018,0,30.95-13.109,32.312-29.776C80.484,80.906,68.467,87.777,54.839,87.777z"/></svg>