<?xml version="1.0" encoding="utf-8"?><!DOCTYPE svg PUBLIC "-//W3C//DTD SVG 1.1//EN" "http://www.w3.org/Graphics/SVG/1.1/DTD/svg11.dtd"><svg version="1.1" id="Unlocked" xmlns="http://www.w3.org/2000/svg" xmlns:xlink="http://www.w3.org/1999/xlink" x="0px" y="0px" width="110px" height="110px" viewBox="0 0 110 110" enable-background="new 0 0 110 110" xml:space="preserve"><rect x="34.486" y="40.252" transform="matrix(0.7071 -0.7071 0.7071 0.7071 -22.8822 60.2688)" fill="#724221" width="53.648" height="35.008"/><circle fill="#C17B4C" cx="53.452" cy="37.117" r="7.577"/><path fill="#C17B4C" d="M63.969,43.537L46.763,26.331L19.356,53.737l17.842,17.842l20.414,20.414c2.574,2.574,6.749,2.574,9.323,0	c2.274-2.274,2.532-5.792,0.789-8.357c2.579,1.885,6.205,1.684,8.534-0.644c2.174-2.174,2.49-5.481,0.991-8.01	c2.529,1.499,5.836,1.183,8.01-0.991c2.574-2.574,2.574-6.749,0-9.323L64.846,44.253C64.573,43.98,64.274,43.752,63.969,43.537z"/><path fill="#724221" d="M40.628,62.256c2.397,2.397,2.397,6.283,0,8.68l-3.215,3.215c-2.397,2.397-6.283,2.397-8.68,0l0,0	c-2.397-2.397-2.397-6.283,0-8.68l3.215-3.215C34.345,59.859,38.231,59.859,40.628,62.256L40.628,62.256z"/><path fill="#724221" d="M67.632,35.252c2.397,2.397,2.397,6.283,0,8.68l-3.215,3.215c-2.397,2.397-6.283,2.397-8.68,0l0,0	c-2.397-2.397-2.397-6.283,0-8.68l3.215-3.215C61.349,32.855,65.235,32.855,67.632,35.252L67.632,35.252z"/><path fill="#724221" d="M48.933,70.561c2.397,2.397,2.397,6.283,0,8.68l-3.215,3.215c-2.397,2.397-6.283,2.397-8.68,0l0,0	c-2.397-2.397-2.397-6.283,0-8.68l3.215-3.215C42.65,68.164,46.536,68.164,48.933,70.561L48.933,70.561z"/><path fill="#724221" d="M57.077,78.706c2.397,2.397,2.397,6.283,0,8.68L53.862,90.6c-2.397,2.397-6.283,2.397-8.68,0l0,0	c-2.397-2.397-2.397-6.283,0-8.68l3.215-3.215C50.794,76.309,54.68,76.309,57.077,78.706L57.077,78.706z"/><rect x="7.553" y="28.879" transform="matrix(0.7071 -0.7071 0.7071 0.7071 -16.7865 30.5677)" fill="#FFFFFF" width="41.905" height="13.336"/><rect x="65.617" y="27.72" transform="matrix(0.7071 0.7071 -0.7071 0.7071 49.1704 -49.9324)" fill="#FFFFFF" width="38.485" height="13.336"/><circle fill="#939393" cx="94.673" cy="44.24" r="2.425"/><circle fill="#939393" cx="19.657" cy="44.392" r="2.425"/></svg>