<?xml version="1.0" encoding="utf-8"?><!DOCTYPE svg PUBLIC "-//W3C//DTD SVG 1.1//EN" "http://www.w3.org/Graphics/SVG/1.1/DTD/svg11.dtd"><svg version="1.1" id="Locked" xmlns="http://www.w3.org/2000/svg" xmlns:xlink="http://www.w3.org/1999/xlink" x="0px" y="0px" width="110px" height="110px" viewBox="0 0 110 110" enable-background="new 0 0 110 110" xml:space="preserve"><rect x="21.539" y="35.097" fill="#D8D8D8" width="32.916" height="47.023"/><polygon fill="#BCBCBC" points="54.343,35.097 21.241,35.097 8.67,27.573 41.772,27.573"/><path fill="#BCBCBC" d="M66.939,27.573l-12.571,7.524h0.087V82.12h32.918V35.096h0.099l12.571-7.524H66.939z M75.755,49.203h-7.26	c-1.429,0-2.585-0.924-2.585-2.349c0-1.429,1.156-2.353,2.585-2.353h7.26c1.429,0,2.587,0.925,2.587,2.353	C78.342,48.28,77.183,49.203,75.755,49.203z"/><rect x="69.503" y="72.715" fill="#D8D8D8" width="5.645" height="9.405"/></svg>