<?xml version="1.0" encoding="utf-8"?><!DOCTYPE svg PUBLIC "-//W3C//DTD SVG 1.1//EN" "http://www.w3.org/Graphics/SVG/1.1/DTD/svg11.dtd"><svg version="1.1" id="Golden" xmlns="http://www.w3.org/2000/svg" xmlns:xlink="http://www.w3.org/1999/xlink" x="0px" y="0px" width="110px" height="110px" viewBox="0 0 110 110" enable-background="new 0 0 110 110" xml:space="preserve"><rect x="73.31" y="56.778" fill="#EF8200" width="14.615" height="5.052"/><path fill="#E26600" d="M89.64,90.311V71.766h-1.013c-7.662,0-13.873-6.211-13.873-13.873H89.64v-5.987h7.849V48.37	c0-16.284-13.201-29.484-29.484-29.484c-16.283,0-29.484,13.201-29.484,29.484v41.445"/><rect x="47.327" y="56.778" fill="#FAA918" width="14.615" height="5.052"/><path fill="#EF8200" d="M63.657,90.311V71.766h-1.013c-7.662,0-13.873-6.211-13.873-13.873h14.886v-5.987h7.849V48.37	c0-16.284-13.201-29.484-29.484-29.484c-16.283,0-29.484,13.201-29.484,29.484v41.445"/><path fill="#FAA918" d="M49.312,44.689c0-2.99,2.424-5.413,5.413-5.413s5.413,2.424,5.413,5.413"/><path fill="#FAA918" d="M76.739,44.689c0-2.99,2.424-5.413,5.413-5.413s5.413,2.424,5.413,5.413"/></svg>