<?xml version="1.0" encoding="utf-8"?><!DOCTYPE svg PUBLIC "-//W3C//DTD SVG 1.1//EN" "http://www.w3.org/Graphics/SVG/1.1/DTD/svg11.dtd"><svg version="1.1" id="Unlocked" xmlns="http://www.w3.org/2000/svg" xmlns:xlink="http://www.w3.org/1999/xlink" x="0px" y="0px" width="110px" height="110px" viewBox="0 0 110 110" enable-background="new 0 0 110 110" xml:space="preserve"><path fill="#E29256" d="M96.477,72.703H67.137H14.754c-2.813,0-2.709,2.141-2.709,4.952c0,2.823,2.28,4.954,5.098,4.954h31.143	h45.62c2.813,0,5.097-2.132,5.097-4.954C99.004,74.844,99.291,72.703,96.477,72.703z"/><path fill="#562C1F" d="M102.852,65.646c0,3.886-3.15,7.036-7.036,7.036H15.701c-3.886,0-7.036-3.15-7.036-7.036l0,0	c0-3.886,3.15-7.036,7.036-7.036h80.115C99.702,58.609,102.852,61.76,102.852,65.646L102.852,65.646z"/><path fill="#FFE600" d="M26.431,75.754c0,2.747,2.227,4.974,4.974,4.974l0,0c2.747,0,4.974-2.227,4.974-4.974V55.383	c0-2.747-2.227-4.974-4.974-4.974l0,0c-2.747,0-4.974,2.227-4.974,4.974V75.754z"/><path fill="#D33131" d="M36.417,70.677c0,2.747,2.227,4.974,4.974,4.974l0,0c2.747,0,4.974-2.227,4.974-4.974V50.305	c0-2.747-2.227-4.974-4.974-4.974l0,0c-2.747,0-4.974,2.227-4.974,4.974V70.677z"/><path fill="#E29256" d="M12.259,53.699L12.259,53.699c0-15.715,12.739-28.454,28.454-28.454h29.648	c15.715,0,28.454,12.739,28.454,28.454l0,0"/><ellipse fill="#FFBD7B" cx="40.633" cy="31.424" rx="3.534" ry="1.536"/><ellipse fill="#FFBD7B" cx="70.339" cy="31.424" rx="3.534" ry="1.536"/><ellipse fill="#FFBD7B" cx="55.588" cy="37.775" rx="3.534" ry="1.536"/><path fill="#70B700" d="M102.662,56.129c0,1.383-1.076,2.504-2.404,2.504H11.309c-1.328,0-2.404-1.121-2.404-2.504l0,0	c0-1.383,1.076-2.504,2.404-2.504h88.949C101.586,53.625,102.662,54.746,102.662,56.129L102.662,56.129z"/></svg>