<?xml version="1.0" encoding="utf-8"?><!DOCTYPE svg PUBLIC "-//W3C//DTD SVG 1.1//EN" "http://www.w3.org/Graphics/SVG/1.1/DTD/svg11.dtd"><svg version="1.1" id="Locked" xmlns="http://www.w3.org/2000/svg" xmlns:xlink="http://www.w3.org/1999/xlink" x="0px" y="0px" width="110px" height="110px" viewBox="0 0 110 110" enable-background="new 0 0 110 110" xml:space="preserve"><path fill="#BCBCBC" d="M37.618,58.788c-12.118,0-21.941,9.823-21.941,21.94h21.941V58.788z"/><path fill="#CCCCCC" d="M42.754,71.466v15.349c0.01,6.715,8.777,12.247,12.083,14.043c2.939-1.265,12.083-7.369,12.083-14.043	V71.466H42.754z M60.839,84.003c0,3.315-4.542,6.347-6.002,6.976c-1.643-0.892-5.998-3.64-6.002-6.976v-7.625h12.005V84.003z"/><path fill="#BCBCBC" d="M71.757,58.84c12.118,0,21.941,9.823,21.941,21.94H71.757V58.84z"/><path fill="#D8D8D8" d="M32.269,80.78V37.341c0-12.407,17-23.755,22.465-26.108v0c6.147,3.339,22.446,13.622,22.465,26.108l0,43.439"/><circle fill="#BCBCBC" cx="54.919" cy="40.627" r="8.767"/><path fill="#BCBCBC" d="M40.111,21.859h29.163c-5.056-5.044-11.248-8.837-14.541-10.625C51.748,12.519,45.329,16.499,40.111,21.859z"/><rect x="52.922" y="60.599" fill="#BCBCBC" width="4.036" height="20.284"/></svg>