<?xml version="1.0" encoding="utf-8"?><!DOCTYPE svg PUBLIC "-//W3C//DTD SVG 1.1//EN" "http://www.w3.org/Graphics/SVG/1.1/DTD/svg11.dtd"><svg version="1.1" id="Locked" xmlns="http://www.w3.org/2000/svg" xmlns:xlink="http://www.w3.org/1999/xlink" x="0px" y="0px" width="110px" height="110px" viewBox="0 0 110 110" enable-background="new 0 0 110 110" xml:space="preserve"><path fill="#BCBCBC" d="M73.488,85.916c-0.741,0.175-1.428,0.623-1.887,1.495c-0.318,0.605-0.529,1.225-0.71,1.851	c-0.032,0.036-0.063,0.072-0.093,0.11c-0.516,0.187,6.279,2.918,5.894,3.334c-1.931,0.051-1.4-0.848-0.616,1.505	c0.024,0.073,0.049,0.145,0.073,0.218H17.848c0.002-0.009-0.002-0.017,0-0.026c-0.087,0.002-0.168,0.026-0.256,0.026	c-5.355,0-9.697-4.342-9.697-9.697v-2.976c0,0-0.022-0.002-0.033-0.002V77.19h68.416v6.858	C75.135,84.062,74.016,84.632,73.488,85.916z"/><path fill="#D8D8D8" d="M65.294,77.19v7.542c0,5.355,4.341,9.697,9.697,9.697l0,0c5.355,0,9.697-4.341,9.697-9.697V77.19"/><path fill="#D8D8D8" d="M84.721,29.279v-0.101l0,0V77.19H25.598V27.13c0.023-0.002,0.044-0.012,0.067-0.014v-2.503	c0.011,0,0.022-0.002,0.033-0.002v-2.976c0-5.355,4.342-9.697,9.697-9.697c0.088,0,0.169,0.023,0.256,0.026	c-0.002-0.009,0.002-0.017,0-0.026h48.652c-0.007,0.022-0.015,0.045-0.022,0.067h0.44v0.034h9.745l-2.413,0.005	c5.333,0.026,9.649,4.353,9.649,9.692v7.542H84.721z"/><path fill="#BCBCBC" d="M84.815,12.04h7.239l0,0.005c5.333,0.026,9.649,4.353,9.649,9.692v7.542H84.721"/><polygon fill="#BCBCBC" points="76.431,71.556 69.238,61.403 69.399,61.176 68.753,60.718 66.437,57.449 65.287,58.263 64.139,57.449 61.822,60.718 61.176,61.176 61.337,61.403 54.144,71.556 62.114,71.457 65.287,66.978 68.461,71.457"/><path fill="#D8D8D8" d="M84.861,17.944c0-3.257,2.615-5.894,5.859-5.949h-9.247L84.861,17.944z"/><circle fill="#BCBCBC" cx="65.329" cy="56.194" r="9.591"/><path fill="#BCBCBC" d="M74.986,27.427c0,0.833-0.675,1.508-1.508,1.508H34.579c-0.833,0-1.508-0.675-1.508-1.508l0,0	c0-0.833,0.675-1.508,1.508-1.508h38.899C74.311,25.92,74.986,26.595,74.986,27.427L74.986,27.427z"/><path fill="#BCBCBC" d="M67.749,39.489c0,0.833-0.675,1.508-1.508,1.508H34.579c-0.833,0-1.508-0.675-1.508-1.508l0,0	c0-0.833,0.675-1.508,1.508-1.508h31.662C67.074,37.981,67.749,38.656,67.749,39.489L67.749,39.489z"/><path fill="#BCBCBC" d="M46.037,51.551c0,0.833-0.675,1.508-1.508,1.508h-9.951c-0.833,0-1.508-0.675-1.508-1.508l0,0	c0-0.833,0.675-1.508,1.508-1.508h9.951C45.362,50.043,46.037,50.718,46.037,51.551L46.037,51.551z"/></svg>