<?xml version="1.0" encoding="utf-8"?><!DOCTYPE svg PUBLIC "-//W3C//DTD SVG 1.1//EN" "http://www.w3.org/Graphics/SVG/1.1/DTD/svg11.dtd"><svg version="1.1" id="Locked" xmlns="http://www.w3.org/2000/svg" xmlns:xlink="http://www.w3.org/1999/xlink" x="0px" y="0px" width="110px" height="110px" viewBox="0 0 110 110" enable-background="new 0 0 110 110" xml:space="preserve"><circle fill="#D8D8D8" cx="55.309" cy="55.337" r="40.25"/><path fill="#BCBCBC" d="M47.206,15.904c-2.778,2.673-4.67,5.667-4.67,5.667l12.76,5.467l13.212-5.495c0,0-1.55-2.74-4.065-5.404	c-2.936-0.679-5.99-1.051-9.133-1.051C52.533,15.087,49.824,15.366,47.206,15.904z"/><path fill="#BCBCBC" d="M91.291,58.245c0,0,2.302-2.396,4.16-5.709c-0.4-5.825-2.034-11.313-4.653-16.196	c-3.424-1.975-6.981-2.971-6.981-2.971l-1.578,13.79L91.291,58.245z"/><path fill="#BCBCBC" d="M18.977,58.245l9.052-11.085L26.45,33.37c0,0-3.219,0.905-6.48,2.692c-2.789,5.102-4.502,10.873-4.843,17.01	C16.922,56.1,18.977,58.245,18.977,58.245z"/><path fill="#BCBCBC" d="M24.052,73.536c0,0-0.434,3.352-0.055,7.081c3.745,4.632,8.494,8.421,13.92,11.024	c3.409-0.477,6.098-1.493,6.098-1.493l-6.654-12.669L24.052,73.536z"/><path fill="#BCBCBC" d="M86.198,81.136c0.48-3.929,0.002-7.6,0.002-7.6l-13.308,3.943l-6.654,12.669c0,0,2.837,1.075,6.38,1.533	C77.876,89.171,82.502,85.556,86.198,81.136z"/><polygon fill="#BCBCBC" points="47.096,67.362 42.123,52.229 55.142,42.856 68.161,52.187 63.187,67.362"/></svg>