<?xml version="1.0" encoding="utf-8"?><!DOCTYPE svg PUBLIC "-//W3C//DTD SVG 1.1//EN" "http://www.w3.org/Graphics/SVG/1.1/DTD/svg11.dtd"><svg version="1.1" id="Unlocked" xmlns="http://www.w3.org/2000/svg" xmlns:xlink="http://www.w3.org/1999/xlink" x="0px" y="0px" width="110px" height="110px" viewBox="0 0 110 110" enable-background="new 0 0 110 110" xml:space="preserve"><path fill="#FFE000" d="M54.981,18.964c0,8.331-6.754,15.085-15.085,15.085c-4.199,0-7.994-1.718-10.728-4.486	c-0.006,0.006-0.012,0.013-0.018,0.02C31.787,32.3,33.417,36,33.417,40.085c0,7.948-6.15,14.445-13.949,15.028	c7.799,0.583,13.949,7.08,13.949,15.028c0,4.175-1.697,7.953-4.437,10.684c0.006,0.006,0.012,0.013,0.018,0.019	c2.712-2.612,6.392-4.225,10.455-4.225c8.331,0,15.085,6.754,15.085,15.085c0,0.011-0.002,0.023-0.002,0.034	c0,0,0.031,0.002,0.048,0.002c-0.002-0.087-0.013-0.171-0.013-0.258c0-8.331,6.754-15.085,15.085-15.085	c4.347,0,8.254,1.85,11.007,4.792c0.011-0.01,0.023-0.019,0.033-0.03c-2.811-2.74-4.562-6.562-4.562-10.797	c0-7.948,6.15-14.445,13.949-15.028c-7.799-0.583-13.949-7.08-13.949-15.028c0-4.255,1.768-8.091,4.602-10.834	c-0.006-0.006-0.013-0.012-0.02-0.018c-2.726,2.702-6.476,4.374-10.618,4.374c-8.301,0-15.031-6.705-15.081-14.994	c0,0-0.014-0.001-0.021-0.001l-0.023,0.001C54.975,18.878,54.981,18.921,54.981,18.964z"/><circle fill="#FFB103" cx="54.997" cy="55.298" r="19.332"/><path fill="#CBE9F4" d="M17.148,82.881c-1.45-1.984-2.745-4.086-3.852-6.249l-1.888,0.966c1.158,2.263,2.512,4.461,4.024,6.534	L17.148,82.881z"/><path fill="#CBE9F4" d="M62.169,9.017l0.324-2.097c-2.463-0.38-4.987-0.571-7.502-0.571h-0.147l0.147,2.121	C57.399,8.471,59.815,8.655,62.169,9.017z"/><path fill="#CBE9F4" d="M6.65,63.048c0.403,2.527,1.01,5.037,1.802,7.463l2.015-0.659c-0.757-2.319-1.337-4.722-1.723-7.139	L6.65,63.048z"/><path fill="#CBE9F4" d="M47.717,101.563l-0.324,2.097c2.5,0.388,5.056,0.586,7.6,0.586h0.049l-0.049-2.121	C52.557,102.124,50.111,101.935,47.717,101.563z"/><path fill="#CBE9F4" d="M62.693,103.642c2.524-0.398,5.036-1.002,7.467-1.792l-0.659-2.018c-2.323,0.757-4.724,1.333-7.138,1.714	L62.693,103.642z"/><path fill="#CBE9F4" d="M27.515,93.222c-1.981-1.438-3.864-3.042-5.589-4.765l-1.499,1.502c1.807,1.802,3.77,3.477,5.845,4.981	L27.515,93.222z"/><path fill="#CBE9F4" d="M8.717,48.067l-2.099-0.322c-0.381,2.489-0.578,5.03-0.578,7.552v0.098l2.124-0.098	C8.164,52.882,8.349,50.45,8.717,48.067z"/><path fill="#CBE9F4" d="M10.411,40.924c0.75-2.329,1.691-4.615,2.797-6.791l-1.893-0.961c-1.155,2.277-2.141,4.666-2.925,7.103	L10.411,40.924z"/><path fill="#CBE9F4" d="M47.191,6.969c-2.527,0.404-5.036,1.013-7.46,1.808l0.659,2.015c2.32-0.761,4.722-1.342,7.135-1.729	L47.191,6.969z"/><path fill="#CBE9F4" d="M32.817,98.949c2.286,1.163,4.675,2.148,7.101,2.932l0.654-2.018c-2.32-0.75-4.606-1.693-6.791-2.804	L32.817,98.949z"/><path fill="#CBE9F4" d="M21.796,22.269l-1.504-1.497c-1.799,1.807-3.471,3.773-4.972,5.847l1.716,1.244	C18.473,25.88,20.075,23.997,21.796,22.269z"/><path fill="#CBE9F4" d="M77.074,11.602c-2.283-1.156-4.672-2.138-7.106-2.919l-0.649,2.02c2.328,0.746,4.613,1.685,6.796,2.791	L77.074,11.602z"/><path fill="#CBE9F4" d="M98.62,77.513c1.163-2.277,2.153-4.665,2.94-7.097l-2.015-0.654c-0.755,2.325-1.701,4.609-2.812,6.788	L98.62,77.513z"/><path fill="#CBE9F4" d="M92.78,27.635c1.448,1.974,2.745,4.073,3.861,6.242l1.888-0.971c-1.168-2.267-2.527-4.462-4.038-6.525	L92.78,27.635z"/><path fill="#CBE9F4" d="M103.312,47.446c-0.41-2.526-1.02-5.035-1.816-7.457l-2.015,0.661c0.762,2.319,1.347,4.719,1.738,7.135	L103.312,47.446z"/><path fill="#CBE9F4" d="M101.25,62.619l2.094,0.329c0.396-2.513,0.597-5.088,0.597-7.651v-0.197l-2.124,0.197	C101.818,57.752,101.626,60.214,101.25,62.619z"/><path fill="#CBE9F4" d="M88.118,88.396l1.499,1.499c1.807-1.809,3.485-3.773,4.987-5.838l-1.716-1.249	C91.45,84.785,89.845,86.665,88.118,88.396z"/><path fill="#CBE9F4" d="M76.283,97.017l0.968,1.888c2.274-1.164,4.473-2.516,6.536-4.02l-1.249-1.713	C80.564,94.609,78.46,95.903,76.283,97.017z"/><path fill="#CBE9F4" d="M82.386,17.317c1.984,1.432,3.866,3.031,5.602,4.754l1.494-1.504c-1.811-1.802-3.78-3.473-5.852-4.97	L82.386,17.317z"/><circle fill="#CBE9F4" cx="29.73" cy="15.328" r="5.303"/></svg>