<?xml version="1.0" encoding="utf-8"?><!DOCTYPE svg PUBLIC "-//W3C//DTD SVG 1.1//EN" "http://www.w3.org/Graphics/SVG/1.1/DTD/svg11.dtd"><svg version="1.1" id="Unlocked" xmlns="http://www.w3.org/2000/svg" xmlns:xlink="http://www.w3.org/1999/xlink" x="0px" y="0px" width="110px" height="110px" viewBox="0 0 110 110" enable-background="new 0 0 110 110" xml:space="preserve"><polygon fill="#E59200" points="82.923,68.8 46.54,68.8 52.604,53.64 76.859,53.64"/><polygon fill="#E59200" points="65.932,53.64 29.549,53.64 35.613,38.481 59.868,38.481"/><polygon fill="#E59200" points="46.54,68.8 10.158,68.8 16.221,53.64 40.477,53.64"/><polygon fill="#FFCE00" points="98.083,53.64 87.155,53.64 81.091,38.481 56.836,38.481 50.772,53.64 37.445,53.64 31.381,68.8 67.764,68.8 61.7,53.64 73.828,53.64 67.764,68.8 104.147,68.8"/><g><path fill="#FFFFFF" d="M81.843,33.039c2.394,1.008,4.3,2.945,5.266,5.36c0.967-2.415,2.872-4.353,5.266-5.36 c-2.394-1.008-4.3-2.945-5.266-5.36C86.143,30.094,84.237,32.031,81.843,33.039z"/></g><g><path fill="#FFFFFF" d="M25.412,79.784c2.373,0.999,4.262,2.919,5.22,5.313c0.958-2.394,2.847-4.314,5.22-5.313 c-2.373-0.999-4.262-2.919-5.22-5.313C29.674,76.865,27.785,78.785,25.412,79.784z"/></g></svg>