<?xml version="1.0" encoding="utf-8"?><!DOCTYPE svg PUBLIC "-//W3C//DTD SVG 1.1//EN" "http://www.w3.org/Graphics/SVG/1.1/DTD/svg11.dtd"><svg version="1.1" id="Locked" xmlns="http://www.w3.org/2000/svg" xmlns:xlink="http://www.w3.org/1999/xlink" x="0px" y="0px" width="110px" height="110px" viewBox="0 0 110 110" enable-background="new 0 0 110 110" xml:space="preserve"><path fill="#BCBCBC" d="M57.541,56.387L30.622,29.468c2.283,0.917,4.941,0.83,7.221-0.522c3.888-2.305,5.171-7.326,2.865-11.214	l-10.996,6.52l-12.888-4.291c-1.428,4.288,0.891,8.922,5.18,10.35c2.342,0.78,4.769,0.412,6.738-0.753	C18.206,40.895,15.924,57.093,21.9,70.55c2.306,5.691,5.953,10.686,10.558,14.601l-5.833,2.343	c2.538,6.319,9.719,9.383,16.037,6.845c1.167-0.469,2.221-1.098,3.152-1.849c3.503,1.074,7.221,1.658,11.076,1.658	c20.855,0,37.761-16.906,37.761-37.761H57.541z"/><path fill="#D3D3D3" d="M49.543,78.404c2.002,5.112,0.36,10.766-3.696,14.062c3.495,1.073,7.194,1.682,11.044,1.682	c20.793,0,37.652-16.808,37.752-37.577L49.543,78.404z"/><path fill="#969696" d="M47.489,78.056"/><circle fill="#D8D8D8" cx="74.815" cy="43.242" r="2.231"/><circle fill="#D8D8D8" cx="82.223" cy="34.399" r="3.187"/><circle fill="#D8D8D8" cx="74.576" cy="22.927" r="3.904"/><path fill="#F0F0F0" d="M53.749,70.881c-0.035-0.088-0.031-0.182-0.076-0.268c-0.698-1.362-2.369-1.901-3.731-1.203	s-1.901,2.368-1.203,3.731c0.044,0.086,0.122,0.139,0.174,0.218L53.749,70.881z"/></svg>