<?xml version="1.0" encoding="utf-8"?><!DOCTYPE svg PUBLIC "-//W3C//DTD SVG 1.1//EN" "http://www.w3.org/Graphics/SVG/1.1/DTD/svg11.dtd"><svg version="1.1" id="Unlocked" xmlns="http://www.w3.org/2000/svg" xmlns:xlink="http://www.w3.org/1999/xlink" x="0px" y="0px" width="110px" height="110px" viewBox="0 0 110 110" enable-background="new 0 0 110 110" xml:space="preserve"><g><path fill="#FFD9D9" d="M55.849,14.771v-0.01c-0.017,0-0.029,0-0.038,0c-0.052,0-0.102,0.006-0.154,0.006 c-0.05,0-0.098-0.006-0.15-0.006c-0.013,0-0.025,0-0.04,0v0.01c-15.57,0.183-28.14,12.856-28.14,28.47 c0,3.45,0.618,6.911,1.861,10.126c1.204,3.123,2.975,5.937,5.113,8.494c2.098,2.509,4.297,4.965,5.937,7.81 c1.579,2.739,2.42,5.269,2.72,8.599h25.399c0.301-3.329,1.145-5.86,2.72-8.599c1.639-2.845,3.838-5.301,5.937-7.81 c2.142-2.557,3.913-5.371,5.117-8.494c1.241-3.215,1.859-6.675,1.859-10.126C83.989,27.627,71.416,14.954,55.849,14.771z"/></g><circle fill="#FFFFFF" cx="42.415" cy="32.376" r="5.34"/><path fill="#E1D9E2" d="M71.074,79.366c0,1.441-1.168,2.61-2.61,2.61H42.888c-1.441,0-2.61-1.168-2.61-2.61l0,0	c0-1.441,1.168-2.61,2.61-2.61h25.575C69.905,76.756,71.074,77.925,71.074,79.366L71.074,79.366z"/><path fill="#E1D9E2" d="M68.582,86.486c0,1.441-1.168,2.61-2.61,2.61H44.668c-1.441,0-2.61-1.168-2.61-2.61l0,0	c0-1.441,1.168-2.61,2.61-2.61h21.303C67.413,83.877,68.582,85.045,68.582,86.486L68.582,86.486z"/><path fill="#E1D9E2" d="M46.619,91.117c1.372,3.634,4.855,6.23,8.969,6.23c4.114,0,7.597-2.597,8.968-6.23H46.619z"/></svg>