<?xml version="1.0" encoding="utf-8"?><!DOCTYPE svg PUBLIC "-//W3C//DTD SVG 1.1//EN" "http://www.w3.org/Graphics/SVG/1.1/DTD/svg11.dtd"><svg version="1.1" id="Unlocked" xmlns="http://www.w3.org/2000/svg" xmlns:xlink="http://www.w3.org/1999/xlink" x="0px" y="0px" width="110px" height="110px" viewBox="0 0 110 110" enable-background="new 0 0 110 110" xml:space="preserve"><path fill="#FFB103" d="M94.912,74.545h-1.108v-20.23h0.016V30.85L74.477,49L55.134,30.85L35.917,48.852L16.699,30.85v23.464h0.013	v20.23h-1.01c-1.088,0-1.97,0.882-1.97,1.97c0,1.088,0.882,1.97,1.97,1.97h79.21c1.088,0,1.97-0.882,1.97-1.97	C96.882,75.427,96,74.545,94.912,74.545z"/><polygon fill="#FFCE00" points="44.469,40.84 35.916,48.852 27.524,40.991 27.524,74.644 44.469,74.644"/><rect x="24.174" y="74.348" fill="#FFCE00" width="17.881" height="3.99"/></svg>