<?xml version="1.0" encoding="utf-8"?><!DOCTYPE svg PUBLIC "-//W3C//DTD SVG 1.1//EN" "http://www.w3.org/Graphics/SVG/1.1/DTD/svg11.dtd"><svg version="1.1" id="Locked" xmlns="http://www.w3.org/2000/svg" xmlns:xlink="http://www.w3.org/1999/xlink" x="0px" y="0px" width="110px" height="110px" viewBox="0 0 110 110" enable-background="new 0 0 110 110" xml:space="preserve"><path fill="#BCBCBC" d="M76.602,93.61c0.635,1.112,0.249,2.528-0.862,3.165l0,0c-1.11,0.635-2.525,0.247-3.16-0.86l-7.207-12.591	c-0.635-1.114-0.252-2.53,0.862-3.163l0,0c1.107-0.64,2.525-0.251,3.16,0.86L76.602,93.61z"/><path fill="#BCBCBC" d="M32.862,93.416c-0.645,1.105-0.273,2.523,0.831,3.17l0,0c1.105,0.645,2.523,0.273,3.17-0.834l7.32-12.524	c0.645-1.105,0.271-2.525-0.834-3.17l0,0c-1.105-0.647-2.523-0.273-3.17,0.832L32.862,93.416z"/><path fill="#BCBCBC" d="M58.402,15.38l-6.58-0.029c-1.073-0.005-1.946,0.86-1.95,1.932c-0.005,1.071,0.86,1.943,1.931,1.948	l1.943,0.009l-0.031,6.75l2.53,0.01l0.032-6.748l2.107,0.01c1.069,0.005,1.943-0.86,1.948-1.934	C60.338,16.26,59.47,15.385,58.402,15.38z"/><path fill="#A3A3A3" d="M90.847,59.19C90.758,79.132,74.523,95.227,54.58,95.136C34.637,95.05,18.545,78.809,18.636,58.869	c0.089-19.938,16.325-36.035,36.267-35.944C74.844,23.011,90.936,39.249,90.847,59.19z"/><path fill="#F0F0F0" d="M84.66,59.163C84.585,75.689,71.13,89.022,54.609,88.949C38.086,88.874,24.75,75.421,24.823,58.898	c0.075-16.523,13.531-29.858,30.051-29.783C71.395,29.185,84.733,42.64,84.66,59.163z"/><g><path fill="#BCBCBC" d="M22.89,14.785c-6.741,4.258-8.754,13.174-4.496,19.914l24.41-15.418 C38.546,12.54,29.63,10.527,22.89,14.785z"/><path fill="#BCBCBC" d="M86.988,15.398c-6.741-4.258-15.657-2.245-19.915,4.496l24.411,15.418 C95.741,28.572,93.729,19.656,86.988,15.398z"/></g><polygon fill="#A3A3A3" points="59.257,56.879 73.541,59.998 59.257,63.117"/><polygon fill="#A3A3A3" points="52.027,55.953 55.683,32.723 59.339,55.953"/><circle fill="#A3A3A3" cx="55.268" cy="59.583" r="5.857"/><circle fill="#F0F0F0" cx="55.268" cy="59.583" r="2.354"/></svg>