<?xml version="1.0" encoding="utf-8"?><!DOCTYPE svg PUBLIC "-//W3C//DTD SVG 1.1//EN" "http://www.w3.org/Graphics/SVG/1.1/DTD/svg11.dtd"><svg version="1.1" id="Golden" xmlns="http://www.w3.org/2000/svg" xmlns:xlink="http://www.w3.org/1999/xlink" x="0px" y="0px" width="110px" height="110px" viewBox="0 0 110 110" enable-background="new 0 0 110 110" xml:space="preserve"><path fill="#EF8200" d="M88.615,83.933c0.01-0.005,0.018-0.016,0.029-0.021L63.733,43.774v-19.42h0.916	c1.011,0,1.831-0.82,1.831-1.831c0-1.011-0.82-1.831-1.831-1.831H45.506c-1.011,0-1.831,0.82-1.831,1.831	c0,1.011,0.82,1.831,1.831,1.831h0.874v19.859L21.861,83.719c0.003,0.002,0.005,0.006,0.009,0.008	c-0.363,0.588-0.583,1.275-0.583,2.017c0,2.098,1.677,3.797,3.762,3.85c-0.002,0.007,60.106,0.01,60.177,0.01	c2.132,0,3.86-1.728,3.86-3.86C89.086,85.085,88.906,84.475,88.615,83.933z"/><path fill="#E26600" d="M56.259,34.506c0,1.735-1.405,3.14-3.14,3.14c-1.731,0-3.137-1.405-3.137-3.14	c0-1.731,1.406-3.138,3.137-3.138C54.855,31.368,56.259,32.776,56.259,34.506z"/><circle fill="#E26600" cx="60.87" cy="56.571" r="2.623"/><path fill="#E26600" d="M25.731,85.17h58.859l-14.807-23.61c0,0-11.336,10.608-30.686,10.608c-3.246,0-5.126-0.253-5.126-0.253	L25.731,85.17z"/><polygon fill="#FFB31A" points="54.135,43.995 51.043,43.995 30.9,85.275 38.796,85.275"/></svg>