<?xml version="1.0" encoding="utf-8"?><!DOCTYPE svg PUBLIC "-//W3C//DTD SVG 1.1//EN" "http://www.w3.org/Graphics/SVG/1.1/DTD/svg11.dtd"><svg version="1.1" id="Locked" xmlns="http://www.w3.org/2000/svg" xmlns:xlink="http://www.w3.org/1999/xlink" x="0px" y="0px" width="110px" height="110px" viewBox="0 0 110 110" enable-background="new 0 0 110 110" xml:space="preserve"><g><path fill="#BCBCBC" d="M54.743,93.266c-0.382,0-0.768-0.069-1.141-0.209c-0.339-0.128-0.646-0.307-0.914-0.531 c-19.554-15.264-28.88-23.531-34.41-30.489c-6.208-7.813-7.455-13.984-7.472-21.961c-0.005-0.079-0.007-0.155-0.007-0.234 c0-13.396,10.898-24.296,24.294-24.296c7.837,0,15.143,3.863,19.656,10.034c4.512-6.171,11.822-10.034,19.657-10.034 c13.396,0,24.297,10.9,24.297,24.296c0,0.076-0.002,0.153-0.009,0.231c-0.016,7.975-1.266,14.148-7.48,21.964 c-5.528,6.96-14.867,15.23-34.439,30.508c-0.238,0.194-0.508,0.356-0.799,0.477C55.587,93.183,55.167,93.266,54.743,93.266z"/></g><path fill="#A3A3A3" d="M30.476,43.999c0-3.822,3.098-6.921,6.921-6.921s6.921,3.098,6.921,6.921"/><path fill="#A3A3A3" d="M65.708,43.999c0-3.822,3.098-6.921,6.921-6.921s6.921,3.098,6.921,6.921"/><path fill="#8C8C8C" d="M71.37,55.324c0,8.687-7.042,15.729-15.729,15.729s-15.729-7.042-15.729-15.729"/><path fill="#B2B2B2" d="M66.191,66.966c-2.789-2.535-6.482-4.092-10.55-4.092s-7.76,1.557-10.55,4.092	c2.791,2.531,6.484,4.087,10.55,4.087S63.4,69.497,66.191,66.966z"/></svg>