<?xml version="1.0" encoding="utf-8"?><!DOCTYPE svg PUBLIC "-//W3C//DTD SVG 1.1//EN" "http://www.w3.org/Graphics/SVG/1.1/DTD/svg11.dtd"><svg version="1.1" id="Locked" xmlns="http://www.w3.org/2000/svg" xmlns:xlink="http://www.w3.org/1999/xlink" x="0px" y="0px" width="110px" height="110px" viewBox="0 0 110 110" enable-background="new 0 0 110 110" xml:space="preserve"><path fill="#BCBCBC" d="M61.674,60.57v-5.531c0-3.854-3.124-6.978-6.978-6.978s-6.978,3.124-6.978,6.978v5.531H24.928v6.912h11.271	c6.679,2.122,11.52,8.368,11.52,15.75v8.166c0,3.854,3.124,6.978,6.978,6.978s6.978-3.124,6.978-6.978V81.299	c0.761-6.522,5.311-11.884,11.397-13.817h10.767V60.57H61.674z M54.519,93.333c-1.565,0-2.833-1.269-2.833-2.834	c0-1.565,1.268-2.834,2.833-2.834c1.565,0,2.833,1.269,2.833,2.834C57.352,92.064,56.084,93.333,54.519,93.333z"/><polygon fill="#A3A3A3" points="83.129,49.646 25.909,49.646 21.571,11.755 87.467,11.755"/><rect x="23.582" y="46.709" fill="#D8D8D8" width="61.602" height="14.541"/><path fill="#D8D8D8" d="M29.537,11.883v14.502c0,1.735,1.406,3.141,3.141,3.141c1.735,0,3.141-1.406,3.141-3.141V17.8	c0.026,0.102,0.046,0.167,0.055,0.165c0-1.287,1.043-2.33,2.33-2.33c1.286,0,2.33,1.043,2.33,2.33l0.014-0.091v18.879	c0,2.441,1.979,4.421,4.421,4.421c2.442,0,4.421-1.979,4.421-4.421V19.19c0.051-1.8,1.518-3.245,3.33-3.245	c1.516,0,2.781,1.016,3.189,2.4v12.264c0,2.441,1.979,4.421,4.421,4.421s4.421-1.979,4.421-4.421V11.883H29.537z"/></svg>