<?xml version="1.0" encoding="utf-8"?><!DOCTYPE svg PUBLIC "-//W3C//DTD SVG 1.1//EN" "http://www.w3.org/Graphics/SVG/1.1/DTD/svg11.dtd"><svg version="1.1" id="Locked" xmlns="http://www.w3.org/2000/svg" xmlns:xlink="http://www.w3.org/1999/xlink" x="0px" y="0px" width="110px" height="110px" viewBox="0 0 110 110" enable-background="new 0 0 110 110" xml:space="preserve"><path fill="#BCBCBC" d="M96.098,59.303c0-14.318-11.607-25.926-25.926-25.926c-14.319,0-25.926,11.607-25.926,25.926	c0,12.244,8.497,22.479,19.909,25.196c1.419,5.195,6.15,9.019,11.795,9.019v-8.958C87.483,81.93,96.098,71.632,96.098,59.303z"/><path fill="#D8D8D8" d="M72.31,46.51c0-16.375-13.275-29.65-29.65-29.65c-16.375,0-29.65,13.275-29.65,29.65	c0,14.002,9.718,25.708,22.769,28.815c1.623,5.941,7.033,10.315,13.489,10.315V75.395C62.458,72.388,72.31,60.611,72.31,46.51z"/></svg>