<?xml version="1.0" encoding="utf-8"?><!DOCTYPE svg PUBLIC "-//W3C//DTD SVG 1.1//EN" "http://www.w3.org/Graphics/SVG/1.1/DTD/svg11.dtd"><svg version="1.1" id="Locked" xmlns="http://www.w3.org/2000/svg" xmlns:xlink="http://www.w3.org/1999/xlink" x="0px" y="0px" width="110px" height="110px" viewBox="0 0 110 110" enable-background="new 0 0 110 110" xml:space="preserve"><circle fill="#BCBCBC" cx="38.126" cy="85.873" r="7.593"/><circle fill="#BCBCBC" cx="56.369" cy="98.413" r="4.281"/><path fill="#BCBCBC" d="M83.348,25.746c-2.679-8.828-10.878-15.255-20.582-15.255c-10.03,0-18.456,6.866-20.836,16.155	c-1.718-0.588-3.558-0.911-5.475-0.911c-9.341,0-16.914,7.573-16.914,16.914c0,3.256,0.922,6.295,2.516,8.876	c-1.945,2.119-3.143,4.935-3.143,8.038c0,6.574,5.329,11.903,11.903,11.903c5.547,0,10.193-3.8,11.514-8.934	c2.18,0.777,4.567,1.208,7.07,1.208c5.676,0,10.755-2.204,14.163-5.674c3.124,2.254,6.957,3.586,11.103,3.586	c10.495,0,19.002-8.508,19.002-19.002C93.671,35.282,89.477,28.899,83.348,25.746z"/></svg>