<?xml version="1.0" encoding="utf-8"?><!DOCTYPE svg PUBLIC "-//W3C//DTD SVG 1.1//EN" "http://www.w3.org/Graphics/SVG/1.1/DTD/svg11.dtd"><svg version="1.1" id="Locked" xmlns="http://www.w3.org/2000/svg" xmlns:xlink="http://www.w3.org/1999/xlink" x="0px" y="0px" width="110px" height="110px" viewBox="0 0 110 110" enable-background="new 0 0 110 110" xml:space="preserve"><path fill="#B2B2B2" d="M93.22,35.685l0.059-0.087l-3.169-2.149c-9.425-6.387-22.117-9.905-35.743-9.905	c-13.838,0-26.669,3.611-36.128,10.169l-3.146,2.181l0.051,0.073c-1.542,1.224-2.618,2.877-3.189,4.692h-0.253v0.934	c-0.26,1.25-0.262,2.551,0,3.841v32.087c0,4.691,3.817,8.507,8.507,8.507h4.641v0.092H84.19V69.53H84.03L70.791,43.234H38.25	L25.012,69.53h-0.161v14.608H20.21c-3.649,0-6.615-2.968-6.615-6.617V50.184l1.168,2.495l17.497-8.193l-2.374-5.069	c-0.459-0.98-1.09-1.814-1.8-2.554c2.351-1.143,4.875-2.124,7.54-2.934c1.225,5.034,5.74,8.796,11.145,8.796h15.026	c5.421,0,9.95-3.782,11.158-8.839c2.882,0.867,5.598,1.934,8.111,3.187c-0.722,0.747-1.362,1.591-1.827,2.584l-2.373,5.069	l17.497,8.193l2.373-5.069C98.805,43.427,97.206,38.267,93.22,35.685z M61.796,37.142H46.77c-2.811,0-5.16-1.974-5.76-4.605	c4.269-0.874,8.773-1.337,13.357-1.337c4.521,0,8.972,0.453,13.198,1.308C66.976,35.155,64.618,37.142,61.796,37.142z"/><rect x="43.434" y="75.432" fill="#D8D8D8" width="20.976" height="5.344"/><circle fill="#D8D8D8" cx="54.401" cy="52.526" r="18.902"/><circle fill="#F0F0F0" cx="54.401" cy="52.526" r="6.008"/><circle fill="#F0F0F0" cx="54.401" cy="39.865" r="3.171"/><circle fill="#F0F0F0" cx="54.401" cy="64.827" r="3.171"/><circle fill="#F0F0F0" cx="41.92" cy="52.346" r="3.171"/><circle fill="#F0F0F0" cx="66.882" cy="52.346" r="3.171"/><circle fill="#F0F0F0" cx="45.047" cy="42.992" r="3.171"/><circle fill="#F0F0F0" cx="63.755" cy="61.7" r="3.171"/><circle fill="#F0F0F0" cx="45.047" cy="61.7" r="3.171"/><circle fill="#F0F0F0" cx="63.755" cy="42.992" r="3.171"/></svg>