<?xml version="1.0" encoding="utf-8"?><!DOCTYPE svg PUBLIC "-//W3C//DTD SVG 1.1//EN" "http://www.w3.org/Graphics/SVG/1.1/DTD/svg11.dtd"><svg version="1.1" id="Unlocked" xmlns="http://www.w3.org/2000/svg" xmlns:xlink="http://www.w3.org/1999/xlink" x="0px" y="0px" width="110px" height="110px" viewBox="0 0 110 110" enable-background="new 0 0 110 110" xml:space="preserve"><path fill="#603C31" d="M57.396,20.388v5.254c3.47,0,6.292,2.822,6.292,6.292v30.472c0,3.299-2.561,5.984-5.795,6.242V48.614h-5.254	v30.504c-3.057-0.427-5.425-3.032-5.425-6.204V42.443c0-3.47,2.822-6.292,6.292-6.292v-5.254c-6.366,0-11.546,5.18-11.546,11.546	v30.472c0,6.069,4.723,11.006,10.678,11.458v16.935h5.254V73.902c6.131-0.267,11.049-5.299,11.049-11.495V31.934	C68.942,25.568,63.762,20.388,57.396,20.388z"/><circle fill="#519327" cx="39.348" cy="46.031" r="22.658"/><circle fill="#519327" cx="68.465" cy="34.318" r="25.285"/><circle fill="#519327" cx="44.383" cy="20.964" r="12.369"/><path fill="#61AF2F" d="M31.747,41.692l-0.012-0.028c-0.005,0.007-0.009,0.015-0.013,0.023c-0.009-0.001-0.017-0.004-0.026-0.005	l0.012,0.028c-0.861,1.245-0.987,3.171-0.178,4.987c0.809,1.816,2.326,3.01,3.827,3.202l0.012,0.028	c0.005-0.007,0.009-0.015,0.013-0.023c0.009,0.001,0.017,0.004,0.026,0.005l-0.012-0.028c0.861-1.245,0.987-3.171,0.178-4.987	C34.765,43.078,33.248,41.885,31.747,41.692z"/><path fill="#61AF2F" d="M54.757,39.391l-0.012-0.028c-0.005,0.007-0.009,0.015-0.013,0.023c-0.009-0.001-0.017-0.004-0.026-0.005	l0.012,0.028c-0.861,1.245-0.987,3.171-0.178,4.987c0.809,1.816,2.326,3.01,3.827,3.202l0.012,0.028	c0.005-0.007,0.009-0.015,0.013-0.023c0.009,0.001,0.017,0.004,0.026,0.005l-0.012-0.028c0.861-1.245,0.987-3.171,0.178-4.987	C57.775,40.777,56.259,39.583,54.757,39.391z"/><path fill="#61AF2F" d="M80.559,42.647l0.025-0.017c-0.008-0.003-0.017-0.005-0.025-0.009c-0.001-0.009,0.001-0.018,0-0.026	l-0.025,0.017c-1.389-0.601-3.302-0.348-4.925,0.801s-2.496,2.87-2.391,4.38l-0.025,0.017c0.008,0.003,0.017,0.005,0.025,0.009	c0.001,0.009-0.001,0.018,0,0.026l0.025-0.017c1.389,0.601,3.302,0.348,4.925-0.801S80.664,44.157,80.559,42.647z"/><path fill="#61AF2F" d="M65.334,16.32l-0.02-0.023c-0.003,0.008-0.004,0.017-0.006,0.026c0,0-0.018,0.001-0.026,0.003l0.02,0.023	c-0.46,1.442-0.018,3.321,1.287,4.821c1.305,1.501,3.104,2.199,4.596,1.944l0.02,0.023c0.003-0.008,0.004-0.017,0.006-0.026	c0.008-0.001,0.018-0.001,0.026-0.003l-0.02-0.023c0.46-1.442,0.018-3.321-1.287-4.821C68.625,16.764,66.826,16.065,65.334,16.32z"/><path fill="#61AF2F" d="M43.434,27.459l-0.012,0.028c0,0,0.017-0.004,0.026-0.005c0.005,0.007,0.009,0.015,0.014,0.022l0.012-0.028	c1.5-0.203,3.008-1.407,3.804-3.229c0.796-1.822,0.656-3.747-0.213-4.985l0.012-0.028c-0.009,0.001-0.017,0.004-0.026,0.005	c-0.005-0.007-0.009-0.015-0.014-0.022l-0.012,0.028c-1.5,0.203-3.008,1.407-3.804,3.229C42.424,24.296,42.564,26.22,43.434,27.459z"/></svg>