<?xml version="1.0" encoding="utf-8"?><!DOCTYPE svg PUBLIC "-//W3C//DTD SVG 1.1//EN" "http://www.w3.org/Graphics/SVG/1.1/DTD/svg11.dtd"><svg version="1.1" id="Unlocked" xmlns="http://www.w3.org/2000/svg" xmlns:xlink="http://www.w3.org/1999/xlink" x="0px" y="0px" width="110px" height="110px" viewBox="0 0 110 110" enable-background="new 0 0 110 110" xml:space="preserve"><rect x="73.502" y="57.03" fill="#FFFFFF" width="14.514" height="5.017"/><path fill="#8C5A38" d="M89.718,90.331V71.915h-1.006c-7.609,0-13.777-6.168-13.777-13.777h14.783v-5.946h7.795v-3.511	c0-16.171-13.109-29.28-29.28-29.28c-16.171,0-29.28,13.109-29.28,29.28v41.158"/><rect x="47.699" y="57.03" fill="#FFFFFF" width="14.514" height="5.017"/><path fill="#FFBB8D" d="M63.915,90.331V71.915h-1.006c-7.609,0-13.777-6.168-13.777-13.777h14.783v-5.946h7.795v-3.511	c0-16.171-13.109-29.28-29.28-29.28c-16.171,0-29.28,13.109-29.28,29.28v41.158"/><path fill="#C17B4C" d="M49.67,45.025c0-2.969,2.407-5.376,5.376-5.376s5.376,2.407,5.376,5.376"/><path fill="#6D4429" d="M76.907,45.025c0-2.969,2.407-5.376,5.376-5.376c2.969,0,5.376,2.407,5.376,5.376"/></svg>