<?xml version="1.0" encoding="utf-8"?><!DOCTYPE svg PUBLIC "-//W3C//DTD SVG 1.1//EN" "http://www.w3.org/Graphics/SVG/1.1/DTD/svg11.dtd"><svg version="1.1" id="Golden" xmlns="http://www.w3.org/2000/svg" xmlns:xlink="http://www.w3.org/1999/xlink" x="0px" y="0px" width="110px" height="110px" viewBox="0 0 110 110" enable-background="new 0 0 110 110" xml:space="preserve"><path fill="#EF8200" d="M76.511,94.328c0.642,1.123,0.252,2.554-0.872,3.198l0,0c-1.121,0.642-2.552,0.249-3.194-0.869	l-7.283-12.724c-0.642-1.126-0.254-2.557,0.872-3.196l0,0c1.119-0.646,2.552-0.254,3.194,0.869L76.511,94.328z"/><path fill="#EF8200" d="M32.31,94.132c-0.651,1.116-0.276,2.55,0.84,3.203l0,0c1.116,0.651,2.55,0.276,3.203-0.843l7.397-12.656	c0.651-1.116,0.274-2.552-0.843-3.203l0,0c-1.116-0.654-2.55-0.276-3.203,0.84L32.31,94.132z"/><path fill="#EF8200" d="M58.118,15.276l-6.649-0.029c-1.085-0.005-1.966,0.869-1.971,1.952c-0.005,1.082,0.869,1.964,1.952,1.968	l1.963,0.009l-0.031,6.821l2.557,0.01l0.033-6.819l2.13,0.01c1.08,0.005,1.964-0.869,1.969-1.954	C60.075,16.164,59.198,15.28,58.118,15.276z"/><path fill="#E26600" d="M90.905,59.546c-0.09,20.153-16.496,36.416-36.649,36.324c-20.152-0.087-36.414-16.499-36.322-36.649	c0.09-20.148,16.496-36.414,36.649-36.322C74.733,22.986,90.995,39.396,90.905,59.546z"/><path fill="#FAA918" d="M86.302,59.526c-0.08,17.61-14.419,31.818-32.024,31.741c-17.608-0.08-31.818-14.417-31.741-32.024	c0.08-17.608,14.419-31.818,32.024-31.739C72.167,27.58,86.38,41.919,86.302,59.526z"/><g><path fill="#EF8200" d="M22.233,14.674c-6.812,4.302-8.846,13.312-4.543,20.124l24.667-15.581 C38.054,12.405,29.045,10.371,22.233,14.674z"/><path fill="#EF8200" d="M87.005,15.293c-6.812-4.303-15.821-2.268-20.124,4.543l24.668,15.581 C95.851,28.606,93.817,19.596,87.005,15.293z"/></g><polygon fill="#E26600" points="58.983,57.211 73.417,60.363 58.983,63.515"/><polygon fill="#E26600" points="51.676,56.275 55.371,32.801 59.065,56.275"/><circle fill="#E26600" cx="54.951" cy="59.943" r="5.918"/><circle fill="#FAA918" cx="54.951" cy="59.943" r="2.378"/></svg>