<?xml version="1.0" encoding="utf-8"?><!DOCTYPE svg PUBLIC "-//W3C//DTD SVG 1.1//EN" "http://www.w3.org/Graphics/SVG/1.1/DTD/svg11.dtd"><svg version="1.1" id="Locked" xmlns="http://www.w3.org/2000/svg" xmlns:xlink="http://www.w3.org/1999/xlink" x="0px" y="0px" width="110px" height="110px" viewBox="0 0 110 110" enable-background="new 0 0 110 110" xml:space="preserve"><path fill="#BCBCBC" d="M59.651,40.044l5.511-13.089h-4.168L47.386,40.044H27.662v0.015c-6.24,0.161-11.281,12.538-11.281,27.799	s5.04,27.638,11.281,27.799v0.101h56.144V40.044H59.651z"/><polygon fill="#A3A3A3" points="39.185,69.536 73.393,72.554 72.675,65.733"/><ellipse fill="#D8D8D8" cx="83.753" cy="67.901" rx="11.42" ry="27.857"/><ellipse fill="#BCBCBC" cx="83.753" cy="67.901" rx="7.201" ry="17.566"/><path fill="#A3A3A3" d="M52.896,31.782l0.033,0.05c0,0,0.012-0.033,0.019-0.048c0.017-0.001,0.035,0.002,0.051,0.002l-0.033-0.05	c1.276-2.679,0.917-6.446-1.219-9.708s-5.445-5.096-8.411-4.998l-0.033-0.05c-0.007,0.015-0.012,0.033-0.019,0.048	c-0.017,0.001-0.035-0.002-0.051-0.002l0.033,0.05c-1.276,2.679-0.917,6.446,1.219,9.708S49.93,31.881,52.896,31.782z"/><path fill="#A3A3A3" d="M17.769,54.568l31.209-0.325L19.207,49.58C18.658,51.109,18.171,52.771,17.769,54.568z"/><path fill="#A3A3A3" d="M20.245,88.681l25.142-2.483l-26.748-1.783C19.113,85.97,19.65,87.4,20.245,88.681z"/></svg>