<?xml version="1.0" encoding="utf-8"?><!DOCTYPE svg PUBLIC "-//W3C//DTD SVG 1.1//EN" "http://www.w3.org/Graphics/SVG/1.1/DTD/svg11.dtd"><svg version="1.1" id="Locked" xmlns="http://www.w3.org/2000/svg" xmlns:xlink="http://www.w3.org/1999/xlink" x="0px" y="0px" width="110px" height="110px" viewBox="0 0 110 110" enable-background="new 0 0 110 110" xml:space="preserve"><circle fill="#D8D8D8" cx="27.487" cy="72.53" r="12.073"/><g><path fill="#A3A3A3" d="M27.488,81.126c-4.741,0-8.599-3.856-8.599-8.596c0-4.74,3.857-8.596,8.599-8.596 c4.739,0,8.596,3.856,8.596,8.596C36.084,77.27,32.227,81.126,27.488,81.126z M27.488,66.264c-3.456,0-6.266,2.81-6.266,6.266 c0,3.455,2.809,6.266,6.266,6.266c3.454,0,6.263-2.81,6.263-6.266C33.751,69.075,30.942,66.264,27.488,66.264z"/></g><path fill="#A3A3A3" d="M69.701,69.638H59.063V59.15h5.519c6.92,0,12.55-5.63,12.55-12.548v-7.188h-6.079v7.188	c0,3.568-2.903,6.47-6.471,6.47H47.466c-3.568,0-6.471-2.902-6.471-6.47v-7.188h-6.079v7.188c0,6.919,5.629,12.548,12.55,12.548	h5.519v10.489H33.947v6.079h19.038v10.638c0,9.217,7.499,16.717,16.716,16.717c9.218,0,16.717-7.499,16.717-16.717	C86.418,77.138,78.918,69.638,69.701,69.638z M69.701,96.993c-5.865,0-10.638-4.772-10.638-10.638V75.717h10.638	c5.866,0,10.638,4.772,10.638,10.638C80.339,92.221,75.566,96.993,69.701,96.993z"/><g><path fill="#D8D8D8" d="M40.995,18.548c0-3.568,2.903-6.47,6.471-6.47V6c-6.92,0-12.55,5.63-12.55,12.548v20.865h6.079V18.548z"/><path fill="#D8D8D8" d="M64.582,6v6.079c3.568,0,6.471,2.902,6.471,6.47v20.865h6.079V18.548C77.131,11.63,71.502,6,64.582,6z"/></g></svg>