<?xml version="1.0" encoding="utf-8"?><!DOCTYPE svg PUBLIC "-//W3C//DTD SVG 1.1//EN" "http://www.w3.org/Graphics/SVG/1.1/DTD/svg11.dtd"><svg version="1.1" id="Golden" xmlns="http://www.w3.org/2000/svg" xmlns:xlink="http://www.w3.org/1999/xlink" x="0px" y="0px" width="110px" height="110px" viewBox="0 0 110 110" enable-background="new 0 0 110 110" xml:space="preserve"><path fill="#EF8200" d="M93.013,47.925c0-20.461-16.587-37.047-37.047-37.047c-20.461,0-37.048,16.587-37.048,37.047	c0,17.618,12.31,32.334,28.79,36.091v12.801c8.066,0,14.827-5.465,16.855-12.888C80.871,80.046,93.013,65.42,93.013,47.925z"/><g><g><path fill="#FAA918" d="M56.801,41.085c0-7.921-6.444-14.366-14.366-14.366v9.795c2.52,0,4.571,2.051,4.571,4.571 s-2.051,4.571-4.571,4.571v9.795c0.004,0,0.007-0.001,0.007-0.001l0.004,0.46h9.795v-4.355 C55.04,48.932,56.801,45.215,56.801,41.085z"/></g><g><circle fill="#FAA918" cx="47.374" cy="62.756" r="4.857"/></g><g><circle fill="#FAA918" cx="67.898" cy="62.756" r="4.857"/></g></g><g><rect x="62.959" y="26.92" fill="#FAA918" width="9.236" height="28.798"/></g></svg>