<?xml version="1.0" encoding="utf-8"?><!DOCTYPE svg PUBLIC "-//W3C//DTD SVG 1.1//EN" "http://www.w3.org/Graphics/SVG/1.1/DTD/svg11.dtd"><svg version="1.1" id="Golden" xmlns="http://www.w3.org/2000/svg" xmlns:xlink="http://www.w3.org/1999/xlink" x="0px" y="0px" width="110px" height="110px" viewBox="0 0 110 110" enable-background="new 0 0 110 110" xml:space="preserve"><polygon fill="#E26600" points="81.958,68.501 46.08,68.501 52.06,53.552 75.979,53.552"/><polygon fill="#E26600" points="65.203,53.552 29.324,53.552 35.304,38.603 59.223,38.603"/><polygon fill="#E26600" points="46.08,68.501 10.202,68.501 16.182,53.552 40.1,53.552"/><polygon fill="#EF8200" points="96.908,53.552 86.132,53.552 80.152,38.603 56.233,38.603 50.253,53.552 37.111,53.552 31.131,68.501 67.009,68.501 61.029,53.552 72.989,53.552 67.009,68.501 102.887,68.501"/><g><path fill="#EF8200" d="M81.708,33.421c2.361,0.994,4.24,2.904,5.193,5.286c0.953-2.382,2.833-4.292,5.193-5.286 c-2.361-0.994-4.24-2.904-5.193-5.286C85.949,30.517,84.069,32.428,81.708,33.421z"/></g><g><path fill="#EF8200" d="M25.245,79.333c2.34,0.985,4.203,2.879,5.147,5.239c0.945-2.361,2.808-4.254,5.147-5.239 c-2.34-0.985-4.203-2.879-5.147-5.239C29.447,76.455,27.585,78.348,25.245,79.333z"/></g></svg>