<?xml version="1.0" encoding="utf-8"?><!DOCTYPE svg PUBLIC "-//W3C//DTD SVG 1.1//EN" "http://www.w3.org/Graphics/SVG/1.1/DTD/svg11.dtd"><svg version="1.1" id="Locked" xmlns="http://www.w3.org/2000/svg" xmlns:xlink="http://www.w3.org/1999/xlink" x="0px" y="0px" width="110px" height="110px" viewBox="0 0 110 110" enable-background="new 0 0 110 110" xml:space="preserve"><path fill="#BCBCBC" d="M70.589,50.82c-0.556-2.449-1.651-4.688-3.158-6.592l12.967-0.499v-1.188L64.487,41.34	c-2.44-1.866-5.406-3.072-8.645-3.345l-0.567-14.743h-1.188l-1.113,14.746c-3.237,0.284-6.2,1.502-8.635,3.378l-15.435,1.165v1.188	l12.551,0.483c-1.51,1.903-2.608,4.144-3.166,6.593L4.242,55.088v2.094h5.887c0.174,1.112,1.095,1.978,2.256,1.978	s2.082-0.866,2.256-1.978h10.077c-1.805,1.422-2.985,3.602-2.985,6.078c0,4.289,3.477,7.765,7.765,7.765s7.765-3.477,7.765-7.765	c0-2.476-1.181-4.656-2.985-6.078h3.819c1.284,7.877,8.1,13.895,16.34,13.895s15.056-6.018,16.34-13.895h3.639	c-1.805,1.422-2.985,3.602-2.985,6.078c0,4.289,3.477,7.765,7.765,7.765s7.765-3.477,7.765-7.765c0-2.476-1.181-4.656-2.985-6.078	h10.53c0.174,1.112,1.095,1.978,2.256,1.978c1.161,0,2.082-0.866,2.256-1.978h5.499v-2.094L70.589,50.82z"/><circle fill="#A3A3A3" cx="29.498" cy="63.259" r="5.973"/><circle fill="#848484" cx="29.498" cy="63.259" r="1.902"/><circle fill="#A3A3A3" cx="79.196" cy="63.259" r="5.973"/><circle fill="#848484" cx="79.196" cy="63.259" r="1.902"/><path fill="#A3A3A3" d="M38.098,57.189c1.287,7.873,8.102,13.888,16.339,13.888s15.052-6.015,16.339-13.888H38.098z"/><g><polygon fill="#7C7C7C" points="55.407,53.28 64.05,53.28 62.079,49.337 55.407,49.337"/><polygon fill="#7C7C7C" points="53.261,49.337 46.309,49.337 44.338,53.28 53.261,53.28"/></g></svg>