<?xml version="1.0" encoding="utf-8"?><!DOCTYPE svg PUBLIC "-//W3C//DTD SVG 1.1//EN" "http://www.w3.org/Graphics/SVG/1.1/DTD/svg11.dtd"><svg version="1.1" id="Locked" xmlns="http://www.w3.org/2000/svg" xmlns:xlink="http://www.w3.org/1999/xlink" x="0px" y="0px" width="110px" height="110px" viewBox="0 0 110 110" enable-background="new 0 0 110 110" xml:space="preserve"><path fill="#D8D8D8" d="M87.478,87.65c-5.569,5.585-14.611,5.598-20.196,0.03L21.774,42.305c-5.585-5.569-5.598-14.611-0.03-20.196	l0,0c5.569-5.585,14.611-5.598,20.196-0.03l45.508,45.375C93.034,73.023,93.047,82.065,87.478,87.65L87.478,87.65z"/><rect x="40.45" y="39.696" transform="matrix(0.7081 0.7061 -0.7061 0.7081 54.8066 -22.4934)" fill="#E8AE82" width="28.324" height="30.704"/><path fill="#C18156" d="M41.029,31.758c-0.835,0.838-0.833,2.194,0.004,3.029l0,0c0.838,0.835,2.194,0.833,3.029-0.004l0,0	c0.835-0.838,0.833-2.194-0.004-3.029l0,0C43.221,30.918,41.865,30.92,41.029,31.758L41.029,31.758z"/><path fill="#C18156" d="M31.45,41.365c-0.835,0.838-0.833,2.194,0.004,3.029l0,0c0.838,0.835,2.194,0.833,3.029-0.004l0,0	c0.835-0.838,0.833-2.194-0.004-3.029l0,0C33.642,40.525,32.285,40.527,31.45,41.365L31.45,41.365z"/><path fill="#C18156" d="M28.401,28.242c-0.835,0.838-0.833,2.194,0.004,3.029l0,0c0.838,0.835,2.194,0.833,3.029-0.004l0,0	c0.835-0.838,0.833-2.194-0.004-3.029l0,0C30.593,27.402,29.237,27.404,28.401,28.242L28.401,28.242z"/><path fill="#BCBCBC" d="M66.845,76.656c0.835-0.838,0.833-2.194-0.004-3.029l0,0c-0.838-0.835-2.194-0.833-3.029,0.004l0,0	c-0.835,0.838-0.833,2.194,0.004,3.029l0,0C64.653,77.496,66.01,77.494,66.845,76.656L66.845,76.656z"/><path fill="#BCBCBC" d="M76.424,67.049c0.835-0.838,0.833-2.194-0.004-3.029l0,0c-0.838-0.835-2.194-0.833-3.029,0.004l0,0	c-0.835,0.838-0.833,2.194,0.004,3.029l0,0C74.232,67.889,75.589,67.887,76.424,67.049L76.424,67.049z"/><path fill="#BCBCBC" d="M79.473,80.172c0.835-0.838,0.833-2.194-0.004-3.029l0,0c-0.838-0.835-2.194-0.833-3.029,0.004l0,0	c-0.835,0.838-0.833,2.194,0.004,3.029l0,0C77.281,81.012,78.637,81.01,79.473,80.172L79.473,80.172z"/><path fill="#D8D8D8" d="M87.478,87.65c-5.569,5.585-14.611,5.598-20.196,0.03L21.774,42.305c-5.585-5.569-5.598-14.611-0.03-20.196	l0,0c5.569-5.585,14.611-5.598,20.196-0.03l45.508,45.375C93.034,73.023,93.047,82.065,87.478,87.65L87.478,87.65z"/><rect x="40.45" y="39.696" transform="matrix(0.7081 0.7061 -0.7061 0.7081 54.8066 -22.4934)" fill="#E8AE82" width="28.324" height="30.704"/><path fill="#D8D8D8" d="M87.382,22.013c5.585,5.569,5.598,14.611,0.03,20.196L42.037,87.716c-5.569,5.585-14.611,5.598-20.196,0.03	l0,0c-5.585-5.569-5.598-14.611-0.03-20.196l45.375-45.508C72.755,16.457,81.797,16.444,87.382,22.013L87.382,22.013z"/><path fill="#BCBCBC" d="M41.029,31.758c-0.835,0.838-0.833,2.194,0.004,3.029l0,0c0.838,0.835,2.194,0.833,3.029-0.004l0,0	c0.835-0.838,0.833-2.194-0.004-3.029l0,0C43.221,30.918,41.865,30.92,41.029,31.758L41.029,31.758z"/><path fill="#C18156" d="M31.49,68.461c0.838,0.835,2.194,0.833,3.029-0.004l0,0c0.835-0.838,0.833-2.194-0.004-3.029l0,0	c-0.838-0.835-2.194-0.833-3.029,0.004l0,0C30.65,66.27,30.652,67.626,31.49,68.461L31.49,68.461z"/><path fill="#C18156" d="M41.097,78.041c0.838,0.835,2.194,0.833,3.029-0.004l0,0c0.835-0.838,0.833-2.194-0.004-3.029l0,0	c-0.838-0.835-2.194-0.833-3.029,0.004l0,0C40.257,75.849,40.259,77.205,41.097,78.041L41.097,78.041z"/><path fill="#C18156" d="M27.974,81.089c0.838,0.835,2.194,0.833,3.029-0.004l0,0c0.835-0.838,0.833-2.194-0.004-3.029l0,0	c-0.838-0.835-2.194-0.833-3.029,0.004l0,0C27.134,78.898,27.136,80.254,27.974,81.089L27.974,81.089z"/><path fill="#BCBCBC" d="M31.45,41.365c-0.835,0.838-0.833,2.194,0.004,3.029l0,0c0.838,0.835,2.194,0.833,3.029-0.004l0,0	c0.835-0.838,0.833-2.194-0.004-3.029l0,0C33.642,40.525,32.285,40.527,31.45,41.365L31.45,41.365z"/><path fill="#BCBCBC" d="M28.401,28.242c-0.835,0.838-0.833,2.194,0.004,3.029l0,0c0.838,0.835,2.194,0.833,3.029-0.004l0,0	c0.835-0.838,0.833-2.194-0.004-3.029l0,0C30.593,27.402,29.237,27.404,28.401,28.242L28.401,28.242z"/><path fill="#BCBCBC" d="M66.845,76.656c0.835-0.838,0.833-2.194-0.004-3.029l0,0c-0.838-0.835-2.194-0.833-3.029,0.004l0,0	c-0.835,0.838-0.833,2.194,0.004,3.029l0,0C64.653,77.496,66.01,77.494,66.845,76.656L66.845,76.656z"/><path fill="#D8D8D8" d="M87.382,22.013c5.585,5.569,5.598,14.611,0.03,20.196L42.037,87.716c-5.569,5.585-14.611,5.598-20.196,0.03	l0,0c-5.585-5.569-5.598-14.611-0.03-20.196l45.375-45.508C72.755,16.457,81.797,16.444,87.382,22.013L87.382,22.013z"/><path fill="#BCBCBC" d="M31.49,68.461c0.838,0.835,2.194,0.833,3.029-0.004l0,0c0.835-0.838,0.833-2.194-0.004-3.029l0,0	c-0.838-0.835-2.194-0.833-3.029,0.004l0,0C30.65,66.27,30.652,67.626,31.49,68.461L31.49,68.461z"/><path fill="#BCBCBC" d="M41.097,78.041c0.838,0.835,2.194,0.833,3.029-0.004l0,0c0.835-0.838,0.833-2.194-0.004-3.029l0,0	c-0.838-0.835-2.194-0.833-3.029,0.004l0,0C40.257,75.849,40.259,77.205,41.097,78.041L41.097,78.041z"/><path fill="#BCBCBC" d="M27.974,81.089c0.838,0.835,2.194,0.833,3.029-0.004l0,0c0.835-0.838,0.833-2.194-0.004-3.029l0,0	c-0.838-0.835-2.194-0.833-3.029,0.004l0,0C27.134,78.898,27.136,80.254,27.974,81.089L27.974,81.089z"/><path fill="#C18156" d="M76.388,42.646c-0.838-0.835-2.194-0.833-3.029,0.004l0,0c-0.835,0.838-0.833,2.194,0.004,3.029l0,0	c0.838,0.835,2.194,0.833,3.029-0.004l0,0C77.228,44.837,77.226,43.481,76.388,42.646L76.388,42.646z"/><path fill="#C18156" d="M66.781,33.067c-0.838-0.835-2.194-0.833-3.029,0.004l0,0c-0.835,0.838-0.833,2.194,0.004,3.029l0,0	c0.838,0.835,2.194,0.833,3.029-0.004l0,0C67.621,35.258,67.619,33.902,66.781,33.067L66.781,33.067z"/><path fill="#C18156" d="M79.904,30.018c-0.838-0.835-2.194-0.833-3.029,0.004l0,0c-0.835,0.838-0.833,2.194,0.004,3.029l0,0	c0.838,0.835,2.194,0.833,3.029-0.004l0,0C80.744,32.21,80.742,30.853,79.904,30.018L79.904,30.018z"/><path fill="#BCBCBC" d="M76.424,67.049c0.835-0.838,0.833-2.194-0.004-3.029l0,0c-0.838-0.835-2.194-0.833-3.029,0.004l0,0	c-0.835,0.838-0.833,2.194,0.004,3.029l0,0C74.232,67.889,75.589,67.887,76.424,67.049L76.424,67.049z"/><path fill="#BCBCBC" d="M79.473,80.172c0.835-0.838,0.833-2.194-0.004-3.029l0,0c-0.838-0.835-2.194-0.833-3.029,0.004l0,0	c-0.835,0.838-0.833,2.194,0.004,3.029l0,0C77.281,81.012,78.637,81.01,79.473,80.172L79.473,80.172z"/><rect x="40.691" y="40.747" transform="matrix(0.7061 -0.7081 0.7081 0.7061 -22.7911 54.9956)" fill="#BCBCBC" width="28.324" height="28.411"/><path fill="#BCBCBC" d="M76.388,42.646c-0.838-0.835-2.194-0.833-3.029,0.004l0,0c-0.835,0.838-0.833,2.194,0.004,3.029l0,0	c0.838,0.835,2.194,0.833,3.029-0.004l0,0C77.228,44.837,77.226,43.481,76.388,42.646L76.388,42.646z"/><path fill="#BCBCBC" d="M66.781,33.067c-0.838-0.835-2.194-0.833-3.029,0.004l0,0c-0.835,0.838-0.833,2.194,0.004,3.029l0,0	c0.838,0.835,2.194,0.833,3.029-0.004l0,0C67.621,35.258,67.619,33.902,66.781,33.067L66.781,33.067z"/><path fill="#BCBCBC" d="M79.904,30.018c-0.838-0.835-2.194-0.833-3.029,0.004l0,0c-0.835,0.838-0.833,2.194,0.004,3.029l0,0	c0.838,0.835,2.194,0.833,3.029-0.004l0,0C80.744,32.21,80.742,30.853,79.904,30.018L79.904,30.018z"/></svg>