<?xml version="1.0" encoding="utf-8"?><!DOCTYPE svg PUBLIC "-//W3C//DTD SVG 1.1//EN" "http://www.w3.org/Graphics/SVG/1.1/DTD/svg11.dtd"><svg version="1.1" id="Locked" xmlns="http://www.w3.org/2000/svg" xmlns:xlink="http://www.w3.org/1999/xlink" x="0px" y="0px" width="110px" height="110px" viewBox="0 0 110 110" enable-background="new 0 0 110 110" xml:space="preserve"><path fill="#D8D8D8" d="M81.972,9.097H54.591v47.917L31.501,77.266c-5.655,5.655-5.655,14.824,0,20.479	c5.655,5.655,14.824,5.655,20.479,0l25.702-22.543c2.672-2.672,4.036-6.131,4.183-9.631h0.108V9.097z"/><path fill="#BCBCBC" d="M69.598,69.783c0,3.594,1.415,6.838,3.679,9.281l4.404-3.862c2.672-2.672,4.036-6.131,4.183-9.631h0.108	v-9.346C75.039,56.897,69.598,62.673,69.598,69.783z"/><path fill="#BCBCBC" d="M31.784,77.017l-0.284,0.249c-5.655,5.655-5.655,14.824,0,20.479c5.505,5.505,14.315,5.606,19.997,0.393	L31.784,77.017z"/><rect x="54.591" y="17.39" fill="#BCBCBC" width="27.381" height="5.002"/><rect x="54.591" y="26.868" fill="#BCBCBC" width="27.381" height="5.002"/></svg>