<?xml version="1.0" encoding="utf-8"?><!DOCTYPE svg PUBLIC "-//W3C//DTD SVG 1.1//EN" "http://www.w3.org/Graphics/SVG/1.1/DTD/svg11.dtd"><svg version="1.1" id="Unlocked" xmlns="http://www.w3.org/2000/svg" xmlns:xlink="http://www.w3.org/1999/xlink" x="0px" y="0px" width="110px" height="110px" viewBox="0 0 110 110" enable-background="new 0 0 110 110" xml:space="preserve"><path fill="#BC2F2F" d="M21.565,38.857c0-15.996,12.967-28.962,28.962-28.962l0,0c15.996,0,28.962,12.967,28.962,28.962v15.155	c0,15.996-12.967,28.962-28.962,28.962l0,0c-15.996,0-28.962-12.967-28.962-28.962V38.857z"/><path fill="#FFAC8F" d="M63.154,36.687c-5.362-0.284-10.506,0.485-15.833,1.008c-5.092,0.5-10.301,0.986-15.314,0.293	c-1.127,2.833-1.765,5.913-1.765,9.148v27.223c0,13.686,11.094,24.78,24.78,24.78s24.78-11.095,24.78-24.78V47.136	c0-3.589-0.779-6.991-2.152-10.071C72.794,37.784,68.314,36.96,63.154,36.687z"/><path fill="#FFFFFF" d="M40.424,67.483c0,5.394-4.373,9.766-9.766,9.766l0,0c-5.394,0-9.766-4.373-9.766-9.766l0,0	c0-5.394,4.373-9.766,9.766-9.766l0,0C36.052,57.717,40.424,62.089,40.424,67.483L40.424,67.483z"/><path fill="#FFFFFF" d="M30.242,57.956v16.404c0,13.686,11.095,24.78,24.78,24.78s24.78-11.095,24.78-24.78V57.956H30.242z"/><path fill="#E2E2E2" d="M55.298,67.33l18.99,23.07c3.443-4.319,5.514-9.811,5.514-15.799V57.955H55.777l-0.479,1.831l-0.479-1.831	H30.242v16.646c0,6.146,2.179,11.771,5.787,16.138L55.298,67.33z"/><path fill="#FFAC8F" d="M63.159,57.38c0,4.43-3.591,8.021-8.021,8.021l0,0c-4.43,0-8.021-3.591-8.021-8.021V44.105	c0-4.43,3.591-8.021,8.021-8.021l0,0c4.43,0,8.021,3.591,8.021,8.021V57.38z"/><path fill="#E89277" d="M38.134,51.621c0-2.474,2.005-4.479,4.479-4.479s4.479,2.005,4.479,4.479"/><path fill="#E89277" d="M64.403,51.621c0-2.474,2.005-4.479,4.479-4.479s4.479,2.005,4.479,4.479"/><rect x="29.776" y="33.837" fill="#FFFFFF" width="50.259" height="9.852"/></svg>