<?xml version="1.0" encoding="utf-8"?><!DOCTYPE svg PUBLIC "-//W3C//DTD SVG 1.1//EN" "http://www.w3.org/Graphics/SVG/1.1/DTD/svg11.dtd"><svg version="1.1" id="Unlocked" xmlns="http://www.w3.org/2000/svg" xmlns:xlink="http://www.w3.org/1999/xlink" x="0px" y="0px" width="110px" height="110px" viewBox="0 0 110 110" enable-background="new 0 0 110 110" xml:space="preserve"><rect x="26.094" y="55.989" fill="#FFFFFF" width="50.301" height="39.547"/><rect x="26.094" y="55.989" fill="#E3EDD1" width="50.301" height="39.547"/><path fill="#FFFFFF" d="M95.604,55.424c0,15.913-12.9,28.813-28.813,28.813s-28.813-12.9-28.813-28.813"/><rect x="17.074" y="19.267" fill="#FFFFFF" width="31.073" height="45.762"/><path fill="#C6C6C6" d="M32.95,28.306c0,1.014,1.391,1.836,3.107,1.836h4.972c1.716,0,3.107-0.822,3.107-1.836l0,0	c0-1.014-1.391-1.836-3.107-1.836h-4.972C34.341,26.47,32.95,27.292,32.95,28.306L32.95,28.306z"/><rect x="14.72" y="15.312" fill="#FFFFFF" width="35.216" height="6.497"/><path fill="#FFFFFF" d="M95.039,50.34c0,1.248-1.012,2.26-2.26,2.26H47.017c-1.248,0-2.26-1.012-2.26-2.26l0,0	c0-1.248,1.012-2.26,2.26-2.26h45.762C94.027,48.08,95.039,49.092,95.039,50.34L95.039,50.34z"/><rect x="55.209" y="72.373" fill="#FFFFFF" width="23.446" height="23.163"/></svg>