<?xml version="1.0" encoding="utf-8"?><!DOCTYPE svg PUBLIC "-//W3C//DTD SVG 1.1//EN" "http://www.w3.org/Graphics/SVG/1.1/DTD/svg11.dtd"><svg version="1.1" id="Locked" xmlns="http://www.w3.org/2000/svg" xmlns:xlink="http://www.w3.org/1999/xlink" x="0px" y="0px" width="110px" height="110px" viewBox="0 0 110 110" enable-background="new 0 0 110 110" xml:space="preserve"><path fill="#BCBCBC" d="M40.435,21.379C28.052,21.531,18.059,31.611,18.059,44.03h22.375h0.283h53.673V21.371H40.435V21.379z"/><path fill="#BCBCBC" d="M71.851,88.904c12.383-0.152,22.375-10.232,22.375-22.652H71.851h-0.283H17.896v22.659h53.956V88.904z"/><rect x="17.046" y="65.261" fill="#D8D8D8" width="10.48" height="25.208"/><rect x="34.429" y="76.068" fill="#A3A3A3" width="3.346" height="12.773"/><rect x="54.017" y="76.068" fill="#A3A3A3" width="3.346" height="12.773"/><path fill="#A3A3A3" d="M73.605,88.795c1.143-0.102,2.259-0.289,3.346-0.555V76.068h-3.346V88.795z"/><rect x="63.811" y="82.311" fill="#A3A3A3" width="3.346" height="6.529"/><rect x="44.223" y="82.311" fill="#A3A3A3" width="3.346" height="6.529"/><path fill="#A3A3A3" d="M40.067,66.501c0.066,0.002,0.129,0.012,0.195,0.014v-0.014h31.306h0.283h22.375	c0-12.419-9.993-22.499-22.375-22.651v-0.007H39.988v0.012H18.081c0,12.265,9.742,22.226,21.907,22.64v0.006H40.067z"/><rect x="85.022" y="19.803" fill="#D8D8D8" width="10.48" height="25.208"/><rect x="73.391" y="21.262" fill="#A3A3A3" width="3.346" height="12.773"/><rect x="53.803" y="21.262" fill="#A3A3A3" width="3.346" height="12.773"/><path fill="#A3A3A3" d="M34.215,22.342v11.693h3.346V21.617C36.416,21.777,35.298,22.018,34.215,22.342z"/><rect x="44.009" y="21.262" fill="#A3A3A3" width="3.346" height="6.529"/><rect x="63.597" y="21.262" fill="#A3A3A3" width="3.346" height="6.529"/></svg>