<?xml version="1.0" encoding="utf-8"?><!DOCTYPE svg PUBLIC "-//W3C//DTD SVG 1.1//EN" "http://www.w3.org/Graphics/SVG/1.1/DTD/svg11.dtd"><svg version="1.1" id="Locked" xmlns="http://www.w3.org/2000/svg" xmlns:xlink="http://www.w3.org/1999/xlink" x="0px" y="0px" width="110px" height="110px" viewBox="0 0 110 110" enable-background="new 0 0 110 110" xml:space="preserve"><rect x="38.355" y="20.926" fill="#D8D8D8" width="32.078" height="73.728"/><path fill="#BCBCBC" d="M70.47,13.941l-11.576,4.497c-0.916-1.454-2.524-2.428-4.37-2.428c-2.053,0-3.811,1.205-4.647,2.938	l-11.558-4.49v12.72l11.309-4.394c0.677,2.069,2.6,3.574,4.896,3.574c2.432,0,4.458-1.684,5.011-3.946l10.935,4.248V13.941z"/><circle fill="#BCBCBC" cx="54.783" cy="36.448" r="2.49"/><circle fill="#BCBCBC" cx="54.783" cy="57.143" r="2.49"/><circle fill="#BCBCBC" cx="54.783" cy="77.839" r="2.49"/><polygon fill="#BCBCBC" points="21.749,39.111 26.589,43.95 21.267,49.272 38.309,94.676 38.377,27.07"/><polygon fill="#BCBCBC" points="83.149,43.95 87.881,39.218 70.391,26.553 70.458,94.158 87.624,48.425"/></svg>