<?xml version="1.0" encoding="utf-8"?><!DOCTYPE svg PUBLIC "-//W3C//DTD SVG 1.1//EN" "http://www.w3.org/Graphics/SVG/1.1/DTD/svg11.dtd"><svg version="1.1" id="Unlocked" xmlns="http://www.w3.org/2000/svg" xmlns:xlink="http://www.w3.org/1999/xlink" x="0px" y="0px" width="110px" height="110px" viewBox="0 0 110 110" enable-background="new 0 0 110 110" xml:space="preserve"><path fill="#C17B4C" d="M62.61,46.085c1.347-1.86,3.947-2.275,5.806-0.928l15.799,11.446c1.86,1.347,2.275,3.947,0.928,5.806l0,0	c-1.347,1.86-3.947,2.275-5.806,0.928L63.538,51.892C61.679,50.545,61.263,47.945,62.61,46.085L62.61,46.085z"/><path fill="#C17B4C" d="M38.667,76.341c-1.678-1.226-2.044-3.58-0.818-5.257l12.478-17.075c1.226-1.678,3.58-2.044,5.257-0.818l0,0	c1.678,1.226,2.044,3.58,0.818,5.257L43.924,75.523C42.699,77.201,40.345,77.567,38.667,76.341L38.667,76.341z"/><path fill="#C17B4C" d="M63.308,100.469c-2.078,0-3.762-1.684-3.762-3.762V75.56c0-2.078,1.684-3.762,3.762-3.762l0,0	c2.078,0,3.762,1.684,3.762,3.762v21.148C67.07,98.785,65.386,100.469,63.308,100.469L63.308,100.469z"/><path fill="#C17B4C" d="M20.465,58.475c1.226-1.678,3.58-2.044,5.257-0.818l17.075,12.478c1.678,1.226,2.044,3.58,0.818,5.257l0,0	c-1.226,1.678-3.58,2.044-5.257,0.818L21.282,63.732C19.605,62.507,19.239,60.153,20.465,58.475L20.465,58.475z"/><rect x="66.03" y="35.168" transform="matrix(0.8219 0.5697 -0.5697 0.8219 35.005 -32.6913)" fill="#C17B4C" width="7.5" height="8.927"/><path fill="#FFFFFF" d="M78.574,101.105c0-3.013-2.442-5.455-5.455-5.455l-13.588-0.019v5.447c0,0.009-0.003,0.018-0.003,0.027	H78.574z"/><path fill="#FFD833" d="M54.917,77.584l16.07-23.868c2.805-3.997,1.839-9.512-2.158-12.318l0,0	c-3.997-2.805-9.512-1.839-12.318,2.158L40.328,66.634"/><path fill="#C17B4C" d="M80.116,63.404c-1.477-1.13-1.757-3.243-0.628-4.719l5.771-8.716c1.13-1.477,3.243-1.757,4.719-0.628l0,0	c1.477,1.13,1.757,3.243,0.628,4.719l-5.771,8.716C83.706,64.253,81.593,64.534,80.116,63.404L80.116,63.404z"/><path fill="#C17B4C" d="M36.175,47.443c-1.477-1.13-1.757-3.243-0.628-4.719l5.771-8.716c1.13-1.477,3.243-1.757,4.719-0.628l0,0	c1.477,1.13,1.757,3.243,0.628,4.719l-5.771,8.716C39.764,48.292,37.651,48.573,36.175,47.443L36.175,47.443z"/><path fill="#FFFFFF" d="M11.447,70.927c2.478,1.713,5.876,1.093,7.589-1.385l7.742-11.166l-4.48-3.097	c-0.008-0.005-0.013-0.012-0.021-0.018L11.447,70.927z"/><path fill="#C17B4C" d="M40.906,34.598c1.023-1.808,3.319-2.444,5.127-1.421l18.405,10.416c1.808,1.023,2.444,3.319,1.421,5.127l0,0	c-1.023,1.808-3.319,2.444-5.127,1.421L42.327,39.725C40.518,38.701,39.882,36.406,40.906,34.598L40.906,34.598z"/><rect x="40.571" y="64.393" transform="matrix(0.825 0.5651 -0.5651 0.825 48.6597 -17.3774)" fill="#FFFFFF" width="23.643" height="10.995"/><path fill="#70B700" d="M65.106,35.55"/><path fill="#915126" d="M65.496,22.75c-2.048,3.717-6.722,5.07-10.439,3.022c-3.717-2.048-5.07-6.722-3.022-10.439"/><path fill="#C17B4C" d="M82.102,30.742l6.475,4.53c1.454-2.132,2.307-4.708,2.307-7.483c0-7.346-5.955-13.301-13.301-13.301	c-7.346,0-13.301,5.955-13.301,13.301c0,7.346,5.955,13.301,13.301,13.301c2.046,0,3.977-0.476,5.709-1.301	C80.638,37.559,80.078,33.635,82.102,30.742z"/><path fill="#CECECE" d="M45.711,58.726l-6.178,9.02l8.696,5.956c-4.641-3.535-5.784-10.098-2.458-14.974	C45.771,58.729,45.722,58.727,45.711,58.726z"/><path fill="#FFFFFF" d="M83.914,27.12L83.914,27.12c0.521-0.916,1.685-1.237,2.602-0.717l0,0c0.916,0.521,1.237,1.685,0.717,2.602	l0,0"/><path fill="#915126" d="M75.903,22.085c1.677-2.798,5.305-3.706,8.103-2.029l6.274,3.762c-1.689-5.407-6.734-9.331-12.697-9.331	c-7.346,0-13.301,5.955-13.301,13.301c0,3.243,1.164,6.213,3.093,8.521L75.903,22.085z"/><circle fill="#C17B4C" cx="72.734" cy="26.764" r="3.445"/></svg>