<?xml version="1.0" encoding="utf-8"?><!DOCTYPE svg PUBLIC "-//W3C//DTD SVG 1.1//EN" "http://www.w3.org/Graphics/SVG/1.1/DTD/svg11.dtd"><svg version="1.1" id="Unlocked" xmlns="http://www.w3.org/2000/svg" xmlns:xlink="http://www.w3.org/1999/xlink" x="0px" y="0px" width="110px" height="110px" viewBox="0 0 110 110" enable-background="new 0 0 110 110" xml:space="preserve"><path fill="#4949DB" d="M94.774,56.712c0,20.619-16.715,37.335-37.335,37.335S20.105,77.331,20.105,56.712"/><path fill="#4949DB" d="M83.334,81.963c-14.58,14.58-38.219,14.58-52.799,0s-14.58-38.219,0-52.799"/><path fill="#4949DB" d="M41.441,18.494c2.279,3.844,1.011,8.808-2.833,11.087s-8.808,1.011-11.087-2.833"/><path fill="#4949DB" d="M17.826,20.698c-1.412,4.24,0.881,8.821,5.121,10.233c4.24,1.412,8.821-0.881,10.233-5.121"/><path fill="#4C71D8" d="M57.439,94.046c20.558,0,37.226-16.618,37.326-37.153L34.444,86.096	C40.779,91.07,48.757,94.046,57.439,94.046z"/><path fill="#4949DB" d="M27.516,87.468L27.516,87.468c2.51,6.247,9.609,9.277,15.856,6.767l0,0c6.247-2.51,9.277-9.609,6.767-15.856	l0,0"/><path fill="#FFFFFF" d="M48.145,78.136"/><circle fill="#CBE9F4" cx="75.161" cy="43.715" r="2.205"/><circle fill="#CBE9F4" cx="82.487" cy="34.973" r="3.151"/><circle fill="#CBE9F4" cx="74.925" cy="23.63" r="3.859"/><path fill="#FFFFFF" d="M54.334,71.042c-0.034-0.087-0.031-0.18-0.075-0.265c-0.69-1.347-2.342-1.879-3.689-1.189	c-1.347,0.69-1.879,2.342-1.189,3.689c0.044,0.085,0.121,0.137,0.172,0.216L54.334,71.042z"/></svg>