<?xml version="1.0" encoding="utf-8"?><!DOCTYPE svg PUBLIC "-//W3C//DTD SVG 1.1//EN" "http://www.w3.org/Graphics/SVG/1.1/DTD/svg11.dtd"><svg version="1.1" id="Locked" xmlns="http://www.w3.org/2000/svg" xmlns:xlink="http://www.w3.org/1999/xlink" x="0px" y="0px" width="110px" height="110px" viewBox="0 0 110 110" enable-background="new 0 0 110 110" xml:space="preserve"><path fill="#C6C6C6" d="M94.112,63.182V52.108c0-21.62-17.527-39.147-39.147-39.147S15.818,30.488,15.818,52.108V71.53h0.033	c0.24,6.65,5.692,11.971,12.401,11.971c3.482,0,6.624-1.436,8.88-3.744v12.897c0,2.744,2.225,4.969,4.969,4.969	c2.744,0,4.969-2.225,4.969-4.969v-4.533h2.766v4.533c0,2.744,2.225,4.969,4.969,4.969c2.744,0,4.969-2.225,4.969-4.969v-4.533	h2.766v4.533c0,2.744,2.225,4.969,4.969,4.969s4.969-2.225,4.969-4.969V79.347c2.275,2.544,5.572,4.155,9.254,4.155	c6.861,0,12.424-5.562,12.424-12.424v-7.008C94.157,63.77,94.133,63.476,94.112,63.182z M33.417,71.942	c-5.377,0-9.736-4.359-9.736-9.736s4.359-9.736,9.736-9.736c5.377,0,9.736,4.359,9.736,9.736S38.794,71.942,33.417,71.942z M48.819,76.001l6.196-8.278l6.196,8.278H48.819z M76.662,71.942c-5.377,0-9.736-4.359-9.736-9.736s4.359-9.736,9.736-9.736	c5.377,0,9.736,4.359,9.736,9.736S82.039,71.942,76.662,71.942z"/></svg>