<?xml version="1.0" encoding="utf-8"?><!DOCTYPE svg PUBLIC "-//W3C//DTD SVG 1.1//EN" "http://www.w3.org/Graphics/SVG/1.1/DTD/svg11.dtd"><svg version="1.1" id="Golden" xmlns="http://www.w3.org/2000/svg" xmlns:xlink="http://www.w3.org/1999/xlink" x="0px" y="0px" width="110px" height="110px" viewBox="0 0 110 110" enable-background="new 0 0 110 110" xml:space="preserve"><path fill="#EF8200" d="M94.564,63.415V52.35c0-21.604-17.513-39.117-39.117-39.117S16.33,30.746,16.33,52.35v19.407h0.033	c0.24,6.645,5.688,11.962,12.392,11.962c3.479,0,6.619-1.435,8.874-3.741v12.888c0,2.742,2.223,4.965,4.965,4.965	s4.965-2.223,4.965-4.965v-4.53h2.764v4.53c0,2.742,2.223,4.965,4.965,4.965c2.742,0,4.965-2.223,4.965-4.965v-4.53h2.764v4.53	c0,2.742,2.223,4.965,4.965,4.965s4.965-2.223,4.965-4.965V79.568c2.273,2.542,5.568,4.151,9.247,4.151	c6.856,0,12.414-5.558,12.414-12.414v-7.003C94.609,64.002,94.585,63.709,94.564,63.415z M33.916,72.168	c-5.373,0-9.729-4.356-9.729-9.729s4.356-9.729,9.729-9.729c5.373,0,9.729,4.356,9.729,9.729S39.288,72.168,33.916,72.168z M49.306,76.225l6.192-8.272l6.192,8.272H49.306z M77.128,72.168c-5.373,0-9.729-4.356-9.729-9.729s4.356-9.729,9.729-9.729	c5.373,0,9.729,4.356,9.729,9.729S82.501,72.168,77.128,72.168z"/></svg>