<?xml version="1.0" encoding="utf-8"?><!DOCTYPE svg PUBLIC "-//W3C//DTD SVG 1.1//EN" "http://www.w3.org/Graphics/SVG/1.1/DTD/svg11.dtd"><svg version="1.1" id="Locked" xmlns="http://www.w3.org/2000/svg" xmlns:xlink="http://www.w3.org/1999/xlink" x="0px" y="0px" width="110px" height="110px" viewBox="0 0 110 110" enable-background="new 0 0 110 110" xml:space="preserve"><g><path fill="#ADADAD" d="M24.511,71.027c4.581-0.123,9.15-0.08,13.693,0.386V59.438c0-9.007,7.326-16.335,16.334-16.335 s16.335,7.327,16.335,16.335v11.422c1.07-0.01,2.139-0.031,3.208-0.035c0.322-0.278,0.738-0.474,1.3-0.462 c5.019,0.105,10.023,0.466,15.032,0.738c0.82,0.03,1.641,0.072,2.462,0.101V59.438c0-21.138-17.197-38.335-38.337-38.335 c-21.137,0-38.334,17.196-38.334,38.335v10.992C18.971,70.65,21.741,70.845,24.511,71.027z"/></g><g><rect x="16.203" y="68.313" fill="#D8D8D8" width="22" height="19.125"/><rect x="70.872" y="68.313" fill="#D8D8D8" width="22.002" height="19.125"/></g><g><rect x="16.203" y="68.313" fill="#D8D8D8" width="22" height="19.125"/><rect x="70.872" y="68.313" fill="#D8D8D8" width="22.002" height="19.125"/></g></svg>