<?xml version="1.0" encoding="utf-8"?><!DOCTYPE svg PUBLIC "-//W3C//DTD SVG 1.1//EN" "http://www.w3.org/Graphics/SVG/1.1/DTD/svg11.dtd"><svg version="1.1" id="Golden" xmlns="http://www.w3.org/2000/svg" xmlns:xlink="http://www.w3.org/1999/xlink" x="0px" y="0px" width="110px" height="110px" viewBox="0 0 110 110" enable-background="new 0 0 110 110" xml:space="preserve"><path fill="#E26600" d="M59.392,41.022l5.488-13.033h-4.151l-13.55,13.033h-19.64v0.015c-6.214,0.16-11.233,12.484-11.233,27.681	s5.019,27.521,11.233,27.681v0.101h55.906V41.022H59.392z"/><polygon fill="#EF8200" points="39.013,70.388 73.076,73.394 72.361,66.601"/><ellipse fill="#EF8200" cx="83.392" cy="68.761" rx="11.371" ry="27.739"/><ellipse fill="#F49000" cx="83.392" cy="68.761" rx="7.17" ry="17.491"/><path fill="#EF8200" d="M52.665,32.795l0.032,0.049c0,0,0.012-0.032,0.019-0.048c0.017-0.001,0.034,0.002,0.051,0.002l-0.032-0.049	c1.27-2.668,0.913-6.419-1.214-9.667s-5.422-5.075-8.376-4.977l-0.032-0.049c-0.007,0.015-0.012,0.032-0.019,0.048	c-0.017,0.001-0.034-0.002-0.051-0.002l0.032,0.049c-1.27,2.668-0.913,6.419,1.214,9.667S49.712,32.893,52.665,32.795z"/><path fill="#EF8200" d="M17.687,55.484l31.077-0.324L19.12,50.517C18.573,52.04,18.088,53.694,17.687,55.484z"/><path fill="#EF8200" d="M20.153,89.453l25.035-2.473l-26.635-1.776C19.026,86.753,19.561,88.177,20.153,89.453z"/></svg>