<?xml version="1.0" encoding="utf-8"?><!DOCTYPE svg PUBLIC "-//W3C//DTD SVG 1.1//EN" "http://www.w3.org/Graphics/SVG/1.1/DTD/svg11.dtd"><svg version="1.1" id="Locked" xmlns="http://www.w3.org/2000/svg" xmlns:xlink="http://www.w3.org/1999/xlink" x="0px" y="0px" width="110px" height="110px" viewBox="0 0 110 110" enable-background="new 0 0 110 110" xml:space="preserve"><g><path fill="#AFAFAF" d="M52.035,53.916c-1.755-1.283-4.218-0.9-5.501,0.856L35.751,69.527L20.785,58.59 c-1.755-1.283-4.218-0.9-5.501,0.856s-0.9,4.218,0.856,5.501l17.868,13.057c0.285,0.208,0.592,0.357,0.907,0.479 c1.685,0.835,3.772,0.373,4.919-1.197L52.89,59.418C54.173,57.662,53.79,55.199,52.035,53.916z"/><path fill="#AFAFAF" d="M60.117,73.387c-2.174,0-3.937,1.762-3.937,3.937v22.13c0,2.174,1.762,3.937,3.937,3.937 c2.174,0,3.937-1.763,3.937-3.937v-22.13C64.054,75.149,62.292,73.387,60.117,73.387z"/><path fill="#AFAFAF" d="M88.028,49.887c-1.545-1.182-3.756-0.888-4.939,0.657l-3.461,5.227L65.463,45.509 c-0.944-0.684-2.068-0.925-3.139-0.779c-0.287-0.332-0.622-0.63-1.026-0.859l-19.26-10.9c-0.581-0.329-1.21-0.476-1.835-0.492 c-0.107-0.009-0.212-0.006-0.319-0.006c-0.043,0.002-0.086,0.001-0.129,0.005c-0.979,0.042-1.93,0.48-2.589,1.297 c-0.015,0.017-0.031,0.031-0.045,0.048c-0.005,0.006-0.011,0.011-0.016,0.017l-0.058,0.088c-0.134,0.166-0.265,0.337-0.374,0.529 c-0.02,0.035-0.028,0.072-0.047,0.107l-5.56,8.397c-1.182,1.545-0.888,3.756,0.657,4.939c1.545,1.182,3.756,0.888,4.939-0.657 l3.983-6.015l16.776,9.494c0.549,0.311,1.141,0.459,1.732,0.49c0.296,0.511,0.696,0.973,1.205,1.343l16.533,11.978 c0.976,0.707,2.147,0.949,3.25,0.77c0.955-0.08,1.875-0.536,2.504-1.357l0.057-0.086c0.088-0.1,0.185-0.188,0.265-0.298 c0.18-0.249,0.329-0.511,0.449-0.781l5.268-7.956C89.867,53.281,89.573,51.07,88.028,49.887z"/><path fill="#AFAFAF" d="M67.454,45.801l3.568-5.148c1.277,0.386,2.63,0.599,4.033,0.599c2.154,0,4.185-0.503,6.005-1.377 c-2.783-2.331-3.395-6.421-1.276-9.451l6.775,4.74c1.522-2.231,2.414-4.926,2.414-7.831c0-7.687-6.232-13.918-13.918-13.918 s-13.918,6.232-13.918,13.918c0,3.44,1.255,6.583,3.323,9.012l-3.455,4.985L67.454,45.801z"/></g><path fill="#D8D8D8" d="M76.093,104.055c0-3.152-2.556-5.708-5.708-5.708l-14.219-0.02v5.7c0,0.01-0.003,0.019-0.003,0.028H76.093z"/><path fill="#BCBCBC" d="M51.336,79.442l16.817-24.977c2.936-4.183,1.925-9.954-2.259-12.89l0,0	c-4.183-2.936-9.954-1.925-12.89,2.259l-16.935,24.15"/><path fill="#D8D8D8" d="M5.847,72.476c2.593,1.793,6.149,1.144,7.941-1.449l8.102-11.685L17.202,56.1	c-0.008-0.005-0.014-0.013-0.022-0.019L5.847,72.476z"/><rect x="36.324" y="65.638" transform="matrix(0.825 0.5651 -0.5651 0.825 48.8606 -15.0253)" fill="#D8D8D8" width="24.741" height="11.506"/><path fill="#70B700" d="M61.999,35.456"/><path fill="#A3A3A3" d="M61.927,22.302c-1.858,4.034-6.634,5.798-10.668,3.941c-4.034-1.858-5.798-6.634-3.941-10.668"/><path fill="#A3A3A3" d="M41.703,59.708l-6.465,9.439l9.1,6.233c-4.856-3.699-6.052-10.567-2.572-15.67	C41.766,59.711,41.714,59.709,41.703,59.708z"/><path fill="#A3A3A3" d="M66.766,24.832c2.124-2.652,5.925-3.132,8.658-1.184c-0.181-1.856,0.409-3.773,1.831-5.194	c1.988-1.988,4.941-2.383,7.341-1.236c0.31,0.293,0.592,0.614,0.875,0.934c-3.676-4.609-10.057-6.501-15.83-4.231	c-7.09,2.788-10.577,10.796-7.788,17.885l0.454-0.179L66.766,24.832z"/><path fill="#FFFFFF" d="M81.68,26.634L81.68,26.634c0.545-0.959,1.764-1.295,2.723-0.75l0,0c0.959,0.545,1.295,1.764,0.75,2.723l0,0"/></svg>