<?xml version="1.0" encoding="utf-8"?><!DOCTYPE svg PUBLIC "-//W3C//DTD SVG 1.1//EN" "http://www.w3.org/Graphics/SVG/1.1/DTD/svg11.dtd"><svg version="1.1" id="Unlocked" xmlns="http://www.w3.org/2000/svg" xmlns:xlink="http://www.w3.org/1999/xlink" x="0px" y="0px" width="110px" height="110px" viewBox="0 0 110 110" enable-background="new 0 0 110 110" xml:space="preserve"><ellipse fill="#FFFFFF" cx="38.391" cy="85.469" rx="7.661" ry="7.392"/><ellipse fill="#FFFFFF" cx="56.798" cy="97.678" rx="4.319" ry="4.168"/><path fill="#FFFFFF" d="M84.019,26.928c-2.703-8.595-10.976-14.853-20.766-14.853c-10.12,0-18.622,6.685-21.023,15.728	c-1.733-0.572-3.59-0.887-5.524-0.887c-9.425,0-17.066,7.373-17.066,16.468c0,3.17,0.93,6.129,2.539,8.642	c-1.963,2.063-3.171,4.805-3.171,7.826c0,6.4,5.377,11.589,12.009,11.589c5.596,0,10.285-3.699,11.618-8.698	c2.2,0.756,4.608,1.176,7.134,1.176c5.727,0,10.851-2.146,14.291-5.524c3.152,2.194,7.019,3.491,11.203,3.491	c10.589,0,19.173-8.283,19.173-18.501C94.435,36.212,90.203,29.998,84.019,26.928z"/></svg>