<?xml version="1.0" encoding="utf-8"?><!DOCTYPE svg PUBLIC "-//W3C//DTD SVG 1.1//EN" "http://www.w3.org/Graphics/SVG/1.1/DTD/svg11.dtd"><svg version="1.1" id="Locked" xmlns="http://www.w3.org/2000/svg" xmlns:xlink="http://www.w3.org/1999/xlink" x="0px" y="0px" width="110px" height="110px" viewBox="0 0 110 110" enable-background="new 0 0 110 110" xml:space="preserve"><path fill="#C1C1C1" d="M93.94,73.862h-1.098V53.835h0.016V30.607L73.71,48.574L54.562,30.607L35.538,48.428L16.513,30.607v23.228	h0.013v20.027h-0.999c-1.077,0-1.951,0.873-1.951,1.951c0,1.077,0.874,1.951,1.951,1.951H93.94c1.077,0,1.95-0.873,1.95-1.951	C95.891,74.736,95.018,73.862,93.94,73.862z"/><polygon fill="#DDDDDD" points="44.004,40.497 35.538,48.428 27.23,40.645 27.23,73.961 44.004,73.961"/><rect x="23.913" y="73.667" fill="#DDDDDD" width="17.702" height="3.95"/></svg>