<?xml version="1.0" encoding="utf-8"?><!DOCTYPE svg PUBLIC "-//W3C//DTD SVG 1.1//EN" "http://www.w3.org/Graphics/SVG/1.1/DTD/svg11.dtd"><svg version="1.1" id="Locked" xmlns="http://www.w3.org/2000/svg" xmlns:xlink="http://www.w3.org/1999/xlink" x="0px" y="0px" width="110px" height="110px" viewBox="0 0 110 110" enable-background="new 0 0 110 110" xml:space="preserve"><rect x="25.584" y="32.472" fill="#BCBCBC" width="61.965" height="4.678"/><rect x="25.584" y="50.009" fill="#BCBCBC" width="61.965" height="5.843"/><rect x="25.584" y="67.545" fill="#BCBCBC" width="61.965" height="5.845"/><path fill="#A3A3A3" d="M99.508,83.913h-4.943V22.906c0-2.467-2.212-4.465-4.678-4.465c-2.466,0-4.675,1.998-4.675,4.465v61.007	H26.752V22.906c0-2.467-1.626-4.465-4.092-4.465s-4.093,1.998-4.093,4.465v61.007h-5.296c-2.389,0-4.325,1.704-4.325,4.09	c0,2.389,1.937,4.095,4.325,4.095h86.235c2.389,0,4.326-1.706,4.326-4.095C103.834,85.617,101.896,83.913,99.508,83.913z"/><path fill="#A3A3A3" d="M36.106,38.342c0,1.924-1.559,3.482-3.481,3.482h-0.053c-1.921,0-3.481-1.558-3.481-3.482v-5.898	c0-1.921,1.56-3.482,3.481-3.482h0.053c1.923,0,3.481,1.561,3.481,3.482V38.342z"/><path fill="#A3A3A3" d="M45.459,38.342c0,1.924-1.558,3.482-3.48,3.482h-0.053c-1.923,0-3.481-1.558-3.481-3.482v-5.898	c0-1.921,1.558-3.482,3.481-3.482h0.053c1.921,0,3.48,1.561,3.48,3.482V38.342z"/><path fill="#A3A3A3" d="M82.871,38.342c0,1.924-1.558,3.482-3.48,3.482h-0.053c-1.923,0-3.481-1.558-3.481-3.482v-5.898	c0-1.921,1.558-3.482,3.481-3.482h0.053c1.921,0,3.48,1.561,3.48,3.482V38.342z"/><path fill="#A3A3A3" d="M54.812,38.342c0,1.924-1.557,3.482-3.48,3.482h-0.053c-1.923,0-3.482-1.558-3.482-3.482v-5.898	c0-1.921,1.559-3.482,3.482-3.482h0.053c1.923,0,3.48,1.561,3.48,3.482V38.342z"/><path fill="#A3A3A3" d="M82.871,55.883c0,1.921-1.558,3.478-3.48,3.478h-0.053c-1.923,0-3.481-1.556-3.481-3.478v-5.903	c0-1.919,1.558-3.48,3.481-3.48h0.053c1.921,0,3.48,1.561,3.48,3.48V55.883z"/><path fill="#A3A3A3" d="M36.106,55.883c0,1.921-1.559,3.478-3.481,3.478h-0.053c-1.921,0-3.481-1.556-3.481-3.478v-5.903	c0-1.919,1.56-3.48,3.481-3.48h0.053c1.923,0,3.481,1.561,3.481,3.48V55.883z"/><path fill="#A3A3A3" d="M45.459,55.883c0,1.921-1.558,3.478-3.48,3.478h-0.053c-1.923,0-3.481-1.556-3.481-3.478v-5.903	c0-1.919,1.558-3.48,3.481-3.48h0.053c1.921,0,3.48,1.561,3.48,3.48V55.883z"/><path fill="#A3A3A3" d="M73.519,55.883c0,1.921-1.558,3.478-3.48,3.478h-0.053c-1.923,0-3.482-1.556-3.482-3.478v-5.903	c0-1.919,1.56-3.48,3.482-3.48h0.053c1.921,0,3.48,1.561,3.48,3.48V55.883z"/><path fill="#A3A3A3" d="M82.871,73.418c0,1.921-1.558,3.482-3.48,3.482h-0.053c-1.923,0-3.481-1.561-3.481-3.482v-5.901	c0-1.922,1.558-3.48,3.481-3.48h0.053c1.921,0,3.48,1.558,3.48,3.48V73.418z"/><path fill="#A3A3A3" d="M73.519,73.418c0,1.921-1.558,3.482-3.48,3.482h-0.053c-1.923,0-3.482-1.561-3.482-3.482v-5.901	c0-1.922,1.56-3.48,3.482-3.48h0.053c1.921,0,3.48,1.558,3.48,3.48V73.418z"/><path fill="#A3A3A3" d="M64.166,73.418c0,1.921-1.558,3.482-3.481,3.482h-0.053c-1.921,0-3.48-1.561-3.48-3.482v-5.901	c0-1.922,1.558-3.48,3.48-3.48h0.053c1.923,0,3.481,1.558,3.481,3.48V73.418z"/><path fill="#A3A3A3" d="M54.812,73.418c0,1.921-1.557,3.482-3.48,3.482h-0.053c-1.923,0-3.482-1.561-3.482-3.482v-5.901	c0-1.922,1.559-3.48,3.482-3.48h0.053c1.923,0,3.48,1.558,3.48,3.48V73.418z"/></svg>