<?xml version="1.0" encoding="utf-8"?><!DOCTYPE svg PUBLIC "-//W3C//DTD SVG 1.1//EN" "http://www.w3.org/Graphics/SVG/1.1/DTD/svg11.dtd"><svg version="1.1" id="Unlocked" xmlns="http://www.w3.org/2000/svg" xmlns:xlink="http://www.w3.org/1999/xlink" x="0px" y="0px" width="110px" height="110px" viewBox="0 0 110 110" enable-background="new 0 0 110 110" xml:space="preserve"><path fill="#ED9869" d="M86.275,47.632c0,0-17.458,0-21.479,0c-4.095-0.047-7.401-3.24-7.697-7.271V30.103	c0-8.337-6.758-15.096-15.095-15.096v25.522c-0.376,3.95-3.643,7.057-7.681,7.103c-4.021,0-15.612,0-15.612,0v32.356h7.075h6.842	h3.679c1.023,4.294,4.86,7.496,9.467,7.496h33.277c3.33,0,6.264-1.675,8.025-4.222h-0.801V47.632z"/><g><path fill="#E58555" d="M68.374,60.741h18.123c3.632,0,6.577-2.945,6.577-6.577c0-3.632-2.945-6.577-6.577-6.577H68.374 c-3.632,0-6.577,2.945-6.577,6.577C61.797,57.796,64.742,60.741,68.374,60.741z"/><path fill="#E58555" d="M86.497,60.945H68.374c-3.632,0-6.577,2.945-6.577,6.577s2.945,6.577,6.577,6.577h18.123 c3.632,0,6.577-2.945,6.577-6.577S90.129,60.945,86.497,60.945z"/><path fill="#E58555" d="M86.497,74.302H68.374c-3.632,0-6.577,2.945-6.577,6.577c0,3.632,2.945,6.577,6.577,6.577h18.123 c3.632,0,6.577-2.945,6.577-6.577C93.074,77.247,90.129,74.302,86.497,74.302z"/></g><rect x="17.274" y="45.822" fill="#FFFFFF" width="17.721" height="34.92"/></svg>