<?xml version="1.0" encoding="utf-8"?><!DOCTYPE svg PUBLIC "-//W3C//DTD SVG 1.1//EN" "http://www.w3.org/Graphics/SVG/1.1/DTD/svg11.dtd"><svg version="1.1" id="Unlocked" xmlns="http://www.w3.org/2000/svg" xmlns:xlink="http://www.w3.org/1999/xlink" x="0px" y="0px" width="110px" height="110px" viewBox="0 0 110 110" enable-background="new 0 0 110 110" xml:space="preserve"><path fill="#844B3E" d="M59.711,40.01l5.508-13.082h-4.166l-13.6,13.082H27.74v0.015c-6.237,0.16-11.274,12.531-11.274,27.784	s5.037,27.623,11.274,27.784v0.101h56.114V40.01H59.711z"/><polygon fill="#6D3B32" points="39.257,69.486 73.446,72.503 72.729,65.685"/><ellipse fill="#EAC478" cx="83.801" cy="67.852" rx="11.413" ry="27.842"/><ellipse fill="#DBB167" cx="83.801" cy="67.852" rx="7.197" ry="17.556"/><path fill="#55962A" d="M52.96,31.753l0.032,0.05c0,0,0.012-0.033,0.019-0.048c0.017-0.001,0.035,0.002,0.051,0.002l-0.032-0.05	c1.275-2.678,0.916-6.443-1.219-9.703s-5.442-5.093-8.407-4.995l-0.032-0.05c-0.007,0.015-0.012,0.033-0.019,0.048	c-0.017,0.001-0.035-0.002-0.051-0.002l0.032,0.05c-1.275,2.678-0.916,6.443,1.219,9.703C46.688,30.018,49.996,31.851,52.96,31.753z"/><path fill="#6D3B32" d="M17.852,54.526l31.192-0.325l-29.755-4.66C18.741,51.069,18.254,52.73,17.852,54.526z"/><path fill="#6D3B32" d="M20.327,88.621l25.128-2.482l-26.734-1.782C19.196,85.912,19.732,87.341,20.327,88.621z"/></svg>