<svg xmlns="http://www.w3.org/2000/svg" xmlns:xlink="http://www.w3.org/1999/xlink" width="86" height="96" viewBox="0 0 86 96"><defs><ellipse id="a" cx="33.254" cy="33.252" rx="33.141" ry="32.77"/></defs><g fill="none" fill-rule="evenodd" transform="translate(8)"><rect width="23.182" height="11.922" x="20.636" y=".113" fill="#FAA918" rx="3"/><rect width="23.182" height="11.922" x="55.225" y="13.686" fill="#FAA918" rx="3" transform="rotate(45 66.816 19.647)"/><g transform="translate(0 21.506)"><g fill-rule="nonzero"><use fill="#F2F2F2" fill-rule="evenodd" xlink:href="#a"/><ellipse cx="33.254" cy="33.252" stroke="#FFC714" stroke-width="8" rx="37.141" ry="36.77"/></g><ellipse cx="33.773" cy="58.833" fill="#CFCFCF" rx="3.864" ry="3.82"/><ellipse cx="7.5" cy="32.855" fill="#CFCFCF" rx="3.864" ry="3.82"/><ellipse cx="58.5" cy="32.855" fill="#CFCFCF" rx="3.864" ry="3.82"/><ellipse cx="33.773" cy="6.877" fill="#CFCFCF" rx="3.864" ry="3.82"/></g><path fill="#1CB0F6" fill-rule="nonzero" d="M53.686 37.542c1.129 1.346.883 3.247-.142 4.107L34.982 57.224c-1.158.972-2.909.809-3.891-.362l-.402-.48c-.983-1.17-.84-2.923.318-3.895L49.57 36.912c.843-.776 2.987-.716 4.116.63z"/><ellipse cx="33" cy="55.125" fill="#0084C3" fill-rule="nonzero" rx="7.727" ry="7.641"/><ellipse cx="15.227" cy="34.495" fill="#FFF" opacity=".7" rx="11.591" ry="11.461"/></g></svg>