<?xml version="1.0" encoding="utf-8"?><!DOCTYPE svg PUBLIC "-//W3C//DTD SVG 1.1//EN" "http://www.w3.org/Graphics/SVG/1.1/DTD/svg11.dtd"><svg version="1.1" id="Golden" xmlns="http://www.w3.org/2000/svg" xmlns:xlink="http://www.w3.org/1999/xlink" x="0px" y="0px" width="110px" height="110px" viewBox="0 0 110 110" enable-background="new 0 0 110 110" xml:space="preserve"><circle fill="#EF8200" cx="27.337" cy="72.792" r="12.089"/><g><path fill="#E26600" d="M27.338,81.399c-4.747,0-8.61-3.861-8.61-8.607s3.862-8.607,8.61-8.607c4.745,0,8.607,3.861,8.607,8.607 S32.083,81.399,27.338,81.399z M27.338,66.518c-3.461,0-6.274,2.814-6.274,6.274s2.813,6.274,6.274,6.274 c3.458,0,6.271-2.814,6.271-6.274S30.796,66.518,27.338,66.518z"/></g><path fill="#E26600" d="M69.605,69.897H58.953V59.395h5.526c6.929,0,12.566-5.637,12.566-12.565v-7.197h-6.087v7.197	c0,3.572-2.906,6.478-6.479,6.478H47.341c-3.573,0-6.479-2.906-6.479-6.478v-7.197h-6.087v7.197c0,6.928,5.637,12.565,12.566,12.565	h5.526v10.502H33.805v6.087h19.062v10.652c0,9.229,7.509,16.738,16.738,16.738c9.229,0,16.738-7.509,16.738-16.738	C86.343,77.406,78.834,69.897,69.605,69.897z M69.605,97.287c-5.873,0-10.652-4.778-10.652-10.652V75.983h10.652	c5.873,0,10.652,4.778,10.652,10.652S75.478,97.287,69.605,97.287z"/><g><path fill="#EF8200" d="M40.862,18.741c0-3.572,2.906-6.478,6.479-6.478V6.176c-6.929,0-12.566,5.637-12.566,12.565v20.892h6.087 V18.741z"/><path fill="#EF8200" d="M64.479,6.176v6.087c3.573,0,6.479,2.906,6.479,6.478v20.892h6.087V18.741 C77.045,11.813,71.408,6.176,64.479,6.176z"/></g></svg>