<?xml version="1.0" encoding="utf-8"?><!DOCTYPE svg PUBLIC "-//W3C//DTD SVG 1.1//EN" "http://www.w3.org/Graphics/SVG/1.1/DTD/svg11.dtd"><svg version="1.1" id="Unlocked" xmlns="http://www.w3.org/2000/svg" xmlns:xlink="http://www.w3.org/1999/xlink" x="0px" y="0px" width="110px" height="110px" viewBox="0 0 110 110" enable-background="new 0 0 110 110" xml:space="preserve"><path fill="#CBE9F4" d="M88.548,84.169c0.011-0.005,0.018-0.016,0.029-0.021L63.517,43.77V24.234h0.921	c1.017,0,1.842-0.825,1.842-1.842c0-1.017-0.825-1.842-1.842-1.842H45.182c-1.017,0-1.842,0.825-1.842,1.842	c0,1.017,0.825,1.842,1.842,1.842h0.879v19.977L21.396,83.953c0.003,0.002,0.005,0.006,0.009,0.008	c-0.365,0.592-0.586,1.282-0.586,2.029c0,2.111,1.687,3.819,3.784,3.873c-0.002,0.007,60.464,0.01,60.536,0.01	c2.144,0,3.883-1.738,3.883-3.883C89.021,85.328,88.84,84.714,88.548,84.169z"/><path fill="#70B700" d="M55.999,34.447c0,1.745-1.413,3.158-3.158,3.158c-1.741,0-3.155-1.413-3.155-3.158	c0-1.741,1.414-3.157,3.155-3.157C54.586,31.29,55.999,32.706,55.999,34.447z"/><circle fill="#70B700" cx="60.638" cy="56.643" r="2.639"/><path fill="#70B700" d="M25.289,85.412H84.5L69.605,61.661c0,0-11.404,10.671-30.869,10.671c-3.265,0-5.157-0.254-5.157-0.254	L25.289,85.412z"/><polygon fill="#FFFFFF" points="53.863,43.992 50.752,43.992 30.489,85.519 38.432,85.519"/><path fill="#E3EDD1" d="M38.472,85.412l4.94-13.294c-1.504,0.135-3.06,0.215-4.676,0.215c-0.663,0-1.253-0.012-1.798-0.029	l-6.397,13.109H38.472z"/></svg>