<?xml version="1.0" encoding="utf-8"?><!DOCTYPE svg PUBLIC "-//W3C//DTD SVG 1.1//EN" "http://www.w3.org/Graphics/SVG/1.1/DTD/svg11.dtd"><svg version="1.1" id="Unlocked" xmlns="http://www.w3.org/2000/svg" xmlns:xlink="http://www.w3.org/1999/xlink" x="0px" y="0px" width="110px" height="110px" viewBox="0 0 110 110" enable-background="new 0 0 110 110" xml:space="preserve"><path fill="#C17B4C" d="M34.536,78.652c-1.767-1.291-2.152-3.77-0.861-5.536l13.141-17.982c1.291-1.767,3.77-2.152,5.537-0.861l0,0	c1.767,1.291,2.152,3.77,0.861,5.536L40.073,77.79C38.782,79.557,36.303,79.943,34.536,78.652L34.536,78.652z"/><path fill="#C17B4C" d="M60.487,104.063c-2.188,0-3.962-1.774-3.962-3.962V77.829c0-2.188,1.774-3.962,3.962-3.962l0,0	c2.188,0,3.962,1.774,3.962,3.962v22.272C64.449,102.289,62.675,104.063,60.487,104.063L60.487,104.063z"/><path fill="#C17B4C" d="M15.658,59.992c1.291-1.767,3.77-2.152,5.536-0.861l17.982,13.141c1.767,1.291,2.152,3.77,0.861,5.536l0,0	c-1.291,1.767-3.77,2.152-5.537,0.861L16.519,65.528C14.752,64.237,14.366,61.759,15.658,59.992L15.658,59.992z"/><path fill="#C17B4C" d="M88.576,50.217c-1.555-1.19-3.78-0.894-4.97,0.661l-3.483,5.261L65.867,45.811	c-1.958-1.419-4.696-0.981-6.115,0.977c-1.419,1.958-0.981,4.696,0.977,6.115l16.639,12.054c0.982,0.712,2.161,0.955,3.271,0.775	c0.962-0.081,1.888-0.539,2.52-1.366l0.057-0.086c0.088-0.101,0.187-0.189,0.267-0.3c0.182-0.251,0.331-0.515,0.452-0.786	l5.302-8.007C90.427,53.632,90.131,51.407,88.576,50.217z"/><path fill="#FFFFFF" d="M76.565,104.732c0-3.173-2.572-5.745-5.745-5.745l-14.31-0.02v5.736c0,0.01-0.003,0.019-0.003,0.029H76.565z"/><path fill="#41C6E5" d="M51.649,79.961l16.925-25.137c2.955-4.21,1.937-10.018-2.273-12.973l0,0	c-4.21-2.955-10.018-1.937-12.973,2.273L36.285,68.429"/><path fill="#FFFFFF" d="M5.869,72.95c2.61,1.804,6.188,1.151,7.992-1.459l8.154-11.76l-4.718-3.262	c-0.008-0.006-0.014-0.013-0.022-0.019L5.869,72.95z"/><path fill="#C17B4C" d="M61.676,44.163l-19.383-10.97c-0.585-0.331-1.218-0.479-1.846-0.495c-0.108-0.009-0.215-0.006-0.323-0.006	c-0.043,0.002-0.085,0.001-0.128,0.005c-0.985,0.042-1.942,0.483-2.606,1.306c-0.015,0.017-0.031,0.032-0.046,0.049	c-0.005,0.006-0.011,0.011-0.016,0.017l-0.058,0.088c-0.135,0.167-0.267,0.339-0.376,0.533c-0.02,0.035-0.029,0.073-0.048,0.108	l-5.596,8.45c-1.19,1.555-0.894,3.78,0.661,4.97c1.555,1.19,3.78,0.894,4.97-0.661l4.008-6.053l16.883,9.555	c1.904,1.078,4.322,0.408,5.399-1.497C64.25,47.658,63.58,45.24,61.676,44.163z"/><rect x="36.541" y="66.069" transform="matrix(0.825 0.5651 -0.5651 0.825 49.1765 -15.1109)" fill="#FFFFFF" width="24.899" height="11.58"/><path fill="#70B700" d="M62.381,35.693"/><path fill="#77402F" d="M62.308,22.455c-1.87,4.06-6.677,5.836-10.737,3.966c-4.06-1.87-5.836-6.677-3.966-10.737"/><path fill="#C17B4C" d="M80.28,30.628l6.819,4.771c1.532-2.246,2.429-4.958,2.429-7.881c0-7.736-6.271-14.008-14.008-14.008	c-7.736,0-14.008,6.271-14.008,14.008c0,3.462,1.262,6.625,3.344,9.07l-3.477,5.017l6.491,4.499l3.591-5.181	c1.285,0.389,2.647,0.602,4.059,0.602c2.155,0,4.188-0.501,6.012-1.371C78.737,37.809,78.148,33.675,80.28,30.628z"/><path fill="#CECECE" d="M41.954,60.101l-6.507,9.5l9.159,6.273c-4.888-3.723-6.091-10.635-2.589-15.77	C42.017,60.103,41.966,60.101,41.954,60.101z"/><path fill="#FFFFFF" d="M82.188,26.814L82.188,26.814c0.548-0.965,1.775-1.303,2.74-0.755l0,0c0.965,0.548,1.303,1.775,0.755,2.74	l0,0"/><path fill="#77402F" d="M73.751,21.512c1.767-2.947,5.587-3.903,8.534-2.136l6.608,3.962C87.114,17.643,81.8,13.51,75.52,13.51	c-7.736,0-14.008,6.271-14.008,14.008c0,3.416,1.225,6.543,3.257,8.974L73.751,21.512z"/><circle fill="#C17B4C" cx="70.414" cy="26.44" r="3.629"/></svg>