<?xml version="1.0" encoding="utf-8"?><!DOCTYPE svg PUBLIC "-//W3C//DTD SVG 1.1//EN" "http://www.w3.org/Graphics/SVG/1.1/DTD/svg11.dtd"><svg version="1.1" id="Golden" xmlns="http://www.w3.org/2000/svg" xmlns:xlink="http://www.w3.org/1999/xlink" x="0px" y="0px" width="110px" height="110px" viewBox="0 0 110 110" enable-background="new 0 0 110 110" xml:space="preserve"><path fill="#E26600" d="M86.089,40.402c-2.427,0.411-4.88,0.673-7.377,0.712c0.029,0.506-0.109,1.031-0.517,1.468	c-4.177,4.479-9.653,6.081-15.421,6.014c-0.371,0.051-0.742,0.118-1.112,0.159c-0.232,0.096-0.462,0.192-0.703,0.286	c-0.528,0.207-1.003,0.114-1.404-0.123c-2.062,0.123-4.123,0.106-6.188-0.031c-3.414,0.199-6.681-0.129-9.577-1.29	c-0.081-0.016-0.163-0.028-0.244-0.044c-0.399-0.077-0.678-0.257-0.904-0.472c-2.438-1.218-4.571-3.098-6.23-5.893	c-0.048-0.082-0.071-0.161-0.1-0.241c-2.693-0.152-5.371-0.42-8.037-0.78c-1.71,1.282-3.468,2.486-5.271,3.618	c-2.355,2.242-4.997,4.145-7.829,5.767c-0.16,0.133-0.318,0.268-0.477,0.4c7.127,16.711,23.691,28.432,43.005,28.432	c18.976,0,35.244-11.336,42.562-27.581C95.192,47.797,90.5,44.307,86.089,40.402z"/><path fill="#EF8200" d="M79.146,30.993c-9.849,0-18.241,6.15-21.603,14.81c-3.361-8.66-11.753-14.81-21.602-14.81	c-12.806,0-23.186,10.381-23.186,23.187h43.204h3.169h43.205C102.333,41.374,91.952,30.993,79.146,30.993z"/></svg>