<?xml version="1.0" encoding="utf-8"?><!DOCTYPE svg PUBLIC "-//W3C//DTD SVG 1.1//EN" "http://www.w3.org/Graphics/SVG/1.1/DTD/svg11.dtd"><svg version="1.1" id="Locked" xmlns="http://www.w3.org/2000/svg" xmlns:xlink="http://www.w3.org/1999/xlink" x="0px" y="0px" width="110px" height="110px" viewBox="0 0 110 110" enable-background="new 0 0 110 110" xml:space="preserve"><path fill="#BCBCBC" d="M97.152,40.676h-6.215c-0.039-10.976-8.945-19.862-19.93-19.862v9.038	c-5.895-3.942-12.962-6.269-20.593-6.269c-20.475,0-37.077,16.536-37.209,36.98h-0.001v0.017c0,0.075-0.011,0.148-0.011,0.223h0.011	v7.06h-0.009c0,12,9.727,21.728,21.728,21.728s21.728-9.728,21.728-21.728H44.137c0,5.088-4.126,9.214-9.214,9.214	s-9.215-4.125-9.215-9.214h-0.014v-7.06h3.981v7.104c0,2.97,2.408,5.378,5.378,5.378c2.97,0,5.378-2.408,5.378-5.378v-7.104h19.847	v7.104c0,2.97,2.408,5.378,5.378,5.378c2.97,0,5.378-2.408,5.378-5.378v-7.104h5.824c0.053,0,0.104,0.008,0.158,0.008	c0.054,0,0.105-0.008,0.159-0.008h1.262c-0.002-0.022,0.007-0.042,0.005-0.064C88.894,60.005,97.152,51.315,97.152,40.676z"/><path fill="#A3A3A3" d="M34.85,45.079c2.277,0,4.124-1.846,4.124-4.123V25.392c-2.93,0.946-5.686,2.262-8.248,3.865v11.699	C30.726,43.233,32.573,45.079,34.85,45.079z"/><path fill="#A3A3A3" d="M48.705,45.079c2.277,0,4.123-1.846,4.123-4.123V23.694c-0.802-0.052-1.6-0.111-2.415-0.111	c-1.989,0-3.927,0.201-5.832,0.502v16.872C44.581,43.233,46.427,45.079,48.705,45.079z"/><path fill="#A3A3A3" d="M62.56,45.079c2.277,0,4.124-1.846,4.124-4.123v-13.63c-2.59-1.264-5.362-2.203-8.247-2.839v16.469	C58.437,43.233,60.283,45.079,62.56,45.079z"/><circle fill="#A3A3A3" cx="79.14" cy="44.654" r="6.309"/><circle fill="#666666" cx="79.14" cy="44.654" r="2.091"/></svg>