<?xml version="1.0" encoding="utf-8"?><!DOCTYPE svg PUBLIC "-//W3C//DTD SVG 1.1//EN" "http://www.w3.org/Graphics/SVG/1.1/DTD/svg11.dtd"><svg version="1.1" id="Unlocked" xmlns="http://www.w3.org/2000/svg" xmlns:xlink="http://www.w3.org/1999/xlink" x="0px" y="0px" width="110px" height="110px" viewBox="0 0 110 110" enable-background="new 0 0 110 110" xml:space="preserve"><path fill="#FFFFFF" d="M71.859,21.638l-7.695,8.485l5.694,4.101l-8.656,20.952l3.645-17.765l-7.745-5.921l7.918-15.439	c-3.193-1.918-6.577-3.026-10.082-3.026c-19.307,0-34.958,33.432-34.958,52.74c0,19.307,15.651,33.591,34.958,33.591	c19.308,0,34.961-14.284,34.961-33.591C89.899,52.599,82.615,32.86,71.859,21.638z"/><path fill="#CBE9F4" d="M54.938,82.979c-14.495,0-27.278-6.63-34.958-17.215v0.001c0,19.308,15.652,33.591,34.958,33.591	c19.308,0,34.961-14.284,34.961-33.591v-0.003C82.218,76.349,69.434,82.979,54.938,82.979z"/></svg>