<?xml version="1.0" encoding="utf-8"?><!DOCTYPE svg PUBLIC "-//W3C//DTD SVG 1.1//EN" "http://www.w3.org/Graphics/SVG/1.1/DTD/svg11.dtd"><svg version="1.1" id="Golden" xmlns="http://www.w3.org/2000/svg" xmlns:xlink="http://www.w3.org/1999/xlink" x="0px" y="0px" width="110px" height="110px" viewBox="0 0 110 110" enable-background="new 0 0 110 110" xml:space="preserve"><g><path fill="#EF8200" d="M56.561,53.938c-1.768-1.292-4.248-0.906-5.54,0.862l-10.859,14.86L25.088,58.645 c-1.768-1.292-4.248-0.906-5.54,0.862c-1.292,1.768-0.906,4.249,0.862,5.54l17.995,13.15c0.287,0.21,0.597,0.359,0.913,0.482 c1.697,0.841,3.799,0.375,4.954-1.206l13.15-17.995C58.715,57.71,58.329,55.23,56.561,53.938z"/><path fill="#EF8200" d="M64.701,73.547c-2.19,0-3.965,1.775-3.965,3.965v22.288c0,2.19,1.775,3.965,3.965,3.965 c2.19,0,3.965-1.775,3.965-3.965V77.512C68.666,75.322,66.891,73.547,64.701,73.547z"/><path fill="#EF8200" d="M92.81,49.88c-1.556-1.191-3.783-0.895-4.974,0.661l-3.486,5.265L70.085,45.471 c-0.95-0.688-2.083-0.932-3.161-0.785c-0.289-0.334-0.627-0.635-1.033-0.865L46.494,32.844c-0.586-0.331-1.219-0.479-1.848-0.495 c-0.107-0.009-0.214-0.006-0.321-0.006c-0.043,0.002-0.087,0.001-0.13,0.005c-0.986,0.042-1.943,0.483-2.607,1.307 c-0.015,0.017-0.031,0.032-0.046,0.049c-0.005,0.006-0.011,0.011-0.016,0.017l-0.059,0.089c-0.135,0.167-0.267,0.339-0.376,0.532 c-0.02,0.035-0.029,0.072-0.047,0.107l-5.6,8.457c-1.191,1.556-0.895,3.783,0.661,4.974s3.783,0.895,4.974-0.661l4.011-6.058 l16.895,9.562c0.553,0.313,1.149,0.462,1.744,0.493c0.298,0.515,0.701,0.98,1.214,1.352l16.651,12.063 c0.983,0.712,2.163,0.956,3.273,0.776c0.962-0.081,1.889-0.54,2.522-1.367l0.057-0.086c0.088-0.101,0.187-0.189,0.267-0.3 c0.182-0.251,0.331-0.515,0.453-0.787l5.305-8.012C94.662,53.298,94.366,51.071,92.81,49.88z"/><path fill="#EF8200" d="M72.09,45.765l3.594-5.185c1.286,0.389,2.649,0.603,4.062,0.603c2.169,0,4.215-0.507,6.048-1.386 c-2.802-2.347-3.42-6.467-1.285-9.518l6.824,4.774c1.533-2.247,2.431-4.961,2.431-7.887c0-7.742-6.276-14.018-14.018-14.018 s-14.018,6.276-14.018,14.018c0,3.465,1.263,6.63,3.346,9.076l-3.48,5.021L72.09,45.765z"/></g><path fill="#E26600" d="M80.79,104.434c0-3.175-2.574-5.749-5.749-5.749l-14.32-0.02v5.74c0,0.01-0.003,0.019-0.003,0.029H80.79z"/><path fill="#E26600" d="M55.857,79.645L72.794,54.49c2.957-4.213,1.938-10.025-2.275-12.982l0,0	c-4.213-2.957-10.025-1.938-12.982,2.275L40.482,68.105"/><path fill="#E26600" d="M10.044,72.629c2.612,1.805,6.192,1.152,7.998-1.46l8.16-11.768l-4.722-3.264	c-0.008-0.006-0.014-0.013-0.022-0.019L10.044,72.629z"/><rect x="40.738" y="65.743" transform="matrix(0.825 0.5651 -0.5651 0.825 49.7308 -17.5439)" fill="#E26600" width="24.917" height="11.588"/><path fill="#70B700" d="M66.596,35.346"/><path fill="#E26600" d="M66.523,22.098c-1.871,4.063-6.681,5.84-10.744,3.969c-4.063-1.871-5.84-6.681-3.969-10.744"/><path fill="#E26600" d="M46.155,59.771l-6.511,9.507l9.165,6.277c-4.891-3.726-6.096-10.642-2.591-15.781	C46.218,59.774,46.167,59.771,46.155,59.771z"/><path fill="#E26600" d="M71.397,24.646c2.139-2.671,5.967-3.154,8.72-1.192c-0.182-1.869,0.412-3.8,1.844-5.231	c2.002-2.002,4.976-2.4,7.393-1.245c0.313,0.295,0.596,0.619,0.881,0.941c-3.703-4.642-10.129-6.547-15.943-4.261	c-7.14,2.808-10.652,10.873-7.844,18.013l0.457-0.18L71.397,24.646z"/><path fill="#E26600" d="M86.418,26.461L86.418,26.461c0.549-0.966,1.776-1.304,2.742-0.755l0,0c0.966,0.549,1.304,1.776,0.755,2.742	l0,0"/></svg>