<?xml version="1.0" encoding="utf-8"?><!DOCTYPE svg PUBLIC "-//W3C//DTD SVG 1.1//EN" "http://www.w3.org/Graphics/SVG/1.1/DTD/svg11.dtd"><svg version="1.1" id="Unlocked" xmlns="http://www.w3.org/2000/svg" xmlns:xlink="http://www.w3.org/1999/xlink" x="0px" y="0px" width="110px" height="110px" viewBox="0 0 110 110" enable-background="new 0 0 110 110" xml:space="preserve"><path fill="#D1976B" d="M87.869,87.605c-5.566,5.582-14.604,5.596-20.186,0.03L22.197,42.281c-5.582-5.566-5.596-14.604-0.03-20.186	l0,0c5.566-5.582,14.604-5.596,20.186-0.03L87.84,67.418C93.422,72.984,93.435,82.022,87.869,87.605L87.869,87.605z"/><rect x="40.863" y="39.673" transform="matrix(0.7081 0.7061 -0.7061 0.7081 54.9044 -22.7895)" fill="#E8AE82" width="28.31" height="30.689"/><path fill="#C18156" d="M41.443,31.739c-0.835,0.837-0.833,2.193,0.004,3.028l0,0c0.837,0.835,2.193,0.833,3.028-0.004l0,0	c0.835-0.837,0.833-2.193-0.004-3.028l0,0C43.633,30.9,42.278,30.902,41.443,31.739L41.443,31.739z"/><path fill="#C18156" d="M31.868,41.342c-0.835,0.837-0.833,2.193,0.004,3.028l0,0c0.837,0.835,2.193,0.833,3.028-0.004l0,0	c0.835-0.837,0.833-2.193-0.004-3.028l0,0C34.059,40.502,32.703,40.504,31.868,41.342L31.868,41.342z"/><path fill="#C18156" d="M28.821,28.225c-0.835,0.837-0.833,2.193,0.004,3.028l0,0c0.837,0.835,2.193,0.833,3.028-0.004l0,0	c0.835-0.837,0.833-2.193-0.004-3.028l0,0C31.012,27.386,29.656,27.388,28.821,28.225L28.821,28.225z"/><path fill="#C18156" d="M67.246,76.616c0.835-0.837,0.833-2.193-0.004-3.028l0,0c-0.837-0.835-2.193-0.833-3.028,0.004l0,0	c-0.835,0.837-0.833,2.193,0.004,3.028l0,0C65.055,77.456,66.411,77.454,67.246,76.616L67.246,76.616z"/><path fill="#C18156" d="M76.821,67.014c0.835-0.837,0.833-2.193-0.004-3.028l0,0c-0.837-0.835-2.193-0.833-3.028,0.004l0,0	c-0.835,0.837-0.833,2.193,0.004,3.028l0,0C74.63,67.853,75.986,67.851,76.821,67.014L76.821,67.014z"/><path fill="#C18156" d="M79.868,80.131c0.835-0.837,0.833-2.193-0.004-3.028l0,0c-0.837-0.835-2.193-0.833-3.028,0.004l0,0	C76,77.944,76.002,79.3,76.84,80.135l0,0C77.677,80.97,79.033,80.968,79.868,80.131L79.868,80.131z"/><path fill="#C17B4C" d="M87.869,87.605c-5.566,5.582-14.604,5.596-20.186,0.03L22.197,42.281c-5.582-5.566-5.596-14.604-0.03-20.186	l0,0c5.566-5.582,14.604-5.596,20.186-0.03L87.84,67.418C93.422,72.984,93.435,82.022,87.869,87.605L87.869,87.605z"/><rect x="40.863" y="39.673" transform="matrix(0.7081 0.7061 -0.7061 0.7081 54.9044 -22.7895)" fill="#E8AE82" width="28.31" height="30.689"/><path fill="#D1976B" d="M87.773,21.999c5.582,5.566,5.596,14.604,0.03,20.186L42.45,87.671c-5.566,5.582-14.604,5.596-20.186,0.03	l0,0c-5.582-5.566-5.596-14.604-0.03-20.186l45.353-45.486C73.153,16.446,82.191,16.433,87.773,21.999L87.773,21.999z"/><path fill="#AF7146" d="M41.443,31.739c-0.835,0.837-0.833,2.193,0.004,3.028l0,0c0.837,0.835,2.193,0.833,3.028-0.004l0,0	c0.835-0.837,0.833-2.193-0.004-3.028l0,0C43.633,30.9,42.278,30.902,41.443,31.739L41.443,31.739z"/><path fill="#C18156" d="M31.908,68.425c0.837,0.835,2.193,0.833,3.028-0.004l0,0c0.835-0.837,0.833-2.193-0.004-3.028l0,0	c-0.837-0.835-2.193-0.833-3.028,0.004l0,0C31.068,66.235,31.07,67.59,31.908,68.425L31.908,68.425z"/><path fill="#C18156" d="M41.51,78c0.837,0.835,2.193,0.833,3.028-0.004l0,0c0.835-0.837,0.833-2.193-0.004-3.028l0,0	c-0.837-0.835-2.193-0.833-3.028,0.004l0,0C40.671,75.809,40.673,77.165,41.51,78L41.51,78z"/><path fill="#C18156" d="M28.394,81.047c0.837,0.835,2.193,0.833,3.028-0.004l0,0c0.835-0.837,0.833-2.193-0.004-3.028l0,0	c-0.837-0.835-2.193-0.833-3.028,0.004l0,0C27.554,78.856,27.556,80.212,28.394,81.047L28.394,81.047z"/><path fill="#AF7146" d="M31.868,41.342c-0.835,0.837-0.833,2.193,0.004,3.028l0,0c0.837,0.835,2.193,0.833,3.028-0.004l0,0	c0.835-0.837,0.833-2.193-0.004-3.028l0,0C34.059,40.502,32.703,40.504,31.868,41.342L31.868,41.342z"/><path fill="#AF7146" d="M28.821,28.225c-0.835,0.837-0.833,2.193,0.004,3.028l0,0c0.837,0.835,2.193,0.833,3.028-0.004l0,0	c0.835-0.837,0.833-2.193-0.004-3.028l0,0C31.012,27.386,29.656,27.388,28.821,28.225L28.821,28.225z"/><path fill="#AF7146" d="M67.246,76.616c0.835-0.837,0.833-2.193-0.004-3.028l0,0c-0.837-0.835-2.193-0.833-3.028,0.004l0,0	c-0.835,0.837-0.833,2.193,0.004,3.028l0,0C65.055,77.456,66.411,77.454,67.246,76.616L67.246,76.616z"/><path fill="#C17B4C" d="M87.773,21.999c5.582,5.566,5.596,14.604,0.03,20.186L42.45,87.671c-5.566,5.582-14.604,5.596-20.186,0.03	l0,0c-5.582-5.566-5.596-14.604-0.03-20.186l45.353-45.486C73.153,16.446,82.191,16.433,87.773,21.999L87.773,21.999z"/><path fill="#AF7146" d="M31.908,68.425c0.837,0.835,2.193,0.833,3.028-0.004l0,0c0.835-0.837,0.833-2.193-0.004-3.028l0,0	c-0.837-0.835-2.193-0.833-3.028,0.004l0,0C31.068,66.235,31.07,67.59,31.908,68.425L31.908,68.425z"/><path fill="#AF7146" d="M41.51,78c0.837,0.835,2.193,0.833,3.028-0.004l0,0c0.835-0.837,0.833-2.193-0.004-3.028l0,0	c-0.837-0.835-2.193-0.833-3.028,0.004l0,0C40.671,75.809,40.673,77.165,41.51,78L41.51,78z"/><path fill="#AF7146" d="M28.394,81.047c0.837,0.835,2.193,0.833,3.028-0.004l0,0c0.835-0.837,0.833-2.193-0.004-3.028l0,0	c-0.837-0.835-2.193-0.833-3.028,0.004l0,0C27.554,78.856,27.556,80.212,28.394,81.047L28.394,81.047z"/><path fill="#C18156" d="M76.785,42.622c-0.837-0.835-2.193-0.833-3.028,0.004l0,0c-0.835,0.837-0.833,2.193,0.004,3.028l0,0	c0.837,0.835,2.193,0.833,3.028-0.004l0,0C77.624,44.812,77.622,43.457,76.785,42.622L76.785,42.622z"/><path fill="#C18156" d="M67.182,33.047c-0.837-0.835-2.193-0.833-3.028,0.004l0,0c-0.835,0.837-0.833,2.193,0.004,3.028l0,0	c0.837,0.835,2.193,0.833,3.028-0.004l0,0C68.022,35.238,68.02,33.882,67.182,33.047L67.182,33.047z"/><path fill="#C18156" d="M80.299,30c-0.837-0.835-2.193-0.833-3.028,0.004l0,0c-0.835,0.837-0.833,2.193,0.004,3.028l0,0	c0.837,0.835,2.193,0.833,3.028-0.004l0,0C81.138,32.191,81.137,30.835,80.299,30L80.299,30z"/><path fill="#AF7146" d="M76.821,67.014c0.835-0.837,0.833-2.193-0.004-3.028l0,0c-0.837-0.835-2.193-0.833-3.028,0.004l0,0	c-0.835,0.837-0.833,2.193,0.004,3.028l0,0C74.63,67.853,75.986,67.851,76.821,67.014L76.821,67.014z"/><path fill="#AF7146" d="M79.868,80.131c0.835-0.837,0.833-2.193-0.004-3.028l0,0c-0.837-0.835-2.193-0.833-3.028,0.004l0,0	C76,77.944,76.002,79.3,76.84,80.135l0,0C77.677,80.97,79.033,80.968,79.868,80.131L79.868,80.131z"/><rect x="41.105" y="40.724" transform="matrix(0.7061 -0.7081 0.7081 0.7061 -22.6505 55.2749)" fill="#D88B56" width="28.31" height="28.397"/><path fill="#AF7146" d="M76.785,42.622c-0.837-0.835-2.193-0.833-3.028,0.004l0,0c-0.835,0.837-0.833,2.193,0.004,3.028l0,0	c0.837,0.835,2.193,0.833,3.028-0.004l0,0C77.624,44.812,77.622,43.457,76.785,42.622L76.785,42.622z"/><path fill="#AF7146" d="M67.182,33.047c-0.837-0.835-2.193-0.833-3.028,0.004l0,0c-0.835,0.837-0.833,2.193,0.004,3.028l0,0	c0.837,0.835,2.193,0.833,3.028-0.004l0,0C68.022,35.238,68.02,33.882,67.182,33.047L67.182,33.047z"/><path fill="#AF7146" d="M80.299,30c-0.837-0.835-2.193-0.833-3.028,0.004l0,0c-0.835,0.837-0.833,2.193,0.004,3.028l0,0	c0.837,0.835,2.193,0.833,3.028-0.004l0,0C81.138,32.191,81.137,30.835,80.299,30L80.299,30z"/></svg>