<?xml version="1.0" encoding="utf-8"?><!DOCTYPE svg PUBLIC "-//W3C//DTD SVG 1.1//EN" "http://www.w3.org/Graphics/SVG/1.1/DTD/svg11.dtd"><svg version="1.1" id="Golden" xmlns="http://www.w3.org/2000/svg" xmlns:xlink="http://www.w3.org/1999/xlink" x="0px" y="0px" width="110px" height="110px" viewBox="0 0 110 110" enable-background="new 0 0 110 110" xml:space="preserve"><path fill="#EF8200" d="M95.889,73.007H66.385H13.711c-2.829,0-2.724,2.153-2.724,4.98c0,2.839,2.293,4.982,5.127,4.982H47.43	h45.875c2.829,0,5.126-2.143,5.126-4.982C98.43,75.16,98.718,73.007,95.889,73.007z"/><path fill="#D15900" d="M102.3,65.91c0,3.908-3.168,7.075-7.075,7.075H14.663c-3.908,0-7.075-3.168-7.075-7.075l0,0	c0-3.908,3.168-7.075,7.075-7.075h80.561C99.132,58.834,102.3,62.002,102.3,65.91L102.3,65.91z"/><path fill="#FAA918" d="M25.453,76.075c0,2.763,2.24,5.002,5.002,5.002l0,0c2.763,0,5.002-2.24,5.002-5.002V55.59	c0-2.763-2.24-5.002-5.002-5.002l0,0c-2.763,0-5.002,2.24-5.002,5.002V76.075z"/><path fill="#FAA918" d="M35.196,71.118c0,2.763,2.24,5.002,5.002,5.002l0,0c2.763,0,5.002-2.24,5.002-5.002V50.633	c0-2.763-2.24-5.002-5.002-5.002l0,0c-2.763,0-5.002,2.24-5.002,5.002V71.118z"/><path fill="#EF8200" d="M11.202,53.897L11.202,53.897c0-15.802,12.81-28.612,28.612-28.612h29.813	c15.802,0,28.612,12.81,28.612,28.612l0,0"/><ellipse fill="#FAA918" cx="39.734" cy="31.498" rx="3.554" ry="1.545"/><ellipse fill="#FAA918" cx="69.605" cy="31.498" rx="3.554" ry="1.545"/><ellipse fill="#FAA918" cx="54.773" cy="37.884" rx="3.554" ry="1.545"/><path fill="#E26600" d="M102.109,56.34c0,1.391-1.082,2.518-2.417,2.518H10.247c-1.335,0-2.417-1.127-2.417-2.518l0,0	c0-1.391,1.082-2.518,2.417-2.518h89.445C101.026,53.822,102.109,54.949,102.109,56.34L102.109,56.34z"/></svg>