<?xml version="1.0" encoding="utf-8"?><!DOCTYPE svg PUBLIC "-//W3C//DTD SVG 1.1//EN" "http://www.w3.org/Graphics/SVG/1.1/DTD/svg11.dtd"><svg version="1.1" id="Unlocked" xmlns="http://www.w3.org/2000/svg" xmlns:xlink="http://www.w3.org/1999/xlink" x="0px" y="0px" width="110px" height="110px" viewBox="0 0 110 110" enable-background="new 0 0 110 110" xml:space="preserve"><circle fill="#FFFFFF" cx="55.794" cy="55.543" r="40.089"/><path fill="#565656" d="M47.723,16.268c-2.766,2.662-4.651,5.644-4.651,5.644l12.709,5.445l13.16-5.473c0,0-1.544-2.729-4.049-5.383	c-2.924-0.676-5.966-1.047-9.096-1.047C53.029,15.454,50.331,15.732,47.723,16.268z"/><path fill="#565656" d="M91.632,58.44c0,0,2.293-2.387,4.144-5.686c-0.398-5.802-2.026-11.268-4.634-16.131	c-3.411-1.967-6.953-2.959-6.953-2.959l-1.572,13.735L91.632,58.44z"/><path fill="#565656" d="M19.607,58.44l9.016-11.041l-1.572-13.735c0,0-3.206,0.901-6.454,2.681	c-2.778,5.081-4.485,10.83-4.824,16.942C17.56,56.303,19.607,58.44,19.607,58.44z"/><path fill="#565656" d="M24.662,73.67c0,0-0.432,3.339-0.055,7.053c3.73,4.613,8.461,8.388,13.864,10.98	c3.395-0.475,6.074-1.487,6.074-1.487l-6.628-12.619L24.662,73.67z"/><path fill="#565656" d="M86.56,81.239c0.478-3.913,0.002-7.57,0.002-7.57l-13.254,3.927L66.68,90.215c0,0,2.826,1.071,6.354,1.527	C78.271,89.242,82.878,85.642,86.56,81.239z"/><polygon fill="#565656" points="47.614,67.52 42.66,52.448 55.628,43.112 68.595,52.406 63.641,67.52"/></svg>