<?xml version="1.0" encoding="utf-8"?><!DOCTYPE svg PUBLIC "-//W3C//DTD SVG 1.1//EN" "http://www.w3.org/Graphics/SVG/1.1/DTD/svg11.dtd"><svg version="1.1" id="Locked" xmlns="http://www.w3.org/2000/svg" xmlns:xlink="http://www.w3.org/1999/xlink" x="0px" y="0px" width="110px" height="110px" viewBox="0 0 110 110" enable-background="new 0 0 110 110" xml:space="preserve"><path fill="#D8D8D8" d="M92.206,47.376c0-20.487-16.608-37.095-37.095-37.095c-20.487,0-37.095,16.608-37.095,37.095	c0,17.641,12.326,32.376,28.827,36.138v12.817c8.077,0,14.847-5.472,16.876-12.905C80.048,79.539,92.206,64.894,92.206,47.376z"/><g><g><path fill="#BCBCBC" d="M56.975,40.528c0-7.931-6.453-14.385-14.385-14.385v9.808c2.524,0,4.577,2.053,4.577,4.577 c0,2.524-2.053,4.577-4.577,4.577v9.808c0.004,0,0.007-0.001,0.007-0.001l0.004,0.46h9.808v-4.361 C55.211,48.385,56.975,44.662,56.975,40.528z"/></g><g><circle fill="#BCBCBC" cx="47.535" cy="62.227" r="4.863"/></g><g><circle fill="#BCBCBC" cx="68.086" cy="62.227" r="4.863"/></g></g><g><rect x="63.14" y="26.344" fill="#BCBCBC" width="9.248" height="28.835"/></g></svg>