<?xml version="1.0" encoding="utf-8"?><!DOCTYPE svg PUBLIC "-//W3C//DTD SVG 1.1//EN" "http://www.w3.org/Graphics/SVG/1.1/DTD/svg11.dtd"><svg version="1.1" id="Golden" xmlns="http://www.w3.org/2000/svg" xmlns:xlink="http://www.w3.org/1999/xlink" x="0px" y="0px" width="110px" height="110px" viewBox="0 0 110 110" enable-background="new 0 0 110 110" xml:space="preserve"><path fill="#EF8200" d="M40.073,22.225c-12.351,0.152-22.319,10.206-22.319,22.594h22.319h0.282h53.536V22.218H40.073V22.225z"/><path fill="#EF8200" d="M71.41,89.579c12.351-0.152,22.319-10.206,22.319-22.594H71.41h-0.282H17.591v22.601H71.41V89.579z"/><rect x="16.744" y="65.996" fill="#E26600" width="10.453" height="25.144"/><rect x="34.083" y="76.775" fill="#E26600" width="3.338" height="12.741"/><rect x="53.621" y="76.775" fill="#E26600" width="3.338" height="12.741"/><path fill="#E26600" d="M73.16,89.47c1.14-0.102,2.253-0.288,3.338-0.553V76.775H73.16V89.47z"/><rect x="63.39" y="83.003" fill="#E26600" width="3.338" height="6.513"/><rect x="43.852" y="83.003" fill="#E26600" width="3.338" height="6.513"/><path fill="#E26600" d="M39.706,67.232c0.066,0.002,0.129,0.012,0.195,0.014v-0.014h31.226h0.283h22.319	c0-12.388-9.967-22.442-22.319-22.594v-0.007H39.627v0.012H17.776c0,12.234,9.717,22.169,21.851,22.583v0.006H39.706z"/><rect x="84.547" y="20.653" fill="#E26600" width="10.453" height="25.144"/><rect x="72.946" y="22.109" fill="#E26600" width="3.338" height="12.741"/><rect x="53.407" y="22.109" fill="#E26600" width="3.338" height="12.741"/><path fill="#E26600" d="M33.869,23.186v11.663h3.338V22.463C36.065,22.622,34.95,22.863,33.869,23.186z"/><rect x="43.638" y="22.109" fill="#E26600" width="3.338" height="6.513"/><rect x="63.177" y="22.109" fill="#E26600" width="3.338" height="6.513"/></svg>