<?xml version="1.0" encoding="utf-8"?><!DOCTYPE svg PUBLIC "-//W3C//DTD SVG 1.1//EN" "http://www.w3.org/Graphics/SVG/1.1/DTD/svg11.dtd"><svg version="1.1" id="Golden" xmlns="http://www.w3.org/2000/svg" xmlns:xlink="http://www.w3.org/1999/xlink" x="0px" y="0px" width="110px" height="110px" viewBox="0 0 110 110" enable-background="new 0 0 110 110" xml:space="preserve"><g><path fill="#EF8200" d="M55.358,53.108c-1.682-1.229-4.041-0.862-5.27,0.82l-10.33,14.135L25.42,57.586 c-1.682-1.229-4.041-0.862-5.27,0.82c-1.229,1.682-0.862,4.041,0.82,5.27l17.118,12.509c0.273,0.199,0.568,0.342,0.869,0.458 c1.614,0.8,3.614,0.357,4.713-1.147l12.509-17.118C57.407,56.697,57.04,54.337,55.358,53.108z"/><path fill="#EF8200" d="M63.102,71.762c-2.083,0-3.772,1.689-3.772,3.772v21.201c0,2.083,1.689,3.772,3.772,3.772 c2.083,0,3.772-1.689,3.772-3.772V75.533C66.873,73.45,65.185,71.762,63.102,71.762z"/><path fill="#EF8200" d="M89.84,49.248c-1.48-1.133-3.599-0.851-4.732,0.629l-3.316,5.008l-13.57-9.831 c-0.904-0.655-1.982-0.886-3.007-0.747c-0.275-0.318-0.596-0.604-0.983-0.822L45.782,33.043c-0.557-0.315-1.16-0.456-1.758-0.471 c-0.102-0.009-0.203-0.006-0.305-0.005c-0.041,0.002-0.082,0.001-0.124,0.005c-0.938,0.04-1.849,0.46-2.48,1.243 c-0.014,0.016-0.03,0.03-0.044,0.046c-0.005,0.006-0.011,0.01-0.015,0.016L41,33.961c-0.129,0.159-0.254,0.323-0.358,0.507 c-0.019,0.033-0.027,0.069-0.045,0.102l-5.327,8.045c-1.133,1.48-0.851,3.599,0.629,4.731s3.599,0.851,4.731-0.629l3.816-5.762 l16.072,9.096c0.526,0.298,1.093,0.44,1.659,0.469c0.284,0.49,0.667,0.932,1.155,1.286L79.171,63.28 c0.935,0.678,2.057,0.909,3.114,0.738c0.915-0.077,1.797-0.514,2.399-1.3l0.054-0.082c0.084-0.096,0.178-0.18,0.254-0.285 c0.173-0.239,0.315-0.49,0.431-0.749l5.047-7.622C91.602,52.499,91.321,50.381,89.84,49.248z"/><path fill="#EF8200" d="M70.13,45.333l3.418-4.932c1.224,0.37,2.52,0.573,3.864,0.573c2.063,0,4.009-0.482,5.753-1.319 c-2.666-2.233-3.253-6.152-1.222-9.054l6.491,4.541c1.458-2.138,2.312-4.72,2.312-7.502c0-7.364-5.97-13.334-13.334-13.334 s-13.334,5.97-13.334,13.334c0,3.296,1.202,6.307,3.183,8.634l-3.31,4.776L70.13,45.333z"/></g><path fill="#E26600" d="M78.407,101.143c0-3.02-2.448-5.468-5.468-5.468l-13.622-0.019v5.46c0,0.009-0.003,0.018-0.003,0.027H78.407	z"/><path fill="#E26600" d="M54.689,77.563L70.8,53.634c2.813-4.008,1.844-9.536-2.164-12.349l0,0	c-4.008-2.813-9.536-1.844-12.349,2.164L40.063,66.585"/><path fill="#E26600" d="M11.109,70.889c2.484,1.717,5.891,1.096,7.608-1.389l7.762-11.195l-4.492-3.105	c-0.008-0.005-0.013-0.012-0.021-0.018L11.109,70.889z"/><rect x="40.307" y="64.338" transform="matrix(0.825 0.5651 -0.5651 0.825 48.5956 -17.2521)" fill="#E26600" width="23.703" height="11.023"/><path fill="#70B700" d="M64.904,35.422"/><path fill="#E26600" d="M64.835,22.821c-1.78,3.865-6.356,5.555-10.22,3.775s-5.555-6.356-3.775-10.22"/><path fill="#E26600" d="M45.459,58.657L39.266,67.7l8.718,5.971c-4.653-3.544-5.798-10.124-2.464-15.012	C45.52,58.66,45.471,58.658,45.459,58.657z"/><path fill="#E26600" d="M69.471,25.244c2.035-2.54,5.676-3,8.295-1.134c-0.174-1.778,0.392-3.614,1.754-4.976	c1.905-1.905,4.734-2.283,7.033-1.184c0.297,0.281,0.567,0.588,0.838,0.895c-3.522-4.415-9.635-6.228-15.166-4.053	c-6.792,2.671-10.133,10.343-7.462,17.135l0.435-0.171L69.471,25.244z"/><path fill="#E26600" d="M83.76,26.97L83.76,26.97c0.522-0.919,1.69-1.24,2.608-0.718l0,0c0.919,0.522,1.24,1.69,0.718,2.608l0,0"/></svg>