<?xml version="1.0" encoding="utf-8"?><!DOCTYPE svg PUBLIC "-//W3C//DTD SVG 1.1//EN" "http://www.w3.org/Graphics/SVG/1.1/DTD/svg11.dtd"><svg version="1.1" id="Golden" xmlns="http://www.w3.org/2000/svg" xmlns:xlink="http://www.w3.org/1999/xlink" x="0px" y="0px" width="110px" height="110px" viewBox="0 0 110 110" enable-background="new 0 0 110 110" xml:space="preserve"><path fill="#E26600" d="M93.69,36.089l0.058-0.086l-3.159-2.142c-9.395-6.367-22.046-9.874-35.629-9.874	c-13.794,0-26.584,3.6-36.012,10.137l-3.136,2.174l0.051,0.073c-1.537,1.22-2.609,2.868-3.179,4.677h-0.252v0.931	c-0.259,1.246-0.261,2.543,0,3.829v31.985c0,4.676,3.805,8.48,8.48,8.48h4.627v0.091h59.15V69.826h-0.16L71.332,43.614H38.895	L25.699,69.826h-0.16v14.561h-4.627c-3.637,0-6.594-2.959-6.594-6.596V50.542l1.164,2.487l17.441-8.166l-2.366-5.053	c-0.457-0.977-1.087-1.808-1.794-2.546c2.343-1.139,4.859-2.117,7.516-2.924C37.5,39.358,42,43.107,47.388,43.107h14.978	c5.403,0,9.918-3.77,11.122-8.811c2.873,0.864,5.58,1.928,8.085,3.176c-0.719,0.745-1.358,1.586-1.821,2.576l-2.366,5.053	l17.441,8.166l2.366-5.053C99.257,43.807,97.662,38.663,93.69,36.089z M62.366,37.542H47.388c-2.802,0-5.143-1.967-5.742-4.59	c4.255-0.871,8.745-1.333,13.314-1.333c4.507,0,8.944,0.452,13.156,1.304C67.529,35.56,65.178,37.542,62.366,37.542z"/><rect x="44.063" y="75.71" fill="#FAA918" width="20.909" height="5.327"/><circle fill="#FAA918" cx="54.994" cy="52.876" r="18.842"/><circle fill="#EF8200" cx="54.994" cy="52.908" r="6.001"/><circle fill="#EF8200" cx="54.994" cy="40.262" r="3.167"/><circle fill="#EF8200" cx="54.994" cy="65.138" r="3.161"/><circle fill="#EF8200" cx="42.528" cy="52.729" r="3.167"/><circle fill="#EF8200" cx="67.461" cy="52.729" r="3.167"/><circle fill="#EF8200" cx="45.651" cy="43.386" r="3.167"/><circle fill="#EF8200" cx="64.337" cy="62.072" r="3.167"/><circle fill="#EF8200" cx="45.67" cy="62.021" r="3.161"/><circle fill="#EF8200" cx="64.337" cy="43.386" r="3.167"/></svg>