<?xml version="1.0" encoding="utf-8"?><!DOCTYPE svg PUBLIC "-//W3C//DTD SVG 1.1//EN" "http://www.w3.org/Graphics/SVG/1.1/DTD/svg11.dtd"><svg version="1.1" id="Locked" xmlns="http://www.w3.org/2000/svg" xmlns:xlink="http://www.w3.org/1999/xlink" x="0px" y="0px" width="110px" height="110px" viewBox="0 0 110 110" enable-background="new 0 0 110 110" xml:space="preserve"><path fill="#FFFFFF" d="M54.758,25.399c-19.066,0-34.698,14.662-36.267,33.325c1.569,18.661,17.201,33.32,36.267,33.32	s34.7-14.659,36.267-33.32C89.458,40.061,73.824,25.399,54.758,25.399z"/><circle fill="#BCBCBC" cx="54.758" cy="55.639" r="44.208"/><path fill="#EDEDED" d="M87.032,38.788c9.302,17.825,2.398,39.817-15.424,49.124c-17.824,9.304-39.819,2.399-49.125-15.422	c-9.303-17.825-2.398-39.817,15.424-49.124C55.732,14.062,77.726,20.967,87.032,38.788z"/><polygon fill="#A3A3A3" points="45.121,61.921 40.352,31.551 64.205,50.939"/><polygon fill="#BFBFBF" points="64.202,50.923 68.969,81.293 45.116,61.9"/><path fill="#EDEDED" d="M58.17,54.278c1.129,1.959,0.452,4.466-1.51,5.596c-1.963,1.128-4.47,0.454-5.599-1.511	c-1.128-1.963-0.452-4.468,1.511-5.596C54.533,51.637,57.041,52.313,58.17,54.278z"/></svg>