<?xml version="1.0" encoding="utf-8"?><!DOCTYPE svg PUBLIC "-//W3C//DTD SVG 1.1//EN" "http://www.w3.org/Graphics/SVG/1.1/DTD/svg11.dtd"><svg version="1.1" id="Golden" xmlns="http://www.w3.org/2000/svg" xmlns:xlink="http://www.w3.org/1999/xlink" x="0px" y="0px" width="110px" height="110px" viewBox="0 0 110 110" enable-background="new 0 0 110 110" xml:space="preserve"><path fill="#E26600" d="M45.123,27.612c-0.789-0.789-0.789-2.067,0-2.855l0,0c0.789-0.789,2.067-0.789,2.855,0l14.277,14.277	c0.789,0.789,0.789,2.067,0,2.855l0,0c-0.789,0.789-2.067,0.789-2.855,0L45.123,27.612z"/><path fill="#E26600" d="M64.864,24.954c0.789-0.789,2.067-0.789,2.855,0l0,0c0.789,0.789,0.789,2.067,0,2.855L53.442,42.087	c-0.789,0.789-2.067,0.789-2.855,0l0,0c-0.789-0.789-0.789-2.067,0-2.855L64.864,24.954z"/><circle fill="#E26600" cx="56.411" cy="36.499" r="10.6"/><path fill="#EF8200" d="M36.26,56.15c0-11.059,8.965-20.023,20.023-20.023s20.023,8.965,20.023,20.023S64.671,80.097,55.877,85.644	C46.948,79.962,36.26,67.209,36.26,56.15z"/><path fill="#E26600" d="M36.26,56.15c0,3.146,0.886,6.426,2.329,9.645h35.216c1.543-3.223,2.502-6.506,2.502-9.645	c0-2.642-0.524-5.157-1.454-7.466h-37.14C36.784,50.993,36.26,53.509,36.26,56.15z"/><path fill="#F49000" d="M39.641,71.032c-7.294,7.294-19.119,7.294-26.413,0c-7.294-7.294-7.294-19.119,0-26.413	s23.468-8.12,32.927-5.979C48.296,48.277,46.934,63.738,39.641,71.032z"/><path fill="#F49000" d="M73.277,71.032c7.294,7.294,19.119,7.294,26.413,0c7.294-7.294,7.294-19.119,0-26.413	c-7.294-7.294-23.468-8.12-32.927-5.979C64.621,48.277,65.983,63.738,73.277,71.032z"/></svg>