<?xml version="1.0" encoding="utf-8"?><!DOCTYPE svg PUBLIC "-//W3C//DTD SVG 1.1//EN" "http://www.w3.org/Graphics/SVG/1.1/DTD/svg11.dtd"><svg version="1.1" id="Locked" xmlns="http://www.w3.org/2000/svg" xmlns:xlink="http://www.w3.org/1999/xlink" x="0px" y="0px" width="110px" height="110px" viewBox="0 0 110 110" enable-background="new 0 0 110 110" xml:space="preserve"><path fill="#A3A3A3" d="M57.283,19.936v5.267c3.478,0,6.308,2.829,6.308,6.308v30.548c0,3.308-2.568,5.998-5.81,6.257V48.232h-5.267	v30.58c-3.064-0.428-5.438-3.039-5.438-6.22V42.045c0-3.478,2.829-6.308,6.308-6.308v-5.267c-6.382,0-11.574,5.192-11.574,11.574	v30.548c0,6.084,4.735,11.033,10.705,11.487v16.977h5.267V73.582c6.146-0.267,11.077-5.313,11.077-11.524V31.51	C68.858,25.128,63.665,19.936,57.283,19.936z"/><path fill="#BCBCBC" d="M68.38,8.552c-5.323,0-10.257,1.648-14.336,4.451c-2.266-2.954-5.794-4.89-9.805-4.89	c-6.848,0-12.4,5.552-12.4,12.4c0,1.207,0.227,2.35,0.548,3.453c-9.22,2.891-15.91,11.501-15.91,21.675	c0,12.545,10.169,22.715,22.715,22.715c8.273,0,15.492-4.438,19.463-11.048c2.996,1.246,6.279,1.94,9.725,1.94	c13.999,0,25.348-11.349,25.348-25.348C93.728,19.901,82.379,8.552,68.38,8.552z"/><path fill="#D8D8D8" d="M31.571,41.293l-0.012-0.028c-0.005,0.007-0.009,0.016-0.014,0.023c-0.009-0.001-0.017-0.004-0.026-0.005	l0.012,0.028c-0.863,1.248-0.99,3.178-0.178,4.999c0.811,1.821,2.332,3.017,3.837,3.21l0.012,0.028	c0.005-0.007,0.009-0.016,0.014-0.023c0.009,0.001,0.017,0.004,0.026,0.005l-0.012-0.028c0.863-1.248,0.99-3.178,0.178-4.999	C34.596,42.682,33.076,41.485,31.571,41.293z"/><path fill="#D8D8D8" d="M54.638,38.986l-0.012-0.028c-0.005,0.007-0.009,0.016-0.014,0.023c-0.009-0.001-0.017-0.004-0.026-0.005	l0.012,0.028c-0.863,1.248-0.99,3.178-0.178,4.999c0.811,1.821,2.332,3.017,3.837,3.21l0.012,0.028	c0.005-0.007,0.009-0.016,0.014-0.023c0.009,0.001,0.017,0.004,0.026,0.005l-0.012-0.028c0.863-1.248,0.99-3.178,0.178-4.999	C57.663,40.375,56.143,39.179,54.638,38.986z"/><path fill="#D8D8D8" d="M80.504,42.25l0.025-0.018c-0.008-0.003-0.017-0.005-0.025-0.009c-0.001-0.009,0.001-0.018,0-0.026	l-0.025,0.018c-1.393-0.602-3.311-0.349-4.937,0.803c-1.627,1.152-2.503,2.877-2.397,4.391l-0.025,0.018	c0.008,0.004,0.017,0.005,0.025,0.009c0.001,0.009-0.001,0.018,0,0.026l0.025-0.018c1.393,0.602,3.311,0.349,4.937-0.803	C79.733,45.489,80.609,43.763,80.504,42.25z"/><path fill="#D8D8D8" d="M65.242,15.857l-0.02-0.023c-0.003,0.008-0.004,0.017-0.006,0.026c0,0-0.018,0.001-0.026,0.003l0.02,0.023	c-0.461,1.446-0.018,3.329,1.29,4.833c1.308,1.504,3.111,2.205,4.607,1.949l0.02,0.023c0.003-0.008,0.004-0.017,0.006-0.026	c0.009-0.001,0.018-0.001,0.026-0.003l-0.02-0.023c0.461-1.446,0.018-3.329-1.29-4.833C68.541,16.302,66.737,15.602,65.242,15.857z"/><path fill="#D8D8D8" d="M43.286,27.024l-0.012,0.028c0,0,0.017-0.004,0.026-0.005c0.005,0.007,0.009,0.016,0.014,0.023l0.012-0.028	c1.504-0.203,3.015-1.411,3.814-3.237c0.798-1.826,0.658-3.756-0.214-4.998l0.012-0.028c-0.009,0.001-0.017,0.004-0.026,0.005	c-0.005-0.007-0.009-0.016-0.014-0.023l-0.012,0.028c-1.504,0.203-3.015,1.411-3.814,3.237	C42.274,23.853,42.415,25.782,43.286,27.024z"/></svg>