<?xml version="1.0" encoding="utf-8"?><!DOCTYPE svg PUBLIC "-//W3C//DTD SVG 1.1//EN" "http://www.w3.org/Graphics/SVG/1.1/DTD/svg11.dtd"><svg version="1.1" id="Golden" xmlns="http://www.w3.org/2000/svg" xmlns:xlink="http://www.w3.org/1999/xlink" x="0px" y="0px" width="110px" height="110px" viewBox="0 0 110 110" enable-background="new 0 0 110 110" xml:space="preserve"><circle fill="#EF8200" cx="37.811" cy="86.691" r="7.696"/><circle fill="#EF8200" cx="56.303" cy="99.402" r="4.339"/><path fill="#EF8200" d="M83.65,25.743c-2.715-8.949-11.027-15.463-20.863-15.463c-10.167,0-18.708,6.96-21.12,16.375	c-1.741-0.596-3.607-0.924-5.55-0.924c-9.469,0-17.145,7.676-17.145,17.145c0,3.3,0.935,6.381,2.551,8.997	c-1.972,2.148-3.186,5.003-3.186,8.148c0,6.663,5.402,12.065,12.065,12.065c5.622,0,10.333-3.851,11.671-9.056	c2.21,0.787,4.629,1.224,7.167,1.224c5.754,0,10.901-2.234,14.357-5.752c3.167,2.285,7.052,3.635,11.255,3.635	c10.638,0,19.262-8.624,19.262-19.262C94.114,35.409,89.862,28.939,83.65,25.743z"/></svg>