<?xml version="1.0" encoding="UTF-8" standalone="no"?><svg width="441px" height="157px" viewBox="0 0 441 157" version="1.1" xmlns="http://www.w3.org/2000/svg" xmlns:xlink="http://www.w3.org/1999/xlink" xmlns:sketch="http://www.bohemiancoding.com/sketch/ns"><defs><filter x="-20%" y="-20%" width="140%" height="140%" filterUnits="objectBoundingBox" id="filter-1"><feOffset dx="0" dy="-5" in="SourceAlpha" result="shadowOffsetInner1"/><feGaussianBlur stdDeviation="0" in="shadowOffsetInner1" result="shadowBlurInner1"/><feComposite in="shadowBlurInner1" in2="SourceAlpha" operator="arithmetic" k2="-1" k3="1" result="shadowInnerInner1"/><feColorMatrix values="0 0 0 0 0 0 0 0 0 0 0 0 0 0 0 0 0 0 0.7 0" in="shadowInnerInner1" type="matrix" result="shadowMatrixInner1"/><feMerge><feMergeNode in="SourceGraphic"/><feMergeNode in="shadowMatrixInner1"/></feMerge></filter><filter x="-20%" y="-20%" width="140%" height="140%" filterUnits="objectBoundingBox" id="filter-2"><feOffset dx="0" dy="-5" in="SourceAlpha" result="shadowOffsetInner1"/><feGaussianBlur stdDeviation="0" in="shadowOffsetInner1" result="shadowBlurInner1"/><feComposite in="shadowBlurInner1" in2="SourceAlpha" operator="arithmetic" k2="-1" k3="1" result="shadowInnerInner1"/><feColorMatrix values="0 0 0 0 0 0 0 0 0 0 0 0 0 0 0 0 0 0 0.7 0" in="shadowInnerInner1" type="matrix" result="shadowMatrixInner1"/><feMerge><feMergeNode in="SourceGraphic"/><feMergeNode in="shadowMatrixInner1"/></feMerge></filter><filter x="-20%" y="-20%" width="140%" height="140%" filterUnits="objectBoundingBox" id="filter-3"><feOffset dx="0" dy="-5" in="SourceAlpha" result="shadowOffsetInner1"/><feGaussianBlur stdDeviation="0" in="shadowOffsetInner1" result="shadowBlurInner1"/><feComposite in="shadowBlurInner1" in2="SourceAlpha" operator="arithmetic" k2="-1" k3="1" result="shadowInnerInner1"/><feColorMatrix values="0 0 0 0 0 0 0 0 0 0 0 0 0 0 0 0 0 0 0.7 0" in="shadowInnerInner1" type="matrix" result="shadowMatrixInner1"/><feMerge><feMergeNode in="SourceGraphic"/><feMergeNode in="shadowMatrixInner1"/></feMerge></filter></defs><g id="Page-1" stroke="none" stroke-width="1" fill="none" fill-rule="evenodd" sketch:type="MSPage"><g id="intro-hearts" sketch:type="MSArtboardGroup"><path d="M64.8663529,24.9792683 C48.8586667,-13.0694759 1,-4.19282476 1,39.9690357 C1,74.0769427 63.1505098,104.421129 64.9613922,110.724385 C66.6027451,104.178896 128.789216,74.0066171 128.789216,39.7059659 C128.791784,-4.56528987 80.1368431,-11.5509643 64.8663529,24.9792683" id="Imported-Layers" fill="#E83C1E" filter="url(#filter-1)" sketch:type="MSShapeGroup"/><path d="M222.866353,24.9792683 C206.858667,-13.0694759 159,-4.19282476 159,39.9690357 C159,74.0769427 221.15051,104.421129 222.961392,110.724385 C224.602745,104.178896 286.789216,74.0066171 286.789216,39.7059659 C286.791784,-4.56528987 238.136843,-11.5509643 222.866353,24.9792683" id="Imported-Layers" fill="#E83C1E" filter="url(#filter-2)" sketch:type="MSShapeGroup"/><path d="M375.866353,24.9792683 C359.858667,-13.0694759 312,-4.19282476 312,39.9690357 C312,74.0769427 374.15051,104.421129 375.961392,110.724385 C377.602745,104.178896 439.789216,74.0066171 439.789216,39.7059659 C439.791784,-4.56528987 391.136843,-11.5509643 375.866353,24.9792683" id="Imported-Layers" opacity="0.2" fill="#000000" sketch:type="MSShapeGroup"/><path d="M375.866353,70.9792683 C359.858667,32.9305241 312,41.8071752 312,85.9690357 C312,120.076943 374.15051,150.421129 375.961392,156.724385 C377.602745,150.178896 439.789216,120.006617 439.789216,85.7059659 C439.791784,41.4347101 391.136843,34.4490357 375.866353,70.9792683" id="Imported-Layers" fill="#E83C1E" filter="url(#filter-3)" sketch:type="MSShapeGroup"/></g></g></svg>