<?xml version="1.0" encoding="UTF-8" standalone="no"?><svg width="167px" height="133px" viewBox="0 0 167 133" version="1.1" xmlns="http://www.w3.org/2000/svg" xmlns:xlink="http://www.w3.org/1999/xlink"><title>she-studies</title><desc>Created with Sketch.</desc><defs/><g id="Page-1" stroke="none" stroke-width="1" fill="none" fill-rule="evenodd"><g id="survey-copy-8" transform="translate(-76.000000, -69.000000)"><g id="she-studies" transform="translate(76.000000, 69.000000)"><g id="Layer_1"><rect id="Rectangle-path" fill="#86B20D" x="11.9189189" y="80.3675676" width="18.2756757" height="46.2"/><path d="M144.843243,129.064865 L82.8648649,129.064865 L82.8648649,106.135135 L144.72973,106.135135 C151.086486,106.135135 156.194595,111.243243 156.194595,117.6 L156.194595,117.6 C156.308108,123.843243 151.2,129.064865 144.843243,129.064865 L144.843243,129.064865 Z" id="Shape" fill="#DD7128"/><polygon id="Shape" fill="#E8E8E8" points="114.875676 126.567568 77.0756757 126.567568 77.0756757 108.518919 114.875676 108.518919 119.756757 111.810811 121.345946 117.486486 119.87027 123.275676"/><path d="M112.945946,129.178378 L74.6918919,129.178378 C73.3297297,129.178378 72.3081081,128.156757 72.3081081,126.794595 C72.3081081,125.432432 73.3297297,124.410811 74.6918919,124.410811 L112.945946,124.410811 C116.578378,124.410811 119.643243,121.345946 119.643243,117.713514 C119.643243,113.967568 116.691892,111.016216 112.945946,111.016216 L74.6918919,111.016216 C73.3297297,111.016216 72.3081081,109.994595 72.3081081,108.632432 C72.3081081,107.27027 73.3297297,106.248649 74.6918919,106.248649 L112.945946,106.248649 C119.189189,106.248649 124.297297,111.47027 124.297297,117.713514 C124.297297,123.956757 119.302703,129.178378 112.945946,129.178378 L112.945946,129.178378 Z" id="Shape" fill="#EF7E29"/><path d="M155.513514,106.248649 L93.5351351,106.248649 L93.5351351,83.3189189 L155.513514,83.3189189 C161.87027,83.3189189 166.978378,88.427027 166.978378,94.7837838 L166.978378,94.7837838 C166.978378,101.140541 161.87027,106.248649 155.513514,106.248649 L155.513514,106.248649 Z" id="Shape" fill="#AF2C2C"/><polygon id="Shape" fill="#E8E8E8" points="125.545946 103.751351 87.7459459 103.751351 87.7459459 85.7027027 125.545946 85.7027027 130.427027 88.9945946 132.016216 94.7837838 130.540541 100.459459"/><path d="M85.3621622,85.7027027 L123.616216,85.7027027 C128.610811,85.7027027 132.583784,89.7891892 132.583784,94.7837838 L132.583784,94.7837838 C132.583784,99.7783784 128.497297,103.864865 123.616216,103.864865 L85.3621622,103.864865" id="Shape" stroke="#CC2F2F" stroke-width="4.2015"/><path d="M76.7351351,60.6162162 L138.6,60.6162162 L138.6,83.5459459 L76.7351351,83.5459459 C70.3783784,83.5459459 65.2702703,78.4378378 65.2702703,72.0810811 L65.2702703,72.0810811 C65.1567568,65.7243243 70.3783784,60.6162162 76.7351351,60.6162162 L76.7351351,60.6162162 Z" id="Shape" fill="#1CB0F6"/><polygon id="Shape" fill="#E8E8E8" points="106.589189 63.1135135 144.389189 63.1135135 144.389189 81.1621622 106.589189 81.1621622 101.821622 77.8702703 100.118919 72.0810811 101.594595 66.4054054"/><path d="M146.772973,83.5459459 L108.518919,83.5459459 C102.275676,83.5459459 97.1675676,78.3243243 97.1675676,72.0810811 C97.1675676,65.7243243 102.275676,60.6162162 108.518919,60.6162162 L146.772973,60.6162162 C148.135135,60.6162162 149.156757,61.6378378 149.156757,63 C149.156757,64.3621622 148.135135,65.3837838 146.772973,65.3837838 L108.518919,65.3837838 C104.886486,65.3837838 101.821622,68.4486486 101.821622,72.0810811 C101.821622,75.827027 104.772973,78.7783784 108.518919,78.7783784 L146.772973,78.7783784 C148.135135,78.7783784 149.156757,79.8 149.156757,81.1621622 C149.156757,82.4108108 148.135135,83.5459459 146.772973,83.5459459 L146.772973,83.5459459 Z" id="Shape" fill="#1EA4E0"/><path d="M28.3783784,119.302703 L28.3783784,113.740541 C28.3783784,95.9189189 42.7945946,81.6162162 60.5027027,81.6162162 L60.5027027,81.6162162 C78.3243243,81.6162162 92.627027,96.0324324 92.627027,113.740541 L92.627027,119.302703" id="Shape" fill="#86B20D"/><path d="M60.8432432,61.4108108 C55.0540541,61.4108108 50.4,66.0648649 50.4,71.627027 L50.4,83.8864865 C50.4,89.5621622 55.1675676,94.1027027 60.8432432,94.1027027 C66.5189189,94.1027027 71.2864865,89.4486486 71.2864865,83.8864865 L71.2864865,71.627027 C71.2864865,66.0648649 66.5189189,61.4108108 60.8432432,61.4108108 L60.8432432,61.4108108 Z" id="Shape" fill="#AA5E49"/><path d="M37.1189189,59.7081081 L37.1189189,54.6 L37.1189189,50.4 L37.1189189,15.6648649 C27.1297297,15.6648649 19.0702703,23.7243243 19.0702703,33.7135135 L19.0702703,36.3243243 L19.0702703,53.3513514 L19.0702703,77.7567568 C29.0594595,77.6432432 37.1189189,69.5837838 37.1189189,59.7081081 L37.1189189,59.7081081 Z" id="Shape" fill="#4C2A26"/><ellipse id="Oval" fill="#AA5E49" cx="32.6918919" cy="48.1297297" rx="7.03783784" ry="6.58378378"/><ellipse id="Oval" fill="#AA5E49" cx="88.8810811" cy="48.1297297" rx="7.03783784" ry="6.58378378"/><path d="M60.8432432,66.0648649 L60.8432432,66.0648649 C45.2918919,66.0648649 32.6918919,53.4648649 32.6918919,37.9135135 L32.6918919,28.7189189 C32.6918919,13.1675676 45.2918919,0.567567568 60.8432432,0.567567568 L60.8432432,0.567567568 C76.3945946,0.567567568 88.9945946,13.1675676 88.9945946,28.7189189 L88.9945946,37.9135135 C88.8810811,53.4648649 76.2810811,66.0648649 60.8432432,66.0648649 L60.8432432,66.0648649 Z" id="Shape" fill="#5B332D"/><path d="M60.8432432,74.6918919 L60.8432432,74.6918919 C45.2918919,74.6918919 32.6918919,62.0918919 32.6918919,46.5405405 L32.6918919,40.2972973 C32.6918919,24.7459459 45.2918919,12.1459459 60.8432432,12.1459459 L60.8432432,12.1459459 C76.3945946,12.1459459 88.9945946,24.7459459 88.9945946,40.2972973 L88.9945946,46.5405405 C88.8810811,62.0918919 76.2810811,74.6918919 60.8432432,74.6918919 L60.8432432,74.6918919 Z" id="Shape" fill="#00BDFF"/><path d="M60.8432432,83.3189189 L60.8432432,83.3189189 C45.2918919,83.3189189 32.6918919,70.7189189 32.6918919,55.1675676 L32.6918919,49.2648649 C32.6918919,33.7135135 45.2918919,21.1135135 60.8432432,21.1135135 L60.8432432,21.1135135 C76.3945946,21.1135135 88.9945946,33.7135135 88.9945946,49.2648649 L88.9945946,55.1675676 C88.8810811,70.7189189 76.2810811,83.3189189 60.8432432,83.3189189 L60.8432432,83.3189189 Z" id="Shape" fill="#BF7358"/><path d="M91.4918919,17.1405405 C91.4918919,21.6810811 87.8594595,25.3135135 83.3189189,25.3135135 C78.7783784,25.3135135 75.1459459,21.6810811 75.1459459,17.1405405" id="Shape" fill="#1EA4E0"/><path d="M80.1405405,5.67567568 C75.6,5.67567568 71.9675676,9.30810811 71.9675676,13.8486486 C71.9675676,18.3891892 75.6,22.0216216 80.1405405,22.0216216" id="Shape" fill="#1EA4E0"/><ellipse id="Oval" fill="#A85F48" cx="47.5621622" cy="51.0810811" rx="3.51891892" ry="3.51891892"/><ellipse id="Oval" fill="#A85F48" cx="74.6918919" cy="51.0810811" rx="3.51891892" ry="3.51891892"/><g id="Group" transform="translate(0.000000, 60.162162)"><path d="M23.6108108,27.6972973 L48.9243243,10.7837838 C51.3081081,9.19459459 51.9891892,5.9027027 50.4,3.51891892 L50.4,3.51891892 C48.8108108,1.13513514 45.5189189,0.567567568 43.1351351,2.15675676 L17.8216216,19.0702703" id="Shape" fill="#FFCE00"/><g><polyline id="Shape" fill="#FFCE00" points="27.3567568 12.827027 4.31351351 28.1513514 10.1027027 36.7783784 33.1459459 21.3405405"/><polygon id="Shape" fill="#E8A897" points="4.31351351 28.1513514 0 37.3459459 10.1027027 36.7783784"/><path d="M51.1945946,3.06486486 C52.7837838,5.44864865 52.1027027,8.74054054 49.7189189,10.3297297 L43.4756757,14.5297297 L38.3675676,5.33513514 L38.3675676,5.33513514 L43.9297297,1.58918919 C46.3135135,1.16573418e-14 49.6054054,0.681081081 51.1945946,3.06486486 L51.1945946,3.06486486 Z" id="Shape" fill="#FF88AA"/><rect id="Rectangle-path" fill="#AFAFAF" transform="translate(41.343529, 9.598714) rotate(56.241602) translate(-41.343529, -9.598714)" x="34.8731663" y="6.30677534" width="12.9407246" height="6.58387744"/><rect id="Rectangle-path" fill="#CECECE" transform="translate(42.857612, 11.829050) rotate(56.241602) translate(-42.857612, -11.829050)" x="40.3035212" y="8.53711155" width="5.10818077" height="6.58387744"/></g></g><rect id="Rectangle-path" fill="#BA5E45" x="56.8702703" y="46.5405405" width="8.51351351" height="14.9837838"/><path d="M14.1891892,123.843243 C14.1891892,116.124324 20.5459459,109.767568 28.2648649,109.767568 L48.2432432,109.767568 C55.9621622,109.767568 62.3189189,116.124324 62.3189189,123.843243" id="Shape" fill="#FFFFFF"/><rect id="Rectangle-path" fill="#FFFFFF" x="11.9189189" y="109.654054" width="24.972973" height="14.0756757"/><path d="M32.8054054,86.9513514 L27.8108108,86.9513514 C25.427027,86.9513514 23.4972973,85.0216216 23.4972973,82.6378378 L23.4972973,82.6378378 C23.4972973,80.2540541 25.427027,78.3243243 27.8108108,78.3243243 L32.8054054,78.3243243 C35.1891892,78.3243243 37.1189189,80.2540541 37.1189189,82.6378378 L37.1189189,82.6378378 C37.1189189,85.0216216 35.1891892,86.9513514 32.8054054,86.9513514 L32.8054054,86.9513514 Z" id="Shape" fill="#BF7358"/><path d="M107.156757,123.843243 C107.156757,116.124324 100.8,109.767568 93.0810811,109.767568 L73.1027027,109.767568 C65.3837838,109.767568 59.027027,116.124324 59.027027,123.843243" id="Shape" fill="#FFFFFF"/><rect id="Rectangle-path" fill="#FFFFFF" x="84.3405405" y="109.654054" width="24.972973" height="14.0756757"/><path d="M109.540541,129.178378 L12.0324324,129.178378 C10.5567568,129.178378 9.42162162,128.043243 9.42162162,126.567568 L9.42162162,126.340541 C9.42162162,124.864865 10.5567568,123.72973 12.0324324,123.72973 L109.540541,123.72973 C111.016216,123.72973 112.151351,124.864865 112.151351,126.340541 L112.151351,126.567568 C112.037838,127.92973 110.902703,129.178378 109.540541,129.178378 L109.540541,129.178378 Z" id="Shape" fill="#BA2D2D"/><path d="M66.7459459,132.016216 L54.4864865,132.016216 C52.5567568,132.016216 50.9675676,130.427027 50.9675676,128.497297 L50.9675676,128.27027 C50.9675676,126.340541 52.5567568,124.751351 54.4864865,124.751351 L66.7459459,124.751351 C68.6756757,124.751351 70.2648649,126.340541 70.2648649,128.27027 L70.2648649,128.497297 C70.1513514,130.427027 68.6756757,132.016216 66.7459459,132.016216 L66.7459459,132.016216 Z" id="Shape" fill="#BA2D2D"/><path d="M63.3405405,127.475676 L58.0054054,127.475676 C56.0756757,127.475676 54.4864865,125.886486 54.4864865,123.956757 L54.4864865,123.72973 C54.4864865,121.8 56.0756757,120.210811 58.0054054,120.210811 L63.3405405,120.210811 C65.2702703,120.210811 66.8594595,121.8 66.8594595,123.72973 L66.8594595,123.956757 C66.7459459,125.886486 65.2702703,127.475676 63.3405405,127.475676 L63.3405405,127.475676 Z" id="Shape" fill="#FFFFFF"/><rect id="Rectangle-path" fill="#BF7358" x="39.8432432" y="43.1351351" width="12.9405405" height="6.47027027"/><path d="M71.8540541,74.9189189 L65.8378378,74.9189189 C64.9297297,74.9189189 64.2486486,74.2378378 64.2486486,73.3297297 L64.2486486,73.3297297 C64.2486486,72.4216216 64.9297297,71.7405405 65.8378378,71.7405405 L71.9675676,71.7405405 C72.8756757,71.7405405 73.5567568,72.4216216 73.5567568,73.3297297 L73.5567568,73.3297297 C73.4432432,74.2378378 72.7621622,74.9189189 71.8540541,74.9189189 L71.8540541,74.9189189 Z" id="Shape" fill="#A85F48"/><path d="M25.8810811,84.6810811 L25.8810811,84.6810811 C23.6108108,84.6810811 21.6810811,82.7513514 21.6810811,80.4810811 L21.6810811,69.3567568 C21.6810811,67.0864865 23.6108108,65.1567568 25.8810811,65.1567568 L25.8810811,65.1567568 C28.1513514,65.1567568 30.0810811,67.0864865 30.0810811,69.3567568 L30.0810811,80.4810811 C30.0810811,82.7513514 28.1513514,84.6810811 25.8810811,84.6810811 L25.8810811,84.6810811 Z" id="Shape" fill="#BF7358"/><path d="M18.0486486,88.0864865 L18.0486486,88.0864865 C15.7783784,88.0864865 13.8486486,86.1567568 13.8486486,83.8864865 L13.8486486,72.7621622 C13.8486486,70.4918919 15.7783784,68.5621622 18.0486486,68.5621622 L18.0486486,68.5621622 C20.3189189,68.5621622 22.2486486,70.4918919 22.2486486,72.7621622 L22.2486486,83.8864865 C22.2486486,86.2702703 20.4324324,88.0864865 18.0486486,88.0864865 L18.0486486,88.0864865 Z" id="Shape" fill="#BF7358"/><path d="M10.3297297,91.6054054 L10.3297297,91.6054054 C8.05945946,91.6054054 6.12972973,89.6756757 6.12972973,87.4054054 L6.12972973,76.2810811 C6.12972973,74.0108108 8.05945946,72.0810811 10.3297297,72.0810811 L10.3297297,72.0810811 C12.6,72.0810811 14.5297297,74.0108108 14.5297297,76.2810811 L14.5297297,87.4054054 C14.5297297,89.6756757 12.6,91.6054054 10.3297297,91.6054054 L10.3297297,91.6054054 Z" id="Shape" fill="#BF7358"/></g></g></g></g></svg>