<?xml version="1.0" encoding="utf-8"?><svg version="1.1" id="Layer_1" xmlns="http://www.w3.org/2000/svg" xmlns:xlink="http://www.w3.org/1999/xlink" x="0px" y="0px" width="101px" height="81px" viewBox="0 0 101 81" style="enable-background:new 0 0 101 81;" xml:space="preserve"><style type="text/css">.st0{fill:#7AC70C;} .st1{fill:#FFFFFF;} .st2{fill:#D33131;} .st3{fill:#78C800;} .st4{opacity:0.2;fill:#231F20;} .st5{fill:#893B00;} .st6{fill:#773000;} .st7{fill:#FFB103;} .st8{opacity:0.9;fill:#FFC200;} .st9{fill:#EA7A00;} .st10{fill:url(#SVGID_1_);} .st11{fill:#FF9D00;} .st12{opacity:0.3;fill:#FFF422;} .st13{opacity:0.4;} .st14{fill:#E27100;} .st15{fill:#FF8B00;} .st16{fill:#FFC200;} .st17{fill:#FFEDC5;} .st18{opacity:0.1;fill:#231F20;} .st19{opacity:0.2;fill:#628925;} .st20{fill:#81A835;} .st21{opacity:0.3;fill:#8BBD45;} .st22{opacity:0.3;fill:url(#SVGID_2_);}</style><polygon class="st0" points="50.5,7.1 0.1,7.1 0.1,80.9 50.4,62.5 50.5,62.6 101.1,80.8 101.1,7.1"/><polygon class="st1" points="0.1,0 0.1,37.2 101.1,37.2 101.1,0 50.5,0"/><path class="st2" d="M79.3,28.2l-2.7-4.7c-0.2-0.4-0.8-0.4-1.1,0l-2.7,4.7c-0.2,0.4,0.1,0.9,0.5,0.9h0.8c0,0.1,0,0.2,0,0.4	c0,2.7-2.1,4.9-4.8,5.1v0h-5.8h-3.2h-2.8l11.7-11.7c-5.1-5.1-13.4-5.1-18.5,0l-7.9,7.9V20.3h1.3c1.9,0,3.5-1.6,3.5-3.5h-9h-4.7h-1.5	c-1.5,0-2.7,1-3.1,2.3h-0.1h-4.9c-1.5,0-2.7,1.2-2.7,2.7h4.2c-0.1,0.3-0.1,0.5-0.1,0.8c0,1.9,1.6,3.5,3.5,3.5h2.3v13.4l-6.3-2.8v-2	c0-0.8-0.6-1.4-1.4-1.4h0c-0.8,0-1.4,0.6-1.4,1.4v8.5c0,0.8,0.6,1.4,1.4,1.4h0c0.8,0,1.4-0.6,1.4-1.4v-0.3l10.3,4.5	c0.1,0,0.2,0.1,0.3,0.1l1,0.4l-1.9,4.3h-2c-0.8,0-1.4,0.6-1.4,1.4v0c0,0.8,0.6,1.4,1.4,1.4h8.5c0.8,0,1.4-0.6,1.4-1.4v0	c0-0.8-0.6-1.4-1.4-1.4H41l1.9-4.2h11.9l0.5,0.5l-3.7,3.7h-2.7c-0.8,0-1.4,0.6-1.4,1.4c0,0.8,0.6,1.4,1.4,1.4h10	c0.8,0,1.4-0.6,1.4-1.4c0-0.6-0.4-1.1-0.9-1.3l1.7-1.7c0.6-0.6,0.8-1.3,0.8-2.1c0-0.2,0-0.3,0-0.5h1.7c2,0,3.7-0.9,5-2.2l1.8,2.3	c0.1,0.1,0.1,0.1,0.2,0.2v3.9h-2.8c-0.8,0-1.4,0.6-1.4,1.4v0c0,0.8,0.6,1.4,1.4,1.4h5.6h0h2.8c0.8,0,1.4-0.6,1.4-1.4v0	c0-0.8-0.6-1.4-1.4-1.4h-0.1v-5.9c0-0.3-0.1-0.6-0.2-0.9c-0.1-0.4-0.3-0.9-0.6-1.3l-4.4-5.7v-0.3c4-0.9,7-4.4,7-8.7	c0-0.1,0-0.2,0-0.4h0.8C79.2,29.1,79.5,28.6,79.3,28.2z"/></svg>