<svg id="Layer_1" data-name="Layer 1" xmlns="http://www.w3.org/2000/svg" width="101" height="81" viewBox="0 0 101 81"><defs><style>.cls-1 { fill: #d33131; } .cls-2 { fill: #ffc200; }</style></defs><title>level_ribbon_vi</title><polygon class="cls-1" points="0.15 0 0.15 81 37.3 67.8 51.7 62.69 64.9 67.56 101.05 80.91 101.05 0 0.15 0"/><path class="cls-2" d="M68.48,29H56L52.16,17.15a1.07,1.07,0,0,0-2,0L46.27,29H33.81a1.07,1.07,0,0,0-.63,1.94l10.08,7.32L39.41,50.12a1.07,1.07,0,0,0,1.65,1.2L51.14,44l10.08,7.32a1.07,1.07,0,0,0,1.65-1.2L59,38.27,69.07,31a1.07,1.07,0,0,0-.6-2Z"/></svg>