<?xml version="1.0" encoding="UTF-8" standalone="no"?><svg width="101px" height="81px" viewBox="0 0 101 81" version="1.1" xmlns="http://www.w3.org/2000/svg" xmlns:xlink="http://www.w3.org/1999/xlink" xmlns:sketch="http://www.bohemiancoding.com/sketch/ns"><title>level-flag-pt</title><desc>Created with Sketch.</desc><defs/><g id="Page-1" stroke="none" stroke-width="1" fill="none" fill-rule="evenodd" sketch:type="MSPage"><g id="level-flag-pt" sketch:type="MSArtboardGroup"><g id="Imported-Layers" sketch:type="MSLayerGroup" transform="translate(0.000000, -2.000000)"><path d="M0.1830625,0.0795789474 L101,0.0795789474 L101,82.6458947 L51.6854875,64.4324211 L0.1830625,82.7368421 L0.1830625,12.0795789" id="Fill-1" fill="#D33131" sketch:type="MSShapeGroup"/><path d="M68.041175,64.1936842 C65.849475,65.8534737 63.3030125,67.0635789 60.5381375,67.7014737 L63.1351,68.6614737 C64.9644625,67.3970526 66.6158125,65.8938947 68.041175,64.1936842" id="Fill-2" fill="#FFFFFF" sketch:type="MSShapeGroup"/><path d="M49.21225,23.8484211 C35.6466875,23.8484211 24.651575,34.8492632 24.651575,48.4206316 C24.651575,57.5090526 29.595525,65.4265263 36.928125,69.6770526 L47.144275,66.0467368 C40.7333,62.7713684 36.33475,56.1170526 36.33475,48.4206316 C36.33475,37.488 45.19245,28.6256842 56.12065,28.6256842 C60.602525,28.6256842 64.723325,30.1351579 68.041175,32.6488421 C63.5353125,27.2703158 56.774625,23.8484211 49.21225,23.8484211" id="Fill-3" fill="#FFFFFF" sketch:type="MSShapeGroup"/><path d="M73.222475,38.5831579 L77.6601625,45.0366316 L85.165725,42.8084211 L80.4023125,49.0244211 L84.84,55.4791579 L77.459425,52.8669474 L72.6960125,59.0842105 L72.89675,51.2538947 L65.5149125,48.6416842 L73.0217375,46.4134737 L73.222475,38.5831579" id="Fill-4" fill="#FFFFFF" sketch:type="MSShapeGroup"/></g></g></g></svg>