<?xml version="1.0" encoding="UTF-8" standalone="no"?><svg width="103px" height="86px" viewBox="0 0 103 86" version="1.1" xmlns="http://www.w3.org/2000/svg" xmlns:xlink="http://www.w3.org/1999/xlink" xmlns:sketch="http://www.bohemiancoding.com/sketch/ns"><defs/><g id="Page-1" stroke="none" stroke-width="1" fill="none" fill-rule="evenodd" sketch:type="MSPage"><g id="level-flag-us" sketch:type="MSArtboardGroup" transform="translate(-8.000000, -21.000000)"><path d="M8.87323944,26.0558659 L8.87323944,107 L59.8272447,97.6145251 L110.197183,107 L110.197183,26.0558659 L8.87323944,26.0558659 Z" id="Rectangle-680" opacity="0.08" fill="#000000" sketch:type="MSShapeGroup"/><g id="Group" sketch:type="MSLayerGroup" transform="translate(9.000000, 21.000000)"><path d="M-0.126760563,0.0558659218 L-0.126760563,81 L50.8272447,71.6145251 L101.197183,81 L101.197183,0.0558659218 L-0.126760563,0.0558659218 Z" id="Rectangle-680" fill="#FFFFFF" sketch:type="MSShapeGroup"/><path d="M-0.126760563,0.284916201 L-0.126760563,81 L50.3380282,71.3687151 L50.3380282,0.284916201 L-0.126760563,0.284916201 Z" id="Rectangle-681" fill="#00608E" sketch:type="MSShapeGroup"/><path d="M-0.126760563,0.284916201 L-0.126760563,81 L50.3380282,71.3687151 L50.3380282,0.284916201 L-0.126760563,0.284916201 Z" id="Rectangle-681" fill="#00608E" sketch:type="MSShapeGroup"/></g><path d="M92.7323944,21.1424581 L92.7323944,98.2877095 L110.197183,101.857542 L110.197183,21.1424581 L92.7323944,21.1424581 Z" id="Rectangle-681" fill="#E33030" sketch:type="MSShapeGroup"/><path d="M58.7323944,21.1424581 L58.7323944,92.2877095 L76.1971831,95.8575419 L76.1971831,21.1424581 L58.7323944,21.1424581 Z" id="Rectangle-681" fill="#E33030" sketch:type="MSShapeGroup"/><polygon id="Star-1" fill="#F2F2F2" sketch:type="MSShapeGroup" points="24.4999998 86.75 19.5038258 89.3766447 20.4580099 83.8133224 16.4160196 79.8733557 22.0019135 79.0616772 24.5000001 74 26.9980882 79.0616784 32.5839818 79.8733598 28.5419898 83.8133234 29.4961741 89.3766449"/><polygon id="Star-1" fill="#F2F2F2" sketch:type="MSShapeGroup" points="44.4999998 83.75 39.5038258 86.3766447 40.4580099 80.8133224 36.4160196 76.8733557 42.0019135 76.0616772 44.5000001 71 46.9980882 76.0616784 52.5839818 76.8733598 48.5419898 80.8133234 49.4961741 86.3766449"/><polygon id="Star-1" fill="#F2F2F2" sketch:type="MSShapeGroup" points="34.4999998 66.75 29.5038258 69.3766447 30.4580099 63.8133224 26.4160196 59.8733557 32.0019135 59.0616772 34.5000001 54 36.9980882 59.0616784 42.5839818 59.8733598 38.5419898 63.8133234 39.4961741 69.3766449"/><polygon id="Star-1" fill="#F2F2F2" sketch:type="MSShapeGroup" points="23.4999998 48.75 18.5038258 51.3766447 19.4580099 45.8133224 15.4160196 41.8733557 21.0019135 41.0616772 23.5000001 36 25.9980882 41.0616784 31.5839818 41.8733598 27.5419898 45.8133234 28.4961741 51.3766449"/><polygon id="Star-1" fill="#F2F2F2" sketch:type="MSShapeGroup" points="44.4999998 46.75 39.5038258 49.3766447 40.4580099 43.8133224 36.4160196 39.8733557 42.0019135 39.0616772 44.5000001 34 46.9980882 39.0616784 52.5839818 39.8733598 48.5419898 43.8133234 49.4961741 49.3766449"/></g></g></svg>