<?xml version="1.0" encoding="UTF-8" standalone="no"?><svg width="101px" height="81px" viewBox="0 0 101 81" version="1.1" xmlns="http://www.w3.org/2000/svg" xmlns:xlink="http://www.w3.org/1999/xlink" xmlns:sketch="http://www.bohemiancoding.com/sketch/ns"><title>level-flag-eo</title><desc>Created with Sketch.</desc><defs/><g id="Page-1" stroke="none" stroke-width="1" fill="none" fill-rule="evenodd" sketch:type="MSPage"><g id="level-flag-eo" sketch:type="MSArtboardGroup"><g id="Imported-Layers" sketch:type="MSLayerGroup" transform="translate(0.000000, -1.000000)"><path d="M0,0 L0,81.776 L51.1120741,63.5738947 L51.1120741,0 L0,0 Z" id="Fill-1" fill="#FFFFFF" sketch:type="MSShapeGroup"/><path d="M51.0528889,23.6315789 L51,36.6837895 L51.0528889,48.8947368 L51,63.6130526 L51.4634074,63.4488421 L80.2576296,74.1578947 L100.79363,81.9212632 L100.79363,1 L51.0528889,1 L51.0528889,23.6315789 Z" id="Fill-2" fill="#7AC70C" sketch:type="MSShapeGroup"/><path d="M39.5621481,33.6345263 L29.6757037,33.6345263 L26.6232593,24.2075789 C26.5111852,23.8564211 26.1837778,23.6176842 25.8148148,23.6176842 C25.4458519,23.6176842 25.1184444,23.8551579 25.0051111,24.2075789 L21.9514074,33.6345263 L12.07,33.6345263 C11.701037,33.6345263 11.3736296,33.872 11.2602963,34.2244211 C11.146963,34.5768421 11.2703704,34.9621053 11.5688148,35.1793684 L19.5638519,41.0050526 L16.5101481,50.4307368 C16.3968148,50.7831579 16.5214815,51.1684211 16.8199259,51.3856842 C16.9685185,51.4943158 17.1448148,51.5486316 17.3198519,51.5486316 C17.4948889,51.5486316 17.6699259,51.4943158 17.8197778,51.3856842 L25.8135556,45.56 L33.8085926,51.3856842 C33.9571852,51.4943158 34.1334815,51.5486316 34.3085185,51.5486316 C34.4835556,51.5486316 34.6598519,51.4943158 34.8084444,51.3856842 C35.1068889,51.1671579 35.2328148,50.7818947 35.116963,50.4307368 L32.0645185,41.0050526 L40.0343704,35.1957895 C40.2622963,35.0429474 40.4121481,34.7827368 40.4121481,34.4884211 C40.4121481,34.016 40.0331111,33.6345263 39.5621481,33.6345263" id="Fill-3" fill="#7AC70C" sketch:type="MSShapeGroup"/></g></g></g></svg>