<svg id="Layer_1" data-name="Layer 1" xmlns="http://www.w3.org/2000/svg" width="101" height="81" viewBox="0 0 101 81"><defs><style>.cls-1{fill:#1cb0f6}.cls-2{fill:#fff}</style></defs><title>lvl ribbon copy</title><path class="cls-1" d="M0-.01h51.04v50.75H0z"/><path class="cls-1" d="M51.01.04H101v10.13H51.01z"/><path class="cls-2" d="M51.01 10.18H101v10.13H51.01z"/><path class="cls-2" d="M.11 20.25h50.94v10.13H.11z"/><path class="cls-2" d="M20.99.32h10.13v50.46H20.99z"/><path class="cls-1" d="M51.01 20.32H101v10.13H51.01z"/><path class="cls-2" d="M51.01 30.46H101v10.13H51.01z"/><path class="cls-1" d="M51.01 40.61H101v10.13H51.01z"/><path class="cls-2" d="M.1 50.72h100.79v10.06H.1zM.1 70.74v9.94h.08l26.87-9.94H.1zM100.89 80.68v-9.94H73.95l26.87 9.94h.07z"/><path class="cls-1" d="M73.92 70.73h26.97v-9.94H.1v9.94h26.98l23.42-8.67 23.42 8.67z"/></svg>