<?xml version="1.0" encoding="UTF-8" standalone="no"?><svg width="29px" height="38px" viewBox="0 0 29 38" version="1.1" xmlns="http://www.w3.org/2000/svg" xmlns:xlink="http://www.w3.org/1999/xlink" xmlns:sketch="http://www.bohemiancoding.com/sketch/ns"><title>Artboard 4</title><description>Created with Sketch (http://www.bohemiancoding.com/sketch)</description><defs/><g id="Page-1" stroke="none" stroke-width="1" fill="none" fill-rule="evenodd" sketch:type="MSPage"><g id="Artboard-4" sketch:type="MSArtboardGroup" fill="#000000" opacity="0.3"><path d="M24.4382915,10.8093611 C24.4382915,5.3934188 20.0487669,1.00256021 14.63497,1.00256021 C14.567485,1.00256021 14.5184959,0.998559882 14.4520107,1.00056005 C14.3975228,0.999559964 14.3280382,1.00356029 14.2725505,1.00356029 C8.85775383,1.00356029 4.47022884,5.39441888 4.47022884,10.8098611 L4.47022884,17.0168435 L1,17.0168435 L1,37 L28,37 L28,17.0168435 L24.4382915,17.0168435 L24.4382915,10.8093611 Z M9.52829091,10.9434307 C9.52829091,8.20543068 11.7667636,5.97833479 14.5168727,5.97833479 C14.5952727,5.97833479 14.7607273,5.97428 14.7607273,5.97428 C14.7607273,5.97428 14.8442182,5.9773211 14.8859636,5.9773211 C17.6360727,5.9773211 19.8740364,8.20441699 19.8740364,10.9429238 L19.8740364,16.9308416 L9.52829091,16.9308416 L9.52829091,10.9434307 L9.52829091,10.9434307 Z" id="Imported-Layers-copy" sketch:type="MSShapeGroup"/></g></g></svg>