<?xml version="1.0" encoding="UTF-8" standalone="no"?><svg width="480px" height="480px" viewBox="0 0 480 480" version="1.1" xmlns="http://www.w3.org/2000/svg" xmlns:xlink="http://www.w3.org/1999/xlink" xmlns:sketch="http://www.bohemiancoding.com/sketch/ns"><title>mannequin</title><description>Created with Sketch (http://www.bohemiancoding.com/sketch)</description><defs/><g id="Page-1" stroke="none" stroke-width="1" fill="none" fill-rule="evenodd" sketch:type="MSPage"><g id="mannequin" sketch:type="MSArtboardGroup"><g id="Group" sketch:type="MSLayerGroup" transform="translate(27.000000, 14.000000)"><path d="M376.349576,433.964185 C376.417332,443.927384 293.117642,452.575968 190.294969,453.284127 C87.4704148,453.990403 4.05968122,446.485044 3.99192576,436.521845 C3.92417031,426.558646 87.2238603,417.908178 190.046533,417.201902 C292.871087,416.495627 376.281821,424.000985 376.349576,433.964185" id="Fill-1" opacity="0.3" fill="#D6D6D6" sketch:type="MSShapeGroup"/><path d="M240.475415,398.944199 C254.305057,399.599623 253.100515,414.567022 253.045934,415.721548 C252.991354,416.87419 252.963122,431.402757 228.763131,430.253882 C213.452279,429.528772 214.600358,422.729689 214.760336,419.352748 C214.920314,415.975807 222.94369,398.111735 240.475415,398.944199" id="Fill-2" fill="#D98500" sketch:type="MSShapeGroup"/><path d="M95.9454934,0.681791701 C112.696148,0.229775104 128.782424,13.9635461 149.398904,27.697317 C170.374865,41.6702801 196.039127,55.6432432 231.864825,54.6751743 C283.377795,53.2833398 288.495214,29.9800008 312.939878,29.3189266 C329.182367,28.8800938 330.689926,60.3837672 330.817908,65.1431253 C331.597096,94.0382863 325.060576,137.752058 325.548039,155.812005 C325.956454,170.915009 342.500079,169.48174 343.975642,169.442188 C389.748218,168.204793 411.115655,156.94958 422.270838,156.648235 C433.427904,156.346891 431.754721,167.398697 431.786716,168.547572 C431.818712,169.696448 433.482485,255.741574 302.599642,309.222671 C290.768786,314.963282 280.710865,416.766837 183.916546,419.384766 C146.677393,420.390503 123.46362,403.810911 108.724926,387.231319 C94.3720611,371.088676 88.0576288,354.94415 84.6585633,355.036437 C77.7682096,355.22101 70.9474934,382.349539 25.174917,383.586935 C-0.745310044,384.287561 0.301135371,368.321958 0.229615721,365.694611 C-1.00127511,320.056002 63.0596288,181.305741 62.1957467,149.291665 C61.6104148,127.621236 50.9935109,1.89658631 95.9454934,0.681791701" id="Fill-3" fill="#78C800" sketch:type="MSShapeGroup"/><path d="M416.970856,218.028322 C377.70845,270.24754 320.076786,280.545985 312.994459,280.738092 C309.256616,280.839795 308.332507,278.651282 307.809284,276.464651 C307.291707,274.298739 307.169371,272.134709 305.10283,272.189328 C297.883109,272.383318 298.283996,368.320074 200.285135,370.968138 C103.60186,373.582301 114.723166,290.915999 114.593301,286.100139 C114.463437,281.284278 113.778354,280.208856 112.464651,280.242757 C111.15283,280.278541 108.120773,281.455668 108.284515,287.58426 C109.797721,343.623017 49.2337511,378.774841 24.2978603,379.447216 C13.1633799,379.748561 6.23538428,377.140048 1.96867249,374.162389 C4.44174672,379.015917 10.4663362,383.984333 25.174917,383.586935 C70.9474934,382.349539 77.7682096,355.22101 84.6585633,355.036437 C88.0576288,354.94415 94.3720611,371.088676 108.724926,387.231319 C123.46362,403.810911 146.677393,420.390503 183.916546,419.384766 C280.710865,416.766837 290.768786,314.963282 302.599642,309.222671 C368.994345,282.092258 401.277939,246.582588 416.970856,218.028322" id="Fill-4" fill="#71B200" sketch:type="MSShapeGroup"/><path d="M136.301397,406.709467 C151.482384,407.698254 161.9299,412.193935 161.043432,425.831653 C160.155083,439.46937 141.354825,440.844254 131.522755,440.203897 C121.688803,439.56354 111.147183,433.847414 111.787096,424.008519 C112.427009,414.167741 122.586563,405.814851 136.301397,406.709467" id="Fill-5" fill="#D98500" sketch:type="MSShapeGroup"/><path d="M240.475415,398.944199 C254.305057,399.599623 253.100515,414.567022 253.045934,415.721548 C252.991354,416.87419 252.963122,431.402757 228.763131,430.253882 C213.452279,429.528772 214.600358,422.729689 214.760336,419.352748 C214.920314,415.975807 222.94369,398.111735 240.475415,398.944199" id="Fill-18" fill="#DCDCDC" sketch:type="MSShapeGroup"/><path d="M149.398904,27.697317 C170.374865,41.6702801 196.039127,55.6432432 231.864825,54.6751743 C283.377795,53.2833398 288.495214,29.9800008 312.939878,29.3189266 C329.182367,28.8800938 330.689926,60.3837672 330.817908,65.1431253 C331.597096,94.0382863 325.060576,137.752058 325.548039,155.812005 C325.956454,170.915009 342.500079,169.48174 343.975642,169.442188 C389.748218,168.204793 411.115655,156.94958 422.270838,156.648235 C433.427904,156.346891 431.754721,167.398697 431.786716,168.547572 C431.818712,169.696448 433.482485,255.741574 302.599642,309.222671 C290.768786,314.963282 280.710865,416.766837 183.916546,419.384766 C146.677393,420.390503 123.46362,403.810911 108.724926,387.231319 C94.3720611,371.088676 88.0576288,354.94415 84.6585633,355.036437 C77.7682096,355.22101 70.9474934,382.349539 25.174917,383.586935 C-0.745310044,384.287561 0.301135371,368.321958 0.229615721,365.694611 C-1.00127511,320.056002 63.0596288,181.305741 62.1957467,149.291665 C61.6104148,127.621236 50.9935109,1.89658631 95.9454934,0.681791701 C112.696148,0.229775104 128.782424,13.9635461 149.398904,27.697317 Z" id="Fill-19" fill="#E8E8E8" sketch:type="MSShapeGroup"/><path d="M416.970856,218.028322 C377.70845,270.24754 320.076786,280.545985 312.994459,280.738092 C309.256616,280.839795 308.332507,278.651282 307.809284,276.464651 C307.291707,274.298739 307.169371,272.134709 305.10283,272.189328 C297.883109,272.383318 298.283996,368.320074 200.285135,370.968138 C103.60186,373.582301 114.723166,290.915999 114.593301,286.100139 C114.463437,281.284278 113.778354,280.208856 112.464651,280.242757 C111.15283,280.278541 108.120773,281.455668 108.284515,287.58426 C109.797721,343.623017 49.2337511,378.774841 24.2978603,379.447216 C13.1633799,379.748561 6.23538428,377.140048 1.96867249,374.162389 C4.44174672,379.015917 10.4663362,383.984333 25.174917,383.586935 C70.9474934,382.349539 77.7682096,355.22101 84.6585633,355.036437 C88.0576288,354.94415 94.3720611,371.088676 108.724926,387.231319 C123.46362,403.810911 146.677393,420.390503 183.916546,419.384766 C280.710865,416.766837 290.768786,314.963282 302.599642,309.222671 C368.994345,282.092258 401.277939,246.582588 416.970856,218.028322" id="Fill-20" fill="#E2E2E2" sketch:type="MSShapeGroup"/><path d="M136.301397,406.709467 C151.482384,407.698254 161.9299,412.193935 161.043432,425.831653 C160.155083,439.46937 141.354825,440.844254 131.522755,440.203897 C121.688803,439.56354 111.147183,433.847414 111.787096,424.008519 C112.427009,414.167741 122.586563,405.814851 136.301397,406.709467" id="Fill-21" fill="#DCDCDC" sketch:type="MSShapeGroup"/><path d="M286.231052,107.453762 C286.443729,107.457529 286.658288,107.463179 286.870965,107.468829 C286.658288,107.463179 286.443729,107.457529 286.231052,107.453762 M286.152004,107.451879 C286.176472,107.451879 286.202821,107.451879 286.227288,107.453762 C286.202821,107.451879 286.176472,107.451879 286.152004,107.451879 M285.604314,107.438695 C285.779349,107.442462 285.958148,107.446229 286.133183,107.449995 C285.958148,107.446229 285.779349,107.442462 285.604314,107.438695 M285.525266,107.436812 L285.59114,107.436812 L285.525266,107.436812 M285.433044,107.434928 L285.468803,107.434928 L285.433044,107.434928 M284.757371,107.419861 C284.949345,107.423628 285.139437,107.427395 285.33141,107.431161 C285.139437,107.427395 284.949345,107.423628 284.757371,107.419861" id="Fill-44" fill="#454545" sketch:type="MSShapeGroup"/><path d="M362.576397,275.829945 C361.866847,277.438371 361.140358,278.948859 360.398812,280.350111 L360.398812,280.348227 C361.140358,278.948859 361.866847,277.438371 362.576397,275.829945 M377.648223,208.044406 C376.411686,221.734859 374.089179,236.331228 370.981838,249.426525 C374.089179,236.331228 376.411686,221.734859 377.648223,208.044406" id="Fill-75" fill="#EB9307" sketch:type="MSShapeGroup"/><path d="M383.262515,273.040626 C383.253105,273.066993 383.241812,273.097128 383.232402,273.123495 C383.241812,273.097128 383.253105,273.068877 383.262515,273.040626 M383.367913,272.759999 C383.360384,272.7826 383.350974,272.8052 383.343445,272.827801 C383.350974,272.8052 383.360384,272.7826 383.367913,272.759999 M383.475192,272.473722 C383.467664,272.492556 383.460135,272.513273 383.452607,272.53399 C383.460135,272.513273 383.467664,272.492556 383.475192,272.473722 M383.584354,272.181794 C383.576825,272.202512 383.571179,272.217579 383.563651,272.238296 C383.571179,272.219462 383.576825,272.200628 383.584354,272.181794 M383.684105,271.914351 C383.682223,271.920001 383.680341,271.927535 383.676576,271.933185 C383.680341,271.927535 383.682223,271.920001 383.684105,271.914351" id="Fill-76" fill="#F2F2F2" sketch:type="MSShapeGroup"/><path d="M10.7279476,296.161275 L10.7279476,296.161275 C10.7279476,296.168808 10.7260655,296.176342 10.7260655,296.181992 C10.7260655,296.176342 10.7279476,296.168808 10.7279476,296.161275" id="Fill-79" fill="#F2F2F2" sketch:type="MSShapeGroup"/><path d="M80.3767948,345.77198 L80.3749127,345.773863 C83.143476,349.090535 84.2087424,351.602994 84.8580655,353.136083 C84.2087424,351.60111 83.1491223,349.090535 80.3767948,345.77198" id="Fill-81" fill="#6BA900" sketch:type="MSShapeGroup"/><path d="M84.8580655,353.136083 L84.8580655,353.136083 L84.8693581,353.164334 L84.8580655,353.136083" id="Fill-82" fill="#EB9307" sketch:type="MSShapeGroup"/><path d="M85.5563231,339.827961 C83.8906681,342.958176 81.3197249,345.065704 80.3767948,345.77198 C83.1491223,349.090535 84.2087424,351.60111 84.8580655,353.136083 L84.8693581,353.164334 C85.3681135,353.237787 85.7351223,353.277339 85.9383886,353.277339 C87.0657642,353.277339 89.4390873,351.734832 91.9102795,349.214839 C91.821821,349.292059 91.7333624,349.367395 91.6449039,349.438964 C90.9635852,347.534844 89.1699476,344.033599 85.5563231,339.827961" id="Fill-83" fill="#E6E6E6" sketch:type="MSShapeGroup"/><path d="M331.049406,224.512877 C331.049406,224.512877 331.041878,224.516644 331.024939,224.527944 L331.049406,224.512877" id="Fill-87" fill="#FFE8B4" sketch:type="MSShapeGroup"/><path d="M57.2759476,168.534388 L57.2759476,168.534388 C57.4848603,169.909272 57.7163581,171.342541 57.9742052,172.834196 C57.7163581,171.342541 57.4848603,169.909272 57.2759476,168.534388" id="Fill-90" fill="#FFE8B4" sketch:type="MSShapeGroup"/><path d="M57.9742052,172.834196 L57.9742052,172.834196 C62.3707817,198.288381 74.3616157,239.888975 105.075541,259.512146 L105.220463,259.527213 L105.220463,259.525329 C105.17341,259.521563 105.124476,259.515912 105.077424,259.512146 C74.3616157,239.888975 62.3707817,198.286498 57.9742052,172.834196" id="Fill-91" fill="#FDE1B5" sketch:type="MSShapeGroup"/></g></g></g></svg>