<?xml version="1.0" encoding="utf-8"?><svg version="1.1" id="Layer_1" xmlns="http://www.w3.org/2000/svg" xmlns:xlink="http://www.w3.org/1999/xlink" x="0px" y="0px" viewBox="0 0 300 150" style="enable-background:new 0 0 300 150;" width="300" height="150" xml:space="preserve"><style type="text/css">.st0{fill:url(#SVGID_1_);} .st1{fill:#A06318;} .st2{fill:#CE9036;} .st3{fill:url(#SVGID_2_);} .st4{fill:#63961B;} .st5{fill:#FFFFFF;} .st6{opacity:5.000000e-02;fill:#E6E6E6;enable-background:new ;} .st7{opacity:5.000000e-02;fill:#4E9DF1;} .st8{opacity:0.9;fill:#C6C6C6;} .st9{opacity:0.75;fill:#D3D3D3;} .st10{opacity:0.13;fill:#4E9DF1;} .st11{opacity:0.45;fill:#FFFFFF;enable-background:new ;} .st12{opacity:0.1;fill:#4E9DF1;} .st13{opacity:7.000000e-02;fill:#4E9DF1;} .st14{fill:#876148;} .st15{fill:#577F17;} .st16{fill:#68A31C;} .st17{fill:#C62E26;} .st18{opacity:0.75;fill:url(#SVGID_3_);} .st19{fill:#EFB454;} .st20{opacity:0.25;} .st21{opacity:0.25;fill:#FFFFFF;}</style><linearGradient id="SVGID_1_" gradientUnits="userSpaceOnUse" x1="150.0072" y1="177.2419" x2="150.0072" y2="95.1249"><stop offset="0" style="stop-color:#6AC6ED"/><stop offset="0.2854" style="stop-color:#66C1EE"/><stop offset="0.6253" style="stop-color:#5BB3F0"/><stop offset="0.9917" style="stop-color:#499BF4"/><stop offset="1" style="stop-color:#499AF4"/></linearGradient><path class="st0" d="M204.4,103.7C191,98,179,95.1,165.1,95.1H150h-15.1c-13.9,0-25.9,2.9-39.3,8.6L2.2,150h295.6L204.4,103.7z"/><g><path class="st1" d="M154.9,58.6l-3.9-11.8c-0.2-0.4-0.5-0.7-0.9-0.7s-0.7,0.2-0.9,0.7l-3.9,11.8l1.6-18c0-2.1,1.5-3.9,3.3-3.9 s3.3,1.8,3.3,3.9L154.9,58.6z M150,45.4c0.6,0,1.2,0.4,1.4,1l2.4,7.2l-1.2-12.9c0-1.8-1.2-3.2-2.7-3.2s-2.7,1.5-2.7,3.2l-1.1,13.1 l2.4-7.2C148.8,45.9,149.4,45.4,150,45.4z"/></g><path class="st2" d="M153.5,40.1h-7l2.8,9v4.1c0,0.4,0.3,0.6,0.6,0.6s0.6-0.3,0.6-0.6V49L153.5,40.1z"/><linearGradient id="SVGID_2_" gradientUnits="userSpaceOnUse" x1="150.0072" y1="53.7702" x2="150.0072" y2="40.0844"><stop offset="0" style="stop-color:#FFD300"/><stop offset="1" style="stop-color:#FFD300;stop-opacity:0"/></linearGradient><path class="st3" d="M153.5,40.1h-7l2.8,9v4.1c0,0.4,0.3,0.6,0.6,0.6s0.6-0.3,0.6-0.6V49L153.5,40.1z"/><path class="st4" d="M110.7,150h61.7l0,0h78.2c-0.4-2-2.4-3.5-4.8-3.5c-1.2,0-2.3,0.4-3.1,1c-1-3.3-4.4-5.7-8.3-5.7	c-3.6,0-6.7,2-8,4.8c-0.7-0.6-1.5-0.9-2.5-0.9c0,0,0,0,0,0c0,0,0-0.1,0-0.1c0-4.2-3.5-7.6-7.8-7.6c-3.5,0-6.5,2.3-7.5,5.4	c-0.9-0.6-2-1-3.2-1c-0.8,0-1.5,0.2-2.1,0.4c0.1-0.4,0.1-0.8,0.1-1.1c0-3.8-3.2-7-7.1-7c-3.4,0-6.3,2.3-7,5.5	c-0.8-0.5-1.8-0.8-2.9-0.8c-0.4,0-0.7,0-1.1,0.1c-0.5-2.7-2.9-4.8-5.8-4.8c-1.2,0-2.3,0.4-3.3,1c-0.5-3.5-3.5-6.2-7.2-6.2	c-2.9,0-5.5,1.7-6.6,4.1c-2.7,1.3-4.6,4-4.6,7.1c0,0,0,0.1,0,0.1c-3.5,0.5-6.6,2.4-8.7,5.1c-0.5-0.8-1.2-1.5-2-2.1	c0.7-1.1,1.2-2.4,1.2-3.8c0-3.9-3.2-7-7.2-7c-2.8,0-5.3,1.6-6.4,3.9c-0.6-0.1-1.2-0.2-1.9-0.2c-2.3,0-4.5,0.9-6.1,2.3	c-1.8-1.9-4.4-3.1-7.2-3.1c-1,0-2,0.1-2.9,0.4c-1.3-3.2-4.4-5.5-8.1-5.5c-4.6,0-8.4,3.6-8.7,8.2c-0.6-0.1-1.2-0.2-1.8-0.2	c-3.3,0-6.1,1.8-7.6,4.5c-1.1-3.8-4.7-6.6-8.9-6.6c-4.4,0-8.1,3.1-9,7.1c-0.8-0.2-1.5-0.3-2.4-0.3c-2.3,0-4.4,0.8-5.9,2.2	c-1.3-2.1-3.7-3.4-6.3-3.4c-2.4,0-4.5,1.1-5.9,2.8c-0.2,0-0.4,0-0.7,0c-3.3,0-6.1,2.1-7.1,4.9L110.7,150L110.7,150z"/><polygon class="st5" points="160.8,136.5 139.2,136.5 144.6,56.8 155.4,56.8"/><polygon class="st6" points="160.8,136.5 139.2,136.5 144.6,56.8 155.4,56.8"/><polygon class="st7" points="160.8,136.5 139.2,136.5 144.6,56.8 155.4,56.8"/><rect x="147.3" y="136.5" class="st5" width="5.5" height="8.9"/><polygon class="st5" points="179.1,150 120.8,150 121.3,145.4 178.7,145.4"/><polygon class="st8" points="179.1,150 120.8,150 121.3,145.4 178.7,145.4"/><polygon class="st5" points="171.1,145.4 128.9,145.4 129.8,136.5 170.1,136.5"/><polygon class="st9" points="171.1,145.4 128.9,145.4 129.8,136.5 170.1,136.5"/><polygon class="st5" points="148.8,55.6 150,55.6 150,56.8 150,136.5 148.8,136.5 147.6,136.5 147.6,56.8"/><polygon class="st5" points="151.1,55.6 150,55.6 150,56.8 150,136.5 151.1,136.5 152.3,136.5 152.3,56.8"/><polygon class="st10" points="148.8,55.6 150,55.6 150,56.8 150,136.5 148.8,136.5 147.6,136.5 147.6,56.8"/><polygon class="st10" points="151.1,55.6 150,55.6 150,56.8 150,136.5 151.1,136.5 152.3,136.5 152.3,56.8"/><polygon class="st11" points="156.5,145.4 143.4,145.4 144.3,136.5 155.6,136.5"/><rect x="148.8" y="55.6" class="st5" width="2.4" height="80.9"/><rect x="148.8" y="115.6" class="st12" width="2.4" height="1.5"/><rect x="148.8" y="97.9" class="st12" width="2.4" height="1.5"/><rect x="148.8" y="81.5" class="st12" width="2.4" height="1.5"/><rect x="148.8" y="67.8" class="st12" width="2.4" height="1.5"/><polygon class="st13" points="148.8,69.2 148.8,67.8 147.6,68.8 143.8,68.8 143.6,70.3 147.6,70.3"/><polygon class="st13" points="151.1,69.2 151.1,67.8 152.3,68.8 156.2,68.8 156.3,70.3 152.3,70.3"/><polygon class="st13" points="148.8,82.9 148.8,81.5 147.6,82.4 142.8,82.4 142.7,84 147.6,84"/><polygon class="st13" points="151.1,82.9 151.1,81.5 152.3,82.4 157.1,82.4 157.2,84 152.3,84"/><polygon class="st13" points="148.8,99.4 148.8,97.9 147.6,98.9 141.7,98.9 141.6,100.4 147.6,100.4"/><polygon class="st13" points="151.1,99.4 151.1,97.9 152.3,98.9 158.2,98.9 158.4,100.4 152.3,100.4"/><polygon class="st13" points="148.8,117 148.8,115.6 147.6,116.5 140.5,116.5 140.4,118 147.6,118"/><polygon class="st13" points="151.1,117 151.1,115.6 152.3,116.5 159.4,116.5 159.5,118 152.3,118"/><g><g><rect x="210.2" y="141.2" class="st14" width="2.5" height="8.8"/></g><g><path class="st14" d="M215.7,147.9h-3.3v-1.7h3.3c0.4,0,0.6-0.3,0.6-0.6v-7.1c0-0.4-0.3-0.6-0.6-0.6h-3.3v-1.7h3.3 c1.3,0,2.3,1.1,2.3,2.3v7.1C218,146.9,217,147.9,215.7,147.9z"/></g><path class="st15" d="M219.6,143.8c1.5,0,2.6-1.4,2.2-2.9c-1.3-4.6-5.4-7.9-10.4-7.9s-9.1,3.3-10.4,7.9c-0.4,1.4,0.7,2.9,2.2,2.9 H219.6z"/></g><g><g><rect x="196" y="138.2" class="st14" width="3.2" height="11.8"/></g><g><path class="st14" d="M203.2,147.1h-4.3v-2.2h4.3c0.5,0,0.8-0.4,0.8-0.8v-9.3c0-0.5-0.4-0.8-0.8-0.8h-4.3v-2.2h4.3 c1.7,0,3.1,1.4,3.1,3.1v9.3C206.3,145.7,204.9,147.1,203.2,147.1z"/></g><path class="st16" d="M208.4,141.6c2,0,3.4-1.9,2.9-3.8c-1.6-6-7.1-10.4-13.7-10.4s-12,4.4-13.7,10.4c-0.5,1.9,0.9,3.8,2.9,3.8 H208.4z"/></g><g><g><rect x="84.2" y="141.2" class="st14" width="2.5" height="8.8"/></g><g><path class="st14" d="M89.7,147.9h-3.3v-1.7h3.3c0.4,0,0.6-0.3,0.6-0.6v-7.1c0-0.4-0.3-0.6-0.6-0.6h-3.3v-1.7h3.3 c1.3,0,2.3,1.1,2.3,2.3v7.1C92.1,146.9,91,147.9,89.7,147.9z"/></g><path class="st15" d="M93.7,143.8c1.5,0,2.6-1.4,2.2-2.9c-1.3-4.6-5.4-7.9-10.4-7.9s-9.1,3.3-10.4,7.9c-0.4,1.4,0.7,2.9,2.2,2.9 H93.7z"/></g><g><g><rect x="97.7" y="138.2" transform="matrix(-1 -4.620005e-11 4.620005e-11 -1 198.615 288.1815)" class="st14" width="3.2" height="11.8"/></g><path class="st16" d="M88.5,141.6c-2,0-3.4-1.9-2.9-3.8c1.6-6,7.1-10.4,13.7-10.4s12,4.4,13.7,10.4c0.5,1.9-0.9,3.8-2.9,3.8H88.5z"/></g><path class="st17" d="M153.5,36.4h-7v-3.8c0-1,0.4-1.8,1-2.4h0l0,0l0,0l2.5-2.5v1.9c0,0.7,0.6,1.4,1.4,1.4h0c0.5,0,1-0.3,1.2-0.7	c0.6,0.6,0.9,1.5,0.9,2.4V36.4"/><linearGradient id="SVGID_3_" gradientUnits="userSpaceOnUse" x1="150.0072" y1="27.5721" x2="150.0072" y2="36.3512"><stop offset="0" style="stop-color:#992743;stop-opacity:0"/><stop offset="1" style="stop-color:#992743"/></linearGradient><path class="st18" d="M153.5,36.4h-7v-3.8c0-1,0.4-1.8,1-2.4h0l0,0l0,0l2.5-2.5v1.9c0,0.7,0.6,1.4,1.4,1.4h0c0.5,0,1-0.3,1.2-0.7	c0.6,0.6,0.9,1.5,0.9,2.4V36.4"/><path class="st19" d="M154.1,40.3h-8.3c-0.6,0-1.1-0.5-1.1-1.1v-1.8c0-0.6,0.5-1.1,1.1-1.1h8.3c0.6,0,1.1,0.5,1.1,1.1v1.8	C155.2,39.8,154.7,40.3,154.1,40.3z"/><g class="st20"><path class="st5" d="M114.1,43.7H112c0.3-0.8,0.5-1.7,0.5-2.6c0-3.9-3.1-7-7-7c-2.7,0-5,1.5-6.2,3.7c-0.9-0.4-1.9-0.7-3-0.7 c-3.7,0-6.8,2.9-7,6.6h-4c-0.9,0-1.6,0.7-1.6,1.6c0,0.9,0.7,1.6,1.6,1.6h28.7c0.9,0,1.6-0.7,1.6-1.6 C115.7,44.4,115,43.7,114.1,43.7z"/><path class="st5" d="M78.7,43.7h-4.3c-0.9,0-1.6,0.7-1.6,1.6c0,0.9,0.7,1.6,1.6,1.6h4.3c0.9,0,1.6-0.7,1.6-1.6 C80.3,44.4,79.5,43.7,78.7,43.7z"/></g><path class="st21" d="M209.7,78h-2.2c0.4-0.9,0.6-1.8,0.6-2.8c0-4.1-3.3-7.4-7.4-7.4c-2.8,0-5.3,1.6-6.5,3.9c-1-0.4-2-0.7-3.1-0.7	c-3.9,0-7.2,3.1-7.4,7h-4.2c-0.9,0-1.7,0.8-1.7,1.7c0,0.9,0.8,1.7,1.7,1.7h30.3c0.9,0,1.7-0.8,1.7-1.7C211.4,78.7,210.6,78,209.7,78	z"/></svg>