<?xml version="1.0" encoding="utf-8"?><svg version="1.1" id="Layer_1" xmlns="http://www.w3.org/2000/svg" xmlns:xlink="http://www.w3.org/1999/xlink" x="0px" y="0px" width="300px" height="150px" viewBox="0 0 300 150" style="enable-background:new 0 0 300 150;" xml:space="preserve"><style type="text/css">.st0{fill:#4B7231;} .st1{fill:#5B3824;} .st2{fill:#528730;} .st3{fill:none;stroke:#704D36;stroke-width:4.9236;stroke-miterlimit:10;} .st4{fill:#619341;} .st5{fill:#DBC9BF;} .st6{fill:#8E3030;} .st7{opacity:0.35;fill:#3C3C3C;} .st8{fill:#415556;} .st9{opacity:0.4;fill:url(#SVGID_1_);} .st10{fill:#3C3C3C;} .st11{fill:#AD3A3A;} .st12{fill:#FFFFFF;} .st13{fill:#C64040;} .st14{opacity:0.9;fill:#FFFFFF;} .st15{fill:#53706F;} .st16{fill:#353535;} .st17{opacity:0.25;fill:#B79484;} .st18{opacity:0.1;} .st19{fill:none;} .st20{fill:#3C3C3C;stroke:#3C3C3C;stroke-width:0.5;stroke-miterlimit:10;} .st21{opacity:0.6;fill:url(#SVGID_2_);} .st22{fill:#E2D8D5;} .st23{fill:#E5E1E1;} .st24{fill:#5D6A70;} .st25{fill:#68757A;} .st26{fill:#627E7F;} .st27{opacity:0.4;} .st28{opacity:0.55;fill:#46593A;}</style><g><circle class="st0" cx="126.9" cy="48.7" r="23.3"/><circle class="st0" cx="82.1" cy="118" r="19.4"/><circle class="st0" cx="102.1" cy="105.5" r="19.4"/><circle class="st0" cx="211.3" cy="116" r="19.4"/><circle class="st0" cx="191.2" cy="103.5" r="19.4"/><circle class="st0" cx="151.1" cy="50" r="12.2"/><g><rect x="102.1" y="71.1" class="st1" width="7.3" height="46.4"/><circle class="st2" cx="101.3" cy="57.6" r="23.3"/><circle class="st2" cx="114.4" cy="72" r="12.9"/></g><rect x="192" y="82" class="st1" width="5.6" height="35.4"/><circle class="st2" cx="189.2" cy="61.2" r="16.8"/><circle class="st2" cx="201.3" cy="79.1" r="13.8"/><path class="st2" d="M50.6,148.7h113c-5.9-25.8-28.9-45-56.5-45S56.5,122.9,50.6,148.7z"/><g><path class="st3" d="M54.3,108.2h-8c-3.2,0-5.8-2.6-5.8-5.8v-6.2"/><path class="st2" d="M47.2,101.2c1.2,0,2.1-1.1,1.8-2.3c-1-3.7-4.4-6.3-8.3-6.3s-7.3,2.7-8.3,6.3c-0.3,1.2,0.6,2.3,1.8,2.3H47.2z"/><line class="st3" x1="54.3" y1="126.4" x2="54.3" y2="84.7"/><path class="st2" d="M69.9,89.3c2.8,0,4.9-2.7,4.2-5.4c-2.4-8.6-10.2-14.9-19.6-14.9s-17.2,6.3-19.6,14.9 c-0.7,2.7,1.3,5.4,4.2,5.4H69.9z"/></g><path class="st4" d="M1.4,149.9h142.8c-16.7-21-42.5-34.4-71.4-34.4C43.9,115.5,18.2,128.9,1.4,149.9z"/><path class="st2" d="M254.7,148.7h-113c5.9-25.8,28.9-45,56.5-45S248.8,122.9,254.7,148.7z"/><g><path class="st3" d="M242.4,94.3h-4.5c-3.8,0-7-3.1-7-7v-7.5"/><path class="st3" d="M242.4,107.5h9.6c3.8,0,7-3.1,7-7V93"/><path class="st2" d="M251.1,99.1c-1.4,0-2.5-1.4-2.1-2.8c1.2-4.4,5.3-7.7,10.1-7.7c4.8,0,8.8,3.2,10.1,7.7 c0.4,1.4-0.7,2.8-2.1,2.8H251.1z"/><line class="st3" x1="242.4" y1="129.5" x2="242.4" y2="79.2"/><path class="st2" d="M223.8,84.7c-3.4,0-5.9-3.2-5-6.5c2.9-10.4,12.4-18,23.6-18s20.8,7.6,23.6,18c0.9,3.3-1.6,6.5-5,6.5H223.8z"/></g><path class="st4" d="M300,149.9H157.2c16.7-21,42.5-34.4,71.4-34.4C257.5,115.5,283.3,128.9,300,149.9z"/><path class="st5" d="M257,140.1v-6.2c0-1.9-1.6-3.5-3.5-3.5h-24.8v-6.2c0-1.9-1.6-3.5-3.5-3.5H75.9c-1.9,0-3.5,1.6-3.5,3.5v6.2 H46.2c-1.9,0-3.5,1.6-3.5,3.5v6.2h-12c-1.9,0-3.5,1.6-3.5,3.5v6.3H274v-6.3c0-1.9-1.6-3.5-3.5-3.5H257z"/><g><path class="st6" d="M106.7,89.2v31.6h87.5V89.2c8.7-0.8,15.4-6.6,15.4-14.6H91.5C91.5,82.6,98.2,88.3,106.7,89.2z"/></g><rect x="178.6" y="90.2" class="st7" width="11" height="25.1"/><rect x="111.7" y="90.2" class="st7" width="11" height="25.1"/><path class="st8" d="M184.8,60.5v-7.7c-4.4,1.6-10.2,2.6-16.6,2.6c-6.9,0-13.1-1.1-17.6-3c-4.5,1.9-10.7,3-17.6,3 c-6.5,0-12.3-1-16.7-2.6v7.8h-5.9v19.7h80.2V60.5H184.8z"/><linearGradient id="SVGID_1_" gradientUnits="userSpaceOnUse" x1="134.1698" y1="105.3161" x2="194.2329" y2="165.3793"><stop offset="0" style="stop-color:#000000;stop-opacity:0.4"/><stop offset="1" style="stop-color:#000000;stop-opacity:0"/></linearGradient><polygon class="st9" points="209.7,149.9 145.8,149.9 118.7,120.8 182.6,120.8"/><rect x="133.1" y="90.2" class="st10" width="35.1" height="25.1"/><rect x="168.2" y="90.2" class="st11" width="4.1" height="25.1"/><rect x="129" y="90.2" transform="matrix(-1 -1.349255e-10 1.349255e-10 -1 262.1236 205.437)" class="st11" width="4.1" height="25.1"/><rect x="133.1" y="90.2" transform="matrix(-1 -7.937707e-11 7.937707e-11 -1 276.3373 205.437)" class="st12" width="10.1" height="25.1"/><rect x="127.9" y="90.2" transform="matrix(-1 -2.725696e-10 2.725696e-10 -1 256.8707 190.9571)" class="st12" width="1.2" height="10.6"/><rect x="172.2" y="90.2" transform="matrix(-1 -2.725696e-10 2.725696e-10 -1 345.654 190.9571)" class="st12" width="1.2" height="10.6"/><path class="st11" d="M132.1,126.1L132.1,126.1c-1.2,0-2.2,1-2.2,2.2v2.8c0,1.2,1,2.2,2.2,2.2l0,0c1.2,0,2.2-1,2.2-2.2v-2.8 C134.3,127.1,133.3,126.1,132.1,126.1z"/><polygon class="st11" points="135.4,120.3 128.9,120.3 131,127.7 133.3,127.7"/><path class="st13" d="M126.3,81.9V86v4.1h24.3H175v-4.1v-4.1c-8.1,1.7-16.2,2.1-24.3,2.1C142.5,84.1,134.4,83.6,126.3,81.9z"/><path class="st8" d="M155.1,59.1v-6.9c0-3-1.9-5.5-4.5-6.5c-2.6,1-4.5,3.6-4.5,6.5v6.9"/><path class="st14" d="M150.6,72.8c2.6,2.6,5.8-2.2,9.3,0.1c2.1,1.4,4.4-1.2,6.7-0.1l5.3-1.4c-4.3-1.4-8.3-3.6-11.9-6.2 c-3.6-2.6-6.7-5.6-9.4-8.4c-2.7,2.9-5.8,5.8-9.4,8.4c-3.6,2.6-7.6,4.8-11.9,6.2l5.3,1.4c2.4-1.1,4.6,1.5,6.7,0.1 C144.9,70.6,148,75.3,150.6,72.8z"/><path class="st15" d="M163.4,62.3c-4.8-3.3-9.1-7.9-12.8-11.5c-3.6,3.6-7.9,8.2-12.8,11.5c-4.2,2.8-8.7,5.3-13.7,7 c-0.7,0.2-0.6,1.2,0.1,1.4l26.4,6.6l28.9-7.2C173.6,68.4,168.2,65.6,163.4,62.3z M132.1,70.5c3.8-1.2,7.2-3.1,10.3-5.4 c3.1-2.3,5.8-4.8,8.2-7.3c2.3,2.5,5.1,5.1,8.2,7.3c3.1,2.3,6.6,4.2,10.3,5.4l-18.5,5L132.1,70.5z"/><rect x="158.1" y="90.2" class="st12" width="10.1" height="25.1"/><polygon class="st16" points="158.1,90.2 143.2,90.2 155.8,115.3 158.1,115.3"/><g><rect x="149.7" y="75.5" transform="matrix(2.070682e-10 -1 1 2.070682e-10 41.0936 260.1881)" class="st13" width="2" height="68.2"/><rect x="118.7" y="110.1" class="st13" width="2" height="6.6"/><rect x="126.1" y="110.1" class="st13" width="2" height="6.6"/><rect x="132.9" y="110.1" class="st13" width="2" height="6.6"/><rect x="141.8" y="110.1" class="st13" width="2" height="6.6"/><rect x="149.7" y="110.1" class="st13" width="2" height="6.6"/><rect x="157.5" y="110.1" class="st13" width="2" height="6.6"/><rect x="165.4" y="110.1" class="st13" width="2" height="6.6"/><rect x="173.3" y="110.1" class="st13" width="2" height="6.6"/><rect x="180.6" y="110.1" class="st13" width="2" height="6.6"/></g><path class="st11" d="M169.1,126.1L169.1,126.1c-1.2,0-2.2,1-2.2,2.2v2.8c0,1.2,1,2.2,2.2,2.2l0,0c1.2,0,2.2-1,2.2-2.2v-2.8 C171.3,127.1,170.4,126.1,169.1,126.1z"/><polygon class="st11" points="172.4,120.3 165.9,120.3 168,127.7 170.3,127.7"/><path class="st17" d="M69.3,135.9h-7.7c-0.5,0-0.8,0.4-0.8,0.8v2.9c0,0.5,0.4,0.8,0.8,0.8h7.7c0.5,0,0.8-0.4,0.8-0.8v-2.9 C70.1,136.3,69.7,135.9,69.3,135.9z"/><path class="st17" d="M67.1,146.5h7.7c0.5,0,0.8-0.4,0.8-0.8v-2.9c0-0.5-0.4-0.8-0.8-0.8h-7.7c-0.5,0-0.8,0.4-0.8,0.8v2.9 C66.3,146.1,66.7,146.5,67.1,146.5z"/><path class="st17" d="M56.1,146.5h7.7c0.5,0,0.8-0.4,0.8-0.8v-2.9c0-0.5-0.4-0.8-0.8-0.8h-7.7c-0.5,0-0.8,0.4-0.8,0.8v2.9 C55.3,146.1,55.6,146.5,56.1,146.5z"/><g class="st18"><path class="st19" d="M154.5,66.3v3h-1v-3.8c-0.8-0.7-1.7-1.5-2.5-2.4v6.2h-1v-6.2c-0.8,0.8-1.7,1.6-2.5,2.4v3.8h-1v-3 c-0.7,0.5-1.3,1.1-2,1.6c-2.1,1.6-4.3,2.8-6.5,3.6l1.8,0.5c0.9-0.3,1.7-0.1,2.4,0.2c0.8,0.2,1.3,0.4,1.8,0c1.4-0.9,2.7-0.4,3.7,0 c1.1,0.4,1.7,0.6,2.3,0l0.3-0.3l0.3,0.3c0.6,0.6,1.3,0.4,2.3,0c1-0.4,2.3-0.9,3.7,0c0.5,0.3,1,0.2,1.8,0c0.7-0.2,1.5-0.5,2.4-0.2 l1.8-0.5c-2.2-0.8-4.3-2.1-6.5-3.6C155.9,67.3,155.2,66.8,154.5,66.3z"/><path class="st20" d="M164.7,71c-2.6-0.8-5.1-2.1-7.7-4c-2-1.5-4.1-3.3-6.1-5.5l-0.3-0.4l-0.3,0.4c-2,2.2-4.1,4-6.1,5.5 c-2.5,1.8-5.1,3.2-7.7,4l-1.6,0.5l5.2,1.4l0.2-0.1c0.6-0.3,1.2-0.1,1.9,0.1c0.8,0.2,1.7,0.5,2.6-0.1c1-0.6,1.9-0.3,2.8,0.1 c0.9,0.3,2,0.7,3,0.1c0.4,0.3,0.8,0.4,1.2,0.4c0.6,0,1.2-0.2,1.8-0.4c1-0.4,1.9-0.7,2.8-0.1c0.9,0.6,1.8,0.3,2.6,0.1 c0.7-0.2,1.3-0.4,1.9-0.1l0.2,0.1l5.2-1.4L164.7,71z M161.1,71.9c-0.9-0.3-1.7-0.1-2.4,0.2c-0.8,0.2-1.3,0.4-1.8,0 c-1.4-0.9-2.7-0.4-3.7,0c-1.1,0.4-1.7,0.6-2.3,0l-0.3-0.3l-0.3,0.3c-0.6,0.6-1.2,0.4-2.3,0c-1-0.4-2.3-0.9-3.7,0 c-0.5,0.3-1,0.2-1.8,0c-0.7-0.2-1.5-0.5-2.4-0.2l-1.8-0.5c2.2-0.8,4.3-2.1,6.5-3.6c0.7-0.5,1.3-1,2-1.6v3h1v-3.8 c0.8-0.7,1.7-1.5,2.5-2.4v6.2h1v-6.2c0.8,0.8,1.7,1.6,2.5,2.4v3.8h1v-3c0.7,0.5,1.3,1.1,2,1.5c2.1,1.6,4.3,2.8,6.5,3.6L161.1,71.9 z"/></g><linearGradient id="SVGID_2_" gradientUnits="userSpaceOnUse" x1="134.29" y1="74.638" x2="173.5868" y2="113.9347"><stop offset="0" style="stop-color:#000000;stop-opacity:0.4"/><stop offset="0.8502" style="stop-color:#000000;stop-opacity:0"/></linearGradient><polygon class="st21" points="175,90.2 173.4,90.2 173.4,100.8 172.2,100.8 172.2,115.3 142.4,115.3 126.1,82.8 175,82.8"/><path class="st15" d="M199.5,78.1c-0.1-0.2-0.1-0.3-0.2-0.5c0.2-0.8-0.1-2.4-0.8-2.9c-9.3-2-18.1-4.1-26.3-6.9 c-6.5,0.8-13.8,1.3-21.7,1.3c-7.8,0-15.2-0.5-21.6-1.3c-8.2,2.8-16.9,4.9-26.2,6.9c-0.6,0.5-1,2.2-0.8,3c0,0.2-0.1,0.3-0.1,0.5 c-0.2,0.7,0.3,1.5,1.1,1.7c0.8,0.2,1.7-0.2,1.9-1c-0.2,0.7,0.3,1.5,1.1,1.7c0.8,0.2,1.7-0.3,1.9-1c-0.2,0.7,0.3,1.5,1.2,1.7 c0.8,0.2,1.7-0.3,1.9-1c-0.2,0.7,0.3,1.5,1.2,1.7c0.8,0.2,1.7-0.3,1.8-1c0,0,0,0,0,0c-0.2,0.7,0.4,1.5,1.2,1.6l0,0 c0.8,0.2,1.6-0.3,1.8-1c0,0,0,0,0,0c-0.1,0.7,0.4,1.4,1.3,1.6c0.8,0.1,1.6-0.3,1.8-1c0,0,0,0,0,0c-0.1,0.7,0.5,1.4,1.3,1.5 c0.8,0.1,1.5-0.3,1.7-1c0,0,0,0,0,0c0,0.7,0.5,1.3,1.3,1.4c0.8,0.1,1.5-0.3,1.7-1c0,0,0,0,0,0c0,0.7,0.6,1.3,1.3,1.4 c0.8,0.1,1.5-0.4,1.7-1c0,0,0,0,0,0c0,0.7,0.6,1.3,1.4,1.3h0c0.8,0.1,1.5-0.4,1.7-1c0,0,0,0,0.1,0c0,0.7,0.6,1.2,1.4,1.3 c0.8,0.1,1.4-0.4,1.6-1c0,0,0,0,0.1,0c0.1,0.7,0.7,1.2,1.4,1.2c0.8,0.1,1.4-0.4,1.6-1c0,0,0,0,0.1,0c0.1,0.6,0.7,1.2,1.4,1.2 c0.7,0,1.4-0.4,1.6-1c0,0,0,0,0.1,0c0.1,0.6,0.7,1.1,1.5,1.2c0.7,0,1.4-0.4,1.6-1c0,0,0,0,0.1,0c0.1,0.6,0.7,1.1,1.5,1.1 c0.7,0,1.4-0.4,1.5-1.1c0,0,0.1,0,0.1,0c0.1,0.6,0.8,1.1,1.5,1.1c0.7,0,1.4-0.5,1.5-1.1c0,0,0.1,0,0.1,0c0.2,0.6,0.8,1.1,1.5,1.1 c0.7,0,1.3-0.5,1.5-1.1c0,0,0.1,0,0.1,0c0.2,0.6,0.8,1.1,1.5,1.1c0.7,0,1.3-0.5,1.5-1.1c0,0,0,0,0.1,0c0.2,0.6,0.8,1.1,1.6,1 c0.7,0,1.3-0.5,1.5-1.2c0,0,0,0,0.1,0c0.2,0.6,0.8,1.1,1.6,1c0.8,0,1.3-0.6,1.4-1.2c0,0,0,0,0.1,0c0.2,0.6,0.8,1.1,1.6,1 c0.8-0.1,1.3-0.6,1.4-1.2c0,0,0,0,0.1,0c0.2,0.6,0.9,1.1,1.6,1h0c0.8-0.1,1.3-0.6,1.4-1.3c0,0,0,0,0,0c0.2,0.6,0.9,1.1,1.7,1 c0.8-0.1,1.3-0.7,1.4-1.3c0,0,0,0,0,0c0.2,0.7,0.9,1.1,1.7,1c0.8-0.1,1.4-0.7,1.3-1.4c0,0,0,0,0,0c0.2,0.7,0.9,1.1,1.7,1 c0.8-0.1,1.4-0.7,1.3-1.5c0,0,0,0,0,0c0.2,0.7,0.9,1.1,1.7,1c0.8-0.1,1.4-0.8,1.3-1.5c0,0,0,0,0,0c0.2,0.7,1,1.2,1.8,1 c0.8-0.1,1.4-0.8,1.3-1.6c0,0,0,0,0,0c0.2,0.7,1,1.2,1.8,1c0.8-0.2,1.4-0.9,1.2-1.6c0,0,0,0,0,0c0.2,0.7,1,1.2,1.8,1 c0.8-0.2,1.4-0.9,1.2-1.7c0.2,0.7,1,1.2,1.9,1c0.8-0.2,1.4-0.9,1.2-1.7c0.2,0.7,1,1.2,1.9,1c0.8-0.2,1.3-1,1.1-1.7 c0.2,0.7,1.1,1.2,1.9,1C199.3,79.7,199.7,78.9,199.5,78.1z"/><polygon class="st22" points="163.9,148 174.4,148 173,130.2 165.3,130.2"/><rect x="160.7" y="145.9" class="st23" width="16.8" height="4"/><rect x="118.7" y="115.3" class="st13" width="63.9" height="5.5"/><polygon class="st22" points="126.9,148 137.4,148 136,130.2 128.3,130.2"/><rect x="123.7" y="145.9" class="st23" width="16.8" height="4"/><circle class="st24" cx="196" cy="78.8" r="3.6"/><circle class="st24" cx="190.3" cy="79.9" r="3.6"/><circle class="st24" cx="184.2" cy="80.9" r="3.6"/><circle class="st24" cx="178.3" cy="82" r="3.6"/><circle class="st24" cx="171.9" cy="83.1" r="3.6"/><circle class="st24" cx="165.5" cy="83.1" r="3.6"/><circle class="st24" cx="159.5" cy="83.1" r="3.6"/><circle class="st24" cx="153.6" cy="83.1" r="3.6"/><circle class="st24" cx="147.5" cy="83.1" r="3.6"/><circle class="st24" cx="141.2" cy="83.1" r="3.6"/><circle class="st24" cx="134.9" cy="83.1" r="3.6"/><circle class="st24" cx="129.3" cy="83.1" r="3.6"/><circle class="st24" cx="105.4" cy="78.8" r="3.6"/><circle class="st24" cx="111.2" cy="79.9" r="3.6"/><circle class="st24" cx="117.2" cy="80.9" r="3.6"/><circle class="st24" cx="123.2" cy="82" r="3.6"/><g><circle class="st25" cx="196" cy="78.8" r="3.6"/><circle class="st25" cx="190.3" cy="79.9" r="3.6"/><circle class="st25" cx="184.2" cy="80.9" r="3.6"/><circle class="st25" cx="178.3" cy="82" r="3.6"/><circle class="st25" cx="171.9" cy="83.1" r="3.6"/><circle class="st25" cx="165.5" cy="83.1" r="3.6"/><circle class="st25" cx="159.5" cy="83.1" r="3.6"/><circle class="st25" cx="153.6" cy="83.1" r="3.6"/><circle class="st25" cx="147.5" cy="83.1" r="3.6"/><circle class="st25" cx="141.2" cy="83.1" r="3.6"/><circle class="st25" cx="134.9" cy="83.1" r="3.6"/><circle class="st25" cx="129.3" cy="83.1" r="3.6"/><circle class="st25" cx="105.4" cy="78.8" r="3.6"/><circle class="st25" cx="111.2" cy="79.9" r="3.6"/><circle class="st25" cx="117.2" cy="80.9" r="3.6"/><circle class="st25" cx="123.2" cy="82" r="3.6"/></g><path class="st25" d="M197.8,79.7l2.2-1.2c2.5-1.1,3.6-4,2.5-6.4v0l-7.8,3.4L197.8,79.7z"/><g><circle class="st26" cx="196" cy="78.8" r="3.6"/><circle class="st26" cx="190.3" cy="79.9" r="3.6"/><circle class="st26" cx="184.2" cy="80.9" r="3.6"/><circle class="st26" cx="178.3" cy="82" r="3.6"/><circle class="st26" cx="171.9" cy="83.1" r="3.6"/><circle class="st26" cx="165.5" cy="83.1" r="3.6"/><circle class="st26" cx="159.5" cy="83.1" r="3.6"/><circle class="st26" cx="153.6" cy="83.1" r="3.6"/><circle class="st26" cx="147.5" cy="83.1" r="3.6"/><circle class="st26" cx="141.2" cy="83.1" r="3.6"/><circle class="st26" cx="134.9" cy="83.1" r="3.6"/><circle class="st26" cx="129.3" cy="83.1" r="3.6"/><circle class="st26" cx="105.4" cy="78.8" r="3.6"/><circle class="st26" cx="111.2" cy="79.9" r="3.6"/><circle class="st26" cx="117.2" cy="80.9" r="3.6"/><circle class="st26" cx="123.2" cy="82" r="3.6"/></g><path class="st26" d="M197.8,79.7l2.2-1.2c2.5-1.1,3.6-4,2.5-6.4v0l-7.8,3.4L197.8,79.7z"/><path class="st26" d="M103.7,79.7l-2.2-1.2c-2.5-1.1-3.6-4-2.5-6.4v0l7.8,3.4L103.7,79.7z"/><path class="st15" d="M175.5,72.5l2.2-1.2c2.5-1.1,3.6-4,2.5-6.4l0,0l-7.8,3.4L175.5,72.5z"/><path class="st15" d="M125.5,72.5l-2.2-1.2c-2.5-1.1-3.6-4-2.5-6.4l0,0l7.8,3.4L125.5,72.5z"/><path class="st17" d="M90.6,125.3h-7.7c-0.5,0-0.8,0.4-0.8,0.8v2.9c0,0.5,0.4,0.8,0.8,0.8h7.7c0.5,0,0.8-0.4,0.8-0.8v-2.9 C91.4,125.7,91.1,125.3,90.6,125.3z"/><path class="st17" d="M88.5,135.9h7.7c0.5,0,0.8-0.4,0.8-0.8v-2.9c0-0.5-0.4-0.8-0.8-0.8h-7.7c-0.5,0-0.8,0.4-0.8,0.8v2.9 C87.6,135.6,88,135.9,88.5,135.9z"/><path class="st17" d="M109.8,143.5h7.7c0.5,0,0.8-0.4,0.8-0.8v-2.9c0-0.5-0.4-0.8-0.8-0.8h-7.7c-0.5,0-0.8,0.4-0.8,0.8v2.9 C108.9,143.1,109.3,143.5,109.8,143.5z"/><path class="st17" d="M239.3,135.1h7.7c0.5,0,0.8,0.4,0.8,0.8v2.9c0,0.5-0.4,0.8-0.8,0.8h-7.7c-0.5,0-0.8-0.4-0.8-0.8V136 C238.5,135.5,238.8,135.1,239.3,135.1z"/><path class="st17" d="M241.5,145.7h-7.7c-0.5,0-0.8-0.4-0.8-0.8v-2.9c0-0.5,0.4-0.8,0.8-0.8h7.7c0.5,0,0.8,0.4,0.8,0.8v2.9 C242.3,145.3,241.9,145.7,241.5,145.7z"/><path class="st17" d="M202.6,141.2h-7.7c-0.5,0-0.8-0.4-0.8-0.8v-2.9c0-0.5,0.4-0.8,0.8-0.8h7.7c0.5,0,0.8,0.4,0.8,0.8v2.9 C203.4,140.8,203.1,141.2,202.6,141.2z"/><path class="st17" d="M200.5,130.6h7.7c0.5,0,0.8,0.4,0.8,0.8v2.9c0,0.5-0.4,0.8-0.8,0.8h-7.7c-0.5,0-0.8-0.4-0.8-0.8v-2.9 C199.6,131,200,130.6,200.5,130.6z"/><path class="st17" d="M189.4,130.6h7.7c0.5,0,0.8,0.4,0.8,0.8v2.9c0,0.5-0.4,0.8-0.8,0.8h-7.7c-0.5,0-0.8-0.4-0.8-0.8v-2.9 C188.6,131,189,130.6,189.4,130.6z"/><g class="st27"><path class="st28" d="M228.9,33.4c2,0,3.8,0.9,5,2.4c1.2-1.5,2.9-2.4,5-2.4c0.8,0,1.4,0.6,1.4,1.4c0,0.8-0.6,1.4-1.4,1.4 c-2,0-3.6,1.6-3.6,3.6c0,0.8-0.6,1.4-1.4,1.4c0,0,0,0,0,0s0,0,0,0c-0.8,0-1.4-0.6-1.4-1.4c0-2-1.6-3.6-3.6-3.6 c-0.8,0-1.4-0.6-1.4-1.4C227.5,34,228.1,33.4,228.9,33.4z"/><path class="st28" d="M219.4,40.5c1.5,0,2.8,0.7,3.7,1.8c0.9-1.1,2.2-1.8,3.7-1.8c0.6,0,1,0.5,1,1s-0.5,1-1,1 c-1.5,0-2.7,1.2-2.7,2.7c0,0.6-0.5,1-1,1c0,0,0,0,0,0c0,0,0,0,0,0c-0.6,0-1-0.5-1-1c0-1.5-1.2-2.7-2.7-2.7c-0.6,0-1-0.5-1-1 S218.8,40.5,219.4,40.5z"/></g></g></svg>