<svg id="Layer_1" data-name="Layer 1" xmlns="http://www.w3.org/2000/svg" xmlns:xlink="http://www.w3.org/1999/xlink" width="300" height="150" viewBox="0 0 300 150"><defs><style>.cls-1, .cls-13, .cls-21, .cls-4 { opacity: 0.35; } .cls-10, .cls-2, .cls-7, .cls-9 { fill: #fff; } .cls-3 { opacity: 0.75; } .cls-4 { fill: url(#linear-gradient); } .cls-5, .cls-8, .cls-9 { opacity: 0.5; } .cls-5 { fill: url(#linear-gradient-2); } .cls-6 { fill: url(#linear-gradient-3); } .cls-27, .cls-7 { opacity: 0.15; } .cls-10 { opacity: 0.3; } .cls-11 { fill: #d34b31; } .cls-12, .cls-13, .cls-17, .cls-27 { fill: #205970; } .cls-12, .cls-16, .cls-18 { opacity: 0.25; } .cls-14 { fill: #e25b37; } .cls-15, .cls-25 { fill: none; } .cls-18, .cls-21 { fill: #134a5b; } .cls-19 { fill: #ffc715; } .cls-20 { fill: #ef6c56; } .cls-22 { fill: #22485b; } .cls-23, .cls-28 { opacity: 0.1; } .cls-23 { fill: url(#linear-gradient-4); } .cls-24 { fill: #fcad00; } .cls-25 { stroke: #ffc715; stroke-miterlimit: 10; stroke-width: 0.83px; } .cls-26 { fill: #49ad8c; } .cls-28 { fill: url(#linear-gradient-5); }</style><linearGradient id="linear-gradient" x1="225.34" y1="131.79" x2="225.34" y2="90.67" gradientUnits="userSpaceOnUse"><stop offset="0" stop-color="#c6e5db"/><stop offset="0.04" stop-color="#bbe2dd"/><stop offset="0.19" stop-color="#91d5e4"/><stop offset="0.35" stop-color="#6ecbea"/><stop offset="0.5" stop-color="#53c2ee"/><stop offset="0.66" stop-color="#40bdf1"/><stop offset="0.83" stop-color="#35b9f3"/><stop offset="1" stop-color="#31b8f4"/></linearGradient><linearGradient id="linear-gradient-2" x1="178.6" y1="130.46" x2="178.6" y2="100.83" xlink:href="#linear-gradient"/><linearGradient id="linear-gradient-3" x1="102.4" y1="132.33" x2="102.4" y2="86.5" xlink:href="#linear-gradient"/><linearGradient id="linear-gradient-4" x1="118.72" y1="149.96" x2="118.72" y2="59.71" gradientUnits="userSpaceOnUse"><stop offset="0" stop-color="#22485b" stop-opacity="0"/><stop offset="0.18" stop-color="#22485b" stop-opacity="0.08"/><stop offset="0.44" stop-color="#22485b" stop-opacity="0.3"/><stop offset="0.76" stop-color="#22485b" stop-opacity="0.67"/><stop offset="1" stop-color="#22485b"/></linearGradient><linearGradient id="linear-gradient-5" x1="198" y1="149.96" x2="198" y2="59.71" xlink:href="#linear-gradient-4"/></defs><title>Artboard 1</title><g><g class="cls-1"><path class="cls-2" d="M261,28.16h-2.86a9.69,9.69,0,0,0,.73-3.69,9.8,9.8,0,0,0-18.44-4.61,9.77,9.77,0,0,0-13.91,8.31H221a2.27,2.27,0,1,0,0,4.54h40a2.27,2.27,0,1,0,0-4.54Z"/><path class="cls-2" d="M211.6,28.16h-6a2.27,2.27,0,1,0,0,4.54h6a2.27,2.27,0,1,0,0-4.54Z"/></g><g class="cls-3"><path class="cls-4" d="M229.67,90.67H221c-20.82,0-36.54,15.9-38.86,36.37h86.39C266.21,106.57,250.49,90.67,229.67,90.67Z"/><path class="cls-5" d="M197.93,100.83H159.26c-15,0-26.33,11.46-28,26.21h94.68C224.26,112.29,212.93,100.83,197.93,100.83Z"/><path class="cls-6" d="M122.61,86.5H82.18c-26.09,0-47.59,17.72-50.5,40.53H173.11C170.2,104.22,148.71,86.5,122.61,86.5Z"/></g><rect class="cls-7" x="173.18" y="140.91" width="20.13" height="3.68" rx="1.84" ry="1.84"/><g class="cls-8"><rect class="cls-9" x="162.49" y="140.91" width="20.13" height="3.68" rx="1.84" ry="1.84"/><rect class="cls-10" x="89.03" y="141.31" width="20.13" height="3.68" rx="1.84" ry="1.84"/><rect class="cls-10" x="78.33" y="141.31" width="20.13" height="3.68" rx="1.84" ry="1.84"/><rect class="cls-10" x="117.91" y="134.98" width="20.13" height="3.68" rx="1.84" ry="1.84"/><rect class="cls-9" x="54.71" y="132.89" width="13.13" height="3.68" rx="1.84" ry="1.84"/><rect class="cls-10" x="204.52" y="136.91" width="20.13" height="3.68" rx="1.84" ry="1.84"/></g><g><path class="cls-11" d="M151,26.86h.22a0,0,0,0,1,0,0V148.65a0,0,0,0,1,0,0H151a2.28,2.28,0,0,1-2.28-2.28V29.15A2.28,2.28,0,0,1,151,26.86Z" transform="translate(62.24 237.75) rotate(-90)"/><polygon class="cls-12" points="101.24 86.5 103.18 89.01 195.5 89.01 193.56 86.5 101.24 86.5"/><rect class="cls-11" x="146.11" y="35.33" width="7.76" height="115.11" transform="translate(57.1 242.88) rotate(-90)"/><polygon class="cls-12" points="183.13 96.75 181.03 89.59 180.57 89.01 156.47 89.01 162.41 96.66 183.13 96.75"/><polygon class="cls-12" points="180.85 89.01 181.03 89.59 186.6 96.77 201.41 96.77 195.5 89.01 180.85 89.01"/><polygon class="cls-12" points="117.47 89.01 103.18 89.01 109.21 96.77 120.03 96.77 117.92 89.59 117.47 89.01"/><polygon class="cls-12" points="117.75 89.01 117.92 89.59 123.5 96.77 138.31 96.77 132.39 89.01 117.75 89.01"/><rect class="cls-13" x="149.02" y="32.42" width="1.95" height="115.11" transform="translate(60.01 239.97) rotate(-90)"/><path class="cls-14" d="M80.1,54.85l2.56,7.41A5.48,5.48,0,0,0,87.83,66H90l.92,2.67a5.7,5.7,0,0,0,5.39,3.84H203.65A5.7,5.7,0,0,0,209,68.62L210,66h2.19a5.48,5.48,0,0,0,5.18-3.69l2.56-7.41Z"/><path class="cls-12" d="M209,68.62,210,66h2.19a5.48,5.48,0,0,0,5.18-3.69l.88-2.55H93.47l9.74,12.74H203.65A5.7,5.7,0,0,0,209,68.62Z"/><g><polygon class="cls-15" points="108.83 83.79 112.77 84.89 112.83 82.38 108.83 83.79"/><polygon class="cls-15" points="124.31 84.9 128.27 83.79 124.26 82.38 124.31 84.9"/><path class="cls-14" d="M130.86,82.93l-6.64-2.34-.06-2.49h3.43V72.46h-18.1V78.1h3.43l-.06,2.5-6.63,2.33a1,1,0,0,0,.06,1.88l6.43,1.8L111.33,150h14.43l-1.41-63.38,6.45-1.8a1,1,0,0,0,.06-1.88Zm-22,.86,4-1.41-.06,2.51Zm15.48,1.11-.06-2.52,4,1.41Z"/></g><g class="cls-16"><path class="cls-17" d="M130.86,82.93l-6.64-2.34-.06-2.49h3.43V72.46h-18.1V78.1h3.43l-.06,2.5-6.63,2.33a1,1,0,0,0,.06,1.88l6.43,1.8h0l12,15.63-.35-15.63.08,0,6.37-1.78a1,1,0,0,0,.06-1.88Zm-18.09,2L111,84.41l-2.22-.62,4-1.41,0,1.73Zm11.54,0-.06-2.52,4,1.41Z"/></g><rect class="cls-18" x="109.49" y="72.46" width="18.1" height="2.2"/><polygon class="cls-15" points="187.21 84.9 191.16 83.79 187.15 82.38 187.21 84.9"/><polygon class="cls-15" points="175.67 84.89 175.72 82.39 171.73 83.79 175.67 84.89"/><path class="cls-14" d="M193.75,82.93l-6.64-2.34-.06-2.49h3.43V72.46h-18.1V78.1h3.43l-.06,2.5-6.62,2.33a1,1,0,0,0,.06,1.88l6.43,1.79L174.22,150h14.43l-1.41-63.38,6.45-1.8a1,1,0,0,0,.06-1.88Zm-18.08,2-3.94-1.1,4-1.4Zm11.54,0-.06-2.52,4,1.41Z"/><g class="cls-16"><path class="cls-17" d="M193.76,82.93l-6.64-2.34-.06-2.49h3.43V72.46h-18.1V78.1h3.43l-.06,2.5-6.63,2.33a1,1,0,0,0,.06,1.88l6.43,1.8h0l12,15.63-.35-15.63.08,0,6.37-1.78a1,1,0,0,0,.06-1.88Zm-18.09,2-1.72-.48-2.22-.62,4-1.41,0,1.73Zm11.54,0-.06-2.52,4,1.41Z"/></g><rect class="cls-19" x="139.41" y="70.03" width="21.18" height="2.42" rx="1.21" ry="1.21"/><rect class="cls-19" x="133.36" y="81.18" width="21.18" height="2.42" rx="1.21" ry="1.21" transform="translate(61.56 226.34) rotate(-90)"/><rect class="cls-19" x="145.44" y="81.18" width="21.18" height="2.42" rx="1.21" ry="1.21" transform="translate(73.64 238.43) rotate(-90)"/><polygon class="cls-20" points="115.9 108.73 104.8 108.73 103.13 150 117.56 150 115.9 108.73"/><polygon class="cls-12" points="113.17 133.15 108.36 142.12 116.39 150 117.56 150 117.03 136.8 113.17 133.15"/><polygon class="cls-12" points="116.89 133.23 116.31 119.06 116.31 119.06 115.9 108.73 105.92 108.73 104.71 111 104.65 112.48 111.93 118.97 108.36 125.63 116.89 133.23"/><polygon class="cls-21" points="104.72 110.6 104.59 113.99 116.11 113.99 115.97 110.6 104.72 110.6"/><rect class="cls-20" x="102.13" y="108.73" width="16.43" height="3.76"/><polygon class="cls-12" points="118.56 108.73 102.13 108.73 107.09 112.48 118.56 112.48 118.56 108.73"/><polygon class="cls-22" points="118.56 108.73 102.13 108.73 98.63 106.27 110.35 103.77 122.07 106.27 118.56 108.73"/><polygon class="cls-23" points="122.07 106.27 115.38 104.84 118.35 108.73 118.56 108.73 122.07 106.27"/><rect class="cls-24" x="108.36" y="116.66" width="3.98" height="8.97"/><rect class="cls-19" x="108.78" y="115.42" width="3.15" height="5.63" transform="translate(-7.88 228.58) rotate(-90)"/><rect class="cls-22" x="142.74" y="70.03" width="14.51" height="19.97"/><rect class="cls-25" x="145.48" y="72.98" width="9.02" height="14.07"/><path class="cls-22" d="M228.34,49.79c.18-.83.37-1.66.54-2.49a629.47,629.47,0,0,1-157.79,0c.18.83.36,1.66.54,2.49h.07l2.21,6.38a4.64,4.64,0,0,0,3.86,3.1,640.55,640.55,0,0,0,144.44,0,4.64,4.64,0,0,0,3.86-3.1l2.21-6.38Z"/><path class="cls-22" d="M148.76,46.58h4a0,0,0,0,1,0,0V80.42a0,0,0,0,1,0,0h-4a1.51,1.51,0,0,1-1.51-1.51V48.09A1.51,1.51,0,0,1,148.76,46.58Z" transform="translate(86.49 213.49) rotate(-90)"/><path class="cls-26" d="M63.07,44.33l.82,2.37a5.85,5.85,0,0,0,4.84,3.91,699.49,699.49,0,0,0,162.52,0,5.85,5.85,0,0,0,4.84-3.91l.82-2.37A694,694,0,0,1,63.07,44.33Z"/><rect class="cls-18" x="172.39" y="72.46" width="18.1" height="2.2"/><path class="cls-27" d="M159.38,70H140.62a1.21,1.21,0,0,0,0,2.42h2.11V91.77a1.21,1.21,0,1,0,2.42,0V90h9.66v1.77a1.21,1.21,0,1,0,2.42,0V72.46h2.13a1.21,1.21,0,0,0,0-2.42Z"/><rect class="cls-24" x="108.36" y="133.15" width="3.98" height="8.97"/><rect class="cls-19" x="108.78" y="131.91" width="3.15" height="5.63" transform="translate(-24.37 245.07) rotate(-90)"/><polygon class="cls-20" points="195.18 108.73 184.08 108.73 182.42 150 196.85 150 195.18 108.73"/><polygon class="cls-12" points="192.45 133.15 187.64 142.12 195.67 150 196.85 150 196.31 136.8 192.45 133.15"/><polygon class="cls-12" points="196.17 133.23 195.6 119.06 195.6 119.06 195.18 108.73 185.21 108.73 183.99 111 183.93 112.48 191.21 118.97 187.64 125.63 196.17 133.23"/><polygon class="cls-21" points="184.01 110.6 183.87 113.99 195.39 113.99 195.26 110.6 184.01 110.6"/><rect class="cls-20" x="181.42" y="108.73" width="16.43" height="3.76"/><polygon class="cls-12" points="197.85 108.73 181.42 108.73 186.37 112.48 197.85 112.48 197.85 108.73"/><polygon class="cls-22" points="197.85 108.73 181.42 108.73 177.91 106.27 189.63 103.77 201.35 106.27 197.85 108.73"/><polygon class="cls-28" points="201.35 106.27 194.66 104.84 197.63 108.73 197.85 108.73 201.35 106.27"/><rect class="cls-24" x="187.64" y="116.66" width="3.98" height="8.97"/><rect class="cls-19" x="188.06" y="115.42" width="3.15" height="5.63" transform="translate(71.4 307.86) rotate(-90)"/><rect class="cls-24" x="187.64" y="133.15" width="3.98" height="8.97"/><rect class="cls-19" x="188.06" y="131.91" width="3.15" height="5.63" transform="translate(54.91 324.36) rotate(-90)"/></g><path class="cls-10" d="M34.69,74.51h2.86a9.69,9.69,0,0,1-.73-3.69A9.8,9.8,0,0,1,55.26,66.2a9.77,9.77,0,0,1,13.91,8.31h5.57a2.27,2.27,0,1,1,0,4.54h-40a2.27,2.27,0,1,1,0-4.54Z"/></g></svg>