<?xml version="1.0" encoding="UTF-8"?><svg width="30px" height="30px" viewBox="0 0 30 30" version="1.1" xmlns="http://www.w3.org/2000/svg" xmlns:xlink="http://www.w3.org/1999/xlink"><title>offline_complete</title><desc>Created with Sketch.</desc><defs/><g id="Page-1" stroke="none" stroke-width="1" fill="none" fill-rule="evenodd"><g id="Artboard" transform="translate(-47.000000, -92.000000)"><g id="offline_complete" transform="translate(47.000000, 92.000000)"><path d="M15,30 C6.71572915,30 0,23.2842708 0,15 C0,6.71572843 6.7157288,0 15,0 C23.2842719,0 30,6.71572808 30,15 C30,23.2842712 23.2842716,30 15,30 Z" id="Path" fill="#F2F2F2"/><path d="M15,28.5 C22.4558448,28.5 28.5,22.4558437 28.5,15 C28.5,7.5441552 22.4558448,1.5 15,1.5 C7.54415628,1.5 1.5,7.5441552 1.5,15 C1.5,22.4558437 7.54415628,28.5 15,28.5 Z" id="Clip-2" fill="#1CB0F6" fill-rule="nonzero"/><path d="M10.5142233,14.1140278 C10.2126969,13.8220103 9.73803586,13.8366214 9.45403814,14.1466626 C9.17004043,14.4567037 9.18425025,14.9447687 9.48577665,15.2367861 L13.6296725,19.25 L20.5142233,12.5825604 C20.8157498,12.290543 20.8299596,11.802478 20.5459619,11.4924369 C20.2619641,11.1823957 19.7873031,11.1677846 19.4857767,11.4598021 L13.6296725,17.1312281 L10.5142233,14.1140278 Z" id="Stroke-4" fill="#FFFFFF" fill-rule="nonzero"/></g></g></g></svg>