<?xml version="1.0" encoding="UTF-8"?><svg width="30px" height="30px" viewBox="0 0 30 30" version="1.1" xmlns="http://www.w3.org/2000/svg" xmlns:xlink="http://www.w3.org/1999/xlink"><title>offline_download</title><desc>Created with Sketch.</desc><defs/><g id="Page-1" stroke="none" stroke-width="1" fill="none" fill-rule="evenodd"><g id="Artboard" transform="translate(-12.000000, -92.000000)"><g id="offline_download" transform="translate(12.000000, 92.000000)"><path d="M15,30 C6.71572915,30 0,23.2842708 0,15 C0,6.71572843 6.7157288,0 15,0 C23.2842719,0 30,6.71572808 30,15 C30,23.2842712 23.2842716,30 15,30 Z" id="Path" fill="#F2F2F2"/><path d="M15,28.5 C22.4558448,28.5 28.5,22.4558437 28.5,15 C28.5,7.5441552 22.4558448,1.5 15,1.5 C7.54415628,1.5 1.5,7.5441552 1.5,15 C1.5,22.4558437 7.54415628,28.5 15,28.5 Z" id="Clip-2" fill="#1CB0F6" fill-rule="nonzero"/><path d="M15,27 C21.6274171,27 27,21.6274171 27,15 C27,8.37258286 21.6274171,3 15,3 C8.37258286,3 3,8.37258286 3,15 C3,21.6274171 8.37258286,27 15,27 Z" id="Path" fill="#F2F2F2"/><path d="M14.2876347,20.4940584 C14.2522282,20.4052403 14.2327586,20.3083421 14.2327586,20.2068966 L14.2327586,15.5517241 C14.2327586,15.1232273 14.5801239,14.7758621 15.0086207,14.7758621 C15.4371175,14.7758621 15.7844828,15.1232273 15.7844828,15.5517241 L15.7844828,20.2068966 L15.7844828,20.2068966 C15.7844828,20.3079327 15.76517,20.4044582 15.7300346,20.4929827 L18.0120276,18.807055 C18.3566696,18.5524349 18.8424675,18.625412 19.0970877,18.970054 C19.3517078,19.3146959 19.2787307,19.8004938 18.9340887,20.055114 L16.0838446,22.1608633 C15.4444692,22.6332314 14.5717441,22.6332314 13.9323687,22.1608633 L11.0821245,20.055114 C10.7374825,19.8004938 10.6645054,19.3146959 10.9191256,18.970054 C11.1737457,18.625412 11.6595437,18.5524349 12.0041856,18.807055 L14.2876347,20.4940584 Z M16.0275745,7.43103606 C18.4230953,7.43103606 20.3674803,9.37478077 20.4902023,11.8067323 C21.4471864,12.3611642 21.9913793,13.1958307 21.9913793,14.3365586 C21.9913793,16.1391871 20.5924987,17.3620709 18.770756,17.3620709 C18.3422592,17.3620709 17.994894,17.0147057 17.994894,16.5862089 C17.994894,16.1577121 18.3422592,15.8103468 18.770756,15.8103468 C19.7784386,15.8103468 20.4396552,15.2323196 20.4396552,14.3365586 C20.4396552,13.7018987 20.124866,13.3073361 19.4009967,12.9936962 C19.1026514,12.8644284 18.9165558,12.5628439 18.9348173,12.2382109 C18.9362574,12.2134628 18.9362574,12.2134628 18.9389605,12.1710671 C18.9433443,12.1032271 18.9446275,12.0766162 18.9446275,12.0510163 C18.9446275,10.349626 17.6315487,8.9827602 16.0275745,8.9827602 C14.9009877,8.9827602 13.8871368,9.66406154 13.4017745,10.7225852 C13.1908218,11.1826507 12.6029656,11.3208188 12.2091564,11.002895 C12.0478313,10.8726567 11.8563017,10.8027145 11.6548948,10.8027145 C11.1497328,10.8027145 10.7271298,11.2426002 10.7271298,11.8001505 C10.7271298,11.9054741 10.7422745,12.0081496 10.7714905,12.1055689 C10.8722696,12.4416109 10.7350073,12.8034679 10.436711,12.9881296 C9.80598805,13.3785816 9.57758621,13.7076729 9.57758621,14.2708801 C9.57758621,15.1885873 10.2486498,15.7853262 11.2766994,15.8018331 C11.705141,15.8087123 12.0468848,16.1616096 12.0400055,16.5900512 C12.0331262,17.0184927 11.680229,17.3602365 11.2517874,17.3533572 C9.41894239,17.3239282 8.02586207,16.0851406 8.02586207,14.2708801 C8.02586207,13.2790153 8.41926221,12.5630254 9.18098379,11.9718098 C9.1772729,11.9148387 9.17540562,11.8575917 9.17540562,11.8001505 C9.17540562,10.399213 10.2785159,9.25099038 11.6548948,9.25099038 C11.9092688,9.25099038 12.1578846,9.29092773 12.3939878,9.36705445 C13.2167174,8.17505686 14.5546528,7.43103606 16.0275745,7.43103606 Z" id="Combined-Shape" fill="#1CB0F6" fill-rule="nonzero"/></g></g></g></svg>