<?xml version="1.0" encoding="UTF-8"?><svg width="42px" height="30px" viewBox="0 0 42 30" version="1.1" xmlns="http://www.w3.org/2000/svg" xmlns:xlink="http://www.w3.org/1999/xlink"><title>offline-icon</title><desc>Created with Sketch.</desc><defs/><g id="Page-1" stroke="none" stroke-width="1" fill="none" fill-rule="evenodd"><g id="-" transform="translate(-17.000000, -40.000000)" fill-rule="nonzero" fill="#999999"><g id="Group-5" transform="translate(-20.000000, 0.000000)"><g id="msg" transform="translate(20.000000, 4.000000)"><path d="M40.1472543,58.1497253 L44.4790635,62.4815344 C44.976012,62.9784829 44.8986937,63.8615138 44.3063683,64.4538393 C43.7140429,65.0461647 42.8310119,65.123483 42.3340634,64.6265345 L38.0022543,60.2947253 L33.6704451,64.6265345 C33.1734967,65.123483 32.2904657,65.0461647 31.6981403,64.4538393 C31.1058149,63.8615138 31.0284966,62.9784829 31.5254451,62.4815344 L35.8572542,58.1497253 L31.5254451,53.8179161 C31.0284966,53.3209677 31.1058149,52.4379367 31.6981403,51.8456113 C32.2904657,51.2532859 33.1734967,51.1759676 33.6704451,51.6729161 L38.0022543,56.0047252 L42.3340634,51.6729161 C42.8310119,51.1759676 43.7140429,51.2532859 44.3063683,51.8456113 C44.8986937,52.4379367 44.976012,53.3209677 44.4790635,53.8179161 L40.1472543,58.1497253 Z M40.9701759,36 C48.1203012,36 53.8586093,42.2176339 53.8785646,49.8315801 C56.8970761,51.4448016 58.559597,53.893302 58.559597,57.3363564 C58.559597,62.4911166 55.8054466,66 50.6528396,66 C49.9095723,66 49.3070351,65.4108345 49.3070351,64.6840621 C49.3070351,63.9572897 49.9095723,63.3681242 50.6528396,63.3681242 C54.3592546,63.3681242 55.8679879,60.9949537 55.8679879,57.3363564 C55.8679879,54.7040445 54.5750852,53.0135601 51.9335859,51.8196522 C51.4339745,51.5938373 51.1253426,51.0933042 51.1543245,50.5558613 C51.1584652,50.4816223 51.1584652,50.4816223 51.1666703,50.3473745 C51.1821136,50.0980724 51.1870078,49.9921965 51.1870078,49.8714221 C51.1870078,43.6349367 46.5796543,38.6318758 40.9701759,38.6318758 C37.0322652,38.6318758 33.4797253,41.1221852 31.7769658,44.9959837 C31.4179609,45.8127243 30.3511579,46.0535963 29.6622742,45.4734571 C28.9706194,44.8909842 28.1440869,44.576128 27.2791742,44.576128 C25.1101274,44.576128 23.2908671,46.5515104 23.2908671,49.0520558 C23.2908671,49.5227048 23.356014,49.9834373 23.4819304,50.4214177 C23.6403223,50.9723589 23.4163927,51.560233 22.9280041,51.8756199 C20.6467778,53.3487684 19.691609,54.7844101 19.691609,57.1218405 C19.691609,60.8441553 21.2207484,63.2771277 24.9854081,63.3401835 C25.7285664,63.352631 26.3206955,63.9518007 26.3079656,64.6784665 C26.2952356,65.4051323 25.6824671,65.9841207 24.9393088,65.9716733 C19.7464147,65.8846954 17,62.3225546 17,57.1218405 C17,54.1014636 18.2172199,52.0034357 20.6861649,50.1996602 C20.6285266,49.8225827 20.5992581,49.4390035 20.5992581,49.0520558 C20.5992581,45.1558768 23.5570556,41.9442522 27.2791742,41.9442522 C28.236502,41.9442522 29.1621017,42.161016 30.007712,42.5657969 C32.3213557,38.5526714 36.4182297,36 40.9701759,36 Z" id="offline-icon"/></g></g></g></g></svg>