<?xml version="1.0" encoding="UTF-8"?><svg width="25px" height="25px" viewBox="0 0 25 25" version="1.1" xmlns="http://www.w3.org/2000/svg" xmlns:xlink="http://www.w3.org/1999/xlink"><title>offline-complete-white</title><desc>Created with Sketch.</desc><defs/><g id="Page-1" stroke="none" stroke-width="1" fill="none" fill-rule="evenodd"><g id="offline-complete-white"><g id="Group-15-Copy-4"><path d="M12.5,25 C19.4035594,25 25,19.4035594 25,12.5 C25,5.59644063 19.4035594,0 12.5,0 C5.59644063,0 0,5.59644063 0,12.5 C0,19.4035594 5.59644063,25 12.5,25 Z M11.431835,14.6088959 L8.70710678,11.8841677 C8.31658249,11.4936434 7.68341751,11.4936434 7.29289322,11.8841677 C6.90236893,12.274692 6.90236893,12.907857 7.29289322,13.2983813 L11.431835,17.437323 L18.1620512,10.7071068 C18.5525755,10.3165825 18.5525755,9.68341751 18.1620512,9.29289322 C17.771527,8.90236893 17.138362,8.90236893 16.7478377,9.29289322 L11.431835,14.6088959 Z" id="Combined-Shape" fill="#FFFFFF"/><g id="Group-15" transform="translate(7.000000, 9.000000)"><g id="Group"/></g></g></g></g></svg>