<?xml version="1.0" encoding="UTF-8" standalone="no"?><svg width="75px" height="73px" viewBox="0 0 75 73" version="1.1" xmlns="http://www.w3.org/2000/svg" xmlns:xlink="http://www.w3.org/1999/xlink" xmlns:sketch="http://www.bohemiancoding.com/sketch/ns"><title>ribbon-green-report</title><description>Created with Sketch (http://www.bohemiancoding.com/sketch)</description><defs/><g id="Page-1" stroke="none" stroke-width="1" fill="none" fill-rule="evenodd" sketch:type="MSPage"><g id="ribbon-green-report" sketch:type="MSArtboardGroup" fill="#94C758"><g id="Imported-Layers" sketch:type="MSLayerGroup" transform="translate(15.000000, 10.000000)"><path d="M45,8 C45.41146,8.26836407 37.1313029,8.61113958 33,9 C30.2280267,9.46649142 31.7920563,4.54385427 32,4 C31.7920563,-0.904848075 9,5.6094735 9,6 L9,32 C9,31.9777968 10.7307337,32.7371398 13,32 C19.3191359,29.4514144 29.9708936,26.0720605 28,32 C26.8043036,36.3442172 44.9066299,32.5609913 45,33 C44.9066299,32.5609913 43.6068104,22.7585639 45,17 C46.8504617,11.3692129 45.41146,8.26836407 45,8" id="Fill-1" sketch:type="MSShapeGroup"/><path d="M3,0 C1.11897015,0 0,1.28180575 0,3 L0,53 L5,53 L5,3 C5,1.28180575 3.88032254,0 3,0 Z" id="Fill-2" sketch:type="MSShapeGroup"/></g></g></g></svg>