<?xml version="1.0" encoding="UTF-8" standalone="no"?><svg width="22px" height="22px" viewBox="0 0 22 22" version="1.1" xmlns="http://www.w3.org/2000/svg" xmlns:xlink="http://www.w3.org/1999/xlink" xmlns:sketch="http://www.bohemiancoding.com/sketch/ns"><title>Rectangle 576 + Imported Layers + Add to LinkedIn Prof Copy</title><desc>Created with Sketch.</desc><defs/><g id="Page-1" stroke="none" stroke-width="1" fill="none" fill-rule="evenodd" sketch:type="MSPage"><g id="iPhone-6-Copy-20" sketch:type="MSArtboardGroup" transform="translate(-90.000000, -458.000000)"><g id="Rectangle-576-+-Imported-Layers-+-Add-to-LinkedIn-Prof-Copy" sketch:type="MSLayerGroup" transform="translate(90.000000, 458.000000)"><g id="Rectangle-576-+-Imported-Layers"><path d="M0,0 L0,22 L21.1538462,22 L21.1538462,0 L0,0 Z M8.51609987,18.4420211 C8.51684337,17.9670526 8.51758688,17.4920842 8.51981739,17.0179263 C8.52204791,16.3630211 8.52576544,15.7081158 8.52725245,15.0532105 C8.52873946,14.4299158 8.52948296,13.8066211 8.53022647,13.1833263 C8.53171348,12.2171789 8.53394399,11.2502211 8.53394399,10.2840737 C8.53320049,9.68185263 8.52799595,9.07963158 8.52502193,8.4766 C8.52427842,8.36636842 8.51981739,8.25532632 8.51684337,8.14428421 L8.51684337,8.07863158 L11.6774848,8.07863158 L11.6774848,9.51488421 C11.705738,9.50353684 11.7124296,9.48003158 11.7228386,9.46301053 C11.8760008,9.21336842 12.04552,8.97912632 12.2432924,8.7692 C12.66486,8.31935789 13.1682131,8.03891579 13.7451733,7.91166316 C14.1236176,7.82817895 14.5057794,7.81521053 14.8901716,7.84763158 C15.3087652,7.88248421 15.7124886,7.9838 16.0968809,8.17022105 C16.7682663,8.49605263 17.2671584,9.02289474 17.6136319,9.72643158 C17.8084303,10.1211579 17.9385438,10.5418211 18.0255339,10.9786947 C18.0909624,11.3069579 18.1303682,11.6384632 18.1489558,11.9724 C18.1563909,12.1182947 18.1563909,12.265 18.1571344,12.4117053 L18.1571344,18.3544842 C18.1571344,18.3836632 18.1541603,18.4128421 18.1526733,18.4420211 L14.9979799,18.4420211 C14.9987234,18.4339158 14.9994669,18.4258105 14.9994669,18.4168947 L14.9994669,12.8445263 C14.9994669,12.5705684 14.9779053,12.2974211 14.9288339,12.0283263 C14.8812496,11.7730105 14.8076425,11.5274211 14.6864512,11.3012842 C14.4983443,10.9503263 14.2262213,10.7185158 13.8648777,10.6139579 C13.6827189,10.5620842 13.4983295,10.5483053 13.3109662,10.5572211 C13.0113335,10.571 12.734006,10.6642105 12.4834447,10.8457684 C12.2046301,11.0475895 12.0016532,11.3207368 11.8529521,11.6449474 C11.7971892,11.7665263 11.7503483,11.8921579 11.7258127,12.0267053 C11.6908679,12.2163684 11.6797153,12.4076526 11.6797153,12.6005579 C11.6797153,14.5206947 11.6797153,16.4408316 11.6804588,18.3609684 C11.6804588,18.3877158 11.6812023,18.4152737 11.6819459,18.4420211 L8.51609987,18.4420211 Z M3.61119475,18.4420211 C3.61045125,18.4128421 3.60970774,18.3836632 3.60970774,18.3544842 L3.60970774,8.17022105 L3.60970774,8.07863158 L6.76663166,8.07863158 C6.76811867,8.08916842 6.7718362,8.09889474 6.7718362,8.10862105 C6.77332321,8.12969474 6.77257971,8.15076842 6.77257971,8.17184211 L6.77257971,18.3488105 C6.77257971,18.3804211 6.76811867,18.4112211 6.76588816,18.4420211 L3.61119475,18.4420211 Z M5.38371162,3.07930526 C5.4350135,3.08741053 5.48557186,3.09632632 5.53687373,3.10443158 C5.85360703,3.15549474 6.14431765,3.27545263 6.39487896,3.49834737 C6.69897267,3.76906316 6.87667046,4.12083158 6.94879049,4.53825263 C7.01644948,4.92730526 6.97704369,5.3042 6.81793354,5.66164211 C6.62462213,6.09608421 6.30788883,6.38138947 5.89449983,6.54106316 C5.61791582,6.64805263 5.33092274,6.67966316 5.03946862,6.66102105 C4.76957616,6.64318947 4.51157979,6.57672632 4.27365806,6.43731579 C3.81714575,6.16984211 3.54353576,5.75566316 3.44762357,5.20126316 C3.4387015,5.14614737 3.42606191,5.09184211 3.41490933,5.03672632 L3.41490933,4.71089474 C3.42680541,4.65010526 3.43944501,4.58931579 3.44985408,4.52771579 C3.51230854,4.16378947 3.66249663,3.85011579 3.91008392,3.59561053 C4.18518092,3.31354737 4.51678433,3.1636 4.88630651,3.10443158 C4.93686488,3.09632632 4.98742325,3.08741053 5.03872512,3.07930526 L5.38371162,3.07930526 Z" id="Rectangle-576" fill="#03A9F4" sketch:type="MSShapeGroup"/><g id="Imported-Layers" transform="translate(2.649798, 2.964211)"/></g></g></g></g></svg>