<?xml version="1.0" encoding="UTF-8"?><svg width="230px" height="248px" viewBox="0 0 230 248" version="1.1" xmlns="http://www.w3.org/2000/svg" xmlns:xlink="http://www.w3.org/1999/xlink"><title>duo-ballon</title><desc>Created with Sketch.</desc><defs/><g id="Page-1" stroke="none" stroke-width="1" fill="none" fill-rule="evenodd"><g id="duo-ballon"><g id="Group-7" transform="translate(25.000000, 0.000000)"><g id="Group-4" transform="translate(5.473953, 71.566977)"><g id="Group-4-Copy-2" transform="translate(0.000000, 0.947907)"><g id="Page-1"><path d="M45.9880768,160.798175 C52.1029653,161.383587 56.2595765,163.26686 55.7130805,168.550425 C55.1673565,173.833989 48.0984158,173.859248 44.1378638,173.480365 C40.1773119,173.101482 35.4603107,171.002022 35.853973,167.190159 C36.2476354,163.378296 40.4636819,160.269225 45.9880768,160.798175" id="Fill-1" fill="#D98500"/><path d="M79.3495557,160.798175 C73.2346672,161.383587 69.078056,163.26686 69.6245519,168.550425 C70.170276,173.833989 77.2392167,173.859248 81.1997687,173.480365 C85.1603206,173.101482 89.8773218,171.002022 89.4836594,167.190159 C89.0899971,163.378296 84.8739506,160.269225 79.3495557,160.798175" id="Fill-4" fill="#D98500"/><path d="M112.575989,99.7181487 C109.801827,78.9932328 117.864899,63.7127908 116.24934,55.4494206 C115.973776,52.8321543 115.786208,50.1710564 115.756104,47.9326733 C115.748385,47.383664 115.725228,46.9371761 115.692037,46.5597786 C115.87729,39.5719821 115.915113,32.8538614 115.915113,26.6617198 C115.915113,19.8462781 116.226955,0.000222872522 103.35574,0.000222872522 C92.4443461,0.000222872522 83.3592367,14.5738571 62.9165826,14.5738571 C41.7398641,14.5738571 34.5914191,0.000222872522 22.834037,0.000222872522 C14.8172191,0.000222872522 9.82928564,7.03036514 9.82928564,26.7478972 C9.82928564,34.3003041 9.95819076,41.4738276 10.2175448,48.2862977 C10.2105978,48.470539 10.2028789,48.6510658 10.2005633,48.8613089 C10.1357248,53.6278092 9.3638378,60.3139849 8.52788423,64.3999811 C6.82201407,71.9070706 4.36123847,84.2289494 2.09729404,101.140516 C-1.88641452,130.899941 0.321954048,136.872925 4.41449867,137.06831 C8.47230837,137.261466 20.5376733,135.132291 24.9428322,124.417323 C33.5686688,140.71079 46.1195507,148.483098 63.1836555,148.483098 C81.2164785,148.483098 93.0880998,138.917409 100.905771,124.514644 C105.343349,135.144177 112.575989,99.7181487 112.575989,99.7181487 Z" id="Fill-6" fill="#78C800"/><path d="M97.4321252,16.6990209 C92.8100662,16.6990209 89.2207918,19.9648463 88.2860367,19.9648463 C87.9170748,19.9648463 87.8437455,19.6803123 87.8437455,19.302172 C87.8437455,18.1187189 89.2447203,17.7168054 89.2447203,17.1722536 C89.2447203,16.8409164 88.6549987,16.7703401 88.4828679,16.7703401 C83.9102096,16.7703401 76.9516487,25.312301 75.8949355,25.312301 C75.5259735,25.312301 75.4526443,24.8390683 75.4526443,24.5315042 C75.4526443,23.0880332 76.7802898,22.2121442 76.7802898,21.8102307 C76.7802898,21.4083173 76.4599567,21.2656789 76.2144967,21.2656789 C73.952096,21.2656789 68.995038,26.1532733 62.9503913,26.1859613 C56.9057446,26.1532733 51.9486866,21.2656789 49.6862859,21.2656789 C49.440054,21.2656789 49.1204928,21.4083173 49.1204928,21.8102307 C49.1204928,22.2121442 50.4481383,23.0880332 50.4481383,24.5315042 C50.4481383,24.8390683 50.3748091,25.312301 50.0058471,25.312301 C48.948362,25.312301 41.990573,16.7703401 37.4179147,16.7703401 C37.2457839,16.7703401 36.6552904,16.8409164 36.6552904,17.1722536 C36.6552904,17.7168054 38.0570371,18.1187189 38.0570371,19.302172 C38.0570371,19.6803123 37.9829359,19.9648463 37.6147459,19.9648463 C36.6799908,19.9648463 33.0907164,16.6990209 28.4686574,16.6990209 C22.8632143,16.6990209 14.5036786,23.2299287 14.5036786,45.3782571 C14.5036786,66.9590034 26.4524887,71.7173318 35.893438,71.7173318 C45.3336154,71.7173318 53.3496614,65.0185267 53.3496614,65.0185267 L57.1851677,59.2921886 L62.9503913,56.5293123 L68.7156149,59.2921886 L72.5511212,65.0185267 C72.5511212,65.0185267 80.5671672,71.7173318 90.0073446,71.7173318 C99.4482939,71.7173318 111.397104,66.9590034 111.397104,45.3782571 C111.397104,23.2299287 103.037568,16.6990209 97.4321252,16.6990209" id="Fill-8" fill="#8BE200"/><path d="M49.7085934,47.6725811 C49.7085934,57.0703725 43.1984989,64.6888982 35.1670152,64.6888982 C27.1363033,64.6888982 20.6262088,57.0703725 20.6262088,47.6725811 C20.6262088,38.2747898 27.1363033,30.656264 35.1670152,30.656264 C43.1984989,30.656264 49.7085934,38.2747898 49.7085934,47.6725811" id="Fill-10" fill="#FFFFFF"/><path d="M42.8560127,47.6725811 C42.8560127,52.8350516 39.2798604,57.0198547 34.8677546,57.0198547 C30.4564207,57.0198547 26.8802684,52.8350516 26.8802684,47.6725811 C26.8802684,42.5101106 30.4564207,38.3253075 34.8677546,38.3253075 C39.2798604,38.3253075 42.8560127,42.5101106 42.8560127,47.6725811" id="Fill-12" fill="#3F3F3F"/><path d="M32.6599263,40.9997035 C32.6599263,43.1481946 30.9849317,44.8903148 28.9185903,44.8903148 C26.8522489,44.8903148 25.1772542,43.1481946 25.1772542,40.9997035 C25.1772542,38.8512124 26.8522489,37.1090922 28.9185903,37.1090922 C30.9849317,37.1090922 32.6599263,38.8512124 32.6599263,40.9997035" id="Fill-14" fill="#FFFFFF"/><path d="M105.148988,47.6725811 C105.148988,57.0703725 98.6388933,64.6888982 90.6074095,64.6888982 C82.5766977,64.6888982 76.0666031,57.0703725 76.0666031,47.6725811 C76.0666031,38.2747898 82.5766977,30.656264 90.6074095,30.656264 C98.6388933,30.656264 105.148988,38.2747898 105.148988,47.6725811" id="Fill-16" fill="#FFFFFF"/><path d="M98.296407,47.6725811 C98.296407,52.8350516 94.7202548,57.0198547 90.308149,57.0198547 C85.896815,57.0198547 82.3206628,52.8350516 82.3206628,47.6725811 C82.3206628,42.5101106 85.896815,38.3253075 90.308149,38.3253075 C94.7202548,38.3253075 98.296407,42.5101106 98.296407,47.6725811" id="Fill-18" fill="#3F3F3F"/><path d="M88.1003207,40.9997035 C88.1003207,43.1481946 86.425326,44.8903148 84.3589847,44.8903148 C82.2926433,44.8903148 80.6176486,43.1481946 80.6176486,40.9997035 C80.6176486,38.8512124 82.2926433,37.1090922 84.3589847,37.1090922 C86.425326,37.1090922 88.1003207,38.8512124 88.1003207,40.9997035" id="Fill-20" fill="#FFFFFF"/><path d="M112.763035,47.3428784 C112.875731,47.7202758 112.999233,48.1073311 113.135085,48.5033013 C113.111928,48.4304963 113.086456,48.3591771 113.064071,48.286372 C112.962182,47.9587494 112.862609,47.6467279 112.763035,47.3428784" id="Fill-22" fill="#71B200"/><path d="M52.6261717,65.2963744 C52.6261717,68.2650364 55.7121758,87.6542029 62.1381347,87.6542029 C68.9554402,87.6542029 72.2058562,72.9854764 72.2058562,65.7755503 C72.2058562,58.5656242 66.8396981,65.8639564 66.8396981,65.8639564 L59.9158721,67.3557165 C59.9158721,67.3557165 52.6261717,62.3277124 52.6261717,65.2963744" id="Fill-24" fill="#71B200"/></g><rect id="Rectangle-2" fill-opacity="0.0599999987" fill="#000000" x="51.3291633" y="63.7569349" width="20.7117676" height="25.14358" rx="10.3558838"/><path d="M51.3291633,63.7569349 C51.3291633,63.7569349 52.3315605,80.8186499 61.777136,80.8186499 C70.9327295,80.8186499 72.0409309,63.7868222 72.0409309,63.7868222" id="Fill-26" fill="#F49000"/><path d="M72.0409309,64.9434049 C72.0409309,68.2827314 64.2710819,76.3287249 61.6424726,76.3287249 C59.0828634,76.3287249 51.3291633,68.2827314 51.3291633,65.0267793 C51.3291633,63.1896422 53.8652831,55.67507 61.6424726,55.67507 C70.1808651,55.67507 72.0409309,63.8573625 72.0409309,64.9434049 Z" id="Fill-28" fill="#FFC200"/><path d="M65.7373495,59.7160024 C65.7373495,60.9560146 63.9227889,61.9609649 61.6850471,61.9609649 C59.4473053,61.9609649 57.6327448,60.9560146 57.6327448,59.7160024 C57.6327448,58.4759903 59.4473053,57.4710399 61.6850471,57.4710399 C63.9227889,57.4710399 65.7373495,58.4759903 65.7373495,59.7160024" id="Fill-30" fill="#FFF3B8"/></g><g id="Group-2" transform="translate(0.000000, 20.853954)"><g id="Rectangle-4" transform="translate(0.000000, 41.707907)"><path d="M117.200352,1.42439522 C117.343244,3.64290001 117.649002,7.46345581 118.995652,17.4931716 C133.384583,17.4931716 150.119678,4.44787942 150.859304,13.6655048 C151.598931,22.8831301 137.126506,54.8759074 104.615977,64.975136 C96.7983056,79.3339623 87.7536001,95.9843456 63.1834123,95.9843456 C46.1193109,95.9843456 33.5684256,88.2357491 24.9425889,71.9919889 C20.5374301,82.6742684 8.47206515,84.7969483 4.41425544,84.6043814 C0.321710824,84.4095926 -1.88665775,69.5023761 2.09705081,39.8337391 C4.36099524,22.9737648 6.82177085,10.6894767 8.52764101,3.20528937 C8.71445777,2.29494712 8.89807491,1.25514244 9.07131613,0.136167304 L9.905628,3.36365241 C20.9213616,11.4259206 45.9179561,15.9903291 63.0358146,15.9903291 C80.1536731,15.9903291 104.847996,11.4259206 116.166001,3.36365241 L117.200352,1.42439522 L117.200352,1.42439522 Z" id="Mask" fill="#FFFFFF"/><path d="M51.3229084,15.3877811 C50.9507003,26.5229774 51.0276099,39.7098048 51.5536373,54.9482633 C52.0922323,70.5507931 53.5363497,84.0581898 55.8859895,95.4704536 C58.2204434,95.8138604 60.6522778,95.9843456 63.1834123,95.9843456 C65.7576998,95.9843456 68.1615587,95.8015687 70.4114342,95.4578005 C72.3173058,83.8279014 73.5356371,70.3247224 74.0664282,54.9482633 C74.5856148,39.9079729 74.8803175,26.7135094 74.9505361,15.3648728 C70.7668556,15.7782839 66.7253481,15.9903291 63.0358146,15.9903291 C59.4150549,15.9903291 55.4417969,15.7861154 51.3229084,15.3877811 L51.3229084,15.3877811 Z" id="Combined-Shape" fill="#2B70C9"/><path d="M117.727888,7.28592032 C101.700977,14.1466912 83.4702855,17.5770766 63.0358145,17.5770766 C42.5547133,17.5770766 24.287461,14.1310174 8.2340577,7.23889905 L8.2340577,6.09368777 L6.43727879,17.5872363 C24.1111204,27.7954176 42.977299,32.8995083 63.0358145,32.8995083 C83.09433,32.8995083 101.960509,27.7954176 119.63435,17.5872363 L119.618394,17.4851686 C119.410364,17.4904688 119.202765,17.4931716 118.995652,17.4931716 C118.388039,12.9677347 117.992336,9.70638374 117.727888,7.28592032 L117.727888,7.28592032 Z" id="Combined-Shape" fill-opacity="0.2" fill="#1F3B8F"/><path d="M2.96782518,83.8323409 C2.80480624,83.5552143 2.63037343,83.2044648 2.39094815,82.7674333 C2.96291638,83.1607142 2.82425717,83.4428988 3.84855115,83.4428988 C20.5722539,83.4428988 15.5549887,33.6314471 18.7714416,33.6314471 C22.2426172,33.6314471 17.9933796,81.6016628 63.0082828,81.626104 C106.338687,81.626104 101.744184,42.2846125 105.217675,42.2846125 C105.607036,42.2846125 105.980907,53.3026427 111.865521,50.8842765 C132.420785,42.4367971 136.644865,32.4324894 138.45459,28.4686831 C140.264315,24.5048767 137.213702,16.4731238 139.977813,12.1557037 C139.980366,12.1517166 139.982934,12.1477268 139.985518,12.1437344 C146.091813,10.0200121 150.488265,9.04141919 150.859304,13.6655048 C151.598931,22.8831301 137.126506,54.8759074 104.615977,64.975136 C96.7983056,79.3339623 87.7536001,95.9843456 63.1834123,95.9843456 C46.1193109,95.9843456 33.5684256,88.2357491 24.9425889,71.9919889 C20.5374301,82.6742684 8.47206515,84.7969483 4.41425544,84.6043814 C3.89943821,84.5798782 3.41443639,84.3225638 2.96782518,83.8323409 L2.96782518,83.8323409 Z" id="Combined-Shape" fill-opacity="0.2" fill="#1F3B8F"/></g><path d="M149.420319,0.930318868 C144.588215,45.4091262 144.065817,73.0789385 147.853125,83.9397556" id="Path-2" stroke="#BEEAFF" stroke-width="2" stroke-linecap="round"/><path d="M141.165805,52.4602644 C139.20403,54.7743406 140.022578,61.2941281 142.474732,64.8635903 C144.926885,68.4330525 149.252637,64.9293143 151.5826,62.2161157 C153.912562,59.5029171 151.843807,53.9116756 149.791389,51.3809094 C147.738971,48.8501431 143.12758,50.1461882 141.165805,52.4602644 Z" id="Path-3" fill="#FFFFFF"/></g><path d="M10.0308366,26.2254266 L116.040793,26.2254266 L116.040793,45.36412 C100.896262,37.6435681 83.2279365,33.7832921 63.0358146,33.7832921 C42.8436927,33.7832921 25.1753667,37.6435681 10.0308366,45.36412 L10.0308366,26.2254266 Z" id="Rectangle-6" fill-opacity="0.149999991" fill="#000000"/><g id="Rectangle-4" transform="translate(9.858227, 0.853111)"><path d="M0.103523461,38.3555197 C0.0344367973,34.6337525 -7.10542736e-15,30.8127895 -7.10542736e-15,26.890159 C-7.10542736e-15,7.06759178 4.99233684,0 13.016232,0 C24.7839935,0 31.9387492,14.6512679 53.1341625,14.6512679 C73.5948634,14.6512679 82.6879931,0 93.6090197,0 C106.491597,0 106.17948,19.951775 106.17948,26.8035225 C106.17948,30.4249722 106.166668,34.225377 106.119446,38.1540071 C94.7777705,30.1715278 77.0802348,26.1802882 53.0268391,26.1802882 C28.7718838,26.1802882 11.1307786,30.2386987 0.103523461,38.3555197 L0.103523461,38.3555197 Z" id="Mask" fill="#FFFFFF"/><path d="M64.8436408,26.5325968 C64.9785215,23.9099188 64.9253215,21.8308002 64.6840409,20.2952412 C64.4257131,18.6511904 63.7572251,16.3919766 62.6785769,13.5175998 C59.784251,14.2248867 56.6246163,14.6512679 53.1341625,14.6512679 C49.4868635,14.6512679 46.2553281,14.2174233 43.3445061,13.4990458 C42.2493293,16.4352873 41.5764656,18.7006858 41.325915,20.2952412 C41.0920197,21.7837986 41.0413402,23.8639502 41.1738765,26.5356959 C44.9317989,26.2987574 48.8827864,26.1802882 53.0268391,26.1802882 C57.1527846,26.1802882 61.0917185,26.2977244 64.8436408,26.5325968 L64.8436408,26.5325968 Z" id="Combined-Shape" fill="#2B70C9"/><path d="M22.4616795,2.93466796 C22.648282,13.7992568 36.2515048,22.569214 53.004978,22.569214 C69.5282731,22.569214 82.9872865,14.0385844 83.5330141,3.38127432 C75.9172411,7.70825882 67.2191598,14.6512679 53.1341625,14.6512679 C38.030014,14.6512679 30.0559744,7.21107966 22.4616795,2.93466796 L22.4616795,2.93466796 Z" id="Combined-Shape" fill-opacity="0.0700000003" fill="#1F3B8F"/></g><path d="M66.2237345,27.0476447 L39.2451452,54.026234 C33.6924347,59.5789446 24.6897121,59.5789446 19.1370015,54.026234 C13.6823926,48.5716252 13.5860241,39.7878326 18.847896,34.215588 C29.687027,29.4154287 44.2678599,27.0153491 62.5903946,27.0153491 C63.817506,27.0153491 65.0286193,27.0261143 66.2237345,27.0476447 L66.2237345,27.0476447 Z" id="Combined-Shape" fill-opacity="0.35" fill="#FFFFFF"/><path d="M40.0924106,74.9727755 L86.4067474,28.6584387 C97.5620154,30.3734777 106.722045,33.4311208 113.886836,37.8313681 C113.387374,40.5777471 112.076011,43.2054627 109.952746,45.3287274 L79.4652085,75.8162651 C74.1629738,76.3770618 68.6865092,76.6574601 63.0358146,76.6574601 C55.039078,76.6574601 47.3912767,76.0958986 40.0924106,74.9727755 L40.0924106,74.9727755 Z" id="Combined-Shape" fill-opacity="0.35" fill="#FFFFFF"/><g id="Rectangle-8" transform="translate(6.437279, 63.680413)"><path d="M113.197072,15.5659155 C96.1808861,23.9685597 77.3147076,28.1698818 56.5985358,28.1698818 C35.882364,28.1698818 17.0161854,23.9685597 1.79102542e-14,15.5659155 L-1.13686838e-13,0.208077143 C16.5797444,7.08942267 35.445923,12.8474501 56.5985358,12.8474501 C77.7511486,12.8474501 96.6173272,7.08942267 113.197072,0.1973043 L113.197072,15.5659155 Z" id="Mask" fill="#FFFFFF"/><path d="M69.1759882,12.1765987 L69.1759882,27.6341193 C65.0621426,27.9912943 60.8696584,28.1698818 56.5985358,28.1698818 C52.3274132,28.1698818 48.134929,27.9912943 44.0210834,27.6341193 L44.0210834,12.1766884 C48.1196795,12.6110077 52.3121636,12.8474501 56.5985358,12.8474501 C60.884908,12.8474501 65.0773921,12.6110077 69.1759882,12.1765987 Z" id="Combined-Shape" fill="#2B70C9"/></g><path d="M7.89581397,38.8641864 L8.53116287,38.8641864 L8.53116287,65.405582 L7.89581397,65.405582 L7.89581397,65.405582 C4.58210547,65.405582 1.89581397,62.7192905 1.89581397,59.405582 L1.89581397,44.8641864 L1.89581397,44.8641864 C1.89581397,41.5504779 4.58210547,38.8641864 7.89581397,38.8641864 Z M8.53116287,38.8641864 L8.53116287,38.8641864 C9.96334638,38.8641864 11.1243605,40.0252006 11.1243605,41.4573841 C11.1243605,41.5338544 11.120978,41.6102873 11.1142228,41.6864587 C10.6878086,46.4947714 10.4745997,50.0207634 10.4745997,52.2644351 C10.4745997,54.4963445 10.6855789,57.9364448 11.1075374,62.5847359 L11.1075397,62.5847357 C11.2367059,64.0076293 10.1879326,65.2658223 8.76503894,65.3949885 C8.68728006,65.4020472 8.60924148,65.405582 8.53116287,65.405582 L8.53116287,65.405582 L8.53116287,38.8641864 Z" id="Combined-Shape" fill="#2B70C9"/><path d="M120.378519,38.8641864 L121.013868,38.8641864 L121.013868,65.405582 L120.378519,65.405582 C117.06481,65.405582 114.378519,62.7192905 114.378519,59.405582 L114.378519,44.8641864 C114.378519,41.5504779 117.06481,38.8641864 120.378519,38.8641864 Z M123.607065,41.4573841 C123.607065,41.5338544 123.603683,41.6102873 123.596928,41.6864587 C123.170513,46.4947714 122.957304,50.0207634 122.957304,52.2644351 C122.957304,54.4963445 123.168284,57.9364448 123.590242,62.5847359 C123.719411,64.0076293 122.670637,65.2658223 121.247744,65.3949885 C121.169985,65.4020472 121.091946,65.405582 121.013868,65.405582 L121.013868,38.8641864 C122.446051,38.8641864 123.607065,40.0252006 123.607065,41.4573841 Z" id="Combined-Shape" fill="#2B70C9" transform="translate(118.992792, 52.134884) scale(-1, 1) translate(-118.992792, -52.134884)"/></g><rect id="spark-d" fill="#FFFFFE" opacity="0.5" transform="translate(16.000000, 41.871094) rotate(-45.000000) translate(-16.000000, -41.871094)" x="12" y="37.8710937" width="8" height="8" rx="1"/><rect id="spark-c" fill="#FFFFFE" opacity="0.5" transform="translate(4.500000, 62.371094) rotate(-45.000000) translate(-4.500000, -62.371094)" x="2" y="59.8710937" width="5" height="5" rx="1"/><rect id="spark-b" fill="#FFFFFE" transform="translate(179.320313, 93.687500) rotate(-45.000000) translate(-179.320313, -93.687500)" x="176.820313" y="91.1875" width="5" height="5" rx="1"/><g id="Group-6" transform="translate(102.634420, 0.044433)"><path d="M47.36943,87.7767423 L55.646028,87.7767423 L57.0679518,92.6104365 L57.0679518,92.6104365 C57.3796743,93.6701076 56.7733423,94.7818418 55.7136712,95.0935644 C55.5303788,95.1474833 55.340306,95.1748601 55.1492475,95.1748601 L48.0679358,95.1748601 L48.0679358,95.1748601 C46.9633663,95.1748601 46.0679358,94.2794296 46.0679358,93.1748601 C46.0679358,93.0096039 46.0884178,92.8449847 46.1289133,92.6847668 L47.36943,87.7767423 Z" id="Rectangle-5" fill="#C23030"/><path d="M51.1765695,90.3159259 C50.7348195,90.3159259 50.2884439,90.2361334 49.8582581,90.0742355 C49.4662339,89.9262146 49.1112149,89.7192165 48.801296,89.4601799 C26.1910979,71.8109959 15.4063849,62.2520813 9.01257422,54.2069121 C1.83471517,45.1730093 0.392667442,38.0379375 0.373008412,28.8132265 C0.367226344,28.7218698 0.364913517,28.6339823 0.364913517,28.5426257 C0.364913517,13.0524659 12.9663522,0.449870731 28.456512,0.449870731 C37.5181688,0.449870731 45.9669264,4.91709637 51.1846644,12.0521681 C56.4024025,4.91709637 64.8546293,0.449870731 73.9139732,0.449870731 C89.404133,0.449870731 102.009041,13.0524659 102.009041,28.5426257 C101.980119,38.030999 100.535759,45.16954 93.3498046,54.2057557 C86.9571503,62.2532378 76.1585604,71.81561 53.5275468,89.4821402 C53.2523203,89.7064844 52.9400887,89.893835 52.6035723,90.0337495 C52.1525826,90.2199436 51.6668889,90.3159259 51.1765695,90.3159259 Z" id="Fill-1" fill="#E44444"/><path d="M0.397320216,27.1846094 C1.36177806,48.2284561 23.732009,65.0593738 51.1869772,65.0593738 C78.6419046,65.0593738 101.01211,48.2285063 101.97663,27.1847034 C101.265696,12.3226328 88.9489163,0.449870731 73.9139732,0.449870731 C64.8546293,0.449870731 56.4024025,4.91709637 51.1846644,12.0521681 C45.9669264,4.91709637 37.5181688,0.449870731 28.456512,0.449870731 C13.4216007,0.449870731 1.10810921,12.3225827 0.397320216,27.1846094 Z" id="Combined-Shape" fill="#FF6060"/></g></g></g></g></svg>