<?xml version="1.0" encoding="UTF-8"?><svg width="133px" height="115px" viewBox="0 0 133 115" version="1.1" xmlns="http://www.w3.org/2000/svg" xmlns:xlink="http://www.w3.org/1999/xlink"><title>upsidedown_duo</title><desc>Created with Sketch.</desc><defs/><g id="Page-1" stroke="none" stroke-width="1" fill="none" fill-rule="evenodd"><g id="upsidedown_duo"><path d="M122.637919,50.6839434 C122.347211,47.922843 122.149335,45.1155023 122.117577,42.754107 C122.109433,42.1749265 122.085004,41.7039014 122.049989,41.3057637 C122.179732,36.411815 122.240928,31.6432514 122.267408,27.0791851 C122.280816,24.7683408 87.9403126,7.5620294 66.3742156,7.5620294 C44.0337129,7.5620294 10.3837222,25.523283 10.4122975,28.0201408 C10.4719659,33.2338436 10.5940517,38.26758 10.7790584,43.1271652 C10.7717297,43.3215316 10.7635866,43.5119793 10.7611437,43.7337765 C10.6927419,48.7622238 9.87843527,55.8158438 8.99654118,60.1263893 C7.19692351,68.0460371 83.8733348,106.046504 92.1206325,90.852223 C96.8020813,102.065911 124.342262,59.401434 122.637919,50.6839434 Z" id="Fill-6" fill="#78C800" transform="translate(65.839560, 50.982494) scale(1, -1) translate(-65.839560, -50.982494)"/><path d="M102.786588,34.1191173 C97.9105202,34.1191173 94.1239944,37.5644188 93.137869,37.5644188 C92.7486305,37.5644188 92.6712713,37.2642481 92.6712713,36.8653267 C92.6712713,35.6168359 94.1492379,35.192835 94.1492379,34.6183568 C94.1492379,34.2688108 93.5271076,34.1943559 93.3455172,34.1943559 C88.5215647,34.1943559 81.1805903,43.2057473 80.0658046,43.2057473 C79.676566,43.2057473 79.5992068,42.7065078 79.5992068,42.3820412 C79.5992068,40.8592431 80.9998143,39.9352188 80.9998143,39.5112179 C80.9998143,39.087217 80.661877,38.9367397 80.4029275,38.9367397 C78.0161947,38.9367397 72.7867175,44.092936 66.4098822,44.1274203 C60.0330469,44.092936 54.8035697,38.9367397 52.4168369,38.9367397 C52.1570731,38.9367397 51.8199502,39.087217 51.8199502,39.5112179 C51.8199502,39.9352188 53.2205576,40.8592431 53.2205576,42.3820412 C53.2205576,42.7065078 53.1431985,43.2057473 52.7539599,43.2057473 C51.6383598,43.2057473 44.2981997,34.1943559 39.4742472,34.1943559 C39.2926568,34.1943559 38.6697122,34.2688108 38.6697122,34.6183568 C38.6697122,35.192835 40.1484931,35.6168359 40.1484931,36.8653267 C40.1484931,37.2642481 40.0703197,37.5644188 39.6818954,37.5644188 C38.6957701,37.5644188 34.9092442,34.1191173 30.033176,34.1191173 C24.1196812,34.1191173 15.3007403,41.0089366 15.3007403,64.3744447 C15.3007403,87.1411788 27.9062071,92.161005 37.8659916,92.161005 C47.8249618,92.161005 56.2815362,85.0940615 56.2815362,85.0940615 L60.3278259,79.0530279 L66.4098822,76.1383153 L72.4919385,79.0530279 L76.5382282,85.0940615 C76.5382282,85.0940615 84.9948026,92.161005 94.9537728,92.161005 C104.913557,92.161005 117.519024,87.1411788 117.519024,64.3744447 C117.519024,41.0089366 108.700083,34.1191173 102.786588,34.1191173" id="Fill-8" fill="#8BE200" transform="translate(66.409882, 63.140061) scale(1, -1) translate(-66.409882, -63.140061)"/><path d="M52.4403704,59.4852671 C52.4403704,69.3995219 45.5725082,77.43673 37.0996476,77.43673 C28.6276013,77.43673 21.7597391,69.3995219 21.7597391,59.4852671 C21.7597391,49.5710124 28.6276013,41.5338043 37.0996476,41.5338043 C45.5725082,41.5338043 52.4403704,49.5710124 52.4403704,59.4852671" id="Fill-10" fill="#FFFFFF" transform="translate(37.100055, 59.485267) scale(1, -1) translate(-37.100055, -59.485267)"/><path d="M45.2112003,59.4852671 C45.2112003,64.9314455 41.4385177,69.3462279 36.7839409,69.3462279 C32.1301785,69.3462279 28.3574958,64.9314455 28.3574958,59.4852671 C28.3574958,54.0390888 32.1301785,49.6243064 36.7839409,49.6243064 C41.4385177,49.6243064 45.2112003,54.0390888 45.2112003,59.4852671" id="Fill-12" fill="#3F3F3F" transform="translate(36.784348, 59.485267) scale(1, -1) translate(-36.784348, -59.485267)"/><path d="M34.4547797,66.5248583 C34.4547797,68.7914215 32.6877342,70.6292814 30.5078354,70.6292814 C28.3279365,70.6292814 26.5608911,68.7914215 26.5608911,66.5248583 C26.5608911,64.258295 28.3279365,62.4204352 30.5078354,62.4204352 C32.6877342,62.4204352 34.4547797,64.258295 34.4547797,66.5248583" id="Fill-14" fill="#FFFFFF" transform="translate(30.507835, 66.524858) scale(1, -1) translate(-30.507835, -66.524858)"/><path d="M110.927538,59.4852671 C110.927538,69.3995219 104.059675,77.43673 95.5868148,77.43673 C87.1147685,77.43673 80.2469063,69.3995219 80.2469063,59.4852671 C80.2469063,49.5710124 87.1147685,41.5338043 95.5868148,41.5338043 C104.059675,41.5338043 110.927538,49.5710124 110.927538,59.4852671" id="Fill-16" fill="#FFFFFF" transform="translate(95.587222, 59.485267) scale(1, -1) translate(-95.587222, -59.485267)"/><path d="M103.698368,59.4852671 C103.698368,64.9314455 99.9256849,69.3462279 95.2711081,69.3462279 C90.6173457,69.3462279 86.844663,64.9314455 86.844663,59.4852671 C86.844663,54.0390888 90.6173457,49.6243064 95.2711081,49.6243064 C99.9256849,49.6243064 103.698368,54.0390888 103.698368,59.4852671" id="Fill-18" fill="#3F3F3F" transform="translate(95.271515, 59.485267) scale(1, -1) translate(-95.271515, -59.485267)"/><path d="M92.9419469,66.5248583 C92.9419469,68.7914215 91.1749014,70.6292814 88.9950026,70.6292814 C86.8151037,70.6292814 85.0480583,68.7914215 85.0480583,66.5248583 C85.0480583,64.258295 86.8151037,62.4204352 88.9950026,62.4204352 C91.1749014,62.4204352 92.9419469,64.258295 92.9419469,66.5248583" id="Fill-20" fill="#FFFFFF" transform="translate(88.995003, 66.524858) scale(1, -1) translate(-88.995003, -66.524858)"/><path d="M118.960021,58.608894 C119.07891,59.0070317 119.209199,59.4153579 119.352517,59.833089 C119.328088,59.7562829 119.301216,59.6810443 119.277601,59.6042382 C119.170112,59.2586108 119.065067,58.9294419 118.960021,58.608894" id="Fill-22" fill="#71B200" transform="translate(119.460021, 59.220992) scale(1, -1) translate(-119.460021, -59.220992)"/><path d="M55.5182866,20.157414 C55.5182866,23.2892213 58.7738846,43.7439355 65.5529873,43.7439355 C72.7449436,43.7439355 76.1739888,28.269077 76.1739888,20.6629234 C76.1739888,13.0567699 70.5129291,20.756188 70.5129291,20.756188 L63.2085985,22.329929 C63.2085985,22.329929 55.5182866,17.0256067 55.5182866,20.157414" id="Fill-24" fill="#71B200" transform="translate(65.846138, 30.525179) scale(1, -1) translate(-65.846138, -30.525179)"/><rect id="Rectangle-2" fill-opacity="0.0599999987" fill="#000000" transform="translate(65.075000, 29.254301) scale(1, -1) translate(-65.075000, -29.254301)" x="54.15" y="15.9916181" width="21.85" height="26.5253663" rx="10.925"/><path d="M54.15,24.5176286 C54.15,24.5176286 55.2074848,42.5169843 65.1721497,42.5169843 C74.8308964,42.5169843 76,24.5491584 76,24.5491584" id="Fill-26" fill="#F49000" transform="translate(65.075000, 33.517306) scale(1, -1) translate(-65.075000, -33.517306)"/><path d="M76,39.0319851 C76,42.5548271 67.8031525,51.0429949 65.0300858,51.0429949 C62.3298111,51.0429949 54.15,42.5548271 54.15,39.1199415 C54.15,37.181843 56.8254944,29.2543012 65.0300858,29.2543012 C74.0377126,29.2543012 76,37.8862584 76,39.0319851 Z" id="Fill-28" fill="#FFC200" transform="translate(65.075000, 40.148648) scale(1, -1) translate(-65.075000, -40.148648)"/><path d="M69.35,46.7799896 C69.35,48.0881476 67.4357187,49.1483259 65.075,49.1483259 C62.7142813,49.1483259 60.8,48.0881476 60.8,46.7799896 C60.8,45.4718316 62.7142813,44.4116533 65.075,44.4116533 C67.4357187,44.4116533 69.35,45.4718316 69.35,46.7799896" id="Fill-30" fill="#FFF3B8" transform="translate(65.075000, 46.779990) scale(1, -1) translate(-65.075000, -46.779990)"/><path d="M1.82622505,-0.22226555 C1.94823394,0.753954227 2.07687357,1.74634189 2.21229598,2.75489918 C4.60065735,20.5414274 7.19666692,33.5008087 8.99628459,41.3962957 C9.19336802,42.3566666 9.38707599,43.4536146 9.56983782,44.634084 L10.45,41.2292297 C22.0711123,32.7238929 48.4414154,27.9086435 66.5,27.9086435 C84.5585846,27.9086435 110.610004,32.7238929 122.55,41.2292297 L123.959009,43.8709173 L123.959009,43.8709173 C125.745961,34.2210426 128.222309,19.7780297 130.507936,2.75489918 C130.643358,1.74634189 130.771998,0.753954227 130.894007,-0.22226555 L1.82622505,-0.22226555 Z M2.05615415e-12,-25.538046 C2.05615415e-12,-25.538046 2.05615415e-12,-25.538046 2.05615415e-12,-25.538046 L0,-25.5380633 Z" id="Combined-Shape" fill="#FFFFFF"/><path d="M54.0326226,-0.22226555 C53.8235226,10.4904731 53.8604488,20.07933 54.1434014,28.5443051 L54.1434014,28.5443051 C58.4886468,28.12408 62.6802585,27.9086435 66.5,27.9086435 C70.3922949,27.9086435 74.6559068,28.1323419 79.0695049,28.5684724 C79.0163326,19.9748411 78.8411442,10.3779285 78.5439397,-0.22226555 L54.0326226,-0.22226555 Z" id="Combined-Shape" fill="#2B70C9"/><path d="M114.635973,-0.22226555 C114.362381,5.4231155 114.081469,9.29804331 113.160041,9.29804331 C112.143942,9.29804331 111.761479,5.40492293 110.724476,-0.222265549 L114.635973,-0.22226555 L114.635973,-0.22226555 Z M22.2530958,-0.22226555 C21.2078354,5.40492302 20.8187215,9.29804331 19.8030417,9.29804331 C18.8816134,9.29804331 18.6007018,5.4231155 18.3271093,-0.22226555 L22.2530958,-0.22226555 L22.2530958,-0.22226555 Z" id="Combined-Shape" fill-opacity="0.2" fill="#1F3B8F"/><path d="M10.5820896,62.9205916 L122.41791,62.9205916 L122.41791,83.1110678 C106.4411,74.9662265 87.8017967,70.8938059 66.5,70.8938059 C45.1982033,70.8938059 26.5588998,74.9662265 10.5820896,83.1110678 L10.5820896,62.9205916 Z" id="Rectangle-6" fill-opacity="0.149999991" fill="#000000" transform="translate(66.500000, 73.015830) scale(1, -1) translate(-66.500000, -73.015830)"/><path d="M10.5092066,109.877741 C10.4363232,105.95144 10.3999939,101.920493 10.3999939,97.7822914 C10.3999939,76.8703586 15.6666887,69.4143615 24.1315437,69.4143615 C36.5460122,69.4143615 44.0939635,84.8708019 66.4541884,84.8708019 C88.039324,84.8708019 97.6321742,69.4143615 109.153375,69.4143615 C122.743925,69.4143615 122.414655,90.4626028 122.414655,97.6908938 C122.414655,101.511363 122.401139,105.520622 122.351322,109.665154 C110.386355,101.243991 91.7162368,97.0334091 66.3409669,97.0334091 C40.7530605,97.0334091 22.1424737,101.314853 10.5092066,109.877741 L10.5092066,109.877741 Z" id="Mask" fill="#FFFFFF" transform="translate(66.407676, 89.646051) scale(1, -1) translate(-66.407676, -89.646051)"/><path d="M76.523124,81.9033272 C77.6610502,84.9356678 78.3662755,87.3190385 78.6387999,89.0534394 C78.8933402,90.6733864 78.9494638,92.8667646 78.8071707,95.6335741 C74.8490584,95.3857941 70.6936571,95.2619041 66.3409669,95.2619041 C61.9691744,95.2619041 57.801057,95.3868839 53.8366149,95.6368435 C53.696795,92.8182698 53.7502596,90.6238018 53.9970088,89.0534394 C54.2613287,87.371254 54.9711701,84.9813587 56.1265332,81.8837535 C59.1973219,82.6416101 62.606449,83.0992969 66.4541884,83.0992969 C70.1364629,83.0992969 73.4697379,82.6494837 76.523124,81.9033272 Z" id="Combined-Shape" fill="#2B70C9" transform="translate(66.322230, 88.760299) scale(1, -1) translate(-66.322230, -88.760299)"/><path d="M34.0960736,86.0682167 C34.292931,97.529878 48.6437302,106.781795 66.3179043,106.781795 C83.7492508,106.781795 97.9479155,97.7823581 98.523634,86.5393667 C90.4893299,91.1041442 81.3132383,98.4287121 66.4541884,98.4287121 C50.5199788,98.4287121 42.1077193,90.5796422 34.0960736,86.0682167 L34.0960736,86.0682167 Z" id="Combined-Shape" fill-opacity="0.0700000003" fill="#1F3B8F" transform="translate(66.309854, 96.425006) scale(1, -1) translate(-66.309854, -96.425006)"/><path d="M10.5820896,42.7999852 C22.3650054,34.2049951 40.8476761,29.9075001 66.0301016,29.9075001 C91.2125271,29.9075001 110.008463,34.2049951 122.41791,42.7999852 L122.41791,71.3714138 C106.037546,78.6422942 87.3982422,82.2777344 66.5,82.2777344 C45.6017578,82.2777344 26.9624543,78.6422942 10.5820896,71.3714138 L10.5820896,42.7999852 Z" id="Mask" transform="translate(66.500000, 56.092617) scale(1, -1) translate(-66.500000, -56.092617)"/><path d="M69.8631147,49.4231162 L41.4018947,77.8843362 C35.5440303,83.7422005 26.0465556,83.7422005 20.1886913,77.8843362 C14.4343199,72.1299648 14.3326553,62.8634516 19.8836977,56.9849797 C31.3185022,51.9210237 46.7006368,49.3890457 66.0301016,49.3890457 C67.32465,49.3890457 68.602321,49.4004025 69.8631147,49.4231162 Z" id="Combined-Shape" fill-opacity="0.35" fill="#FFFFFF" transform="translate(42.829204, 65.833390) scale(1, -1) translate(-42.829204, -65.833390)"/><path d="M42.2957222,78.7670797 L91.1553018,29.9075001 C102.923617,31.7167904 112.587044,34.9424689 120.145582,39.5845354 C119.618671,42.4818439 118.235241,45.2539678 115.99529,47.4939183 L83.8322849,79.6569239 C78.2386615,80.2485396 72.4612332,80.5443475 66.5,80.5443475 C58.0637962,80.5443475 49.9957036,79.9519249 42.2957222,78.7670797 L42.2957222,78.7670797 Z" id="Combined-Shape" fill-opacity="0.35" fill="#FFFFFF" transform="translate(81.220652, 55.225924) scale(1, -1) translate(-81.220652, -55.225924)"/><path d="M126.208955,22.1953925 C107.563833,32.9645728 87.6608478,38.349163 66.4999999,38.349163 C45.3391521,38.349163 25.4361671,32.9645728 6.79104478,22.1953925 L8.68656716,10.0702064 L8.68656716,11.2783538 C25.6221985,18.5492342 44.8933428,22.1846744 66.4999999,22.1846744 C88.1066571,22.1846744 107.377801,18.5492342 124.313433,11.2783538 L124.313433,10.0702064 L126.208955,22.1953925 Z" id="Combined-Shape" fill-opacity="0.2" fill="#1F3B8F" transform="translate(66.500000, 24.209685) scale(1, -1) translate(-66.500000, -24.209685)"/><path d="M126.208955,30.0929362 C108.257631,38.9573547 88.3546461,43.3895639 66.5,43.3895639 C44.6453539,43.3895639 24.7423688,38.9573547 6.79104478,30.0929362 L6.79104478,13.8910951 C24.2819428,21.1506107 44.1849278,27.2250753 66.5,27.2250753 C88.8150722,27.2250753 108.718057,21.1506107 126.208955,13.8797303 L126.208955,30.0929362 Z" id="Mask" fill="#FFFFFF" transform="translate(66.500000, 28.634647) scale(1, -1) translate(-66.500000, -28.634647)"/><path d="M79.7686567,13.8797303 L79.7686567,30.1867317 C75.4287313,30.5635355 71.0058457,30.7519374 66.5,30.7519374 C61.9941543,30.7519374 57.5712687,30.5635355 53.2313433,30.1867317 L53.2313433,13.8798248 C57.5551811,14.3380125 61.9780667,14.5874488 66.5,14.5874488 C71.0219333,14.5874488 75.4448189,14.3380125 79.7686567,13.8797303 L79.7686567,13.8797303 Z" id="Combined-Shape" fill="#2B70C9" transform="translate(66.500000, 22.315834) scale(1, -1) translate(-66.500000, -22.315834)"/><path d="M127.674123,41.7777344 L127.674123,41.7797456 C129.189159,41.8363904 130.399994,43.0824738 130.399994,44.6113628 C130.399994,44.69789 130.396031,44.7843717 130.388117,44.8705361 C129.927608,49.8841304 129.697363,53.5654205 129.697363,55.9144049 C129.697363,58.2504925 129.925087,61.841241 130.380535,66.6866505 L130.380525,66.6866515 C130.526615,68.2408688 129.385102,69.6192401 127.830885,69.7653299 C127.77873,69.7702323 127.726456,69.7736831 127.674123,69.7777344 L126.674123,69.7777344 C123.360415,69.7777344 120.674123,67.0914429 120.674123,63.7777344 L120.674123,47.7777344 C120.674123,44.464026 123.360415,41.7777344 126.674123,41.7777344 L127.674123,41.7777344 Z" id="Combined-Shape" fill="#2B70C9" transform="translate(125.537059, 55.777734) scale(-1, -1) translate(-125.537059, -55.777734)"/><path d="M9.00983835,41.7777344 L9.00983835,41.7797456 C10.5248744,41.8363904 11.735709,43.0824738 11.735709,44.6113628 C11.735709,44.69789 11.7317457,44.7843717 11.7238316,44.8705361 C11.2633235,49.8841304 11.0330782,53.5654205 11.0330782,55.9144049 C11.0330782,58.2504925 11.2608022,61.841241 11.7162502,66.6866505 L11.7162399,66.6866515 C11.8623298,68.2408688 10.720817,69.6192401 9.16659965,69.7653299 C9.11444496,69.7702323 9.06217099,69.7736831 9.00983835,69.7777344 L8.00983835,69.7777344 C4.69612986,69.7777344 2.00983835,67.0914429 2.00983835,63.7777344 L2.00983835,47.7777344 C2.00983835,44.464026 4.69612986,41.7777344 8.00983835,41.7777344 L9.00983835,41.7777344 Z" id="Combined-Shape" fill="#2B70C9" transform="translate(6.872774, 55.777734) scale(1, -1) translate(-6.872774, -55.777734)"/></g></g></svg>