<?xml version="1.0" encoding="UTF-8"?><svg width="230px" height="284px" viewBox="0 0 230 284" version="1.1" xmlns="http://www.w3.org/2000/svg" xmlns:xlink="http://www.w3.org/1999/xlink"><title>airplane_duo + window</title><desc>Created with Sketch.</desc><defs><linearGradient x1="55%" y1="-12.6252505%" x2="68.7524414%" y2="135.671343%" id="linearGradient-1"><stop stop-color="#20A2E1" offset="0%"/><stop stop-color="#79D9E8" offset="100%"/></linearGradient></defs><g id="Page-1" stroke="none" stroke-width="1" fill="none" fill-rule="evenodd"><g id="airplane_duo-+-window"><g id="Rectangle" transform="translate(19.000000, 15.500000)"><path d="M95.7275351,0 C148.596393,-8.8817842e-15 191.45507,42.8586773 191.45507,95.7275351 L191.45507,156.286254 C191.45507,209.155111 148.596393,252.013789 95.7275351,252.013789 C42.8586773,252.013789 7.10542736e-15,209.155111 0,156.286254 L0,95.7275351 C1.0658141e-14,42.8586773 42.8586773,8.8817842e-15 95.7275351,0 Z" id="Mask" fill="#FFFFFF" fill-rule="nonzero"/><path d="M95.7275351,13 C141.416691,13 178.45507,50.0383791 178.45507,95.7275351 L178.45507,156.286254 C178.45507,201.97541 141.416691,239.013789 95.7275351,239.013789 C50.0383791,239.013789 13,201.97541 13,156.286254 L13,95.7275351 C13,50.0383791 50.0383791,13 95.7275351,13 Z" id="Path" fill="#D2D8E9"/><g id="Group-4" transform="translate(24.000000, 24.000000)"><path d="M71.7275351,0 C32.1135113,7.10542736e-15 7.10542736e-15,32.1135113 0,71.7275351 L0,132.286254 C5.32907052e-15,171.900277 32.1135113,204.013789 71.7275351,204.013789 C111.341559,204.013789 143.45507,171.900277 143.45507,132.286254 L143.45507,71.7275351 C143.45507,32.1135113 111.341559,-7.10542736e-15 71.7275351,0 Z" id="Mask" fill="url(#linearGradient-1)" fill-rule="nonzero"/><path d="M132.970015,130.483569 C132.728917,128.193654 132.564809,125.865389 132.53847,123.906969 C132.531717,123.426627 132.511457,123.035983 132.482417,122.705788 C132.550941,120.121031 132.59641,117.578446 132.62607,115.094979 C132.646119,113.416246 110.393596,103.947566 87.4271362,99.7756406 C64.0052668,95.5209893 39.8890456,111.957669 39.9466817,115.125912 C40.0032384,118.234814 40.0876272,121.264333 40.2000125,124.216365 C40.1939344,124.377562 40.187181,124.53551 40.1851549,124.719457 C40.128426,128.889793 39.4530819,134.739704 38.7216841,138.314649 C37.2291735,144.882799 50.667159,188.244153 54.5213482,178.869346 C62.0683193,193.124928 123.436809,185.761254 119.951358,159.723951 C119.951358,159.723951 134.383511,137.713409 132.970015,130.483569 Z" id="Fill-6" fill="#78C800" transform="translate(85.836988, 142.552794) rotate(-24.000000) translate(-85.836988, -142.552794)"/><path d="M107.553724,98.2700469 C103.509763,98.2700469 100.369412,101.127403 99.5515705,101.127403 C99.2287559,101.127403 99.1645982,100.878457 99.1645982,100.547612 C99.1645982,99.5121779 100.390348,99.1605333 100.390348,98.6840906 C100.390348,98.394195 99.874385,98.3324459 99.7237832,98.3324459 C95.7230443,98.3324459 89.6348166,105.806032 88.7102705,105.806032 C88.387456,105.806032 88.3232983,105.391988 88.3232983,105.122892 C88.3232983,103.859962 89.4848902,103.093623 89.4848902,102.741979 C89.4848902,102.390334 89.2046224,102.265536 88.989863,102.265536 C87.0104292,102.265536 82.6733689,106.541821 77.3847487,106.57042 C72.0961285,106.541821 67.7590683,102.265536 65.7796345,102.265536 C65.5641997,102.265536 65.2846072,102.390334 65.2846072,102.741979 C65.2846072,103.093623 66.4461992,103.859962 66.4461992,105.122892 C66.4461992,105.391988 66.3820415,105.806032 66.059227,105.806032 C65.1340055,105.806032 59.0464531,98.3324459 55.0457142,98.3324459 C54.8951125,98.3324459 54.3784742,98.394195 54.3784742,98.6840906 C54.3784742,99.1605333 55.6048992,99.5121779 55.6048992,100.547612 C55.6048992,100.878457 55.5400662,101.127403 55.217927,101.127403 C54.4000852,101.127403 51.2597348,98.2700469 47.2157739,98.2700469 C42.3114246,98.2700469 34.9974472,103.98411 34.9974472,123.362264 C34.9974472,142.243826 45.4517749,146.407012 53.7119095,146.407012 C61.9713687,146.407012 68.9848179,140.546052 68.9848179,140.546052 L72.3406031,135.535928 L77.3847487,133.118615 L82.4288943,135.535928 L85.7846795,140.546052 C85.7846795,140.546052 92.7981287,146.407012 101.057588,146.407012 C109.317723,146.407012 119.77205,142.243826 119.77205,123.362264 C119.77205,103.98411 112.458073,98.2700469 107.553724,98.2700469" id="Fill-8" fill="#8BE200" transform="translate(77.384749, 122.338530) rotate(-24.000000) translate(-77.384749, -122.338530)"/><path d="M69.1335538,134.994558 C69.1335538,143.216933 63.437701,149.882581 56.4107449,149.882581 C49.3844642,149.882581 43.6886114,143.216933 43.6886114,134.994558 C43.6886114,126.772184 49.3844642,120.106535 56.4107449,120.106535 C63.437701,120.106535 69.1335538,126.772184 69.1335538,134.994558" id="Fill-10" fill="#FFFFFF" transform="translate(56.411083, 134.994558) rotate(-24.000000) translate(-56.411083, -134.994558)"/><path d="M63.1606873,135.101054 C63.1606873,139.617835 60.0318177,143.27923 56.1715505,143.27923 C52.3119585,143.27923 49.183089,139.617835 49.183089,135.101054 C49.183089,130.584273 52.3119585,126.922879 56.1715505,126.922879 C60.0318177,126.922879 63.1606873,130.584273 63.1606873,135.101054" id="Fill-12" fill="#3F3F3F" transform="translate(56.171888, 135.101054) rotate(-24.000000) translate(-56.171888, -135.101054)"/><path d="M52.3152548,131.884758 C52.3152548,133.764529 50.8497579,135.288756 49.0418616,135.288756 C47.2339653,135.288756 45.7684684,133.764529 45.7684684,131.884758 C45.7684684,130.004987 47.2339653,128.48076 49.0418616,128.48076 C50.8497579,128.48076 52.3152548,130.004987 52.3152548,131.884758" id="Fill-14" fill="#FFFFFF" transform="translate(49.041862, 131.884758) rotate(-24.000000) translate(-49.041862, -131.884758)"/><path d="M118.478023,106.870238 C118.576623,107.200433 118.684678,107.539078 118.803538,107.885523 C118.783278,107.821824 118.760992,107.759425 118.741407,107.695726 C118.652261,107.40908 118.565142,107.136084 118.478023,106.870238" id="Fill-22" fill="#71B200" transform="translate(118.978023, 107.377880) rotate(-24.000000) translate(-118.978023, -107.377880)"/><path d="M79.3941035,138.640796 C79.3941035,141.238156 82.0941295,158.202247 87.7163697,158.202247 C93.6810094,158.202247 96.5248837,145.368193 96.5248837,139.060039 C96.5248837,132.751885 91.829891,139.137388 91.829891,139.137388 L85.7720538,140.442568 C85.7720538,140.442568 79.3941035,136.043435 79.3941035,138.640796" id="Fill-24" fill="#71B200" transform="translate(87.959494, 147.239288) rotate(-24.000000) translate(-87.959494, -147.239288)"/><path d="M87.8383355,114.279637 C91.2038285,116.041753 94.7133327,116.929186 98.3417905,116.929186 C101.929717,116.929186 105.728509,116.061924 109.735067,114.34639 C110.750945,113.91141 111.221855,112.735258 110.786875,111.71938 C110.351895,110.703503 109.175743,110.232592 108.159866,110.667572 C104.626722,112.180399 101.355064,112.927316 98.3417905,112.927316 C95.3690486,112.927316 92.4950047,112.200569 89.6946015,110.734325 C88.7155906,110.221732 87.5064062,110.599837 86.9938125,111.578848 C86.4812189,112.557859 86.8593247,113.767043 87.8383355,114.279637 Z" id="Path-4" fill-opacity="0.19737885" fill="#000000" fill-rule="nonzero" transform="translate(98.857020, 113.717360) scale(1, -1) rotate(24.000000) translate(-98.857020, -113.717360)"/><path d="M72.0398972,142.93771 C72.0398972,142.93771 64.9468061,141.716768 61.2258403,141.716768 C57.5048745,141.716768 50.4117835,142.93771 50.4117835,142.93771 L50.4117835,150.147082 L72.0398972,150.147082 L72.0398972,142.93771 Z" id="Fill-17" fill="#8EE000" transform="translate(61.225840, 145.931925) rotate(-24.000000) translate(-61.225840, -145.931925)"/><path d="M79.3941035,138.640796 C79.3941035,141.238156 82.0941295,158.202247 87.7163697,158.202247 C93.6810094,158.202247 96.5248837,145.368193 96.5248837,139.060039 C96.5248837,132.751885 91.829891,139.137388 91.829891,139.137388 L85.7720538,140.442568 C85.7720538,140.442568 79.3941035,136.043435 79.3941035,138.640796" id="Fill-24" fill="#71B200" transform="translate(87.959494, 147.239288) rotate(-24.000000) translate(-87.959494, -147.239288)"/><rect id="Rectangle-2" fill-opacity="0.0599999987" fill="#000000" transform="translate(88.846798, 148.462291) rotate(-24.000000) translate(-88.846798, -148.462291)" x="79.7861629" y="137.462902" width="18.1212696" height="21.9987786" rx="9.0606348"/><path d="M78.3481382,137.768563 C78.3481382,137.768563 79.2251618,152.696306 87.489344,152.696306 C95.4998132,152.696306 96.4694078,137.794712 96.4694078,137.794712" id="Fill-26" fill="#F49000" transform="translate(87.408773, 145.232434) rotate(-24.000000) translate(-87.408773, -145.232434)"/><path d="M94.2324804,139.28211 C94.2324804,142.203775 87.4344354,149.243426 85.1345961,149.243426 C82.8951267,149.243426 76.1112109,142.203775 76.1112109,139.355057 C76.1112109,137.747697 78.3301287,131.173001 85.1345961,131.173001 C92.6050599,131.173001 94.2324804,138.331903 94.2324804,139.28211 Z" id="Fill-28" fill="#FFC200" transform="translate(85.171846, 140.208213) rotate(-24.000000) translate(-85.171846, -140.208213)"/><path d="M86.4803841,135.183992 C86.4803841,136.268911 84.8927774,137.148169 82.9349183,137.148169 C80.9770592,137.148169 79.3894525,136.268911 79.3894525,135.183992 C79.3894525,134.099073 80.9770592,133.219816 82.9349183,133.219816 C84.8927774,133.219816 86.4803841,134.099073 86.4803841,135.183992" id="Fill-30" fill="#FFF3B8" transform="translate(82.934918, 135.183992) rotate(-24.000000) translate(-82.934918, -135.183992)"/><path d="M142.928252,141.02373 C136.820066,131.313952 131.387328,123.202228 127.486709,117.524907 L127.310288,120.001672 C121.133052,130.473398 103.019564,142.909496 89.3375176,149.001135 C75.6554715,155.092774 54.0517592,160.339914 42.3779738,157.815974 L40.5625733,155.533196 C40.8223078,156.489226 41.0455751,157.385669 41.2202138,158.179774 C42.5200946,164.76883 44.9247768,175.463179 49.1151077,189.74476 C50.387808,194.082314 51.6514575,198.002757 52.8884423,201.514172 C58.8918535,203.144013 65.2081209,204.013789 71.7275351,204.013789 C108.383839,204.013789 138.617847,176.516667 142.928252,141.02373 L142.928252,141.02373 Z" id="Combined-Shape" fill="#FFFFFF"/><path d="M116.638619,188.216558 C115.23213,184.353546 113.69188,180.352767 112.017869,176.21422 C107.080541,164.007982 102.62065,153.356972 98.6381971,144.26119 C95.4413627,146.080447 92.2865061,147.688161 89.3375176,149.001135 C86.443499,150.289635 83.1950614,151.540352 79.7611428,152.687736 C83.4262644,161.720386 88.1804618,172.233049 94.0237351,184.225724 C96.3720864,189.045457 98.7170771,193.557544 101.058707,197.761984 C106.671729,195.243653 111.902129,192.024748 116.638619,188.216558 L116.638619,188.216558 Z" id="Combined-Shape" fill="#2B70C9"/><path d="M68.5159472,203.943174 C65.1851475,192.108426 58.772068,179.505108 60.2355208,178.853537 C62.1228376,178.013249 69.0540177,196.186453 84.6218341,202.857947 C80.4388657,203.617251 76.1295086,204.013789 71.7275351,204.013789 C70.6513052,204.013789 69.5806114,203.990086 68.5159472,203.943174 L68.5159472,203.943174 Z" id="Combined-Shape" fill-opacity="0.2" fill="#1F3B8F"/><g id="Group" transform="translate(82.743651, 134.173840) rotate(-24.000000) translate(-82.743651, -134.173840) translate(29.243651, 81.673840)"><path d="M95.5040674,104.162189 C94.9224888,93.420184 90.8918986,84.647723 92.2230471,84.0550575 C93.198365,83.620818 95.7777278,89.3384342 99.3335524,96.2777457 C98.214952,98.9936494 96.9344507,101.625804 95.5040674,104.162189 L95.5040674,104.162189 Z" id="Path" fill="#D2D8E9"/><path d="M7.11754501,22.9453147 L99.8684402,22.9453147 L99.8684402,39.6902603 C86.618093,32.9353466 71.1596105,29.5578897 53.4929926,29.5578897 C35.8263747,29.5578897 20.3678922,32.9353466 7.11754501,39.6902603 L7.11754501,22.9453147 Z" id="Rectangle-6" fill-opacity="0.149999991" fill="#000000"/><g id="Rectangle-4" transform="translate(6.966524, 0.746409)"><path d="M0.0905753956,33.5582518 C0.0301296585,30.3019798 -7.10542736e-15,26.9589189 -7.10542736e-15,23.5269065 C-7.10542736e-15,6.1836217 4.36792664,0 11.3882433,0 C21.6841669,0 27.9440506,12.8187791 46.4884746,12.8187791 C64.3900792,12.8187791 72.3458973,0 81.9009903,0 C93.1722959,0 92.899216,17.456332 92.899216,23.451106 C92.899216,26.6196074 92.8880069,29.9446814 92.8466913,33.3819431 C82.9235611,26.3978623 67.4395222,22.9058219 46.3945745,22.9058219 C25.173277,22.9058219 9.7386106,26.4566318 0.0905753956,33.5582518 L0.0905753956,33.5582518 Z" id="Mask" fill="#FFFFFF"/><path d="M56.7334047,23.2140659 C56.8514153,20.919416 56.8048693,19.1003406 56.5937666,17.7568396 C56.3677488,16.3184165 55.7828711,14.341771 54.8391335,11.8269032 C52.3068117,12.4457271 49.5423642,12.8187791 46.4884746,12.8187791 C43.2973569,12.8187791 40.4700016,12.4391971 37.923247,11.8106698 C36.9650481,14.3796646 36.376342,16.3617213 36.1571286,17.7568396 C35.9524875,19.0592176 35.9081467,20.8791969 36.0241062,23.2167774 C39.3120112,23.0094737 42.7688339,22.9058219 46.3945745,22.9058219 C50.0044726,22.9058219 53.4507493,23.0085699 56.7334047,23.2140659 L56.7334047,23.2140659 Z" id="Combined-Shape" fill="#2B70C9"/><path d="M19.6523134,2.56761809 C19.8155769,12.0733322 31.7173938,19.7463982 46.3754476,19.7463982 C60.8321125,19.7463982 72.607757,12.2827263 73.0852284,2.95836573 C66.4219885,6.74415813 58.8118087,12.8187791 46.4884746,12.8187791 C33.2734583,12.8187791 26.2967615,6.30916302 19.6523134,2.56761809 L19.6523134,2.56761809 Z" id="Combined-Shape" fill-opacity="0.0700000003" fill="#1F3B8F"/></g><path d="M56.2821875,23.6646949 L32.677911,47.2689714 C27.8196987,52.1271837 19.9429802,52.1271837 15.0847679,47.2689714 C10.3123873,42.4965908 10.228072,34.8114199 14.8318218,29.9361167 C24.3152623,25.7363313 37.072416,23.6364386 53.103283,23.6364386 C54.176915,23.6364386 55.2365499,23.6458574 56.2821875,23.6646949 Z" id="Combined-Shape" fill-opacity="0.35" fill="#FFFFFF"/><path d="M33.4192057,65.5956508 L73.9408357,25.0740209 C83.7008727,26.5745535 91.7152233,29.2497658 97.9838874,33.0996577 C97.5468949,35.5025369 96.3995486,37.8015942 94.5418486,39.6592943 L67.8675009,66.3336419 C63.2284365,66.8242977 58.4369338,67.0696256 53.4929926,67.0696256 C46.4964378,67.0696256 39.8051755,66.5783006 33.4192057,65.5956508 L33.4192057,65.5956508 Z" id="Combined-Shape" fill-opacity="0.35" fill="#FFFFFF"/><path d="M103.012538,70.1245507 C87.5492299,79.0559567 71.0427147,83.5216597 53.4929926,83.5216597 C35.9432704,83.5216597 19.4367552,79.0559567 3.97344687,70.1245507 L5.54549594,60.0685432 L5.54549594,61.0705186 C19.5910402,67.100614 35.5735391,70.1156618 53.4929926,70.1156618 C71.4124461,70.1156618 87.394945,67.100614 101.440489,61.0705186 L101.440489,60.0685432 L103.012538,70.1245507 Z" id="Combined-Shape" fill-opacity="0.2" fill="#1F3B8F"/><path d="M103.012538,69.3346948 C88.1246307,76.6863889 71.6181155,80.362236 53.4929926,80.362236 C35.3678697,80.362236 18.8613545,76.6863889 3.97344687,69.3346948 L3.97344687,55.8977186 C18.4795008,61.9183886 34.986016,66.956238 53.4929926,66.956238 C71.9999692,66.956238 88.5064845,61.9183886 103.012538,55.8882932 L103.012538,69.3346948 Z" id="Mask" fill="#FFFFFF"/><path d="M64.4973361,66.3692925 L64.4973361,79.8934833 C60.8980245,80.2059851 57.22991,80.362236 53.4929926,80.362236 C49.7560752,80.362236 46.0879607,80.2059851 42.4886491,79.8934833 L42.4886491,66.369371 C46.0746185,66.7493683 49.742733,66.956238 53.4929926,66.956238 C57.2432523,66.956238 60.9113668,66.7493683 64.4973361,66.3692925 L64.4973361,66.3692925 Z" id="Combined-Shape" fill="#2B70C9"/><path d="M5.80544106,57.2126169 L5.80544106,57.2250619 C2.5991845,57.2250619 1.2808316e-15,54.6258774 8.8817842e-16,51.4196208 L0,39.8087387 C-3.92468176e-16,36.6039928 2.59673574,34.0057471 5.80090936,34.0032994 L5.80091283,33.9922243 C7.0618913,33.9978263 8.07957508,35.0245925 8.07397317,36.285571 C8.07368914,36.3495062 8.07071972,36.4134013 8.06507277,36.4770873 C7.69221384,40.6816996 7.505805,43.7651808 7.505805,45.7275272 C7.505805,47.6784004 7.69004045,50.6843138 8.05851137,54.7452675 L8.05854966,54.745264 C8.17148182,55.9899003 7.25405434,57.090427 6.00941804,57.2033592 C5.94159765,57.2095129 5.87353604,57.2126017 5.80544106,57.2126169 L5.80544106,57.2126169 Z" id="Combined-Shape" fill="#2B70C9"/><path d="M100.797028,34.0043965 C100.759083,34.003665 100.721049,34.0032976 100.68293,34.0032976 L100.68293,34.011772 C99.4212511,34.122481 98.4319212,35.1820298 98.432434,36.4723539 C98.4324626,36.5442545 98.4356318,36.6161196 98.4419324,36.6877436 C98.8023589,40.7848389 98.9825659,43.7981004 98.9825659,45.7275272 C98.9825659,47.6383942 98.8058092,50.5614741 98.4522956,54.4967668 L98.4522573,54.4967634 C98.3294254,55.8641208 99.3244624,57.0741077 100.68293,57.223363 L100.68293,57.2250619 C100.688171,57.2250619 100.693411,57.2250549 100.69865,57.225041 C100.71027,57.2262453 100.721917,57.227372 100.73359,57.2284206 C100.804378,57.2347796 100.875404,57.238137 100.946477,57.2384836 L100.946439,57.219188 C104.030395,57.0814214 106.488371,54.5375667 106.488371,51.4196208 L106.488371,39.8087387 C106.488371,36.6753647 104.006009,34.1217772 100.900613,34.0073033 L100.900603,34.0022222 C100.865906,34.002236 100.831376,34.0029654 100.797028,34.0043965 L100.797028,34.0043965 Z" id="Combined-Shape" fill="#2B70C9"/></g></g><g id="Group-3" transform="translate(36.713822, 63.130177)" fill="#FFFFFE"><g id="sparkles-I" transform="translate(0.049196, 0.000000)"><rect id="spark-d" opacity="0.5" transform="translate(16.406167, 5.480909) rotate(-45.000000) translate(-16.406167, -5.480909)" x="12.7603519" y="1.82696965" width="7.29162968" height="7.30787861" rx="1"/><rect id="spark-c" opacity="0.5" transform="translate(4.101542, 27.861287) rotate(-45.000000) translate(-4.101542, -27.861287)" x="1.82290742" y="25.5775751" width="4.55726855" height="4.56742413" rx="1"/><rect id="spark-b" transform="translate(101.627089, 5.024167) rotate(-45.000000) translate(-101.627089, -5.024167)" x="99.3484544" y="2.74045448" width="4.55726855" height="4.56742413" rx="1"/><rect id="spark-a" opacity="0.5" transform="translate(109.374445, 114.185603) rotate(-45.000000) translate(-109.374445, -114.185603)" x="105.72863" y="110.531664" width="7.29162968" height="7.30787861" rx="1"/></g></g><path d="M35.1991132,39.3341989 C47.3072613,50.0891901 70.120436,57.3376332 96.2682379,57.3376332 C121.990852,57.3376332 144.486406,50.3230064 156.738233,39.8560599 C141.614116,23.349754 119.879483,13 95.7275351,13 C71.8311262,13 50.3011499,23.131902 35.1991132,39.3341989 L35.1991132,39.3341989 Z" id="Combined-Shape" fill-opacity="0.0645663496" fill="#000000"/><path d="M37.4049693,37.0562153 C52.7301441,42.9329136 73.2186545,46.5235763 95.7275351,46.5235763 C118.236416,46.5235763 138.724926,42.9329136 154.050101,37.0562153 C139.093354,22.1878266 118.48341,13 95.7275351,13 C72.9716599,13 52.3617165,22.1878266 37.4049809,37.0562038 L37.4049693,37.0562153 Z" id="Combined-Shape" fill="#E1E1E1"/><rect id="Rectangle-3" fill="#D4D2D2" x="69.2330957" y="33.5467081" width="56.2330957" height="7.56983981" rx="3.78491991"/></g></g></g></svg>