<?xml version="1.0" encoding="UTF-8" standalone="no"?><svg width="36px" height="17px" viewBox="0 0 36 17" version="1.1" xmlns="http://www.w3.org/2000/svg" xmlns:xlink="http://www.w3.org/1999/xlink" xmlns:sketch="http://www.bohemiancoding.com/sketch/ns"><defs/><g id="Page-1" stroke="none" stroke-width="1" fill="none" fill-rule="evenodd" sketch:type="MSPage"><g id="speaker-slow" sketch:type="MSArtboardGroup" transform="translate(-1.000000, -1.000000)" fill="#FFFFFF"><g id="Imported-Layers" sketch:type="MSLayerGroup" transform="translate(1.000000, 1.000000)"><path d="M11.0001678,6 C15.970535,6 20,7.79078182 20,10 C20,12.2092182 15.970535,14 11.0001678,14 C6.02946497,14 2,12.2092182 2,10 C2,7.79078182 6.02946497,6 11.0001678,6" id="Fill-1" sketch:type="MSShapeGroup"/><path d="M0.490607167,7.0001873 C0.0434831088,7.02424352 -0.0559561534,7.19232054 0.0262046554,7.40756042 C0.185236951,7.98934114 1.14930412,12.2013956 6.07013711,11.9924863 C6.63045267,11.9687466 6.31626692,10.2819624 7,10.0512126 C1.55235049,9.21589192 0.937731225,6.9764476 0.490607167,7.0001873" id="Fill-2" sketch:type="MSShapeGroup"/><path d="M14.5184868,10.0510302 C15.1858425,9.83844541 15.371393,10.30946 15.5501134,11.1030872 L16.9571097,15.1269168 C17.1358301,15.9205441 16.7396855,16.7362449 16.0726144,16.9488297 C15.4052588,17.161754 14.719405,16.6907395 14.5404,15.8971122 L14.1342949,11.8732827 C13.9555745,11.0793158 13.8511312,10.263615 14.5184868,10.0510302" id="Fill-3" sketch:type="MSShapeGroup"/><path d="M6.48146722,10.0510302 C7.14888198,10.263615 7.04442944,11.0793158 6.8656932,11.8732827 L6.45955211,15.8971122 C6.28081588,16.6907395 5.59490135,17.161754 4.92748659,16.9488297 C4.26007183,16.7362449 3.86417676,15.9205441 4.042913,15.1269168 L5.44974931,11.1030872 C5.62877016,10.30946 5.81433708,9.83844541 6.48146722,10.0510302" id="Fill-4" sketch:type="MSShapeGroup"/><path d="M11.0001678,1 C15.970535,1 20,5.00476527 20,9.94452877 C20,10.0662975 2,9.95050108 2,9.94452877 C2,5.00476527 6.02946497,1 11.0001678,1" id="Fill-5" sketch:type="MSShapeGroup"/><path d="M19.6178283,8.65084567 C19.8150957,8.5174543 18.5317383,7.58242273 21.818783,8.65084567 C25.1058276,9.71926861 25.8571704,8.03201304 26.3831103,7.63119294 C26.9087305,7.23069583 27.4506565,5.31250846 26.3987766,4.04415994 C25.3468968,2.77613441 24.0852804,2.77548845 22.836133,3.44341428 C21.586666,4.11101712 21.0955756,5.9801113 20.3723682,6.44778858 C19.6488411,6.91514287 19.0263457,6.04729146 19.0263457,6.04729146 C19.0263457,6.04729146 18.809895,8.33529271 19.6178283,8.65084567" id="Fill-6" sketch:type="MSShapeGroup"/><path d="M34,0 C34.5523669,0 35,0.467095446 35,1.04347826 C35,1.04347826 36,3.49966555 36,5.96665809 C36,8.45618729 35,10.9565217 35,10.9565217 C35,11.5329046 34.5523669,12 34,12 C33.447929,12 33,11.5329046 33,10.9565217 C33,10.9565217 34,8.42130178 34,5.9147929 C34,3.46539748 33,1.04347826 33,1.04347826 C33,0.467095446 33.447929,0 34,0" id="Fill-7" sketch:type="MSShapeGroup"/><path d="M30.2,2 C30.8628402,2 31.4,2.47747535 31.4,3.06666667 C31.4,3.06666667 32,4.4381854 32,5.85483235 C32,7.36836292 31.4,8.93333333 31.4,8.93333333 C31.4,9.52252465 30.8628402,10 30.2,10 C29.5375148,10 29,9.52252465 29,8.93333333 C29,8.93333333 29.6,7.33207101 29.6,5.80276134 C29.6,4.40473373 29,3.06666667 29,3.06666667 C29,2.47747535 29.5375148,2 30.2,2" id="Fill-8" sketch:type="MSShapeGroup"/></g></g></g></svg>