<?xml version="1.0" encoding="UTF-8"?><svg width="120px" height="170px" viewBox="0 0 120 170" version="1.1" xmlns="http://www.w3.org/2000/svg" xmlns:xlink="http://www.w3.org/1999/xlink" style="background: #F2F2F2;"><title>splash_duo</title><desc>Created with Sketch.</desc><defs/><g id="Page-1" stroke="none" stroke-width="1" fill="none" fill-rule="evenodd"><g id="splash_duo"><g id="Group"><path d="M112.281156,54.2021127 C112.01281,51.6534046 111.830155,49.0620132 111.80084,46.8822637 C111.793323,46.3476355 111.770773,45.9128431 111.738451,45.5453314 C111.858214,41.0278403 111.914703,36.6260893 111.939146,32.413105 C111.951522,30.280018 80.2525962,14.397269 60.3454298,14.397269 C39.7234273,14.397269 8.66189742,30.9768877 8.68827462,33.2816795 C8.74335314,38.0943282 8.85604772,42.7408542 9.02682314,47.2266251 C9.02005818,47.4060402 9.01254148,47.5818381 9.01028649,47.786574 C8.94714637,52.4282177 8.19547871,58.9392515 7.38142263,62.9182166 C6.53673059,66.6354858 33.3692681,79.1943127 60,79.1538462 C85.7417127,79.1147305 111.279613,74.0825279 112.319053,63 C112.371224,62.44375 112.360661,54.6087708 112.281156,54.2021127 Z" id="Fill-6" fill="#78C800" fill-rule="nonzero" transform="translate(59.856574, 46.775606) scale(-1, -1) rotate(-180.000000) translate(-59.856574, -46.775606)"/><path d="M93.9568505,16.4667649 C89.4558648,16.4667649 85.9606102,19.6470432 85.0503406,19.6470432 C84.6910435,19.6470432 84.619635,19.3699626 84.619635,19.0017274 C84.619635,17.8492744 85.9839119,17.4578889 85.9839119,16.9276014 C85.9839119,16.6049435 85.4096378,16.5362159 85.2420159,16.5362159 C80.7891366,16.5362159 74.0128526,24.8544234 72.9838196,24.8544234 C72.6245225,24.8544234 72.553114,24.3935869 72.553114,24.0940793 C72.553114,22.6884195 73.8459824,21.835474 73.8459824,21.4440885 C73.8459824,21.0527031 73.5340403,20.913801 73.29501,20.913801 C71.091872,20.913801 66.2646623,25.6733668 60.3783528,25.7051984 C54.4920433,25.6733668 49.6648336,20.913801 47.4616956,20.913801 C47.2219136,20.913801 46.9107233,21.0527031 46.9107233,21.4440885 C46.9107233,21.835474 48.2035916,22.6884195 48.2035916,24.0940793 C48.2035916,24.3935869 48.1321832,24.8544234 47.7728861,24.8544234 C46.7431014,24.8544234 39.967569,16.5362159 35.5146897,16.5362159 C35.3470678,16.5362159 34.772042,16.6049435 34.772042,16.9276014 C34.772042,17.4578889 36.1370706,17.8492744 36.1370706,19.0017274 C36.1370706,19.3699626 36.0649105,19.6470432 35.706365,19.6470432 C34.7960955,19.6470432 31.3008408,16.4667649 26.7998548,16.4667649 C21.3412442,16.4667649 13.2006834,22.8265981 13.2006834,44.3947594 C13.2006834,65.4102063 24.8364989,70.043892 34.0301461,70.043892 C43.2230417,70.043892 51.0291103,63.5205595 51.0291103,63.5205595 L54.764147,57.9442208 L60.3783528,55.2537169 L65.9925586,57.9442208 L69.7275953,63.5205595 C69.7275953,63.5205595 77.5336639,70.043892 86.7265595,70.043892 C95.9202065,70.043892 107.556022,65.4102063 107.556022,44.3947594 C107.556022,22.8265981 99.4154612,16.4667649 93.9568505,16.4667649" id="Fill-8" fill="#8BE200" fill-rule="nonzero" transform="translate(60.378353, 43.255328) scale(-1, -1) rotate(-180.000000) translate(-60.378353, -43.255328)"/><path d="M47.4834188,46.6289844 C47.4834188,55.7806042 41.1438537,63.1995655 33.3227516,63.1995655 C25.5024012,63.1995655 19.1628361,55.7806042 19.1628361,46.6289844 C19.1628361,37.4773647 25.5024012,30.0584034 33.3227516,30.0584034 C41.1438537,30.0584034 47.4834188,37.4773647 47.4834188,46.6289844" id="Fill-10" fill="#FFFFFF" fill-rule="nonzero" transform="translate(33.323127, 46.628984) scale(-1, -1) rotate(-180.000000) translate(-33.323127, -46.628984)"/><path d="M40.8103387,46.6289844 C40.8103387,51.656226 37.3278625,55.7314098 33.0313301,55.7314098 C28.7355494,55.7314098 25.253073,51.656226 25.253073,46.6289844 C25.253073,41.6017429 28.7355494,37.5265591 33.0313301,37.5265591 C37.3278625,37.5265591 40.8103387,41.6017429 40.8103387,46.6289844" id="Fill-12" fill="#3F3F3F" fill-rule="nonzero" transform="translate(33.031706, 46.628984) scale(-1, -1) rotate(-180.000000) translate(-33.031706, -46.628984)"/><path d="M30.8813351,40.1309006 C30.8813351,42.2231128 29.2502162,43.9195988 27.2380019,43.9195988 C25.2257875,43.9195988 23.5946687,42.2231128 23.5946687,40.1309006 C23.5946687,38.0386883 25.2257875,36.3422023 27.2380019,36.3422023 C29.2502162,36.3422023 30.8813351,38.0386883 30.8813351,40.1309006" id="Fill-14" fill="#FFFFFF" fill-rule="nonzero" transform="translate(27.238002, 40.130901) scale(-1, -1) rotate(-180.000000) translate(-27.238002, -40.130901)"/><path d="M101.471574,46.6289844 C101.471574,55.7806042 95.1320077,63.1995655 87.310906,63.1995655 C79.4905555,63.1995655 73.1509904,55.7806042 73.1509904,46.6289844 C73.1509904,37.4773647 79.4905555,30.0584034 87.310906,30.0584034 C95.1320077,30.0584034 101.471574,37.4773647 101.471574,46.6289844" id="Fill-16" fill="#FFFFFF" fill-rule="nonzero" transform="translate(87.311282, 46.628984) scale(-1, -1) rotate(-180.000000) translate(-87.311282, -46.628984)"/><path d="M94.7984935,46.6289844 C94.7984935,51.656226 91.3160168,55.7314098 87.0194844,55.7314098 C82.7237037,55.7314098 79.2412274,51.656226 79.2412274,46.6289844 C79.2412274,41.6017429 82.7237037,37.5265591 87.0194844,37.5265591 C91.3160168,37.5265591 94.7984935,41.6017429 94.7984935,46.6289844" id="Fill-18" fill="#3F3F3F" fill-rule="nonzero" transform="translate(87.019860, 46.628984) scale(-1, -1) rotate(-180.000000) translate(-87.019860, -46.628984)"/><path d="M84.8694894,40.1309006 C84.8694894,42.2231128 83.2383705,43.9195988 81.2261562,43.9195988 C79.2139419,43.9195988 77.582823,42.2231128 77.582823,40.1309006 C77.582823,38.0386883 79.2139419,36.3422023 81.2261562,36.3422023 C83.2383705,36.3422023 84.8694894,38.0386883 84.8694894,40.1309006" id="Fill-20" fill="#FFFFFF" fill-rule="nonzero" transform="translate(81.226156, 40.130901) scale(-1, -1) rotate(-180.000000) translate(-81.226156, -40.130901)"/><path d="M108.886173,46.3079169 C108.995917,46.6754286 109.116184,47.0523451 109.248477,47.4379431 C109.225927,47.3670451 109.201122,47.2975941 109.179324,47.2266962 C109.080103,46.9076555 108.983139,46.6038073 108.886173,46.3079169" id="Fill-22" fill="#71B200" fill-rule="nonzero" transform="translate(109.347712, 46.872930) scale(-1, -1) rotate(-180.000000) translate(-109.347712, -46.872930)"/><path d="M50.3245722,63.7911286 C50.3245722,66.6820277 53.3297396,85.5633023 59.5873729,85.5633023 C66.2261018,85.5633023 69.3913743,71.2788175 69.3913743,64.2577527 C69.3913743,57.2366879 64.1657807,64.3438431 64.1657807,64.3438431 L57.4233217,65.7965271 C57.4233217,65.7965271 50.3245722,60.9002296 50.3245722,63.7911286" id="Fill-24" fill="#71B200" fill-rule="nonzero" transform="translate(59.857973, 73.361373) scale(-1, -1) rotate(-180.000000) translate(-59.857973, -73.361373)"/><rect id="Rectangle-2" fill-opacity="0.0599999987" fill="#000000" fill-rule="nonzero" transform="translate(59.146154, 74.534492) scale(-1, -1) rotate(-180.000000) translate(-59.146154, -74.534492)" x="49.0615385" y="62.2920149" width="20.1692308" height="24.4849535" rx="10.0846154"/><path d="M49.0615385,62.2920153 C49.0615385,62.2920153 50.0376783,78.9068052 59.2358305,78.9068052 C68.1515967,78.9068052 69.2307692,62.3211198 69.2307692,62.3211198" id="Fill-26" fill="#F49000" fill-rule="nonzero" transform="translate(59.146154, 70.599410) scale(-1, -1) rotate(-180.000000) translate(-59.146154, -70.599410)"/><path d="M69.2307692,63.4474053 C69.2307692,66.6992595 61.6644485,74.5344913 59.1046946,74.5344913 C56.6121333,74.5344913 49.0615385,66.6992595 49.0615385,63.5285958 C49.0615385,61.7395818 51.5312256,54.421851 59.1046946,54.421851 C67.419427,54.421851 69.2307692,62.3898114 69.2307692,63.4474053 Z" id="Fill-28" fill="#FFC200" fill-rule="nonzero" transform="translate(59.146154, 64.478171) scale(-1, -1) rotate(-180.000000) translate(-59.146154, -64.478171)"/><path d="M63.0923077,58.3569319 C63.0923077,59.5644624 61.3252788,60.5430885 59.1461538,60.5430885 C56.9670289,60.5430885 55.2,59.5644624 55.2,58.3569319 C55.2,57.1494015 56.9670289,56.1707754 59.1461538,56.1707754 C61.3252788,56.1707754 63.0923077,57.1494015 63.0923077,58.3569319" id="Fill-30" fill="#FFF3B8" fill-rule="nonzero" transform="translate(59.146154, 58.356932) scale(-1, -1) rotate(-180.000000) translate(-59.146154, -58.356932)"/><path d="M8.84500578,24.8205522 L112.078071,24.8205522 L112.078071,43.4579149 C97.3302462,35.9395998 80.1247354,32.1804424 60.4615385,32.1804424 C40.7983415,32.1804424 23.5928306,35.9395998 8.84500578,43.4579149 L8.84500578,24.8205522 Z" id="Rectangle-6" fill-opacity="0.149999991" fill="#000000" fill-rule="nonzero" transform="translate(60.461538, 34.139234) scale(-1, -1) rotate(-180.000000) translate(-60.461538, -34.139234)"/><path d="M8.77772917,37.4636668 C8.71045218,33.8393889 8.67691745,30.1185148 8.67691745,26.2986364 C8.67691745,6.99531378 13.5384819,0.112854923 21.3521942,0.112854923 C32.8117036,0.112854923 39.7790432,14.3803384 60.4192508,14.3803384 C80.3439914,14.3803384 89.19893,0.112854923 99.8338846,0.112854923 C112.379008,0.112854923 112.075066,19.5420007 112.075066,26.2142694 C112.075066,29.7408563 112.06259,33.4417108 112.016605,37.2674326 C100.97202,29.4940514 83.7380647,25.6073604 60.3147387,25.6073604 C36.6951328,25.6073604 19.5161296,29.5594625 8.77772917,37.4636668 L8.77772917,37.4636668 Z" id="Mask" fill="#FFFFFF" fill-rule="nonzero" transform="translate(60.376316, 18.788261) scale(-1, -1) rotate(-180.000000) translate(-60.376316, -18.788261)"/><path d="M69.7136529,13.2763654 C70.7640463,16.075449 71.4150235,18.2754835 71.6665845,19.876469 C71.9015448,21.3718047 71.9533512,23.3964615 71.8220037,25.9504395 C68.1683616,25.7217195 64.3326066,25.6073595 60.3147387,25.6073595 C56.2792379,25.6073595 52.4317449,25.7227254 48.7722599,25.9534574 C48.6431954,23.351697 48.6925473,21.3260343 48.9203158,19.876469 C49.1643034,18.3236825 49.8195416,16.1176253 50.8860306,13.2582974 C53.7206048,13.9578573 56.8674914,14.3803374 60.4192508,14.3803374 C63.8182734,14.3803374 66.8951427,13.9651253 69.7136529,13.2763654 Z" id="Combined-Shape" fill="#2B70C9" fill-rule="nonzero" transform="translate(60.297443, 19.605877) scale(-1, -1) rotate(-180.000000) translate(-60.297443, -19.605877)"/><path d="M30.5502218,2.97065049 C30.7319363,13.5506455 43.9788279,22.0908766 60.2934501,22.0908766 C76.3839238,22.0908766 89.4903835,13.7837041 90.021816,3.40555818 C82.6055353,7.61919895 74.1352969,14.3803386 60.4192508,14.3803386 C45.7107497,14.3803386 37.945587,7.13504326 30.5502218,2.97065049 L30.5502218,2.97065049 Z" id="Combined-Shape" fill-opacity="0.0700000003" fill="#1F3B8F" fill-rule="nonzero" transform="translate(60.286019, 12.530764) scale(-1, -1) rotate(-180.000000) translate(-60.286019, -12.530764)"/><path d="M63.565952,25.6212334 L37.2940566,51.8931288 C31.8867972,57.3003882 23.1198975,57.3003882 17.7126381,51.8931288 C12.4009107,46.5814014 12.3070664,38.0276969 17.4311056,32.6014151 C27.9863097,27.9269942 42.1852032,25.5897837 60.0277861,25.5897837 C61.2227538,25.5897837 62.4021425,25.6002669 63.565952,25.6212334 Z" id="Combined-Shape" fill-opacity="0.35" fill="#FFFFFF" fill-rule="nonzero" transform="translate(38.611573, 40.769179) scale(-1, -1) rotate(-180.000000) translate(-38.611573, -40.769179)"/><path d="M38.1191282,72.2909831 L83.2202786,27.1898327 C94.0833388,28.8599468 103.003425,31.8374962 109.980537,36.1224807 C109.494158,38.7969193 108.217146,41.3558029 106.149498,43.4234495 L76.4605707,73.1123778 C71.297226,73.6584846 65.9642153,73.931538 60.4615385,73.931538 C52.6742734,73.931538 45.2268033,73.3846864 38.1191282,72.2909831 L38.1191282,72.2909831 Z" id="Combined-Shape" fill-opacity="0.35" fill="#FFFFFF" fill-rule="nonzero" transform="translate(74.049833, 50.560685) scale(-1, -1) rotate(-180.000000) translate(-74.049833, -50.560685)"/><path d="M111.654747,63.1668397 C113.264324,71.6474332 115.494868,84.3403775 117.553622,99.3008049 C121.339102,126.807375 119.240621,140.628246 115.351721,140.80884 C111.507563,140.987374 100.101247,139.030368 95.8844826,129.205514 C88.4558178,142.517958 77.1749267,151.359503 60.0394145,151.359503 C43.8244171,151.359503 31.8980654,144.175576 23.7014492,129.11556 C19.5154904,139.019382 8.05049637,140.987374 4.19460271,140.80884 C0.305702538,140.628246 -1.79277792,126.807375 1.99270186,99.3008049 C4.14399273,83.6694812 6.48232048,72.2803959 8.10330678,65.3416099 C8.28082756,64.4976077 8.45530793,63.5335776 8.6199287,62.4961464 L9.41272533,65.4884324 C19.8803175,72.9631724 43.633085,77.1949551 59.8991612,77.1949551 C76.1652374,77.1949551 99.6307741,72.9631724 110.385597,65.4884324 L111.654747,63.1668397 Z" id="Mask" fill="#FFFFFF"/><path d="M66.91144,150.849477 C64.7323173,151.185471 62.4434853,151.359503 60.0394145,151.359503 C57.6342288,151.359503 55.3234021,151.201442 53.1051105,150.88306 C50.8723884,140.302451 49.50013,127.77939 48.9883355,113.313876 C48.4884832,99.1859022 48.4154005,86.9600491 48.7690876,76.636317 C52.6830208,77.0056231 56.45857,77.1949551 59.8991612,77.1949551 C63.405104,77.1949551 67.2455067,76.9983623 71.2210078,76.6150781 C71.1542833,87.1366963 70.874245,99.369629 70.380893,113.313876 C69.8768547,127.560165 68.7203704,140.072032 66.91144,150.849477 Z" id="Combined-Shape" fill="#296CC4"/><path d="M117.149827,139.307638 C116.653262,139.562392 116.889176,139.731999 116.108021,139.731999 C100.216488,139.731999 104.984095,93.5504975 101.927692,93.5504975 C98.6270412,93.5504975 102.749187,138.047601 59.8729994,138.047601 C17.0980315,138.024941 21.1358277,93.5504975 17.8373773,93.5504975 C14.7809746,93.5504975 19.5485814,139.731999 3.65704778,139.731999 C2.68372252,139.731999 2.81548208,139.470378 2.2719749,139.105757 C2.99298374,140.389827 3.09373671,140.870495 4.19468713,140.921309 C8.05058079,141.100529 19.5155749,139.132537 23.7015336,129.228716 C31.8981499,144.288045 43.825235,151.471972 60.0402324,151.471972 C77.1750111,151.471972 88.4559022,142.631114 95.884567,129.317983 C100.101332,139.143524 111.507648,141.099843 115.351806,140.921309 C116.391144,140.873242 116.444221,140.436521 117.149827,139.307638 Z" id="Fill-32" fill-opacity="0.2" fill="#1F3B8F"/><path d="M113.681362,76.8293357 C96.8869679,86.2936079 78.9595677,91.025744 59.8991612,91.025744 C40.8387546,91.025744 22.9113544,86.2936079 6.11696069,76.8293357 L7.82433213,66.1733658 L7.82433213,67.2351212 C23.0789203,73.6249846 40.4371966,76.8199163 59.8991612,76.8199163 C79.3611257,76.8199163 96.719402,73.6249846 111.97399,67.2351212 L111.97399,66.1733658 L113.681362,76.8293357 Z" id="Combined-Shape" fill-opacity="0.2" fill="#1F3B8F"/><path d="M113.681362,75.9923553 C97.5118993,83.7826668 79.5844991,87.6778225 59.8991612,87.6778225 C40.2138233,87.6778225 22.2864231,83.7826668 6.11696069,75.9923553 L6.11696069,61.7537012 C21.8716993,68.1335768 39.7990995,73.4719949 59.8991612,73.4719949 C79.9992229,73.4719949 97.9266231,68.1335768 113.681362,61.7437134 L113.681362,75.9923553 Z" id="Mask" fill="#FFFFFF"/><path d="M71.8507613,87.1811031 C67.9416201,87.5122494 63.9577534,87.6778225 59.8991612,87.6778225 C55.840569,87.6778225 51.8567023,87.5122494 47.9475611,87.1811031 L47.9475611,72.8501141 C51.8422116,73.2527829 55.8260783,73.4719949 59.8991612,73.4719949 C63.9722441,73.4719949 67.9561108,73.2527829 71.8507613,72.850031 L71.8507613,87.1811031 Z" id="Combined-Shape" fill="#2B70C9"/><path d="M116.929961,37.1282459 L116.929961,37.1301024 C118.328455,37.1823899 119.446149,38.3326207 119.446149,39.7439029 C119.446149,39.8237742 119.442491,39.9036034 119.435186,39.9831398 C119.010101,44.611073 118.797567,48.0091869 118.797567,50.1774802 C118.797567,52.3338688 119.007774,55.6484058 119.428187,60.1210915 L119.428178,60.1210925 C119.56303,61.5557546 118.509326,62.8280973 117.074664,62.9629494 C117.026521,62.9674747 116.978268,62.9706601 116.929961,62.9743998 L116.006884,62.9743998 C112.948076,62.9743998 110.468422,60.4947461 110.468422,57.4359382 L110.468422,42.6667074 C110.468422,39.6078997 112.948076,37.1282459 116.006884,37.1282459 L116.929961,37.1282459 Z" id="Combined-Shape" fill="#2B70C9" fill-rule="nonzero" transform="translate(114.957286, 50.051323) scale(1, -1) rotate(180.000000) translate(-114.957286, -50.051323)"/><path d="M7.39369694,37.1282459 L7.39369694,37.1301024 C8.79219175,37.1823899 9.90988523,38.3326207 9.90988523,39.7439029 C9.90988523,39.8237742 9.9062268,39.9036034 9.89892148,39.9831398 C9.47383708,44.611073 9.26130295,48.0091869 9.26130295,50.1774802 C9.26130295,52.3338688 9.47150972,55.6484058 9.89192326,60.1210915 L9.89191375,60.1210925 C10.026766,61.5557546 8.97306185,62.8280973 7.53839968,62.9629494 C7.49025689,62.9674747 7.44200399,62.9706601 7.39369694,62.9743998 L6.47062002,62.9743998 C3.41181218,62.9743998 0.932158477,60.4947461 0.932158477,57.4359382 L0.932158477,42.6667074 C0.932158477,39.6078997 3.41181218,37.1282459 6.47062002,37.1282459 L7.39369694,37.1282459 Z" id="Combined-Shape" fill="#2B70C9" fill-rule="nonzero" transform="translate(5.421022, 50.051323) scale(-1, -1) rotate(-180.000000) translate(-5.421022, -50.051323)"/></g></g></g></svg>