<?xml version="1.0" encoding="UTF-8"?><svg width="29px" height="29px" viewBox="0 0 29 29" version="1.1" xmlns="http://www.w3.org/2000/svg" xmlns:xlink="http://www.w3.org/1999/xlink"><title>star</title><desc>Created with Sketch.</desc><defs/><g id="Page-1" stroke="none" stroke-width="1" fill="none" fill-rule="evenodd"><g id="Artboard-Copy-3" transform="translate(-471.000000, -368.000000)"><g id="star" transform="translate(485.500000, 382.500000) scale(-1, 1) translate(-485.500000, -382.500000) translate(471.000000, 368.000000)"><path d="M14.3983434,24.4833409 L7.75478286,27.9968574 L7.75478286,27.9968574 C6.77835517,28.5132514 5.56818409,28.1403204 5.0517901,27.1638927 C4.84569104,26.7741887 4.77412522,26.3273081 4.84821975,25.8927324 L6.12008733,18.4330352 L0.721477362,13.1393676 L0.721477362,13.1393676 C-0.0671990568,12.366022 -0.0796272089,11.0997531 0.693718307,10.3110767 C0.999840415,9.99888594 1.39983381,9.79561282 1.83247048,9.73237283 L9.28209977,8.64343492 L12.6027952,1.87492068 L12.6027952,1.87492068 C13.0893097,0.883266809 14.287602,0.473770459 15.2792558,0.960284983 C15.677029,1.15543616 15.9987404,1.47714752 16.1938915,1.87492068 L19.514587,8.64343492 L26.9642163,9.73237283 L26.9642163,9.73237283 C28.0571711,9.8921338 28.8136742,10.9076606 28.6539132,12.0006154 C28.5906732,12.4332521 28.3874001,12.8332454 28.0752094,13.1393676 L22.6765994,18.4330352 L23.948467,25.8927324 L23.948467,25.8927324 C24.1341154,26.9815889 23.4019207,28.0147792 22.3130642,28.2004277 C21.8784885,28.2745222 21.4316079,28.2029564 21.0419039,27.9968574 L14.3983434,24.4833409 Z" id="Star" fill="#FFC800"/><path d="M7.75478286,27.9968574 L14.3983434,24.4833409 L21.0419039,27.9968574 C21.4316079,28.2029564 21.8784885,28.2745222 22.3130642,28.2004277 C22.6248714,28.147265 22.9074313,28.0246011 23.1475657,27.8510313 L14.5050514,15.3319958 L5.81319234,27.9574281 C6.39004854,28.2926124 7.12156678,28.3317403 7.75478286,27.9968574 Z" id="Combined-Shape" fill="#FDB500"/><path d="M15.2792558,0.960284983 C15.677029,1.15543616 15.9987404,1.47714752 16.1938915,1.87492068 L19.514587,8.64343492 L26.9642163,9.73237283 C27.8651769,9.86406934 28.5375092,10.5772825 28.6564265,11.4360198 L14.4608274,15.2960728 L14.4608274,0.75631802 C14.7367308,0.764775788 15.0153128,0.8307921 15.2792558,0.960284983 Z" id="Combined-Shape" fill="#FFD84E"/></g></g></g></svg>