<?xml version="1.0" encoding="UTF-8"?><svg width="30px" height="29px" viewBox="0 0 30 29" version="1.1" xmlns="http://www.w3.org/2000/svg" xmlns:xlink="http://www.w3.org/1999/xlink"><title>Black star</title><desc>Created with Sketch.</desc><defs/><g id="Page-1" stroke="none" stroke-width="1" fill="none" fill-rule="evenodd"><g id="Artboard-Copy-2" transform="translate(-169.000000, -234.000000)" fill="#000000"><g id="Group-7-Copy" transform="translate(118.000000, 123.000000)"><g id="Group-4" transform="translate(14.000000, 95.000000)"><g id="Group-Copy-16" transform="translate(0.769231, 0.000000)"><path d="M51.1316767,40.4833409 L44.4881162,43.9968574 L44.4881162,43.9968574 C43.5116885,44.5132514 42.3015174,44.1403204 41.7851234,43.1638927 C41.5790244,42.7741887 41.5074586,42.3273081 41.5815531,41.8927324 L42.8534207,34.4330352 L37.4548107,29.1393676 L37.4548107,29.1393676 C36.6661343,28.366022 36.6537061,27.0997531 37.4270516,26.3110767 C37.7331737,25.9988859 38.1331671,25.7956128 38.5658038,25.7323728 L46.0154331,24.6434349 L49.3361285,17.8749207 L49.3361285,17.8749207 C49.8226431,16.8832668 51.0209353,16.4737705 52.0125892,16.960285 C52.4103623,17.1554362 52.7320737,17.4771475 52.9272249,17.8749207 L56.2479203,24.6434349 L63.6975496,25.7323728 L63.6975496,25.7323728 C64.7905044,25.8921338 65.5470075,26.9076606 65.3872465,28.0006154 C65.3240065,28.4332521 65.1207334,28.8332454 64.8085427,29.1393676 L59.4099327,34.4330352 L60.6818003,41.8927324 L60.6818003,41.8927324 C60.8674488,42.9815889 60.135254,44.0147792 59.0463975,44.2004277 C58.6118218,44.2745222 58.1649412,44.2029564 57.7752372,43.9968574 L51.1316767,40.4833409 Z" id="Black-star"/></g></g></g></g></g></svg>