<?xml version="1.0" encoding="UTF-8"?><svg width="360px" height="640px" viewBox="0 0 360 640" version="1.1" xmlns="http://www.w3.org/2000/svg" xmlns:xlink="http://www.w3.org/1999/xlink"><title>stars_bg</title><desc>Created with Sketch.</desc><defs/><g id="Page-1" stroke="none" stroke-width="1" fill="none" fill-rule="evenodd"><g id="stars_bg" fill="#FFFFFE"><rect id="Rectangle-58" opacity="0.5" transform="translate(337.242641, 270.242641) rotate(-45.000000) translate(-337.242641, -270.242641)" x="334.242641" y="267.242641" width="6" height="6" rx="1"/><rect id="Rectangle-58" opacity="0.300000012" transform="translate(340.500000, 587.500000) rotate(-45.000000) translate(-340.500000, -587.500000)" x="338" y="585" width="5" height="5" rx="1"/><rect id="Rectangle-58" opacity="0.400000006" transform="translate(311.500000, 578.500000) rotate(-45.000000) translate(-311.500000, -578.500000)" x="308" y="575" width="7" height="7" rx="1"/><rect id="Rectangle-58" opacity="0.600000024" transform="translate(29.500000, 577.500000) rotate(-45.000000) translate(-29.500000, -577.500000)" x="27" y="575" width="5" height="5" rx="1"/><rect id="Rectangle-58" opacity="0.600000024" transform="translate(31.500000, 24.500000) rotate(-45.000000) translate(-31.500000, -24.500000)" x="27" y="20" width="9" height="9" rx="1"/><rect id="Rectangle-58" opacity="0.800000012" transform="translate(23.000000, 38.000000) rotate(-45.000000) translate(-23.000000, -38.000000)" x="20" y="35" width="6" height="6" rx="1"/><rect id="Rectangle-58" opacity="0.5" transform="translate(290.757359, 20.000000) rotate(-45.000000) translate(-290.757359, -20.000000)" x="286.343146" y="15.5857864" width="8.82842712" height="8.82842712" rx="1"/></g></g></svg>