<?xml version="1.0" encoding="UTF-8"?><svg width="30px" height="30px" viewBox="0 0 30 30" version="1.1" xmlns="http://www.w3.org/2000/svg" xmlns:xlink="http://www.w3.org/1999/xlink"><title>icon_learn_inactive</title><desc>Created with Sketch.</desc><defs/><g id="Page-2" stroke="none" stroke-width="1" fill="none" fill-rule="evenodd"><g id="icon_learn_inactive-" fill="#999999"><g id="Group" transform="translate(1.000000, 5.000000)"><path d="M14.0339288,11.496429 C17.20858,11.496429 19.7821433,8.92286568 19.7821433,5.74821448 C19.7821433,2.57356329 17.20858,0 14.0339288,0 C10.8592776,0 8.28571429,2.57356329 8.28571429,5.74821448 C8.28571429,8.92286568 10.8592776,11.496429 14.0339288,11.496429 Z M14.0339288,9.32142889 C12.0604969,9.32142889 10.4607144,7.72164631 10.4607144,5.74821448 C10.4607144,3.77478266 12.0604969,2.17500007 14.0339288,2.17500007 C16.0073606,2.17500007 17.6071432,3.77478266 17.6071432,5.74821448 C17.6071432,7.72164631 16.0073606,9.32142889 14.0339288,9.32142889 Z" id="Oval-3"/><path d="M5.74821448,24.9607147 C8.92286568,24.9607147 11.496429,22.3871514 11.496429,19.2125002 C11.496429,16.037849 8.92286568,13.4642857 5.74821448,13.4642857 C2.57356329,13.4642857 0,16.037849 0,19.2125002 C0,22.3871514 2.57356329,24.9607147 5.74821448,24.9607147 Z M5.74821448,22.7857146 C3.77478266,22.7857146 2.17500007,21.185932 2.17500007,19.2125002 C2.17500007,17.2390684 3.77478266,15.6392858 5.74821448,15.6392858 C7.72164631,15.6392858 9.32142889,17.2390684 9.32142889,19.2125002 C9.32142889,21.185932 7.72164631,22.7857146 5.74821448,22.7857146 Z" id="Oval-3-Copy"/><path d="M22.2482145,24.9607147 C25.4228657,24.9607147 27.996429,22.3871514 27.996429,19.2125002 C27.996429,16.037849 25.4228657,13.4642857 22.2482145,13.4642857 C19.0735633,13.4642857 16.5,16.037849 16.5,19.2125002 C16.5,22.3871514 19.0735633,24.9607147 22.2482145,24.9607147 Z M22.2482145,22.7857146 C20.2747827,22.7857146 18.6750001,21.185932 18.6750001,19.2125002 C18.6750001,17.2390684 20.2747827,15.6392858 22.2482145,15.6392858 C24.2216463,15.6392858 25.8214289,17.2390684 25.8214289,19.2125002 C25.8214289,21.185932 24.2216463,22.7857146 22.2482145,22.7857146 Z" id="Oval-3-Copy-2"/></g></g></g></svg>