<?xml version="1.0" encoding="UTF-8"?><svg width="30px" height="30px" viewBox="0 0 30 30" version="1.1" xmlns="http://www.w3.org/2000/svg" xmlns:xlink="http://www.w3.org/1999/xlink"><title>icon_shop_inactive</title><desc>Created with Sketch.</desc><defs/><g id="Page-2" stroke="none" stroke-width="1" fill="none" fill-rule="evenodd"><g id="icon_shop_inactive" fill="#9C9C9C"><g transform="translate(0.000000, 6.000000)"><path d="M3.78732164,11.803088 C5.26255339,11.803088 6.58028935,10.9139586 6.99928866,9.58653034 L9.35273528,1.10152894 L9.65416078,0.014528 L8.5322654,0.014528 L4.18421497,0.014528 C3.56920809,0.014528 3.01868566,0.397746389 2.7964993,0.975099517 L0.251134426,7.59666658 C-0.654653559,9.61250275 1.01263656,11.803088 3.35982274,11.803088 L3.78732164,11.803088 Z M1.82199534,8.25809571 L4.38531689,1.59340206 C4.35453169,1.67339782 4.27590762,1.728128 4.18421497,1.728128 L8.5322654,1.728128 L7.71179553,0.641127062 L5.36696783,9.09704706 C5.19019477,9.65530449 4.54671227,10.089488 3.78732164,10.089488 L3.35982274,10.089488 C2.18231816,10.089488 1.43869271,9.11246851 1.82199534,8.25809571 Z" id="Stroke-1"/><path d="M26.1679523,10.07496 C25.4083204,10.07496 24.7644264,9.64062562 24.5799297,9.0542075 L22.2424664,0.626509164 L21.4220215,1.7136 L25.9082941,1.7136 C25.8155931,1.7136 25.7354881,1.65706759 25.7055747,1.57641613 L28.1699347,8.21600393 C28.5562378,9.11010446 27.8121476,10.07496 26.642842,10.07496 L26.1679523,10.07496 Z M29.7486919,7.57381515 L27.3016216,0.977248393 C27.0841807,0.390992183 26.5301541,0 25.9082941,0 L21.4220215,0 L20.2999992,0 L20.6015766,1.08709084 L22.9473912,9.54301084 C23.3734738,10.8989809 24.6922611,11.78856 26.1679523,11.78856 L26.642842,11.78856 C28.9729137,11.78856 30.639251,9.62783458 29.7486919,7.57381515 Z" id="Stroke-2"/><path d="M15.462586,11.803088 C17.3616006,11.803088 18.913331,10.3425109 18.8006641,8.54980512 L18.3775218,0.824192226 L18.3331725,0.014528 L17.5270223,0.014528 L12.5303178,0.014528 L11.7241676,0.014528 L11.6798183,0.82419216 L11.2562683,8.55672576 C11.1439936,10.342752 12.6950454,11.803088 14.5947533,11.803088 L15.462586,11.803088 Z M12.9568604,8.65791793 L13.3808173,0.91846384 L12.5303178,1.728128 L17.5270223,1.728128 L16.6765227,0.918463774 L17.1000721,8.65099737 C17.1477194,9.40958561 16.4253849,10.089488 15.462586,10.089488 L14.5947533,10.089488 C13.6313515,10.089488 12.9095974,9.40994685 12.9568604,8.65791793 Z" id="Stroke-3"/><path d="M17.1156889,8.90008224 C17.2200159,10.5556419 18.7024773,11.803088 20.4541614,11.803088 L21.0929415,11.803088 C23.2890747,11.803088 24.9348732,9.87130549 24.3051116,7.87069309 L22.3461428,0.645804993 L22.1749147,0.014528 L21.5243899,0.014528 L17.526829,0.014528 L16.626571,0.014528 L16.6763423,0.918696643 L17.1156889,8.90008224 Z M17.526829,1.728128 L21.5243899,1.728128 L20.7026371,1.09685101 L22.6713047,8.35485421 C22.9418328,9.2165658 22.1981393,10.089488 21.0929415,10.089488 L20.4541614,10.089488 C19.5618551,10.089488 18.860429,9.49925935 18.8162582,8.79849839 L18.3773157,0.823959357 L17.526829,1.728128 Z" id="Stroke-4"/><path d="M5.74223947,7.9038082 C5.12217663,9.87130546 6.76797511,11.803088 8.96410835,11.803088 L9.60288922,11.803088 C11.3545734,11.803088 12.8370342,10.5556418 12.9409565,8.90692858 L13.3807076,0.91869666 L13.4304788,0.014528 L12.5302208,0.014528 L8.53265988,0.014528 L7.88213516,0.014528 L7.710907,0.645805001 L5.74223947,7.9038082 Z M8.53265988,1.728128 L12.5302208,1.728128 L11.6797341,0.82395934 L11.2403873,8.80534494 C11.1966208,9.49925958 10.4951954,10.089488 9.60288922,10.089488 L8.96410835,10.089488 C7.85891051,10.089488 7.11521707,9.21656581 7.37604637,8.38796935 L9.35441277,1.096851 L8.53265988,1.728128 Z" id="Stroke-5"/><path d="M2,22.8008 C2,23.3992639 2.48085715,23.889952 3.07867557,23.889952 L6.39895102,23.889952 C6.99717019,23.889952 7.47861446,23.3998437 7.47861446,22.8008 L7.47861446,14.8899432 C7.47861446,15.265377 7.17595869,15.5781112 6.79189478,15.5781112 L11.4282358,15.5781112 C11.0441715,15.5781112 10.7415153,15.2653797 10.7415153,14.8899432 L10.7415153,20.288104 L10.7415153,22.8008 C10.7415153,23.3992659 11.2223762,23.889952 11.8201942,23.889952 L21.5539448,23.889952 L27.1943658,23.889952 C27.7921805,23.889952 28.2730367,23.3992613 28.2730367,22.8008 L28.2730367,11 L26.6823935,11 L26.6823935,22.8008 C26.6823935,22.5207151 26.9085315,22.289952 27.1943658,22.289952 L21.5539448,22.289952 L11.8201942,22.289952 C12.1060183,22.289952 12.3321586,22.5207129 12.3321586,22.8008 L12.3321586,20.288104 L12.3321586,14.8899432 C12.3321586,14.391207 11.9323715,13.9781112 11.4282358,13.9781112 L6.79189478,13.9781112 C6.28775497,13.9781112 5.88797118,14.3912078 5.88797118,14.8899432 L5.88797118,22.8008 C5.88797118,22.5204471 6.11439164,22.289952 6.39895102,22.289952 L3.07867557,22.289952 C3.3645035,22.289952 3.59064327,22.5207151 3.59064327,22.8008 L3.59064327,11 L2,11 L2,22.8008 Z" id="Stroke-6" stroke="#979797" stroke-width="0.100000024"/><path d="M14.6460388,19.5653232 C14.6460388,20.0670589 15.0488985,20.4781632 15.5519376,20.4781632 L23.6665212,20.4781632 C24.1695576,20.4781632 24.5724243,20.067065 24.5724243,19.5653232 L24.5724243,14.8371436 C24.5724243,14.335401 24.1695568,13.924304 23.6665212,13.924304 L15.5519376,13.924304 C15.0488993,13.924304 14.6460388,14.3354072 14.6460388,14.8371436 L14.6460388,19.5653232 Z M15.5519376,15.524304 L23.6665212,15.524304 C23.2859166,15.524304 22.9817811,15.2139558 22.9817811,14.8371436 L22.9817811,19.5653232 C22.9817811,19.1885119 23.2859157,18.8781632 23.6665212,18.8781632 L15.5519376,18.8781632 C15.9325522,18.8781632 16.2366821,19.1885173 16.2366821,19.5653232 L16.2366821,14.8371436 C16.2366821,15.2139505 15.9325512,15.524304 15.5519376,15.524304 Z" id="Stroke-7" stroke="#979797" stroke-width="0.100000024"/></g></g></g></svg>