<?xml version="1.0" encoding="UTF-8"?><svg width="30px" height="30px" viewBox="0 0 30 30" version="1.1" xmlns="http://www.w3.org/2000/svg" xmlns:xlink="http://www.w3.org/1999/xlink"><title>icon_profile_inactive</title><desc>Created with Sketch.</desc><defs/><g id="Page-2" stroke="none" stroke-width="1" fill="none" fill-rule="evenodd"><g id="icon_profile_inactive" fill="#999999"><path d="M24.0833527,20.2787171 L24.0833527,16.9477992 C24.0833527,16.8970746 24.0787513,16.8482287 24.0759905,16.7984434 C24.8297004,17.006978 25.389231,17.7049114 25.389231,18.5390499 C25.389231,19.3713097 24.8333815,20.0673645 24.0833527,20.2787171 L24.0833527,20.2787171 Z M22.2427914,20.716452 C22.2427914,24.7988459 18.9877586,28.1213097 14.9872984,28.1213097 C10.9877586,28.1213097 7.73272579,24.7988459 7.73272579,20.716452 L7.73272579,16.9477992 C7.73272579,14.0198604 9.41131776,11.490204 11.8334965,10.2897209 C13.8341867,14.0865539 17.7380174,16.6847826 22.2335886,16.7561728 C22.2345088,16.8200483 22.2427914,16.8829844 22.2427914,16.9477992 L22.2427914,20.716452 Z M4.64242325,18.5390499 C4.64242325,17.7246377 5.17526576,17.0417338 5.9022875,16.8153516 C5.90136722,16.8604402 5.89216442,16.9027107 5.89216442,16.9477992 L5.89216442,20.2608696 C5.17066436,20.0316694 4.64242325,19.3506441 4.64242325,18.5390499 L4.64242325,18.5390499 Z M9.45457095,6.29186795 C9.61469979,6.29186795 9.77114751,6.3031401 9.92667494,6.32004831 C9.94231971,6.321927 9.95704421,6.321927 9.9717687,6.32380569 C10.4751622,6.38486312 10.9518676,6.53234031 11.3936024,6.74369297 C11.3963632,6.73993559 11.399124,6.73711755 11.4018849,6.73429952 C11.4175297,6.74181428 11.4386961,6.74932904 11.4534206,6.7568438 C12.739973,5.01154053 14.7820758,3.87869028 17.0818573,3.87869028 C20.9672823,3.87869028 24.218634,7.10628019 24.212192,11.0721954 C24.2112717,11.8274289 24.212192,14.6642512 24.212192,14.6642512 L24.212192,14.7356414 L21.9446204,14.862453 C18.3840544,14.6924316 15.3001939,12.6540526 13.6151599,9.68008588 L12.8320011,7.93853999 L11.1000328,8.56790123 C8.766201,9.70075148 6.97993619,11.8152174 6.25291445,14.386205 C5.3832492,13.5285829 4.84028359,12.3290392 4.84028359,11.0008052 C4.84028359,8.40445518 6.90999486,6.29186795 9.45457095,6.29186795 L9.45457095,6.29186795 Z M26.9997222,18.5390499 C26.9997222,17.6720344 26.6739429,16.8886205 26.1549046,16.2808642 L26.1549046,14.6952496 L26.1549046,11.0721954 C26.1549046,6.06924316 21.9823519,2 17.0818573,2 C14.667961,2 12.4795336,2.99100913 10.8773249,4.5907139 C10.4181048,4.48268921 9.94508056,4.41317767 9.45457095,4.41317767 C5.89492526,4.41317767 2.99972222,7.36835749 2.99972222,11.0008052 C2.99972222,12.7573806 3.68072993,14.3505099 4.78230591,15.5331455 C3.74330902,16.1239936 3.03193205,17.2427536 3.03193205,18.5390499 C3.03193205,20.2928073 4.32216557,21.7300054 5.98235192,21.9498121 C6.57685325,26.4868492 10.3831342,30 14.9872984,30 C19.5905424,30 23.3959031,26.4896672 23.9922449,21.9563875 C25.6791194,21.7610038 26.9997222,20.3125335 26.9997222,18.5390499 L26.9997222,18.5390499 Z" id="Fill-1"/><path d="M19.800463,17.9914533 C19.800463,18.72412 19.2115741,19.31772 18.4847222,19.31772 C17.7578704,19.31772 17.1680556,18.72412 17.1680556,17.9914533 C17.1680556,17.2587867 17.7578704,16.6651867 18.4847222,16.6651867 C19.2115741,16.6651867 19.800463,17.2587867 19.800463,17.9914533" id="Fill-4"/><path d="M13.0296296,17.9914533 C13.0296296,18.72412 12.4407407,19.31772 11.7138889,19.31772 C10.987037,19.31772 10.3972222,18.72412 10.3972222,17.9914533 C10.3972222,17.2587867 10.987037,16.6651867 11.7138889,16.6651867 C12.4407407,16.6651867 13.0296296,17.2587867 13.0296296,17.9914533" id="Fill-6"/><path d="M14.9109259,25.1063467 C17.0775926,25.1063467 18.835,23.3358133 18.835,21.15088 L10.9868519,21.15088 C10.9868519,23.3358133 12.7442593,25.1063467 14.9109259,25.1063467" id="Fill-8"/></g></g></svg>