<?xml version="1.0" encoding="UTF-8" standalone="no"?><svg width="132px" height="160px" viewBox="0 0 132 160" version="1.1" xmlns="http://www.w3.org/2000/svg" xmlns:xlink="http://www.w3.org/1999/xlink"><desc>Created with Sketch.</desc><defs/><g id="Group" stroke="none" stroke-width="1" fill="none" fill-rule="evenodd"><rect id="Rectangle" x="0" y="0" width="132" height="160"/><g id="weekend_amulet" transform="translate(4.000000, 0.000000)"><g id="Page-2"><g id="Group-6"><path d="M61.6996941,58.6336633 C59.0787216,58.6336633 56.9462428,60.7616622 56.9462428,63.3771284 C56.9462428,65.9925946 59.0787216,68.1205936 61.6996941,68.1205936 C64.3206665,68.1205936 66.4531455,65.9925946 66.4531455,63.3771284 C66.4531455,60.7616622 64.3206665,58.6336633 61.6996941,58.6336633 M61.6996941,71.8630561 C57.0106786,71.8630561 53.1959011,68.0562931 53.1959011,63.3771284 C53.1959011,58.6979638 57.0106786,54.8912005 61.6996941,54.8912005 C66.3887096,54.8912005 70.203487,58.6979638 70.203487,63.3771284 C70.203487,68.0562931 66.3887096,71.8630561 61.6996941,71.8630561" id="Fill-1" fill="#728B9B"/><path d="M54.7019589,92.2026938 C54.7045711,92.2044316 54.7071834,92.2061701 54.7097957,92.2079079 L54.7019589,92.2026938 L54.7019589,92.2026938 L54.7019589,92.2026938 Z M47.3388549,120.697373 L61.5905014,128.853978 L75.194306,120.824236 L75.194306,104.29727 L61.5905014,96.2683973 L47.3388549,104.424133 L47.3388549,120.697373 L47.3388549,120.697373 L47.3388549,120.697373 Z M54.7185032,132.909254 C54.6993467,132.919681 54.68019,132.931846 54.6601626,132.943142 L54.7185032,132.909254 L54.7185032,132.909254 L54.7185032,132.909254 Z M61.7054411,159.685198 C59.1410677,159.685198 56.5705991,159.030897 54.2674522,157.71795 L26.1281347,141.614151 C21.4852692,138.955238 18.6039411,133.990198 18.6039411,128.653256 L18.6039411,96.4691193 C18.6039411,91.1330467 21.4852692,86.1671368 26.1229102,83.5108309 L54.2482955,67.4148518 C58.9259912,64.7489882 64.6886476,64.7889588 69.3080024,67.5086958 L69.3184519,67.5156477 L96.5783067,83.6038057 C101.111457,86.278359 103.92922,91.2069055 103.92922,96.4630366 L103.92922,128.65847 C103.92922,133.91547 101.111457,138.844016 96.5765652,141.519438 L69.3184519,157.606727 C66.98657,158.990057 64.3481824,159.685198 61.7054411,159.685198 L61.7054411,159.685198 L61.7054411,159.685198 L61.7054411,159.685198 Z" id="Fill-3" fill="#8DA4B5"/><path d="M54.2489051,67.4144175 L26.1235197,83.5103966 C21.485008,86.1667018 18.6036798,91.1326124 18.6036798,96.4686844 L18.6036798,128.653691 C18.6036798,133.990632 21.485008,138.955673 26.1278735,141.614586 L54.2680617,157.718385 C56.5703378,159.030463 59.1408065,159.685632 61.7060506,159.685632 C64.3487919,159.685632 66.9863087,158.990491 69.3190616,157.606293 L96.5763038,141.519872 C101.112067,138.843582 103.928959,133.915035 103.928959,128.658035 L103.928959,96.4634709 C103.928959,91.2064706 101.112067,86.2787933 96.5780453,83.6033714 L69.3190616,67.516082 L69.3077416,67.5091308 C66.9688936,66.1318834 64.3374721,65.4419564 61.7016968,65.4419564 C59.1320989,65.4419564 56.5572765,66.0979953 54.2489051,67.4144175 L54.2489051,67.4144175 L54.2489051,67.4144175 L54.2489051,67.4144175 Z M54.7025684,92.2031287 L54.7095345,92.2074729 C54.7069222,92.2057351 54.70431,92.2048666 54.7025684,92.2031287 L54.7025684,92.2031287 L54.7025684,92.2031287 L54.7025684,92.2031287 Z M47.3385937,120.696938 L47.3385937,104.424568 L61.5902402,96.267963 L75.1940453,104.296836 L75.1940453,120.82467 L61.5902402,128.853544 L47.3385937,120.696938 L47.3385937,120.696938 L47.3385937,120.696938 L47.3385937,120.696938 Z" id="Clip-7" fill="#8DA4B5"/><path d="M64.3139617,79.7387375 L88.2858462,93.8865849 C89.8601708,94.8154669 90.8249674,96.5037889 90.8249674,98.3285331 L90.8249674,126.793669 C90.8249674,128.618412 89.8601708,130.306735 88.2858462,131.235616 L64.3139617,145.383464 C62.7117726,146.328854 60.7229683,146.342758 59.1085885,145.418221 L34.3068749,131.22432 C32.6994612,130.304997 31.7076713,128.596689 31.7076713,126.747615 L31.7076713,98.3745862 C31.7076713,96.5255119 32.6994612,94.8172047 34.3068749,93.8970124 L59.1085885,79.7039805 C60.7229683,78.779444 62.7117726,78.7933466 64.3139617,79.7387375" id="Fill-10" fill="#728B9B"/><path d="M59.1085885,79.7036329 L34.3060041,93.8975334 C32.6985905,94.8177257 31.7076713,96.5251644 31.7076713,98.3751072 L31.7076713,126.748136 C31.7076713,128.596342 32.6985905,130.304649 34.3060041,131.224842 L59.1085885,145.417873 C60.7229683,146.34241 62.7117726,146.329376 64.3139617,145.383985 L88.2858462,131.236138 C89.8593004,130.307256 90.8249674,128.618065 90.8249674,126.793321 L90.8249674,98.3290541 C90.8249674,96.5043106 89.8593004,94.8151193 88.2858462,93.8862373 L64.3139617,79.7392592 C63.5024181,79.2596121 62.5916084,79.0197889 61.6807987,79.0197889 C60.7934994,79.0197889 59.9053293,79.2474474 59.1085885,79.7036329 L59.1085885,79.7036329 L59.1085885,79.7036329 L59.1085885,79.7036329 Z" id="Clip-13" fill="#728B9B"/><path d="M59.1085885,79.7036329 L34.3060041,93.8975334 C32.6985905,94.8177257 31.7076713,96.5251644 31.7076713,98.3751072 L31.7076713,126.748136 C31.7076713,128.596342 32.6985905,130.304649 34.3060041,131.224842 L59.1085885,145.417873 C60.7229683,146.34241 62.7117726,146.329376 64.3139617,145.383985 L88.2858462,131.236138 C89.8593004,130.307256 90.8249674,128.618065 90.8249674,126.793321 L90.8249674,98.3290541 C90.8249674,96.5043106 89.8593004,94.8151193 88.2858462,93.8862373 L64.3139617,79.7392592 C63.5024181,79.2596121 62.5916084,79.0197889 61.6807987,79.0197889 C60.7926286,79.0197889 59.9053293,79.248316 59.1085885,79.7036329 L59.1085885,79.7036329 L59.1085885,79.7036329 L59.1085885,79.7036329 Z" id="Clip-16" fill="#728B9B"/><polygon id="Clip-19" fill="#6CCFFF" points="35.1149355 97.3654158 35.1149355 127.756959 61.6686081 142.952731 87.4177031 127.756959 87.4177031 97.3654158 61.6686081 82.1687751"/><polygon id="Clip-22" fill="#1AA1E9" points="61.5919817 93.0042776 87.4185741 97.3610709 61.6625128 82.1713822"/><polygon id="Clip-28" fill="#39BFFF" points="35.1140647 127.757828 61.69386 142.957076 47.1008776 122.238413"/><polygon id="Clip-37" fill="#39BFFF" points="76.2563658 122.241888 87.4203156 97.3619402 61.5911109 93.0077539"/><path d="M64.4161884,72.4869452 C64.4161884,70.9863106 63.1971314,69.7698145 61.6933376,69.7698145 C60.1895437,69.7698145 58.9704868,70.9863106 58.9704868,72.4869452 C58.9704868,73.9875792 60.1895437,75.2040753 61.6933376,75.2040753 C63.1971314,75.2040753 64.4161884,73.9875792 64.4161884,72.4869452" id="Fill-50" fill="#85DDFF"/><path d="M64.4161884,152.622657 C64.4161884,151.122022 63.1971314,149.905527 61.6933376,149.905527 C60.1895437,149.905527 58.9704868,151.122022 58.9704868,152.622657 C58.9704868,154.123291 60.1895437,155.339788 61.6933376,155.339788 C63.1971314,155.339788 64.4161884,154.123291 64.4161884,152.622657" id="Fill-52" fill="#728B9B"/><path d="M99.4219311,131.724474 C99.4219311,130.223839 98.2028739,129.007343 96.6990801,129.007343 C95.1952862,129.007343 93.9762297,130.223839 93.9762297,131.724474 C93.9762297,133.225109 95.1952862,134.441604 96.6990801,134.441604 C98.2028739,134.441604 99.4219311,133.225109 99.4219311,131.724474" id="Fill-54" fill="#85DDFF"/><path d="M28.951906,131.724474 C28.951906,130.223839 27.732849,129.007343 26.2290552,129.007343 C24.7252614,129.007343 23.5062044,130.223839 23.5062044,131.724474 C23.5062044,133.225109 24.7252614,134.441604 26.2290552,134.441604 C27.732849,134.441604 28.951906,133.225109 28.951906,131.724474" id="Fill-56" fill="#85DDFF"/><path d="M99.4219311,94.6377714 C99.4219311,93.1371368 98.2028739,91.9206407 96.6990801,91.9206407 C95.1952862,91.9206407 93.9762297,93.1371368 93.9762297,94.6377714 C93.9762297,96.1384061 95.1952862,97.3549015 96.6990801,97.3549015 C98.2028739,97.3549015 99.4219311,96.1384061 99.4219311,94.6377714" id="Fill-58" fill="#728B9B"/><path d="M28.951906,94.6377714 C28.951906,93.1371368 27.732849,91.9206407 26.2290552,91.9206407 C24.7252614,91.9206407 23.5062044,93.1371368 23.5062044,94.6377714 C23.5062044,96.1384061 24.7252614,97.3549015 26.2290552,97.3549015 C27.732849,97.3549015 28.951906,96.1384061 28.951906,94.6377714" id="Fill-60" fill="#728B9B"/><path d="M67.024709,52.1294073 C65.0837962,52.1294073 63.5042467,53.7047694 63.5042467,55.6424736 C63.5042467,57.5793089 65.0837962,59.15554 67.024709,59.15554 L75.150594,59.15554 C77.0915072,59.15554 78.6710568,57.5793089 78.6710568,55.6424736 C78.6710568,53.7047694 77.0915072,52.1294073 75.150594,52.1294073 L67.024709,52.1294073 L67.024709,52.1294073 L67.024709,52.1294073 Z M75.150594,62.8980028 L67.024709,62.8980028 C63.0157532,62.8980028 59.7547758,59.6430073 59.7547758,55.6424736 C59.7547758,51.6410711 63.0157532,48.3869445 67.024709,48.3869445 L75.150594,48.3869445 C79.15955,48.3869445 82.4205278,51.6410711 82.4205278,55.6424736 C82.4205278,59.6430073 79.15955,62.8980028 75.150594,62.8980028 L75.150594,62.8980028 L75.150594,62.8980028 L75.150594,62.8980028 Z" id="Fill-62" fill="#8DA4B5"/><path d="M100.125588,47.9909751 C99.6501558,47.9909751 99.1668871,48.0874258 98.7053871,48.2916233 L91.2761054,51.5761623 C90.4157999,51.9558828 89.7557672,52.6475476 89.4179146,53.5225558 C89.0791909,54.3984328 89.1018301,55.3525131 89.4832209,56.2101428 C90.2695128,57.9810132 92.3532295,58.7821627 94.1278282,58.0001296 L101.557109,54.7147217 C102.416544,54.3350012 103.076577,53.6433364 103.415301,52.7683283 C103.754024,51.8924512 103.730514,50.9392398 103.349994,50.0807412 C102.768329,48.7704013 101.477,47.9909751 100.125588,47.9909751 M92.7128515,62.0423717 C89.9220817,62.0423717 87.2558296,60.4313835 86.0541878,57.726418 C85.2678966,55.9546786 85.2200051,53.9830863 85.9192212,52.174852 C86.6184374,50.3666177 87.9811685,48.9398419 89.7575087,48.1543331 L97.1867904,44.8697942 C100.852669,43.2509857 105.155069,44.9071579 106.778156,48.5653349 C107.564448,50.3362054 107.61321,52.3086666 106.913994,54.1160319 C106.213907,55.9242662 104.851176,57.3510422 103.075706,58.1365509 L95.6464249,61.4210899 C94.6920771,61.8425188 93.6941918,62.0423717 92.7128515,62.0423717" id="Fill-64" fill="#8DA4B5"/><path d="M88.8771759,57.5135312 L78.4986469,57.5135312 C77.4633196,57.5135312 76.6230407,56.6758869 76.6230407,55.6427343 C76.6230407,54.6087128 77.4633196,53.7710684 78.4986469,53.7710684 L88.8771759,53.7710684 C89.9125032,53.7710684 90.7519111,54.6087128 90.7519111,55.6427343 C90.7519111,56.6758869 89.9125032,57.5135312 88.8771759,57.5135312" id="Fill-66" fill="#728B9B"/><path d="M120.575356,34.1442104 C120.517015,34.1442104 120.458675,34.1459482 120.400334,34.148555 C119.460789,34.1946081 118.59613,34.6021342 117.963961,35.2972748 L112.503457,41.3024199 C111.199937,42.7370161 111.308781,44.9632036 112.746398,46.2648543 C114.184014,47.5665049 116.414018,47.4587581 117.718409,46.0232929 L123.178913,40.0172789 C123.81021,39.3221384 124.133261,38.4236692 124.087111,37.4869673 C124.041831,36.5493966 123.632577,35.6856845 122.935972,35.0557134 C122.282906,34.4639751 121.450464,34.1442104 120.575356,34.1442104 M115.107885,50.9144754 C113.364634,50.9144754 111.616158,50.2949314 110.226433,49.0367271 C107.257159,46.3482711 107.033374,41.7507855 109.72662,38.7886179 L115.186253,32.7826039 C116.491515,31.3471388 118.278304,30.5051498 120.217475,30.4104369 C122.158389,30.3087726 124.01745,30.981321 125.455937,32.2838406 C126.894424,33.5854912 127.738186,35.3685267 127.833098,37.304493 C127.92714,39.2395904 127.260142,41.0964845 125.95575,42.5319496 L120.496117,48.5379638 C119.062854,50.1141949 117.088853,50.9144754 115.107885,50.9144754" id="Fill-68" fill="#8DA4B5"/><path d="M102.473318,52.0564175 C101.754074,52.0564175 101.067919,51.6402021 100.75793,50.9424548 C100.338227,49.9979326 100.765767,48.8917903 101.713149,48.473837 L111.201766,44.2795329 C112.150018,43.8598419 113.256747,44.2882222 113.675581,45.2318754 C114.095285,46.1763976 113.667744,47.28254 112.721233,47.7004932 L103.231745,51.8947973 C102.984451,52.0042819 102.726707,52.0564175 102.473318,52.0564175" id="Fill-70" fill="#728B9B"/><path d="M109.20617,13.3927018 C109.028535,13.3927018 108.85003,13.4066046 108.671526,13.4335414 C107.741559,13.5734384 106.922179,14.0669882 106.364896,14.8220846 C105.212887,16.3818061 105.547257,18.5862705 107.110262,19.7349902 L113.651373,24.5453626 C114.40893,25.1023439 115.338026,25.3334781 116.267121,25.1901053 C117.197088,25.0502083 118.015597,24.5566586 118.573751,23.8006932 C119.72489,22.2418407 119.390519,20.0373763 117.828385,18.8886566 L111.286403,14.0782842 C110.675133,13.6281807 109.951536,13.3927018 109.20617,13.3927018 M115.724641,28.9742766 C114.184276,28.9742766 112.689189,28.4868093 111.426594,27.5579278 L104.885483,22.7475554 C101.658465,20.3736505 100.967957,15.8230869 103.345989,12.6028485 C104.497997,11.0422579 106.189874,10.0230082 108.109889,9.73278703 C110.030775,9.44691045 111.948177,9.91613035 113.512053,11.065719 L120.053164,15.8760914 C123.280182,18.2499962 123.970691,22.8005599 121.592659,26.0207983 C120.44065,27.5813888 118.748773,28.6006385 116.828758,28.8908597 C116.459558,28.945602 116.090358,28.9742766 115.724641,28.9742766" id="Fill-72" fill="#8DA4B5"/><path d="M121.719441,36.7492495 C120.9227,36.7492495 120.1843,36.2383212 119.931781,35.4406475 L116.806641,25.5644385 C116.494911,24.5790768 117.042616,23.5276768 118.030052,23.2166014 C119.01923,22.9072639 120.071101,23.4529492 120.382832,24.4374419 L123.507971,34.3136509 C123.819702,35.2990126 123.271997,36.3504126 122.284561,36.661488 C122.096478,36.7205749 121.906653,36.7492495 121.719441,36.7492495" id="Fill-74" fill="#728B9B"/><path d="M85.5788429,4.15610911 C83.6562163,4.15610911 82.081891,5.70540354 82.0592512,7.628336 C82.0488024,8.56677566 82.4049408,9.45307987 83.0623609,10.1238905 C83.7197811,10.79557 84.5992435,11.1700769 85.5396588,11.181373 L93.6646737,11.2734791 L93.7055987,11.2734791 C95.628226,11.274348 97.2025512,9.72418467 97.2251904,7.80125217 C97.2469592,5.86441693 95.685696,4.27080729 93.7447828,4.24821523 L85.6197686,4.15610911 L85.5788429,4.15610911 L85.5788429,4.15610911 L85.5788429,4.15610911 Z M93.7073408,15.0168108 C93.6786055,15.0168108 93.6507412,15.0159418 93.6220066,15.0159418 L85.4961213,14.9238358 C83.5543377,14.9012437 81.7379429,14.126162 80.3804355,12.7402256 C79.0229288,11.3542891 78.2871411,9.52346286 78.3097802,7.58575866 C78.3315496,5.64805445 79.1091335,3.83460662 80.4979874,2.47995153 C81.8868419,1.12616537 83.7162981,0.399743531 85.662435,0.413646341 L93.7874499,0.506621386 C95.7292335,0.528344526 97.5464994,1.30429513 98.9040061,2.69023154 C100.261513,4.07529902 100.997301,5.90699429 100.974661,7.84382958 C100.952893,9.78240269 100.175308,11.5958505 98.7864542,12.9496366 C97.418498,14.2843065 95.6169061,15.0159418 93.7073408,15.0168108 L93.7073408,15.0168108 L93.7073408,15.0168108 L93.7073408,15.0168108 Z" id="Fill-76" fill="#8DA4B5"/><path d="M106.259273,16.8293028 C105.869175,16.8293028 105.475594,16.7085222 105.139482,16.4574026 L96.8229019,10.2619628 C95.9922014,9.64415664 95.822404,8.47197593 96.4415111,7.64388975 C97.0614885,6.81667254 98.2361371,6.64462527 99.0659665,7.2633003 L107.382548,13.4587402 C108.212377,14.0765464 108.383045,15.249596 107.763067,16.0776821 C107.394738,16.5694941 106.830488,16.8293028 106.259273,16.8293028" id="Fill-78" fill="#728B9B"/><path d="M60.0531835,4.04149782 C58.1122707,4.04149782 56.5327212,5.61686001 56.5327212,7.55456424 C56.5327212,9.49139946 58.1122707,11.0676306 60.0531835,11.0676306 L68.1790686,11.0676306 C70.1199818,11.0676306 71.6995315,9.49139946 71.6995315,7.55456424 C71.6995315,5.61686001 70.1199818,4.04149782 68.1790686,4.04149782 L60.0531835,4.04149782 L60.0531835,4.04149782 L60.0531835,4.04149782 Z M68.1790686,14.8100934 L60.0531835,14.8100934 C56.0442277,14.8100934 52.7832503,11.5550979 52.7832503,7.55456424 C52.7832503,3.5531616 56.0442277,0.299035048 60.0531835,0.299035048 L68.1790686,0.299035048 C72.1880246,0.299035048 75.4490018,3.5531616 75.4490018,7.55456424 C75.4490018,11.5550979 72.1880246,14.8100934 68.1790686,14.8100934 L68.1790686,14.8100934 L68.1790686,14.8100934 L68.1790686,14.8100934 Z" id="Fill-80" fill="#8DA4B5"/><path d="M81.9055629,9.42562178 L71.5270346,9.42562178 C70.4917073,9.42562178 69.6514284,8.58797748 69.6514284,7.55482487 C69.6514284,6.52080337 70.4917073,5.68315904 71.5270346,5.68315904 L81.9055629,5.68315904 C82.9408909,5.68315904 83.7802988,6.52080337 83.7802988,7.55482487 C83.7802988,8.58797748 82.9408909,9.42562178 81.9055629,9.42562178" id="Fill-82" fill="#728B9B"/><path d="M7.52454198,34.1442104 C6.64943322,34.1442104 5.81699147,34.4639751 5.16392525,35.0557134 C4.46732127,35.6856845 4.0589372,36.5493966 4.01278718,37.4869673 C3.96750792,38.4236692 4.28968726,39.3221384 4.92185537,40.0172789 L4.92185537,40.0172789 L10.381489,46.0232929 C11.6858799,47.4578891 13.9167541,47.5665049 15.3543706,46.2648543 C16.7911163,44.9632036 16.8999607,42.7370161 15.5955697,41.3015509 L10.1359361,35.2972748 C9.50376798,34.6021342 8.63910831,34.1946081 7.69956372,34.148555 C7.64122314,34.1459482 7.58288256,34.1442104 7.52454198,34.1442104 M12.9920124,50.9144754 C11.0110449,50.9153443 9.03704333,50.1141949 7.60378065,48.5379638 L2.14414702,42.5319496 C0.839756086,41.0964845 0.172757785,39.2404593 0.266799322,37.304493 C0.361711613,35.3685267 1.20547317,33.5854912 2.64396037,32.2838406 C4.08157683,30.981321 5.94499245,30.3096415 7.88242223,30.4104369 C9.82159353,30.5051498 11.6083827,31.3471388 12.9136445,32.7826039 L18.373278,38.787749 C21.0665231,41.7507855 20.8427391,46.3482711 17.8734647,49.0367271 C16.4837398,50.2949314 14.7352638,50.9144754 12.9920124,50.9144754" id="Fill-84" fill="#8DA4B5"/><path d="M18.8936412,13.3927018 C18.148275,13.3927018 17.4246776,13.6281807 16.8134076,14.0782842 L10.2714255,18.8886566 C8.70929118,20.0373763 8.37492123,22.2418407 9.52605932,23.8006932 C10.0842132,24.5566586 10.9035937,25.0502083 11.8326892,25.1901053 C12.7635263,25.3326092 13.6917511,25.1023439 14.4484372,24.5453626 L20.9895485,19.7349902 C21.7471053,19.1780088 22.2408233,18.3603498 22.3818856,17.4323372 C22.5229479,16.5051935 22.2930686,15.5780499 21.7349147,14.8220846 C21.1776315,14.0669882 20.3582511,13.5734384 19.4282848,13.4335414 C19.24978,13.4066046 19.0712753,13.3927018 18.8936412,13.3927018 M12.3760403,28.9742766 C12.0094525,28.9742766 11.6402524,28.945602 11.2710523,28.8908597 C9.35103757,28.6006385 7.65916066,27.5813888 6.50715185,26.0207983 C4.12912005,22.8005599 4.81962873,18.2499962 8.04664664,15.8760914 L14.5877579,11.065719 C16.1516339,9.91526138 18.0699071,9.44430373 19.9899218,9.73278703 C21.9099364,10.0230082 23.6018134,11.0422579 24.7538222,12.6028485 C27.1327247,15.8230869 26.442216,20.3736505 23.2143274,22.7475554 L16.6732161,27.5579278 C15.4106214,28.4868093 13.9155351,28.9742766 12.3760403,28.9742766" id="Fill-86" fill="#8DA4B5"/><path d="M6.38036993,36.7492495 C6.19315761,36.7492495 6.00333303,36.7214438 5.81524996,36.661488 C4.82781383,36.3504126 4.28010895,35.2990126 4.59183923,34.3136509 L7.7169788,24.4374419 C8.02870905,23.4520803 9.08145186,22.9037882 10.0697587,23.2166014 C11.0571948,23.5276768 11.6048997,24.5790768 11.2931694,25.5644385 L8.16802984,35.4406475 C7.91551091,36.2383212 7.1771107,36.7492495 6.38036993,36.7492495" id="Fill-88" fill="#728B9B"/><path d="M42.4801293,4.15610911 L34.3551147,4.24821523 C33.4146993,4.25951126 32.5352369,4.63488714 31.8778168,5.30569774 C31.2203968,5.97737726 30.864258,6.8628125 30.8755779,7.80125217 C30.8973468,9.72418467 32.4716717,11.2734791 34.3942987,11.2734791 L34.4352242,11.2734791 L42.5602388,11.181373 C44.5011515,11.1596498 46.0624152,9.5660402 46.0406463,7.628336 C46.0180067,5.70540354 44.4436818,4.15610911 42.5210548,4.15610911 L42.4801293,4.15610911 L42.4801293,4.15610911 L42.4801293,4.15610911 Z M34.3925571,15.0168108 C32.4829915,15.0168108 30.6813995,14.2843065 29.3134434,12.9496366 C27.9245893,11.5958505 27.1478758,9.78240269 27.1252362,7.84382958 C27.1025966,5.90699429 27.8383845,4.07529902 29.1958915,2.69023154 C30.5533985,1.30429513 32.3697933,0.528344526 34.3115769,0.506621386 L42.4374623,0.413646341 C44.3722798,0.398874605 46.2130558,1.12529644 47.60191,2.47995153 C48.9907641,3.83460662 49.7683484,5.64805445 49.7901172,7.58575866 C49.8127568,9.52346286 49.0769689,11.3542891 47.7194619,12.7402256 C46.3619549,14.126162 44.5455601,14.9012437 42.6037765,14.9238358 L34.4778912,15.0159418 C34.450027,15.0159418 34.4212921,15.0168108 34.3925571,15.0168108 L34.3925571,15.0168108 L34.3925571,15.0168108 L34.3925571,15.0168108 Z" id="Fill-90" fill="#8DA4B5"/><path d="M21.8405373,16.8293028 C21.269322,16.8293028 20.7050728,16.5694941 20.3367434,16.0776821 C19.7167659,15.249596 19.8874339,14.0765464 20.7172634,13.4587402 L29.033844,7.2633003 C29.8636735,6.64462527 31.0391927,6.81580363 31.6582995,7.64388975 C32.2774062,8.47197593 32.1076091,9.64415664 31.2769088,10.2619628 L22.9603282,16.4574026 C22.6242167,16.7085222 22.2306355,16.8293028 21.8405373,16.8293028" id="Fill-92" fill="#728B9B"/><path d="M56.5729501,9.42562178 L46.1944216,9.42562178 C45.159094,9.42562178 44.3196862,8.58797748 44.3196862,7.55482487 C44.3196862,6.52080337 45.159094,5.68315904 46.1944216,5.68315904 L56.5729501,5.68315904 C57.6082778,5.68315904 58.4476855,6.52080337 58.4476855,7.55482487 C58.4476855,8.58797748 57.6082778,9.42562178 56.5729501,9.42562178" id="Fill-94" fill="#728B9B"/><polygon id="Clip-25" fill="#95E3FF" points="35.1227723 97.3862703 47.1008776 122.238413 61.5954648 92.9990642"/><polygon id="Clip-34" fill="#1AA1E9" points="61.6720911 142.956206 87.4185741 127.753484 76.2581073 122.238413"/><polygon id="Clip-31" fill="#1CB0F6" points="47.1017483 122.238413 61.6790572 142.944911 76.2581073 122.238413"/><polygon id="Clip-40" fill="#1CB0F6" points="76.2598488 122.240151 87.4168327 127.755222 87.4168327 97.3549889"/><path d="M50.0023202,125.952722 C49.9657485,125.952722 49.9283061,125.944902 49.892605,125.930999 C48.8224472,125.473075 47.686112,125.241072 46.5166881,125.241072 C45.3995094,125.241072 44.310195,125.45309 43.2809626,125.871912 C43.2470031,125.885814 43.2113022,125.892766 43.1756012,125.892766 C43.1033286,125.892766 43.0327974,125.864091 42.9796814,125.811087 C42.9004427,125.732015 42.8760616,125.612972 42.9187286,125.510439 C43.7772929,123.405901 43.7563948,121.000715 42.8595172,118.911818 C42.8151087,118.807546 42.8386191,118.686766 42.9187286,118.606825 C42.9718446,118.552951 43.0432465,118.525146 43.1155192,118.525146 C43.1520909,118.525146 43.1895334,118.532966 43.2252343,118.547738 C44.2953921,119.004793 45.4308566,119.236796 46.6011513,119.236796 C47.7183299,119.236796 48.8067736,119.024778 49.8368767,118.605956 C49.8708362,118.592053 49.9065372,118.585101 49.9413674,118.585101 C50.01364,118.585101 50.0850419,118.613776 50.1381579,118.666781 C50.2173967,118.745853 50.2417778,118.864895 50.1991108,118.967429 C49.3405464,121.071966 49.3614445,123.477153 50.2574514,125.56605 C50.3027306,125.670321 50.2792203,125.791102 50.1991108,125.871043 C50.1459948,125.924916 50.0745929,125.952722 50.0023202,125.952722" id="Fill-46" fill="#FFFFFF"/><path d="M43.1155192,118.247785 C42.9709738,118.247785 42.82817,118.304265 42.7219379,118.410274 C42.561719,118.571025 42.5146982,118.812586 42.604386,119.021128 C43.471658,121.042249 43.4925561,123.369232 42.6609851,125.405125 C42.5765218,125.611929 42.6244134,125.849146 42.7828908,126.007291 C42.8891229,126.113299 43.031056,126.169779 43.1764721,126.169779 C43.2470031,126.169779 43.3175343,126.156746 43.3854532,126.128941 C44.3815969,125.724021 45.4352104,125.518085 46.5166881,125.518085 C47.6486695,125.518085 48.7475623,125.742268 49.78289,126.185421 C49.8542919,126.215833 49.9283061,126.229736 50.0023202,126.229736 C50.1468655,126.229736 50.2887986,126.174124 50.3959014,126.067246 C50.5561203,125.907364 50.6031411,125.664934 50.5134533,125.456392 C49.6461814,123.435271 49.6252833,121.108288 50.4568543,119.072395 C50.5413175,118.865591 50.493426,118.628374 50.3349486,118.470229 C50.2287165,118.364221 50.0859127,118.307741 49.9413674,118.307741 C49.8708362,118.307741 49.7994343,118.321643 49.7315154,118.349449 C48.7353717,118.754368 47.682629,118.959435 46.6011513,118.959435 C45.4691699,118.959435 44.3702771,118.735252 43.3340787,118.292969 C43.2635475,118.262556 43.1895334,118.247785 43.1155192,118.247785 M43.1155192,118.803028 C44.2257318,119.277462 45.4134415,119.514678 46.6011513,119.514678 C47.7374866,119.514678 48.8738218,119.297447 49.9413674,118.862984 C49.0514558,121.043987 49.0714831,123.507392 50.0023202,125.675361 C48.8921076,125.200928 47.7043978,124.962842 46.5166881,124.962842 C45.3803528,124.962842 44.2440176,125.180073 43.1756012,125.614536 C44.0663836,123.434402 44.0454855,120.970128 43.1155192,118.803028" id="Fill-48" fill="#FFFFFF"/><path d="M75.5642031,99.4181661 C75.3839569,99.4181661 75.2211254,99.308681 75.154948,99.1418474 C73.8122442,95.7947455 71.1320603,93.072402 67.8014221,91.6725627 C67.6377203,91.6039173 67.5314883,91.444035 67.5314883,91.2667745 C67.5314883,91.0895133 67.6377203,90.9296309 67.8014221,90.8609862 C71.1320603,89.4620155 73.8122442,86.7396719 75.154948,83.3925701 C75.2211254,83.2248672 75.3839569,83.1153829 75.5642031,83.1153829 C75.7444493,83.1153829 75.9072802,83.2248672 75.9734575,83.3925701 C77.316162,86.7396719 79.9963459,89.4620155 83.3269834,90.8609862 C83.4906853,90.9296309 83.5969172,91.0895133 83.5969172,91.2667745 C83.5969172,91.444035 83.4906853,91.6039173 83.3269834,91.6725627 C79.9963459,93.072402 77.316162,95.7947455 75.9734575,99.1418474 C75.9072802,99.308681 75.7444493,99.4181661 75.5642031,99.4181661" id="Fill-42" fill="#FFFFFF"/><path d="M75.5642031,82.6758803 C75.2037107,82.6758803 74.8789187,82.8948497 74.7448226,83.2293855 C73.4456563,86.4678716 70.852548,89.1015852 67.6307544,90.4553714 C67.3033506,90.5926615 67.0908864,90.9124262 67.0908864,91.2669479 C67.0908864,91.6214696 67.3033506,91.9412343 67.6307544,92.0785244 C70.852548,93.4323106 73.4456563,96.0660242 74.7448226,99.3053795 C74.8789187,99.6390467 75.2037107,99.8588847 75.5642031,99.8588847 C75.9246956,99.8588847 76.2494868,99.6390467 76.3835837,99.3053795 C77.68275,96.0660242 80.2758582,93.4323106 83.4976512,92.0785244 C83.825055,91.9412343 84.0375195,91.6214696 84.0375195,91.2669479 C84.0375195,90.9124262 83.825055,90.5926615 83.4976512,90.4553714 C80.2758582,89.1015852 77.68275,86.4678716 76.3835837,83.2293855 C76.2494868,82.8948497 75.9246956,82.6758803 75.5642031,82.6758803 M75.5642031,83.5561015 C76.957411,87.0300666 79.7046427,89.8175798 83.1554445,91.2669479 C79.7046427,92.7171852 76.957411,95.5038292 75.5642031,98.9777943 C74.1709952,95.5038292 71.4237629,92.7171852 67.972961,91.2669479 C71.4237629,89.8175798 74.1709952,87.0300666 75.5642031,83.5561015" id="Fill-44" fill="#FFFFFF"/></g></g></g></g></svg>