<?xml version="1.0" encoding="UTF-8" standalone="no"?><svg width="310px" height="193px" viewBox="0 0 310 193" version="1.1" xmlns="http://www.w3.org/2000/svg" xmlns:xlink="http://www.w3.org/1999/xlink" xmlns:sketch="http://www.bohemiancoding.com/sketch/ns"><title>Artboard 36</title><desc>Created with Sketch.</desc><defs/><g id="Page-1" stroke="none" stroke-width="1" fill="none" fill-rule="evenodd" sketch:type="MSPage"><g id="Artboard-36" sketch:type="MSArtboardGroup"><g id="logo-zs-2" sketch:type="MSLayerGroup" transform="translate(15.000000, 16.000000)"><g id="Layer_2"/><g id="Layer_1_1_" fill="#FFFFFF" sketch:type="MSShapeGroup"><g id="Group"><path d="M42,6.24615385 L74.0444444,6.24615385 C80.8888889,6.87076923 82.4444444,10.3061538 79.0222222,16.8646154 C73.4222222,26.5461538 65.9555556,34.0415385 56.3111111,39.0384615 C57.8666667,39.6630769 58.1777778,41.2246154 57.8666667,43.4107692 L84.6222222,43.4107692 C89.9111111,44.0353846 91.7777778,47.1584615 89.6,53.4046154 C81.2,78.0769231 56.6222222,89.9446154 16.4888889,89.0076923 C13.6888889,88.6953846 12.1333333,87.4461538 11.8222222,84.9476923 C12.1333333,82.4492308 13.3777778,81.2 16.1777778,81.2 C26.4444444,81.2 34.2222222,80.8876923 39.8222222,79.9507692 C45.7333333,79.6384615 51.9555556,78.3892308 58.4888889,75.8907692 C50.4,70.2692308 42.6222222,65.2723077 34.8444444,60.5876923 C30.1777778,62.7738462 24.2666667,64.3353846 17.1111111,65.5846154 C14,66.5215385 12.4444444,65.5846154 11.8222222,63.3984615 C11.5111111,60.9 12.7555556,59.3384615 15.5555556,58.7138462 C30.4888889,56.2153846 42,50.9061538 49.4666667,43.0984615 C38.5777778,47.7830769 23.3333333,50.2815385 4.35555556,50.2815385 C2.17777778,50.2815385 0.933333333,49.0323077 0.933333333,46.5338462 C0.933333333,44.3476923 2.17777778,43.0984615 4.35555556,42.4738462 C21.4666667,42.4738462 34.8444444,40.6 44.4888889,36.54 C38.5777778,31.5430769 31.4222222,26.8584615 23.0222222,22.1738462 C18.3555556,24.6723077 14.3111111,26.2338462 10.5777778,27.1707692 C8.08888889,28.1076923 6.53333333,27.1707692 5.6,24.9846154 C4.97777778,22.7984615 5.91111111,21.2369231 8.4,20.3 C20.5333333,16.8646154 29.5555556,10.9307692 35.7777778,2.81076923 C37.0222222,1.24923077 38.5777778,0.624615385 40.4444444,1.56153846 C42.3111111,2.81076923 42.6222222,4.37230769 42,6.24615385 L42,6.24615385 Z M52.2666667,33.1046154 C59.1111111,29.6692308 65.3333333,24.36 70.3111111,16.8646154 C71.2444444,15.6153846 71.5555556,14.6784615 70.9333333,14.0538462 C70.6222222,13.4292308 69.6888889,12.8046154 68.1333333,12.8046154 L36.4,12.8046154 C33.9111111,14.6784615 31.4222222,16.5523077 29.2444444,18.4261538 C35.1555556,21.5492308 42.9333333,26.5461538 52.2666667,33.1046154 L52.2666667,33.1046154 Z M42,57.1523077 C42.3111111,57.4646154 42.6222222,57.7769231 43.5555556,58.4015385 C52.8888889,64.0230769 60.0444444,68.7076923 65.3333333,72.4553846 C72.4888889,68.3953846 78.0888889,61.8369231 82.1333333,53.4046154 C82.7555556,52.4676923 82.7555556,51.8430769 82.1333333,51.2184615 C81.8222222,50.5938462 80.8888889,50.5938462 78.7111111,50.5938462 L51.9555556,50.5938462 C50.0888889,52.4676923 46.6666667,54.9661538 42,57.1523077 L42,57.1523077 Z" id="Shape"/><path d="M122.577778,3.12307692 C126.933333,3.74769231 134.711111,11.8676923 145.911111,27.1707692 C147.155556,29.6692308 146.844444,31.5430769 145.288889,33.4169231 C143.111111,34.6661538 141.244444,34.0415385 139.688889,31.5430769 C131.288889,20.3 125.377778,13.7415385 122.577778,12.18 C121.955556,12.18 120.711111,13.7415385 118.222222,17.1769231 C112,25.6092308 106.088889,32.1676923 100.8,36.2276923 C98.9333333,37.7892308 97.0666667,37.7892308 95.2,36.2276923 C93.9555556,34.3538462 93.9555556,32.48 95.5111111,30.6061538 C100.8,26.5461538 107.022222,19.9876923 113.866667,11.2430769 C117.911111,5.93384615 120.711111,3.12307692 122.577778,3.12307692 L122.577778,3.12307692 Z M135.644444,45.2846154 C141.866667,45.5969231 144.044444,48.4076923 142.8,53.7169231 C140,63.7107692 134.4,72.1430769 125.377778,79.0138462 C128.177778,80.5753846 130.355556,81.8246154 131.6,83.0738462 C133.466667,84.6353846 133.777778,86.5092308 132.844444,88.6953846 C131.288889,90.5692308 129.422222,90.8815385 127.244444,89.0076923 C123.511111,86.1969231 116.044444,81.8246154 104.533333,75.8907692 C102.355556,74.9538462 101.733333,73.3923077 102.977778,71.2061538 C104.222222,69.6446154 106.088889,69.02 108.577778,69.6446154 C112.622222,71.8307692 116.044444,73.7046154 118.844444,75.2661538 C126,69.3323077 131.288889,63.0861538 134.4,56.5276923 C135.333333,54.0292308 134.4,52.78 131.6,52.78 L103.911111,52.78 C101.733333,52.78 100.488889,51.5307692 100.488889,49.0323077 C100.488889,46.8461538 101.733333,45.5969231 103.911111,45.2846154 L135.644444,45.2846154 L135.644444,45.2846154 Z M113.866667,28.42 C123.511111,31.2307692 130.044444,33.1046154 132.844444,34.6661538 C135.022222,36.2276923 135.644444,37.7892308 135.022222,39.6630769 C134.088889,41.2246154 132.533333,41.8492308 130.355556,40.9123077 C126.622222,39.3507692 120.4,37.4769231 112,35.2907692 C109.822222,34.6661538 108.888889,33.1046154 109.2,30.9184615 C109.822222,29.0446154 111.377778,28.1076923 113.866667,28.42 L113.866667,28.42 Z M171.111111,5.30923077 C177.022222,4.99692308 179.2,7.49538462 177.644444,13.1169231 C176.088889,20.6123077 174.222222,28.1076923 172.044444,35.9153846 C171.422222,37.4769231 171.422222,38.7261538 171.422222,38.7261538 C171.422222,38.7261538 171.733333,39.9753846 172.666667,41.2246154 C179.822222,52.1553846 183.244444,60.9 182.933333,67.4584615 C182.311111,75.8907692 176.4,79.6384615 164.266667,79.3261538 C161.466667,79.0138462 159.911111,77.7646154 160.222222,75.2661538 C160.533333,73.08 162.088889,71.8307692 164.888889,71.8307692 C172.044444,73.08 175.777778,70.8938462 175.777778,65.5846154 C175.155556,59.3384615 172.355556,52.78 167.377778,45.9092308 C165.511111,43.0984615 164.577778,41.5369231 164.577778,40.2876923 C164.266667,39.6630769 164.888889,36.8523077 166.133333,31.8553846 C167.688889,27.1707692 168.933333,21.8615385 170.177778,15.6153846 C170.488889,13.7415385 169.555556,12.4923077 167.377778,12.4923077 L158.355556,12.4923077 C156.488889,12.8046154 155.555556,13.7415385 155.555556,15.6153846 L155.555556,86.5092308 C155.244444,88.6953846 154,89.9446154 151.822222,89.9446154 C149.333333,89.9446154 148.088889,88.6953846 148.088889,86.5092308 L148.088889,11.5553846 C147.466667,7.18307692 149.644444,4.99692308 154.622222,5.30923077 L171.111111,5.30923077 L171.111111,5.30923077 Z" id="Shape"/><path d="M200.044444,7.49538462 L267.866667,7.49538462 C271.6,7.49538462 273.466667,9.68153846 273.466667,14.3661538 L273.466667,79.9507692 C273.777778,84.9476923 271.6,87.1338462 266.933333,86.8215385 L200.666667,86.8215385 C196.311111,86.8215385 194.133333,84.3230769 194.444444,79.6384615 L194.444444,14.3661538 C193.822222,9.68153846 195.688889,7.18307692 200.044444,7.49538462 L200.044444,7.49538462 Z M205.333333,14.6784615 C202.222222,14.6784615 200.977778,15.9276923 201.6,18.7384615 L201.6,76.5153846 C200.977778,79.0138462 202.533333,79.9507692 205.644444,79.9507692 L262.577778,79.9507692 C265.066667,79.9507692 266.311111,78.7015385 266.311111,76.2030769 L266.311111,19.9876923 C266.622222,16.24 265.066667,14.6784615 262.266667,14.9907692 L205.333333,14.9907692 L205.333333,14.6784615 Z M212.8,22.7984615 L256.666667,22.7984615 C258.222222,23.1107692 259.466667,24.36 259.466667,26.5461538 C259.155556,28.7323077 258.222222,29.9815385 256.666667,29.9815385 L236.133333,29.9815385 L236.133333,40.9123077 L254.8,40.9123077 C256.666667,41.2246154 257.911111,42.4738462 258.222222,44.66 C257.911111,46.8461538 256.977778,48.0953846 254.8,48.0953846 L236.133333,48.0953846 L236.133333,64.96 L258.222222,64.96 C260.088889,65.2723077 261.333333,66.5215385 261.644444,68.7076923 C261.333333,70.8938462 260.4,72.1430769 258.222222,72.1430769 L209.688889,72.1430769 C207.2,72.1430769 205.955556,70.8938462 205.955556,68.7076923 C205.955556,66.5215385 207.2,65.2723077 209.688889,64.96 L228.666667,64.96 L228.666667,48.0953846 L214.044444,48.0953846 C211.866667,48.0953846 210.622222,46.8461538 210.622222,44.66 C210.622222,42.4738462 211.866667,41.2246154 214.044444,40.9123077 L228.666667,40.9123077 L228.666667,29.6692308 L213.111111,29.6692308 C210.622222,29.6692308 209.377778,28.42 209.066667,26.2338462 C209.066667,24.36 210.622222,23.1107692 212.8,22.7984615 L212.8,22.7984615 Z M244.533333,50.9061538 C247.644444,53.4046154 250.133333,55.2784615 252.311111,57.1523077 C253.866667,58.7138462 253.866667,60.5876923 252.622222,62.1492308 C251.066667,63.7107692 249.2,63.7107692 247.955556,62.1492308 C245.777778,60.2753846 243.288889,58.0892308 240.8,55.9030769 C239.244444,54.6538462 238.933333,53.0923077 240.177778,51.5307692 C241.111111,50.2815385 242.666667,49.9692308 244.533333,50.9061538 L244.533333,50.9061538 Z" id="Shape"/></g></g></g><g id="Imported-Layers-+-Imported-Layers-3" sketch:type="MSLayerGroup" transform="translate(64.000000, 136.000000)" fill="#FFFFFF"><g id="Imported-Layers" transform="translate(-0.116083, -0.211918)" sketch:type="MSShapeGroup"><path d="M42.4423912,20.0805055 C42.4423912,20.1584657 42.4414298,20.2285311 42.4414298,20.3045176 C42.431816,22.4785204 42.3077985,23.9143689 42.0693772,24.5913393 C41.7338568,25.5337691 41.2175977,26.2492262 40.5225226,26.7367239 C39.8293702,27.2222479 38.9843204,27.4669836 37.9912186,27.4669836 C36.9971554,27.4669836 36.1617194,27.2202742 35.4829876,26.7248818 C34.8013718,26.2304763 34.3091471,25.5396901 34.002468,24.6485759 C33.7130937,23.816672 33.563119,22.3610868 33.5458143,20.3045176 C33.5438915,20.1633998 33.5410074,20.0272163 33.5410074,19.8791907 L33.5410074,8.11608865 L27.5064479,8.11608865 L27.5064479,18.2854482 C27.5064479,19.0038659 27.5160617,19.6680075 27.5324051,20.3045176 C27.6025855,23.1268726 27.8256249,25.1558103 28.2072913,26.365673 C28.8600658,28.5071102 29.9954513,30.1728918 31.6057567,31.3718992 C33.2170235,32.5699199 35.3262833,33.1669565 37.9373815,33.1669565 C40.3427452,33.1669565 42.327026,32.6557747 43.8854171,31.6304506 C45.4438082,30.6061134 46.6253398,29.1347388 47.428089,27.2202742 C47.9828032,25.8870569 48.3029415,23.5748968 48.3865813,20.3045176 C48.4019633,19.719323 48.4125384,19.1134048 48.4125384,18.4640658 L48.4125384,8.11608865 L42.4423912,8.11608865 L42.4423912,20.0805055 L42.4423912,20.0805055 L42.4423912,20.0805055 L42.4423912,20.0805055 Z M24.6963448,-0.16051678 L18.7261975,-0.16051678 L18.7261975,9.41279301 C18.625253,9.35160909 18.5368064,9.27660945 18.4339391,9.21542553 C16.4573493,8.0647731 14.3480895,7.48648637 12.1023143,7.48648637 C8.99610727,7.48648637 6.24753223,8.59470479 3.85755057,10.8101548 C1.13973957,13.3433665 -0.219646613,16.5081541 -0.231183129,20.3045176 L-0.228299,20.3045176 C-0.228299,20.3193202 -0.229260376,20.3351096 -0.229260376,20.3489253 C-0.229260376,23.9114084 0.975344215,26.9390256 3.3883989,29.4288164 C5.80241497,31.9215677 8.71442399,33.1669565 12.1234646,33.1669565 C14.4432658,33.1669565 16.5640621,32.6024855 18.4877762,31.4725567 C20.4124517,30.3446015 21.9343105,28.7735563 23.0485457,26.7712632 C24.0243427,25.0146926 24.5732886,23.1466094 24.6963448,21.1630662 L24.6963448,21.1610925 C24.7136495,20.8768833 24.7213406,20.5916873 24.7213406,20.3045176 C24.7213406,20.0380715 24.7126882,19.7745859 24.6963448,19.513074 L24.6963448,-0.16051678 L24.6963448,-0.16051678 L24.6963448,-0.16051678 L24.6963448,-0.16051678 Z M16.8476681,25.4686378 C15.6046084,26.7998815 14.0500628,27.4669836 12.1811472,27.4669836 C10.3103088,27.4669836 8.76633832,26.8058025 7.54635171,25.4913351 C6.32828784,24.1729203 5.71781385,22.4528627 5.71781385,20.3272149 C5.71781385,20.3193202 5.71877523,20.3124123 5.71877523,20.3045176 L5.71685247,20.3045176 C5.72262073,18.2499221 6.33597886,16.5614433 7.56750199,15.2440153 C8.79998649,13.9186927 10.3468411,13.2565248 12.1994133,13.2565248 C14.0981317,13.2565248 15.6574841,13.9117848 16.8774708,15.2203312 C18.0907277,16.5249303 18.7002404,18.2193301 18.7050472,20.3045176 C18.7050472,20.3124123 18.7088927,20.3193202 18.7088927,20.3272149 C18.7088927,22.4242444 18.0878436,24.1344336 16.8476681,25.4686378 C16.8476681,25.4686378 18.0878436,24.1344336 16.8476681,25.4686378 L16.8476681,25.4686378 L16.8476681,25.4686378 Z M73.8178704,13.9058638 C72.7113262,11.9321889 71.1683171,10.3680516 69.1926887,9.21542553 C67.2170602,8.0647731 65.1058777,7.48648637 62.8620253,7.48648637 C59.7567796,7.48648637 57.0101273,8.59470479 54.6172615,10.8101548 C51.9023347,13.3433665 50.5410257,16.5081541 50.5294892,20.3045176 C50.5294892,20.3193202 50.5275665,20.3351096 50.5275665,20.3489253 C50.5275665,23.9114084 51.7369779,26.9390256 54.1481099,29.4288164 C56.5602032,31.9215677 59.4722122,33.1669565 62.8831756,33.1669565 C65.2029767,33.1669565 67.3218503,32.6024855 69.2474871,31.4725567 C71.1721626,30.3446015 72.6940214,28.7735563 73.8053725,26.7712632 C74.9224919,24.7650227 75.4810515,22.6117435 75.4810515,20.3045176 C75.4810515,18.0150548 74.9263374,15.8815123 73.8178704,13.9058638 C73.8178704,13.9058638 74.9263374,15.8815123 73.8178704,13.9058638 L73.8178704,13.9058638 L73.8178704,13.9058638 Z M67.6054563,25.4686378 C66.3623967,26.7998815 64.8088124,27.4669836 62.9389354,27.4669836 C61.068097,27.4669836 59.5241265,26.8058025 58.3041399,25.4913351 C57.0860761,24.1729203 56.4746407,22.4528627 56.4746407,20.3272149 C56.4746407,20.3193202 56.4765634,20.3124123 56.4765634,20.3045176 C56.4823317,18.2499221 57.0985739,16.5614433 58.3281743,15.2440153 C59.5606588,13.9186927 61.1046293,13.2565248 62.9591243,13.2565248 C64.858804,13.2565248 66.4181565,13.9117848 67.6362203,15.2203312 C68.8514001,16.5249303 69.4599513,18.2193301 69.466681,20.3045176 C69.466681,20.3124123 69.4676423,20.3193202 69.4676423,20.3272149 C69.4676423,22.4242444 68.8475546,24.1344336 67.6054563,25.4686378 L67.6054563,25.4686378 Z" id="Fill-1"/><path d="M96.2977341,32.732748 L102.335178,32.732748 L102.335178,9.11378128 L96.2977341,9.11378128 L96.2977341,9.11378128 L96.2977341,32.732748 L96.2977341,32.732748 Z M85.9619767,26.3380416 C85.2669016,25.8525176 84.7516039,25.1380473 84.4170449,24.1956175 C84.174778,23.5156866 84.0536446,22.0798381 84.0440309,19.907809 L84.0440309,-0.166437804 L78.0738836,-0.166437804 L78.0738836,18.0673572 C78.0738836,18.7147225 78.082536,19.3196539 78.0998408,19.907809 C78.1834805,23.1772013 78.4997733,25.4883746 79.058333,26.8225787 C79.8610823,28.7370433 81.0426138,30.2074311 82.5990822,31.233742 C84.1584346,32.2580792 86.1427155,32.769261 88.5461564,32.769261 L93.1569175,32.769261 L93.1569175,27.0683013 L88.4942421,27.0683013 C87.4992175,27.0683013 86.6551291,26.8255393 85.9619767,26.3380416 C85.9619767,26.3380416 86.6551291,26.8255393 85.9619767,26.3380416 L85.9619767,26.3380416 L85.9619767,26.3380416 Z M125.922547,13.6670491 C125.118836,11.7486372 123.940189,10.2802231 122.380836,9.25489903 C120.819561,8.23056179 118.837203,7.71839317 116.431839,7.71839317 C113.820741,7.71839317 111.711481,8.31641664 110.102137,9.51345043 C108.489909,10.7104842 107.355485,12.3792263 106.700788,14.5206635 C106.320083,15.7295393 106.095121,17.7574902 106.025902,20.5788584 C106.009558,21.218329 106.000906,21.8814838 106.000906,22.6008883 L106.000906,32.769261 L112.033542,32.769261 L112.033542,21.0041853 C112.033542,20.8591202 112.038349,20.7219498 112.038349,20.5788584 C112.058538,18.5232761 112.209474,17.0686777 112.495965,16.2357869 C112.803605,15.3476332 113.296791,14.6538865 113.975523,14.1604678 C114.656177,13.6670491 115.490652,13.4203398 116.486638,13.4203398 C117.481662,13.4203398 118.324789,13.6611281 119.017942,14.1486258 C119.712056,14.6361235 120.226392,15.3515806 120.563835,16.2920367 C120.803218,16.9719676 120.925313,18.4068292 120.934926,20.5788584 C120.934926,20.6558317 120.93781,20.7249103 120.93781,20.805831 L120.93781,32.769261 L126.907958,32.769261 L126.907958,22.4193102 C126.907958,21.7719448 126.898344,21.1660267 126.881039,20.5788584 C126.796438,17.3114397 126.478222,14.9982928 125.922547,13.6670491 C125.922547,13.6670491 126.478222,14.9982928 125.922547,13.6670491 L125.922547,13.6670491 L125.922547,13.6670491 Z M99.1395626,0.257902286 C97.375437,0.257902286 95.9449089,1.7273032 95.9449089,3.53814986 C95.9449089,5.34800969 97.375437,6.81642377 99.1395626,6.81642377 C100.903688,6.81642377 102.335178,5.34800969 102.335178,3.53814986 C102.335178,1.7273032 100.903688,0.257902286 99.1395626,0.257902286 L99.1395626,0.257902286 L99.1395626,0.257902286 L99.1395626,0.257902286 Z M179.145304,14.1150733 C178.028185,12.1108065 176.508249,10.5427219 174.585496,9.41279301 C172.661782,8.28286417 170.539063,7.71839317 168.222146,7.71839317 C164.810221,7.71839317 161.898212,8.96180831 159.485157,11.4565333 C157.071141,13.9463241 155.865575,16.9739413 155.865575,20.5364244 L155.865575,20.5788584 C155.877112,24.3771956 157.239382,27.5419832 159.95527,30.0761817 C162.344291,32.2916317 165.093827,33.3988633 168.198111,33.3988633 C170.443887,33.3988633 172.55603,32.8215634 174.534543,31.670911 C176.506326,30.5163112 178.046451,28.9521739 179.155879,26.9775122 C180.265308,25.0028505 180.81906,22.8702949 180.81906,20.5788584 C180.81906,18.2755799 180.261462,16.1203269 179.145304,14.1150733 C179.145304,14.1150733 180.261462,16.1203269 179.145304,14.1150733 L179.145304,14.1150733 L179.145304,14.1150733 Z M174.800844,20.5788584 C174.796999,22.6660195 174.189409,24.3604194 172.976152,25.6650185 C171.755204,26.9735649 170.19489,27.6268512 168.298095,27.6268512 C166.445522,27.6268512 164.898668,26.9656702 163.663299,25.6413344 C162.437544,24.3239064 161.819379,22.6354276 161.815534,20.5788584 C161.815534,20.5729374 161.813611,20.5660295 161.813611,20.557148 C161.813611,18.4334739 162.424085,16.7124294 163.644072,15.3940146 C164.86502,14.0775735 166.408029,13.4203398 168.276944,13.4203398 C170.146821,13.4203398 171.701367,14.0854682 172.942504,15.4176987 C174.184602,16.7489424 174.807574,18.4620921 174.807574,20.557148 C174.807574,20.5660295 174.800844,20.5729374 174.800844,20.5788584 C174.800844,20.5788584 174.800844,20.5729374 174.800844,20.5788584 L174.800844,20.5788584 L174.800844,20.5788584 Z M153.784195,19.5604422 C153.662101,17.5936752 153.117,15.7423682 152.150817,14.0025738 C151.046196,12.0160701 149.54068,10.4618012 147.631387,9.3437144 C145.724977,8.22365393 143.622447,7.66313027 141.325719,7.66313027 C137.943597,7.66313027 135.058507,8.89667704 132.667564,11.3677179 C130.27662,13.8357983 129.079707,16.8357841 129.079707,20.3666884 C129.079707,20.3805041 129.080668,20.3953066 129.080668,20.4101092 L129.079707,20.4101092 C129.090282,24.1729203 130.439093,27.3090896 133.130947,29.8205908 C135.50074,32.0163041 138.224319,33.1126804 141.299762,33.1126804 C143.527271,33.1126804 145.618265,32.5422884 147.575627,31.3995307 C147.677533,31.3393336 147.765018,31.2672945 147.865963,31.2041369 L147.865963,33.9791237 C147.862117,36.0465481 147.214149,37.7350269 146.010506,39.0297576 C144.801095,40.3254751 143.255201,40.9748142 141.376672,40.9748142 C139.571207,40.9748142 138.061846,40.338304 136.850512,39.0721916 L133.006929,43.2988163 C133.0425,43.3313819 133.072303,43.3688817 133.105951,43.4014474 C135.475744,45.5961738 138.200285,46.693537 141.276689,46.693537 C143.503237,46.693537 145.596153,46.123145 147.552554,44.9794004 C149.508955,43.8386163 151.03562,42.2882948 152.137358,40.3304093 C153.234288,38.3725239 153.784195,36.259705 153.784195,33.9899789 L153.784195,21.1956318 C153.797655,20.9360935 153.806307,20.6745816 153.806307,20.4101092 L153.809191,20.4101092 C153.809191,20.1259 153.8015,19.8426777 153.784195,19.5624159 L153.784195,19.5604422 L153.784195,19.5604422 L153.784195,19.5604422 L153.784195,19.5604422 Z M147.847696,20.4101092 L147.844812,20.4101092 C147.841928,22.4775336 147.238184,24.156144 146.034541,25.4489011 C144.824168,26.7465923 143.28212,27.3939576 141.398784,27.3939576 C139.559671,27.3939576 138.031082,26.7386976 136.80725,25.4262038 C135.589186,24.1216047 134.978712,22.4469416 134.973905,20.4101092 L134.974867,20.4101092 C134.974867,20.4022145 134.973905,20.3962935 134.973905,20.3874119 C134.973905,18.2824877 135.578611,16.5772327 136.788984,15.2706599 C137.995511,13.9660609 139.527945,13.3117877 141.379556,13.3117877 C143.231167,13.3117877 144.773215,13.9719819 146.003777,15.2933572 C147.233377,16.6137457 147.849619,18.311106 147.849619,20.3874119 C147.849619,20.3962935 147.847696,20.4022145 147.847696,20.4101092 L147.847696,20.4101092 Z" id="Fill-2"/></g></g></g></g></svg>