<?xml version="1.0" encoding="UTF-8"?><svg width="73px" height="73px" viewBox="0 0 73 73" version="1.1" xmlns="http://www.w3.org/2000/svg" xmlns:xlink="http://www.w3.org/1999/xlink"><title>achievmement_gold_skills_1</title><desc>Created with Sketch.</desc><defs/><g id="Page-1" stroke="none" stroke-width="1" fill="none" fill-rule="evenodd"><g id="color" transform="translate(-29.000000, -447.000000)"><g id="achievmement_gold_skills_1" transform="translate(27.000000, 445.000000)"><g id="gold-badge-bg-copy"><path d="M9.0203536,47.7511662 L29.7181339,68.4489465 C34.6993809,73.4301934 42.7714818,73.4286308 47.7511662,68.4489465 L68.4489465,47.7511662 C73.4301934,42.7699192 73.4286308,34.6978183 68.4489465,29.7181339 L47.7511662,9.0203536 C42.7699192,4.03910668 34.6978183,4.04066925 29.7181339,9.0203536 L9.0203536,29.7181339 C4.03910668,34.6993809 4.04066925,42.7714818 9.0203536,47.7511662 Z M7.25258665,49.5189331 C1.29609921,43.5624457 1.29552129,33.9074323 7.25258665,27.950367 L27.950367,7.25258665 C33.9068544,1.29609921 43.5618678,1.29552129 49.5189331,7.25258665 L70.2167134,27.950367 C76.1732009,33.9068544 76.1737788,43.5618678 70.2167134,49.5189331 L49.5189331,70.2167134 C43.5624457,76.1732009 33.9074323,76.1737788 27.950367,70.2167134 L7.25258665,49.5189331 Z" id="Mask" fill="#762FAD" fill-rule="nonzero"/><rect id="Mask-Copy" fill="#A560E8" transform="translate(38.734650, 38.734650) rotate(-45.000000) translate(-38.734650, -38.734650)" x="11.3478298" y="11.3478298" width="54.7736404" height="54.7736404" rx="12.75"/><polygon id="Rectangle-12" fill="#B76DFF" transform="translate(42.692914, 34.692914) rotate(-45.000000) translate(-42.692914, -34.692914)" points="51.6445011 7.30923394 51.6445011 62.0673957 34.4300531 62.0765937 33.7413265 7.60340799"/></g><g id="crown" transform="translate(24.000000, 23.000000)"><rect id="Rectangle-18" fill="#8A4CC7" x="2" y="24.3875" width="26" height="7.6125" rx="3.60000014"/><rect id="Rectangle-18" fill="#8A4CC7" x="2" y="13.5125" width="26" height="7.6125" rx="3.60000014"/><rect id="Mask" fill="#AF70E6" x="4.45945946" y="23.3875" width="21.0810811" height="3.2625" rx="1.08000004"/><path d="M4.45945946,24.4738653 L4.45945946,25.5636347 C4.45945946,26.1686069 4.94048306,26.65 5.53385573,26.65 L24.4661443,26.65 C25.0606239,26.65 25.5405405,26.1636177 25.5405405,25.5636347 L25.5405405,24.4738653 C25.5405405,23.8688931 25.0595169,23.3875 24.4661443,23.3875 L5.53385573,23.3875 C4.93937615,23.3875 4.45945946,23.8738823 4.45945946,24.4738653 Z M2.45945946,24.4738653 C2.45945946,22.7741701 3.82987601,21.3875 5.53385573,21.3875 L24.4661443,21.3875 C26.1693489,21.3875 27.5405405,22.7695687 27.5405405,24.4738653 L27.5405405,25.5636347 C27.5405405,27.2633299 26.170124,28.65 24.4661443,28.65 L5.53385573,28.65 C3.83065109,28.65 2.45945946,27.2679313 2.45945946,25.5636347 L2.45945946,24.4738653 Z" id="Mask-Copy-4" fill="#762FAD" fill-rule="nonzero"/><path d="M2.47117543,4.53172911 C2.40499842,3.93430662 2.72915484,3.74234362 3.2130028,4.11674423 L8.51672693,8.22075577 C8.99260389,8.58898844 9.68279066,8.5180041 10.0635543,8.05583282 L14.6661754,2.46916718 C15.0445876,2.00985008 15.6535941,2.02729149 16.0183009,2.49764047 L20.3060234,8.02735953 C20.6743695,8.50240199 21.3510134,8.57957688 21.8049542,8.20983108 L26.8166674,4.12766892 C27.276158,3.75340271 27.5952712,3.93187226 27.5288246,4.53172911 L26.3630673,15.0557709 C26.2968903,15.6531934 25.7526687,16.1375 25.1586733,16.1375 L4.84132674,16.1375 C4.24233528,16.1375 3.70337935,15.6556277 3.63693268,15.0557709 L2.47117543,4.53172911 Z" id="Mask-Copy-3" fill="#AF70E6"/><polygon id="Rectangle-8" fill="#D299FF" opacity="0.400000006" points="9.35135135 6.92349336 15.3923177 0 21.3513514 7.08001026 21.3513514 18 9.35135135 18"/><path d="M2.47117543,4.53172911 L3.63693268,15.0557709 C3.70337935,15.6556277 4.24233528,16.1375 4.84132674,16.1375 L25.1586733,16.1375 C25.7526687,16.1375 26.2968903,15.6531934 26.3630673,15.0557709 L27.5288246,4.53172911 C27.5952712,3.93187226 27.276158,3.75340271 26.8166674,4.12766892 L21.8049542,8.20983108 C21.3510134,8.57957688 20.6743695,8.50240199 20.3060234,8.02735953 L16.0183009,2.49764047 C15.6535941,2.02729149 15.0445876,2.00985008 14.6661754,2.46916718 L10.0635543,8.05583282 C9.68279066,8.5180041 8.99260389,8.58898844 8.51672693,8.22075577 L3.2130028,4.11674423 C2.72915484,3.74234362 2.40499842,3.93430662 2.47117543,4.53172911 Z M9.0682004,6.11864051 L13.1225641,1.19745015 C14.3204598,-0.256556676 16.4522082,-0.206647452 17.5988279,1.27210607 L21.2982226,6.04308033 L25.5535923,2.57697836 C27.4168775,1.05928733 29.7779676,2.39298722 29.5166662,4.75192406 L28.3509089,15.2759658 C28.1727062,16.8847169 26.7738644,18.1375 25.1586733,18.1375 L4.84132674,18.1375 C3.22139479,18.1375 1.82759165,16.8874053 1.64909109,15.2759658 L0.483333836,4.75192406 C0.223214344,2.40365782 2.5529537,1.07715514 4.43695803,2.53499407 L9.0682004,6.11864051 Z" id="Mask" fill="#762FAD" fill-rule="nonzero"/><path d="M25.6378149,14.2211177 L26.5412786,7.92435683 C26.6393273,7.2409991 26.1648405,6.60754407 25.4814828,6.50949542 C24.798125,6.41144677 24.16467,6.88593353 24.0666214,7.56929126 L23.1631577,13.8660521 C23.065109,14.5494099 23.5395958,15.1828649 24.2229535,15.2809135 C24.9063112,15.3789622 25.5397663,14.9044754 25.6378149,14.2211177 Z" id="Line" fill="#A462DB" fill-rule="nonzero"/><path d="M12.5723587,10.2086419 L16.0128159,6.03186328 C16.4078456,5.55228998 16.3393094,4.84328421 15.8597361,4.44825456 C15.3801628,4.05322491 14.671157,4.12176108 14.2761274,4.60133437 L10.3223587,9.4012826 L10.3223587,13.9964778 C10.3223587,14.6177982 10.8260384,15.1214778 11.4473587,15.1214778 C12.0686791,15.1214778 12.5723587,14.6177982 12.5723587,13.9964778 L12.5723587,10.2086419 Z" id="Line" fill="#E1BAFF" fill-rule="nonzero"/><path d="M6.5,26.5 L24.0071414,26.5 C24.5594261,26.5 25.0071414,26.0522847 25.0071414,25.5 C25.0071414,24.9477153 24.5594261,24.5 24.0071414,24.5 L6.5,24.5 C5.94771525,24.5 5.5,24.9477153 5.5,25.5 C5.5,26.0522847 5.94771525,26.5 6.5,26.5 Z" id="Line" fill="#A462DB" fill-rule="nonzero"/><path d="M4.1208645,9.76136287 L4.60939728,14.1696185 C4.67783441,14.7871582 5.23392855,15.2322938 5.85146828,15.1638567 C6.46900802,15.0954196 6.91414363,14.5393254 6.84570649,13.9217857 L6.35717372,9.51353007 C6.28873658,8.89599033 5.73264245,8.45085472 5.11510271,8.51929186 C4.49756297,8.587729 4.05242737,9.14382313 4.1208645,9.76136287 Z" id="Line" fill="#E1BAFF" fill-rule="nonzero"/></g></g></g></g></svg>