<?xml version="1.0" encoding="UTF-8"?><svg width="214px" height="115px" viewBox="0 0 214 115" version="1.1" xmlns="http://www.w3.org/2000/svg" xmlns:xlink="http://www.w3.org/1999/xlink"><title>Group 8</title><desc>Created with Sketch.</desc><defs/><g id="Page-1" stroke="none" stroke-width="1" fill="none" fill-rule="evenodd"><g id="Badges-from-home---Existing-users-Copy-3" transform="translate(-53.000000, -208.000000)"><g id="Group-5" transform="translate(24.000000, 106.000000)"><g id="modal"><g id="Group-8" transform="translate(26.000000, 98.000000)"><g id="red-lingot" transform="translate(0.000000, 16.000000)"><path d="M10.6393914,56.3218883 L35.052158,80.7346548 C40.9274749,86.6099717 50.4484144,86.6081287 56.3218883,80.7346548 L80.7346548,56.3218883 C86.6099717,50.4465714 86.6081287,40.9256318 80.7346548,35.052158 L56.3218883,10.6393914 C50.4465714,4.76407455 40.9256318,4.76591758 35.052158,10.6393914 L10.6393914,35.052158 C4.76407455,40.9274749 4.76591758,50.4484144 10.6393914,56.3218883 Z M8.55433297,58.4069467 C1.5287324,51.3813462 1.52805075,39.9933817 8.55433297,32.9670995 L32.9670995,8.55433297 C39.9927001,1.5287324 51.3806645,1.52805075 58.4069467,8.55433297 L82.8197133,32.9670995 C89.8453139,39.9927001 89.8459955,51.3806645 82.8197133,58.4069467 L58.4069467,82.8197133 C51.3813462,89.8453139 39.9933817,89.8459955 32.9670995,82.8197133 L8.55433297,58.4069467 Z" id="Mask" fill="#AD1F1F" fill-rule="nonzero"/><rect id="Mask-Copy" fill="#E53838" transform="translate(45.687023, 45.687023) rotate(-45.000000) translate(-45.687023, -45.687023)" x="13.3846198" y="13.3846198" width="64.6048066" height="64.6048066" rx="15.0651984"/><polygon id="Rectangle-12" fill="#F34B4B" opacity="0.699999988" transform="translate(49.511257, 41.978005) rotate(-45.000000) translate(-49.511257, -41.978005)" points="61.1308912 9.28414034 61.6258152 74.6718689 37.4552315 74.1294726 37.3966995 9.51797721"/><path d="M45.4102564,28.6179882 L62.374359,37.6855227 L62.374359,62.4169963 L62.374359,62.4169963 C62.374359,63.2445912 61.941427,64.0118836 61.2330364,64.4397809 L46.6321022,73.2593509 L46.6321022,73.2593509 C45.8807548,73.7131959 44.939758,73.7131959 44.1884106,73.2593509 L29.5874764,64.4397809 L29.5874764,64.4397809 C28.8790858,64.0118836 28.4461538,63.2445912 28.4461538,62.4169963 L28.4461538,37.6855227 L45.4102564,28.6179882 Z" id="Shape" fill="#DC2E2E" fill-rule="nonzero"/><path d="M46.5873866,23.3967593 L60.0088336,31.1067625 L60.0088336,31.1067625 C60.7425093,31.5282254 61.1948718,32.3097761 61.1948718,33.1558914 L61.1948718,56.4851343 L61.1948718,56.4851343 C61.1948718,57.3312495 60.7425093,58.1128003 60.0088336,58.5342632 L46.5873866,66.2442663 L46.5873866,66.2442663 C45.8584869,66.6629856 44.9620259,66.6629856 44.2331262,66.2442663 L30.8116792,58.5342632 L30.8116792,58.5342632 C30.0780035,58.1128003 29.625641,57.3312495 29.625641,56.4851343 L29.625641,33.1558914 L29.625641,33.1558914 C29.625641,32.3097761 30.0780035,31.5282254 30.8116792,31.1067625 L44.2331262,23.3967593 L44.2331262,23.3967593 C44.9620259,22.9780401 45.8584869,22.9780401 46.5873866,23.3967593 Z" id="Shape-Copy" fill="#F15555" fill-rule="nonzero"/><path d="M44.8216913,24.4213238 L31.4002443,32.1313269 C31.0334064,32.3420584 30.8072252,32.7328337 30.8072252,33.1558914 L30.8072252,56.4851343 C30.8072252,56.9081919 31.0334064,57.2989673 31.4002443,57.5096987 L44.8216913,65.2197018 C45.1861411,65.4290615 45.6343717,65.4290615 45.9988215,65.2197018 L59.4202685,57.5096987 C59.7871064,57.2989673 60.0132876,56.9081919 60.0132876,56.4851343 L60.0132876,33.1558914 C60.0132876,32.7328337 59.7871064,32.3420584 59.4202685,32.1313269 L45.9988215,24.4213238 C45.6343717,24.2119642 45.1861411,24.2119642 44.8216913,24.4213238 Z M60.5973987,30.082198 C61.6979123,30.7143924 62.376456,31.8867184 62.376456,33.1558914 L62.376456,56.4851343 C62.376456,57.7543072 61.6979123,58.9266333 60.5973987,59.5588276 L47.1759517,67.2688308 C46.0826022,67.8969097 44.7379106,67.8969097 43.6445611,67.2688308 L30.2231141,59.5588276 C29.1226005,58.9266333 28.4440568,57.7543072 28.4440568,56.4851343 L28.4440568,33.1558914 C28.4440568,31.8867184 29.1226005,30.7143924 30.2231141,30.082198 L43.6445611,22.3721949 C44.7379106,21.744116 46.0826022,21.744116 47.1759517,22.3721949 L60.5973987,30.082198 Z" id="Shape-Copy-4" fill="#AD1F1F" fill-rule="nonzero"/><path d="M45.3859994,65.0609396 C45.3859994,65.0609396 46.3276306,65.0465029 46.8655866,64.7259632 C47.4035426,64.4054236 57.7235424,58.4893753 58.5020997,58.0307211 C59.280657,57.572067 59.5903054,56.8893431 59.5903054,56.8893431 L53.5504301,51.5114704 L45.3859994,55.8659196 L45.3859994,65.0609396 Z" id="Shape" fill="#D74646" fill-rule="nonzero" opacity="0.830729167"/><path d="M45.4448718,24.5888132 C45.4448718,24.5888132 44.4540266,24.6181305 44.0908064,24.8249845 C43.7975071,24.9920184 33.0535738,31.1917504 32.2957279,31.6259372 C31.5378819,32.060124 31.2179294,32.7579315 31.2179294,32.7579315 L36.5386114,37.5325195 L45.4448718,34.2704536 L45.4448718,24.5888132 Z" id="Shape" fill="#F8A8A8" fill-rule="nonzero" opacity="0.443048007"/><polygon id="Shape" fill="#ED5050" fill-rule="nonzero" points="45.4102564 31.9949507 54.5487179 37.2699803 54.5487179 52.3710454 45.4102564 57.646075 36.2717949 52.3710454 36.2717949 37.2699803"/><path d="M37.4533791,37.952237 L37.4533791,51.6887886 L45.4102564,56.2817678 L53.3671338,51.6887886 L53.3671338,37.952237 L45.4102564,33.3592578 L37.4533791,37.952237 Z M46.0009592,30.9716172 L55.1394207,36.2466468 C55.5050545,36.457703 55.7303021,36.8478041 55.7303021,37.2699803 L55.7303021,52.3710454 C55.7303021,52.7932216 55.5050545,53.1833227 55.1394207,53.3943789 L46.0009592,58.6694084 C45.6354212,58.8804094 45.1850917,58.8804094 44.8195536,58.6694084 L35.6810921,53.3943789 C35.3154583,53.1833227 35.0902107,52.7932216 35.0902107,52.3710454 L35.0902107,37.2699803 C35.0902107,36.8478041 35.3154583,36.457703 35.6810921,36.2466468 L44.8195536,30.9716172 C45.1850917,30.7606163 45.6354212,30.7606163 46.0009592,30.9716172 Z" id="Shape-Copy-3" fill="#AD1F1F" fill-rule="nonzero"/><polygon id="Line" fill="#AD1F1F" fill-rule="nonzero" points="46.5918406 32.4555338 46.5918406 23.5897436 44.2286722 23.5897436 44.2286722 32.4555338"/><polygon id="Line-Copy-5" fill="#AD1F1F" fill-rule="nonzero" points="46.5918406 65.4811748 46.5918406 56.6153846 44.2286722 56.6153846 44.2286722 65.4811748"/><path d="M49.1532209,36.994475 L38.235557,46.1388825 L38.235557,46.1388825 C37.9675191,46.3633855 37.812672,46.6950695 37.812672,47.0447064 L37.812672,49.1807529 L37.812672,49.1807529 C37.812672,49.870135 38.3715266,50.4289897 39.0609087,50.4289897 C39.3556965,50.4289897 39.6409718,50.3246592 39.8662066,50.1344774 L52.2010757,39.7192653 L52.2010757,39.7192653 C52.6996774,39.2982603 52.7625819,38.5527718 52.3415768,38.0541702 C52.257755,37.9548989 52.158134,37.8701321 52.0467247,37.8032826 L50.519866,36.8871143 L50.519866,36.8871143 C50.0879939,36.627976 49.5393303,36.6710778 49.1532209,36.994475 Z" id="Shape" fill="#F8A8A8" fill-rule="nonzero"/><path d="M51.3790893,43.2565162 L41.5511071,51.7301798 L41.5511071,51.7301798 C41.088614,52.1289403 41.0061684,52.814428 41.3609194,53.3114809 L41.4274664,53.404722 L41.4274664,53.404722 C41.7762229,53.8933757 42.455078,54.0067849 42.9437318,53.6580284 C42.9710125,53.6385579 42.9973782,53.617836 43.0227443,53.5959293 L53.0026635,44.9770327 L53.0026635,44.9770327 C53.4563168,44.5852469 53.5064703,43.8998832 53.1146845,43.4462299 C53.093763,43.4220047 53.07178,43.3987168 53.0488001,43.3764346 L52.9731871,43.3031175 L52.9731871,43.3031175 C52.5340022,42.8772677 51.8424013,42.8570497 51.3790893,43.2565162 Z" id="Shape-Copy-2" fill="#F8A8A8" fill-rule="nonzero"/><polygon id="Line" fill="#AD1F1F" fill-rule="nonzero" points="36.8589472 35.7322252 31.0126583 31.2986724 29.5847108 33.1816304 35.4309997 37.6151832"/><circle id="Oval-11-Copy" fill="#F8A8A8" cx="40.6923077" cy="39.5128205" r="1.76923077"/><polygon id="Line" fill="#AD1F1F" fill-rule="nonzero" points="55.004634 38.6580855 61.4918135 33.3503931 59.995366 31.5214017 53.5081865 36.829094"/><polygon id="Line" fill="#AD1F1F" fill-rule="nonzero" points="53.5698466 53.5011825 59.9019431 58.1709361 61.3045506 56.2690273 54.972454 51.5992737"/><polygon id="Line" fill="#AD1F1F" fill-rule="nonzero" points="35.5264151 51.794948 29.9673974 56.569396 31.5071065 58.3621204 37.0661242 53.5876724"/></g><g id="Group-4-Copy" transform="translate(128.000000, 16.000000)"><g id="Group-6-Copy-2"><g id="blue-badge-bg-copy"><path d="M10.6393914,56.3218883 L35.052158,80.7346548 C40.9274749,86.6099717 50.4484144,86.6081287 56.3218883,80.7346548 L80.7346548,56.3218883 C86.6099717,50.4465714 86.6081287,40.9256318 80.7346548,35.052158 L56.3218883,10.6393914 C50.4465714,4.76407455 40.9256318,4.76591758 35.052158,10.6393914 L10.6393914,35.052158 C4.76407455,40.9274749 4.76591758,50.4484144 10.6393914,56.3218883 Z M8.55433297,58.4069467 C1.5287324,51.3813462 1.52805075,39.9933817 8.55433297,32.9670995 L32.9670995,8.55433297 C39.9927001,1.5287324 51.3806645,1.52805075 58.4069467,8.55433297 L82.8197133,32.9670995 C89.8453139,39.9927001 89.8459955,51.3806645 82.8197133,58.4069467 L58.4069467,82.8197133 C51.3813462,89.8453139 39.9933817,89.8459955 32.9670995,82.8197133 L8.55433297,58.4069467 Z" id="Border" fill="#6E7E8A" fill-rule="nonzero"/><rect id="Mask-Copy" fill="#AFBDC9" transform="translate(45.687023, 45.687023) rotate(-45.000000) translate(-45.687023, -45.687023)" x="13.3846198" y="13.3846198" width="64.6048066" height="64.6048066" rx="15.1470005"/><polygon id="Rectangle-12" fill="#E5EDF3" transform="translate(50.382266, 40.946368) rotate(-45.000000) translate(-50.382266, -40.946368)" points="60.9416125 8.61122644 60.6394334 73.2706615 40.3352127 73.2815104 39.8229192 8.64841266"/></g><path d="M28.3076923,53.0769231 C28.3076923,62.8481148 36.2288083,70.7692308 46,70.7692308 C55.7711917,70.7692308 63.6923077,62.8481148 63.6923077,53.0769231 L63.6923077,38.9571284 C63.6923077,36.3326711 61.5647647,34.2051282 58.9403075,34.2051282 L33.0596925,34.2051282 L33.0596925,34.2051282 C30.4352353,34.2051282 28.3076923,36.3326711 28.3076923,38.9571284 L28.3076923,38.9571284 L28.3076923,53.0769231 Z" id="Combined-Shape-Copy-3" fill="#94A3AF" opacity="0.701766304"/><path d="M28.3076923,48.3589744 C28.3076923,58.1301661 36.2288083,66.0512821 46,66.0512821 C55.7711917,66.0512821 63.6923077,58.1301661 63.6923077,48.3589744 L63.6923077,34.2391797 C63.6923077,31.6147224 61.5647647,29.4871795 58.9403075,29.4871795 L33.0596925,29.4871795 L33.0596925,29.4871795 C30.4352353,29.4871795 28.3076923,31.6147224 28.3076923,34.2391797 L28.3076923,34.2391797 L28.3076923,48.3589744 Z" id="Combined-Shape-Copy-5" fill="#AFBDC9"/><g id="Rectangle-6" transform="translate(28.307692, 29.487179)"><path d="M1.18800004,18.8717949 C1.18800004,27.9868723 8.57723027,35.3761025 17.6923077,35.3761025 C26.8073851,35.3761025 34.1966153,27.9868723 34.1966153,18.8717949 L34.1966153,3.56400012 C34.1966153,2.25177151 33.1328439,1.18800004 31.8206153,1.18800004 L3.56400012,1.18800004 C2.25177151,1.18800004 1.18800004,2.25177151 1.18800004,3.56400012 L1.18800004,18.8717949 Z" id="Combined-Shape" stroke="#6E7E8A" stroke-width="2.37600008"/><path d="M8.84940136,27.7950088 C11.2892047,30.0117851 14.3998055,31.2564103 17.6923077,31.2564103 C23.0829738,31.2564103 27.8772961,27.9105766 30.0530046,22.8386504 C30.4346337,21.9490116 30.6180407,20.4222804 30.726534,18.1803485 C30.7683309,17.316647 30.7940286,16.3978507 30.806796,15.4658296 C30.8154785,14.8320042 30.8172483,14.2728591 30.8150734,13.8316556 C30.8144814,13.7300125 30.8144814,13.7300125 30.8142609,13.7057522 C30.8052904,12.7286742 30.0059401,11.943868 29.0288622,11.9528385 C28.0517842,11.961809 27.266978,12.7611593 27.2759485,13.7382373 C27.2761078,13.7553336 27.2761078,13.7553336 27.2766548,13.8490981 C27.2787274,14.2695526 27.277026,14.8071095 27.2686664,15.4173622 C27.25642,16.3113467 27.2318285,17.1905962 27.1922085,18.0093127 C27.107061,19.7688206 26.9466009,21.1045354 26.8011157,21.4436848 C25.1693394,25.2476177 21.6295451,27.7179487 17.6923077,27.7179487 C15.2951062,27.7179487 13.0281719,26.8108945 11.2289071,25.176104 C10.5057165,24.5190216 9.3867842,24.5726129 8.72970183,25.2958035 C8.07261946,26.0189941 8.12621076,27.1379264 8.84940136,27.7950088 Z" id="Combined-Shape-Copy-6" fill="#A2B1BD" fill-rule="nonzero"/></g><path d="M34.7364051,37.7435897 C35.7135242,37.7435897 36.5056358,36.9514781 36.5056358,35.974359 C36.5056358,34.9972398 35.7135242,34.2051282 34.7364051,34.2051282 C33.7592859,34.2051282 32.9671743,34.9972398 32.9671743,35.974359 C32.9671743,36.9514781 33.7592859,37.7435897 34.7364051,37.7435897 Z" id="Path-4" fill="#E5EDF3" fill-rule="nonzero"/><polygon id="Line" fill="#6E7E8A" fill-rule="nonzero" points="31.5263326 54.0691178 47.8734956 31.8105604 45.9584715 30.4041255 29.6113085 52.662683"/><path d="M40.633841,37.7435897 L57.2051282,37.7435897 C58.1822474,37.7435897 58.974359,36.9514781 58.974359,35.974359 C58.974359,34.9972398 58.1822474,34.2051282 57.2051282,34.2051282 L40.633841,34.2051282 C39.6567218,34.2051282 38.8646102,34.9972398 38.8646102,35.974359 C38.8646102,36.9514781 39.6567218,37.7435897 40.633841,37.7435897 Z" id="Path-4-Copy" fill="#E5EDF3" fill-rule="nonzero"/></g><path d="M60.3210389,27.4656788 L65.6872417,27.4656788 L65.6872417,27.4656788 C66.1596441,27.4656788 66.5426018,27.8486365 66.5426018,28.3210389 L66.5426018,33.6872417 L66.5426018,33.6872417 C66.5426018,34.1596441 66.1596441,34.5426018 65.6872417,34.5426018 L60.3210389,34.5426018 L60.3210389,34.5426018 C59.8486365,34.5426018 59.4656788,34.1596441 59.4656788,33.6872417 L59.4656788,28.3210389 L59.4656788,28.3210389 C59.4656788,27.8486365 59.8486365,27.4656788 60.3210389,27.4656788 Z" id="Rectangle-2-Copy-13" fill="#FFFFFF" transform="translate(63.004140, 31.004140) rotate(-315.000000) translate(-63.004140, -31.004140)"/></g><g id="g_crown-copy" transform="translate(48.000000, 0.000000)"><path d="M14.3400493,75.9121103 L47.2442129,108.816274 C55.1631183,116.735179 67.995689,116.732695 75.9121103,108.816274 L108.816274,75.9121103 C116.735179,67.9932049 116.732695,55.1606342 108.816274,47.2442129 L75.9121103,14.3400493 C67.9932049,6.42114395 55.1606342,6.42362805 47.2442129,14.3400493 L14.3400493,47.2442129 C6.42114395,55.1631183 6.42362805,67.995689 14.3400493,75.9121103 Z M11.5297531,78.7224065 C2.06046541,69.2531188 2.05954667,53.9041232 11.5297531,44.4339167 L44.4339167,11.5297531 C53.9032045,2.06046541 69.2522,2.05954667 78.7224065,11.5297531 L111.62657,44.4339167 C121.095858,53.9032045 121.096777,69.2522 111.62657,78.7224065 L78.7224065,111.62657 C69.2531188,121.095858 53.9041232,121.096777 44.4339167,111.62657 L11.5297531,78.7224065 Z" id="Border" fill="#D97C1F" fill-rule="nonzero"/><rect id="Mask-Copy" fill="#FFB103" transform="translate(61.578162, 61.578162) rotate(-45.000000) translate(-61.578162, -61.578162)" x="18.0401398" y="18.0401398" width="87.0760437" height="87.0760437" rx="20.196002"/><polygon id="Rectangle-12-Copy-2" fill="#FFD986" transform="translate(67.906532, 55.188584) rotate(-45.000000) translate(-67.906532, -55.188584)" points="82.1386952 11.6064356 81.7314103 98.756109 54.3648519 98.7707314 53.6743693 11.6565562"/><rect id="Rectangle-18" fill="#ED9312" x="41.3333333" y="75.3339744" width="41.3333333" height="12.1019231" rx="5.7024008"/><rect id="Rectangle-18" fill="#ED9312" x="41.3333333" y="58.0455128" width="41.3333333" height="12.1019231" rx="5.7024008"/><rect id="Mask" fill="#FFB103" x="45.2432432" y="73.7442308" width="33.5135135" height="5.18653846" rx="1.71072024"/><path d="M46.9539635,73.7442308 C46.0091588,73.7442308 45.2432432,74.5101463 45.2432432,75.454951 L45.2432432,77.220049 C45.2432432,78.1648537 46.0091588,78.9307692 46.9539635,78.9307692 L77.0460365,78.9307692 C77.9908412,78.9307692 78.7567568,78.1648537 78.7567568,77.220049 L78.7567568,75.454951 C78.7567568,74.5101463 77.9908412,73.7442308 77.0460365,73.7442308 L46.9539635,73.7442308 Z M46.9539635,69.7525502 L77.0460365,69.7525502 C80.1953855,69.7525502 82.7484373,72.305602 82.7484373,75.454951 L82.7484373,77.220049 C82.7484373,80.369398 80.1953855,82.9224498 77.0460365,82.9224498 L46.9539635,82.9224498 C43.8046145,82.9224498 41.2515627,80.369398 41.2515627,77.220049 L41.2515627,75.454951 C41.2515627,72.305602 43.8046145,69.7525502 46.9539635,69.7525502 Z" id="Mask-Copy-2" fill="#D97C1F" fill-rule="nonzero"/><path d="M45.0834275,44.518322 L51.7508267,49.6775427 L51.7508267,49.6775427 C52.4819521,50.2432862 53.5302726,50.1258494 54.1180927,49.4123528 L61.1977173,40.819098 L61.1977173,40.819098 C61.7984795,40.0898924 62.8766313,39.9857684 63.6058369,40.5865305 C63.7036951,40.6671518 63.7922871,40.7584023 63.8699806,40.8586008 L70.4217814,49.3082188 L70.4217814,49.3082188 C71.0007267,50.0548635 72.0753297,50.1908106 72.8219743,49.6118653 C72.8327795,49.603487 72.8434839,49.5949794 72.8540852,49.5863444 L78.8672013,44.6885152 L78.8672013,44.6885152 C79.5997512,44.0918356 80.6773046,44.2019801 81.2739843,44.93453 C81.5636877,45.2902018 81.6984106,45.7473217 81.6479059,46.2032601 L80.0425086,60.6962155 L80.0425086,60.6962155 C79.9465129,61.5628307 79.214104,62.2185897 78.3421882,62.2185897 L45.6578118,62.2185897 L45.6578118,62.2185897 C44.785896,62.2185897 44.0534871,61.5628307 43.9574914,60.6962155 L42.3361846,46.059634 L42.3361846,46.059634 C42.2321639,45.120573 42.909098,44.2749882 43.848159,44.1709676 C44.2893874,44.1220924 44.7323366,44.2466486 45.0834275,44.518322 Z" id="Mask" fill="#FFB103"/><polygon id="Rectangle-8" fill="#FFB91B" points="53.020097 48.5641026 62.4646366 37.5641026 72.0970201 48.5641026 72.0970201 65.1794872 53.020097 65.1794872"/><path d="M43.848159,44.1709676 C42.909098,44.2749882 42.2321639,45.120573 42.3361846,46.059634 L43.9574914,60.6962155 C44.0534871,61.5628307 44.785896,62.2185897 45.6578118,62.2185897 L78.3421882,62.2185897 C79.214104,62.2185897 79.9465129,61.5628307 80.0425086,60.6962155 L81.6479059,46.2032601 C81.6984106,45.7473217 81.5636877,45.2902018 81.2739843,44.93453 C80.6773046,44.2019801 79.5997512,44.0918356 78.8672013,44.6885152 L72.8540852,49.5863444 C72.0753297,50.1908106 71.0007267,50.0548635 70.4217814,49.3082188 L63.8699806,40.8586008 C63.7922871,40.7584023 63.7036951,40.6671518 63.6058369,40.5865305 C62.8766313,39.9857684 61.7984795,40.0898924 61.1977173,40.819098 L54.1180927,49.4123528 C53.5302726,50.1258494 52.4819521,50.2432862 51.7508267,49.6775427 L45.0834275,44.518322 C44.7323366,44.2466486 44.2893874,44.1220924 43.848159,44.1709676 Z M58.1169158,38.2809539 C60.1194561,35.8502686 63.7132957,35.5031885 66.143981,37.5057289 C66.4701749,37.7744665 66.7654816,38.078635 67.0244599,38.4126298 L72.1446418,45.0159414 L76.3463051,41.5935845 C78.788138,39.6046523 82.3799828,39.9718009 84.368915,42.4136338 C85.3345929,43.5992066 85.7836691,45.1229395 85.6153202,46.642734 L84.0099229,61.1356894 C83.6899372,64.024407 81.2485742,66.2102703 78.3421882,66.2102703 L45.6578118,66.2102703 C42.7514258,66.2102703 40.3100628,64.024407 39.9900771,61.1356894 L38.3687702,46.499108 C38.0220349,43.3689045 40.2784816,40.5502887 43.4086851,40.2035533 C44.8794463,40.0406358 46.3559437,40.4558232 47.5262466,41.3614014 L52.4439974,45.1667474 L58.1169158,38.2809539 Z" id="Mask" fill="#D97C1F" fill-rule="nonzero"/><path d="M78.9113981,59.1720333 L80.3476737,49.161798 C80.5035459,48.0754345 79.7492336,47.0684034 78.66287,46.9125312 C77.5765065,46.756659 76.5694754,47.5109713 76.4136032,48.5973348 L74.9773276,58.6075701 C74.8214554,59.6939336 75.5757676,60.7009647 76.6621312,60.8568369 C77.7484948,61.0127091 78.7555258,60.2583968 78.9113981,59.1720333 Z" id="Line" fill="#ED9312" fill-rule="nonzero"/><path d="M63.6051303,46.1491105 C64.2308574,45.3894663 64.1222961,44.266401 63.3626519,43.640674 C62.6030077,43.014947 61.4799424,43.1235083 60.8542154,43.8831525 L54.5702111,51.5120498 L54.5702111,58.8149135 C54.5702111,59.799085 55.3680398,60.5969136 56.3522113,60.5969136 C57.3363828,60.5969136 58.1342115,59.799085 58.1342115,58.8149135 L58.1342115,52.7909071 L63.6051303,46.1491105 Z" id="Line" fill="#FFE18B" fill-rule="nonzero"/><path d="M48.4871795,78.6923077 L76.3190453,78.6923077 C77.1970364,78.6923077 77.9087889,77.9805552 77.9087889,77.1025641 C77.9087889,76.224573 77.1970364,75.5128205 76.3190453,75.5128205 L48.4871795,75.5128205 C47.6091883,75.5128205 46.8974359,76.224573 46.8974359,77.1025641 C46.8974359,77.9805552 47.6091883,78.6923077 48.4871795,78.6923077 Z" id="Line" fill="#ED9312" fill-rule="nonzero"/><path d="M44.7113861,52.0814549 L45.488028,59.089451 C45.5964324,60.0676341 46.4772856,60.7727289 47.4554686,60.6643245 C48.4336517,60.5559201 49.1387466,59.6750669 49.0303421,58.6968838 L48.2537003,51.6888877 C48.1452958,50.7107047 47.2644426,50.0056098 46.2862596,50.1140142 C45.3080766,50.2224187 44.6029817,51.1032719 44.7113861,52.0814549 Z" id="Line" fill="#FFE18B" fill-rule="nonzero"/><path d="M22.8145819,67.7766658 L33.0739089,67.7766658 L33.0739089,67.7766658 C33.7037788,67.7766658 34.2143892,68.2872761 34.2143892,68.917146 L34.2143892,79.176473 L34.2143892,79.176473 C34.2143892,79.8063429 33.7037788,80.3169533 33.0739089,80.3169533 L22.8145819,80.3169533 L22.8145819,80.3169533 C22.184712,80.3169533 21.6741017,79.8063429 21.6741017,79.176473 L21.6741017,68.917146 L21.6741017,68.917146 C21.6741017,68.2872761 22.184712,67.7766658 22.8145819,67.7766658 Z" id="Rectangle-2-Copy-5" fill="#FFF0C4" transform="translate(27.944245, 74.046810) rotate(-315.000000) translate(-27.944245, -74.046810)"/><path d="M81.2523762,41.7190698 L88.5098773,41.7190698 L88.5098773,41.7190698 C89.1397471,41.7190698 89.6503575,42.2296802 89.6503575,42.85955 L89.6503575,50.1170511 L89.6503575,50.1170511 C89.6503575,50.746921 89.1397471,51.2575313 88.5098773,51.2575313 L81.2523762,51.2575313 L81.2523762,51.2575313 C80.6225063,51.2575313 80.111896,50.746921 80.111896,50.1170511 L80.111896,42.85955 L80.111896,42.85955 C80.111896,42.2296802 80.6225063,41.7190698 81.2523762,41.7190698 Z" id="Rectangle-2-Copy-6" fill="#FFF0C4" transform="translate(84.881127, 46.488301) rotate(-315.000000) translate(-84.881127, -46.488301)"/></g></g></g></g></g></g></svg>