<?xml version="1.0" encoding="UTF-8"?><svg width="65px" height="80px" viewBox="0 0 65 80" version="1.1" xmlns="http://www.w3.org/2000/svg" xmlns:xlink="http://www.w3.org/1999/xlink"><title>Icon/Achievements/08-Friendly</title><desc>Created with Sketch.</desc><defs/><g id="Page-1" stroke="none" stroke-width="1" fill="none" fill-rule="evenodd"><g id="Icon/Achievements/08-Friendly"><g><path d="M9.140625,7.82490392e-15 L55.859375,7.82490392e-15 L55.859375,7.10542736e-15 C60.9076028,1.06618273e-14 65,4.09239721 65,9.140625 L65,59.9038021 L65,59.9038021 C65,63.4557847 62.942277,66.6861398 59.7232463,68.187613 L36.3059118,79.1103112 L36.3059118,79.1103112 C33.8521636,80.2548288 31.0172759,80.2526274 28.5653082,79.1043002 L5.26389264,68.1915755 L5.26389264,68.1915755 C2.05184671,66.6872818 -8.04494162e-15,63.4606247 -5.32907052e-15,59.9137756 L0,9.140625 L0,9.140625 C-6.18229601e-16,4.09239721 4.09239721,8.03274548e-15 9.140625,7.10542736e-15 Z" id="Shield" fill="#7AC70C"/><g id="Illustration" transform="translate(14.000000, 5.000000)"><g id="Triangle-4-Copy-+-Triangle-4-Copy-2-Mask" transform="translate(3.000000, 1.000000)"><path d="M0,16.3462348 L0,35.0185442 L0,35.0185442 C1.33583248e-16,36.1093342 0.884260005,36.9935942 1.97505,36.9935942 L30.02495,36.9935942 L30.02495,36.9935942 C31.11574,36.9935942 32,36.1093342 32,35.0185442 L32,16.3462348 L32,16.3462348 C32,15.6720533 31.7242901,15.0271985 31.2368906,14.5614064 L17.3645625,1.30406846 L17.3645625,1.30406846 C16.601135,0.574485364 15.398865,0.574485364 14.6354375,1.30406846 L0.763109435,14.5614064 L0.763109435,14.5614064 C0.275709864,15.0271985 -9.70741835e-16,15.6720533 -8.8817842e-16,16.3462348 Z" id="Mask" fill="#EEEEEE"/><polygon id="Triangle-4-Copy" fill="#D2D2D2" transform="translate(16.000000, 24.030972) scale(1, -1) translate(-16.000000, -24.030972)" points="16 16.7704294 32 31.2915142 0 31.2915142"/><path d="M31.7161305,36.0540146 C31.3895729,36.5869261 30.8118406,36.9525584 30.1452918,36.9903559 L1.85470817,36.9903559 C1.19847609,36.9531434 0.628332448,36.5981659 0.299212641,36.0786387 L14.9832397,25.6506999 C15.6737911,25.1603012 16.6046267,25.1635155 17.291698,25.6586713 L31.7161305,36.0540146 L31.7161305,36.0540146 Z" id="Combined-Shape" fill="#FFFFFF"/><g id="Group-14" transform="translate(7.384615, 9.736842)"><path d="M1.96349032,7.81686697 C0.775201169,7.03659419 0,5.75462014 0,4.30541152 C0,1.9275984 2.08693076,0 4.66129032,0 C6.25341672,0 7.65910795,0.737281327 8.5,1.86236721 C9.34089205,0.737281327 10.7465833,0 12.3387097,0 C14.9130692,0 17,1.9275984 17,4.30541152 C17,5.65487913 16.3278325,6.85933966 15.2758716,7.64874104 L9.18929716,12.8684212 C8.85980812,13.1509821 8.37139812,13.154454 8.03783535,12.8766066 L1.96349032,7.81686697 L1.96349032,7.81686697 Z" id="Combined-Shape" fill="#FF5959"/><ellipse id="Oval-9" fill="#FF8585" cx="4" cy="3.94598338" rx="2" ry="1.97299169"/></g></g><path d="M3.13707334,1.69064996 L5.37405483,3.88048084 C5.57996329,4.08204921 5.57996329,4.4088561 5.37405483,4.61042447 L3.13707334,6.80025534 C2.93116488,7.00182371 2.5973213,7.00182371 2.39141284,6.80025534 L0.154431346,4.61042447 C-0.0514771152,4.4088561 -0.0514771152,4.08204921 0.154431346,3.88048084 L2.39141284,1.69064996 C2.5973213,1.48908159 2.93116488,1.48908159 3.13707334,1.69064996 Z" id="Rectangle-20-Copy" fill="#FFFFFF" opacity="0.485507246"/><path d="M40.2432647,14.0064394 L41.7345857,15.4663267 C41.9404941,15.6678951 41.9404941,15.9947019 41.7345857,16.1962703 L40.2432647,17.6561576 C40.0373562,17.8577259 39.7035127,17.8577259 39.4976042,17.6561576 L38.0062832,16.1962703 C37.8003747,15.9947019 37.8003747,15.6678951 38.0062832,15.4663267 L39.4976042,14.0064394 C39.7035127,13.8048711 40.0373562,13.8048711 40.2432647,14.0064394 Z" id="Rectangle-20-Copy-2" fill="#FFFFFF" opacity="0.485507246"/></g></g></g></g></svg>