<?xml version="1.0" encoding="UTF-8"?><svg width="73px" height="73px" viewBox="0 0 73 73" version="1.1" xmlns="http://www.w3.org/2000/svg" xmlns:xlink="http://www.w3.org/1999/xlink"><title>achievement_clubs_1</title><desc>Created with Sketch.</desc><defs/><g id="Page-1" stroke="none" stroke-width="1" fill="none" fill-rule="evenodd"><g id="color" transform="translate(-120.000000, -259.000000)"><g id="achievement_clubs_1" transform="translate(118.000000, 257.000000)"><g id="gold-badge-bg-copy"><path d="M9.0203536,47.7511662 L29.7181339,68.4489465 C34.6993809,73.4301934 42.7714818,73.4286308 47.7511662,68.4489465 L68.4489465,47.7511662 C73.4301934,42.7699192 73.4286308,34.6978183 68.4489465,29.7181339 L47.7511662,9.0203536 C42.7699192,4.03910668 34.6978183,4.04066925 29.7181339,9.0203536 L9.0203536,29.7181339 C4.03910668,34.6993809 4.04066925,42.7714818 9.0203536,47.7511662 Z M7.25258665,49.5189331 C1.29609921,43.5624457 1.29552129,33.9074323 7.25258665,27.950367 L27.950367,7.25258665 C33.9068544,1.29609921 43.5618678,1.29552129 49.5189331,7.25258665 L70.2167134,27.950367 C76.1732009,33.9068544 76.1737788,43.5618678 70.2167134,49.5189331 L49.5189331,70.2167134 C43.5624457,76.1732009 33.9074323,76.1737788 27.950367,70.2167134 L7.25258665,49.5189331 Z" id="Mask" fill="#1B7DC9" fill-rule="nonzero"/><rect id="Mask-Copy" fill="#1CB0F6" transform="translate(38.734650, 38.734650) rotate(-45.000000) translate(-38.734650, -38.734650)" x="11.3478298" y="11.3478298" width="54.7736404" height="54.7736404" rx="12.75"/><polygon id="Rectangle-12" fill="#44C3FF" transform="translate(42.692914, 34.692914) rotate(-45.000000) translate(-42.692914, -34.692914)" points="51.6445011 7.30923394 51.6445011 62.0673957 34.4300531 62.0765937 33.7413265 7.60340799"/></g><g id="clubs" transform="translate(24.000000, 24.000000)"><path d="M0,20 C0,28.2842712 6.71572875,35 15,35 C23.2842712,35 30,28.2842712 30,20 L30,7.99620271 C30,5.78883037 28.2094637,4 26.0007252,4 L3.9992748,4 C1.78679466,4 0,5.78916089 0,7.99620271 L0,20 Z" id="Combined-Shape-Copy-3" fill="#1696DC" opacity="0.701766304"/><path d="M0,16 C0,24.2842712 6.71572875,31 15,31 C23.2842712,31 30,24.2842712 30,16 L30,3.99620271 C30,1.78883037 28.2094637,0 26.0007252,0 L3.9992748,0 C1.78679466,0 0,1.78916089 0,3.99620271 L0,16 Z" id="Combined-Shape-Copy-5" fill="#47C4FF"/><path d="M1,16 C1,23.7319865 7.2680135,30 15,30 C22.7319865,30 29,23.7319865 29,16 L29,3 C29,1.8954305 28.1045695,1 27,1 L3,1 C1.8954305,1 1,1.8954305 1,3 L1,16 Z" id="Combined-Shape" stroke="#1B7DC9" stroke-width="2"/><path d="M7.50275333,23.5653335 C9.57128227,25.4447743 12.2085308,26.5 15,26.5 C19.5703474,26.5 23.6350989,23.6633149 25.4797213,19.3632036 C25.8032764,18.6089446 25.9587736,17.3145421 26.0507571,15.4137738 C26.0861936,14.6815051 26.1079808,13.9025256 26.1188053,13.1123338 C26.1261666,12.5749601 26.127667,12.1009023 26.1258231,11.7268385 C26.1253212,11.6406628 26.1253212,11.6406628 26.1251343,11.6200942 C26.1175288,10.791702 25.4398188,10.1263229 24.6114266,10.1339283 C23.7830344,10.1415337 23.1176552,10.8192437 23.1252607,11.647636 C23.1253957,11.6621307 23.1253957,11.6621307 23.1258595,11.7416267 C23.1276167,12.0980989 23.1261742,12.5538537 23.1190867,13.0712418 C23.108704,13.8291853 23.0878546,14.5746359 23.0542637,15.2687651 C22.9820735,16.7605218 22.8460312,17.8929757 22.7226851,18.1805154 C21.3392226,21.4055889 18.3380926,23.5 15,23.5 C12.9675901,23.5 11.045624,22.7309758 9.52016038,21.3449577 C8.90702052,20.7878661 7.95836052,20.8333022 7.40126894,21.4464421 C6.84417737,22.0595819 6.88961347,23.008242 7.50275333,23.5653335 Z" id="Combined-Shape-Copy-6" fill="#3BAFEC" fill-rule="nonzero"/><path d="M5.45043039,7 C6.27885751,7 6.95043039,6.32842712 6.95043039,5.5 C6.95043039,4.67157288 6.27885751,4 5.45043039,4 C4.62200326,4 3.95043039,4.67157288 3.95043039,5.5 C3.95043039,6.32842712 4.62200326,7 5.45043039,7 Z" id="Path-4" fill="#ACE4FF" fill-rule="nonzero"/><polygon id="Line" fill="#1B7DC9" fill-rule="nonzero" points="2.72303006 20.8369364 16.5825813 1.96555071 14.9706082 0.781683014 1.11105696 19.6530687"/><path d="M10.4504304,7 L24.5,7 C25.3284271,7 26,6.32842712 26,5.5 C26,4.67157288 25.3284271,4 24.5,4 L10.4504304,4 C9.62200326,4 8.95043039,4.67157288 8.95043039,5.5 C8.95043039,6.32842712 9.62200326,7 10.4504304,7 Z" id="Path-4-Copy" fill="#ACE4FF" fill-rule="nonzero"/></g></g></g></g></svg>