<?xml version="1.0" encoding="UTF-8"?><svg width="73px" height="73px" viewBox="0 0 73 73" version="1.1" xmlns="http://www.w3.org/2000/svg" xmlns:xlink="http://www.w3.org/1999/xlink"><title>achievement_perfect_0</title><desc>Created with Sketch.</desc><defs/><g id="Page-1" stroke="none" stroke-width="1" fill="none" fill-rule="evenodd"><g id="locked" transform="translate(-120.000000, -78.000000)" fill-rule="nonzero" fill="#D1D1D1"><g id="achievement_perfect_0" transform="translate(120.000000, 78.000000)"><path d="M7.0203536,45.7511662 L27.7181339,66.4489465 C32.6993809,71.4301934 40.7714818,71.4286308 45.7511662,66.4489465 L66.4489465,45.7511662 C71.4301934,40.7699192 71.4286308,32.6978183 66.4489465,27.7181339 L45.7511662,7.0203536 C40.7699192,2.03910668 32.6978183,2.04066925 27.7181339,7.0203536 L7.0203536,27.7181339 C2.03910668,32.6993809 2.04066925,40.7714818 7.0203536,45.7511662 Z M5.25258665,47.5189331 C-0.70390079,41.5624457 -0.70447871,31.9074323 5.25258665,25.950367 L25.950367,5.25258665 C31.9068544,-0.70390079 41.5618678,-0.70447871 47.5189331,5.25258665 L68.2167134,25.950367 C74.1732009,31.9068544 74.1737788,41.5618678 68.2167134,47.5189331 L47.5189331,68.2167134 C41.5624457,74.1732009 31.9074323,74.1737788 25.950367,68.2167134 L5.25258665,47.5189331 Z" id="Mask"/><path d="M35.875,52.75 C26.5551948,52.75 19,45.1948052 19,35.875 C19,26.5551948 26.5551948,19 35.875,19 C45.1948052,19 52.75,26.5551948 52.75,35.875 C52.75,45.1948052 45.1948052,52.75 35.875,52.75 Z M35.875,50.75 C44.0902357,50.75 50.75,44.0902357 50.75,35.875 C50.75,27.6597643 44.0902357,21 35.875,21 C27.6597643,21 21,27.6597643 21,35.875 C21,44.0902357 27.6597643,50.75 35.875,50.75 Z" id="Combined-Shape"/><path d="M36,47.75 C29.5106542,47.75 24.25,42.4893458 24.25,36 C24.25,29.5106542 29.5106542,24.25 36,24.25 C42.4893458,24.25 47.75,29.5106542 47.75,36 C47.75,42.4893458 42.4893458,47.75 36,47.75 Z M36,45.75 C41.3847763,45.75 45.75,41.3847763 45.75,36 C45.75,30.6152237 41.3847763,26.25 36,26.25 C30.6152237,26.25 26.25,30.6152237 26.25,36 C26.25,41.3847763 30.6152237,45.75 36,45.75 Z" id="Combined-Shape"/><path d="M35.875,41.75 C32.6303271,41.75 30,39.1196729 30,35.875 C30,32.6303271 32.6303271,30 35.875,30 C39.1196729,30 41.75,32.6303271 41.75,35.875 C41.75,39.1196729 39.1196729,41.75 35.875,41.75 Z M35.875,39.75 C38.0151034,39.75 39.75,38.0151034 39.75,35.875 C39.75,33.7348966 38.0151034,32 35.875,32 C33.7348966,32 32,33.7348966 32,35.875 C32,38.0151034 33.7348966,39.75 35.875,39.75 Z" id="Combined-Shape"/><path d="M35.6956007,37 L59.3078208,37 C59.8601056,37 60.3078208,36.5522847 60.3078208,36 C60.3078208,35.4477153 59.8601056,35 59.3078208,35 L35.6956007,35 C35.1433159,35 34.6956007,35.4477153 34.6956007,36 C34.6956007,36.5522847 35.1433159,37 35.6956007,37 Z" id="Line"/><path d="M50.9555333,34.6181241 L53.1175795,31.2918992 C53.6025412,30.5458042 54.6096532,30 55.5000531,30 L61.9999469,30 C63.34472,30 64.0271135,31.2547269 63.2944667,32.3818759 L61.1324205,35.7081008 C60.6474588,36.4541958 59.6403468,37 58.7499469,37 L52.2500531,37 C50.90528,37 50.2228865,35.7452731 50.9555333,34.6181241 Z M59.4555333,34.6181241 L61.157314,32 L55.5000531,32 C55.286177,32 54.9102642,32.2037259 54.7944667,32.3818759 L53.092686,35 L58.7499469,35 C58.963823,35 59.3397358,34.7962741 59.4555333,34.6181241 Z" id="Combined-Shape"/><path d="M53.1175795,40.7081008 L50.9555333,37.3818759 C50.2228865,36.2547269 50.90528,35 52.2500531,35 L58.7499469,35 C59.6403468,35 60.6474588,35.5458042 61.1324205,36.2918992 L63.2944667,39.6181241 C64.0271135,40.7452731 63.34472,42 61.9999469,42 L55.5000531,42 C54.6096532,42 53.6025412,41.4541958 53.1175795,40.7081008 Z M58.7499469,37 L53.092686,37 L54.7944667,39.6181241 C54.9102642,39.7962741 55.286177,40 55.5000531,40 L61.157314,40 L59.4555333,37.3818759 C59.3397358,37.2037259 58.963823,37 58.7499469,37 Z" id="Combined-Shape"/></g></g></g></svg>