<?xml version="1.0" encoding="UTF-8"?><svg width="73px" height="73px" viewBox="0 0 73 73" version="1.1" xmlns="http://www.w3.org/2000/svg" xmlns:xlink="http://www.w3.org/1999/xlink"><title>achievmement_xp_1</title><desc>Created with Sketch.</desc><defs/><g id="Page-1" stroke="none" stroke-width="1" fill="none" fill-rule="evenodd"><g id="color" transform="translate(-29.000000, -351.000000)"><g id="achievmement_xp_1" transform="translate(27.000000, 349.000000)"><g id="gold-badge-bg-copy"><path d="M9.0203536,47.7511662 L29.7181339,68.4489465 C34.6993809,73.4301934 42.7714818,73.4286308 47.7511662,68.4489465 L68.4489465,47.7511662 C73.4301934,42.7699192 73.4286308,34.6978183 68.4489465,29.7181339 L47.7511662,9.0203536 C42.7699192,4.03910668 34.6978183,4.04066925 29.7181339,9.0203536 L9.0203536,29.7181339 C4.03910668,34.6993809 4.04066925,42.7714818 9.0203536,47.7511662 Z M7.25258665,49.5189331 C1.29609921,43.5624457 1.29552129,33.9074323 7.25258665,27.950367 L27.950367,7.25258665 C33.9068544,1.29609921 43.5618678,1.29552129 49.5189331,7.25258665 L70.2167134,27.950367 C76.1732009,33.9068544 76.1737788,43.5618678 70.2167134,49.5189331 L49.5189331,70.2167134 C43.5624457,76.1732009 33.9074323,76.1737788 27.950367,70.2167134 L7.25258665,49.5189331 Z" id="Mask" fill="#67A300" fill-rule="nonzero"/><rect id="Mask-Copy" fill="#8EE000" transform="translate(38.734650, 38.734650) rotate(-45.000000) translate(-38.734650, -38.734650)" x="11.3478298" y="11.3478298" width="54.7736404" height="54.7736404" rx="12.75"/><polygon id="Rectangle-12" fill="#96EC00" transform="translate(42.692914, 34.692914) rotate(-45.000000) translate(-42.692914, -34.692914)" points="51.6445011 7.30923394 51.6445011 62.0673957 34.4300531 62.0765937 33.7413265 7.60340799"/></g><g id="50" transform="translate(23.000000, 27.000000)"><path d="M11.7957007,12.9479282 L11.7957007,18.70109 C11.7957007,24.1062085 16.1789632,28.4890091 21.5852007,28.4890091 C26.9924653,28.4890091 31.3747007,24.1071979 31.3747007,18.70109 L31.3747007,12.9479282 C31.3747007,7.54280972 26.9914383,3.16000912 21.5852007,3.16000912 C16.1779362,3.16000912 11.7957007,7.5418203 11.7957007,12.9479282 Z" id="Rectangle-29-Copy-4" fill="#7DC600" fill-rule="nonzero"/><path d="M6.87541182,19.8762833 C7.27225218,20.9892011 8.19990755,21.6841322 9.18602361,21.6841322 C10.5206783,21.6841322 11.6860236,20.4159951 11.6860236,18.7607809 L11.6860236,18.4212394 C11.6860236,16.7660252 10.5206783,15.497888 9.18602361,15.497888 C8.22120553,15.497888 7.31081336,16.1647991 6.90164627,17.2345144 C6.88045268,17.302343 6.85725662,17.3694642 6.83209672,17.4357958 C6.68306262,17.9027007 6.44605921,18.3173327 6.14525661,18.6666225 C6.45864128,19.0059499 6.71029641,19.4132258 6.87541182,19.8762833 Z M18.6860236,18.4212394 L18.6860236,18.7607809 C18.6860236,24.2392102 14.4693611,28.7400055 9.18602361,28.7400055 C5.19392561,28.7400055 1.66801802,26.1331586 0.288009408,22.2629972 C-0.154082819,21.0231729 0.134593799,19.691916 0.936940024,18.7575794 C0.322125028,18.0903531 -0.0262163021,17.1941026 0.00149959282,16.2517467 C0.00104940264,16.230285 0.000808660859,16.2053274 0.0004121847,16.164225 L0.0004121847,6.80060828 C0.0004121847,5.85304456 0.37208046,4.95795637 1.02194401,4.29598949 C1.67880326,3.62689661 2.57679209,3.24000549 3.53248108,3.24000549 L14.767653,3.24000549 C16.7267058,3.24000549 18.2997219,4.84231809 18.2997219,6.80060828 C18.2997219,8.75079212 16.7397019,10.3479394 14.7919616,10.3611288 C17.1592299,12.1820941 18.6860236,15.124673 18.6860236,18.4212394 Z" id="Combined-Shape-Copy-2" fill="#7DC600" fill-rule="nonzero"/><path d="M11.7957007,9.94792821 L11.7957007,15.70109 C11.7957007,21.1062085 16.1789632,25.4890091 21.5852007,25.4890091 C26.9924653,25.4890091 31.3747007,21.1071979 31.3747007,15.70109 L31.3747007,9.94792821 C31.3747007,4.54280972 26.9914383,0.160009116 21.5852007,0.160009116 C16.1779362,0.160009116 11.7957007,4.5418203 11.7957007,9.94792821 Z" id="Rectangle-29-Copy-3" fill="#67A300" fill-rule="nonzero"/><path d="M13.8747007,9.94792821 C13.8747007,5.69006535 17.3260911,2.23900912 21.5852007,2.23900912 C25.8432873,2.23900912 29.2957007,5.69105876 29.2957007,9.94792821 L29.2957007,15.70109 C29.2957007,19.9589529 25.8443104,23.4100091 21.5852007,23.4100091 C17.3271142,23.4100091 13.8747007,19.9579595 13.8747007,15.70109 L13.8747007,9.94792821 Z" id="Path-Copy" fill="#8EE000"/><path d="M18.8747007,10.1973722 C18.8747007,8.70154052 20.0878217,7.48900912 21.5852007,7.48900912 C23.0815341,7.48900912 24.2957007,8.70292564 24.2957007,10.1973722 L24.2957007,15.4516461 C24.2957007,16.9474777 23.0825798,18.1600091 21.5852007,18.1600091 C20.0888674,18.1600091 18.8747007,16.9460926 18.8747007,15.4516461 L18.8747007,10.1973722 Z M16.7957007,10.1973722 L16.7957007,15.4516461 C16.7957007,18.0943885 18.9407633,20.2390091 21.5852007,20.2390091 C24.2305536,20.2390091 26.3747007,18.095904 26.3747007,15.4516461 L26.3747007,10.1973722 C26.3747007,7.55462976 24.2296382,5.41000912 21.5852007,5.41000912 C18.9398479,5.41000912 16.7957007,7.55311422 16.7957007,10.1973722 Z" id="Rectangle-29-Copy-2" fill="#67A300" fill-rule="nonzero"/><path d="M18.1522908,6.3827274 C19.0800245,5.53935976 20.2833675,5.06485763 21.5637697,5.06485763 C22.8335538,5.06485763 24.0279258,5.5317822 24.9530566,6.36304533 C25.3800926,6.74675239 26.0373297,6.71162738 26.4210367,6.28459143 C26.8047438,5.85755549 26.7696188,5.20031842 26.3425828,4.81661136 C25.0394565,3.64570576 23.3515947,2.98585763 21.5637697,2.98585763 C19.7611423,2.98585763 18.0606347,3.65640172 16.7538283,4.84436997 C16.3290226,5.23054473 16.297706,5.88797427 16.6838808,6.31277994 C17.0700556,6.73758562 17.7274851,6.76890216 18.1522908,6.3827274 Z" id="Rectangle-29-Copy" fill="#C8FF67" fill-rule="nonzero"/><path d="M5.06454998,5.36121107 L14.767653,5.36121107 C15.6137913,5.36121107 16.2997219,4.6625054 16.2997219,3.80060828 C16.2997219,2.93871116 15.6137913,2.24000549 14.767653,2.24000549 L3.53248108,2.24000549 C3.10941194,2.24000549 2.72639471,2.41468191 2.44914478,2.69709547 C2.17189484,2.97950903 2.00041218,3.36965972 2.00041218,3.80060828 L2.00041218,13.164225 C2.00041218,13.1955248 2.00131678,13.2266094 2.00310078,13.2574531 C1.9597526,13.9404879 2.37413743,14.5919674 3.04310213,14.8100955 C3.83209176,15.0673599 4.67643506,14.6243992 4.92899566,13.8207151 C4.96906541,13.7110191 4.98855985,13.6546954 5.00487439,13.5969993 C5.68232962,11.7388192 7.33456737,10.497888 9.18602361,10.497888 C11.6526264,10.497888 13.6860236,12.6842266 13.6860236,15.4212394 L13.6860236,15.7607809 C13.6860236,18.4977937 11.6526264,20.6841322 9.18602361,20.6841322 C7.3262712,20.6841322 5.66355991,19.4325131 4.9915903,17.5480098 C4.70876913,16.7548527 3.84827264,16.3454138 3.06961759,16.6335023 C2.29096254,16.9215909 1.88900976,17.7981136 2.17183093,18.5912707 C3.2646888,21.6561329 6.03300569,23.7400055 9.18602361,23.7400055 C13.3468379,23.7400055 16.6860236,20.149664 16.6860236,15.7607809 L16.6860236,15.4212394 C16.6860236,11.0323563 13.3468379,7.44201479 9.18602361,7.44201479 C7.67531126,7.44201479 6.2548067,7.92020362 5.06454998,8.75334859 L5.06454998,5.36121107 Z M6.87541182,16.8762833 C7.27225218,17.9892011 8.19990755,18.6841322 9.18602361,18.6841322 C10.5206783,18.6841322 11.6860236,17.4159951 11.6860236,15.7607809 L11.6860236,15.4212394 C11.6860236,13.7660252 10.5206783,12.497888 9.18602361,12.497888 C8.22120553,12.497888 7.31081336,13.1647991 6.90164627,14.2345144 C6.88045268,14.302343 6.85725662,14.3694642 6.83209672,14.4357958 C6.68306262,14.9027007 6.44605921,15.3173327 6.14525661,15.6666225 C6.45864128,16.0059499 6.71029641,16.4132258 6.87541182,16.8762833 Z M18.6860236,15.4212394 L18.6860236,15.7607809 C18.6860236,21.2392102 14.4693611,25.7400055 9.18602361,25.7400055 C5.19392561,25.7400055 1.66801802,23.1331586 0.288009408,19.2629972 C-0.154082819,18.0231729 0.134593799,16.691916 0.936940024,15.7575794 C0.322125028,15.0903531 -0.0262163021,14.1941026 0.00149959282,13.2517467 C0.00104940264,13.230285 0.000808660857,13.2053274 0.000412184699,13.164225 L0.000412184699,3.80060828 C0.000412184699,2.85304456 0.37208046,1.95795637 1.02194401,1.29598949 C1.67880326,0.626896614 2.57679209,0.240005493 3.53248108,0.240005493 L14.767653,0.240005493 C16.7267058,0.240005493 18.2997219,1.84231809 18.2997219,3.80060828 C18.2997219,5.75079212 16.7397019,7.34793941 14.7919616,7.36112879 C17.1592299,9.18209409 18.6860236,12.124673 18.6860236,15.4212394 Z" id="Combined-Shape" fill="#67A300" fill-rule="nonzero"/><path d="M5.06454998,5.36121107 L14.767653,5.36121107 C15.6137913,5.36121107 16.2997219,4.6625054 16.2997219,3.80060828 C16.2997219,2.93871116 15.6137913,2.24000549 14.767653,2.24000549 L3.53248108,2.24000549 C3.10941194,2.24000549 2.72639471,2.41468191 2.44914478,2.69709547 C2.17189484,2.97950903 2.00041218,3.36965972 2.00041218,3.80060828 L2.00041218,13.164225 C2.00041218,13.1955248 2.00131678,13.2266094 2.00310078,13.2574531 C1.9597526,13.9404879 2.37413743,14.5919674 3.04310213,14.8100955 C3.83209176,15.0673599 4.67643506,14.6243992 4.92899566,13.8207151 C4.96906541,13.7110191 4.98855985,13.6546954 5.00487439,13.5969993 C5.68232962,11.7388192 7.33456737,10.497888 9.18602361,10.497888 C11.6526264,10.497888 13.6860236,12.6842266 13.6860236,15.4212394 L13.6860236,15.7607809 C13.6860236,18.4977937 11.6526264,20.6841322 9.18602361,20.6841322 C7.3262712,20.6841322 5.66355991,19.4325131 4.9915903,17.5480098 C4.70876913,16.7548527 3.84827264,16.3454138 3.06961759,16.6335023 C2.29096254,16.9215909 1.88900976,17.7981136 2.17183093,18.5912707 C3.2646888,21.6561329 6.03300569,23.7400055 9.18602361,23.7400055 C13.3468379,23.7400055 16.6860236,20.149664 16.6860236,15.7607809 L16.6860236,15.4212394 C16.6860236,11.0323563 13.3468379,7.44201479 9.18602361,7.44201479 C7.67531126,7.44201479 6.2548067,7.92020362 5.06454998,8.75334859 L5.06454998,5.36121107 Z" id="Path-Copy-2" fill="#8EE000"/><path d="M24.3500061,14.75 L24.3500061,10.2491391 C24.3500061,8.73066428 23.1187892,7.5 21.6000061,7.5 C20.0843135,7.5 18.8500061,8.73083151 18.8500061,10.2491391 L18.8500061,14.75 L18.8500061,12.4991391 C18.8500061,10.9808315 20.0843135,9.75 21.6000061,9.75 C23.1187892,9.75 24.3500061,10.9806643 24.3500061,12.4991391 L24.3500061,14.75 Z" id="Combined-Shape-Copy" fill="#7DC600"/><path d="M4.0951303,4.75 L13.4167677,4.75 C14.0215915,4.75 14.511898,4.30228475 14.511898,3.75 C14.511898,3.19771525 14.0215915,2.75 13.4167677,2.75 L4.0951303,2.75 C3.49030654,2.75 3,3.19771525 3,3.75 C3,4.30228475 3.49030654,4.75 4.0951303,4.75 Z" id="Line" fill="#C8FF67" fill-rule="nonzero"/></g></g></g></g></svg>