<?xml version="1.0" encoding="UTF-8"?><svg width="73px" height="73px" viewBox="0 0 73 73" version="1.1" xmlns="http://www.w3.org/2000/svg" xmlns:xlink="http://www.w3.org/1999/xlink"><title>achievmement_xp_2</title><desc>Created with Sketch.</desc><defs/><g id="Page-1" stroke="none" stroke-width="1" fill="none" fill-rule="evenodd"><g id="silver" transform="translate(-28.000000, -351.000000)"><g id="achievmement_xp_2" transform="translate(26.000000, 349.000000)"><g id="bg"><path d="M9.0203536,47.7511662 L29.7181339,68.4489465 C34.6993809,73.4301934 42.7714818,73.4286308 47.7511662,68.4489465 L68.4489465,47.7511662 C73.4301934,42.7699192 73.4286308,34.6978183 68.4489465,29.7181339 L47.7511662,9.0203536 C42.7699192,4.03910668 34.6978183,4.04066925 29.7181339,9.0203536 L9.0203536,29.7181339 C4.03910668,34.6993809 4.04066925,42.7714818 9.0203536,47.7511662 Z M7.25258665,49.5189331 C1.29609921,43.5624457 1.29552129,33.9074323 7.25258665,27.950367 L27.950367,7.25258665 C33.9068544,1.29609921 43.5618678,1.29552129 49.5189331,7.25258665 L70.2167134,27.950367 C76.1732009,33.9068544 76.1737788,43.5618678 70.2167134,49.5189331 L49.5189331,70.2167134 C43.5624457,76.1732009 33.9074323,76.1737788 27.950367,70.2167134 L7.25258665,49.5189331 Z" id="Mask" fill="#6E7E8A" fill-rule="nonzero"/><rect id="Mask-Copy" fill="#AFBDC9" transform="translate(38.734650, 38.734650) rotate(-45.000000) translate(-38.734650, -38.734650)" x="11.3478298" y="11.3478298" width="54.7736404" height="54.7736404" rx="12.75"/><polygon id="Rectangle-12" fill="#E5EDF3" transform="translate(42.715399, 34.715399) rotate(-45.000000) translate(-42.715399, -34.715399)" points="51.6678889 7.30082242 51.4116936 62.1207783 34.1972455 62.1299762 33.7629097 7.33234987"/></g><g id="100" transform="translate(18.000000, 26.000000)"><path d="M6.58425769,4.47969066 C7.24790828,3.63814748 8.27669761,3.09794741 9.43181022,3.09794741 C11.1442208,3.09794741 12.579872,4.28699406 12.9584951,5.88349916 C14.7226272,4.19879074 17.1131694,3.16421669 19.7457258,3.16421669 C22.1318435,3.16421669 24.3194074,4.01455551 26.0218269,5.42866482 C27.7486685,3.92293345 30.006955,3.01099088 32.4785689,3.01099088 C37.9061627,3.01099088 42.3064287,7.41068994 42.3064287,12.8374119 L42.3064287,18.4185488 C42.3064287,23.8459184 37.907026,28.2449698 32.4785689,28.2449698 C30.0924512,28.2449698 27.9048873,27.394631 26.2024678,25.9805217 C24.4756262,27.4862531 22.2173397,28.3981957 19.7457258,28.3981957 C17.0697186,28.3981957 14.6434405,27.3286906 12.8711395,25.5938974 C12.3915253,27.0337231 11.0330376,28.0717581 9.43181022,28.0717581 C7.43067764,28.0717581 5.80749852,26.4479496 5.80749852,24.4476641 L5.80749852,15.4019857 C4.40089644,16.3280076 2.49170409,16.1725821 1.25431057,14.9351885 C-0.161189996,13.519688 -0.160946673,11.224895 1.25486606,9.80908229 L6.58425769,4.47969066 Z" id="Combined-Shape" fill="#94A3AF" fill-rule="nonzero"/><path d="M22.7957007,9.94792821 L22.7957007,15.70109 C22.7957007,21.1062085 27.1789632,25.4890091 32.5852007,25.4890091 C37.9924653,25.4890091 42.3747007,21.1071979 42.3747007,15.70109 L42.3747007,9.94792821 C42.3747007,4.54280972 37.9914383,0.160009116 32.5852007,0.160009116 C27.1779362,0.160009116 22.7957007,4.5418203 22.7957007,9.94792821 Z" id="Rectangle-29" fill="#6E7E8A" fill-rule="nonzero"/><path d="M24.8747007,9.94792821 C24.8747007,5.69006535 28.3260911,2.23900912 32.5852007,2.23900912 C36.8432873,2.23900912 40.2957007,5.69105876 40.2957007,9.94792821 L40.2957007,15.70109 C40.2957007,19.9589529 36.8443104,23.4100091 32.5852007,23.4100091 C28.3271142,23.4100091 24.8747007,19.9579595 24.8747007,15.70109 L24.8747007,9.94792821 Z" id="Path" fill="#AFBDC9"/><path d="M29.8747007,10.1973722 C29.8747007,8.70154052 31.0878217,7.48900912 32.5852007,7.48900912 C34.0815341,7.48900912 35.2957007,8.70292564 35.2957007,10.1973722 L35.2957007,15.4516461 C35.2957007,16.9474777 34.0825798,18.1600091 32.5852007,18.1600091 C31.0888674,18.1600091 29.8747007,16.9460926 29.8747007,15.4516461 L29.8747007,10.1973722 Z M27.7957007,10.1973722 L27.7957007,15.4516461 C27.7957007,18.0943885 29.9407633,20.2390091 32.5852007,20.2390091 C35.2305536,20.2390091 37.3747007,18.095904 37.3747007,15.4516461 L37.3747007,10.1973722 C37.3747007,7.55462976 35.2296382,5.41000912 32.5852007,5.41000912 C29.9398479,5.41000912 27.7957007,7.55311422 27.7957007,10.1973722 Z" id="Rectangle-29" fill="#6E7E8A" fill-rule="nonzero"/><path d="M29.1522908,6.3827274 C30.0800245,5.53935976 31.2833675,5.06485763 32.5637697,5.06485763 C33.8335538,5.06485763 35.0279258,5.5317822 35.9530566,6.36304533 C36.3800926,6.74675239 37.0373297,6.71162738 37.4210367,6.28459143 C37.8047438,5.85755549 37.7696188,5.20031842 37.3425828,4.81661136 C36.0394565,3.64570576 34.3515947,2.98585763 32.5637697,2.98585763 C30.7611423,2.98585763 29.0606347,3.65640172 27.7538283,4.84436997 C27.3290226,5.23054473 27.297706,5.88797427 27.6838808,6.31277994 C28.0700556,6.73758562 28.7274851,6.76890216 29.1522908,6.3827274 Z" id="Rectangle-29" fill="#E5EDF3" fill-rule="nonzero"/><path d="M10.0285439,10.2947024 L10.0285439,16.0478642 C10.0285439,21.4529827 14.4118063,25.8357833 19.8180439,25.8357833 C25.2253085,25.8357833 29.6075439,21.4539721 29.6075439,16.0478642 L29.6075439,10.2947024 C29.6075439,4.88958391 25.2242814,0.50678331 19.8180439,0.50678331 C14.4107793,0.50678331 10.0285439,4.8885945 10.0285439,10.2947024 Z" id="Rectangle-29" fill="#6E7E8A" fill-rule="nonzero"/><path d="M12.1075439,10.2947024 C12.1075439,6.03683955 15.5589342,2.58578331 19.8180439,2.58578331 C24.0761305,2.58578331 27.5285439,6.03783295 27.5285439,10.2947024 L27.5285439,16.0478642 C27.5285439,20.3057271 24.0771535,23.7567833 19.8180439,23.7567833 C15.5599573,23.7567833 12.1075439,20.3047337 12.1075439,16.0478642 L12.1075439,10.2947024 Z" id="Path" fill="#AFBDC9"/><path d="M16.4022908,6.3827274 C17.3300245,5.53935976 18.5333675,5.06485763 19.8137697,5.06485763 C21.0835538,5.06485763 22.2779258,5.5317822 23.2030566,6.36304533 C23.6300926,6.74675239 24.2873297,6.71162738 24.6710367,6.28459143 C25.0547438,5.85755549 25.0196188,5.20031842 24.5925828,4.81661136 C23.2894565,3.64570576 21.6015947,2.98585763 19.8137697,2.98585763 C18.0111423,2.98585763 16.3106347,3.65640172 15.0038283,4.84436997 C14.5790226,5.23054473 14.547706,5.88797427 14.9338808,6.31277994 C15.3200556,6.73758562 15.9774851,6.76890216 16.4022908,6.3827274 Z" id="Rectangle-29" fill="#E5EDF3" fill-rule="nonzero"/><path d="M17.0395,10.4978631 C17.0395,9.0020314 18.252621,7.7895 19.75,7.7895 C21.2463334,7.7895 22.4605,9.00341652 22.4605,10.4978631 L22.4605,15.7521369 C22.4605,17.2479686 21.247379,18.4605 19.75,18.4605 C18.2536666,18.4605 17.0395,17.2465835 17.0395,15.7521369 L17.0395,10.4978631 Z M14.9605,10.4978631 L14.9605,15.7521369 C14.9605,18.3948794 17.1055625,20.5395 19.75,20.5395 C22.3953528,20.5395 24.5395,18.3963949 24.5395,15.7521369 L24.5395,10.4978631 C24.5395,7.85512064 22.3944375,5.7105 19.75,5.7105 C17.1046472,5.7105 14.9605,7.8536051 14.9605,10.4978631 Z" id="Rectangle-29" fill="#6E7E8A" fill-rule="nonzero"/><path d="M22.5680439,15.0462833 L22.5680439,10.5454224 C22.5680439,9.02694759 21.3368269,7.79628331 19.8180439,7.79628331 C18.3023512,7.79628331 17.0680439,9.02711482 17.0680439,10.5454224 L17.0680439,15.0462833 L17.0680439,12.7954224 C17.0680439,11.2771148 18.3023512,10.0462833 19.8180439,10.0462833 C21.3368269,10.0462833 22.5680439,11.2769476 22.5680439,12.7954224 L22.5680439,15.0462833 Z" id="Combined-Shape" fill="#94A3AF"/><path d="M35.3180439,14.7962833 L35.3180439,10.2954224 C35.3180439,8.77694759 34.0868269,7.54628331 32.5680439,7.54628331 C31.0523512,7.54628331 29.8180439,8.77711482 29.8180439,10.2954224 L29.8180439,14.7962833 L29.8180439,12.5454224 C29.8180439,11.0271148 31.0523512,9.79628331 32.5680439,9.79628331 C34.0868269,9.79628331 35.3180439,11.0269476 35.3180439,12.5454224 L35.3180439,14.7962833 Z" id="Combined-Shape" fill="#94A3AF"/><path d="M1.27252025,7.17163489 C-0.143292483,8.58744762 -0.143535806,10.8822406 1.27196476,12.2977411 C2.68755563,13.713332 4.98236957,13.7128871 6.39807102,12.2971856 L11.9398228,6.75543384 C13.3556356,5.3396211 13.3558789,3.04482815 11.9403783,1.62932758 C10.5247875,0.213736711 8.22997351,0.214181629 6.81427207,1.62988307 L1.27252025,7.17163489 Z" id="Combined-Shape" fill="#6E7E8A" fill-rule="nonzero"/><path d="M5.82515271,4.08459395 L5.82515271,21.8102167 C5.82515271,23.8105022 7.44833183,25.4343107 9.44946441,25.4343107 C11.4513219,25.4343107 13.0737761,23.811857 13.0737761,21.8102167 L13.0737761,4.08459395 C13.0737761,2.08430845 11.450597,0.4605 9.44946441,0.4605 C7.44760694,0.4605 5.82515271,2.08295364 5.82515271,4.08459395 Z" id="Path" fill="#6E7E8A"/><path d="M8.28434706,3.09995807 C8.88827609,2.49602905 9.86674009,2.49583935 10.4703033,3.09940258 C11.0738341,3.70293335 11.0737303,4.68137633 10.4697478,5.28535884 L4.92799602,10.8271107 C4.324067,11.4310397 3.34560299,11.4312294 2.74203976,10.8276661 C2.13850899,10.2241354 2.13861274,9.2456924 2.74259525,8.64170988 L8.28434706,3.09995807 Z" id="Path" fill="#AFBDC9"/><path d="M7.90415271,4.08459395 C7.90415271,3.2311538 8.59580677,2.5395 9.44946441,2.5395 C10.3022166,2.5395 10.9947761,3.23232807 10.9947761,4.08459395 L10.9947761,21.8102167 C10.9947761,22.6636569 10.3031221,23.3553107 9.44946441,23.3553107 C8.59671227,23.3553107 7.90415271,22.6624826 7.90415271,21.8102167 L7.90415271,4.08459395 Z" id="Path" fill="#AFBDC9"/><rect id="Rectangle-30" fill="#E5EDF3" transform="translate(7.169227, 6.169227) rotate(-45.000000) translate(-7.169227, -6.169227)" x="3.23693553" y="5.26600139" width="7.86458333" height="1.80645161" rx="0.903225806"/></g><g id="sparkle" transform="translate(11.000000, 26.000000)" fill="#FFFFFF"><path d="M2.37685431,16.6568542 L8.93685419,16.6568542 L8.93685419,16.6568542 C9.33449924,16.6568542 9.65685425,16.9792093 9.65685425,17.3768543 L9.65685425,23.9368542 L9.65685425,23.9368542 C9.65685425,24.3344992 9.33449924,24.6568542 8.93685419,24.6568542 L2.37685431,24.6568542 L2.37685431,24.6568542 C1.97920926,24.6568542 1.65685425,24.3344992 1.65685425,23.9368542 L1.65685425,17.3768543 L1.65685425,17.3768543 C1.65685425,16.9792093 1.97920926,16.6568542 2.37685431,16.6568542 Z" id="Rectangle-2-Copy-28" transform="translate(5.656854, 20.656854) rotate(-315.000000) translate(-5.656854, -20.656854)"/><path d="M46.3148375,1.65546733 L50.8748374,1.65546733 L50.8748374,1.65546733 C51.2724824,1.65546733 51.5948375,1.97782234 51.5948375,2.37546739 L51.5948375,6.93546727 L51.5948375,6.93546727 C51.5948375,7.33311232 51.2724824,7.65546733 50.8748374,7.65546733 L46.3148375,7.65546733 L46.3148375,7.65546733 C45.9171925,7.65546733 45.5948375,7.33311232 45.5948375,6.93546727 L45.5948375,2.37546739 L45.5948375,2.37546739 C45.5948375,1.97782234 45.9171925,1.65546733 46.3148375,1.65546733 Z" id="Rectangle-2-Copy-19" transform="translate(48.594837, 4.655467) rotate(-315.000000) translate(-48.594837, -4.655467)"/></g></g></g></g></svg>