<?xml version="1.0" encoding="UTF-8"?><svg width="73px" height="73px" viewBox="0 0 73 73" version="1.1" xmlns="http://www.w3.org/2000/svg" xmlns:xlink="http://www.w3.org/1999/xlink"><title>achievmement_time_2</title><desc>Created with Sketch.</desc><defs/><g id="Page-1" stroke="none" stroke-width="1" fill="none" fill-rule="evenodd"><g id="silver" transform="translate(-119.000000, -351.000000)"><g id="achievmement_time_2" transform="translate(117.000000, 349.000000)"><g id="bg"><path d="M9.0203536,47.7511662 L29.7181339,68.4489465 C34.6993809,73.4301934 42.7714818,73.4286308 47.7511662,68.4489465 L68.4489465,47.7511662 C73.4301934,42.7699192 73.4286308,34.6978183 68.4489465,29.7181339 L47.7511662,9.0203536 C42.7699192,4.03910668 34.6978183,4.04066925 29.7181339,9.0203536 L9.0203536,29.7181339 C4.03910668,34.6993809 4.04066925,42.7714818 9.0203536,47.7511662 Z M7.25258665,49.5189331 C1.29609921,43.5624457 1.29552129,33.9074323 7.25258665,27.950367 L27.950367,7.25258665 C33.9068544,1.29609921 43.5618678,1.29552129 49.5189331,7.25258665 L70.2167134,27.950367 C76.1732009,33.9068544 76.1737788,43.5618678 70.2167134,49.5189331 L49.5189331,70.2167134 C43.5624457,76.1732009 33.9074323,76.1737788 27.950367,70.2167134 L7.25258665,49.5189331 Z" id="Mask" fill="#6E7E8A" fill-rule="nonzero"/><rect id="Mask-Copy" fill="#AFBDC9" transform="translate(38.734650, 38.734650) rotate(-45.000000) translate(-38.734650, -38.734650)" x="11.3478298" y="11.3478298" width="54.7736404" height="54.7736404" rx="12.75"/><polygon id="Rectangle-12" fill="#E5EDF3" transform="translate(42.715399, 34.715399) rotate(-45.000000) translate(-42.715399, -34.715399)" points="51.6678889 7.30082242 51.4116936 62.1207783 34.1972455 62.1299762 33.7629097 7.33234987"/></g><g id="clock" transform="translate(22.000000, 21.000000)"><circle id="Oval-22" fill="#94A3AF" cx="16.75" cy="20.75" r="16.75"/><path d="M16.75,33.5 C7.49923044,33.5 0,26.0007696 0,16.75 C0,7.49923044 7.49923044,0 16.75,0 C26.0007696,0 33.5,7.49923044 33.5,16.75 C33.5,26.0007696 26.0007696,33.5 16.75,33.5 Z" id="Oval-22" fill="#6E7E8A" fill-rule="nonzero"/><circle id="Oval-22-Copy" fill="#AFBDC9" cx="16.75" cy="16.75" r="14.75"/><path d="M24.8496392,23.0863105 C22.853674,25.4104844 19.949784,26.7726084 16.8199406,26.7726084 C13.6449762,26.7726084 10.7033535,25.3705828 8.70719797,22.988418 C8.14851667,22.321701 7.15513506,22.2341207 6.48841804,22.792802 C5.82170101,23.3514833 5.73412074,24.3448649 6.29280203,25.011582 C8.88157162,28.1009583 12.7036183,29.9226084 16.8199406,29.9226084 C20.8776524,29.9226084 24.6508451,28.1527216 27.2393576,25.1385643 C27.8060718,24.4786618 27.7305278,23.4842924 27.0706253,22.9175782 C26.4107228,22.3508639 25.4163534,22.4264079 24.8496392,23.0863105 Z" id="Oval-21" fill="#94A3AF" fill-rule="nonzero" opacity="0.5"/><path d="M22.1541843,21.1938302 L15.3416843,16.1938302 C14.896449,15.867052 14.2706084,15.9630805 13.9438302,16.4083157 C13.617052,16.853551 13.7130805,17.4793916 14.1583157,17.8061698 L20.9708157,22.8061698 C21.416051,23.132948 22.0418916,23.0369195 22.3686698,22.5916843 C22.695448,22.146449 22.5994195,21.5206084 22.1541843,21.1938302 Z" id="Line" fill="#94A3AF" fill-rule="nonzero"/><path d="M27.2393576,7.95904408 C24.6508451,4.94488676 20.8776524,3.175 16.8199406,3.175 C12.7036183,3.175 8.88157162,4.9966501 6.29280203,8.08602643 C5.73412074,8.75274346 5.82170101,9.74612507 6.48841804,10.3048064 C7.15513506,10.8634877 8.14851667,10.7759074 8.70719797,10.1091904 C10.7033535,7.72702559 13.6449762,6.325 16.8199406,6.325 C19.949784,6.325 22.853674,7.68712401 24.8496392,10.0112979 C25.4163534,10.6712004 26.4107228,10.7467445 27.0706253,10.1800302 C27.7305278,9.61331597 27.8060718,8.6189466 27.2393576,7.95904408 Z" id="Oval-21" fill="#E5EDF3" fill-rule="nonzero"/><path d="M15.75,9.25 L15.75,21.2532046 C15.75,21.8054894 16.1977153,22.2532046 16.75,22.2532046 C17.3022847,22.2532046 17.75,21.8054894 17.75,21.2532046 L17.75,9.25 C17.75,8.69771525 17.3022847,8.25 16.75,8.25 C16.1977153,8.25 15.75,8.69771525 15.75,9.25 Z" id="Line" fill="#94A3AF" fill-rule="nonzero"/><path d="M15.75,7.5 L15.75,19.5032046 C15.75,20.0554894 16.1977153,20.5032046 16.75,20.5032046 C17.3022847,20.5032046 17.75,20.0554894 17.75,19.5032046 L17.75,7.5 C17.75,6.94771525 17.3022847,6.5 16.75,6.5 C16.1977153,6.5 15.75,6.94771525 15.75,7.5 Z" id="Line" fill="#6E7E8A" fill-rule="nonzero"/><path d="M22.1541843,19.6938302 L15.3416843,14.6938302 C14.896449,14.367052 14.2706084,14.4630805 13.9438302,14.9083157 C13.617052,15.353551 13.7130805,15.9793916 14.1583157,16.3061698 L20.9708157,21.3061698 C21.416051,21.632948 22.0418916,21.5369195 22.3686698,21.0916843 C22.695448,20.646449 22.5994195,20.0206084 22.1541843,19.6938302 Z" id="Line" fill="#6E7E8A" fill-rule="nonzero"/><path d="M15.875,1.99583795 L15.875,3.875 C15.875,4.42728475 16.3227153,4.875 16.875,4.875 C17.4272847,4.875 17.875,4.42728475 17.875,3.875 L17.875,1.99583795 C17.875,1.4435532 17.4272847,0.995837953 16.875,0.995837953 C16.3227153,0.995837953 15.875,1.4435532 15.875,1.99583795 Z" id="Line" fill="#6E7E8A" fill-rule="nonzero"/><path d="M15.875,29.745838 L15.875,31.625 C15.875,32.1772847 16.3227153,32.625 16.875,32.625 C17.4272847,32.625 17.875,32.1772847 17.875,31.625 L17.875,29.745838 C17.875,29.1935532 17.4272847,28.745838 16.875,28.745838 C16.3227153,28.745838 15.875,29.1935532 15.875,29.745838 Z" id="Line" fill="#6E7E8A" fill-rule="nonzero"/><path d="M31.504162,15.875 L29.625,15.875 C29.0727153,15.875 28.625,16.3227153 28.625,16.875 C28.625,17.4272847 29.0727153,17.875 29.625,17.875 L31.504162,17.875 C32.0564468,17.875 32.504162,17.4272847 32.504162,16.875 C32.504162,16.3227153 32.0564468,15.875 31.504162,15.875 Z" id="Line" fill="#6E7E8A" fill-rule="nonzero"/><path d="M3.75416205,15.875 L1.875,15.875 C1.32271525,15.875 0.875,16.3227153 0.875,16.875 C0.875,17.4272847 1.32271525,17.875 1.875,17.875 L3.75416205,17.875 C4.3064468,17.875 4.75416205,17.4272847 4.75416205,16.875 C4.75416205,16.3227153 4.3064468,15.875 3.75416205,15.875 Z" id="Line" fill="#6E7E8A" fill-rule="nonzero"/></g><g id="sparkle" transform="translate(10.000000, 26.000000)" fill="#FFFFFF"><path d="M41.8768225,1.54006548 L46.4368224,1.54006548 L46.4368224,1.54006548 C46.8344674,1.54006548 47.1568224,1.86242049 47.1568224,2.26006554 L47.1568224,6.82006543 L47.1568224,6.82006543 C47.1568224,7.21771048 46.8344674,7.54006548 46.4368224,7.54006548 L41.8768225,7.54006548 L41.8768225,7.54006548 C41.4791774,7.54006548 41.1568224,7.21771048 41.1568224,6.82006543 L41.1568224,2.26006554 L41.1568224,2.26006554 C41.1568224,1.86242049 41.4791774,1.54006548 41.8768225,1.54006548 Z" id="Rectangle-2-Copy-21" transform="translate(44.156822, 4.540065) rotate(-315.000000) translate(-44.156822, -4.540065)"/><path d="M2.37685431,15.6568542 L8.93685419,15.6568542 L8.93685419,15.6568542 C9.33449924,15.6568542 9.65685425,15.9792093 9.65685425,16.3768543 L9.65685425,22.9368542 L9.65685425,22.9368542 C9.65685425,23.3344992 9.33449924,23.6568542 8.93685419,23.6568542 L2.37685431,23.6568542 L2.37685431,23.6568542 C1.97920926,23.6568542 1.65685425,23.3344992 1.65685425,22.9368542 L1.65685425,16.3768543 L1.65685425,16.3768543 C1.65685425,15.9792093 1.97920926,15.6568542 2.37685431,15.6568542 Z" id="Rectangle-2-Copy-27" transform="translate(5.656854, 19.656854) rotate(-315.000000) translate(-5.656854, -19.656854)"/></g></g></g></g></svg>