<?xml version="1.0" encoding="UTF-8"?><svg width="65px" height="80px" viewBox="0 0 65 80" version="1.1" xmlns="http://www.w3.org/2000/svg" xmlns:xlink="http://www.w3.org/1999/xlink"><title>Icon/Achievements/04-Big-Spender</title><desc>Created with Sketch.</desc><defs/><g id="Page-1" stroke="none" stroke-width="1" fill="none" fill-rule="evenodd"><g id="Icon/Achievements/04-Big-Spender"><g><path d="M9.140625,2.91066135e-10 L55.859375,2.91066135e-10 L55.859375,2.91066726e-10 C60.9076028,2.91065799e-10 65,4.09239721 65,9.140625 L65,59.9466717 L65,59.9466717 C65,63.4978583 62.9431888,66.7276402 59.7252411,68.2295519 L36.3079107,79.1591154 L36.3079107,79.1591154 C33.8530408,80.304876 31.0164004,80.3026723 28.5633137,79.1530988 L5.26189408,68.2335113 L5.26189408,68.2335113 C2.05093401,66.7287807 3.10784534e-17,63.5026989 -3.55271368e-15,59.9566477 L0,9.140625 L0,9.140625 C-6.18229601e-16,4.09239721 4.09239721,2.91071206e-10 9.140625,2.91070279e-10 Z" id="Shield" fill="#A560E8"/><g id="Illustration" transform="translate(13.000000, 5.000000)"><g id="Group-2" transform="translate(7.000000, 5.000000)"><g id="Path-10" transform="translate(0.000000, 0.487761)"><path d="M0.971706261,7.40348351 L11.0645969,0.428613369 L11.0645969,0.428613369 C11.8132048,-0.0887253411 12.8038707,-0.0886930204 13.5524448,0.428694536 L23.6437958,7.40347366 L23.6437958,7.40347366 C24.2348954,7.81202045 24.5877131,8.48476413 24.5877131,9.20331072 L24.5877131,24.457958 L24.5877131,24.457958 C24.5877131,25.1894339 24.2221676,25.8725207 23.6135719,26.278314 L13.5222231,33.0069231 L13.5222231,33.0069231 C12.7872916,33.4969533 11.8297856,33.4969841 11.0948226,33.0070012 L1.0019299,26.2783016 L1.0019299,26.2783016 C0.393266571,25.8725197 0.0276715141,25.1893932 0.0276715141,24.4578674 L0.0276715141,9.20340174 L0.0276715141,9.20340174 C0.0276715141,8.48480467 0.380538491,7.81202043 0.971706261,7.40348351 Z" id="Mask" fill="#00B1FF"/><path d="M12.3076923,0.0406317365 C11.8731585,0.0407842685 11.4386595,0.170110822 11.0645969,0.428613369 L0.971706261,7.40348351 C0.55855631,7.68899807 0.261797359,8.10357646 0.120535762,8.5726576 L5.98323985,12.2279713 L11.7952057,11.7317855 L12.3076923,7.43150912 L12.3076923,0.0406317365 L12.3076923,0.0406317365 Z" id="Combined-Shape" fill="#DBF1FC"/><path d="M24.5066973,25.0479414 C24.3673367,25.5454878 24.0541385,25.9845575 23.6135719,26.278314 L13.5222231,33.0069231 C13.1576064,33.2500385 12.7382055,33.3725463 12.3183761,33.3744447 L12.3183761,26.1883637 L12.8308627,21.8880873 L18.6428285,21.3919016 L24.5066973,25.0479414 L24.5066973,25.0479414 Z" id="Combined-Shape" fill="#3796FF"/><path d="M12.3076923,33.3744669 C11.8848598,33.3743181 11.4620602,33.2518301 11.0948226,33.0070012 L1.0019299,26.2783016 C0.503753728,25.9461789 0.16840961,25.4282625 0.0630788589,24.8500826 L5.98323985,21.1589454 L11.7952057,21.6551311 L12.3076923,25.9554075 L12.3076923,33.3744669 Z" id="Combined-Shape" fill="#00A6EF"/></g><g id="Rectangle-105" transform="translate(5.470085, 7.417356)"><polygon id="Mask" fill="#3FC4FF" points="0.0138357571 4.97223848 6.83808283 0.256222137 13.6613779 4.97223848 13.6613779 14.7371664 6.83808283 19.2867352 0.0138357571 14.7371664"/><polygon id="Combined-Shape" fill="#67D0FF" points="13.6399631 4.95743734 13.6613779 4.97223848 13.6613779 14.7371664 6.83808283 19.2867352 0.0994798383 14.7942634"/></g></g><rect id="Rectangle-15" fill="#FFFFFF" opacity="0.7" transform="translate(7.500000, 4.500000) rotate(-315.000000) translate(-7.500000, -4.500000)" x="5" y="2" width="5" height="5" rx="0.5"/><rect id="Rectangle-15" fill="#FFFFFF" opacity="0.7" transform="translate(2.500000, 8.500000) rotate(-315.000000) translate(-2.500000, -8.500000)" x="1" y="7" width="3" height="3" rx="0.5"/><rect id="Rectangle-15" fill="#FFFFFF" opacity="0.7" transform="translate(36.000000, 33.000000) rotate(-315.000000) translate(-36.000000, -33.000000)" x="34" y="31" width="4" height="4" rx="0.5"/></g></g></g></g></svg>