<?xml version="1.0" encoding="UTF-8"?><svg width="73px" height="73px" viewBox="0 0 73 73" version="1.1" xmlns="http://www.w3.org/2000/svg" xmlns:xlink="http://www.w3.org/1999/xlink"><title>achievmement_items_0</title><desc>Created with Sketch.</desc><defs/><g id="Page-1" stroke="none" stroke-width="1" fill="none" fill-rule="evenodd"><g id="locked" transform="translate(-29.000000, -258.000000)" fill="#D1D1D1"><g id="achievmement_items_0" transform="translate(29.000000, 258.000000)"><path d="M7.0203536,45.7511662 L27.7181339,66.4489465 C32.6993809,71.4301934 40.7714818,71.4286308 45.7511662,66.4489465 L66.4489465,45.7511662 C71.4301934,40.7699192 71.4286308,32.6978183 66.4489465,27.7181339 L45.7511662,7.0203536 C40.7699192,2.03910668 32.6978183,2.04066925 27.7181339,7.0203536 L7.0203536,27.7181339 C2.03910668,32.6993809 2.04066925,40.7714818 7.0203536,45.7511662 Z M5.25258665,47.5189331 C-0.70390079,41.5624457 -0.70447871,31.9074323 5.25258665,25.950367 L25.950367,5.25258665 C31.9068544,-0.70390079 41.5618678,-0.70447871 47.5189331,5.25258665 L68.2167134,25.950367 C74.1732009,31.9068544 74.1737788,41.5618678 68.2167134,47.5189331 L47.5189331,68.2167134 C41.5624457,74.1732009 31.9074323,74.1737788 25.950367,68.2167134 L5.25258665,47.5189331 Z" id="Border" fill-rule="nonzero"/><path d="M27.0204435,36.0662964 L27.0204435,47.1132093 C27.0204435,52.8373491 31.6583478,57.4756511 37.3794928,57.4756511 C43.1018957,57.4756511 47.7385421,52.8362278 47.7385421,47.1132093 L47.7385421,36.0662964 L27.0204435,36.0662964 Z M25.152393,34.1980156 L49.6065925,34.1980156 L49.6065925,47.1132093 C49.6065925,53.868365 44.1332774,59.3439317 37.3794928,59.3439317 C30.6262108,59.3439317 25.152393,53.8687307 25.152393,47.1132093 L25.152393,34.1980156 Z" id="Rectangle"/><path d="M30.7450455,36.0662964 L30.7450455,39.5302324 C30.7450455,41.253348 31.3895092,42.825666 32.4503527,44.0190402 C33.7423936,42.825666 35.4891318,41.9677831 37.4958866,41.9677831 C39.4686417,41.9677831 41.0474819,42.5988309 42.4775594,44.0900387 C43.576409,42.8883122 44.2467277,41.2876338 44.2467277,39.5302324 L44.2467277,36.0662964 L30.7450455,36.0662964 Z M28.8769951,34.1980156 L46.1147781,34.1980156 L46.1147781,39.5302324 C46.1147781,42.3839049 44.7299341,44.913871 42.5957577,46.4836706 C41.3149679,44.3238908 39.4043976,43.3396518 37.4958866,43.3396518 C35.4836981,43.3396518 33.8239896,44.2471866 32.1660714,46.3083923 C30.1629694,44.7291902 28.8769951,42.279996 28.8769951,39.5302324 L28.8769951,34.1980156 Z" id="Rectangle"/><path d="M42.539813,43.7225473 C45.1291892,46.3155467 45.2552565,50.471573 42.8491639,53.2137099 C42.1478149,54.013012 40.9168718,54.0527179 40.1654813,53.3002761 L37.3853845,50.5162893 L34.6052877,53.3002761 C33.8538973,54.0527179 32.6229541,54.013012 31.9216051,53.2137099 C29.5155125,50.471573 29.6415798,46.3155466 32.2309561,43.7225473 C33.6106962,42.3408766 35.4756462,41.6236835 37.3853845,41.6916481 C39.2951228,41.6236835 41.1600728,42.3408766 42.539813,43.7225473 Z M37.3853845,43.5326266 C35.9991879,43.4656739 34.5909091,43.9622548 33.5322759,45.0223692 C31.6200412,46.9372795 31.5439386,49.9946122 33.303968,52.0004542 L37.3853845,47.9133268 L41.4668011,52.0004542 C43.2268305,49.9946122 43.1507278,46.9372795 41.2384932,45.0223692 C40.17986,43.9622548 38.7715811,43.4656739 37.3853845,43.5326266 Z" id="Combined-Shape" fill-rule="nonzero"/><path d="M35.011893,15.3021247 L27.4860187,30.9007296 L47.5057545,30.9007296 L39.9798801,15.3021247 C38.6077715,12.4582052 36.3837648,12.4586961 35.011893,15.3021247 Z M49.7123022,30.9007296 L41.7696952,14.4383779 C39.6747077,10.0961739 35.3169219,10.0964714 33.222078,14.4383779 L25.279471,30.9007296 L49.7123022,30.9007296 Z" id="Combined-Shape"/><path d="M18.8728766,32.532523 C18.8728766,33.4319039 19.6036223,34.1643165 20.5050429,34.1643165 L54.2539426,34.1643165 C55.1550758,34.1643165 55.8861089,33.4337377 55.8861089,32.532523 C55.8861089,31.6331422 55.1553632,30.9007296 54.2539426,30.9007296 L20.5050429,30.9007296 C19.6039098,30.9007296 18.8728766,31.6313084 18.8728766,32.532523 Z M17.0048262,32.532523 C17.0048262,30.5993867 18.5723127,29.0324489 20.5050429,29.0324489 L54.2539426,29.0324489 C56.1866034,29.0324489 57.7541594,30.6008633 57.7541594,32.532523 C57.7541594,34.4656594 56.1866729,36.0325972 54.2539426,36.0325972 L20.5050429,36.0325972 C18.5723822,36.0325972 17.0048262,34.4641828 17.0048262,32.532523 Z" id="Rectangle-34"/><path d="M39.7229924,39.9946806 C38.9492205,39.9946806 38.3219545,39.3673372 38.3219545,38.59347 C38.3219545,37.8196028 38.9492205,37.1922595 39.7229924,37.1922595 L42.6421343,37.1922595 C43.4159061,37.1922595 44.0431721,37.8196028 44.0431721,38.59347 C44.0431721,39.3673372 43.4159061,39.9946806 42.6421343,39.9946806 L39.7229924,39.9946806 Z" id="Line"/><path d="M32.3659489,39.9946806 C31.5921771,39.9946806 30.9649111,39.3673372 30.9649111,38.59347 C30.9649111,37.8196028 31.5921771,37.1922595 32.3659489,37.1922595 L35.5171918,37.1922595 C36.2909636,37.1922595 36.9182295,37.8196028 36.9182295,38.59347 C36.9182295,39.3673372 36.2909636,39.9946806 35.5171918,39.9946806 L32.3659489,39.9946806 Z" id="Line"/></g></g></g></svg>