<?xml version="1.0" encoding="UTF-8"?><svg width="65px" height="80px" viewBox="0 0 65 80" version="1.1" xmlns="http://www.w3.org/2000/svg" xmlns:xlink="http://www.w3.org/1999/xlink"><title>Icon/Achievements/07-Wizard</title><desc>Created with Sketch.</desc><defs/><g id="Page-1" stroke="none" stroke-width="1" fill="none" fill-rule="evenodd"><g id="Icon/Achievements/07-Wizard"><g><path d="M9.140625,6.21443001e-15 L55.859375,6.21443001e-15 L55.859375,5.32907052e-15 C60.9076028,-8.19656842e-17 65,4.09239721 65,9.140625 L65,59.9429806 L65,59.9429806 C65,63.4942357 62.9431103,66.724067 59.7250694,68.225941 L36.3077386,79.1549133 L36.3077386,79.1549133 C33.8529653,80.3005669 31.0164757,80.2983634 28.5634854,79.1488972 L5.26206614,68.2299006 L5.26206614,68.2299006 C2.05101258,66.7252076 2.61375782e-15,63.4990762 5.32907052e-15,59.9529564 L0,9.140625 L1.77635684e-15,9.140625 C1.15812724e-15,4.09239721 4.09239721,9.80910232e-15 9.140625,8.8817842e-15 Z" id="Shield" fill="#FA811B"/><g id="Illustration" transform="translate(17.000000, 7.000000)"><g id="Group-6"><path d="M9.53488372,15.8139535 L21.5637078,15.8139535 L21.5637078,15.8139535 C26.8296787,15.8139535 31.0985915,20.0828663 31.0985915,25.3488372 L31.0985915,25.3488372 L31.0985915,25.3488372 C31.0985915,30.6148081 26.8296787,34.8837209 21.5637078,34.8837209 L9.53488372,34.8837209 L9.53488372,34.8837209 C4.26891285,34.8837209 1.00888836e-14,30.6148081 7.10542736e-15,25.3488372 L7.10542736e-15,25.3488372 L7.10542736e-15,25.3488372 C4.12197108e-15,20.0828663 4.26891285,15.8139535 9.53488372,15.8139535 Z" id="Rectangle-3-Copy" fill="#E5E5E5"/><rect id="Rectangle-2-Copy-2" fill="#FFD097" x="6.78169014" y="8.37209302" width="17.3521127" height="21.8604651" rx="8.67605634"/><rect id="Rectangle-4" fill="#E5E5E5" x="6.30985915" y="26.9767442" width="18.4788732" height="6.51162791"/><rect id="Rectangle-9" fill="#FFFFFF" x="9.46478873" y="24.1860465" width="12.1690141" height="15.8139535" rx="6.08450704"/><g id="Group-5" transform="translate(4.612676, 22.230444)" fill="#FFFFFF"><path d="M5.83322649,6.04651163 L0.399016742,6.04651163 C1.05291958,2.59661347 3.90096475,0 7.31530694,0 C8.57174687,0 9.75150123,0.351622517 10.773452,0.967994844 C11.7954028,0.351622517 12.9751572,0 14.2315971,0 C17.6459393,0 20.4939845,2.59661347 21.1478873,6.04651163 L5.83322649,6.04651163 Z" id="Combined-Shape"/></g><rect id="Rectangle-2" fill="#DBAA6F" x="10.5774648" y="18.3086681" width="2.16901408" height="3.3615222" rx="1.08450704"/><rect id="Rectangle-2" fill="#DBAA6F" x="18.1690141" y="18.3086681" width="2.16901408" height="3.3615222" rx="1.08450704"/><rect id="Rectangle-6-Copy" fill="#FFFFFF" x="8.4084507" y="16.627907" width="5.96478873" height="2.8012685" rx="1.40063425"/><path d="M17.5967914,1.23993762 L24.7036032,13.9183188 L24.7036032,13.9183188 C24.9498872,14.3576837 24.7933643,14.9135119 24.3539995,15.159796 C24.2177764,15.2361552 24.0642276,15.2762556 23.9080628,15.2762556 L7.42082231,15.2762556 L7.42082231,15.2762556 C6.9171386,15.2762556 6.50882227,14.8679393 6.50882227,14.3642556 C6.50882227,14.207237 6.54936206,14.0528781 6.6265168,13.916123 L13.7811612,1.23466753 L13.7811612,1.23466753 C14.3751535,0.181828763 15.7101739,-0.190139785 16.7630127,0.403852527 C17.1122831,0.6009045 17.400705,0.890124183 17.5967914,1.23993762 Z" id="Triangle-Copy" fill="#059FE3"/><rect id="Rectangle-6-Copy-2" fill="#FFFFFF" x="16.5422535" y="16.627907" width="5.96478873" height="2.8012685" rx="1.40063425"/><rect id="Rectangle-3" fill="#F3AD6D" x="13.8309859" y="16.627907" width="3.25352113" height="7.2832981" rx="1.09440004"/><ellipse id="Oval-8" fill="#00B1FF" cx="17.7183099" cy="9.34460888" rx="2.71126761" ry="2.8012685"/><ellipse id="Oval-8" fill="#00B1FF" cx="13.8133803" cy="5.67948436" rx="1.6443662" ry="1.69895115"/></g><rect id="Rectangle-6" fill="#00B1FF" x="0" y="14.4186047" width="32" height="2.3255814" rx="1.1627907"/></g></g></g></g></svg>