<?xml version="1.0" encoding="UTF-8"?><svg width="65px" height="80px" viewBox="0 0 65 80" version="1.1" xmlns="http://www.w3.org/2000/svg" xmlns:xlink="http://www.w3.org/1999/xlink"><title>Icon/Achievements/01-Shiny</title><desc>Created with Sketch.</desc><defs/><g id="Page-1" stroke="none" stroke-width="1" fill="none" fill-rule="evenodd"><g id="Icon/Achievements/01-Shiny"><g><path d="M9.140625,6.21443001e-15 L55.859375,6.21443001e-15 L55.859375,5.32907052e-15 C60.9076028,-8.19656842e-17 65,4.09239721 65,9.140625 L65,59.9429806 L65,59.9429806 C65,63.4942357 62.9431103,66.724067 59.7250694,68.225941 L36.3077386,79.1549133 L36.3077386,79.1549133 C33.8529653,80.3005669 31.0164757,80.2983634 28.5634854,79.1488972 L5.26206614,68.2299006 L5.26206614,68.2299006 C2.05101258,66.7252076 2.61375782e-15,63.4990762 5.32907052e-15,59.9529564 L0,9.140625 L1.77635684e-15,9.140625 C1.15812724e-15,4.09239721 4.09239721,9.80910232e-15 9.140625,8.8817842e-15 Z" id="Shield" fill="#1CB0F6"/><g id="Illustration" transform="translate(10.000000, 12.000000)"><g id="Rectangle-100" transform="translate(0.230213, 0.390547)"><g id="Group-17" transform="translate(0.324004, 11.550630)" fill="#FF5151"><path d="M3.1700637,1.74570372 L7.99710047,1.74570372 L7.99710047,1.74570372 C8.6775153,1.74570372 9.2291005,2.29728892 9.2291005,2.97770375 L9.2291005,8.03074611 L9.2291005,8.03074611 C9.2291005,8.71116093 8.6775153,9.26274613 7.99710047,9.26274613 C7.92790556,9.26274613 7.85883365,9.25691669 7.7906175,9.24531963 L3.65787626,8.54273502 L3.65787626,8.54273502 C3.13727691,8.45423079 2.73097696,8.04379086 2.64775488,7.52232105 L1.95345936,3.1718633 L1.95345936,3.1718633 C1.84622799,2.49995128 2.30399212,1.86833076 2.97590414,1.7610994 C3.04011629,1.7508517 3.10503897,1.74570372 3.1700637,1.74570372 Z" id="Rectangle-99" transform="translate(5.585327, 5.505616) rotate(-323.000000) translate(-5.585327, -5.505616)"/><path d="M36.8099576,1.74570372 L41.6369944,1.74570372 L41.6369944,1.74570372 C42.3174092,1.74570372 42.8689944,2.29728892 42.8689944,2.97770375 L42.8689944,8.03074611 L42.8689944,8.03074611 C42.8689944,8.71116093 42.3174092,9.26274613 41.6369944,9.26274613 C41.5677995,9.26274613 41.4987276,9.25691669 41.4305114,9.24531963 L37.2977702,8.54273502 L37.2977702,8.54273502 C36.7771708,8.45423079 36.3708709,8.04379086 36.2876488,7.52232105 L35.5933533,3.1718633 L35.5933533,3.1718633 C35.4861219,2.49995128 35.943886,1.86833076 36.6157981,1.7610994 C36.6800102,1.7508517 36.7449329,1.74570372 36.8099576,1.74570372 Z" id="Rectangle-99" transform="translate(39.225221, 5.505616) scale(-1, 1) rotate(-323.000000) translate(-39.225221, -5.505616)"/></g><path d="M5.99168132,3.80901338 L13.8228239,9.99151052 L13.8228239,9.99151052 C14.2527938,10.3309613 14.8758705,10.2611328 15.2200326,9.83492472 L22.6577383,0.624119677 L22.6577383,0.624119677 C23.0045966,0.194572659 23.6339975,0.127540218 24.0635445,0.47439853 C24.1262648,0.525044998 24.1826285,0.583092238 24.2314076,0.647275487 L31.1668392,9.7728671 L31.1668392,9.7728671 C31.5009089,10.2124337 32.128065,10.2979557 32.5676315,9.96388604 C32.5791743,9.95511353 32.590525,9.94609095 32.6016753,9.93682471 L39.8579691,3.90664793 L39.8579691,3.90664793 C40.2825901,3.55377637 40.9128723,3.61194079 41.2657439,4.03656179 C41.4341305,4.23918652 41.515722,4.50009165 41.4927784,4.7625501 L39.6964876,25.3108224 L39.6964876,25.3108224 C39.6513453,25.8272173 39.218973,26.2234414 38.7006087,26.2234414 L7.17568237,26.2234414 L7.17568237,26.2234414 C6.6573181,26.2234414 6.22494578,25.8272173 6.17980352,25.3108224 L4.37635743,4.68069954 L4.37635743,4.68069954 C4.32827672,4.13069084 4.73516975,3.64584357 5.28517845,3.59776286 C5.53899496,3.5755747 5.79170556,3.65113738 5.99168132,3.80901338 Z" id="Mask" fill="#FFD300"/><path d="M35.6828349,7.37629757 L39.8845462,3.88456161 C40.3091445,3.53170895 40.9321438,3.59882016 41.2760542,4.0344587 C41.4379375,4.23951967 41.515625,4.50120176 41.4926487,4.76403443 L39.6975173,25.2990429 C39.6826281,25.4693644 39.6273106,25.626729 39.5418036,25.7615318 L35.2908617,25.7615318 C34.6174735,25.7615318 34.0715846,25.2014488 34.0715846,24.5105514 C34.0715846,24.4702944 34.0734785,24.4300608 34.0772599,24.3899911 L35.6828349,7.37629757 Z" id="Combined-Shape" fill="#FFAF06"/><path d="M14.2922565,10.2055081 C14.6261603,10.2590546 14.9774737,10.1353081 15.2077121,9.85018233 L22.2302666,1.15349782 C22.2302859,1.15640258 22.2302956,1.1593097 22.2302956,1.16221913 L22.2302956,24.5105514 C22.2302956,25.2014488 21.6844066,25.7615318 21.0110184,25.7615318 L15.5115336,25.7615318 C14.8381454,25.7615318 14.2922565,25.2014488 14.2922565,24.5105514 L14.2922565,10.2055081 Z" id="Combined-Shape" fill="#FFF3CD"/></g><g id="Rectangle-98" transform="translate(18.169787, 10.663750)"><path d="M3.00369403,1.95834891 L7.43696702,1.95834891 L7.43696702,1.95834891 C8.11738184,1.95834891 8.66896704,2.50993411 8.66896704,3.19034893 L8.66896704,7.84508548 L8.66896704,7.84508548 C8.66896704,8.52550031 8.11738184,9.07708551 7.43696702,9.07708551 L3.00369403,9.07708551 L3.00369403,9.07708551 C2.3232792,9.07708551 1.771694,8.52550031 1.771694,7.84508548 L1.771694,3.19034893 L1.771694,3.19034893 C1.771694,2.50993411 2.3232792,1.95834891 3.00369403,1.95834891 Z" id="Mask" fill="#FF5151" transform="translate(5.220331, 5.517717) rotate(-315.000000) translate(-5.220331, -5.517717)"/><path d="M5.44837826,2.47292102 L5.44837826,4.72132643 L5.44837826,4.72132643 C5.44837826,5.40174126 4.89679306,5.95332646 4.21637823,5.95332646 L2.12906427,5.95332646 L2.12906427,5.95332646 C1.81978481,5.95332646 1.56906427,5.70260592 1.56906427,5.39332646 C1.56906427,5.25029992 1.62379007,5.11269401 1.72201715,5.00873233 L4.48133114,2.08832689 L4.48133114,2.08832689 C4.69373662,1.86352098 5.04816648,1.85346843 5.27297239,2.06587391 C5.3849332,2.17165889 5.44837826,2.31888958 5.44837826,2.47292102 Z" fill="#FFF3F3"/></g><path d="M6.04577242,24.6032457 L40.0650719,24.6032457 L40.0650719,24.6032457 C41.1343179,24.6032457 42.001113,25.4700408 42.001113,26.5392868 L42.001113,26.5392868 L42.001113,26.5392868 C42.001113,27.6085328 41.1343179,28.4753279 40.0650719,28.4753279 L6.04577242,28.4753279 L6.04577242,28.4753279 C4.97652643,28.4753279 4.1097313,27.6085328 4.1097313,26.5392868 L4.1097313,26.5392868 L4.1097313,26.5392868 C4.1097313,25.4700408 4.97652643,24.6032457 6.04577242,24.6032457 Z" id="Rectangle-97" fill="#FFB100"/></g></g></g></g></svg>