<?xml version="1.0" encoding="UTF-8"?><svg width="73px" height="73px" viewBox="0 0 73 73" version="1.1" xmlns="http://www.w3.org/2000/svg" xmlns:xlink="http://www.w3.org/1999/xlink"><title>achievement_completion_1</title><desc>Created with Sketch.</desc><defs/><g id="Page-1" stroke="none" stroke-width="1" fill="none" fill-rule="evenodd"><g id="color" transform="translate(-30.000000, -169.000000)"><g id="achievement_completion_1" transform="translate(28.000000, 167.000000)"><g id="gold-badge-bg-copy"><path d="M9.0203536,47.7511662 L29.7181339,68.4489465 C34.6993809,73.4301934 42.7714818,73.4286308 47.7511662,68.4489465 L68.4489465,47.7511662 C73.4301934,42.7699192 73.4286308,34.6978183 68.4489465,29.7181339 L47.7511662,9.0203536 C42.7699192,4.03910668 34.6978183,4.04066925 29.7181339,9.0203536 L9.0203536,29.7181339 C4.03910668,34.6993809 4.04066925,42.7714818 9.0203536,47.7511662 Z M7.25258665,49.5189331 C1.29609921,43.5624457 1.29552129,33.9074323 7.25258665,27.950367 L27.950367,7.25258665 C33.9068544,1.29609921 43.5618678,1.29552129 49.5189331,7.25258665 L70.2167134,27.950367 C76.1732009,33.9068544 76.1737788,43.5618678 70.2167134,49.5189331 L49.5189331,70.2167134 C43.5624457,76.1732009 33.9074323,76.1737788 27.950367,70.2167134 L7.25258665,49.5189331 Z" id="Mask" fill="#AD1F1F" fill-rule="nonzero"/><rect id="Mask-Copy" fill="#E53838" transform="translate(38.734650, 38.734650) rotate(-45.000000) translate(-38.734650, -38.734650)" x="11.3478298" y="11.3478298" width="54.7736404" height="54.7736404" rx="12.75"/><polygon id="Rectangle-12" fill="#F34B4B" transform="translate(42.692914, 34.692914) rotate(-45.000000) translate(-42.692914, -34.692914)" points="51.6445011 7.30923394 51.6445011 62.0673957 34.4300531 62.0765937 33.7413265 7.60340799"/></g><g id="sword" transform="translate(25.000000, 12.000000)"><path d="M6.75,26.2131603 C6.75,24.9659973 7.35171344,23.1490235 8.09862348,22.1485954 L12.0056485,16.9154385 C13.1638933,15.3640595 15.0418082,15.363748 16.2006086,16.9154385 L20.1087233,22.1485954 C20.8537552,23.1462296 21.4577229,24.9592927 21.4577229,26.2131603 L21.4577229,54.6650908 L6.75,54.6650908 L6.75,26.2131603 Z" id="Rectangle-5-Copy-2" fill="#DD2D2D" transform="translate(14.103861, 35.207545) scale(1, -1) translate(-14.103861, -35.207545)"/><rect id="Rectangle-10" fill="#DD2D2D" x="0.5" y="19.8353941" width="27.75" height="6.29665072" rx="3.14832536"/><circle id="Oval-9" fill="#DD2D2D" cx="14.125" cy="8.625" r="4.875"/><circle id="Oval-7" stroke="#979797" stroke-width="0.5" fill="#FFDDDD" cx="14.5" cy="5.25" r="1.75"/><path d="M8.6615566,41.8016983 C8.6615566,42.0139533 8.76396809,42.3231922 8.89214959,42.4948813 L13.6247224,48.8337955 C13.847493,49.1321794 14.2097639,49.1307893 14.4315585,48.8337955 L19.1654512,42.4948813 C19.2928397,42.3243019 19.3961085,42.0121026 19.3961085,41.8016983 L19.3961085,19.7719884 L8.6615566,19.7719884 L8.6615566,41.8016983 Z M6.6615566,41.8016983 L6.6615566,17.7719884 L21.3961085,17.7719884 L21.3961085,41.8016983 C21.3961085,42.4440433 21.1530306,43.1759006 20.7679102,43.6915956 L16.0340175,50.0305098 C15.0126926,51.3981138 13.0450502,51.4004533 12.0221035,50.0302955 L7.2895306,43.6913814 C6.90367325,43.1745554 6.6615566,42.4457272 6.6615566,41.8016983 Z" id="Boarder" fill="#AD1F1F" fill-rule="nonzero"/><path d="M8.6615566,27.0320684 C8.6615566,26.8172089 8.76396809,26.5058586 8.89214959,26.3341695 L13.6247224,19.9952553 C13.847493,19.6968714 14.206688,19.6941427 14.4315585,19.9952553 L19.1654512,26.3341695 C19.2928397,26.5047489 19.3961085,26.8105601 19.3961085,27.0320684 L19.3961085,49.0570624 L8.6615566,49.0570624 L8.6615566,27.0320684 Z" id="Mask-Copy-2" fill="#F25555" transform="translate(14.028833, 34.414525) scale(1, -1) translate(-14.028833, -34.414525)"/><path d="M9.86665636,28.2127085 C9.86665636,27.5236242 10.2423884,27.3828061 10.7032836,27.8952982 L17.3962481,35.3375365 C17.8583046,35.8513199 18.2328754,36.8279021 18.2328754,37.5201044 L18.2328754,41.2037731 C18.2328754,41.8953886 17.8433599,42.0535557 17.3651403,41.5593971 L10.7343914,34.7076455 C10.2551546,34.2124357 9.86665636,33.2507538 9.86665636,32.5632914 L9.86665636,28.2127085 Z" id="Rectangle-23" fill="#FF8B8B" transform="translate(14.049766, 34.717046) scale(1, -1) translate(-14.049766, -34.717046)"/><rect id="Rectangle-22" fill="#AD1F1F" opacity="0.485507246" transform="translate(14.205778, 25.153531) scale(1, -1) translate(-14.205778, -25.153531)" x="8.1615566" y="23" width="12.0884434" height="4.30706243"/><path d="M13.0630159,19.4467355 L15.3508992,19.4467355 L15.3508992,8.37403702 C15.3508992,7.7423289 14.8374535,7.23022828 14.2069575,7.23022828 C13.575176,7.23022828 13.0630159,7.7434716 13.0630159,8.37403702 L13.0630159,19.4467355 Z M17.3508992,21.4467355 L11.0630159,21.4467355 L11.0630159,8.37403702 C11.0630159,6.63876419 12.470744,5.23022828 14.2069575,5.23022828 C15.9420678,5.23022828 17.3508992,6.63780336 17.3508992,8.37403702 L17.3508992,21.4467355 Z" id="Rectangle-7" fill="#AD1F1F" fill-rule="nonzero"/><path d="M13.0630159,7.23022828 L15.3508992,7.23022828 L15.3508992,18.2974361 C15.3508992,18.9321766 14.8431438,19.4467355 14.2069575,19.4467355 L14.2069575,19.4467355 C13.575176,19.4467355 13.0630159,18.9373607 13.0630159,18.2974361 L13.0630159,7.23022828 Z" id="Rectangle-7-Copy" fill="#D74646" transform="translate(14.206958, 13.338482) scale(1, -1) translate(-14.206958, -13.338482)"/><path d="M2.5,20.2376731 C2.5,21.6165046 3.61784531,22.7337195 4.99677738,22.7337195 L23.7532226,22.7337195 C25.1323833,22.7337195 26.25,21.6162015 26.25,20.2376731 C26.25,18.8588417 25.1321547,17.7416268 23.7532226,17.7416268 L4.99677738,17.7416268 C3.61761673,17.7416268 2.5,18.8591448 2.5,20.2376731 Z M0.5,20.2376731 C0.5,17.7543936 2.51322896,15.7416268 4.99677738,15.7416268 L23.7532226,15.7416268 C26.2366603,15.7416268 28.25,17.7542082 28.25,20.2376731 C28.25,22.7209527 26.236771,24.7337195 23.7532226,24.7337195 L4.99677738,24.7337195 C2.51333972,24.7337195 0.5,22.7211381 0.5,20.2376731 Z" id="Rectangle-10" fill="#AD1F1F" fill-rule="nonzero"/><rect id="Rectangle-10-Copy" fill="#FF5B5B" x="2.5" y="17.7416268" width="23.75" height="4.99209267" rx="2.49604634"/><rect id="Rectangle-21" fill="#FF8B8B" x="4.75" y="18.5" width="19.25" height="2.25" rx="1.125"/><path d="M14.1509434,8.79665072 C15.883346,8.79665072 17.2877358,7.38709744 17.2877358,5.64832536 C17.2877358,3.90955328 15.883346,2.5 14.1509434,2.5 C12.4185408,2.5 11.0141509,3.90955328 11.0141509,5.64832536 C11.0141509,7.38709744 12.4185408,8.79665072 14.1509434,8.79665072 Z M14.1509434,10.7966507 C11.3123249,10.7966507 9.01415094,8.49002721 9.01415094,5.64832536 C9.01415094,2.80662351 11.3123249,0.5 14.1509434,0.5 C16.9895619,0.5 19.2877358,2.80662351 19.2877358,5.64832536 C19.2877358,8.49002721 16.9895619,10.7966507 14.1509434,10.7966507 Z" id="Oval-2" fill="#AD1F1F" fill-rule="nonzero"/><ellipse id="Oval-2-Copy" fill="#FF6C6C" cx="14.1509434" cy="5.64832536" rx="3.13679245" ry="3.14832536"/><circle id="Oval-8" fill="#FF8B8B" cx="14.125" cy="4.375" r="1.375"/></g></g></g></g></svg>