<?xml version="1.0" encoding="UTF-8"?><svg width="73px" height="73px" viewBox="0 0 73 73" version="1.1" xmlns="http://www.w3.org/2000/svg" xmlns:xlink="http://www.w3.org/1999/xlink"><title>achievmement_xp_3</title><desc>Created with Sketch.</desc><defs/><g id="Page-1" stroke="none" stroke-width="1" fill="none" fill-rule="evenodd"><g id="gold" transform="translate(-27.000000, -351.000000)"><g id="achievmement_xp_3" transform="translate(25.000000, 349.000000)"><g id="bg"><path d="M9.0203536,47.7511662 L29.7181339,68.4489465 C34.6993809,73.4301934 42.7714818,73.4286308 47.7511662,68.4489465 L68.4489465,47.7511662 C73.4301934,42.7699192 73.4286308,34.6978183 68.4489465,29.7181339 L47.7511662,9.0203536 C42.7699192,4.03910668 34.6978183,4.04066925 29.7181339,9.0203536 L9.0203536,29.7181339 C4.03910668,34.6993809 4.04066925,42.7714818 9.0203536,47.7511662 Z M7.25258665,49.5189331 C1.29609921,43.5624457 1.29552129,33.9074323 7.25258665,27.950367 L27.950367,7.25258665 C33.9068544,1.29609921 43.5618678,1.29552129 49.5189331,7.25258665 L70.2167134,27.950367 C76.1732009,33.9068544 76.1737788,43.5618678 70.2167134,49.5189331 L49.5189331,70.2167134 C43.5624457,76.1732009 33.9074323,76.1737788 27.950367,70.2167134 L7.25258665,49.5189331 Z" id="Mask" fill="#D97C1F" fill-rule="nonzero"/><rect id="Mask-Copy" fill="#FFB103" transform="translate(38.734650, 38.734650) rotate(-45.000000) translate(-38.734650, -38.734650)" x="11.3478298" y="11.3478298" width="54.7736404" height="54.7736404" rx="12.75"/><polygon id="Rectangle-12-Copy" fill="#FFD986" transform="translate(42.715399, 34.715399) rotate(-45.000000) translate(-42.715399, -34.715399)" points="51.6678889 7.30082242 51.4116936 62.1207783 34.1972455 62.1299762 33.7629097 7.33234987"/></g><g id="200" transform="translate(16.000000, 25.000000)"><path d="M24.7957007,12.9479282 L24.7957007,18.70109 C24.7957007,24.1062085 29.1789632,28.4890091 34.5852007,28.4890091 C39.9924653,28.4890091 44.3747007,24.1071979 44.3747007,18.70109 L44.3747007,12.9479282 C44.3747007,7.54280972 39.9914383,3.16000912 34.5852007,3.16000912 C29.1779362,3.16000912 24.7957007,7.5418203 24.7957007,12.9479282 Z" id="Rectangle-29-Copy-12" fill="#ED9312" fill-rule="nonzero"/><path d="M12.0285439,13.2947024 L12.0285439,19.0478642 C12.0285439,24.4529827 16.4118063,28.8357833 21.8180439,28.8357833 C27.2253085,28.8357833 31.6075439,24.4539721 31.6075439,19.0478642 L31.6075439,13.2947024 C31.6075439,7.88958391 27.2242814,3.50678331 21.8180439,3.50678331 C16.4107793,3.50678331 12.0285439,7.8885945 12.0285439,13.2947024 Z" id="Rectangle-29-Copy-11" fill="#ED9312" fill-rule="nonzero"/><path d="M14.634387,21.6879443 C16.7107903,21.6879443 18.3475306,23.314071 18.3475306,25.2689723 C18.3475306,27.2238737 16.7107903,28.8500004 14.634387,28.8500004 L4.71637626,28.8500004 C1.36460607,28.8500004 -0.220573488,24.9615252 2.09290047,22.7343365 C2.46310479,22.3779396 2.86650656,21.8520794 7.93666547,15.1641828 C8.00280516,15.0769455 8.00280516,15.0769455 8.06896211,14.9897093 C9.2132141,13.4809797 10.1089869,12.3087538 10.8844843,11.3091737 C10.7069313,10.9185094 9.70988011,12.0759581 8.87222192,11.8241122 C8.87222192,13.7790135 7.23548163,15.4051402 5.15907828,15.4051402 C3.08267492,15.4051402 1.44593463,13.7790135 1.44593463,11.8241122 C1.44593463,7.2496778 5.22008625,3.5 9.93312011,3.5 C14.646154,3.5 18.4203056,7.2496778 18.4203056,11.8241122 C18.4203056,13.3496147 17.854209,14.4448308 16.3715989,16.275574 C16.2482325,16.4279082 14.0674579,19.2920046 12.247264,21.6879443 L14.634387,21.6879443 Z" id="Oval-15-Copy-2" fill="#ED9312" fill-rule="nonzero"/><path d="M24.7957007,9.94792821 L24.7957007,15.70109 C24.7957007,21.1062085 29.1789632,25.4890091 34.5852007,25.4890091 C39.9924653,25.4890091 44.3747007,21.1071979 44.3747007,15.70109 L44.3747007,9.94792821 C44.3747007,4.54280972 39.9914383,0.160009116 34.5852007,0.160009116 C29.1779362,0.160009116 24.7957007,4.5418203 24.7957007,9.94792821 Z" id="Rectangle-29-Copy-10" fill="#D97C1F" fill-rule="nonzero"/><path d="M26.8747007,9.94792821 C26.8747007,5.69006535 30.3260911,2.23900912 34.5852007,2.23900912 C38.8432873,2.23900912 42.2957007,5.69105876 42.2957007,9.94792821 L42.2957007,15.70109 C42.2957007,19.9589529 38.8443104,23.4100091 34.5852007,23.4100091 C30.3271142,23.4100091 26.8747007,19.9579595 26.8747007,15.70109 L26.8747007,9.94792821 Z" id="Path-Copy-3" fill="#FFB103"/><path d="M31.8747007,10.1973722 C31.8747007,8.70154052 33.0878217,7.48900912 34.5852007,7.48900912 C36.0815341,7.48900912 37.2957007,8.70292564 37.2957007,10.1973722 L37.2957007,15.4516461 C37.2957007,16.9474777 36.0825798,18.1600091 34.5852007,18.1600091 C33.0888674,18.1600091 31.8747007,16.9460926 31.8747007,15.4516461 L31.8747007,10.1973722 Z M29.7957007,10.1973722 L29.7957007,15.4516461 C29.7957007,18.0943885 31.9407633,20.2390091 34.5852007,20.2390091 C37.2305536,20.2390091 39.3747007,18.095904 39.3747007,15.4516461 L39.3747007,10.1973722 C39.3747007,7.55462976 37.2296382,5.41000912 34.5852007,5.41000912 C31.9398479,5.41000912 29.7957007,7.55311422 29.7957007,10.1973722 Z" id="Rectangle-29-Copy-9" fill="#D97C1F" fill-rule="nonzero"/><path d="M31.1522908,6.04686367 C32.0800245,5.20349602 33.2833675,4.7289939 34.5637697,4.7289939 C35.8335538,4.7289939 37.0279258,5.19591847 37.9530566,6.0271816 C38.3800926,6.41088866 39.0373297,6.37576365 39.4210367,5.9487277 C39.8047438,5.52169175 39.7696188,4.86445469 39.3425828,4.48074763 C38.0394565,3.30984203 36.3515947,2.6499939 34.5637697,2.6499939 C32.7611423,2.6499939 31.0606347,3.32053798 29.7538283,4.50850624 C29.3290226,4.894681 29.297706,5.55211053 29.6838808,5.97691621 C30.0700556,6.40172189 30.7274851,6.43303843 31.1522908,6.04686367 Z" id="Rectangle-29-Copy-8" fill="#FFE18B" fill-rule="nonzero"/><path d="M12.0285439,10.2947024 L12.0285439,16.0478642 C12.0285439,21.4529827 16.4118063,25.8357833 21.8180439,25.8357833 C27.2253085,25.8357833 31.6075439,21.4539721 31.6075439,16.0478642 L31.6075439,10.2947024 C31.6075439,4.88958391 27.2242814,0.50678331 21.8180439,0.50678331 C16.4107793,0.50678331 12.0285439,4.8885945 12.0285439,10.2947024 Z" id="Rectangle-29-Copy-7" fill="#D97C1F" fill-rule="nonzero"/><path d="M14.1075439,10.2947024 C14.1075439,6.03683955 17.5589342,2.58578331 21.8180439,2.58578331 C26.0761305,2.58578331 29.5285439,6.03783295 29.5285439,10.2947024 L29.5285439,16.0478642 C29.5285439,20.3057271 26.0771535,23.7567833 21.8180439,23.7567833 C17.5599573,23.7567833 14.1075439,20.3047337 14.1075439,16.0478642 L14.1075439,10.2947024 Z" id="Path-Copy-2" fill="#FFB103"/><path d="M18.3887325,6.39686977 C19.3164663,5.55350213 20.5198092,5.079 21.8002114,5.079 C23.0699955,5.079 24.2643675,5.54592457 25.1894984,6.3771877 C25.6165343,6.76089476 26.2737714,6.72576975 26.6574784,6.2987338 C27.0411855,5.87169786 27.0060605,5.21446079 26.5790245,4.83075373 C25.2758982,3.65984814 23.5880364,3 21.8002114,3 C19.997584,3 18.2970764,3.67054409 16.99027,4.85851234 C16.5654643,5.2446871 16.5341478,5.90211664 16.9203225,6.32692231 C17.3064973,6.75172799 17.9639268,6.78304453 18.3887325,6.39686977 Z" id="Rectangle-29-Copy-6" fill="#FFE18B" fill-rule="nonzero"/><path d="M19.0395,10.4978631 C19.0395,9.0020314 20.252621,7.7895 21.75,7.7895 C23.2463334,7.7895 24.4605,9.00341652 24.4605,10.4978631 L24.4605,15.7521369 C24.4605,17.2479686 23.247379,18.4605 21.75,18.4605 C20.2536666,18.4605 19.0395,17.2465835 19.0395,15.7521369 L19.0395,10.4978631 Z M16.9605,10.4978631 L16.9605,15.7521369 C16.9605,18.3948794 19.1055625,20.5395 21.75,20.5395 C24.3953528,20.5395 26.5395,18.3963949 26.5395,15.7521369 L26.5395,10.4978631 C26.5395,7.85512064 24.3944375,5.7105 21.75,5.7105 C19.1046472,5.7105 16.9605,7.8536051 16.9605,10.4978631 Z" id="Rectangle-29-Copy-5" fill="#D97C1F" fill-rule="nonzero"/><path d="M24.5,14.8999939 L24.5,10.399133 C24.5,8.88065818 23.2687831,7.6499939 21.75,7.6499939 C20.2343074,7.6499939 19,8.8808254 19,10.399133 L19,14.8999939 L19,12.649133 C19,11.1308254 20.2343074,9.8999939 21.75,9.8999939 C23.2687831,9.8999939 24.5,11.1306582 24.5,12.649133 L24.5,14.8999939 Z" id="Combined-Shape-Copy-4" fill="#ED9312"/><path d="M37.3352007,14.75 L37.3352007,10.2491391 C37.3352007,8.73066428 36.1039838,7.5 34.5852007,7.5 C33.0695081,7.5 31.8352007,8.73083151 31.8352007,10.2491391 L31.8352007,14.75 L31.8352007,12.4991391 C31.8352007,10.9808315 33.0695081,9.75 34.5852007,9.75 C36.1039838,9.75 37.3352007,10.9806643 37.3352007,12.4991391 L37.3352007,14.75 Z" id="Combined-Shape-Copy-3" fill="#ED9312"/><path d="M14.7254151,18.6879443 C16.7141511,18.6879443 18.346185,20.2799601 18.346185,22.2689723 C18.346185,24.2579846 16.7141511,25.8500004 14.7254151,25.8500004 L4.62402854,25.8500004 C1.37754307,25.8500004 -0.252271401,21.9246121 2.12231456,19.6800901 C2.5031482,19.320116 2.90326361,18.8080082 8.07907291,12.10469 C8.14643486,12.0174536 8.14643486,12.0174536 8.21381434,11.9302182 C9.36070183,10.4454655 10.2624862,9.2866185 11.0436072,8.29751737 C10.839995,7.92365965 10.4259527,7.66205608 9.93722567,7.66205608 C9.24058213,7.66205608 8.69568572,8.19359141 8.69568572,8.82411217 C8.69568572,10.8131244 7.06365183,12.4051402 5.07491575,12.4051402 C3.08617967,12.4051402 1.45414577,10.8131244 1.45414577,8.82411217 C1.45414577,4.21556686 5.26310998,0.5 9.93722567,0.5 C14.6113414,0.5 18.4203056,4.21556686 18.4203056,8.82411217 C18.4203056,10.3881408 17.8382811,11.4937309 16.3198856,13.3346257 C16.1951326,13.4858755 14.0094331,16.3042457 12.1649742,18.6879443 L14.7254151,18.6879443 Z" id="Oval-15" fill="#D97C1F" fill-rule="nonzero"/><path d="M14.776998,12.0620306 C15.9380403,10.6543892 16.4203056,9.85465557 16.4203056,8.82411217 C16.4203056,5.33140146 13.5177318,2.5 9.93722567,2.5 C6.35671951,2.5 3.45414577,5.33140146 3.45414577,8.82411217 C3.45414577,9.69728984 4.17978921,10.4051402 5.07491575,10.4051402 C5.97004229,10.4051402 6.69568572,9.69728984 6.69568572,8.82411217 C6.69568572,7.07775681 8.14697259,5.66205608 9.93722567,5.66205608 C11.7274788,5.66205608 13.1787656,7.07775681 13.1787656,8.82411217 C9.71015279,13.1750002 4.41202176,20.267854 3.49616246,21.1335487 C2.4503186,22.1221082 3.16773646,23.8500004 4.62402854,23.8500004 L14.7254151,23.8500004 C15.6205416,23.8500004 16.346185,23.14215 16.346185,22.2689723 C16.346185,21.3957947 15.6205416,20.6879443 14.7254151,20.6879443 L8.09501734,20.6879443 C8.81897787,19.7380976 14.5389127,12.350684 14.776998,12.0620306 Z" id="Oval-15-Copy" fill="#FFB103" fill-rule="nonzero"/><path d="M14.6031733,5.30242122 C13.5213436,3.86928742 11.7749174,3 9.87606025,3 C7.85887057,3 6.01836955,3.98144294 4.96305242,5.56425683 C4.65152608,6.03149859 4.79971858,6.64897559 5.29404963,6.94343032 C5.78838069,7.23788504 6.44165719,7.09781348 6.75318353,6.63057172 C7.42496717,5.62299925 8.59327836,5 9.87606025,5 C11.0838199,5 12.1918856,5.55154211 12.8807134,6.46405388 C13.220087,6.9136328 13.8807895,7.01804819 14.3564337,6.69727219 C14.8320779,6.37649619 14.942547,5.75200014 14.6031733,5.30242122 Z" id="Oval-17" fill="#FFE18B" fill-rule="nonzero"/></g><g id="sparkle" transform="translate(24.000000, 27.000000)" fill="#FFF0C4"><path d="M2.35370916,27.6337091 L8.80195441,27.6337091 L8.80195441,27.6337091 C9.19959946,27.6337091 9.52195447,27.9560641 9.52195447,28.3537092 L9.52195447,34.8019544 L9.52195447,34.8019544 C9.52195447,35.1995995 9.19959946,35.5219545 8.80195441,35.5219545 L2.35370916,35.5219545 L2.35370916,35.5219545 C1.95606411,35.5219545 1.63370911,35.1995995 1.63370911,34.8019544 L1.63370911,28.3537092 L1.63370911,28.3537092 C1.63370911,27.9560641 1.95606411,27.6337091 2.35370916,27.6337091 Z" id="Rectangle-2-Copy-16" transform="translate(5.577832, 31.577832) rotate(-315.000000) translate(-5.577832, -31.577832)"/><path d="M33.1431987,2.05777758 L37.7031985,2.05777758 L37.7031985,2.05777758 C38.1008436,2.05777758 38.4231986,2.38013259 38.4231986,2.77777764 L38.4231986,7.33777752 L38.4231986,7.33777752 C38.4231986,7.73542258 38.1008436,8.05777758 37.7031985,8.05777758 L33.1431987,8.05777758 L33.1431987,8.05777758 C32.7455536,8.05777758 32.4231986,7.73542258 32.4231986,7.33777752 L32.4231986,2.77777764 L32.4231986,2.77777764 C32.4231986,2.38013259 32.7455536,2.05777758 33.1431987,2.05777758 Z" id="Rectangle-2-Copy-14" transform="translate(35.423199, 5.057778) rotate(-315.000000) translate(-35.423199, -5.057778)"/></g></g></g></g></svg>