<?xml version="1.0" encoding="UTF-8"?><svg width="73px" height="73px" viewBox="0 0 73 73" version="1.1" xmlns="http://www.w3.org/2000/svg" xmlns:xlink="http://www.w3.org/1999/xlink"><title>achievmement_time_0</title><desc>Created with Sketch.</desc><defs/><g id="Page-1" stroke="none" stroke-width="1" fill="none" fill-rule="evenodd"><g id="locked" transform="translate(-120.000000, -351.000000)" fill-rule="nonzero" fill="#D1D1D1"><g id="achievmement_time_0" transform="translate(120.000000, 351.000000)"><path d="M7.0203536,45.7511662 L27.7181339,66.4489465 C32.6993809,71.4301934 40.7714818,71.4286308 45.7511662,66.4489465 L66.4489465,45.7511662 C71.4301934,40.7699192 71.4286308,32.6978183 66.4489465,27.7181339 L45.7511662,7.0203536 C40.7699192,2.03910668 32.6978183,2.04066925 27.7181339,7.0203536 L7.0203536,27.7181339 C2.03910668,32.6993809 2.04066925,40.7714818 7.0203536,45.7511662 Z M5.25258665,47.5189331 C-0.70390079,41.5624457 -0.70447871,31.9074323 5.25258665,25.950367 L25.950367,5.25258665 C31.9068544,-0.70390079 41.5618678,-0.70447871 47.5189331,5.25258665 L68.2167134,25.950367 C74.1732009,31.9068544 74.1737788,41.5618678 68.2167134,47.5189331 L47.5189331,68.2167134 C41.5624457,74.1732009 31.9074323,74.1737788 25.950367,68.2167134 L5.25258665,47.5189331 Z" id="Mask"/><path d="M36.75,52.5 C27.4992304,52.5 20,45.0007696 20,35.75 C20,26.4992304 27.4992304,19 36.75,19 C46.0007696,19 53.5,26.4992304 53.5,35.75 C53.5,45.0007696 46.0007696,52.5 36.75,52.5 Z M36.75,50.5 C44.8962001,50.5 51.5,43.8962001 51.5,35.75 C51.5,27.6037999 44.8962001,21 36.75,21 C28.6037999,21 22,27.6037999 22,35.75 C22,43.8962001 28.6037999,50.5 36.75,50.5 Z" id="Combined-Shape"/><path d="M35.75,26.5 L35.75,38.5032046 C35.75,39.0554894 36.1977153,39.5032046 36.75,39.5032046 C37.3022847,39.5032046 37.75,39.0554894 37.75,38.5032046 L37.75,26.5 C37.75,25.9477153 37.3022847,25.5 36.75,25.5 C36.1977153,25.5 35.75,25.9477153 35.75,26.5 Z" id="Line"/><path d="M42.1541843,38.6938302 L35.3416843,33.6938302 C34.896449,33.367052 34.2706084,33.4630805 33.9438302,33.9083157 C33.617052,34.353551 33.7130805,34.9793916 34.1583157,35.3061698 L40.9708157,40.3061698 C41.416051,40.632948 42.0418916,40.5369195 42.3686698,40.0916843 C42.695448,39.646449 42.5994195,39.0206084 42.1541843,38.6938302 Z" id="Line"/><path d="M35.875,20.995838 L35.875,22.875 C35.875,23.4272847 36.3227153,23.875 36.875,23.875 C37.4272847,23.875 37.875,23.4272847 37.875,22.875 L37.875,20.995838 C37.875,20.4435532 37.4272847,19.995838 36.875,19.995838 C36.3227153,19.995838 35.875,20.4435532 35.875,20.995838 Z" id="Line"/><path d="M35.875,48.745838 L35.875,50.625 C35.875,51.1772847 36.3227153,51.625 36.875,51.625 C37.4272847,51.625 37.875,51.1772847 37.875,50.625 L37.875,48.745838 C37.875,48.1935532 37.4272847,47.745838 36.875,47.745838 C36.3227153,47.745838 35.875,48.1935532 35.875,48.745838 Z" id="Line"/><path d="M51.504162,34.875 L49.625,34.875 C49.0727153,34.875 48.625,35.3227153 48.625,35.875 C48.625,36.4272847 49.0727153,36.875 49.625,36.875 L51.504162,36.875 C52.0564468,36.875 52.504162,36.4272847 52.504162,35.875 C52.504162,35.3227153 52.0564468,34.875 51.504162,34.875 Z" id="Line"/><path d="M23.754162,34.875 L21.875,34.875 C21.3227153,34.875 20.875,35.3227153 20.875,35.875 C20.875,36.4272847 21.3227153,36.875 21.875,36.875 L23.754162,36.875 C24.3064468,36.875 24.754162,36.4272847 24.754162,35.875 C24.754162,35.3227153 24.3064468,34.875 23.754162,34.875 Z" id="Line"/></g></g></g></svg>