<?xml version="1.0" encoding="UTF-8"?><svg width="73px" height="73px" viewBox="0 0 73 73" version="1.1" xmlns="http://www.w3.org/2000/svg" xmlns:xlink="http://www.w3.org/1999/xlink"><title>achievement_completion_0</title><desc>Created with Sketch.</desc><defs/><g id="Page-1" stroke="none" stroke-width="1" fill="none" fill-rule="evenodd"><g id="locked" transform="translate(-30.000000, -169.000000)" fill="#D1D1D1"><g id="achievement_completion_0" transform="translate(30.000000, 169.000000)"><path d="M6.7703536,45.5011662 L27.4681339,66.1989465 C32.4493809,71.1801934 40.5214818,71.1786308 45.5011662,66.1989465 L66.1989465,45.5011662 C71.1801934,40.5199192 71.1786308,32.4478183 66.1989465,27.4681339 L45.5011662,6.7703536 C40.5199192,1.78910668 32.4478183,1.79066925 27.4681339,6.7703536 L6.7703536,27.4681339 C1.78910668,32.4493809 1.79066925,40.5214818 6.7703536,45.5011662 Z M5.00258665,47.2689331 C-0.95390079,41.3124457 -0.95447871,31.6574323 5.00258665,25.700367 L25.700367,5.00258665 C31.6568544,-0.95390079 41.3118678,-0.95447871 47.2689331,5.00258665 L67.9667134,25.700367 C73.9232009,31.6568544 73.9237788,41.3118678 67.9667134,47.2689331 L47.2689331,67.9667134 C41.3124457,73.9232009 31.6574323,73.9237788 25.700367,67.9667134 L5.00258665,47.2689331 Z" id="Mask" fill-rule="nonzero"/><path d="M30.6615566,51.8016983 C30.6615566,52.0139533 30.7639681,52.3231922 30.8921496,52.4948813 L35.6247224,58.8337955 C35.847493,59.1321794 36.2097639,59.1307893 36.4315585,58.8337955 L41.1654512,52.4948813 C41.2928397,52.3243019 41.3961085,52.0121026 41.3961085,51.8016983 L41.3961085,34.7719884 L30.6615566,34.7719884 L30.6615566,51.8016983 Z M28.6615566,51.8016983 L28.6615566,32.7719884 L43.3961085,32.7719884 L43.3961085,51.8016983 C43.3961085,52.4440433 43.1530306,53.1759006 42.7679102,53.6915956 L38.0340175,60.0305098 C37.0126926,61.3981138 35.0450502,61.4004533 34.0221035,60.0302955 L29.2895306,53.6913814 C28.9036733,53.1745554 28.6615566,52.4457272 28.6615566,51.8016983 Z" id="Boarder" fill-rule="nonzero"/><path d="M24.5,30.2376731 C24.5,31.6165046 25.6178453,32.7337195 26.9967774,32.7337195 L45.7532226,32.7337195 C47.1323833,32.7337195 48.25,31.6162015 48.25,30.2376731 C48.25,28.8588417 47.1321547,27.7416268 45.7532226,27.7416268 L26.9967774,27.7416268 C25.6176167,27.7416268 24.5,28.8591448 24.5,30.2376731 Z M22.5,30.2376731 C22.5,27.7543936 24.513229,25.7416268 26.9967774,25.7416268 L45.7532226,25.7416268 C48.2366603,25.7416268 50.25,27.7542082 50.25,30.2376731 C50.25,32.7209527 48.236771,34.7337195 45.7532226,34.7337195 L26.9967774,34.7337195 C24.5133397,34.7337195 22.5,32.7211381 22.5,30.2376731 Z" id="Combined-Shape" fill-rule="nonzero"/><path d="M33.3483805,17.0639624 C33.1651698,17.4628457 33.0630159,17.9065863 33.0630159,18.374037 L33.0630159,27.6471336 L39.3508992,27.6471336 L39.3508992,18.374037 C39.3508992,17.8604356 39.2276185,17.3755937 39.0090794,16.9474393 C38.6810317,17.6733304 38.0865418,18.2521256 37.3508992,18.5580746 L37.3508992,25.845958 L35.0630159,25.845958 L35.0630159,18.6021421 C34.3163625,18.3250152 33.7035318,17.7708512 33.3483805,17.0639624 Z" id="Combined-Shape"/><path d="M36.1509434,18.7966507 C37.883346,18.7966507 39.2877358,17.3870974 39.2877358,15.6483254 C39.2877358,13.9095533 37.883346,12.5 36.1509434,12.5 C34.4185408,12.5 33.0141509,13.9095533 33.0141509,15.6483254 C33.0141509,17.3870974 34.4185408,18.7966507 36.1509434,18.7966507 Z M36.1509434,20.7966507 C33.3123249,20.7966507 31.0141509,18.4900272 31.0141509,15.6483254 C31.0141509,12.8066235 33.3123249,10.5 36.1509434,10.5 C38.9895619,10.5 41.2877358,12.8066235 41.2877358,15.6483254 C41.2877358,18.4900272 38.9895619,20.7966507 36.1509434,20.7966507 Z" id="Oval-2" fill-rule="nonzero"/></g></g></g></svg>