<?xml version="1.0" encoding="UTF-8" standalone="no"?><svg width="22px" height="22px" viewBox="0 0 22 22" version="1.1" xmlns="http://www.w3.org/2000/svg" xmlns:xlink="http://www.w3.org/1999/xlink" xmlns:sketch="http://www.bohemiancoding.com/sketch/ns"><title>animated_speaker_selected_frame_5</title><desc>Created with Sketch.</desc><defs/><g id="Page-1" stroke="none" stroke-width="1" fill="none" fill-rule="evenodd" sketch:type="MSPage"><g id="animated_speaker_selected_frame_5" sketch:type="MSArtboardGroup" fill="#FFFFFF"><g id="Imported-Layers" sketch:type="MSLayerGroup" transform="translate(1.000000, 3.000000)"><path d="M4.76333838,4.92723494 C4.76333838,4.92723494 8.70017677,1.3589759 10.4610354,0.170921687 C10.8801869,-0.143680723 11.2173889,0.270771084 11.2173889,0.574210843 L11.2173889,16.295012 C11.2458889,16.9724518 10.8273131,17.0728133 10.4070101,16.7698855 C8.61486869,15.5431205 4.76333838,12.2579217 4.76333838,12.2579217 L4.76333838,4.92723494" id="Fill-1" sketch:type="MSShapeGroup"/><path d="M1.87015657,4.92723494 L5.09555051,4.92723494 C5.64607071,4.92723494 6.09247475,5.3931988 6.09247475,5.96792169 L6.09247475,11.2171325 C6.09247475,11.7918554 5.64607071,12.2579217 5.09555051,12.2579217 L1.87015657,12.2579217 C0.67920202,12.2579217 0.0621818182,9.7696747 0.0621818182,8.45719277 C0.0621818182,6.85653012 0.67920202,4.92723494 1.87015657,4.92723494" id="Fill-2" sketch:type="MSShapeGroup"/><path d="M13.7752879,12.974994 C13.6938182,12.974994 13.6110051,12.9591205 13.5305909,12.9254277 C13.1850404,12.7811325 13.0147121,12.365247 13.1499192,11.9965723 C13.558899,10.8820482 13.7661717,9.70403012 13.7661717,8.49539157 C13.7661717,7.2908494 13.5602424,6.11651807 13.1538535,5.00496386 C13.0190303,4.63608434 13.1899343,4.22040361 13.5355808,4.07651807 C13.8814192,3.93263253 14.2706313,4.1150241 14.4054545,4.48390361 C14.8726818,5.76218072 15.1096061,7.11183735 15.1096061,8.49539157 C15.1096061,9.88365663 14.8712424,11.237512 14.4009444,12.5193735 C14.2971162,12.8021265 14.0436869,12.974994 13.7752879,12.974994" id="Fill-3" opacity="0.5" sketch:type="MSShapeGroup"/></g></g></g></svg>