<?xml version="1.0" encoding="UTF-8"?><svg width="200px" height="200px" viewBox="0 0 200 200" version="1.1" xmlns="http://www.w3.org/2000/svg" xmlns:xlink="http://www.w3.org/1999/xlink"><title>05_barrel_of_gems</title><desc>Created with Sketch.</desc><defs/><g id="Page-1" stroke="none" stroke-width="1" fill="none" fill-rule="evenodd"><g id="05_barrel_of_gems"><path d="M172.310736,174.534771 C173.016631,173.68714 174.484887,173 175.590614,173 L184.046058,173 C185.15159,173 186.047801,173.893397 186.047801,174.991884 L186.047801,186.008116 C186.047801,187.108203 185.159792,188 184.048156,188 L163.09673,188 C161.992357,188 161.666292,187.316503 162.375221,186.465229 L172.310736,174.534771 Z" id="Rectangle-9" fill="#44C3FF" transform="translate(174.023901, 180.500000) scale(-1, 1) translate(-174.023901, -180.500000)"/><path d="M153.478597,150.956456 C155.350708,149.709558 158.395979,149.716206 160.258109,150.956456 L170.031917,157.466191 C171.904027,158.713089 173.421673,161.547128 173.421673,163.793962 L173.421673,177.704141 C173.421673,179.951975 171.894047,182.791662 170.031917,184.031912 L160.258109,190.541647 C158.385998,191.788545 155.340727,191.781898 153.478597,190.541647 L143.704789,184.031912 C141.832679,182.785014 140.315033,179.950975 140.315033,177.704141 L140.315033,163.793962 C140.315033,161.546129 141.842659,158.706442 143.704789,157.466191 L153.478597,150.956456 Z" id="Polygon-1" fill="#1CB0F6" transform="translate(156.868353, 170.749052) rotate(146.000000) translate(-156.868353, -170.749052)"/><path d="M145.454483,171.591643 C148.266771,169.668482 150.749832,165.355938 150.999932,161.967755 L151.068452,161.03949 C151.318832,157.647524 149.220582,156.416828 146.368772,158.299305 L137.907676,163.88447 C135.061735,165.763073 135.21904,168.516012 138.277417,170.042507 L138.213074,170.010393 C141.263218,171.532779 146.02267,171.203093 148.827945,169.284728 L145.454483,171.591643 Z" id="Path-3" fill="#1C8EF6" transform="translate(142.956568, 164.054122) scale(-1, -1) rotate(-146.000000) translate(-142.956568, -164.054122)"/><path d="M160.423226,193.674998 C163.235514,191.751837 165.725723,187.444065 165.98627,184.040192 L166.029093,183.480736 C166.322994,179.641111 163.970922,178.276405 160.768936,180.437072 L153.04712,185.647672 C150.222083,187.553977 150.362964,190.397134 153.365605,192.00008 L153.270924,191.949535 C156.271855,193.551568 160.991412,193.286448 163.796688,191.368083 L160.423226,193.674998 Z" id="Path-3" fill="#099DE4" transform="translate(158.034055, 186.007846) scale(-1, 1) rotate(146.000000) translate(-158.034055, -186.007846)"/><path d="M153.479127,159.780219 C155.350945,158.533516 158.387161,158.534449 160.257579,159.780219 L163.40812,161.878602 C165.279938,163.125305 166.797346,165.961116 166.797346,168.212172 L166.797346,173.285932 C166.797346,175.537162 165.278537,178.373731 163.40812,179.619501 L160.257579,181.717884 C158.385761,182.964587 155.349544,182.963654 153.479127,181.717884 L150.328586,179.619501 C148.456768,178.372798 146.93936,175.536987 146.93936,173.285932 L146.93936,168.212172 C146.93936,165.960941 148.458168,163.124372 150.328586,161.878602 L153.479127,159.780219 Z" id="Polygon-1" fill="#44C3FF" transform="translate(156.868353, 170.749052) rotate(146.000000) translate(-156.868353, -170.749052)"/><rect id="Rectangle" fill="#1CB0F6" x="103.294118" y="39.8235294" width="14.2745098" height="12.0784314"/><path d="M108.690089,1.55047492 C110.56144,0.304083241 113.603549,0.309445544 115.466848,1.55047492 L127.521229,9.5791599 C129.39258,10.8255516 130.909609,13.6601756 130.909609,15.9220445 L130.909609,32.8343959 C130.909609,35.0910826 129.384528,37.9362511 127.521229,39.1772805 L115.466848,47.2059654 C113.595498,48.4523571 110.553389,48.4469948 108.690089,47.2059654 L96.6357079,39.1772805 C94.7643578,37.9308888 93.2473287,35.0962648 93.2473287,32.8343959 L93.2473287,15.9220445 C93.2473287,13.6653577 94.7724088,10.8201893 96.6357079,9.5791599 L108.690089,1.55047492 Z" id="Polygon-1" fill="#1CB0F6" transform="translate(112.078469, 24.378220) rotate(10.000000) translate(-112.078469, -24.378220)"/><path d="M121.714245,48.9463291 C124.526683,47.0230668 127.010098,42.7072848 127.261058,39.3074544 L127.461588,36.5908029 C127.712571,33.1906617 125.610965,31.9558764 122.775099,33.8278297 L111.70735,41.1336436 C108.868091,43.0078368 109.034488,45.7590334 112.082073,47.2801432 L113.543033,48.009337 C116.589246,49.5297618 121.341416,49.2012853 124.151057,47.2799351 L121.714245,48.9463291 Z" id="Path-3" fill="#1C8EF6" transform="translate(118.172177, 40.850590) scale(-1, -1) rotate(-10.000000) translate(-118.172177, -40.850590)"/><path d="M126.601121,19.213589 C129.413558,17.2903266 131.903471,12.987933 132.163749,9.58757394 L132.351056,7.14052638 C132.645027,3.29998269 130.284685,1.94015043 127.092313,4.09432938 L116.807215,11.0346057 C113.981354,12.9414665 114.126392,15.7876501 117.137142,17.3949245 L118.498965,18.1219277 C121.507039,19.7277739 126.228292,19.4685452 129.037933,17.547195 L126.601121,19.213589 Z" id="Path-3" fill="#099DE4" transform="translate(123.182761, 10.970381) scale(-1, 1) rotate(-10.000000) translate(-123.182761, -10.970381)"/><path d="M110.054487,15.7392321 C112.866924,13.8159698 115.35034,9.50018779 115.601299,6.10035736 L115.80183,3.38370594 C116.052813,-0.0164352572 113.951207,-1.25122057 111.115341,0.62073273 L100.047592,7.92654657 C97.2083325,9.8007398 97.3747292,12.5519364 100.422315,14.0730462 L101.883274,14.80224 C104.929487,16.3226648 109.681658,15.9941883 112.491299,14.0728381 L110.054487,15.7392321 Z" id="Path-3" fill="#8DDBFF" transform="translate(106.512419, 7.643493) rotate(10.000000) translate(-106.512419, -7.643493)"/><path d="M108.689514,11.589217 C110.561182,10.3426138 113.601799,10.3466395 115.467423,11.589217 L119.984787,14.5979565 C121.856455,15.8445597 123.373741,18.6850456 123.373741,20.9268436 L123.373741,27.8295967 C123.373741,30.0783414 121.85041,32.9159064 119.984787,34.1584839 L115.467423,37.1672233 C113.595755,38.4138265 110.555138,38.4098008 108.689514,37.1672233 L104.17215,34.1584839 C102.300483,32.9118807 100.783196,30.0713948 100.783196,27.8295967 L100.783196,20.9268436 C100.783196,18.678099 102.306527,15.840534 104.17215,14.5979565 L108.689514,11.589217 Z" id="Polygon-1" fill="#44C3FF" transform="translate(112.078469, 24.378220) rotate(10.000000) translate(-112.078469, -24.378220)"/><path d="M80.7747383,8.44346337 C82.4783136,7.30792289 85.2329076,7.3029588 86.9439301,8.44346337 L99.4545798,16.7826013 C101.158155,17.9181418 102.539176,20.4918931 102.539176,22.5399584 L102.539176,40.0399876 C102.539176,42.0841476 101.165602,44.6568401 99.4545798,45.7973446 L86.9439301,54.1364825 C85.2403548,55.272023 82.4857609,55.2769871 80.7747383,54.1364825 L68.2640886,45.7973446 C66.5605134,44.6618042 65.1794927,42.0880528 65.1794927,40.0399876 L65.1794927,22.5399584 C65.1794927,20.4957983 66.5530661,17.9231058 68.2640886,16.7826013 L80.7747383,8.44346337 Z" id="Polygon-1" fill="#1CB0F6" transform="translate(83.859334, 31.289973) rotate(-330.000000) translate(-83.859334, -31.289973)"/><path d="M87.8635675,56.453199 C90.4184413,54.7046937 92.6737756,50.7898712 92.9024945,47.6889057 L93.1771627,43.9649594 C93.4052115,40.8730792 91.5014861,39.7463811 88.9162437,41.4542415 L77.0858361,49.2696345 C74.5045467,50.9748835 74.6560785,53.4782075 77.4343958,54.8660121 L79.7815046,56.0384226 C82.5552982,57.4239675 86.8736319,57.1306914 89.4299104,55.3812247 L87.8635675,56.453199 Z" id="Path-3" fill="#1C8EF6" transform="translate(83.936754, 48.712056) scale(-1, -1) rotate(330.000000) translate(-83.936754, -48.712056)"/><path d="M88.2897283,21.5432608 C90.8446021,19.7947555 93.0999365,15.879933 93.3286553,12.7789675 L93.6033236,9.05502119 C93.8313724,5.96314097 91.9276469,4.83644286 89.3424045,6.54430331 L77.5119969,14.3596963 C74.9307075,16.0649453 75.0822394,18.5682693 77.8605567,19.9560739 L80.2076655,21.1284844 C82.9814591,22.5140293 87.2997928,22.2207532 89.8560713,20.4712865 L88.2897283,21.5432608 Z" id="Path-3" fill="#8DDBFF" transform="translate(84.362915, 13.802118) rotate(-330.000000) translate(-84.362915, -13.802118)"/><path d="M80.7679896,18.4135081 C82.4752921,17.2754832 85.2332284,17.268719 86.9506788,18.4135081 L91.9725105,21.760876 C93.679813,22.8989009 95.0638551,25.4770485 95.0638551,27.5329467 L95.0638551,35.0469992 C95.0638551,37.0968009 93.6899609,39.6742808 91.9725105,40.8190699 L86.9506788,44.1664378 C85.2433763,45.3044627 82.48544,45.3112269 80.7679896,44.1664378 L75.7461579,40.8190699 C74.0388555,39.681045 72.6548134,37.1028974 72.6548134,35.0469992 L72.6548134,27.5329467 C72.6548134,25.483145 74.0287076,22.9056651 75.7461579,21.760876 L80.7679896,18.4135081 Z" id="Polygon-1" fill="#44C3FF" transform="translate(83.859334, 31.289973) rotate(-330.000000) translate(-83.859334, -31.289973)"/><path d="M62.8023138,29.0012898 C64.5051196,27.8662622 67.27445,27.8719523 68.9687192,29.0012898 L80.5028765,36.6895339 C82.2056824,37.8245615 83.5860793,40.4039844 83.5860793,42.457686 L83.5860793,58.6287656 C83.5860793,60.6794005 82.1971458,63.2675803 80.5028765,64.3969178 L68.9687192,72.0851618 C67.2659134,73.2201895 64.496583,73.2144993 62.8023138,72.0851618 L51.2681565,64.3969178 C49.5653506,63.2618902 48.1849537,60.6824673 48.1849537,58.6287656 L48.1849537,42.457686 C48.1849537,40.4070511 49.5738872,37.8188713 51.2681565,36.6895339 L62.8023138,29.0012898 Z" id="Polygon-1" fill="#1CB0F6" transform="translate(65.885516, 50.543226) rotate(-30.000000) translate(-65.885516, -50.543226)"/><path d="M83.6907193,66.2400807 C86.2494064,64.4889656 88.5076657,60.5742842 88.7357793,57.4815243 L88.9542976,54.518858 C89.1819202,51.432756 87.2756257,50.312211 84.6867556,52.022468 L73.978298,59.0966794 C71.393777,60.8040632 71.5487423,63.3121415 74.3124467,64.6926467 L76.0270374,65.5491064 C78.7961036,66.93229 83.1083407,66.6386492 85.6737882,64.8829074 L83.6907193,66.2400807 Z" id="Path-3" fill="#1C8EF6" transform="translate(80.219187, 58.734064) scale(-1, -1) rotate(30.000000) translate(-80.219187, -58.734064)"/><path d="M55.2446758,49.3504591 C57.803363,47.599344 60.0616222,43.6846626 60.2897359,40.5919027 L60.5082542,37.6292364 C60.7358767,34.5431344 58.8295823,33.4225894 56.2407121,35.1328464 L45.5322545,42.2070578 C42.9477336,43.9144416 43.1026989,46.4225199 45.8664032,47.8030251 L47.5809939,48.6594848 C50.3500601,50.0426684 54.6622973,49.7490276 57.2277447,47.9932858 L55.2446758,49.3504591 Z" id="Path-3" fill="#8DDBFF" transform="translate(51.773143, 41.844442) rotate(-30.000000) translate(-51.773143, -41.844442)"/><path d="M62.8003406,38.445714 C64.5042362,37.30996 67.273521,37.3144421 68.9706924,38.445714 L73.4174716,41.4097731 C75.1213672,42.5455271 76.5026475,45.1175795 76.5026475,47.1665405 L76.5026475,53.9199111 C76.5026475,55.963532 75.1146431,58.5454066 73.4174716,59.6766785 L68.9706924,62.6407377 C67.2667968,63.7764916 64.497512,63.7720096 62.8003406,62.6407377 L58.3535613,59.6766785 C56.6496657,58.5409245 55.2683855,55.9688721 55.2683855,53.9199111 L55.2683855,47.1665405 C55.2683855,45.1229197 56.6563899,42.541045 58.3535613,41.4097731 L62.8003406,38.445714 Z" id="Polygon-1" fill="#44C3FF" transform="translate(65.885516, 50.543226) rotate(-30.000000) translate(-65.885516, -50.543226)"/><path d="M131.645563,46.586651 C134.20425,44.8355359 136.46251,40.9208545 136.690623,37.8280946 L136.909142,34.8654283 C137.136764,31.7793263 135.23047,30.6587812 132.6416,32.3690383 L121.933142,39.4432496 C119.348621,41.1506335 119.503586,43.6587117 122.267291,45.039217 L123.981881,45.8956767 C126.750948,47.2788603 131.063185,46.9852194 133.628632,45.2294777 L131.645563,46.586651 Z" id="Path-3" fill="#44C3FF" transform="translate(128.174031, 39.080634) scale(-1, 1) rotate(-330.000000) translate(-128.174031, -39.080634)"/><path d="M125.124711,43.199549 C126.828607,42.063795 129.597892,42.0682771 131.295063,43.199549 L135.741842,46.1636082 C137.445738,47.2993622 138.827018,49.8714145 138.827018,51.9203756 L138.827018,58.6737462 C138.827018,60.717367 137.439014,63.2992417 135.741842,64.4305136 L131.295063,67.3945727 C129.591167,68.5303267 126.821883,68.5258446 125.124711,67.3945727 L120.677932,64.4305136 C118.974036,63.2947596 117.592756,60.7227072 117.592756,58.6737462 L117.592756,51.9203756 C117.592756,49.8767547 118.980761,47.2948801 120.677932,46.1636082 L125.124711,43.199549 Z" id="Polygon-1" fill="#1CB0F6" transform="translate(128.209887, 55.297061) scale(-1, 1) rotate(-330.000000) translate(-128.209887, -55.297061)"/><path d="M128.050864,16.376642 C129.750659,15.2436214 132.516787,15.2504305 134.206366,16.376642 L141.996762,21.5694328 C143.696557,22.7024535 145.074513,25.2871941 145.074513,27.338561 L145.074513,38.4949784 C145.074513,40.5481592 143.686342,43.137895 141.996762,44.2641065 L134.206366,49.4568973 C132.506571,50.5899179 129.740444,50.5831088 128.050864,49.4568973 L120.260468,44.2641065 C118.560674,43.1310859 117.182717,40.5463452 117.182717,38.4949784 L117.182717,27.338561 C117.182717,25.2853801 118.570889,22.6956444 120.260468,21.5694328 L128.050864,16.376642 Z" id="Polygon-1" fill="#1CB0F6" transform="translate(131.128615, 32.916770) rotate(-330.000000) translate(-131.128615, -32.916770)"/><path d="M132.940137,52.5091565 C135.498098,50.758538 137.756121,46.8394893 137.983744,43.7533792 L137.981337,43.786014 C138.208883,40.7009502 136.293764,39.5870356 133.713693,41.2914801 L127.261977,45.5536067 C124.677475,47.2609775 124.821849,49.7637464 127.600652,51.1517933 L126.815478,50.759589 C129.587024,52.1440113 133.90533,51.8485969 136.465405,50.0965321 L132.940137,52.5091565 Z" id="Path-3" fill="#1C8EF6" transform="translate(131.186415, 45.923657) scale(-1, -1) rotate(330.000000) translate(-131.186415, -45.923657)"/><path d="M133.258298,26.4462782 C135.816259,24.6956597 138.074282,20.776611 138.301905,17.6905009 L138.299498,17.7231357 C138.527044,14.6380719 136.611925,13.5241573 134.031853,15.2286018 L127.580137,19.4907284 C124.995636,21.1980991 125.14001,23.7008681 127.918813,25.088915 L127.133639,24.6967107 C129.905185,26.081133 134.223491,25.7857186 136.783566,24.0336538 L133.258298,26.4462782 Z" id="Path-3" fill="#E0F5FF" transform="translate(131.504576, 19.860779) rotate(-330.000000) translate(-131.504576, -19.860779)"/><path d="M128.03756,23.8255356 C129.744703,22.6876171 132.509927,22.6858834 134.219671,23.8255356 L136.402572,25.2805771 C138.109715,26.4184956 139.493628,29.0104706 139.493628,31.054288 L139.493628,34.7792513 C139.493628,36.8300653 138.112316,39.41331 136.402572,40.5529622 L134.219671,42.0080037 C132.512528,43.1459222 129.747304,43.147656 128.03756,42.0080037 L125.854659,40.5529622 C124.147516,39.4150437 122.763603,36.8230687 122.763603,34.7792513 L122.763603,31.054288 C122.763603,29.003474 124.144915,26.4202294 125.854659,25.2805771 L128.03756,23.8255356 Z" id="Polygon-1" fill="#44C3FF" transform="translate(131.128615, 32.916770) rotate(-330.000000) translate(-131.128615, -32.916770)"/><path d="M88.3399864,30.5562584 C90.0427922,29.4212308 92.8121226,29.426921 94.5063919,30.5562584 L106.040549,38.2445025 C107.743355,39.3795301 109.123752,41.958953 109.123752,44.0126546 L109.123752,60.1837343 C109.123752,62.2343691 107.734818,64.822549 106.040549,65.9518864 L94.5063919,73.6401305 C92.803586,74.7751581 90.0342557,74.7694679 88.3399864,73.6401305 L76.8058291,65.9518864 C75.1030232,64.8168588 73.7226264,62.2374359 73.7226264,60.1837343 L73.7226264,44.0126546 C73.7226264,41.9620198 75.1115598,39.3738399 76.8058291,38.2445025 L88.3399864,30.5562584 Z" id="Polygon-1" fill="#1CB0F6" transform="translate(91.423189, 52.098194) rotate(-330.000000) translate(-91.423189, -52.098194)"/><path d="M95.3719024,43.0331458 C97.9305896,41.2820306 100.188849,37.3673492 100.416962,34.2745893 L100.635481,31.311923 C100.863103,28.225821 98.9568089,27.105276 96.3679387,28.815533 L85.6594812,35.8897444 C83.0749602,37.5971282 83.2299255,40.1052065 85.9936299,41.4857117 L87.7082205,42.3421714 C90.4772867,43.725355 94.7895239,43.4317142 97.3549713,41.6759724 L95.3719024,43.0331458 Z" id="Path-3" fill="#E0F5FF" transform="translate(91.900370, 35.527129) rotate(-330.000000) translate(-91.900370, -35.527129)"/><path d="M88.3380133,40.0006826 C90.0419088,38.8649286 92.8111936,38.8694107 94.508365,40.0006826 L98.9551443,42.9647418 C100.65904,44.1004958 102.04032,46.6725481 102.04032,48.7215092 L102.04032,55.4748798 C102.04032,57.5185006 100.652316,60.1003753 98.9551443,61.2316472 L94.508365,64.1957063 C92.8044694,65.3314603 90.0351847,65.3269782 88.3380133,64.1957063 L83.891234,61.2316472 C82.1873384,60.0958932 80.8060581,57.5238408 80.8060581,55.4748798 L80.8060581,48.7215092 C80.8060581,46.6778883 82.1940626,44.0960137 83.891234,42.9647418 L88.3380133,40.0006826 Z" id="Polygon-1" fill="#44C3FF" transform="translate(91.423189, 52.098194) rotate(-330.000000) translate(-91.423189, -52.098194)"/><path d="M131.21401,33.6083176 C133.126959,32.4197044 136.226726,32.4186263 138.141409,33.6083176 L150.340702,41.1883651 C152.253651,42.3769783 153.804402,45.1661701 153.804402,47.4265409 L153.804402,63.0233318 C153.804402,65.279968 152.255386,68.0718163 150.340702,69.2615076 L138.141409,76.8415551 C136.228461,78.0301683 133.128694,78.0312465 131.21401,76.8415551 L119.014717,69.2615076 C117.101769,68.0728944 115.551017,65.2837026 115.551017,63.0233318 L115.551017,47.4265409 C115.551017,45.1699048 117.100033,42.3780565 119.014717,41.1883651 L131.21401,33.6083176 Z" id="Polygon-1" fill="#1CB0F6"/><path d="M147.211716,77.2786768 C150.086503,75.4446769 152.634244,71.2120583 152.903034,67.8149977 L153.057757,65.8595441 C153.326197,62.4668983 151.192237,61.1647398 148.294551,62.9491649 L137.108375,69.8377294 C134.209289,71.6230172 134.365922,74.2375275 137.442869,75.6702512 L138.963699,76.3783976 C142.047521,77.8143227 146.876629,77.4924487 149.752717,75.6576195 L147.211716,77.2786768 Z" id="Path-3" fill="#1C8EF6" transform="translate(143.662673, 69.590025) scale(-1, -1) translate(-143.662673, -69.590025)"/><path d="M129.723315,48.2168587 C132.598102,46.3828589 135.145843,42.1502402 135.414632,38.7531796 L135.569356,36.797726 C135.837796,33.4050802 133.703835,32.1029217 130.80615,33.8873468 L119.619974,40.7759114 C116.720888,42.5611991 116.877521,45.1757095 119.954468,46.6084331 L121.475298,47.3165795 C124.55912,48.7525046 129.388228,48.4306306 132.264316,46.5958014 L129.723315,48.2168587 Z" id="Path-3" fill="#8DDBFF"/><path d="M131.204433,43.1260918 C133.122671,41.934192 136.224949,41.9293455 138.150987,43.1260918 L142.676983,45.9383258 C144.595221,47.1302256 146.15026,49.931114 146.15026,52.1819268 L146.15026,58.267946 C146.15026,60.5242918 144.603021,63.3148006 142.676983,64.5115469 L138.150987,67.3237809 C136.232749,68.5156807 133.13047,68.5205272 131.204433,67.3237809 L126.678436,64.5115469 C124.760198,63.3196471 123.205159,60.5187588 123.205159,58.267946 L123.205159,52.1819268 C123.205159,49.925581 124.752398,47.1350721 126.678436,45.9383258 L131.204433,43.1260918 Z" id="Polygon-1" fill="#44C3FF"/><path d="M10,194 C10,190.686292 12.6841912,188 16.0017708,188 L183.998229,188 C187.312916,188 190,190.693034 190,194 L190,194 C190,197.313708 187.315809,200 183.998229,200 L16.0017708,200 C12.6870843,200 10,197.306966 10,194 L10,194 Z" id="Rectangle-5" fill="#D8D8D8"/><path d="M56.583367,47.0000001 L143.445752,47.0000001 L143.445752,47 C148.113898,47 152.273645,49.9464367 153.822571,54.3501191 C161.27419,75.5354967 165,96.5351272 165,117.349011 C165,138.135127 161.284125,158.920018 153.852374,179.703684 L153.852374,179.703684 C152.287669,184.079544 148.141835,187 143.494636,187 L56.3272498,187 L56.3272498,187 C51.7536415,187 47.6572104,184.169964 46.0388845,179.892241 C38.6796282,160.439509 35,140.061693 35,118.758794 C35,97.307265 38.7311526,75.8501839 46.1934579,54.3875507 L46.193458,54.3875507 C47.7312801,49.9645594 51.9006595,47.0000001 56.583367,47.0000001 Z" id="Rectangle-105" fill="#A86425"/><g id="Group" transform="translate(71.000000, 51.000000)" fill="#925218"><rect id="Rectangle-114" x="50" y="0" width="8" height="136"/><polygon id="Rectangle-114" points="0 0 8 0 8 136 0 136"/></g><path d="M53,122 L53,122 L53,122 C55.209139,122 57,123.790861 57,126 L57,183 L57,183 C57,185.209139 55.209139,187 53,187 L53,187 L53,187 C50.790861,187 49,185.209139 49,183 L49,126 L49,126 C49,123.790861 50.790861,122 53,122 Z" id="Rectangle-114" fill="#925218"/><path d="M147,54 L147,54 L147,54 C149.209139,54 151,55.790861 151,58 L151,116 L151,116 C151,118.209139 149.209139,120 147,120 L147,120 L147,120 C144.790861,120 143,118.209139 143,116 L143,58 L143,58 C143,55.790861 144.790861,54 147,54 Z" id="Rectangle-114" fill="#925218"/><path d="M38.8379594,138.999824 L161.162041,138.999824 L161.162041,138.999824 C162.754242,138.999824 164.069102,140.243664 164.157422,141.833414 L164.824088,153.833414 L164.824088,153.833414 C164.915994,155.487717 163.649421,156.903299 161.995117,156.995205 C161.939701,156.998284 161.884209,156.999824 161.828707,156.999824 L38.1712927,156.999824 L38.1712927,156.999824 C36.5144385,156.999824 35.1712927,155.656678 35.1712927,153.999824 C35.1712927,153.944322 35.172833,153.888831 35.1759117,153.833414 L35.8425783,141.833414 L35.8425783,141.833414 C35.9308978,140.243664 37.2457583,138.999824 38.8379594,138.999824 Z" id="Mask" fill="#FCBB00" transform="translate(100.000000, 148.000000) scale(1, -1) translate(-100.000000, -148.000000)"/><path d="M164.657901,141 C164.786523,141.363353 164.846805,141.757677 164.824088,142.166586 L164.824088,142.166586 L164.157422,154.166586 C164.069102,155.756336 162.754242,157.000176 161.162041,157.000176 L148.545439,157.000176 L149.586607,145.547321 L149.586607,145.547321 C149.820734,142.971925 151.980057,141 154.566073,141 L154.566073,141 L164.657901,141 Z" id="Combined-Shape" fill="#EF9C00"/><polygon id="Rectangle-127" fill="#FFD500" points="66 139 88 139 88 157 66 157"/><path d="M46.256817,47 L153.296522,47 L153.296522,47 C154.69349,47 155.905574,47.9642282 156.219696,49.3254215 L157.83508,56.3254215 L157.83508,56.3254215 C158.20764,57.9398457 157.20091,59.5506142 155.586485,59.9231736 C155.365257,59.9742262 155.138949,60 154.911907,60 L45.1798939,60 L45.1798939,60 C43.5230397,60 42.1798939,58.6568542 42.1798939,57 C42.1798939,56.8472765 42.1915561,56.694776 42.2147788,56.5438284 L43.2917019,49.5438284 L43.2917019,49.5438284 C43.516855,48.0803334 44.7761037,47 46.256817,47 Z" id="Mask" fill="#FCBB00"/><path d="M155.847578,48.420765 C156.016874,48.6941465 156.144211,48.9983225 156.219696,49.3254215 L157.83508,56.3254215 L157.83508,56.3254215 C158.20764,57.9398457 157.20091,59.5506142 155.586485,59.9231736 C155.365257,59.9742262 155.138949,60 154.911907,60 L141.143502,60 L140.60906,53.8539131 L140.60906,53.8539131 C140.369839,51.1028707 142.406072,48.6787832 145.157115,48.4395621 C145.301158,48.4270366 145.445676,48.420765 145.590263,48.420765 L145.590263,48.420765 L155.847578,48.420765 Z" id="Combined-Shape" fill="#EF9C00"/><polygon id="Rectangle-127" fill="#FFD500" points="65.6830601 47 87.6830601 47 87.6830601 60 65.6830601 60"/><path d="M38.8379594,77.8360656 L161.162041,77.8360656 L161.162041,77.8360656 C162.754242,77.8360656 164.069102,79.0799058 164.157422,80.6696555 L164.824088,92.6696555 L164.824088,92.6696555 C164.915994,94.3239588 163.649421,95.7395409 161.995117,95.8314466 C161.939701,95.8345253 161.884209,95.8360656 161.828707,95.8360656 L38.1712927,95.8360656 L38.1712927,95.8360656 C36.5144385,95.8360656 35.1712927,94.4929198 35.1712927,92.8360656 C35.1712927,92.7805635 35.172833,92.7250721 35.1759117,92.6696555 L35.8425783,80.6696555 L35.8425783,80.6696555 C35.9308978,79.0799058 37.2457583,77.8360656 38.8379594,77.8360656 Z" id="Mask" fill="#FCBB00"/><path d="M163.792987,80 C163.877934,80.2406289 163.933262,80.4957894 163.954455,80.7613115 L164.912231,92.7611357 L164.912231,92.7611357 C165.044056,94.4127374 163.812032,95.8584897 162.16043,95.9903137 C162.081025,95.9966515 162.001399,95.9998242 161.921742,95.9998242 L149.801159,95.9998242 L149.105592,85.3251122 L149.105592,85.3251122 C148.926037,82.5695322 151.014318,80.1901355 153.769898,80.010581 C153.878126,80.0035289 153.986554,80 154.095011,80 L154.095011,80 L163.792987,80 Z" id="Combined-Shape" fill="#EF9C00"/><rect id="Rectangle-127" fill="#FFD500" x="66" y="77.8360656" width="22" height="18"/><path d="M46.5737569,174.999824 L153.613462,174.999824 L153.613462,174.999824 C155.01043,174.999824 156.222514,175.964052 156.536636,177.325245 L158.15202,184.325245 L158.15202,184.325245 C158.52458,185.939669 157.517849,187.550438 155.903425,187.922997 C155.682197,187.97405 155.455889,187.999824 155.228847,187.999824 L45.4968338,187.999824 L45.4968338,187.999824 C43.8399795,187.999824 42.4968338,186.656678 42.4968338,184.999824 C42.4968338,184.8471 42.508496,184.6946 42.5317187,184.543652 L43.6086418,177.543652 L43.6086418,177.543652 C43.8337949,176.080157 45.0930436,174.999824 46.5737569,174.999824 Z" id="Mask" fill="#FCBB00" transform="translate(100.000000, 181.500000) scale(1, -1) translate(-100.000000, -181.500000)"/><path d="M157.967686,176.775529 C158.225623,177.351224 158.304806,178.012682 158.15202,178.674755 L156.536636,185.674755 C156.222514,187.035948 155.01043,188.000176 153.613462,188.000176 L153.613462,188.000176 L141.286038,188.000176 L141.870642,181.277234 L141.870642,181.277234 C142.095319,178.693446 144.258307,176.710383 146.851845,176.710383 L146.851845,176.710383 L157.15847,176.710383 L157.15847,176.710383 C157.433981,176.710383 157.704288,176.732666 157.967686,176.775529 Z" id="Combined-Shape" fill="#EF9C00"/><polygon id="Rectangle-127" fill="#FFD500" points="66 175 88 175 88 188 66 188"/><circle id="Oval-32" fill="#FFD500" cx="99.3825137" cy="148.322404" r="4"/><circle id="Oval-32" fill="#FFD500" cx="142" cy="148" r="4"/><circle id="Oval-32" fill="#FFD500" cx="56.7595628" cy="148.322404" r="4"/><circle id="Oval-32" fill="#FFD500" cx="99.3825137" cy="87.2295082" r="4"/><circle id="Oval-32" fill="#FFD500" cx="142" cy="87" r="4"/><circle id="Oval-32" fill="#FFD500" cx="56.7595628" cy="87.2295082" r="4"/><path d="M33.2268469,147.116398 C35.1009292,145.868187 38.1341687,145.864691 40.0134993,147.116398 L51.7276159,154.918454 C53.6016982,156.166665 55.1209421,159.010746 55.1209421,161.248071 L55.1209421,177.753467 C55.1209421,180.001007 53.6069465,182.831377 51.7276159,184.083084 L40.0134993,191.88514 C38.139417,193.133351 35.1061775,193.136847 33.2268469,191.88514 L21.5127302,184.083084 C19.6386479,182.834873 18.119404,179.990792 18.119404,177.753467 L18.119404,161.248071 C18.119404,159.000531 19.6333996,156.170161 21.5127302,154.918454 L33.2268469,147.116398 Z" id="Polygon-1" fill="#1CB0F6" transform="translate(36.620173, 169.500769) rotate(90.000000) translate(-36.620173, -169.500769)"/><path d="M25.1173221,186.218569 C27.927283,184.297 30.4089402,179.979216 30.6595533,176.584081 L30.8408155,174.128466 C31.0917443,170.729054 28.9904636,169.494617 26.1506583,171.369171 L15.4646047,178.423028 C12.6233735,180.298522 12.788984,183.05118 15.8462958,184.577144 L17.0670157,185.186429 C20.119049,186.709759 24.8770605,186.38287 27.6810952,184.465353 L25.1173221,186.218569 Z" id="Path-3" fill="#1C8EF6" transform="translate(21.722251, 178.206832) rotate(-90.000000) translate(-21.722251, -178.206832)"/><path d="M56.7606098,183.113728 C59.5705707,181.192159 62.0588333,176.886472 62.3189076,173.488769 L62.4842933,171.328111 C62.7787577,167.481124 60.4225737,166.113532 57.2314906,168.266841 L47.3031917,174.966353 C44.4828304,176.869503 44.6329541,179.713013 47.6352804,181.315791 L48.7976941,181.93634 C51.8014629,183.539888 56.5203483,183.278028 59.3243829,181.360512 L56.7606098,183.113728 Z" id="Path-3" fill="#099DE4" transform="translate(53.487077, 174.957109) rotate(-200.000000) translate(-53.487077, -174.957109)"/><path d="M55.2570239,169.27221 C58.0669848,167.350641 60.548642,163.032857 60.7992551,159.637722 L60.9805173,157.182107 C61.2314462,153.782696 59.1301655,152.548258 56.2903601,154.422812 L45.6043065,161.476669 C42.7630753,163.352164 42.9286858,166.104821 45.9859977,167.630785 L47.2067175,168.240071 C50.2587509,169.7634 55.0167624,169.436511 57.820797,167.518995 L55.2570239,169.27221 Z" id="Path-3" fill="#E0F5FF" transform="translate(51.861953, 161.260473) rotate(90.000000) translate(-51.861953, -161.260473)"/><path d="M33.2303761,156.976295 C35.1025093,155.729382 38.1399107,155.730763 40.0099701,156.976295 L44.3274859,159.851928 C46.1996191,161.098841 47.7172829,163.937079 47.7172829,166.188099 L47.7172829,172.813439 C47.7172829,175.065897 46.1975453,177.904078 44.3274859,179.14961 L40.0099701,182.025243 C38.1378369,183.272156 35.1004354,183.270775 33.2303761,182.025243 L28.9128602,179.14961 C27.040727,177.902697 25.5230632,175.064459 25.5230632,172.813439 L25.5230632,166.188099 C25.5230632,163.935641 27.0428009,161.09746 28.9128602,159.851928 L33.2303761,156.976295 Z" id="Polygon-1" fill="#44C3FF" transform="translate(36.620173, 169.500769) rotate(90.000000) translate(-36.620173, -169.500769)"/></g></g></svg>