<?xml version="1.0" encoding="UTF-8"?><svg width="200px" height="200px" viewBox="0 0 200 200" version="1.1" xmlns="http://www.w3.org/2000/svg" xmlns:xlink="http://www.w3.org/1999/xlink"><title>03_basket_of_gems</title><desc>Created with Sketch.</desc><defs/><g id="Page-1" stroke="none" stroke-width="1" fill="none" fill-rule="evenodd"><g id="03_basket_of_gems"><path d="M151.309937,175.534771 C152.015832,174.68714 153.484088,174 154.589815,174 L163.04526,174 C164.150792,174 165.047002,174.893397 165.047002,175.991884 L165.047002,187.008116 C165.047002,188.108203 164.158993,189 163.047357,189 L142.095932,189 C140.991558,189 140.665493,188.316503 141.374422,187.465229 L151.309937,175.534771 Z" id="Rectangle-9" fill="#44C3FF" transform="translate(153.023102, 181.500000) scale(-1, 1) translate(-153.023102, -181.500000)"/><path d="M134.68729,183.050975 C146.838472,173.123427 154.097029,158.352313 154.097029,142.463138 L154.097102,91.5211789 C153.987232,62.6247346 130.328407,39 101.483157,39 C72.5447901,39 49,62.5788137 49,91.4831571 L49,142.463138 C49,158.481871 56.2493179,173.31197 68.361443,183.050975 L134.68729,183.050975 Z M101.483157,29 C135.861972,29 163.966314,57.104342 164.097029,91.4831571 L164.097029,142.463138 C164.097029,163.247285 153.770313,181.678516 138.084179,193.050975 L65.0128749,193.050975 C49.1960009,181.809247 39,163.247285 39,142.463138 L39,91.4831571 C39,57.104342 66.9736268,29 101.483157,29 Z" id="Clip-49" fill="#A86425" fill-rule="nonzero"/><g id="gems" transform="translate(37.002755, 46.465565)"><g id="Group-45" transform="translate(64.509684, 30.751665) rotate(-20.000000) translate(-64.509684, -30.751665) translate(45.509684, 5.751665)"><path d="M15.722339,2.05601999 C17.4258662,0.920511503 20.1897604,0.921798451 21.8913569,2.05601999 L34.5291869,10.4799316 C36.2327142,11.6154401 37.6136959,14.2004059 37.6136959,16.2353972 L37.6136959,33.9084091 C37.6136959,35.9515565 36.2307835,38.5296532 34.5291869,39.6638747 L21.8913569,48.0877863 C20.1878297,49.2232948 17.4239355,49.2220079 15.722339,48.0877863 L3.08450898,39.6638747 C1.38098171,38.5283663 3.21426016e-14,35.9434004 3.11585554e-14,33.9084091 L2.26125433e-14,16.2353972 C2.16245531e-14,14.1922498 1.38291243,11.6141531 3.08450898,10.4799316 L15.722339,2.05601999 Z" id="Polygon-1" fill="#1CB0F6"/><path d="M31.6315285,47.9944019 C34.1853292,46.246631 36.4397992,42.3323284 36.6681676,39.2361138 L36.951008,35.4013695 C37.1788663,32.3120715 35.270557,31.1903928 32.684362,32.8988826 L20.7207263,40.8022886 C18.1364644,42.5095013 18.2864025,45.0148246 21.062108,46.4013246 L23.4970627,47.6176152 C26.2698645,49.0026648 30.5912874,48.7063224 33.1417296,46.9608501 L31.6315285,47.9944019 Z" id="Path-3" fill="#1C8EF6" transform="translate(27.644620, 40.223482) scale(-1, -1) translate(-27.644620, -40.223482)"/><path d="M14.4294564,17.3414224 C16.9832571,15.5936515 19.2377271,11.6793489 19.4660955,8.58313427 L19.748936,4.74838997 C19.9767943,1.65909192 18.0684849,0.53741328 15.4822899,2.24590303 L3.51865422,10.149309 C0.934392377,11.8565217 1.08433042,14.3618451 3.86003592,15.748345 L6.29499065,16.9646357 C9.06779241,18.3496852 13.3892154,18.0533429 15.9396575,16.3078705 L14.4294564,17.3414224 Z" id="Path-3" fill="#8DDBFF"/><path d="M15.7243466,12.087985 C17.4267651,10.9532156 20.1900834,10.955317 21.8893493,12.087985 L27.0050483,15.4979215 C28.7074668,16.6326909 30.0875497,19.219456 30.0875497,21.2700108 L30.0875497,28.8737955 C30.0875497,30.926863 28.7043142,33.5132169 27.0050483,34.6458849 L21.8893493,38.0558213 C20.1869308,39.1905907 17.4236125,39.1884893 15.7243466,38.0558213 L10.6086475,34.6458849 C8.90622906,33.5111155 7.52614621,30.9243504 7.52614621,28.8737955 L7.52614621,21.2700108 C7.52614621,19.2169433 8.90938167,16.6305895 10.6086475,15.4979215 L15.7243466,12.087985 Z" id="Polygon-1" fill="#44C3FF"/></g><g id="Group-45" transform="translate(47.462364, 45.179772) rotate(-10.000000) translate(-47.462364, -45.179772) translate(28.462364, 20.179772)"><path d="M15.722339,2.05601999 C17.4258662,0.920511503 20.1897604,0.921798451 21.8913569,2.05601999 L34.5291869,10.4799316 C36.2327142,11.6154401 37.6136959,14.2004059 37.6136959,16.2353972 L37.6136959,33.9084091 C37.6136959,35.9515565 36.2307835,38.5296532 34.5291869,39.6638747 L21.8913569,48.0877863 C20.1878297,49.2232948 17.4239355,49.2220079 15.722339,48.0877863 L3.08450898,39.6638747 C1.38098171,38.5283663 3.68104276e-14,35.9434004 3.58263813e-14,33.9084091 L2.72803693e-14,16.2353972 C2.62923791e-14,14.1922498 1.38291243,11.6141531 3.08450898,10.4799316 L15.722339,2.05601999 Z" id="Polygon-1" fill="#099DE4"/><path d="M14.4294564,17.3414224 C16.9832571,15.5936515 19.2377271,11.6793489 19.4660955,8.58313427 L19.748936,4.74838997 C19.9767943,1.65909192 18.0684849,0.53741328 15.4822899,2.24590303 L3.51865422,10.149309 C0.934392377,11.8565217 1.08433042,14.3618451 3.86003592,15.748345 L6.29499065,16.9646357 C9.06779241,18.3496852 13.3892154,18.0533429 15.9396575,16.3078705 L14.4294564,17.3414224 Z" id="Path-3" fill="#44C3FF"/><path d="M15.9420302,11.5272098 C17.6444487,10.3924404 20.407767,10.3945418 22.1070328,11.5272098 L27.2227319,14.9371463 C28.9251504,16.0719157 30.3052332,18.6586808 30.3052332,20.7092356 L30.3052332,28.3130203 C30.3052332,30.3660878 28.9219978,32.9524417 27.2227319,34.0851097 L22.1070328,37.4950461 C20.4046144,38.6298155 17.6412961,38.6277141 15.9420302,37.4950461 L10.8263311,34.0851097 C9.12391264,32.9503403 7.74382979,30.3635751 7.74382979,28.3130203 L7.74382979,20.7092356 C7.74382979,18.6561681 9.12706525,16.0698142 10.8263311,14.9371463 L15.9420302,11.5272098 Z" id="Polygon-1" fill="#1CB0F6"/></g><g id="Group-45" transform="translate(29.462364, 72.179772) scale(-1, 1) rotate(-330.000000) translate(-29.462364, -72.179772) translate(10.462364, 47.179772)"><path d="M15.722339,2.05601999 C17.4258662,0.920511503 20.1897604,0.921798451 21.8913569,2.05601999 L34.5291869,10.4799316 C36.2327142,11.6154401 37.6136959,14.2004059 37.6136959,16.2353972 L37.6136959,33.9084091 C37.6136959,35.9515565 36.2307835,38.5296532 34.5291869,39.6638747 L21.8913569,48.0877863 C20.1878297,49.2232948 17.4239355,49.2220079 15.722339,48.0877863 L3.08450898,39.6638747 C1.38098171,38.5283663 3.68104276e-14,35.9434004 3.58263813e-14,33.9084091 L2.72803693e-14,16.2353972 C2.62923791e-14,14.1922498 1.38291243,11.6141531 3.08450898,10.4799316 L15.722339,2.05601999 Z" id="Polygon-1" fill="#099DE4"/><path d="M14.4294564,17.3414224 C16.9832571,15.5936515 19.2377271,11.6793489 19.4660955,8.58313427 L19.748936,4.74838997 C19.9767943,1.65909192 18.0684849,0.53741328 15.4822899,2.24590303 L3.51865422,10.149309 C0.934392377,11.8565217 1.08433042,14.3618451 3.86003592,15.748345 L6.29499065,16.9646357 C9.06779241,18.3496852 13.3892154,18.0533429 15.9396575,16.3078705 L14.4294564,17.3414224 Z" id="Path-3" fill="#44C3FF"/><path d="M15.9420302,11.5272098 C17.6444487,10.3924404 20.407767,10.3945418 22.1070328,11.5272098 L27.2227319,14.9371463 C28.9251504,16.0719157 30.3052332,18.6586808 30.3052332,20.7092356 L30.3052332,28.3130203 C30.3052332,30.3660878 28.9219978,32.9524417 27.2227319,34.0851097 L22.1070328,37.4950461 C20.4046144,38.6298155 17.6412961,38.6277141 15.9420302,37.4950461 L10.8263311,34.0851097 C9.12391264,32.9503403 7.74382979,30.3635751 7.74382979,28.3130203 L7.74382979,20.7092356 C7.74382979,18.6561681 9.12706525,16.0698142 10.8263311,14.9371463 L15.9420302,11.5272098 Z" id="Polygon-1" fill="#1CB0F6"/></g><g id="Group-45" transform="translate(83.509684, 47.751665) rotate(-330.000000) translate(-83.509684, -47.751665) translate(64.509684, 22.751665)"><path d="M15.722339,2.05601999 C17.4258662,0.920511503 20.1897604,0.921798451 21.8913569,2.05601999 L34.5291869,10.4799316 C36.2327142,11.6154401 37.6136959,14.2004059 37.6136959,16.2353972 L37.6136959,33.9084091 C37.6136959,35.9515565 36.2307835,38.5296532 34.5291869,39.6638747 L21.8913569,48.0877863 C20.1878297,49.2232948 17.4239355,49.2220079 15.722339,48.0877863 L3.08450898,39.6638747 C1.38098171,38.5283663 3.21426016e-14,35.9434004 3.11585554e-14,33.9084091 L2.26125433e-14,16.2353972 C2.16245531e-14,14.1922498 1.38291243,11.6141531 3.08450898,10.4799316 L15.722339,2.05601999 Z" id="Polygon-1" fill="#1CB0F6"/><path d="M31.6315285,47.9944019 C34.1853292,46.246631 36.4397992,42.3323284 36.6681676,39.2361138 L36.951008,35.4013695 C37.1788663,32.3120715 35.270557,31.1903928 32.684362,32.8988826 L20.7207263,40.8022886 C18.1364644,42.5095013 18.2864025,45.0148246 21.062108,46.4013246 L23.4970627,47.6176152 C26.2698645,49.0026648 30.5912874,48.7063224 33.1417296,46.9608501 L31.6315285,47.9944019 Z" id="Path-3" fill="#1C8EF6" transform="translate(27.644620, 40.223482) scale(-1, -1) translate(-27.644620, -40.223482)"/><path d="M14.4294564,17.3414224 C16.9832571,15.5936515 19.2377271,11.6793489 19.4660955,8.58313427 L19.748936,4.74838997 C19.9767943,1.65909192 18.0684849,0.53741328 15.4822899,2.24590303 L3.51865422,10.149309 C0.934392377,11.8565217 1.08433042,14.3618451 3.86003592,15.748345 L6.29499065,16.9646357 C9.06779241,18.3496852 13.3892154,18.0533429 15.9396575,16.3078705 L14.4294564,17.3414224 Z" id="Path-3" fill="#8DDBFF"/><path d="M15.7243466,12.087985 C17.4267651,10.9532156 20.1900834,10.955317 21.8893493,12.087985 L27.0050483,15.4979215 C28.7074668,16.6326909 30.0875497,19.219456 30.0875497,21.2700108 L30.0875497,28.8737955 C30.0875497,30.926863 28.7043142,33.5132169 27.0050483,34.6458849 L21.8893493,38.0558213 C20.1869308,39.1905907 17.4236125,39.1884893 15.7243466,38.0558213 L10.6086475,34.6458849 C8.90622906,33.5111155 7.52614621,30.9243504 7.52614621,28.8737955 L7.52614621,21.2700108 C7.52614621,19.2169433 8.90938167,16.6305895 10.6086475,15.4979215 L15.7243466,12.087985 Z" id="Polygon-1" fill="#44C3FF"/></g><g id="Group-45" transform="translate(61.423698, 69.701138) rotate(-350.000000) translate(-61.423698, -69.701138) translate(42.423698, 44.701138)"><path d="M15.722339,2.05601999 C17.4258662,0.920511503 20.1897604,0.921798451 21.8913569,2.05601999 L34.5291869,10.4799316 C36.2327142,11.6154401 37.6136959,14.2004059 37.6136959,16.2353972 L37.6136959,33.9084091 C37.6136959,35.9515565 36.2307835,38.5296532 34.5291869,39.6638747 L21.8913569,48.0877863 C20.1878297,49.2232948 17.4239355,49.2220079 15.722339,48.0877863 L3.08450898,39.6638747 C1.38098171,38.5283663 4.14782535e-14,35.9434004 4.04942073e-14,33.9084091 L3.19481952e-14,16.2353972 C3.0960205e-14,14.1922498 1.38291243,11.6141531 3.08450898,10.4799316 L15.722339,2.05601999 Z" id="Polygon-1" fill="#1CB0F6"/><path d="M14.4294564,17.3414224 C16.9832571,15.5936515 19.2377271,11.6793489 19.4660955,8.58313427 L19.748936,4.74838997 C19.9767943,1.65909192 18.0684849,0.53741328 15.4822899,2.24590303 L3.51865422,10.149309 C0.934392377,11.8565217 1.08433042,14.3618451 3.86003592,15.748345 L6.29499065,16.9646357 C9.06779241,18.3496852 13.3892154,18.0533429 15.9396575,16.3078705 L14.4294564,17.3414224 Z" id="Path-3" fill="#E0F5FF"/><path d="M15.7243466,12.087985 C17.4267651,10.9532156 20.1900834,10.955317 21.8893493,12.087985 L27.0050483,15.4979215 C28.7074668,16.6326909 30.0875497,19.219456 30.0875497,21.2700108 L30.0875497,28.8737955 C30.0875497,30.926863 28.7043142,33.5132169 27.0050483,34.6458849 L21.8893493,38.0558213 C20.1869308,39.1905907 17.4236125,39.1884893 15.7243466,38.0558213 L10.6086475,34.6458849 C8.90622906,33.5111155 7.52614621,30.9243504 7.52614621,28.8737955 L7.52614621,21.2700108 C7.52614621,19.2169433 8.90938167,16.6305895 10.6086475,15.4979215 L15.7243466,12.087985 Z" id="Polygon-1" fill="#44C3FF"/></g><g id="gem-copy" transform="translate(104.234113, 68.561247) scale(-1, 1) rotate(-350.000000) translate(-104.234113, -68.561247) translate(81.234113, 42.957473)"><path d="M19.239296,1.18390995 C21.1906393,0.0507130596 24.3557546,0.0515044263 26.3057351,1.18390995 L42.0118116,10.3048459 C43.9631549,11.4380428 45.5450312,14.1746417 45.5450312,16.4314053 L45.5450312,34.7311655 C45.5450312,36.9815739 43.9617922,39.7253193 42.0118116,40.8577248 L26.3057351,49.9786608 C24.3543919,51.1118577 21.1892766,51.1110663 19.239296,49.9786608 L3.53321955,40.8577248 C1.58187627,39.7245279 -3.00930033e-13,36.987929 -3.02182622e-13,34.7311655 L-3.1233968e-13,16.4314053 C-3.13588741e-13,14.1809969 1.58323899,11.4372515 3.53321955,10.3048459 L19.239296,1.18390995 Z" id="Polygon-1" fill="#1CB0F6"/><path d="M38.5923272,49.587412 C41.5198886,47.8418554 44.1268387,43.6664116 44.4137723,40.2771367 L44.7141417,36.7291584 C45.0016757,33.3327919 42.8406049,31.9574486 39.8852386,33.6584037 L24.7661858,42.3601437 C21.8117222,44.0605791 21.9452147,46.5394526 25.0633979,47.8964485 L28.8768326,49.5560094 C31.9954418,50.9131906 36.8879127,50.603668 39.8243929,48.8527937 L38.5923272,49.587412 Z" id="Path-3" fill="#1C8EF6" transform="translate(33.470142, 41.566331) scale(-1, -1) translate(-33.470142, -41.566331)"/><path d="M17.7703848,17.2482808 C20.6979462,15.5027242 23.3048963,11.3272804 23.5918299,7.93800554 L23.8921993,4.39002721 C24.1797333,0.993660737 22.0186625,-0.381682583 19.0632962,1.31927246 L3.94424333,10.0210125 C0.989779799,11.7214479 1.12327227,14.2003214 4.24145543,15.5573173 L8.05489012,17.2168782 C11.1734994,18.5740594 16.0659703,18.2645368 19.0024504,16.5136625 L17.7703848,17.2482808 Z" id="Path-3" fill="#44C3FF"/><path d="M19.2371209,11.7696486 C21.1896655,10.6357541 24.3527645,10.6342435 26.3079102,11.7696486 L32.8965048,15.5958205 C34.8490494,16.729715 36.4318995,19.4688049 36.4318995,21.7344815 L36.4318995,29.4280893 C36.4318995,31.6844836 34.8516506,34.4313451 32.8965048,35.5667502 L26.3079102,39.3929222 C24.3553657,40.5268167 21.1922667,40.5283272 19.2371209,39.3929222 L12.6485263,35.5667502 C10.6959818,34.4328557 9.11313169,31.6937658 9.11313169,29.4280893 L9.11313169,21.7344815 C9.11313169,19.4780872 10.6933806,16.7312256 12.6485263,15.5958205 L19.2371209,11.7696486 Z" id="Polygon-1" fill="#44C3FF"/></g></g><path d="M44,125 L160,125 L160,153 L160,153 C160,172.329966 144.329966,188 125,188 L79,188 L79,188 C59.6700338,188 44,172.329966 44,153 L44,125 Z" id="Mask" fill="#A86425"/><polygon id="Clip-40" points="164.958996 131.354295 151.465028 115.272823 135.382621 128.767559"/><g id="Group-2" transform="translate(35.000000, 137.000000)" fill="#925218"><path d="M30.6922197,9.22974088 L4.94079437,9.22974088 C2.58787294,9.22974088 0.757821872,7.26896503 0.757821872,5.04675879 C0.757821872,2.69383735 2.71859053,0.86380068 4.94079437,0.86380068 L30.6922197,0.86380068 C33.0451412,0.86380068 34.8752018,2.82457654 34.8752018,5.04675879 C35.005917,7.26896503 33.0451412,9.22974088 30.6922197,9.22974088 L30.6922197,9.22974088 Z" id="Clip-64"/><path d="M129.122798,9.22974088 L116.051015,9.22974088 C113.698094,9.22974088 111.868033,7.26896503 111.868033,5.04675879 C111.868033,2.69383735 113.828809,0.86380068 116.051015,0.86380068 L129.122798,0.86380068 C131.47572,0.86380068 133.30578,2.82457654 133.30578,5.04675879 C133.436496,7.26896503 131.47572,9.22974088 129.122798,9.22974088 L129.122798,9.22974088 Z" id="Clip-67"/><path d="M124.547671,37.9876828 L85.9858974,37.9876828 C83.632976,37.9876828 81.8029153,36.026907 81.8029153,33.8047007 C81.8029153,31.4517793 83.7636911,29.6217426 85.9858974,29.6217426 L124.547671,29.6217426 C126.900592,29.6217426 128.730653,31.5825185 128.730653,33.8047007 C128.861368,36.026907 126.900592,37.9876828 124.547671,37.9876828 L124.547671,37.9876828 Z" id="Clip-73"/><path d="M80.5551706,51.3220168 L51.6665135,51.3220168 C49.3135921,51.3220168 47.4835314,49.3612481 47.4835314,47.1390443 C47.4835314,44.7861204 49.4443073,42.9560838 51.6665135,42.9560838 L80.5551706,42.9560838 C82.9080921,42.9560838 84.7381288,44.9168524 84.7381288,47.1390443 C84.8688439,49.3612481 82.9080921,51.3220168 80.5551706,51.3220168 L80.5551706,51.3220168 Z" id="Mask"/><path d="M98.5348197,17.0727963 L69.6461626,17.0727963 C67.2932411,17.0727963 65.4631805,15.1120445 65.4631805,12.8898382 C65.4631805,10.5369168 67.4239563,8.70688012 69.6461626,8.70688012 L98.5348197,8.70688012 C100.887741,8.70688012 102.717778,10.667632 102.717778,12.8898382 C102.848517,15.1120445 100.887741,17.0727963 98.5348197,17.0727963 L98.5348197,17.0727963 Z" id="Mask"/><path d="M52.783543,31.4517793 L23.8948858,31.4517793 C21.5419644,31.4517793 19.7119277,29.4910034 19.7119277,27.2687972 C19.7119277,24.9158758 21.6726796,23.0858391 23.8948858,23.0858391 L52.783543,23.0858391 C55.1364644,23.0858391 56.9665251,25.046615 56.9665251,27.2687972 C57.0972403,29.4910034 55.1364644,31.4517793 52.783543,31.4517793 L52.783543,31.4517793 Z" id="Mask"/></g><g id="gem-copy" transform="translate(53.209075, 171.224788) scale(-1, 1) rotate(-326.000000) translate(-53.209075, -171.224788) translate(36.709075, 150.010503)"><path d="M12.9649319,1.47110894 C14.8363082,0.224699891 17.8771574,0.229194925 19.7417848,1.47110894 L29.3182903,7.84943251 C31.1896665,9.09584156 32.7067167,11.9260739 32.7067167,14.1780938 L32.7067167,27.8183577 C32.7067167,30.0671718 31.1829176,32.905105 29.3182903,34.147019 L19.7417848,40.5253426 C17.8704085,41.7717516 14.8295593,41.7672566 12.9649319,40.5253426 L3.38842642,34.147019 C1.51705018,32.90061 -3.441563e-13,30.0703776 -3.45246151e-13,27.8183577 L-3.51847269e-13,14.1780938 C-3.52935568e-13,11.9292798 1.52379909,9.09134653 3.38842642,7.84943251 L12.9649319,1.47110894 Z" id="Polygon-1" fill="#1CB0F6"/><path d="M26.4647286,41.6488896 C29.2717123,39.7293565 31.7503666,35.4212086 32.0007324,32.0294247 L32.0571554,31.2650441 C32.3076221,27.8718935 30.1999913,26.6464759 27.3707362,28.5140654 L19.1101385,33.9668805 C16.2714339,35.8407076 16.4319137,38.5884297 19.4898298,40.1146957 L19.2991413,40.0195193 C22.3475436,41.5410368 27.0967117,41.216713 29.9012557,39.2988484 L26.4647286,41.6488896 Z" id="Path-3" fill="#1C8EF6" transform="translate(24.048896, 34.166924) scale(-1, -1) translate(-24.048896, -34.166924)"/><path d="M26.1365608,15.466975 C28.9435445,13.5474419 31.4294015,9.24330411 31.6903431,5.83427115 L31.7190522,5.45920463 C32.0135812,1.61137259 29.6544962,0.245088902 26.467,2.39597783 L18.9624651,7.45995909 C16.1378649,9.36596956 16.2896832,12.2145379 19.294041,13.8184003 L19.0446273,13.6852519 C22.0523518,15.2909116 26.7685439,15.0347985 29.5730879,13.1169338 L26.1365608,15.466975 Z" id="Path-3" fill="#099DE4" transform="translate(23.828159, 7.856945) scale(-1, 1) translate(-23.828159, -7.856945)"/><path d="M11.4853579,15.007546 C14.2923417,13.0880129 16.7709959,8.77986498 17.0213617,5.38808108 L17.0777848,4.62370056 C17.3282515,1.23054988 15.2206206,0.00513230838 12.3913655,1.87272178 L4.1307678,7.32553692 C1.2920632,9.19936397 1.45254301,11.9470861 4.51045913,13.4733521 L4.31977064,13.3781757 C7.36817298,14.8996933 12.117341,14.5753695 14.9218851,12.6575048 L11.4853579,15.007546 Z" id="Path-3" fill="#8DDBFF"/><path d="M12.9501566,10.1984723 C14.829693,8.94662821 17.8752603,8.94545374 19.7565601,10.1984723 L22.7592091,12.1983528 C24.6387455,13.4501968 26.1624108,16.2818463 26.1624108,18.5455659 L26.1624108,23.4508856 C26.1624108,25.7045106 24.6405088,28.5450802 22.7592091,29.7980988 L19.7565601,31.7979793 C17.8770237,33.0498233 14.8314564,33.0509978 12.9501566,31.7979793 L9.94750763,29.7980988 C8.06797122,28.5462547 6.5443059,25.7146052 6.5443059,23.4508856 L6.5443059,18.5455659 C6.5443059,16.291941 8.06620785,13.4513713 9.94750763,12.1983528 L12.9501566,10.1984723 Z" id="Polygon-1" fill="#44C3FF"/></g><path d="M30,194 C30,190.686293 32.147352,188 34.7911368,188 L169.208856,188 C171.854928,188 174,190.66319 174,194 C174,197.313708 171.852648,200 169.208856,200 L34.7911368,200 C32.1450648,200 30,197.336811 30,194 L30,194 Z" id="shadow" fill="#D8D8D8"/><path d="M163.979333,129.287468 L39.1437412,129.287468 C35.7450766,129.287468 33,126.542401 33,123.143734 C33,119.745067 35.7450766,117 39.1437412,117 L163.979333,117 C167.378,117 170.123091,119.745067 170.123091,123.143734 C170.123091,126.542401 167.378,129.287468 163.979333,129.287468 L163.979333,129.287468 Z" id="Clip-70" fill="#925218"/></g></g></svg>