<?xml version="1.0" encoding="UTF-8" standalone="no"?><svg width="49px" height="43px" viewBox="0 0 49 43" version="1.1" xmlns="http://www.w3.org/2000/svg" xmlns:xlink="http://www.w3.org/1999/xlink" xmlns:sketch="http://www.bohemiancoding.com/sketch/ns"><defs/><g id="Page-1" stroke="none" stroke-width="1" fill="none" fill-rule="evenodd" sketch:type="MSPage"><g id="check-filled" sketch:type="MSArtboardGroup" fill="#1cb0f6"><path d="M39,22.8273926 L39,43 L43,43 L43,19 L39,22.8273926 Z" id="Rectangle-5" sketch:type="MSShapeGroup"/><path d="M23.099143,31.3513352 C22.123732,31.4214858 21.1250124,31.0851675 20.3805231,30.3406782 L10.4687193,20.4288745 C9.10397514,19.0641303 9.10803871,16.8521164 10.4748737,15.4852814 C11.8389275,14.1212276 14.0550308,14.1156909 15.4184668,15.479127 L23.1494949,23.2101551 L42.8799426,3.47970747 C44.2494472,2.11020285 46.47047,2.11081995 47.8345238,3.47487373 C49.2013588,4.84170876 49.205965,7.05317995 47.82969,8.42945494 L25.9190473,30.3400977 C25.1475098,31.1116352 24.1057128,31.4483159 23.099143,31.3513352 Z" id="Rectangle-378" sketch:type="MSShapeGroup"/><rect id="Rectangle-5" sketch:type="MSShapeGroup" x="0" y="0" width="4" height="43"/><rect id="Rectangle-7" sketch:type="MSShapeGroup" x="0" y="39" width="43" height="4"/><path d="M0,0 L0,4 L36.6501465,4 L41,0 L0,0 Z" id="Rectangle-7" sketch:type="MSShapeGroup"/></g></g></svg>