<?xml version="1.0" encoding="UTF-8"?><svg width="16px" height="13px" viewBox="0 0 16 13" version="1.1" xmlns="http://www.w3.org/2000/svg" xmlns:xlink="http://www.w3.org/1999/xlink"><title>check-green</title><desc>Created with Sketch.</desc><defs/><g id="Page-1" stroke="none" stroke-width="1" fill="none" fill-rule="evenodd"><g id="iPhone-SE" transform="translate(-310.000000, -112.000000)" fill="#7AC70C"><g id="check-green" transform="translate(310.000000, 112.000000)"><path d="M3.596194,5.267767 L7.131727,8.803301 C7.912776,9.58435 7.912776,10.850679 7.131728,11.631728 L7.131728,11.631728 C6.350678,12.412777 5.08435,12.412777 4.3033,11.631728 L0.767767,8.096194 C-0.0132821,7.315145 -0.0132824,6.048816 0.767767,5.267767 L0.767767,5.267767 C1.548815,4.48672 2.815145,4.48672 3.596194,5.267767 Z" id="Fill-1"/><path d="M12.54594,1.26777 L4.767767,9.045942 C3.986718,9.826991 3.986718,11.09332 4.767767,11.874369 C5.548816,12.655418 6.815145,12.655418 7.596194,11.874369 L15.37437,4.09619 C16.15542,3.31515 16.15542,2.04882 15.37437,1.26777 C14.59332,0.48672 13.32699,0.48672 12.54594,1.26777 Z" id="Fill-3"/></g></g></g></svg>