<?xml version="1.0" encoding="UTF-8"?><svg width="100px" height="102px" viewBox="0 0 100 102" version="1.1" xmlns="http://www.w3.org/2000/svg" xmlns:xlink="http://www.w3.org/1999/xlink"><title>chest_open</title><desc>Created with Sketch.</desc><defs/><g id="Page-1" stroke="none" stroke-width="1" fill="none" fill-rule="evenodd"><g id="chest_open" transform="translate(0.000000, -2.000000)"><rect id="Rectangle-path" fill="#D8D8D8" fill-rule="nonzero" x="0" y="97" width="100" height="7" rx="3.5"/><polygon id="Shape" fill="#4C2B0D" fill-rule="nonzero" points="8.547 16.407 91.937 16.407 88.958 77.837 11.525 77.837"/><polygon id="Path" fill="#9E7500" opacity="0.552" points="77.107 16.407 91.937 16.407 89.005 77.837 76.054 77.837"/><polygon id="Path" fill="#9E7500" opacity="0.552" points="23.376 16.407 8.547 16.407 11.478 77.837 24.431 77.837"/><path d="M37.941,32.24 L32.058,44.098 C31.5725681,45.0769395 31.6093559,46.2338779 32.156,47.18 L39.903,60.6 C40.4494781,61.5457246 41.4329022,62.1552974 42.523,62.224 L55.733,63.059 C57.0450965,63.1422445 58.2789836,62.4299014 58.863,61.252 L64.744,49.395 C65.2297381,48.4162266 65.1933258,47.2592912 64.647,46.313 L56.899,32.893 C56.3525219,31.9472754 55.3690978,31.3377026 54.279,31.269 L41.069,30.434 C39.7569035,30.3507555 38.5230164,31.0630986 37.939,32.241 L37.941,32.24 Z" id="Shape" fill="#E73838" fill-rule="nonzero"/><path d="M53.584,55.716 L55.456,58.468 C56.0582484,59.3524303 56.105293,60.5023276 55.5773041,61.4329982 C55.0493153,62.3636688 54.0381403,62.913216 52.97,62.85 L44.588,62.355 C43.4998344,62.2902766 42.5290742,61.6493519 42.0420671,60.6740994 C41.5550599,59.6988469 41.6259558,58.5377553 42.228,57.629 L43.552,55.629 C44.5385261,54.1387962 46.2538924,53.2987104 48.036,53.433 L49.876,53.573 C51.3737979,53.6855667 52.7387123,54.4744048 53.584,55.716 L53.584,55.716 Z" id="Shape" fill="#1C8EF6" fill-rule="nonzero"/><path d="M43.388,37.846 L40.896,32.649 C40.6009479,32.0348043 39.9808322,31.6432537 39.2994464,31.6409115 C38.6180606,31.6385692 37.9952677,32.0258473 37.696,32.638 L32.097,44.096 C31.8232738,44.6566904 31.8634768,45.319832 32.2029331,45.8433482 C32.5423894,46.3668644 33.1314192,46.6741379 33.755,46.653 L38.343,46.497 C40.1773675,46.4346649 41.8254548,45.3590549 42.621,43.705 L43.385,42.117 C44.034,40.767 44.035,39.197 43.388,37.846 L43.388,37.846 Z" id="Shape" fill="#D33131" fill-rule="nonzero"/><path d="M41.704,37.552 L39.162,33.817 C38.6857035,33.1168942 38.6487225,32.2069364 39.066637,31.4704895 C39.4845515,30.7340426 40.284707,30.2991381 41.13,30.349 L52.13,30.999 C52.9234667,31.0457191 53.631547,31.512712 53.9869281,32.2236805 C54.3423091,32.9346491 54.2908586,33.7812971 53.852,34.444 L51.735,37.64 C50.7482296,39.1298232 49.0329084,39.9695043 47.251,39.835 L45.411,39.697 C43.9128463,39.5839672 42.547865,38.7943542 41.703,37.552 L41.704,37.552 Z" id="Shape" fill="#FF8383" fill-rule="nonzero"/><path d="M41.741,38.823 L38.91,44.531 C38.4242619,45.5097734 38.4606742,46.6667088 39.007,47.613 L42.954,54.449 C43.499995,55.3954929 44.4835046,56.0058694 45.574,56.075 L51.934,56.476 C53.2451606,56.5585957 54.4779769,55.8468097 55.062,54.67 L57.894,48.962 C58.3794319,47.9830605 58.3426441,46.8261221 57.796,45.88 L53.849,39.044 C53.303005,38.0975071 52.3194954,37.4871306 51.229,37.418 L44.87,37.017 C43.5584866,36.9339901 42.3251666,37.6458392 41.741,38.823 Z" id="Shape" fill="#FF5252" fill-rule="nonzero"/><path d="M28.9358701,47.4054965 L38.8788701,54.0204965 C39.7053544,54.5706185 40.2019072,55.497667 40.2018701,56.4904965 L40.2018701,70.4874965 C40.2018701,71.4804965 39.7048701,72.4074965 38.8788701,72.9574965 L28.9358701,79.5714965 C27.94054,80.2334238 26.6452002,80.2334238 25.6498701,79.5714965 L15.7068701,72.9574965 C14.8803858,72.4073746 14.3838331,71.4803261 14.3838701,70.4874965 L14.3838701,56.4904965 C14.3838701,55.4974965 14.8808701,54.5704965 15.7068701,54.0204965 L25.6498701,47.4054965 C26.6452002,46.7435693 27.94054,46.7435693 28.9358701,47.4054965 Z" id="Shape" fill="#D33131" fill-rule="nonzero" transform="translate(27.292870, 63.488497) scale(-1, 1) rotate(30.000000) translate(-27.292870, -63.488497)"/><path d="M21.835603,74.328963 L21.613603,77.319963 C21.5419442,78.2847592 22.0252376,79.2063273 22.8596374,79.6959636 C23.6940372,80.1855999 24.7342784,80.1580613 25.541603,79.624963 L31.874603,75.448963 C32.6971661,74.9062478 33.167505,73.9657548 33.1082938,72.9820658 C33.0490827,71.9983769 32.4693264,71.1210922 31.587603,70.680963 L29.661603,69.720963 C28.2069802,68.9958385 26.4738834,69.1144389 25.131603,70.030963 L23.778603,70.955963 C22.6513481,71.725994 21.9361752,72.9675165 21.835603,74.328963 L21.835603,74.328963 Z" id="Shape" fill="#1C8EF6" fill-rule="nonzero" transform="translate(27.359949, 74.647373) scale(-1, 1) rotate(30.000000) translate(-27.359949, -74.647373)"/><path d="M32.9788214,52.4351058 L33.3128214,47.9031058 C33.3623351,47.2276363 33.0237932,46.5827008 32.4397208,46.2398158 C31.8556485,45.8969307 31.1274989,45.915655 30.5618214,46.2881058 L21.5198214,52.2491058 C20.9893742,52.5992452 20.6861737,53.2059072 20.7245489,53.8403354 C20.7629241,54.4747637 21.1370377,55.0404564 21.7058214,55.3241058 L25.1518214,57.0421058 C26.6064441,57.7672303 28.339541,57.6486299 29.6818214,56.7321058 L31.0358214,55.8081058 C32.1630762,55.0380748 32.8782491,53.7965523 32.9788214,52.4351058 L32.9788214,52.4351058 Z" id="Shape" fill="#E73838" fill-rule="nonzero" transform="translate(27.019446, 51.754162) scale(-1, 1) rotate(30.000000) translate(-27.019446, -51.754162)"/><path d="M28.6137163,54.0220098 L33.3897163,57.1990098 C34.2165814,57.7489022 34.7135307,58.6759904 34.7137163,59.6690098 L34.7137163,66.7930098 C34.7137163,67.7860098 34.2167163,68.7130098 33.3897163,69.2630098 L28.6137163,72.4390098 C27.6181565,73.1013804 26.3222761,73.1013804 25.3267163,72.4390098 L20.5517163,69.2630098 C19.7248512,68.7131174 19.2279019,67.7860291 19.2277163,66.7930098 L19.2277163,59.6690098 C19.2277163,58.6760098 19.7247163,57.7490098 20.5517163,57.1990098 L25.3277163,54.0220098 C26.3232761,53.3596391 27.6191565,53.3596391 28.6147163,54.0220098 L28.6137163,54.0220098 Z" id="Shape" fill="#E73838" fill-rule="nonzero" transform="translate(26.970716, 63.230510) scale(-1, 1) rotate(30.000000) translate(-26.970716, -63.230510)"/><rect id="Rectangle-path" fill="#FFFFFF" fill-rule="nonzero" transform="translate(22.525383, 54.596260) scale(-1, 1) rotate(75.000000) translate(-22.525383, -54.596260)" x="19.8673831" y="51.9437598" width="5.316" height="5.305" rx="0.8"/><path d="M74.492,39.812 L79.795,50.512 C80.235,51.402 80.202,52.452 79.706,53.312 L72.708,65.434 C72.2114773,66.2943478 71.3173535,66.84914 70.326,66.912 L58.409,67.669 C57.2159704,67.7446805 56.094052,67.0969953 55.563,66.026 L50.26,55.326 C49.819131,54.4367033 49.8521576,53.3858572 50.348,52.526 L57.347,40.404 C57.8433298,39.5439353 58.7370095,38.9891858 59.728,38.926 L71.646,38.169 C72.8390296,38.0933195 73.960948,38.7410047 74.492,39.812 L74.492,39.812 Z" id="Shape" fill="#D33131" fill-rule="nonzero"/><path d="M60.334,61.04 L58.648,63.52 C58.1038276,64.3195162 58.0615585,65.3588751 58.539011,66.1999392 C59.0164636,67.0410033 59.9305729,67.5374484 60.896,67.48 L68.469,67.03 C69.4527339,66.9711863 70.3302681,66.3917625 70.7707452,65.5101893 C71.2112224,64.6286162 71.1476512,63.57897 70.604,62.757 L69.417,60.963 C68.5197738,59.6072373 66.9591169,58.8431697 65.338,58.966 L63.704,59.09 C62.3423898,59.1930912 61.1019114,59.9108755 60.334,61.04 L60.334,61.04 Z" id="Shape" fill="#1C8EF6" fill-rule="nonzero"/><path d="M70.121,44.754 L72.677,40.996 C73.0575456,40.4357766 73.0867792,39.708014 72.7523946,39.1190725 C72.41801,38.5301309 71.7780836,38.1822988 71.102,38.222 L60.291,38.864 C59.6564543,38.9018178 59.0903714,39.2755222 58.8062555,39.8441667 C58.5221396,40.4128112 58.5632189,41.0898764 58.914,41.62 L61.039,44.83 C61.9362262,46.1857627 63.4968831,46.9498303 65.118,46.827 L66.752,46.703 C68.1132499,46.5996133 69.3533025,45.8818625 70.121,44.753 L70.121,44.754 Z" id="Shape" fill="#FF5252" fill-rule="nonzero"/><path d="M71.055,45.765 L73.603,50.905 C74.043,51.795 74.01,52.846 73.513,53.706 L69.952,59.876 C69.4551874,60.7352964 68.5615931,61.2892424 67.571,61.352 L61.846,61.716 C60.6526176,61.7920951 59.5301952,61.1443466 58.999,60.073 L56.452,54.933 C56.0110789,54.0432665 56.0444839,52.991947 56.541,52.132 L60.102,45.962 C60.5988126,45.1027036 61.4924069,44.5487576 62.483,44.486 L68.209,44.122 C69.4020296,44.0463195 70.523948,44.6940047 71.055,45.765 L71.055,45.765 Z" id="Shape" fill="#E73838" fill-rule="nonzero"/><path d="M55.9,53.822 L61.203,64.522 C61.644,65.411 61.611,66.462 61.114,67.322 L54.116,79.444 C53.6194287,80.3036806 52.7257917,80.8580282 51.735,80.921 L39.817,81.678 C38.6239704,81.7536805 37.502052,81.1059953 36.971,80.035 L31.668,69.335 C31.2274373,68.4455373 31.2608393,67.3946883 31.757,66.535 L38.755,54.413 C39.2515713,53.5533194 40.1452083,52.9989718 41.136,52.936 L53.054,52.179 C54.2470296,52.1033195 55.368948,52.7510047 55.9,53.822 L55.9,53.822 Z" id="Shape" fill="#E73838" fill-rule="nonzero"/><path d="M41.743,75.049 L40.056,77.529 C39.5118276,78.3285162 39.4695585,79.3678751 39.947011,80.2089392 C40.4244636,81.0500033 41.3385729,81.5464484 42.304,81.489 L49.877,81.039 C50.860914,80.9805207 51.7387628,80.4012275 52.1794765,79.5195938 C52.6201902,78.6379601 52.5567189,77.588117 52.013,76.766 L50.825,74.972 C49.9277738,73.6162373 48.3671169,72.8521697 46.746,72.975 L45.112,73.099 C43.7507501,73.2023867 42.5106975,73.9201375 41.743,75.049 L41.743,75.049 Z" id="Shape" fill="#1C8EF6" fill-rule="nonzero"/><path d="M51.529,58.763 L53.577,55.753 C54.0535707,55.0525927 54.0904038,54.1421382 53.6719689,53.4055229 C53.253534,52.6689075 52.4526486,52.2343196 51.607,52.285 L42.469,52.827 C41.6757135,52.8740539 40.967948,53.3411774 40.6128036,54.0520853 C40.2576592,54.7629932 40.3092094,55.609444 40.748,56.272 L42.447,58.84 C43.3444706,60.1953821 44.9050824,60.959045 46.526,60.836 L48.16,60.712 C49.521072,60.6088464 50.7610912,59.8914829 51.529,58.763 L51.529,58.763 Z" id="Shape" fill="#FF8383" fill-rule="nonzero"/><path d="M52.464,59.775 L55.011,64.915 C55.451,65.805 55.418,66.855 54.921,67.715 L51.361,73.885 C50.8642358,74.7449637 49.9701547,75.299354 48.979,75.362 L43.254,75.726 C42.0607401,75.8015006 40.9387583,75.1533847 40.408,74.082 L37.86,68.942 C37.4194373,68.0525373 37.4528393,67.0016883 37.949,66.142 L41.511,59.972 C42.0073783,59.1126024 42.9005712,58.5582974 43.891,58.495 L49.617,58.131 C50.8102599,58.0554994 51.9322417,58.7036153 52.463,59.775 L52.464,59.775 Z" id="Shape" fill="#E73838" fill-rule="nonzero"/><path d="M82.487,50.12 L88.297,61.808 C88.784,62.787 88.747,63.945 88.201,64.892 L80.568,78.112 C80.0211853,79.0589589 79.0363853,79.6690619 77.945,79.737 L64.919,80.55 C63.6087752,80.6319478 62.377029,79.9207187 61.793,78.745 L55.983,67.057 C55.4965441,66.0776855 55.5329624,64.9198084 56.08,63.973 L63.712,50.753 C64.2588147,49.8060411 65.2436147,49.1959381 66.335,49.128 L79.362,48.315 C80.6718718,48.2334659 81.9031149,48.9446319 82.487,50.12 L82.487,50.12 Z" id="Shape" fill="#D33131" fill-rule="nonzero"/><path d="M65.927,79.967 L67.343,82.902 C67.8028984,83.8539979 68.7636389,84.462105 69.8208702,84.4703846 C70.8781015,84.4786641 71.8482481,83.8856784 72.323,82.941 L76.053,75.514 C76.5370742,74.5509947 76.4692913,73.4026599 75.8752863,72.5032906 C75.2812814,71.6039213 74.2517285,71.090805 73.176,71.158 L70.832,71.304 C69.0510228,71.4146612 67.4686456,72.4785019 66.694,74.086 L65.925,75.681 C65.2725672,77.03534 65.2733035,78.6132695 65.927,79.967 L65.927,79.967 Z" id="Shape" fill="#1C8EF6" fill-rule="nonzero"/><path d="M77.717,55.496 L80.69,51.126 C81.0708691,50.5660542 81.1005827,49.8383692 80.7666339,49.2492352 C80.4326852,48.6601013 79.7930665,48.3118252 79.117,48.351 L66.657,49.078 C66.0217609,49.1149389 65.4546894,49.4885315 65.1700394,50.0576251 C64.8853894,50.6267187 64.9265616,51.3045434 65.278,51.835 L67.761,55.579 C68.7473588,57.0664231 70.4602181,57.9050702 72.24,57.772 L74.006,57.64 C75.5046963,57.5277917 76.8704961,56.7384993 77.716,55.496 L77.717,55.496 Z" id="Shape" fill="#E73838" fill-rule="nonzero"/><path d="M78.732,56.623 L81.519,62.231 C82.006,63.21 81.97,64.368 81.423,65.315 L77.546,72.031 C76.9991853,72.9779589 76.0143853,73.5880619 74.923,73.656 L68.673,74.046 C67.3631282,74.1275341 66.1318851,73.4163681 65.548,72.241 L62.761,66.634 C62.2742378,65.6548517 62.3102806,64.4969777 62.857,63.55 L66.735,56.834 C67.281622,55.8873246 68.2659776,55.2772644 69.357,55.209 L75.607,54.819 C76.9166419,54.7372856 78.1478219,55.4480212 78.732,56.623 L78.732,56.623 Z" id="Shape" fill="#E73838" fill-rule="nonzero"/><rect id="Rectangle-path" fill="#E3A800" fill-rule="nonzero" x="8.547" y="5.508" width="83.389" height="15.853" rx="4.8"/><rect id="Rectangle-path" fill="#FFBC00" fill-rule="nonzero" x="8.547" y="3.031" width="83.389" height="12.385" rx="4.8"/><path d="M13.347,3.03 L19.631,3.03 C20.9040392,3.03 22.1249379,3.53571283 23.0251125,4.43588745 C23.9252872,5.33606207 24.431,6.55696085 24.431,7.83 L24.431,15.416 L13.347,15.416 C10.6960332,15.416 8.547,13.2669668 8.547,10.616 L8.547,7.83 C8.547,5.1790332 10.6960332,3.03 13.347,3.03 Z" id="Path" fill="#FFE600"/><path d="M80.853,3.03 L87.136,3.03 C88.4090392,3.03 89.6299379,3.53571283 90.5301125,4.43588745 C91.4302872,5.33606207 91.936,6.55696085 91.936,7.83 L91.936,10.616 C91.936,13.2669668 89.7869668,15.416 87.136,15.416 L76.054,15.416 L76.054,7.83 C76.054,5.1790332 78.2030332,3.03 80.854,3.03 L80.853,3.03 Z" id="Path" fill="#FFE600"/><rect id="Rectangle-path" fill="#E3A800" fill-rule="nonzero" x="39.818" y="5.508" width="22.833" height="19.321" rx="7.2"/><rect id="a" fill="#FFD300" fill-rule="nonzero" x="39.818" y="2.04" width="22.833" height="12.385" rx="6.1925"/><polygon id="Shape" fill="#A86425" fill-rule="nonzero" points="15.966 60.901 84.835 60.901 84.835 88.875 15.965 88.875"/><path d="M11.957,81.681 L88.043,81.681 C90.6939668,81.681 92.843,83.8300332 92.843,86.481 L92.843,92.867 C92.843,95.5179668 90.6939668,97.667 88.043,97.667 L11.957,97.667 C9.3060332,97.667 7.157,95.5179668 7.157,92.867 L7.157,86.481 C7.157,83.8300332 9.3060332,81.681 11.957,81.681 L11.957,81.681 Z" id="Shape" fill="#FFBC00" fill-rule="nonzero"/><path d="M89.479,60.901 C91.431,60.901 92.843,62.168 92.843,64.098 L92.843,94.47 C92.843,96.403 91.431,97.667 89.479,97.667 L79.389,97.667 C77.438,97.667 76.026,96.4 76.026,94.47 L76.026,64.098 C76.026,62.165 77.438,60.901 79.389,60.901 L89.479,60.901 Z" id="b" fill="#FFD300" fill-rule="nonzero"/><path d="M20.61,60.901 C22.562,60.901 23.974,62.168 23.974,64.098 L23.974,94.47 C23.974,96.403 22.562,97.667 20.61,97.667 L10.52,97.667 C8.569,97.667 7.157,96.4 7.157,94.47 L7.157,64.098 C7.157,62.165 8.569,60.901 10.52,60.901 L20.61,60.901 Z" id="c" fill="#FFD300" fill-rule="nonzero"/><ellipse id="Oval" fill="#FFE900" fill-rule="nonzero" cx="15.565" cy="90.074" rx="2.803" ry="2.797"/><ellipse id="Oval" fill="#FFE900" fill-rule="nonzero" cx="50.3" cy="90.074" rx="2.803" ry="2.797"/><ellipse id="Oval" fill="#FFE900" fill-rule="nonzero" cx="85.235" cy="90.074" rx="2.803" ry="2.797"/><ellipse id="Oval" fill="#FFE900" fill-rule="nonzero" cx="15.565" cy="68.494" rx="2.803" ry="2.797"/><ellipse id="Oval" fill="#FFE900" fill-rule="nonzero" cx="85.235" cy="68.494" rx="2.803" ry="2.797"/><rect id="Rectangle-path" fill="#9C5A1D" fill-rule="nonzero" x="29.58" y="68.894" width="40.841" height="4.796" rx="2.398"/><rect id="Rectangle-path" fill="#FFFFFF" fill-rule="nonzero" transform="translate(78.000000, 31.445000) rotate(45.000000) translate(-78.000000, -31.445000)" x="74.889" y="28.334" width="6.222" height="6.222" rx="0.8"/></g></g></svg>