<?xml version="1.0" encoding="UTF-8"?><svg width="107px" height="120px" viewBox="0 0 107 120" version="1.1" xmlns="http://www.w3.org/2000/svg" xmlns:xlink="http://www.w3.org/1999/xlink"><title>chest_open-lingot</title><desc>Created with Sketch.</desc><defs><rect id="path-1" x="39" y="5" width="29" height="24" rx="4"/><path d="M16.8,0 C19.2370696,3.83026943e-15 21,1.58488094 21,4 L21,42 C21,44.4186037 19.2366707,46 16.8,46 L4.2,46 C1.76293041,46 0,44.4151191 0,42 L0,4 C1.86517468e-14,1.58139626 1.76332928,0 4.2,0 L16.8,0 Z" id="path-3"/><path d="M16.8,0 C19.2370696,3.83026943e-15 21,1.58488094 21,4 L21,42 C21,44.4186037 19.2366707,46 16.8,46 L4.2,46 C1.76293041,46 0,44.4151191 0,42 L0,4 C1.86517468e-14,1.58139626 1.76332928,0 4.2,0 L16.8,0 Z" id="path-5"/></defs><g id="Page-1" stroke="none" stroke-width="1" fill="none" fill-rule="evenodd"><g id="chest_open-lingot"><g id="Group"><polygon id="Rectangle-60" fill="#785305" points="0 16 107 16 102.92381 90 4.07619048 90"/><rect id="Rectangle-11" fill="#4C2B0D" x="19" y="14" width="69" height="60"/><rect id="Rectangle-56" fill="#E3A800" x="0" y="4" width="107" height="19" rx="6"/><rect id="Rectangle-56" fill="#FFBC00" x="0" y="2" width="107" height="15" rx="6"/><path d="M0,7.99306515 C0,4.68318666 2.68193801,2 5.99867589,2 L13.0013241,2 C16.3143013,2 19,4.6816994 19,7.99306515 L19,17 L5.99867589,17 C2.68569868,17 0,14.3183006 0,11.0069348 L0,7.99306515 Z" id="Rectangle-64" fill="#FFE600"/><path d="M88,7.99306515 C88,4.68318666 90.681938,2 93.9986759,2 L101.001324,2 C104.314301,2 107,4.6816994 107,7.99306515 L107,17 L93.9986759,17 C90.6856987,17 88,14.3183006 88,11.0069348 L88,7.99306515 Z" id="Rectangle-64" fill="#FFE600" transform="translate(97.500000, 9.500000) scale(-1, 1) translate(-97.500000, -9.500000)"/><mask id="mask-2" fill="white"><use xlink:href="#path-1"/></mask><use id="Mask" fill="#E3A800" xlink:href="#path-1"/><path d="M39,4.00002024 C39,1.79087006 40.7921947,0 43.0018785,0 L63.9981215,0 C66.208298,0 68,1.79445134 68,4.00002024 L68,10.9999798 C68,13.2091299 66.2078053,15 63.9981215,15 L43.0018785,15 C40.791702,15 39,13.2055487 39,10.9999798 L39,4.00002024 Z" id="Mask" fill="#FFD300"/></g><g id="Group-2" transform="translate(0.000000, 31.000000)"><g id="open-chest"><g id="Group" transform="translate(7.859504, 0.256198)"><path d="M47.0038763,35.5585941 C48.511243,38.6337866 48.5102843,43.6055888 46.9973432,46.6723272 L46.1264473,48.4376371 C44.6154725,51.5003899 42.1310666,51.5179007 40.5747291,48.4715761 L35.1326904,37.8195063 C33.5775359,34.7754975 35.1276594,32.474949 38.6060762,32.6817466 L39.5142326,32.735738 C42.9876851,32.9422405 47.0253248,35.6023513 48.5328036,38.6777724 L47.0038763,35.5585941 Z" id="Path-3" fill="#1C8EF6"/><g id="Group-3" transform="translate(60.000000, 43.000000) rotate(10.000000) translate(-60.000000, -43.000000) translate(27.000000, 6.000000)"><path d="M16.290421,0.24979792 C13.444906,0.0713618813 10.1128276,1.9545322 8.84784878,4.45630644 L1.40243987,19.1812426 C0.137535737,21.6828691 0.266366525,25.6679489 1.69546536,28.0911097 L11.5563941,44.8111683 C12.9831318,47.2303254 16.4463089,49.3360803 19.2919918,49.5145269 L36.0411053,50.5648272 C38.8866203,50.7432633 42.2186987,48.860093 43.4836775,46.3583187 L50.9290864,31.6333825 C52.1939905,29.131756 52.0651597,25.1466762 50.6360609,22.7235154 L40.7751321,6.00345691 C39.3483945,3.58429971 35.8852174,1.47854486 33.0395344,1.30009829 L16.290421,0.24979792 Z" id="Polygon-1" fill="#E73838"/><path d="M16.7453148,21.6417734 C18.6115783,17.8343923 18.6145855,11.6660031 16.7572579,7.87495841 L15.8608601,6.04529505 C13.7543432,1.74562268 10.3193124,1.72880451 8.18215333,6.02048401 L2.04548783,18.3436665 C0.155593103,22.1388087 2.11089186,25.1018479 6.42986514,24.9612435 L7.45276882,24.9279428 C11.7640883,24.7875875 16.77187,21.5875979 18.6382723,17.7799336 L16.7453148,21.6417734 Z" id="Path-3" fill="#D33131"/><path d="M27.4397608,14.8807969 C23.1384308,14.559312 17.6935065,11.4805233 15.2711504,7.99400941 L13.876767,5.98706369 C11.457559,2.50508085 12.9763454,-0.113512828 17.2763722,0.138699238 L32.3122572,1.02060807 C36.6090153,1.27262842 38.1691609,4.32386286 35.7893539,7.84696135 L35.168026,8.76678349 C32.7916154,12.284854 27.3785568,14.8762225 23.076907,14.5547137 L27.4397608,14.8807969 Z" id="Path-3" fill="#FFC9C9"/><path d="M22.0900265,11.3926692 C19.2420546,11.2140791 15.9074678,13.0981466 14.6410284,15.6028096 L12.0121658,20.8019645 C10.7461695,23.3057509 10.8798255,27.3022643 12.3028814,29.7151788 L16.1507115,36.2395079 C17.5772655,38.6583538 21.0414563,40.7639292 23.8904252,40.9425818 L29.8042868,41.3134272 C32.6522586,41.4920173 35.9868455,39.6079498 37.2532849,37.1032868 L39.8821475,31.9041319 C41.1481438,29.4003455 41.0144878,25.403832 39.5914319,22.9909176 L35.7436018,16.4665884 C34.3170477,14.0477426 30.8528569,11.9421672 28.0038881,11.7635146 L22.0900265,11.3926692 Z" id="Polygon-1" fill="#FF5252"/><g id="Group-2" transform="translate(18.000000, 17.000000)"><path d="M23.6741412,1.18250121 C21.0611999,0.0397379647 17.273233,0.70466118 15.2048601,2.67586398 L3.29348265,14.0276566 C1.2289691,15.9951813 -0.0448054358,19.8578053 0.449510246,22.6612089 L3.81142027,41.7275481 C4.30525123,44.5282026 6.81890311,47.7228381 9.43672895,48.8677376 L24.5123042,55.4610023 C27.1252454,56.6037656 30.9132123,55.9388424 32.9815852,53.9676396 L44.8929627,42.615847 C46.9574762,40.6483222 48.2312508,36.7856982 47.7369351,33.9822947 L44.3750251,14.9159555 C43.8811941,12.1153009 41.3675422,8.92066546 38.7497164,7.77576595 L23.6741412,1.18250121 Z" id="Polygon-1" fill="#E73838"/><path d="M28.6537321,18.882986 C24.7398942,17.1139766 20.712249,12.3086237 19.6524606,8.12913059 L19.1020148,5.95833423 C18.0445877,1.78815332 20.3892097,-0.207829088 24.3448991,1.50278805 L37.8233812,7.33148705 C41.7763733,9.04093776 42.1787693,12.4992369 38.7252663,15.0535155 L37.9469766,15.6291538 C34.4920819,18.1844616 28.5157432,18.8206166 24.6047059,17.052873 L28.6537321,18.882986 Z" id="Path-3" fill="#FF5252"/><path d="M25.7217043,12.8652676 C23.1161979,11.725756 19.337855,12.3898872 17.2765216,14.3543812 L13.1024405,18.3323681 C11.0438013,20.2942944 9.77563706,24.1571907 10.2684706,26.9521883 L11.5706234,34.3370642 C12.0641043,37.1357331 14.5729199,40.3267679 17.1818362,41.4677708 L22.4647411,43.7782359 C25.0702475,44.9177476 28.8485904,44.2536163 30.9099237,42.2891224 L35.0840049,38.3111355 C37.1426441,36.3492091 38.4108083,32.4863128 37.9179748,29.6913153 L36.6158219,22.3064394 C36.1223411,19.5077705 33.6135254,16.3167357 31.0046092,15.1757327 L25.7217043,12.8652676 Z" id="Polygon-1" fill="#FF5252"/></g></g><g id="Group-4" transform="translate(0.000000, 25.000000)"><path d="M33.1244616,0.153839712 C35.7645428,-0.0126565205 38.8495266,1.72258047 40.0282029,4.05580339 L46.8624788,17.5844452 C48.0352286,19.9059365 47.9210161,23.5935309 46.5946215,25.8425478 L37.5125918,41.2419154 C36.1919085,43.4812483 32.9944161,45.4307167 30.3409933,45.5980543 L14.9557476,46.568322 C12.3156664,46.7348182 9.23068265,44.9995812 8.05200638,42.6663583 L1.21773047,29.1377165 C0.0449806791,26.8162252 0.159193154,23.1286308 1.48558775,20.8796139 L10.5676174,5.48024626 C11.8883007,3.24091342 15.0857931,1.29144499 17.739216,1.12410737 L33.1244616,0.153839712 Z" id="Polygon-1" fill="#E73838"/><path d="M23.0917114,13.8202661 C27.0734642,13.5212287 32.118741,10.6626488 34.3695531,7.42263684 L35.6014635,5.64931941 C37.8482907,2.41504376 36.4334296,-0.0158848102 32.4410498,0.219702229 L18.6863646,1.03135486 C14.6940891,1.26693574 13.2403433,4.09875088 15.4480711,7.36933661 L15.9709484,8.14394066 C18.1747638,11.4087304 23.1904185,13.812853 27.1709104,13.5139103 L23.0917114,13.8202661 Z" id="Path-3" fill="#FF8E8E"/><path d="M27.5808623,9.56128134 C30.2183085,9.39495129 33.3086911,11.1452386 34.477713,13.4593505 L36.8817488,18.2182072 C38.0533281,20.5373814 37.9328981,24.2320308 36.6088263,26.4771093 L33.0810588,32.4587445 C31.7587485,34.700836 28.5429746,36.6536105 25.9112855,36.8195775 L20.499347,37.1608804 C17.8619008,37.3272104 14.7715182,35.5769231 13.6024962,33.2628112 L11.1984604,28.5039546 C10.0268812,26.1847803 10.1473111,22.4901309 11.471383,20.2450524 L14.9991505,14.2634172 C16.3214607,12.0213257 19.5372346,10.0685512 22.1689237,9.90258424 L27.5808623,9.56128134 Z" id="Polygon-1" fill="#E73838"/></g><path d="M70.4734818,53.6482925 C73.6385703,55.0487583 76.8956938,58.852996 77.7527359,62.1617613 L78.1978769,63.8803084 C79.0530094,67.1817017 77.156933,68.7618544 73.9579996,67.4076158 L63.0580622,62.7932291 C59.8613101,61.439914 59.5358957,58.7020938 62.3287152,56.6799566 L62.9581116,56.2242429 C65.7520565,54.2012909 70.5850723,53.6976683 73.7478959,55.0971319 L70.4734818,53.6482925 Z" id="Path-3" fill="#D33131"/></g><g id="chest" transform="translate(0.000000, 43.000000)"><polygon id="Rectangle-59" fill="#A86425" points="11 0 97 0 97 35 11 35"/><path d="M0,32.0006595 C0,28.6865868 2.68504822,26 6.00134484,26 L100.998655,26 C104.313106,26 107,28.6765363 107,32.0006595 L107,39.9993405 C107,43.3134132 104.314952,46 100.998655,46 L6.00134484,46 C2.68689361,46 0,43.3234637 0,39.9993405 L0,32.0006595 Z" id="Rectangle-56-Copy" fill="#FFBC00"/><g id="Rectangle-68" transform="translate(86.000000, 0.000000)"><mask id="mask-4" fill="white"><use xlink:href="#path-3"/></mask><use id="Mask" fill="#FFD300" xlink:href="#path-3"/></g><g id="Rectangle-68"><mask id="mask-6" fill="white"><use xlink:href="#path-5"/></mask><use id="Mask" fill="#FFD300" xlink:href="#path-5"/></g><circle id="Oval-26" fill="#FFE900" cx="10.5" cy="36.5" r="3.5"/><circle id="Oval-26" fill="#FFE900" cx="53.875" cy="36.5" r="3.5"/><circle id="Oval-26" fill="#FFE900" cx="97.5" cy="36.5" r="3.5"/><circle id="Oval-26" fill="#FFE900" cx="10.5" cy="9.5" r="3.5"/><circle id="Oval-26" fill="#FFE900" cx="97.5" cy="9.5" r="3.5"/><rect id="Rectangle-5" fill="#9C5A1D" x="29" y="10" width="51" height="6" rx="3"/></g></g></g></g></g></svg>