<?xml version="1.0" encoding="utf-8"?><svg version="1.1" id="Layer_1" xmlns="http://www.w3.org/2000/svg" xmlns:xlink="http://www.w3.org/1999/xlink" x="0px" y="0px" width="38px" height="36px" viewBox="0 0 38 36" style="enable-background:new 0 0 38 36;" xml:space="preserve"><style type="text/css">.st0{fill:#E2AC1E;} .st1{fill:#FEC634;} .st2{fill:#4C4C4C;} .st3{fill:#FF6262;}</style><ellipse id="Oval" class="st0" cx="3.3" cy="18" rx="3.3" ry="3.3"/><ellipse id="Oval_1_" class="st0" cx="34.3" cy="18" rx="3.3" ry="3.3"/><path id="Shape" class="st1" d="M18.7,35.3L18.7,35.3C10,35.3,3,28.2,3,19.6v-3.8C3,7.1,10,0.1,18.7,0l0,0	c8.7,0.1,15.7,7.1,15.7,15.8v3.8C34.4,28.3,27.3,35.3,18.7,35.3z"/><circle id="Oval_2_" class="st2" cx="11" cy="15" r="3"/><ellipse id="Oval_3_" class="st2" cx="27" cy="15" rx="3" ry="3"/><g id="Group-9" transform="translate(8.854853, 20.641026)"><path id="Shape_1_" class="st2" d="M19.4,0c0,5.3-4.3,9.7-9.7,9.7S0,5.3,0,0"/><path id="Combined-Shape" class="st3" d="M15.4,7.8C13.8,9,11.8,9.7,9.7,9.7c-2.1,0-4-0.6-5.6-1.8c1.4-1.7,3.5-2.7,5.7-2.7 C12,5.2,14,6.1,15.4,7.8z"/></g></svg>