<?xml version="1.0" encoding="UTF-8"?><svg width="141px" height="125px" viewBox="0 0 141 125" version="1.1" xmlns="http://www.w3.org/2000/svg" xmlns:xlink="http://www.w3.org/1999/xlink"><title>Group 28</title><desc>Created with Sketch.</desc><defs/><g id="Page-1" stroke="none" stroke-width="1" fill="none" fill-rule="evenodd"><g id="Group-28"><path d="M113.3889,13.9031 C113.3889,21.35841 107.3452,27.40216 99.8898,27.40216 C92.4345,27.40216 86.3907,21.35841 86.3907,13.9031 C86.3907,6.4477 92.4345,0.404 99.8898,0.404 C107.3452,0.404 113.3889,6.4477 113.3889,13.9031 Z" id="Fill-1" fill="#282828" fill-rule="nonzero"/><polygon id="path-1" points="135 119.996016 135 0.404 5.6961 0.404 5.6961 119.996016"/><path d="M64.5922,119.996016 C64.5922,100.49731 80.3911,84.69836 99.8898,84.69836 L99.8898,84.69836 C119.3885,84.69836 135.1875,100.49731 135.1875,119.996016" id="Fill-3" fill="#FF7F00" fill-rule="nonzero"/><path d="M5.6961,119.996016 L5.6961,111.296597 C5.6961,91.79789 21.49505,75.99894 40.99376,75.99894 L40.99376,75.99894 C60.4925,75.99894 76.2914,91.79789 76.2914,111.296597 L76.2914,119.996016" id="Fill-4" fill="#64CCF4" fill-rule="nonzero"/><path d="M61.1924,119.996016 L20.59511,119.996016 L20.59511,83.29846 C20.59511,72.0992 29.69451,62.9998 40.89376,62.9998 L40.89376,62.9998 C52.093,62.9998 61.1924,72.0992 61.1924,83.29846 L61.1924,119.996016 Z" id="Fill-5" fill="#53C6EA" fill-rule="nonzero"/><polygon id="Fill-6" fill="#FFFFFF" fill-rule="nonzero" points="31.29441 77.39885 50.7931 77.39885 50.7931 119.996016 31.29441 119.996016"/><path d="M41.09375,48.20078 L34.3942,48.20078 C21.49505,48.20078 10.99575,37.80147 10.99575,24.90233 L10.99575,24.90233 C10.99575,12.0032 21.49505,1.6039 34.3942,1.6039 L41.09375,1.6039 C41.99369,1.6039 42.69364,2.3038 42.69364,3.2038 L42.69364,46.60089 C42.69364,47.50083 41.99369,48.20078 41.09375,48.20078 Z" id="Fill-7" fill="#FFAA00" fill-rule="nonzero"/><path d="M45.19348,22.3025 L34.19421,22.3025 C28.49459,22.3025 23.7949,17.6028 23.7949,11.9032 L23.7949,11.9032 C23.7949,6.2036 28.49458,1.5039 34.19421,1.5039 L45.19348,1.5039 C50.8931,1.5039 55.5928,6.2036 55.5928,11.9032 L55.5928,11.9032 C55.5928,17.7028 50.8931,22.3025 45.19348,22.3025 Z" id="Fill-8" fill="#FFAA00" fill-rule="nonzero"/><path d="M58.1926,42.60115 L58.1926,42.60115 C52.093,42.60115 47.1933,37.70148 47.1933,31.60188 L47.1933,24.60235 C47.1933,18.5028 52.093,13.6031 58.1926,13.6031 L58.1926,13.6031 C64.2922,13.6031 69.1919,18.5028 69.1919,24.60235 L69.1919,31.60188 C69.1919,37.60149 64.2922,42.60115 58.1926,42.60115 Z" id="Fill-9" fill="#FFAA00" fill-rule="nonzero"/><path d="M72.3917,45.30098 C72.3917,48.66969 69.6608,51.40057 66.2921,51.40057 C62.9234,51.40057 60.1925,48.66969 60.1925,45.30098 C60.1925,41.93226 62.9234,39.20138 66.2921,39.20138 C69.6608,39.20138 72.3917,41.93226 72.3917,45.30098 Z" id="Fill-10" fill="#FF9D8A" fill-rule="nonzero"/><path d="M21.79503,45.30098 C21.79503,48.66969 19.06415,51.40057 15.69544,51.40057 C12.32672,51.40057 9.59584,48.66969 9.59584,45.30098 C9.59584,41.93226 12.32672,39.20138 15.69544,39.20138 C19.06415,39.20138 21.79503,41.93226 21.79503,45.30098 Z" id="Fill-11" fill="#FF9D8A" fill-rule="nonzero"/><path d="M41.09375,89.39805 L41.09375,89.39805 C35.69411,89.39805 31.3944,84.99834 31.3944,79.6987 L31.3944,67.99947 C31.3944,62.59983 35.79411,58.30011 41.09375,58.30011 L41.09375,58.30011 C46.49339,58.30011 50.7931,62.69982 50.7931,67.99947 L50.7931,79.69869 C50.7931,85.09833 46.3934,89.39805 41.09375,89.39805 Z" id="Fill-12" fill="#FF9D8A" fill-rule="nonzero"/><path d="M40.99376,76.19892 L40.99376,76.19892 C26.99469,76.19892 15.69544,64.89967 15.69544,50.9006 L15.69544,35.30164 C15.69544,21.30257 27.09468,10.0033 40.99376,10.0033 L40.99376,10.0033 C54.9928,10.0033 66.2921,21.30257 66.2921,35.30164 L66.2921,51.0006 C66.2921,64.89968 54.9928,76.19892 40.99376,76.19892 Z" id="Fill-13" fill="#FFB5A1" fill-rule="nonzero"/><path d="M57.1927,39.20138 C57.1927,40.96858 55.7601,42.40117 53.9929,42.40117 C52.2257,42.40117 50.7931,40.96858 50.7931,39.20138 C50.7931,37.43419 52.2257,36.00159 53.9929,36.00159 C55.7601,36.00159 57.1927,37.43419 57.1927,39.20138 Z" id="Fill-14" fill="#EA9486" fill-rule="nonzero"/><path d="M31.19441,39.20138 C31.19441,40.96858 29.76182,42.40117 27.99462,42.40117 C26.22743,42.40117 24.79484,40.96858 24.79484,39.20138 C24.79484,37.43419 26.22743,36.00159 27.99462,36.00159 C29.76182,36.00159 31.19441,37.43419 31.19441,39.20138 Z" id="Fill-15" fill="#EA9486" fill-rule="nonzero"/><path d="M43.69358,47.50083 L38.29393,47.50083 C37.49398,47.50083 36.79403,46.80088 36.79403,46.00093 L36.79403,37.50149 C36.79403,36.70155 37.49398,36.00159 38.29393,36.00159 L43.69358,36.00159 C44.49353,36.00159 45.19348,36.70155 45.19348,37.50149 L45.19348,46.00093 C45.19348,46.80088 44.59352,47.50083 43.69358,47.50083 Z" id="Fill-16" fill="#FF9D8A" fill-rule="nonzero"/><path d="M54.0929,51.30058 C54.0929,58.5001 48.1933,64.39971 40.99376,64.39971 C33.79424,64.39971 27.89463,58.5001 27.89463,51.30058" id="Fill-17" fill="#B2473B" fill-rule="nonzero"/><path d="M28.59458,55.5003 L53.3929,55.5003 C53.7929,54.20039 54.0929,52.80048 54.0929,51.30058 L27.89463,51.30058 C27.89463,52.80048 28.19461,54.20039 28.59458,55.5003 Z" id="Fill-18" fill="#FFFFFF" fill-rule="nonzero"/><path d="M48.5933,61.99987 C46.79337,59.80001 44.09355,58.30011 40.99376,58.30011 L40.99376,58.30011 C37.89397,58.30011 35.19414,59.70002 33.39426,61.99987 C35.49412,63.49977 38.19395,64.39971 40.99376,64.39971 C43.79358,64.39971 46.49339,63.49977 48.5933,61.99987 Z" id="Fill-19" fill="#CC4F46" fill-rule="nonzero"/><path d="M99.9898,107.59684 L99.9898,107.59684 C109.8892,107.59684 117.9886,99.79735 118.5886,90.098 C113.189,86.69822 106.7894,84.69836 99.8899,84.69836 L99.8899,84.69836 C93.0903,84.69836 86.6907,86.59823 81.2911,89.99801 C81.891,99.79736 89.9905,107.59684 99.9898,107.59684 Z" id="Fill-20" fill="#BF7358" fill-rule="nonzero"/><path d="M99.8898,73.89908 L99.8898,73.89908 C85.8908,73.89908 74.5915,62.59983 74.5915,48.60076 L74.5915,35.80161 C74.5915,21.80254 85.8908,10.5033 99.8898,10.5033 L99.8898,10.5033 C113.8889,10.5033 125.1882,21.80254 125.1882,35.80161 L125.1882,48.60076 C125.1882,62.49983 113.8889,73.89908 99.8898,73.89908 Z" id="Fill-21" fill="#333333" fill-rule="nonzero"/><path d="M131.2878,54.0004 C131.2878,57.36911 128.5569,60.09999 125.1882,60.09999 C121.8194,60.09999 119.0886,57.36911 119.0886,54.0004 C119.0886,50.63169 121.8194,47.9008 125.1882,47.9008 C128.5569,47.9008 131.2878,50.63169 131.2878,54.0004 Z" id="Fill-22" fill="#B25C4B" fill-rule="nonzero"/><path d="M80.6911,54.0004 C80.6911,57.36911 77.9602,60.09999 74.5915,60.09999 C71.2228,60.09999 68.4919,57.36911 68.4919,54.0004 C68.4919,50.63169 71.2228,47.9008 74.5915,47.9008 C77.9602,47.9008 80.6911,50.63169 80.6911,54.0004 Z" id="Fill-23" fill="#B25C4B" fill-rule="nonzero"/><path d="M99.9898,98.09747 L99.9898,98.09747 C94.5902,98.09747 90.2905,93.69776 90.2905,88.39812 L90.2905,76.69889 C90.2905,71.29925 94.6902,66.99954 99.9898,66.99954 L99.9898,66.99954 C105.3895,66.99954 109.6892,71.39924 109.6892,76.69889 L109.6892,88.39811 C109.6892,93.69776 105.3895,98.09747 99.9898,98.09747 Z" id="Fill-24" fill="#B25C4B" fill-rule="nonzero"/><path d="M99.8898,84.89835 L99.8898,84.89835 C85.8908,84.89835 74.5915,73.5991 74.5915,59.60003 L74.5915,43.90107 C74.5915,29.902 85.8908,18.6028 99.8898,18.6028 L99.8898,18.6028 C113.8889,18.6028 125.1882,29.902 125.1882,43.90107 L125.1882,59.60003 C125.1882,73.5991 113.8889,84.89835 99.8898,84.89835 Z" id="Fill-25" fill="#BF7358" fill-rule="nonzero"/><path d="M116.0888,47.80081 C116.0888,49.568 114.6562,51.0006 112.889,51.0006 C111.1218,51.0006 109.6892,49.568 109.6892,47.80081 C109.6892,46.03361 111.1218,44.60102 112.889,44.60102 C114.6562,44.60102 116.0888,46.03361 116.0888,47.80081 Z" id="Fill-26" fill="#A85F48" fill-rule="nonzero"/><path d="M90.0905,47.80081 C90.0905,49.568 88.6579,51.0006 86.8907,51.0006 C85.1235,51.0006 83.6909,49.568 83.6909,47.80081 C83.6909,46.03361 85.1235,44.60102 86.8907,44.60102 C88.6579,44.60102 90.0905,46.03361 90.0905,47.80081 Z" id="Fill-27" fill="#A85F48" fill-rule="nonzero"/><path d="M102.6897,56.10026 L97.29,56.10026 C96.4901,56.10026 95.7901,55.4003 95.7901,54.60036 L95.7901,46.10092 C95.7901,45.30098 96.4901,44.60102 97.29,44.60102 L102.6897,44.60102 C103.4896,44.60102 104.1896,45.30098 104.1896,46.10092 L104.1896,54.60036 C104.1896,55.5003 103.4896,56.10026 102.6897,56.10026 Z" id="Fill-28" fill="#B25C4B" fill-rule="nonzero"/><path d="M112.989,60 C112.989,67.19952 107.0894,73.09913 99.8898,73.09913 C92.6903,73.09913 86.7907,67.19952 86.7907,60" id="Fill-29" fill="#933634" fill-rule="nonzero"/><path d="M87.4907,64.19972 L112.289,64.19972 C112.689,62.89981 112.989,61.4999 112.989,60 L86.7907,60 C86.7907,61.4999 87.0907,62.89981 87.4907,64.19972 Z" id="Fill-30" fill="#FFFFFF" fill-rule="nonzero"/><path d="M107.5893,70.59929 C105.7895,68.39944 103.0896,66.89954 99.9898,66.89954 L99.9898,66.89954 C96.89,66.89954 94.1902,68.29945 92.3903,70.59929 C94.4902,72.0992 97.19,72.99914 99.9898,72.99914 C102.7897,73.09913 105.3895,72.19919 107.5893,70.59929 Z" id="Fill-31" fill="#AF3F3F" fill-rule="nonzero"/><path d="M80.1912,53.40044 C80.1912,54.00791 79.6987,54.50037 79.0912,54.50037 C78.4838,54.50037 77.9913,54.00791 77.9913,53.40044 C77.9913,52.79297 78.4838,52.30051 79.0912,52.30051 C79.6987,52.30051 80.1912,52.79297 80.1912,53.40044 Z" id="Fill-32" fill="#A85F48" fill-rule="nonzero"/><path d="M82.891,56.10026 C82.891,56.70773 82.3985,57.20019 81.791,57.20019 C81.1836,57.20019 80.6911,56.70773 80.6911,56.10026 C80.6911,55.49279 81.1836,55.00033 81.791,55.00033 C82.3985,55.00033 82.891,55.49279 82.891,56.10026 Z" id="Fill-33" fill="#A85F48" fill-rule="nonzero"/><path d="M121.8884,53.40044 C121.8884,54.00791 121.3959,54.50037 120.7885,54.50037 C120.181,54.50037 119.6885,54.00791 119.6885,53.40044 C119.6885,52.79297 120.181,52.30051 120.7885,52.30051 C121.3959,52.30051 121.8884,52.79297 121.8884,53.40044 Z" id="Fill-34" fill="#A85F48" fill-rule="nonzero"/><path d="M119.1886,56.10026 C119.1886,56.70773 118.6961,57.20019 118.0886,57.20019 C117.4812,57.20019 116.9887,56.70773 116.9887,56.10026 C116.9887,55.49279 117.4812,55.00033 118.0886,55.00033 C118.6961,55.00033 119.1886,55.49279 119.1886,56.10026 Z" id="Fill-35" fill="#A85F48" fill-rule="nonzero"/><polygon id="Fill-36" fill="#000000" fill-rule="nonzero" points="13.39559 35.20165 28.89456 35.20165 28.89456 39.10139 13.39559 39.10139"/><polygon id="Fill-37" fill="#000000" fill-rule="nonzero" points="33.39426 32.10185 48.8932 32.10185 48.8932 36.00159 33.39426 36.00159"/><polygon id="Fill-38" fill="#000000" fill-rule="nonzero" points="53.3929 35.20165 68.8919 35.20165 68.8919 39.10139 53.3929 39.10139"/><path d="M29.09455,48.90074 L26.7947,48.90074 C22.59498,48.90074 19.09521,45.50096 19.09521,41.20125 L19.09521,34.00173 C19.09521,32.9018 19.99515,32.00186 21.09508,32.00186 L34.89416,32.00186 C35.99409,32.00186 36.89403,32.9018 36.89403,34.00173 L36.89403,41.20125 C36.79404,45.50096 33.39426,48.90074 29.09455,48.90074 Z" id="Fill-39" fill="#231F20" fill-rule="nonzero"/><path d="M55.1928,48.90074 L52.893,48.90074 C48.6932,48.90074 45.19348,45.50096 45.19348,41.20125 L45.19348,34.00173 C45.19348,32.9018 46.09342,32.00186 47.1933,32.00186 L60.9924,32.00186 C62.0924,32.00186 62.9923,32.9018 62.9923,34.00173 L62.9923,41.20125 C62.8923,45.50096 59.4925,48.90074 55.1928,48.90074 Z" id="Fill-40" fill="#231F20" fill-rule="nonzero"/><path d="M61.8924,32.30184 C61.5924,32.20185 61.2924,32.10185 60.9924,32.10185 L55.2928,32.10185 L50.0932,37.30151 C49.1932,38.20145 49.1932,39.80134 50.0932,40.70128 C50.9931,41.60122 52.593,41.60122 53.4929,40.70128 L61.8924,32.30184 Z" id="Fill-41" fill="#2D292B" fill-rule="nonzero"/><path d="M29.49452,44.70102 L36.79404,37.4015 L36.79404,34.00173 C36.79404,33.10178 36.09409,32.30184 35.19415,32.10185 L26.09475,41.20125 C25.19481,42.10119 25.19481,43.70108 26.09475,44.60102 C26.9947,45.50096 28.59458,45.60095 29.49452,44.70102 Z" id="Fill-42" fill="#2D292B" fill-rule="nonzero"/><path d="M22.295,32.10185 L19.09522,35.30164 L19.09522,41.30124 L19.09522,41.40123 C19.59519,41.30124 20.09515,41.10125 20.49513,40.70128 L29.09455,32.10185 L22.295,32.10185 Z" id="Fill-43" fill="#2D292B" fill-rule="nonzero"/><path d="M34.79417,34.10172 L34.79417,41.30124 C34.79417,44.40103 32.19435,47.00086 29.09455,47.00086 L26.7947,47.00086 C23.69491,47.00086 21.09509,44.40104 21.09509,41.30124 L21.09509,34.10172 L34.79417,34.10172 L34.79417,34.10172 Z M34.79417,32.10185 L20.99509,32.10185 C19.89516,32.10185 18.99522,33.00179 18.99522,34.10172 L18.99522,41.30124 C18.99522,45.50096 22.39499,49.00073 26.6947,49.00073 L28.99455,49.00073 C33.19427,49.00073 36.69404,45.60095 36.69404,41.30124 L36.69404,34.00173 C36.79404,33.00179 35.8941,32.10185 34.79417,32.10185 L34.79417,32.10185 Z" id="Fill-44" fill="#000000" fill-rule="nonzero"/><path d="M60.8924,34.10172 L60.8924,41.30124 C60.8924,44.40103 58.2926,47.00086 55.1928,47.00086 L52.893,47.00086 C49.7932,47.00086 47.1934,44.40104 47.1934,41.30124 L47.1934,34.10172 L60.8924,34.10172 L60.8924,34.10172 Z M60.9924,32.10185 L47.1933,32.10185 C46.09342,32.10185 45.19348,33.00179 45.19348,34.10172 L45.19348,41.30124 C45.19348,45.50096 48.5933,49.00073 52.893,49.00073 L55.1928,49.00073 C59.3925,49.00073 62.8923,45.60095 62.8923,41.30124 L62.8923,34.00173 C62.8923,33.00179 62.0924,32.10185 60.9924,32.10185 L60.9924,32.10185 Z" id="Fill-45" fill="#000000" fill-rule="nonzero"/><path d="M111,114.994783 C111,112.23624 113.244195,110 116,110 C118.761424,110 121,112.245652 121,114.994783 L121,120.005217 C121,122.76376 118.755805,125 116,125 C113.238576,125 111,122.754348 111,120.005217 L111,114.994783 Z M121,114.994783 C121,112.23624 123.244195,110 126,110 C128.761424,110 131,112.245652 131,114.994783 L131,120.005217 C131,122.76376 128.755805,125 126,125 C123.238576,125 121,122.754348 121,120.005217 L121,114.994783 Z M131,114.994783 C131,112.23624 133.244195,110 136,110 C138.761424,110 141,112.245652 141,114.994783 L141,120.005217 C141,122.76376 138.755805,125 136,125 C133.238576,125 131,122.754348 131,120.005217 L131,114.994783 Z" id="Combined-Shape" fill="#CACACA" fill-rule="nonzero" opacity="0.311217351"/><path d="M131,112.994783 C131,110.23624 133.244195,108 136,108 C138.761424,108 141,110.245652 141,112.994783 L141,118.005217 C141,120.76376 138.755805,123 136,123 C133.238576,123 131,120.754348 131,118.005217 L131,112.994783 Z M111,112.994783 C111,110.23624 113.244195,108 116,108 C118.761424,108 121,110.245652 121,112.994783 L121,118.005217 C121,120.76376 118.755805,123 116,123 C113.238576,123 111,120.754348 111,118.005217 L111,112.994783 Z M121,112.994783 C121,110.23624 123.244195,108 126,108 C128.761424,108 131,110.245652 131,112.994783 L131,118.005217 C131,120.76376 128.755805,123 126,123 C123.238576,123 121,120.754348 121,118.005217 L121,112.994783 Z" id="Combined-Shape" fill="#BF7358" fill-rule="nonzero"/><path d="M0,114.994783 C0,112.23624 2.24419519,110 5,110 C7.76142375,110 10,112.245652 10,114.994783 L10,120.005217 C10,122.76376 7.75580481,125 5,125 C2.23857625,125 0,122.754348 0,120.005217 L0,114.994783 Z M10,114.994783 C10,112.23624 12.2441952,110 15,110 C17.7614237,110 20,112.245652 20,114.994783 L20,120.005217 C20,122.76376 17.7558048,125 15,125 C12.2385763,125 10,122.754348 10,120.005217 L10,114.994783 Z M20,114.994783 C20,112.23624 22.2441952,110 25,110 C27.7614237,110 30,112.245652 30,114.994783 L30,120.005217 C30,122.76376 27.7558048,125 25,125 C22.2385763,125 20,122.754348 20,120.005217 L20,114.994783 Z" id="Combined-Shape" fill="#CACACA" fill-rule="nonzero" opacity="0.311217351"/><path d="M0,112.994783 C0,110.23624 2.24419519,108 5,108 C7.76142375,108 10,110.245652 10,112.994783 L10,118.005217 C10,120.76376 7.75580481,123 5,123 C2.23857625,123 0,120.754348 0,118.005217 L0,112.994783 Z M10,112.994783 C10,110.23624 12.2441952,108 15,108 C17.7614237,108 20,110.245652 20,112.994783 L20,118.005217 C20,120.76376 17.7558048,123 15,123 C12.2385763,123 10,120.754348 10,118.005217 L10,112.994783 Z M20,112.994783 C20,110.23624 22.2441952,108 25,108 C27.7614237,108 30,110.245652 30,112.994783 L30,118.005217 C30,120.76376 27.7558048,123 25,123 C22.2385763,123 20,120.754348 20,118.005217 L20,112.994783 Z" id="Combined-Shape" fill="#FFB5A1" fill-rule="nonzero"/></g></g></svg>