<?xml version="1.0" encoding="utf-8"?><svg version="1.1" id="Layer_1" xmlns="http://www.w3.org/2000/svg" xmlns:xlink="http://www.w3.org/1999/xlink" x="0px" y="0px" width="39px" height="36px" viewBox="0 0 39 36" style="enable-background:new 0 0 39 36;" xml:space="preserve"><style type="text/css">.st0{fill:#E2AC1F;} .st1{fill:#FEC634;} .st2{fill:#4C4C4C;} .st3{fill:#FF6262;}</style><ellipse id="Oval-Copy-67" class="st0" cx="3.8" cy="17.6" rx="3.3" ry="3.3"/><ellipse id="Oval-Copy-68" class="st0" cx="35.3" cy="17.6" rx="3.3" ry="3.3"/><path id="Shape-Copy-131" class="st1" d="M19.4,35.3L19.4,35.3c-8.7,0-15.7-7-15.7-15.7v-3.8c0-8.7,7-15.7,15.7-15.8l0,0	c8.7,0.1,15.7,7.1,15.7,15.8v3.8C35.1,28.3,28.1,35.3,19.4,35.3z"/><ellipse id="Oval-Copy-4" class="st2" cx="11.7" cy="11.8" rx="3" ry="2.9"/><ellipse id="Oval-Copy-5" class="st2" cx="27.6" cy="11.8" rx="3" ry="2.9"/><path id="rect" class="st2" d="M13.2,17.7h6.6c3.7,0,6.6,3,6.6,6.6v5.8H13.2V17.7z"/><path id="Combined-Shape" class="st3" d="M26.4,23.9c0,0.1,0,0.3,0,0.4v5.8H16.2c1.2-4.1,4.9-6.2,9.4-6.2	C25.9,23.9,26.1,23.9,26.4,23.9z"/></svg>