<?xml version="1.0" encoding="UTF-8" standalone="no"?><svg width="40px" height="40px" viewBox="0 0 40 40" version="1.1" xmlns="http://www.w3.org/2000/svg" xmlns:xlink="http://www.w3.org/1999/xlink"><g id="Page-1" style="fill:none;fill-rule:evenodd;stroke:none;stroke-width:1" mask="none" transform="translate(0,-1.1864407)"><g transform="translate(-0.908543,-2.045455)" id="g28"><path d="m 41.596951,7.0915597 c 0,-3.7009042 -2.923762,-6.70157404 -6.530661,-6.70157404 -0.978135,0 -1.90609,0.22118822 -2.738627,0.61675234 -3.41226,1.6228272 -7.180723,2.2965345 -10.941584,2.2965345 H 19.964684 C 16.19394,3.3032725 12.50949,2.3791193 9.0261416,0.89750925 8.2126126,0.55148817 7.3162102,0.36970032 6.3753297,0.39193617 2.802265,0.47736866 1.5206148e-4,3.5915584 1.5206148e-4,7.2593038 V 19.485512 c 0,0.22821 0.0117847685,0.45486 0.0334535285,0.678389 -0.01976799,0.15214 -0.0334535285,0.30623 -0.0334535285,0.463832 v 3.907268 c 0,11.787343 9.31148493852,21.342908 20.79820893852,21.342908 11.486725,0 20.79859,-9.555565 20.79859,-21.342908 v -3.907268 c 0,-0.141998 -0.01064,-0.280874 -0.02699,-0.418971 0.01445,-0.181397 0.02699,-0.362795 0.02699,-0.547704 z" id="Fill-1" style="fill:#78c800;fill-rule:evenodd;stroke:none"/><polygon id="Fill-4" points="30.139726,28.34174 30.139726,12.798879 11.457073,12.798879 11.457073,28.34174" style="fill:#8ee000;fill-rule:evenodd;stroke:none"/><path d="m 22.118179,18.713889 c 0,-5.518783 4.359223,-9.9932605 9.739538,-9.9932605 5.378795,0 9.739158,4.4764285 9.739158,9.9932605 v 3.712997 c 0,5.518783 -4.359223,9.992871 -9.739158,9.992871 -5.379175,0 -9.739538,-4.476429 -9.739538,-9.992871 z" id="Fill-6" style="fill:#8ee000;fill-rule:evenodd;stroke:none"/><path d="m 0,18.713889 c 0,-5.518783 4.3592226,-9.9932605 9.739538,-9.9932605 5.378795,0 9.739158,4.4764285 9.739158,9.9932605 v 3.712997 c 0,5.518783 -4.359223,9.992871 -9.739158,9.992871 C 4.360363,32.419757 0,27.943328 0,22.426886 Z" id="Fill-7" style="fill:#8ee000;fill-rule:evenodd;stroke:none"/><path d="m 3.9261135,18.763393 c 0,-3.294027 2.6021521,-5.96467 5.8133105,-5.96467 3.210778,0 5.813311,2.672203 5.813311,5.96467 v 3.613521 c 0,3.294027 -2.601773,5.96467 -5.813311,5.96467 -3.2107783,0 -5.8133105,-2.671813 -5.8133105,-5.96467 z" id="Fill-8" style="fill:#ffffff;fill-rule:evenodd;stroke:none"/><path d="m 6.1843864,19.164171 c 0,-2.016849 1.5956006,-3.652121 3.5549102,-3.652121 1.9633784,0 3.5553174,1.636524 3.5553174,3.652121 v 2.811731 c 0,2.017267 -1.595601,3.652121 -3.5553174,3.652121 -1.9633779,0 -3.5549102,-1.636524 -3.5549102,-3.652121 z" id="Fill-9" style="fill:#414141;fill-rule:evenodd;stroke:none"/><path d="m 7.4828878,19.561352 c 1.1469237,0 2.0763995,-0.966674 2.0763995,-2.158828 0,-1.192154 -0.9294758,-2.158438 -2.0763995,-2.158438 -1.1465436,0 -2.0760194,0.966284 -2.0760194,2.158438 0,1.192154 0.9294758,2.158828 2.0760194,2.158828" id="Fill-10" style="fill:#ffffff;fill-rule:evenodd;stroke:none"/><path d="m 26.044254,18.763393 c 0,-3.294027 2.602153,-5.96467 5.813311,-5.96467 3.210778,0 5.813311,2.672203 5.813311,5.96467 v 3.613521 c 0,3.294027 -2.601772,5.96467 -5.813311,5.96467 -3.210778,0 -5.813311,-2.671813 -5.813311,-5.96467 z" id="Fill-11" style="fill:#ffffff;fill-rule:evenodd;stroke:none"/><path d="m 28.293436,19.160575 c 0,-2.022006 1.599681,-3.66146 3.564001,-3.66146 1.968399,0 3.564409,1.640709 3.564409,3.66146 v 2.818923 c 0,2.022425 -1.599681,3.66146 -3.564409,3.66146 -1.968399,0 -3.564001,-1.640709 -3.564001,-3.66146 z" id="Fill-12" style="fill:#3c3c3c;fill-rule:evenodd;stroke:none"/><path d="m 29.601029,19.561352 c 1.146924,0 2.076399,-0.966674 2.076399,-2.158828 0,-1.192154 -0.929475,-2.158438 -2.076399,-2.158438 -1.146544,0 -2.07602,0.966284 -2.07602,2.158438 0,1.192154 0.929476,2.158828 2.07602,2.158828" id="Fill-13" style="fill:#ffffff;fill-rule:evenodd;stroke:none"/><path d="m 16.61383,33.783581 v -2.497816 c 0,-2.414241 1.781315,-4.371374 4.134367,-4.371374 2.35267,0 4.260271,1.957133 4.260271,4.371374 v 2.497816 c 0,2.415026 -1.907601,4.372159 -4.260271,4.372159 -2.353052,0 -4.134367,-1.957133 -4.134367,-4.372159 z" id="Fill-14" style="fill:#5e9400;fill-rule:evenodd;stroke:none"/><path d="m 20.804046,26.02164 v 0 0 c 2.263991,0 4.099319,1.835327 4.099319,4.099319 v 1.793671 0 c 0,2.263992 -1.835328,4.099319 -4.099319,4.099319 v 0 0 c -2.263992,0 -4.09932,-1.835327 -4.09932,-4.099319 v -1.793671 0 c 0,-2.263992 1.835328,-4.099319 4.09932,-4.099319 z" id="Rectangle" style="fill:#f48f00;fill-rule:evenodd;stroke:none"/><path d="m 24.420808,7.6790153 c 1.787863,1.8342629 1.787863,4.8084057 0,6.6430587 -1.787863,1.834263 -4.686155,1.834263 -6.473637,0" id="Fill-18" style="fill:#8ee000;fill-rule:evenodd;stroke:none"/><path d="m 17.176181,7.6790153 c -1.787863,1.8342629 -1.787863,4.8084057 0,6.6430587 1.787863,1.834263 4.686155,1.834263 6.473637,0" id="Fill-19" style="fill:#8ee000;fill-rule:evenodd;stroke:none"/><path d="m 20.829767,24.070017 c 3.894453,0 4.944704,3.799159 4.919183,4.76196 -0.02552,0.9628 -3.484522,4.91809 -4.970409,4.91809 -1.485887,0 -4.94472,-3.79916 -4.970441,-4.879058 -0.02572,-1.079898 1.127213,-4.800992 5.021667,-4.800992 z" id="Path-2" style="fill:#ffc201;fill-rule:evenodd;stroke:none"/><path d="m 20.51584,24.980774 h 0.52517 v 0 c 0.689825,0 1.249039,0.559214 1.249039,1.249039 v 0 0 c 0,0.689825 -0.559214,1.249038 -1.249039,1.249038 h -0.52517 v 0 c -0.689825,0 -1.249039,-0.559213 -1.249039,-1.249038 v 0 0 c 0,-0.689825 0.559214,-1.249039 1.249039,-1.249039 z" id="Rectangle-6" style="fill:#ffecb3;fill-rule:evenodd;stroke:none"/></g></g><path style="fill:#ffffff;fill-opacity:1;stroke:none;stroke-width:4;stroke-linecap:round;stroke-miterlimit:4;stroke-dasharray:none;stroke-opacity:1" d="M -9.492188,-3.7628435 V 46.576994 H 46.609375 V -3.7628435 Z M 20,0.13559332 a 20,20 0 0 1 20,19.99999468 20,20 0 0 1 -20,20 20,20 0 0 1 -20,-20 20,20 0 0 1 20,-19.99999468 z" id="rect37"/></svg>