<?xml version="1.0" encoding="UTF-8"?><svg width="105px" height="105px" viewBox="0 0 105 105" version="1.1" xmlns="http://www.w3.org/2000/svg" xmlns:xlink="http://www.w3.org/1999/xlink"><title>Group 2</title><desc>Created with Sketch.</desc><defs/><g id="Page-1" stroke="none" stroke-width="1" fill="none" fill-rule="evenodd"><g id="empty-schools-disabled" transform="translate(-128.000000, -197.000000)" fill="#AFAFAF"><g id="Group-2" transform="translate(128.000000, 197.000000)"><path d="M0.611538462,52.5 L0.611538462,8.61153846 C0.611538462,4.19326046 4.19326046,0.611538462 8.61153846,0.611538462 L96.3884615,0.611538462 C100.80674,0.611538462 104.388462,4.19326046 104.388462,8.61153846 L104.388462,52.5 C104.388462,81.1562745 81.156105,104.388462 52.5,104.388462 C23.8437255,104.388462 0.611538462,81.156105 0.611538462,52.5 Z M4.61153846,52.5 C4.61153846,78.9469725 26.052871,100.388462 52.5,100.388462 C78.9469725,100.388462 100.388462,78.947129 100.388462,52.5 L100.388462,8.61153846 C100.388462,6.40239946 98.5976005,4.61153846 96.3884615,4.61153846 L8.61153846,4.61153846 C6.40239946,4.61153846 4.61153846,6.40239946 4.61153846,8.61153846 L4.61153846,52.5 Z" id="Mask" fill-rule="nonzero"/><rect id="Rectangle-2" x="49.5" y="41" width="5" height="19" rx="2.5"/><rect id="Rectangle-2-Copy" x="49.5" y="63" width="5" height="5" rx="2.5"/><path d="M35.0171571,64.0036103 L28,64.0036103 C25.790861,64.0036103 24,62.2127493 24,60.0036103 C24,59.1859308 24.2505926,58.3878924 24.718023,57.7169911 L48.4086528,23.7139076 C49.6715177,21.9013218 52.1646631,21.4556849 53.9772489,22.7185498 C54.365265,22.9888884 54.7022682,23.3258915 54.9726068,23.7139076 L78.6632366,57.7169911 C79.9261014,59.529577 79.4804645,62.0227224 77.6678787,63.2855872 C76.9969774,63.7530176 76.198939,64.0036103 75.3812596,64.0036103 L68.0132713,64.0036103 C66.9087018,64.0036103 66.0132713,64.8990408 66.0132713,66.0036103 C66.0132713,67.1081798 66.9087018,68.0036103 68.0132713,68.0036103 L75.3812596,68.0036103 C77.0166185,68.0036103 78.6126953,67.502425 79.9544979,66.5675642 C83.5796695,64.0418345 84.4709433,59.0555437 81.9452135,55.430372 L58.2545837,21.4272885 C57.7139066,20.6512563 57.0399002,19.97725 56.2638681,19.4365728 C52.6386964,16.910843 47.6524056,17.8021168 45.1266758,21.4272885 L21.436046,55.430372 C20.5011853,56.7721746 20,58.3682514 20,60.0036103 C20,64.4218883 23.581722,68.0036103 28,68.0036103 L33.9919412,68.0036103 L35.0171571,68.0036103 C36.1217266,68.0036103 37.0171571,67.1081798 37.0171571,66.0036103 C37.0171571,64.8990408 36.1217266,64.0036103 35.0171571,64.0036103 Z" id="Triangle" fill-rule="nonzero"/></g></g></g></svg>