<?xml version="1.0" encoding="UTF-8" standalone="no"?><svg width="19px" height="18px" viewBox="0 0 19 18" version="1.1" xmlns="http://www.w3.org/2000/svg" xmlns:xlink="http://www.w3.org/1999/xlink"><title>Combined Shape</title><desc>Created with Sketch.</desc><defs/><g id="Page-1" stroke="none" stroke-width="1" fill="none" fill-rule="evenodd"><path d="M1.52608104,10.6530464 C0.673128933,10.5924535 0,9.8820116 0,9.01451496 C0,8.15817675 0.655923653,7.45487891 1.49325728,7.37864323 C1.76505476,3.27113431 5.16762348,0.0322285812 9.34555566,0 C13.5158226,0.0321694518 16.9135686,3.27469475 17.1963264,7.3727265 C18.0786319,7.4021731 18.7848416,8.12595745 18.7848416,9.01451496 C18.7848416,9.91303531 18.0627065,10.6430668 17.1665825,10.6570313 C16.7281219,14.5962948 13.3879662,17.6508597 9.34555566,17.6508597 C5.29287774,17.6352285 1.96976943,14.5731576 1.52608104,10.6530464 Z M5.5,9 C6.32842712,9 7,8.32842712 7,7.5 C7,6.67157288 6.32842712,6 5.5,6 C4.67157288,6 4,6.67157288 4,7.5 C4,8.32842712 4.67157288,9 5.5,9 Z M13.5,9 C14.3284271,9 15,8.32842712 15,7.5 C15,6.67157288 14.3284271,6 13.5,6 C12.6715729,6 12,6.67157288 12,7.5 C12,8.32842712 12.6715729,9 13.5,9 Z M14.1093964,10.3205128 L4.42742634,10.3205128 C4.42742634,12.9857423 6.60880607,15.1480984 9.27680128,15.1480984 C11.9447965,15.1480984 14.1093964,12.9857423 14.1093964,10.3205128 Z" id="Combined-Shape" fill="#969696"/></g></svg>