<?xml version="1.0" encoding="UTF-8" standalone="no"?><svg width="359px" height="540px" viewBox="0 0 359 540" version="1.1" xmlns="http://www.w3.org/2000/svg" xmlns:xlink="http://www.w3.org/1999/xlink"><title>Group 56</title><desc>Created with Sketch.</desc><defs><path d="M0,1.99626195 C0,0.89375692 0.894756134,0 1.99280853,0 L341.007191,0 C342.107789,0 343,0.898003578 343,1.99626195 L343,246.003738 C343,247.106243 342.105244,248 341.007191,248 L1.99280853,248 C0.892210769,248 0,247.101996 0,246.003738 L0,1.99626195 Z" id="path-1"/><filter x="-50%" y="-50%" width="200%" height="200%" filterUnits="objectBoundingBox" id="filter-2"><feOffset dx="0" dy="0" in="SourceAlpha" result="shadowOffsetOuter1"/><feGaussianBlur stdDeviation="4" in="shadowOffsetOuter1" result="shadowBlurOuter1"/><feColorMatrix values="0 0 0 0 0 0 0 0 0 0 0 0 0 0 0 0 0 0 0.16 0" type="matrix" in="shadowBlurOuter1"/></filter><path d="M0,277.996262 C0,276.893757 0.894756134,276 1.99280853,276 L341.007191,276 C342.107789,276 343,276.898004 343,277.996262 L343,522.003738 C343,523.106243 342.105244,524 341.007191,524 L1.99280853,524 C0.892210769,524 0,523.101996 0,522.003738 L0,277.996262 Z" id="path-3"/><filter x="-50%" y="-50%" width="200%" height="200%" filterUnits="objectBoundingBox" id="filter-4"><feOffset dx="0" dy="0" in="SourceAlpha" result="shadowOffsetOuter1"/><feGaussianBlur stdDeviation="4" in="shadowOffsetOuter1" result="shadowBlurOuter1"/><feColorMatrix values="0 0 0 0 0 0 0 0 0 0 0 0 0 0 0 0 0 0 0.16 0" type="matrix" in="shadowBlurOuter1"/></filter></defs><g id="Page-1" stroke="none" stroke-width="1" fill="none" fill-rule="evenodd"><g id="Group-56" transform="translate(8.000000, 8.000000)"><g id="Combined-Shape"><use fill="black" fill-opacity="1" filter="url(#filter-2)" xlink:href="#path-1"/><use fill="#FFFFFF" fill-rule="evenodd" xlink:href="#path-1"/></g><g id="Combined-Shape"><use fill="black" fill-opacity="1" filter="url(#filter-4)" xlink:href="#path-3"/><use fill="#FFFFFF" fill-rule="evenodd" xlink:href="#path-3"/></g><ellipse id="Oval-Copy-13" fill="#F2F2F2" cx="37" cy="37" rx="25" ry="25"/><ellipse id="Oval-Copy-20" fill="#F2F2F2" cx="37" cy="313" rx="25" ry="25"/><rect id="Rectangle-3-Copy" fill="#F2F2F2" x="74" y="29" width="225" height="16"/><rect id="Rectangle-3-Copy-10" fill="#F2F2F2" x="74" y="305" width="225" height="16"/><polygon id="Fill-1-Copy" fill="#F2F2F2" points="0 74 343 74 343 204 0 204"/><polygon id="Fill-1-Copy-6" fill="#F2F2F2" points="0 350 343 350 343 480 0 480"/></g></g></svg>