<?xml version="1.0" encoding="UTF-8"?><svg width="320px" height="280px" viewBox="0 0 320 280" version="1.1" xmlns="http://www.w3.org/2000/svg" xmlns:xlink="http://www.w3.org/1999/xlink"><title>coupon shape</title><desc>Created with Sketch.</desc><defs/><g id="Page-1" stroke="none" stroke-width="1" fill="none" fill-rule="evenodd"><g id="coupon-shape"><path d="M0,96.5040699 L0,60 C-6.76353751e-16,54.4771525 4.4771525,50 10,50 L310,50 C315.522847,50 320,54.4771525 320,60 L320,96.7967571 C313.612137,98.8963422 309,104.90956 309,112 C309,119.09044 313.612137,125.103658 320,127.203243 L320,270 C320,275.522847 315.522847,280 310,280 L10,280 C4.4771525,280 6.76353751e-16,275.522847 0,270 L0,127.49593 C6.90090885,125.719759 12,119.455358 12,112 C12,104.544642 6.90090885,98.2802411 1.08135723e-13,96.5040699 L0,96.5040699 Z" id="Mask" fill="#FFFFFF"/><g id="Group-14" transform="translate(133.000000, 1.000000)"><path d="M45.8978542,39.1785012 C45.8874282,39.1654328 26.875619,20.1065725 26.875619,20.1065725 L26.875619,35.0097022 C26.875619,40.7597698 22.1839194,45.4669842 16.4470135,45.4669842 C12.4616753,45.4669842 8.98460466,43.1904801 7.23043033,39.8763503 C2.76028324,44.6881114 0,51.1203461 0,58.2164522 C0,73.1012862 12.0342094,85.1659735 26.875619,85.1659735 C41.7196351,85.1659735 53.7538445,73.1012862 53.7538445,58.2164522 C53.7538445,50.8563657 50.8032868,44.1941283 46.0359987,39.3300939 L45.8978542,39.1785012 Z" id="Mask" fill="#FF940E"/><path d="M22.6224909,68.6078207 C36.2832804,68.6078207 47.3575385,57.652715 47.3575385,44.1389073 C47.3575385,42.8872305 47.2625341,41.6575043 47.0792696,40.4564006 C46.7420881,40.0711258 46.3941709,39.6955347 46.0359987,39.3300939 L45.8978542,39.1785012 C45.8874282,39.1654328 26.875619,20.1065725 26.875619,20.1065725 L26.875619,35.0097022 C26.875619,40.7597698 22.1839194,45.4669842 16.4470135,45.4669842 C12.4616753,45.4669842 8.98460466,43.1904801 7.23043033,39.8763503 C3.53795625,43.8510077 1.01216502,48.9313547 0.245094738,54.5782306 C4.20511602,62.8705636 12.7365121,68.6078207 22.6224909,68.6078207 Z" id="Combined-Shape" fill="#FFAF2B"/><path d="M19.9419603,12.0633535 C12.8395822,12.0633535 7.08196721,17.75902 7.08196721,24.7849808 C7.08196721,31.8109415 12.8395822,37.506608 19.9419603,37.506608 L19.9419603,12.0633535 Z" id="Oval-6" fill="#FFAF2B"/><path d="M41.04,0 C36.2682598,0 32.4,3.82663963 32.4,8.54703883 C32.4,13.267438 36.2682598,17.0940777 41.04,17.0940777 L41.04,0 Z" id="Oval-6" fill="#FFD15B"/></g><g id="Group" transform="translate(0.000000, 212.000000)"><path d="M75.902808,68 C73.5543948,66.188073 72.0297994,63.3128597 72.0297994,60.0922045 L72.0297994,45.9776126 C72.0297994,45.9776126 54.3658829,64.0280518 54.356196,64.0404287 L54.2278457,64.1840005 C53.1046705,65.3521543 52.0900326,66.6298184 51.2011091,68 L75.902808,68 L75.902808,68 Z" id="Combined-Shape" fill="#FFAF2B"/><path d="M87.5294348,68 C88.6663582,67.1222714 89.610299,65.9953205 90.2821902,64.701354 C90.889816,65.3680773 91.4634379,66.0676506 92,66.7972368 L92,68 L87.5294348,68 Z" id="Path" fill="#FFAF2B"/><path d="M90.442623,38.3860107 C83.866347,38.3860107 78.535222,43.7618724 78.535222,50.3933339 C78.535222,57.0247954 83.866347,62.4006571 90.442623,62.4006571 L90.442623,38.3860107 Z" id="Oval-6" fill="#FFAF2B" transform="translate(84.488922, 50.393334) scale(-1, 1) translate(-84.488922, -50.393334)"/><path d="M67,27 C62.581722,27 59,30.6117784 59,35.0671329 C59,39.5224873 62.581722,43.1342658 67,43.1342658 L67,27 Z" id="Oval-6" fill="#FFD15B" transform="translate(63.000000, 35.067133) scale(-1, 1) translate(-63.000000, -35.067133)"/><path d="M10,68 L55.9223795,68 C55.7528942,59.573828 52.3885692,51.9616525 47.0374714,46.3652351 L46.8783169,46.1862135 C46.8663053,46.1707806 24.9630488,23.6634429 24.9630488,23.6634429 L24.9630488,41.2631192 C24.9630488,48.0535941 19.5578031,53.6125238 12.9483889,53.6125238 C8.356933,53.6125238 4.3510454,50.9241131 2.33008411,47.0103303 C1.50060071,47.9255637 0.722220509,48.8904416 -3.55271368e-15,49.9002438 L-3.55271368e-15,58 C-2.87635993e-15,63.5228475 4.4771525,68 10,68 L10,68 Z" id="Combined-Shape" fill="#FF940E"/><path d="M16.8963247,14.1973713 C8.74174254,14.1973713 2.13114754,20.9006063 2.13114754,29.1694657 C2.13114754,37.4383251 8.74174254,44.1415601 16.8963247,44.1415601 L16.8963247,14.1973713 Z" id="Oval-6" fill="#FFAF2B"/><path d="M41.12,0 C35.6413353,0 31.2,4.50357555 31.2,10.0590175 C31.2,15.6144595 35.6413353,20.1180351 41.12,20.1180351 L41.12,0 Z" id="Oval-6" fill="#FFD15B"/></g><g id="Group" transform="translate(228.000000, 212.000000)"><path d="M92,58 L92,36.8934099 C91.9088932,36.8956685 91.8175264,36.8968043 91.7259122,36.8968043 C87.4306793,36.8968043 83.683236,34.3947191 81.7926593,30.7521886 C76.9749193,36.0407522 74,43.1103639 74,50.9096308 C74,57.2752103 75.96363,63.1715164 79.3050711,68 L82,68 C87.5228475,68 92,63.5228475 92,58 Z" id="Combined-Shape" fill="#FFAF2B"/><path d="M92,27.6520311 C86.0252922,26.1171244 81.6065574,20.6530492 81.6065574,14.1478196 C81.6065574,7.64258998 86.0252922,2.1785148 92,0.643608011 L92,27.6520311 L92,27.6520311 Z" id="Combined-Shape" fill="#FFAF2B"/><path d="M79.4379654,68 C78.3116129,61.5787977 75.3069187,55.8304141 71.0374714,51.3652351 L70.8783169,51.1862135 C70.8663053,51.1707806 48.9630488,28.6634429 48.9630488,28.6634429 L48.9630488,46.2631192 C48.9630488,53.0535941 43.5578031,58.6125238 36.9483889,58.6125238 C32.356933,58.6125238 28.3510454,55.9241131 26.3300841,52.0103303 C22.3699306,56.3798753 19.5745914,61.8809844 18.4943201,68 L79.4379654,68 L79.4379654,68 Z" id="Combined-Shape" fill="#FF940E"/><path d="M40.8963247,19.1973713 C32.7417425,19.1973713 26.1311475,25.9006063 26.1311475,34.1694657 C26.1311475,42.4383251 32.7417425,49.1415601 40.8963247,49.1415601 L40.8963247,19.1973713 Z" id="Oval-6" fill="#FFAF2B"/><path d="M65.12,5 C59.6413353,5 55.2,9.50357555 55.2,15.0590175 C55.2,20.6144595 59.6413353,25.1180351 65.12,25.1180351 L65.12,5 Z" id="Oval-6" fill="#FFD15B"/><path d="M14.8963247,68 L14.8963247,54.1973713 C7.12985663,54.1973713 0.763902315,60.2777152 0.175525165,68 L14.8963247,68 L14.8963247,68 Z" id="Combined-Shape" fill="#FFAF2B"/><path d="M36.12,40 C30.6413353,40 26.2,44.5035756 26.2,50.0590175 C26.2,55.6144595 30.6413353,60.1180351 36.12,60.1180351 L36.12,40 Z" id="Oval-6" fill="#FFD15B"/></g></g></g></svg>