<?xml version="1.0" encoding="UTF-8"?><svg width="320px" height="120px" viewBox="0 0 320 120" version="1.1" xmlns="http://www.w3.org/2000/svg" xmlns:xlink="http://www.w3.org/1999/xlink"><title>coupon shape</title><desc>Created with Sketch.</desc><defs/><g id="Page-1" stroke="none" stroke-width="1" fill="none" fill-rule="evenodd"><g id="coupon-shape"><g id="Group-4"><path d="M0,20.608461 L0,8 C-5.41083001e-16,3.581722 3.581722,8.11624501e-16 8,0 L312,0 C316.418278,-8.11624501e-16 320,3.581722 320,8 L320,20.1630341 C314.136339,22.5365836 310,28.2852449 310,35 C310,41.7147551 314.136339,47.4634164 320,49.8369659 L320,112 C320,116.418278 316.418278,120 312,120 L8,120 C3.581722,120 5.41083001e-16,116.418278 0,112 L0,49.391539 C5.32847104,46.794946 9,41.3262387 9,35 C9,28.6737613 5.32847104,23.205054 1.10964491e-06,20.6084664 L0,20.608461 Z" id="Mask" fill="#FFFFFF"/><g id="Group" transform="translate(0.000000, 67.000000)"><path d="M59.4021975,53.2173913 C57.564309,51.7993615 56.3711473,49.5491945 56.3711473,47.0286818 L56.3711473,35.9824794 C56.3711473,35.9824794 42.5472127,50.1089101 42.5396317,50.1185964 L42.4391836,50.2309569 C41.5601769,51.1451642 40.7661125,52.1450752 40.0704332,53.2173913 L59.4021975,53.2173913 L59.4021975,53.2173913 Z" id="Combined-Shape" fill="#FFAF2B"/><path d="M68.5012968,53.2173913 C69.391063,52.5304733 70.1297992,51.6485117 70.6556271,50.6358422 C71.1311603,51.1576257 71.5800819,51.7051179 72,52.2760983 L72,53.2173913 L68.5012968,53.2173913 Z" id="Path" fill="#FFAF2B"/><path d="M70.7811832,30.0412257 C65.6345324,30.0412257 61.4623476,34.2484219 61.4623476,39.4382613 C61.4623476,44.6281007 65.6345324,48.8352969 70.7811832,48.8352969 L70.7811832,30.0412257 Z" id="Oval-6" fill="#FFAF2B" transform="translate(66.121765, 39.438261) scale(-1, 1) translate(-66.121765, -39.438261)"/><path d="M52.4347826,21.1304348 C48.9769998,21.1304348 46.173913,23.957044 46.173913,27.4438431 C46.173913,30.9306423 48.9769998,33.7572515 52.4347826,33.7572515 L52.4347826,21.1304348 Z" id="Oval-6" fill="#FFD15B" transform="translate(49.304348, 27.443843) scale(-1, 1) translate(-49.304348, -27.443843)"/><path d="M7.82608696,53.2173913 L43.7653404,53.2173913 C43.6326998,46.6229958 40.9997498,40.6656411 36.8119341,36.2858362 L36.6873784,36.1457323 C36.677978,36.1336544 19.536299,18.5192162 19.536299,18.5192162 L19.536299,32.2928759 C19.536299,37.6071606 15.3061068,41.9576273 10.1335217,41.9576273 C6.54020843,41.9576273 3.40516596,39.8536537 1.82354409,36.7906932 C1.17438317,37.5069629 0.56521605,38.2620848 -3.55271368e-15,39.0523647 L-3.55271368e-15,45.3913043 C-3.02339335e-15,49.7135328 3.50385848,53.2173913 7.82608696,53.2173913 L7.82608696,53.2173913 Z" id="Combined-Shape" fill="#FF940E"/><path d="M13.2232107,11.1109863 C6.84136373,11.1109863 1.6678546,16.3569962 1.6678546,22.8282775 C1.6678546,29.2995588 6.84136373,34.5455688 13.2232107,34.5455688 L13.2232107,11.1109863 Z" id="Oval-6" fill="#FFAF2B"/><path d="M32.1808696,0 C27.8932189,0 24.4173913,3.52453739 24.4173913,7.87227459 C24.4173913,12.2200118 27.8932189,15.7445492 32.1808696,15.7445492 L32.1808696,0 Z" id="Oval-6" fill="#FFD15B"/></g><g id="Group" transform="translate(248.000000, 68.000000)"><path d="M72,44.22066 L72,27.5789514 C71.9280736,27.5807322 71.8559419,27.5816278 71.7836149,27.5816278 C68.3926415,27.5816278 65.4341337,25.6088329 63.9415732,22.7368421 C60.1380942,26.9066647 57.7894737,32.4807729 57.7894737,38.6301853 C57.7894737,43.6491921 59.3397079,48.2981955 61.9776877,52.1052632 L64.1052632,52.1052632 C68.4654059,52.1052632 72,48.5752061 72,44.22066 Z" id="Combined-Shape" fill="#FFAF2B"/><path d="M72,20.8421053 C67.0986168,19.6576344 63.4736842,15.4410673 63.4736842,10.4210526 C63.4736842,5.40103797 67.0986168,1.18447081 72,0 L72,20.8421053 L72,20.8421053 Z" id="Combined-Shape" fill="#FFAF2B"/><path d="M61.5789474,52.1052632 C60.7034904,47.1565887 58.3680931,42.7264402 55.0496671,39.2852284 L54.9259644,39.1472605 C54.9166283,39.1353667 37.892332,21.7894737 37.892332,21.7894737 L37.892332,35.3531438 C37.892332,40.5864083 33.6911073,44.8705489 28.553943,44.8705489 C24.985236,44.8705489 21.8716616,42.7986519 20.3008704,39.7823885 C17.2228428,43.1498975 15.0501667,47.389477 14.2105263,52.1052632 L61.5789474,52.1052632 L61.5789474,52.1052632 Z" id="Combined-Shape" fill="#FF940E"/><path d="M32.2105263,14.2105263 C25.9319207,14.2105263 20.8421053,19.5124174 20.8421053,26.0526316 C20.8421053,32.5928457 25.9319207,37.8947368 32.2105263,37.8947368 L32.2105263,14.2105263 Z" id="Oval-6" fill="#FFAF2B"/><path d="M51.1578947,2.84210526 C46.9721577,2.84210526 43.5789474,6.44739123 43.5789474,10.8947368 C43.5789474,15.3420825 46.9721577,18.9473684 51.1578947,18.9473684 L51.1578947,2.84210526 Z" id="Oval-6" fill="#FFD15B"/><path d="M11.3684211,52.1052632 L11.3684211,41.6842105 C5.37061644,41.6842105 0.454385589,46.2749001 0,52.1052632 L11.3684211,52.1052632 L11.3684211,52.1052632 Z" id="Combined-Shape" fill="#FFAF2B"/><path d="M28.4210526,30.3157895 C24.2353156,30.3157895 20.8421053,33.9210754 20.8421053,38.3684211 C20.8421053,42.8157667 24.2353156,46.4210526 28.4210526,46.4210526 L28.4210526,30.3157895 Z" id="Oval-6" fill="#FFD15B"/></g></g></g></g></svg>