<?xml version="1.0" encoding="UTF-8"?><svg width="96px" height="81px" viewBox="0 0 96 81" version="1.1" xmlns="http://www.w3.org/2000/svg" xmlns:xlink="http://www.w3.org/1999/xlink"><title>crown_drawer</title><desc>Created with Sketch.</desc><defs><path d="M28.1932857,22.3322906 L28.4725758,22.4299128 L28.4725758,22.4299128 C29.7412531,22.8733621 31.150053,22.4189594 31.9205205,21.3177922 L45.8476377,1.41288449 C46.5101221,0.466048858 47.6204639,0.0188194124 48.6922612,0.157138655 L48.6922612,79.8422131 L28.1932857,79.8422131 L28.1932857,22.3322906 Z" id="path-1"/></defs><g id="Page-1" stroke="none" stroke-width="1" fill="none" fill-rule="evenodd"><g id="Artboard-2" transform="translate(-26.000000, -87.000000)"><g id="crown_drawer" transform="translate(26.000000, 87.000000)"><circle id="Oval-2" fill="#FFB600" cx="9.5" cy="48.5" r="9.5"/><circle id="Oval-2" fill="#FFB600" cx="85.5" cy="48.5" r="9.5"/><g id="lvl-count"><path d="M4.64214377,14.1003013 L28.4725758,22.4299128 L28.4725758,22.4299128 C29.7412531,22.8733621 31.150053,22.4189594 31.9205205,21.3177922 L45.8476377,1.41288449 L45.8476377,1.41288449 C46.797492,0.0553341841 48.668013,-0.27516873 50.0255633,0.674685566 C50.3128819,0.875717376 50.5627304,1.1255659 50.7637622,1.41288449 L64.6908794,21.3177922 L64.6908794,21.3177922 C65.4613469,22.4189594 66.8701468,22.8733621 68.1388241,22.4299128 L91.969289,14.1002898 L91.969289,14.1002898 C93.5333506,13.5535929 95.2444584,14.3783298 95.7911554,15.9423913 C95.9692035,16.4517745 96.0065669,16.9997504 95.8993093,17.528587 L83.7484868,77.4385264 L83.7484868,77.4385264 C83.4648426,78.8370415 82.2353383,79.8422131 80.808349,79.8422131 L15.8034357,79.8422131 L15.8034357,79.8422131 C14.3764528,79.8422131 13.1469522,78.8370504 12.8633013,77.4385431 L0.712126915,17.5286152 L0.712126915,17.5286152 C0.382782959,15.9048238 1.43213996,14.3214947 3.05593138,13.9921508 C3.58477304,13.884889 4.13275513,13.9222513 4.64214377,14.1003013 Z" id="Mask" fill="#FFC010"/><path d="M70.2913646,21.6775208 L91.969289,14.1002898 L91.969289,14.1002898 C93.5333506,13.5535929 95.2444584,14.3783298 95.7911554,15.9423913 C95.9692035,16.4517745 96.0065669,16.9997504 95.8993093,17.528587 L83.7484868,77.4385264 L83.7484868,77.4385264 C83.4648426,78.8370415 82.2353383,79.8422131 80.808349,79.8422131 L65.0771809,79.8422131 L70.2913646,21.6775208 Z" id="Combined-Shape" fill="#FFB804"/><mask id="mask-2" fill="white"><use xlink:href="#path-1"/></mask><use id="Combined-Shape" fill="#FFD72A" xlink:href="#path-1"/></g><rect id="Rectangle-5" fill="#FFB600" x="6" y="71" width="84" height="10" rx="5"/><rect id="Rectangle-6" fill="#FFD72A" x="27.125" y="73.4375" width="21.375" height="3.5625" rx="1.78125"/><rect id="Rectangle-6" fill="#FFD72A" x="77" y="73.4375" width="8.3125" height="3.5625" rx="1.78125"/></g></g></g></svg>