<?xml version="1.0" encoding="UTF-8"?><svg width="160px" height="28px" viewBox="0 0 160 28" version="1.1" xmlns="http://www.w3.org/2000/svg" xmlns:xlink="http://www.w3.org/1999/xlink"><title>dark plus logo</title><desc>Created with Sketch.</desc><defs/><g id="Page-1" stroke="none" stroke-width="1" fill="none" fill-rule="evenodd"><g id="dark-plus-logo"><g id="Group-5"><g id="Group-10"><g id="Duolingo-logo-white" fill="#4E4E4E"><path d="M39.6293985,14.7236248 C38.9032996,15.4749929 37.995676,15.8515437 36.9030302,15.8515437 C35.8107341,15.8515437 34.9083569,15.4781134 34.1955488,14.7368006 C33.4841398,13.9927138 33.1270363,13.0222112 33.1270363,11.8228654 C33.1270363,11.8183579 33.1280856,11.8148906 33.1280856,11.8103831 C33.1312334,10.6509115 33.4918345,9.6987856 34.2098889,8.95469888 C34.9300419,8.20714483 35.8317196,7.83371454 36.9152717,7.83371454 C38.024706,7.83371454 38.9354774,8.20333078 39.6475859,8.94186979 C40.3572461,9.67798169 40.7126009,10.6339216 40.7164482,11.8103831 C40.7164482,11.8148906 40.7171477,11.8183579 40.7171477,11.8228654 C40.7171477,13.0059148 40.3551476,13.9712165 39.6293985,14.7236248 Z M43.2584937,8.19986346 C42.6121398,7.08650723 41.7111617,6.20407446 40.5569583,5.55395209 C39.4024051,4.90486991 38.1695061,4.57824843 36.8582611,4.57824843 C35.044413,4.57824843 33.4393707,5.2034061 32.0420851,6.45372145 C30.4559298,7.88260374 29.6609285,9.66827319 29.6539334,11.8103831 C29.6539334,11.8183579 29.6532339,11.8270262 29.6532339,11.8353478 C29.6532339,13.845006 30.3593965,15.5530075 31.7678744,16.9576186 C33.176702,18.36431 34.8782776,19.0667889 36.8708524,19.0667889 C38.226167,19.0667889 39.4639627,18.748489 40.5887863,18.110849 C41.7132602,17.4749426 42.6019968,16.5883491 43.2514986,15.4586965 C43.9041481,14.3266167 44.2301231,13.1120147 44.2301231,11.8103831 C44.2301231,10.5184599 43.9062467,9.31495335 43.2584937,8.19986346 Z M9.97756366,14.7236248 C9.2514648,15.4749929 8.34314171,15.8515437 7.25119535,15.8515437 C6.15854948,15.8515437 5.25652204,15.4781134 4.54406377,14.7368006 C3.83230501,13.9927138 3.47590099,13.0222112 3.47590099,11.8228654 C3.47590099,11.8183579 3.47625075,11.8148906 3.47625075,11.8103831 L3.47520148,11.8103831 C3.4783493,10.6509115 3.83650211,9.6987856 4.55630532,8.95469888 C5.27610852,8.20714483 6.17953499,7.83371454 7.26238763,7.83371454 C8.37147216,7.83371454 9.28224356,8.20333078 9.99470183,8.94186979 C10.7036625,9.67798169 11.0597168,10.6339216 11.0625148,11.8103831 C11.0625148,11.8148906 11.0646134,11.8183579 11.0646134,11.8228654 C11.0646134,13.0059148 10.7019137,13.9712165 9.97756366,14.7236248 Z M14.5628989,0.264209732 L11.0751062,0.264209732 L11.0751062,5.66525304 C11.015997,5.63057984 10.9645824,5.58793182 10.9040742,5.55395209 C9.74952105,4.90486991 8.51697173,4.57824843 7.20502722,4.57824843 C5.3911791,4.57824843 3.7850876,5.2034061 2.3885015,6.45372145 C0.801296959,7.88260374 0.00734493066,9.66827319 0,11.8103831 L0.00209855162,11.8103831 C0.00209855162,11.8183579 0.00139903441,11.8270262 0.00139903441,11.8353478 C0.00139903441,13.845006 0.705463102,15.5530075 2.11464051,16.9576186 C3.5248672,18.36431 5.2264428,19.0667889 7.21796828,19.0667889 C8.57293311,19.0667889 9.81177808,18.748489 10.9359022,18.110849 C12.0600264,17.4749426 12.9491127,16.5883491 13.6003633,15.4586965 C14.17012,14.4677366 14.4911984,13.4140183 14.5628989,12.2951143 L14.5628989,12.2933806 C14.5726922,12.1331905 14.577239,11.9723069 14.577239,11.8103831 C14.577239,11.6599014 14.5723424,11.5111534 14.5628989,11.3634456 L14.5628989,0.264209732 Z M24.9297439,11.6834792 C24.9297439,11.7275141 24.9290444,11.7673883 24.9290444,11.8103831 C24.9230985,13.0371206 24.8506985,13.8467397 24.7114946,14.2288383 C24.5156297,14.7603783 24.2137881,15.1636276 23.8080681,15.4392795 C23.4033974,15.7131977 22.9091885,15.8515437 22.3296385,15.8515437 C21.7486894,15.8515437 21.2604264,15.7121575 20.8641499,15.4326916 C20.4657749,15.1532256 20.1782733,14.7638457 19.9991969,14.2607376 C19.8302635,13.7912626 19.7424741,12.9702014 19.7323311,11.8103831 C19.7316316,11.730288 19.7298828,11.6536602 19.7298828,11.5700978 L19.7298828,4.93330193 L16.2043161,4.93330193 L16.2043161,10.6706752 C16.2043161,11.0763516 16.2099122,11.4508221 16.2197054,11.8103831 C16.2602774,13.4022294 16.3907374,14.5474849 16.6135336,15.2298534 C16.9951203,16.4378674 17.6582626,17.3778577 18.5987635,18.0543317 C19.5399639,18.7301122 20.7725132,19.0667889 22.2974607,19.0667889 C23.7027907,19.0667889 24.8622405,18.778308 25.7726622,18.1999591 C26.6830838,17.6223037 27.3731575,16.7918807 27.8418341,15.7121575 C28.1660603,14.9597492 28.3531811,13.6549969 28.4021473,11.8103831 C28.4105415,11.4799475 28.4175367,11.1380699 28.4175367,10.7715742 L28.4175367,4.93330193 L24.9297439,4.93330193 L24.9297439,11.6834792 L24.9297439,11.6834792 Z" id="Fill-1"/><path d="M86.5054455,11.8696742 L86.5040464,11.8696742 C86.5022976,13.0360804 86.1500907,13.9830054 85.4467262,14.7125293 C84.7395143,15.4444804 83.8385361,15.8102826 82.7385453,15.8102826 C81.6637371,15.8102826 80.7711532,15.4403197 80.0558968,14.700047 C79.3444878,13.9635884 78.9880838,13.0190906 78.9852857,11.8696742 L78.9856355,11.8696742 C78.9856355,11.8651667 78.9852857,11.8620461 78.9852857,11.8571919 C78.9852857,10.6692883 79.3385419,9.7074539 80.0454041,8.96995508 C80.7501676,8.23384319 81.6455497,7.86526714 82.7277028,7.86526714 C83.8084569,7.86526714 84.709435,8.23765724 85.428189,8.98278416 C86.1469429,9.72791108 86.5068445,10.6855847 86.5068445,11.8571919 C86.5068445,11.8620461 86.5054455,11.8651667 86.5054455,11.8696742 Z M89.9736518,11.3897972 C89.902301,10.2809485 89.5843704,9.23659194 89.0191605,8.25430037 C88.3745554,7.1340095 87.4945628,6.25712444 86.3795324,5.62641906 C85.265901,4.99432675 84.0375487,4.67776049 82.695525,4.67776049 C80.7200884,4.67776049 79.0346017,5.37399821 77.6380156,6.76786058 C76.2403802,8.16068275 75.5419123,9.85308131 75.5419123,11.8450563 C75.5419123,11.8526844 75.542262,11.8613527 75.542262,11.8696742 L75.5419123,11.8696742 C75.5482079,13.9927138 76.3362141,15.7620869 77.908379,17.1788336 C79.2927235,18.41736 80.8844749,19.0359298 82.6808351,19.0359298 C83.9819371,19.0359298 85.2029444,18.7145093 86.3463053,18.0699346 C86.4064638,18.0363016 86.4575285,17.9950405 86.5166377,17.9596739 L86.5166377,19.5251686 C86.5141894,20.691228 86.1354008,21.6443941 85.4323861,22.3746116 C84.7258737,23.1062159 83.8224472,23.4716714 82.7249047,23.4716714 C81.6703825,23.4716714 80.7886411,23.1131506 80.081779,22.3988828 L77.8363287,24.7833583 C77.857664,24.8013884 77.8737529,24.822539 77.8936891,24.8412625 C79.2780337,26.079789 80.8701348,26.6983588 82.6668448,26.6983588 C83.9679468,26.6983588 85.1907029,26.3765915 86.3333642,25.7316701 C87.4763753,25.0884824 88.3682598,24.2126375 89.0114658,23.1089898 C89.6525734,22.0039551 89.9736518,20.8122375 89.9736518,19.531063 L89.9736518,12.3127976 C89.9816962,12.1664768 89.9869426,12.0191157 89.9869426,11.8696742 L89.9883416,11.8696742 C89.9883416,11.7091373 89.9837948,11.5496407 89.9736518,11.3918776 L89.9736518,11.3897972 Z M102.251578,11.9646788 C102.249129,13.1425271 101.894124,14.0981204 101.185164,14.834579 C100.472356,15.5727713 99.5608848,15.9413473 98.4524998,15.9413473 C97.3703467,15.9413473 96.4669202,15.5686105 95.7453682,14.8210564 C95.0290626,14.0780099 94.667762,13.1251906 94.6653137,11.9646788 C94.6653137,11.9615582 94.6646141,11.9577441 94.6646141,11.9528899 C94.6646141,10.7545843 95.0213679,9.78338819 95.7338262,9.0396482 C96.446984,8.29660167 97.3479621,7.92594523 98.4402583,7.92594523 C99.5329041,7.92594523 100.440877,8.30145592 101.165927,9.05317074 C101.890627,9.80384538 102.255075,10.7708807 102.255075,11.9528899 C102.255075,11.9577441 102.251578,11.9615582 102.251578,11.9646788 Z M104.788727,8.31809905 C104.136077,7.18740622 103.249089,6.30254633 102.125665,5.66525304 C101.00154,5.02761301 99.7623458,4.7093131 98.4080805,4.7093131 C96.4151559,4.7093131 94.7139301,5.41109853 93.3047527,6.81813671 C91.8938265,8.22274777 91.1894127,9.93144273 91.1894127,11.9407543 L91.1894127,11.9646788 C91.1964078,14.1081756 91.9924584,15.8931516 93.5789634,17.3234208 C94.9745003,18.5730427 96.5812913,19.1978536 98.3937404,19.1978536 C99.7060346,19.1978536 100.940333,18.8722723 102.095585,18.2228434 C103.24804,17.5713341 104.147619,16.6889013 104.795722,15.5748517 C105.443475,14.460802 105.767001,13.2576422 105.767001,11.9646788 C105.767001,10.6651275 105.441376,9.44983207 104.788727,8.31809905 Z M58.0511841,0.499987446 C57.0204455,0.499987446 56.1848722,1.32937023 56.1848722,2.3508425 C56.1848722,3.37196804 57.0204455,4.20065736 58.0511841,4.20065736 C59.0819227,4.20065736 59.9185453,3.37196804 59.9185453,2.3508425 C59.9185453,1.32937023 59.0819227,0.499987446 58.0511841,0.499987446 Z M73.6976352,8.06533147 C73.2279094,6.98318111 72.5392347,6.15483852 71.6284633,5.57614293 C70.7162928,4.9981408 69.5585919,4.7093131 68.152912,4.7093131 C66.6279645,4.7093131 65.395765,5.04633654 64.4556139,5.72177034 C63.5137139,6.39720415 62.8509214,7.33892807 62.4682855,8.54694212 C62.245839,9.2286171 62.1146795,10.3731792 62.0744573,11.9646788 C62.0646641,12.3256267 62.0594177,12.7000972 62.0594177,13.1054268 L62.0594177,18.8428001 L65.5839351,18.8428001 L65.5839351,12.2053107 C65.5839351,12.1227885 65.5867332,12.045814 65.5867332,11.9646788 C65.598625,10.8052072 65.6860646,9.98449271 65.8532492,9.51467095 C66.0330252,9.0136433 66.3222755,8.62218295 66.718552,8.34341048 C67.115528,8.06533147 67.6030915,7.92594523 68.1847401,7.92594523 C68.7663886,7.92594523 69.2591985,8.06186415 69.6635195,8.3371693 C70.0695892,8.61212773 70.3696821,9.0157237 70.5669459,9.54657028 C70.7068494,9.9300558 70.7782001,10.7393281 70.7837963,11.9646788 C70.7837963,12.008367 70.7855451,12.0475477 70.7855451,12.0933163 L70.7855451,18.8428001 L74.2729881,18.8428001 L74.2729881,13.0031409 C74.2729881,12.6376855 74.2673919,12.2961545 74.2575987,11.9646788 C74.2082827,10.1217986 74.0222112,8.81635283 73.6976352,8.06533147 Z M50.3529972,15.2142504 C49.9469275,14.9399855 49.6457853,14.5374297 49.45062,14.0055429 C49.3093176,13.6217107 49.2386663,12.8120916 49.2323707,11.586741 L49.2323707,0.260742413 L45.7445779,0.260742413 L45.7445779,10.5475854 C45.7445779,10.9133876 45.7498243,11.2545718 45.760317,11.586741 C45.8089335,13.4306614 45.9939558,14.7350669 46.3202806,15.4874752 C46.7889571,16.5678919 47.4790308,17.3972747 48.3884032,17.9759703 C49.2995243,18.5543191 50.4589741,18.8428001 51.8629051,18.8428001 L54.5560464,18.8428001 L54.5560464,15.6258212 L51.8321264,15.6258212 C51.2511773,15.6258212 50.7576679,15.4892089 50.3529972,15.2142504 Z M56.3912298,18.8219962 L59.9185453,18.8219962 L59.9185453,5.49674132 L56.3912298,5.49674132 L56.3912298,18.8219962 Z" id="Fill-3"/></g><path d="M111.907132,17.849366 C111.907132,18.6545731 112.345262,19.0955199 113.164376,19.0955199 L114.688308,19.0955199 C115.507422,19.0955199 115.926503,18.6545731 115.926503,17.849366 L115.926503,15.2228571 L117.907616,15.2228571 C120.650694,15.2228571 122.460363,13.0948098 122.460363,10.2382418 C122.460363,7.40084531 120.650694,5.31114117 117.907616,5.31114117 L113.164376,5.31114117 C112.345262,5.31114117 111.907132,5.73291631 111.907132,6.55729501 L111.907132,17.849366 Z M115.926503,11.7719696 L115.926503,8.76202874 L117.1266,8.76202874 C118.002861,8.76202874 118.383844,9.39469146 118.383844,10.2382418 C118.383844,11.0817921 118.002861,11.7719696 117.050404,11.7719696 L115.926503,11.7719696 Z M124.62471,17.849366 C124.62471,18.6545731 125.062841,19.0955199 125.881955,19.0955199 L132.73965,19.0955199 C133.558764,19.0955199 133.996894,18.6545731 133.996894,17.849366 L133.996894,16.8907861 C133.996894,16.085579 133.558764,15.6446323 132.73965,15.6446323 L128.644082,15.6446323 L128.644082,6.55729501 C128.644082,5.73291631 128.225001,5.31114117 127.405887,5.31114117 L125.881955,5.31114117 C125.062841,5.31114117 124.62471,5.73291631 124.62471,6.55729501 L124.62471,17.849366 Z M135.589767,13.9383601 C135.589767,17.0633305 137.894714,19.325579 141.495005,19.325579 C145.057196,19.325579 147.362144,17.0633305 147.362144,13.9383601 L147.362144,6.55729501 C147.362144,5.73291631 146.943063,5.31114117 146.123949,5.31114117 L144.600017,5.31114117 C143.780903,5.31114117 143.361822,5.73291631 143.361822,6.55729501 L143.361822,13.9575317 C143.361822,15.088656 142.618905,15.6446323 141.475955,15.6446323 C140.352055,15.6446323 139.609138,15.088656 139.609138,13.9383601 L139.609138,6.55729501 C139.609138,5.73291631 139.171008,5.31114117 138.370943,5.31114117 L136.827962,5.31114117 C136.027897,5.31114117 135.589767,5.73291631 135.589767,6.55729501 L135.589767,13.9383601 Z M150.23131,17.9835672 C151.012325,18.5970583 152.802946,19.325579 154.688812,19.325579 C157.927168,19.325579 159.717789,17.2358749 159.717789,14.8585968 C159.717789,10.4299577 153.907797,10.9284193 153.907797,9.35634827 C153.907797,8.99208791 154.174485,8.72368555 154.936451,8.72368555 C155.755565,8.72368555 156.269892,9.03043111 156.955661,9.33717667 C157.584283,9.64392223 158.193856,9.79729501 158.651036,8.89622992 L159.203462,7.80344886 C159.527297,7.13244294 159.47015,6.55729501 158.803429,6.07800507 C158.098611,5.59871513 156.574678,5.08108199 154.993598,5.08108199 C152.079078,5.08108199 149.907474,6.84486898 149.907474,9.49054945 C149.907474,13.9000169 155.698417,13.6124429 155.698417,15.0694844 C155.698417,15.3954015 155.469827,15.6829755 154.688812,15.6829755 C153.622059,15.6829755 152.860093,15.0694844 152.421963,14.89694 C151.679046,14.4943364 151.164718,14.5326796 150.707539,15.2036855 L149.983671,16.2581234 C149.393147,17.1208453 149.755081,17.6193068 150.23131,17.9835672 Z" id="plus" fill="#2B70C9"/></g></g></g></g></svg>