<?xml version="1.0" encoding="UTF-8"?><svg width="34px" height="24px" viewBox="0 0 34 24" version="1.1" xmlns="http://www.w3.org/2000/svg" xmlns:xlink="http://www.w3.org/1999/xlink"><title>download_icon_skill</title><desc>Created with Sketch.</desc><defs/><g id="Page-1" stroke="none" stroke-width="1" fill="none" fill-rule="evenodd"><g id="animals---practice" transform="translate(-311.000000, -14.000000)" fill="#FFFFFF"><g id="download_icon_skill" transform="translate(311.000000, 14.000000)"><path d="M19.5885694,0 C15.8979082,0 12.564185,1.99154002 10.6474431,5.13994124 C9.97137682,4.84040452 9.23730098,4.68079941 8.48013212,4.68079941 C5.39321659,4.68079941 2.92032191,7.2867551 2.92032191,10.4660919 C2.92032191,10.7369986 2.93837388,11.0059016 2.97399737,11.2711698 C0.990213149,12.7083693 0,14.4004091 0,16.8206413 C0,21.0356682 3.19068319,23.9081588 7.46757073,23.9776824 C8.14783054,23.9887405 8.70830855,23.4495554 8.71943339,22.7733787 C8.73055823,22.0972021 8.18811716,21.5400883 7.50785734,21.5290302 C4.51687459,21.4804099 2.46376812,19.6320505 2.46376812,16.8206413 C2.46376812,15.0656105 3.19974492,13.9920287 5.00500152,12.8606131 C5.4710633,12.5685163 5.68532116,12.0043203 5.5296956,11.4789586 C5.43372683,11.1549866 5.38409003,10.8142932 5.38409003,10.4660919 C5.38409003,8.60833031 6.78714599,7.129779 8.48013212,7.129779 C9.15910123,7.129779 9.80556559,7.36878128 10.3438954,7.80876823 C10.9708705,8.32120662 11.9163769,8.10133984 12.2495911,7.36562034 C13.6032218,4.37687445 16.4369876,2.44897959 19.5885694,2.44897959 C24.0730092,2.44897959 27.7382356,6.31167195 27.7382356,11.1113017 C27.7382356,11.1998088 27.7344248,11.2798172 27.7222086,11.4712103 C27.715504,11.5776725 27.715504,11.5776725 27.7120771,11.6373011 C27.6838006,12.1462055 27.9756176,12.6193026 28.4447263,12.8250805 C30.5357002,13.7423016 31.5362319,15.0119434 31.5362319,16.9895618 C31.5362319,19.7496168 29.5008204,21.5510204 26.5573989,21.5510204 C25.8770481,21.5510204 25.3255148,22.0992432 25.3255148,22.7755102 C25.3255148,23.4517772 25.8770481,24 26.5573989,24 C30.8019021,24 34,21.1695822 34,16.9895618 C34,14.2235288 32.6424114,12.2502525 30.2009388,10.9523874 C30.119833,4.90399734 25.4160232,0 19.5885694,0 Z" id="Stroke-1" fill-rule="nonzero"/><rect id="Rectangle-2" x="15.75" y="11" width="2.5" height="11" rx="1.25"/><path d="M12.8245714,18.2377716 C12.3162019,17.8391649 11.5996182,17.9534102 11.2240368,18.4929457 C10.8484554,19.0324811 10.9561014,19.7929956 11.4644709,20.1916022 L15.7759096,23.5721521 C16.5034597,24.142616 17.4965403,24.142616 18.2240904,23.5721521 L22.5355291,20.1916022 C23.0438986,19.7929956 23.1515446,19.0324811 22.7759632,18.4929457 C22.4003818,17.9534102 21.6837981,17.8391649 21.1754286,18.2377716 L17,21.5116776 L12.8245714,18.2377716 Z" id="Rectangle-6" fill-rule="nonzero"/></g></g></g></svg>