<?xml version="1.0" encoding="UTF-8" standalone="no"?><svg width="480px" height="480px" viewBox="0 0 480 480" version="1.1" xmlns="http://www.w3.org/2000/svg" xmlns:xlink="http://www.w3.org/1999/xlink" xmlns:sketch="http://www.bohemiancoding.com/sketch/ns"><title>Artboard 18</title><desc>Created with Sketch.</desc><defs/><g id="Page-1" stroke="none" stroke-width="1" fill="none" fill-rule="evenodd" sketch:type="MSPage"><g id="Artboard-18" sketch:type="MSArtboardGroup"><g id="Imported-Layers" sketch:type="MSLayerGroup" transform="translate(53.000000, 29.000000)"><path d="M124.931583,24.49 C159.112099,24.49 167.24283,69.9879459 234.672197,69.9879459 C277.222632,69.9879459 279.607825,52.3665405 299.217924,52.3665405 C307.234915,52.3665405 311.792874,67.7375135 311.792874,77.9876216 C311.792874,118.492054 301.412435,163.778865 308.15487,163.778865 C316.989785,163.778865 352.873054,140.567405 362.174637,140.567405 C371.009552,140.567405 370.777054,147.439351 370.777054,151.281676 C370.777054,155.125676 373.491758,222.244865 282.810942,275.122486 C278.85848,277.451676 259.636435,361.300811 191.895955,361.300811 C146.634161,361.300811 112.221148,336.77227 99.0457175,278.071676 C96.4096278,265.959892 -0.316130045,227.757838 -0.316130045,143.590324 C-0.316130045,125.110973 4.33382511,115.016703 11.4643139,115.016703 C29.2913722,115.016703 67.4243498,144.987838 83.8547489,144.987838 C98.0772556,144.987838 95.7907489,113.929189 95.7907489,104.612432 C95.7907489,95.294 95.0146413,24.49 124.931583,24.49" id="Fill-1" fill="#78C800" sketch:type="MSShapeGroup"/><path d="M282.223843,84.2261622 C276.061816,84.2261622 274.571489,87.4116216 272.383668,85.4209189 C271.390117,84.4238919 276.657278,82.1349189 276.657278,81.1395676 C276.657278,80.6418919 275.862771,80.7407568 274.770534,80.7407568 C268.309103,80.7407568 255.588632,90.1982703 253.800574,90.1982703 C253.006067,90.1982703 251.713112,90.3976757 251.713112,89.2029189 C251.713112,86.5151351 260.757108,84.2261622 254.496395,84.2261622 C248.235682,84.2261622 238.992641,92.2895135 229.353184,92.2895135 C209.477135,92.2895135 193.478278,76.6588108 193.478278,80.5413514 C193.478278,81.9355135 195.763112,84.1256216 197.253439,86.9139459 C197.253439,86.9139459 198.148305,91.0947568 196.458933,89.5011892 C178.223749,71.232973 159.986892,66.8024865 159.986892,66.8024865 C159.986892,66.8024865 158.595251,66.8024865 158.595251,67.399027 C158.595251,69.4902703 162.57113,72.2785946 162.57113,73.0745405 C162.57113,73.8704865 162.074354,74.3681622 161.278175,74.3681622 C157.402655,74.3681622 154.621045,66.9013514 139.018605,66.9013514 C115.464408,66.9013514 108.977888,104.037676 108.977888,134.503135 C108.977888,177.710432 136.732099,191.440919 159.689161,191.440919 C177.89591,191.440919 197.387251,180.688108 205.544744,164.899892 L229.774691,166.749838 C229.774691,166.749838 241.652148,189.302757 263.018525,189.302757 C283.070202,189.302757 300.509206,176.591081 300.509206,132.510757 C300.509206,86.2168649 288.384197,84.2261622 282.223843,84.2261622" id="Fill-2" fill="#8EE000" sketch:type="MSShapeGroup"/><path d="M188.211117,136.312865 C188.211117,157.17 174.32983,174.075892 157.208628,174.075892 C140.087426,174.075892 126.206139,157.17 126.206139,136.312865 C126.206139,115.457405 140.087426,98.5515135 157.208628,98.5515135 C174.32983,98.5515135 188.211117,115.457405 188.211117,136.312865" id="Fill-3" fill="#FFFFFF" sketch:type="MSShapeGroup"/><path d="M289.166996,143.442865 C288.186825,161.788162 275.804229,176.269351 261.513143,175.788432 C247.220386,175.305838 236.430148,160.043784 237.410318,141.696811 C238.392161,123.351514 250.773085,108.870324 265.065843,109.351243 C279.356928,109.833838 290.148839,125.097568 289.166996,143.442865" id="Fill-4" fill="#FFFFFF" sketch:type="MSShapeGroup"/><path d="M173.600556,136.312865 C173.600556,147.771135 165.976637,157.05773 156.57135,157.05773 C147.16439,157.05773 139.540471,147.771135 139.540471,136.312865 C139.540471,124.85627 147.16439,115.569676 156.57135,115.569676 C165.976637,115.569676 173.600556,124.85627 173.600556,136.312865" id="Fill-5" fill="#3F3F3F" sketch:type="MSShapeGroup"/><path d="M153.508735,123.153784 C153.508735,127.922757 149.937637,131.788541 145.531888,131.788541 C141.126139,131.788541 137.55504,127.922757 137.55504,123.153784 C137.55504,118.386486 141.126139,114.520703 145.531888,114.520703 C149.937637,114.520703 153.508735,118.386486 153.508735,123.153784" id="Fill-6" fill="#FFFFFF" sketch:type="MSShapeGroup"/><path d="M277.488583,143.437838 C276.710803,154.222486 269.515081,162.651135 261.419475,162.262378 C253.322197,161.875297 247.389323,152.816595 248.167103,142.031946 C248.944883,131.247297 256.140605,122.818649 264.237883,123.20573 C272.333489,123.594486 278.266363,132.653189 277.488583,143.437838" id="Fill-7" fill="#3F3F3F" sketch:type="MSShapeGroup"/><path d="M196.833605,179.843568 C196.833605,179.843568 191.852466,221.594703 205.489547,221.306486 C219.126628,221.01827 218.54622,201.010703 218.459242,200.772757 C218.37561,200.533135 196.833605,179.843568 196.833605,179.843568" id="Fill-8" fill="#71B200" sketch:type="MSShapeGroup"/><path d="M260.583152,130.878649 C260.721982,135.277297 257.66104,138.938649 253.747049,139.059297 C249.833058,139.179946 246.547982,135.712973 246.409152,131.316 C246.270323,126.919027 249.331265,123.256 253.245256,123.135351 C257.159247,123.014703 260.444323,126.481676 260.583152,130.878649" id="Fill-9" fill="#FFFFFF" sketch:type="MSShapeGroup"/><path d="M355.29839,205.45627 C337.384354,231.638703 299.890327,252.294757 293.738336,252.294757 C286.763404,252.294757 291.568915,244.839676 286.607848,244.839676 C282.113448,244.839676 281.183457,323.254595 201.041982,323.254595 C110.981717,323.254595 112.997256,229.932865 104.316224,229.932865 C97.9601704,229.932865 102.14513,243.598 95.3257534,243.598 C72.545991,243.598 11.8757848,197.473351 1.79140359,164.700486 C15.9386413,234.261135 96.6421256,267.02227 99.0457175,278.071676 C112.221148,336.77227 146.634161,361.300811 191.895955,361.300811 C259.636435,361.300811 278.85848,277.451676 282.810942,275.122486 C320.241408,253.296811 342.298587,227.958919 355.29839,205.45627" id="Fill-10" fill="#71B200" sketch:type="MSShapeGroup"/><path d="M196.835278,175.575622 C196.835278,175.575622 193.90313,206.104757 208.74117,206.104757 C223.577538,206.104757 230.952233,193.910865 230.952233,182.963676 C230.952233,172.016486 196.835278,175.575622 196.835278,175.575622" id="Fill-11" fill="#F49000" sketch:type="MSShapeGroup"/><path d="M219.134991,157.508486 C229.930247,157.508486 238.059305,170.057622 238.059305,182.474378 C238.059305,194.891135 227.931435,207.574324 224.599525,207.574324 C221.267614,207.574324 196.746628,184.743243 196.746628,174.997514 C196.746628,165.251784 206.074973,157.508486 219.134991,157.508486" id="Fill-12" fill="#FFC200" sketch:type="MSShapeGroup"/><path d="M225.919242,165.181405 C225.800484,167.341351 222.498682,168.914811 218.54622,168.695297 C214.592085,168.475784 211.484309,166.547081 211.603067,164.388811 C211.723498,162.228865 215.023628,160.655405 218.977762,160.874919 C222.930224,161.092757 226.039673,163.021459 225.919242,165.181405" id="Fill-13" fill="#FFF3B8" sketch:type="MSShapeGroup"/><path d="M178.518135,372.641784 C190.107897,372.031838 198.425964,374.505135 198.971247,384.929514 C199.516529,395.352216 185.397726,398.076865 177.890892,398.472324 C170.384058,398.866108 161.887018,395.476216 161.492274,387.955784 C161.099202,380.435351 168.049045,373.191405 178.518135,372.641784" id="Fill-14" fill="#D98500" sketch:type="MSShapeGroup"/><path d="M249.722664,351.327189 C260.785543,350.74573 261.019713,362.77373 261.06822,363.697027 C261.115054,364.620324 262.25078,376.202595 242.891578,377.21973 C230.642794,377.863189 231.015794,372.353568 230.873619,369.649027 C230.731444,366.944486 235.697529,352.064486 249.722664,351.327189" id="Fill-15" fill="#D98500" sketch:type="MSShapeGroup"/><path d="M320.801744,421.171027 C320.801744,427.743027 263.960224,433.07 193.83957,433.07 C123.720587,433.07 66.8790673,427.743027 66.8790673,421.171027 C66.8790673,414.599027 123.720587,409.270378 193.83957,409.270378 C263.960224,409.270378 320.801744,414.599027 320.801744,421.171027" id="Fill-16" fill="#D6D6D6" sketch:type="MSShapeGroup"/><path d="M124.931583,25.1200541 C117.72248,25.1200541 112.29809,29.2405405 108.213489,35.6131351 C131.255857,39.2225405 170.681789,67.1560541 197.116283,86.6625946 C195.627628,83.9932432 193.478278,81.8936216 193.478278,80.5413514 C193.478278,80.1123784 193.672305,79.9213514 194.046978,79.9213514 C197.061085,79.923027 211.674991,92.2895135 229.353184,92.2895135 C238.992641,92.2895135 248.235682,84.2261622 254.496395,84.2261622 C260.757108,84.2261622 251.713112,86.5151351 251.713112,89.2029189 C251.713112,89.7123243 251.948955,89.9687027 252.278466,90.0943784 C271.463713,78.9444324 295.663552,65.6177838 309.208637,63.7778919 C307.079359,57.7756216 303.687233,52.9965946 299.217924,52.9965946 C279.607825,52.9965946 277.222632,70.618 234.672197,70.618 C167.24283,70.618 159.112099,25.1200541 124.931583,25.1200541" id="Fill-17" fill="#6CB400" sketch:type="MSShapeGroup"/><path d="M194.046978,79.9213514 C193.672305,79.9213514 193.478278,80.1123784 193.478278,80.5413514 C193.478278,81.8936216 195.627628,83.9932432 197.116283,86.6625946 C211.820511,97.5125946 222.505372,105.755243 224.117803,105.755243 C226.066435,105.755243 237.729794,98.5498378 252.278466,90.0943784 C251.948955,89.9687027 251.713112,89.7123243 251.713112,89.2029189 C251.713112,86.5151351 260.757108,84.2261622 254.496395,84.2261622 C248.235682,84.2261622 238.992641,92.2895135 229.353184,92.2895135 C211.674991,92.2895135 197.061085,79.923027 194.046978,79.9213514" id="Fill-18" fill="#80C900" sketch:type="MSShapeGroup"/><path d="M155.592852,22.4624324 C155.592852,22.4624324 151.821036,33.4833514 151.821036,36.6336216 C151.821036,39.7822162 215.316341,93.0016757 223.018874,93.0016757 C230.719735,93.0016757 291.229368,56.9444865 291.229368,54.4259459 C291.229368,51.9057297 291.386596,40.4122703 291.386596,40.4122703 C291.386596,40.4122703 263.724381,29.2321622 262.62378,28.6037838 C261.524852,27.9737297 233.705408,26.5561081 230.405278,26.7136216 C227.105148,26.8711351 198.499561,23.0924865 194.727744,21.9898919 C190.955928,20.8872973 168.008901,12.8574595 166.122157,12.8574595 C164.237085,12.8574595 149.777063,14.2750811 149.777063,14.2750811 L155.592852,22.4624324" id="Fill-19" fill="#090909" sketch:type="MSShapeGroup"/><path d="M99.6411794,1.364 L223.17443,0.418918919 L340.423552,33.7983784 L339.322951,41.9874054 L228.361305,48.7571351 L98.6978072,7.97621622 L99.6411794,1.364" id="Fill-20" fill="#1E1E1E" sketch:type="MSShapeGroup"/><path d="M99.6411794,1.364 L223.17443,0.418918919 L340.423552,33.7983784 L339.322951,41.9874054 L228.361305,48.7571351 L98.6978072,7.97621622 L99.6411794,1.364" id="Fill-21" fill="#1E1E1E" sketch:type="MSShapeGroup"/><path d="M340.423552,33.7983784 L305.77135,23.9336757 L295.630099,28.2887568 L277.241031,25.296 C277.241031,25.296 264.667753,26.8711351 263.88161,27.1861622 C263.095466,27.5011892 255.551834,32.5399459 255.080148,32.5399459 C254.608462,32.5399459 241.406269,33.9558919 241.406269,33.9558919 L229.304677,33.4833514 L228.490099,48.7487568 L339.322951,41.9874054 L340.423552,33.7983784" id="Fill-22" fill="#000000" sketch:type="MSShapeGroup"/><path d="M104.583848,1.32545946 L229.304677,39.4671892 L338.635493,33.2906486 L223.17443,0.418918919 L104.583848,1.32545946" id="Fill-23" fill="#303030" sketch:type="MSShapeGroup"/><path d="M229.866686,12.8574595 C229.866686,12.8574595 252.251704,22.3836757 272.368614,25.9260541 C292.487197,29.4684324 282.427906,30.1772432 282.427906,30.1772432 L257.83165,28.6825405 L239.128126,24.6676216 L227.575161,22.4624324 L218.695085,19.7863784 L218.695085,15.2989189 C218.695085,14.9838919 224.982561,13.645027 224.982561,13.645027 L229.866686,12.8574595" id="Fill-24" fill="#D68F00" sketch:type="MSShapeGroup"/><path d="M362.164601,82.0327027 C357.554789,82.0327027 355.458964,79.8275135 355.458964,79.0935676 C355.458964,78.3579459 355.564341,77.4128649 357.345709,77.4128649 C362.479058,77.4128649 363.736888,73.6342162 363.736888,72.9002703 C363.736888,72.1646486 363.631511,71.0101081 362.375354,71.0101081 C359.439861,71.0101081 350.743776,74.9998919 346.866583,74.9998919 C344.702179,74.9998919 342.766928,73.8537297 341.478991,72.8416216 C342.365493,71.4658919 342.885686,69.8304324 342.885686,68.070973 C342.885686,63.2014595 338.944933,59.2535676 334.084224,59.2535676 C333.2847,59.2535676 332.515283,59.3691892 331.779318,59.5702703 L331.779318,59.5685946 C331.779318,59.5685946 319.938659,53.4808649 316.375924,44.138973 C315.223471,40.8848108 315.223471,33.0108108 306.945547,30.7017297 C298.669296,28.3926486 227.523309,19.2602162 221.761045,17.6867568 C215.997108,16.1116216 209.605928,7.92427027 208.873309,14.5364865 C208.873309,30.9648108 299.925453,32.2768649 305.478637,36.895027 C305.478637,36.895027 308.308753,38.3645946 308.308753,42.3543784 C308.308753,46.1145946 313.120955,57.0567568 326.358274,63.8449189 C325.672489,65.1 325.282762,66.5394054 325.282762,68.070973 C325.282762,72.5433514 328.609655,76.2298378 332.91839,76.8029189 C332.813013,78.4232973 332.721018,80.2162703 332.721018,81.6121081 C332.721018,84.9718378 334.084224,95.7832973 348.544247,95.7832973 C363.002596,95.7832973 365.307502,85.1812973 365.307502,84.1323243 C365.307502,83.0816757 366.774413,82.0327027 362.164601,82.0327027" id="Fill-25" fill="#FCAE00" sketch:type="MSShapeGroup"/><path d="M237.370175,15.2938919 C237.129314,18.0202162 230.631085,19.6724324 222.854955,18.9854054 C215.078825,18.2983784 208.970323,15.5318378 209.209511,12.8055135 C209.450372,10.0791892 215.948601,8.42697297 223.724731,9.114 C231.500861,9.80102703 237.609363,12.5675676 237.370175,15.2938919" id="Fill-26" fill="#000000" sketch:type="MSShapeGroup"/><path d="M305.881744,170.218486 C277.751188,226.563081 207.334475,261.475784 201.329677,261.475784 C197.77865,261.475784 193.911493,260.525676 191.287112,259.726378 C197.214969,262.752649 202.647722,264.468541 207.301022,264.468541 C232.318785,264.468541 285.207843,212.195838 302.55987,179.250378 C304.097031,175.979459 305.22774,172.941459 305.881744,170.218486" id="Fill-27" fill="#6CB400" sketch:type="MSShapeGroup"/><path d="M80.832278,346.553189 C80.832278,346.553189 77.3749193,351.906973 70.8783632,351.906973 C64.3818072,351.906973 64.0690224,349.282865 62.3913587,349.282865 C60.7153677,349.282865 60.1918296,350.122378 60.1918296,351.173027 C60.1918296,352.222 63.8582691,355.476162 69.4114529,355.476162 C71.2981973,355.476162 73.079565,355.266703 73.079565,356.211784 C73.079565,357.155189 70.6692825,358.520865 67.0011704,358.520865 C63.3347309,358.520865 59.3538341,359.360378 59.3538341,364.293568 C59.3538341,369.226757 65.7450135,373.320432 72.3452735,373.320432 C78.9472063,373.320432 89.5300359,364.608595 89.5300359,353.061514 C89.5300359,341.516108 80.832278,346.553189 80.832278,346.553189" id="Fill-28" fill="#FCAE00" sketch:type="MSShapeGroup"/><path d="M40.2304753,118.03627 C52.8037534,118.03627 69.1488475,142.442486 88.1668296,142.442486 C88.1668296,161.020703 171.151803,264.468541 207.301022,264.468541 C237.477224,264.468541 308.203377,188.418 308.203377,161.965784 C309.618435,160.234811 331.307632,144.803514 336.337278,144.803514 C341.365251,144.803514 348.264915,160.085676 348.753327,173.145892 C349.225013,185.741946 352.367915,243.998486 341.209695,264.626054 C334.136076,275.804486 294.843955,270.923243 285.728036,278.324703 C263.252695,299.895676 283.685735,348.704757 214.530197,348.704757 C152.764408,348.704757 107.027583,328.708919 92.5675605,313.436811 C88.3240583,308.240541 98.8550359,288.558054 92.5675605,281.788324 C76.5369238,268.247189 33.3157578,275.331946 24.8287534,269.507297 C21.6841794,266.514541 21.2141659,260.059838 21.2141659,252.03 C21.2141659,243.998486 24.6715247,213.452595 24.6715247,213.452595 L36.6158879,227.46627 C36.6158879,227.46627 41.959991,203.849297 41.959991,183.379243 C41.959991,162.910865 42.2744484,128.113784 42.2744484,128.113784 L35.515287,124.650162 C35.515287,124.650162 37.8737175,118.03627 40.2304753,118.03627" id="Fill-29" fill="#303030" sketch:type="MSShapeGroup"/><path d="M306.442081,167.012919 C306.340049,168.025027 306.15104,169.094108 305.881744,170.218486 C306.197874,169.586757 306.507314,168.953351 306.811735,168.316595 C306.682942,167.859135 306.559166,167.425135 306.442081,167.012919" id="Fill-30" fill="#548C00" sketch:type="MSShapeGroup"/><path d="M306.811735,168.316595 C306.507314,168.953351 306.197874,169.586757 305.881744,170.218486 C305.22774,172.941459 304.097031,175.979459 302.55987,179.250378 C302.939561,178.531514 303.300852,177.821027 303.645417,177.120595 C303.645417,177.118919 303.643744,177.115568 303.642072,177.115568 C305.078874,174.191514 306.20791,171.445081 306.982345,168.924865 C306.923803,168.717081 306.866933,168.514324 306.811735,168.316595" id="Fill-31" fill="#4B7E00" sketch:type="MSShapeGroup"/><path d="M110.491632,229.549135 C110.446471,231.404108 110.359493,233.207135 110.242408,234.933081 C111.478493,236.670757 112.744686,238.384973 114.034296,240.067351 C113.965717,238.002919 113.848632,235.992108 113.686386,234.028216 C112.599166,232.555297 111.535363,231.06227 110.491632,229.549135 M304.240879,220.388216 C276.934937,272.959189 209.453717,306.090649 205.456094,306.090649 C201.207574,306.090649 156.409103,284.301838 122.875901,245.513297 C122.840776,247.234216 122.772197,248.909892 122.671839,250.543676 C156.029413,288.279892 199.596816,309.442 203.783448,309.442 C207.864704,309.442 278.135897,274.897946 304.240879,220.388216 M84.1625157,161.892054 C84.4217758,167.084973 84.8767354,172.579514 85.5842646,177.063622 C88.1467578,193.32773 94.0177444,208.306595 101.850744,221.88627 C101.434256,218.684054 100.842139,215.485189 100.122901,212.306432 C93.9976726,200.414162 89.4330224,187.526541 87.2569103,173.71227 C87.144843,173.001784 87.0394664,172.266162 86.9391076,171.508757 C85.8502152,168.177514 84.8951345,164.960216 84.1625157,161.892054" id="Fill-32" fill="#222222" sketch:type="MSShapeGroup"/><path d="M315.573054,176.503946 C315.573054,169.280108 311.985229,164.685405 308.276973,161.888703 L308.203377,161.965784 C308.203377,188.418 237.477224,264.468541 207.301022,264.468541 C171.151803,264.468541 88.1668296,161.020703 88.1668296,142.442486 C87.3522511,142.442486 86.5460359,142.382162 85.7414933,142.296703 C85.3149686,146.814324 85.5842646,163.098541 87.2569103,173.71227 C100.300202,256.470541 199.044843,306.090649 205.456094,306.090649 C210.474031,306.090649 315.573054,253.864865 315.573054,176.503946" id="Fill-33" fill="#A359A5" sketch:type="MSShapeGroup"/><path d="M82.725713,141.795676 L82.725713,141.800703 C83.4248789,141.961568 84.1273901,142.095622 84.8349193,142.197838 L84.8349193,142.194486 C84.1273901,142.090595 83.4248789,141.958216 82.725713,141.795676" id="Fill-34" fill="#B2B2B2" sketch:type="MSShapeGroup"/><path d="M82.725713,141.800703 C82.6705157,143.855081 82.6136457,146.871297 82.6136457,150.576216 C82.6136457,154.061622 83.1957265,157.850324 84.1625157,161.892054 C83.8079148,154.792216 83.8229686,148.257081 84.0688475,145.648054 C84.2344395,145.664811 84.401704,145.681568 84.567296,145.696649 C84.5940583,144.768324 84.6626368,143.511568 84.8349193,142.197838 C84.1273901,142.095622 83.4248789,141.961568 82.725713,141.800703" id="Fill-35" fill="#222222" sketch:type="MSShapeGroup"/><path d="M84.0688475,145.648054 C83.8229686,148.257081 83.8079148,154.792216 84.1625157,161.892054 C84.8951345,164.960216 85.8502152,168.177514 86.9391076,171.508757 C86.3269193,166.865459 85.9455561,161.461405 85.7431659,156.506432 C84.9837848,153.436595 84.5522422,150.343297 84.5522422,147.166216 C84.5522422,146.985243 84.5472242,146.447351 84.567296,145.696649 C84.401704,145.681568 84.2344395,145.664811 84.0688475,145.648054" id="Fill-36" fill="#181818" sketch:type="MSShapeGroup"/><path d="M36.7597354,226.814432 C36.6727578,227.209892 36.6242511,227.432757 36.6175605,227.462919 C36.6242511,227.432757 36.6744305,227.209892 36.7597354,226.814432" id="Fill-37" fill="#B2B2B2" sketch:type="MSShapeGroup"/><path d="M36.7597354,226.812757 L36.7597354,226.814432 L36.7597354,226.812757" id="Fill-38" fill="#548C00" sketch:type="MSShapeGroup"/><path d="M38.4206726,218.273514 C37.6780179,222.464378 37.035722,225.535892 36.7597354,226.812757 C37.035722,225.535892 37.6780179,222.46773 38.4206726,218.275189 L38.4206726,218.273514" id="Fill-39" fill="#4F7C00" sketch:type="MSShapeGroup"/><path d="M120.114363,268.124865 C114.556161,291.460324 102.08157,303.952486 95.7020987,316.401081 C100.91239,320.871784 108.559726,325.597189 118.292852,330.012595 C117.180543,327.685081 116.143502,324.838108 116.143502,322.306162 C116.143502,317.007676 119.893574,299.842054 120.114363,268.124865 M24.6715247,213.452595 C24.6715247,213.452595 21.2141659,243.998486 21.2141659,252.03 C21.2141659,260.059838 21.6841794,266.514541 24.8287534,269.507297 C33.3157578,275.331946 76.5369238,268.247189 92.5675605,281.788324 C94.0913408,283.427135 94.6265874,285.825027 94.6249148,288.589892 C94.6215695,295.223892 91.5238296,303.977622 91.5271749,309.473838 C91.5288475,309.535838 91.5288475,309.596162 91.5288475,309.656486 C98.9654305,296.532595 110.486614,283.117135 113.408726,257.035243 C111.913381,254.431243 110.550175,252.172432 107.761874,251.136865 C108.581471,248.764108 109.717197,242.621081 110.242408,234.933081 C107.261753,230.742216 104.448363,226.390486 101.850744,221.88627 C102.280614,225.199081 102.521475,228.515243 102.521475,231.823027 C102.521475,238.852486 101.287063,248.204432 98.4619641,248.204432 C98.4184753,248.204432 98.3749865,248.202757 98.3314978,248.19773 C86.8270404,247.044865 56.9100987,234.817459 38.4206726,218.273514 C37.6780179,222.46773 37.035722,225.535892 36.7597354,226.812757 L36.7597354,226.814432 C36.6744305,227.209892 36.6242511,227.432757 36.6175605,227.462919 L36.6158879,227.46627 L24.6715247,213.452595" id="Fill-40" fill="#222222" sketch:type="MSShapeGroup"/><path d="M100.122901,212.306432 C100.842139,215.485189 101.434256,218.684054 101.850744,221.88627 C104.448363,226.390486 107.261753,230.742216 110.242408,234.933081 C110.359493,233.207135 110.446471,231.404108 110.491632,229.549135 C106.70978,224.064649 103.215623,218.310378 100.122901,212.306432" id="Fill-41" fill="#181818" sketch:type="MSShapeGroup"/><path d="M85.7431659,156.506432 C85.9455561,161.461405 86.3269193,166.865459 86.9391076,171.508757 C90.9802197,183.883622 96.8629148,197.905676 100.122901,212.306432 C103.215623,218.310378 106.70978,224.064649 110.491632,229.549135 C110.63548,223.598811 110.356148,217.108919 109.304054,210.907243 C102.293996,187.608649 89.6588296,172.354973 85.7431659,156.506432" id="Fill-42" fill="#723E73" sketch:type="MSShapeGroup"/><path d="M283.831256,280.320432 L283.829583,280.323784 C283.831256,280.322108 283.831256,280.322108 283.831256,280.320432 M283.891471,280.25173 C283.888126,280.255081 283.888126,280.256757 283.883108,280.260108 C283.886453,280.256757 283.888126,280.255081 283.891471,280.25173 M283.948341,280.186378 C283.948341,280.188054 283.944996,280.191405 283.943323,280.193081 C283.944996,280.18973 283.946668,280.188054 283.948341,280.186378 M284.0487,280.072432 C284.043682,280.077459 284.038664,280.085838 284.033646,280.090865 C284.036991,280.085838 284.045354,280.077459 284.0487,280.072432 M284.107242,280.007081 C284.102224,280.013784 284.095534,280.020486 284.088843,280.027189 C284.097206,280.018811 284.100552,280.013784 284.107242,280.007081 M284.165785,279.94173 C284.157422,279.950108 284.150731,279.958486 284.142368,279.968541 C284.150731,279.958486 284.157422,279.950108 284.165785,279.94173 M284.222655,279.87973 C284.212619,279.889784 284.204256,279.898162 284.195892,279.908216 C284.205928,279.898162 284.212619,279.889784 284.222655,279.87973 M284.281197,279.814378 C284.267816,279.827784 284.25778,279.839514 284.244399,279.852919 C284.256108,279.841189 284.269489,279.826108 284.281197,279.814378 M284.33974,279.749027 C284.326359,279.764108 284.31465,279.777514 284.301269,279.792595 C284.312978,279.779189 284.328031,279.762432 284.33974,279.749027 M284.393265,279.690378 C284.379883,279.703784 284.368175,279.718865 284.354794,279.73227 C284.368175,279.718865 284.379883,279.703784 284.393265,279.690378 M284.446789,279.63173 C284.435081,279.645135 284.423372,279.656865 284.411664,279.671946 C284.4217,279.658541 284.435081,279.645135 284.446789,279.63173 M284.503659,279.56973 C284.490278,279.584811 284.476897,279.599892 284.461843,279.614973 C284.476897,279.599892 284.490278,279.584811 284.503659,279.56973 M284.562202,279.50773 C284.547148,279.524486 284.532094,279.539568 284.51704,279.556324 C284.532094,279.539568 284.547148,279.524486 284.562202,279.50773 M284.619072,279.44573 C284.604018,279.462486 284.588964,279.479243 284.57391,279.496 C284.588964,279.479243 284.604018,279.462486 284.619072,279.44573 M284.677614,279.38373 C284.662561,279.400486 284.645834,279.418919 284.63078,279.434 C284.645834,279.418919 284.662561,279.400486 284.677614,279.38373 M284.736157,279.32173 C284.71943,279.340162 284.704377,279.356919 284.68765,279.373676 C284.704377,279.356919 284.71943,279.340162 284.736157,279.32173 M284.793027,279.263081 C284.7763,279.281514 284.756229,279.301622 284.739502,279.320054 C284.756229,279.301622 284.774628,279.281514 284.793027,279.263081 M284.846552,279.206108 C284.829825,279.224541 284.811426,279.242973 284.7947,279.261405 C284.813099,279.242973 284.828152,279.224541 284.846552,279.206108 M284.905094,279.145784 C284.888368,279.164216 284.869969,279.182649 284.853242,279.199405 C284.869969,279.182649 284.888368,279.162541 284.905094,279.145784 M284.961964,279.087135 C284.945238,279.103892 284.928511,279.122324 284.911785,279.139081 C284.928511,279.122324 284.945238,279.103892 284.961964,279.087135 M285.022179,279.025135 C285.005453,279.041892 284.987054,279.062 284.968655,279.078757 C284.987054,279.060324 285.00378,279.043568 285.022179,279.025135 M285.080722,278.964811 C285.06065,278.986595 285.042251,279.003351 285.023852,279.023459 C285.042251,279.003351 285.06065,278.984919 285.080722,278.964811 M285.135919,278.909514 C285.11752,278.92627 285.097448,278.948054 285.080722,278.964811 C285.099121,278.946378 285.11752,278.927946 285.135919,278.909514 M285.192789,278.850865 C285.17439,278.869297 285.157664,278.88773 285.139265,278.904486 C285.157664,278.886054 285.17439,278.870973 285.192789,278.850865 M285.253004,278.790541 C285.236278,278.807297 285.217879,278.82573 285.19948,278.844162 C285.217879,278.82573 285.234605,278.808973 285.253004,278.790541 M285.311547,278.731892 C285.293148,278.750324 285.274749,278.768757 285.25635,278.787189 C285.276422,278.767081 285.291475,278.752 285.311547,278.731892 M285.487175,278.557622 C285.430305,278.612919 285.371762,278.671568 285.316565,278.728541 C285.371762,278.671568 285.430305,278.612919 285.487175,278.557622 M285.545717,278.500649 C285.528991,278.517405 285.508919,278.537514 285.49052,278.55427 C285.508919,278.535838 285.527318,278.519081 285.545717,278.500649 M285.605933,278.442 C285.587534,278.458757 285.569135,278.477189 285.552408,278.493946 C285.569135,278.477189 285.587534,278.458757 285.605933,278.442 M285.667821,278.383351 C285.649422,278.400108 285.631022,278.418541 285.612623,278.435297 C285.631022,278.416865 285.647749,278.400108 285.667821,278.383351 M285.728036,278.324703 C285.709637,278.343135 285.689565,278.361568 285.671166,278.38 C285.689565,278.361568 285.709637,278.341459 285.728036,278.324703" id="Fill-43" fill="#B2B2B2" sketch:type="MSShapeGroup"/><path d="M312.644251,198.854108 C311.500161,203.219243 310.041614,207.488865 308.322135,211.642865 C308.345552,229.126865 308.200031,245.040757 305.164179,248.618324 C302.67361,251.554108 298.130704,253.670486 294.54957,253.670486 C293.010735,253.670486 291.650874,253.280054 290.70583,252.396973 C289.872852,251.617784 288.892682,251.120108 287.78539,251.120108 C284.71274,251.120108 280.656574,254.957405 276.036726,267.302108 C269.978404,283.487459 253.992928,330.666108 230.898709,347.600486 C278.766484,340.495622 266.168117,300.710054 283.829583,280.323784 L283.831256,280.320432 C283.847982,280.302 283.866381,280.280216 283.883108,280.260108 C283.888126,280.256757 283.888126,280.255081 283.891471,280.25173 C283.908197,280.231622 283.926596,280.211514 283.943323,280.193081 C283.944996,280.191405 283.948341,280.188054 283.948341,280.186378 C283.976776,280.154541 284.005211,280.122703 284.033646,280.090865 C284.038664,280.085838 284.043682,280.077459 284.0487,280.072432 C284.062081,280.057351 284.075462,280.04227 284.088843,280.027189 C284.095534,280.020486 284.102224,280.013784 284.107242,280.007081 C284.118951,279.993676 284.130659,279.98027 284.142368,279.968541 C284.150731,279.958486 284.157422,279.950108 284.165785,279.94173 C284.174148,279.931676 284.187529,279.91827 284.195892,279.908216 C284.204256,279.898162 284.212619,279.889784 284.222655,279.87973 C284.229345,279.869676 284.237709,279.862973 284.244399,279.852919 C284.25778,279.839514 284.267816,279.827784 284.281197,279.814378 C284.287888,279.806 284.292906,279.799297 284.301269,279.792595 C284.31465,279.777514 284.326359,279.764108 284.33974,279.749027 C284.344758,279.742324 284.349776,279.738973 284.354794,279.73227 C284.368175,279.718865 284.379883,279.703784 284.393265,279.690378 C284.398283,279.683676 284.404973,279.676973 284.411664,279.671946 C284.423372,279.656865 284.435081,279.645135 284.446789,279.63173 C284.45348,279.625027 284.456825,279.621676 284.461843,279.614973 C284.476897,279.599892 284.490278,279.584811 284.503659,279.56973 C284.507004,279.566378 284.513695,279.559676 284.51704,279.556324 C284.532094,279.539568 284.547148,279.524486 284.562202,279.50773 C284.56722,279.502703 284.568892,279.501027 284.57391,279.496 C284.588964,279.479243 284.604018,279.462486 284.619072,279.44573 C284.622417,279.442378 284.627435,279.437351 284.63078,279.434 C284.645834,279.418919 284.662561,279.400486 284.677614,279.38373 C284.68096,279.380378 284.684305,279.378703 284.68765,279.373676 C284.704377,279.356919 284.71943,279.340162 284.736157,279.32173 C284.73783,279.32173 284.73783,279.320054 284.739502,279.320054 C284.756229,279.301622 284.7763,279.281514 284.793027,279.263081 L284.7947,279.261405 C284.811426,279.242973 284.829825,279.224541 284.846552,279.206108 C284.849897,279.204432 284.85157,279.201081 284.853242,279.199405 C284.869969,279.182649 284.888368,279.164216 284.905094,279.145784 C284.906767,279.144108 284.908439,279.142432 284.911785,279.139081 C284.928511,279.122324 284.945238,279.103892 284.961964,279.087135 C284.965309,279.083784 284.966982,279.082108 284.968655,279.078757 C284.987054,279.062 285.005453,279.041892 285.022179,279.025135 L285.023852,279.023459 C285.042251,279.003351 285.06065,278.986595 285.080722,278.964811 C285.097448,278.948054 285.11752,278.92627 285.135919,278.909514 C285.137592,278.907838 285.139265,278.906162 285.139265,278.904486 C285.157664,278.88773 285.17439,278.869297 285.192789,278.850865 C285.194462,278.849189 285.197807,278.845838 285.19948,278.844162 C285.217879,278.82573 285.236278,278.807297 285.253004,278.790541 L285.25635,278.787189 C285.274749,278.768757 285.293148,278.750324 285.311547,278.731892 C285.31322,278.730216 285.314892,278.728541 285.316565,278.728541 C285.371762,278.671568 285.430305,278.612919 285.487175,278.557622 C285.488848,278.555946 285.49052,278.555946 285.49052,278.55427 C285.508919,278.537514 285.528991,278.517405 285.545717,278.500649 C285.549063,278.497297 285.549063,278.497297 285.552408,278.493946 C285.569135,278.477189 285.587534,278.458757 285.605933,278.442 C285.607605,278.440324 285.609278,278.438649 285.612623,278.435297 C285.631022,278.418541 285.649422,278.400108 285.667821,278.383351 C285.667821,278.381676 285.669493,278.38 285.671166,278.38 C285.689565,278.361568 285.709637,278.343135 285.728036,278.324703 C289.120161,275.569892 296.690556,274.517568 305.222722,273.704865 C309.695377,258.630486 313.756561,241.778216 313.756561,221.639946 C313.756561,213.047081 313.32,205.471351 312.644251,198.854108" id="Fill-44" fill="#222222" sketch:type="MSShapeGroup"/><path d="M306.982345,168.924865 C306.20791,171.445081 305.078874,174.191514 303.642072,177.115568 C303.643744,177.115568 303.645417,177.118919 303.645417,177.120595 C305.080547,174.199892 306.209583,171.455135 306.985691,168.936595 C306.984018,168.931568 306.984018,168.928216 306.982345,168.924865" id="Fill-45" fill="#345800" sketch:type="MSShapeGroup"/><path d="M306.985691,168.936595 C306.209583,171.455135 305.080547,174.199892 303.645417,177.120595 C305.567287,181.011514 308.308753,188.927405 308.308753,202.431676 C308.308753,205.511568 308.317117,208.601514 308.322135,211.642865 C310.041614,207.488865 311.500161,203.219243 312.644251,198.854108 C311.204103,184.726486 308.675063,174.958973 306.985691,168.936595" id="Fill-46" fill="#723E73" sketch:type="MSShapeGroup"/><path d="M341.23813,264.570757 C341.228094,264.589189 341.219731,264.607622 341.209695,264.626054 C341.218058,264.607622 341.229767,264.589189 341.23813,264.570757 M341.26991,264.513784 C341.261547,264.527189 341.254857,264.538919 341.248166,264.554 C341.254857,264.540595 341.261547,264.527189 341.26991,264.513784 M341.301691,264.453459 C341.295,264.465189 341.286637,264.481946 341.279946,264.493676 C341.286637,264.48027 341.295,264.466865 341.301691,264.453459 M341.336816,264.386432 C341.32678,264.404865 341.318417,264.421622 341.308381,264.438378 C341.318417,264.421622 341.32678,264.404865 341.336816,264.386432 M341.371942,264.321081 C341.360233,264.341189 341.350197,264.361297 341.340161,264.381405 C341.350197,264.361297 341.360233,264.341189 341.371942,264.321081 M341.400377,264.264108 C341.390341,264.284216 341.381978,264.300973 341.371942,264.319405 C341.381978,264.300973 341.392013,264.282541 341.400377,264.264108 M341.43383,264.202108 C341.423794,264.218865 341.41543,264.235622 341.407067,264.252378 C341.41543,264.235622 341.423794,264.218865 341.43383,264.202108 M341.46561,264.138432 C341.457247,264.156865 341.447211,264.175297 341.437175,264.19373 C341.447211,264.175297 341.457247,264.156865 341.46561,264.138432 M341.530843,264.012757 C341.509099,264.054649 341.489027,264.093189 341.468955,264.135081 C341.489027,264.094865 341.510771,264.052973 341.530843,264.012757 M341.562623,263.949081 C341.552587,263.969189 341.544224,263.987622 341.532516,264.00773 C341.544224,263.987622 341.552587,263.969189 341.562623,263.949081 M346.235996,248.857946 C345.088561,254.789838 343.566453,259.994486 341.564296,263.947405 C343.566453,259.992811 345.088561,254.789838 346.235996,248.857946 M346.254395,248.762432 C346.249377,248.790919 346.244359,248.81773 346.237668,248.846216 C346.244359,248.81773 346.249377,248.790919 346.254395,248.762432 M346.272794,248.666919 C346.267776,248.698757 346.261085,248.727243 346.256067,248.759081 C346.261085,248.727243 346.267776,248.697081 346.272794,248.666919 M346.307919,248.482595 C346.296211,248.542919 346.284502,248.603243 346.272794,248.665243 C346.284502,248.603243 346.296211,248.542919 346.307919,248.482595 M346.326318,248.388757 C346.3213,248.413892 346.316283,248.437351 346.311265,248.462486 C346.316283,248.437351 346.3213,248.413892 346.326318,248.388757 M346.343045,248.296595 C346.338027,248.32173 346.333009,248.348541 346.329664,248.373676 C346.333009,248.348541 346.338027,248.32173 346.343045,248.296595 M346.379843,248.100541 C346.368135,248.160865 346.356426,248.222865 346.34639,248.281514 C346.358099,248.221189 346.368135,248.160865 346.379843,248.100541 M346.39657,248.01173 C346.393224,248.033514 346.388206,248.060324 346.383188,248.082108 C346.388206,248.058649 346.391552,248.035189 346.39657,248.01173 M346.413296,247.919568 C346.408278,247.943027 346.404933,247.963135 346.401587,247.986595 C346.404933,247.964811 346.409951,247.943027 346.413296,247.919568 M346.450094,247.721838 C346.438386,247.780486 346.42835,247.837459 346.418314,247.897784 C346.42835,247.839135 346.438386,247.780486 346.450094,247.721838 M346.466821,247.631351 C346.463475,247.651459 346.46013,247.668216 346.456785,247.688324 C346.46013,247.668216 346.463475,247.651459 346.466821,247.631351 M346.481874,247.542541 C346.478529,247.560973 346.475184,247.579405 346.471839,247.597838 C346.475184,247.579405 346.478529,247.560973 346.481874,247.542541 M346.498601,247.452054 C346.495256,247.470486 346.49191,247.490595 346.488565,247.507351 C346.49191,247.488919 346.495256,247.470486 346.498601,247.452054 M346.510309,247.385027 C346.508637,247.395081 346.506964,247.406811 346.505291,247.416865 C346.506964,247.406811 346.508637,247.396757 346.510309,247.385027 M346.550453,247.168865 C346.54878,247.177243 346.547108,247.183946 346.545435,247.192324 C346.547108,247.183946 346.54878,247.177243 346.550453,247.168865 M346.563834,247.090108 C346.562161,247.093459 346.562161,247.101838 346.560489,247.105189 C346.562161,247.100162 346.562161,247.095135 346.563834,247.090108 M346.577215,247.016378 C346.577215,247.018054 346.575543,247.021405 346.575543,247.023081 C346.575543,247.01973 346.577215,247.018054 346.577215,247.016378 M346.603978,246.863892 C346.603978,246.865568 346.603978,246.865568 346.602305,246.867243 C346.603978,246.865568 346.603978,246.865568 346.603978,246.863892 M346.617359,246.785135 C346.617359,246.786811 346.617359,246.785135 346.617359,246.786811 C346.617359,246.786811 346.617359,246.786811 346.617359,246.785135" id="Fill-47" fill="#B2B2B2" sketch:type="MSShapeGroup"/><path d="M348.863722,226.470919 C345.317713,229.902703 335.044323,238.979838 320.932211,243.988432 C319.374978,254.344108 316.99313,263.923946 314.432309,272.87373 C326.211081,271.772811 337.692121,270.18427 341.209695,264.626054 C341.219731,264.607622 341.228094,264.589189 341.23813,264.570757 C341.241475,264.564054 341.244821,264.559027 341.248166,264.554 C341.254857,264.538919 341.261547,264.527189 341.26991,264.513784 C341.273256,264.507081 341.276601,264.500378 341.279946,264.493676 C341.286637,264.481946 341.295,264.465189 341.301691,264.453459 C341.303363,264.448432 341.306709,264.443405 341.308381,264.438378 C341.318417,264.421622 341.32678,264.404865 341.336816,264.386432 C341.336816,264.384757 341.338489,264.383081 341.340161,264.381405 C341.350197,264.361297 341.360233,264.341189 341.371942,264.321081 C341.370269,264.321081 341.371942,264.321081 341.371942,264.319405 C341.381978,264.300973 341.390341,264.284216 341.400377,264.264108 C341.403722,264.260757 341.405395,264.257405 341.407067,264.252378 C341.41543,264.235622 341.423794,264.218865 341.43383,264.202108 C341.43383,264.200432 341.437175,264.197081 341.437175,264.19373 C341.447211,264.175297 341.457247,264.156865 341.46561,264.138432 C341.467283,264.138432 341.467283,264.136757 341.468955,264.135081 C341.489027,264.093189 341.509099,264.054649 341.530843,264.012757 C341.532516,264.011081 341.532516,264.009405 341.532516,264.00773 C341.544224,263.987622 341.552587,263.969189 341.562623,263.949081 L341.564296,263.947405 C343.566453,259.994486 345.088561,254.789838 346.235996,248.857946 C346.237668,248.854595 346.237668,248.849568 346.237668,248.846216 C346.244359,248.81773 346.249377,248.790919 346.254395,248.762432 C346.254395,248.760757 346.256067,248.759081 346.256067,248.759081 C346.261085,248.727243 346.267776,248.698757 346.272794,248.666919 L346.272794,248.665243 C346.284502,248.603243 346.296211,248.542919 346.307919,248.482595 C346.309592,248.475892 346.311265,248.469189 346.311265,248.462486 C346.316283,248.437351 346.3213,248.413892 346.326318,248.388757 C346.327991,248.38373 346.327991,248.380378 346.329664,248.373676 C346.333009,248.348541 346.338027,248.32173 346.343045,248.296595 C346.344717,248.291568 346.344717,248.286541 346.34639,248.281514 C346.356426,248.222865 346.368135,248.160865 346.379843,248.100541 C346.381516,248.093838 346.383188,248.088811 346.383188,248.082108 C346.388206,248.060324 346.393224,248.033514 346.39657,248.01173 C346.398242,248.005027 346.399915,247.994973 346.401587,247.986595 C346.404933,247.963135 346.408278,247.943027 346.413296,247.919568 C346.414969,247.912865 346.416641,247.904486 346.418314,247.897784 C346.42835,247.837459 346.438386,247.780486 346.450094,247.721838 C346.451767,247.710108 346.455112,247.698378 346.456785,247.688324 C346.46013,247.668216 346.463475,247.651459 346.466821,247.631351 C346.468493,247.619622 346.470166,247.609568 346.471839,247.597838 C346.475184,247.579405 346.478529,247.560973 346.481874,247.542541 C346.48522,247.532486 346.486892,247.519081 346.488565,247.507351 C346.49191,247.490595 346.495256,247.470486 346.498601,247.452054 C346.500274,247.440324 346.503619,247.43027 346.505291,247.416865 C346.506964,247.406811 346.508637,247.395081 346.510309,247.385027 C346.522018,247.321351 346.533726,247.256 346.545435,247.192324 C346.547108,247.183946 346.54878,247.177243 346.550453,247.168865 C346.553798,247.147081 346.557143,247.126973 346.560489,247.105189 C346.562161,247.101838 346.562161,247.093459 346.563834,247.090108 C346.567179,247.068324 346.572197,247.044865 346.575543,247.023081 C346.575543,247.021405 346.577215,247.018054 346.577215,247.016378 C346.585578,246.966108 346.593942,246.917514 346.602305,246.867243 C346.603978,246.865568 346.603978,246.865568 346.603978,246.863892 C346.607323,246.838757 346.612341,246.813622 346.617359,246.786811 C346.617359,246.785135 346.617359,246.786811 346.617359,246.785135 C347.709596,240.528162 348.418798,233.569081 348.863722,226.470919" id="Fill-48" fill="#222222" sketch:type="MSShapeGroup"/><path d="M27.2791794,270.606541 C33.2873229,262.541514 37.2548386,231.301892 38.9408655,215.238865 C37.72987,222.536432 36.6158879,227.46627 36.6158879,227.46627 L24.6715247,213.452595 C24.6715247,213.452595 21.2141659,243.998486 21.2141659,252.03 C21.2141659,260.059838 21.6841794,266.514541 24.8287534,269.507297 C25.4610135,269.941297 26.2889731,270.301568 27.2791794,270.606541" id="Fill-49" fill="#000000" sketch:type="MSShapeGroup"/><path d="M305.175888,344.11173 C303.317578,339.935946 301.812197,333.444378 301.812197,325.875351 C301.812197,298.687514 322.767103,266.357027 322.767103,219.960919 C322.767103,184.062919 311.557031,154.145405 306.422009,154.145405 C306.107552,154.145405 305.269556,154.354865 305.269556,162.019405 C305.269556,165.692486 313.756561,183.747892 313.756561,221.639946 C313.756561,266.462595 293.63965,295.014432 293.63965,323.881297 C293.63965,333.777838 296.248978,342.657243 297.956749,347.412811 C296.859493,348.845514 296.180399,350.616703 296.180399,352.563838 C296.180399,357.259081 299.978978,361.066216 304.667404,361.066216 C309.354157,361.066216 313.154408,357.259081 313.154408,352.563838 C313.154408,348.042865 309.62178,344.381514 305.175888,344.11173" id="Fill-50" fill="#FCAE00" sketch:type="MSShapeGroup"/><path d="M310.245677,354.137297 C310.245677,354.137297 311.189049,356.73627 316.454538,356.73627 C321.720027,356.73627 324.862928,351.855027 326.671058,351.855027 C328.477516,351.855027 328.634744,352.327568 328.634744,353.351405 C328.634744,354.373568 323.44787,357.523838 323.44787,358.152216 C323.44787,358.78227 327.769987,356.342486 329.971188,356.342486 C332.17239,356.342486 332.408233,357.915946 332.408233,358.78227 C332.408233,359.648595 332.563789,362.247568 324.469857,362.247568 C322.584785,362.247568 322.113099,361.617514 321.484184,361.617514 C320.855269,361.617514 321.877256,364.136054 326.042143,364.136054 C330.207031,364.136054 331.307632,364.372324 331.307632,366.65627 C331.307632,368.938541 328.241673,380.274486 318.184054,380.274486 C308.124762,380.274486 303.173731,365.553676 303.173731,360.121135 C303.173731,354.688595 310.245677,354.137297 310.245677,354.137297" id="Fill-51" fill="#FCAE00" sketch:type="MSShapeGroup"/><path d="M91.781417,339.022703 L91.781417,330.914108 C91.781417,307.452973 122.900991,295.329459 122.900991,242.897568 C122.900991,190.465676 91.781417,161.965784 91.781417,143.858432 C91.781417,140.552324 92.8820179,139.44973 92.8820179,137.718757 C92.8820179,135.986108 91.781417,135.513568 88.7957444,135.513568 C84.3950135,135.513568 84.5522422,146.221135 84.5522422,147.166216 C84.5522422,173.460919 114.099529,193.929297 114.099529,244.156 C114.099529,294.384378 85.0239283,304.461892 85.0239283,331.071622 C85.0239283,333.608595 85.0523632,335.808757 85.1042152,337.719027 C81.1684798,338.553514 78.2129148,342.048973 78.2129148,346.238162 C78.2129148,351.050703 82.1068341,354.951676 86.9106726,354.951676 C91.7128386,354.951676 95.6067578,351.050703 95.6067578,346.238162 C95.6067578,343.235351 94.0896682,340.589459 91.781417,339.022703" id="Fill-52" fill="#FCAE00" sketch:type="MSShapeGroup"/><path d="M72.3068027,373.320432 L72.3452735,373.320432 L72.3068027,373.320432 M72.3803991,373.320432 L72.3452735,373.320432 L72.3803991,373.320432 M72.2683318,373.320432 L72.2934215,373.320432 L72.2683318,373.320432 M72.4155247,373.320432 L72.390435,373.320432 L72.4155247,373.320432 M72.2315336,373.320432 L72.2566233,373.320432 L72.2315336,373.320432 M72.1930628,373.320432 L72.2114619,373.320432 L72.1930628,373.320432 M72.4606861,373.320432 L72.4272332,373.320432 L72.4606861,373.320432 M72.1545919,373.320432 L72.1696457,373.320432 L72.1545919,373.320432 M72.4958117,373.318757 C72.4841031,373.318757 72.4740673,373.320432 72.4623587,373.320432 C72.4740673,373.320432 72.4841031,373.318757 72.4958117,373.318757 M72.1161211,373.318757 L72.1361928,373.318757 L72.1161211,373.318757 M72.0776502,373.318757 L72.0993946,373.318757 L72.0776502,373.318757 M72.5309372,373.318757 L72.5091928,373.318757 L72.5309372,373.318757 M72.040852,373.317081 C72.04587,373.318757 72.0525605,373.318757 72.0592511,373.318757 C72.0525605,373.318757 72.04587,373.318757 72.040852,373.317081 M72.5727534,373.317081 C72.5627175,373.317081 72.5543543,373.318757 72.545991,373.318757 C72.5543543,373.318757 72.5627175,373.317081 72.5727534,373.317081 M72.0023812,373.317081 L72.017435,373.317081 L72.0023812,373.317081 M71.9639103,373.317081 L71.9789641,373.317081 L71.9639103,373.317081 M72.6128969,373.317081 L72.5861345,373.317081 L72.6128969,373.317081 M71.9271121,373.315405 L71.9388206,373.315405 L71.9271121,373.315405 M72.6463498,373.315405 L72.6296233,373.315405 L72.6463498,373.315405 M71.8886413,373.31373 C71.8936592,373.31373 71.8986771,373.31373 71.9036951,373.315405 C71.8986771,373.31373 71.8936592,373.31373 71.8886413,373.31373 M72.67813,373.31373 L72.6664215,373.31373 L72.67813,373.31373 M71.8501704,373.31373 L71.8652242,373.31373 L71.8501704,373.31373 M71.8116996,373.312054 L71.828426,373.312054 L71.8116996,373.312054 M72.7283094,373.310378 C72.7249641,373.312054 72.7216188,373.312054 72.7182735,373.312054 C72.7216188,373.312054 72.7249641,373.312054 72.7283094,373.310378 M71.7732287,373.310378 L71.7882825,373.310378 L71.7732287,373.310378 M72.7617623,373.310378 L72.7517265,373.310378 L72.7617623,373.310378 M71.7347578,373.308703 C71.7414484,373.308703 71.7464664,373.310378 71.7514843,373.310378 C71.7464664,373.310378 71.7414484,373.308703 71.7347578,373.308703 M71.6979596,373.308703 L71.7130135,373.308703 L71.6979596,373.308703 M71.6578161,373.307027 L71.6762152,373.307027 L71.6578161,373.307027 M71.6193453,373.305351 L71.6377444,373.305351 L71.6193453,373.305351 M71.5825471,373.303676 L71.6009462,373.303676 L71.5825471,373.303676 M71.5440762,373.300324 C71.5507668,373.302 71.5557848,373.302 71.5608027,373.302 C71.5557848,373.302 71.5507668,373.302 71.5440762,373.300324 M71.507278,373.298649 C71.512296,373.298649 71.5189865,373.300324 71.5240045,373.300324 C71.5173139,373.300324 71.512296,373.298649 71.507278,373.298649 M71.4704798,373.296973 L71.483861,373.296973 L71.4704798,373.296973 M71.4336816,373.295297 L71.4453901,373.295297 L71.4336816,373.295297 M71.3968834,373.291946 C71.4002287,373.293622 71.4019013,373.293622 71.4052466,373.293622 C71.4019013,373.293622 71.4002287,373.293622 71.3968834,373.291946 M71.3600852,373.29027 L71.3667758,373.29027 L71.3600852,373.29027 M71.3216143,373.288595 L71.3283049,373.288595 L71.3216143,373.288595 M71.2831435,373.285243 C71.2864888,373.285243 71.2898341,373.286919 71.2931794,373.286919 C71.2898341,373.286919 71.2864888,373.285243 71.2831435,373.285243 M71.2480179,373.283568 L71.2530359,373.283568 L71.2480179,373.283568 M71.2095471,373.280216 C71.2128924,373.281892 71.2128924,373.281892 71.214565,373.281892 C71.214565,373.281892 71.2112197,373.281892 71.2095471,373.280216 M71.1744215,373.278541 L71.1760942,373.278541 L71.1744215,373.278541 M71.1376233,373.275189 L71.139296,373.275189 L71.1376233,373.275189 M78.6377668,348.936 C78.2246233,349.287892 77.7562825,349.644811 77.2310717,349.986649 C77.2310717,349.99 77.2327444,349.991676 77.2327444,349.995027 C77.7579552,349.654865 78.2279686,349.294595 78.6394395,348.942703 C78.6394395,348.941027 78.6394395,348.937676 78.6377668,348.936 M95.5030538,347.588757 C95.5030538,347.590432 95.5030538,347.590432 95.5013812,347.592108 C95.5030538,347.590432 95.5030538,347.590432 95.5030538,347.588757 M95.5097444,347.545189 L95.5097444,347.546865 L95.5097444,347.545189 M95.5348341,347.365892 C95.5331614,347.369243 95.5331614,347.372595 95.5331614,347.375946 C95.5331614,347.372595 95.5331614,347.369243 95.5348341,347.365892 M95.5415247,347.315622 C95.539852,347.320649 95.539852,347.325676 95.5381794,347.330703 C95.539852,347.325676 95.539852,347.320649 95.5415247,347.315622 M95.5465426,347.270378 C95.54487,347.27373 95.54487,347.278757 95.54487,347.282108 C95.54487,347.278757 95.54487,347.27373 95.5465426,347.270378 M95.5599238,347.141351 C95.5599238,347.148054 95.5599238,347.153081 95.5582511,347.159784 C95.5599238,347.153081 95.5599238,347.148054 95.5599238,347.141351 M95.5649417,347.091081 C95.5649417,347.097784 95.5632691,347.104486 95.5632691,347.111189 C95.5632691,347.104486 95.5649417,347.097784 95.5649417,347.091081 M95.5699596,347.040811 C95.5699596,347.047514 95.568287,347.055892 95.568287,347.062595 C95.568287,347.055892 95.5699596,347.047514 95.5699596,347.040811 M95.5766502,346.972108 C95.5749776,346.985514 95.5733049,347.000595 95.5733049,347.014 C95.5733049,347.000595 95.5749776,346.985514 95.5766502,346.972108 M95.5799955,346.916811 C95.5799955,346.926865 95.5783229,346.936919 95.5783229,346.946973 C95.5783229,346.936919 95.5799955,346.926865 95.5799955,346.916811 M95.5850135,346.866541 C95.5833408,346.874919 95.5833408,346.883297 95.5816682,346.893351 C95.5833408,346.883297 95.5833408,346.874919 95.5850135,346.866541 M95.5883587,346.814595 C95.5866861,346.822973 95.5866861,346.833027 95.5866861,346.841405 C95.5866861,346.833027 95.5866861,346.822973 95.5883587,346.814595 M95.591704,346.755946 C95.5900314,346.767676 95.5900314,346.779405 95.5900314,346.791135 C95.5900314,346.779405 95.5900314,346.767676 95.591704,346.755946 M95.5950493,346.69227 C95.5933767,346.709027 95.5933767,346.724108 95.591704,346.740865 C95.5933767,346.724108 95.5933767,346.709027 95.5950493,346.69227 M95.596722,346.640324 L95.596722,346.672162 L95.596722,346.640324 M95.6000673,346.586703 C95.5983946,346.598432 95.5983946,346.610162 95.5983946,346.620216 C95.5983946,346.608486 95.5983946,346.598432 95.6000673,346.586703 M95.6017399,346.533081 C95.6017399,346.544811 95.6017399,346.556541 95.6000673,346.56827 C95.6017399,346.556541 95.6017399,346.544811 95.6017399,346.533081 M95.6034126,346.466054 C95.6034126,346.482811 95.6034126,346.499568 95.6017399,346.516324 C95.6034126,346.499568 95.6034126,346.482811 95.6034126,346.466054 M95.6050852,346.414108 C95.6050852,346.427514 95.6034126,346.439243 95.6034126,346.452649 C95.6034126,346.439243 95.6050852,346.427514 95.6050852,346.414108 M78.2145874,346.367189 L78.2145874,346.377243 L78.2145874,346.367189 M95.6050852,346.362162 L95.6050852,346.397351 L95.6050852,346.362162 M78.2129148,346.310216 C78.2129148,346.318595 78.2145874,346.328649 78.2145874,346.337027 C78.2145874,346.328649 78.2129148,346.318595 78.2129148,346.310216 M95.6067578,346.306865 L95.6067578,346.342054 L95.6067578,346.306865 M78.2129148,346.238162 L78.2129148,346.288432 L78.2129148,346.238162 M95.6067578,346.238162 L95.6067578,346.291784 L95.6067578,346.238162 M78.2129148,346.197946 L78.2129148,346.238162 L78.2129148,346.197946 M78.2129148,346.166108 L78.2129148,346.167784 C78.2129148,346.167784 78.2129148,346.167784 78.2129148,346.166108" id="Fill-53" fill="#F9CD7F" sketch:type="MSShapeGroup"/><path d="M78.6394395,348.942703 C78.2279686,349.294595 77.7579552,349.654865 77.2327444,349.995027 C77.4418251,351.499784 78.2814933,355.508 81.4394484,358.296324 C81.8392108,359.149243 86.10613,369.017297 70.015278,369.017297 C59.0912287,369.017297 59.4056861,364.608595 59.4056861,364.608595 L59.3655426,364.61027 C59.6147668,369.101081 65.1278072,372.827784 71.1376233,373.275189 L71.139296,373.275189 C71.1510045,373.276865 71.162713,373.276865 71.1744215,373.278541 L71.1760942,373.278541 C71.1878027,373.278541 71.1995112,373.280216 71.2095471,373.280216 C71.2112197,373.281892 71.214565,373.281892 71.214565,373.281892 C71.2262735,373.281892 71.2363094,373.283568 71.2480179,373.283568 L71.2530359,373.283568 C71.2630717,373.285243 71.2731076,373.285243 71.2831435,373.285243 C71.2864888,373.285243 71.2898341,373.286919 71.2931794,373.286919 C71.3015426,373.286919 71.3132511,373.286919 71.3216143,373.288595 L71.3283049,373.288595 C71.3383408,373.288595 71.3500493,373.29027 71.3600852,373.29027 L71.3667758,373.29027 C71.3768117,373.291946 71.3868475,373.291946 71.3968834,373.291946 C71.4002287,373.293622 71.4019013,373.293622 71.4052466,373.293622 C71.4152825,373.293622 71.4236457,373.295297 71.4336816,373.295297 L71.4453901,373.295297 C71.4537534,373.295297 71.4621166,373.296973 71.4704798,373.296973 L71.483861,373.296973 C71.4922242,373.298649 71.4989148,373.298649 71.507278,373.298649 C71.512296,373.298649 71.5173139,373.300324 71.5240045,373.300324 L71.5440762,373.300324 C71.5507668,373.302 71.5557848,373.302 71.5608027,373.302 C71.5674933,373.302 71.5758565,373.302 71.5825471,373.303676 L71.6009462,373.303676 C71.6076368,373.303676 71.6143274,373.303676 71.6193453,373.305351 L71.6377444,373.305351 C71.644435,373.305351 71.6527982,373.305351 71.6578161,373.307027 L71.6762152,373.307027 C71.6829058,373.307027 71.6895964,373.307027 71.6979596,373.308703 L71.7130135,373.308703 L71.7347578,373.308703 C71.7414484,373.308703 71.7464664,373.310378 71.7514843,373.310378 L71.7732287,373.310378 L71.7882825,373.310378 C71.7966457,373.312054 71.8033363,373.312054 71.8116996,373.312054 L71.828426,373.312054 C71.8351166,373.312054 71.8434798,373.31373 71.8501704,373.31373 L71.8652242,373.31373 L71.8886413,373.31373 C71.8936592,373.31373 71.8986771,373.31373 71.9036951,373.315405 L71.9271121,373.315405 L71.9388206,373.315405 C71.9471839,373.315405 71.9555471,373.315405 71.9639103,373.317081 L71.9789641,373.317081 L72.0023812,373.317081 L72.017435,373.317081 L72.040852,373.317081 C72.04587,373.318757 72.0525605,373.318757 72.0592511,373.318757 L72.0776502,373.318757 L72.0993946,373.318757 L72.1161211,373.318757 L72.1361928,373.318757 C72.1428834,373.318757 72.1479013,373.318757 72.1545919,373.320432 L72.1696457,373.320432 L72.1930628,373.320432 L72.2114619,373.320432 L72.2315336,373.320432 L72.2566233,373.320432 L72.2683318,373.320432 L72.2934215,373.320432 L72.3068027,373.320432 L72.3452735,373.320432 L72.3803991,373.320432 L72.390435,373.320432 L72.4155247,373.320432 L72.4272332,373.320432 L72.4606861,373.320432 L72.4623587,373.320432 C72.4740673,373.320432 72.4841031,373.318757 72.4958117,373.318757 L72.5091928,373.318757 L72.5309372,373.318757 L72.545991,373.318757 C72.5543543,373.318757 72.5627175,373.317081 72.5727534,373.317081 L72.5861345,373.317081 L72.6128969,373.317081 C72.6179148,373.315405 72.6246054,373.315405 72.6296233,373.315405 L72.6463498,373.315405 C72.6530404,373.31373 72.6597309,373.31373 72.6664215,373.31373 L72.67813,373.31373 C72.6915112,373.31373 72.7048924,373.312054 72.7182735,373.312054 C72.7216188,373.312054 72.7249641,373.312054 72.7283094,373.310378 L72.7517265,373.310378 L72.7617623,373.310378 C72.7701256,373.308703 72.7784888,373.308703 72.786852,373.308703 C77.7228296,373.030541 84.5923857,368.182811 87.7737578,361.059514 L87.7888117,361.061189 C87.9560762,360.685838 88.1099596,360.302108 88.2554798,359.915027 L88.2621704,359.899946 L88.2604978,359.89827 C88.8894126,358.22427 89.3125919,356.439676 89.4614574,354.569622 C88.6552422,354.817622 87.7971749,354.951676 86.9106726,354.951676 C83.0485336,354.951676 79.7768386,352.431459 78.6394395,348.942703" id="Fill-54" fill="#F8A400" sketch:type="MSShapeGroup"/><path d="M95.3140448,344.034649 C94.3388924,347.776432 90.9517848,350.542973 86.9106726,350.542973 C82.8678879,350.542973 79.4807803,347.776432 78.5056278,344.034649 C78.3266547,344.718324 78.2196054,345.428811 78.2129148,346.166108 L78.2129148,346.169459 L78.2129148,346.197946 L78.2129148,346.238162 L78.2129148,346.288432 L78.2129148,346.310216 C78.2129148,346.318595 78.2145874,346.328649 78.2145874,346.337027 L78.2145874,346.367189 L78.2145874,346.377243 C78.2279686,347.268703 78.3801794,348.124973 78.6411121,348.932649 C78.6411121,348.934324 78.6394395,348.934324 78.6377668,348.936 C78.6394395,348.937676 78.6394395,348.941027 78.6394395,348.942703 C79.7768386,352.431459 83.0485336,354.951676 86.9106726,354.951676 C87.7971749,354.951676 88.6552422,354.817622 89.4614574,354.569622 C89.4614574,354.569622 89.4614574,354.569622 89.4614574,354.567946 C92.6010135,353.604432 94.9862063,350.90827 95.5013812,347.592108 C95.5030538,347.590432 95.5030538,347.590432 95.5030538,347.588757 C95.5047265,347.575351 95.5063991,347.56027 95.5097444,347.546865 L95.5097444,347.545189 C95.5181076,347.488216 95.5264709,347.432919 95.5331614,347.375946 C95.5331614,347.372595 95.5331614,347.369243 95.5348341,347.365892 C95.5365067,347.354162 95.5381794,347.342432 95.5381794,347.330703 C95.539852,347.325676 95.539852,347.320649 95.5415247,347.315622 C95.5415247,347.305568 95.5431973,347.293838 95.54487,347.282108 C95.54487,347.278757 95.54487,347.27373 95.5465426,347.270378 C95.5498879,347.233514 95.5549058,347.196649 95.5582511,347.159784 C95.5599238,347.153081 95.5599238,347.148054 95.5599238,347.141351 C95.5615964,347.131297 95.5615964,347.121243 95.5632691,347.111189 C95.5632691,347.104486 95.5649417,347.097784 95.5649417,347.091081 C95.5666143,347.082703 95.5666143,347.072649 95.568287,347.062595 C95.568287,347.055892 95.5699596,347.047514 95.5699596,347.040811 C95.5716323,347.030757 95.5716323,347.022378 95.5733049,347.014 C95.5733049,347.000595 95.5749776,346.985514 95.5766502,346.972108 C95.5766502,346.96373 95.5766502,346.955351 95.5783229,346.946973 C95.5783229,346.936919 95.5799955,346.926865 95.5799955,346.916811 C95.5816682,346.908432 95.5816682,346.90173 95.5816682,346.893351 C95.5833408,346.883297 95.5833408,346.874919 95.5850135,346.866541 C95.5850135,346.858162 95.5850135,346.849784 95.5866861,346.841405 C95.5866861,346.833027 95.5866861,346.822973 95.5883587,346.814595 C95.5883587,346.806216 95.5883587,346.799514 95.5900314,346.791135 C95.5900314,346.779405 95.5900314,346.767676 95.591704,346.755946 L95.591704,346.740865 C95.5933767,346.724108 95.5933767,346.709027 95.5950493,346.69227 C95.5950493,346.685568 95.5950493,346.678865 95.596722,346.672162 L95.596722,346.640324 C95.5983946,346.633622 95.5983946,346.626919 95.5983946,346.620216 C95.5983946,346.610162 95.5983946,346.598432 95.6000673,346.586703 L95.6000673,346.56827 C95.6017399,346.556541 95.6017399,346.544811 95.6017399,346.533081 L95.6017399,346.516324 C95.6034126,346.499568 95.6034126,346.482811 95.6034126,346.466054 L95.6034126,346.452649 C95.6034126,346.439243 95.6050852,346.427514 95.6050852,346.414108 L95.6050852,346.397351 L95.6050852,346.362162 C95.6050852,346.355459 95.6050852,346.348757 95.6067578,346.342054 L95.6067578,346.306865 L95.6067578,346.291784 L95.6067578,346.238162 C95.6067578,345.47573 95.4980359,344.740108 95.3140448,344.034649" id="Fill-55" fill="#F8A400" sketch:type="MSShapeGroup"/><path d="M318.235906,380.274486 L318.184054,380.274486 L318.235906,380.274486 M318.125511,380.274486 L318.184054,380.274486 L318.125511,380.274486 M318.297794,380.274486 L318.247614,380.274486 L318.297794,380.274486 M318.068641,380.274486 L318.110457,380.274486 L318.068641,380.274486 M318.354664,380.274486 L318.306157,380.274486 L318.354664,380.274486 M318.011771,380.274486 L318.046897,380.274486 L318.011771,380.274486 M318.413206,380.272811 C318.39648,380.272811 318.378081,380.274486 318.363027,380.274486 C318.379753,380.274486 318.39648,380.272811 318.413206,380.272811 M317.953229,380.272811 L317.988354,380.272811 L317.953229,380.272811 M317.896359,380.271135 C317.908067,380.271135 317.919776,380.272811 317.929812,380.272811 C317.918103,380.272811 317.908067,380.271135 317.896359,380.271135 M318.526946,380.271135 C318.493493,380.271135 318.458368,380.272811 318.424915,380.272811 C318.46004,380.272811 318.493493,380.271135 318.526946,380.271135 M317.839489,380.269459 C317.849525,380.269459 317.861233,380.271135 317.872942,380.271135 C317.861233,380.271135 317.849525,380.269459 317.839489,380.269459 M318.588834,380.269459 C318.572108,380.269459 318.557054,380.269459 318.540327,380.271135 C318.555381,380.269459 318.572108,380.269459 318.588834,380.269459 M317.780946,380.267784 C317.792655,380.267784 317.804363,380.267784 317.816072,380.269459 C317.804363,380.267784 317.792655,380.267784 317.780946,380.267784 M318.642359,380.267784 C318.628978,380.267784 318.613924,380.267784 318.59887,380.269459 C318.613924,380.267784 318.628978,380.267784 318.642359,380.267784 M318.702574,380.264432 C318.685848,380.266108 318.669121,380.266108 318.652395,380.266108 C318.669121,380.266108 318.685848,380.266108 318.702574,380.264432 M317.724076,380.264432 C317.735785,380.266108 317.747493,380.266108 317.759202,380.266108 C317.747493,380.266108 317.735785,380.266108 317.724076,380.264432 M317.667206,380.262757 C317.678915,380.262757 317.690623,380.262757 317.702332,380.264432 C317.690623,380.262757 317.678915,380.262757 317.667206,380.262757 M318.816314,380.259405 C318.782861,380.261081 318.747735,380.262757 318.714283,380.264432 C318.747735,380.262757 318.782861,380.261081 318.816314,380.259405 M317.610336,380.259405 C317.622045,380.259405 317.633753,380.261081 317.645462,380.261081 C317.633753,380.261081 317.622045,380.259405 317.610336,380.259405 M318.876529,380.25773 C318.859803,380.25773 318.843076,380.259405 318.82635,380.259405 C318.843076,380.259405 318.859803,380.25773 318.876529,380.25773 M317.553466,380.256054 C317.565175,380.256054 317.576883,380.25773 317.588592,380.25773 C317.576883,380.25773 317.565175,380.256054 317.553466,380.256054 M318.931726,380.254378 C318.916673,380.254378 318.899946,380.256054 318.886565,380.256054 C318.901619,380.256054 318.916673,380.254378 318.931726,380.254378 M317.496596,380.252703 C317.508305,380.252703 317.520013,380.254378 317.533395,380.254378 C317.520013,380.254378 317.508305,380.252703 317.496596,380.252703 M318.988596,380.251027 C318.97187,380.251027 318.955143,380.252703 318.938417,380.252703 C318.955143,380.252703 318.97187,380.251027 318.988596,380.251027 M317.438054,380.247676 C317.451435,380.249351 317.463143,380.249351 317.476525,380.251027 C317.463143,380.249351 317.451435,380.249351 317.438054,380.247676 M317.379511,380.244324 C317.394565,380.244324 317.406274,380.246 317.421327,380.246 C317.407946,380.246 317.392892,380.244324 317.379511,380.244324 M319.098991,380.242649 C319.065538,380.246 319.032085,380.247676 318.998632,380.249351 C319.032085,380.247676 319.065538,380.246 319.098991,380.242649 M319.159206,380.239297 C319.144152,380.239297 319.127426,380.240973 319.1107,380.242649 C319.127426,380.240973 319.144152,380.239297 319.159206,380.239297 M317.320969,380.239297 C317.336022,380.239297 317.349404,380.240973 317.364457,380.242649 C317.349404,380.240973 317.336022,380.239297 317.320969,380.239297 M319.214404,380.23427 C319.19935,380.235946 319.182623,380.237622 319.16757,380.237622 C319.182623,380.237622 319.19935,380.235946 319.214404,380.23427 M317.262426,380.23427 C317.279152,380.23427 317.294206,380.235946 317.30926,380.237622 C317.294206,380.235946 317.27748,380.23427 317.262426,380.23427 M319.271274,380.229243 C319.254547,380.230919 319.237821,380.232595 319.221094,380.23427 C319.237821,380.232595 319.254547,380.230919 319.271274,380.229243 M317.200538,380.227568 C317.217265,380.229243 317.235664,380.230919 317.254063,380.232595 C317.235664,380.230919 317.217265,380.229243 317.200538,380.227568 M319.383341,380.219189 C319.348215,380.222541 319.31309,380.225892 319.279637,380.229243 C319.314762,380.225892 319.348215,380.222541 319.383341,380.219189 M319.440211,380.214162 C319.421812,380.215838 319.406758,380.217514 319.388359,380.219189 C319.405085,380.217514 319.423484,380.215838 319.440211,380.214162 M319.495408,380.209135 C319.478682,380.210811 319.461955,380.212486 319.445229,380.214162 C319.461955,380.212486 319.478682,380.210811 319.495408,380.209135 M319.548933,380.202432 C319.532206,380.204108 319.51548,380.207459 319.497081,380.209135 C319.51548,380.207459 319.532206,380.204108 319.548933,380.202432 M319.659327,380.190703 C319.625874,380.194054 319.590749,380.199081 319.557296,380.202432 C319.590749,380.199081 319.625874,380.194054 319.659327,380.190703 M319.716197,380.184 C319.699471,380.185676 319.681072,380.187351 319.664345,380.190703 C319.681072,380.187351 319.699471,380.185676 319.716197,380.184 M319.769722,380.177297 C319.752996,380.178973 319.736269,380.180649 319.719543,380.184 C319.736269,380.182324 319.752996,380.178973 319.769722,380.177297 M319.823247,380.170595 C319.80652,380.17227 319.789794,380.173946 319.773067,380.177297 C319.789794,380.173946 319.80652,380.17227 319.823247,380.170595 M319.931969,380.155514 C319.898516,380.160541 319.86339,380.165568 319.828265,380.168919 C319.86339,380.165568 319.898516,380.160541 319.931969,380.155514 M319.987166,380.147135 C319.970439,380.150486 319.953713,380.152162 319.936987,380.155514 C319.953713,380.152162 319.970439,380.150486 319.987166,380.147135 M320.094215,380.132054 C320.060762,380.137081 320.025637,380.142108 319.992184,380.147135 C320.025637,380.142108 320.060762,380.137081 320.094215,380.132054 M320.201265,380.115297 C320.167812,380.120324 320.132686,380.125351 320.097561,380.130378 C320.132686,380.125351 320.167812,380.120324 320.201265,380.115297 M307.644713,373.444432 C309.936238,376.975081 313.11761,379.828757 317.198865,380.227568 C313.11761,379.828757 309.93791,376.975081 307.644713,373.444432 M307.614605,373.400865 C307.619623,373.407568 307.624641,373.415946 307.629659,373.422649 C307.624641,373.415946 307.619623,373.407568 307.614605,373.400865 M307.58617,373.355622 C307.587843,373.357297 307.589516,373.360649 307.591188,373.364 C307.589516,373.360649 307.587843,373.358973 307.58617,373.355622 M329.803924,371.976541 L329.803924,371.976541 C328.221601,375.416703 325.244291,379.285838 320.202937,380.113622 C325.244291,379.285838 328.221601,375.416703 329.803924,371.976541 M296.210507,353.291081 L296.210507,353.297784 L296.210507,353.291081 M296.207161,353.239135 L296.207161,353.250865 L296.207161,353.239135 M296.202143,353.187189 C296.202143,353.192216 296.203816,353.197243 296.203816,353.20227 C296.203816,353.197243 296.202143,353.192216 296.202143,353.187189 M296.198798,353.138595 C296.198798,353.143622 296.198798,353.148649 296.200471,353.152 C296.198798,353.146973 296.198798,353.143622 296.198798,353.138595 M296.195453,353.09 C296.197126,353.095027 296.197126,353.098378 296.197126,353.10173 C296.197126,353.098378 296.197126,353.095027 296.195453,353.09 M313.139354,353.074919 L313.139354,353.081622 L313.139354,353.074919 M313.1427,353.029676 C313.141027,353.031351 313.141027,353.034703 313.141027,353.038054 C313.141027,353.034703 313.141027,353.031351 313.1427,353.029676 M296.188762,352.952595 C296.188762,352.959297 296.188762,352.967676 296.190435,352.974378 C296.188762,352.967676 296.188762,352.959297 296.188762,352.952595 M313.147717,352.902324 C313.147717,352.909027 313.147717,352.917405 313.146045,352.924108 C313.147717,352.91573 313.147717,352.909027 313.147717,352.902324 M296.18709,352.900649 L296.18709,352.925784 L296.18709,352.900649 M313.14939,352.852054 L313.14939,352.877189 L313.14939,352.852054 M296.185417,352.848703 L296.185417,352.875514 L296.185417,352.848703 M313.151063,352.796757 L313.151063,352.828595 L313.151063,352.796757 M296.183744,352.795081 L296.183744,352.823568 L296.183744,352.795081 M296.182072,352.741459 L296.182072,352.771622 L296.182072,352.741459 M313.152735,352.731405 C313.152735,352.748162 313.152735,352.763243 313.151063,352.78 C313.152735,352.763243 313.152735,352.748162 313.152735,352.731405 M296.180399,352.687838 C296.180399,352.699568 296.182072,352.709622 296.182072,352.719676 C296.182072,352.709622 296.180399,352.697892 296.180399,352.687838 M313.154408,352.681135 C313.152735,352.692865 313.152735,352.704595 313.152735,352.716324 C313.152735,352.704595 313.152735,352.692865 313.154408,352.681135 M296.180399,352.632541 L296.180399,352.66773 L296.180399,352.632541 M313.154408,352.629189 L313.154408,352.664378 L313.154408,352.629189 M296.180399,352.563838 L296.180399,352.615784 L296.180399,352.563838 M313.154408,352.563838 L313.154408,352.614108 L313.154408,352.563838 M296.180399,352.525297 L296.180399,352.563838 L296.180399,352.525297 M313.154408,352.52027 L313.154408,352.563838 L313.154408,352.52027 M313.154408,352.498486 L313.154408,352.503514 L313.154408,352.498486 M296.180399,352.491784 L296.180399,352.508541 L296.180399,352.491784 M296.397843,350.673676 C296.38948,350.710541 296.381117,350.74573 296.374426,350.780919 C296.381117,350.74573 296.38948,350.710541 296.397843,350.675351 L296.397843,350.673676" id="Fill-56" fill="#F9CD7F" sketch:type="MSShapeGroup"/><path d="M296.397843,350.675351 C296.38948,350.710541 296.381117,350.74573 296.374426,350.780919 C296.255668,351.333892 296.185417,351.903622 296.180399,352.491784 L296.180399,352.508541 L296.180399,352.525297 L296.180399,352.563838 L296.180399,352.615784 L296.180399,352.632541 L296.180399,352.66773 L296.180399,352.687838 C296.180399,352.697892 296.182072,352.709622 296.182072,352.719676 L296.182072,352.741459 L296.182072,352.771622 C296.182072,352.78 296.182072,352.786703 296.183744,352.795081 L296.183744,352.823568 C296.183744,352.831946 296.183744,352.840324 296.185417,352.848703 L296.185417,352.875514 C296.185417,352.883892 296.185417,352.89227 296.18709,352.900649 L296.18709,352.925784 C296.18709,352.934162 296.188762,352.944216 296.188762,352.952595 C296.188762,352.959297 296.188762,352.967676 296.190435,352.974378 C296.192108,353.012919 296.19378,353.051459 296.195453,353.09 C296.197126,353.095027 296.197126,353.098378 296.197126,353.10173 C296.197126,353.113459 296.198798,353.126865 296.198798,353.138595 C296.198798,353.143622 296.198798,353.146973 296.200471,353.152 C296.200471,353.16373 296.202143,353.175459 296.202143,353.187189 C296.202143,353.192216 296.203816,353.197243 296.203816,353.20227 C296.203816,353.214 296.205489,353.227405 296.207161,353.239135 L296.207161,353.250865 C296.208834,353.26427 296.208834,353.277676 296.210507,353.291081 L296.210507,353.297784 C296.541691,357.158541 299.450422,360.276973 303.205511,360.930486 C303.183767,360.64227 303.173731,360.372486 303.173731,360.121135 C303.173731,358.958216 303.498224,358.019838 304.006709,357.262432 C300.266673,356.972541 297.209076,354.251243 296.397843,350.675351 M312.936964,350.673676 C312.577345,352.260541 311.776148,353.678162 310.668857,354.790811 C310.990004,355.167838 311.533614,355.640378 312.418444,356.025784 C312.824897,355.117568 313.075794,354.125568 313.139354,353.081622 L313.139354,353.074919 C313.139354,353.063189 313.141027,353.051459 313.141027,353.038054 C313.141027,353.034703 313.141027,353.031351 313.1427,353.029676 C313.144372,352.994486 313.146045,352.959297 313.146045,352.924108 C313.147717,352.917405 313.147717,352.909027 313.147717,352.902324 C313.147717,352.893946 313.147717,352.885568 313.14939,352.877189 L313.14939,352.852054 C313.14939,352.843676 313.14939,352.836973 313.151063,352.828595 L313.151063,352.796757 L313.151063,352.78 C313.152735,352.763243 313.152735,352.748162 313.152735,352.731405 L313.152735,352.716324 C313.152735,352.704595 313.152735,352.692865 313.154408,352.681135 L313.154408,352.664378 L313.154408,352.629189 L313.154408,352.614108 L313.154408,352.563838 L313.154408,352.52027 L313.154408,352.503514 L313.154408,352.498486 C313.14939,351.871784 313.070776,351.261838 312.936964,350.673676" id="Fill-57" fill="#F8A400" sketch:type="MSShapeGroup"/><path d="M310.668857,354.790811 C309.133368,356.332432 307.012453,357.287568 304.667404,357.287568 C304.444942,357.287568 304.224152,357.279189 304.006709,357.262432 C303.498224,358.019838 303.173731,358.958216 303.173731,360.121135 C303.173731,360.372486 303.183767,360.64227 303.205511,360.930486 C303.207184,360.932162 303.207184,360.932162 303.208857,360.932162 C303.434664,364.033838 304.888193,369.15973 307.58617,373.355622 C307.587843,373.358973 307.589516,373.360649 307.591188,373.364 C307.599552,373.37573 307.607915,373.387459 307.614605,373.400865 C307.619623,373.407568 307.624641,373.415946 307.629659,373.422649 C307.634677,373.431027 307.639695,373.43773 307.644713,373.444432 C309.93791,376.975081 313.11761,379.828757 317.198865,380.227568 L317.200538,380.227568 C317.217265,380.229243 317.235664,380.230919 317.254063,380.232595 C317.255735,380.232595 317.259081,380.23427 317.262426,380.23427 C317.27748,380.23427 317.294206,380.235946 317.30926,380.237622 C317.314278,380.237622 317.315951,380.237622 317.320969,380.239297 C317.336022,380.239297 317.349404,380.240973 317.364457,380.242649 C317.369475,380.242649 317.376166,380.242649 317.379511,380.244324 C317.392892,380.244324 317.407946,380.246 317.421327,380.246 C317.426345,380.247676 317.433036,380.247676 317.438054,380.247676 C317.451435,380.249351 317.463143,380.249351 317.476525,380.251027 C317.483215,380.251027 317.489906,380.251027 317.496596,380.252703 C317.508305,380.252703 317.520013,380.254378 317.533395,380.254378 C317.540085,380.254378 317.546776,380.256054 317.553466,380.256054 C317.565175,380.256054 317.576883,380.25773 317.588592,380.25773 C317.596955,380.259405 317.603646,380.259405 317.610336,380.259405 C317.622045,380.259405 317.633753,380.261081 317.645462,380.261081 C317.653825,380.261081 317.660516,380.261081 317.667206,380.262757 C317.678915,380.262757 317.690623,380.262757 317.702332,380.264432 L317.724076,380.264432 C317.735785,380.266108 317.747493,380.266108 317.759202,380.266108 C317.767565,380.266108 317.774256,380.267784 317.780946,380.267784 C317.792655,380.267784 317.804363,380.267784 317.816072,380.269459 L317.839489,380.269459 C317.849525,380.269459 317.861233,380.271135 317.872942,380.271135 L317.896359,380.271135 C317.908067,380.271135 317.918103,380.272811 317.929812,380.272811 L317.953229,380.272811 L317.988354,380.272811 C317.996717,380.272811 318.003408,380.274486 318.011771,380.274486 L318.046897,380.274486 L318.068641,380.274486 L318.110457,380.274486 L318.125511,380.274486 L318.184054,380.274486 L318.235906,380.274486 L318.247614,380.274486 L318.297794,380.274486 L318.306157,380.274486 L318.354664,380.274486 L318.363027,380.274486 C318.378081,380.274486 318.39648,380.272811 318.413206,380.272811 L318.424915,380.272811 C318.458368,380.272811 318.493493,380.271135 318.526946,380.271135 L318.540327,380.271135 C318.557054,380.269459 318.572108,380.269459 318.588834,380.269459 L318.59887,380.269459 C318.613924,380.267784 318.628978,380.267784 318.642359,380.267784 C318.645704,380.267784 318.649049,380.267784 318.652395,380.266108 C318.669121,380.266108 318.685848,380.266108 318.702574,380.264432 L318.714283,380.264432 C318.747735,380.262757 318.782861,380.261081 318.816314,380.259405 L318.82635,380.259405 C318.843076,380.259405 318.859803,380.25773 318.876529,380.25773 C318.879874,380.256054 318.88322,380.256054 318.886565,380.256054 C318.899946,380.256054 318.916673,380.254378 318.931726,380.254378 C318.933399,380.254378 318.936744,380.254378 318.938417,380.252703 C318.955143,380.252703 318.97187,380.251027 318.988596,380.251027 C318.991942,380.251027 318.995287,380.251027 318.998632,380.249351 C319.032085,380.247676 319.065538,380.246 319.098991,380.242649 L319.1107,380.242649 C319.127426,380.240973 319.144152,380.239297 319.159206,380.239297 C319.162552,380.239297 319.165897,380.237622 319.16757,380.237622 C319.182623,380.237622 319.19935,380.235946 319.214404,380.23427 L319.221094,380.23427 C319.237821,380.232595 319.254547,380.230919 319.271274,380.229243 L319.279637,380.229243 C319.31309,380.225892 319.348215,380.222541 319.383341,380.219189 L319.388359,380.219189 C319.406758,380.217514 319.421812,380.215838 319.440211,380.214162 L319.445229,380.214162 C319.461955,380.212486 319.478682,380.210811 319.495408,380.209135 L319.497081,380.209135 C319.51548,380.207459 319.532206,380.204108 319.548933,380.202432 L319.557296,380.202432 C319.590749,380.199081 319.625874,380.194054 319.659327,380.190703 L319.664345,380.190703 C319.681072,380.187351 319.699471,380.185676 319.716197,380.184 L319.719543,380.184 C319.736269,380.180649 319.752996,380.178973 319.769722,380.177297 L319.773067,380.177297 C319.789794,380.173946 319.80652,380.17227 319.823247,380.170595 L319.828265,380.170595 C319.86339,380.165568 319.898516,380.160541 319.931969,380.155514 L319.936987,380.155514 C319.953713,380.152162 319.970439,380.150486 319.987166,380.147135 L319.992184,380.147135 C320.025637,380.142108 320.060762,380.137081 320.094215,380.132054 C320.095888,380.132054 320.095888,380.130378 320.097561,380.130378 C320.132686,380.125351 320.167812,380.120324 320.201265,380.115297 C320.202937,380.115297 320.202937,380.113622 320.202937,380.113622 C325.244291,379.285838 328.221601,375.416703 329.803924,371.976541 C328.515987,372.678649 324.203906,374.79 318.786206,374.79 C313.759906,374.79 309.300632,364.992324 307.539336,360.556811 C309.715448,359.770919 311.48009,358.12373 312.418444,356.025784 C311.533614,355.640378 310.990004,355.167838 310.668857,354.790811" id="Fill-58" fill="#F8A400" sketch:type="MSShapeGroup"/><path d="M348.624534,95.7832973 L348.544247,95.7832973 L348.624534,95.7832973 M348.706493,95.7832973 L348.651296,95.7832973 L348.706493,95.7832973 M348.78678,95.7816216 C348.771726,95.7832973 348.756673,95.7832973 348.739946,95.7832973 C348.756673,95.7832973 348.771726,95.7832973 348.78678,95.7816216 M348.86874,95.7816216 L348.820233,95.7816216 L348.86874,95.7816216 M348.9507,95.7799459 C348.933973,95.7799459 348.918919,95.7816216 348.902193,95.7816216 C348.918919,95.7816216 348.935646,95.7799459 348.9507,95.7799459 M349.030987,95.7799459 L348.980807,95.7799459 L349.030987,95.7799459 M349.112946,95.7782703 L349.064439,95.7782703 L349.112946,95.7782703 M349.194906,95.7765946 L349.143054,95.7765946 L349.194906,95.7765946 M349.276865,95.7749189 L349.223341,95.7749189 L349.276865,95.7749189 M349.36217,95.7715676 C349.342099,95.7715676 349.322027,95.7732432 349.301955,95.7732432 C349.322027,95.7732432 349.342099,95.7715676 349.36217,95.7715676 M349.455839,95.7698919 C349.430749,95.7698919 349.405659,95.7698919 349.38057,95.7715676 C349.405659,95.7698919 349.430749,95.7698919 349.455839,95.7698919 M349.860619,95.7531351 C349.72848,95.7598378 349.594668,95.7648649 349.459184,95.7682162 C349.594668,95.7648649 349.72848,95.7598378 349.860619,95.7531351 M349.940906,95.7497838 C349.917489,95.7497838 349.894072,95.7514595 349.868982,95.7531351 C349.892399,95.7514595 349.917489,95.7497838 349.940906,95.7497838 M350.022865,95.7447568 C349.997776,95.7464324 349.972686,95.7481081 349.947596,95.7481081 C349.972686,95.7481081 349.997776,95.7464324 350.022865,95.7447568 M364.720404,86.3978378 C363.455883,89.6620541 359.755991,95.2286486 350.026211,95.7447568 C359.761009,95.2303243 363.457556,89.6603784 364.720404,86.3978378 M364.728767,86.3777297 C364.727094,86.3810811 364.725422,86.3844324 364.725422,86.3877838 C364.725422,86.3844324 364.727094,86.3810811 364.728767,86.3777297 M325.282762,68.0408108 L325.282762,68.070973 L325.282762,68.0408108 M342.885686,68.0223784 L342.885686,68.070973 L342.885686,68.0223784 M342.884013,67.9771351 C342.884013,67.9855135 342.885686,67.9922162 342.885686,68.0005946 C342.885686,67.9922162 342.884013,67.9855135 342.884013,67.9771351" id="Fill-59" fill="#F9CD7F" sketch:type="MSShapeGroup"/><path d="M342.676605,66.1824865 C341.81352,70.1421081 338.295946,73.1097297 334.084224,73.1097297 C329.87083,73.1097297 326.354928,70.1421081 325.49017,66.1824865 C325.424937,66.4790811 325.374758,66.7823784 325.339632,67.0907027 L325.334614,67.1493514 C325.302834,67.4425946 325.282762,67.7391892 325.282762,68.0408108 L325.282762,68.070973 C325.282762,68.324 325.296143,68.5736757 325.317888,68.82 L325.341305,69.0478919 C325.361377,69.2238378 325.384794,69.3964324 325.414901,69.569027 L325.456717,69.806973 C325.495188,69.9963243 325.54035,70.1823243 325.588857,70.3683243 L325.627327,70.5157838 C325.692561,70.742 325.766157,70.9631892 325.849789,71.181027 L325.936767,71.3955135 L326.130794,71.8362162 L326.251224,72.0808649 L326.473686,72.4880541 L326.597462,72.7008649 C326.714547,72.8902162 326.838323,73.0745405 326.967117,73.2521622 L327.119327,73.4482162 L327.402004,73.7967568 L327.599377,74.0179459 L327.890417,74.3195676 L328.092807,74.518973 C328.24,74.6563784 328.392211,74.7887568 328.547767,74.9161081 L328.731758,75.0568649 L329.15661,75.3668649 L329.375726,75.5076216 L329.780507,75.7505946 L329.989587,75.8645405 C330.886126,76.3370811 331.872987,76.6638378 332.91839,76.8029189 C332.813013,78.4232973 332.721018,80.2162703 332.721018,81.6121081 C332.721018,84.9718378 334.084224,95.7832973 348.544247,95.7832973 L348.624534,95.7832973 L348.651296,95.7832973 L348.706493,95.7832973 L348.739946,95.7832973 C348.756673,95.7832973 348.771726,95.7832973 348.78678,95.7816216 L348.820233,95.7816216 L348.86874,95.7816216 L348.902193,95.7816216 C348.918919,95.7816216 348.933973,95.7799459 348.9507,95.7799459 L348.980807,95.7799459 L349.030987,95.7799459 C349.042695,95.7799459 349.052731,95.7782703 349.064439,95.7782703 L349.112946,95.7782703 C349.122982,95.7782703 349.133018,95.7765946 349.143054,95.7765946 L349.194906,95.7765946 C349.203269,95.7765946 349.213305,95.7749189 349.223341,95.7749189 L349.276865,95.7749189 C349.285229,95.7732432 349.293592,95.7732432 349.301955,95.7732432 C349.322027,95.7732432 349.342099,95.7715676 349.36217,95.7715676 L349.38057,95.7715676 C349.405659,95.7698919 349.430749,95.7698919 349.455839,95.7698919 C349.457511,95.7682162 349.457511,95.7682162 349.459184,95.7682162 C349.594668,95.7648649 349.72848,95.7598378 349.860619,95.7531351 L349.868982,95.7531351 C349.894072,95.7514595 349.917489,95.7497838 349.940906,95.7497838 C349.944251,95.7497838 349.945924,95.7481081 349.947596,95.7481081 C349.972686,95.7481081 349.997776,95.7464324 350.022865,95.7447568 L350.026211,95.7447568 C359.755991,95.2286486 363.455883,89.6620541 364.720404,86.3978378 C364.722076,86.3944865 364.723749,86.3911351 364.725422,86.3877838 C364.725422,86.3844324 364.727094,86.3810811 364.728767,86.3777297 C365.036534,85.5801081 365.197108,84.9215676 365.265686,84.511027 C364.382529,86.6491892 361.311552,90.4295135 350.638399,90.4295135 C338.995112,90.4295135 337.170256,80.6586486 336.926049,76.4091351 C338.82283,75.7606486 340.425224,74.4804324 341.4907,72.8215135 L341.754978,72.3774595 L341.811848,72.2785946 L342.037655,71.8328649 L342.09787,71.7021622 L342.281861,71.2664865 L342.347094,71.0922162 L342.489269,70.674973 L342.554502,70.4487568 L342.656534,70.0583243 L342.715076,69.7667568 L342.780309,69.4182162 L342.827143,69.0294595 L342.857251,68.7563243 C342.87565,68.5301081 342.885686,68.3022162 342.885686,68.070973 L342.885686,68.0223784 L342.885686,68.0005946 C342.885686,67.9922162 342.884013,67.9855135 342.884013,67.9771351 C342.882341,67.6855676 342.863942,67.399027 342.832161,67.1141622 L342.827143,67.0873514 C342.792018,66.7807027 342.741839,66.4790811 342.676605,66.1824865" id="Fill-60" fill="#F8A400" sketch:type="MSShapeGroup"/></g></g></g></svg>