<?xml version="1.0" encoding="UTF-8"?><svg width="300px" height="218px" viewBox="0 0 300 218" version="1.1" xmlns="http://www.w3.org/2000/svg" xmlns:xlink="http://www.w3.org/1999/xlink"><title>duo_spaceman_no_bg_centered</title><desc>Created with Sketch.</desc><defs><linearGradient x1="93.0217995%" y1="68.899439%" x2="-8.49016227%" y2="22.3640802%" id="linearGradient-1"><stop stop-color="#FFFFFF" stop-opacity="0.25" offset="0%"/><stop stop-color="#FFFFFF" stop-opacity="0.0724637681" offset="100%"/></linearGradient></defs><g id="Page-1" stroke="none" stroke-width="1" fill="none" fill-rule="evenodd"><g id="duo_spaceman_no_bg_centered" fill-rule="nonzero"><g id="duo_spaceman_no_bg" transform="translate(0.000000, 19.000000)"><path d="M41.0358842,191.606201 C119.321978,221.404187 179.187814,160.968836 179.187814,160.968836 L191.325168,103.469676 C191.325168,103.469676 178.769172,48.4919342 77.0391144,115.642323 C-24.6909432,182.792713 0.427589554,35.9012362 46.8968751,14.0773597 C-7.10960559,40.5161861 -21.3418055,165.585426 41.0358842,191.606201 Z" id="Combined-Shape" fill="url(#linearGradient-1)"/><path d="M130.139057,58.8819631 C124.570073,73.4044971 118.998757,90.1129097 81.4036434,122.936836 C61.3127176,139.050018 100.500746,141.437933 114.622516,132.883245 C114.622516,143.825071 142.471324,157.74849 172.11119,139.248946 C169.327086,157.74849 180.715259,168.492165 183.64933,159.391201 C185.0915,154.318533 202.248355,117.566552 208.117274,105.233005 C213.986193,92.8994583 217.0679,74.3991379 217.0679,74.3991379 L164.553781,80.3669832 C164.553781,80.3669832 135.708042,44.3594292 130.139057,58.8819631 Z" id="Combined-Shape" fill="#E4E1EE"/><g id="Group-4" transform="translate(76.000000, 0.000000)"><ellipse id="Oval-22" fill="#2B70C9" cx="141.86358" cy="48.9363314" rx="9.74708281" ry="12.3335469"/><path d="M57.7196185,38.7902173 C57.7196185,38.7902173 34.4451947,39.585153 23.9032087,66.2423056 C13.3612227,92.8994583 47.3765525,94.0930274 47.3765525,94.0930274 L52.547697,81.9576316 C52.547697,81.9576316 29.2748273,83.1519777 36.2370293,66.0441545 C43.1992313,48.9363314 64.6810435,48.537698 64.6810435,48.537698 L57.7196185,38.7902173 Z" id="Mask" fill="#C3C0CD"/><g id="Path-23-+-Path-23-+-Path-23-+-Path-23-+-Path-23-+-Path-23-Mask" transform="translate(21.516945, 38.592066)" fill="#B5B0C4"><g id="Combined-Shape"><path d="M26.7529062,14.4091555 C25.7891509,14.9279932 24.8313257,15.5070611 23.8948416,16.1533414 C22.9030435,12.3567255 20.6730013,9.90981862 17.5374106,8.73329628 C17.1173145,8.57566969 16.6943688,8.44525816 16.2708544,8.33960758 C17.7558905,7.16780131 19.2446826,6.16432732 20.7025701,5.30505561 C21.5925037,5.49000677 22.4782737,5.78588124 23.291535,6.21023122 C26.0347795,7.64162328 27.4077238,10.1419196 26.7529062,14.4091555 Z M30.4899442,12.6827128 C30.5558663,8.13509686 28.5353392,4.94128943 25.0642847,3.0854898 C31.3456962,0.364040688 36.2026734,0.198151113 36.2026734,0.198151113 L43.1640984,9.94563175 C43.1640984,9.94563175 37.1710477,10.0568435 30.4899442,12.6827128 Z M16.737489,39.9419648 C12.8793589,41.340145 10.4532927,43.8701205 9.35448672,47.2348139 C8.97271933,48.4038375 8.77321931,49.5960101 8.7184471,50.7803096 C6.92933537,49.7264101 5.27162855,48.4386468 3.91213988,46.8654932 C3.92986344,46.7754971 3.94090334,46.6829874 3.94470384,46.5884769 C3.94645064,46.5450378 3.95477983,46.4298626 3.9739771,46.2537553 C4.00799849,45.9416583 4.06134029,45.5892073 4.13799543,45.2073401 C4.35700605,44.116311 4.71535148,43.0276373 5.23728822,42.0273523 C6.91748802,38.8072709 9.83830599,37.149366 14.703388,37.7892611 C15.2492015,38.6246094 15.9438906,39.3361086 16.737489,39.9419648 Z M22.164794,42.423242 C26.5875673,43.5935863 31.0307519,43.3655654 31.0307519,43.3655654 L25.8596075,55.5009612 C25.8596075,55.5009612 18.9641588,55.2590057 12.3446482,52.5599517 C12.2206128,51.1467005 12.3286939,49.6950212 12.7680718,48.3495864 C13.8312261,45.0940635 16.6647112,42.9580195 22.164794,42.423242 Z M13.4561582,34.0896675 C7.98908089,33.8759883 4.20838585,36.2365855 2.05362583,40.3661555 C1.72741344,40.9913373 1.45224943,41.6337974 1.22299829,42.2851495 C0.430259797,40.0595942 0.135428237,37.4604546 0.540792972,34.4252463 C0.542128424,34.4228151 0.543468091,34.4203689 0.544810372,34.4179195 C0.983498956,33.6173886 1.52435459,32.8154597 2.16585443,32.0730798 C5.04324298,28.7432033 8.75789659,27.6713326 13.8349803,30.1193049 C13.4641588,31.6016284 13.3545978,32.9189929 13.4561582,34.0896675 Z M15.0304619,26.7218298 C10.2298377,24.5334635 6.07545125,24.8056545 2.68389331,26.9126279 C3.33552715,25.3296088 4.03249559,23.8403098 4.76683634,22.4391876 C4.92615643,22.3242304 5.09079532,22.2109139 5.260448,22.1000147 C9.03601169,19.6319895 12.8522653,19.5797201 16.7282289,23.5360603 C16.1045049,24.5244133 15.5347441,25.5845974 15.0304619,26.7218298 Z M18.8855384,20.6224176 C15.3841484,17.2589905 11.6718103,16.2579235 8.07041647,17.0274202 C9.52607936,14.9712369 11.0634034,13.1659699 12.6384641,11.5810399 C13.8298798,11.5168116 15.1010361,11.6545922 16.275891,12.0954161 C18.6789729,12.9970897 20.2766357,15.0112276 20.7403211,18.6900176 C20.0984047,19.2918214 19.4780521,19.9350071 18.8855384,20.6224176 Z" id="path-2"/></g></g><path d="M116.501273,18.4008563 C127.541336,18.4008563 144.647684,23.4727477 145.045912,28.1479484 C145.444141,32.8231491 147.035113,64.4523406 147.035113,64.4523406 C147.035113,64.4523406 143.157337,75.7916352 115.606521,75.7916352 C88.0557043,75.7916352 58.3171557,60.0763092 58.3171557,49.0357955 C58.3171557,37.9952817 83.1821629,18.4008563 116.501273,18.4008563 Z" id="Mask" fill="#D3FA8F"/><g id="Combined-Shape" transform="translate(0.000000, 55.000000)" fill="#FFFFFF"><g id="path-4-link"><path d="M0.596573908,73.1303279 C1.44831704,71.5920124 3.0026902,69.8624314 5.4036434,67.9368359 C34.552116,42.4875895 44.4501054,26.7258706 50.0219269,14.1594637 C60.2955257,32.5457588 77.1291548,42.4748064 110.236068,42.4748064 C122.162644,42.4748064 131.132339,38.8837613 137.805782,34.0420634 C136.368675,39.3725734 134.466212,45.2967072 132.117274,50.2330053 C128.009485,58.8655342 118.371829,79.4604518 112.463136,92.7826084 C112.386035,92.7226307 112.307014,92.6635821 112.226045,92.6054839 C103.077277,86.0408541 128.337016,52.4212152 124.953821,52.4212152 C121.570626,52.4212152 112.423411,79.0783679 76.8174981,79.0783679 C69.458233,79.0783679 59.311756,76.6912298 60.1074362,70.3255281 C60.9031165,63.9598265 80.198362,48.0447953 72.2407827,48.0447953 C71.5308678,48.0447953 70.3607861,48.8692352 68.8763906,50.1907345 C68.8387832,50.2037006 68.8001409,50.217787 68.7604587,50.2330053 C34.8445889,82.8572262 18.5331442,79.5749113 13.1623027,79.5749113 C7.91023021,79.5749113 0.280412469,77.7677511 0.596580144,73.1303166 L0.596573908,73.1303279 Z M35.03105,79.6327679 C35.4872077,79.4358032 35.940547,79.2345521 36.390963,79.0292719 L36.369012,79.0648197 C35.9370555,79.2618561 35.4905527,79.4511892 35.03105,79.6327679 Z M140.983774,19.8841987 L128.933776,29.1466186 L80.9940423,29.5444749 L56.7250182,11.0433775 C56.7250182,11.0433775 55.1405209,9.01067421 53.0974052,6.60688955 C53.4496928,5.68800565 53.7943796,4.78079769 54.1390575,3.88196312 C59.708042,-10.6405708 88.5537815,25.3669832 88.5537815,25.3669832 L141.0679,19.3991379 C141.0679,19.3991379 141.039772,19.5679946 140.983774,19.8841987 Z" id="path-4"/></g></g><path d="M97.6788854,79.3299819 L113.591457,77.5216345 C111.920485,116.877807 87.3911605,141.328944 52.9298865,146.161835 C47.7099906,144.420271 43.6342272,141.775556 41.190468,138.89055 C69.0220397,133.419001 95.559512,116.402515 97.6788854,79.3299819 Z" id="Combined-Shape" fill="#2B70C9"/><g id="Mask" transform="translate(50.000000, 0.000000)" fill="#FFFFFF"><path d="M16.8707182,0 C26.1205008,0 42.1320114,15.3166925 57.449633,15.3166925 C72.767254,15.3166925 71.374814,4.37564282 79.927599,4.37564282 C88.480385,4.37564282 90.670059,24.2692375 91.46574,28.247801 C92.26142,32.2263646 93.65386,60.4741656 93.65386,62.2645192 C93.65386,64.0548728 93.0571,81.1626959 91.66466,82.356265 C90.272219,83.549834 83.508937,91.9048174 59.04177,91.9048174 C34.5746033,91.9048174 7.1236354,81.9584086 0.7581935,61.8666628 C5.930115,42.0733093 1.1560336,0 16.8707182,0 Z" id="path-6"/></g><path d="M94,12 C98.4165529,13.8570971 102.960742,15.1700547 107.44545,15.1700547 C107.492375,15.1700547 107.539143,15.169952 107.585755,15.1697473 C115.077949,27.6497705 119.721487,45.1344394 118.189464,69.8760803 C117.699445,77.7897203 116.542,85.0073395 114.847961,91.5897919 C113.031739,91.6989643 111.097401,91.7581796 109.037587,91.7581796 C105.674536,91.7581796 102.255112,91.5702627 98.8418202,91.1939123 C98.9264825,90.8532248 99.0097417,90.5108416 99.0915844,90.1667542 C109.892385,44.7574535 102.985269,22.9200745 94,12 Z" id="Combined-Shape" fill="#2B70C9"/><g id="Path-13" transform="translate(57.559273, 18.000000)"><g id="Path-14" transform="translate(0.558962, 0.301392)"><path d="M58.3830369,0.0994640881 C69.4231,0.0994640881 86.529448,5.17135552 86.9276766,9.8465562 C87.3259052,14.5217569 88.9168772,46.1509484 88.9168772,46.1509484 C88.9168772,46.1509484 85.0391016,57.4902429 57.4882851,57.4902429 C29.9374686,57.4902429 0.198920057,41.774917 0.198920057,30.7344032 C0.198920057,19.6938895 25.0639272,0.0994640881 58.3830369,0.0994640881 Z" id="Mask" fill="#78C800"/><path d="M20.0699106,9.41868935 C24.2805556,7.17706161 29.0503362,5.1806641 34.2703138,3.61635052 C41.7569827,6.34648579 50.8079168,12.3331584 57.4878966,12.3331584 C66.1409191,12.3331584 70.2180032,7.35995399 73.3016526,7.35995399 C76.3853021,7.35995399 82.4523638,10.2448011 83.248044,26.9547679 C84.0437243,43.6647347 80.7524119,48.1406187 75.3907018,48.1406187 C70.0289916,48.1406187 67.1355194,44.8583038 63.4554983,37.2990331 C59.7754773,29.7397624 55.4983075,37.6965009 55.4983075,37.6965009 C55.4983075,37.6965009 48.1378769,48.1402301 35.1090016,48.1402301 C22.0801264,48.1402301 18.996477,33.1207643 18.996477,21.8817109 C18.996477,17.0492022 19.1988168,12.7498953 20.0699106,9.41868935 Z" id="Combined-Shape" fill="#8EE000"/><ellipse id="Oval-18" fill="#FFFFFF" transform="translate(37.198051, 28.844586) rotate(-4.000000) translate(-37.198051, -28.844586)" cx="37.1980507" cy="28.8445856" rx="9.74708281" ry="13.3281878"/><ellipse id="Oval-18" fill="#3F3F3F" transform="translate(38.245012, 27.180659) rotate(-4.000000) translate(-38.245012, -27.180659)" cx="38.2450121" cy="27.180659" rx="5.41640909" ry="7.40641266"/><rect id="Rectangle-55" fill="#71B200" x="52.9127353" y="36.2049281" width="13.1287238" height="19.8928176" rx="6.5643619"/><ellipse id="Oval-21" fill="#FFFFFF" cx="32.6228894" cy="23.8713812" rx="3.97840115" ry="4.37641988"/><ellipse id="Oval-18" fill="#FFFFFF" transform="translate(73.257155, 31.718544) rotate(-4.000000) translate(-73.257155, -31.718544)" cx="73.2571551" cy="31.718544" rx="6.76328195" ry="12.650007"/><ellipse id="Oval-18" fill="#3F3F3F" transform="translate(74.533452, 30.246283) rotate(-4.000000) translate(-74.533452, -30.246283)" cx="74.5334523" cy="30.2462832" rx="3.7359654" ry="7.40641266"/><path d="M54.5040957,37.9952817 C54.5040957,41.1781325 55.0013959,47.0465137 59.4770972,47.0465137 C63.9527985,47.0465137 65.842539,40.3824198 65.842539,38.393138 C65.842539,36.4038563 54.5040957,34.8124309 54.5040957,37.9952817 Z" id="Path-16" fill="#F49000"/><path d="M62.6594296,28.7447329 C69.22418,28.7447329 72.2079808,38.7909944 72.2079808,40.581348 C72.2079808,42.3717016 54.9019359,40.1834916 54.0067956,38.9899226 C53.1116553,37.7963535 56.0946792,28.7447329 62.6594296,28.7447329 Z" id="Path-15" fill="#FFC200"/><path d="M87.2062282,14.040857 C87.0896342,12.0936244 86.9927373,10.6103689 86.9276766,9.8465562 C86.529448,5.17135552 69.4231,0.0994640881 58.3830369,0.0994640881 C25.0639272,0.0994640881 0.198920057,19.6938895 0.198920057,30.7344032 C0.198920057,31.6211425 0.390757375,32.5380381 0.75789076,33.4745256 C5.18611904,26.5764633 22.6364932,3.58070717 58.4824969,3.58070717 C70.4607394,3.58070717 79.8712133,7.88189517 87.2062282,14.040857 Z" id="Combined-Shape" fill="#78C800" opacity="0.5"/><ellipse id="Oval-21" fill="#FFFFFF" cx="70.6166204" cy="26.6563756" rx="2.98380086" ry="4.37641988"/><path d="M73.5319415,2.30164929 C68.5149238,0.961183667 62.9336463,0.0994640881 58.3830369,0.0994640881 C55.7399263,0.0994640881 53.1500157,0.222767875 50.6214973,0.455324082 L42.3411373,8.73568402 C38.9207575,12.1560639 38.9262218,17.6925911 42.3444184,21.1107877 C45.7556596,24.5220289 51.3031375,24.5304532 54.719522,21.1140687 L73.5319414,2.30164929 L73.5319415,2.30164929 Z" id="Combined-Shape" fill="#FFFFFF" opacity="0.369565217"/><path d="M87.8969046,26.456352 C88.4100431,36.0748749 88.9168772,46.1509484 88.9168772,46.1509484 C88.9168772,46.1509484 85.0391016,57.4902429 57.4882851,57.4902429 C55.3282832,57.4902429 53.1548341,57.3936462 50.983323,57.2102786 L78.5343255,29.6592762 C81.0901161,27.1034855 84.5699506,26.0355489 87.8969046,26.456352 Z" id="Combined-Shape" fill="#FFFFFF" opacity="0.369565217"/></g></g><ellipse id="Oval-20" fill="#D98500" cx="17.1407038" cy="147.405779" rx="6.36544184" ry="4.97320441"/><ellipse id="Combined-Shape" fill="#D98500" cx="40.2154305" cy="154.567193" rx="6.36544184" ry="4.97320441"/><ellipse id="Oval-22" fill="#328CFF" cx="61.8977167" cy="48.9363314" rx="9.74708281" ry="12.3335469"/><ellipse id="Oval-22" fill="#2B70C9" cx="59.1128359" cy="48.9363314" rx="9.74708281" ry="12.3335469"/></g></g></g></g></svg>