<?xml version="1.0" encoding="UTF-8"?><svg width="156px" height="225px" viewBox="0 0 156 225" version="1.1" xmlns="http://www.w3.org/2000/svg" xmlns:xlink="http://www.w3.org/1999/xlink"><title>Artboard</title><desc>Created with Sketch.</desc><defs/><g id="Page-2" stroke="none" stroke-width="1" fill="none" fill-rule="evenodd"><g id="Artboard"><g id="Group-8-Copy" transform="translate(2.000000, 2.000000)"><g id="Group-5"><path d="M43.5794643,145.122917 L110.571936,145.122917 C119.395706,145.122917 126.616883,137.883821 126.616883,129.035128 L126.616883,120.886378 L27.534518,120.886378 L27.534518,129.035128 C27.534518,137.883821 34.7543364,145.122917 43.5794643,145.122917 L43.5794643,145.122917 Z" id="Fill-1" fill="#00843F"/><path d="M37.7067749,130.463338 L116.444354,130.463338 C122.038491,130.463338 126.616747,125.874219 126.616747,120.263783 L126.616747,120.263783 C126.616747,114.654709 122.038491,110.06559 116.444354,110.06559 L37.7067749,110.06559 C32.112638,110.06559 27.5343822,114.654709 27.5343822,120.263783 L27.5343822,120.263783 C27.5343822,125.874219 32.112638,130.463338 37.7067749,130.463338" id="Fill-3" fill="#02662D"/><path d="M20.0771627,186.15427 C20.0771627,154.919665 45.3302295,129.599168 76.4816544,129.599168 L76.4816544,129.599168 C107.633079,129.599168 132.886146,154.919665 132.886146,186.15427 L132.886146,199.261175 L20.0771627,199.261175 L20.0771627,186.15427 Z" id="Fill-5" fill="#00843F"/><path d="M95.3450834,174.652895 L95.3654553,174.652895 C96.3582482,174.652895 97.171768,173.838564 97.171768,172.843121 L97.171768,145.120485 C97.171768,144.125041 96.3582482,143.310711 95.3654553,143.310711 L95.3450834,143.310711 C94.3522904,143.310711 93.5401288,144.125041 93.5401288,145.120485 L93.5401288,172.843121 C93.5401288,173.838564 94.3522904,174.652895 95.3450834,174.652895" id="Fill-7" fill="#FFFFFF"/><path d="M52.1345518,174.652895 L52.1549237,174.652895 C53.1477167,174.652895 53.9612365,173.838564 53.9612365,172.843121 L53.9612365,145.120485 C53.9612365,144.125041 53.1477167,143.310711 52.1549237,143.310711 L52.1345518,143.310711 C51.1417588,143.310711 50.3295972,144.125041 50.3295972,145.120485 L50.3295972,172.843121 C50.3295972,173.838564 51.1417588,174.652895 52.1345518,174.652895" id="Fill-9" fill="#FFFFFF"/><path d="M48.0593473,169.106597 L48.0593473,169.127024 C48.0593473,170.122468 48.871509,170.93816 49.8643019,170.93816 L54.424902,170.93816 C55.4176949,170.93816 56.2298566,170.122468 56.2298566,169.127024 L56.2298566,169.106597 C56.2298566,168.111153 55.4176949,167.296823 54.424902,167.296823 L49.8643019,167.296823 C48.871509,167.296823 48.0593473,168.111153 48.0593473,169.106597" id="Fill-11" fill="#FFFFFF"/><path d="M91.2700147,169.106597 L91.2700147,169.127024 C91.2700147,170.122468 92.0821763,170.93816 93.0749693,170.93816 L97.6355694,170.93816 C98.6283623,170.93816 99.440524,170.122468 99.440524,169.127024 L99.440524,169.106597 C99.440524,168.111153 98.6283623,167.296823 97.6355694,167.296823 L93.0749693,167.296823 C92.0821763,167.296823 91.2700147,168.111153 91.2700147,169.106597" id="Fill-13" fill="#FFFFFF"/><polygon id="Fill-31" fill="#E08070" points="62.818552 151.642481 73.8003902 161.68271 84.8514929 151.642481"/><path d="M76.7963331,151.326126 L76.7963331,151.326126 C85.3932951,151.326126 92.3618595,144.338954 92.3618595,135.719037 L92.3618595,117.004419 C92.3618595,108.384502 85.3932951,101.395968 76.7963331,101.395968 L76.7963331,101.395968 C68.199371,101.395968 61.2308066,108.384502 61.2308066,117.004419 L61.2308066,135.719037 C61.2308066,144.338954 68.199371,151.326126 76.7963331,151.326126" id="Fill-32" fill="#E08070"/><path d="M33.281852,62.5228633 C15.5324527,62.5228633 1.00997004,77.0242066 1.00997004,94.748827 L1.00997004,100.067847 L1.00997004,118.638118 L1.00997004,150.727906 L1.01132817,150.727906 C18.7593693,150.727906 33.281852,136.226563 33.281852,118.501943 L33.281852,113.182923 L33.281852,62.5228633 L33.281852,62.5228633 Z" id="Fill-33" fill="#FFB000"/><path d="M107.351403,73.0898202 L100.067753,73.0898202 C90.5513366,73.0898202 82.765178,65.2828711 82.765178,55.7410444 L82.765178,45.1329626 C82.765178,35.5897742 90.5513366,27.7828251 100.067753,27.7828251 L107.351403,27.7828251 C116.867819,27.7828251 124.653978,35.5897742 124.653978,45.1329626 L124.653978,55.7410444 C124.653978,65.2828711 116.867819,73.0898202 107.351403,73.0898202" id="Fill-34" fill="#FFB000"/><path d="M131.121256,76.8507188 C131.121256,82.7198886 126.37595,87.4778652 120.522411,87.4778652 C114.668871,87.4778652 109.922207,82.7198886 109.922207,76.8507188 C109.922207,70.981549 114.668871,66.2235724 120.522411,66.2235724 C126.37595,66.2235724 131.121256,70.981549 131.121256,76.8507188" id="Fill-35" fill="#E08070"/><path d="M43.7500454,76.8507188 C43.7500454,82.7198886 39.0047397,87.4778652 33.1511999,87.4778652 C27.2976602,87.4778652 22.5509963,82.7198886 22.5509963,76.8507188 C22.5509963,70.981549 27.2976602,66.2235724 33.1511999,66.2235724 C39.0047397,66.2235724 43.7500454,70.981549 43.7500454,76.8507188" id="Fill-36" fill="#E08070"/><path d="M76.9639263,130.423711 L76.8321877,130.423711 C52.7756333,130.423711 33.2742465,110.870252 33.2742465,86.7494618 L33.2742465,59.4299062 C33.2742465,35.3091162 52.7756333,15.755657 76.8321877,15.755657 L76.9639263,15.755657 C101.020481,15.755657 120.521867,35.3091162 120.521867,59.4299062 L120.521867,86.7494618 C120.521867,110.870252 101.020481,130.423711 76.9639263,130.423711" id="Fill-37" fill="#E8957C"/><path d="M54.4345889,79.2983396 L54.4345889,79.2983396 C47.6996229,79.2983396 42.1883319,73.7736942 42.1883319,67.0193828 L42.1883319,56.0286474 L66.680846,56.0286474 L66.680846,67.0193828 C66.680846,73.7736942 61.169555,79.2983396 54.4345889,79.2983396" id="Fill-38" fill="#EDAF9F"/><path d="M59.9097537,66.2233 C59.9097537,69.2545696 57.4583293,71.7125398 54.4351322,71.7125398 C51.410577,71.7125398 48.9591525,69.2545696 48.9591525,66.2233 C48.9591525,63.1920304 51.410577,60.7340602 54.4351322,60.7340602 C57.4583293,60.7340602 59.9097537,63.1920304 59.9097537,66.2233" id="Fill-39" fill="#CC7262"/><path d="M99.4704471,87.3092798 C99.4704471,99.821097 89.3550958,109.96482 76.8752404,109.96482 C64.3967432,109.96482 54.2813919,99.821097 54.2813919,87.3092798" id="Fill-40" fill="#B2473B"/><path d="M55.4776327,94.5402059 L98.273663,94.5402059 C99.0382901,92.2674346 99.4701754,89.8407848 99.4701754,87.3092798 L54.2811203,87.3092798 C54.2811203,89.8407848 54.7130056,92.2674346 55.4776327,94.5402059" id="Fill-41" fill="#FFFFFF"/><path d="M99.2543686,79.2983396 L99.2543686,79.2983396 C92.5194026,79.2983396 87.0081116,73.7736942 87.0081116,67.0193828 L87.0081116,56.0286474 L111.500626,56.0286474 L111.500626,67.0193828 C111.500626,73.7736942 105.989335,79.2983396 99.2543686,79.2983396" id="Fill-42" fill="#EDAF9F"/><path d="M90.0425811,105.694761 C86.9650588,101.84099 82.240125,99.3666789 76.9325535,99.3666789 L76.9325535,99.3666789 C71.6005356,99.3666789 66.8593042,101.865502 63.781782,105.749231 C67.4786115,108.3924 71.9903189,109.963867 76.875512,109.963867 C81.7946584,109.963867 86.3321703,108.370612 90.0425811,105.694761" id="Fill-43" fill="#CC4F46"/><path d="M81.5677149,80.6233286 L72.2292139,80.6233286 C70.7882381,80.6233286 69.6202464,79.4522181 69.6202464,78.0073946 L69.6202464,63.3004262 C69.6202464,61.8556027 70.7882381,60.6844923 72.2292139,60.6844923 L81.5677149,60.6844923 C83.0086907,60.6844923 84.1766824,61.8556027 84.1766824,63.3004262 L84.1766824,78.0073946 C84.1766824,79.4522181 83.0086907,80.6233286 81.5677149,80.6233286" id="Fill-44" fill="#E08070"/><path d="M33.2749256,66.2294279 L33.2749256,59.4301785 C33.2749256,35.3093886 52.7763124,15.7559293 76.8328668,15.7559293 L76.9646053,15.7559293 C88.8672555,15.7559293 99.6508067,20.5479499 107.513021,28.3072375 C102.142975,11.9212235 86.7159778,0.000408526901 68.6379111,0.000408526901 C46.1377736,0.000408526901 27.7283232,18.4590157 27.7283232,41.0192329 L27.7283232,67.7328069 C29.315977,66.7809392 31.167108,66.2239809 33.1513357,66.2239809 C33.1920796,66.2239809 33.2328235,66.2294279 33.2749256,66.2294279" id="Fill-45" fill="#FFC200"/><path d="M33.2749256,66.2294279 L33.2749256,63.1532203 L27.7283232,63.1532203 L27.7283232,67.7314451 C29.315977,66.7809392 31.167108,66.2239809 33.1513357,66.2239809 C33.1920796,66.2239809 33.2328235,66.2294279 33.2749256,66.2294279" id="Fill-46" fill="#FFB000"/><path d="M104.729533,66.2233 C104.729533,69.2545696 102.278109,71.7125398 99.2549118,71.7125398 C96.2303566,71.7125398 93.7789322,69.2545696 93.7789322,66.2233 C93.7789322,63.1920304 96.2303566,60.7340602 99.2549118,60.7340602 C102.278109,60.7340602 104.729533,63.1920304 104.729533,66.2233" id="Fill-47" fill="#CC7262"/><path d="M29.0549444,93.625378 L29.0549444,93.625378 C28.3256287,93.625378 27.7280515,93.0262053 27.7280515,92.2949421 L27.7280515,84.5601661 C27.7280515,83.828903 28.3256287,83.2297302 29.0549444,83.2297302 L29.0549444,83.2297302 C29.7842602,83.2297302 30.3818373,83.828903 30.3818373,84.5601661 L30.3818373,92.2949421 C30.3818373,93.0262053 29.7842602,93.625378 29.0549444,93.625378" id="Fill-48" fill="#DDDDDD"/><path d="M124.314445,93.625378 L124.314445,93.625378 C123.585129,93.625378 122.987552,93.0262053 122.987552,92.2949421 L122.987552,84.5601661 C122.987552,83.828903 123.585129,83.2297302 124.314445,83.2297302 C125.043761,83.2297302 125.641338,83.828903 125.641338,84.5601661 L125.641338,92.2949421 C125.641338,93.0262053 125.043761,93.625378 124.314445,93.625378" id="Fill-49" fill="#DDDDDD"/><path d="M54.4765551,78.9906117 C47.6884946,78.9906117 42.1295418,73.4168156 42.1295418,66.6150773 L42.1295418,61.3736772 C42.1295418,58.6834407 44.3335562,56.474185 47.0217803,56.474185 L61.93133,56.474185 C64.6195541,56.474185 66.8235684,58.6834407 66.8235684,61.3736772 L66.8235684,66.6150773 C66.8235684,73.4168156 61.2646157,78.9906117 54.4765551,78.9906117 L54.4765551,78.9906117 Z M54.4765551,82.0847364 C62.9620231,82.0847364 69.9005814,75.1276508 69.9005814,66.6150773 L69.9005814,61.3736772 C69.9005814,56.9724031 66.3167615,53.3800603 61.93133,53.3800603 L47.0217803,53.3800603 C42.6363488,53.3800603 39.0525289,56.9724031 39.0525289,61.3736772 L39.0525289,66.6150773 C39.0525289,75.1276508 45.9910872,82.0847364 54.4765551,82.0847364 L54.4765551,82.0847364 Z" id="Stroke-50" fill="#54231C"/><path d="M99.2752838,78.9906117 C92.4872232,78.9906117 86.9282705,73.4168156 86.9282705,66.6150773 L86.9282705,61.3736772 C86.9282705,58.6834407 89.1322848,56.474185 91.8205089,56.474185 L106.730059,56.474185 C109.418283,56.474185 111.622297,58.6834407 111.622297,61.3736772 L111.622297,66.6150773 C111.622297,73.4168156 106.063344,78.9906117 99.2752838,78.9906117 L99.2752838,78.9906117 Z M99.2752838,82.0847364 C107.760752,82.0847364 114.69931,75.1276508 114.69931,66.6150773 L114.69931,61.3736772 C114.69931,56.9724031 111.11549,53.3800603 106.730059,53.3800603 L91.8205089,53.3800603 C87.4350775,53.3800603 83.8512575,56.9724031 83.8512575,61.3736772 L83.8512575,66.6150773 C83.8512575,75.1276508 90.7898159,82.0847364 99.2752838,82.0847364 L99.2752838,82.0847364 Z" id="Stroke-51" fill="#54231C"/><path d="M68.3616675,63.18315 L85.3898998,63.18315 C86.2395935,63.18315 86.9284063,62.4905065 86.9284063,61.6360876 C86.9284063,60.7816687 86.2395935,60.0890253 85.3898998,60.0890253 L68.3616675,60.0890253 C67.5119738,60.0890253 66.823161,60.7816687 66.823161,61.6360876 C66.823161,62.4905065 67.5119738,63.18315 68.3616675,63.18315 L68.3616675,63.18315 Z" id="Stroke-52" fill="#54231C"/><path d="M27.4344239,66.7480919 L39.1292802,66.7480919 C39.9789738,66.7480919 40.6677867,66.0554485 40.6677867,65.2010295 C40.6677867,64.3466106 39.9789738,63.6539672 39.1292802,63.6539672 L27.4344239,63.6539672 C26.5847302,63.6539672 25.8959174,64.3466106 25.8959174,65.2010295 C25.8959174,66.0554485 26.5847302,66.7480919 27.4344239,66.7480919 L27.4344239,66.7480919 Z" id="Stroke-53" fill="#54231C"/><path d="M114.622287,66.7480919 L126.317143,66.7480919 C127.166837,66.7480919 127.85565,66.0554485 127.85565,65.2010295 C127.85565,64.3466106 127.166837,63.6539672 126.317143,63.6539672 L114.622287,63.6539672 C113.772593,63.6539672 113.083781,64.3466106 113.083781,65.2010295 C113.083781,66.0554485 113.772593,66.7480919 114.622287,66.7480919 L114.622287,66.7480919 Z" id="Stroke-54" fill="#54231C"/><path d="M107.240715,28.047142 C99.4015899,20.4430946 88.7321216,15.7559293 76.9639263,15.7559293 L76.8321877,15.7559293 C56.6979124,15.7559293 39.763391,29.4565598 34.7736219,48.0649601 C42.315317,57.27588 53.7575612,63.1532203 66.5715165,63.1532203 C87.2069418,63.1532203 104.288141,47.9138052 107.240715,28.047142" id="Fill-55" fill="#FFC200"/><polygon id="Fill-56" fill="#FFC200" points="27.7276441 63.1528118 66.5715165 63.1528118 66.5715165 43.3310866 27.7276441 43.3310866"/><g id="Group-6" transform="translate(0.000000, 139.693708)"><path d="M16.6627615,0.48165003 L135.337238,0.48165003 C137.901332,0.48165003 139.979916,2.30983177 139.979916,4.56503489 L139.979916,76.0019008 C139.979916,78.2570927 137.901332,80.08528 135.337238,80.08528 L16.6627615,80.08528 C14.0986805,80.08528 12.0200837,78.2570927 12.0200837,76.0019008 L12.0200837,4.56503489 C12.0200837,2.30983177 14.0986805,0.48165003 16.6627615,0.48165003 L16.6627615,0.48165003 Z" id="Fill-16" fill="#353535"/><path d="M20.9238494,7.48495219 L131.203347,7.48495219 C132.257044,7.48495219 133.111297,8.34005538 133.111297,9.39494368 L133.111297,71.6224603 C133.111297,72.6773231 132.257044,73.5324518 131.203347,73.5324518 L20.9238494,73.5324518 C19.8700887,73.5324518 19.0158996,72.6773231 19.0158996,71.6224603 L19.0158996,9.39494368 C19.0158996,8.34005538 19.8700887,7.48495219 20.9238494,7.48495219 L20.9238494,7.48495219 Z" id="Fill-18" fill="#FFFFFF"/><path d="M20.9238494,7.48495219 L131.203347,7.48495219 C132.257044,7.48495219 133.111297,8.34005538 133.111297,9.39494368 L133.111297,71.6224603 C133.111297,72.6773231 132.257044,73.5324518 131.203347,73.5324518 L20.9238494,73.5324518 C19.8700887,73.5324518 19.0158996,72.6773231 19.0158996,71.6224603 L19.0158996,9.39494368 C19.0158996,8.34005538 19.8700887,7.48495219 20.9238494,7.48495219 L20.9238494,7.48495219 Z" id="Fill-20" fill="#FFFFFF"/><path d="M7.05941423,22.0008876 L17.0443515,22.0008876 C20.9431833,22.0008876 24.1037657,25.1563209 24.1037657,29.0487562 L24.1037657,29.0487562 C24.1037657,32.9411915 20.9431833,36.0966248 17.0443515,36.0966248 L7.05941423,36.0966248 C3.16060787,36.0966248 0,32.9411915 0,29.0487562 L0,29.0487562 C0,25.1563209 3.16060787,22.0008876 7.05941423,22.0008876 L7.05941423,22.0008876 Z" id="Fill-42" fill="#E8957C"/><path d="M7.05941423,35.68916 L17.0443515,35.68916 C20.9431833,35.68916 24.1037657,38.8445932 24.1037657,42.7370286 L24.1037657,42.7370286 C24.1037657,46.6294639 20.9431833,49.7848972 17.0443515,49.7848972 L7.05941423,49.7848972 C3.16060787,49.7848972 0,46.6294639 0,42.7370286 L0,42.7370286 C0,38.8445932 3.16060787,35.68916 7.05941423,35.68916 L7.05941423,35.68916 Z" id="Fill-43" fill="#E8957C"/><path d="M7.05941423,49.313766 L17.0443515,49.313766 C20.9431833,49.313766 24.1037657,52.4691993 24.1037657,56.3616473 L24.1037657,56.3616473 C24.1037657,60.2540827 20.9431833,63.4095223 17.0443515,63.4095223 L7.05941423,63.4095223 C3.16060787,63.4095223 0,60.2540827 0,56.3616473 L0,56.3616473 C0,52.4691993 3.16060787,49.313766 7.05941423,49.313766 L7.05941423,49.313766 Z" id="Fill-44" fill="#E8957C"/><path d="M134.89205,22.0008876 L144.876987,22.0008876 C148.775819,22.0008876 151.936402,25.1563209 151.936402,29.0487562 L151.936402,29.0487562 C151.936402,32.9411915 148.775819,36.0966248 144.876987,36.0966248 L134.89205,36.0966248 C130.993218,36.0966248 127.832636,32.9411915 127.832636,29.0487562 L127.832636,29.0487562 C127.832636,25.1563209 130.993218,22.0008876 134.89205,22.0008876 L134.89205,22.0008876 Z" id="Fill-45" fill="#E8957C"/><path d="M134.89205,35.68916 L144.876987,35.68916 C148.775819,35.68916 151.936402,38.8445932 151.936402,42.7370286 L151.936402,42.7370286 C151.936402,46.6294639 148.775819,49.7848972 144.876987,49.7848972 L134.89205,49.7848972 C130.993218,49.7848972 127.832636,46.6294639 127.832636,42.7370286 L127.832636,42.7370286 C127.832636,38.8445932 130.993218,35.68916 134.89205,35.68916 L134.89205,35.68916 Z" id="Fill-46" fill="#E8957C"/><path d="M134.89205,49.313766 L144.876987,49.313766 C148.775819,49.313766 151.936402,52.4691993 151.936402,56.3616473 L151.936402,56.3616473 C151.936402,60.2540827 148.775819,63.4095223 144.876987,63.4095223 L134.89205,63.4095223 C130.993218,63.4095223 127.832636,60.2540827 127.832636,56.3616473 L127.832636,56.3616473 C127.832636,52.4691993 130.993218,49.313766 134.89205,49.313766 L134.89205,49.313766 Z" id="Fill-47" fill="#E8957C"/></g></g><g id="Skills" transform="translate(51.000000, 152.000000)"><g id="egg-skill" transform="translate(17.000000, 0.000000)"><path d="M14.9253634,6.92222905 C14.9253634,10.7449458 11.7969775,13.843912 7.9379363,13.843912 C4.07888591,13.843912 0.950500008,10.7449458 0.950500008,6.92222905 C0.950500008,3.09951234 4.07888591,0.000637104283 7.9379363,0.000637104283 C11.7969775,0.000637104283 14.9253634,3.09951234 14.9253634,6.92222905 L14.9253634,6.92222905 Z" id="circle_6" fill="#3FABE0"/><g id="egg" transform="translate(4.000000, 3.000000)"><path d="M5.40896779,0.916826117 L4.76538692,1.64540037 L5.22508885,2.00973301 L4.48956392,3.74010824 L4.76538692,2.28286872 L4.12181524,1.82752118 L4.76538692,0.552493482 L3.93792712,0.27926676 C2.2830167,0.27926676 0.995854962,3.01153399 0.995854962,4.65080331 C0.998106016,6.25885452 2.31465089,7.56118669 3.93792712,7.56118669 C5.56121253,7.56118669 6.87777578,6.25885452 6.88000846,4.65080331 C6.83538247,3.27611429 6.31616083,1.95812756 5.40897698,0.916826117 L5.40896779,0.916826117 Z" id="Fill-29" fill="#FFFFFF"/><path d="M4.02987118,6.01693692 C2.86884196,6.03177235 1.77245933,5.48868645 1.08778984,4.55978841 L1.08779902,4.55978841 C1.08778984,6.16929586 2.40500544,7.47417644 4.02987118,7.47417644 C5.65472773,7.47417644 6.97195252,6.16929586 6.97195252,4.55978841 L6.97195252,4.55978841 C6.28728303,5.48877747 5.19089121,6.03177235 4.02987118,6.01693692 L4.02987118,6.01693692 Z" id="Fill-31" fill-opacity="0.2" fill="#3FABE0"/></g></g><g id="chat-skill" transform="translate(9.000000, 19.000000)"><path d="M14.1910726,7.86750675 C14.1910726,11.6903145 11.0626959,14.7891897 7.20364553,14.7891897 C3.34459513,14.7891897 0.216218419,11.6903145 0.216218419,7.86750675 C0.216218419,4.04479004 3.34459513,0.945914804 7.20364553,0.945914804 C11.0626959,0.945914804 14.1910726,4.04479004 14.1910726,7.86750675 L14.1910726,7.86750675 Z" id="circle_5" fill="#7CC142"/><g id="chat-bubbles" transform="translate(3.000000, 4.000000)" fill="#FFFFFF"><path d="M5.85856513,2.86570577 C5.86815738,1.38725978 4.72464044,0.151823557 3.23686847,0.033413175 C1.74910568,-0.0850882216 0.421048271,0.953482775 0.192093132,2.41454493 C-0.0368711948,3.87551606 0.91084082,5.26413035 2.36485617,5.597973 C2.49666686,6.19393855 3.03624904,6.6139723 3.65201791,6.59977398 L3.65200872,5.597973 C4.93725936,5.3029027 5.85007545,4.17258869 5.85856513,2.86579679 L5.85856513,2.86570577 Z" id="Fill-36"/><path d="M8.06512155,4.14073347 C8.08077786,2.85023324 7.08651956,1.76724697 5.78805662,1.66057751 C4.48961205,1.55399907 3.32886766,2.45987034 3.12971831,3.73535312 C2.93056896,5.01083589 3.76079434,6.22178911 5.03110533,6.50875908 C5.18660261,6.98576816 5.628535,7.31405889 6.13438813,7.32834823 L6.13438813,6.50875908 C7.2530516,6.25619274 8.05130283,5.2772365 8.06512155,4.14073347 L8.06512155,4.14073347 Z" id="Fill-38" fill-opacity="0.5"/></g></g><g id="chick-skill" transform="translate(26.000000, 19.000000)"><path d="M14.7515799,7.86750675 C14.7515799,11.6903145 11.6232032,14.7891897 7.76415277,14.7891897 C3.90510237,14.7891897 0.776725658,11.6903145 0.776725658,7.86750675 C0.776725658,4.04479004 3.90510237,0.945914804 7.76415277,0.945914804 C11.6232032,0.945914804 14.7515799,4.04479004 14.7515799,7.86750675 L14.7515799,7.86750675 Z" id="circle_4" fill="#D33031"/><g id="chick" transform="translate(3.000000, 3.000000)"><path d="M2.64954042,6.14262547 L4.48833896,6.87119972 L4.48833896,6.87119972 L5.59161257,7.05332053 C6.0578839,6.80184637 6.4409765,6.42231425 6.69488618,5.96050466 L6.87876512,5.96041364 L7.15458811,5.68718692 L7.33846705,5.68718692 L7.33846705,3.68358496 C7.33846705,2.32555168 6.22707127,1.22454446 4.85609683,1.22454446 C3.4851132,1.22454446 2.37370823,2.32555168 2.37370823,3.68358496 L2.37370823,6.05151955 L2.64954042,6.14262547 Z" id="Fill-42" fill="#FFD733"/><path d="M5.40773363,1.40675628 L5.40773363,0.678091015 C5.00152409,0.678091015 4.67221789,1.00437942 4.67221789,1.40675628 L5.40773363,1.40675628 L5.40773363,1.40675628 Z" id="Fill-43" fill="#FFD733"/><path d="M4.30445083,1.40675628 L4.30445083,0.769196927 C4.65988763,0.769196927 4.9480317,1.05461965 4.9480317,1.40675628 L4.30445083,1.40675628 L4.30445083,1.40675628 Z" id="Fill-44" fill="#FFD733"/><polygon id="Fill-47" fill="#F7961D" points="4.07110384 3.52485498 4.85123639 2.7521385 5.65738009 3.55070321 4.87723836 4.32341969"/><path d="M0.810741874,3.77469088 C0.810741874,4.68001606 1.55167852,5.4139602 2.46566148,5.4139602 L2.46566148,3.77469088 L0.810741874,3.77469088 L0.810741874,3.77469088 Z" id="Fill-48" fill="#FFD733"/><path d="M8.62562879,3.77469088 C8.62562879,4.68001606 7.88469214,5.4139602 6.97070918,5.4139602 L6.97070918,3.77469088 L8.62562879,3.77469088 L8.62562879,3.77469088 Z" id="Fill-49" fill="#FFD733"/><polygon id="Fill-50" fill="#E56F24" points="5.68355663 3.59247905 4.85609683 3.77469088 4.02863702 3.59247905 4.85609683 4.32114432"/><polygon id="Fill-51" fill="#FFD733" points="2.09790361 5.04971858 2.09790361 5.86939874 2.46566148 6.78009381 3.84475809 7.32654725 6.05132369 7.14442644 7.52235517 6.14262547 7.52235517 5.14073347 5.77550069 4.86750675 3.47700022 4.50326513"/><path d="M7.70623411,5.04971858 L7.70623411,5.96041364 C7.70623411,7.5700121 6.3890277,8.87480168 4.76416195,8.87480168 L4.76416195,8.87480168 C3.1393054,8.87480168 1.8220898,7.5700121 1.8220898,5.96041364 L1.8220898,5.04971858 L3.01730747,6.05151955 L4.85610602,5.04971858 L6.6029605,6.05151955 L7.70623411,5.04971858 Z" id="Fill-52" fill="#FFFFFF"/><path d="M1.84661865,6.29962158 C2.03051758,7.96398926 3.29991198,8.85931396 4.76415277,8.85931396 C6.22839355,8.85931396 7.70422363,7.69000244 7.70422363,6.11352539 C7.04300185,7.13853517 5.99216232,7.78617249 4.76415277,7.78189479 C3.63552953,7.76760545 2.51217716,7.2026714 1.84661865,6.29962158 Z" id="Fill-54" fill-opacity="0.8" fill="#FACBCB"/></g></g><g id="burger-skill" transform="translate(0.000000, 39.000000)"><path d="M14.3648562,7.81285726 C14.3648562,11.6355831 11.2364703,14.7345129 7.37741988,14.7345129 C3.51836948,14.7345129 0.389992769,11.6355831 0.389992769,7.81285726 C0.389992769,3.99013145 3.51836948,0.891201606 7.37741988,0.891201606 C11.2364703,0.891201606 14.3648562,3.99013145 14.3648562,7.81285726 L14.3648562,7.81285726 Z" id="circle_3" fill="#D33031"/><g id="burger" transform="translate(3.000000, 5.000000)"><path d="M7.77919396,4.08789406 L0.975645791,4.08789406 C0.699831982,4.08789406 0.791766856,4.27004218 0.791766856,4.45219029 C0.78807329,4.56687817 0.839149241,4.67659662 0.92960485,4.74827086 C1.02006046,4.81995419 1.13932037,4.84522903 1.25146879,4.81647742 L7.59531503,4.81647742 C7.70746345,4.84522903 7.82672336,4.81997239 7.91717897,4.74827086 C8.00763458,4.67659662 8.05870134,4.56687817 8.05501696,4.45219939 C7.96308209,4.27004218 7.96308209,4.08789406 7.77919396,4.08789406 L7.77919396,4.08789406 Z" id="Fill-58" fill="#E19156"/><path d="M8.2388959,3.45038021 C8.2388959,3.75217651 7.99192314,3.99683366 7.68725909,3.99683366 L1.06758985,3.99683366 C0.762925804,3.99683366 0.515953047,3.75217651 0.515953047,3.45038932 L0.515953047,3.45038021 C0.515943859,3.14857481 0.762916616,2.90392677 1.06758985,2.90392677 L7.68725909,2.90392677 C7.99193233,2.90392677 8.23890508,3.14857481 8.2388959,3.45038932 L8.2388959,3.45038021 L8.2388959,3.45038021 Z" id="Fill-59" fill="#562C1F"/><path d="M1.98698453,4.27004218 C1.98698453,4.47123971 2.15164222,4.63434751 2.35475159,4.63434751 L2.35475159,4.63432931 C2.55785177,4.63434751 2.72250946,4.47123971 2.72250946,4.27004218 L2.72250946,2.63070005 C2.72250946,2.42951162 2.55785177,2.26640382 2.35475159,2.26640382 L2.35475159,2.26640382 C2.15164222,2.26640382 1.98698453,2.42951162 1.98698453,2.63070915 L1.98698453,4.27004218 L1.98698453,4.27004218 Z" id="Fill-60" fill="#FDE500"/><path d="M2.81444433,3.90574595 C2.81444433,4.10695258 2.97910203,4.27004218 3.1822022,4.27004218 L3.1822022,4.27004218 C3.38531157,4.27004218 3.54996926,4.10695258 3.54996926,3.90574595 L3.54996926,2.26640382 C3.54996926,2.06522449 3.38531157,1.90211669 3.1822022,1.90211669 L3.1822022,1.90211669 C2.97910203,1.90211669 2.81444433,2.06522449 2.81444433,2.26640382 L2.81444433,3.90574595 L2.81444433,3.90574595 Z" id="Fill-61" fill="#D33031"/><path d="M0.791766856,2.53963054 L0.791766856,2.53963054 C0.791766856,1.23185568 1.86200051,0.17169595 3.1822022,0.17169595 L5.66458161,0.17169595 C6.98478331,0.17169595 8.05501696,1.23185568 8.05501696,2.53963054 L8.05501696,2.53963054" id="Fill-62" fill="#E19156"/><path d="M8.2388959,2.78963054 C8.2388959,2.92770329 8.15657164,3.03963054 8.05501696,3.03963054 L0.699831982,3.03963054 C0.598277299,3.03963054 0.515943859,2.92770329 0.515943859,2.78963054 L0.515943859,2.78963054 C0.515943859,2.65155779 0.598277299,2.53963054 0.699831982,2.53963054 L8.05501696,2.53963054 C8.15657164,2.53963054 8.2388959,2.65155779 8.2388959,2.78963054 L8.2388959,2.78963054 L8.2388959,2.78963054 Z" id="Fill-66" fill="#6EB644"/></g></g><g id="whale-skill" transform="translate(17.000000, 39.000000)"><path d="M14.9253634,7.81285726 C14.9253634,11.6355831 11.7969775,14.7345129 7.9379363,14.7345129 C4.07888591,14.7345129 0.950500008,11.6355831 0.950500008,7.81285726 C0.950500008,3.99013145 4.07888591,0.891201606 7.9379363,0.891201606 C11.7969775,0.891201606 14.9253634,3.99013145 14.9253634,7.81285726 L14.9253634,7.81285726 Z" id="circle_2" fill="#3FABE0"/><g id="whale" transform="translate(4.000000, 4.000000)"><path d="M7.70745907,3.81285726 C7.70745907,5.74939034 6.12269884,7.3192335 4.16778268,7.3192335 C2.21286651,7.3192335 0.628097091,5.74939034 0.628097091,3.81287547" id="Fill-68" fill="#5158A6"/><path d="M6.60418546,6.18078275 C5.23290782,7.53705945 3.01158633,7.53623122 1.64135612,6.17889874 C0.271125903,4.82156627 0.270262233,2.6211628 1.63944502,1.26277456" id="Fill-69" fill="#5158A6"/><path d="M2.65077457,0.260946276 C2.78282414,0.488756564 2.78196047,0.769082449 2.64849595,0.996091806 C2.51504062,1.22310116 2.2693358,1.36218103 2.00414329,1.36082491 C1.73895997,1.35947789 1.49471604,1.21789511 1.36362202,0.989547835" id="Fill-70" fill="#5158A6"/><path d="M0.444218156,0.44309439 C0.318232648,0.845198208 0.544670282,1.27241304 0.950337736,1.39798629 C1.35600519,1.52355954 1.78772055,1.30008156 1.91525883,0.898469227" id="Fill-71" fill="#5158A6"/><path d="M4.12181524,7.36475915 C6.05134503,7.36475915 7.61553339,5.81529423 7.61553339,3.90393587 L1.91525883,6.63615759 C2.54518636,7.12154914 3.3238764,7.37866622 4.12182443,7.36475915 L4.12181524,7.36475915 Z" id="Fill-73" fill-opacity="0.3" fill="#3FABE0"/><path d="M1.36361283,6.7272362 L1.36361283,6.7272362 C1.61540928,7.28294586 2.25175921,7.55871189 2.83464432,7.36474095 L2.8346535,7.36475915 C3.39564367,7.11532372 3.67404849,6.48496364 3.47823437,5.90754693 L3.47823437,5.90755603" id="Fill-76" fill="#5158A6"/><path d="M3.873735,5.21233592 L3.873735,5.21233592 C3.77911345,5.08575225 3.63110615,5.06098728 3.51554081,5.15248937 C3.39997547,5.2439658 3.34687183,5.42785536 3.38702787,5.59756601 L3.38702787,5.59754035 L3.873735,5.21233592 Z" id="Fill-87" fill="#FFFFFF"/></g></g><g id="bee-skill" transform="translate(35.000000, 39.000000)"><path d="M7.49843435,0.891201606 C11.3574939,0.891210708 14.4858707,3.99014055 14.4858707,7.81287547 C14.4858707,11.6355922 11.3574939,14.734522 7.49843435,14.734522 C3.63938396,14.734522 0.511016434,11.6355922 0.511016434,7.81287547 C0.511016434,3.99014055 3.63938396,0.891210708 7.49843435,0.891210708" id="circle_1" fill="#7CC142"/><g id="bee" transform="translate(2.000000, 4.000000)"><path d="M4.4871048,1.08062644 C4.44752301,1.04604988 4.42484709,0.996282938 4.42484709,0.94400398 C4.42484709,0.891743226 4.44752301,0.84197628 4.4871048,0.807399721 L4.7629278,0.807399721 L6.14202441,2.17351513 C6.18159702,2.20809169 6.20427294,2.25785864 6.20427294,2.31011939 C6.20427294,2.36239835 6.18159702,2.41216529 6.14202441,2.44674185 L5.86620141,2.44674185 L4.4871048,1.08062644 Z" id="Fill-90" fill="#3F4040"/><path d="M6.41783822,0.807399721 L6.69366122,0.807399721 C6.73324301,0.84197628 6.75590974,0.891743226 6.75590974,0.94400398 C6.75590974,0.996282938 6.73324301,1.04604988 6.69366122,1.08062644 L5.31456461,2.44674185 L5.03874161,2.44674185 C4.99915982,2.41216529 4.97648389,2.36239835 4.97648389,2.31011939 C4.97648389,2.25785864 4.99915982,2.20809169 5.0387508,2.17351513 L6.41783822,0.807399721 Z" id="Fill-91" fill="#3F4040"/><path d="M6.60172634,1.90028841 C6.60172634,2.45357707 6.14893377,2.90210759 5.5903876,2.90210759 C5.03184144,2.90210759 4.57904887,2.45357707 4.57904887,1.90028841 C4.57904887,1.34699974 5.03184144,0.898469227 5.5903876,0.898469227 C6.14893377,0.898469227 6.60172634,1.34699974 6.60172634,1.90028841 L6.60172634,1.90028841 Z" id="Fill-92" fill="#3F4040"/><path d="M3.56770094,3.81285726 C3.56770094,2.75658387 4.43212396,1.90030661 5.49843435,1.90030661 C6.56475393,1.90030661 7.42917696,2.75658387 7.42917696,3.81285726 C7.42917696,4.90574595 6.32590335,6.08972235 5.40649948,6.63617579 C4.40563503,6.00733566 3.7335255,4.97534504 3.56770094,3.81285726 L3.56770094,3.81285726 Z" id="Fill-93" fill="#FFD733"/><path d="M3.56770094,3.81285726 C3.56517425,4.12573007 3.62777192,4.43577232 3.75158906,4.72360694 L7.15335396,4.72360694 C7.31165358,4.44374523 7.40581194,4.13280193 7.42917696,3.81285726 C7.41709477,3.56035463 7.35459817,3.31269399 7.24529802,3.08427391 L3.75158906,3.0842648 C3.64227973,3.31269399 3.57979231,3.56035463 3.56770094,3.81285726 L3.56770094,3.81285726 Z" id="Fill-94" fill="#3F4040"/><path d="M3.935468,5.27004218 C3.20339775,5.8139199 2.17901208,5.7418088 1.53194897,5.10084548 C0.884885864,4.45987307 0.812089541,3.44512067 1.36114453,2.71995037 C2.30421661,2.08709649 3.47702482,1.88791948 4.57903968,2.17350603 C4.83796599,3.24915649 4.60227607,4.38317481 3.935468,5.27004218 L3.935468,5.27004218 Z" id="Fill-96" fill-opacity="0.7" fill="#FFFFFF"/><path d="M7.15336315,5.27004218 C7.88542421,5.8139199 8.90980987,5.7418088 9.55687298,5.10084548 C10.2039361,4.45987307 10.2767324,3.44512067 9.72767743,2.71995037 C8.78460534,2.08709649 7.61179714,1.88791948 6.50978228,2.17350603 C6.25085597,3.24915649 6.48655508,4.38317481 7.15336315,5.27004218 L7.15336315,5.27004218 Z" id="Fill-98" fill-opacity="0.7" fill="#FFFFFF"/></g></g></g></g></g></g></svg>