<?xml version="1.0" encoding="UTF-8"?><svg width="228px" height="231px" viewBox="0 0 228 231" version="1.1" xmlns="http://www.w3.org/2000/svg" xmlns:xlink="http://www.w3.org/1999/xlink"><title>duo_proper_cheer</title><desc>Created with Sketch.</desc><defs/><g id="Page-1" stroke="none" stroke-width="1" fill="none" fill-rule="evenodd"><g id="duo_proper_cheer"><g id="body"><g id="Shape"><path d="M127.22,209.1 C134.49,209.44 133.85,217.3 133.82,217.91 C133.79,218.52 133.82,226.14 121.06,225.54 C113.06,225.16 113.62,221.54 113.7,219.82 C113.78,218.1 118.01,208.66 127.22,209.1 Z" fill="#D98500"/><path d="M51.29,0.01 C69.05,-0.47 85.38,29.36 122.7,28.36 C149.76,27.63 152.45,15.36 165.29,15.05 C173.82,14.82 174.61,31.36 174.68,33.86 C175.09,49.03 171.68,71.98 171.91,81.46 C172.12,89.39 180.82,88.64 181.59,88.62 C205.59,87.97 216.86,82.06 222.72,81.9 C228.58,81.74 227.72,87.54 227.72,88.15 C227.72,88.76 228.61,133.93 159.85,162 C153.63,165 148.35,218.46 97.5,219.84 C58.89,220.84 48.97,185.96 45.35,186.06 C41.73,186.16 38.15,200.4 14.1,201.06 C0.48,201.43 1.03,193.06 0.99,191.67 C0.34,167.67 33.99,94.86 33.54,78.06 C33.22,66.65 27.67,0.65 51.29,0.01 Z" fill="#78C800"/><path d="M72.49,213.18 C80.49,213.7 85.95,216.06 85.49,223.18 C85.03,230.3 75.15,231.06 69.98,230.73 C64.81,230.4 59.28,227.39 59.61,222.23 C59.94,217.07 65.29,212.71 72.49,213.18 Z" fill="#D98500"/><path d="M155.64,37.24 C151.58,37.35 150.64,39.47 149.18,38.24 C148.51,37.6 151.94,36 151.92,35.35 C151.92,35.02 151.39,35.1 150.67,35.12 C146.41,35.23 138.2,41.68 137.02,41.71 C136.5,41.71 135.65,41.88 135.63,41.09 C135.63,39.32 141.5,37.66 137.38,37.77 C133.26,37.88 127.31,43.35 120.96,43.52 C107.86,43.87 97.04,33.88 97.11,36.43 C97.11,37.35 98.68,38.75 99.71,40.55 C99.71,40.55 100.37,43.28 99.23,42.27 C86.89,30.58 74.8,27.99 74.8,27.99 C74.8,27.99 73.88,27.99 73.89,28.41 C73.89,29.79 76.6,31.55 76.61,32.07 C76.6337921,32.3001439 76.5554978,32.5291496 76.395788,32.6965563 C76.2360781,32.8639631 76.0110082,32.9529415 75.78,32.94 C73.23,33.01 71.26,28.15 60.98,28.43 C45.46,28.85 41.85,53.43 42.39,73.43 C43.16,101.85 61.69,110.43 76.82,109.98 C88.82,109.66 101.47,102.24 106.56,91.71 L122.56,92.5 C122.56,92.5 130.79,107.12 144.87,106.74 C158.08,106.38 169.35,97.74 168.56,68.74 C167.73,38.22 159.7,37.13 155.64,37.24 Z" fill="#8EE000"/><path d="M165.32,147.04 C161.41,147.15 163.32,142.49 161.17,142.55 C157.38,142.65 157.59,193.02 106.1,194.41 C55.3,195.78 61.1,152.41 61.1,149.85 C61.1,147.29 60.67,146.76 59.98,146.78 C59.29,146.8 57.7,147.42 57.78,150.63 C58.08,161.91 53.59,171.58 47.2,179.23 L48.3,175.85 L39.89,166.64 L20.55,161.34 L10.02,161.01 L7.36,161.28 C6.5,164.05 5.71,166.74 4.99,169.28 C5.96269622,168.967124 6.97033497,168.775672 7.99,168.71 C19.6783462,169.781664 30.9765723,173.465719 41.05,179.49 C42.3789091,180.732388 42.8529036,182.640118 42.26,184.36 C32.5,193.46 20.49,198.62 13.63,198.81 C7.78,198.97 4.14,197.6 1.9,196.04 C3.2,198.59 6.36,201.2 14.09,200.99 C38.09,200.34 41.72,186.1 45.34,185.99 C48.96,185.88 58.87,220.82 97.49,219.77 C148.34,218.4 153.63,164.95 159.84,161.93 C194.72,147.69 211.68,129.04 219.93,114.05 C199.32,141.53 169.04,146.94 165.32,147.04 Z" fill="#71B200"/></g><g id="eyes" transform="translate(53.000000, 48.000000)"><ellipse id="Oval" fill="#FFFFFF" transform="translate(21.217385, 25.683674) rotate(-1.550000) translate(-21.217385, -25.683674)" cx="21.2173847" cy="25.6836741" rx="20.44" ry="24.85"/><path d="M107.14,27.07 C106.82,38.95 99.06,48.54 89.79,48.47 C80.52,48.4 73.26,38.73 73.58,26.84 C73.9,14.95 81.66,5.41 90.93,5.41 C100.2,5.41 107.46,15.19 107.14,27.07 Z" id="Shape" fill="#FFFFFF"/><ellipse id="Oval" fill="#000000" transform="translate(20.788079, 25.705027) rotate(-1.550000) translate(-20.788079, -25.705027)" cx="20.7880794" cy="25.7050275" rx="11.23" ry="13.65"/><ellipse id="Oval" fill="#FFFFFF" transform="translate(13.281990, 17.241263) rotate(-1.550000) translate(-13.281990, -17.241263)" cx="13.2819902" cy="17.2412633" rx="5.26" ry="5.68"/><path d="M99.57,27.27 C99.25,34.27 94.74,39.84 89.49,39.73 C84.24,39.62 80.23,33.87 80.55,26.88 C80.87,19.89 85.38,14.31 90.63,14.42 C95.88,14.53 99.89,20.28 99.57,27.27 Z" id="Shape" fill="#000000"/><ellipse id="Oval" fill="#FFFFFF" transform="translate(83.819248, 19.702167) rotate(-3.310000) translate(-83.819248, -19.702167)" cx="83.8192476" cy="19.7021668" rx="4.6" ry="5.15"/><polygon id="Shape" fill="#8EE000" points="29.29 51.64 12.57 51.05 4.38 47.11 4.38 41.57 37.79 41.57 37.79 47.41"/><rect id="Rectangle-path" fill="#8EE000" x="76.8" y="42.83" width="26.58" height="9.16"/></g><g id="beak-with-stash" transform="translate(89.000000, 81.000000)"><path d="M14.09,14.41 C14.09,14.41 10.61,45.34 20.72,45.06 C30.83,44.78 30.3,29.97 30.23,29.79 C30.16,29.61 14.09,14.41 14.09,14.41 Z" id="Shape" fill="#71B200"/><path d="M13.95,16.53 C13.6929324,18.0939067 13.5558659,19.6751858 13.54,21.26 C13.54,23.65 13.35,38.67 22.75,38.67 C29.75,38.67 30.45,30.39 30.45,30.39 C30.45,30.39 29.16,23.29 29.1,23.39 C29.04,23.49 25.3,16.39 25.3,16.39 C25.3,16.39 17.54,14.88 17.63,14.9 C17.72,14.92 13.95,16.53 13.95,16.53 Z" id="Shape" fill="#F49000"/><path d="M15.65,21.62 C15.8,23.54 18.21,34.33 25.17,34.33 C29.32,34.33 29.17,29.65 29.17,29.65 C29.1193895,27.6849681 28.7825121,25.737817 28.17,23.87 C28.17,23.87 25.61,20.27 25.53,20.21 C25.45,20.15 19.89,17.82 19.89,17.82 L15.65,16.82 L14.88,17.67 L14.99,18.28 C15.3974124,19.3479656 15.6205823,20.4773408 15.65,21.62 Z" id="Shape" fill="#935400"/><path d="M25.97,5.19 C32.39,5.19 40.57,13.29 40.57,22.98 C40.57,31.45 37.23,33.61 36.57,33.61 C33.01,33.61 13.76,23.09 13.76,15.9 C13.72,9.74 20.72,5.19 25.97,5.19 Z" id="Shape" fill="#FFC200"/><ellipse id="Oval" fill="#FFF3B8" transform="translate(27.467548, 9.734179) rotate(-86.830000) translate(-27.467548, -9.734179)" cx="27.4675481" cy="9.73417917" rx="2.42" ry="4.43"/><path d="M28.61,0.33 C29.93,0.33 33.47,1.67 36.28,9.21 C38.7,14.65 40.62,14.58 40.62,14.58 C42.43,14.58 41.86,13.87 42.33,13.87 C42.8,13.87 42.86,16.47 40.33,16.47 C37.8,16.47 37.56,12.63 35.46,10.39 C30.77,5.06 28.15,5.81 27.53,4.99 C26.52,3.64 26.96,0.33 28.61,0.33 Z" id="Shape" fill="#000000"/><path d="M22.22,0.01 C24.22,0.01 25.13,1.62 25.13,3.84 C25.13,6.06 23.76,5.59 22.26,5.99 C13.79,8.22 9.52,20.48 3.75,20.48 C1.49,20.48 0.57,18.98 0.57,18.48 C0.57,16.48 0.86,18.33 2.69,18.33 C9.11,18.3 11.7,0.01 22.22,0.01 Z" id="Shape" fill="#000000"/></g></g><g id="jacket" transform="translate(3.000000, 72.000000)"><g id="tie-and-collar" transform="translate(40.000000, 22.000000)"><path d="M62.4,50.15 L60.11,54.15 L63.59,58.52 L70.38,59.18 L71.11,55.64 L76.97,57.03 L80.08,60.38 L83.82,58.38 L88.39,55.2 C88.39,55.2 89.85,50.03 89.85,49.93 C88.521818,48.9228681 87.1288092,48.0042172 85.68,47.18 C85.38,47.18 79.45,47.28 79.45,47.28 C79.45,47.28 70.37,46.85 70.24,46.82 C70.11,46.79 62.4,50.15 62.4,50.15 Z" id="Shape" fill="#B2B2B2"/><path d="M110.76,35.69 C110.47,35.69 100,41.8 100,41.8 L83.31,36.95 L76.1,34.81 L73.87,34.81 L70.48,34.99 L59.77,38.41 L37.14,38.84 C37.14,38.84 36.14,45.41 36.34,45.69 C36.54,45.97 39.54,50.96 39.54,50.96 C39.54,50.96 46.82,54.46 46.94,54.75 C47.06,55.04 58.22,59.41 59.22,57.2 C59.54,56.51 60.92,54.2 62.75,51.28 C63.1906739,50.8355422 63.8314901,50.6535353 64.44,50.8 L68.72,53.13 C68.96,53.37 69.38,54.13 68.56,55.95 L68.43,56.27 L62.81,69.12 L76.22,74.55 L86.39,69.45 L88.62,65.68 L82.73,55.14 C81.8,53.23 82.81,52.38 83.01,52.14 C83.68,51.65 84.35,51.14 85.01,50.63 L85.01,50.63 C85.550217,50.1543392 86.359783,50.1543392 86.9,50.63 C88.16,52.12 89.27,53.13 90.1,53.22 C93.62,53.62 103.29,47.12 103.29,47.12 L108.29,40.92 L119.03,38.21 C119.03,38.21 111.05,35.67 110.76,35.69 Z" id="Shape" fill="#B2B2B2"/><polygon id="Shape" fill="#111111" points="70.32 52.09 65.06 66.56 76.09 72 85.85 67.1 87.99 63.49 80.76 50.94"/><path d="M62.05,47.97 C62.05,47.97 72.05,55.23 75.65,55.16 C79.25,55.09 86.97,48.41 86.94,47.03 C86.91,45.65 77.22,34.47 75.02,34.58 C72.57,34.71 64.95,42.82 62.05,47.97 Z" id="Shape" fill="#111111"/><path d="M112.44,34.41 C118.478052,26.3025177 123.807688,17.6907897 128.37,8.67 L128.37,1.41 L128.04,0.93 L126.97,1.02 C124.13,6.36 108.57,32.48 74.64,34.29 C25.49,36.91 1.89,8.13 1.89,8.13 L0.38,19.81 L8.75,31.19 L25.96,47.58 L38.05,48.3 C38.05,48.3 52.91,55.3 56.59,55.09 C60.27,54.88 69.36,35.74 75.08,35.44 C78.86,35.24 88.4,50.09 90.44,49.98 C92.48,49.87 102.82,47.2 112.44,34.41 Z" id="Shape" fill="#FFFFFF"/><path d="M73.32,34.41 L74.22,35.67 C74.4942785,35.5749222 74.7802514,35.5177277 75.07,35.5 C76.1844096,35.6571247 77.2132199,36.1856231 77.99,37 L77.7,35.95 L76.22,34.31 L75.89,34.23 L74.66,34.31 L73.32,34.41 Z" id="Shape" fill="#B2B2B2"/><path d="M78.63,37.5 C78.63,37.5 74.84,34.74 73.23,33.75 C71.62,32.76 80.5,35.11 90.61,31.51 L78.63,37.5 Z" id="Shape" fill="#FFFFFF"/></g><g id="Shape"><path d="M202.69,10.03 C198.38,10.03 194.01,13.34 193.08,13.34 C192.15,13.34 188.77,12.74 186.65,12.74 C184.53,12.74 181.65,14.13 180.49,14.13 C179.33,14.13 169.36,37.13 169.36,37.13 C169.36,37.13 158.64,49.58 158.22,49.31 C157.8,49.04 141.53,67.2 141.53,67.2 L126.04,81.41 L118.09,86.31 L96.22,80.41 L66.16,60.31 L43.37,36.99 L21.91,34.74 C21.91,34.74 4.16,69.85 4.16,76.34 C4.25883361,77.8308434 4.86593467,79.2427063 5.88,80.34 C5.88,80.34 0.22,86.14 0.22,92.97 C0.22,96.22 1.88,95.09 5.52,95.09 C9.16,95.09 33.34,98.8 44.6,108.4 L44.53,108.5 C44.8116923,108.686883 44.8917589,109.064975 44.71,109.35 C43.88,110.7 42.95,111.96 42.01,113.23 C41.6993921,113.683555 41.3656161,114.120802 41.01,114.54 C43.59,117.96 56.81,130.26 91.01,130.26 C91.01,132.78 90.81,134.1 91.61,134.17 C92.41,134.24 135.07,135.43 151.49,108.73 C154.14,104.36 152.68,94.73 157.39,91.9 C162.1,89.07 176.87,83.82 189.32,72.36 C191.51,73.29 199.79,72.49 202.44,67.79 C205.09,63.09 206.68,52.49 206.68,39.24 C206.68,25.99 206.53,10.03 202.69,10.03 Z" fill="#68111B"/><path d="M196.05,59.99 L199.91,51.38 L200.57,21.17 L197.65,11.27 C195.37,12.27 193.58,13.42 193.02,13.42 C192.7,13.42 192.1,13.35 191.36,13.26 C191.72,17.67 193.53,41.94 191.18,57.53 L191.18,57.41 C191.18,57.41 190.53,62.59 186.79,64.83 C178.68,68.43 166.54,72.56 163.36,72.56 C158.94,72.56 160,68.56 158.94,68.56 C157.88,68.56 157.53,68.03 154.26,79.42 C139.86,123.23 106.26,120.14 102.41,120.14 C98.56,120.14 95.34,119.79 94.64,119.08 C95.96,112.19 107.36,94.17 107.36,94.17 L109.3,92.17 L107.45,92.43 C90.84,103.82 93.14,120.61 85.9,118.75 C53.48,108.75 58.52,79.27 58.52,77.24 C58.52,75.21 58.87,73.44 57.02,73.44 C55.52,73.44 54.28,79 54.28,85.89 C54.3950562,88.7022724 53.730594,91.4916294 52.36,93.95 C46.92,85.16 27.07,78.75 17.45,77.41 C13.0623476,76.6778755 8.59038827,76.600366 4.18,77.18 C4.44321866,78.3687327 5.01193735,79.4682555 5.83,80.37 C4.51166956,81.8173885 3.37339052,83.4190378 2.44,85.14 L13.36,85.41 L39.77,94.33 L48.77,99.13 L46.3,105.37 L43.67,107.78 C43.97,108.02 44.27,108.26 44.56,108.5 L44.56,108.5 C44.8416923,108.686883 44.9217589,109.064975 44.74,109.35 C43.91,110.7 42.98,111.96 42.04,113.23 C41.7051804,113.711821 41.3411656,114.172684 40.95,114.61 C43.52,118.02 56.72,130.34 90.95,130.34 C90.95,132.86 90.75,134.18 91.55,134.25 C92.35,134.32 135.01,135.51 151.43,108.81 C154.08,104.44 152.62,94.81 157.33,91.98 C162.04,89.15 176.79,83.91 189.22,72.41 C191.41,73.34 199.69,72.54 202.34,67.84 C203.608326,65.289329 204.484844,62.5620113 204.94,59.75 C201.989474,59.2480366 198.969146,59.3295753 196.05,59.99 L196.05,59.99 Z" fill="#56111C"/><path d="M178.97,14.29 C173.89,13.54 171.08,10.14 170.34,7.45 L170.34,7.92 C170.307262,9.97082748 170.076186,12.0136773 169.65,14.02 C169.37,16.02 169.07,17.93 168.65,19.86 C168.35849,21.7245677 167.676991,23.5066868 166.65,25.09 C166.598292,25.1639797 166.53398,25.228292 166.46,25.28 C166.146667,26.2266667 165.793333,27.1666667 165.4,28.1 L165.4,28.1 L165.33,28.26 C165.231855,28.4334849 165.056287,28.5492049 164.85816,28.570999 C164.660032,28.592793 164.463509,28.518003 164.33,28.37 C162.967014,32.4395566 161.088395,36.3177776 158.74,39.91 C158.579883,40.1652923 158.265293,40.2770548 157.98,40.18 C155.482816,45.2665727 152.096183,49.8656204 147.98,53.76 C146.394558,55.8639524 144.635027,57.83088 142.72,59.64 C142.426974,59.8986613 141.979996,59.8718425 141.72,59.58 C133.642411,68.9076486 124.892326,77.6309956 115.54,85.68 L96.13,80.51 L66.09,60.41 L43.3,37.09 L21.84,34.84 C21.84,34.84 21.08,36.35 19.84,38.84 C24.74,48.22 47.84,74.73 112.01,88.76 C109.57,90.76 108.01,92.01 107.66,92.25 C106.491498,93.3365902 105.638122,94.7185749 105.19,96.25 L104.3,96.25 L102.82,98.02 C102.82,98.02 102.71,101.88 104.01,99.7 C104.773577,98.4100713 105.661109,97.1976685 106.66,96.08 L104.82,98.15 C173.32,72.15 179.99,20.01 179.99,20.01 C179.99,20.01 180.83,14.56 178.97,14.29 Z" fill="#56111C"/><path d="M46.22,109.28 C47.41,109.28 51.52,105.44 51.52,97.62 C51.52,89.8 22.9,80.79 12.97,80.79 C9.82,80.79 7.23,80.94 5.16,81.14 C3.68,82.92 0.16,87.67 0.16,93.05 C0.16,96.3 1.82,95.17 5.46,95.17 C9.1,95.17 33.28,98.88 44.54,108.48 L44.54,108.48 C45.0231873,108.884679 45.6012716,109.159957 46.22,109.28 Z" fill="#A3171E"/><path d="M202.62,10.12 C198.31,10.12 193.94,13.43 193.01,13.43 L192.5,13.43 C193.571579,22.3127147 194.095902,31.2529205 194.07,40.2 C193.927722,51.1336824 192.296042,61.9969728 189.22,72.49 L189.22,72.49 C191.41,73.42 199.69,72.62 202.34,67.92 C204.99,63.22 206.58,52.62 206.58,39.37 C206.58,26.12 206.46,10.12 202.62,10.12 Z" fill="#A3171E"/><path d="M30.46,4.49 C28.3,3.96 27.15,7.93 24.9,19.86 C24.22,23.3 19.22,29.41 19.22,33.63 C19.22,37.85 38.56,70.73 112.36,87.55 L116.47,87.55 L122.17,85.03 L118.86,83.03 C118.86,83.03 74.34,64.61 39.86,26.86 C33.77,19.41 30.22,9.52 30.46,4.49 Z" fill="#A3171E"/><path d="M118.82,83.05 C118.82,83.05 118.01,82.72 116.53,82.05 L111.22,87.3 L112.35,87.56 L116.46,87.56 L117.46,87.13 L120.03,85.7 L120.97,84.3 L118.82,83.05 Z" fill="#84141F"/><path d="M168.99,0.16 C170.93,0.16 170.93,1.75 170.93,4.49 C170.93,7.23 173.76,11.82 179.76,12.7 C181.61,12.96 180.82,18.35 180.82,18.35 C180.82,18.35 176.99,69.8 106.22,95.51 C105.22,96 106.79,91.84 108.47,90.61 C110.15,89.38 143.84,63.05 159.61,33.77 C170.63,12.41 168.99,0.16 168.99,0.16 Z" fill="#A3171E"/><path d="M202.36,67.88 C203.67,65.55 204.72,61.78 205.45,56.96 C204.56,58.1 202.27,60.22 197.45,60.22 C194.31,60.22 194.09,58.54 194.18,56.95 C194.27,55.36 197.18,46.95 192.75,13.42 L192.52,13.42 C193.591579,22.3027147 194.115902,31.2429205 194.09,40.19 C193.94213,51.127957 192.303709,61.9946913 189.22,72.49 L189.22,72.49 C191.43,73.41 199.71,72.59 202.36,67.88 Z" fill="#84141F"/><path d="M51.52,97.63 C51.52,96.25 50.62,94.83 49.09,93.43 C49.21,96.13 48.56,102.07 47.01,105.01 C45.75,107.4 43.94,106.6 43.12,106.01 C31.77,97.01 13.27,94.01 7.88,93.75 C5.35856136,93.5915063 2.82821041,93.8482575 0.39,94.51 C0.94,95.85 2.58,95.14 5.48,95.14 C9.12,95.14 33.3,98.85 44.56,108.45 L44.56,108.45 C44.9042237,108.688589 45.2689956,108.896074 45.65,109.07 L45.65,109.07 L45.77,109.07 L45.83,109.07 L45.93,109.07 L46.02,109.07 L46.22,109.07 L46.37,109.07 L46.37,109.07 L46.54,109.02 L46.54,109.02 C48.04,108.65 51.52,104.82 51.52,97.63 Z" fill="#84141F"/></g></g><g id="monocle-" transform="translate(39.000000, 43.000000)"><path d="M36.36,4.68 L35.07,4.68 L33.76,4.68 C19.88,4.68 8.42,15.6 6.66,29.75 C5.87,30.39 4.31,31.1 1.22,31.1 C0.22,31.1 0.63,32.19 0.63,33.28 L0.63,38.06 C0.63,38.06 0.04,39.82 2.31,39.82 L4.31,39.82 C4.4764473,39.8320932 4.6435527,39.8320932 4.81,39.82 L5.44,39.82 C6.03314854,39.82978 6.61690676,39.9697454 7.15,40.23 C10.01,52.93 20.83,62.38 33.74,62.38 L35.07,62.38 L36.34,62.38 C51.12,62.38 63.09,49.46 63.09,33.53 C63.09,17.6 51.13,4.68 36.36,4.68 Z" id="Shape" fill="#000000" opacity="0.2"/><path d="M4.38,31.13 C4.38,35.98 4.65,40.82 4.85,45.66 C5.3,56.71 6.18,67.82 6.96,78.85 C7.84,91.22 13.48,104.77 26.74,108.2 C37.87,111.08 46.35,103 56.74,101.2 C63.74,100.02 69.61,105.12 75.33,107.94" id="Shape" stroke="#000000" stroke-width="1.85"/><path d="M56.67,12.54 L47.44,5.33 L35.7,2.65 L29.49,5 L30.4,6.06 C31.3933913,5.91446325 32.3960049,5.84093825 33.4,5.84 C45.68,5.84 55.64,16.58 55.64,29.84 C55.64,43.1 45.64,53.84 33.4,53.84 C32.2812207,53.839885 31.1642707,53.7495926 30.06,53.57 L34.32,57.03 L46.06,54.18 L56.12,45.96 L60.48,36.57 L60.98,25.16 L56.67,12.54 Z" id="Shape" fill="#2B0E09"/><path d="M34.02,0.97 C20.14,0.97 8.68,11.89 6.92,26.04 C6.13,26.68 4.57,27.39 1.48,27.39 C0.48,27.39 0.89,28.48 0.89,29.57 L0.89,34.35 C0.89,34.35 0.3,36.11 2.57,36.11 C4.43,36.11 6.34,35.9 7.43,36.52 C10.29,49.22 21.11,58.67 34.02,58.67 C49.12,58.67 61.36,45.75 61.36,29.82 C61.36,13.89 49.12,0.97 34.02,0.97 Z M34.02,53.8 C21.47,53.8 11.29,43.06 11.29,29.8 C11.29,16.54 21.47,5.8 34.02,5.8 C46.57,5.8 56.75,16.54 56.75,29.8 C56.75,43.06 46.58,53.8 34.02,53.8 Z" id="Shape" fill="#000000"/><path d="M16.77,12.89 L22.36,7.89 L31.64,3.31 L41.17,4.45 L49.82,8.41 L58.34,19.21 L61.01,31.92 L59.22,42.88 C59.22,42.88 51.09,51.4 50.58,51.4 C50.07,51.4 37.36,56.4 37.36,56.4 L21.6,51.06 L11.22,31.31 L13.13,18.6 L16.77,12.89 Z" id="Shape" fill="#DCFFFE" opacity="0.4"/><polygon id="Shape" fill="#FFFFFF" opacity="0.6" points="12.79 34.33 19.09 46.24 52.94 12.39 49.82 8.43 42.17 4.95"/><polygon id="Shape" fill="#FFFFFF" opacity="0.6" points="29.77 53.77 59.37 24.17 58.34 19.24 56.32 16.68 21.89 51.11"/><path d="M36.62,0.97 C23.35,0.97 12.34,11.4 10.23,25.07 L10.23,25.07 C10.23,25.07 9.62,27.41 4,27.41 C3,27.41 3.41,28.5 3.41,29.59 L3.41,34.37 C3.41,34.37 2.82,36.13 5.09,36.13 C7.36,36.13 9.7,35.79 10.54,37.05 C10.6107596,37.1538414 10.6948068,37.2479743 10.79,37.33 C13.85,49.63 24.26,58.69 36.63,58.69 C51.41,58.69 63.38,45.77 63.38,29.84 C63.38,13.91 51.4,0.97 36.62,0.97 Z M36.62,53.8 C24.34,53.8 14.38,43.06 14.38,29.8 C14.38,16.54 24.38,5.8 36.62,5.8 C48.86,5.8 58.86,16.54 58.86,29.8 C58.86,43.06 48.91,53.8 36.62,53.8 Z" id="Shape" fill="#772B11"/></g></g></g></svg>