<?xml version="1.0" encoding="UTF-8" standalone="no"?><svg width="270px" height="270px" viewBox="0 0 270 270" version="1.1" xmlns="http://www.w3.org/2000/svg" xmlns:xlink="http://www.w3.org/1999/xlink" xmlns:sketch="http://www.bohemiancoding.com/sketch/ns"><title>duo_proper</title><desc>Created with Sketch.</desc><defs><path id="path-1" d="M22.204,-0.207 C12.477,-0.071 4.225,6.513 1.11,15.678 L-0.209,24.47 C-0.199,24.852 -0.18,25.232 -0.153,25.609 L9.139,43.173 C9.735,43.632 10.353,44.06 10.991,44.457 L11.227,44.221 C9.936,42.997 8.767,41.592 7.745,40.034 L7.57,40.209 L1.269,28.297 L3.3,26.266 C3.279,25.925 3.264,25.582 3.255,25.237 C3.248,24.969 3.244,24.703 3.244,24.436 C3.231,11.081 11.951,0.148 23.012,-0.151 C23.14,-0.155 23.267,-0.157 23.394,-0.157 C23,-0.185 22.604,-0.202 22.204,-0.207 L22.204,-0.207 Z"/></defs><g id="Page-1" stroke="none" stroke-width="1" fill="none" fill-rule="evenodd" sketch:type="MSPage"><g id="duo_proper" sketch:type="MSArtboardGroup"><g id="Imported-Layers" sketch:type="MSLayerGroup" transform="translate(21.000000, 16.000000)"><path d="M198.094,227.445 C198.13,232.676 154.367,237.217 100.347,237.588 C46.326,237.959 2.505,234.019 2.469,228.788 C2.433,223.557 46.196,219.016 100.216,218.645 C154.237,218.274 198.058,222.214 198.094,227.445" id="Fill-1" fill="#D6D6D6" sketch:type="MSShapeGroup"/><path d="M126.71,209.06 C133.975,209.404 133.343,217.262 133.314,217.868 C133.285,218.473 133.271,226.1 120.557,225.498 C112.513,225.116 113.116,221.548 113.2,219.775 C113.284,218.002 117.499,208.623 126.71,209.06" id="Fill-2" fill="#D98500" sketch:type="MSShapeGroup"/><path d="M50.779,-0.03 C59.579,-0.267 68.031,6.943 78.861,14.154 C89.881,21.489 103.364,28.826 122.186,28.317 C149.25,27.586 151.938,15.352 164.781,15.005 C173.314,14.775 174.105,31.314 174.173,33.813 C174.582,48.983 171.148,71.933 171.405,81.414 C171.619,89.343 180.31,88.591 181.085,88.57 C205.133,87.921 216.359,82.011 222.22,81.853 C228.081,81.694 227.202,87.497 227.219,88.101 C227.235,88.704 228.11,133.877 159.348,161.956 C153.133,164.97 147.848,218.418 96.996,219.79 C77.432,220.319 65.235,211.615 57.492,202.911 C49.952,194.435 46.634,185.959 44.848,186.008 C41.229,186.105 37.645,200.348 13.598,200.997 C-0.02,201.365 0.53,192.983 0.492,191.604 C-0.155,167.643 33.501,94.799 33.047,77.991 C32.74,66.614 27.162,0.608 50.779,-0.03" id="Fill-3" fill="#78C800" sketch:type="MSShapeGroup"/><path d="M71.98,213.136 C79.956,213.656 85.445,216.016 84.979,223.176 C84.512,230.336 74.635,231.058 69.469,230.721 C64.303,230.385 58.765,227.384 59.101,222.218 C59.438,217.052 64.775,212.667 71.98,213.136" id="Fill-4" fill="#D98500" sketch:type="MSShapeGroup"/><path d="M155.13,37.202 C151.071,37.312 150.145,39.433 148.669,38.163 C147.997,37.526 151.426,35.926 151.409,35.271 C151.4,34.944 150.878,35.023 150.157,35.043 C145.901,35.157 137.688,41.605 136.509,41.636 C135.985,41.651 135.137,41.805 135.116,41.019 C135.068,39.251 140.987,37.584 136.861,37.695 C132.736,37.807 126.789,43.275 120.438,43.447 C114.518,43.607 109.064,41.652 104.87,39.698 C99.785,37.328 96.552,34.959 96.59,36.358 C96.615,37.275 98.16,38.675 99.192,40.482 C99.192,40.482 99.855,43.216 98.714,42.198 C86.374,30.507 74.279,27.918 74.279,27.918 C74.279,27.918 73.362,27.943 73.373,28.335 C73.41,29.71 76.079,31.473 76.093,31.997 C76.107,32.521 75.789,32.857 75.264,32.871 C74.014,32.905 72.905,31.757 70.891,30.609 C68.792,29.412 65.711,28.215 60.464,28.356 C44.945,28.775 41.33,53.316 41.871,73.353 C42.638,101.771 61.17,110.308 76.296,109.899 C88.293,109.575 100.945,102.156 106.04,91.627 L122.038,92.413 C122.038,92.413 130.265,107.034 144.343,106.654 C157.555,106.297 168.82,97.627 168.037,68.635 C167.215,38.186 159.191,37.092 155.13,37.202" id="Fill-5" fill="#8EE000" sketch:type="MSShapeGroup"/><path d="M94.11,73.134 C94.481,86.851 85.636,98.218 74.354,98.523 C63.072,98.827 53.626,87.954 53.255,74.237 C52.885,60.52 61.73,49.154 73.012,48.849 C84.294,48.544 93.74,59.417 94.11,73.134" id="Fill-6" fill="#FFFFFF" sketch:type="MSShapeGroup"/><path d="M159.628,75.03 C159.312,86.913 151.543,96.495 142.274,96.434 C133.005,96.372 125.747,86.69 126.062,74.807 C126.377,62.924 134.147,53.341 143.416,53.403 C152.685,53.465 159.943,63.147 159.628,75.03" id="Fill-7" fill="#FFFFFF" sketch:type="MSShapeGroup"/><path d="M84.484,73.394 C84.688,80.929 79.829,87.173 73.631,87.341 C67.433,87.508 62.245,81.535 62.041,74 C61.838,66.465 66.697,60.221 72.894,60.053 C79.092,59.886 84.28,65.859 84.484,73.394" id="Fill-8" fill="#3F3F3F" sketch:type="MSShapeGroup"/><path d="M71.011,65.096 C71.096,68.233 68.812,70.839 65.909,70.917 C63.006,70.995 60.584,68.517 60.5,65.38 C60.415,62.244 62.699,59.638 65.602,59.559 C68.505,59.481 70.927,61.96 71.011,65.096" id="Fill-9" fill="#FFFFFF" sketch:type="MSShapeGroup"/><path d="M152.06,75.231 C151.745,82.22 147.23,87.798 141.977,87.688 C136.724,87.579 132.722,81.824 133.037,74.835 C133.353,67.846 137.868,62.269 143.121,62.378 C148.374,62.487 152.376,68.242 152.06,75.231" id="Fill-10" fill="#3F3F3F" sketch:type="MSShapeGroup"/><path d="M100.725,100.539 C100.725,100.539 97.658,127.799 106.569,127.55 C115.48,127.301 115.011,114.251 114.954,114.095 C114.897,113.94 100.725,100.539 100.725,100.539" id="Fill-11" fill="#71B200" sketch:type="MSShapeGroup"/><path d="M140.887,67.405 C141.054,70.246 139.135,72.669 136.601,72.815 C134.067,72.962 131.878,70.777 131.711,67.935 C131.544,65.093 133.463,62.671 135.997,62.524 C138.531,62.378 140.72,64.563 140.887,67.405" id="Fill-12" fill="#FFFFFF" sketch:type="MSShapeGroup"/><path d="M100.491,98.804 C100.491,98.804 99.101,118.936 108.878,118.672 C118.654,118.408 123.296,110.256 123.102,103.056 C122.907,95.855 100.491,98.804 100.491,98.804" id="Fill-13" fill="#F49000" sketch:type="MSShapeGroup"/><path d="M114.864,86.523 C121.976,86.331 127.556,94.441 127.776,102.607 C127.997,110.774 121.549,119.296 119.353,119.356 C117.158,119.415 100.595,104.835 100.422,98.425 C100.249,92.015 106.258,86.756 114.864,86.523" id="Fill-14" fill="#FFC200" sketch:type="MSShapeGroup"/><path d="M119.47,91.45 C119.43,92.872 117.282,93.966 114.673,93.892 C112.065,93.818 109.982,92.605 110.023,91.183 C110.063,89.76 112.21,88.667 114.819,88.741 C117.428,88.814 119.51,90.027 119.47,91.45" id="Fill-15" fill="#FFF3B8" sketch:type="MSShapeGroup"/><path d="M198.094,227.445 C198.13,232.676 154.367,237.217 100.347,237.588 C46.326,237.959 2.505,234.019 2.469,228.788 C2.433,223.557 46.196,219.016 100.216,218.645 C154.237,218.274 198.058,222.214 198.094,227.445" id="Fill-16" fill="#D6D6D6" sketch:type="MSShapeGroup"/><path d="M126.71,209.06 C133.975,209.404 133.343,217.262 133.314,217.868 C133.285,218.473 133.271,226.1 120.557,225.498 C112.513,225.116 113.116,221.548 113.2,219.775 C113.284,218.002 117.499,208.623 126.71,209.06" id="Fill-17" fill="#D98500" sketch:type="MSShapeGroup"/><path d="M71.98,213.136 C79.956,213.656 85.445,216.016 84.979,223.176 C84.512,230.336 74.635,231.058 69.469,230.721 C64.303,230.385 58.765,227.384 59.101,222.218 C59.438,217.052 64.775,212.667 71.98,213.136" id="Fill-18" fill="#D98500" sketch:type="MSShapeGroup"/><path d="M39.385,74.106 C38.802,74.335 39.12,75.285 39.12,76.234 L39.12,81.015 C39.12,81.015 38.533,82.776 40.798,82.776 C41.479,82.776 42.166,82.748 42.817,82.742 C42.838,82.745 42.858,82.748 42.879,82.75 C42.643,81.562 42.445,80.328 42.288,79.046 C41.883,79.056 41.472,79.066 41.062,79.066 C38.798,79.066 39.385,77.305 39.385,77.305 L39.385,74.106" id="Fill-19" fill="#60A000" sketch:type="MSShapeGroup"/><path d="M49.847,74.609 C50.364,81.825 53.906,88.149 59.139,92.173 L49.847,74.609 M51.11,64.678 C50.25,67.208 49.781,69.934 49.781,72.776 C49.781,73.008 49.785,73.24 49.791,73.47 L51.11,64.678 M97.616,61.333 C98.472,63.422 99.101,65.638 99.47,67.948 L99.516,68.08 L99.51,68.207 C99.735,69.695 99.851,71.221 99.851,72.776 C99.851,76.199 99.287,79.481 98.25,82.526 L97.711,85.84 C97.711,85.84 96.962,86.625 95.904,87.717 C91.111,96.055 82.428,101.625 72.512,101.625 C59.598,101.625 48.783,92.175 45.92,79.473 C45.275,79.106 44.342,79.031 43.301,79.031 C42.972,79.031 42.633,79.038 42.288,79.046 C42.445,80.328 42.643,81.562 42.879,82.75 C43.011,82.766 43.154,82.776 43.313,82.776 C43.524,82.776 43.735,82.772 43.946,82.768 C44.614,82.814 45.205,82.926 45.655,83.183 C48.518,95.885 59.333,105.335 72.247,105.335 C72.692,105.335 73.135,105.323 73.575,105.301 C73.997,105.322 74.42,105.335 74.846,105.335 C89.622,105.335 101.599,92.419 101.599,76.486 C101.599,70.928 100.141,65.736 97.616,61.333" id="Fill-20" fill="#72B300" sketch:type="MSShapeGroup"/><path d="M94.11,73.134 C94.481,86.851 85.636,98.218 74.354,98.523 C63.072,98.827 53.626,87.954 53.255,74.237 C52.885,60.52 61.73,49.154 73.012,48.849 C84.294,48.544 93.74,59.417 94.11,73.134" id="Fill-21" fill="#FFFFFF" sketch:type="MSShapeGroup"/><path d="M159.628,75.03 C159.312,86.913 151.543,96.495 142.274,96.434 C133.005,96.372 125.747,86.69 126.062,74.807 C126.377,62.924 134.147,53.341 143.416,53.403 C152.685,53.465 159.943,63.147 159.628,75.03" id="Fill-22" fill="#FFFFFF" sketch:type="MSShapeGroup"/><path d="M84.484,73.394 C84.688,80.929 79.829,87.173 73.631,87.341 C67.433,87.508 62.245,81.535 62.041,74 C61.838,66.465 66.697,60.221 72.894,60.053 C79.092,59.886 84.28,65.859 84.484,73.394" id="Fill-23" fill="#3F3F3F" sketch:type="MSShapeGroup"/><path d="M71.011,65.096 C71.096,68.233 68.812,70.839 65.909,70.917 C63.006,70.995 60.584,68.517 60.5,65.38 C60.415,62.244 62.699,59.638 65.602,59.559 C68.505,59.481 70.927,61.96 71.011,65.096" id="Fill-24" fill="#FFFFFF" sketch:type="MSShapeGroup"/><path d="M152.06,75.231 C151.745,82.22 147.23,87.798 141.977,87.688 C136.724,87.579 132.722,81.824 133.037,74.835 C133.353,67.846 137.868,62.269 143.121,62.378 C148.374,62.487 152.376,68.242 152.06,75.231" id="Fill-25" fill="#3F3F3F" sketch:type="MSShapeGroup"/><path d="M100.725,100.539 C100.725,100.539 97.658,127.799 106.569,127.55 C115.48,127.301 115.011,114.251 114.954,114.095 C114.897,113.94 100.725,100.539 100.725,100.539" id="Fill-26" fill="#71B200" sketch:type="MSShapeGroup"/><path d="M140.887,67.405 C141.054,70.246 139.135,72.669 136.601,72.815 C134.067,72.962 131.878,70.777 131.711,67.935 C131.544,65.093 133.463,62.671 135.997,62.524 C138.531,62.378 140.72,64.563 140.887,67.405" id="Fill-27" fill="#FFFFFF" sketch:type="MSShapeGroup"/><path d="M100.491,98.804 C100.491,98.804 99.101,118.936 108.878,118.672 C118.654,118.408 123.296,110.256 123.102,103.056 C122.907,95.855 100.491,98.804 100.491,98.804" id="Fill-28" fill="#F49000" sketch:type="MSShapeGroup"/><path d="M114.864,86.523 C121.976,86.331 127.556,94.441 127.776,102.607 C127.997,110.774 121.549,119.296 119.353,119.356 C117.158,119.415 100.595,104.835 100.422,98.425 C100.249,92.015 106.258,86.756 114.864,86.523" id="Fill-29" fill="#FFC200" sketch:type="MSShapeGroup"/><path d="M119.47,91.45 C119.43,92.872 117.282,93.966 114.673,93.892 C112.065,93.818 109.982,92.605 110.023,91.183 C110.063,89.76 112.21,88.667 114.819,88.741 C117.428,88.814 119.51,90.027 119.47,91.45" id="Fill-30" fill="#FFF3B8" sketch:type="MSShapeGroup"/><path d="M164.809,147.001 C160.902,147.107 162.846,142.454 160.663,142.513 C156.87,142.615 157.08,192.982 105.596,194.372 C54.8,195.744 60.644,152.344 60.576,149.816 C60.507,147.288 60.147,146.723 59.457,146.741 C58.768,146.76 57.175,147.378 57.261,150.596 C57.566,161.875 53.074,171.541 46.683,179.195 L47.781,175.814 L39.368,166.606 L20.025,161.307 L9.493,160.975 L6.834,161.248 C5.978,164.015 5.181,166.705 4.461,169.293 C5.314,169.043 6.579,168.726 7.505,168.726 C8.902,168.726 25.599,170.23 40.565,179.506 C41.686,180.76 42.517,182.441 41.771,184.374 C32.011,193.478 20.004,198.639 13.137,198.824 C7.288,198.982 3.648,197.613 1.406,196.049 C2.706,198.597 5.87,201.206 13.598,200.997 C37.645,200.348 41.228,186.105 44.848,186.007 C48.468,185.91 58.382,220.833 96.995,219.791 C147.848,218.417 153.133,164.97 159.348,161.956 C194.229,147.712 211.191,129.07 219.435,114.078 C198.808,141.493 168.53,146.901 164.809,147.001" id="Fill-31" fill="#71B200" sketch:type="MSShapeGroup"/><path d="M99.388,155.734 C102.317,152.252 104.307,148.66 104.307,148.66 L104.41,146.595 L104.323,146.452 L104.017,146.463 C103.13,147.938 98.31,155.126 88.639,155.126 C74.629,155.126 68.356,146.587 68.356,146.587 L67.751,149.885 L69.959,153.247 L74.601,158.165 L78.028,158.552 C78.028,158.552 82.145,160.763 83.195,160.763 C84.245,160.763 87.119,155.457 88.75,155.457 C89.827,155.457 92.314,159.823 92.894,159.823 C93.475,159.823 96.459,159.215 99.388,155.734" id="Fill-32" fill="#FFFFFF" sketch:type="MSShapeGroup"/><path d="M104.883,144.116 L102.598,148.091 L106.076,152.463 L112.866,153.126 L113.594,149.582 L119.457,150.973 L122.57,154.318 L126.313,152.364 L130.884,149.184 C130.884,149.184 132.341,144.017 132.341,143.917 C132.341,143.818 128.466,141.202 128.168,141.168 C127.87,141.135 121.941,141.268 121.941,141.268 C121.941,141.268 112.866,140.837 112.733,140.804 C112.601,140.771 104.883,144.116 104.883,144.116" id="Fill-33" fill="#B2B2B2" sketch:type="MSShapeGroup"/><path d="M153.245,129.651 C152.955,129.666 142.489,135.766 142.489,135.766 L125.8,130.92 L118.589,128.776 L117.276,128.789 L117.135,128.783 L117.052,128.791 L116.354,128.798 L112.961,128.979 L102.254,132.369 L79.625,132.798 C79.625,132.798 78.614,139.366 78.823,139.646 C79.032,139.927 82.021,144.92 82.021,144.92 C82.021,144.92 89.304,148.42 89.417,148.706 C89.529,148.991 100.748,153.352 101.748,151.159 C102.064,150.468 103.445,148.127 105.275,145.242 C105.627,144.913 106.198,144.577 106.965,144.763 C108.295,145.484 109.807,146.305 111.249,147.093 C111.492,147.333 111.907,148.057 111.088,149.908 C111.036,150.025 110.994,150.13 110.957,150.229 L105.336,163.081 L118.723,168.507 L128.893,163.403 L131.125,159.634 L125.235,149.093 C124.305,147.188 125.314,146.337 125.52,146.087 C126.189,145.594 126.864,145.082 127.502,144.581 L127.501,144.585 C127.501,144.585 128.467,143.719 129.392,144.54 C130.65,146.027 131.764,147.04 132.595,147.133 C136.116,147.529 145.783,141.034 145.783,141.034 L150.8,134.837 L161.544,132.125 C161.544,132.125 153.536,129.635 153.245,129.651" id="Fill-34" fill="#B2B2B2" sketch:type="MSShapeGroup"/><path d="M112.802,146.05 L107.546,160.524 L118.579,165.963 L128.331,161.068 L130.472,157.454 L123.241,144.91 L112.802,146.05" id="Fill-35" fill="#111111" sketch:type="MSShapeGroup"/><path d="M123.241,144.91 L112.802,146.05 L111.86,148.643 C113.546,149.663 117.033,151.664 118.47,151.664 C118.496,151.664 118.521,151.663 118.545,151.662 C120.202,151.573 123.541,149.795 124.759,147.543 L123.241,144.91" id="Fill-36" fill="#0C0C0C" sketch:type="MSShapeGroup"/><path d="M104.541,141.932 C104.541,141.932 114.497,149.188 118.137,149.125 C121.777,149.063 129.454,142.376 129.43,140.993 C129.406,139.61 119.713,128.427 117.512,128.544 C115.06,128.675 107.438,136.785 104.541,141.932" id="Fill-37" fill="#111111" sketch:type="MSShapeGroup"/><path d="M154.928,128.395 C164.553,115.632 170.861,102.657 170.861,102.657 L170.837,95.393 L170.505,94.91 L169.434,95.005 C166.597,100.346 151.033,126.463 117.104,128.272 C67.954,130.893 44.351,102.111 44.351,102.111 L42.846,113.793 L51.219,125.174 L68.426,141.561 L80.519,142.278 C80.519,142.278 95.377,149.263 99.061,149.067 C102.744,148.87 111.834,129.72 117.554,129.415 C121.335,129.213 130.876,144.065 132.912,143.957 C134.948,143.848 145.304,141.157 154.928,128.395" id="Fill-38" fill="#FFFFFF" sketch:type="MSShapeGroup"/><path d="M115.805,128.329 L116.707,129.586 C116.996,129.488 117.279,129.43 117.554,129.415 C118.325,129.374 119.337,129.96 120.476,130.918 L120.185,129.863 L118.662,128.273 L118.331,128.193 C117.924,128.222 117.516,128.25 117.104,128.272 C116.667,128.296 116.237,128.311 115.805,128.329" id="Fill-39" fill="#B2B2B2" sketch:type="MSShapeGroup"/><path d="M121.114,131.461 C121.114,131.461 117.321,128.698 115.713,127.714 C114.105,126.731 122.98,129.077 133.093,125.476" id="Fill-40" fill="#FFFFFF" sketch:type="MSShapeGroup"/><path d="M205.176,81.991 C200.87,81.991 196.498,85.303 195.57,85.303 C194.643,85.303 191.265,84.707 189.145,84.707 C187.025,84.707 184.11,86.098 182.984,86.098 C181.858,86.098 171.855,109.085 171.855,109.085 C171.856,109.085 161.124,121.538 160.727,121.273 C160.329,121.008 144.033,139.159 144.033,139.159 L128.532,153.335 L120.583,158.237 L98.723,152.408 L68.648,132.27 L45.86,108.952 L24.397,106.7 C24.397,106.7 6.644,141.809 6.644,148.301 C6.644,150.487 8.366,152.275 8.366,152.275 C8.366,152.275 2.736,158.105 2.736,164.928 C2.736,168.174 4.392,167.048 8.035,167.048 C11.679,167.048 35.857,170.757 47.119,180.362 L47.045,180.467 C47.296,180.649 47.431,180.984 47.227,181.315 C46.394,182.67 45.469,183.923 44.522,185.196 C44.201,185.628 43.879,186.094 43.506,186.501 C46.09,189.923 59.304,202.223 93.489,202.223 C93.489,204.74 93.291,206.065 94.086,206.131 C94.88,206.198 137.541,207.39 153.97,180.694 C156.619,176.322 155.162,166.716 159.865,163.868 C164.569,161.02 179.341,155.786 191.795,144.326 C193.981,145.254 202.261,144.459 204.911,139.755 C207.561,135.052 209.151,124.453 209.151,111.204 C209.151,97.956 209.018,81.991 205.176,81.991" id="Fill-41" fill="#68111B" sketch:type="MSShapeGroup"/><path d="M198.534,131.955 L202.394,123.349 L203.056,93.142 L200.134,83.246 C197.857,84.2 196.061,85.391 195.504,85.391 C195.188,85.391 194.582,85.321 193.841,85.23 C194.201,89.64 196.013,113.914 193.657,129.501 L193.65,129.399 C193.65,129.399 192.996,134.578 189.259,136.819 C181.145,140.416 169.011,144.547 165.827,144.547 C161.411,144.547 162.471,140.572 161.411,140.572 C160.351,140.572 159.998,140.042 156.73,151.436 C142.333,195.245 108.769,192.154 104.883,192.154 C100.997,192.154 97.817,191.801 97.111,191.094 C98.435,184.205 109.829,166.187 109.829,166.187 L111.773,164.155 L109.918,164.42 C93.313,175.814 95.609,192.596 88.366,190.741 C55.951,180.76 60.986,151.26 60.986,149.228 C60.986,147.197 61.339,145.43 59.484,145.43 C57.983,145.43 56.746,150.995 56.746,157.884 C56.746,161.971 55.689,164.535 54.83,165.944 C49.393,157.159 29.54,150.744 19.915,149.405 C13.051,148.45 8.731,148.826 6.649,149.17 C6.974,150.985 8.3,152.364 8.3,152.364 C8.3,152.364 6.48,154.25 4.909,157.131 L15.852,157.354 L42.261,166.275 L51.271,171.071 L48.797,177.315 L46.164,179.729 C46.468,179.966 46.765,180.206 47.053,180.451 L47.042,180.465 C47.295,180.647 47.432,180.983 47.227,181.315 C46.394,182.67 45.469,183.923 44.522,185.196 C44.18,185.656 43.838,186.155 43.432,186.58 C45.999,189.989 59.206,202.311 93.423,202.311 C93.423,204.828 93.224,206.153 94.019,206.22 C94.814,206.286 137.475,207.478 153.903,180.782 C156.553,176.41 155.096,166.805 159.799,163.956 C164.502,161.108 179.275,155.875 191.728,144.414 C193.915,145.342 202.195,144.547 204.845,139.844 C205.887,137.994 206.764,135.229 207.446,131.754 C204.808,131.384 201.259,131.153 198.534,131.955" id="Fill-42" fill="#56111C" sketch:type="MSShapeGroup"/><path d="M181.461,86.253 C176.377,85.505 173.572,82.1 172.83,79.412 C172.818,79.567 172.809,79.723 172.796,79.879 C172.779,81.927 172.517,83.959 172.104,85.974 C171.828,87.928 171.526,89.889 171.142,91.819 C170.776,93.661 170.277,95.5 169.181,97.053 L168.988,97.246 C168.676,98.193 168.324,99.133 167.927,100.065 L167.923,100.075 L167.922,100.075 L167.857,100.233 C167.661,100.685 167.123,100.632 166.825,100.347 C165.429,104.373 163.656,108.257 161.232,111.892 C161.034,112.189 160.728,112.249 160.47,112.166 C157.883,117.213 154.706,121.881 150.493,125.749 C148.898,127.835 147.176,129.822 145.23,131.634 C144.93,131.913 144.487,131.819 144.243,131.57 C134.831,142.575 124.795,151.854 118.062,157.671 L98.656,152.496 L68.582,132.358 L45.794,109.04 L24.331,106.788 C24.331,106.788 23.567,108.299 22.359,110.746 C27.26,120.122 50.36,146.641 114.532,160.663 C112.092,162.69 110.514,163.911 110.183,164.155 C109.09,164.96 108.035,167 107.713,168.192 L106.826,168.152 L105.347,169.918 C105.347,169.918 105.236,173.782 106.539,171.596 C107.842,169.41 109.189,167.975 109.189,167.975 L107.347,170.044 C175.846,144.071 182.521,91.905 182.521,91.905 C182.521,91.905 183.315,86.518 181.461,86.253" id="Fill-43" fill="#56111C" sketch:type="MSShapeGroup"/><path d="M48.709,181.246 C49.901,181.246 54.008,177.404 54.008,169.587 C54.008,161.77 25.391,152.761 15.455,152.761 C12.304,152.761 9.715,152.908 7.645,153.108 C6.162,154.886 2.669,159.642 2.669,165.016 C2.669,168.262 4.326,167.136 7.969,167.136 C11.612,167.136 35.791,170.846 47.053,180.451 L47.034,180.477 C47.682,180.908 48.278,181.246 48.709,181.246" id="Fill-44" fill="#A3171E" sketch:type="MSShapeGroup"/><path d="M205.11,82.079 C200.804,82.079 196.432,85.391 195.504,85.391 C195.377,85.391 195.2,85.379 194.99,85.36 C195.553,89.797 196.564,99.516 196.564,112.132 C196.564,127.285 192.719,141.042 191.692,144.447 L191.728,144.414 C193.915,145.342 202.195,144.547 204.845,139.844 C207.494,135.14 209.084,124.541 209.084,111.293 C209.084,98.044 208.952,82.079 205.11,82.079" id="Fill-45" fill="#A3171E" sketch:type="MSShapeGroup"/><path d="M32.943,76.448 C30.779,75.919 29.631,79.893 27.378,91.817 C26.716,95.262 21.681,101.356 21.681,105.596 C21.681,109.835 41.024,142.692 114.82,159.518 L118.927,159.518 L124.624,157.001 L121.312,155.013 C121.312,155.013 76.796,136.598 42.349,98.839 C36.255,91.42 32.678,81.483 32.943,76.448" id="Fill-46" fill="#A3171E" sketch:type="MSShapeGroup"/><path d="M121.312,155.013 C121.312,155.013 120.505,154.679 119.026,154.011 L113.69,159.257 C114.066,159.344 114.441,159.432 114.82,159.518 L118.927,159.518 L119.89,159.092 L122.46,157.663 L123.4,156.267 L121.312,155.013" id="Fill-47" fill="#84131F" sketch:type="MSShapeGroup"/><path d="M171.48,72.121 C173.423,72.121 173.423,73.711 173.423,76.448 C173.423,79.187 176.25,83.779 182.256,84.663 C184.11,84.928 183.315,90.316 183.315,90.316 C183.315,90.316 179.473,141.765 108.725,167.467 C107.71,167.953 109.299,163.802 110.978,162.565 C112.656,161.329 146.352,135.008 162.118,105.728 C173.114,84.398 171.48,72.121 171.48,72.121" id="Fill-48" fill="#A3171E" sketch:type="MSShapeGroup"/><path d="M110.737,80.969 C112.76,80.969 113.643,82.575 113.643,84.802 C113.643,87.029 112.27,86.555 110.773,86.956 C102.303,89.183 98.031,101.451 92.262,101.451 C89.999,101.451 89.086,99.954 89.086,99.407 C89.086,97.362 89.378,99.261 91.203,99.261 C97.593,99.261 100.185,80.969 110.737,80.969" id="Fill-49" fill="#000000" sketch:type="MSShapeGroup"/><path d="M117.094,81.292 C118.41,81.292 121.958,82.63 124.767,90.168 C127.185,95.609 129.105,95.537 129.105,95.537 C130.919,95.537 130.35,94.826 130.812,94.826 C131.274,94.826 131.346,97.422 128.821,97.422 C126.296,97.422 126.047,93.582 123.949,91.342 C119.256,86.008 116.644,86.758 116.02,85.937 C115.008,84.606 115.451,81.292 117.094,81.292" id="Fill-50" fill="#000000" sketch:type="MSShapeGroup"/><path d="M204.845,139.844 C206.156,137.516 207.207,133.743 207.935,128.922 C207.049,130.066 204.759,132.181 199.921,132.181 C196.785,132.181 196.564,130.503 196.653,128.913 C196.74,127.332 199.623,118.931 195.221,85.379 L194.99,85.36 C195.553,89.797 196.564,99.516 196.564,112.132 C196.564,127.285 192.719,141.042 191.692,144.447 L191.728,144.414 C193.915,145.342 202.195,144.547 204.845,139.844" id="Fill-51" fill="#84131F" sketch:type="MSShapeGroup"/><path d="M54.008,169.587 C54.008,168.204 53.109,166.784 51.58,165.383 C51.698,168.088 51.052,174.028 49.504,176.962 C48.243,179.351 46.434,178.549 45.612,178.003 C34.263,168.989 15.759,165.982 10.376,165.745 C6.832,165.589 4.335,166.078 2.882,166.505 C3.432,167.846 5.072,167.136 7.969,167.136 C11.612,167.136 35.791,170.846 47.053,180.451 L47.034,180.477 C47.424,180.736 47.793,180.959 48.12,181.098 L48.24,181.144 L48.303,181.167 L48.398,181.196 L48.488,181.218 L48.557,181.232 L48.709,181.246 L48.859,181.227 L48.876,181.223 L49.046,181.17 C50.529,180.608 54.008,176.783 54.008,169.587" id="Fill-52" fill="#84131F" sketch:type="MSShapeGroup"/><path d="M41.94,74.084 C41.938,74.35 41.936,74.616 41.936,74.883 C41.937,79.505 42.225,84.093 42.411,88.658 C42.862,99.734 43.74,110.854 44.526,121.873 C44.977,128.173 46.631,134.781 49.902,140.307 C53.167,145.829 58.103,150.274 64.994,152.052 C66.727,152.501 68.406,152.696 70.034,152.696 C74.696,152.693 78.904,151.11 83.004,149.397 C87.106,147.678 91.117,145.824 95.371,145.105 C96.024,144.994 96.666,144.942 97.301,144.942 C100.112,144.94 102.812,145.961 105.479,147.344 C108.144,148.724 110.75,150.453 113.394,151.76 L114.214,150.097 C111.719,148.868 109.114,147.141 106.332,145.697 C103.552,144.258 100.569,143.09 97.301,143.087 C96.566,143.087 95.818,143.147 95.061,143.276 C90.481,144.057 86.346,145.992 82.288,147.686 C78.227,149.388 74.261,150.844 70.034,150.841 C68.554,150.841 67.038,150.665 65.458,150.256 C59.098,148.606 54.588,144.563 51.498,139.361 C48.416,134.164 46.808,127.812 46.376,121.741 C45.589,110.713 44.713,99.611 44.264,88.583 C44.077,83.99 43.791,79.428 43.791,74.883 C43.791,74.621 43.792,74.36 43.794,74.098 L41.94,74.084" id="Fill-53" fill="#000000" sketch:type="MSShapeGroup"/><path d="M95.155,55.5 L85.93,48.288 L74.189,45.604 L67.983,47.952 L68.897,49.013 C69.887,48.868 70.898,48.791 71.924,48.791 C84.208,48.791 94.167,59.529 94.167,72.776 C94.167,86.023 84.208,96.762 71.924,96.762 C70.789,96.762 69.674,96.669 68.584,96.492 L72.847,99.948 L84.588,97.097 L94.652,88.878 L99.013,79.485 L99.516,68.08 L95.155,55.5" id="Fill-54" fill="#2B0E08" sketch:type="MSShapeGroup"/><path d="M72.512,43.927 C58.628,43.927 47.17,54.849 45.413,68.993 C44.628,69.633 43.065,70.344 39.972,70.344 C38.966,70.344 39.385,71.434 39.385,72.524 L39.385,77.305 C39.385,77.305 38.798,79.066 41.062,79.066 C42.925,79.066 44.831,78.853 45.92,79.473 C48.783,92.175 59.598,101.625 72.512,101.625 C87.611,101.625 99.851,88.709 99.851,72.776 C99.851,56.843 87.611,43.927 72.512,43.927 M72.512,96.762 C59.958,96.762 49.781,86.023 49.781,72.776 C49.781,59.529 59.958,48.791 72.512,48.791 C85.065,48.791 95.242,59.529 95.242,72.776 C95.242,86.023 85.065,96.762 72.512,96.762" id="Fill-55" fill="#000000" sketch:type="MSShapeGroup"/><g id="Group-58" transform="translate(50.000000, 49.000000)"><mask id="mask-2" sketch:name="Clip 57" fill="white"><use xlink:href="#path-1"/></mask><g id="Clip-57"/><path d="M-0.209,-0.207 L23.394,-0.207 L23.394,44.457 L-0.209,44.457 L-0.209,-0.207 Z" id="Fill-56" fill="#9CD166" sketch:type="MSShapeGroup" mask="url(#mask-2)"/></g><path d="M89.162,57.617 L89.144,57.636 C90.205,59.139 91.123,60.796 91.872,62.576 L92.003,62.445 C91.234,60.71 90.278,59.091 89.162,57.617" id="Fill-59" fill="#9CD166" sketch:type="MSShapeGroup"/><path d="M64.564,82.215 L57.745,89.034 C58.767,90.592 59.936,91.997 61.227,93.221 L68.469,85.979 C66.952,85.087 65.618,83.795 64.564,82.215 M89.144,57.636 L81.815,64.965 C82.882,66.502 83.68,68.326 84.116,70.332 L91.872,62.576 C91.123,60.796 90.205,59.139 89.144,57.636 M73.394,48.843 C73.267,48.843 73.14,48.845 73.012,48.849 C61.951,49.148 53.231,60.081 53.244,73.436 C53.244,73.703 53.248,73.969 53.255,74.237 C53.264,74.582 53.279,74.925 53.3,75.266 L60.977,67.589 C60.69,66.915 60.521,66.168 60.5,65.38 C60.415,62.244 62.699,59.638 65.602,59.559 C65.647,59.558 65.692,59.558 65.736,59.558 C66.661,59.557 67.533,59.817 68.293,60.273 L78.657,49.909 C76.98,49.336 75.217,48.971 73.394,48.843" id="Fill-60" fill="#F1FFFF" sketch:type="MSShapeGroup"/><path d="M81.815,64.965 L64.564,82.215 C65.618,83.795 66.952,85.087 68.469,85.979 L84.116,70.332 C83.68,68.326 82.882,66.502 81.815,64.965" id="Fill-61" fill="#7E8C8B" sketch:type="MSShapeGroup"/><path d="M65.736,59.558 C65.692,59.558 65.647,59.558 65.602,59.559 C62.699,59.638 60.415,62.244 60.5,65.38 C60.521,66.168 60.69,66.915 60.977,67.589 L68.293,60.273 C67.533,59.817 66.661,59.557 65.736,59.558" id="Fill-62" fill="#F1FFFF" sketch:type="MSShapeGroup"/><path d="M89.699,57.08 L89.162,57.617 C90.278,59.091 91.234,60.71 92.003,62.445 L92.701,61.747 C91.874,60.065 90.865,58.5 89.699,57.08 M72.512,48.791 C72.409,48.791 72.307,48.792 72.204,48.793 C72.604,48.798 73,48.815 73.394,48.843 C75.217,48.971 76.98,49.336 78.657,49.909 L78.835,49.731 C76.827,49.119 74.706,48.791 72.512,48.791" id="Fill-63" fill="#726E6B" sketch:type="MSShapeGroup"/><path d="M59.139,92.173 L60.092,93.974 L63.107,94.995 L60.377,94.071 L60.991,93.457 C60.353,93.06 59.735,92.632 59.139,92.173 M49.791,73.47 L49.67,74.275 L49.847,74.609 C49.82,74.232 49.801,73.852 49.791,73.47 M88.306,51.398 L91.425,55.355 L89.699,57.08 C90.865,58.5 91.874,60.065 92.701,61.747 L94.805,59.643 L96.821,62.201 L88.306,51.398 M70.132,46.315 L60.854,50.89 L55.262,55.847 L51.576,61.566 L51.11,64.678 C54.225,55.513 62.477,48.929 72.204,48.793 C72.307,48.792 72.409,48.791 72.512,48.791 C74.706,48.791 76.827,49.119 78.835,49.731 L80.656,47.911 L79.664,47.459 L70.132,46.315" id="Fill-64" fill="#586666" sketch:type="MSShapeGroup"/><path d="M94.099,70.893 L93.98,71.013 C94.047,71.711 94.091,72.419 94.11,73.134 C94.118,73.402 94.121,73.669 94.122,73.935 C94.122,74.075 94.121,74.215 94.119,74.354 C94.151,73.832 94.167,73.307 94.167,72.776 C94.167,72.143 94.144,71.515 94.099,70.893" id="Fill-65" fill="#9CD166" sketch:type="MSShapeGroup"/><path d="M93.98,71.013 L68.587,96.405 C69.768,96.622 70.979,96.743 72.215,96.76 C83.875,96.599 93.372,86.762 94.119,74.354 C94.121,74.215 94.122,74.075 94.122,73.935 C94.121,73.669 94.118,73.402 94.11,73.134 C94.091,72.419 94.047,71.711 93.98,71.013" id="Fill-66" fill="#F1FFFF" sketch:type="MSShapeGroup"/><path d="M95.081,69.911 L94.099,70.893 C94.144,71.515 94.167,72.143 94.167,72.776 C94.167,73.307 94.151,73.832 94.119,74.354 C93.372,86.762 83.875,96.599 72.215,96.76 C72.313,96.761 72.413,96.762 72.512,96.762 C85.065,96.762 95.242,86.023 95.242,72.776 C95.242,71.807 95.187,70.85 95.081,69.911" id="Fill-67" fill="#726E6B" sketch:type="MSShapeGroup"/><path d="M98.25,82.526 C97.631,84.348 96.841,86.086 95.904,87.717 C96.962,86.625 97.711,85.84 97.711,85.84 L98.25,82.526" id="Fill-68" fill="#9CD166" sketch:type="MSShapeGroup"/><path d="M96.821,62.201 L97.857,67.135 L95.081,69.911 C95.187,70.85 95.242,71.807 95.242,72.776 C95.242,86.023 85.065,96.762 72.512,96.762 C72.413,96.762 72.313,96.761 72.215,96.76 C70.979,96.743 69.768,96.622 68.587,96.405 L68.254,96.739 L75.851,99.312 C75.851,99.312 88.56,94.356 89.069,94.356 C89.423,94.356 93.476,90.225 95.904,87.717 C96.841,86.086 97.631,84.348 98.25,82.526 L99.49,74.911 L96.821,62.201" id="Fill-69" fill="#586666" sketch:type="MSShapeGroup"/><path d="M53.3,75.266 L51.269,77.297 L57.57,89.209 L57.745,89.034 C55.232,85.203 53.615,80.458 53.3,75.266 M88.694,57.019 C88.846,57.221 88.997,57.428 89.144,57.636 L89.162,57.617 C89.009,57.415 88.853,57.216 88.694,57.019" id="Fill-70" fill="#D7EDC2" sketch:type="MSShapeGroup"/><path d="M60.977,67.589 L53.3,75.266 C53.615,80.458 55.232,85.203 57.745,89.034 L64.564,82.215 C63.06,79.958 62.125,77.112 62.041,74 C62,72.496 62.162,71.043 62.495,69.68 C61.849,69.125 61.326,68.41 60.977,67.589 M78.657,49.909 L68.293,60.273 C68.606,60.461 68.899,60.683 69.169,60.933 C70.327,60.397 71.58,60.089 72.894,60.053 C72.979,60.051 73.064,60.05 73.148,60.05 C76.603,60.05 79.725,61.956 81.815,64.965 L89.144,57.636 C88.997,57.428 88.846,57.221 88.694,57.019 C86.047,53.746 82.588,51.254 78.657,49.909" id="Fill-71" fill="#F9FFFF" sketch:type="MSShapeGroup"/><path d="M73.148,60.05 C73.064,60.05 72.979,60.051 72.894,60.053 C71.58,60.089 70.327,60.397 69.169,60.933 C70.259,61.943 70.966,63.427 71.011,65.096 C71.096,68.233 68.812,70.839 65.909,70.917 C65.864,70.918 65.819,70.919 65.775,70.919 C64.54,70.919 63.398,70.456 62.495,69.68 C62.162,71.043 62,72.496 62.041,74 C62.125,77.112 63.06,79.958 64.564,82.215 L81.815,64.965 C79.725,61.956 76.603,60.05 73.148,60.05" id="Fill-72" fill="#CBD1D1" sketch:type="MSShapeGroup"/><path d="M68.293,60.273 L60.977,67.589 C61.326,68.41 61.849,69.125 62.495,69.68 C63.398,70.456 64.54,70.919 65.775,70.919 C65.819,70.919 65.864,70.918 65.909,70.917 C68.812,70.839 71.096,68.233 71.011,65.096 C70.966,63.427 70.259,61.943 69.169,60.933 C68.899,60.683 68.606,60.461 68.293,60.273" id="Fill-73" fill="#F9FFFF" sketch:type="MSShapeGroup"/><path d="M78.835,49.731 L78.657,49.909 C82.588,51.254 86.047,53.746 88.694,57.019 C88.853,57.216 89.009,57.415 89.162,57.617 L89.699,57.08 C86.864,53.626 83.108,51.035 78.835,49.731" id="Fill-74" fill="#C7C5C4" sketch:type="MSShapeGroup"/><path d="M80.656,47.911 L78.835,49.731 C83.108,51.035 86.864,53.626 89.699,57.08 L91.425,55.355 L88.306,51.398 L80.656,47.911" id="Fill-75" fill="#BCC2C2" sketch:type="MSShapeGroup"/><path d="M61.227,93.221 L60.991,93.457 C61.458,93.747 61.937,94.021 62.425,94.276 C62.015,93.942 61.615,93.59 61.227,93.221 M92.003,62.445 L91.872,62.576 C92.959,65.161 93.688,68.003 93.98,71.013 L94.099,70.893 C93.883,67.888 93.152,65.037 92.003,62.445" id="Fill-76" fill="#D7EDC2" sketch:type="MSShapeGroup"/><path d="M91.872,62.576 L84.116,70.332 C84.329,71.313 84.456,72.338 84.484,73.394 C84.688,80.929 79.829,87.173 73.631,87.341 C73.546,87.343 73.461,87.344 73.376,87.344 C71.625,87.344 69.959,86.854 68.469,85.979 L61.227,93.221 C61.615,93.59 62.015,93.942 62.425,94.276 C64.341,95.279 66.412,96.006 68.587,96.405 L93.98,71.013 C93.688,68.003 92.959,65.161 91.872,62.576" id="Fill-77" fill="#F9FFFF" sketch:type="MSShapeGroup"/><path d="M84.116,70.332 L68.469,85.979 C69.959,86.854 71.625,87.344 73.376,87.344 C73.461,87.344 73.546,87.343 73.631,87.341 C79.829,87.173 84.688,80.929 84.484,73.394 C84.456,72.338 84.329,71.313 84.116,70.332" id="Fill-78" fill="#CBD1D1" sketch:type="MSShapeGroup"/><path d="M92.701,61.747 L92.003,62.445 C93.152,65.037 93.883,67.888 94.099,70.893 L95.081,69.911 C94.752,66.997 93.929,64.244 92.701,61.747" id="Fill-79" fill="#C7C5C4" sketch:type="MSShapeGroup"/><path d="M60.991,93.457 L60.377,94.071 L63.107,94.995 L68.254,96.739 L68.587,96.405 C66.412,96.006 64.341,95.279 62.425,94.276 C61.937,94.021 61.458,93.747 60.991,93.457 M94.805,59.643 L92.701,61.747 C93.929,64.244 94.752,66.997 95.081,69.911 L97.857,67.135 L96.821,62.201 L94.805,59.643" id="Fill-80" fill="#BCC2C2" sketch:type="MSShapeGroup"/><path d="M75.111,43.927 C61.837,43.927 50.827,54.354 48.726,68.026 L48.694,67.996 C48.694,67.996 48.107,70.344 42.488,70.344 C41.482,70.344 41.901,71.434 41.901,72.525 L41.901,77.305 C41.901,77.305 41.314,79.066 43.578,79.066 C45.843,79.066 48.191,78.731 49.029,79.988 C49.108,80.106 49.191,80.195 49.276,80.27 C52.336,92.569 62.741,101.626 75.111,101.626 C89.886,101.626 101.864,88.709 101.864,72.776 C101.864,56.843 89.886,43.927 75.111,43.927 L75.111,43.927 Z M75.111,96.762 C62.827,96.762 52.869,86.023 52.869,72.776 C52.869,59.53 62.827,48.791 75.111,48.791 C87.395,48.791 97.354,59.53 97.354,72.776 C97.354,86.023 87.395,96.762 75.111,96.762 L75.111,96.762 Z" id="Fill-81" fill="#772B11" sketch:type="MSShapeGroup"/></g></g></g></svg>