<?xml version="1.0" encoding="UTF-8"?><svg width="96px" height="203px" viewBox="0 0 96 203" version="1.1" xmlns="http://www.w3.org/2000/svg" xmlns:xlink="http://www.w3.org/1999/xlink"><title>jumping girl</title><desc>Created with Sketch.</desc><defs/><g id="approved" stroke="none" stroke-width="1" fill="none" fill-rule="evenodd"><g id="test-b---4-copy-11" transform="translate(-112.000000, -139.000000)"><g id="jumping-girl" transform="translate(112.000000, 139.000000)"><path d="M59.5000128,125 L59.5000128,125 C63.6421304,125 67,128.435283 67,132.672881 L67,134.327054 C67,138.564717 63.6421304,142 59.5000128,142 L59.5000128,142 C55.3578696,142 52,138.564717 52,134.327054 L52,132.672881 C52,128.435283 55.3578696,125 59.5000128,125 Z" id="Fill-1" fill="#60BAE2"/><path d="M64.0491738,127.950874 L64.0491738,127.950874 C66.6502754,130.551975 66.6502754,134.769295 64.0491738,137.370396 L40.3704185,161.049143 C37.7692724,163.650289 33.5519968,163.650282 30.9508571,161.049143 L30.9508571,161.049143 C28.3497175,158.448004 28.3497111,154.230728 30.9508571,151.629583 L54.6295934,127.950874 C57.2307331,125.349709 61.4480151,125.349709 64.0491738,127.950874 Z" id="Fill-3" fill="#1E6BA5"/><path d="M80.5,128 L80.5,128 C84.0898242,128 87,130.834453 87,134.331011 L87,151.668996 C87,155.165515 84.0898242,158 80.5,158 L80.5,158 C76.9101114,158 74,155.165515 74,151.668996 L74,134.331011 C74,130.834453 76.9101114,128 80.5,128 Z" id="Fill-4" fill="#934F3F"/><path d="M78.500032,125 L78.500032,125 C82.6421333,125 86,128.435283 86,132.672881 L86,134.327054 C86,138.564717 82.6421333,142 78.500032,142 L78.500032,142 C74.3578667,142 71,138.564717 71,134.327054 L71,132.672881 C71,128.435283 74.3578667,125 78.500032,125 Z" id="Fill-5" fill="#60BAE2"/><path d="M82.0491733,127.950874 L82.0491733,127.950874 C84.6502756,130.551975 84.6502756,134.769295 82.0491733,137.370396 L58.370424,161.049143 C55.7692773,163.650289 51.5520004,163.650282 48.9508601,161.049143 L48.9508601,161.049143 C46.3497197,158.448004 46.349707,154.230728 48.9508601,151.629583 L72.6295839,127.950874 C75.2307497,125.349709 79.4480075,125.349709 82.0491733,127.950874 Z" id="Fill-6" fill="#1E6BA5"/><path d="M36.0000033,113 L35.9999967,113 C39.8659949,113 43,115.994551 43,119.688518 L43,157.311463 C43,161.005443 39.8659949,164 35.9999967,164 L36.0000033,164 C32.1340051,164 29,161.005443 29,157.311463 L29,119.688518 C29,115.994551 32.1340051,113 36.0000033,113 Z" id="Fill-7" fill="#1980BA"/><path d="M52.9999967,113 L52.9999967,113 C56.8659882,113 60,115.994551 60,119.688518 L60,157.311463 C60,161.005443 56.8659882,164 52.9999967,164 L52.9999967,164 C49.1340051,164 46,161.005443 46,157.311463 L46,119.688518 C46,115.994551 49.1340051,113 52.9999967,113 Z" id="Fill-8" fill="#1980BA"/><polygon id="Fill-9" fill="#007236" points="17.7993946 14 6 17.5640622 31.2006041 99 43 95.4359378"/><path d="M68,42.5280986 C68,47.2069842 64.1954452,51 59.5000032,51 L59.5000032,51 C54.8055794,51 51,47.2071127 51,42.5296401 L51,10 L60.0972211,13.6000025 C64.4617905,15.3271661 68,20.5259993 68,25.1992327 L68,42.5280986 Z" id="Fill-10" fill="#FFC200"/><path d="M67,43 C67,50.179705 61.4035562,56 54.5,56 C47.5964437,56 42,50.179705 42,43 C42,35.820295 47.5964437,30 54.5,30 C61.4035562,30 67,35.820295 67,43 Z" id="Fill-11" fill="#F2B800"/><path d="M37.1564555,98 L51.8435445,98 C56.3482303,98 60,101.698076 60,106.259868 L60,120.740132 C60,125.301924 56.3482303,129 51.8435445,129 L37.1564555,129 C32.6517697,129 29,125.301924 29,120.740132 L29,106.259868 C29,101.698076 32.6517697,98 37.1564555,98 Z" id="Fill-12" fill="#1980BA"/><path d="M53,38.4999687 C53,47.0604238 46.0604109,54 37.5000031,54 C28.9395891,54 22,47.0604238 22,38.4999687 C22,29.9395762 28.9395891,23 37.5000031,23 C46.0604109,23 53,29.9395762 53,38.4999687 Z" id="Fill-13" fill="#FFC200"/><path d="M49.031117,71 L60.9688521,71 C66.5089079,71 71,75.6524101 71,81.3914303 L71,86.6085697 C71,92.3475899 66.5089079,97 60.9688521,97 L49.031117,97 C43.4910859,97 39,92.3475899 39,86.6085697 L39,81.3914303 C39,75.6524101 43.4910859,71 49.031117,71 Z" id="Fill-14" fill="#00843F"/><path d="M30.2384105,108 L59.7615895,108 C60.4455451,108 61,108.55226 61,109.23355 L61,117.76645 C61,118.447678 60.4455451,119 59.7615895,119 L30.2384105,119 C29.5544611,119 29,118.447678 29,117.76645 L29,109.23355 C29,108.55226 29.5544611,108 30.2384105,108 Z" id="Fill-15" fill="#934F3F"/><path d="M65,52.0000308 C65,54.7614674 62.7614239,57 60.0000031,57 C57.2385761,57 55,54.7614674 55,52.0000308 C55,49.2385942 57.2385761,47 60.0000031,47 C62.7614239,47 65,49.2385942 65,52.0000308 Z" id="Fill-16" fill="#E08070"/><path d="M28,90.025649 C28,80.6226323 35.6090953,73 45,73 L45,73 C54.3888376,73 62,80.6256359 62,90.025649 L62,111.3369 C62,113.912287 59.9115827,116 57.3437317,116 L32.6562619,116 C30.0846788,116 28,113.91152 28,111.3369 L28,90.025649 Z" id="Fill-17" fill="#00843F"/><path d="M43.9999967,65 L43.9999967,65 C47.8659882,65 51,68.1471912 51,72.0294502 L51,76.9705498 C51,80.8528088 47.8659882,84 43.9999967,84 L43.9999967,84 C40.1340051,84 37,80.8528088 37,76.9705498 L37,72.0294502 C37,68.1471912 40.1340051,65 43.9999967,65 Z" id="Fill-18" fill="#E08070"/><path d="M33,52.0000308 C33,54.7614674 30.7614239,57 28.0000031,57 C25.2385761,57 23,54.7614674 23,52.0000308 C23,49.2385942 25.2385761,47 28.0000031,47 C30.7614239,47 33,49.2385942 33,52.0000308 Z" id="Fill-19" fill="#E08070"/><path d="M44.0000031,29 L44.0000031,29 C52.8365571,29 60,36.4455883 60,45.6301625 L60,60.3698375 C60,69.5544117 52.8365571,77 44.0000031,77 L44.0000031,77 C35.1634367,77 28,69.5544117 28,60.3698375 L28,45.6301625 C28,36.4455883 35.1634367,29 44.0000031,29 Z" id="Fill-20" fill="#E8957C"/><path d="M22.4937961,43.3794462 C22.1714251,42.0797591 22,40.7175225 22,39.3139159 C22,30.303993 29.0633291,23 37.7763841,23 C43.3137727,23 48.1848446,25.9500612 51,30.413191 C49.0348983,39.3386586 41.3130035,46 32.0865379,46 C28.5970715,46 25.3228136,45.0471733 22.4937961,43.3794462 Z" id="Fill-21" fill="#FFC200"/><path d="M89.392882,35.0994035 L89.392882,35.0993408 C92.1582799,37.0241585 92.8303731,40.8128438 90.8940205,43.5617413 L62.1204583,84.4084971 C60.1840931,87.1573319 56.3725476,87.8253997 53.6071245,85.9006447 L53.6071245,85.9006447 C50.8417076,83.9758897 50.1696271,80.1871417 52.1059923,77.4383069 L80.8795545,36.5914884 C82.815907,33.8426536 86.6274841,33.1745858 89.392882,35.0994035 Z" id="Fill-22" fill="#007236"/><path d="M7.81227706,10 L16.1877275,10 C19.39776,10 22,12.4624132 22,15.4999692 L22,15.4999692 C22,18.5375252 19.39776,21 16.1877275,21 L7.81227706,21 C4.60224328,21 2,18.5375252 2,15.4999692 L2,15.4999692 C2,12.4624132 4.60224328,10 7.81227706,10 Z" id="Fill-23" fill="#00843F"/><path d="M34,55.9954173 C34,55.4456835 34.4904395,55 35.1023207,55 L49.8976793,55 C50.5064773,55 51,55.4425996 51,55.9954173 L51,60.0000308 C51,62.7614674 48.5371403,65 45.4923286,65 L35.1023207,65 C34.4935227,65 34,64.5574004 34,64.0046443 L34,55.9954173 Z" id="Fill-24" fill="#B2473B"/><path d="M50,61.5143876 C49.6008986,63.4949438 47.6158941,65 45.2226494,65 L41,65 C41.8187293,62.684501 44.3143556,61 47.2659739,61 C48.2418701,61 49.1679212,61.18413 50,61.5143876 Z" id="Fill-25" fill="#CC4F46"/><path d="M36.2003765,53 L48.7996303,53 C50.0148561,53 51,53.935358 51,55.0891769 L51,56.9108231 C51,58.064642 50.0148561,59 48.7996303,59 L36.2003765,59 C34.9851439,59 34,58.064642 34,56.9108231 L34,55.0891769 C34,53.935358 34.9851439,53 36.2003765,53 Z" id="Fill-26" fill="#FFFFFF"/><path d="M50,48.9999753 C50,50.1045432 49.104569,51 48,51 C46.895431,51 46,50.1045432 46,48.9999753 C46,47.8954075 46.895431,47 48,47 C49.104569,47 50,47.8954075 50,48.9999753 Z" id="Fill-27" fill="#CC7262"/><path d="M35,48.9999753 C35,50.1045432 34.1045701,51 32.9999975,51 C31.8954299,51 31,50.1045432 31,48.9999753 C31,47.8954075 31.8954299,47 32.9999975,47 C34.1045701,47 35,47.8954075 35,48.9999753 Z" id="Fill-28" fill="#CC7262"/><path d="M6.84624237,0 L14.1537576,0 C17.9348339,0 21,3.15696799 21,7.05134757 L21,11.9486524 C21,15.843032 17.9348339,19 14.1537576,19 L6.84624237,19 C3.06516543,19 0,15.843032 0,11.9486524 L0,7.05134757 C0,3.15696799 3.06516543,0 6.84624237,0 Z" id="Fill-29" fill="#E8957C"/><path d="M17.6987209,8 L20.3012791,8 C22.3440239,8 24,9.79084173 24,11.9999648 L24,11.9999648 C24,14.2091583 22.3440239,16 20.3012791,16 L17.6987209,16 C15.6559761,16 14,14.2091583 14,11.9999648 L14,11.9999648 C14,9.79084173 15.6559761,8 17.6987209,8 Z" id="Fill-30" fill="#E08070"/><path d="M33,53 L49,53 C50.1045667,53 51,53.8954 51,55 L51,55 C51,56.1046 50.1045667,57 49,57 L33,57 C31.8954267,57 31,56.1046 31,55 L31,55 C31,53.8954 31.8954267,53 33,53 Z" id="Fill-31" fill="#E8957C"/><path d="M31.6217457,50 L35.3782543,50 C36.2739154,50 37,50.6715461 37,51.5 L37,51.5 C37,52.3283923 36.2739154,53 35.3782543,53 L31.6217457,53 C30.7260846,53 30,52.3283923 30,51.5 L30,51.5 C30,50.6715461 30.7260846,50 31.6217457,50 Z" id="Fill-32" fill="#F59F85"/><path d="M79.8122505,37 L88.1876843,37 C91.3977089,37 94,39.4624132 94,42.4999692 L94,42.4999692 C94,45.5375252 91.3977089,48 88.1876843,48 L79.8122505,48 C76.6022259,48 74,45.5375252 74,42.4999692 L74,42.4999692 C74,39.4624132 76.6022259,37 79.8122505,37 Z" id="Fill-33" fill="#00843F"/><path d="M26.5046685,49.5160979 C26.5046685,51.7175659 28.2936575,53.501228 30.4999969,53.501228 C32.7024353,53.501228 34.4953315,51.7149754 34.4953315,49.5160979 L34.4953315,45.494948 C34.4953315,45.4993888 26.5064395,45.498772 26.5064395,45.498772 C26.5055664,45.498772 26.5046685,49.5160979 26.5046685,49.5160979 Z M25,45.494948 C25,44.6693282 25.6715404,44 26.5064395,44 L34.4935544,44 C35.3255432,44 36,44.6715486 36,45.494948 L36,49.5160979 C36,52.5447893 33.5313839,55 30.4999969,55 C27.4624303,55 25,52.5450977 25,49.5160979 L25,45.494948 Z" id="Fill-34" fill="#575757"/><path d="M46.6217457,50 L50.3782543,50 C51.273922,50 52,50.6715461 52,51.5 L52,51.5 C52,52.3283923 51.273922,53 50.3782543,53 L46.6217457,53 C45.7260846,53 45,52.3283923 45,51.5 L45,51.5 C45,50.6715461 45.7260846,50 46.6217457,50 Z" id="Fill-35" fill="#F59F85"/><path d="M81.846236,26 L89.153764,26 C92.9348628,26 96,29.156968 96,33.0513476 L96,37.9486524 C96,41.843032 92.9348628,45 89.153764,45 L81.846236,45 C78.0652022,45 75,41.843032 75,37.9486524 L75,33.0513476 C75,29.156968 78.0652022,26 81.846236,26 Z" id="Fill-36" fill="#E8957C"/><path d="M73,35.9999648 C73,33.7908417 74.5956071,32 76.5679033,32 L79.4321595,32 C81.4026348,32 83,33.795353 83,35.9999648 L83,35.9999648 C83,38.2091583 81.4044557,40 79.4321595,40 L76.5679033,40 C74.597428,40 73,38.204647 73,35.9999648 L73,35.9999648 Z" id="Fill-37" fill="#E08070"/><path d="M38.2037345,47 L39.7962655,47 C40.4610687,47 41,47.6710509 41,48.4987626 L41,53.5012374 C41,54.3290108 40.4610687,55 39.7962655,55 L38.2037345,55 C37.5389313,55 37,54.3290108 37,53.5012374 L37,48.4987626 C37,47.6710509 37.5389313,47 38.2037345,47 Z" id="Fill-38" fill="#E08070"/><path d="M39,96 L39,96 C45.0751338,96 50,91.0751235 50,85" id="Stroke-39" stroke="#F2F2F2" stroke-width="2.268" stroke-linecap="round" stroke-linejoin="round"/><path d="M44,97.0000308 C44,98.1045595 43.1045682,99 42,99 C40.8954318,99 40,98.1045595 40,97.0000308 C40,95.8954405 40.8954318,95 42,95 C43.1045682,95 44,95.8954405 44,97.0000308 Z" id="Fill-40" fill="#F2F2F2"/><path d="M24,96 L24,96 C30.0751338,96 35,91.0751235 35,85" id="Stroke-41" stroke="#F2F2F2" stroke-width="2.268" stroke-linecap="round" stroke-linejoin="round"/><path d="M29,97.0000308 C29,98.1045595 28.1045682,99 27,99 C25.8954318,99 25,98.1045595 25,97.0000308 C25,95.8954405 25.8954318,95 27,95 C28.1045682,95 29,95.8954405 29,97.0000308 Z" id="Fill-42" fill="#F2F2F2"/><path d="M43.5648561,49.5 C43.5648561,51.7104112 45.4339446,53.501228 47.7398277,53.501228 L49.2601723,53.501228 C51.5666542,53.501228 53.4351439,51.7105346 53.4351439,49.5 L53.4351439,45.494948 C53.4351439,45.4996972 43.5681017,45.498772 43.5681017,45.498772 C43.5661891,45.498772 43.5648561,49.5 43.5648561,49.5 Z M42,45.494948 C42,44.6693282 42.6989368,44 43.5681017,44 L53.4318983,44 C54.2979399,44 55,44.6715486 55,45.494948 L55,49.5 C55,52.537573 52.4316204,55 49.2601723,55 L47.7398277,55 C44.5698092,55 42,52.5382515 42,49.5 L42,45.494948 Z" id="Fill-43" fill="#575757"/><path d="M53,47.5 C53,47.22385 53.269352,47 53.604488,47 L61.395512,47 C61.729358,47 62,47.22195 62,47.5 L62,47.5 C62,47.77615 61.730648,48 61.395512,48 L53.604488,48 C53.270642,48 53,47.77805 53,47.5 L53,47.5 Z" id="Fill-44" fill="#575757"/><path d="M34.6266693,104 L51.3733307,104 C52.2717207,104 53,104.671053 53,105.498766 L53,111.501234 C53,112.329009 52.2717207,113 51.3733307,113 L34.6266693,113 C33.728286,113 33,112.329009 33,111.501234 L33,105.498766 C33,104.671053 33.728286,104 34.6266693,104 Z" id="Fill-45" fill="#017737"/><path d="M24.3852518,195 L89.6147227,195 C92.0366263,195 94,196.790856 94,198.999991 L94,199.000008 C94,201.209143 92.0366263,203 89.6147227,203 L24.3852518,203 C21.9633419,203 20,201.209143 20,199.000008 L20,198.999991 C20,196.790856 21.9633419,195 24.3852518,195 Z" id="Fill-46" fill="#D8D8D8"/></g></g></g></svg>