<?xml version="1.0" encoding="UTF-8" standalone="no"?><svg width="343px" height="345px" viewBox="0 0 343 345" version="1.1" xmlns="http://www.w3.org/2000/svg" xmlns:xlink="http://www.w3.org/1999/xlink" xmlns:sketch="http://www.bohemiancoding.com/sketch/ns"><title>Artboard 9</title><description>Created with Sketch (http://www.bohemiancoding.com/sketch)</description><defs/><g id="Page-1" stroke="none" stroke-width="1" fill="none" fill-rule="evenodd" sketch:type="MSPage"><g id="Artboard-9" sketch:type="MSArtboardGroup"><g id="Imported-Layers-copy" sketch:type="MSLayerGroup" transform="translate(5.000000, 3.000000)"><path d="M112.189641,0.203392857 C142.658395,0.203392857 149.906744,40.7503571 210.018471,40.7503571 C247.950605,40.7503571 250.075534,25.0472321 267.557287,25.0472321 C274.704094,25.0472321 278.767291,38.7448437 278.767291,47.8795759 C278.767291,83.978817 269.513475,124.335848 275.523901,124.335848 C283.400919,124.335848 315.389825,103.651094 323.68048,103.651094 C331.557498,103.651094 331.349933,109.775312 331.349933,113.200089 C331.349933,116.624866 333.770529,176.441808 252.930673,223.566138 C249.40804,225.641942 232.272726,300.367879 171.884744,300.367879 C131.535,300.367879 100.857188,278.509129 89.1110987,226.19529 C86.7621794,215.400513 0.534591928,181.354643 0.534591928,106.344554 C0.534591928,89.8757143 4.67991928,80.880067 11.0367848,80.880067 C26.9282018,80.880067 60.922574,107.590335 75.5700942,107.590335 C88.2479865,107.590335 86.2096682,79.9109598 86.2096682,71.6077455 C86.2096682,63.3045313 85.5197758,0.203392857 112.189641,0.203392857" id="Fill-1" fill="#78C800" sketch:type="MSShapeGroup"/><path d="M252.408027,53.4399777 C246.914274,53.4399777 245.586753,56.2785045 243.636538,54.5033036 C242.751027,53.6164509 247.445879,51.5765402 247.445879,50.688192 C247.445879,50.2455134 246.738067,50.33375 245.76296,50.33375 C240.004897,50.33375 228.664978,58.7625893 227.070161,58.7625893 C226.360857,58.7625893 225.209543,58.940558 225.209543,57.8757366 C225.209543,55.4798884 233.271726,53.4399777 227.68987,53.4399777 C222.109507,53.4399777 213.869623,60.6260268 205.275834,60.6260268 C187.558143,60.6260268 173.294395,46.6966071 173.294395,50.1572768 C173.294395,51.3985714 175.332713,53.3502455 176.661726,55.8343304 C176.661726,55.8343304 177.457641,59.5612054 175.952422,58.141942 C159.695152,41.8600446 143.439377,37.9118304 143.439377,37.9118304 C143.439377,37.9118304 142.198466,37.9118304 142.198466,38.4442411 C142.198466,40.3076786 145.742004,42.7917634 145.742004,43.5021429 C145.742004,44.2110268 145.299996,44.6552009 144.590691,44.6552009 C141.135256,44.6552009 138.654928,38.0015625 124.745085,38.0015625 C103.749659,38.0015625 97.9662108,71.0962723 97.9662108,98.2462277 C97.9662108,136.753281 122.70826,148.988259 143.173574,148.988259 C159.403964,148.988259 176.779695,139.406362 184.051937,125.336362 L205.652139,126.984442 C205.652139,126.984442 216.240942,147.082946 235.287646,147.082946 C253.16213,147.082946 268.708601,135.755759 268.708601,96.4710268 C268.708601,55.213683 257.900287,53.4399777 252.408027,53.4399777" id="Fill-2" fill="#8EE000" sketch:type="MSShapeGroup"/><path d="M168.599543,99.8599107 C168.599543,118.446429 156.226278,133.513951 140.962036,133.513951 C125.697794,133.513951 113.324529,118.446429 113.324529,99.8599107 C113.324529,81.2733929 125.697794,66.2058705 140.962036,66.2058705 C156.226278,66.2058705 168.599543,81.2733929 168.599543,99.8599107" id="Fill-3" fill="#FFFFFF" sketch:type="MSShapeGroup"/><path d="M258.597646,106.212946 C257.722587,122.563638 246.685803,135.468616 233.945193,135.039397 C221.204583,134.610179 211.584915,121.008281 212.45848,104.657589 C213.333538,88.3083929 224.371816,75.4034152 237.112426,75.8326339 C249.853036,76.2618527 259.472704,89.86375 258.597646,106.212946" id="Fill-4" fill="#FFFFFF" sketch:type="MSShapeGroup"/><path d="M155.575211,99.8599107 C155.575211,110.069933 148.77783,118.347723 140.393099,118.347723 C132.008368,118.347723 125.210987,110.069933 125.210987,99.8599107 C125.210987,89.6498884 132.008368,81.3735938 140.393099,81.3735938 C148.77783,81.3735938 155.575211,89.6498884 155.575211,99.8599107" id="Fill-5" fill="#3F3F3F" sketch:type="MSShapeGroup"/><path d="M137.663395,88.1319196 C137.663395,92.3822321 134.479735,95.8264509 130.552426,95.8264509 C126.625117,95.8264509 123.441457,92.3822321 123.441457,88.1319196 C123.441457,83.8831027 126.625117,80.4373884 130.552426,80.4373884 C134.479735,80.4373884 137.663395,83.8831027 137.663395,88.1319196" id="Fill-6" fill="#FFFFFF" sketch:type="MSShapeGroup"/><path d="M248.186543,106.20846 C247.493664,115.820268 241.078561,123.332344 233.86157,122.985379 C226.643085,122.639911 221.35391,114.568504 222.048283,104.956696 C222.742655,95.3448884 229.156265,87.8328125 236.373256,88.1797768 C243.59174,88.5252455 248.880915,96.5966518 248.186543,106.20846" id="Fill-7" fill="#3F3F3F" sketch:type="MSShapeGroup"/><path d="M176.820013,134.970603 C176.820013,134.970603 171.751843,177.454286 185.631821,177.161161 C199.511798,176.868036 198.920462,156.510804 198.833852,156.267031 C198.747242,156.023259 176.820013,134.970603 176.820013,134.970603" id="Fill-8" fill="#71B200" sketch:type="MSShapeGroup"/><path d="M233.116426,95.0173661 C233.240368,98.9356696 230.512157,102.200424 227.022377,102.308103 C223.53409,102.415781 220.604287,99.3260045 220.480345,95.4062054 C220.356404,91.4879018 223.084614,88.2231473 226.574395,88.1154687 C230.064175,88.0077902 232.992484,91.097567 233.116426,95.0173661" id="Fill-9" fill="#FFFFFF" sketch:type="MSShapeGroup"/><path d="M317.552085,161.480469 C301.583018,184.813817 268.157583,203.222366 262.672789,203.222366 C256.454798,203.222366 260.739,196.579196 256.317417,196.579196 C252.309471,196.579196 251.480704,266.461094 180.038018,266.461094 C99.7521659,266.461094 101.548574,183.292857 93.8104305,183.292857 C88.1449507,183.292857 91.875148,195.471004 85.7960314,195.471004 C65.4875112,195.471004 11.4026368,154.36471 2.41462332,125.158393 C15.0253184,187.151339 86.9682511,216.347187 89.1110987,226.19529 C100.857188,278.509129 131.535,300.367879 171.884744,300.367879 C232.272726,300.367879 249.40804,225.641942 252.930673,223.566138 C286.29787,204.115201 305.962789,181.534107 317.552085,161.480469" id="Fill-10" fill="#71B200" sketch:type="MSShapeGroup"/><path d="M176.799108,134.566808 C176.799108,134.566808 176.204785,137.942232 176.204785,141.395424 C176.204785,144.848616 175.927036,166.524911 189.482973,166.524911 C199.511798,166.524911 200.582475,154.57558 200.582475,154.57558 C200.582475,154.57558 198.71887,144.332656 198.639726,144.452299 C198.560583,144.571942 193.169865,134.290134 193.169865,134.290134 C193.169865,134.290134 181.992713,132.106652 182.110682,132.145536 C182.230143,132.185915 176.799108,134.566808 176.799108,134.566808" id="Fill-11" fill="#F49000" sketch:type="MSShapeGroup"/><path d="M179.257036,141.911384 C179.47804,144.681116 182.943928,160.252634 192.97126,160.252634 C198.957794,160.252634 198.71887,153.503281 198.71887,153.503281 C198.71887,149.374107 197.252475,145.167165 197.252475,145.167165 C197.252475,145.167165 193.567076,139.965692 193.447614,139.886429 C193.328152,139.807165 185.32122,136.433237 185.32122,136.433237 L179.218211,134.924241 L178.107215,136.155067 L178.265502,137.02846 C178.265502,137.02846 178.979287,138.444732 179.257036,141.911384" id="Fill-12" fill="#935400" sketch:type="MSShapeGroup"/><path d="M194.121081,118.19817 C203.370417,118.19817 215.155332,129.89625 215.155332,143.870536 C215.155332,156.09654 210.346991,159.219219 209.342018,159.219219 C204.21561,159.219219 176.469094,144.029062 176.469094,133.654531 C176.469094,124.762076 186.563623,118.19817 194.121081,118.19817" id="Fill-13" fill="#FFC200" sketch:type="MSShapeGroup"/><path d="M201.412735,125.017812 C201.345538,126.944063 198.432161,128.406696 194.905049,128.285558 C191.377937,128.16442 188.572076,126.502879 188.63778,124.576629 C188.704978,122.650379 191.618354,121.187746 195.145466,121.308884 C198.672578,121.431518 201.478439,123.091562 201.412735,125.017812" id="Fill-15" fill="#FFF3B8" sketch:type="MSShapeGroup"/><path d="M159.959462,310.47471 C170.289928,309.93183 177.705525,312.13625 178.190839,321.425022 C178.677646,330.713795 166.090843,333.14404 159.399484,333.495491 C152.706632,333.846942 145.131256,330.82596 144.78183,324.122969 C144.43091,317.421473 150.626502,310.965246 159.959462,310.47471" id="Fill-16" fill="#D98500" sketch:type="MSShapeGroup"/><path d="M223.435534,291.479911 C233.297112,290.962455 233.504677,301.68096 233.547982,302.503504 C233.591287,303.326049 234.602233,313.648237 217.344471,314.554531 C206.425655,315.128817 206.757161,310.218973 206.631726,307.80817 C206.504798,305.397366 210.932354,292.136451 223.435534,291.479911" id="Fill-17" fill="#D98500" sketch:type="MSShapeGroup"/></g></g></g></svg>