<?xml version="1.0" encoding="UTF-8" standalone="no"?><svg width="270px" height="270px" viewBox="0 0 270 270" version="1.1" xmlns="http://www.w3.org/2000/svg" xmlns:xlink="http://www.w3.org/1999/xlink" xmlns:sketch="http://www.bohemiancoding.com/sketch/ns"><title>duo_tracksuit</title><desc>Created with Sketch.</desc><defs/><g id="Page-1" stroke="none" stroke-width="1" fill="none" fill-rule="evenodd" sketch:type="MSPage"><g id="duo_tracksuit" sketch:type="MSArtboardGroup"><g id="Imported-Layers" sketch:type="MSLayerGroup" transform="translate(20.000000, 15.000000)"><path d="M199.963,230.415 C199.999,235.705 155.74,240.297 101.108,240.673 C46.475,241.048 2.157,237.063 2.121,231.773 C2.085,226.483 46.344,221.89 100.976,221.515 C155.609,221.14 199.927,225.125 199.963,230.415" id="Fill-1" fill="#D6D6D6" sketch:type="MSShapeGroup"/><path d="M127.77,211.821 C135.118,212.169 134.478,220.116 134.449,220.729 C134.42,221.341 134.405,229.055 121.547,228.445 C113.412,228.06 114.022,224.45 114.107,222.657 C114.192,220.864 118.455,211.379 127.77,211.821" id="Fill-2" fill="#D98500" sketch:type="MSShapeGroup"/><path d="M50.978,0.362 C59.878,0.122 68.425,7.414 79.379,14.706 C90.524,22.125 104.16,29.544 123.195,29.03 C150.565,28.291 153.284,15.918 166.272,15.567 C174.902,15.334 175.703,32.061 175.771,34.588 C176.185,49.93 172.712,73.14 172.971,82.729 C173.188,90.748 181.978,89.987 182.762,89.966 C207.082,89.309 218.435,83.333 224.362,83.173 C230.29,83.013 229.401,88.881 229.418,89.491 C229.435,90.101 230.319,135.787 160.778,164.183 C154.492,167.231 149.148,221.284 97.719,222.674 C77.933,223.208 65.599,214.405 57.768,205.602 C50.142,197.031 46.787,188.459 44.981,188.508 C41.32,188.606 37.696,203.01 13.376,203.667 C-0.396,204.039 0.16,195.562 0.122,194.167 C-0.532,169.935 33.505,96.265 33.046,79.267 C32.735,67.761 27.094,1.007 50.978,0.362" id="Fill-3" fill="#78C800" sketch:type="MSShapeGroup"/><path d="M221.546,115.763 C200.685,143.489 170.064,148.957 166.301,149.059 C164.315,149.113 163.824,147.951 163.546,146.79 C163.271,145.64 163.206,144.491 162.108,144.52 C158.272,144.623 158.485,195.561 106.416,196.967 C55.046,198.355 60.955,154.463 60.886,151.906 C60.817,149.349 60.453,148.778 59.755,148.796 C59.058,148.815 57.447,149.44 57.534,152.694 C58.338,182.448 26.159,201.112 12.91,201.469 C6.994,201.629 3.313,200.244 1.046,198.663 C2.36,201.24 5.561,203.878 13.376,203.667 C37.696,203.01 41.32,188.606 44.981,188.508 C46.787,188.459 50.142,197.031 57.768,205.602 C65.599,214.405 77.933,223.208 97.719,222.674 C149.148,221.284 154.492,167.231 160.778,164.183 C196.055,149.778 213.208,130.924 221.546,115.763" id="Fill-4" fill="#71B200" sketch:type="MSShapeGroup"/><path d="M72.42,215.944 C80.486,216.469 86.037,218.856 85.566,226.097 C85.094,233.338 75.105,234.068 69.881,233.728 C64.656,233.388 59.055,230.353 59.395,225.129 C59.735,219.904 65.133,215.469 72.42,215.944" id="Fill-5" fill="#D98500" sketch:type="MSShapeGroup"/><path d="M156.513,38.016 C152.407,38.126 151.471,40.272 149.978,38.987 C149.298,38.343 152.767,36.725 152.749,36.063 C152.74,35.732 152.212,35.812 151.483,35.832 C147.179,35.948 138.872,42.468 137.68,42.5 C137.15,42.515 136.293,42.67 136.272,41.876 C136.223,40.088 142.208,38.402 138.036,38.514 C133.864,38.627 127.85,44.157 121.427,44.331 C115.44,44.493 109.924,42.517 105.683,40.54 C100.54,38.143 97.271,35.747 97.309,37.162 C97.334,38.089 98.896,39.505 99.94,41.333 C99.94,41.333 100.611,44.098 99.456,43.069 C86.976,31.245 74.745,28.626 74.745,28.626 C74.745,28.626 73.818,28.651 73.828,29.049 C73.866,30.439 76.565,32.222 76.579,32.752 C76.594,33.281 76.271,33.622 75.742,33.636 C74.477,33.67 73.355,32.509 71.318,31.347 C69.196,30.137 66.08,28.927 60.773,29.07 C45.079,29.494 41.422,54.312 41.969,74.576 C42.746,103.317 61.487,111.95 76.785,111.537 C88.918,111.209 101.713,103.706 106.866,93.057 L123.045,93.852 C123.045,93.852 131.365,108.639 145.603,108.255 C158.964,107.894 170.357,99.125 169.565,69.805 C168.734,39.011 160.618,37.905 156.513,38.016" id="Fill-6" fill="#8EE000" sketch:type="MSShapeGroup"/><path d="M94.801,74.355 C95.176,88.227 86.23,99.723 74.82,100.031 C63.411,100.339 53.857,89.343 53.483,75.471 C53.108,61.598 62.054,50.102 73.464,49.794 C84.873,49.486 94.427,60.482 94.801,74.355" id="Fill-7" fill="#FFFFFF" sketch:type="MSShapeGroup"/><path d="M161.061,76.272 C160.742,88.29 152.884,97.981 143.51,97.919 C134.136,97.856 126.796,88.064 127.115,76.047 C127.433,64.029 135.291,54.338 144.665,54.4 C154.039,54.463 161.38,64.255 161.061,76.272" id="Fill-8" fill="#FFFFFF" sketch:type="MSShapeGroup"/><path d="M85.066,74.618 C85.271,82.238 80.357,88.553 74.09,88.722 C67.822,88.892 62.574,82.851 62.368,75.231 C62.162,67.61 67.076,61.295 73.344,61.126 C79.612,60.957 84.86,66.997 85.066,74.618" id="Fill-9" fill="#3F3F3F" sketch:type="MSShapeGroup"/><path d="M71.44,66.226 C71.526,69.398 69.216,72.033 66.28,72.113 C63.344,72.192 60.895,69.685 60.809,66.513 C60.724,63.341 63.034,60.706 65.969,60.626 C68.905,60.547 71.354,63.054 71.44,66.226" id="Fill-10" fill="#FFFFFF" sketch:type="MSShapeGroup"/><path d="M153.408,76.476 C153.088,83.544 148.523,89.185 143.21,89.074 C137.897,88.963 133.85,83.144 134.169,76.075 C134.489,69.007 139.054,63.366 144.367,63.477 C149.68,63.588 153.727,69.407 153.408,76.476" id="Fill-11" fill="#3F3F3F" sketch:type="MSShapeGroup"/><path d="M101.491,102.07 C101.491,102.07 98.389,129.639 107.401,129.387 C116.413,129.135 115.938,115.938 115.881,115.78 C115.823,115.623 101.491,102.07 101.491,102.07" id="Fill-12" fill="#71B200" sketch:type="MSShapeGroup"/><path d="M142.108,68.561 C142.277,71.434 140.336,73.884 137.773,74.033 C135.211,74.181 132.996,71.971 132.828,69.097 C132.659,66.223 134.6,63.773 137.162,63.625 C139.725,63.477 141.939,65.687 142.108,68.561" id="Fill-13" fill="#FFFFFF" sketch:type="MSShapeGroup"/><path d="M101.254,100.316 C101.254,100.316 99.848,120.676 109.735,120.409 C119.623,120.142 124.318,111.898 124.121,104.616 C123.924,97.334 101.254,100.316 101.254,100.316" id="Fill-14" fill="#F49000" sketch:type="MSShapeGroup"/><path d="M115.789,87.896 C122.983,87.702 128.625,95.903 128.848,104.162 C129.071,112.421 122.55,121.04 120.33,121.1 C118.11,121.16 101.359,106.415 101.184,99.932 C101.009,93.45 107.086,88.131 115.789,87.896" id="Fill-15" fill="#FFC200" sketch:type="MSShapeGroup"/><path d="M120.448,92.878 C120.407,94.317 118.236,95.423 115.597,95.348 C112.959,95.274 110.853,94.047 110.894,92.608 C110.934,91.169 113.106,90.064 115.744,90.138 C118.383,90.213 120.489,91.44 120.448,92.878" id="Fill-16" fill="#FFF3B8" sketch:type="MSShapeGroup"/><path d="M199.963,230.415 C199.999,235.705 155.74,240.297 101.108,240.673 C46.475,241.048 2.157,237.063 2.121,231.773 C2.085,226.483 46.344,221.89 100.976,221.515 C155.609,221.14 199.927,225.125 199.963,230.415" id="Fill-17" fill="#D6D6D6" sketch:type="MSShapeGroup"/><path d="M127.77,211.821 C135.118,212.169 134.478,220.116 134.449,220.729 C134.42,221.341 134.405,229.055 121.547,228.445 C113.412,228.06 114.022,224.45 114.107,222.657 C114.192,220.864 118.455,211.379 127.77,211.821" id="Fill-18" fill="#D98500" sketch:type="MSShapeGroup"/><path d="M50.978,0.362 C59.878,0.122 68.425,7.414 79.379,14.706 C90.524,22.125 104.16,29.544 123.195,29.03 C150.565,28.291 153.284,15.918 166.272,15.567 C174.902,15.334 175.703,32.061 175.771,34.588 C176.185,49.93 172.712,73.14 172.971,82.729 C173.188,90.748 181.978,89.987 182.762,89.966 C207.082,89.309 218.435,83.333 224.362,83.173 C230.29,83.013 229.401,88.881 229.418,89.491 C229.435,90.101 230.319,135.787 160.778,164.183 C154.492,167.231 149.148,221.284 97.719,222.674 C77.933,223.208 65.599,214.405 57.768,205.602 C50.142,197.031 46.787,188.459 44.981,188.508 C41.32,188.606 37.696,203.01 13.376,203.667 C-0.396,204.039 0.16,195.562 0.122,194.167 C-0.532,169.935 33.505,96.265 33.046,79.267 C32.735,67.761 27.094,1.007 50.978,0.362" id="Fill-19" fill="#78C800" sketch:type="MSShapeGroup"/><path d="M221.546,115.763 C200.685,143.489 170.064,148.957 166.301,149.059 C164.315,149.113 163.824,147.951 163.546,146.79 C163.271,145.64 163.206,144.491 162.108,144.52 C158.272,144.623 158.485,195.561 106.416,196.967 C55.046,198.355 60.955,154.463 60.886,151.906 C60.817,149.349 60.453,148.778 59.755,148.796 C59.058,148.815 57.447,149.44 57.534,152.694 C58.338,182.448 26.159,201.112 12.91,201.469 C6.994,201.629 3.313,200.244 1.046,198.663 C2.36,201.24 5.561,203.878 13.376,203.667 C37.696,203.01 41.32,188.606 44.981,188.508 C46.787,188.459 50.142,197.031 57.768,205.602 C65.599,214.405 77.933,223.208 97.719,222.674 C149.148,221.284 154.492,167.231 160.778,164.183 C196.055,149.778 213.208,130.924 221.546,115.763" id="Fill-20" fill="#71B200" sketch:type="MSShapeGroup"/><path d="M72.42,215.944 C80.486,216.469 86.037,218.856 85.566,226.097 C85.094,233.338 75.105,234.068 69.881,233.728 C64.656,233.388 59.055,230.353 59.395,225.129 C59.735,219.904 65.133,215.469 72.42,215.944" id="Fill-21" fill="#D98500" sketch:type="MSShapeGroup"/><path d="M156.513,38.016 C152.407,38.126 151.471,40.272 149.978,38.987 C149.298,38.343 152.767,36.725 152.749,36.063 C152.74,35.732 152.212,35.812 151.483,35.832 C147.179,35.948 138.872,42.468 137.68,42.5 C137.15,42.515 136.293,42.67 136.272,41.876 C136.223,40.088 142.208,38.402 138.036,38.514 C133.864,38.627 127.85,44.157 121.427,44.331 C115.44,44.493 109.924,42.517 105.683,40.54 C100.54,38.143 97.271,35.747 97.309,37.162 C97.334,38.089 98.896,39.505 99.94,41.333 C99.94,41.333 100.611,44.098 99.456,43.069 C86.976,31.245 74.745,28.626 74.745,28.626 C74.745,28.626 73.818,28.651 73.828,29.049 C73.866,30.439 76.565,32.222 76.579,32.752 C76.594,33.281 76.271,33.622 75.742,33.636 C74.477,33.67 73.355,32.509 71.318,31.347 C69.196,30.137 66.08,28.927 60.773,29.07 C45.079,29.494 41.422,54.312 41.969,74.576 C42.746,103.317 61.487,111.95 76.785,111.537 C88.918,111.209 101.713,103.706 106.866,93.057 L123.045,93.852 C123.045,93.852 131.365,108.639 145.603,108.255 C158.964,107.894 170.357,99.125 169.565,69.805 C168.734,39.011 160.618,37.905 156.513,38.016" id="Fill-22" fill="#8EE000" sketch:type="MSShapeGroup"/><path d="M161.061,76.272 C160.742,88.29 152.884,97.981 143.51,97.919 C134.136,97.856 126.796,88.064 127.115,76.047 C127.433,64.029 135.291,54.338 144.665,54.4 C154.039,54.463 161.38,64.255 161.061,76.272" id="Fill-23" fill="#FFFFFF" sketch:type="MSShapeGroup"/><path d="M85.066,74.618 C85.271,82.238 80.357,88.553 74.09,88.722 C67.822,88.892 62.574,82.851 62.368,75.231 C62.162,67.61 67.076,61.295 73.344,61.126 C79.612,60.957 84.86,66.997 85.066,74.618" id="Fill-24" fill="#3F3F3F" sketch:type="MSShapeGroup"/><path d="M71.44,66.226 C71.526,69.398 69.216,72.033 66.28,72.113 C63.344,72.192 60.895,69.685 60.809,66.513 C60.724,63.341 63.034,60.706 65.969,60.626 C68.905,60.547 71.354,63.054 71.44,66.226" id="Fill-25" fill="#FFFFFF" sketch:type="MSShapeGroup"/><path d="M33.711,28.67 C33.614,28.713 33.518,28.757 33.424,28.802 C32.001,39.111 32.023,48.925 32.028,52.11 C32.102,52.086 32.178,52.062 32.255,52.037 C32.306,44.435 32.675,36.241 33.711,28.67" id="Fill-26" fill="#CCCCCC" sketch:type="MSShapeGroup"/><path d="M57.995,26.026 C45.338,26.026 37.983,26.775 33.711,28.67 C32.675,36.241 32.306,44.435 32.255,52.037 C34.309,51.384 37.767,50.293 43.961,49.329 C46.45,38.05 51.519,29.32 60.773,29.07 C61.062,29.062 61.344,29.058 61.62,29.058 C66.415,29.058 69.311,30.203 71.318,31.347 C73.326,32.492 74.444,33.637 75.687,33.637 C75.705,33.637 75.723,33.636 75.742,33.636 C76.271,33.622 76.594,33.281 76.579,32.752 C76.565,32.222 73.866,30.439 73.828,29.049 C73.818,28.651 74.745,28.626 74.745,28.626 C74.745,28.626 86.976,31.245 99.456,43.069 C99.638,43.23 99.774,43.298 99.875,43.298 C100.417,43.298 99.94,41.333 99.94,41.333 C98.896,39.505 97.334,38.089 97.309,37.162 C97.301,36.869 97.435,36.74 97.698,36.74 C98.705,36.74 101.605,38.64 105.683,40.54 C109.761,42.44 115.016,44.341 120.736,44.341 C120.965,44.341 121.196,44.337 121.427,44.331 C127.85,44.157 133.864,38.627 138.036,38.514 C138.169,38.511 138.291,38.509 138.404,38.509 C141.833,38.509 136.225,40.145 136.272,41.876 C136.287,42.43 136.708,42.522 137.142,42.522 C137.33,42.522 137.52,42.505 137.68,42.5 C138.872,42.468 147.179,35.948 151.483,35.832 C151.753,35.825 151.995,35.809 152.194,35.809 C152.532,35.809 152.743,35.854 152.749,36.063 C152.767,36.725 149.298,38.343 149.978,38.987 C150.32,39.282 150.633,39.396 150.961,39.396 C152.066,39.396 153.348,38.101 156.513,38.016 C156.648,38.012 156.787,38.01 156.931,38.01 C160.187,38.01 165.476,39.214 168.082,53.504 C170.987,54.527 172.788,56.08 172.736,58.457 C172.713,59.46 172.738,61.5 172.647,64.164 C172.937,64.286 173.185,64.388 173.391,64.469 C174.127,57.506 174.855,49.807 175.163,42.123 C168.598,36.649 152.226,32.292 128.4,29.498 C127.055,29.56 125.645,29.594 124.157,29.594 C116.816,29.594 110.541,28.779 105.069,27.423 C90.977,26.511 75.188,26.026 57.995,26.026" id="Fill-27" fill="#60A000" sketch:type="MSShapeGroup"/><path d="M138.342,51.822 C136.752,51.975 135.241,52.187 133.857,52.477 C135.241,52.188 136.753,51.975 138.342,51.822 M74.745,28.626 C74.745,28.626 73.818,28.651 73.828,29.049 C73.866,30.439 76.565,32.222 76.579,32.752 C76.594,33.281 76.271,33.622 75.742,33.636 C75.723,33.636 75.705,33.637 75.687,33.637 C74.444,33.637 73.326,32.492 71.318,31.347 C69.311,30.203 66.415,29.058 61.62,29.058 C61.344,29.058 61.062,29.062 60.773,29.07 C51.519,29.32 46.45,38.05 43.961,49.329 C50.781,48.268 60.917,47.36 76.149,47.36 C99.173,47.36 117.857,49.471 132.498,52.218 C136.059,51.597 140.325,51.417 144.506,51.417 C145.874,51.417 147.235,51.437 148.557,51.466 C148.971,51.475 149.386,51.485 149.799,51.497 C150.198,51.504 150.594,51.511 150.988,51.52 C157.48,51.665 163.916,52.038 168.082,53.504 C165.476,39.214 160.187,38.01 156.931,38.01 C156.787,38.01 156.648,38.012 156.513,38.016 C153.348,38.101 152.066,39.396 150.961,39.396 C150.633,39.396 150.32,39.282 149.978,38.987 C149.298,38.343 152.767,36.725 152.749,36.063 C152.743,35.854 152.532,35.809 152.194,35.809 C151.995,35.809 151.753,35.825 151.483,35.832 C147.179,35.948 138.872,42.468 137.68,42.5 C137.52,42.505 137.33,42.522 137.142,42.522 C136.708,42.522 136.287,42.43 136.272,41.876 C136.225,40.145 141.833,38.509 138.404,38.509 C138.291,38.509 138.169,38.511 138.036,38.514 C133.864,38.627 127.85,44.157 121.427,44.331 C121.196,44.337 120.965,44.341 120.736,44.341 C115.016,44.341 109.761,42.44 105.683,40.54 C101.605,38.64 98.705,36.74 97.698,36.74 C97.435,36.74 97.301,36.869 97.309,37.162 C97.334,38.089 98.896,39.505 99.94,41.333 C99.94,41.333 100.417,43.298 99.875,43.298 C99.774,43.298 99.638,43.23 99.456,43.069 C86.976,31.245 74.745,28.626 74.745,28.626" id="Fill-28" fill="#72B300" sketch:type="MSShapeGroup"/><path d="M180.565,44.673 C180.565,48.896 178.536,57.891 178.536,59.591 C178.536,61.291 177.164,61.62 176.287,61.62 C174.669,61.62 144.312,44.289 78.334,44.289 C41.642,44.289 34.513,49.554 32.099,49.554 C29.686,49.554 30.015,44.673 30.015,39.298 C30.015,26.83 31.368,22.955 60.18,22.955 C132.905,22.955 180.565,31.62 180.565,44.673" id="Fill-29" fill="#FFB103" sketch:type="MSShapeGroup"/><path d="M180.386,47.391 C159.885,36.234 121.718,29.097 90.564,29.097 C55.864,29.097 37.54,32.555 30.179,34.421 C30.044,35.877 30.015,37.498 30.015,39.298 C30.015,40.124 30.008,40.937 30.003,41.723 C37.084,39.569 56.959,36.117 90.564,36.117 C110.865,36.117 133.392,39.091 152.368,44.275 C163.656,47.359 172.947,51.045 179.248,54.831 C179.655,52.489 180.133,49.716 180.386,47.391" id="Fill-30" fill="#FFFFFF" sketch:type="MSShapeGroup"/><path d="M153.408,76.476 C153.088,83.544 148.523,89.185 143.21,89.074 C137.897,88.963 133.85,83.144 134.169,76.075 C134.489,69.007 139.054,63.366 144.367,63.477 C149.68,63.588 153.727,69.407 153.408,76.476" id="Fill-31" fill="#3F3F3F" sketch:type="MSShapeGroup"/><path d="M101.491,102.07 C101.491,102.07 98.389,129.639 107.401,129.387 C116.413,129.135 115.938,115.938 115.881,115.78 C115.823,115.623 101.491,102.07 101.491,102.07" id="Fill-32" fill="#71B200" sketch:type="MSShapeGroup"/><path d="M142.108,68.561 C142.277,71.434 140.336,73.884 137.773,74.033 C135.211,74.181 132.996,71.971 132.828,69.097 C132.659,66.223 134.6,63.773 137.162,63.625 C139.725,63.477 141.939,65.687 142.108,68.561" id="Fill-33" fill="#FFFFFF" sketch:type="MSShapeGroup"/><path d="M101.254,100.316 C101.254,100.316 99.848,120.676 109.735,120.409 C119.623,120.142 124.318,111.898 124.121,104.616 C123.924,97.334 101.254,100.316 101.254,100.316" id="Fill-34" fill="#F49000" sketch:type="MSShapeGroup"/><path d="M115.789,87.896 C122.983,87.702 128.625,95.903 128.848,104.162 C129.071,112.421 122.55,121.04 120.33,121.1 C118.11,121.16 101.359,106.415 101.184,99.932 C101.009,93.45 107.086,88.131 115.789,87.896" id="Fill-35" fill="#FFC200" sketch:type="MSShapeGroup"/><path d="M120.448,92.878 C120.407,94.317 118.236,95.423 115.597,95.348 C112.959,95.274 110.853,94.047 110.894,92.608 C110.934,91.169 113.106,90.064 115.744,90.138 C118.383,90.213 120.489,91.44 120.448,92.878" id="Fill-36" fill="#FFF3B8" sketch:type="MSShapeGroup"/><path d="M49.635,187.445 L53.042,176.915 C53.042,176.915 49.326,164.011 49.016,163.701 C48.706,163.391 14.328,151.106 13.502,150.796 C13.292,150.717 12.183,150.619 10.647,150.523 C8.426,157.087 6.372,163.47 4.678,169.376 C8.156,169.115 20.5,169.156 35.594,180.412 C36.695,181.491 41.633,186.914 35.44,192.091 C28.523,197.872 36.576,194.62 36.576,194.62 L41.376,190.336 L43.431,187.107 C43.845,187.501 44.249,187.883 44.636,188.248 C44.751,188.218 44.866,188.201 44.981,188.198 C45.615,188.181 46.44,189.227 47.574,190.962 C61.976,203.959 49.635,187.445 49.635,187.445" id="Fill-37" fill="#71B200" sketch:type="MSShapeGroup"/><path d="M149.129,54.153 C148.738,54.144 148.343,54.136 147.946,54.13 C147.531,54.118 147.115,54.108 146.699,54.098 C135.679,53.854 122.122,54.311 121.978,60.761 C121.582,78.594 120.907,102.21 145.272,102.752 C145.649,102.761 146.019,102.76 146.384,102.751 C146.816,102.776 147.254,102.796 147.702,102.807 C172.067,103.348 170.755,66.592 170.877,61.09 C171.006,55.303 160.149,54.398 149.129,54.153 M131.992,55.112 L132.214,55.066 L131.992,55.112 M132.425,55.024 L132.65,54.981 L132.425,55.024 M132.868,54.941 L133.094,54.901 L132.868,54.941 M133.319,54.863 L133.544,54.826 L133.319,54.863 M133.774,54.79 L134.002,54.755 L133.774,54.79 M134.239,54.721 L134.465,54.689 L134.239,54.721 M134.708,54.656 L134.936,54.626 L134.708,54.656 M135.185,54.596 L135.41,54.569 L135.185,54.596 M135.668,54.539 L135.893,54.515 L135.668,54.539 M136.151,54.488 L136.381,54.465 L136.151,54.488 M136.643,54.439 L136.87,54.419 L136.643,54.439 M137.139,54.395 L137.366,54.376 L137.139,54.395 M137.643,54.354 L137.86,54.338 L137.643,54.354 M138.147,54.317 L138.365,54.302 L138.147,54.317 M138.654,54.283 L138.872,54.27 L138.654,54.283 M139.164,54.253 L139.379,54.241 L139.164,54.253 M139.683,54.226 L139.878,54.216 L139.683,54.226 M140.202,54.201 L140.381,54.194 L140.202,54.201 M140.723,54.18 L140.89,54.174 L140.723,54.18 M141.24,54.162 L141.398,54.157 L141.24,54.162 M141.768,54.146 L141.87,54.144 L141.768,54.146 M142.29,54.133 L142.35,54.132 L142.29,54.133 M131.785,55.155 L131.566,55.205 L131.785,55.155 M131.366,55.25 L131.123,55.309 L131.366,55.25 M130.956,55.349 C130.821,55.383 130.688,55.418 130.556,55.454 C130.688,55.418 130.821,55.383 130.956,55.349 M130.486,55.473 C130.378,55.503 130.27,55.533 130.164,55.564 C130.27,55.533 130.378,55.503 130.486,55.473 M130.018,55.608 L129.782,55.68 L130.018,55.608 M129.624,55.731 L129.409,55.801 L129.624,55.731 M129.249,55.857 L129.047,55.928 L129.249,55.857 M128.89,55.987 L128.696,56.061 L128.89,55.987 M128.543,56.123 L128.356,56.2 L128.543,56.123 M128.206,56.265 L128.028,56.344 L128.206,56.265 M127.88,56.414 L127.711,56.495 L127.88,56.414 M127.568,56.568 L127.407,56.652 L127.568,56.568 M127.269,56.728 L127.115,56.815 L127.269,56.728 M126.983,56.894 L126.836,56.985 L126.983,56.894 M126.71,57.067 L126.57,57.162 L126.71,57.067 M126.451,57.247 L126.319,57.345 L126.451,57.247 M126.205,57.434 L126.08,57.535 L126.205,57.434 M125.973,57.627 L125.857,57.732 L125.973,57.627 M125.756,57.827 L125.648,57.936 L125.756,57.827 M124.425,60.523 C124.416,60.619 124.411,60.716 124.408,60.815 C124.396,61.37 124.384,61.931 124.372,62.496 C124.384,61.931 124.396,61.37 124.408,60.815 C124.411,60.716 124.416,60.619 124.425,60.523 M125.554,58.034 L125.454,58.147 L125.554,58.034 M125.367,58.249 L125.275,58.366 L125.367,58.249 M125.196,58.471 L125.111,58.593 L125.196,58.471 M125.04,58.7 L124.964,58.827 L125.04,58.7 M124.901,58.937 L124.834,59.069 L124.901,58.937 M124.778,59.181 L124.719,59.32 L124.778,59.181 M124.673,59.433 L124.622,59.579 L124.673,59.433 M124.584,59.693 L124.543,59.847 L124.584,59.693 M124.513,59.962 L124.481,60.128 L124.513,59.962 M124.46,60.238 L124.436,60.426 L124.46,60.238 M130.07,94.767 L130.064,94.76 L130.07,94.767 M129.642,94.16 L129.623,94.133 L129.642,94.16 M129.233,93.532 L129.206,93.49 L129.233,93.532 M128.844,92.887 L128.809,92.829 L128.844,92.887 M128.473,92.223 L128.435,92.152 L128.473,92.223 M128.122,91.544 L128.08,91.459 L128.122,91.544 M127.791,90.848 L127.746,90.751 L127.791,90.848 M127.477,90.137 L127.431,90.028 L127.477,90.137 M127.183,89.411 L127.136,89.292 L127.183,89.411 M126.906,88.672 L126.859,88.541 L126.906,88.672 M126.646,87.92 L126.6,87.78 L126.646,87.92 M126.403,87.154 L126.358,87.005 L126.403,87.154 M126.177,86.377 L126.133,86.219 L126.177,86.377 M125.967,85.59 L125.924,85.423 L125.967,85.59 M125.771,84.791 L125.731,84.616 L125.771,84.791 M125.591,83.983 L125.553,83.8 L125.591,83.983 M125.426,83.166 L125.39,82.976 L125.426,83.166 M125.274,82.339 L125.24,82.144 L125.274,82.339 M125.135,81.505 L125.104,81.304 L125.135,81.505 M125.01,80.665 L124.981,80.455 L125.01,80.665 M124.896,79.816 L124.87,79.603 L124.896,79.816 M124.795,78.964 L124.771,78.742 L124.795,78.964 M124.705,78.104 L124.683,77.879 L124.705,78.104 M124.625,77.241 L124.606,77.011 L124.625,77.241 M124.556,76.374 L124.539,76.137 L124.556,76.374 M124.496,75.503 L124.481,75.263 L124.496,75.503 M124.445,74.631 L124.433,74.383 L124.445,74.631 M124.296,68.22 C124.296,68.312 124.295,68.403 124.295,68.495 C124.295,68.403 124.296,68.312 124.296,68.22 M124.367,62.703 C124.363,62.91 124.359,63.117 124.354,63.325 C124.359,63.117 124.363,62.91 124.367,62.703 M124.343,63.898 C124.341,63.988 124.34,64.078 124.338,64.168 C124.34,64.078 124.341,63.989 124.343,63.898 M124.328,64.741 C124.327,64.837 124.325,64.933 124.324,65.028 C124.325,64.933 124.327,64.837 124.328,64.741 M124.316,65.582 C124.314,65.685 124.313,65.788 124.312,65.891 C124.313,65.788 124.314,65.685 124.316,65.582 M124.306,66.447 C124.305,66.55 124.303,66.653 124.302,66.757 C124.303,66.653 124.305,66.55 124.306,66.447 M124.299,67.336 C124.298,67.432 124.297,67.527 124.297,67.623 C124.297,67.527 124.298,67.432 124.299,67.336 M124.403,73.754 L124.392,73.505 L124.403,73.754 M124.368,72.88 L124.36,72.619 L124.368,72.88 M124.341,71.999 L124.335,71.747 L124.341,71.999 M124.321,71.121 L124.316,70.864 L124.321,71.121 M124.307,70.243 L124.304,69.988 L124.307,70.243 M124.298,69.366 L124.297,69.107 L124.298,69.366" id="Fill-38" fill="#71B200" sketch:type="MSShapeGroup"/><path d="M100.742,60.671 C100.742,54.373 88.274,53.65 75.635,53.65 C75.187,53.65 74.734,53.652 74.278,53.654 C73.802,53.652 73.325,53.65 72.848,53.65 C60.209,53.65 44.68,54.476 44.68,61.496 C44.68,80.905 44.509,106.611 72.453,106.611 C72.885,106.611 73.309,106.601 73.727,106.582 C74.223,106.6 74.725,106.611 75.24,106.611 C103.184,106.611 100.742,66.658 100.742,60.671 M48.936,58.213 L48.814,58.334 L48.936,58.213 M67.841,53.793 L67.797,53.795 L67.841,53.793 M67.32,53.816 L67.195,53.822 L67.32,53.816 M66.76,53.843 L66.596,53.851 L66.76,53.843 M66.188,53.873 L65.998,53.884 L66.188,53.873 M65.612,53.907 L65.402,53.919 L65.612,53.907 M65.034,53.943 L64.808,53.958 L65.034,53.943 M64.454,53.983 L64.218,54 L64.454,53.983 M63.875,54.027 L63.633,54.046 L63.875,54.027 M63.298,54.074 L63.05,54.095 L63.298,54.074 M62.724,54.124 L62.474,54.147 L62.724,54.124 M62.153,54.178 L61.9,54.204 L62.153,54.178 M61.587,54.236 L61.332,54.264 L61.587,54.236 M61.027,54.298 L60.768,54.329 L61.027,54.298 M60.471,54.365 L60.211,54.397 L60.471,54.365 M59.921,54.435 L59.661,54.47 L59.921,54.435 M59.377,54.509 L59.119,54.546 L59.377,54.509 M58.837,54.589 L58.582,54.628 L58.837,54.589 M58.31,54.672 L58.052,54.715 L58.31,54.672 M57.785,54.76 L57.533,54.805 L57.785,54.76 M57.271,54.853 L57.019,54.901 L57.271,54.853 M56.765,54.95 L56.514,55.002 L56.765,54.95 M56.267,55.053 L56.013,55.109 L56.267,55.053 M55.78,55.161 L55.517,55.223 L55.78,55.161 M55.302,55.274 C55.208,55.296 55.117,55.32 55.025,55.344 C55.117,55.32 55.208,55.296 55.302,55.274 M54.833,55.392 C54.681,55.432 54.53,55.473 54.382,55.514 C54.53,55.473 54.681,55.432 54.833,55.392 M54.274,55.545 C54.159,55.578 54.044,55.611 53.931,55.645 C54.044,55.611 54.159,55.578 54.274,55.545 M53.768,55.695 C53.676,55.723 53.585,55.751 53.495,55.78 C53.585,55.751 53.676,55.723 53.768,55.695 M53.32,55.838 L53.071,55.921 L53.32,55.838 M52.891,55.985 L52.66,56.067 L52.891,55.985 M52.479,56.136 L52.261,56.22 L52.479,56.136 M52.084,56.293 L51.875,56.38 L52.084,56.293 M51.703,56.455 L51.502,56.545 L51.703,56.455 M51.334,56.624 L51.143,56.717 L51.334,56.624 M50.982,56.799 L50.798,56.895 L50.982,56.799 M50.643,56.98 L50.468,57.079 L50.643,56.98 M50.318,57.169 L50.152,57.271 L50.318,57.169 M50.01,57.363 L49.852,57.47 L50.01,57.363 M49.717,57.565 L49.568,57.675 L49.717,57.565 M49.44,57.774 L49.3,57.887 L49.44,57.774 M49.179,57.99 L49.049,58.107 L49.179,57.99 M47.467,61.496 C47.467,61.389 47.471,61.282 47.478,61.177 C47.471,61.282 47.467,61.389 47.467,61.496 L47.467,62.394 L47.467,61.496 M48.709,58.443 L48.597,58.569 L48.709,58.443 M48.501,58.681 L48.397,58.811 L48.501,58.681 M48.31,58.927 L48.216,59.061 L48.31,58.927 M48.137,59.18 L48.054,59.32 L48.137,59.18 M47.984,59.441 L47.91,59.586 L47.984,59.441 M47.849,59.71 L47.785,59.862 L47.849,59.71 M47.734,59.987 L47.68,60.146 L47.734,59.987 M47.639,60.272 L47.596,60.44 L47.639,60.272 M47.565,60.565 L47.532,60.747 L47.565,60.565 M47.511,60.867 L47.489,61.075 L47.511,60.867 M47.467,62.924 C47.468,63.05 47.468,63.177 47.468,63.304 C47.467,63.177 47.468,63.05 47.467,62.924 M47.468,63.756 C47.468,63.915 47.468,64.073 47.469,64.233 C47.468,64.073 47.468,63.915 47.468,63.756 M47.47,64.695 C47.471,64.849 47.471,65.002 47.472,65.156 C47.471,65.002 47.471,64.849 47.47,64.695 M47.475,65.73 C47.476,65.847 47.476,65.964 47.477,66.081 C47.476,65.964 47.476,65.847 47.475,65.73 M47.483,66.723 C47.484,66.82 47.484,66.917 47.485,67.015 C47.484,66.917 47.484,66.82 47.483,66.723 M47.493,67.665 C47.494,67.763 47.496,67.86 47.497,67.957 C47.496,67.86 47.494,67.763 47.493,67.665 M47.507,68.596 C47.509,68.699 47.511,68.802 47.513,68.906 C47.511,68.802 47.509,68.699 47.507,68.596 M47.526,69.551 C47.529,69.651 47.531,69.752 47.533,69.853 C47.531,69.752 47.529,69.651 47.526,69.551 M47.551,70.516 C47.554,70.612 47.556,70.707 47.559,70.802 C47.556,70.707 47.554,70.612 47.551,70.516 M47.581,71.47 C47.584,71.565 47.587,71.661 47.591,71.756 C47.587,71.661 47.584,71.565 47.581,71.47 M47.618,72.427 C47.622,72.522 47.625,72.615 47.629,72.71 C47.625,72.615 47.622,72.522 47.618,72.427 M47.661,73.386 C47.666,73.479 47.67,73.571 47.675,73.664 C47.67,73.571 47.666,73.479 47.661,73.386 M47.713,74.346 C47.718,74.436 47.723,74.527 47.728,74.617 C47.723,74.527 47.718,74.436 47.713,74.346 M47.772,75.304 L47.79,75.57 L47.772,75.304 M47.841,76.262 L47.861,76.521 L47.841,76.262 M47.919,77.215 L47.942,77.47 L47.919,77.215 M48.007,78.164 L48.032,78.417 L48.007,78.164 M48.106,79.109 L48.134,79.359 L48.106,79.109 M48.217,80.052 L48.247,80.296 L48.217,80.052 M48.34,80.989 L48.373,81.229 L48.34,80.989 M48.475,81.921 L48.511,82.155 L48.475,81.921 M48.624,82.848 L48.662,83.073 L48.624,82.848 M48.787,83.768 L48.828,83.985 L48.787,83.768 M48.964,84.677 L49.008,84.889 L48.964,84.677 M49.157,85.58 L49.203,85.783 L49.157,85.58 M49.365,86.473 L49.414,86.669 L49.365,86.473 M49.59,87.356 L49.64,87.544 L49.59,87.356 M49.832,88.229 L49.884,88.407 L49.832,88.229 M50.092,89.089 L50.146,89.261 L50.092,89.089 M50.37,89.939 L50.425,90.099 L50.37,89.939 M50.667,90.776 L50.723,90.925 L50.667,90.776 M50.983,91.598 L51.04,91.739 L50.983,91.598 M51.32,92.407 L51.377,92.537 L51.32,92.407 M51.677,93.201 L51.734,93.32 L51.677,93.201 M52.056,93.979 L52.111,94.085 L52.056,93.979 M52.457,94.741 L52.509,94.835 L52.457,94.741 M52.881,95.487 L52.928,95.565 L52.881,95.487 M53.328,96.214 L53.369,96.278 L53.328,96.214 M53.799,96.923 L53.832,96.97 L53.799,96.923 M54.295,97.614 L54.316,97.642 L54.295,97.614 M54.816,98.284 L54.823,98.293 L54.816,98.284" id="Fill-39" fill="#71B200" sketch:type="MSShapeGroup"/><path d="M171.765,57.986 L175.481,60.257 L175.481,69.962 L170.835,73.059 L171.765,57.986" id="Fill-40" fill="#000000" sketch:type="MSShapeGroup"/><path d="M150.988,51.52 C162.008,51.765 172.864,52.671 172.736,58.457 C172.613,63.959 173.925,100.716 149.561,100.174 C125.196,99.632 125.87,76.016 126.267,58.183 C126.41,51.733 139.968,51.275 150.988,51.52" id="Fill-41" fill="#303030" sketch:type="MSShapeGroup"/><path d="M126.267,58.183 C126.405,51.961 139.021,51.315 149.805,51.497 C149.39,51.486 148.973,51.475 148.557,51.466 C137.537,51.221 123.98,51.679 123.836,58.129 C123.44,75.962 122.766,99.578 147.13,100.12 C147.507,100.128 147.877,100.127 148.242,100.118 C125.223,98.761 125.878,75.687 126.267,58.183" id="Fill-42" fill="#000000" sketch:type="MSShapeGroup"/><path d="M151.603,57.041 C159.743,57.223 167.762,57.892 167.667,62.166 C167.576,66.229 168.546,93.38 150.549,92.98 C132.552,92.58 133.05,75.135 133.342,61.963 C133.448,57.198 143.463,56.86 151.603,57.041" id="Fill-43" fill="#3D3D3D" sketch:type="MSShapeGroup"/><path d="M152.081,57.053 C152.194,57.055 152.308,57.058 152.421,57.061 C152.308,57.058 152.194,57.055 152.081,57.053 M152.039,57.052 C152.052,57.052 152.066,57.052 152.079,57.053 C152.066,57.052 152.052,57.052 152.039,57.052 M151.748,57.045 C151.841,57.047 151.936,57.049 152.029,57.051 C151.936,57.049 151.841,57.047 151.748,57.045 M151.706,57.044 L151.741,57.044 L151.706,57.044 M151.657,57.043 L151.676,57.043 L151.657,57.043 M151.298,57.035 C151.4,57.037 151.501,57.039 151.603,57.041 C151.501,57.039 151.4,57.037 151.298,57.035" id="Fill-44" fill="#454545" sketch:type="MSShapeGroup"/><path d="M148.64,57.006 C147.936,57.006 147.229,57.013 146.526,57.029 L133.293,70.261 C133.452,76.077 134.224,81.889 136.938,86.18 L164.507,58.611 C161.612,57.508 157.082,57.186 152.421,57.061 C152.308,57.058 152.194,57.055 152.081,57.053 L152.079,57.053 C152.066,57.052 152.052,57.052 152.039,57.052 C152.035,57.052 152.033,57.052 152.029,57.051 C151.936,57.049 151.841,57.047 151.748,57.045 C151.746,57.045 151.744,57.045 151.741,57.044 L151.706,57.044 C151.696,57.044 151.686,57.043 151.676,57.043 L151.657,57.043 C151.639,57.042 151.621,57.042 151.603,57.041 C151.501,57.039 151.4,57.037 151.298,57.035 C150.427,57.017 149.536,57.006 148.64,57.006" id="Fill-45" fill="#515151" sketch:type="MSShapeGroup"/><path d="M167.662,62.527 L140.311,89.879 C142.675,91.659 145.817,92.778 149.981,92.959 L166.494,76.446 C167.713,70.469 167.642,64.667 167.662,62.527" id="Fill-46" fill="#515151" sketch:type="MSShapeGroup"/><path d="M167.667,62.166 C167.762,57.891 159.743,57.222 151.603,57.041 C151.298,57.034 150.989,57.029 150.679,57.024 C158.475,57.239 165.868,58.019 165.777,62.123 C165.688,66.121 166.624,92.461 149.52,92.935 C149.857,92.956 150.198,92.972 150.549,92.98 C168.546,93.38 167.576,66.23 167.667,62.166" id="Fill-47" fill="#000000" sketch:type="MSShapeGroup"/><path d="M172.952,83.744 C172.952,83.744 174.036,110.379 115.191,160.707 C58.823,122.613 50.616,117.193 36.524,93.964 C29.401,99.539 34.821,104.185 34.821,104.185 L33.582,118.896 C33.582,118.896 48.913,140.421 49.067,140.885 C49.222,141.35 66.102,157.765 65.637,157.765 C65.172,157.765 97.227,176.347 96.608,176.038 C95.989,175.728 124.792,190.284 125.256,190.594 C125.721,190.904 146.007,169.224 146.007,169.224 L146.317,168.45 L163.041,142.124 L182.708,124.006 L183.946,96.752 L172.952,83.744" id="Fill-48" fill="#71B200" sketch:type="MSShapeGroup"/><path d="M100.531,55.921 C100.531,55.921 108.274,52.928 114.365,52.928 C122.624,52.928 125.618,56.954 126.289,58.193 C126.96,59.432 126.65,74.298 126.185,74.814 C125.721,75.33 121.901,71.097 114.778,71.097 C107.345,71.097 99.912,74.711 99.912,74.711 L100.531,55.921" id="Fill-49" fill="#303030" sketch:type="MSShapeGroup"/><path d="M32.511,71.244 L31.672,71.923 C31.672,71.923 29.969,76.414 29.969,81.214 C29.969,86.015 30.433,87.641 30.433,89.344 C30.433,108.082 2.792,138.588 2.792,149.428 C2.792,155.545 5.734,155.313 5.734,156.706 C5.734,158.1 5.192,157.868 5.192,162.591 C5.192,164.372 4.572,167.391 4.572,167.391 C6.788,165.162 14.65,167.703 20.93,170.244 C26.208,172.38 30.368,174.515 29.117,173.818 C45.144,179.161 43.828,187.368 45.454,187.368 C44.835,187.6 44.215,187.678 44.215,188.839 C44.215,190 44.138,193.485 50.1,195.575 C50.1,197.975 52.81,202.234 54.436,203.086 C56.062,203.937 66.359,211.061 90.13,211.061 C113.9,211.061 130.237,210.906 148.433,197.124 C150.369,195.421 148.975,192.71 149.594,192.246 C150.214,191.781 158.111,187.6 158.111,184.58 C158.111,181.561 155.789,171.031 166.551,164.682 C169.184,162.978 184.746,161.817 191.173,148.887 C192.954,148.731 195.122,147.957 197.212,147.957 C199.303,147.957 200.852,148.809 202.013,145.17 C203.174,141.531 215.176,101.578 215.176,87.641 C215.176,84.854 214.401,84.621 213.705,84.621 C210.53,84.621 204.955,87.796 202.71,87.796 C200.774,87.796 200.31,87.409 200.31,87.409 C200.31,87.409 200.464,85.086 197.135,85.086 C193.806,85.086 188.541,88.648 182.579,88.648 C177.847,88.648 174.313,84.716 173.165,83.105 C173.471,85.208 173.588,87.404 173.571,89.628 C173.547,92.827 173.166,96.076 172.383,99.18 C170.795,105.483 167.798,111.253 163.61,116.214 C162.841,117.125 161.895,117.477 160.961,117.439 C160.452,118.179 159.928,118.912 159.378,119.636 C158.855,120.323 158.324,121.003 157.793,121.684 C157.748,122.215 157.58,122.723 157.262,123.15 C157.18,123.547 157.025,123.924 156.783,124.257 C152.435,130.221 147.286,135.473 142.24,140.836 C141.569,141.549 140.656,141.91 139.724,141.95 C138.709,143.401 137.717,144.869 136.395,146.449 C135.064,148.038 133.422,149.307 131.548,150.049 C126.189,156.299 120.885,163.711 116.61,173.199 C116.688,177.07 115.526,175.599 115.526,175.599 C115.526,175.599 112.789,163.287 95.171,150.08 C92.514,148.779 89.841,147.485 87.232,146.1 C85.174,145.008 83.148,143.804 81.25,142.451 C79.512,141.213 77.869,139.807 76.071,138.653 C72.195,136.166 67.859,134.64 63.771,132.564 C56.343,128.794 50.404,122.614 45.769,115.781 C41.263,109.138 37.752,101.734 34.959,94.219 C33.243,89.603 32.396,84.796 32.343,79.872 C32.315,77.309 31.98,74.241 33.154,71.862 L33.166,71.715 L32.511,71.244" id="Fill-50" fill="#FFB103" sketch:type="MSShapeGroup"/><path d="M173.726,90.816 C173.726,90.816 176.514,122.509 172.178,132.007 C164.745,133.659 132.767,143.957 120.146,167.005 C137.49,143.053 164.538,116.831 164.538,116.831 L172.384,97.216 L173.726,90.816" id="Fill-51" fill="#F89B07" sketch:type="MSShapeGroup"/><path d="M104.041,158.952 C104.041,158.952 78.232,144.292 60.888,146.357 C39.208,134.382 32.188,109.089 30.949,94.429 C29.545,77.815 37.35,118.277 91.859,148.422 C102.183,153.79 104.041,158.952 104.041,158.952" id="Fill-52" fill="#F89B07" sketch:type="MSShapeGroup"/><path d="M200.671,101.862 C200.671,114.457 187.56,150.28 169.7,150.28 C164.022,150.28 168.151,148.525 164.951,148.525 C162.886,148.525 155.969,196.84 106.622,196.84 C59.133,196.84 62.437,159.365 62.437,152.861 C62.437,150.59 62.024,148.628 60.578,148.628 C59.133,148.628 59.03,158.642 59.03,160.604 C59.03,162.565 58.307,166.592 52.732,166.592 C47.674,166.592 32.911,153.687 15.464,153.687 C7.826,153.687 4.351,151.059 2.806,149.042 C2.799,149.173 2.792,149.303 2.792,149.428 C2.792,155.545 5.734,155.313 5.734,156.706 C5.734,158.1 5.192,157.868 5.192,162.591 C5.192,164.372 4.572,167.391 4.572,167.391 C4.572,167.391 6.74,164.914 28.497,171.65 C44.525,176.993 43.828,187.368 45.454,187.368 C44.835,187.6 44.215,187.678 44.215,188.839 C44.215,190 44.138,193.485 50.1,195.575 C50.1,197.975 52.81,202.234 54.436,203.086 C56.062,203.937 66.359,211.061 90.13,211.061 C113.9,211.061 130.237,210.906 148.433,197.124 C150.369,195.421 148.975,192.71 149.594,192.246 C150.214,191.781 158.111,187.6 158.111,184.58 C158.111,181.561 155.789,171.031 166.551,164.682 C169.184,162.978 184.746,161.817 191.173,148.887 C191.355,148.871 191.542,148.847 191.731,148.82 C201.279,124.688 200.978,107.49 200.671,101.862" id="Fill-53" fill="#F89B07" sketch:type="MSShapeGroup"/><path d="M113.41,186.839 C113.41,186.839 114.397,200.931 111.261,204.492 C113.391,204.454 115.268,204.221 115.268,204.221 C115.268,204.221 116.739,202.712 116.739,200.002 C116.739,197.292 116.584,186.568 116.584,186.568 L113.255,186.8" id="Fill-54" fill="#878787" sketch:type="MSShapeGroup"/><path d="M33.117,71.81 L31.569,76.621 L33.892,97.526 L40.86,115.954 L50.616,132.214 L61.146,136.395 L72.76,140.111 L86.542,145.376 L94.595,150.487 L99.86,154.822 L100.3,154.248 C96.692,151.061 92.254,147.745 86.8,144.473 C61.636,129.375 41.118,107.54 36.473,92.906 C33.098,82.275 32.951,75.321 33.123,72.313 L33.117,71.81" id="Fill-55" fill="#E58800" sketch:type="MSShapeGroup"/><path d="M213.03,119.552 C217.447,97.602 216.625,87.622 215.675,84.73 C215.008,84.91 214.309,85.096 213.577,85.288 L209.962,89.009 L202.219,97.681 L203.394,138.058 C206.027,135.66 208.393,133.261 210.521,130.883 C210.689,130.182 210.852,129.492 211.011,128.809 L213.292,126.6 L215.653,123.774 C215.653,123.774 217.124,121.955 217.937,120.212 C213.075,124.478 212.915,121.019 213.03,119.552" id="Fill-56" fill="#71B200" sketch:type="MSShapeGroup"/><path d="M33.143,71.783 C32.61,73.686 32.085,76.307 32.085,79.253 C32.085,85.241 36.137,116.651 56.759,133.865 C60.991,133.865 98.466,141.298 116.12,174.128 C116.636,178.567 115.088,174.334 115.088,174.334 C115.088,174.334 101.357,142.331 55.83,137.789 C32.704,123.026 29.556,84.828 29.556,80.802 C29.556,76.534 30.607,72.334 32.655,69.961 L33.143,71.783" id="Fill-57" fill="#CCCCCC" sketch:type="MSShapeGroup"/><path d="M176.823,104.649 C176.823,104.649 175.894,94.119 175.894,93.655 C175.894,93.19 174.5,87.306 174.5,87.306 L173.726,84.712 C173.262,83.666 172.977,82.453 172.977,82.453 C172.977,82.453 172.9,84.854 172.9,86.247 C172.9,87.641 173.132,101.81 151.608,128.291 C143.488,138.947 128.854,149.129 118.633,169.003 L119.062,169.689 L121.89,165.708 C122.128,165.346 122.371,164.988 122.623,164.635 C123.572,163.144 124.749,161.826 125.945,160.519 C126.398,160.004 126.854,159.497 127.309,158.991 L127.574,158.678 C128.67,157.128 130.039,155.058 131.8,153.928 L133.851,152.035 L133.94,151.836 C136.151,147.439 140.869,144.7 144.296,141.335 C147.82,137.873 151.433,134.673 155.842,132.504 L162.886,127.103 L174.036,119.361 L176.204,116.728 L177.288,109.915 L176.823,104.649" id="Fill-58" fill="#E58800" sketch:type="MSShapeGroup"/><path d="M53.042,176.915 C51.313,169.844 30.562,156.061 11.025,156.061 C8.387,156.061 6.667,156.716 5.7,157.248 C5.582,158.143 5.192,158.581 5.192,162.591 C5.192,164.372 4.572,167.391 4.572,167.391 C4.572,167.391 14.997,166.516 29.117,173.818 C42.186,180.576 44.267,185.561 45.093,187.514 C45.358,187.553 45.553,187.574 45.661,187.574 C47.157,187.574 52.784,182.464 53.042,176.915" id="Fill-59" fill="#F2F2F2" sketch:type="MSShapeGroup"/><path d="M6.173,164.036 C38.795,167.83 47.414,181.971 48.693,185.536 C50.117,184.384 51.713,181.819 52.184,180.49 C40.996,163.024 15.36,159.391 10.199,159.391 C6.947,159.391 6.121,159.571 5.331,159.914 C5.251,160.63 5.192,161.029 5.192,162.591 C5.192,162.998 5.159,163.471 5.109,163.957 C5.43,163.971 5.781,163.991 6.173,164.036" id="Fill-60" fill="#FFB103" sketch:type="MSShapeGroup"/><path d="M114.744,172.915 C114.744,172.915 121.722,172.41 121.722,176.901 C121.722,181.392 119.671,181.561 119.671,181.561 L110.367,181.308 C110.367,181.308 108.041,179.54 108.041,176.901 C108.041,174.263 110.949,172.915 114.744,172.915" id="Fill-61" fill="#898989" sketch:type="MSShapeGroup"/><path d="M213.705,84.621 C210.53,84.621 204.955,87.796 202.71,87.796 C201.447,87.796 200.682,87.632 200.3,87.517 C200.8,90.048 201.187,93.832 201.187,99.487 C201.187,115.293 197.158,138.147 191.488,148.853 C193.206,148.644 195.244,147.957 197.212,147.957 C199.303,147.957 202.213,148.744 203.562,145.17 C213.163,119.722 215.176,101.578 215.176,87.641 C215.176,84.854 214.401,84.621 213.705,84.621" id="Fill-62" fill="#F2F2F2" sketch:type="MSShapeGroup"/><path d="M115.411,172.638 C115.411,172.638 121.849,172.13 121.849,176.648 C121.849,181.166 119.958,181.335 119.958,181.335 L111.373,181.081 C111.373,181.081 109.227,179.302 109.227,176.648 C109.227,173.993 111.91,172.638 115.411,172.638" id="Fill-63" fill="#B5B5B5" sketch:type="MSShapeGroup"/><path d="M118.056,179.496 C118.056,179.496 112.145,179.677 111.474,179.677 C110.803,179.677 110.571,180.374 110.571,180.374 C110.571,180.374 107.525,187.007 107.525,190.052 C107.525,193.097 112.223,192.969 114.571,192.969 C116.92,192.969 120.765,192.091 120.765,188.916 C120.765,185.742 118.056,179.496 118.056,179.496 L118.056,179.496 Z M114.507,191.678 C111.681,191.678 109.391,190.707 109.391,189.509 C109.391,188.31 111.681,187.339 114.507,187.339 C117.332,187.339 119.623,188.31 119.623,189.509 C119.623,190.707 117.332,191.678 114.507,191.678 L114.507,191.678 Z" id="Fill-64" fill="#898989" sketch:type="MSShapeGroup"/><path d="M119.294,179.496 C119.294,179.496 113.384,179.677 112.713,179.677 C112.042,179.677 111.422,180.425 111.422,180.425 C111.422,180.425 108.764,187.007 108.764,190.052 C108.764,193.097 113.462,192.969 115.81,192.969 C118.159,192.969 122.004,192.091 122.004,188.916 C122.004,185.742 119.294,179.496 119.294,179.496 L119.294,179.496 Z M115.436,191.678 C112.611,191.678 110.32,190.707 110.32,189.509 C110.32,188.31 112.611,187.339 115.436,187.339 C118.261,187.339 120.552,188.31 120.552,189.509 C120.552,190.707 118.261,191.678 115.436,191.678 L115.436,191.678 Z" id="Fill-65" fill="#B5B5B5" sketch:type="MSShapeGroup"/><path d="M149.801,191.91 C138.651,198.337 124.869,202.441 123.011,202.828 C121.153,203.215 118.52,205.073 117.359,205.073 C116.197,205.073 115.268,204.221 115.268,204.221 C115.268,204.221 112.636,204.454 111.629,204.454 C110.622,204.454 109.616,206.234 106.983,206.234 C106.132,206.234 104.506,205.615 102.957,205.615 C72.719,205.615 48.537,194.486 46.099,193.326 C46.969,194.136 48.241,194.923 50.1,195.575 C50.1,197.976 52.81,202.234 54.436,203.086 C56.062,203.937 66.36,211.061 90.13,211.061 C113.9,211.061 130.237,210.906 148.433,197.124 C150.369,195.42 148.975,192.71 149.594,192.246 C149.814,192.081 150.949,191.449 152.321,190.568 C151.566,190.932 150.73,191.375 149.801,191.91" id="Fill-66" fill="#CCCCCC" sketch:type="MSShapeGroup"/><path d="M210.427,91.719 C210.427,88.629 210.641,86.595 210.245,85.343 C208.407,85.949 206.445,86.796 204.867,87.32 C204.907,89.677 204.929,92.509 204.929,95.9 C204.929,122.619 197.807,143.023 195.882,148.049 C196.326,147.993 196.771,147.957 197.212,147.957 C197.816,147.957 198.374,148.028 198.891,148.041 C206.555,132.523 210.427,109.605 210.427,91.719" id="Fill-67" fill="#FFB103" sketch:type="MSShapeGroup"/><path d="M173.005,82.262 L172.953,82.521 C174.268,88.015 179.024,110.029 172.9,117.864 C128.699,149.436 118.177,168.933 116.769,172.695 C116.867,172.693 116.964,172.694 117.061,172.698 C136.183,142.689 175.894,119.206 175.894,119.206 C175.894,119.206 178.217,116.728 178.217,106.353 C178.217,97.591 174.241,85.737 173.005,82.262" id="Fill-68" fill="#CCCCCC" sketch:type="MSShapeGroup"/><path d="M113.365,182.154 C113.365,182.154 111.532,185.716 115.636,185.716 C119.74,185.716 117.675,182.103 117.675,182.103 L113.365,182.154" id="Fill-69" fill="#727272" sketch:type="MSShapeGroup"/><path d="M113.41,174.334 C113.41,174.334 113.461,173.224 115.036,173.224 C116.61,173.224 117.049,173.534 117.049,174.618 L117.049,182.542 C117.049,182.542 116.946,183.729 115.294,183.729 C113.642,183.729 113.384,183.032 113.384,182.335 C113.384,181.638 113.41,174.334 113.41,174.334" id="Fill-70" fill="#898989" sketch:type="MSShapeGroup"/><path d="M114.339,174.334 C114.339,174.334 114.391,173.224 115.965,173.224 C117.539,173.224 117.978,173.534 117.978,174.618 L117.978,182.542 C117.978,182.542 117.875,183.729 116.223,183.729 C114.571,183.729 114.313,183.032 114.313,182.335 C114.313,181.638 114.339,174.334 114.339,174.334" id="Fill-71" fill="#CCCCCC" sketch:type="MSShapeGroup"/><path d="M117.359,174.851 C117.359,175.421 116.85,175.883 116.223,175.883 C115.596,175.883 115.088,175.421 115.088,174.851 C115.088,174.28 115.596,173.818 116.223,173.818 C116.85,173.818 117.359,174.28 117.359,174.851" id="Fill-72" fill="#FFFFFF" sketch:type="MSShapeGroup"/><path d="M202.222,87.787 C202.333,87.791 202.451,87.794 202.575,87.795 L202.577,87.795 C202.591,87.796 202.605,87.796 202.618,87.796 L202.62,87.796 L202.63,87.796 L202.646,87.796 L202.657,87.796 L202.674,87.796 L202.683,87.796 L202.703,87.796 C202.534,87.796 202.373,87.793 202.222,87.787" id="Fill-73" fill="#F2F2F2" sketch:type="MSShapeGroup"/><path d="M202.674,87.796 L202.683,87.796 L202.674,87.796 M202.646,87.796 L202.657,87.796 L202.646,87.796 M202.62,87.796 L202.63,87.796 L202.62,87.796 M202.577,87.795 C202.591,87.796 202.605,87.796 202.618,87.796 C202.605,87.796 202.591,87.796 202.577,87.795 M200.3,87.517 L200.3,87.517 C200.668,87.627 201.393,87.784 202.575,87.795 C202.451,87.794 202.333,87.791 202.222,87.787 C201.246,87.752 200.63,87.616 200.3,87.517" id="Fill-74" fill="#F2A803" sketch:type="MSShapeGroup"/><path d="M192.645,146.453 C192.268,147.307 191.882,148.109 191.488,148.853 L191.488,148.852 C191.882,148.109 192.268,147.307 192.645,146.453 M200.653,110.462 C199.996,117.731 198.762,125.481 197.111,132.434 C198.762,125.481 199.996,117.731 200.653,110.462" id="Fill-75" fill="#EB9307" sketch:type="MSShapeGroup"/><path d="M203.636,144.972 C203.631,144.986 203.625,145.002 203.62,145.016 C203.625,145.002 203.631,144.987 203.636,144.972 M203.692,144.823 C203.688,144.835 203.683,144.847 203.679,144.859 C203.683,144.847 203.688,144.835 203.692,144.823 M203.749,144.671 C203.745,144.681 203.741,144.692 203.737,144.703 C203.741,144.692 203.745,144.681 203.749,144.671 M203.807,144.516 C203.803,144.527 203.8,144.535 203.796,144.546 C203.8,144.536 203.803,144.526 203.807,144.516 M203.86,144.374 C203.859,144.377 203.858,144.381 203.856,144.384 C203.858,144.381 203.859,144.377 203.86,144.374" id="Fill-76" fill="#F2F2F2" sketch:type="MSShapeGroup"/><path d="M197.137,147.958 L197.129,147.958 L197.137,147.958 M197.212,147.957 L197.17,147.957 L197.212,147.957 M209.705,126.389 C208.167,127.322 206.946,127.76 205.969,127.877 C204.159,135.203 201.801,142.144 198.899,148.024 C199.029,148.028 199.16,148.031 199.291,148.031 C200.936,148.031 202.625,147.652 203.562,145.17 C203.581,145.119 203.6,145.067 203.62,145.016 C203.625,145.002 203.631,144.986 203.636,144.972 C203.65,144.935 203.664,144.897 203.679,144.859 C203.683,144.847 203.688,144.835 203.692,144.823 C203.707,144.783 203.722,144.743 203.737,144.703 C203.741,144.692 203.745,144.681 203.749,144.671 C203.765,144.629 203.78,144.588 203.796,144.546 C203.8,144.535 203.803,144.527 203.807,144.516 C203.824,144.472 203.84,144.429 203.856,144.384 C203.858,144.381 203.859,144.377 203.86,144.374 C206.269,137.921 208.183,131.946 209.705,126.389 M200.3,87.517 C200.8,90.048 201.187,93.832 201.187,99.487 C201.187,102.884 201.001,106.605 200.653,110.462 C199.996,117.731 198.762,125.481 197.111,132.434 C195.845,137.767 194.332,142.631 192.645,146.453 C192.268,147.307 191.882,148.109 191.488,148.853 C192.821,148.691 194.346,148.241 195.882,148.048 C197.001,145.127 199.871,137.022 202.082,125.505 C202.021,125.393 201.964,125.288 201.91,125.193 C201.18,123.916 202.465,94.83 202.703,87.796 L202.683,87.796 L202.674,87.796 L202.657,87.796 L202.646,87.796 L202.63,87.796 L202.62,87.796 L202.618,87.796 C202.605,87.796 202.591,87.796 202.577,87.795 L202.575,87.795 C201.393,87.784 200.668,87.627 200.3,87.517" id="Fill-77" fill="#E6E6E6" sketch:type="MSShapeGroup"/><path d="M202.082,125.505 C199.871,137.022 197.001,145.127 195.882,148.048 C196.298,147.995 196.715,147.962 197.129,147.958 L197.137,147.958 C197.148,147.958 197.159,147.957 197.17,147.957 L197.212,147.957 C197.736,147.957 198.31,148.006 198.899,148.024 C201.801,142.144 204.159,135.203 205.969,127.877 C205.781,127.899 205.603,127.91 205.433,127.91 C203.436,127.91 202.6,126.45 202.082,125.505" id="Fill-78" fill="#F2A803" sketch:type="MSShapeGroup"/><path d="M5.7,157.248 L5.7,157.248 C5.7,157.252 5.699,157.256 5.699,157.259 C5.699,157.256 5.7,157.252 5.7,157.248" id="Fill-79" fill="#F2F2F2" sketch:type="MSShapeGroup"/><path d="M11.025,156.061 C8.387,156.061 6.667,156.716 5.7,157.248 C5.7,157.252 5.699,157.256 5.699,157.259 C5.629,157.779 5.467,158.149 5.345,159.169 C6.633,159.049 8.225,158.955 10.049,158.955 C17.523,158.955 28.9,160.531 39.364,168.356 C44.299,171.366 48.874,175.323 52.184,180.49 C52.664,179.353 52.985,178.145 53.042,176.915 C51.313,169.844 30.562,156.061 11.025,156.061" id="Fill-80" fill="#E6E6E6" sketch:type="MSShapeGroup"/><path d="M42.706,183.589 L42.705,183.59 C44.176,185.351 44.742,186.685 45.087,187.499 C44.742,186.684 44.179,185.351 42.706,183.589" id="Fill-81" fill="#6BA900" sketch:type="MSShapeGroup"/><path d="M45.087,187.499 L45.087,187.499 C45.089,187.504 45.091,187.509 45.093,187.514 C45.091,187.509 45.089,187.504 45.087,187.499" id="Fill-82" fill="#EB9307" sketch:type="MSShapeGroup"/><path d="M45.458,180.433 C44.573,182.095 43.207,183.214 42.706,183.589 C44.179,185.351 44.742,186.684 45.087,187.499 C45.089,187.504 45.091,187.509 45.093,187.514 C45.358,187.553 45.553,187.574 45.661,187.574 C46.26,187.574 47.521,186.755 48.834,185.417 C48.787,185.458 48.74,185.498 48.693,185.536 C48.331,184.525 47.378,182.666 45.458,180.433" id="Fill-83" fill="#E6E6E6" sketch:type="MSShapeGroup"/><path d="M39.364,168.356 C41.136,169.68 42.881,171.184 44.576,172.889 C46.855,175.911 46.472,178.528 45.458,180.433 C47.378,182.666 48.331,184.525 48.693,185.536 C48.74,185.498 48.787,185.458 48.834,185.417 C50.075,184.153 51.362,182.426 52.183,180.489 C48.874,175.323 44.299,171.366 39.364,168.356" id="Fill-84" fill="#F2A803" sketch:type="MSShapeGroup"/><path d="M172.971,82.597 L172.971,82.597 C172.972,82.599 172.972,82.601 172.973,82.604 L172.973,82.603 C172.972,82.601 172.972,82.599 172.971,82.597" id="Fill-85" fill="#FFFFFF" sketch:type="MSShapeGroup"/><path d="M172.973,82.603 L172.973,82.604 C174.276,88.074 178.732,108.857 173.383,117.175 L173.386,117.178 C178.734,108.859 174.277,88.074 172.973,82.603" id="Fill-86" fill="#F8DCB3" sketch:type="MSShapeGroup"/><path d="M175.894,119.206 C175.894,119.206 175.89,119.208 175.881,119.214 L175.894,119.206" id="Fill-87" fill="#FFE8B4" sketch:type="MSShapeGroup"/><path d="M173.005,82.262 L173.005,82.262 L172.971,82.597 C172.972,82.599 172.972,82.601 172.973,82.603 C174.277,88.074 178.734,108.859 173.386,117.178 L175.839,119.238 L175.881,119.214 C175.89,119.208 175.894,119.206 175.894,119.206 C175.894,119.206 178.217,116.728 178.217,106.353 C178.217,97.591 174.241,85.737 173.005,82.262" id="Fill-88" fill="#F0F0F0" sketch:type="MSShapeGroup"/><path d="M29.601,82.015 C29.692,83.562 29.932,86.179 30.432,89.484 C29.932,86.179 29.692,83.562 29.601,82.015" id="Fill-89" fill="#FFFFFF" sketch:type="MSShapeGroup"/><path d="M30.432,89.484 L30.432,89.484 C30.543,90.214 30.666,90.975 30.803,91.767 C30.666,90.975 30.543,90.214 30.432,89.484" id="Fill-90" fill="#FFE8B4" sketch:type="MSShapeGroup"/><path d="M30.803,91.767 L30.803,91.767 C33.139,105.282 39.51,127.37 55.829,137.789 L55.906,137.797 L55.906,137.796 C55.881,137.794 55.855,137.791 55.83,137.789 C39.51,127.37 33.139,105.281 30.803,91.767" id="Fill-91" fill="#FDE1B5" sketch:type="MSShapeGroup"/><path d="M32.086,79.416 C32.157,85.765 36.284,116.547 56.506,133.653 L56.507,133.65 C36.285,116.542 32.157,85.763 32.086,79.416 M32.085,79.311 C32.085,79.344 32.085,79.377 32.086,79.411 C32.085,79.377 32.085,79.344 32.085,79.311" id="Fill-92" fill="#F8DCB3" sketch:type="MSShapeGroup"/><path d="M32.655,69.961 C30.607,72.334 29.556,76.534 29.556,80.802 C29.556,81.065 29.569,81.475 29.601,82.015 C29.692,83.562 29.932,86.179 30.432,89.484 C30.543,90.214 30.666,90.975 30.803,91.767 C33.139,105.281 39.51,127.37 55.83,137.789 C55.855,137.791 55.881,137.794 55.906,137.796 L56.506,133.653 C36.284,116.547 32.157,85.765 32.086,79.416 L32.086,79.411 C32.085,79.377 32.085,79.344 32.085,79.311 L32.085,79.253 C32.085,76.307 32.61,73.686 33.143,71.783 L32.655,69.961" id="Fill-93" fill="#F0F0F0" sketch:type="MSShapeGroup"/><path d="M104.277,72.996 C103.267,73.331 102.389,73.661 101.691,73.941 L101.691,73.942 C102.389,73.662 103.267,73.331 104.276,72.997 C104.277,72.997 104.277,72.996 104.277,72.996" id="Fill-94" fill="#80C900" sketch:type="MSShapeGroup"/><path d="M103.757,54.834 C102.961,55.076 102.275,55.303 101.743,55.486 C102.1,56.103 102.291,56.795 102.291,57.573 C102.291,59.743 102.611,66.37 101.691,73.941 C102.389,73.661 103.267,73.331 104.277,72.996 C105.061,65.824 104.768,59.652 104.768,57.573 C104.768,56.508 104.411,55.603 103.757,54.834" id="Fill-95" fill="#2B2B2B" sketch:type="MSShapeGroup"/><path d="M77.184,50.553 C89.822,50.553 102.291,51.276 102.291,57.573 C102.291,63.561 104.732,103.514 76.789,103.514 C48.845,103.514 49.016,77.808 49.016,58.399 C49.016,51.379 64.545,50.553 77.184,50.553" id="Fill-96" fill="#303030" sketch:type="MSShapeGroup"/><path d="M49.016,58.399 C49.016,51.628 63.461,50.62 75.827,50.557 C75.351,50.554 74.874,50.553 74.396,50.553 C61.757,50.553 46.228,51.379 46.228,58.399 C46.228,77.808 46.058,103.514 74.001,103.514 C74.433,103.514 74.858,103.504 75.276,103.485 C48.854,102.566 49.016,77.45 49.016,58.399" id="Fill-97" fill="#000000" sketch:type="MSShapeGroup"/><path d="M78.029,56.544 C87.365,56.544 96.575,57.078 96.575,61.73 C96.575,66.153 98.378,95.664 77.738,95.664 C57.097,95.664 57.223,76.676 57.223,62.34 C57.223,57.154 68.694,56.544 78.029,56.544" id="Fill-98" fill="#3D3D3D" sketch:type="MSShapeGroup"/><path d="M78.029,56.545 C76.805,56.545 75.544,56.555 74.276,56.586 L57.507,73.354 C57.893,78.282 58.804,83.089 60.951,86.973 L90.575,57.349 C87.131,56.674 82.597,56.545 78.029,56.545" id="Fill-99" fill="#515151" sketch:type="MSShapeGroup"/><path d="M96.576,61.88 L96.576,61.881 C96.576,61.881 96.576,61.881 96.576,61.88 M96.576,61.852 L96.576,61.868 L96.576,61.852 M96.575,61.819 L96.575,61.827 L96.575,61.819 M96.575,61.782 L96.575,61.812 L96.575,61.782 M96.575,61.766 L96.575,61.775 L96.575,61.766 M96.575,61.753 L96.575,61.759 L96.575,61.753 M96.575,61.706 L96.575,61.73 L96.575,61.744 L96.575,61.73 L96.575,61.706 M96.575,61.681 L96.575,61.698 L96.575,61.681 M96.574,61.653 C96.574,61.66 96.575,61.666 96.575,61.672 C96.575,61.666 96.574,61.66 96.574,61.653 M96.574,61.627 L96.574,61.64 L96.574,61.627 M96.573,61.606 L96.573,61.613 L96.573,61.606" id="Fill-100" fill="#454545" sketch:type="MSShapeGroup"/><path d="M96.342,60.535 L65.013,91.865 C67.039,93.482 69.592,94.66 72.81,95.245 L96.351,71.704 C96.741,67.184 96.587,63.393 96.576,61.881 C96.576,61.881 96.576,61.881 96.576,61.88 L96.576,61.868 L96.576,61.852 C96.576,61.844 96.575,61.835 96.575,61.827 L96.575,61.819 L96.575,61.812 L96.575,61.782 L96.575,61.775 L96.575,61.766 L96.575,61.759 L96.575,61.753 L96.575,61.744 L96.575,61.73 L96.575,61.706 L96.575,61.698 L96.575,61.681 L96.575,61.672 C96.575,61.666 96.574,61.66 96.574,61.653 L96.574,61.64 L96.574,61.627 C96.573,61.622 96.573,61.618 96.573,61.613 L96.573,61.606 C96.559,61.22 96.48,60.864 96.342,60.535" id="Fill-101" fill="#515151" sketch:type="MSShapeGroup"/><path d="M96.575,61.73 C96.575,57.078 87.365,56.544 78.029,56.544 C77.68,56.544 77.326,56.546 76.971,56.548 C85.913,56.594 94.407,57.263 94.407,61.73 C94.407,66.081 96.152,94.711 76.558,95.64 C76.944,95.655 77.336,95.664 77.738,95.664 C98.378,95.664 96.575,66.153 96.575,61.73" id="Fill-102" fill="#000000" sketch:type="MSShapeGroup"/><path d="M125.773,74.767 C125.775,74.768 125.776,74.768 125.777,74.769 C125.776,74.768 125.775,74.768 125.773,74.767 M124.178,73.822 L124.178,73.822 C124.895,74.249 125.425,74.604 125.768,74.764 C125.426,74.604 124.896,74.249 124.178,73.821" id="Fill-103" fill="#000000" sketch:type="MSShapeGroup"/><path d="M123.658,55.418 L124.178,73.822 C124.896,74.249 125.426,74.604 125.768,74.764 C125.77,74.765 125.771,74.766 125.773,74.767 C125.775,74.768 125.776,74.768 125.777,74.769 C125.781,74.77 125.784,74.772 125.787,74.773 C125.906,74.828 126.001,74.858 126.072,74.858 C126.121,74.858 126.159,74.844 126.185,74.814 C126.458,74.511 126.677,69.282 126.676,64.755 C126.676,61.555 126.567,58.706 126.289,58.193 C125.984,57.63 125.197,56.493 123.658,55.418" id="Fill-104" fill="#2B2B2B" sketch:type="MSShapeGroup"/><path d="M47.261,56.541 L30.227,60.567 L30.536,70.581 L47.054,71.304 L47.261,56.541" id="Fill-105" fill="#000000" sketch:type="MSShapeGroup"/><path d="M147.172,186.153 C147.043,186.153 146.927,186.075 146.879,185.955 C145.918,183.556 144.001,181.604 141.619,180.602 C141.502,180.552 141.426,180.437 141.426,180.311 C141.426,180.184 141.502,180.069 141.619,180.019 C144.001,179.018 145.918,177.065 146.879,174.666 C146.927,174.546 147.043,174.468 147.172,174.468 C147.301,174.468 147.417,174.546 147.465,174.666 C148.425,177.065 150.342,179.017 152.724,180.019 C152.841,180.069 152.917,180.184 152.917,180.311 C152.917,180.437 152.841,180.552 152.724,180.602 C150.342,181.605 148.425,183.556 147.465,185.955 C147.417,186.075 147.301,186.153 147.172,186.153" id="Fill-106" fill="#FFFFFF" sketch:type="MSShapeGroup"/><path d="M147.172,174.783 C148.168,177.274 150.134,179.271 152.602,180.311 C150.134,181.35 148.168,183.348 147.172,185.838 C146.175,183.348 144.21,181.35 141.741,180.311 C144.21,179.271 146.175,177.274 147.172,174.783 M147.172,174.152 C146.914,174.152 146.681,174.309 146.586,174.549 C145.656,176.87 143.801,178.758 141.496,179.729 C141.262,179.827 141.11,180.057 141.11,180.311 C141.11,180.565 141.262,180.794 141.496,180.892 C143.801,181.863 145.656,183.751 146.586,186.073 C146.681,186.312 146.914,186.469 147.172,186.469 C147.43,186.469 147.662,186.312 147.758,186.072 C148.687,183.751 150.542,181.863 152.847,180.892 C153.081,180.794 153.233,180.565 153.233,180.311 C153.233,180.057 153.081,179.827 152.847,179.729 C150.542,178.758 148.687,176.87 147.758,174.549 C147.662,174.309 147.43,174.152 147.172,174.152" id="Fill-107" fill="#FFFFFF" sketch:type="MSShapeGroup"/><path d="M28.553,138.266 C28.387,138.266 28.238,138.165 28.176,138.011 C26.941,134.928 24.477,132.42 21.416,131.131 C21.266,131.067 21.168,130.92 21.168,130.757 C21.168,130.594 21.266,130.446 21.416,130.383 C24.477,129.094 26.941,126.586 28.176,123.503 C28.237,123.349 28.387,123.248 28.553,123.248 C28.719,123.248 28.868,123.349 28.93,123.503 C30.163,126.585 32.626,129.093 35.688,130.383 C35.839,130.446 35.937,130.594 35.937,130.757 C35.937,130.92 35.839,131.067 35.688,131.131 C32.626,132.421 30.163,134.929 28.93,138.011 C28.868,138.165 28.719,138.266 28.553,138.266" id="Fill-108" fill="#FFFFFF" sketch:type="MSShapeGroup"/><path d="M28.552,123.653 C29.833,126.854 32.359,129.421 35.531,130.757 C32.359,132.092 29.833,134.66 28.552,137.861 C27.271,134.66 24.746,132.092 21.574,130.757 C24.746,129.421 27.271,126.854 28.552,123.653 M28.552,122.842 C28.221,122.842 27.922,123.044 27.799,123.352 C26.605,126.335 24.221,128.762 21.259,130.009 C20.958,130.136 20.762,130.43 20.762,130.757 C20.762,131.083 20.958,131.378 21.259,131.505 C24.221,132.752 26.605,135.178 27.799,138.162 C27.922,138.47 28.221,138.672 28.552,138.672 C28.884,138.672 29.182,138.47 29.305,138.162 C30.5,135.178 32.884,132.752 35.846,131.505 C36.147,131.378 36.343,131.083 36.343,130.757 C36.343,130.43 36.147,130.136 35.846,130.009 C32.884,128.762 30.5,126.335 29.305,123.352 C29.182,123.044 28.884,122.842 28.552,122.842" id="Fill-109" fill="#FFFFFF" sketch:type="MSShapeGroup"/></g></g></g></svg>