<?xml version="1.0" encoding="utf-8"?><!DOCTYPE svg PUBLIC "-//W3C//DTD SVG 1.1//EN" "http://www.w3.org/Graphics/SVG/1.1/DTD/svg11.dtd"><svg version="1.1" id="Layer_1" xmlns="http://www.w3.org/2000/svg" xmlns:xlink="http://www.w3.org/1999/xlink" x="0px" y="0px" width="304px" height="313px" viewBox="0 0 304 313" enable-background="new 0 0 304 313" xml:space="preserve"><path fill="#78C800" d="M-557.325,151.959v9.417l0.298,3.529l2.966,4.194l3.5-2.078c0,0,2.044,2.389,1.522-4.67	c-0.522-7.059,2.311-1.642-0.522-7.059c-2.833-5.417-2.833-5.417-2.833-5.417L-557.325,151.959z"/><path fill="#78C800" d="M-367.612,168.815c-6.022-0.157-17.863,5.295-42.573,4.65c-0.797-0.021-9.756,0.277-9.543-7.871	c0.009-0.346,0.025-0.713,0.045-1.092c-0.363,0.26-0.766,0.504-1.219,0.722c-1.063,0.514-2.184,0.867-3.303,1.231	c-1.916,2.453-3.786,4.942-5.577,7.48c-1.588,3.423-3.304,6.787-5.137,10.086c-0.252,0.772-0.505,1.544-0.762,2.313	c-1.441,4.307-3.103,8.575-4.578,12.89c-0.675,4.753-1.549,9.472-2.7,14.128c-0.12,1.912-0.229,3.824-0.319,5.738	c0.042,0.194,0.082,0.391,0.111,0.598c1.146,8.205,0.181,18.846,4.337,26.494c0.721,0.366,1.368,0.922,1.919,1.649	c0.141-0.104,0.282-0.195,0.421-0.253c72.086-25.061,73.651-71.46,73.667-72.08C-362.807,174.878-361.589,168.972-367.612,168.815z"/><path fill="#71B200" d="M-430.071,232.532c-4.015-0.105-1.766-4.773-4.01-4.831c-1.411-0.037-2.644,6.713-6.149,15.274	c0.389,1.113,0.847,2.189,1.401,3.208c0.721,0.366,1.368,0.922,1.919,1.649c0.141-0.104,0.282-0.195,0.421-0.253	c36.568-12.713,54.988-30.917,64.264-45.85C-394.886,228.733-426.248,232.631-430.071,232.532z"/><path fill="#71B200" d="M-430.071,232.532c-4.015-0.105-1.766-4.773-4.01-4.831c-1.411-0.037-2.644,6.713-6.149,15.274	c0.389,1.113,0.847,2.189,1.401,3.208c0.721,0.366,1.368,0.922,1.919,1.649c0.141-0.104,0.282-0.195,0.421-0.253	c36.568-12.713,54.988-30.917,64.264-45.85C-394.886,228.733-426.248,232.631-430.071,232.532z"/><ellipse fill="#E5E5E5" cx="-480.169" cy="293.863" rx="144.782" ry="15.802"/><path fill="#FFBF0D" d="M-589.141,227.358c-9.143,8.611-28.925,7.669-27.114,14.191s1.453,9.084-0.433,12.73	c-1.886,3.647,11.882,1.69,11.882,1.69l11.594-13.633L-589.141,227.358z"/><path fill="#FFBF0D" d="M-567.184,191.193c-5.521,9.124-19.453,9.269-19.453,14.342c0,3.841,3.933,1.812,3.933,8.551	c0,6.739-2.724,9.125-2.724,9.125l3.449,3.012l13.116-6.34l6.014-17.898v-10.072L-567.184,191.193z"/><path fill="#D33131" d="M-561.525,178.266c0,0-13.136,32.559-25.112,46.4c-11.805,13.642-32.009,21.375-32.009,38.296	s21.956,26.564,48.261,26.564s133.26,0,133.26,0s-2.717,2.531-2.717,5.357c0,2.826,19.022,5.456,44.239,5.456	c25.217,0,45.326-3.717,45.326-18.282c0-14.565-14.937-27.197-57.686-27.197l-105.091-18.454l-36.244-22.609L-561.525,178.266z"/><path fill="#B72E2E" d="M-350.299,281.164c-0.003-0.075-0.007-0.151-0.011-0.226c-0.015-0.279-0.034-0.558-0.061-0.835	c-0.002-0.018-0.003-0.037-0.005-0.055c-0.029-0.297-0.067-0.593-0.109-0.888c-0.01-0.066-0.02-0.131-0.03-0.197	c-0.043-0.276-0.09-0.55-0.145-0.824c-0.004-0.021-0.007-0.042-0.012-0.062c-0.061-0.299-0.13-0.597-0.206-0.894	c-0.013-0.05-0.026-0.099-0.039-0.148c-0.074-0.281-0.154-0.561-0.241-0.839c-0.005-0.016-0.009-0.031-0.014-0.047	c-0.096-0.303-0.201-0.604-0.313-0.903c-0.011-0.03-0.023-0.059-0.034-0.088c-0.11-0.29-0.227-0.578-0.353-0.864	c-0.004-0.009-0.007-0.018-0.011-0.027c-0.135-0.305-0.278-0.608-0.431-0.91c-0.004-0.007-0.008-0.015-0.011-0.022	c-0.152-0.3-0.313-0.597-0.483-0.893c-0.001-0.003-0.003-0.005-0.004-0.008c-1.044-1.809-2.429-3.535-4.189-5.148h0	c1.16,1.454,2.195,3.652,2.195,6.871c0,11.449-24.638,12.174-30.507,12.174s-49.13-2.029-35.507-9.203	c20.942-11.739,31.811-5.725,31.811-9.638s-107.97-7.246-151.014-7.246s-55.217-13.188-55.217-20.942	c0-3.832,2.101-7.45,4.226-10.13c-11.82,11.04-27.632,18.819-27.632,33.788c0,16.921,21.956,26.564,48.261,26.564s133.26,0,133.26,0	s-2.717,2.531-2.717,5.357c0,2.826,19.022,5.456,44.239,5.456c25.217,0,45.326-3.717,45.326-18.282	C-350.278,281.758-350.287,281.461-350.299,281.164z"/><path fill="#78C800" d="M-435.356,246.971c1.626-3.881,2.908-7.326,4.026-9.94c12.361-33.659,14.665-72.269,15.094-85.201	c-0.024-1.281,0.014-2.792,0.098-4.486v0l0,0c0.546-10.965,3.001-29.546,2.653-42.456c-0.067-2.48-0.852-18.891-9.319-18.662	c-12.743,0.344-15.41,12.483-42.263,13.208c-37.03,1-53.235-28.602-70.852-28.126c-23.433,0.633-17.898,66.125-17.593,77.414	c0.45,16.677-32.943,88.954-32.301,112.729c0.037,1.368-0.509,9.685,13.003,9.32c23.86-0.644,27.415-14.776,31.007-14.873	c3.592-0.097,13.428,34.555,51.741,33.52c32.904-0.889,46.579-23.749,53.822-40.377	C-435.966,248.371-435.674,247.684-435.356,246.971z"/><path fill="#D98500" d="M-460.578,278.77c7.209,0.342,6.581,8.139,6.552,8.739s-0.043,8.169-12.658,7.571	c-7.981-0.378-7.383-3.919-7.3-5.679C-473.9,287.643-469.718,278.337-460.578,278.77z"/><path fill="#8EE000" d="M-432.379,108.25c-4.028,0.109-4.947,2.214-6.411,0.953c-0.667-0.632,2.736-2.22,2.718-2.869	c-0.009-0.325-0.527-0.246-1.241-0.227c-4.223,0.114-12.373,6.511-13.542,6.543c-0.52,0.014-1.361,0.167-1.382-0.613	c-0.047-1.754,5.825-3.408,1.731-3.298c-4.093,0.111-9.993,5.536-16.296,5.707c-12.994,0.351-23.73-9.567-23.662-7.033	c0.025,0.91,1.558,2.299,2.581,4.092c0,0,0.658,2.713-0.474,1.703c-12.244-11.6-24.245-14.17-24.245-14.17s-0.91,0.025-0.899,0.414	c0.037,1.364,2.685,3.113,2.699,3.633c0.014,0.52-0.302,0.853-0.822,0.867c-2.534,0.068-4.485-4.755-14.685-4.48	c-15.398,0.416-18.985,24.765-18.449,44.646c0.762,28.197,19.149,36.667,34.158,36.262c11.904-0.321,24.457-7.682,29.512-18.13	l15.873,0.779c0,0,8.163,14.508,22.132,14.131c13.108-0.354,24.286-8.957,23.509-37.723	C-420.389,109.226-428.351,108.141-432.379,108.25z"/><ellipse transform="matrix(0.9996 -0.027 0.027 0.9996 -4.0866 -13.8016)" fill="#FFFFFF" cx="-513.193" cy="144.45" rx="20.276" ry="24.653"/><path fill="#FFFFFF" d="M-427.917,145.784c-0.313,11.79-8.022,21.298-17.219,21.237c-9.197-0.061-16.399-9.668-16.086-21.459	c0.313-11.79,8.022-21.298,17.219-21.237C-434.806,124.386-427.604,133.993-427.917,145.784z"/><ellipse transform="matrix(0.9996 -0.027 0.027 0.9996 -4.0871 -13.8129)" fill="#3F3F3F" cx="-513.61" cy="144.461" rx="11.138" ry="13.542"/><ellipse transform="matrix(0.9996 -0.027 0.027 0.9996 -3.8632 -14.017)" fill="#FFFFFF" cx="-521.059" cy="136.068" rx="5.217" ry="5.637"/><path fill="#3F3F3F" d="M-435.426,145.983c-0.313,6.935-4.793,12.469-10.005,12.36c-5.212-0.109-9.183-5.818-8.87-12.753	c0.313-6.935,4.793-12.469,10.005-12.36C-439.083,133.339-435.112,139.048-435.426,145.983z"/><path fill="#71B200" d="M-486.361,171.094c0,0-3.044,27.048,5.798,26.801c8.842-0.247,8.376-13.195,8.319-13.35	C-472.3,184.39-486.361,171.094-486.361,171.094z"/><path fill="#FFFFFF" d="M-446.512,138.217c0.165,2.82-1.739,5.223-4.253,5.369c-2.514,0.145-4.687-2.022-4.852-4.842	c-0.165-2.82,1.739-5.223,4.253-5.369S-446.677,135.398-446.512,138.217z"/><path fill="#FFC200" d="M-492.348,185.884"/><path fill="#F49000" d="M-486.594,169.372c0,0-1.379,19.975,8.322,19.713c9.7-0.262,14.307-8.35,14.114-15.494	C-464.352,166.447-486.594,169.372-486.594,169.372z"/><path fill="#FFC200" d="M-472.333,157.187c7.057-0.191,12.593,7.856,12.812,15.959c0.219,8.103-6.179,16.559-8.358,16.618	c-2.178,0.059-18.612-14.407-18.784-20.768C-486.834,162.636-480.872,157.418-472.333,157.187z"/><ellipse transform="matrix(0.9996 0.0283 -0.0283 0.9996 4.3867 13.4125)" fill="#FFF3B8" cx="-472.449" cy="161.943" rx="4.689" ry="2.557"/><path fill="#8EE000" d="M-432.379,108.25c-4.028,0.109-4.947,2.214-6.411,0.953c-0.667-0.632,2.736-2.22,2.718-2.869	c-0.009-0.325-0.527-0.246-1.241-0.227c-4.223,0.114-12.373,6.511-13.542,6.543c-0.52,0.014-1.361,0.167-1.382-0.613	c-0.047-1.754,5.825-3.408,1.731-3.298c-4.093,0.111-9.993,5.536-16.296,5.707c-12.994,0.351-23.73-9.567-23.662-7.033	c0.025,0.91,1.558,2.299,2.581,4.092c0,0,0.658,2.713-0.474,1.703c-12.244-11.6-24.245-14.17-24.245-14.17s-0.91,0.025-0.899,0.414	c0.037,1.364,2.685,3.113,2.699,3.633c0.014,0.52-0.302,0.853-0.822,0.867c-2.534,0.068-4.485-4.755-14.685-4.48	c-15.398,0.416-18.985,24.765-18.449,44.646c0.762,28.197,19.149,36.667,34.158,36.262c11.904-0.321,24.457-7.682,29.512-18.13	l15.873,0.779c0,0,8.163,14.508,22.132,14.131c13.108-0.354,24.286-8.957,23.509-37.723	C-420.389,109.226-428.351,108.141-432.379,108.25z"/><ellipse transform="matrix(0.9996 -0.027 0.027 0.9996 -4.0866 -13.8016)" fill="#FFFFFF" cx="-513.193" cy="144.45" rx="20.276" ry="24.653"/><path fill="#FFFFFF" d="M-427.917,145.784c-0.313,11.79-8.022,21.298-17.219,21.237c-9.197-0.061-16.399-9.668-16.086-21.459	c0.313-11.79,8.022-21.298,17.219-21.237C-434.806,124.386-427.604,133.993-427.917,145.784z"/><ellipse transform="matrix(0.9996 -0.027 0.027 0.9996 -4.0871 -13.8129)" fill="#3F3F3F" cx="-513.61" cy="144.461" rx="11.138" ry="13.542"/><ellipse transform="matrix(0.9996 -0.027 0.027 0.9996 -3.8632 -14.017)" fill="#FFFFFF" cx="-521.059" cy="136.068" rx="5.217" ry="5.637"/><path fill="#3F3F3F" d="M-435.426,145.983c-0.313,6.935-4.793,12.469-10.005,12.36c-5.212-0.109-9.183-5.818-8.87-12.753	c0.313-6.935,4.793-12.469,10.005-12.36C-439.083,133.339-435.112,139.048-435.426,145.983z"/><path fill="#71B200" d="M-486.361,171.094c0,0-3.044,27.048,5.798,26.801c8.842-0.247,8.376-13.195,8.319-13.35	C-472.3,184.39-486.361,171.094-486.361,171.094z"/><path fill="#FFFFFF" d="M-446.512,138.217c0.165,2.82-1.739,5.223-4.253,5.369c-2.514,0.145-4.687-2.022-4.852-4.842	c-0.165-2.82,1.739-5.223,4.253-5.369S-446.677,135.398-446.512,138.217z"/><path fill="#FFC200" d="M-492.348,185.884"/><path fill="#F49000" d="M-486.594,169.372c0,0-1.379,19.975,8.322,19.713c9.7-0.262,14.307-8.35,14.114-15.494	C-464.352,166.447-486.594,169.372-486.594,169.372z"/><path fill="#FFC200" d="M-472.333,157.187c7.057-0.191,12.593,7.856,12.812,15.959c0.219,8.103-6.179,16.559-8.358,16.618	c-2.178,0.059-18.612-14.407-18.784-20.768C-486.834,162.636-480.872,157.418-472.333,157.187z"/><ellipse transform="matrix(0.9996 0.0283 -0.0283 0.9996 4.3867 13.4125)" fill="#FFF3B8" cx="-472.449" cy="161.943" rx="4.689" ry="2.557"/><path fill="#71B200" d="M-435.356,246.971c1.626-3.881,2.908-7.326,4.026-9.94c2.504-6.818,4.594-13.837,6.34-20.807	c-0.861-1.323-0.399-3.524-1.9-3.483c-3.763,0.102-3.554,50.076-54.638,51.456c-50.4,1.361-44.602-41.701-44.67-44.209	c-0.068-2.509-0.425-3.069-1.109-3.051c-0.684,0.019-2.265,0.632-2.179,3.824c0.788,29.191-30.782,47.502-43.781,47.854	c-5.804,0.157-9.415-1.202-11.639-2.753c1.289,2.528,4.429,5.116,12.097,4.909c23.86-0.644,27.415-14.776,31.007-14.873	c3.592-0.097,13.428,34.555,51.741,33.52c32.904-0.889,46.579-23.749,53.822-40.377	C-435.966,248.371-435.674,247.684-435.356,246.971z"/><linearGradient id="SVGID_1_" gradientUnits="userSpaceOnUse" x1="-485.2842" y1="94.3145" x2="-485.2842" y2="165.7221"><stop offset="0" style="stop-color:#000000"/><stop offset="1" style="stop-color:#000000;stop-opacity:0.2"/></linearGradient><path fill="url(#SVGID_1_)" d="M-445.707,98.394c-4.935,1.728-11.159,2.974-19.616,2.953c-11.362-0.028-20.752-3.008-28.859-7.032	h-24.925l-32.99,4.919c-1.919,11.856-1.763,23.738-1.769,26.232c-0.013,5.287,0.815,11.332,0.784,23.753	c-0.005,1.946-0.837,5.509-2.232,10.202c-0.51,1.949-1.114,4.057-1.797,6.302c2.785-1.328,35.784-16.564,84.151-16.564	c43.482,0,54.194,8.331,56.343,10.666c0.196-3.23,0.312-5.939,0.38-7.994c-0.024-1.281,0.014-2.792,0.098-4.486v0	c0.504-10.113,2.626-26.695,2.68-39.341L-445.707,98.394z"/><path fill="#FFAD08" d="M-415.646,73.833c0,0,11.492-2.233,11.806-11.793c0.313-9.56-3.774-14.262-10.787-19.277	c-7.013-5.015,3.88-2.157,3.88-2.157s13.012,7.713,12.578,20.967s-14.055,19.623-17.068,20.207s-5.042-5.924-5.042-5.924	l4.087-1.932L-415.646,73.833z"/><path fill="#D33131" d="M-551.94,4.982c8.908,0.292,28.792,20.737,33.572,20.894c4.78,0.157,14.399-4.639,33.628-4.009	c19.229,0.63,23.572,4.144,28.461,4.305c13.362,0.438,2.777-21.66,14.618-21.271c11.841,0.388,19.717,12.283,22.819,17.17	c3.102,4.887,4.652,17.336,4.652,17.336l-1.229,4.31c0,0,5.4,7.79,5.15,15.394c-0.249,7.605-3.562,15.761-5.259,17.772	s-6.358,14.8-6.358,14.8l-25.902,7.198l-52.605-7.598l-32.046,15.48l-14.336,19.323l-8.557,25.494l-1.81,12.085	c0,0-26.115-29.422-25.306-54.083c0.239-7.279,2.541-7.856,3.519-7.824c2.716,0.089,2.841,2.921,5.991,3.024	c3.15,0.103,4.844-1.799,4.997-6.47c0.477-14.557-13.868-24.815-13.437-37.961c0.218-6.663,3.457-9.239,6.064-9.154	s3.544,4.684,6.586,4.784c3.042,0.1,4.276-1.056,4.511-8.226s0.476-17.82,0.476-17.82l2.532-4.267c0,0,1.532-0.276,1.678-4.73	s-2.962-5.861-2.823-10.098S-556.72,4.825-551.94,4.982z"/><path fill="#B72E2E" d="M-560.268,7.089L-560.268,7.089c-1.233,0.924-2.035,2.165-2.087,3.75c-0.139,4.237,2.969,5.644,2.823,10.098	s-1.678,4.73-1.678,4.73l-2.532,4.267c0,0-0.018,0.802-0.049,2.11l6.404,3.1c0,0,6.069,0.635,6.626-9.709	C-550.206,15.092-561.629,8.512-560.268,7.089z"/><path fill="#FF7C24" d="M-557.882,44.685c0,0-6.188,29.52,23.995,33.256c30.183,3.735,39.955,2.026,39.955,2.026l6.145-10.529	l-2.392-11.076l-15.034-14.69l-28.228-5.892l-18.812,3.443L-557.882,44.685z"/><path fill="#D98500" d="M-514.883,282.815c7.914,0.515,13.36,2.857,12.897,9.961s-10.263,7.82-15.389,7.487	c-5.126-0.334-10.621-3.311-10.287-8.437C-527.328,286.701-522.032,282.35-514.883,282.815z"/><circle fill="#FFFFFF" cx="-520.206" cy="68.664" r="17.717"/><circle fill="#511313" cx="-518.931" cy="69.576" r="11.45"/><path fill="#DB0B0B" d="M-527.96,74.065c0,0,18.289-18.251,44.97-9.401c26.681,8.85,20.383,15.169,20.383,15.169l-46.207,7.33	l-16.698-3.738L-527.96,74.065z"/><path fill="#FF7C24" d="M-415.42,43.715l1.229-4.31c0,0-0.08-0.64-0.238-1.682l-15.818,1.589l-18.091,7.782l-3.911,8.717	l0.636,11.421l11.008,13.766l23.086-0.332c0.786-1.772,1.508-3.214,1.99-3.786c1.697-2.011,5.01-10.167,5.259-17.772	C-410.02,51.505-415.42,43.715-415.42,43.715z"/><ellipse transform="matrix(0.9995 0.0328 -0.0328 0.9995 2.0524 14.1942)" fill="#FFFFFF" cx="-431.987" cy="69.708" rx="16.033" ry="16.956"/><ellipse transform="matrix(0.9995 0.0328 -0.0328 0.9995 2.1107 14.1685)" fill="#511313" cx="-431.175" cy="71.475" rx="10.515" ry="11.121"/><path fill="#DB0B0B" d="M-446.32,65.142c0,0,29.848,0.689,33.315,18.783c3.467,18.094-8.499,15.962-8.499,15.962l-19.828-14.426	l-0.615-12.201L-446.32,65.142z"/><path fill="#511313" d="M-560.131,24.399c-2.883-0.095-8.479,4.723-8.732,12.436s1.937,10.83,7.934,11.897	s20.598-3.131,38.849-2.533s26.886,9.219,28.25,17.384c1.364,8.165,12.085-0.401,12.085-0.401s-2.114-31.717-41.658-33.013	c-16.296-0.534-16.881,0.752-25.029,0.484c-8.148-0.267-13.986-3.856-12.778-4.987C-560.003,24.536-560.131,24.399-560.131,24.399z"/><path fill="#511313" d="M-458.082,61.24c0.199-6.084,0.946-25.526,36.447-33.606c5.264-1.35,2.793-5.564,2.793-5.564	s12.878,1.945,12.472,14.329c-0.207,6.301-5.623,7.946-8.702,7.845c-3.079-0.101-32.068-1.57-35.187,17.251	C-453.379,80.317-458.082,61.24-458.082,61.24z"/><path fill="#FFAD08" d="M-532.614,74.492c0,0-28.478,6.171-41.645-21.231c-2.357-3.847,5.985-26.086-8.128-38.457	c-1.972-1.691-5.918,1.383-3.592,3.417c8.63,8.766,7.533,15.69,7.491,16.994c-0.043,1.304-1.818,12.338-1.979,17.227	s5.888,29.375,44.128,30.629C-498.099,84.324-532.614,74.492-532.614,74.492z"/><path fill="#FF7C24" d="M-524.571,71.268c12.785,0.419,12.932,4.782,17.132,4.92c6.772,0.222,11.861-19.005,46.127-17.882	c23.854,0.782,34.123,25.915,38.143,26.046c4.889,0.16,6.545-3.918,15.344-3.63c8.8,0.289,12.572,11.288,12.572,11.288l1.405,6.898	l-1.996,17.77l-24.342,6.053l-59.75-8.593l-37.163,2.37l-24.189-5.252c0,0-1.396-17.12-1.236-22.009S-537.878,71.295-524.571,71.268	z"/><path fill="#ED7524" d="M-464.513,102.709c-52.75-15.072-21.896-40.467-21.896-40.467l0,0c-12.627,5.328-16.444,14.096-21.03,13.946	c-4.201-0.138-4.348-4.5-17.132-4.92c-13.307,0.027-17.792,13.091-17.952,17.98c-0.12,3.67,0.636,14.231,1.021,19.27l8.963,4.638	l0,0l17.976,3.191l34.627-2.209l10.804,1.554l6.973-0.786C-462.159,114.906-411.763,117.782-464.513,102.709z"/><ellipse transform="matrix(0.9995 0.0328 -0.0328 0.9995 2.9982 17.2993)" fill="#B74A00" cx="-526.24" cy="100.114" rx="12.295" ry="13.043"/><circle fill="#B74A00" cx="-407.644" cy="105.09" r="11.087"/><path fill="#FFBF0D" d="M-543.889,87.789c4.237,0.139,4.901,22.999,27.497,23.74c47.583,1.56,62.04-21.457,65.3-21.35	c3.259,0.107,12.433,22.158,39.049,23.031c0,0,16.021,2.265,16.791-21.2c2.281,0.075,3.975,4.807,3.697,13.28	c-0.278,8.474-5.314,29.407-17.482,29.008c-12.167-0.399-10.402-4.474-10.402-4.474s-5.975-0.196-9.647-0.969	s-18.463-4.085-25.23-3.329c-6.768,0.757-40.7,4.103-55.624,1.548c-14.924-2.556-21.136-5.478-21.136-5.478	s-12.714,2.991-26.066,42.067c-2.309-9.175-1.996-25.369-1.996-25.369S-557.351,97.027-543.889,87.789z"/><path fill="#7C3006" d="M-517.349,91.072c-0.518-0.16-1.06-0.262-1.625-0.28c-3.614-0.119-6.646,2.894-6.772,6.728	c-0.126,3.834,2.702,7.039,6.317,7.157c2.152,0.071,4.093-0.974,5.341-2.637c0.072-0.499,0.12-1.007,0.137-1.524	C-513.832,96.862-515.143,93.514-517.349,91.072z"/><path fill="#7C3006" d="M-415.778,97.56c-1.75,1.889-2.856,4.391-2.947,7.166c-0.058,1.763,0.301,3.443,0.986,4.947	c0.379,0.136,0.776,0.222,1.189,0.236c2.682,0.088,4.947-2.613,5.059-6.033C-411.385,100.614-413.276,97.883-415.778,97.56z"/><path fill="#FFFFFF" d="M-418.064,125.447c4.49,0.147,7.113,3.68,6.16,8.668s-5.494,17.454-11.36,17.262	c-3.839-0.126-3.714-1.717-3.683-2.658c0.031-0.942,2.17-4.279,2.458-13.042c0.178-5.432-1.821-6.377-1.821-6.377	S-423.64,125.265-418.064,125.447z"/><path fill="#71B200" d="M-470.891,212.74c-74.747,0-85.799-42.06-85.799-42.06s2.4,82.091,86.926,82.091	c15.557,0,28.051-5.688,37.603-13.731c0.288-0.712,0.564-1.386,0.831-2.009c5.051-13.755,8.422-28.335,10.673-41.654	C-427.258,203.807-441.243,212.74-470.891,212.74z"/><path fill="#FFFFFF" d="M-531.393,119.085c5.359,0.176,6.898,4.105,6.834,6.061c-0.064,1.955-4.078,20.457-11.9,20.2	c-5.142-0.169-2.777-5.964-2.618-10.816c0.159-4.852-0.327-5.521-0.26-7.549C-539.271,124.953-538.274,118.86-531.393,119.085z"/><path fill="#511313" d="M-448.297,242.495c0,0-1.802,17.766-16.493,20.467c2.535-11.069-0.53-24.769-0.53-24.769l9.372-3.699	l7.022,1.028L-448.297,242.495z"/><path fill="#511313" d="M-460.15,245.98c0,0-1.799,17.737-16.466,20.433c2.531-11.051-0.529-24.728-0.529-24.728l9.356-3.693	l7.011,1.026L-460.15,245.98z"/><path fill="#511313" d="M-465.377,241.625c0,0-1.799,17.737-16.466,20.433c2.531-11.051-0.529-24.728-0.529-24.728l9.356-3.693	l7.011,1.026L-465.377,241.625z"/><path fill="#511313" d="M-477.572,241.625c0,0-1.799,17.737-16.466,20.433c2.531-11.051-0.529-24.728-0.529-24.728l9.356-3.693	l7.011,1.026L-477.572,241.625z"/><path fill="#511313" d="M-486.409,234.149c0,0-1.785,17.6-16.339,20.275c2.512-10.965-0.525-24.537-0.525-24.537l9.284-3.664	l6.957,1.018L-486.409,234.149z"/><path fill="#F2721C" d="M-423.169,84.352c-1.481-0.049-3.813-3.494-7.359-7.863c2.301,2.896,1.624,8.074,1.514,9.23	c-0.11,1.156-1.463,4.81,1.496,5.233c2.959,0.423,3.688-4.486,8.246-7.406l0.001,0C-420.466,84.049-421.664,84.402-423.169,84.352z"/><path fill="#D33131" d="M-470.199,242.337c41.7,0,61.404-34.774,61.404-52.361c0-9.789-6.399-13.605-6.399-13.605	s0,32.022-56.133,32.022c-74.747,0-85.799-42.06-85.799-42.06S-554.725,242.337-470.199,242.337z"/><path fill="#B72E2E" d="M-413.734,176.707c-0.174,0.592-0.358,1.18-0.561,1.763c-0.648,2.579-1.311,5.151-2.462,7.585	c-0.387,0.817-1.223,1.22-2.09,1.259c-1.887,2.669-4.14,5.077-6.724,7.095c-1.123,0.877-2.447,0.702-3.386,0.056	c-7.78,6.693-21.152,12.447-44.149,12.447c-73.196,0-84.019-43.176-84.019-43.176s2.35,69.064,85.123,69.064	c40.835,0,63.976-26.74,63.976-44.794C-408.026,182.548-411.009,178.902-413.734,176.707z"/><path fill="#B72E2E" d="M-436.412,23.886c0.347-13.909-9.051-15.848-8.641-18.219c-6.239,3.86,0.52,20.889-11.227,20.503	c-0.667-0.022-1.324-0.108-2.009-0.238l0,0C-449.186,28.17-436.689,32.359-436.412,23.886z"/><path fill="#FFBF0D" d="M-470.199,222.705c41.7,0,65.331-22.831,65.331-38.246c0-8.58-10.325-11.925-10.325-11.925	s0,28.066-56.133,28.066c-74.747,0-85.799-36.864-85.799-36.864S-554.725,222.705-470.199,222.705z"/><path fill="#FFFFFF" d="M-439.177,203.812c4.435,0.81,7.757-2.097,7.884-7.191c0.126-5.094-1.677-18.284-7.471-19.343	c-3.791-0.693-4.007,0.894-4.177,1.824c-0.17,0.93,1.219,4.658-0.363,13.312c-0.98,5.365-3.142,5.867-3.142,5.867	S-444.685,202.806-439.177,203.812z"/><path fill="#FFFFFF" d="M-512.922,204.909c5.267,1.101,7.7-2.364,8.102-4.286c0.402-1.922,0.881-20.912-6.805-22.519	c-5.053-1.057-4.123,5.155-5.121,9.923c-0.997,4.769-1.629,5.305-2.046,7.298S-519.683,203.495-512.922,204.909z"/><circle fill="#FFFFFF" cx="-527.106" cy="62.513" r="3.902"/><circle fill="#FFFFFF" cx="-435.367" cy="62.078" r="3.304"/><path fill="#FFBF0D" d="M-417.694,171.094c0,0,3.268,4.636,0.187,9.172c-3.081,4.536,5.798,1.61,5.798,1.61l6.519,0.109	c0,0-2.595-10.444-11.941-14.964C-417.694,171.094-417.694,171.094-417.694,171.094z"/><polygon fill="#78C800" points="-101.907,170.06 -98.49,171.416 -95.657,176.583 -98.782,183.645 -105.49,181.333"/><path fill="#78C800" d="M-240.375,152.083v9.417l0.298,3.529l2.966,4.194l3.5-2.078c0,0,2.044,2.389,1.522-4.67	c-0.522-7.059,2.311-1.642-0.522-7.059c-2.833-5.417-2.833-5.417-2.833-5.417L-240.375,152.083z"/><ellipse fill="#E5E5E5" cx="-163.218" cy="293.986" rx="144.782" ry="15.802"/><path fill="#FFBF0D" d="M-272.19,227.482c-9.143,8.611-28.925,7.669-27.114,14.191c1.812,6.522,1.453,9.084-0.433,12.73	c-1.886,3.647,11.882,1.69,11.882,1.69l11.594-13.633L-272.19,227.482z"/><path fill="#FFBF0D" d="M-250.233,191.317c-5.521,9.124-19.453,9.269-19.453,14.342c0,3.841,3.933,1.812,3.933,8.551	s-2.724,9.125-2.724,9.125l3.449,3.012l13.116-6.34l6.014-17.898v-10.072L-250.233,191.317z"/><path fill="#D33131" d="M-244.574,178.389c0,0-13.136,32.559-25.112,46.4c-11.804,13.642-32.009,21.375-32.009,38.296	s21.956,26.564,48.261,26.564s133.26,0,133.26,0s-2.717,2.531-2.717,5.357s19.022,5.456,44.239,5.456s45.326-3.717,45.326-18.282	c0-14.565-14.937-27.197-57.686-27.197l-105.091-18.454l-36.244-22.609L-244.574,178.389z"/><path fill="#B72E2E" d="M-33.349,281.287c-0.003-0.075-0.007-0.151-0.011-0.226c-0.015-0.279-0.034-0.558-0.061-0.835	c-0.002-0.018-0.003-0.037-0.005-0.055c-0.029-0.297-0.067-0.593-0.109-0.888c-0.01-0.066-0.02-0.131-0.03-0.197	c-0.043-0.276-0.09-0.55-0.145-0.824c-0.004-0.021-0.007-0.042-0.012-0.062c-0.061-0.299-0.13-0.597-0.206-0.894	c-0.013-0.05-0.026-0.099-0.039-0.148c-0.074-0.281-0.154-0.561-0.241-0.839c-0.005-0.016-0.009-0.031-0.014-0.047	c-0.096-0.303-0.201-0.604-0.313-0.903c-0.011-0.03-0.023-0.059-0.034-0.088c-0.11-0.29-0.227-0.578-0.353-0.864	c-0.004-0.009-0.007-0.018-0.011-0.026c-0.135-0.305-0.278-0.608-0.431-0.91c-0.004-0.007-0.008-0.015-0.011-0.022	c-0.152-0.3-0.313-0.597-0.483-0.893c-0.001-0.003-0.003-0.005-0.004-0.008c-1.044-1.809-2.429-3.535-4.189-5.148l0,0	c1.16,1.454,2.195,3.652,2.195,6.871c0,11.449-24.638,12.174-30.507,12.174c-5.87,0-49.13-2.029-35.507-9.203	c20.942-11.739,31.811-5.725,31.811-9.638s-107.97-7.246-151.014-7.246c-43.043,0-55.217-13.188-55.217-20.942	c0-3.832,2.101-7.45,4.226-10.13c-11.82,11.04-27.632,18.819-27.632,33.788c0,16.921,21.956,26.564,48.261,26.564s133.26,0,133.26,0	s-2.717,2.531-2.717,5.357s19.022,5.456,44.239,5.456s45.326-3.717,45.326-18.282C-33.328,281.881-33.336,281.584-33.349,281.287z"/><path fill="#78C800" d="M-118.406,247.094c1.626-3.881,2.908-7.326,4.026-9.94c12.361-33.659,14.665-72.269,15.094-85.201	c-0.024-1.281,0.014-2.792,0.098-4.486v0l0,0c0.546-10.965,3.001-29.546,2.653-42.456c-0.067-2.48-0.852-18.891-9.319-18.662	c-12.743,0.344-15.41,12.483-42.263,13.208c-37.03,1-53.235-28.602-70.852-28.126c-23.433,0.633-17.898,66.125-17.593,77.414	c0.45,16.677-32.943,88.954-32.301,112.729c0.037,1.368-0.509,9.685,13.003,9.32c23.86-0.644,27.415-14.776,31.007-14.873	c3.592-0.097,13.428,34.555,51.741,33.521c32.904-0.889,46.579-23.749,53.822-40.377	C-119.016,248.495-118.724,247.807-118.406,247.094z"/><path fill="#D98500" d="M-143.628,278.894c7.208,0.342,6.581,8.139,6.552,8.739s-0.043,8.169-12.658,7.571	c-7.981-0.378-7.383-3.919-7.3-5.679C-156.95,287.766-152.767,278.46-143.628,278.894z"/><path fill="#8EE000" d="M-115.429,108.373c-4.028,0.109-4.947,2.214-6.411,0.953c-0.667-0.632,2.736-2.22,2.718-2.869	c-0.009-0.325-0.527-0.246-1.241-0.227c-4.223,0.114-12.373,6.511-13.542,6.543c-0.52,0.014-1.361,0.167-1.382-0.613	c-0.047-1.754,5.825-3.408,1.731-3.298c-4.093,0.111-9.993,5.536-16.296,5.707c-12.994,0.351-23.73-9.567-23.662-7.033	c0.025,0.91,1.558,2.299,2.581,4.092c0,0,0.658,2.713-0.474,1.703c-12.244-11.6-24.245-14.17-24.245-14.17s-0.91,0.025-0.899,0.414	c0.037,1.364,2.685,3.113,2.699,3.633s-0.302,0.853-0.822,0.867c-2.534,0.068-4.485-4.755-14.685-4.48	c-15.398,0.416-18.985,24.765-18.449,44.646c0.761,28.197,19.149,36.667,34.158,36.262c11.904-0.321,24.457-7.682,29.512-18.13	l15.873,0.779c0,0,8.163,14.508,22.132,14.131c13.108-0.354,24.286-8.957,23.509-37.723	C-103.439,109.35-111.401,108.264-115.429,108.373z"/><path fill="#FFC200" d="M-175.398,186.008"/><path fill="#FFC200" d="M-175.398,186.008"/><path fill="#71B200" d="M-118.406,247.094c1.626-3.881,2.908-7.326,4.026-9.94c2.504-6.818,4.594-13.837,6.34-20.807	c-0.861-1.323-0.399-3.524-1.9-3.483c-3.763,0.102-3.554,50.076-54.638,51.456c-50.4,1.361-44.602-41.701-44.67-44.209	c-0.068-2.509-0.425-3.069-1.109-3.051c-0.684,0.019-2.265,0.632-2.179,3.824c0.788,29.191-30.782,47.502-43.781,47.854	c-5.804,0.157-9.415-1.202-11.639-2.753c1.289,2.528,4.429,5.116,12.097,4.909c23.86-0.644,27.415-14.776,31.007-14.873	c3.592-0.097,13.428,34.555,51.741,33.521c32.904-0.889,46.579-23.749,53.822-40.377	C-119.016,248.495-118.724,247.807-118.406,247.094z"/><g><ellipse transform="matrix(0.9998 -0.0176 0.0176 0.9998 -2.5813 -3.4334)" fill="#FFFFFF" cx="-195.961" cy="144.642" rx="20.138" ry="24.485"/><path fill="#FFFFFF" d="M-110.679,146.956c-0.42,11.975-8.141,21.563-17.245,21.414s-16.145-9.978-15.725-21.953 s8.141-21.563,17.245-21.414S-110.259,134.98-110.679,146.956z"/><ellipse transform="matrix(0.9998 -0.0176 0.0176 0.9998 -2.5815 -3.4407)" fill="#3F3F3F" cx="-196.375" cy="144.649" rx="11.062" ry="13.45"/><ellipse transform="matrix(0.9998 -0.0176 0.0176 0.9998 -2.4344 -3.5711)" fill="#FFFFFF" cx="-203.695" cy="136.245" rx="5.181" ry="5.598"/><path fill="#3F3F3F" d="M-118.114,147.087c-0.375,7.043-4.861,12.622-10.021,12.463s-9.037-5.998-8.662-13.04 c0.375-7.043,4.861-12.622,10.021-12.463S-117.739,140.045-118.114,147.087z"/><path fill="#FFFFFF" d="M-129.017,139.093c0.137,2.866-1.77,5.29-4.261,5.414c-2.491,0.124-4.621-2.099-4.758-4.965 s1.77-5.29,4.261-5.414C-131.285,134.004-129.155,136.227-129.017,139.093z"/><path fill="#8EE000" d="M-190.31,124.527c3.289,0,6.008,0.84,8.104,1.863c-3.772-3.103-8.327-4.889-13.21-4.802 c-12.055,0.213-21.725,11.722-22.359,26.119C-213.677,130.871-199.282,124.527-190.31,124.527z"/><path fill="#8EE000" d="M-127.323,124.717c-3.253-0.053-6.348,0.999-9.075,2.886c1.023-0.399,2.182-0.684,3.427-0.684 c9.491,0,21.959,8.365,21.959,23.567c0,3.633-0.272,6.94-0.77,9.521c1.279-3.179,2.059-6.751,2.191-10.535 C-109.117,135.969-117.056,124.885-127.323,124.717z"/><path fill="#8EE000" d="M-218.579,145.858l1.997-3.709l1.712-4.565l2.711-4.565l4.993-4.993l5.849-2.425l8.56-2.996l3.852,1.141 l2.425,0.713l2.283,0.713l2.853-1.712c0,0-11.841-7.561-12.412-8.132c-0.571-0.571-11.984-2.996-13.553-2.711 c-1.569,0.285-10.272,6.848-10.272,6.848l-4.28,14.266c0,0-0.285,7.989,0,8.417C-221.575,142.577-218.579,145.858-218.579,145.858z"/><path fill="#8EE000" d="M-138.118,124.887l5.278,0.999l6.42,1.855l5.706,1.712l3.995,2.568l2.283,3.995 c0,0,1.141,3.567,1.427,3.995s1.427,2.996,1.712,3.424c0.285,0.428,0.856,4.708,0.856,4.708s-0.285,4.708,0.143,4.993 c0.428,0.285,2.14-0.143,2.568-2.283c0.428-2.14,0.713-9.13,0.856-10.842s-0.571-8.845-1.141-10.414 c-0.571-1.569-3.709-6.277-4.708-7.704s-10.557-4.422-10.985-4.565c-0.428-0.143-7.418,0.571-8.56,0.856 c-1.141,0.285-5.706,5.564-5.706,5.564l-0.713,1.569"/><path fill="#2199EA" d="M-175.792,172.391c0,4.164-2.349,6.606-5.246,6.606s-5.246-2.443-5.246-6.606s2.953-9.793,5.246-11.27 C-178.746,162.754-175.792,168.228-175.792,172.391z"/><ellipse transform="matrix(0.9628 0.2702 -0.2702 0.9628 38.4292 55.5673)" fill="#27C2FF" cx="-182.626" cy="167.373" rx="1.364" ry="2.663"/></g><linearGradient id="SVGID_2_" gradientUnits="userSpaceOnUse" x1="-168.3337" y1="94.438" x2="-168.3337" y2="165.8456"><stop offset="0" style="stop-color:#000000"/><stop offset="1" style="stop-color:#000000;stop-opacity:0.2"/></linearGradient><path fill="url(#SVGID_2_)" d="M-128.757,98.518c-4.935,1.728-11.159,2.974-19.616,2.953c-11.362-0.028-20.752-3.008-28.859-7.032	h-24.925l-32.99,4.919c-1.919,11.856-1.763,23.738-1.769,26.232c-0.013,5.287,0.815,11.332,0.784,23.753	c-0.005,1.946-0.837,5.509-2.232,10.202c-0.51,1.949-1.114,4.057-1.797,6.302c2.785-1.328,35.784-16.564,84.151-16.564	c43.482,0,54.194,8.331,56.343,10.666c0.196-3.23,0.312-5.939,0.38-7.994c-0.024-1.281,0.014-2.792,0.098-4.486v0	c0.504-10.113,2.626-26.695,2.68-39.341L-128.757,98.518z"/><path fill="#FFAD08" d="M-98.696,73.956c0,0,11.492-2.233,11.806-11.793s-3.774-14.262-10.787-19.277	c-7.013-5.015,3.88-2.157,3.88-2.157s13.012,7.713,12.578,20.967c-0.435,13.254-14.055,19.623-17.068,20.207	c-3.013,0.585-5.042-5.924-5.042-5.924l4.087-1.932L-98.696,73.956z"/><path fill="#D33131" d="M-234.99,5.105c8.908,0.292,28.792,20.737,33.572,20.894c4.78,0.157,14.399-4.639,33.628-4.009	c19.229,0.63,23.572,4.144,28.461,4.305c13.362,0.438,2.777-21.66,14.618-21.271c11.841,0.388,19.717,12.283,22.819,17.17	s4.652,17.336,4.652,17.336l-1.229,4.31c0,0,5.4,7.79,5.15,15.394s-3.562,15.761-5.259,17.772s-6.358,14.8-6.358,14.8l-25.902,7.198	l-52.605-7.598l-32.046,15.48l-14.337,19.323l-8.557,25.494l-1.81,12.085c0,0-26.115-29.422-25.306-54.083	c0.239-7.279,2.541-7.856,3.519-7.824c2.716,0.089,2.841,2.921,5.991,3.024c3.15,0.103,4.844-1.799,4.997-6.47	c0.477-14.557-13.868-24.815-13.437-37.961c0.218-6.663,3.457-9.239,6.064-9.154c2.607,0.085,3.544,4.684,6.586,4.784	s4.276-1.056,4.511-8.226c0.235-7.17,0.476-17.82,0.476-17.82l2.532-4.267c0,0,1.532-0.276,1.678-4.73s-2.962-5.861-2.823-10.098	C-245.266,6.726-239.77,4.948-234.99,5.105z"/><path fill="#B72E2E" d="M-243.318,7.213L-243.318,7.213c-1.233,0.924-2.035,2.165-2.087,3.75c-0.139,4.237,2.969,5.644,2.823,10.098	s-1.678,4.73-1.678,4.73l-2.532,4.267c0,0-0.018,0.802-0.049,2.11l6.404,3.1c0,0,6.069,0.635,6.626-9.709	C-233.255,15.215-244.679,8.635-243.318,7.213z"/><path fill="#FF7C24" d="M-240.932,44.808c0,0-6.188,29.52,23.995,33.256c30.183,3.735,39.955,2.026,39.955,2.026l6.145-10.529	l-2.392-11.076l-15.034-14.69l-28.228-5.892l-18.812,3.443L-240.932,44.808z"/><path fill="#D98500" d="M-197.932,282.939c7.914,0.516,13.36,2.857,12.897,9.961c-0.463,7.104-10.263,7.82-15.389,7.487	c-5.126-0.334-10.621-3.311-10.287-8.437S-205.082,282.473-197.932,282.939z"/><circle fill="#FFFFFF" cx="-203.256" cy="68.788" r="17.717"/><circle fill="#511313" cx="-201.981" cy="69.699" r="11.45"/><path fill="#DB0B0B" d="M-211.009,74.189c0,0,18.289-18.251,44.97-9.401s20.383,15.169,20.383,15.169l-46.207,7.33l-16.698-3.738	L-211.009,74.189z"/><path fill="#FF7C24" d="M-98.469,43.839l1.229-4.31c0,0-0.08-0.64-0.238-1.682l-15.818,1.589l-18.091,7.782l-3.911,8.717	l0.636,11.421l11.008,13.766l23.086-0.332c0.786-1.772,1.508-3.214,1.99-3.786c1.697-2.011,5.01-10.167,5.259-17.772	S-98.469,43.839-98.469,43.839z"/><ellipse transform="matrix(0.9995 0.0328 -0.0328 0.9995 2.2267 3.8074)" fill="#FFFFFF" cx="-115.036" cy="69.831" rx="16.033" ry="16.956"/><ellipse transform="matrix(0.9995 0.0328 -0.0328 0.9995 2.285 3.7817)" fill="#511313" cx="-114.224" cy="71.598" rx="10.515" ry="11.121"/><path fill="#DB0B0B" d="M-129.369,65.265c0,0,29.848,0.689,33.315,18.783c3.467,18.094-8.499,15.962-8.499,15.962l-19.828-14.426	l-0.615-12.201L-129.369,65.265z"/><path fill="#511313" d="M-243.181,24.523c-2.883-0.095-8.479,4.723-8.732,12.436c-0.253,7.713,1.937,10.83,7.934,11.897	s20.598-3.131,38.849-2.533s26.886,9.219,28.25,17.384s12.085-0.401,12.085-0.401s-2.114-31.717-41.658-33.013	c-16.296-0.534-16.881,0.752-25.029,0.484s-13.986-3.856-12.778-4.987S-243.181,24.523-243.181,24.523z"/><path fill="#511313" d="M-141.132,61.363c0.199-6.084,0.946-25.526,36.447-33.606c5.264-1.35,2.793-5.564,2.793-5.564	s12.878,1.945,12.472,14.329c-0.207,6.301-5.623,7.946-8.702,7.845c-3.079-0.101-32.068-1.57-35.187,17.251	C-136.428,80.44-141.132,61.363-141.132,61.363z"/><path fill="#FFAD08" d="M-215.663,74.616c0,0-28.478,6.171-41.645-21.231c-2.357-3.847,5.985-26.086-8.128-38.457	c-1.972-1.691-5.918,1.383-3.592,3.417c8.63,8.766,7.533,15.69,7.491,16.994c-0.043,1.304-1.818,12.338-1.979,17.227	c-0.16,4.889,5.888,29.375,44.128,30.629C-181.148,84.448-215.663,74.616-215.663,74.616z"/><path fill="#FF7C24" d="M-207.62,71.392c12.785,0.419,12.932,4.782,17.132,4.92c6.772,0.222,11.861-19.005,46.127-17.882	c23.854,0.782,34.123,25.915,38.143,26.046c4.889,0.16,6.545-3.918,15.344-3.63c8.8,0.289,12.572,11.288,12.572,11.288l1.405,6.898	l-1.996,17.77l-24.342,6.053l-59.75-8.593l-37.163,2.37l-24.189-5.252c0,0-1.396-17.12-1.236-22.009S-220.927,71.419-207.62,71.392z"/><path fill="#ED7524" d="M-147.562,102.833c-52.75-15.072-21.896-40.467-21.896-40.467l0,0c-12.627,5.328-16.444,14.096-21.03,13.946	c-4.201-0.138-4.348-4.5-17.132-4.92c-13.307,0.027-17.792,13.091-17.952,17.98c-0.12,3.67,0.636,14.231,1.021,19.27l8.963,4.638h0	l17.976,3.191l34.627-2.209l10.804,1.554l6.973-0.786C-145.208,115.03-94.813,117.905-147.562,102.833z"/><ellipse transform="matrix(0.9995 0.0328 -0.0328 0.9995 3.1725 6.9125)" fill="#B74A00" cx="-209.29" cy="100.237" rx="12.295" ry="13.043"/><circle fill="#B74A00" cx="-90.694" cy="105.213" r="11.087"/><path fill="#FFBF0D" d="M-226.939,87.913c4.237,0.139,4.901,22.999,27.497,23.74c47.583,1.56,62.04-21.457,65.3-21.35	c3.259,0.107,12.433,22.158,39.049,23.031c0,0,16.021,2.265,16.791-21.2c2.281,0.075,3.975,4.807,3.697,13.28	c-0.278,8.474-5.314,29.407-17.482,29.008s-10.402-4.474-10.402-4.474s-5.975-0.196-9.647-0.969	c-3.672-0.773-18.463-4.085-25.23-3.329s-40.7,4.103-55.624,1.548c-14.924-2.556-21.136-5.478-21.136-5.478	s-12.713,2.991-26.066,42.067c-2.309-9.175-1.996-25.369-1.996-25.369S-240.401,97.151-226.939,87.913z"/><path fill="#7C3006" d="M-200.399,91.195c-0.518-0.16-1.06-0.262-1.625-0.28c-3.614-0.119-6.646,2.894-6.772,6.728	s2.702,7.039,6.317,7.157c2.152,0.071,4.093-0.974,5.341-2.637c0.072-0.499,0.12-1.007,0.137-1.524	C-196.881,96.985-198.193,93.637-200.399,91.195z"/><path fill="#7C3006" d="M-98.828,97.684c-1.75,1.889-2.856,4.391-2.947,7.166c-0.058,1.763,0.301,3.443,0.986,4.947	c0.379,0.136,0.776,0.222,1.189,0.236c2.682,0.088,4.947-2.613,5.059-6.033C-94.434,100.738-96.326,98.006-98.828,97.684z"/><path fill="#FFFFFF" d="M-101.113,125.571c4.49,0.147,7.113,3.68,6.16,8.668s-5.494,17.454-11.36,17.262	c-3.838-0.126-3.714-1.717-3.683-2.658c0.031-0.942,2.17-4.279,2.458-13.042c0.178-5.432-1.821-6.377-1.821-6.377	S-106.69,125.388-101.113,125.571z"/><path fill="#71B200" d="M-153.941,212.863c-74.747,0-85.799-42.06-85.799-42.06s2.4,82.091,86.926,82.091	c15.557,0,28.051-5.688,37.603-13.731c0.288-0.712,0.564-1.386,0.831-2.009c5.051-13.755,8.422-28.335,10.673-41.654	C-110.307,203.93-124.293,212.863-153.941,212.863z"/><path fill="#FFFFFF" d="M-214.443,119.209c5.359,0.176,6.898,4.105,6.834,6.061s-4.078,20.457-11.9,20.2	c-5.142-0.169-2.777-5.964-2.618-10.816c0.159-4.852-0.326-5.521-0.26-7.549C-222.321,125.077-221.323,118.983-214.443,119.209z"/><path fill="#511313" d="M-131.346,242.618c0,0-1.802,17.766-16.493,20.467c2.535-11.069-0.53-24.769-0.53-24.769l9.372-3.699	l7.022,1.028L-131.346,242.618z"/><path fill="#511313" d="M-143.2,246.104c0,0-1.799,17.737-16.466,20.433c2.531-11.051-0.529-24.728-0.529-24.728l9.356-3.693	l7.011,1.026L-143.2,246.104z"/><path fill="#511313" d="M-148.426,241.748c0,0-1.799,17.737-16.466,20.433c2.531-11.051-0.529-24.728-0.529-24.728l9.356-3.693	l7.011,1.026L-148.426,241.748z"/><path fill="#511313" d="M-160.622,241.748c0,0-1.799,17.737-16.466,20.433c2.531-11.051-0.529-24.728-0.529-24.728l9.356-3.693	l7.011,1.026L-160.622,241.748z"/><path fill="#511313" d="M-169.459,234.273c0,0-1.785,17.6-16.338,20.275c2.512-10.965-0.525-24.537-0.525-24.537l9.284-3.664	l6.957,1.018L-169.459,234.273z"/><path fill="#F2721C" d="M-106.218,84.476c-1.481-0.049-3.813-3.494-7.359-7.863c2.301,2.896,1.624,8.074,1.514,9.23	c-0.11,1.156-1.463,4.81,1.496,5.233c2.959,0.423,3.688-4.486,8.246-7.406l0.001,0C-103.516,84.173-104.714,84.525-106.218,84.476z"/><path fill="#D33131" d="M-153.248,242.46c41.7,0,61.404-34.774,61.404-52.361c0-9.789-6.399-13.605-6.399-13.605	s0,32.022-56.133,32.022c-74.747,0-85.799-42.06-85.799-42.06S-237.775,242.46-153.248,242.46z"/><path fill="#B72E2E" d="M-96.784,176.831c-0.174,0.592-0.358,1.18-0.561,1.763c-0.648,2.579-1.311,5.151-2.462,7.585	c-0.387,0.817-1.223,1.22-2.09,1.259c-1.887,2.669-4.14,5.077-6.724,7.095c-1.123,0.877-2.447,0.702-3.386,0.056	c-7.78,6.693-21.152,12.447-44.149,12.447c-73.196,0-84.019-43.175-84.019-43.175s2.35,69.064,85.123,69.064	c40.835,0,63.976-26.74,63.976-44.794C-91.076,182.671-94.058,179.026-96.784,176.831z"/><path fill="#71B200" d="M-91.24,187.333c0,0.25,5.955,15.667,5.852,27.833c-0.102,12.167-10.769,3.75-10.769,3.75l-11-14.846	l9.583-15.541L-91.24,187.333z"/><path fill="#B72E2E" d="M-119.461,24.01c0.347-13.909-9.051-15.848-8.641-18.219c-6.239,3.86,0.52,20.889-11.227,20.503	c-0.667-0.022-1.324-0.108-2.009-0.238l0,0C-132.235,28.293-119.739,32.482-119.461,24.01z"/><path fill="#FFBF0D" d="M-153.248,222.828c41.7,0,65.331-22.831,65.331-38.246c0-8.58-10.325-11.925-10.325-11.925	s0,28.066-56.133,28.066c-74.747,0-85.799-36.864-85.799-36.864S-237.775,222.828-153.248,222.828z"/><path fill="#FFFFFF" d="M-195.972,205.033c5.267,1.101,7.7-2.364,8.102-4.286c0.402-1.922,0.881-20.912-6.805-22.519	c-5.053-1.057-4.123,5.155-5.121,9.923c-0.997,4.769-1.629,5.305-2.046,7.298C-202.258,197.441-202.733,203.619-195.972,205.033z"/><circle fill="#FFFFFF" cx="-210.155" cy="62.636" r="3.902"/><circle fill="#FFFFFF" cx="-118.417" cy="62.201" r="3.304"/><path fill="#FFBF0D" d="M-100.743,171.217c0,0,3.268,4.636,0.187,9.172c-3.081,4.536,5.798,1.61,5.798,1.61l6.519,0.109	c0,0-2.595-10.444-11.941-14.964C-100.743,171.217-100.743,171.217-100.743,171.217z"/><path fill="#71B200" d="M-169.514,169.747c0,0-2.431,27.701,7.695,27.972c10.126,0.271,9.085-13.104,9.014-13.266	S-169.514,169.747-169.514,169.747z"/><path fill="#F49000" d="M-168.935,168.599c0,0-1.554,19.808,8.074,19.638c9.628-0.17,14.273-8.152,14.148-15.244	S-168.935,168.599-168.935,168.599z"/><path fill="#FFC200" d="M-154.934,156.162c6.901,0,12.626,7.65,12.626,15.889s-6.099,16.477-8.185,16.477	c-2.086,0-8.239-16.263-18.885-16.263c-0.963,0-1.123-0.428-1.123-0.963C-170.502,170.767-170.288,156.162-154.934,156.162z"/><ellipse transform="matrix(0.9993 0.0376 -0.0376 0.9993 5.9592 5.9374)" fill="#FFF3B8" cx="-154.831" cy="161.358" rx="4.653" ry="2.537"/><path fill="#78C800" d="M-106.514,187.874L-106.514,187.874c-5.268-4.548-15.324-12.358-22.26-12.358	c-9.784,0-9.681,18.498-9.523,31.358c0.158,12.86,12.181,37.87,29.348,37.87c15.701,0,23.561-14.904,23.561-28.283	S-106.514,187.874-106.514,187.874z"/><path fill="#71B200" d="M-107.258,244.679c0.365-0.026,0.728-0.056,1.084-0.099c0.076-0.009,0.151-0.021,0.227-0.03	c0.402-0.052,0.8-0.111,1.19-0.183c0.012-0.002,0.025-0.005,0.037-0.007c9.99-1.87,16.105-10.33,18.351-19.685	c-3.686,7.665-10.583,13.069-20.579,13.069c-17.167,0-29.19-25.009-29.348-37.87c-0.075-6.082-0.135-13.422,0.854-19.472	c-0.184,0.385-0.355,0.789-0.516,1.209c-0.01,0.026-0.021,0.052-0.031,0.078c-0.326,0.859-0.609,1.785-0.853,2.765	c-0.001,0.005-0.002,0.01-0.004,0.016c-0.122,0.491-0.234,0.995-0.337,1.51c-0.002,0.008-0.003,0.015-0.005,0.022	c-0.207,1.038-0.378,2.124-0.519,3.243c-0.003,0.02-0.005,0.039-0.007,0.059c-0.208,1.664-0.35,3.399-0.444,5.16	c-0.003,0.049-0.005,0.097-0.008,0.146c-0.061,1.167-0.102,2.344-0.128,3.517c0,0.016-0.001,0.032-0.001,0.049	c-0.012,0.549-0.02,1.098-0.026,1.644c-0.001,0.082-0.002,0.163-0.003,0.245c-0.011,1.125-0.011,2.239-0.005,3.33	c0.001,0.111,0.001,0.222,0.002,0.332c0.003,0.433,0.006,0.862,0.01,1.286c0.001,0.13,0.002,0.261,0.004,0.39	c0.005,0.496,0.011,0.989,0.017,1.471c0.158,12.86,12.181,37.87,29.348,37.87c0.47,0,0.931-0.015,1.387-0.041	C-107.46,244.697-107.36,244.686-107.258,244.679z"/><ellipse fill="#E5E5E5" cx="154.203" cy="295.043" rx="146.203" ry="15.957"/><path fill="#FFBF0D" d="M44.161,227.886c-9.233,8.696-29.209,7.744-27.38,14.33s1.468,9.173-0.437,12.855	c-1.905,3.682,11.999,1.707,11.999,1.707l11.708-13.767L44.161,227.886z"/><path fill="#FFBF0D" d="M66.334,191.366c-5.575,9.214-19.644,9.36-19.644,14.482c0,3.878,3.971,1.829,3.971,8.635	c0,6.805-2.751,9.215-2.751,9.215l3.483,3.042l13.245-6.403l6.073-18.074v-10.171L66.334,191.366z"/><path fill="#D33131" d="M72.048,178.311c0,0-13.265,32.879-25.359,46.855c-11.92,13.776-32.323,21.585-32.323,38.672	c0,17.087,22.172,26.825,48.734,26.825s134.568,0,134.568,0s-2.744,2.556-2.744,5.409c0,2.854,19.208,5.51,44.673,5.51	s45.771-3.753,45.771-18.461c0-14.708-15.084-27.464-58.252-27.464l-106.123-18.636l-36.599-22.83L72.048,178.311z"/><path opacity="0.2" fill="#353535" d="M285.347,282.22c-0.003-0.076-0.007-0.152-0.011-0.228c-0.015-0.282-0.035-0.563-0.061-0.843	c-0.002-0.018-0.003-0.037-0.005-0.056c-0.029-0.3-0.067-0.599-0.111-0.896c-0.01-0.066-0.02-0.133-0.03-0.199	c-0.043-0.278-0.091-0.556-0.146-0.832c-0.004-0.021-0.008-0.042-0.012-0.063c-0.062-0.302-0.132-0.603-0.208-0.902	c-0.013-0.05-0.026-0.1-0.039-0.15c-0.075-0.284-0.155-0.566-0.243-0.847c-0.005-0.016-0.009-0.031-0.014-0.047	c-0.097-0.306-0.203-0.61-0.316-0.912c-0.011-0.03-0.023-0.059-0.034-0.089c-0.111-0.293-0.23-0.584-0.357-0.873	c-0.004-0.009-0.008-0.018-0.011-0.027c-0.136-0.308-0.281-0.614-0.435-0.919c-0.004-0.007-0.008-0.015-0.011-0.022	c-0.154-0.303-0.316-0.603-0.488-0.901c-0.001-0.003-0.003-0.005-0.004-0.008c-1.054-1.827-2.453-3.569-4.23-5.199l0,0	c1.171,1.468,2.216,3.688,2.216,6.939c0,11.562-24.879,12.293-30.806,12.293s-49.612-2.049-35.856-9.293	c21.147-11.854,32.124-5.781,32.124-9.732s-109.03-7.317-152.496-7.317s-55.759-13.318-55.759-21.147	c0-3.87,2.121-7.523,4.268-10.229c-11.936,11.149-27.903,19.004-27.903,34.12c0,17.087,22.172,26.825,48.734,26.825	s134.568,0,134.568,0s-2.744,2.556-2.744,5.409c0,2.854,19.208,5.51,44.673,5.51s45.771-3.753,45.771-18.461	C285.368,282.819,285.359,282.519,285.347,282.22z"/><path fill="#999999" d="M175.935,280.424c7.243,0.411,6.539,8.243,6.504,8.847c-0.034,0.604-0.12,8.211-12.795,7.491	c-8.019-0.455-7.385-4.009-7.284-5.777C162.46,289.218,166.752,279.903,175.935,280.424z"/><path fill="#DDDDDD" d="M99.052,71.734c17.882,0.045,34.251,28.815,69.676,28.904c27.374,0.068,31.475-13.142,43.933-13.111	c10.339,0.026,9.273,19.854,9.27,21.041c-0.026,10.339-4.008,43.975-4.016,47.195c-0.04,16.017,12.464,65.373,12.421,82.577	c-0.06,24.153-12.459,34.377-24.493,34.347c-9.153-0.023-10.819-11.722-13.107-11.728c-2.288-0.006-12.448,29.801-50.924,29.704	s-45.849-34.099-50.679-34.111c-3.898-0.01-6.732,14.56-31.648,14.498c-13.899-0.035-12.776-8.507-12.772-10.202	c0.051-20.509,33.809-99.326,33.84-111.869s-0.801-18.647-0.788-23.986C79.779,119.654,79.051,71.684,99.052,71.734z"/><path fill="#BCBCBC" d="M227.116,256.853c-0.407,0.164-0.863,0.262-1.376,0.261c-2.938-0.007-8.259-41.152-16.734-41.173	c-5.424-0.014-6.225,49.478-58.092,49.348c-53.9-0.135-40.56-47.674-44.967-47.685c-3.277-0.008-9.393,50.713-49.394,50.613	c-6.627-0.017-9.014-3.146-9.853-5.768c0.126,3.015,1.533,8.572,12.784,8.6c24.916,0.062,27.749-14.508,31.648-14.498	c4.831,0.012,12.204,34.015,50.679,34.111s48.635-29.71,50.924-29.704c2.288,0.006,3.954,11.705,13.107,11.728	C214.156,272.707,222.643,267.832,227.116,256.853z"/><path fill="#999999" d="M121.308,283.98c7.95,0.593,13.403,2.998,12.871,10.135c-0.532,7.137-10.39,7.765-15.539,7.381	c-5.149-0.384-10.646-3.428-10.262-8.578C108.762,287.768,114.126,283.444,121.308,283.98z"/><path fill="#FFC200" d="M141.557,186.751"/><linearGradient id="SVGID_3_" gradientUnits="userSpaceOnUse" x1="149.1199" y1="90.9744" x2="149.1199" y2="163.1867"><stop offset="0" style="stop-color:#000000"/><stop offset="1" style="stop-color:#000000;stop-opacity:0.2"/></linearGradient><path opacity="0.44" fill="url(#SVGID_3_)" d="M76.289,163.186L76.289,163.186c0,0.001,33.956-16.829,84.765-16.829	c50.808,0,57.085,11.378,57.086,11.379c-0.149-1.707-0.23-3.232-0.227-4.534c0.008-3.22,3.99-36.856,4.016-47.195	c0-0.118,0.011-0.425,0.02-0.876l-33.514-10.036c-4.958,1.745-11.212,3.003-19.709,2.982c-11.416-0.029-20.85-3.037-28.996-7.102	h-25.043l-33.146,4.967c-1.928,11.972-1.771,23.971-1.777,26.489c-0.013,5.339,0.819,11.443,0.788,23.986	C80.546,149.199,78.878,155.244,76.289,163.186z"/><path fill="#FFAD08" d="M219.359,72.853c0,0,11.605-2.255,11.922-11.909c0.317-9.654-3.811-14.402-10.893-19.466	s3.918-2.178,3.918-2.178s13.14,7.789,12.701,21.173c-0.439,13.384-14.193,19.815-17.236,20.406s-5.092-5.982-5.092-5.982	l4.127-1.951L219.359,72.853z"/><path fill="#D33131" d="M81.727,3.327c8.996,0.295,29.075,20.941,33.902,21.099c4.827,0.158,14.54-4.685,33.958-4.048	c19.417,0.637,23.804,4.185,28.74,4.347c13.493,0.442,2.804-21.872,14.761-21.48s19.91,12.404,23.043,17.338	s4.697,17.506,4.697,17.506l-1.241,4.352c0,0,5.453,7.866,5.201,15.545c-0.252,7.679-3.597,15.916-5.311,17.946	c-1.714,2.03-6.42,14.945-6.42,14.945l-26.156,7.269l-53.121-7.672l-32.361,15.632l-14.477,19.513L78.3,151.363l-1.828,12.203	c0,0-26.371-29.711-25.555-54.613c0.241-7.35,2.566-7.933,3.554-7.9c2.743,0.09,2.868,2.949,6.05,3.054	c3.181,0.104,4.892-1.816,5.046-6.534c0.482-14.7-14.004-25.059-13.569-38.333c0.221-6.728,3.491-9.33,6.124-9.244	c2.633,0.086,3.579,4.73,6.651,4.831c3.072,0.101,4.318-1.066,4.555-8.307s0.48-17.995,0.48-17.995l2.557-4.309	c0,0,1.547-0.279,1.694-4.777c0.147-4.498-2.991-5.919-2.85-10.197C71.35,4.963,76.9,3.168,81.727,3.327z"/><path opacity="0.2" fill="#353535" d="M73.317,5.455L73.317,5.455c-1.246,0.933-2.055,2.186-2.108,3.786	c-0.14,4.278,2.998,5.699,2.85,10.197c-0.147,4.498-1.694,4.777-1.694,4.777l-2.557,4.309c0,0-0.018,0.81-0.05,2.13l6.466,3.131	c0,0,6.129,0.641,6.691-9.804C83.478,13.536,71.943,6.892,73.317,5.455z"/><path fill="#FF7C24" d="M75.726,43.42c0,0-6.249,29.81,24.231,33.582s40.347,2.045,40.347,2.045l6.206-10.632l-2.415-11.185	l-15.181-14.834l-28.505-5.95l-18.997,3.477L75.726,43.42z"/><circle fill="#FFFFFF" cx="113.772" cy="67.634" r="17.891"/><circle fill="#511313" cx="115.06" cy="68.555" r="11.562"/><path fill="#DB0B0B" d="M105.943,73.088c0,0,18.468-18.43,45.411-9.493s20.583,15.318,20.583,15.318l-46.66,7.402l-16.862-3.774	L105.943,73.088z"/><path fill="#FF7C24" d="M219.587,42.441l1.241-4.352c0,0-0.081-0.647-0.241-1.698l-15.973,1.605l-18.268,7.858l-3.949,8.803	l0.643,11.533l11.116,13.901l23.312-0.335c0.794-1.789,1.523-3.246,2.01-3.823c1.714-2.03,5.059-10.267,5.311-17.946	C225.04,50.307,219.587,42.441,219.587,42.441z"/><path opacity="0.14" d="M140.407,68.211c1.377,8.245,12.203-0.405,12.203-0.405s-2.135-32.028-42.066-33.337	c-16.455-0.54-17.047,0.759-25.275,0.489c-8.228-0.27-14.123-3.894-12.904-5.036c1.219-1.142,1.09-1.28,1.09-1.28	c-1.012-0.033-2.355,0.534-3.687,1.614c-0.079,3.333-0.261,10.797-0.44,16.262c-0.079,2.424-0.273,4.165-0.609,5.408	c1.072,0.595,2.374,1.01,3.931,1.287c6.055,1.077,20.801-3.162,39.231-2.557S139.03,59.966,140.407,68.211z"/><ellipse transform="matrix(0.9995 0.0328 -0.0328 0.9995 2.36 -6.611)" fill="#FFFFFF" cx="202.857" cy="68.688" rx="16.19" ry="17.123"/><ellipse transform="matrix(0.9995 0.0328 -0.0328 0.9995 2.4189 -6.6369)" fill="#511313" cx="203.677" cy="70.472" rx="10.618" ry="11.23"/><path fill="#DB0B0B" d="M188.384,64.077c0,0,30.141,0.695,33.642,18.967s-8.582,16.119-8.582,16.119l-20.022-14.567l-0.621-12.32	L188.384,64.077z"/><path fill="#511313" d="M73.455,22.935c-2.911-0.095-8.562,4.769-8.817,12.558c-0.255,7.789,1.956,10.936,8.012,12.014	c6.055,1.077,20.801-3.162,39.231-2.557c18.43,0.604,27.15,9.309,28.527,17.555s12.203-0.405,12.203-0.405	s-2.135-32.028-42.066-33.337c-16.455-0.54-17.047,0.759-25.275,0.489s-14.123-3.894-12.904-5.036	C73.585,23.073,73.455,22.935,73.455,22.935z"/><path fill="#511313" d="M176.506,60.137c0.201-6.143,0.955-25.777,36.804-33.936c5.316-1.363,2.82-5.618,2.82-5.618	s13.004,1.964,12.594,14.47c-0.209,6.363-5.678,8.024-8.788,7.922c-3.11-0.102-32.383-1.585-35.532,17.421	S176.506,60.137,176.506,60.137z"/><path opacity="0.14" d="M219.587,42.441l1.241-4.352c0,0-0.873-7.011-2.62-12.617c-0.207-0.042-0.321-0.059-0.321-0.059	s2.496,4.255-2.82,5.618c-35.849,8.159-36.603,27.793-36.804,33.936c0,0,4.75,19.265,7.899,0.259s32.423-17.523,35.532-17.421	c0.25,0.008,0.516,0.004,0.793-0.013C221.093,44.615,219.587,42.441,219.587,42.441z"/><path fill="#FFAD08" d="M101.243,73.52c0,0-28.758,6.232-42.054-21.439c-2.38-3.885,6.044-26.342-8.208-38.835	c-1.992-1.707-5.976,1.396-3.627,3.45c8.715,8.852,7.607,15.844,7.564,17.16c-0.043,1.316-1.836,12.459-1.998,17.396	s5.946,29.664,44.561,30.93S101.243,73.52,101.243,73.52z"/><path fill="#FF7C24" d="M109.365,70.264c12.91,0.423,13.058,4.829,17.3,4.968c6.838,0.224,11.977-19.192,46.58-18.057	c24.089,0.79,34.458,26.169,38.517,26.302c4.937,0.162,6.609-3.956,15.495-3.665c8.886,0.291,12.695,11.398,12.695,11.398	l1.419,6.965l-2.016,17.945l-24.581,6.113l-60.337-8.677l-37.527,2.394l-24.426-5.304c0,0-1.41-17.288-1.248-22.225	C91.398,83.484,95.927,70.291,109.365,70.264z"/><path opacity="0.25" fill="#B74A00" d="M170.012,102.014c-53.267-15.22-22.111-40.864-22.111-40.864l0,0	c-12.751,5.38-16.605,14.234-21.236,14.083c-4.242-0.139-4.39-4.545-17.3-4.968c-13.437,0.027-17.966,13.22-18.128,18.156	c-0.122,3.706,0.643,14.37,1.031,19.459l9.051,4.684h0l18.152,3.222l34.967-2.23l10.91,1.569l7.041-0.794	C172.39,114.33,223.279,117.234,170.012,102.014z"/><ellipse transform="matrix(0.9995 0.0328 -0.0328 0.9995 3.315 -3.4754)" fill="#B74A00" cx="107.679" cy="99.392" rx="12.416" ry="13.171"/><circle fill="#B74A00" cx="227.439" cy="104.417" r="11.196"/><path fill="#FFBF0D" d="M89.857,86.947c4.278,0.14,4.949,23.225,27.767,23.973c48.05,1.576,62.649-21.667,65.94-21.559	c3.291,0.108,12.555,22.376,39.432,23.257c0,0,16.178,2.288,16.955-21.408c2.304,0.076,4.014,4.854,3.733,13.411	c-0.281,8.557-5.367,29.695-17.653,29.292c-12.287-0.403-10.504-4.518-10.504-4.518s-6.034-0.198-9.742-0.978	c-3.708-0.781-18.644-4.126-25.478-3.361c-6.834,0.764-41.099,4.143-56.17,1.563c-15.071-2.581-21.343-5.532-21.343-5.532	s-12.838,3.02-26.322,42.48c-2.332-9.265-2.015-25.618-2.015-25.618S76.263,96.276,89.857,86.947z"/><path fill="#7C3006" d="M116.657,90.262c-0.523-0.161-1.071-0.264-1.641-0.283c-3.65-0.12-6.711,2.922-6.838,6.794	c-0.127,3.872,2.729,7.108,6.379,7.228c2.174,0.071,4.133-0.984,5.394-2.663c0.072-0.504,0.121-1.017,0.138-1.539	C120.209,96.108,118.885,92.728,116.657,90.262z"/><path fill="#7C3006" d="M219.225,96.814c-1.767,1.907-2.884,4.434-2.976,7.236c-0.058,1.781,0.304,3.477,0.995,4.995	c0.383,0.138,0.783,0.225,1.201,0.238c2.708,0.089,4.996-2.639,5.109-6.092C223.662,99.898,221.751,97.14,219.225,96.814z"/><path fill="#FFFFFF" d="M216.917,124.975c4.534,0.149,7.183,3.717,6.221,8.753c-0.962,5.037-5.548,17.626-11.472,17.431	c-3.876-0.127-3.75-1.734-3.719-2.684s2.192-4.321,2.482-13.17c0.18-5.485-1.839-6.44-1.839-6.44S211.286,124.79,216.917,124.975z"/><path fill="#B2B2B2" d="M164.709,253.548c35.973,0,55.733-30.111,60.729-49.959c-1.375-7.374-2.84-14.952-4.109-21.988	c-0.641-0.553-1.075-0.813-1.075-0.813s0,32.336-56.684,32.336c-75.48,0-86.641-42.473-86.641-42.473	S79.353,253.548,164.709,253.548z"/><path fill="#FFFFFF" d="M102.475,118.55c5.412,0.177,6.966,4.145,6.901,6.12c-0.065,1.975-4.118,20.658-12.017,20.399	c-5.193-0.17-2.804-6.022-2.644-10.922c0.161-4.9-0.33-5.575-0.263-7.623C94.52,124.476,95.527,118.322,102.475,118.55z"/><path fill="#511313" d="M186.387,243.171c0,0-1.82,17.941-16.655,20.667c2.56-11.178-0.535-25.012-0.535-25.012l9.464-3.735	l7.091,1.038L186.387,243.171z"/><path fill="#511313" d="M174.418,246.691c0,0-1.817,17.911-16.628,20.633c2.556-11.159-0.534-24.971-0.534-24.971l9.448-3.729	l7.08,1.036L174.418,246.691z"/><path fill="#511313" d="M169.14,242.293c0,0-1.817,17.911-16.628,20.633c2.556-11.159-0.534-24.971-0.534-24.971l9.448-3.729	l7.08,1.036L169.14,242.293z"/><path fill="#511313" d="M156.825,242.293c0,0-1.817,17.911-16.628,20.633c2.556-11.159-0.534-24.971-0.534-24.971l9.448-3.729	l7.08,1.036L156.825,242.293z"/><path fill="#511313" d="M147.901,234.743c0,0-1.803,17.773-16.499,20.474c2.536-11.073-0.53-24.777-0.53-24.777l9.375-3.7	l7.025,1.028L147.901,234.743z"/><path fill="#F2721C" d="M211.762,83.477c-1.496-0.049-3.85-3.528-7.431-7.94c2.324,2.925,1.64,8.153,1.528,9.32	c-0.112,1.168-1.477,4.857,1.511,5.284s3.724-4.53,8.326-7.478c0,0,0,0,0.001,0C214.491,83.17,213.281,83.526,211.762,83.477z"/><path fill="#D33131" d="M164.27,243.011c42.109,0,62.007-35.115,62.007-52.875c0-9.885-6.461-13.739-6.461-13.739	s0,32.336-56.684,32.336c-75.48,0-86.641-42.473-86.641-42.473S78.914,243.011,164.27,243.011z"/><path opacity="0.15" fill="#353535" d="M221.289,176.738c-0.175,0.597-0.361,1.192-0.566,1.78c-0.654,2.604-1.323,5.201-2.486,7.659	c-0.39,0.825-1.235,1.232-2.11,1.271c-1.905,2.696-4.18,5.127-6.79,7.165c-1.134,0.885-2.471,0.709-3.419,0.056	c-7.856,6.759-21.359,12.57-44.582,12.57c-73.915,0-84.844-43.599-84.844-43.599s2.373,69.742,85.958,69.742	c41.236,0,64.604-27.002,64.604-45.233C227.053,182.636,224.041,178.954,221.289,176.738z"/><path opacity="0.2" fill="#353535" d="M198.389,22.417c0.351-14.046-9.139-16.004-8.726-18.397	c-6.3,3.898,0.525,21.094-11.337,20.705c-0.673-0.022-1.337-0.109-2.029-0.241l0,0C185.49,26.743,198.109,30.973,198.389,22.417z"/><path fill="#FFBF0D" d="M164.27,223.186c42.109,0,65.972-23.055,65.972-38.621c0-8.664-10.426-12.042-10.426-12.042	s0,28.342-56.684,28.342c-75.48,0-86.641-37.226-86.641-37.226S78.914,223.186,164.27,223.186z"/><path fill="#FFFFFF" d="M195.597,204.108c4.478,0.818,7.834-2.118,7.961-7.261s-1.694-18.464-7.544-19.533	c-3.828-0.699-4.046,0.903-4.218,1.842c-0.172,0.939,1.231,4.703-0.366,13.443c-0.99,5.417-3.172,5.924-3.172,5.924	S190.035,203.092,195.597,204.108z"/><path fill="#FFFFFF" d="M121.128,205.217c5.318,1.112,7.775-2.387,8.181-4.328s0.89-21.117-6.872-22.74	c-5.103-1.067-4.164,5.205-5.171,10.021s-1.645,5.357-2.066,7.369C114.779,197.551,114.3,203.789,121.128,205.217z"/><circle fill="#FFFFFF" cx="106.805" cy="61.422" r="3.94"/><circle fill="#FFFFFF" cx="199.444" cy="60.983" r="3.337"/></svg>