<?xml version="1.0" encoding="UTF-8"?><svg width="207px" height="211px" viewBox="0 0 207 211" version="1.1" xmlns="http://www.w3.org/2000/svg" xmlns:xlink="http://www.w3.org/1999/xlink"><title>duo_cheer</title><desc>Created with Sketch.</desc><defs/><g id="Page-1" stroke="none" stroke-width="1" fill="none" fill-rule="evenodd"><g id="duo_cheer"><g id="body"><path d="M114.94,190.4 C121.56,190.71 120.94,197.87 120.94,198.4 C120.94,198.93 120.94,205.9 109.32,205.35 C102,205 102.54,201.75 102.62,200.14 C102.7,198.53 106.55,190.01 114.94,190.4 Z" id="Shape" fill="#D98500"/><path d="M45.8,0.01 C61.97,-0.43 76.8,26.74 110.8,25.82 C135.44,25.15 137.89,14.01 149.59,13.7 C157.36,13.49 158.08,28.55 158.14,30.83 C158.51,44.64 155.39,65.54 155.62,74.18 C155.82,81.4 163.73,80.72 164.44,80.7 C186.34,80.11 196.56,74.7 201.9,74.58 C207.24,74.46 206.44,79.72 206.45,80.27 C206.46,80.82 207.26,121.95 144.65,147.52 C138.99,150.26 134.18,198.93 87.87,200.19 C52.71,201.14 43.68,169.34 40.38,169.43 C37.08,169.52 33.84,182.47 11.94,183.09 C-0.46,183.42 0.04,175.79 0.01,174.54 C-0.58,152.69 30.04,86.36 29.65,71.09 C29.37,60.69 24.29,0.59 45.8,0.01 Z" id="Shape" fill="#78C800"/><path d="M199.38,103.91 C180.6,128.91 153.03,133.8 149.64,133.91 C146.08,134.01 147.85,129.77 145.86,129.82 C142.41,129.91 142.6,175.82 95.72,177.04 C49.47,178.29 54.79,138.77 54.72,136.47 C54.65,134.17 54.33,133.65 53.72,133.67 C53.11,133.69 51.64,134.25 51.72,137.18 C52.44,163.97 23.47,180.78 11.54,181.1 C6.21,181.24 2.9,180 0.86,178.57 C2.04,180.89 4.92,183.27 11.96,183.08 C33.86,182.49 37.12,169.52 40.42,169.43 C43.72,169.34 52.74,201.14 87.91,200.19 C134.22,198.94 139.03,150.27 144.69,147.52 C176.42,134.54 191.87,117.56 199.38,103.91 Z" id="Shape" fill="#71B200"/><path d="M65.1,194.09 C72.36,194.56 77.36,196.71 76.94,203.23 C76.52,209.75 67.52,210.41 62.82,210.1 C58.12,209.79 53.07,207.1 53.38,202.36 C53.69,197.62 58.54,193.69 65.1,194.09 Z" id="Shape" fill="#D98500"/><path d="M140.82,33.91 C137.12,34.01 136.28,35.91 134.94,34.78 C134.33,34.2 137.45,32.78 137.43,32.15 C137.43,31.85 136.95,31.92 136.29,31.94 C132.41,32.04 124.93,37.94 123.86,37.94 C123.38,37.94 122.61,38.09 122.59,37.38 C122.59,35.77 127.94,34.25 124.18,34.38 C120.42,34.51 115.01,39.46 109.18,39.62 C97.25,39.94 87.4,30.84 87.46,33.17 C87.46,34 88.89,35.28 89.83,36.92 C89.83,36.92 90.43,39.41 89.39,38.48 C78.15,27.83 67.14,25.48 67.14,25.48 C67.14,25.48 66.31,25.48 66.31,25.86 C66.31,27.11 68.77,28.72 68.79,29.19 C68.8136945,29.3997275 68.7441721,29.6092897 68.5998183,29.7632671 C68.4554645,29.9172445 68.2508186,30.0001285 68.04,29.99 C65.71,30.05 63.92,25.63 54.56,25.88 C40.43,26.26 37.14,48.61 37.63,66.88 C38.33,92.76 55.2,100.53 68.98,100.16 C79.9,99.86 91.43,93.11 96.07,83.52 L110.64,84.24 C110.64,84.24 118.13,97.55 130.95,97.24 C142.95,96.92 153.24,89.02 152.53,62.62 C151.82,34.8 144.52,33.81 140.82,33.91 Z" id="Shape" fill="#8EE000"/></g><g id="eyes" transform="translate(47.000000, 44.000000)"><ellipse id="Oval" fill="#FFFFFF" transform="translate(19.667463, 23.127139) rotate(-1.550000) translate(-19.667463, -23.127139)" cx="19.6674633" cy="23.1271388" rx="18.61" ry="22.63"/><path d="M97.92,24.36 C97.63,35.18 90.56,43.91 82.12,43.85 C73.68,43.79 67.12,34.98 67.36,24.16 C67.6,13.34 74.72,4.61 83.16,4.67 C91.6,4.73 98.2,13.53 97.92,24.36 Z" id="Shape" fill="#FFFFFF"/><ellipse id="Oval" fill="#3F3F3F" transform="translate(19.287873, 23.137414) rotate(-1.550000) translate(-19.287873, -23.137414)" cx="19.2878728" cy="23.1374139" rx="10.22" ry="12.43"/><ellipse id="Oval" fill="#FFFFFF" transform="translate(12.442096, 15.435249) rotate(-1.550000) translate(-12.442096, -15.435249)" cx="12.4420959" cy="15.4352485" rx="4.79" ry="5.17"/><path d="M91.04,24.54 C90.75,30.9 86.64,35.98 81.86,35.88 C77.08,35.78 73.43,30.54 73.72,24.18 C74.01,17.82 78.12,12.74 82.9,12.84 C87.68,12.94 91.31,18.17 91.04,24.54 Z" id="Shape" fill="#3F3F3F"/><ellipse id="Oval" fill="#FFFFFF" transform="translate(76.672681, 17.648799) rotate(-3.310000) translate(-76.672681, -17.648799)" cx="76.6726809" cy="17.6487988" rx="4.18" ry="4.69"/><rect id="Rectangle-path" fill="#8EE000" x="2.65" y="37.25" width="33.42" height="11.69"/><rect id="Rectangle-path" fill="#8EE000" x="70.08" y="38.52" width="26.58" height="9.16"/></g><g id="beak" transform="translate(90.000000, 78.000000)"><path d="M1.52,9.86 C1.52,9.86 -1.84,39.71 7.92,39.44 C17.68,39.17 17.16,24.88 17.1,24.71 C17.04,24.54 1.52,9.86 1.52,9.86 Z" id="Shape" fill="#71B200"/><path d="M1.39,11.88 C1.14022056,13.3908912 1.00649637,14.9186902 0.99,16.45 C0.99,18.76 0.8,33.25 9.88,33.25 C16.6,33.25 17.31,25.25 17.31,25.25 C17.31,25.25 16.06,18.4 16.01,18.48 C15.96,18.56 12.35,11.68 12.35,11.68 C12.35,11.68 4.86,10.22 4.94,10.25 C5.02,10.28 1.39,11.88 1.39,11.88 Z" id="Shape" fill="#F49000"/><path d="M3.04,16.79 C3.19,18.64 5.51,29.05 12.22,29.05 C16.22,29.05 16.07,24.54 16.07,24.54 C16.0089988,22.6446153 15.6721262,20.7682348 15.07,18.97 C15.07,18.97 12.6,15.49 12.52,15.44 C12.44,15.39 7.08,13.13 7.08,13.13 L3.04,12.09 L2.3,12.91 L2.41,13.49 C2.80936149,14.5452609 3.02252532,15.6618334 3.04,16.79 L3.04,16.79 Z" id="Shape" fill="#935400"/><path d="M12.99,0.94 C19.18,0.94 27.08,8.76 27.08,18.11 C27.08,26.29 23.86,28.37 23.19,28.37 C19.76,28.37 1.19,18.21 1.19,11.28 C1.17,5.33 7.93,0.94 12.99,0.94 Z" id="Shape" fill="#FFC200"/><ellipse id="Oval" fill="#FFF3B8" transform="translate(14.402396, 5.325279) rotate(-86.830000) translate(-14.402396, -5.325279)" cx="14.4023957" cy="5.32527856" rx="2.33" ry="4.28"/></g></g></g></svg>