<?xml version="1.0" encoding="UTF-8" standalone="no"?><svg width="86px" height="150px" viewBox="0 0 86 150" version="1.1" xmlns="http://www.w3.org/2000/svg" xmlns:xlink="http://www.w3.org/1999/xlink"><title>duo cry</title><desc>Created with Sketch.</desc><defs/><g id="Page-1" stroke="none" stroke-width="1" fill="none" fill-rule="evenodd"><g id="duo-cry"><path d="M71.3021546,80.257 C77.6534293,80.257 82.8021546,76.2275627 82.8021546,71.257 C82.8021546,66.2864373 77.6534293,62.257 71.3021546,62.257 C64.95088,62.257 59.8021546,66.2864373 59.8021546,71.257 C59.8021546,76.2275627 64.95088,80.257 71.3021546,80.257 Z M24.3561147,81.1115854 C30.3192226,72.5953847 33.0648273,58.9171586 27.4097626,54.9574396 C21.7546978,50.9977206 19.7726634,54.5507465 13.8095554,63.0669472 C7.84644752,71.5831478 -2.33551262,85.4021064 3.31955215,89.3618254 C8.97461692,93.3215443 18.3930068,89.6277861 24.3561147,81.1115854 Z" id="Combined-Shape" fill="#E7E7E7"/><path d="M66.7011448,75 L27.217918,75 C23.4646429,82.396535 17.2574433,88.7831502 7.80891496,88.82495 C0.418952225,88.8576428 0.967914959,84.63045 0.967914959,83.98145 C0.967914959,82.1579036 1.72923811,78.9567053 2.9168882,75 L2.89148818,75 C7.4316549,60.8425021 15.7375,40.087028 15.7375,35.15245 C15.7375,28.36195 15.2385,26.86395 15.2385,24.11745 C15.2385,21.37145 15.1385,0.49995 24.226,0.49995 C32.348,0.49995 40.2705,13.68195 56.382,13.68195 C69.7635,13.68195 70.2295,7.68995 76.621,7.68995 C80.8815,7.68995 80.8815,15.21295 80.8815,16.21195 C80.8815,21.92045 79.001,36.05095 79.001,38.24795 C79.001,43.69095 85.392,58.27095 85.392,65.56095 C85.392,69.1875932 84.0810746,72.4414928 82.1262468,74.8149783 C82.0897761,74.877231 82.0477556,74.9389341 82,75 C80.5144042,76.8996582 77.1489259,78 74,78 C71.2443994,78 68.4845612,77.1474643 66.7011448,75 Z" id="Combined-Shape" fill="#78C800"/><g id="tear" transform="translate(0.000000, 13.000000)"><g id="Page-1"><path d="M71.92645,4.65885 C70.05895,4.69185 69.62445,5.66335 68.95095,5.07285 C68.64445,4.77685 70.22845,4.05585 70.22345,3.75485 C70.22045,3.60435 69.97995,3.63885 69.64895,3.64435 C67.69095,3.67885 63.88595,6.60835 63.34395,6.61785 C63.10295,6.62235 62.71245,6.68935 62.70645,6.32785 C62.69195,5.51485 65.42045,4.77385 63.52295,4.80685 C61.62545,4.84035 58.86745,7.32985 55.94545,7.38135 C49.92145,7.48735 44.98895,2.84435 45.00995,4.01885 C45.01695,4.44035 45.72145,5.09085 46.18845,5.92635 C46.18845,5.92635 46.48145,7.18635 45.96095,6.71385 C40.33645,1.28435 34.78595,0.04135 34.78595,0.04135 C34.78595,0.04135 34.36445,0.04885 34.36745,0.22935 C34.37845,0.86185 35.59845,1.68385 35.60245,1.92485 C35.60695,2.16585 35.45895,2.31935 35.21795,2.32335 C34.04345,2.34435 33.15995,0.10035 28.43145,0.18335 C21.29295,0.30935 19.52445,11.57885 19.68695,20.79535 C19.91795,33.86735 28.40295,37.87285 35.36095,37.74985 C40.87895,37.65285 46.72895,34.29535 49.11745,29.47535 L56.47045,29.90535 C56.47045,29.90535 60.19095,36.66485 66.66695,36.55085 C72.74345,36.44335 77.96145,32.50485 77.72595,19.16935 C77.47895,5.16335 73.79395,4.62585 71.92645,4.65885" id="Fill-18" fill="#8EE000"/><path d="M43.7111,20.91985 C43.8226,27.22935 39.7056,32.41835 34.5166,32.50985 C29.3271,32.60135 25.0301,27.56085 24.9186,21.25135 C24.8076,14.94185 28.9241,9.75285 34.1136,9.66135 C39.3026,9.56985 43.5996,14.61035 43.7111,20.91985" id="Fill-20" fill="#FFFFFF"/><path d="M74.1134,22.16525 C73.9174,27.75375 70.3144,32.22775 66.0654,32.15825 C61.8169,32.08875 58.5314,27.50225 58.7274,21.91325 C58.9229,16.32475 62.5264,11.85075 66.7749,11.92025 C71.0239,11.98975 74.3094,16.57675 74.1134,22.16525" id="Fill-22" fill="#FFFFFF"/><path d="M39.2831,20.99795 C39.3441,24.46395 37.0831,27.31445 34.2321,27.36495 C31.3816,27.41495 29.0211,24.64595 28.9601,21.17995 C28.8986,17.71395 31.1601,14.86345 34.0106,14.81345 C36.8616,14.76295 39.2221,17.53195 39.2831,20.99795" id="Fill-24" fill="#3F3F3F"/><path d="M33.12325,17.12415 C33.14875,18.56665 32.08675,19.75515 30.75175,19.77865 C29.41675,19.80265 28.31375,18.65215 28.28825,17.20965 C28.26275,15.76665 29.32425,14.57815 30.65975,14.55465 C31.99475,14.53115 33.09775,15.68165 33.12325,17.12415" id="Fill-26" fill="#FFFFFF"/><path d="M70.64355,22.22675 C70.46855,25.51325 68.37505,28.11725 65.96705,28.04275 C63.55955,27.96825 61.74955,25.24375 61.92505,21.95725 C62.10005,18.67075 64.19355,16.06675 66.60105,16.14125 C69.00855,16.21575 70.81855,18.94025 70.64355,22.22675" id="Fill-28" fill="#3F3F3F"/><path d="M65.55535,18.49605 C65.61935,19.83355 64.72935,20.96505 63.56735,21.02255 C62.40485,21.08055 61.41085,20.04305 61.34635,18.70555 C61.28235,17.36805 62.17235,16.23655 63.33485,16.17905 C64.49685,16.12105 65.49135,17.15855 65.55535,18.49605" id="Fill-30" fill="#FFFFFF"/><path d="M46.30735,33.36015 C46.30735,33.36015 45.17285,46.28715 49.89835,46.41365 C54.62335,46.54015 54.13785,40.29865 54.10485,40.22265 C54.07185,40.14715 46.30735,33.36015 46.30735,33.36015" id="Fill-32" fill="#71B200"/><path d="M61.87435,36.7574 C61.87435,36.7574 63.64685,34.1859 65.31985,34.1859 C66.99235,34.1859 69.31435,35.3844 69.31435,35.3844 L70.48735,35.8339 L71.48635,36.5579 C71.48635,36.5579 70.26285,37.8809 70.16285,37.9059 C70.06335,37.9309 65.34435,40.1279 65.36935,40.0279 C65.39435,39.9279 62.17385,39.8779 62.09885,39.8779 C62.02435,39.8779 60.87585,39.5034 60.87585,39.5034 L61.07535,38.3054 L61.54985,37.2069 L61.87435,36.7574 Z" id="Fill-34" fill="#78C800"/><path d="M66.585897,61.9017458 C63.2539749,58.4781092 59.7757,52.0694892 59.7757,43.2719 C59.7757,37.2304 61.0242,35.5829 61.0242,35.5829 C61.0242,35.5829 57.9282,37.7299 57.9282,48.7644 C57.9282,54.1321839 59.3871711,58.5766261 60.9109982,61.9017458 L66.585897,61.9017458 Z M27.4689842,61.9017458 C26.4483145,57.3566047 27.1270068,53.4084 26.3217,53.4084 C25.8629633,53.4084 26.3953587,61.3627081 23.0170898,65.7135742 C19.0365494,70.8401048 12.5459961,74.462207 7.30253906,74.5119141 C0.180726135,74.5794276 0.970996094,70.3139648 0.970996094,71.5948242 C0.970996094,72.8756836 1.902743,75.2670633 5.45126953,75.7329102 C7.01044922,75.9375977 9.32890625,76.3994141 13.6420898,74.9447266 C17.9552734,73.4900391 18.5354492,72.5373047 21.8973633,69.5928711 C23.9464022,67.7982806 25.8319776,63.9064179 26.9449278,62.4465177 L26.9449278,61.9017458 L27.4689842,61.9017458 Z M27.5074563,61.9017458 C27.5817061,61.8707678 27.6479787,61.869492 27.7057594,61.9017458 L27.5074562,61.9017458 Z" id="Combined-Shape" fill="#71B200"/><path d="M46.5776,32.82455 C46.5776,32.82455 45.8526,42.06805 50.3456,41.98905 C54.8386,41.90955 57.0066,38.18455 56.9481,34.87555 C56.8896,31.56605 46.5776,32.82455 46.5776,32.82455" id="Fill-40" fill="#F49000"/><path d="M53.1114,27.02075 C56.3319,27.02075 59.0034,30.59075 59.0034,34.43575 C59.0034,38.28025 56.1574,42.12525 55.1834,42.12525 C54.2099,42.12525 51.3389,34.53525 46.3704,34.53525 C45.9214,34.53525 45.8464,34.33575 45.8464,34.08625 C45.8464,33.83625 45.9464,27.02075 53.1114,27.02075" id="Fill-42" fill="#FFC200"/><path d="M55.32935,29.52725 C55.30485,30.18075 54.31335,30.67375 53.11535,30.62875 C51.91685,30.58375 50.96535,30.01725 50.98985,29.36375 C51.01435,28.71075 52.00585,28.21725 53.20435,28.26225 C54.40235,28.30775 55.35385,28.87375 55.32935,29.52725" id="Fill-44" fill="#FFF3B8"/><path d="M36.95205,11.69865 C38.48705,11.69865 39.75605,12.09065 40.73405,12.56815 C38.97405,11.12015 36.84855,10.28715 34.56955,10.32715 C28.94405,10.42615 24.43105,15.79715 24.13555,22.51565 C26.04755,14.65915 32.76505,11.69865 36.95205,11.69865" id="Fill-46" fill="#8EE000"/><path d="M66.34615,11.78735 C64.82815,11.76235 63.38365,12.25335 62.11115,13.13435 C62.58815,12.94835 63.12915,12.81535 63.71015,12.81535 C68.13965,12.81535 73.95765,16.71885 73.95765,23.81335 C73.95765,25.50885 73.83065,27.05185 73.59865,28.25635 C74.19515,26.77285 74.55915,25.10585 74.62115,23.33985 C74.84215,17.03785 71.13715,11.86585 66.34615,11.78735" id="Fill-48" fill="#8EE000"/><path d="M77.20355,41.118 C77.37905,41.25 78.14005,41.7835 78.60155,41.476 C79.12555,41.1265 78.23955,40.2525 78.07705,40.0655 C78.07455,40.0625 78.07405,40.0585 78.07205,40.0555 C76.20755,38.194 73.27405,36.3005 68.66505,35.0595 C71.95505,36.569 75.05755,38.8795 77.20355,41.118" id="Fill-50" fill="#71B200"/><path d="M23.75995,21.65315 L24.69195,19.92215 L25.49095,17.79165 L26.75595,15.66115 L29.08595,13.33115 L31.81545,12.19965 L35.80995,10.80115 L37.60745,11.33415 L38.73945,11.66665 L39.80445,11.99965 L41.13595,11.20065 C41.13595,11.20065 35.61045,7.67215 35.34395,7.40615 C35.07795,7.13965 29.75195,6.00815 29.01945,6.14115 C28.28695,6.27415 24.22595,9.33665 24.22595,9.33665 L22.22895,15.99415 C22.22895,15.99415 22.09545,19.72265 22.22895,19.92215 C22.36195,20.12215 23.75995,21.65315 23.75995,21.65315" id="Fill-52" fill="#8EE000"/><path d="M61.3085,11.86655 L63.772,12.33255 L66.7675,13.19805 L69.4305,13.99705 L71.295,15.19555 L72.36,17.05955 C72.36,17.05955 72.8925,18.72405 73.026,18.92355 C73.159,19.12305 73.6915,20.32155 73.8245,20.52155 C73.958,20.72105 74.224,22.71855 74.224,22.71855 C74.224,22.71855 74.091,24.91555 74.2905,25.04855 C74.4905,25.18155 75.2895,24.98205 75.489,23.98305 C75.689,22.98455 75.822,19.72255 75.8885,18.92355 C75.955,18.12455 75.622,14.79605 75.356,14.06355 C75.0895,13.33105 73.625,11.13405 73.159,10.46855 C72.693,9.80255 68.2325,8.40455 68.0325,8.33805 C67.833,8.27155 64.5705,8.60455 64.038,8.73755 C63.5055,8.87055 61.375,11.33405 61.375,11.33405 L61.042,12.06605" id="Fill-54" fill="#8EE000"/></g><path d="M43.727,34.03525 C43.727,35.97825 42.631,37.11825 41.2785,37.11825 C39.9265,37.11825 38.8305,35.97825 38.8305,34.03525 C38.8305,32.09225 40.209,29.46525 41.2785,28.77625 C42.3485,29.53775 43.727,32.09225 43.727,34.03525" id="Fill-56" fill="#2199EB"/><path d="M41.1507,31.86515 C40.9652,32.52615 40.5407,32.98465 40.2022,32.88965 C39.8637,32.79515 39.7397,32.18215 39.9252,31.52115 C40.1107,30.86015 40.5352,30.40165 40.8737,30.49665 C41.2122,30.59165 41.3362,31.20415 41.1507,31.86515" id="Fill-58" fill="#27C2FF"/></g></g></g></svg>