<?xml version="1.0" encoding="UTF-8" standalone="no"?><svg width="270px" height="270px" viewBox="0 0 270 270" version="1.1" xmlns="http://www.w3.org/2000/svg" xmlns:xlink="http://www.w3.org/1999/xlink" xmlns:sketch="http://www.bohemiancoding.com/sketch/ns"><title>duo_tracksuit_mannequin</title><desc>Created with Sketch.</desc><defs><path d="M0.434,14.048 C0.93,29.02 4.596,43.776 23.808,44.203 C23.983,44.207 24.157,44.209 24.329,44.209 C24.528,44.209 24.725,44.206 24.921,44.201 C25.354,44.227 25.792,44.247 26.242,44.257 C26.419,44.261 26.598,44.263 26.773,44.263 C34.623,44.263 39.749,40.33 43.098,34.857 C39.794,38.913 35.153,41.627 28.634,41.627 C28.458,41.627 28.281,41.625 28.103,41.621 C27.642,41.611 27.193,41.592 26.751,41.566 C26.565,41.57 26.378,41.573 26.19,41.573 C26.018,41.573 25.844,41.571 25.669,41.567 C8.046,41.175 3.503,28.729 2.49,15.117 C1.914,14.779 1.229,14.405 0.434,14.048 L0.434,14.048 Z M4.778,-0.497 C4.777,-0.484 4.777,-0.471 4.776,-0.458 C4.777,-0.471 4.777,-0.484 4.778,-0.497 L4.778,-0.497 Z" id="path-1"/></defs><g id="Page-1" stroke="none" stroke-width="1" fill="none" fill-rule="evenodd" sketch:type="MSPage"><g id="duo_tracksuit_mannequin" sketch:type="MSArtboardGroup"><g id="Imported-Layers" sketch:type="MSLayerGroup" transform="translate(20.000000, 14.000000)"><path d="M200.576,230.046 C200.612,235.343 156.291,239.942 101.581,240.318 C46.872,240.694 2.491,236.704 2.455,231.406 C2.418,226.108 46.74,221.509 101.45,221.134 C156.159,220.758 200.54,224.748 200.576,230.046" id="Fill-1" fill="#D6D6D6" sketch:type="MSShapeGroup"/><path d="M128.282,211.426 C135.639,211.774 134.999,219.733 134.97,220.346 C134.941,220.959 134.925,228.684 122.049,228.074 C113.903,227.687 114.514,224.073 114.599,222.277 C114.684,220.482 118.953,210.984 128.282,211.426" id="Fill-2" fill="#999999" sketch:type="MSShapeGroup"/><path d="M51.381,-0.332 C60.294,-0.573 68.853,6.73 79.822,14.032 C90.982,21.462 104.637,28.891 123.699,28.376 C151.109,27.636 153.831,15.246 166.838,14.895 C175.48,14.661 176.282,31.412 176.35,33.943 C176.765,49.306 173.286,72.549 173.546,82.151 C173.763,90.182 182.565,89.42 183.351,89.399 C207.705,88.741 219.074,82.756 225.01,82.596 C230.946,82.435 230.056,88.312 230.072,88.923 C230.089,89.534 230.975,135.284 161.335,163.721 C155.041,166.773 149.689,220.903 98.187,222.294 C78.374,222.829 66.022,214.014 58.18,205.198 C50.544,196.614 47.183,188.031 45.375,188.079 C41.708,188.178 38.08,202.603 13.726,203.26 C-0.066,203.633 0.491,195.144 0.453,193.748 C-0.202,169.481 33.883,95.707 33.423,78.685 C33.112,67.162 27.463,0.314 51.381,-0.332" id="Fill-3" fill="#DDDDDD" sketch:type="MSShapeGroup"/><path d="M222.19,115.232 C201.299,142.997 170.635,148.473 166.866,148.575 C164.878,148.629 164.386,147.466 164.108,146.303 C163.832,145.152 163.767,144 162.667,144.03 C158.826,144.133 159.039,195.143 106.898,196.551 C55.454,197.94 61.372,153.987 61.303,151.426 C61.234,148.865 60.869,148.293 60.17,148.312 C59.472,148.331 57.858,148.957 57.946,152.216 C58.751,182.011 26.527,200.702 13.259,201.06 C7.335,201.22 3.649,199.833 1.378,198.249 C2.695,200.83 5.899,203.471 13.726,203.26 C38.08,202.603 41.708,188.178 45.375,188.079 C47.183,188.031 50.544,196.614 58.18,205.198 C66.022,214.013 78.374,222.829 98.187,222.294 C149.689,220.903 155.041,166.773 161.335,163.721 C196.662,149.295 213.84,130.415 222.19,115.232" id="Fill-4" fill="#71B200" sketch:type="MSShapeGroup"/><path d="M161.619,75.686 C161.3,87.72 153.431,97.425 144.044,97.363 C134.657,97.3 127.306,87.494 127.625,75.46 C127.944,63.425 135.813,53.72 145.2,53.782 C154.587,53.845 161.938,63.651 161.619,75.686" id="Fill-5" fill="#FFFFFF" sketch:type="MSShapeGroup"/><path d="M85.516,74.029 C85.722,81.66 80.801,87.984 74.525,88.154 C68.248,88.323 62.993,82.274 62.787,74.643 C62.581,67.011 67.502,60.687 73.778,60.518 C80.055,60.348 85.31,66.398 85.516,74.029" id="Fill-6" fill="#3F3F3F" sketch:type="MSShapeGroup"/><path d="M71.871,65.625 C71.957,68.802 69.644,71.441 66.704,71.52 C63.764,71.6 61.312,69.089 61.226,65.913 C61.14,62.736 63.454,60.097 66.393,60.017 C69.333,59.938 71.786,62.449 71.871,65.625" id="Fill-7" fill="#FFFFFF" sketch:type="MSShapeGroup"/><path d="M153.955,75.889 C153.635,82.968 149.063,88.616 143.743,88.505 C138.423,88.395 134.37,82.567 134.689,75.488 C135.009,68.41 139.581,62.762 144.902,62.872 C150.222,62.983 154.275,68.811 153.955,75.889" id="Fill-8" fill="#3F3F3F" sketch:type="MSShapeGroup"/><path d="M142.639,67.963 C142.808,70.841 140.865,73.294 138.298,73.443 C135.732,73.591 133.515,71.378 133.346,68.5 C133.177,65.622 135.12,63.169 137.687,63.021 C140.253,62.872 142.47,65.085 142.639,67.963" id="Fill-9" fill="#FFFFFF" sketch:type="MSShapeGroup"/><path d="M161.619,75.686 C161.3,87.72 153.431,97.425 144.044,97.363 C134.657,97.3 127.306,87.494 127.625,75.46 C127.944,63.425 135.813,53.72 145.2,53.782 C154.587,53.845 161.938,63.651 161.619,75.686" id="Fill-10" fill="#FFFFFF" sketch:type="MSShapeGroup"/><path d="M85.516,74.029 C85.722,81.66 80.801,87.984 74.525,88.154 C68.248,88.323 62.993,82.274 62.787,74.643 C62.581,67.011 67.502,60.687 73.778,60.518 C80.055,60.348 85.31,66.398 85.516,74.029" id="Fill-11" fill="#3F3F3F" sketch:type="MSShapeGroup"/><path d="M71.871,65.625 C71.957,68.802 69.644,71.441 66.704,71.52 C63.764,71.6 61.312,69.089 61.226,65.913 C61.14,62.736 63.454,60.097 66.393,60.017 C69.333,59.938 71.786,62.449 71.871,65.625" id="Fill-12" fill="#FFFFFF" sketch:type="MSShapeGroup"/><path d="M173.966,63.866 C174.704,56.893 175.433,49.183 175.741,41.488 C169.167,36.006 152.772,31.643 128.912,28.846 C127.565,28.907 126.153,28.942 124.663,28.942 C117.312,28.942 111.028,28.125 105.548,26.767 C91.436,25.854 75.624,25.368 58.408,25.368 C45.444,25.368 38.034,26.153 33.801,28.148 C32.377,38.472 32.399,48.3 32.404,51.489 C36.579,50.162 46.956,46.733 76.587,46.733 C138.262,46.733 168.85,61.853 173.966,63.866" id="Fill-13" fill="#BCBCBC" sketch:type="MSShapeGroup"/><path d="M72.853,215.555 C80.93,216.081 86.49,218.471 86.017,225.722 C85.545,232.973 75.542,233.705 70.31,233.364 C65.078,233.023 59.469,229.984 59.81,224.752 C60.15,219.52 65.556,215.079 72.853,215.555" id="Fill-14" fill="#999999" sketch:type="MSShapeGroup"/><path d="M181.151,44.042 C181.151,48.271 179.118,57.278 179.118,58.981 C179.118,60.683 177.745,61.013 176.867,61.013 C175.246,61.013 144.847,43.657 78.775,43.657 C42.032,43.657 34.892,48.93 32.475,48.93 C30.059,48.93 30.388,44.042 30.388,38.659 C30.388,26.174 31.743,22.292 60.595,22.292 C133.423,22.292 181.151,30.97 181.151,44.042" id="Fill-15" fill="#FFB103" sketch:type="MSShapeGroup"/><path d="M180.972,46.763 C160.441,35.59 122.22,28.444 91.023,28.444 C56.274,28.444 37.923,31.907 30.553,33.775 C30.417,35.234 30.388,36.856 30.388,38.659 C30.388,39.486 30.381,40.3 30.376,41.087 C37.467,38.93 57.37,35.474 91.023,35.474 C111.353,35.474 133.911,38.451 152.914,43.643 C164.218,46.731 173.522,50.423 179.832,54.214 C180.24,51.868 180.718,49.092 180.972,46.763" id="Fill-16" fill="#FFFFFF" sketch:type="MSShapeGroup"/><path d="M153.955,75.889 C153.635,82.968 149.063,88.616 143.743,88.505 C138.423,88.395 134.37,82.567 134.689,75.488 C135.009,68.41 139.581,62.762 144.902,62.872 C150.222,62.983 154.275,68.811 153.955,75.889" id="Fill-17" fill="#3F3F3F" sketch:type="MSShapeGroup"/><path d="M142.639,67.963 C142.808,70.841 140.865,73.294 138.298,73.443 C135.732,73.591 133.515,71.378 133.346,68.5 C133.177,65.622 135.12,63.169 137.687,63.021 C140.253,62.872 142.47,65.085 142.639,67.963" id="Fill-18" fill="#FFFFFF" sketch:type="MSShapeGroup"/><path d="M166.866,148.575 C164.878,148.629 164.386,147.466 164.108,146.303 C163.832,145.152 163.767,144 162.667,144.03 C158.826,144.133 159.039,195.143 106.898,196.551 C55.454,197.94 61.372,153.987 61.303,151.426 C61.234,148.865 60.869,148.293 60.17,148.312 C59.472,148.331 57.858,148.957 57.946,152.216 C58.16,160.126 56.045,167.255 52.575,173.464 C51.455,169.626 49.629,163.451 49.416,163.238 C49.106,162.927 14.679,150.625 13.852,150.315 C13.641,150.236 12.531,150.137 10.993,150.041 C8.769,156.615 6.711,163.007 5.015,168.92 C8.498,168.66 20.859,168.7 35.975,179.972 C37.078,181.053 42.023,186.484 35.821,191.668 L35.73,191.745 C27.448,197.635 18.738,200.912 13.259,201.06 C7.335,201.22 3.649,199.833 1.378,198.249 C2.695,200.83 5.899,203.471 13.726,203.26 C38.08,202.603 41.708,188.178 45.375,188.079 C47.183,188.031 50.544,196.614 58.18,205.198 C66.022,214.013 78.374,222.829 98.187,222.294 C149.689,220.903 155.041,166.773 161.335,163.721 C196.662,149.295 213.84,130.415 222.19,115.232 C201.299,142.997 170.635,148.473 166.866,148.575" id="Fill-19" fill="#BCBCBC" sketch:type="MSShapeGroup"/><g id="Group-22" transform="translate(122.000000, 58.000000)"><mask id="mask-2" sketch:name="Clip 21" fill="white"><use xlink:href="#path-1"/></mask><g id="Clip-21"/><path d="M0.434,-0.497 L43.098,-0.497 L43.098,44.263 L0.434,44.263 L0.434,-0.497 Z" id="Fill-20" fill="#B1B1B1" sketch:type="MSShapeGroup" mask="url(#mask-2)"/></g><path d="M101.215,60.062 C101.215,53.755 88.729,53.032 76.073,53.032 C75.623,53.032 75.17,53.033 74.714,53.035 C74.237,53.033 73.759,53.032 73.281,53.032 C60.625,53.032 45.074,53.859 45.074,60.889 C45.074,80.325 44.903,106.067 72.886,106.067 C73.318,106.067 73.743,106.057 74.162,106.038 C74.658,106.056 75.161,106.067 75.677,106.067 C103.66,106.067 101.215,66.058 101.215,60.062 M49.336,57.601 L49.214,57.722 L49.336,57.601 M68.267,53.174 L68.224,53.176 L68.267,53.174 M67.746,53.198 L67.62,53.203 L67.746,53.198 M67.184,53.224 L67.021,53.233 L67.184,53.224 M66.612,53.255 L66.421,53.265 L66.612,53.255 M66.035,53.288 L65.825,53.301 L66.035,53.288 M65.456,53.325 L65.231,53.34 L65.456,53.325 M64.875,53.365 L64.64,53.382 L64.875,53.365 M64.296,53.408 L64.054,53.428 L64.296,53.408 M63.718,53.456 L63.47,53.477 L63.718,53.456 M63.143,53.506 L62.892,53.529 L63.143,53.506 M62.571,53.56 L62.318,53.586 L62.571,53.56 M62.005,53.619 L61.749,53.646 L62.005,53.619 M61.444,53.681 L61.184,53.711 L61.444,53.681 M60.887,53.747 L60.626,53.779 L60.887,53.747 M60.336,53.817 L60.076,53.852 L60.336,53.817 M59.791,53.892 L59.534,53.929 L59.791,53.892 M59.251,53.971 L58.995,54.011 L59.251,53.971 M58.723,54.054 L58.464,54.097 L58.723,54.054 M58.198,54.143 L57.944,54.188 L58.198,54.143 M57.683,54.236 L57.43,54.284 L57.683,54.236 M57.176,54.333 L56.925,54.385 L57.176,54.333 M56.678,54.437 L56.422,54.493 L56.678,54.437 M56.19,54.544 L55.926,54.606 L56.19,54.544 M55.71,54.657 C55.617,54.68 55.526,54.704 55.433,54.727 C55.526,54.704 55.617,54.68 55.71,54.657 M55.241,54.776 C55.089,54.816 54.938,54.856 54.789,54.898 C54.938,54.856 55.089,54.816 55.241,54.776 M54.681,54.929 C54.566,54.962 54.451,54.995 54.338,55.029 C54.451,54.995 54.566,54.962 54.681,54.929 M54.174,55.079 C54.083,55.108 53.991,55.136 53.901,55.164 C53.991,55.136 54.083,55.108 54.174,55.079 M53.726,55.222 L53.477,55.305 L53.726,55.222 M53.297,55.369 L53.065,55.452 L53.297,55.369 M52.884,55.522 L52.666,55.605 L52.884,55.522 M52.488,55.678 L52.278,55.765 L52.488,55.678 M52.106,55.84 L51.905,55.93 L52.106,55.84 M51.737,56.009 L51.546,56.102 L51.737,56.009 M51.384,56.184 L51.2,56.281 L51.384,56.184 M51.045,56.366 L50.869,56.466 L51.045,56.366 M50.72,56.555 L50.554,56.657 L50.72,56.555 M50.411,56.75 L50.253,56.857 L50.411,56.75 M50.118,56.952 L49.969,57.062 L50.118,56.952 M49.84,57.161 L49.7,57.275 L49.84,57.161 M49.58,57.377 L49.449,57.495 L49.58,57.377 M47.865,60.889 C47.865,60.781 47.869,60.674 47.876,60.569 C47.869,60.674 47.865,60.781 47.865,60.889 L47.865,61.788 L47.865,60.889 M49.109,57.831 L48.996,57.958 L49.109,57.831 M48.9,58.07 L48.797,58.2 L48.9,58.07 M48.709,58.316 L48.615,58.45 L48.709,58.316 M48.536,58.569 L48.452,58.709 L48.536,58.569 M48.382,58.83 L48.308,58.976 L48.382,58.83 M48.247,59.1 L48.183,59.252 L48.247,59.1 M48.132,59.377 L48.079,59.536 L48.132,59.377 M48.037,59.662 L47.994,59.831 L48.037,59.662 M47.963,59.956 L47.93,60.139 L47.963,59.956 M47.909,60.258 L47.886,60.467 L47.909,60.258 M47.865,62.318 L47.865,62.699 L47.865,62.318 M47.866,63.152 C47.866,63.311 47.866,63.469 47.867,63.629 C47.866,63.469 47.866,63.311 47.866,63.152 M47.868,64.092 C47.869,64.246 47.869,64.399 47.87,64.553 C47.869,64.399 47.869,64.246 47.868,64.092 M47.873,65.128 C47.874,65.246 47.874,65.362 47.875,65.48 C47.874,65.362 47.874,65.246 47.873,65.128 M47.88,66.123 C47.881,66.22 47.882,66.317 47.883,66.415 C47.882,66.317 47.881,66.22 47.88,66.123 M47.891,67.067 C47.892,67.164 47.893,67.261 47.895,67.359 C47.893,67.261 47.892,67.164 47.891,67.067 M47.905,67.999 C47.907,68.102 47.909,68.205 47.91,68.309 C47.909,68.205 47.907,68.102 47.905,67.999 M47.924,68.954 C47.927,69.055 47.929,69.156 47.931,69.257 C47.929,69.156 47.927,69.055 47.924,68.954 M47.949,69.922 C47.951,70.017 47.954,70.112 47.957,70.207 C47.954,70.112 47.951,70.017 47.949,69.922 M47.979,70.877 C47.982,70.972 47.985,71.068 47.988,71.163 C47.985,71.068 47.982,70.972 47.979,70.877 M48.015,71.835 C48.019,71.929 48.023,72.024 48.027,72.118 C48.023,72.024 48.019,71.929 48.015,71.835 M48.059,72.796 C48.064,72.888 48.068,72.981 48.073,73.074 C48.068,72.981 48.064,72.888 48.059,72.796 M48.11,73.756 C48.116,73.847 48.121,73.938 48.126,74.028 C48.121,73.938 48.116,73.847 48.11,73.756 M48.17,74.716 L48.188,74.983 L48.17,74.716 M48.239,75.675 L48.259,75.935 L48.239,75.675 M48.317,76.629 L48.34,76.885 L48.317,76.629 M48.406,77.58 L48.431,77.833 L48.406,77.58 M48.505,78.526 L48.533,78.776 L48.505,78.526 M48.616,79.471 L48.646,79.715 L48.616,79.471 M48.739,80.409 L48.772,80.649 L48.739,80.409 M48.874,81.342 L48.91,81.576 L48.874,81.342 M49.024,82.271 L49.062,82.495 L49.024,82.271 M49.187,83.192 L49.228,83.409 L49.187,83.192 M49.364,84.102 L49.408,84.315 L49.364,84.102 M49.557,85.006 L49.603,85.21 L49.557,85.006 M49.766,85.901 L49.814,86.097 L49.766,85.901 M49.991,86.785 L50.041,86.973 L49.991,86.785 M50.233,87.659 L50.285,87.838 L50.233,87.659 M50.493,88.521 L50.547,88.692 L50.493,88.521 M50.771,89.372 L50.827,89.532 L50.771,89.372 M51.069,90.21 L51.125,90.359 L51.069,90.21 M51.385,91.033 L51.443,91.174 L51.385,91.033 M51.723,91.843 L51.78,91.973 L51.723,91.843 M52.08,92.638 L52.137,92.757 L52.08,92.638 M52.46,93.418 L52.515,93.524 L52.46,93.418 M52.862,94.181 L52.914,94.274 L52.862,94.181 M53.286,94.927 L53.333,95.005 L53.286,94.927 M53.734,95.656 L53.775,95.719 L53.734,95.656 M54.205,96.366 L54.239,96.413 L54.205,96.366 M54.702,97.057 L54.724,97.086 L54.702,97.057 M55.224,97.729 L55.231,97.737 L55.224,97.729" id="Fill-23" fill="#919191" sketch:type="MSShapeGroup"/><path d="M172.338,57.374 L176.059,59.648 L176.059,69.366 L171.407,72.468 L172.338,57.374" id="Fill-24" fill="#000000" sketch:type="MSShapeGroup"/><path d="M151.531,50.899 C162.567,51.144 173.439,52.051 173.31,57.845 C173.188,63.355 174.502,100.164 150.103,99.621 C125.704,99.078 126.379,75.429 126.776,57.571 C126.92,51.111 140.496,50.653 151.531,50.899" id="Fill-25" fill="#303030" sketch:type="MSShapeGroup"/><path d="M126.776,57.571 C126.914,51.341 139.548,50.693 150.347,50.875 C149.931,50.864 149.514,50.854 149.098,50.844 C138.062,50.599 124.485,51.057 124.342,57.516 C123.945,75.375 123.27,99.024 147.669,99.567 C148.046,99.575 148.417,99.574 148.782,99.565 C125.731,98.206 126.386,75.1 126.776,57.571" id="Fill-26" fill="#000000" sketch:type="MSShapeGroup"/><path d="M152.147,56.428 C160.299,56.609 168.329,57.279 168.234,61.559 C168.144,65.628 169.114,92.818 151.092,92.417 C133.069,92.016 133.568,74.547 133.862,61.356 C133.967,56.585 143.996,56.246 152.147,56.428" id="Fill-27" fill="#3D3D3D" sketch:type="MSShapeGroup"/><path d="M151.656,56.417 C151.821,56.42 151.984,56.424 152.147,56.428 C151.984,56.424 151.821,56.42 151.656,56.417" id="Fill-28" fill="#454545" sketch:type="MSShapeGroup"/><path d="M149.179,56.392 C148.475,56.392 147.767,56.399 147.063,56.415 L133.812,69.666 C133.971,75.49 134.744,81.31 137.462,85.607 L165.07,58 C162.001,56.83 157.098,56.538 152.147,56.428 C151.984,56.424 151.821,56.42 151.656,56.417 C150.843,56.402 150.013,56.392 149.179,56.392" id="Fill-29" fill="#515151" sketch:type="MSShapeGroup"/><path d="M167.966,69.321 L167.966,69.322 L167.966,69.321 M167.982,69.124 C167.981,69.131 167.981,69.139 167.98,69.146 C167.981,69.139 167.981,69.131 167.982,69.124 M167.987,69.056 C167.987,69.064 167.986,69.072 167.985,69.08 C167.986,69.072 167.987,69.064 167.987,69.056 M167.993,68.986 C167.991,69.001 167.99,69.016 167.989,69.031 C167.99,69.016 167.991,69.001 167.993,68.986 M168.229,61.921 L168.229,61.921 C168.217,63.206 168.237,65.802 167.995,68.961 C168.238,65.8 168.217,63.204 168.229,61.921" id="Fill-30" fill="#454545" sketch:type="MSShapeGroup"/><path d="M168.229,61.921 L140.839,89.311 C143.207,91.094 146.353,92.215 150.523,92.395 L167.06,75.859 C167.522,73.592 167.799,71.349 167.966,69.322 L167.966,69.321 C167.971,69.263 167.976,69.205 167.98,69.146 C167.981,69.139 167.981,69.131 167.982,69.124 C167.983,69.109 167.984,69.095 167.985,69.08 C167.986,69.072 167.987,69.064 167.987,69.056 C167.988,69.048 167.989,69.04 167.989,69.031 C167.99,69.016 167.991,69.001 167.993,68.986 C167.993,68.978 167.994,68.97 167.995,68.961 C168.237,65.802 168.217,63.206 168.229,61.922" id="Fill-31" fill="#515151" sketch:type="MSShapeGroup"/><path d="M168.234,61.559 C168.33,57.279 160.299,56.609 152.147,56.428 C151.842,56.421 151.533,56.415 151.223,56.41 C159.03,56.626 166.433,57.406 166.341,61.517 C166.252,65.52 167.19,91.897 150.062,92.372 C150.399,92.393 150.741,92.409 151.092,92.417 C169.114,92.818 168.144,65.629 168.234,61.559" id="Fill-32" fill="#000000" sketch:type="MSShapeGroup"/><path d="M173.527,83.168 C173.527,83.168 174.612,109.841 115.684,160.24 C59.237,122.091 51.018,116.664 36.906,93.403 C29.773,98.985 35.201,103.638 35.201,103.638 L33.96,118.369 C33.96,118.369 49.312,139.925 49.467,140.39 C49.622,140.855 66.525,157.293 66.06,157.293 C65.595,157.293 97.696,175.902 97.075,175.592 C96.455,175.282 125.299,189.859 125.764,190.169 C126.229,190.479 146.544,168.768 146.544,168.768 L146.854,167.993 L163.602,141.631 L183.296,123.487 L184.537,96.194 L173.527,83.168" id="Fill-33" fill="#BCBCBC" sketch:type="MSShapeGroup"/><path d="M101.004,55.306 C101.004,55.306 108.757,52.308 114.857,52.308 C123.128,52.308 126.126,56.34 126.797,57.581 C127.47,58.821 127.16,73.708 126.694,74.225 C126.229,74.742 122.404,70.503 115.27,70.503 C107.827,70.503 100.383,74.122 100.383,74.122 L101.004,55.306" id="Fill-34" fill="#303030" sketch:type="MSShapeGroup"/><path d="M32.888,70.65 L32.047,71.33 C32.047,71.33 30.342,75.828 30.342,80.635 C30.342,85.442 30.807,87.07 30.807,88.776 C30.807,107.54 3.126,138.09 3.126,148.945 C3.126,155.07 6.073,154.838 6.073,156.234 C6.073,157.629 5.529,157.397 5.529,162.126 C5.529,163.91 4.91,166.934 4.91,166.934 C7.128,164.701 15.002,167.246 21.29,169.79 C26.575,171.929 30.741,174.067 29.489,173.369 C45.539,178.719 44.221,186.938 45.849,186.938 C45.229,187.171 44.608,187.248 44.608,188.411 C44.608,189.574 44.531,193.064 50.501,195.157 C50.501,197.561 53.215,201.825 54.843,202.678 C56.472,203.531 66.784,210.665 90.588,210.665 C114.392,210.665 130.752,210.509 148.973,196.708 C150.912,195.002 149.516,192.288 150.136,191.823 C150.757,191.358 158.665,187.171 158.665,184.147 C158.665,181.123 156.339,170.578 167.117,164.22 C169.753,162.514 185.338,161.351 191.774,148.402 C193.557,148.247 195.728,147.472 197.821,147.472 C199.915,147.472 201.466,148.325 202.629,144.68 C203.792,141.036 215.81,101.027 215.81,87.07 C215.81,84.279 215.035,84.046 214.337,84.046 C211.158,84.046 205.575,87.226 203.327,87.226 C201.388,87.226 200.923,86.838 200.923,86.838 C200.923,86.838 201.078,84.512 197.744,84.512 C194.41,84.512 189.138,88.078 183.167,88.078 C178.429,88.078 174.889,84.141 173.74,82.528 C174.047,84.633 174.164,86.832 174.147,89.06 C174.123,92.264 173.741,95.517 172.957,98.626 C171.366,104.938 168.366,110.716 164.172,115.683 C163.402,116.596 162.454,116.949 161.519,116.911 C161.01,117.651 160.485,118.385 159.934,119.11 C159.41,119.799 158.878,120.48 158.346,121.161 C158.301,121.693 158.134,122.202 157.815,122.63 C157.732,123.027 157.577,123.405 157.335,123.738 C152.981,129.711 147.825,134.97 142.772,140.34 C142.1,141.054 141.185,141.415 140.252,141.456 C139.235,142.909 138.242,144.38 136.918,145.961 C135.586,147.553 133.941,148.823 132.064,149.567 C126.697,155.825 121.386,163.247 117.106,172.749 C117.183,176.626 116.02,175.153 116.02,175.153 C116.02,175.153 113.279,162.823 95.636,149.597 C92.975,148.294 90.299,146.999 87.686,145.612 C85.625,144.518 83.596,143.313 81.695,141.958 C79.955,140.718 78.309,139.309 76.509,138.155 C72.628,135.664 68.286,134.135 64.191,132.057 C56.753,128.281 50.806,122.092 46.164,115.25 C41.652,108.598 38.136,101.183 35.339,93.658 C33.621,89.035 32.772,84.221 32.719,79.291 C32.692,76.724 32.356,73.652 33.531,71.269 L33.543,71.122 L32.888,70.65" id="Fill-35" fill="#FFB103" sketch:type="MSShapeGroup"/><path d="M174.302,90.25 C174.302,90.25 177.094,121.988 172.751,131.499 C165.308,133.153 133.285,143.466 120.646,166.546 C138.015,142.561 165.101,116.302 165.101,116.302 L172.958,96.659 L174.302,90.25" id="Fill-36" fill="#F89B07" sketch:type="MSShapeGroup"/><path d="M104.519,158.482 C104.519,158.482 78.673,143.802 61.305,145.87 C39.594,133.877 32.564,108.548 31.324,93.868 C29.918,77.23 37.733,117.749 92.32,147.937 C102.658,153.313 104.519,158.482 104.519,158.482" id="Fill-37" fill="#F89B07" sketch:type="MSShapeGroup"/><path d="M201.285,101.312 C201.285,113.924 188.155,149.798 170.27,149.798 C164.584,149.798 168.719,148.04 165.515,148.04 C163.447,148.04 156.52,196.423 107.103,196.423 C59.547,196.423 62.856,158.896 62.856,152.382 C62.856,150.108 62.442,148.144 60.994,148.144 C59.547,148.144 59.444,158.172 59.444,160.136 C59.444,162.1 58.72,166.132 53.138,166.132 C48.072,166.132 33.288,153.209 15.816,153.209 C8.168,153.209 4.687,150.578 3.141,148.558 C3.133,148.689 3.126,148.82 3.126,148.945 C3.126,155.07 6.073,154.838 6.073,156.234 C6.073,157.629 5.529,157.397 5.529,162.126 C5.529,163.91 4.91,166.934 4.91,166.934 C4.91,166.934 7.08,164.453 28.868,171.198 C44.918,176.548 44.221,186.938 45.849,186.938 C45.229,187.171 44.608,187.248 44.608,188.411 C44.608,189.574 44.531,193.064 50.501,195.157 C50.501,197.561 53.215,201.825 54.843,202.678 C56.472,203.531 66.784,210.665 90.588,210.665 C114.392,210.665 130.752,210.509 148.973,196.708 C150.912,195.002 149.516,192.288 150.136,191.823 C150.757,191.358 158.665,187.171 158.665,184.147 C158.665,181.123 156.339,170.578 167.117,164.22 C169.753,162.514 185.338,161.351 191.774,148.402 C191.956,148.386 192.143,148.363 192.333,148.335 C201.894,124.169 201.592,106.948 201.285,101.312" id="Fill-38" fill="#F89B07" sketch:type="MSShapeGroup"/><path d="M113.901,186.408 C113.901,186.408 114.889,200.52 111.749,204.087 C113.881,204.048 115.761,203.815 115.761,203.815 C115.761,203.815 117.235,202.303 117.235,199.59 C117.235,196.876 117.08,186.137 117.08,186.137 L113.746,186.37" id="Fill-39" fill="#878787" sketch:type="MSShapeGroup"/><path d="M33.495,71.217 L31.944,76.034 L34.27,96.969 L41.248,115.423 L51.018,131.706 L61.563,135.893 L73.194,139.615 L86.995,144.887 L95.059,150.005 L100.332,154.347 L100.772,153.771 C97.159,150.58 92.715,147.259 87.254,143.983 C62.054,128.863 41.507,106.997 36.855,92.343 C33.475,81.696 33.328,74.733 33.5,71.721 L33.495,71.217" id="Fill-40" fill="#E58800" sketch:type="MSShapeGroup"/><path d="M213.661,119.026 C218.085,97.045 217.262,87.052 216.31,84.156 C215.642,84.335 214.942,84.522 214.209,84.714 L210.589,88.44 L202.836,97.124 L204.012,137.558 C206.648,135.157 209.018,132.755 211.149,130.374 C211.317,129.671 211.48,128.981 211.64,128.297 L213.923,126.085 L216.288,123.254 C216.288,123.254 217.762,121.432 218.576,119.688 C213.707,123.96 213.546,120.495 213.661,119.026" id="Fill-41" fill="#BCBCBC" sketch:type="MSShapeGroup"/><path d="M33.52,71.19 C32.986,73.095 32.461,75.72 32.461,78.671 C32.461,84.667 36.519,116.121 57.169,133.36 C61.408,133.36 98.936,140.804 116.614,173.679 C117.131,178.125 115.581,173.886 115.581,173.886 C115.581,173.886 101.831,141.838 56.239,137.289 C33.081,122.505 29.928,84.253 29.928,80.221 C29.928,75.947 30.981,71.741 33.032,69.365 L33.52,71.19" id="Fill-42" fill="#CCCCCC" sketch:type="MSShapeGroup"/><path d="M177.403,104.103 C177.403,104.103 176.473,93.558 176.473,93.092 C176.473,92.627 175.077,86.734 175.077,86.734 L174.302,84.137 C173.837,83.09 173.552,81.875 173.552,81.875 C173.552,81.875 173.475,84.279 173.475,85.675 C173.475,87.07 173.708,101.26 152.152,127.777 C144.021,138.449 129.367,148.645 119.132,168.547 L119.561,169.234 L122.393,165.248 C122.631,164.886 122.874,164.527 123.127,164.173 C124.077,162.68 125.256,161.36 126.454,160.052 C126.907,159.536 127.364,159.028 127.82,158.521 L128.085,158.207 C129.182,156.656 130.553,154.582 132.317,153.451 L134.371,151.555 L134.46,151.356 C136.674,146.952 141.398,144.21 144.83,140.84 C148.359,137.374 151.978,134.169 156.393,131.996 L163.447,126.588 L174.612,118.835 L176.783,116.198 L177.869,109.375 L177.403,104.103" id="Fill-43" fill="#E58800" sketch:type="MSShapeGroup"/><path d="M53.448,176.471 C51.716,169.389 30.936,155.587 11.371,155.587 C8.73,155.587 7.007,156.243 6.039,156.776 C5.921,157.672 5.529,158.11 5.529,162.126 C5.529,163.91 4.91,166.934 4.91,166.934 C4.91,166.934 15.349,166.057 29.489,173.369 C42.576,180.137 44.66,185.129 45.488,187.084 C45.753,187.124 45.948,187.145 46.056,187.145 C47.555,187.145 53.189,182.027 53.448,176.471" id="Fill-44" fill="#F2F2F2" sketch:type="MSShapeGroup"/><path d="M6.512,163.574 C39.181,167.373 47.811,181.533 49.093,185.103 C50.519,183.95 52.117,181.381 52.588,180.05 C41.385,162.56 15.713,158.921 10.544,158.921 C7.287,158.921 6.46,159.102 5.669,159.445 C5.589,160.162 5.529,160.562 5.529,162.126 C5.529,162.534 5.497,163.007 5.447,163.494 C5.768,163.508 6.119,163.528 6.512,163.574" id="Fill-45" fill="#FFB103" sketch:type="MSShapeGroup"/><path d="M115.237,172.465 C115.237,172.465 122.224,171.959 122.224,176.457 C122.224,180.954 120.171,181.123 120.171,181.123 L110.854,180.87 C110.854,180.87 108.525,179.099 108.525,176.457 C108.525,173.814 111.436,172.465 115.237,172.465" id="Fill-46" fill="#898989" sketch:type="MSShapeGroup"/><path d="M214.337,84.046 C211.158,84.046 205.575,87.226 203.327,87.226 C202.063,87.226 201.296,87.061 200.913,86.946 C201.414,89.481 201.802,93.27 201.802,98.934 C201.802,114.761 197.767,137.648 192.089,148.369 C193.81,148.159 195.85,147.472 197.821,147.472 C199.915,147.472 202.829,148.26 204.18,144.68 C213.794,119.196 215.81,101.027 215.81,87.07 C215.81,84.279 215.035,84.046 214.337,84.046" id="Fill-47" fill="#F2F2F2" sketch:type="MSShapeGroup"/><path d="M115.905,172.187 C115.905,172.187 122.352,171.678 122.352,176.203 C122.352,180.727 120.458,180.897 120.458,180.897 L111.861,180.642 C111.861,180.642 109.712,178.861 109.712,176.203 C109.712,173.545 112.399,172.187 115.905,172.187" id="Fill-48" fill="#B5B5B5" sketch:type="MSShapeGroup"/><path d="M118.553,179.055 C118.553,179.055 112.634,179.236 111.962,179.236 C111.29,179.236 111.058,179.934 111.058,179.934 C111.058,179.934 108.008,186.576 108.008,189.626 C108.008,192.676 112.712,192.547 115.064,192.547 C117.416,192.547 121.267,191.668 121.267,188.489 C121.267,185.31 118.553,179.055 118.553,179.055 L118.553,179.055 Z M114.999,191.254 C112.17,191.254 109.876,190.282 109.876,189.082 C109.876,187.882 112.17,186.909 114.999,186.909 C117.829,186.909 120.122,187.882 120.122,189.082 C120.122,190.282 117.829,191.254 114.999,191.254 L114.999,191.254 Z" id="Fill-49" fill="#898989" sketch:type="MSShapeGroup"/><path d="M119.793,179.055 C119.793,179.055 113.875,179.236 113.203,179.236 C112.531,179.236 111.911,179.986 111.911,179.986 C111.911,179.986 109.248,186.576 109.248,189.626 C109.248,192.676 113.952,192.547 116.304,192.547 C118.656,192.547 122.507,191.668 122.507,188.489 C122.507,185.31 119.793,179.055 119.793,179.055 L119.793,179.055 Z M115.93,191.254 C113.1,191.254 110.807,190.282 110.807,189.082 C110.807,187.882 113.1,186.909 115.93,186.909 C118.759,186.909 121.052,187.882 121.052,189.082 C121.052,190.282 118.759,191.254 115.93,191.254 L115.93,191.254 Z" id="Fill-50" fill="#B5B5B5" sketch:type="MSShapeGroup"/><path d="M150.343,191.487 C139.178,197.923 125.376,202.032 123.515,202.42 C121.654,202.807 119.018,204.668 117.855,204.668 C116.692,204.668 115.761,203.815 115.761,203.815 C115.761,203.815 113.125,204.048 112.117,204.048 C111.109,204.048 110.101,205.831 107.465,205.831 C106.612,205.831 104.984,205.211 103.433,205.211 C73.152,205.211 48.936,194.066 46.495,192.904 C47.366,193.716 48.639,194.504 50.501,195.157 C50.501,197.561 53.215,201.825 54.843,202.678 C56.472,203.531 66.784,210.664 90.588,210.664 C114.392,210.664 130.752,210.509 148.973,196.708 C150.912,195.002 149.516,192.288 150.136,191.823 C150.356,191.658 151.492,191.025 152.866,190.143 C152.111,190.507 151.274,190.95 150.343,191.487" id="Fill-51" fill="#CCCCCC" sketch:type="MSShapeGroup"/><path d="M211.054,91.154 C211.054,88.059 211.269,86.023 210.872,84.769 C209.032,85.376 207.067,86.224 205.487,86.749 C205.527,89.109 205.549,91.945 205.549,95.341 C205.549,122.098 198.417,142.53 196.489,147.564 C196.933,147.508 197.379,147.472 197.821,147.472 C198.426,147.472 198.985,147.543 199.502,147.556 C207.178,132.016 211.054,109.065 211.054,91.154" id="Fill-52" fill="#FFB103" sketch:type="MSShapeGroup"/><path d="M173.579,81.684 L173.528,81.943 C174.844,87.445 179.607,109.49 173.475,117.336 C129.211,148.952 118.674,168.477 117.264,172.245 C117.362,172.242 117.46,172.243 117.557,172.247 C136.706,142.196 176.473,118.68 176.473,118.68 C176.473,118.68 178.799,116.198 178.799,105.809 C178.799,97.035 174.818,85.164 173.579,81.684" id="Fill-53" fill="#CCCCCC" sketch:type="MSShapeGroup"/><path d="M113.855,181.717 C113.855,181.717 112.02,185.284 116.13,185.284 C120.239,185.284 118.172,181.666 118.172,181.666 L113.855,181.717" id="Fill-54" fill="#727272" sketch:type="MSShapeGroup"/><path d="M113.901,173.886 C113.901,173.886 113.952,172.775 115.529,172.775 C117.105,172.775 117.545,173.085 117.545,174.17 L117.545,182.105 C117.545,182.105 117.442,183.294 115.787,183.294 C114.133,183.294 113.875,182.596 113.875,181.898 C113.875,181.2 113.901,173.886 113.901,173.886" id="Fill-55" fill="#898989" sketch:type="MSShapeGroup"/><path d="M114.831,173.886 C114.831,173.886 114.883,172.775 116.459,172.775 C118.036,172.775 118.475,173.085 118.475,174.17 L118.475,182.105 C118.475,182.105 118.372,183.294 116.718,183.294 C115.064,183.294 114.805,182.596 114.805,181.898 C114.805,181.2 114.831,173.886 114.831,173.886" id="Fill-56" fill="#CCCCCC" sketch:type="MSShapeGroup"/><path d="M117.855,174.403 C117.855,174.974 117.346,175.437 116.718,175.437 C116.09,175.437 115.581,174.974 115.581,174.403 C115.581,173.832 116.09,173.369 116.718,173.369 C117.346,173.369 117.855,173.832 117.855,174.403" id="Fill-57" fill="#FFFFFF" sketch:type="MSShapeGroup"/><path d="M202.837,87.217 C202.96,87.221 203.09,87.224 203.228,87.225 L203.238,87.225 L203.245,87.225 L203.263,87.225 C203.267,87.225 203.27,87.226 203.274,87.226 L203.293,87.226 L203.3,87.226 L203.32,87.226 L203.32,87.225 C203.15,87.225 202.989,87.222 202.837,87.217" id="Fill-58" fill="#F2F2F2" sketch:type="MSShapeGroup"/><path d="M203.293,87.226 L203.3,87.226 L203.293,87.226 M203.263,87.225 C203.267,87.225 203.27,87.226 203.274,87.226 C203.27,87.226 203.267,87.225 203.263,87.225 M203.238,87.225 L203.245,87.225 L203.238,87.225 M200.913,86.946 L200.913,86.946 C201.286,87.058 202.023,87.217 203.228,87.225 C203.09,87.224 202.96,87.221 202.837,87.217 C201.861,87.182 201.244,87.045 200.913,86.946" id="Fill-59" fill="#F2A803" sketch:type="MSShapeGroup"/><path d="M193.248,145.965 C192.87,146.82 192.484,147.624 192.089,148.369 L192.089,148.368 C192.484,147.624 192.87,146.82 193.248,145.965 M201.266,109.929 C200.608,117.207 199.374,124.965 197.72,131.926 C199.374,124.965 200.608,117.207 201.266,109.929" id="Fill-60" fill="#EB9307" sketch:type="MSShapeGroup"/><path d="M204.244,144.51 C204.242,144.515 204.241,144.519 204.239,144.523 C204.241,144.519 204.242,144.515 204.244,144.51 M204.303,144.352 C204.301,144.358 204.3,144.36 204.298,144.366 C204.3,144.361 204.302,144.357 204.303,144.352 M204.36,144.2 C204.36,144.202 204.358,144.205 204.358,144.207 C204.358,144.205 204.359,144.203 204.36,144.2 M204.419,144.043 C204.418,144.045 204.417,144.048 204.417,144.049 C204.418,144.047 204.418,144.045 204.419,144.043" id="Fill-61" fill="#F2F2F2" sketch:type="MSShapeGroup"/><path d="M197.749,147.472 L197.737,147.472 L197.749,147.472 M197.821,147.472 L197.778,147.472 L197.821,147.472 M210.332,125.873 C208.792,126.807 207.569,127.246 206.59,127.363 C204.778,134.7 202.417,141.651 199.51,147.539 C199.641,147.543 199.772,147.545 199.903,147.545 C201.551,147.545 203.242,147.166 204.18,144.68 C204.199,144.628 204.219,144.576 204.239,144.523 C204.241,144.519 204.242,144.515 204.244,144.51 C204.262,144.462 204.28,144.414 204.298,144.366 C204.3,144.36 204.301,144.358 204.303,144.352 C204.321,144.304 204.34,144.255 204.358,144.207 C204.358,144.205 204.36,144.202 204.36,144.2 C204.379,144.15 204.398,144.1 204.417,144.049 C204.417,144.048 204.418,144.045 204.419,144.043 C206.859,137.521 208.796,131.484 210.332,125.873 M200.913,86.946 C201.414,89.481 201.802,93.27 201.802,98.934 C201.802,102.336 201.615,106.066 201.266,109.929 C200.608,117.207 199.374,124.965 197.72,131.926 C196.452,137.267 194.937,142.138 193.248,145.965 C192.87,146.82 192.484,147.624 192.089,148.369 C193.424,148.206 194.951,147.756 196.489,147.562 C197.61,144.637 200.484,136.52 202.698,124.988 C202.636,124.875 202.579,124.77 202.526,124.676 C201.795,123.397 203.082,94.27 203.32,87.225 C203.313,87.226 203.306,87.226 203.3,87.226 L203.293,87.226 L203.274,87.226 C203.27,87.226 203.267,87.225 203.263,87.225 L203.245,87.225 L203.238,87.225 L203.228,87.225 C202.023,87.217 201.286,87.058 200.913,86.946" id="Fill-62" fill="#E6E6E6" sketch:type="MSShapeGroup"/><path d="M202.698,124.988 C200.484,136.52 197.61,144.637 196.489,147.562 C196.906,147.51 197.323,147.476 197.737,147.472 L197.749,147.472 L197.778,147.472 L197.821,147.472 C198.345,147.472 198.921,147.521 199.51,147.539 C202.417,141.651 204.778,134.7 206.59,127.363 C206.403,127.386 206.224,127.396 206.054,127.396 C204.054,127.396 203.217,125.934 202.698,124.988" id="Fill-63" fill="#F2A803" sketch:type="MSShapeGroup"/><path d="M5.983,157.098 L5.983,157.1 L5.983,157.098 M5.988,157.077 C5.987,157.078 5.987,157.079 5.987,157.081 C5.987,157.079 5.987,157.078 5.988,157.077 M5.99,157.067 C5.989,157.068 5.989,157.069 5.989,157.069 C5.989,157.069 5.989,157.068 5.99,157.067 M6.039,156.776 L6.039,156.776 C6.026,156.875 6.01,156.967 5.991,157.06 C6.01,156.967 6.026,156.875 6.039,156.776" id="Fill-64" fill="#F2F2F2" sketch:type="MSShapeGroup"/><path d="M11.371,155.587 C8.73,155.587 7.008,156.243 6.039,156.776 C6.026,156.875 6.01,156.967 5.991,157.06 C5.991,157.062 5.99,157.065 5.99,157.067 C5.989,157.068 5.989,157.069 5.989,157.069 C5.989,157.072 5.988,157.074 5.988,157.077 C5.987,157.078 5.987,157.079 5.987,157.081 C5.986,157.086 5.985,157.092 5.983,157.098 L5.983,157.1 C5.901,157.49 5.78,157.891 5.683,158.699 C6.973,158.579 8.568,158.485 10.395,158.485 C17.879,158.485 29.271,160.064 39.751,167.9 C44.693,170.914 49.274,174.876 52.588,180.05 C53.069,178.912 53.39,177.702 53.448,176.471 C51.716,169.389 30.936,155.587 11.371,155.587" id="Fill-65" fill="#E6E6E6" sketch:type="MSShapeGroup"/><path d="M43.097,183.154 L43.096,183.154 C44.569,184.918 45.136,186.254 45.481,187.069 C45.136,186.253 44.572,184.919 43.097,183.154" id="Fill-66" fill="#B2B2B2" sketch:type="MSShapeGroup"/><path d="M45.481,187.069 L45.481,187.069 C45.484,187.074 45.486,187.08 45.488,187.084 C45.486,187.079 45.484,187.074 45.481,187.069" id="Fill-67" fill="#EB9307" sketch:type="MSShapeGroup"/><path d="M45.853,179.993 C44.966,181.657 43.598,182.779 43.097,183.154 C44.572,184.919 45.136,186.253 45.481,187.069 C45.484,187.074 45.486,187.079 45.488,187.084 C45.753,187.124 45.948,187.145 46.056,187.145 C46.656,187.145 47.918,186.325 49.234,184.985 C49.187,185.026 49.14,185.065 49.093,185.103 C48.73,184.091 47.776,182.229 45.853,179.993" id="Fill-68" fill="#E6E6E6" sketch:type="MSShapeGroup"/><path d="M39.751,167.9 C41.525,169.226 43.272,170.732 44.97,172.439 C47.252,175.465 46.869,178.085 45.853,179.993 C47.776,182.229 48.73,184.091 49.093,185.103 C49.14,185.065 49.187,185.026 49.234,184.985 C50.476,183.719 51.765,181.989 52.588,180.049 C49.274,174.876 44.693,170.914 39.751,167.9" id="Fill-69" fill="#F2A803" sketch:type="MSShapeGroup"/><path d="M173.546,82.019 L173.546,82.019 C173.547,82.021 173.547,82.023 173.548,82.025 C173.547,82.023 173.547,82.021 173.546,82.019" id="Fill-70" fill="#FFFFFF" sketch:type="MSShapeGroup"/><path d="M173.548,82.025 L173.548,82.025 C174.853,87.503 179.316,108.317 173.959,116.646 L173.962,116.649 C179.317,108.319 174.853,87.504 173.548,82.025" id="Fill-71" fill="#F8DCB3" sketch:type="MSShapeGroup"/><path d="M176.473,118.68 C176.473,118.68 176.455,118.691 176.418,118.712 L176.473,118.68" id="Fill-72" fill="#FFE8B4" sketch:type="MSShapeGroup"/><path d="M173.579,81.684 L173.579,81.684 L173.546,82.019 C173.547,82.021 173.547,82.023 173.548,82.025 C174.853,87.504 179.317,108.319 173.962,116.649 L176.418,118.712 C176.455,118.691 176.473,118.68 176.473,118.68 C176.473,118.68 178.799,116.198 178.799,105.809 C178.799,97.035 174.818,85.164 173.579,81.684" id="Fill-73" fill="#F0F0F0" sketch:type="MSShapeGroup"/><path d="M56.239,137.289 L56.316,137.297 L56.316,137.296 C56.291,137.294 56.264,137.291 56.239,137.289" id="Fill-74" fill="#FDE1B5" sketch:type="MSShapeGroup"/><path d="M32.461,78.792 C32.514,85.052 36.62,115.978 56.917,133.148 L56.918,133.144 C36.622,115.974 32.515,85.053 32.461,78.792 M32.461,78.671 L32.461,78.671 L32.461,78.69 L32.461,78.671" id="Fill-75" fill="#F8DCB3" sketch:type="MSShapeGroup"/><path d="M33.032,69.365 C30.981,71.741 29.928,75.947 29.928,80.221 C29.928,84.253 33.081,122.505 56.239,137.289 C56.264,137.291 56.291,137.294 56.316,137.296 L56.917,133.148 C36.62,115.978 32.514,85.052 32.461,78.792 L32.461,78.69 L32.461,78.671 C32.461,75.72 32.986,73.095 33.52,71.19 L33.032,69.365" id="Fill-76" fill="#F0F0F0" sketch:type="MSShapeGroup"/><path d="M104.755,72.404 C103.744,72.739 102.864,73.07 102.165,73.351 L102.165,73.352 C102.865,73.071 103.744,72.741 104.755,72.406 L104.755,72.404 M104.234,54.217 C103.437,54.459 102.75,54.686 102.217,54.87 C102.75,54.686 103.437,54.459 104.234,54.217" id="Fill-77" fill="#C6C6C6" sketch:type="MSShapeGroup"/><path d="M104.234,54.217 C103.437,54.459 102.75,54.686 102.217,54.87 C102.575,55.487 102.766,56.181 102.766,56.96 C102.766,59.133 103.087,65.769 102.165,73.351 C102.864,73.07 103.744,72.739 104.755,72.404 C105.54,65.222 105.247,59.041 105.247,56.96 C105.247,55.894 104.889,54.987 104.234,54.217" id="Fill-78" fill="#2B2B2B" sketch:type="MSShapeGroup"/><path d="M77.623,49.93 C90.28,49.93 102.766,50.654 102.766,56.96 C102.766,62.956 105.211,102.966 77.228,102.966 C49.245,102.966 49.415,77.223 49.415,57.787 C49.415,50.757 64.967,49.93 77.623,49.93" id="Fill-79" fill="#303030" sketch:type="MSShapeGroup"/><path d="M49.416,57.787 C49.416,51.007 63.882,49.997 76.265,49.934 C75.788,49.931 75.31,49.93 74.832,49.93 C62.175,49.93 46.624,50.757 46.624,57.787 C46.624,77.223 46.453,102.966 74.436,102.966 C74.869,102.966 75.294,102.956 75.713,102.937 C49.254,102.016 49.416,76.865 49.416,57.787" id="Fill-80" fill="#000000" sketch:type="MSShapeGroup"/><path d="M78.471,55.93 C87.819,55.93 97.042,56.464 97.042,61.123 C97.042,65.552 98.848,95.105 78.178,95.105 C57.508,95.105 57.635,76.09 57.635,61.733 C57.635,56.541 69.122,55.93 78.471,55.93" id="Fill-81" fill="#3D3D3D" sketch:type="MSShapeGroup"/><path d="M78.471,55.93 L78.27,55.93 L78.471,55.93 L78.686,55.93 L78.471,55.93" id="Fill-82" fill="#454545" sketch:type="MSShapeGroup"/><path d="M78.471,55.93 L78.27,55.93 C77.107,55.931 75.912,55.942 74.712,55.971 L57.919,72.764 C58.306,77.698 59.218,82.512 61.368,86.401 L91.033,56.736 C87.639,56.07 83.187,55.934 78.686,55.93 L78.471,55.93" id="Fill-83" fill="#515151" sketch:type="MSShapeGroup"/><path d="M97.042,61.215 L97.042,61.219 L97.042,61.215 M97.042,61.177 L97.042,61.205 L97.042,61.177 M97.042,61.158 L97.042,61.168 L97.042,61.158 M97.042,61.144 L97.042,61.154 L97.042,61.144 M97.042,61.099 L97.042,61.123 L97.042,61.136 L97.042,61.123 L97.042,61.099 M97.042,61.074 L97.042,61.091 L97.042,61.074 M97.041,61.043 L97.041,61.065 L97.041,61.043 M97.04,61.019 C97.041,61.025 97.041,61.031 97.041,61.037 C97.041,61.031 97.041,61.025 97.04,61.019 M97.04,60.996 L97.04,61.007 L97.04,60.996 M97.039,60.978 L97.039,60.982 L97.039,60.978" id="Fill-84" fill="#454545" sketch:type="MSShapeGroup"/><path d="M96.809,59.926 L65.435,91.3 C67.464,92.92 70.021,94.099 73.243,94.685 L96.817,71.111 C97.212,66.528 97.05,62.694 97.042,61.219 L97.042,61.215 L97.042,61.205 L97.042,61.177 L97.042,61.168 L97.042,61.158 L97.042,61.154 L97.042,61.144 L97.042,61.136 L97.042,61.123 L97.042,61.099 L97.042,61.091 L97.042,61.074 C97.042,61.071 97.041,61.068 97.041,61.065 L97.041,61.043 L97.041,61.037 C97.041,61.031 97.041,61.025 97.04,61.019 L97.04,61.007 L97.04,60.996 C97.039,60.992 97.039,60.987 97.039,60.982 L97.039,60.978 C97.023,60.6 96.944,60.251 96.809,59.926" id="Fill-85" fill="#515151" sketch:type="MSShapeGroup"/><path d="M97.042,61.123 C97.042,56.464 87.819,55.93 78.47,55.93 C78.12,55.93 77.766,55.931 77.41,55.933 C86.365,55.979 94.871,56.649 94.871,61.123 C94.871,65.48 96.618,94.15 76.997,95.081 C77.384,95.095 77.776,95.105 78.178,95.105 C98.848,95.105 97.042,65.552 97.042,61.123" id="Fill-86" fill="#000000" sketch:type="MSShapeGroup"/><path d="M124.684,73.232 L124.684,73.232 C125.67,73.819 126.303,74.269 126.581,74.269 C126.63,74.269 126.667,74.255 126.694,74.225 C126.667,74.255 126.63,74.269 126.581,74.269 C126.304,74.269 125.67,73.819 124.684,73.231" id="Fill-87" fill="#000000" sketch:type="MSShapeGroup"/><path d="M124.163,54.802 L124.684,73.232 C125.67,73.819 126.304,74.269 126.581,74.269 C126.63,74.269 126.667,74.255 126.694,74.225 C126.967,73.922 127.186,68.686 127.186,64.152 C127.186,60.948 127.076,58.094 126.797,57.581 C126.492,57.017 125.705,55.878 124.163,54.802" id="Fill-88" fill="#2B2B2B" sketch:type="MSShapeGroup"/><path d="M47.658,55.926 L30.6,59.958 L30.91,69.986 L47.451,70.71 L47.658,55.926" id="Fill-89" fill="#000000" sketch:type="MSShapeGroup"/><path d="M147.71,185.723 C147.581,185.723 147.465,185.644 147.417,185.523 C146.455,183.12 144.535,181.166 142.149,180.162 C142.032,180.113 141.956,179.998 141.956,179.871 C141.956,179.744 142.032,179.629 142.149,179.58 C144.535,178.575 146.455,176.621 147.417,174.219 C147.465,174.099 147.581,174.019 147.71,174.019 C147.839,174.019 147.955,174.099 148.003,174.219 C148.965,176.621 150.885,178.575 153.272,179.58 C153.389,179.629 153.465,179.744 153.465,179.871 C153.465,179.998 153.389,180.113 153.27,180.162 C150.885,181.166 148.965,183.12 148.003,185.523 C147.955,185.644 147.839,185.723 147.71,185.723" id="Fill-90" fill="#FFFFFF" sketch:type="MSShapeGroup"/><path d="M147.71,174.336 C148.708,176.829 150.676,178.83 153.148,179.871 C150.676,180.911 148.708,182.912 147.71,185.406 C146.712,182.912 144.744,180.911 142.272,179.871 C144.744,178.83 146.712,176.829 147.71,174.336 M147.71,173.703 C147.452,173.703 147.219,173.861 147.123,174.101 C146.193,176.426 144.335,178.316 142.027,179.288 C141.792,179.387 141.64,179.617 141.64,179.871 C141.64,180.125 141.792,180.355 142.027,180.453 C144.335,181.425 146.193,183.316 147.123,185.641 C147.219,185.881 147.452,186.038 147.71,186.038 C147.968,186.038 148.201,185.881 148.297,185.641 C149.227,183.316 151.085,181.425 153.393,180.453 C153.628,180.355 153.78,180.125 153.78,179.871 C153.78,179.617 153.628,179.387 153.393,179.288 C151.085,178.316 149.227,176.426 148.297,174.101 C148.201,173.861 147.968,173.703 147.71,173.703" id="Fill-91" fill="#FFFFFF" sketch:type="MSShapeGroup"/><path d="M28.923,137.767 C28.757,137.767 28.607,137.665 28.546,137.511 C27.311,134.423 24.843,131.912 21.777,130.621 C21.626,130.558 21.528,130.41 21.528,130.247 C21.528,130.084 21.626,129.937 21.777,129.873 C24.843,128.582 27.311,126.071 28.546,122.983 C28.607,122.829 28.757,122.728 28.923,122.728 C29.089,122.728 29.238,122.829 29.3,122.982 C30.536,126.071 33.004,128.582 36.069,129.873 C36.221,129.937 36.318,130.084 36.318,130.247 C36.318,130.41 36.221,130.558 36.069,130.621 C33.004,131.912 30.536,134.423 29.3,137.512 C29.238,137.665 29.089,137.767 28.923,137.767" id="Fill-92" fill="#FFFFFF" sketch:type="MSShapeGroup"/><path d="M28.923,123.133 C30.206,126.338 32.735,128.91 35.912,130.247 C32.735,131.584 30.206,134.156 28.923,137.361 C27.641,134.156 25.111,131.584 21.935,130.247 C25.111,128.91 27.641,126.338 28.923,123.133 M28.923,122.321 C28.591,122.321 28.292,122.523 28.169,122.832 C26.973,125.819 24.586,128.249 21.619,129.498 C21.318,129.625 21.122,129.92 21.122,130.247 C21.122,130.574 21.318,130.869 21.619,130.996 C24.586,132.245 26.973,134.675 28.169,137.663 C28.292,137.971 28.591,138.173 28.923,138.173 C29.256,138.173 29.554,137.971 29.678,137.662 C30.873,134.675 33.261,132.245 36.227,130.996 C36.528,130.869 36.724,130.574 36.724,130.247 C36.724,129.92 36.528,129.625 36.227,129.498 C33.261,128.249 30.873,125.819 29.678,122.832 C29.554,122.523 29.256,122.321 28.923,122.321" id="Fill-93" fill="#FFFFFF" sketch:type="MSShapeGroup"/></g></g></g></svg>