<?xml version="1.0" encoding="UTF-8"?><svg width="151px" height="28px" viewBox="0 0 151 28" version="1.1" xmlns="http://www.w3.org/2000/svg" xmlns:xlink="http://www.w3.org/1999/xlink"><title>plus-logo-1</title><desc>Created with Sketch.</desc><defs/><g id="Page-1" stroke="none" stroke-width="1" fill="none" fill-rule="evenodd"><g id="plus-logo-1"><path d="M37.6312481,16.1617139 C36.9417598,16.8810102 36.0798994,17.2414882 35.0423457,17.2414882 C34.0051242,17.2414882 33.1482457,16.8839976 32.4713781,16.1743273 C31.795839,15.4620016 31.4567409,14.5329243 31.4567409,13.3847721 C31.4567409,13.380457 31.4577373,13.3771377 31.4577373,13.3728225 C31.4607264,12.2628425 31.8031457,11.3513576 32.4849951,10.6390319 C33.1688373,9.92338682 34.0250516,9.56589622 35.0539701,9.56589622 C36.1074657,9.56589622 36.9723151,9.91973557 37.6485185,10.6267504 C38.322397,11.3314417 38.6598344,12.2465778 38.6634878,13.3728225 C38.6634878,13.3771377 38.664152,13.380457 38.664152,13.3847721 C38.664152,14.5173235 38.3204042,15.4414218 37.6312481,16.1617139 Z M41.077361,9.91641625 C40.4635969,8.8505831 39.6080469,8.00581656 38.5120395,7.38344436 C37.4157,6.76206794 36.2449648,6.44938815 34.9998339,6.44938815 C33.2774417,6.44938815 31.7533272,7.04786126 30.426494,8.24480749 C28.9203141,9.61269861 28.1653975,11.3221476 28.158755,13.3728225 C28.158755,13.380457 28.1580908,13.3887553 28.1580908,13.3967216 C28.1580908,15.3205986 28.828648,16.9556949 30.1661092,18.3003508 C31.5039025,19.6469982 33.1196831,20.3194922 35.0117904,20.3194922 C36.2987688,20.3194922 37.4741537,20.0147787 38.5422627,19.4043561 C39.6100396,18.7955931 40.4539653,17.9468433 41.0707186,16.8654094 C41.6904609,15.7816519 42,14.6188947 42,13.3728225 C42,12.1360445 41.6924537,10.9839091 41.077361,9.91641625 Z M9.4744858,16.1617139 C8.78499751,16.8810102 7.9224729,17.2414882 6.88558347,17.2414882 C5.8480298,17.2414882 4.99148341,16.8839976 4.31494793,16.1743273 C3.6390767,15.4620016 3.3006429,14.5329243 3.3006429,13.3847721 C3.3006429,13.380457 3.30097502,13.3771377 3.30097502,13.3728225 L3.29997865,13.3728225 C3.30296776,12.2628425 3.64306218,11.3513576 4.32657225,10.6390319 C5.01008232,9.92338682 5.8679572,9.56589622 6.89621142,9.56589622 C7.9493749,9.56589622 8.81422437,9.91973557 9.49075985,10.6267504 C10.1639741,11.3314417 10.5020758,12.2465778 10.5047328,13.3728225 C10.5047328,13.3771377 10.5067255,13.380457 10.5067255,13.3847721 C10.5067255,14.5173235 10.1623135,15.4414218 9.4744858,16.1617139 Z M13.8286243,2.31949215 L10.5166892,2.31949215 L10.5166892,7.48999448 C10.4605603,7.45680129 10.4117382,7.41597368 10.3542808,7.38344436 C9.25794131,6.76206794 8.08753825,6.44938815 6.84174317,6.44938815 C5.11935094,6.44938815 3.59424003,7.04786126 2.26807107,8.24480749 C0.760894835,9.61269861 0.00697459256,11.3221476 0,13.3728225 L0.00199274073,13.3728225 C0.00199274073,13.380457 0.00132849382,13.3887553 0.00132849382,13.3967216 C0.00132849382,15.3205986 0.669893009,16.9556949 2.00801841,18.3003508 C3.34714018,19.6469982 4.96292079,20.3194922 6.85403174,20.3194922 C8.14067801,20.3194922 9.31705928,20.0147787 10.3845041,19.4043561 C11.4519489,18.7955931 12.2962067,17.9468433 12.9146205,16.8654094 C13.4556497,15.9167482 13.760539,14.9080073 13.8286243,13.8368633 L13.8286243,13.8352036 C13.8379238,13.6818511 13.8422414,13.5278347 13.8422414,13.3728225 C13.8422414,13.2287641 13.8375916,13.0863654 13.8286243,12.9449624 L13.8286243,2.31949215 Z M23.6727635,13.2513355 C23.6727635,13.2934908 23.6720993,13.331663 23.6720993,13.3728225 C23.6664532,14.5471974 23.5977036,15.3222583 23.4655185,15.6880471 C23.2795293,16.1968987 22.9929068,16.5829354 22.6076436,16.8468212 C22.2233767,17.1090474 21.7540863,17.2414882 21.2037577,17.2414882 C20.6521007,17.2414882 20.1884563,17.1080516 19.8121605,16.8405145 C19.4338718,16.5729774 19.1608664,16.200218 18.9908192,15.7185849 C18.8304035,15.2691492 18.7470405,14.4831346 18.737409,13.3728225 C18.7367447,13.2961463 18.7350841,13.2227893 18.7350841,13.1427938 L18.7350841,6.78928636 L15.3872797,6.78928636 L15.3872797,12.2817626 C15.3872797,12.6701228 15.3925936,13.0286092 15.4018931,13.3728225 C15.4404194,14.8967216 15.5643015,15.9930925 15.7758641,16.6463344 C16.1382108,17.8027849 16.7679169,18.7026521 17.6609968,19.3502512 C18.5547411,19.9971863 19.7251441,20.3194922 21.1732024,20.3194922 C22.5076744,20.3194922 23.6086637,20.0433249 24.473181,19.4896625 C25.3376984,18.9366641 25.992978,18.1416873 26.4380234,17.1080516 C26.7459018,16.3877595 26.9235879,15.1386999 26.9700852,13.3728225 C26.9780561,13.0564915 26.9846986,12.7292067 26.9846986,12.3783547 L26.9846986,6.78928636 L23.6727635,6.78928636 L23.6727635,13.2513355 L23.6727635,13.2513355 Z" id="Fill-1" fill="#FFFFFF"/><path d="M81.9334991,13.2939017 L81.9321705,13.2939017 C81.9305097,14.3968815 81.5960382,15.2923148 80.9280915,15.9821689 C80.2564912,16.6743182 79.4008817,17.020229 78.3562808,17.020229 C77.3355945,17.020229 76.4879565,16.6703837 75.8087169,15.9703654 C75.1331308,15.2739536 74.7946735,14.3808155 74.7920163,13.2939017 L74.7923484,13.2939017 C74.7923484,13.2896393 74.7920163,13.2866884 74.7920163,13.2820981 C74.7920163,12.15879 75.1274843,11.2492579 75.7987525,10.5518626 C76.4680277,9.85577875 77.3183229,9.50724501 78.3459843,9.50724501 C79.3723171,9.50724501 80.2279266,9.8593854 80.9104877,10.563994 C81.5930489,11.2686027 81.9348277,12.1742002 81.9348277,13.2820981 C81.9348277,13.2866884 81.9334991,13.2896393 81.9334991,13.2939017 Z M85.2270642,12.8401193 C85.1593063,11.7915672 84.8573851,10.8040003 84.3206363,9.87512352 C83.7084902,8.81575147 82.8728095,7.98654939 81.8139263,7.3901403 C80.7563717,6.79241971 79.5898731,6.49306759 78.3154268,6.49306759 C76.4394631,6.49306759 74.838849,7.15144552 73.5125878,8.46951288 C72.1853302,9.7865966 71.5220336,11.3869664 71.5220336,13.2706224 C71.5220336,13.2778357 71.5223657,13.2860327 71.5223657,13.2939017 L71.5220336,13.2939017 C71.5280122,15.3014954 72.2763384,16.974654 73.7693371,18.3143613 C75.0839731,19.4855395 76.595572,20.0704729 78.3014766,20.0704729 C79.5370618,20.0704729 80.6965853,19.7665305 81.7823724,19.1570063 C81.8395016,19.1252022 81.887995,19.0861848 81.9441278,19.0527413 L81.9441278,20.533108 C81.9418027,21.6357599 81.582088,22.537095 80.9144735,23.2276049 C80.2435375,23.9194263 79.385603,24.2650092 78.3433271,24.2650092 C77.3419053,24.2650092 76.5045639,23.9259839 75.8332957,23.2505563 L73.7009149,25.5053696 C73.7211758,25.5224192 73.7364546,25.5424197 73.7553869,25.5601251 C75.0700229,26.7313034 76.581954,27.3162367 78.2881908,27.3162367 C79.5237759,27.3162367 80.6849602,27.0119664 81.770083,26.4021144 C82.8555379,25.7939017 83.7025115,24.9656833 84.313329,23.9220493 C84.9221536,22.8771039 85.2270642,21.7501891 85.2270642,20.5386819 L85.2270642,13.7129291 C85.2347035,13.5745648 85.2396857,13.4352169 85.2396857,13.2939017 L85.2410143,13.2939017 C85.2410143,13.1420945 85.2366964,12.9912708 85.2270642,12.8420866 L85.2270642,12.8401193 Z M96.8867363,13.3837401 C96.8844113,14.4975398 96.5472826,15.4011701 95.8740215,16.0975818 C95.1971069,16.7956329 94.331533,17.1441666 93.2789606,17.1441666 C92.2512992,17.1441666 91.3933647,16.7916984 90.7081464,16.0847946 C90.0279103,15.3821532 89.6848029,14.481146 89.6824779,13.3837401 C89.6824779,13.3807892 89.6818136,13.3771826 89.6818136,13.3725923 C89.6818136,12.2394478 90.020603,11.3210631 90.6971855,10.6177659 C91.3744323,9.91512457 92.2300418,9.56462357 93.2673355,9.56462357 C94.3049613,9.56462357 95.1672137,9.91971485 95.8557535,10.6305532 C96.5439611,11.3404079 96.8900578,12.2548581 96.8900578,13.3725923 C96.8900578,13.3771826 96.8867363,13.3807892 96.8867363,13.3837401 Z M99.2961273,9.93545297 C98.6763419,8.86624459 97.8340183,8.02950134 96.7671636,7.42686258 C95.6996446,6.82389594 94.5228494,6.52290444 93.236778,6.52290444 C91.344207,6.52290444 89.7286462,7.18652841 88.3904278,8.51705511 C87.0505487,9.84528667 86.3816055,11.4610668 86.3816055,13.3611166 L86.3816055,13.3837401 C86.3882485,15.4106785 87.144214,17.0985917 88.6508307,18.4510862 C89.9760954,19.6327565 91.5019766,20.2235917 93.22316,20.2235917 C94.4693738,20.2235917 95.6415189,19.9157147 96.738599,19.3016003 C97.8330218,18.6855185 98.6873027,17.8510704 99.3027703,16.7976002 C99.9179057,15.7441299 100.225141,14.6063952 100.225141,13.3837401 C100.225141,12.1548554 99.9159128,11.005645 99.2961273,9.93545297 Z M54.9120494,2.54247217 C53.9332135,2.54247217 53.1397155,3.32675503 53.1397155,4.29268201 C53.1397155,5.25828111 53.9332135,6.04190822 54.9120494,6.04190822 C55.8908852,6.04190822 56.6853798,5.25828111 56.6853798,4.29268201 C56.6853798,3.32675503 55.8908852,2.54247217 54.9120494,2.54247217 Z M69.7706249,9.6964303 C69.3245521,8.67312478 68.6705555,7.88982554 67.805646,7.34259807 C66.9394078,6.79602636 65.8400027,6.52290444 64.5051058,6.52290444 C63.0569469,6.52290444 61.8867946,6.84160133 60.9939847,7.4803066 C60.0995141,8.11901188 59.4700964,9.00952704 59.1067281,10.1518521 C58.8954829,10.7964592 58.7709279,11.8787826 58.7327311,13.3837401 C58.7234309,13.7250606 58.7184488,14.0791682 58.7184488,14.462457 L58.7184488,19.8878452 L62.0654894,19.8878452 L62.0654894,13.6112871 C62.0654894,13.5332523 62.0681466,13.4604635 62.0681466,13.3837401 C62.0794396,12.2873179 62.1624762,11.511232 62.3212423,11.0669581 C62.4919656,10.5931751 62.7666508,10.2230015 63.1429728,9.95938802 C63.5199591,9.6964303 63.9829714,9.56462357 64.5353311,9.56462357 C65.0876908,9.56462357 65.5556853,9.69315153 65.9396467,9.95348623 C66.3252688,10.213493 66.6102506,10.5951424 66.7975812,11.0971228 C66.9304398,11.4597552 66.9981977,12.2250212 67.0035121,13.3837401 C67.0035121,13.4250527 67.0051728,13.4621028 67.0051728,13.5053827 L67.0051728,19.8878452 L70.317006,19.8878452 L70.317006,14.3657331 C70.317006,14.0201503 70.3116916,13.697191 70.3023915,13.3837401 C70.2555588,11.6410715 70.0788569,10.4066129 69.7706249,9.6964303 Z M47.601504,16.4566076 C47.2158819,16.1972566 46.9299037,15.8165908 46.744566,15.3136268 C46.6103788,14.9506665 46.5432852,14.1850726 46.5373065,13.0263537 L46.5373065,2.31623673 L43.2251412,2.31623673 L43.2251412,12.043705 C43.2251412,12.3896157 43.2301234,12.7122471 43.2400878,13.0263537 C43.2862562,14.770006 43.4619617,16.003481 43.7718544,16.7149751 C44.2169308,17.7366412 44.8722559,18.5209241 45.7358369,19.0681515 C46.6010787,19.6150511 47.7021444,19.8878452 49.0353806,19.8878452 L51.592909,19.8878452 L51.592909,16.8457982 L49.0061518,16.8457982 C48.4544563,16.8457982 47.9857976,16.7166144 47.601504,16.4566076 Z M53.3356819,19.8681725 L56.6853798,19.8681725 L56.6853798,7.26751414 L53.3356819,7.26751414 L53.3356819,19.8681725 Z" id="Fill-3" fill="#FFFFFF"/><path d="M105.743714,18.83 C105.743714,19.586 106.157714,20 106.931714,20 L108.371714,20 C109.145714,20 109.541714,19.586 109.541714,18.83 L109.541714,16.364 L111.413714,16.364 C114.005714,16.364 115.715714,14.366 115.715714,11.684 C115.715714,9.02 114.005714,7.058 111.413714,7.058 L106.931714,7.058 C106.157714,7.058 105.743714,7.454 105.743714,8.228 L105.743714,18.83 Z M109.541714,13.124 L109.541714,10.298 L110.675714,10.298 C111.503714,10.298 111.863714,10.892 111.863714,11.684 C111.863714,12.476 111.503714,13.124 110.603714,13.124 L109.541714,13.124 Z M117.760857,18.83 C117.760857,19.586 118.174857,20 118.948857,20 L125.428857,20 C126.202857,20 126.616857,19.586 126.616857,18.83 L126.616857,17.93 C126.616857,17.174 126.202857,16.76 125.428857,16.76 L121.558857,16.76 L121.558857,8.228 C121.558857,7.454 121.162857,7.058 120.388857,7.058 L118.948857,7.058 C118.174857,7.058 117.760857,7.454 117.760857,8.228 L117.760857,18.83 Z M128.122,15.158 C128.122,18.092 130.3,20.216 133.702,20.216 C137.068,20.216 139.246,18.092 139.246,15.158 L139.246,8.228 C139.246,7.454 138.85,7.058 138.076,7.058 L136.636,7.058 C135.862,7.058 135.466,7.454 135.466,8.228 L135.466,15.176 C135.466,16.238 134.764,16.76 133.684,16.76 C132.622,16.76 131.92,16.238 131.92,15.158 L131.92,8.228 C131.92,7.454 131.506,7.058 130.75,7.058 L129.292,7.058 C128.536,7.058 128.122,7.454 128.122,8.228 L128.122,15.158 Z M141.957143,18.956 C142.695143,19.532 144.387143,20.216 146.169143,20.216 C149.229143,20.216 150.921143,18.254 150.921143,16.022 C150.921143,11.864 145.431143,12.332 145.431143,10.856 C145.431143,10.514 145.683143,10.262 146.403143,10.262 C147.177143,10.262 147.663143,10.55 148.311143,10.838 C148.905143,11.126 149.481143,11.27 149.913143,10.424 L150.435143,9.398 C150.741143,8.768 150.687143,8.228 150.057143,7.778 C149.391143,7.328 147.951143,6.842 146.457143,6.842 C143.703143,6.842 141.651143,8.498 141.651143,10.982 C141.651143,15.122 147.123143,14.852 147.123143,16.22 C147.123143,16.526 146.907143,16.796 146.169143,16.796 C145.161143,16.796 144.441143,16.22 144.027143,16.058 C143.325143,15.68 142.839143,15.716 142.407143,16.346 L141.723143,17.336 C141.165143,18.146 141.507143,18.614 141.957143,18.956 Z" id="plus" fill="#2A70CA"/></g></g></svg>