<?xml version="1.0" encoding="UTF-8"?><svg width="92px" height="68px" viewBox="0 0 92 68" version="1.1" xmlns="http://www.w3.org/2000/svg" xmlns:xlink="http://www.w3.org/1999/xlink"><title>fire-l</title><desc>Created with Sketch.</desc><defs/><g id="Page-1" stroke="none" stroke-width="1" fill="none" fill-rule="evenodd"><g id="fire-l"><path d="M75.902808,68 C73.5543948,66.188073 72.0297994,63.3128597 72.0297994,60.0922045 L72.0297994,45.9776126 C72.0297994,45.9776126 54.3658829,64.0280518 54.356196,64.0404287 L54.2278457,64.1840005 C53.1046705,65.3521543 52.0900326,66.6298184 51.2011091,68 L75.902808,68 L75.902808,68 Z" id="Combined-Shape" fill="#FFAF2B"/><path d="M87.5294348,68 C88.6663582,67.1222714 89.610299,65.9953205 90.2821902,64.701354 C90.889816,65.3680773 91.4634379,66.0676506 92,66.7972368 L92,68 L87.5294348,68 Z" id="Path" fill="#FFAF2B"/><path d="M90.442623,38.3860107 C83.866347,38.3860107 78.535222,43.7618724 78.535222,50.3933339 C78.535222,57.0247954 83.866347,62.4006571 90.442623,62.4006571 L90.442623,38.3860107 Z" id="Oval-6" fill="#FFAF2B" transform="translate(84.488922, 50.393334) scale(-1, 1) translate(-84.488922, -50.393334)"/><path d="M67,27 C62.581722,27 59,30.6117784 59,35.0671329 C59,39.5224873 62.581722,43.1342658 67,43.1342658 L67,27 Z" id="Oval-6" fill="#FFD15B" transform="translate(63.000000, 35.067133) scale(-1, 1) translate(-63.000000, -35.067133)"/><path d="M55.9223795,68 C55.7528942,59.573828 52.3885692,51.9616525 47.0374714,46.3652351 L46.8783169,46.1862135 C46.8663053,46.1707806 24.9630488,23.6634429 24.9630488,23.6634429 L24.9630488,41.2631192 C24.9630488,48.0535941 19.5578031,53.6125238 12.9483889,53.6125238 C8.356933,53.6125238 4.3510454,50.9241131 2.33008411,47.0103303 C1.50060071,47.9255637 0.722220509,48.8904416 -3.55271368e-15,49.9002438 L6.88382684e-12,68 L55.9223795,68 Z" id="Combined-Shape" fill="#FF940E"/><path d="M16.8963247,14.1973713 C8.74174254,14.1973713 2.13114754,20.9006063 2.13114754,29.1694657 C2.13114754,37.4383251 8.74174254,44.1415601 16.8963247,44.1415601 L16.8963247,14.1973713 Z" id="Oval-6" fill="#FFAF2B"/><path d="M41.12,0 C35.6413353,0 31.2,4.50357555 31.2,10.0590175 C31.2,15.6144595 35.6413353,20.1180351 41.12,20.1180351 L41.12,0 Z" id="Oval-6" fill="#FFD15B"/></g></g></svg>