<svg id="Layer_1" data-name="Layer 1" xmlns="http://www.w3.org/2000/svg" xmlns:xlink="http://www.w3.org/1999/xlink" x="0px" y="0px" width="25px" height="25px" viewBox="0 0 24.99 25"><defs><style>.cls-1{fill:none;} .cls-2{clip-path:url(#clip-path);} .cls-3{fill:#ffffff;} .cls-4{fill:#d33131;} .cls-5{fill:#262626;} .cls-6{fill:#ffc200;}</style><clipPath id="clip-path" transform="translate(-17.22 -55.21)"><circle class="cls-1" cx="29.72" cy="67.71" r="12.5"/></clipPath></defs><g class="cls-2"><path class="cls-3" d="M17.22,63.6h25v8.23h-25V63.6Z" transform="translate(-17.22 -55.21)"/><path class="cls-4" d="M17.22,55.21h25V63.6h-25V55.21Z" transform="translate(-17.22 -55.21)"/><path class="cls-5" d="M17.22,71.83h25v8.38h-25V71.83Z" transform="translate(-17.22 -55.21)"/><path class="cls-6" d="M31.5,65.75c-0.71,0-.91.55-1.22,0.55,0,0,.07-1.19-0.31-1.19H29.25a0.79,0.79,0,0,0-.53.36c0.19-.08.57,0,0.57,0.51a0.34,0.34,0,0,1-.15.27,3.23,3.23,0,0,0-1-.52,0.65,0.65,0,0,0-.68.62s0,0,0,.06v2.45l1.66-.23-0.51.91,2.58,0-0.6-1,1.56,0.31V66.21s0.09-.45-0.62-0.45h0Z" transform="translate(-17.22 -55.21)"/></g></svg>