<?xml version="1.0" encoding="UTF-8"?><svg width="25px" height="25px" viewBox="0 0 25 25" version="1.1" xmlns="http://www.w3.org/2000/svg" xmlns:xlink="http://www.w3.org/1999/xlink"><title>flag_circle_tr</title><desc>Created with Sketch.</desc><defs><circle id="path-1" cx="12.5" cy="12.5" r="12.5"/></defs><g id="Page-1" stroke="none" stroke-width="1" fill="none" fill-rule="evenodd"><g id="flag_circle_tr"><g id="Fill-1"><mask id="mask-2" fill="white"><use xlink:href="#path-1"/></mask><use id="Mask" fill="#D33131" xlink:href="#path-1"/><path d="M13.3449136,18.1685185 C10.1000494,18.1685185 7.46955556,15.5380247 7.46955556,12.2931605 C7.46955556,9.04829629 10.1000494,6.41780247 13.3449136,6.41780247 C14.6760494,6.41780247 15.8996544,6.86590123 16.8847655,7.61219753 C15.5468889,6.01560493 13.5391112,5 11.2931605,5 C7.26540741,5 4,8.2654074 4,12.2931605 C4,16.3212346 7.26540741,19.586642 11.2931605,19.586642 C13.5391112,19.586642 15.5468889,18.570716 16.8847655,16.9744444 C15.8996544,17.7207407 14.6760494,18.1685185 13.3449136,18.1685185" id="Fill-2" fill="#FFFFFF" fill-rule="nonzero" mask="url(#mask-2)"/><polyline id="Fill-3" fill="#FFFFFF" fill-rule="nonzero" mask="url(#mask-2)" points="18.4235803 9.37345679 19.7412346 11.2887901 21.9701729 10.6272346 20.5555803 12.4725926 21.8735556 14.3879259 19.6815309 13.6130617 18.2672593 15.4580988 18.326963 13.1338271 16.1349383 12.3589629 18.3638766 11.6974074 18.4235803 9.37345679"/><path d="M10.6390873,8.21446609 L25.3461941,7.50735931 L10.6390873,8.21446609 Z" id="Rectangle" fill="#FFCE00" mask="url(#mask-2)" transform="translate(17.992641, 8.007359) rotate(-315.000000) translate(-17.992641, -8.007359)"/></g></g></g></svg>