<?xml version="1.0" encoding="UTF-8"?><svg width="25px" height="25px" viewBox="0 0 25 25" version="1.1" xmlns="http://www.w3.org/2000/svg" xmlns:xlink="http://www.w3.org/1999/xlink"><title>flag_circle_en</title><desc>Created with Sketch.</desc><defs><circle id="path-1" cx="12.5" cy="12.5" r="12.5"/></defs><g id="Page-1" stroke="none" stroke-width="1" fill="none" fill-rule="evenodd"><g id="flag_circle_en"><g id="Fill-1"><mask id="mask-2" fill="white"><use xlink:href="#path-1"/></mask><use id="Mask" fill="#FFFFFF" xlink:href="#path-1"/><polygon id="Fill-2" fill="#D33131" fill-rule="nonzero" mask="url(#mask-2)" points="13 8.66666667 26 8.66666667 26 13 13 13"/><polygon id="Fill-2-Copy" fill="#D33131" fill-rule="nonzero" mask="url(#mask-2)" points="0 17.34375 26 17.34375 26 21.6737499 0 21.6737499"/><polygon id="Fill-2" fill="#D33131" fill-rule="nonzero" mask="url(#mask-2)" points="13 0 26 0 26 4.33333333 13 4.33333333"/><polygon id="Fill-2" fill="#1CB0F7" fill-rule="nonzero" mask="url(#mask-2)" points="0 0 13 0 13 13 0 13"/><polygon id="Star" stroke="#FFFFFF" stroke-width="0.792" fill="#FFFFFF" stroke-linejoin="round" mask="url(#mask-2)" points="3.5 4.25 2.61832212 4.71352549 2.78670761 3.73176275 2.07341523 3.03647451 3.05916106 2.89323725 3.5 2 3.94083894 2.89323725 4.92658477 3.03647451 4.21329239 3.73176275 4.38167788 4.71352549"/></g><g id="Group" transform="translate(2.000000, 2.000000)" stroke-width="0.792" stroke="#FFFFFF" fill="#FFFFFF" stroke-linejoin="round"><g id="Group-2"><polygon id="Star" points="7.5 8.25 6.61832212 8.71352549 6.78670761 7.73176275 6.07341523 7.03647451 7.05916106 6.89323725 7.5 6 7.94083894 6.89323725 8.92658477 7.03647451 8.21329239 7.73176275 8.38167788 8.71352549"/><polygon id="Star" points="1.5 8.25 0.618322122 8.71352549 0.786707613 7.73176275 0.0734152256 7.03647451 1.05916106 6.89323725 1.5 6 1.94083894 6.89323725 2.92658477 7.03647451 2.21329239 7.73176275 2.38167788 8.71352549"/><polygon id="Star" points="4.25466523 5.25 3.37298735 5.71352549 3.54137284 4.73176275 2.82808045 4.03647451 3.81382629 3.89323725 4.25466523 3 4.69550416 3.89323725 5.68125 4.03647451 4.96795761 4.73176275 5.1363431 5.71352549"/><polygon id="Star" points="7.5 2.25 6.61832212 2.71352549 6.78670761 1.73176275 6.07341523 1.03647451 7.05916106 0.893237254 7.5 0 7.94083894 0.893237254 8.92658477 1.03647451 8.21329239 1.73176275 8.38167788 2.71352549"/></g></g></g></g></svg>