<svg id="Layer_1" data-name="Layer 1" xmlns="http://www.w3.org/2000/svg" xmlns:xlink="http://www.w3.org/1999/xlink" x="0px" y="0px" width="25px" height="25px" viewBox="0 0 25 25"><defs><style>.cls-1{fill:none;} .cls-2{clip-path:url(#clip-path);} .cls-3{fill:#ffffff;} .cls-4{fill:#1cb0f6;} .cls-5{fill:#262626;} .cls-6{fill:#d33131;}</style><clipPath id="clip-path" transform="translate(-17.22 -282.37)"><circle class="cls-1" cx="29.72" cy="294.87" r="12.5"/></clipPath></defs><g class="cls-2"><path class="cls-3" d="M17.22,282.37h25v25h-25v-25Z" transform="translate(-17.22 -282.37)"/><circle class="cls-4" cx="12.68" cy="12.16" r="5.76"/><path class="cls-5" d="M20.45,289.33l2.85-2.85L23.79,287l-2.85,2.85Z" transform="translate(-17.22 -282.37)"/><path class="cls-5" d="M21.05,289.95l2.85-2.85,0.49,0.49-2.85,2.85Z" transform="translate(-17.22 -282.37)"/><path class="cls-5" d="M21.64,290.53l2.85-2.85L25,288.17,22.12,291Z" transform="translate(-17.22 -282.37)"/><path class="cls-5" d="M21.64,298.1l0.49-.49L25,300.46l-0.49.49Z" transform="translate(-17.22 -282.37)"/><path class="cls-5" d="M20.46,299.3l0.49-.49,2.85,2.85-0.49.49Z" transform="translate(-17.22 -282.37)"/><path class="cls-5" d="M21,298.7l0.49-.49,1.33,1.33-0.49.49Z" transform="translate(-17.22 -282.37)"/><path class="cls-5" d="M22.55,300.21l0.49-.49,1.35,1.35-0.49.49Z" transform="translate(-17.22 -282.37)"/><path class="cls-5" d="M35.6,301.06l1.33-1.33,0.49,0.49-1.33,1.33Z" transform="translate(-17.22 -282.37)"/><path class="cls-5" d="M37.11,299.57l1.35-1.35,0.49,0.49-1.35,1.35Z" transform="translate(-17.22 -282.37)"/><path class="cls-5" d="M36.18,301.65l1.33-1.33L38,300.81l-1.33,1.33Z" transform="translate(-17.22 -282.37)"/><path class="cls-5" d="M37.7,300.16L39,298.82l0.49,0.49-1.35,1.35Z" transform="translate(-17.22 -282.37)"/><path class="cls-5" d="M35,300.47l1.33-1.33,0.49,0.49L35.51,301Z" transform="translate(-17.22 -282.37)"/><path class="cls-5" d="M36.52,299l1.35-1.35,0.49,0.49L37,299.46Z" transform="translate(-17.22 -282.37)"/><path class="cls-5" d="M35.59,287.62l0.49-.49L38.93,290l-0.49.49Z" transform="translate(-17.22 -282.37)"/><path class="cls-5" d="M37.72,288.55l0.49-.49,1.33,1.33-0.49.49Z" transform="translate(-17.22 -282.37)"/><path class="cls-5" d="M36.18,287l0.49-.49L38,287.89l-0.49.49Z" transform="translate(-17.22 -282.37)"/><path class="cls-5" d="M36.53,289.73l0.49-.49,1.33,1.33-0.49.49Z" transform="translate(-17.22 -282.37)"/><path class="cls-5" d="M35,288.19l0.49-.49,1.35,1.35-0.49.49Z" transform="translate(-17.22 -282.37)"/><path class="cls-6" d="M35.65,294.53a5.76,5.76,0,0,0-11.46-.78,3.52,3.52,0,0,0,3.12,1.89c2.61,0,2.5-2.2,5.08-2.2a3.38,3.38,0,0,1,3.19,2.08v-0.07c0-.13,0-0.27.06-0.41a5.15,5.15,0,0,0,0-.52h0Z" transform="translate(-17.22 -282.37)"/></g></svg>