<?xml version="1.0" encoding="UTF-8"?><svg width="25px" height="25px" viewBox="0 0 25 25" version="1.1" xmlns="http://www.w3.org/2000/svg" xmlns:xlink="http://www.w3.org/1999/xlink"><title>flag_circle_pt</title><desc>Created with Sketch.</desc><defs><circle id="path-1" cx="12.5" cy="12.5" r="12.5"/><path d="M11.8125,6.36468293 C14.6837345,6.36468293 16.9375,8.6637805 16.9375,11.5 C16.9375,14.3362195 14.6100185,16.6353171 11.738784,16.6353171 C8.86754939,16.6353171 6.54006791,14.3362195 6.54006791,11.5 C6.54006791,8.6637805 8.86754939,6.36468293 11.738784,6.36468293" id="path-3"/></defs><g id="Page-1" stroke="none" stroke-width="1" fill="none" fill-rule="evenodd"><g id="flag_circle_pt"><g id="Fill-1"><mask id="mask-2" fill="white"><use xlink:href="#path-1"/></mask><use id="Mask" fill="#7AC70C" xlink:href="#path-1"/><path d="M10.6390873,8.21446609 L25.3461941,7.50735931 L10.6390873,8.21446609 Z" id="Rectangle" fill="#FFCE00" mask="url(#mask-2)" transform="translate(17.992641, 8.007359) rotate(-315.000000) translate(-17.992641, -8.007359)"/><g id="Fill-4" mask="url(#mask-2)"><g transform="translate(1.000000, 1.000000)"><polygon id="Rectangle-2" stroke="none" fill="#FFC200" fill-rule="evenodd" transform="translate(11.499396, 11.500000) rotate(-315.000000) translate(-11.499396, -11.500000)" points="4.47209484 4.47269909 19.2338034 3.76559231 18.5266967 18.5273009 3.76498806 19.2344077"/><mask id="mask-4" fill="white"><use xlink:href="#path-3"/></mask><use id="Mask" stroke="none" fill="#1CB0F7" fill-rule="nonzero" xlink:href="#path-3"/><path d="M5.01772839,12.1388411 C5.01772839,12.3628511 5.02977324,12.5843994 5.05178625,12.8030757 C6.72560521,12.3780313 8.60335595,12.1388411 10.5886797,12.1388411 C13.502703,12.1388411 16.1799827,12.6570179 18.3239662,13.5206459 C18.4194944,13.0746775 18.4718272,12.6131186 18.4718272,12.1388411 C18.4718272,11.8672394 18.4502294,11.6009712 18.4182483,11.3379852 C16.2593126,10.4530229 13.542991,9.92376876 10.5886797,9.92376876 C8.66981039,9.92376876 6.85145314,10.1477786 5.22041417,10.5461553 C5.09290488,11.0573573 5.01772839,11.588663 5.01772839,12.1388411 Z" id="Fill-4" stroke="none" fill="#FFFFFF" fill-rule="nonzero" mask="url(#mask-4)"/></g></g></g></g></g></svg>