<?xml version="1.0" encoding="UTF-8"?><svg width="15px" height="18px" viewBox="0 0 15 18" version="1.1" xmlns="http://www.w3.org/2000/svg" xmlns:xlink="http://www.w3.org/1999/xlink"><title>gem-small</title><desc>Created with Sketch.</desc><defs/><g id="Page-1" stroke="none" stroke-width="1" fill="none" fill-rule="evenodd"><g id="gem-small"><path d="M6.37717422,0.291615417 L1.12282578,3.58889239 C0.503741987,3.97738789 -4.46020033e-16,4.8883764 1.26217745e-29,5.62219042 L3.56816026e-15,12.3778096 C4.01418029e-15,13.1176724 0.502706225,14.0219621 1.12282578,14.4111076 L6.37717422,17.7083846 C6.99625801,18.0968801 8.00270622,18.0975301 8.62282578,17.7083846 L13.8771742,14.4111076 C14.496258,14.0226121 15,13.1116236 15,12.3778096 L15,5.62219042 C15,4.88232758 14.4972938,3.97803786 13.8771742,3.58889239 L8.62282578,0.291615417 C8.00374199,-0.0968800836 6.99729378,-0.0975300587 6.37717422,0.291615417 Z" id="Polygon-1" fill="#1CB0F6" fill-rule="nonzero"/><path d="M12.5560229,16.8814335 C13.4838958,16.2834229 14.3067699,14.8961512 14.3924316,13.8024352 L14.5196822,12.1777185 C14.6060298,11.0752453 13.9097739,10.6582162 12.9831063,11.2347145 L7.90271019,14.3953292 C6.96773514,14.9769956 7.02781403,15.8333306 8.02628591,16.303014 L9.34713031,16.9243421 C10.3503544,17.3962609 11.9231121,17.2893421 12.8436907,16.6960327 L12.5560229,16.8814335 Z" id="Path-3" fill="#1C8EF6" transform="translate(10.896836, 14.389413) scale(-1, -1) translate(-10.896836, -14.389413)"/><path d="M6.34880385,4.45394378 C6.9666606,4.06610435 7.96399566,4.06333695 8.58626109,4.45394378 L10.8279705,5.86110377 C11.4458273,6.2489432 11.9466991,7.16514096 11.9466991,7.89599318 L11.9466991,10.8540068 C11.9466991,11.5900058 11.4502359,12.4982894 10.8279705,12.8888962 L8.58626109,14.2960562 C7.96840433,14.6838956 6.97106928,14.6866631 6.34880385,14.2960562 L4.10709442,12.8888962 C3.48923767,12.5010568 2.9883658,11.584859 2.9883658,10.8540068 L2.9883658,7.89599318 C2.9883658,7.15999422 3.48482899,6.25171061 4.10709442,5.86110377 L6.34880385,4.45394378 Z" id="Polygon-1" fill="#44C3FF"/><path d="M5.88541525,5.9814335 C6.81328818,5.38342289 7.63616226,3.99615115 7.72182396,2.90243525 L7.84907457,1.2777185 C7.93542216,0.175245332 7.23916632,-0.241783778 6.31249863,0.334714484 L1.23210256,3.49532915 C0.297127515,4.07699558 0.357206406,4.93333059 1.35567829,5.40301397 L2.67652269,6.02434209 C3.67974673,6.49626089 5.25250451,6.38934208 6.17308307,5.79603267 L5.88541525,5.9814335 Z" id="Path-3" fill="#44C3FF"/><path d="M4.00723751,5.01932694 C4.13742641,4.89196823 4.34803418,4.89150831 4.47869322,5.01932694 L5.96148455,6.46988368 C6.09167345,6.59724238 6.0921436,6.80327172 5.96148455,6.93109035 L4.47869322,8.38164709 C4.34850432,8.50900579 4.13789656,8.50946572 4.00723751,8.38164709 L2.52444618,6.93109035 C2.39425728,6.80373164 2.39378714,6.59770231 2.52444618,6.46988368" id="Rectangle-153-Copy" fill="#FFFFFF"/></g></g></svg>