<?xml version="1.0" encoding="UTF-8"?><svg width="50px" height="60px" viewBox="0 0 50 60" version="1.1" xmlns="http://www.w3.org/2000/svg" xmlns:xlink="http://www.w3.org/1999/xlink"><title>gem_big</title><desc>Created with Sketch.</desc><defs/><g id="Page-1" stroke="none" stroke-width="1" fill="none" fill-rule="evenodd"><g id="gem_big"><g id="Group"><path d="M21.2572474,0.972051391 L3.7427526,11.9629746 C1.67913996,13.2579596 -1.48673344e-15,16.294588 1.26217745e-29,18.7406347 L1.18938675e-14,41.2593653 C1.3380601e-14,43.7255747 1.67568742,46.7398738 3.7427526,48.0370254 L21.2572474,59.0279486 C23.32086,60.3229336 26.6756874,60.3251002 28.7427526,59.0279486 L46.2572474,48.0370254 C48.32086,46.7420404 50,43.705412 50,41.2593653 L50,18.7406347 C50,16.2744253 48.3243126,13.2601262 46.2572474,11.9629746 L28.7427526,0.972051391 C26.67914,-0.322933612 23.3243126,-0.325100196 21.2572474,0.972051391 Z" id="Polygon-1" fill="#1CB0F6" fill-rule="nonzero"/><path d="M30.792163,39.6579772 C27.6992532,41.6513459 24.9563397,46.275585 24.6708006,49.9213047 L24.246632,55.3370272 C23.9588067,59.0119378 26.2796594,60.4020348 29.3685518,58.4803739 L46.3032053,47.9449917 C49.4197888,46.0061036 49.2195258,43.1516536 45.8912862,41.5860423 L41.4884716,39.5149486 C38.1443914,37.9418859 32.9018655,38.298282 29.8332703,40.27598 L30.792163,39.6579772 Z" id="Path-3" fill="#1C8EF6"/><path d="M21.1626795,14.8464793 C23.222202,13.5536812 26.5466522,13.5444565 28.6208703,14.8464793 L36.093235,19.5370126 C38.1527576,20.8298107 39.8223304,23.8838032 39.8223304,26.3199773 L39.8223304,36.1800227 C39.8223304,38.6333526 38.1674531,41.6609646 36.093235,42.9629874 L28.6208703,47.6535207 C26.5613478,48.9463188 23.2368976,48.9555435 21.1626795,47.6535207 L13.6903147,42.9629874 C11.6307922,41.6701893 9.96121934,38.6161968 9.96121934,36.1800227 L9.96121934,26.3199773 C9.96121934,23.8666474 11.6160966,20.8390354 13.6903147,19.5370126 L21.1626795,14.8464793 Z" id="Polygon-1" fill="#44C3FF"/><path d="M19.6180508,19.9381117 C22.7109606,17.944743 25.4538742,13.3205038 25.7394132,9.67478415 L26.1635819,4.25906167 C26.4514072,0.584151105 24.1305544,-0.805945927 21.0416621,1.11571495 L4.10700854,11.6510972 C0.990425049,13.5899853 1.19068802,16.4444353 4.51892763,18.0100466 L8.9217423,20.0811403 C12.2658224,21.654203 17.5083484,21.2978069 20.5769436,19.3201089 L19.6180508,19.9381117 Z" id="Path-3" fill="#44C3FF"/><path d="M13.3574584,16.7310898 C13.7914214,16.3065608 14.4934473,16.3050277 14.9289774,16.7310898 L19.8716152,21.5662789 C20.3055782,21.9908079 20.3071453,22.6775724 19.8716152,23.1036345 L14.9289774,27.9388236 C14.4950144,28.3633526 13.7929885,28.3648857 13.3574584,27.9388236 L8.4148206,23.1036345 C7.98085761,22.6791055 7.97929045,21.992341 8.4148206,21.5662789" id="Rectangle-153-Copy" fill="#FFFFFF"/></g></g></g></svg>