<?xml version="1.0" encoding="UTF-8" standalone="no"?><svg width="18px" height="19px" viewBox="0 0 18 19" version="1.1" xmlns="http://www.w3.org/2000/svg" xmlns:xlink="http://www.w3.org/1999/xlink"><title>Group 2</title><desc>Created with Sketch.</desc><defs/><g id="Page-1" stroke="none" stroke-width="1" fill="none" fill-rule="evenodd"><g id="3-copy-4" transform="translate(-29.000000, -587.000000)"><g id="Group-2" transform="translate(29.000000, 587.000000)"><path d="M17.7152727,9.60573347 C17.7152727,8.99220868 17.6602128,8.40228099 17.5579586,7.83595041 L9.40909091,7.83595041 L9.40909091,11.1828068 L14.0655868,11.1828068 C13.8650114,12.2643409 13.2554194,13.1806952 12.3390651,13.79422 L12.3390651,15.965154 L15.1353223,15.965154 C16.7713884,14.4588719 17.7152727,12.2407438 17.7152727,9.60573347 L17.7152727,9.60573347 L17.7152727,9.60573347 Z" id="-g-Shape" fill="#4285F4"/><path d="M9.40909091,18.0613636 C11.7452045,18.0613636 13.7037644,17.2865919 15.1353223,15.965154 L12.3390651,13.79422 C11.5642934,14.3133564 10.5732149,14.6201188 9.40909091,14.6201188 C7.15556715,14.6201188 5.2481343,13.0981053 4.56775103,11.0530227 L1.67710537,11.0530227 L1.67710537,13.294748 C3.10079752,16.122468 6.02683884,18.0613636 9.40909091,18.0613636 L9.40909091,18.0613636 L9.40909091,18.0613636 Z" id="-g-Shape" fill="#34A853"/><path d="M4.56775103,11.0530227 C4.39470558,10.5338864 4.2963843,9.97935434 4.2963843,9.40909091 C4.2963843,8.83882748 4.39470558,8.28429545 4.56775103,7.76515909 L4.56775103,5.52343389 L1.67710537,5.52343389 C1.09111054,6.6914907 0.756818182,8.01292872 0.756818182,9.40909091 C0.756818182,10.8052531 1.09111054,12.1266911 1.67710537,13.294748 L4.56775103,11.0530227 L4.56775103,11.0530227 L4.56775103,11.0530227 Z" id="-g-Shape" fill="#FBBC05"/><path d="M9.40909091,4.19806301 C10.6794018,4.19806301 11.8199287,4.6346095 12.7166188,5.49197108 L15.198248,3.01034194 C13.6998316,1.61417975 11.7412717,0.756818182 9.40909091,0.756818182 C6.02683884,0.756818182 3.10079752,2.69571384 1.67710537,5.52343389 L4.56775103,7.76515909 C5.2481343,5.72007644 7.15556715,4.19806301 9.40909091,4.19806301 L9.40909091,4.19806301 L9.40909091,4.19806301 Z" id="-g-Shape" fill="#EA4335"/></g></g></g></svg>