<?xml version="1.0" encoding="UTF-8"?><svg width="152px" height="150px" viewBox="0 0 152 150" version="1.1" xmlns="http://www.w3.org/2000/svg" xmlns:xlink="http://www.w3.org/1999/xlink"><defs><path d="M70.6597,11.377173 C55.9926,18.1976 39.53105,20.157597 23.40513,16.729928 C16.25734,15.210616 9.45855,12.695312 3.15409,9.270003 C0.95237,8.07378 0.1364,5.30809 1.33156,3.09265 C2.52672,0.87722 5.28043,0.05098 7.48214,1.24721 C13.02514,4.2588 19.00517,6.47119 25.30124,7.80946 C39.49533,10.826512 53.96224,9.104007 66.8652,3.1039 C69.1408,2.04574 71.8349,3.03997 72.8827,5.32457 C73.9305,7.60917 72.9352,10.319013 70.6597,11.377173 Z" id="path-1"/><path d="M31.0798,4.33268 C31.942,12.33668 31.5363,20.48017 29.8336,28.52436 C26.5547,43.95015 18.8257,57.65132 7.7274,68.20023 C5.9102,69.92746 3.0668,69.8419 1.3765,68.00913 C-0.3138,66.17636 -0.211,63.2904 1.6062,61.56317 C11.3685,52.28413 18.161,40.24332 21.048,26.66095 C22.5468,19.58002 22.9036,12.41871 22.1456,5.38206 C21.8761,2.88037 23.6576,0.61745 26.1247,0.32767 C28.5919,0.03789 30.8103,1.83099 31.0798,4.33268 Z" id="path-3"/><path d="M5.4942,0.128 C28.9257,5.1086 48.1349,20.9385 57.9184,42.561 C58.9552,44.8525 57.9585,47.574 55.692,48.6395 C53.4256,49.7051 50.7478,48.7112 49.7109,46.4196 C41.0995,27.3874 24.2089,13.4682 3.59023,9.0855 C1.15398,8.5677 -0.39477,6.1427 0.131,3.6692 C0.65677,1.1956 3.05796,-0.3898 5.4942,0.128 Z" id="path-5"/><path d="M57.0003485,-2.55795385e-13 C56.9291444,0.00683836545 56.8577541,0.0153612362 56.78622,0.0256 C33.27365,3.3908 12.60244,17.6745 1.316756,38.4349 C0.127185,40.6231 0.953186,43.3601 3.16168,44.5481 C5.37018,45.7362 8.12486,44.9253 9.31443,42.737 C19.2377,24.4829 37.4332,11.9099 58.11174,8.9503 C60.59338,8.5951 62.30842,6.3093 61.94239,3.8448 C61.6308813,1.74739512 59.9124792,0.196532439 57.8777928,-5.94031917e-08 L57.0003485,0 L57.0003485,-2.55795385e-13 Z" id="path-7"/><path d="M21.21794,68.35338 C4.934631,51.12704 -2.453169,27.29195 1.747803,3.72367 C2.185633,1.26736 4.549791,-0.3645 7.028299,0.07882 C9.506807,0.52213 11.1611,2.87274 10.72327,5.32905 C7.027794,26.06143 13.5249,47.02288 27.85673,62.18473 C29.58123,64.0091 29.49307,66.86894 27.65982,68.57237 C25.82657,70.27579 22.94244,70.17775 21.21794,68.35338 Z" id="path-9"/><path d="M28.9986772,6.71353647 C28.9986772,6.71353647 33.9859954,2.14956784 35.3292653,1.47895137 C37.3483368,0.470946667 39.6393572,0 41.9684439,0 C50.8074098,0 58,7.29234745 58,16.2555671 C57.9834954,21.7459004 57.1593154,25.8765459 53.0588782,31.1052478 C49.4111158,35.7618376 43.2492467,41.2949945 30.335567,51.5175391 C30.1785193,51.6473534 30.0003575,51.7557617 29.8083368,51.8367217 C29.5509898,51.9444609 29.2738414,52 28.9940575,52 C28.7419916,52 28.48728,51.9538289 28.2418077,51.8601485 C28.0181109,51.7744978 27.8155281,51.6547207 27.6386891,51.504832 C14.7368944,41.2923231 8.5829387,35.7611647 4.93451382,31.1059208 C0.838695772,25.8785545 0.0158369,21.7499176 0.00461909558,16.412138 C0.00131974116,16.3592816 0,16.3084235 0,16.2555671 C0,7.29234745 7.19061207,0 16.0295821,0 C18.3590046,0 20.6174533,0.524608627 22.6683333,1.47863529 C24.7200782,2.43305961 28.9986772,6.71353647 28.9986772,6.71353647 Z" id="path-11"/></defs><g id="Page-1" stroke="none" stroke-width="1" fill="none" fill-rule="evenodd"><g id="health-refill-item"><g id="health-ring-no-bubbles"><g id="Group-6" transform="translate(37.000000, 131.000000)"><mask id="mask-2" fill="white"><use xlink:href="#path-1"/></mask><use id="Clip-5" fill="#F43D3D" xlink:href="#path-1"/></g><g id="Group-9" transform="translate(120.000000, 61.000000)"><mask id="mask-4" fill="white"><use xlink:href="#path-3"/></mask><use id="Clip-8" fill="#F43D3D" xlink:href="#path-3"/></g><g id="Group-12" transform="translate(86.000000, 0.000000)"><mask id="mask-6" fill="white"><use xlink:href="#path-5"/></mask><use id="Clip-11" fill="#F43D3D" xlink:href="#path-5"/></g><g id="Group-15" transform="translate(8.000000, 0.000000)"><mask id="mask-8" fill="white"><use xlink:href="#path-7"/></mask><use id="Clip-14" fill="#F43D3D" xlink:href="#path-7"/></g><g id="Group-18" transform="translate(0.000000, 57.000000)"><mask id="mask-10" fill="white"><use xlink:href="#path-9"/></mask><use id="Clip-17" fill="#F43D3D" xlink:href="#path-9"/></g></g><g id="Group" transform="translate(47.000000, 49.000000)"><mask id="mask-12" fill="white"><use xlink:href="#path-11"/></mask><use id="Clip-2" fill="#F43D3D" xlink:href="#path-11"/><circle id="Oval-2" fill-opacity="0.300000012" fill="#FFFFFF" cx="14" cy="15" r="6"/></g></g></g></svg>