<?xml version="1.0" encoding="UTF-8"?><svg width="29px" height="29px" viewBox="0 0 29 29" version="1.1" xmlns="http://www.w3.org/2000/svg" xmlns:xlink="http://www.w3.org/1999/xlink"><title>health_white</title><desc>Created with Sketch.</desc><defs/><g id="Page-1" stroke="none" stroke-width="1" fill="none" fill-rule="evenodd"><g id="home-landscape" transform="translate(-71.000000, -306.000000)" fill="#FFFFFF"><g id="Group-3" transform="translate(60.000000, 299.000000)"><g id="health-tiny-copy-2" transform="translate(11.000000, 7.000000)"><path d="M2.06078012,8.50277717 C1.8543818,8.91926368 2.02525862,9.42510041 2.44244419,9.63259514 C2.85962976,9.84008987 3.36514439,9.67066856 3.57154272,9.25418206 C5.29329451,5.77989817 8.58564726,3.31281143 12.4006414,2.62513005 C12.8584812,2.54260098 13.1616793,2.10446868 13.0778534,1.64653416 C12.9940275,1.18859964 12.5549207,0.884273389 12.0970809,0.966802457 C7.75923331,1.7487321 4.01891856,4.55149402 2.06078012,8.50277717 Z M4.83025627,24.6599945 C5.1618204,24.9895062 5.69722169,24.9890071 6.02610853,24.6588796 C6.35499537,24.3287522 6.352825,23.794009 6.02126088,23.4644973 C3.26571956,20.726013 1.92532014,16.8531606 2.47628579,12.9566148 C2.54156254,12.4949639 2.2196073,12.066702 1.75717864,12.0000652 C1.29474998,11.9334284 0.866960217,12.2536507 0.801683469,12.7153017 C0.175353207,17.1448419 1.69950916,21.548627 4.83025627,24.6599945 Z M20.9682746,27.2759145 C21.3833461,27.0634267 21.5503402,26.5507844 21.3412666,26.1308959 C21.1321929,25.7110073 20.6262233,25.5428757 20.2111519,25.7553635 C17.857563,26.9602378 15.1863022,27.3763328 12.5349361,26.9053836 C11.3588706,26.6964849 10.2357458,26.3222546 9.18847769,25.7958963 C8.77249692,25.5868239 8.26726166,25.7591111 8.06000315,26.1807106 C7.85274464,26.6023102 8.02194746,27.1135708 8.43792823,27.3226433 C9.62906303,27.9213091 10.9059624,28.3467778 12.241125,28.5839362 C15.2533427,29.1189817 18.2929073,28.6455171 20.9682746,27.2759145 Z M28.5202607,12.6021522 C28.454096,12.1366396 28.0311466,11.8161896 27.5755766,11.8864071 C27.1200066,11.9566246 26.8043311,12.3909196 26.8704958,12.8564323 C27.0566013,14.1658102 27.0368169,15.5057438 26.8047572,16.8381133 C26.3574028,19.3938903 25.1759327,21.6872047 23.4259146,23.4840408 C23.1001603,23.81851 23.0997744,24.3582265 23.4250527,24.6895313 C23.7503309,25.0208361 24.278097,25.0182709 24.6038513,24.6838018 C26.5933667,22.641061 27.937755,20.0315112 28.4458247,17.1288606 C28.709453,15.6152414 28.731951,14.0915359 28.5202607,12.6021522 Z M17.0498669,0.811730233 C21.4267241,1.58916992 25.0909386,4.42063743 27.0449612,8.39551418 C27.2520495,8.81677378 27.084854,9.3315953 26.6715195,9.54540024 C26.258185,9.75920518 25.7552329,9.59102995 25.5481445,9.16977035 C23.8282046,5.67106482 20.6062723,3.18136439 16.7548359,2.49725262 C16.2997605,2.41641982 15.9968941,1.97357485 16.0783646,1.5081307 C16.1598352,1.04268654 16.5947916,0.730897435 17.0498669,0.811730233 Z M14.717459,11.3107327 L16.1568759,10.2169873 C16.5804696,9.99569241 17.0675184,9.88897218 17.5694182,9.88897218 C19.5130455,9.88897218 21.0946458,11.4333105 21.0946458,13.3314947 C21.0910169,14.4942122 20.9097858,15.3689783 20.0081285,16.4762878 C19.2060104,17.4624367 17.8510577,18.6342221 15.0114321,20.7991016 C14.9768981,20.826593 14.9377208,20.8495512 14.8954965,20.8666965 C14.8389085,20.889513 14.7779661,20.9012748 14.7164433,20.9012748 C14.6610148,20.9012748 14.6050058,20.8914969 14.5510283,20.8716577 C14.501839,20.853519 14.457293,20.8281532 14.418406,20.7964105 C11.5813922,18.6336567 10.2281807,17.462295 9.42591758,16.4764295 C8.52527598,15.3694034 8.34433509,14.4950625 8.34186838,13.3646545 C8.34114287,13.3534595 8.34085267,13.3426897 8.34085267,13.3314947 C8.34085267,11.4333105 9.92201773,9.88897218 11.865645,9.88897218 C12.3676149,9.88897218 12.8545958,9.99566774 13.2983204,10.1900855 C13.2915343,10.1990286 14.717459,11.3107327 14.717459,11.3107327 Z" id="health_white"/></g></g></g></g></svg>