<?xml version="1.0" encoding="UTF-8"?><svg width="58px" height="52px" viewBox="0 0 58 52" version="1.1" xmlns="http://www.w3.org/2000/svg" xmlns:xlink="http://www.w3.org/1999/xlink"><title>health-empty</title><desc>Created with Sketch.</desc><defs><path d="M28.9940575,43.7525767 C28.1994575,43.7525767 43.5241361,29.9735749 46.6456351,25.9887945 C49.1813239,22.7554039 49.8097081,20.6866298 49.8230684,16.2555671 C49.8230684,11.837851 46.2820056,8.24742431 41.9684439,8.24742431 C39.4983867,8.24742431 37.0997305,9.50096078 35.6113793,11.5648306 L28.9986772,20.7345718 L22.3859751,11.5648306 C20.8971354,9.50027765 18.5001379,8.24742431 16.0295821,8.24742431 C11.7167021,8.24742431 8.1769326,11.8371576 8.1769326,16.2555671 C8.1769326,16.144389 8.17346277,16.0232188 8.1653967,15.8939733 L8.18100582,16.1440729 L8.18153291,16.394662 C8.19057888,20.6990282 8.82247463,22.7665176 11.3493077,25.9914455 C14.4739611,29.9783875 29.7290295,43.7525767 28.9940575,43.7525767 Z M28.9986772,6.71353647 C28.9986772,6.71353647 33.9859954,2.14956784 35.3292653,1.47895137 C37.3483368,0.470946667 39.6393572,0 41.9684439,0 C50.8074098,0 58,7.29234745 58,16.2555671 C57.9834954,21.7459004 57.1593154,25.8765459 53.0588782,31.1052478 C49.4111158,35.7618376 43.2492467,41.2949945 30.335567,51.5175391 C30.1785193,51.6473534 30.0003575,51.7557617 29.8083368,51.8367217 C29.5509898,51.9444609 29.2738414,52 28.9940575,52 C28.7419916,52 28.48728,51.9538289 28.2418077,51.8601485 C28.0181109,51.7744978 27.8155281,51.6547207 27.6386891,51.504832 C14.7368944,41.2923231 8.5829387,35.7611647 4.93451382,31.1059208 C0.838695772,25.8785545 0.0158369,21.7499176 0.00461909558,16.412138 C0.00131974116,16.3592816 0,16.3084235 0,16.2555671 C0,7.29234745 7.19061207,0 16.0295821,0 C18.3590046,0 20.6174533,0.524608627 22.6683333,1.47863529 C24.7200782,2.43305961 28.9986772,6.71353647 28.9986772,6.71353647 Z" id="path-1"/></defs><g id="Page-1" stroke="none" stroke-width="1" fill="none" fill-rule="evenodd"><g id="health-empty"><mask id="mask-2" fill="white"><use xlink:href="#path-1"/></mask><use id="Clip-2" fill="#DADADA" xlink:href="#path-1"/></g></g></svg>