<?xml version="1.0" encoding="utf-8"?><!DOCTYPE svg PUBLIC "-//W3C//DTD SVG 1.1//EN" "http://www.w3.org/Graphics/SVG/1.1/DTD/svg11.dtd"><svg version="1.1" id="Locked" xmlns="http://www.w3.org/2000/svg" xmlns:xlink="http://www.w3.org/1999/xlink" x="0px" y="0px" width="110px" height="110px" viewBox="0 0 110 110" enable-background="new 0 0 110 110" xml:space="preserve"><path fill="#BCBCBC" d="M94.509,19.632H76.786h-4.125c-0.477-2.693-2.817-4.742-5.646-4.742c-2.83,0-5.169,2.049-5.646,4.742H42.3	v29.529h7.237c0.159,0.015,0.312,0.048,0.474,0.048h26.823c2.751,0,4.981-2.23,4.981-4.981c0-2.215-1.455-4.07-3.455-4.718h0.897	c2.762,0,5.001-2.239,5.001-5.001c0-2.467-1.79-4.505-4.14-4.914h14.39c2.751,0,4.981-2.23,4.981-4.981S97.26,19.632,94.509,19.632z"/><rect x="23.356" y="18.77" fill="#FFFFFF" width="20.094" height="31.325"/><path fill="#A3A3A3" d="M66.985,59.047h-7.237C59.59,59.032,59.437,59,59.274,59H32.451c-2.751,0-4.981,2.23-4.981,4.981	c0,2.215,1.456,4.07,3.455,4.718h-0.897c-2.762,0-5.001,2.239-5.001,5.001c0,2.467,1.79,4.504,4.139,4.914H14.777	c-2.751,0-4.981,2.23-4.981,4.981c0,2.751,2.23,4.981,4.981,4.981h17.722h4.125c0.477,2.693,2.817,4.742,5.646,4.742	c2.83,0,5.169-2.049,5.646-4.742h19.069V59.047z"/><rect x="65.835" y="58.099" fill="#FFFFFF" width="17.227" height="31.325"/></svg>