<?xml version="1.0" encoding="utf-8"?><!DOCTYPE svg PUBLIC "-//W3C//DTD SVG 1.1//EN" "http://www.w3.org/Graphics/SVG/1.1/DTD/svg11.dtd"><svg version="1.1" id="Locked" xmlns="http://www.w3.org/2000/svg" xmlns:xlink="http://www.w3.org/1999/xlink" x="0px" y="0px" width="110px" height="110px" viewBox="0 0 110 110" enable-background="new 0 0 110 110" xml:space="preserve"><path fill="#DBDBDB" d="M88.159,83.476c0.011-0.005,0.018-0.016,0.029-0.021L63.132,43.084V23.551h0.921	c1.017,0,1.841-0.824,1.841-1.842c0-1.017-0.824-1.842-1.841-1.842H44.8c-1.017,0-1.842,0.825-1.842,1.842	c0,1.017,0.824,1.842,1.842,1.842h0.879v19.974L21.018,83.26c0.003,0.002,0.005,0.006,0.009,0.008	c-0.365,0.592-0.586,1.282-0.586,2.028c0,2.11,1.686,3.819,3.784,3.872c-0.002,0.007,60.454,0.01,60.525,0.01	c2.144,0,3.882-1.738,3.882-3.882C88.632,84.635,88.451,84.021,88.159,83.476z"/><path fill="#AFAEAE" d="M55.616,33.763c0,1.745-1.413,3.158-3.158,3.158c-1.741,0-3.155-1.413-3.155-3.158	c0-1.741,1.414-3.156,3.155-3.156C54.203,30.607,55.616,32.022,55.616,33.763z"/><circle fill="#AFAEAE" cx="60.253" cy="55.955" r="2.638"/><path fill="#AFAEAE" d="M24.911,84.719h59.2L69.218,60.972c0,0-11.402,10.669-30.864,10.669c-3.265,0-5.156-0.254-5.156-0.254	L24.911,84.719z"/><polygon fill="#EDEDED" points="53.479,43.306 50.369,43.306 30.109,84.826 38.051,84.826"/></svg>