<?xml version="1.0" encoding="utf-8"?><!DOCTYPE svg PUBLIC "-//W3C//DTD SVG 1.1//EN" "http://www.w3.org/Graphics/SVG/1.1/DTD/svg11.dtd"><svg version="1.1" id="Golden" xmlns="http://www.w3.org/2000/svg" xmlns:xlink="http://www.w3.org/1999/xlink" x="0px" y="0px" width="110px" height="110px" viewBox="0 0 110 110" enable-background="new 0 0 110 110" xml:space="preserve"><path fill="#E26600" d="M21.612,38.383c0-16.011,12.979-28.99,28.99-28.99l0,0c16.011,0,28.99,12.979,28.99,28.99v15.169	c0,16.011-12.979,28.99-28.99,28.99l0,0c-16.011,0-28.99-12.979-28.99-28.99V38.383z"/><path fill="#FAA918" d="M63.24,36.21c-5.367-0.284-10.516,0.486-15.848,1.009c-5.097,0.5-10.311,0.987-15.328,0.293	c-1.128,2.835-1.767,5.919-1.767,9.156v27.249c0,13.699,11.105,24.804,24.804,24.804s24.804-11.105,24.804-24.804V46.669	c0-3.593-0.78-6.998-2.154-10.08C72.89,37.309,68.405,36.484,63.24,36.21z"/><path fill="#CE5800" d="M40.489,67.036c0,5.399-4.377,9.776-9.776,9.776l0,0c-5.399,0-9.776-4.377-9.776-9.776l0,0	c0-5.399,4.377-9.776,9.776-9.776l0,0C36.112,57.26,40.489,61.637,40.489,67.036L40.489,67.036z"/><path fill="#EF8200" d="M30.296,57.499v16.42c0,13.699,11.105,24.804,24.804,24.804s24.804-11.105,24.804-24.804v-16.42H30.296z"/><path fill="#E26600" d="M30.296,57.499v16.42c0,13.699,11.105,24.804,24.804,24.804s24.804-11.105,24.804-24.804v-16.42H30.296z"/><path fill="#EF8200" d="M55.377,66.746l19.008,22.757c3.447-4.26,5.519-9.678,5.519-15.584v-16.42H55.856l-0.479,1.806l-0.479-1.806	H30.296v16.42c0,6.062,2.181,11.61,5.793,15.919L55.377,66.746z"/><path fill="#FAA918" d="M63.245,56.923c0,4.434-3.594,8.028-8.028,8.028l0,0c-4.434,0-8.028-3.594-8.028-8.028V43.635	c0-4.434,3.594-8.028,8.028-8.028l0,0c4.434,0,8.028,3.594,8.028,8.028V56.923z"/><path fill="#E26600" d="M38.197,51.159c0-2.476,2.007-4.483,4.483-4.483c2.476,0,4.483,2.007,4.483,4.483"/><path fill="#E26600" d="M64.49,51.159c0-2.476,2.007-4.483,4.483-4.483c2.476,0,4.483,2.007,4.483,4.483"/><rect x="29.83" y="33.357" fill="#EF8200" width="50.307" height="9.862"/></svg>