<?xml version="1.0" encoding="utf-8"?><!DOCTYPE svg PUBLIC "-//W3C//DTD SVG 1.1//EN" "http://www.w3.org/Graphics/SVG/1.1/DTD/svg11.dtd"><svg version="1.1" id="Locked" xmlns="http://www.w3.org/2000/svg" xmlns:xlink="http://www.w3.org/1999/xlink" x="0px" y="0px" width="110px" height="110px" viewBox="0 0 110 110" enable-background="new 0 0 110 110" xml:space="preserve"><path fill="#BCBCBC" d="M86.443,47.248c0,0-17.772,0-21.865,0c-4.169-0.048-7.534-3.298-7.836-7.402V29.403	c0-8.487-6.88-15.367-15.367-15.367v25.981c-0.383,4.021-3.708,7.184-7.819,7.231c-4.093,0-15.892,0-15.892,0v32.938h7.202h6.965	h3.745c1.041,4.371,4.948,7.631,9.637,7.631H79.09c3.39,0,6.377-1.705,8.169-4.298h-0.815V47.248z"/><g><path fill="#A3A3A3" d="M68.221,60.592h18.448c3.698,0,6.695-2.998,6.695-6.695c0-3.698-2.998-6.695-6.695-6.695H68.221 c-3.698,0-6.695,2.998-6.695,6.695C61.526,57.594,64.523,60.592,68.221,60.592z"/><path fill="#A3A3A3" d="M86.669,60.799H68.221c-3.698,0-6.695,2.998-6.695,6.695s2.998,6.695,6.695,6.695h18.448 c3.698,0,6.695-2.998,6.695-6.695S90.367,60.799,86.669,60.799z"/><path fill="#A3A3A3" d="M86.669,74.397H68.221c-3.698,0-6.695,2.998-6.695,6.695s2.998,6.695,6.695,6.695h18.448 c3.698,0,6.695-2.998,6.695-6.695S90.367,74.397,86.669,74.397z"/></g><rect x="16.201" y="45.405" fill="#D8D8D8" width="18.039" height="35.548"/></svg>