<?xml version="1.0" encoding="utf-8"?><!DOCTYPE svg PUBLIC "-//W3C//DTD SVG 1.1//EN" "http://www.w3.org/Graphics/SVG/1.1/DTD/svg11.dtd"><svg version="1.1" id="Locked" xmlns="http://www.w3.org/2000/svg" xmlns:xlink="http://www.w3.org/1999/xlink" x="0px" y="0px" width="110px" height="110px" viewBox="0 0 110 110" enable-background="new 0 0 110 110" xml:space="preserve"><path fill="#BCBCBC" d="M96.243,72.63H66.728H14.034c-2.83,0-2.725,2.154-2.725,4.982c0,2.84,2.294,4.984,5.129,4.984h31.328h45.892	c2.83,0,5.128-2.144,5.128-4.984C98.785,74.784,99.073,72.63,96.243,72.63z"/><path fill="#A3A3A3" d="M102.656,65.53c0,3.909-3.169,7.078-7.078,7.078H14.987c-3.909,0-7.078-3.169-7.078-7.078l0,0	c0-3.909,3.169-7.078,7.078-7.078h80.591C99.487,58.453,102.656,61.621,102.656,65.53L102.656,65.53z"/><path fill="#F0F0F0" d="M25.78,75.699c0,2.764,2.24,5.004,5.004,5.004l0,0c2.764,0,5.004-2.24,5.004-5.004V55.207	c0-2.764-2.24-5.004-5.004-5.004l0,0c-2.764,0-5.004,2.24-5.004,5.004V75.699z"/><path fill="#969696" d="M35.826,70.592c0,2.764,2.24,5.004,5.004,5.004l0,0c2.764,0,5.004-2.24,5.004-5.004V50.099	c0-2.764-2.24-5.004-5.004-5.004l0,0c-2.764,0-5.004,2.24-5.004,5.004V70.592z"/><path fill="#BCBCBC" d="M11.524,53.513L11.524,53.513c0-15.808,12.815-28.623,28.623-28.623h29.824	c15.808,0,28.623,12.815,28.623,28.623l0,0"/><ellipse fill="#F0F0F0" cx="40.067" cy="31.105" rx="3.555" ry="1.546"/><ellipse fill="#F0F0F0" cx="69.949" cy="31.105" rx="3.555" ry="1.546"/><ellipse fill="#F0F0F0" cx="55.111" cy="37.494" rx="3.555" ry="1.546"/><path fill="#969696" d="M102.465,55.957c0,1.391-1.083,2.519-2.418,2.519H10.568c-1.336,0-2.418-1.128-2.418-2.519l0,0	c0-1.391,1.083-2.519,2.418-2.519h89.478C101.382,53.438,102.465,54.566,102.465,55.957L102.465,55.957z"/></svg>