<?xml version="1.0" encoding="utf-8"?><!DOCTYPE svg PUBLIC "-//W3C//DTD SVG 1.1//EN" "http://www.w3.org/Graphics/SVG/1.1/DTD/svg11.dtd"><svg version="1.1" id="Unlocked" xmlns="http://www.w3.org/2000/svg" xmlns:xlink="http://www.w3.org/1999/xlink" x="0px" y="0px" width="110px" height="110px" viewBox="0 0 110 110" enable-background="new 0 0 110 110" xml:space="preserve"><path fill="#FFFFFF" d="M92.343,48.145c0-20.469-16.594-37.063-37.063-37.063c-20.47,0-37.063,16.594-37.063,37.063	c0,17.626,12.315,32.348,28.802,36.107v12.806c8.07,0,14.834-5.467,16.862-12.894C80.196,80.281,92.343,65.648,92.343,48.145z M63.303,27.132h9.24v28.81h-9.24V27.132z M42.777,55.675c0,0-0.004,0.001-0.007,0.001v-9.799c2.522,0,4.573-2.052,4.573-4.573	s-2.051-4.573-4.573-4.573v-9.799c7.926,0,14.372,6.448,14.372,14.372c0,4.131-1.762,7.85-4.563,10.475v4.357h-9.799L42.777,55.675z M42.853,62.983c0-2.683,2.175-4.859,4.858-4.859s4.859,2.175,4.859,4.859c0,2.683-2.176,4.859-4.859,4.859	S42.853,65.667,42.853,62.983z M68.244,67.842c-2.683,0-4.858-2.175-4.858-4.859c0-2.683,2.175-4.859,4.858-4.859	s4.859,2.175,4.859,4.859C73.103,65.667,70.927,67.842,68.244,67.842z"/></svg>