<?xml version="1.0" encoding="utf-8"?><!DOCTYPE svg PUBLIC "-//W3C//DTD SVG 1.1//EN" "http://www.w3.org/Graphics/SVG/1.1/DTD/svg11.dtd"><svg version="1.1" id="Unlocked" xmlns="http://www.w3.org/2000/svg" xmlns:xlink="http://www.w3.org/1999/xlink" x="0px" y="0px" width="110px" height="110px" viewBox="0 0 110 110" enable-background="new 0 0 110 110" xml:space="preserve"><path fill="#3F3F3F" d="M44.963,27.822c-0.773-0.773-0.773-2.026,0-2.799l0,0c0.773-0.773,2.026-0.773,2.799,0l13.995,13.995	c0.773,0.773,0.773,2.026,0,2.799l0,0c-0.773,0.773-2.026,0.773-2.799,0L44.963,27.822z"/><path fill="#3F3F3F" d="M64.313,25.217c0.773-0.773,2.026-0.773,2.799,0l0,0c0.773,0.773,0.773,2.026,0,2.799L53.117,42.011	c-0.773,0.773-2.026,0.773-2.799,0l0,0c-0.773-0.773-0.773-2.026,0-2.799L64.313,25.217z"/><circle fill="#3F3F3F" cx="56.028" cy="36.533" r="10.39"/><path fill="#E3EDD1" d="M39.589,70.382c-7.149,7.149-18.741,7.149-25.89,0c-7.149-7.149-7.149-18.741,0-25.89	s23.004-7.959,32.275-5.86C48.073,48.078,46.738,63.233,39.589,70.382z"/><g><path fill="#FFD833" d="M74.104,48.478c0.453,1.127,0.808,2.304,1.05,3.521C74.915,50.78,74.558,49.605,74.104,48.478z"/><path fill="#FFD833" d="M75.206,52.334c0.091,0.502,0.174,1.006,0.225,1.52C75.38,53.34,75.295,52.836,75.206,52.334z"/><path fill="#FFD833" d="M75.487,56.909c0.026-0.373,0.042-0.744,0.042-1.113c0-0.017-0.002-0.033-0.003-0.05 c0,0.017,0.002,0.033,0.002,0.05C75.529,56.165,75.514,56.536,75.487,56.909z"/><path fill="#FFD833" d="M75.364,58.072c0.043-0.311,0.075-0.622,0.101-0.931C75.439,57.451,75.408,57.761,75.364,58.072z"/><path fill="#FFD833" d="M73.077,65.249h-4.11c-2.441-4.856-3.575-10.996-3.682-16.772h8.82 c-2.903-7.211-9.952-12.308-18.202-12.308c-10.84,0-19.627,8.787-19.627,19.627c0,10.84,10.477,23.34,19.229,28.91 c7.98-5.034,18.341-16.234,19.835-26.47C74.995,60.551,74.194,62.916,73.077,65.249z"/></g><path fill="#FFEEA4" d="M36.275,55.796c0,4.392,1.721,9.057,4.349,13.423c6.18-7.463,7.32-21.384,5.393-30.36	C40.197,42.264,36.275,48.565,36.275,55.796z"/><path fill="#BCBCBC" d="M46.864,48.477H37.7c-0.911,2.263-1.425,4.729-1.425,7.319c0,3.083,0.868,6.299,2.283,9.454h4.624	C45.623,60.393,46.757,54.253,46.864,48.477z"/><path fill="#3F3F3F" d="M65.284,48.523H46.864c-0.107,5.776-1.241,11.916-3.682,16.772h25.784	C66.525,60.439,65.391,54.299,65.284,48.523z"/><g><path fill="#E3EDD1" d="M65.854,55.046c0.572,3.637,1.587,7.168,3.112,10.201C67.441,62.214,66.427,58.68,65.854,55.046z"/><path fill="#E3EDD1" d="M98.449,44.492c-7.149-7.149-23.004-7.959-32.275-5.86c-0.766,3.448-1.068,7.657-0.804,11.959 c-0.044-0.708-0.073-1.414-0.086-2.114h8.82c0.911,2.263,1.425,4.729,1.425,7.319c0,3.076-0.94,6.294-2.452,9.454h-4.11 c0.982,1.954,2.167,3.707,3.593,5.133c7.149,7.149,18.741,7.149,25.89,0C105.599,63.233,105.599,51.641,98.449,44.492z"/><path fill="#E3EDD1" d="M65.374,50.666c0.044,0.705,0.106,1.412,0.182,2.119C65.48,52.079,65.419,51.371,65.374,50.666z"/><path fill="#E3EDD1" d="M65.563,52.861c0.078,0.718,0.174,1.435,0.286,2.149C65.737,54.296,65.641,53.579,65.563,52.861z"/></g><path fill="#FFEEA4" d="M66.095,39.046c-1.834,8.801-0.758,22.213,5.063,29.724c2.631-4.242,4.372-8.744,4.372-12.975	C75.529,48.694,71.744,42.492,66.095,39.046z"/><path fill="#BCBCBC" d="M68.966,65.249h4.11c1.513-3.159,2.452-6.378,2.452-9.454c0-2.589-0.514-5.055-1.425-7.319h-8.82	C65.391,54.253,66.525,60.393,68.966,65.249z"/></svg>