<?xml version="1.0" encoding="utf-8"?><!DOCTYPE svg PUBLIC "-//W3C//DTD SVG 1.1//EN" "http://www.w3.org/Graphics/SVG/1.1/DTD/svg11.dtd"><svg version="1.1" id="Golden" xmlns="http://www.w3.org/2000/svg" xmlns:xlink="http://www.w3.org/1999/xlink" x="0px" y="0px" width="110px" height="110px" viewBox="0 0 110 110" enable-background="new 0 0 110 110" xml:space="preserve"><path fill="#E26600" d="M97.213,60.003c0-14.422-11.691-26.113-26.113-26.113c-14.422,0-26.113,11.691-26.113,26.113	c0,12.332,8.559,22.641,20.053,25.377c1.429,5.232,6.195,9.084,11.88,9.084v-9.023C88.537,82.793,97.213,72.421,97.213,60.003z"/><path fill="#EF8200" d="M73.254,47.118c0-16.493-13.371-29.864-29.864-29.864c-16.494,0-29.864,13.371-29.864,29.864	c0,14.103,9.788,25.893,22.934,29.023c1.634,5.984,7.084,10.389,13.587,10.389V76.211C63.331,73.183,73.254,61.32,73.254,47.118z"/></svg>