<?xml version="1.0" encoding="utf-8"?><!DOCTYPE svg PUBLIC "-//W3C//DTD SVG 1.1//EN" "http://www.w3.org/Graphics/SVG/1.1/DTD/svg11.dtd"><svg version="1.1" id="Golden" xmlns="http://www.w3.org/2000/svg" xmlns:xlink="http://www.w3.org/1999/xlink" x="0px" y="0px" width="110px" height="110px" viewBox="0 0 110 110" enable-background="new 0 0 110 110" xml:space="preserve"><path fill="#E26600" d="M62.313,61.152v-5.508c0-3.838-3.111-6.949-6.949-6.949s-6.949,3.111-6.949,6.949v5.508H25.718v6.883h11.225	c6.651,2.113,11.472,8.334,11.472,15.685v8.132c0,3.838,3.111,6.949,6.949,6.949s6.949-3.111,6.949-6.949V81.796	c0.758-6.495,5.289-11.835,11.35-13.76h10.723v-6.883H62.313z M55.187,93.781c-1.559,0-2.822-1.264-2.822-2.822	c0-1.559,1.263-2.822,2.822-2.822c1.558,0,2.822,1.263,2.822,2.822C58.009,92.517,56.746,93.781,55.187,93.781z"/><polygon fill="#E26600" points="83.68,50.273 26.695,50.273 22.375,12.538 88,12.538"/><rect x="24.378" y="47.348" fill="#EF8200" width="61.349" height="14.481"/><path fill="#EF8200" d="M30.308,12.665v14.442c0,1.727,1.4,3.128,3.128,3.128c1.728,0,3.128-1.4,3.128-3.128v-8.549	c0.026,0.102,0.045,0.166,0.054,0.164c0-1.281,1.039-2.32,2.32-2.32c1.281,0,2.32,1.039,2.32,2.32l0.014-0.09v18.801	c0,2.431,1.971,4.403,4.403,4.403c2.432,0,4.403-1.971,4.403-4.403V19.942c0.051-1.792,1.512-3.232,3.317-3.232	c1.51,0,2.77,1.012,3.176,2.39v12.214c0,2.431,1.971,4.403,4.403,4.403s4.403-1.971,4.403-4.403V12.665H30.308z"/></svg>