<?xml version="1.0" encoding="utf-8"?><!DOCTYPE svg PUBLIC "-//W3C//DTD SVG 1.1//EN" "http://www.w3.org/Graphics/SVG/1.1/DTD/svg11.dtd"><svg version="1.1" id="Golden" xmlns="http://www.w3.org/2000/svg" xmlns:xlink="http://www.w3.org/1999/xlink" x="0px" y="0px" width="110px" height="110px" viewBox="0 0 110 110" enable-background="new 0 0 110 110" xml:space="preserve"><circle fill="#EF8200" cx="55.829" cy="55.625" r="39.928"/><path fill="#E26600" d="M47.79,16.507c-2.755,2.652-4.633,5.622-4.633,5.622l12.658,5.423l13.107-5.451c0,0-1.538-2.719-4.033-5.361	c-2.912-0.674-5.942-1.043-9.06-1.043C53.074,15.697,50.387,15.974,47.79,16.507z"/><path fill="#E26600" d="M91.523,58.51c0,0,2.283-2.377,4.127-5.663c-0.397-5.779-2.018-11.222-4.615-16.066	c-3.397-1.959-6.926-2.947-6.926-2.947l-1.566,13.68L91.523,58.51z"/><path fill="#E26600" d="M19.787,58.51l8.979-10.996L27.2,33.833c0,0-3.193,0.898-6.428,2.67c-2.767,5.061-4.467,10.786-4.805,16.874	C17.748,56.382,19.787,58.51,19.787,58.51z"/><path fill="#E26600" d="M24.821,73.679c0,0-0.431,3.325-0.054,7.025c3.716,4.595,8.427,8.354,13.808,10.936	c3.382-0.473,6.05-1.481,6.05-1.481L38.023,77.59L24.821,73.679z"/><path fill="#E26600" d="M86.471,81.218c0.476-3.898,0.002-7.539,0.002-7.539L73.272,77.59l-6.601,12.568	c0,0,2.814,1.066,6.329,1.521C78.215,89.189,82.804,85.603,86.471,81.218z"/><polygon fill="#E26600" points="47.681,67.554 42.747,52.542 55.663,43.244 68.578,52.5 63.644,67.554"/></svg>