<?xml version="1.0" encoding="utf-8"?><!DOCTYPE svg PUBLIC "-//W3C//DTD SVG 1.1//EN" "http://www.w3.org/Graphics/SVG/1.1/DTD/svg11.dtd"><svg version="1.1" id="Golden" xmlns="http://www.w3.org/2000/svg" xmlns:xlink="http://www.w3.org/1999/xlink" x="0px" y="0px" width="110px" height="110px" viewBox="0 0 110 110" enable-background="new 0 0 110 110" xml:space="preserve"><g><path fill="#E26600" d="M24.501,71.476c4.632-0.124,9.254-0.081,13.848,0.39v-12.11c0-9.109,7.409-16.519,16.518-16.519 s16.519,7.41,16.519,16.519v11.552c1.082-0.01,2.163-0.031,3.245-0.035c0.326-0.281,0.746-0.479,1.315-0.467 c5.076,0.106,10.136,0.471,15.202,0.746c0.83,0.03,1.66,0.073,2.49,0.102V59.757c0-21.378-17.392-38.768-38.771-38.768 c-21.377,0-38.767,17.391-38.767,38.768v11.117C18.899,71.096,21.7,71.293,24.501,71.476z"/></g><g><rect x="16.099" y="68.733" fill="#D8D8D8" width="22.249" height="19.342"/><rect x="71.386" y="68.733" fill="#D8D8D8" width="22.251" height="19.342"/></g><g><rect x="16.099" y="68.733" fill="#EF8200" width="22.249" height="19.342"/><rect x="71.386" y="68.733" fill="#EF8200" width="22.251" height="19.342"/></g></svg>