<?xml version="1.0" encoding="utf-8"?><!DOCTYPE svg PUBLIC "-//W3C//DTD SVG 1.1//EN" "http://www.w3.org/Graphics/SVG/1.1/DTD/svg11.dtd"><svg version="1.1" id="Golden" xmlns="http://www.w3.org/2000/svg" xmlns:xlink="http://www.w3.org/1999/xlink" x="0px" y="0px" width="110px" height="110px" viewBox="0 0 110 110" enable-background="new 0 0 110 110" xml:space="preserve"><circle fill="#EF8200" cx="55.228" cy="55.611" r="44.211"/><path fill="#FAA918" d="M87.504,38.759c9.303,17.826,2.398,39.82-15.425,49.127c-17.826,9.305-39.822,2.399-49.128-15.423	c-9.304-17.826-2.398-39.82,15.425-49.127C56.202,14.031,78.197,20.937,87.504,38.759z"/><polygon fill="#E26600" points="45.59,61.894 40.821,31.522 64.676,50.911"/><polygon fill="#EF8200" points="64.672,50.895 69.44,81.267 45.585,61.873"/><path fill="#FFC524" d="M58.64,54.25c1.129,1.959,0.452,4.466-1.51,5.596c-1.963,1.128-4.47,0.454-5.599-1.511	c-1.128-1.963-0.452-4.468,1.511-5.596C55.003,51.609,57.511,52.285,58.64,54.25z"/></svg>