<?xml version="1.0" encoding="utf-8"?><!DOCTYPE svg PUBLIC "-//W3C//DTD SVG 1.1//EN" "http://www.w3.org/Graphics/SVG/1.1/DTD/svg11.dtd"><svg version="1.1" id="Unlocked" xmlns="http://www.w3.org/2000/svg" xmlns:xlink="http://www.w3.org/1999/xlink" x="0px" y="0px" width="110px" height="110px" viewBox="0 0 110 110" enable-background="new 0 0 110 110" xml:space="preserve"><path fill="#9CBC13" d="M97.101,41.36h-6.176c-0.039-10.906-8.888-19.735-19.803-19.735v8.98	c-5.858-3.917-12.879-6.229-20.461-6.229c-20.344,0-36.84,16.43-36.97,36.743H13.69v0.017c0,0.075-0.011,0.147-0.011,0.222h0.011	v7.015h-0.009c0,11.924,9.665,21.589,21.589,21.589s21.589-9.666,21.589-21.589H44.425c0,5.056-4.1,9.155-9.155,9.155	s-9.156-4.099-9.156-9.155h-0.014v-7.015h3.956v7.058c0,2.951,2.392,5.344,5.343,5.344s5.343-2.392,5.343-5.344v-7.058h19.72v7.058	c0,2.951,2.392,5.344,5.343,5.344c2.951,0,5.343-2.392,5.343-5.344v-7.058h5.787c0.053,0,0.104,0.008,0.157,0.008	c0.054,0,0.105-0.008,0.157-0.008h1.254c-0.002-0.021,0.007-0.042,0.005-0.064C88.896,60.565,97.101,51.931,97.101,41.36z"/><path fill="#70A30D" d="M35.198,45.735c2.263,0,4.098-1.834,4.098-4.097V26.174c-2.911,0.94-5.649,2.248-8.195,3.84v11.624	C31.1,43.901,32.935,45.735,35.198,45.735z"/><path fill="#70A30D" d="M48.964,45.735c2.263,0,4.097-1.834,4.097-4.097V24.486c-0.796-0.051-1.59-0.11-2.399-0.11	c-1.977,0-3.902,0.2-5.795,0.498v16.764C44.867,43.901,46.701,45.735,48.964,45.735z"/><path fill="#70A30D" d="M62.73,45.735c2.263,0,4.098-1.834,4.098-4.097V28.095c-2.574-1.256-5.327-2.189-8.194-2.821v16.363	C58.634,43.901,60.468,45.735,62.73,45.735z"/><circle fill="#70A30D" cx="79.205" cy="45.312" r="6.268"/><circle fill="#231F20" cx="79.205" cy="45.312" r="2.078"/></svg>