<?xml version="1.0" encoding="utf-8"?><!DOCTYPE svg PUBLIC "-//W3C//DTD SVG 1.1//EN" "http://www.w3.org/Graphics/SVG/1.1/DTD/svg11.dtd"><svg version="1.1" id="Locked" xmlns="http://www.w3.org/2000/svg" xmlns:xlink="http://www.w3.org/1999/xlink" x="0px" y="0px" width="110px" height="110px" viewBox="0 0 110 110" enable-background="new 0 0 110 110" xml:space="preserve"><rect x="29.212" y="38.475" fill="#D8D8D8" width="53.816" height="45.007"/><path fill="#BCBCBC" d="M40.006,59.938c-1.854,0-3.357,1.503-3.357,3.357v20.187h6.714V63.295	C43.363,61.441,41.86,59.938,40.006,59.938z"/><path fill="#BCBCBC" d="M56.12,59.938c-1.854,0-3.357,1.503-3.357,3.357v20.187h6.714V63.295	C59.477,61.441,57.974,59.938,56.12,59.938z"/><rect x="22.805" y="37.514" fill="#BCBCBC" width="68.231" height="17.078"/><path fill="#BCBCBC" d="M72.234,59.938c-1.854,0-3.357,1.503-3.357,3.357v20.187h6.714V63.295	C75.591,61.441,74.088,59.938,72.234,59.938z"/><path fill="#D8D8D8" d="M87.673,26.647v-0.024H23.446v0.016C15.369,26.811,8.871,33.4,8.871,41.518	c0,8.227,6.669,14.896,14.896,14.896c7.955,0,14.436-6.243,14.855-14.095h33.716c0.419,7.852,6.899,14.095,14.855,14.095	c8.226,0,14.896-6.669,14.896-14.896C102.088,33.454,95.675,26.903,87.673,26.647z"/></svg>