<?xml version="1.0" encoding="utf-8"?><!DOCTYPE svg PUBLIC "-//W3C//DTD SVG 1.1//EN" "http://www.w3.org/Graphics/SVG/1.1/DTD/svg11.dtd"><svg version="1.1" id="Golden" xmlns="http://www.w3.org/2000/svg" xmlns:xlink="http://www.w3.org/1999/xlink" x="0px" y="0px" width="110px" height="110px" viewBox="0 0 110 110" enable-background="new 0 0 110 110" xml:space="preserve"><path fill="#EF8200" d="M71.859,21.416l-7.696,8.486l5.694,4.102l-8.657,20.954l3.646-17.766l-7.745-5.922l7.919-15.44	c-3.193-1.918-6.577-3.026-10.083-3.026c-19.309,0-34.961,33.435-34.961,52.745c0,19.309,15.653,33.594,34.961,33.594	c19.31,0,34.964-14.285,34.964-33.594C89.901,52.379,82.616,32.639,71.859,21.416z"/><path fill="#E6741F" d="M54.937,82.762c-14.496,0-27.281-6.63-34.961-17.217v0.001c0,19.309,15.653,33.594,34.961,33.594	c19.31,0,34.964-14.285,34.964-33.594v-0.003C82.219,76.131,69.434,82.762,54.937,82.762z"/></svg>