<?xml version="1.0" encoding="utf-8"?><!DOCTYPE svg PUBLIC "-//W3C//DTD SVG 1.1//EN" "http://www.w3.org/Graphics/SVG/1.1/DTD/svg11.dtd"><svg version="1.1" id="Unlocked" xmlns="http://www.w3.org/2000/svg" xmlns:xlink="http://www.w3.org/1999/xlink" x="0px" y="0px" width="110px" height="110px" viewBox="0 0 110 110" enable-background="new 0 0 110 110" xml:space="preserve"><rect x="38.907" y="21.267" fill="#FFFFFF" width="32.097" height="73.77"/><path fill="#444444" d="M71.04,14.279l-11.583,4.5c-0.917-1.455-2.526-2.429-4.373-2.429c-2.054,0-3.813,1.206-4.65,2.94	l-11.565-4.493v12.727l11.316-4.396c0.677,2.07,2.602,3.576,4.899,3.576c2.433,0,4.46-1.685,5.014-3.948l10.941,4.251V14.279z"/><circle fill="#444444" cx="55.344" cy="36.798" r="2.491"/><circle fill="#444444" cx="55.344" cy="57.506" r="2.491"/><circle fill="#444444" cx="55.344" cy="78.213" r="2.491"/><polygon fill="#444444" points="22.292,39.462 27.134,44.304 21.809,49.629 38.861,95.059 38.929,27.415"/><polygon fill="#444444" points="83.726,44.304 88.461,39.57 70.961,26.897 71.029,94.542 88.204,48.782"/></svg>