<?xml version="1.0" encoding="utf-8"?><!DOCTYPE svg PUBLIC "-//W3C//DTD SVG 1.1//EN" "http://www.w3.org/Graphics/SVG/1.1/DTD/svg11.dtd"><svg version="1.1" id="Unlocked" xmlns="http://www.w3.org/2000/svg" xmlns:xlink="http://www.w3.org/1999/xlink" x="0px" y="0px" width="110px" height="110px" viewBox="0 0 110 110" enable-background="new 0 0 110 110" xml:space="preserve"><path fill="#E3EDD1" d="M96.502,59.293c0-14.309-11.599-25.908-25.908-25.908c-14.309,0-25.908,11.599-25.908,25.908	c0,12.235,8.492,22.463,19.896,25.178c1.418,5.191,6.146,9.013,11.787,9.013v-8.952C87.894,81.905,96.502,71.614,96.502,59.293z"/><path fill="#FFFFFF" d="M72.731,46.51c0-16.364-13.266-29.63-29.63-29.63c-16.364,0-29.63,13.266-29.63,29.63	c0,13.993,9.712,25.69,22.754,28.795c1.622,5.937,7.029,10.308,13.48,10.308V75.375C62.886,72.37,72.731,60.6,72.731,46.51z"/></svg>