<?xml version="1.0" encoding="utf-8"?><!DOCTYPE svg PUBLIC "-//W3C//DTD SVG 1.1//EN" "http://www.w3.org/Graphics/SVG/1.1/DTD/svg11.dtd"><svg version="1.1" id="Unlocked" xmlns="http://www.w3.org/2000/svg" xmlns:xlink="http://www.w3.org/1999/xlink" x="0px" y="0px" width="110px" height="110px" viewBox="0 0 110 110" enable-background="new 0 0 110 110" xml:space="preserve"><path fill="#FFB103" d="M40.851,21.809c-12.326,0.152-22.274,10.186-22.274,22.548h22.274h0.282h53.428V21.802h-53.71V21.809z"/><path fill="#FFB103" d="M72.124,89.027c12.326-0.152,22.274-10.186,22.274-22.548H72.124h-0.282H18.414v22.556h53.71V89.027z"/><rect x="17.568" y="65.492" fill="#E2E2E2" width="10.432" height="25.093"/><rect x="34.873" y="76.249" fill="#D68900" width="3.331" height="12.715"/><rect x="54.371" y="76.249" fill="#D68900" width="3.331" height="12.715"/><path fill="#D68900" d="M73.87,88.918c1.138-0.102,2.248-0.288,3.331-0.552V76.249H73.87V88.918z"/><rect x="64.121" y="82.464" fill="#D68900" width="3.331" height="6.5"/><rect x="44.622" y="82.464" fill="#D68900" width="3.331" height="6.5"/><path fill="#C67A00" d="M40.485,66.726c0.065,0.002,0.129,0.012,0.194,0.014v-0.014h31.163h0.282h22.274	c0-12.363-9.947-22.396-22.274-22.548V44.17H40.406v0.012H18.599c0,12.209,9.698,22.124,21.807,22.537v0.006H40.485z"/><rect x="85.235" y="20.24" fill="#E2E2E2" width="10.432" height="25.093"/><rect x="73.657" y="21.693" fill="#D68900" width="3.331" height="12.715"/><rect x="54.158" y="21.693" fill="#D68900" width="3.331" height="12.715"/><path fill="#D68900" d="M34.659,22.769v11.639h3.331V22.046C36.85,22.206,35.738,22.446,34.659,22.769z"/><rect x="44.409" y="21.693" fill="#D68900" width="3.331" height="6.5"/><rect x="63.907" y="21.693" fill="#D68900" width="3.331" height="6.5"/></svg>