<?xml version="1.0" encoding="utf-8"?><!DOCTYPE svg PUBLIC "-//W3C//DTD SVG 1.1//EN" "http://www.w3.org/Graphics/SVG/1.1/DTD/svg11.dtd"><svg version="1.1" id="Locked" xmlns="http://www.w3.org/2000/svg" xmlns:xlink="http://www.w3.org/1999/xlink" x="0px" y="0px" width="110px" height="110px" viewBox="0 0 110 110" enable-background="new 0 0 110 110" xml:space="preserve"><path fill="#A3A3A3" d="M21.546,38.296c0-15.882,12.875-28.757,28.757-28.757l0,0c15.882,0,28.757,12.875,28.757,28.757v15.047	c0,15.882-12.875,28.757-28.757,28.757l0,0c-15.882,0-28.757-12.875-28.757-28.757V38.296z"/><path fill="#D8D8D8" d="M62.839,36.141c-5.324-0.282-10.432,0.482-15.721,1.001c-5.056,0.496-10.228,0.979-15.205,0.291	c-1.119,2.813-1.753,5.871-1.753,9.083v27.03c0,13.589,11.015,24.604,24.604,24.604S79.37,87.135,79.37,73.546v-27.03	c0-3.564-0.774-6.942-2.137-9.999C72.412,37.231,67.963,36.413,62.839,36.141z"/><path fill="#E8E8E8" d="M40.272,66.719c0,5.356-4.342,9.697-9.697,9.697l0,0c-5.356,0-9.697-4.342-9.697-9.697l0,0	c0-5.356,4.342-9.697,9.697-9.697l0,0C35.93,57.022,40.272,61.363,40.272,66.719L40.272,66.719z"/><path fill="#D8D8D8" d="M30.161,57.259v16.287c0,13.589,11.016,24.604,24.604,24.604S79.37,87.135,79.37,73.546V57.259H30.161z"/><path fill="#C4C4C4" d="M55.04,66.431l18.855,22.573c3.419-4.226,5.475-9.6,5.475-15.459V57.259H55.515L55.04,59.05l-0.476-1.792	H30.161v16.287c0,6.013,2.163,11.517,5.746,15.791L55.04,66.431z"/><path fill="#D8D8D8" d="M62.845,56.688c0,4.398-3.566,7.964-7.964,7.964l0,0c-4.398,0-7.964-3.566-7.964-7.964V43.506	c0-4.398,3.566-7.964,7.964-7.964l0,0c4.398,0,7.964,3.566,7.964,7.964V56.688z"/><path fill="#A3A3A3" d="M37.998,50.969c0-2.456,1.991-4.447,4.447-4.447c2.456,0,4.447,1.991,4.447,4.447"/><path fill="#A3A3A3" d="M64.079,50.969c0-2.456,1.991-4.447,4.447-4.447s4.447,1.991,4.447,4.447"/><rect x="29.699" y="33.311" fill="#E8E8E8" width="49.902" height="9.782"/></svg>