<?xml version="1.0" encoding="utf-8"?><!DOCTYPE svg PUBLIC "-//W3C//DTD SVG 1.1//EN" "http://www.w3.org/Graphics/SVG/1.1/DTD/svg11.dtd"><svg version="1.1" id="Unlocked" xmlns="http://www.w3.org/2000/svg" xmlns:xlink="http://www.w3.org/1999/xlink" x="0px" y="0px" width="110px" height="110px" viewBox="0 0 110 110" enable-background="new 0 0 110 110" xml:space="preserve"><polygon fill="#09A0CE" points="82.446,90.18 14.66,90.18 27.313,61.798 95.099,61.798"/><path fill="#FFFFFF" d="M96.517,64.412c-1.21-4.338-4.802-7.67-9.279-8.516c3.708-3.976,5.994-9.295,5.994-15.16	c0-12.292-9.965-22.257-22.257-22.257c-12.292,0-22.257,9.965-22.257,22.257c0,1.307,0.135,2.579,0.351,3.824	c-3.168,0.757-5.672,3.137-6.642,6.217c-1.153-0.303-2.357-0.481-3.605-0.481c-7.817,0-14.154,6.337-14.154,14.153h10.307v0.037	h49.593v-0.075H96.517z"/></svg>