<?xml version="1.0" encoding="utf-8"?><!DOCTYPE svg PUBLIC "-//W3C//DTD SVG 1.1//EN" "http://www.w3.org/Graphics/SVG/1.1/DTD/svg11.dtd"><svg version="1.1" id="Unlocked" xmlns="http://www.w3.org/2000/svg" xmlns:xlink="http://www.w3.org/1999/xlink" x="0px" y="0px" width="110px" height="110px" viewBox="0 0 110 110" enable-background="new 0 0 110 110" xml:space="preserve"><circle fill="#FFFFFF" cx="27.968" cy="73.201" r="11.965"/><circle fill="none" stroke="#681626" stroke-width="2.3103" stroke-miterlimit="10" cx="27.968" cy="73.201" r="7.364"/><path fill="#681626" d="M69.802,70.335H59.259V59.941h5.469c6.858,0,12.437-5.579,12.437-12.435v-7.123h-6.024v7.123	c0,3.536-2.876,6.411-6.413,6.411H47.767c-3.536,0-6.413-2.876-6.413-6.411v-7.123H35.33v7.123c0,6.857,5.579,12.435,12.437,12.435	h5.469v10.394H34.369v6.024h18.867v10.542c0,9.134,7.432,16.566,16.566,16.566c9.135,0,16.566-7.432,16.566-16.566	C86.368,77.768,78.936,70.335,69.802,70.335z M69.802,97.444c-5.812,0-10.542-4.729-10.542-10.542V76.36h10.542	c5.813,0,10.542,4.729,10.542,10.542C80.344,92.715,75.615,97.444,69.802,97.444z"/><g><path fill="#FFFFFF" d="M41.354,19.705c0-3.536,2.876-6.412,6.413-6.412V7.269c-6.858,0-12.437,5.579-12.437,12.436v20.677h6.024 V19.705z"/><path fill="#FFFFFF" d="M64.729,7.269v6.024c3.536,0,6.413,2.876,6.413,6.412v20.677h6.024V19.705 C77.165,12.848,71.586,7.269,64.729,7.269z"/></g></svg>