<?xml version="1.0" encoding="utf-8"?><!DOCTYPE svg PUBLIC "-//W3C//DTD SVG 1.1//EN" "http://www.w3.org/Graphics/SVG/1.1/DTD/svg11.dtd"><svg version="1.1" id="Unlocked" xmlns="http://www.w3.org/2000/svg" xmlns:xlink="http://www.w3.org/1999/xlink" x="0px" y="0px" width="110px" height="110px" viewBox="0 0 110 110" enable-background="new 0 0 110 110" xml:space="preserve"><path fill="#C17B4C" d="M62.341,61.035v-5.442c0-3.792-3.074-6.866-6.866-6.866s-6.866,3.074-6.866,6.866v5.442H26.182v6.801h11.091	c6.572,2.088,11.336,8.235,11.336,15.498v8.035c0,3.792,3.074,6.866,6.866,6.866s6.866-3.074,6.866-6.866v-9.937	c0.749-6.418,5.226-11.694,11.215-13.596h10.595v-6.801H62.341z M55.3,93.275c-1.54,0-2.788-1.248-2.788-2.788	s1.248-2.788,2.788-2.788c1.54,0,2.788,1.248,2.788,2.788S56.84,93.275,55.3,93.275z"/><polygon fill="#515151" points="83.453,50.286 27.147,50.286 22.878,13 87.722,13"/><rect x="24.858" y="47.396" fill="#E5E5E5" width="60.618" height="14.309"/><path fill="#1CB0F6" d="M30.717,13.126v14.27c0,1.707,1.384,3.091,3.09,3.091c1.707,0,3.09-1.384,3.09-3.091v-8.447	c0.026,0.101,0.045,0.164,0.054,0.162c0-1.266,1.026-2.293,2.292-2.293c1.266,0,2.292,1.026,2.292,2.293l0.014-0.089v18.577	c0,2.403,1.948,4.35,4.35,4.35c2.403,0,4.35-1.948,4.35-4.35V20.316c0.051-1.771,1.494-3.193,3.277-3.193	c1.492,0,2.737,1,3.138,2.362v12.068c0,2.403,1.948,4.35,4.35,4.35c2.403,0,4.35-1.948,4.35-4.35V13.126H30.717z"/></svg>