<?xml version="1.0" encoding="utf-8"?><!DOCTYPE svg PUBLIC "-//W3C//DTD SVG 1.1//EN" "http://www.w3.org/Graphics/SVG/1.1/DTD/svg11.dtd"><svg version="1.1" id="Golden" xmlns="http://www.w3.org/2000/svg" xmlns:xlink="http://www.w3.org/1999/xlink" x="0px" y="0px" width="110px" height="110px" viewBox="0 0 110 110" enable-background="new 0 0 110 110" xml:space="preserve"><path fill="#EF8200" d="M82.913,9.934H55.604v47.791l-23.03,20.199c-5.64,5.64-5.64,14.785,0,20.425c5.64,5.64,14.785,5.64,20.425,0	l25.634-22.484c2.665-2.665,4.026-6.115,4.172-9.606h0.107V9.934z"/><path fill="#E26600" d="M70.572,70.461c0,3.584,1.411,6.82,3.67,9.256l4.392-3.852c2.665-2.665,4.026-6.115,4.172-9.606h0.107	v-9.321C75.998,57.609,70.572,63.37,70.572,70.461z"/><path fill="#E26600" d="M32.857,77.676l-0.283,0.248c-5.64,5.64-5.64,14.785,0,20.425c5.491,5.491,14.278,5.592,19.944,0.392	L32.857,77.676z"/><rect x="55.604" y="18.206" fill="#E26600" width="27.309" height="4.989"/><rect x="55.604" y="27.659" fill="#E26600" width="27.309" height="4.989"/></svg>