<?xml version="1.0" encoding="utf-8"?><!DOCTYPE svg PUBLIC "-//W3C//DTD SVG 1.1//EN" "http://www.w3.org/Graphics/SVG/1.1/DTD/svg11.dtd"><svg version="1.1" id="Unlocked" xmlns="http://www.w3.org/2000/svg" xmlns:xlink="http://www.w3.org/1999/xlink" x="0px" y="0px" width="110px" height="110px" viewBox="0 0 110 110" enable-background="new 0 0 110 110" xml:space="preserve"><rect x="21.982" y="34.964" fill="#C17B4C" width="32.991" height="47.132"/><polygon fill="#AD6B3E" points="54.861,34.964 21.683,34.964 9.083,27.423 42.261,27.423"/><path fill="#AD6B3E" d="M67.487,27.423l-12.6,7.541h0.087v47.132h32.993V34.964h0.1l12.6-7.541H67.487z M76.323,49.103h-7.277	c-1.432,0-2.591-0.926-2.591-2.355c0-1.432,1.159-2.359,2.591-2.359h7.277c1.432,0,2.593,0.927,2.593,2.359	C78.915,48.177,77.754,49.103,76.323,49.103z"/><rect x="70.056" y="72.669" fill="#C69D81" width="5.658" height="9.427"/></svg>