<?xml version="1.0" encoding="utf-8"?><!DOCTYPE svg PUBLIC "-//W3C//DTD SVG 1.1//EN" "http://www.w3.org/Graphics/SVG/1.1/DTD/svg11.dtd"><svg version="1.1" id="Golden" xmlns="http://www.w3.org/2000/svg" xmlns:xlink="http://www.w3.org/1999/xlink" x="0px" y="0px" width="110px" height="110px" viewBox="0 0 110 110" enable-background="new 0 0 110 110" xml:space="preserve"><path fill="#E26600" d="M57.655,20.173v5.304c3.503,0,6.352,2.849,6.352,6.352V62.59c0,3.331-2.585,6.04-5.85,6.301V48.667h-5.304	v30.794c-3.086-0.431-5.476-3.06-5.476-6.263V42.437c0-3.503,2.849-6.352,6.352-6.352v-5.304c-6.427,0-11.655,5.229-11.655,11.655	v30.761c0,6.127,4.768,11.11,10.78,11.567v17.096h5.304V74.195c6.189-0.269,11.154-5.35,11.154-11.605V31.829	C69.31,25.402,64.082,20.173,57.655,20.173z"/><path fill="#EF8200" d="M68.829,8.71c-5.36,0-10.329,1.659-14.436,4.482c-2.282-2.975-5.835-4.924-9.874-4.924	c-6.896,0-12.487,5.59-12.487,12.487c0,1.215,0.229,2.367,0.552,3.477c-9.285,2.912-16.022,11.582-16.022,21.827	c0,12.633,10.24,22.873,22.873,22.873c8.331,0,15.6-4.469,19.599-11.125c3.016,1.255,6.323,1.954,9.793,1.954	c14.097,0,25.525-11.428,25.525-25.526C94.354,20.138,82.926,8.71,68.829,8.71z"/><path fill="#FAA918" d="M31.762,41.679l-0.012-0.028c-0.005,0.007-0.009,0.016-0.014,0.023c-0.009-0.001-0.017-0.004-0.026-0.005	l0.012,0.028c-0.869,1.257-0.997,3.201-0.18,5.034s2.348,3.038,3.863,3.233l0.012,0.028c0.005-0.007,0.009-0.016,0.014-0.023	c0.009,0.001,0.017,0.004,0.026,0.005l-0.012-0.028c0.869-1.257,0.997-3.201,0.18-5.034C34.809,43.078,33.278,41.873,31.762,41.679z"/><path fill="#FAA918" d="M54.991,39.356l-0.012-0.028c-0.005,0.007-0.009,0.016-0.014,0.023c-0.009-0.001-0.017-0.004-0.026-0.005	l0.012,0.028c-0.869,1.257-0.997,3.201-0.18,5.034c0.817,1.833,2.348,3.038,3.863,3.233l0.012,0.028	c0.005-0.007,0.009-0.016,0.014-0.023c0.009,0.001,0.017,0.004,0.026,0.005l-0.012-0.028c0.869-1.257,0.997-3.201,0.18-5.034	S56.507,39.551,54.991,39.356z"/><path fill="#FAA918" d="M81.038,42.643l0.025-0.018c-0.008-0.004-0.017-0.005-0.025-0.009c-0.001-0.009,0.001-0.018,0-0.027	l-0.025,0.018c-1.402-0.606-3.334-0.351-4.972,0.809c-1.638,1.16-2.52,2.897-2.414,4.421l-0.025,0.018	c0.008,0.004,0.017,0.005,0.025,0.009c0.001,0.009-0.001,0.018,0,0.027l0.025-0.018c1.402,0.606,3.334,0.351,4.972-0.809	C80.262,45.905,81.144,44.168,81.038,42.643z"/><path fill="#FAA918" d="M65.669,16.066l-0.02-0.023c-0.003,0.008-0.004,0.017-0.006,0.026c0,0-0.018,0.001-0.026,0.003l0.02,0.023	c-0.464,1.456-0.018,3.352,1.299,4.867c1.317,1.515,3.133,2.22,4.639,1.963l0.02,0.023c0.003-0.008,0.004-0.017,0.006-0.026	c0.009-0.002,0.018-0.001,0.026-0.003l-0.02-0.023c0.464-1.456,0.018-3.352-1.299-4.867C68.991,16.514,67.175,15.809,65.669,16.066z"/><path fill="#FAA918" d="M43.56,27.311l-0.012,0.028c0,0,0.017-0.004,0.026-0.005c0.005,0.007,0.009,0.016,0.014,0.023l0.012-0.028	c1.514-0.205,3.036-1.421,3.84-3.26c0.804-1.839,0.662-3.782-0.215-5.033l0.012-0.028c-0.009,0.001-0.017,0.004-0.026,0.005	c-0.005-0.007-0.009-0.016-0.014-0.023l-0.012,0.028c-1.514,0.205-3.036,1.421-3.84,3.26C42.541,24.117,42.682,26.06,43.56,27.311z"/></svg>