<?xml version="1.0" encoding="utf-8"?><!DOCTYPE svg PUBLIC "-//W3C//DTD SVG 1.1//EN" "http://www.w3.org/Graphics/SVG/1.1/DTD/svg11.dtd"><svg version="1.1" id="Golden" xmlns="http://www.w3.org/2000/svg" xmlns:xlink="http://www.w3.org/1999/xlink" x="0px" y="0px" width="110px" height="110px" viewBox="0 0 110 110" enable-background="new 0 0 110 110" xml:space="preserve"><rect x="34.269" y="40.45" transform="matrix(0.7071 -0.7071 0.7071 0.7071 -23.0959 60.2253)" fill="#E26600" width="53.763" height="35.083"/><path fill="#EF8200" d="M85.152,64.918L64.694,44.461c-0.273-0.274-0.573-0.503-0.879-0.718l-3.527-3.527	c0.371-0.896,0.581-1.876,0.581-2.906c0-4.194-3.4-7.594-7.594-7.594c-1.03,0-2.01,0.21-2.906,0.581l-3.797-3.797L19.107,53.965	l17.881,17.881l20.458,20.458c2.58,2.58,6.763,2.58,9.343,0c2.279-2.279,2.537-5.804,0.79-8.375	c2.584,1.889,6.219,1.688,8.553-0.646c2.179-2.179,2.495-5.493,0.993-8.027c2.535,1.502,5.848,1.186,8.027-0.994	C87.732,71.682,87.732,67.499,85.152,64.918z"/><path fill="#E26600" d="M40.424,62.502c2.402,2.402,2.402,6.297,0,8.699l-3.222,3.222c-2.402,2.402-6.297,2.402-8.699,0l0,0	c-2.402-2.402-2.402-6.297,0-8.699l3.222-3.222C34.127,60.1,38.022,60.1,40.424,62.502L40.424,62.502z"/><path fill="#E26600" d="M67.487,35.44c2.402,2.402,2.402,6.297,0,8.699l-3.222,3.222c-2.402,2.402-6.297,2.402-8.699,0l0,0	c-2.402-2.402-2.402-6.297,0-8.699l3.222-3.222C61.19,33.038,65.084,33.038,67.487,35.44L67.487,35.44z"/><path fill="#E26600" d="M48.747,70.825c2.402,2.402,2.402,6.297,0,8.699l-3.222,3.222c-2.402,2.402-6.297,2.402-8.699,0l0,0	c-2.402-2.402-2.402-6.297,0-8.699l3.222-3.222C42.45,68.423,46.345,68.423,48.747,70.825L48.747,70.825z"/><path fill="#E26600" d="M56.909,78.987c2.402,2.402,2.402,6.297,0,8.699l-3.222,3.222c-2.402,2.402-6.297,2.402-8.699,0l0,0	c-2.402-2.402-2.402-6.297,0-8.699l3.222-3.222C50.612,76.585,54.506,76.585,56.909,78.987L56.909,78.987z"/><rect x="7.278" y="29.053" transform="matrix(0.7071 -0.7071 0.7071 0.7071 -16.9871 30.4604)" fill="#E26600" width="41.995" height="13.365"/><rect x="65.522" y="27.756" transform="matrix(0.7071 0.7071 -0.7071 0.7071 49.1352 -49.7452)" fill="#EF8200" width="38.186" height="13.365"/><circle fill="#E26600" cx="94.585" cy="44.447" r="2.43"/><circle fill="#EF8200" cx="19.408" cy="44.599" r="2.43"/></svg>