<?xml version="1.0" encoding="utf-8"?><!DOCTYPE svg PUBLIC "-//W3C//DTD SVG 1.1//EN" "http://www.w3.org/Graphics/SVG/1.1/DTD/svg11.dtd"><svg version="1.1" id="Golden" xmlns="http://www.w3.org/2000/svg" xmlns:xlink="http://www.w3.org/1999/xlink" x="0px" y="0px" width="110px" height="110px" viewBox="0 0 110 110" enable-background="new 0 0 110 110" xml:space="preserve"><path fill="#EF8200" d="M94.669,74.369h-1.112V54.085h0.016V30.559L74.18,48.756L54.786,30.559l-19.268,18.05l-19.269-18.05v23.526	h0.013v20.284H15.25c-1.091,0-1.976,0.885-1.976,1.976c0,1.091,0.885,1.976,1.976,1.976h79.42c1.091,0,1.975-0.885,1.975-1.976	C96.645,75.253,95.76,74.369,94.669,74.369z"/><polygon fill="#FAA918" points="44.093,40.575 35.518,48.608 27.103,40.726 27.103,74.171 23.745,74.171 23.745,78.172 41.673,78.172 41.673,74.468 44.093,74.468"/></svg>