<?xml version="1.0" encoding="utf-8"?><!DOCTYPE svg PUBLIC "-//W3C//DTD SVG 1.1//EN" "http://www.w3.org/Graphics/SVG/1.1/DTD/svg11.dtd"><svg version="1.1" id="Golden" xmlns="http://www.w3.org/2000/svg" xmlns:xlink="http://www.w3.org/1999/xlink" x="0px" y="0px" width="110px" height="110px" viewBox="0 0 110 110" enable-background="new 0 0 110 110" xml:space="preserve"><path fill="#EF8200" d="M74.596,62.066c3.42-0.483,6.684-1.617,8.718-3.651c4.093-4.094,4.093-10.731,0-14.824	c-2.795-2.794-6.763-3.633-10.31-2.613v-4.927c0-12.853-10.42-23.273-23.273-23.273s-23.273,10.42-23.273,23.273v5.526	c-3.591-1.103-7.647-0.281-10.488,2.56c-4.094,4.094-4.094,10.731,0,14.824C18.409,61.4,22.476,62.636,26.508,63	c0.5,18.844,15.895,33.975,34.859,33.975c19.28,0,34.91-15.63,34.91-34.91H74.596z M59.705,30.808c3.06,0,5.542,2.481,5.542,5.541	c0,0.236-0.041,0.461-0.069,0.69H54.233c-0.029-0.228-0.07-0.453-0.07-0.69C54.164,33.289,56.645,30.808,59.705,30.808z M39.757,30.808c3.06,0,5.541,2.481,5.541,5.541c0,0.236-0.041,0.461-0.07,0.69H34.285c-0.029-0.228-0.069-0.453-0.069-0.69	C34.215,33.289,36.696,30.808,39.757,30.808z M56.743,62.159c0,3.625-2.939,6.564-6.564,6.564c-3.625,0-6.564-2.939-6.564-6.564	v-8.354c0-3.625,2.939-6.564,6.564-6.564c3.625,0,6.564,2.939,6.564,6.564V62.159z"/></svg>