<?xml version="1.0" encoding="utf-8"?><!DOCTYPE svg PUBLIC "-//W3C//DTD SVG 1.1//EN" "http://www.w3.org/Graphics/SVG/1.1/DTD/svg11.dtd"><svg version="1.1" id="Locked" xmlns="http://www.w3.org/2000/svg" xmlns:xlink="http://www.w3.org/1999/xlink" x="0px" y="0px" width="110px" height="110px" viewBox="0 0 110 110" enable-background="new 0 0 110 110" xml:space="preserve"><polygon fill="#CCCCCC" points="82.112,90.179 13.221,90.179 26.081,61.335 94.972,61.335"/><path fill="#B5B5B5" d="M96.413,63.992c-1.229-4.409-4.881-7.795-9.43-8.655c3.768-4.041,6.091-9.447,6.091-15.408	c0-12.493-10.127-22.62-22.62-22.62c-12.493,0-22.62,10.127-22.62,22.62c0,1.328,0.137,2.621,0.357,3.887	c-3.219,0.769-5.765,3.189-6.751,6.318c-1.172-0.308-2.395-0.489-3.663-0.489c-7.944,0-14.384,6.44-14.384,14.384h10.475v0.038	h50.402v-0.076H96.413z"/></svg>