<?xml version="1.0" encoding="utf-8"?><!DOCTYPE svg PUBLIC "-//W3C//DTD SVG 1.1//EN" "http://www.w3.org/Graphics/SVG/1.1/DTD/svg11.dtd"><svg version="1.1" id="Golden" xmlns="http://www.w3.org/2000/svg" xmlns:xlink="http://www.w3.org/1999/xlink" x="0px" y="0px" width="110px" height="110px" viewBox="0 0 110 110" enable-background="new 0 0 110 110" xml:space="preserve"><path fill="#EF8200" d="M98.448,44.02H83.257v-1.514c0-12.77-8.823-23.453-20.698-26.359v-5.544c-2.633,0-4.954,1.282-6.41,3.245	c-1.281-1.399-3.101-2.295-5.149-2.295v4.279c-12.568,2.385-22.076,13.411-22.076,26.673v1.514H11.898	c0,8.849,6.356,16.181,14.746,17.761l0.518,5.386l4.529,9.729l15.096,6.038l24.489-2.013l16.102-11.07l-1.342-7.716l-0.24-0.879	C93.125,58.938,98.448,52.115,98.448,44.02z"/><path fill="#E26600" d="M47.245,35.533c0-2.744-2.224-4.968-4.968-4.968c-2.744,0-4.968,2.224-4.968,4.968"/><path fill="#E26600" d="M76.84,35.533c0-2.744-2.224-4.968-4.968-4.968s-4.968,2.224-4.968,4.968"/><rect x="50.67" y="35.318" transform="matrix(0.7071 -0.7071 0.7071 0.7071 -12.7128 52.4015)" fill="#FAA918" width="12.457" height="12.457"/><polygon fill="#F49308" points="65.706,41.546 56.741,44.142 48.09,41.546 56.898,50.355"/><path fill="#E26600" d="M88.39,58.402v9.878c0,17.937-14.541,32.478-32.478,32.478l0,0c-17.937,0-32.478-14.541-32.478-32.478	v-9.878l13.171,10.626l19.729-10.847l19.339,11.002L88.39,58.402z"/></svg>