<?xml version="1.0" encoding="utf-8"?><!DOCTYPE svg PUBLIC "-//W3C//DTD SVG 1.1//EN" "http://www.w3.org/Graphics/SVG/1.1/DTD/svg11.dtd"><svg version="1.1" id="Locked" xmlns="http://www.w3.org/2000/svg" xmlns:xlink="http://www.w3.org/1999/xlink" x="0px" y="0px" width="110px" height="110px" viewBox="0 0 110 110" enable-background="new 0 0 110 110" xml:space="preserve"><rect x="25.75" y="55.637" fill="#C1C1C1" width="50.73" height="39.975"/><path fill="#D8D8D8" d="M95.897,55.066c0,16.085-13.04,29.125-29.125,29.125s-29.125-13.04-29.125-29.125"/><rect x="16.518" y="18.517" fill="#D8D8D8" width="31.409" height="46.257"/><path fill="#C1C1C1" d="M32.565,27.655c0,1.025,1.406,1.856,3.141,1.856h5.025c1.735,0,3.141-0.831,3.141-1.856l0,0	c0-1.025-1.406-1.856-3.141-1.856h-5.025C33.971,25.799,32.565,26.63,32.565,27.655L32.565,27.655z"/><rect x="14.71" y="14.52" fill="#D8D8D8" width="35.026" height="6.567"/><path fill="#D8D8D8" d="M95.326,49.926c0,1.262-1.023,2.284-2.284,2.284H46.785c-1.262,0-2.284-1.023-2.284-2.284l0,0	c0-1.262,1.023-2.284,2.284-2.284h46.257C94.303,47.642,95.326,48.665,95.326,49.926L95.326,49.926z"/><rect x="55.065" y="72.198" fill="#D8D8D8" width="23.699" height="23.414"/></svg>