<?xml version="1.0" encoding="utf-8"?><!DOCTYPE svg PUBLIC "-//W3C//DTD SVG 1.1//EN" "http://www.w3.org/Graphics/SVG/1.1/DTD/svg11.dtd"><svg version="1.1" id="Locked" xmlns="http://www.w3.org/2000/svg" xmlns:xlink="http://www.w3.org/1999/xlink" x="0px" y="0px" width="110px" height="110px" viewBox="0 0 110 110" enable-background="new 0 0 110 110" xml:space="preserve"><g><path fill="#AFAFAF" d="M55,52.763c-1.685-1.231-4.049-0.864-5.28,0.821L39.37,67.746L25.005,57.248 c-1.685-1.231-4.049-0.864-5.28,0.821c-1.231,1.685-0.864,4.049,0.821,5.28l17.15,12.533c0.274,0.2,0.569,0.342,0.87,0.459 c1.617,0.801,3.621,0.358,4.722-1.149l12.533-17.15C57.053,56.358,56.685,53.994,55,52.763z"/><path fill="#AFAFAF" d="M62.758,71.451c-2.087,0-3.779,1.692-3.779,3.779v21.242c0,2.087,1.692,3.779,3.779,3.779 c2.087,0,3.779-1.692,3.779-3.779V75.23C66.537,73.143,64.845,71.451,62.758,71.451z"/><path fill="#AFAFAF" d="M89.548,48.895c-1.483-1.135-3.606-0.853-4.741,0.63l-3.322,5.017l-13.596-9.85 c-0.906-0.656-1.985-0.888-3.013-0.748c-0.276-0.318-0.597-0.605-0.985-0.824L45.406,32.659c-0.558-0.316-1.162-0.457-1.761-0.472 c-0.102-0.009-0.204-0.006-0.306-0.005c-0.041,0.002-0.083,0.001-0.124,0.005c-0.939,0.04-1.852,0.461-2.485,1.245 c-0.014,0.016-0.03,0.03-0.044,0.046c-0.005,0.006-0.011,0.01-0.015,0.016l-0.056,0.085c-0.129,0.16-0.255,0.323-0.359,0.507 c-0.019,0.033-0.027,0.069-0.045,0.102l-5.337,8.06c-1.135,1.483-0.853,3.605,0.63,4.74c1.483,1.135,3.605,0.853,4.74-0.63 l3.823-5.773l16.102,9.113c0.527,0.298,1.095,0.441,1.662,0.47c0.284,0.491,0.668,0.934,1.157,1.289l15.869,11.497 c0.937,0.679,2.061,0.911,3.12,0.739c0.917-0.077,1.8-0.514,2.403-1.303l0.054-0.082c0.084-0.096,0.178-0.18,0.255-0.286 c0.173-0.239,0.316-0.491,0.431-0.75l5.056-7.636C91.313,52.153,91.031,50.03,89.548,48.895z"/><path fill="#AFAFAF" d="M69.8,44.973l3.425-4.941c1.226,0.371,2.524,0.574,3.871,0.574c2.067,0,4.017-0.483,5.764-1.321 c-2.671-2.237-3.259-6.163-1.224-9.072l6.503,4.55c1.461-2.142,2.317-4.729,2.317-7.517c0-7.378-5.981-13.36-13.36-13.36 c-7.378,0-13.36,5.981-13.36,13.36c0,3.302,1.204,6.319,3.189,8.65l-3.317,4.785L69.8,44.973z"/></g><path fill="#D8D8D8" d="M78.092,100.889c0-3.026-2.453-5.479-5.479-5.479l-13.648-0.019v5.471c0,0.009-0.003,0.018-0.003,0.027	H78.092z"/><path fill="#BCBCBC" d="M54.33,77.263l16.142-23.974c2.818-4.015,1.847-9.554-2.168-12.372l0,0	c-4.015-2.818-9.554-1.847-12.372,2.168l-16.255,23.18"/><path fill="#D8D8D8" d="M10.667,70.577c2.489,1.721,5.902,1.098,7.622-1.391l7.777-11.216l-4.5-3.111	c-0.008-0.005-0.013-0.012-0.021-0.018L10.667,70.577z"/><rect x="39.92" y="64.014" transform="matrix(0.825 0.5651 -0.5651 0.825 48.3545 -17.1013)" fill="#D8D8D8" width="23.747" height="11.044"/><path fill="#70B700" d="M64.564,35.043"/><path fill="#A3A3A3" d="M64.495,22.418c-1.783,3.872-6.368,5.566-10.24,3.783c-3.872-1.783-5.566-6.368-3.783-10.24"/><path fill="#A3A3A3" d="M45.083,58.322l-6.205,9.06l8.735,5.983c-4.662-3.551-5.809-10.143-2.469-15.04	C45.143,58.325,45.094,58.322,45.083,58.322z"/><path fill="#A3A3A3" d="M69.14,24.846c2.039-2.545,5.687-3.006,8.31-1.136c-0.174-1.781,0.393-3.621,1.757-4.986	c1.908-1.908,4.743-2.288,7.046-1.187c0.298,0.281,0.568,0.59,0.84,0.896c-3.529-4.424-9.653-6.24-15.195-4.061	c-6.805,2.676-10.152,10.362-7.476,17.167l0.436-0.171L69.14,24.846z"/><path fill="#FFFFFF" d="M83.455,26.575L83.455,26.575c0.523-0.92,1.693-1.243,2.613-0.72l0,0c0.92,0.523,1.243,1.693,0.72,2.613l0,0"/></svg>