<?xml version="1.0" encoding="utf-8"?><!DOCTYPE svg PUBLIC "-//W3C//DTD SVG 1.1//EN" "http://www.w3.org/Graphics/SVG/1.1/DTD/svg11.dtd"><svg version="1.1" id="Unlocked" xmlns="http://www.w3.org/2000/svg" xmlns:xlink="http://www.w3.org/1999/xlink" x="0px" y="0px" width="110px" height="110px" viewBox="0 0 110 110" enable-background="new 0 0 110 110" xml:space="preserve"><polygon fill="#231F20" points="84.823,70.1 25.675,70.1 39.031,43.57 71.467,43.57"/><rect x="25.675" y="69.782" fill="#231F20" width="59.148" height="16.536"/><path fill="#231F20" d="M93.824,36.045l0.058-0.086l-3.159-2.142c-9.394-6.367-22.046-9.874-35.628-9.874	c-13.794,0-26.583,3.6-36.011,10.136l-3.136,2.174l0.051,0.073c-3.416,2.71-4.676,7.485-2.746,11.606l2.366,5.053l17.44-8.166	l-2.366-5.053c-0.457-0.977-1.087-1.808-1.794-2.546c2.343-1.139,4.859-2.117,7.516-2.924c1.221,5.018,5.721,8.767,11.109,8.767	h14.977c5.403,0,9.918-3.77,11.122-8.81c2.873,0.864,5.58,1.928,8.084,3.176c-0.719,0.744-1.358,1.586-1.821,2.576l-2.366,5.053	l17.44,8.166l2.366-5.053C99.391,43.763,97.796,38.619,93.824,36.045z M62.501,37.498H47.523c-2.802,0-5.143-1.967-5.741-4.59	c4.255-0.871,8.745-1.333,13.314-1.333c4.506,0,8.943,0.452,13.155,1.304C67.664,35.517,65.313,37.498,62.501,37.498z"/><rect x="44.198" y="75.665" fill="#544B4D" width="20.909" height="5.327"/><circle fill="#5E5E5E" cx="55.13" cy="52.832" r="18.842"/><circle fill="#B7B7B7" cx="55.13" cy="52.832" r="5.989"/><circle fill="#B7B7B7" cx="55.13" cy="40.212" r="3.161"/><circle fill="#B7B7B7" cx="55.13" cy="65.094" r="3.161"/><circle fill="#B7B7B7" cx="42.689" cy="52.653" r="3.161"/><circle fill="#B7B7B7" cx="67.57" cy="52.653" r="3.161"/><circle fill="#B7B7B7" cx="45.806" cy="43.329" r="3.161"/><circle fill="#B7B7B7" cx="64.453" cy="61.977" r="3.161"/><circle fill="#B7B7B7" cx="45.806" cy="61.977" r="3.161"/><circle fill="#B7B7B7" cx="64.453" cy="43.329" r="3.161"/><g><path fill="#231F20" d="M37.771,86.227H21.048c-4.675,0-8.48-3.804-8.48-8.48V41.003h1.886v36.744c0,3.637,2.957,6.596,6.594,6.596 h16.723V86.227z"/></g></svg>