<?xml version="1.0" encoding="utf-8"?><!DOCTYPE svg PUBLIC "-//W3C//DTD SVG 1.1//EN" "http://www.w3.org/Graphics/SVG/1.1/DTD/svg11.dtd"><svg version="1.1" id="Golden" xmlns="http://www.w3.org/2000/svg" xmlns:xlink="http://www.w3.org/1999/xlink" x="0px" y="0px" width="110px" height="110px" viewBox="0 0 110 110" enable-background="new 0 0 110 110" xml:space="preserve"><path fill="#E26600" d="M101.547,53.7H96.98c-0.996-8.873-8.537-15.797-17.672-15.797c-8.15,0-15.021,5.517-17.117,13.007	c-1.892-1.579-4.31-2.501-6.847-2.501c-2.54,0-4.914,0.882-6.785,2.427c-2.121-7.453-8.976-12.934-17.1-12.934	c-9.134,0-16.674,6.924-17.67,15.797h-3.8v4.601h3.894c1.268,8.575,8.654,15.183,17.576,15.183c9.809,0,17.791-7.98,17.791-17.789	c0-0.003,0-0.007,0-0.01c1.239-2.22,3.534-3.594,6.095-3.594c2.591,0,4.982,1.47,6.183,3.753c0.081,9.74,8.022,17.639,17.781,17.639	c8.922,0,16.31-6.608,17.578-15.183h4.661V53.7z M31.458,69.803c-7.78,0-14.108-6.328-14.108-14.108s6.328-14.11,14.108-14.11	s14.11,6.33,14.11,14.11S39.238,69.803,31.458,69.803z M79.308,69.803c-7.78,0-14.108-6.328-14.108-14.108s6.328-14.11,14.108-14.11	s14.11,6.33,14.11,14.11S87.088,69.803,79.308,69.803z"/></svg>