<?xml version="1.0" encoding="utf-8"?><!DOCTYPE svg PUBLIC "-//W3C//DTD SVG 1.1//EN" "http://www.w3.org/Graphics/SVG/1.1/DTD/svg11.dtd"><svg version="1.1" id="Unlocked" xmlns="http://www.w3.org/2000/svg" xmlns:xlink="http://www.w3.org/1999/xlink" x="0px" y="0px" width="110px" height="110px" viewBox="0 0 110 110" enable-background="new 0 0 110 110" xml:space="preserve"><path fill="#FFBB8D" d="M95.189,20.244H77.563H73.46c-0.475-2.678-2.801-4.716-5.616-4.716c-2.814,0-5.141,2.038-5.616,4.716H43.262	v29.37h7.198c0.158,0.015,0.31,0.048,0.471,0.048H77.61c2.736,0,4.954-2.218,4.954-4.954c0-2.203-1.447-4.048-3.436-4.692h0.892	c2.747,0,4.974-2.227,4.974-4.974c0-2.454-1.781-4.48-4.118-4.888h14.313c2.736,0,4.954-2.218,4.954-4.954	S97.925,20.244,95.189,20.244z"/><rect x="24.42" y="19.386" fill="#FFFFFF" width="19.986" height="31.156"/><path fill="#663819" d="M67.814,59.447h-7.198c-0.158-0.015-0.31-0.048-0.472-0.048H33.466c-2.736,0-4.954,2.218-4.954,4.955	c0,2.203,1.448,4.049,3.436,4.692h-0.892c-2.747,0-4.974,2.227-4.974,4.974c0,2.453,1.78,4.48,4.117,4.888H15.887	c-2.736,0-4.954,2.218-4.954,4.955c0,2.736,2.218,4.954,4.954,4.954h17.626h4.103c0.475,2.678,2.801,4.716,5.616,4.716	s5.141-2.038,5.616-4.716h18.966V59.447z"/><rect x="66.671" y="58.504" fill="#FFFFFF" width="17.134" height="31.156"/></svg>