<?xml version="1.0" encoding="utf-8"?><!DOCTYPE svg PUBLIC "-//W3C//DTD SVG 1.1//EN" "http://www.w3.org/Graphics/SVG/1.1/DTD/svg11.dtd"><svg version="1.1" id="Golden" xmlns="http://www.w3.org/2000/svg" xmlns:xlink="http://www.w3.org/1999/xlink" x="0px" y="0px" width="110px" height="110px" viewBox="0 0 110 110" enable-background="new 0 0 110 110" xml:space="preserve"><path fill="#D8D8D8" d="M88.021,88.129c-5.544,5.56-14.545,5.573-20.105,0.029L22.613,42.988c-5.56-5.544-5.573-14.545-0.029-20.105	l0,0c5.544-5.56,14.545-5.573,20.105-0.029l45.303,45.171C93.552,73.568,93.565,82.569,88.021,88.129L88.021,88.129z"/><rect x="41.205" y="40.391" transform="matrix(0.7081 0.7061 -0.7061 0.7081 55.4503 -22.7988)" fill="#E8AE82" width="28.196" height="30.566"/><path fill="#C18156" d="M41.782,32.489c-0.832,0.834-0.83,2.184,0.004,3.016l0,0c0.834,0.832,2.184,0.83,3.016-0.004l0,0	c0.832-0.834,0.83-2.184-0.004-3.016l0,0C43.963,31.653,42.613,31.655,41.782,32.489L41.782,32.489z"/><path fill="#C18156" d="M32.246,42.052c-0.832,0.834-0.83,2.184,0.004,3.016l0,0c0.834,0.832,2.184,0.83,3.016-0.004l0,0	c0.832-0.834,0.83-2.184-0.004-3.016l0,0C34.427,41.216,33.077,41.218,32.246,42.052L32.246,42.052z"/><path fill="#C18156" d="M29.211,28.988c-0.832,0.834-0.83,2.184,0.004,3.016l0,0c0.834,0.832,2.184,0.83,3.016-0.004l0,0	c0.832-0.834,0.83-2.184-0.004-3.016l0,0C31.392,28.152,30.042,28.154,29.211,28.988L29.211,28.988z"/><path fill="#BCBCBC" d="M67.481,77.185c0.832-0.834,0.83-2.184-0.004-3.016l0,0c-0.834-0.832-2.184-0.83-3.016,0.004l0,0	c-0.832,0.834-0.83,2.184,0.004,3.016l0,0C65.299,78.021,66.65,78.019,67.481,77.185L67.481,77.185z"/><path fill="#BCBCBC" d="M77.017,67.621c0.832-0.834,0.83-2.184-0.004-3.016l0,0c-0.834-0.832-2.184-0.83-3.016,0.004l0,0	c-0.832,0.834-0.83,2.184,0.004,3.016l0,0C74.835,68.457,76.186,68.455,77.017,67.621L77.017,67.621z"/><path fill="#BCBCBC" d="M80.052,80.685c0.832-0.834,0.83-2.184-0.004-3.016l0,0c-0.834-0.832-2.184-0.83-3.016,0.004l0,0	c-0.832,0.834-0.83,2.184,0.004,3.016l0,0C77.87,81.521,79.22,81.519,80.052,80.685L80.052,80.685z"/><path fill="#EF8200" d="M88.021,88.129c-5.544,5.56-14.545,5.573-20.105,0.029L22.613,42.988c-5.56-5.544-5.573-14.545-0.029-20.105	l0,0c5.544-5.56,14.545-5.573,20.105-0.029l45.303,45.171C93.552,73.568,93.565,82.569,88.021,88.129L88.021,88.129z"/><rect x="41.205" y="40.391" transform="matrix(0.7081 0.7061 -0.7061 0.7081 55.4503 -22.7988)" fill="#E8AE82" width="28.196" height="30.566"/><path fill="#D8D8D8" d="M87.926,22.787c5.56,5.544,5.573,14.545,0.029,20.105L42.785,88.195c-5.544,5.56-14.545,5.573-20.105,0.029	l0,0c-5.56-5.544-5.573-14.545-0.029-20.105l45.171-45.303C73.364,17.257,82.366,17.243,87.926,22.787L87.926,22.787z"/><path fill="#E26600" d="M41.782,32.489c-0.832,0.834-0.83,2.184,0.004,3.016l0,0c0.834,0.832,2.184,0.83,3.016-0.004l0,0	c0.832-0.834,0.83-2.184-0.004-3.016l0,0C43.963,31.653,42.613,31.655,41.782,32.489L41.782,32.489z"/><path fill="#C18156" d="M32.285,69.027c0.834,0.832,2.184,0.83,3.016-0.004l0,0c0.832-0.834,0.83-2.184-0.004-3.016l0,0	c-0.834-0.832-2.184-0.83-3.016,0.004l0,0C31.449,66.845,31.451,68.195,32.285,69.027L32.285,69.027z"/><path fill="#C18156" d="M41.849,78.563c0.834,0.832,2.184,0.83,3.016-0.004l0,0c0.832-0.834,0.83-2.184-0.004-3.016l0,0	c-0.834-0.832-2.184-0.83-3.016,0.004l0,0C41.013,76.381,41.015,77.731,41.849,78.563L41.849,78.563z"/><path fill="#C18156" d="M28.785,81.598c0.834,0.832,2.184,0.83,3.016-0.004l0,0c0.832-0.834,0.83-2.184-0.004-3.016l0,0	c-0.834-0.832-2.184-0.83-3.016,0.004l0,0C27.949,79.416,27.951,80.766,28.785,81.598L28.785,81.598z"/><path fill="#E26600" d="M32.246,42.052c-0.832,0.834-0.83,2.184,0.004,3.016l0,0c0.834,0.832,2.184,0.83,3.016-0.004l0,0	c0.832-0.834,0.83-2.184-0.004-3.016l0,0C34.427,41.216,33.077,41.218,32.246,42.052L32.246,42.052z"/><path fill="#E26600" d="M29.211,28.988c-0.832,0.834-0.83,2.184,0.004,3.016l0,0c0.834,0.832,2.184,0.83,3.016-0.004l0,0	c0.832-0.834,0.83-2.184-0.004-3.016l0,0C31.392,28.152,30.042,28.154,29.211,28.988L29.211,28.988z"/><path fill="#E26600" d="M67.481,77.185c0.832-0.834,0.83-2.184-0.004-3.016l0,0c-0.834-0.832-2.184-0.83-3.016,0.004l0,0	c-0.832,0.834-0.83,2.184,0.004,3.016l0,0C65.299,78.021,66.65,78.019,67.481,77.185L67.481,77.185z"/><path fill="#EF8200" d="M87.926,22.787c5.56,5.544,5.573,14.545,0.029,20.105L42.785,88.195c-5.544,5.56-14.545,5.573-20.105,0.029	l0,0c-5.56-5.544-5.573-14.545-0.029-20.105l45.171-45.303C73.364,17.257,82.366,17.243,87.926,22.787L87.926,22.787z"/><path fill="#E26600" d="M32.285,69.027c0.834,0.832,2.184,0.83,3.016-0.004l0,0c0.832-0.834,0.83-2.184-0.004-3.016l0,0	c-0.834-0.832-2.184-0.83-3.016,0.004l0,0C31.449,66.845,31.451,68.195,32.285,69.027L32.285,69.027z"/><path fill="#E26600" d="M41.849,78.563c0.834,0.832,2.184,0.83,3.016-0.004l0,0c0.832-0.834,0.83-2.184-0.004-3.016l0,0	c-0.834-0.832-2.184-0.83-3.016,0.004l0,0C41.013,76.381,41.015,77.731,41.849,78.563L41.849,78.563z"/><path fill="#E26600" d="M28.785,81.598c0.834,0.832,2.184,0.83,3.016-0.004l0,0c0.832-0.834,0.83-2.184-0.004-3.016l0,0	c-0.834-0.832-2.184-0.83-3.016,0.004l0,0C27.949,79.416,27.951,80.766,28.785,81.598L28.785,81.598z"/><path fill="#E26600" d="M76.982,43.327c-0.834-0.832-2.184-0.83-3.016,0.004l0,0c-0.832,0.834-0.83,2.184,0.004,3.016l0,0	c0.834,0.832,2.184,0.83,3.016-0.004l0,0C77.818,45.509,77.816,44.159,76.982,43.327L76.982,43.327z"/><path fill="#E26600" d="M67.418,33.791c-0.834-0.832-2.184-0.83-3.016,0.004l0,0c-0.832,0.834-0.83,2.184,0.004,3.016l0,0	c0.834,0.832,2.184,0.83,3.016-0.004l0,0C68.254,35.973,68.252,34.623,67.418,33.791L67.418,33.791z"/><path fill="#E26600" d="M80.482,30.756c-0.834-0.832-2.184-0.83-3.016,0.004l0,0c-0.832,0.834-0.83,2.184,0.004,3.016l0,0	c0.834,0.832,2.184,0.83,3.016-0.004l0,0C81.318,32.938,81.316,31.588,80.482,30.756L80.482,30.756z"/><path fill="#E26600" d="M77.017,67.621c0.832-0.834,0.83-2.184-0.004-3.016l0,0c-0.834-0.832-2.184-0.83-3.016,0.004l0,0	c-0.832,0.834-0.83,2.184,0.004,3.016l0,0C74.835,68.457,76.186,68.455,77.017,67.621L77.017,67.621z"/><path fill="#E26600" d="M80.052,80.685c0.832-0.834,0.83-2.184-0.004-3.016l0,0c-0.834-0.832-2.184-0.83-3.016,0.004l0,0	c-0.832,0.834-0.83,2.184,0.004,3.016l0,0C77.87,81.521,79.22,81.519,80.052,80.685L80.052,80.685z"/><rect x="41.445" y="41.437" transform="matrix(0.7061 -0.7081 0.7081 0.7061 -23.0318 55.6684)" fill="#E26600" width="28.196" height="28.283"/></svg>