<?xml version="1.0" encoding="utf-8"?><!DOCTYPE svg PUBLIC "-//W3C//DTD SVG 1.1//EN" "http://www.w3.org/Graphics/SVG/1.1/DTD/svg11.dtd"><svg version="1.1" id="Unlocked" xmlns="http://www.w3.org/2000/svg" xmlns:xlink="http://www.w3.org/1999/xlink" x="0px" y="0px" width="110px" height="110px" viewBox="0 0 110 110" enable-background="new 0 0 110 110" xml:space="preserve"><path fill="#FFFFFF" d="M96.089,81.299V77.51h-4.467v-3.864h-3.35V46.54h0.047c0.574,0,1.039-0.465,1.039-1.039	c0-0.326-0.159-0.605-0.394-0.795h5.176L54.583,23.29L15.026,44.706h6.611c-0.235,0.19-0.394,0.469-0.394,0.795	c0,0.574,0.465,1.039,1.039,1.039h0.101v27.106H18.66v3.864h-4.095v3.788h-3.877v3.837h89.48v-3.837H96.089z M80.353,46.54h0.101	v27.106h-12.47V46.54h0.093c0.574,0,1.039-0.465,1.039-1.039c0-0.326-0.159-0.605-0.394-0.795h10.986	c-0.235,0.19-0.394,0.469-0.394,0.795C79.314,46.075,79.779,46.54,80.353,46.54z M59.467,44.706	c-0.235,0.19-0.394,0.469-0.394,0.795c0,0.574,0.465,1.039,1.039,1.039h0.054v27.106H48.534V46.54h0.093	c0.574,0,1.039-0.465,1.039-1.039c0-0.326-0.159-0.605-0.394-0.795H59.467z M30.2,46.54h0.047c0.574,0,1.039-0.465,1.039-1.039	c0-0.326-0.159-0.605-0.394-0.795h9.125c-0.235,0.19-0.394,0.469-0.394,0.795c0,0.574,0.465,1.039,1.039,1.039h0.054v27.106H30.2	V46.54z"/><g><path opacity="0.3" fill="#7AC70C" d="M79.314,45.501c0,0.574,0.465,1.039,1.039,1.039h0.101v9.791h7.818V46.54h0.047 c0.574,0,1.039-0.465,1.039-1.039c0-0.303-0.146-0.559-0.355-0.747h-9.334C79.46,44.942,79.314,45.198,79.314,45.501z"/><path opacity="0.3" fill="#7AC70C" d="M30.2,56.331V46.54h0.047c0.574,0,1.039-0.465,1.039-1.039c0-0.303-0.146-0.559-0.355-0.747 h-9.334c-0.208,0.188-0.355,0.444-0.355,0.747c0,0.574,0.465,1.039,1.039,1.039h0.101v9.791H30.2z"/><path opacity="0.3" fill="#7AC70C" d="M67.984,56.331V46.54h0.093c0.574,0,1.039-0.465,1.039-1.039 c0-0.303-0.146-0.559-0.355-0.747h-9.334c-0.209,0.188-0.355,0.444-0.355,0.747c0,0.574,0.465,1.039,1.039,1.039h0.054v9.791 H67.984z"/><path opacity="0.3" fill="#7AC70C" d="M48.534,56.331V46.54h0.093c0.574,0,1.039-0.465,1.039-1.039 c0-0.303-0.146-0.559-0.355-0.747h-9.334c-0.208,0.188-0.355,0.444-0.355,0.747c0,0.574,0.465,1.039,1.039,1.039h0.054v9.791 H48.534z"/></g></svg>