<?xml version="1.0" encoding="utf-8"?><!DOCTYPE svg PUBLIC "-//W3C//DTD SVG 1.1//EN" "http://www.w3.org/Graphics/SVG/1.1/DTD/svg11.dtd"><svg version="1.1" id="Locked" xmlns="http://www.w3.org/2000/svg" xmlns:xlink="http://www.w3.org/1999/xlink" x="0px" y="0px" width="110px" height="110px" viewBox="0 0 110 110" enable-background="new 0 0 110 110" xml:space="preserve"><path fill="#A3A3A3" d="M44.455,27.458c-0.778-0.778-0.778-2.038,0-2.816l0,0c0.778-0.778,2.038-0.778,2.816,0l14.08,14.08	c0.778,0.778,0.778,2.038,0,2.816l0,0c-0.778,0.778-2.038,0.778-2.816,0L44.455,27.458z"/><path fill="#A3A3A3" d="M63.923,24.837c0.778-0.778,2.038-0.778,2.816,0l0,0c0.778,0.778,0.778,2.038,0,2.816l-14.08,14.08	c-0.778,0.778-2.038,0.778-2.816,0l0,0c-0.778-0.778-0.778-2.038,0-2.816L63.923,24.837z"/><circle fill="#A3A3A3" cx="55.588" cy="36.222" r="10.454"/><path fill="#BCBCBC" d="M35.714,55.602c0-10.906,8.841-19.747,19.747-19.747s19.747,8.841,19.747,19.747	S63.734,79.218,55.061,84.689C46.255,79.085,35.714,66.508,35.714,55.602z"/><path fill="#A3A3A3" d="M35.714,55.602c0,3.102,0.874,6.338,2.297,9.511h34.73c1.522-3.179,2.467-6.417,2.467-9.511	c0-2.605-0.517-5.086-1.433-7.363H37.148C36.232,50.516,35.714,52.997,35.714,55.602z"/><path fill="#FFFFFF" d="M39.049,70.278c-7.193,7.193-18.855,7.193-26.048,0S5.807,51.423,13,44.23s23.144-8.008,32.472-5.896	C47.585,47.838,46.242,63.085,39.049,70.278z"/><path fill="#FFFFFF" d="M72.22,70.278c7.193,7.193,18.855,7.193,26.048,0s7.193-18.855,0-26.048s-23.144-8.008-32.472-5.896	C63.684,47.838,65.027,63.085,72.22,70.278z"/></svg>