<?xml version="1.0" encoding="utf-8"?><!DOCTYPE svg PUBLIC "-//W3C//DTD SVG 1.1//EN" "http://www.w3.org/Graphics/SVG/1.1/DTD/svg11.dtd"><svg version="1.1" id="Golden" xmlns="http://www.w3.org/2000/svg" xmlns:xlink="http://www.w3.org/1999/xlink" x="0px" y="0px" width="110px" height="110px" viewBox="0 0 110 110" enable-background="new 0 0 110 110" xml:space="preserve"><rect x="25.803" y="32.467" fill="#EF8200" width="62.137" height="4.691"/><rect x="25.803" y="50.053" fill="#EF8200" width="62.137" height="5.859"/><rect x="25.803" y="67.638" fill="#EF8200" width="62.137" height="5.861"/><path fill="#EF8200" d="M99.932,84.051h-4.957V22.875c0-2.474-2.218-4.477-4.691-4.477s-4.688,2.003-4.688,4.477v61.176H26.975	V22.875c0-2.474-1.63-4.477-4.103-4.477s-4.104,2.003-4.104,4.477v61.176h-5.311c-2.395,0-4.337,1.709-4.337,4.101	c0,2.395,1.942,4.106,4.337,4.106h86.474c2.395,0,4.338-1.711,4.338-4.106C104.27,85.76,102.327,84.051,99.932,84.051z"/><path fill="#E26600" d="M36.355,38.354c0,1.929-1.563,3.492-3.491,3.492h-0.053c-1.927,0-3.491-1.563-3.491-3.492v-5.915	c0-1.927,1.564-3.492,3.491-3.492h0.053c1.928,0,3.491,1.565,3.491,3.492V38.354z"/><path fill="#E26600" d="M45.734,38.354c0,1.929-1.563,3.492-3.489,3.492h-0.053c-1.928,0-3.491-1.563-3.491-3.492v-5.915	c0-1.927,1.563-3.492,3.491-3.492h0.053c1.927,0,3.489,1.565,3.489,3.492V38.354z"/><path fill="#E26600" d="M83.25,38.354c0,1.929-1.563,3.492-3.489,3.492h-0.053c-1.928,0-3.491-1.563-3.491-3.492v-5.915	c0-1.927,1.563-3.492,3.491-3.492h0.053c1.927,0,3.489,1.565,3.489,3.492V38.354z"/><path fill="#E26600" d="M55.112,38.354c0,1.929-1.562,3.492-3.489,3.492H51.57c-1.928,0-3.492-1.563-3.492-3.492v-5.915	c0-1.927,1.564-3.492,3.492-3.492h0.053c1.928,0,3.489,1.565,3.489,3.492V38.354z"/><path fill="#E26600" d="M83.25,55.943c0,1.927-1.563,3.487-3.489,3.487h-0.053c-1.928,0-3.491-1.561-3.491-3.487v-5.919	c0-1.924,1.563-3.489,3.491-3.489h0.053c1.927,0,3.489,1.565,3.489,3.489V55.943z"/><path fill="#E26600" d="M36.355,55.943c0,1.927-1.563,3.487-3.491,3.487h-0.053c-1.927,0-3.491-1.561-3.491-3.487v-5.919	c0-1.924,1.564-3.489,3.491-3.489h0.053c1.928,0,3.491,1.565,3.491,3.489V55.943z"/><path fill="#E26600" d="M45.734,55.943c0,1.927-1.563,3.487-3.489,3.487h-0.053c-1.928,0-3.491-1.561-3.491-3.487v-5.919	c0-1.924,1.563-3.489,3.491-3.489h0.053c1.927,0,3.489,1.565,3.489,3.489V55.943z"/><path fill="#E26600" d="M73.871,55.943c0,1.927-1.563,3.487-3.489,3.487h-0.053c-1.928,0-3.492-1.561-3.492-3.487v-5.919	c0-1.924,1.564-3.489,3.492-3.489h0.053c1.927,0,3.489,1.565,3.489,3.489V55.943z"/><path fill="#E26600" d="M83.25,73.527c0,1.927-1.563,3.492-3.489,3.492h-0.053c-1.928,0-3.491-1.565-3.491-3.492V67.61	c0-1.927,1.563-3.49,3.491-3.49h0.053c1.927,0,3.489,1.563,3.489,3.49V73.527z"/><path fill="#E26600" d="M73.871,73.527c0,1.927-1.563,3.492-3.489,3.492h-0.053c-1.928,0-3.492-1.565-3.492-3.492V67.61	c0-1.927,1.564-3.49,3.492-3.49h0.053c1.927,0,3.489,1.563,3.489,3.49V73.527z"/><path fill="#E26600" d="M64.492,73.527c0,1.927-1.563,3.492-3.491,3.492h-0.053c-1.927,0-3.489-1.565-3.489-3.492V67.61	c0-1.927,1.563-3.49,3.489-3.49h0.053c1.928,0,3.491,1.563,3.491,3.49V73.527z"/><path fill="#E26600" d="M55.112,73.527c0,1.927-1.562,3.492-3.489,3.492H51.57c-1.928,0-3.492-1.565-3.492-3.492V67.61	c0-1.927,1.564-3.49,3.492-3.49h0.053c1.928,0,3.489,1.563,3.489,3.49V73.527z"/></svg>