<?xml version="1.0" encoding="utf-8"?><!DOCTYPE svg PUBLIC "-//W3C//DTD SVG 1.1//EN" "http://www.w3.org/Graphics/SVG/1.1/DTD/svg11.dtd"><svg version="1.1" id="Unlocked" xmlns="http://www.w3.org/2000/svg" xmlns:xlink="http://www.w3.org/1999/xlink" x="0px" y="0px" width="110px" height="110px" viewBox="0 0 110 110" enable-background="new 0 0 110 110" xml:space="preserve"><path fill="#D33131" d="M38.292,59.174c-12.078,0-21.869,9.791-21.869,21.869h21.869V59.174z"/><path fill="#FFB103" d="M67.498,71.81V87.11c0,6.652-9.114,12.736-12.044,13.997l0,0c-3.296-1.79-12.034-7.303-12.044-13.997	l0-15.299"/><path fill="#FFE000" d="M61.437,76.706v7.6c0,3.304-4.528,6.327-5.983,6.953l0,0c-1.637-0.889-5.978-3.628-5.983-6.953l0-7.6"/><path fill="#D33131" d="M72.32,59.225c12.078,0,21.869,9.791,21.869,21.869H72.32V59.225z"/><path fill="#FFFFFF" d="M32.959,81.094V37.796c0-12.367,16.945-23.678,22.392-26.023v0c6.127,3.328,22.373,13.578,22.392,26.023	l0,43.298"/><circle fill="#CBE9F4" cx="55.536" cy="41.071" r="8.738"/><path fill="#D33131" d="M40.777,22.364h29.068c-5.039-5.027-11.212-8.808-14.494-10.591C52.376,13.055,45.978,17.022,40.777,22.364z"/><rect x="53.546" y="60.979" fill="#D33131" width="4.023" height="20.219"/></svg>