<?xml version="1.0" encoding="utf-8"?><!DOCTYPE svg PUBLIC "-//W3C//DTD SVG 1.1//EN" "http://www.w3.org/Graphics/SVG/1.1/DTD/svg11.dtd"><svg version="1.1" id="Locked" xmlns="http://www.w3.org/2000/svg" xmlns:xlink="http://www.w3.org/1999/xlink" x="0px" y="0px" width="110px" height="110px" viewBox="0 0 110 110" enable-background="new 0 0 110 110" xml:space="preserve"><g><path fill="#D6D6D6" d="M55.744,14.256v-0.01c-0.017,0-0.029,0-0.038,0c-0.052,0-0.102,0.006-0.154,0.006 c-0.05,0-0.098-0.006-0.15-0.006c-0.013,0-0.025,0-0.039,0v0.01c-15.548,0.183-28.101,12.838-28.101,28.43 c0,3.446,0.617,6.901,1.858,10.112c1.202,3.118,2.971,5.929,5.106,8.482c2.096,2.506,4.291,4.958,5.929,7.799 c1.577,2.735,2.416,5.262,2.716,8.587h25.364c0.3-3.325,1.144-5.852,2.716-8.587c1.637-2.841,3.833-5.293,5.929-7.799 c2.139-2.554,3.908-5.364,5.11-8.482c1.239-3.21,1.856-6.666,1.856-10.112C83.845,27.094,71.29,14.439,55.744,14.256z"/></g><circle fill="#F0F0F0" cx="42.328" cy="31.836" r="5.333"/><path fill="#C9C9C9" d="M70.947,78.761c0,1.439-1.167,2.606-2.606,2.606h-25.54c-1.439,0-2.606-1.167-2.606-2.606l0,0	c0-1.439,1.167-2.606,2.606-2.606h25.54C69.781,76.155,70.947,77.322,70.947,78.761L70.947,78.761z"/><path fill="#C9C9C9" d="M68.459,85.872c0,1.439-1.167,2.606-2.606,2.606H44.579c-1.439,0-2.606-1.167-2.606-2.606l0,0	c0-1.439,1.167-2.606,2.606-2.606h21.274C67.292,83.266,68.459,84.432,68.459,85.872L68.459,85.872z"/><path fill="#C9C9C9" d="M46.526,90.496c1.37,3.628,4.848,6.222,8.956,6.222c4.108,0,7.586-2.593,8.956-6.222H46.526z"/></svg>