<?xml version="1.0" encoding="utf-8"?><!DOCTYPE svg PUBLIC "-//W3C//DTD SVG 1.1//EN" "http://www.w3.org/Graphics/SVG/1.1/DTD/svg11.dtd"><svg version="1.1" id="Unlocked" xmlns="http://www.w3.org/2000/svg" xmlns:xlink="http://www.w3.org/1999/xlink" x="0px" y="0px" width="110px" height="110px" viewBox="0 0 110 110" enable-background="new 0 0 110 110" xml:space="preserve"><rect x="29.749" y="38.932" fill="#FFFFFF" width="53.717" height="44.924"/><path fill="#E3EDD1" d="M40.523,60.355c-1.851,0-3.351,1.5-3.351,3.351v20.15h6.701v-20.15	C43.873,61.855,42.373,60.355,40.523,60.355z"/><path fill="#E3EDD1" d="M56.607,60.355c-1.85,0-3.351,1.5-3.351,3.351v20.15h6.701v-20.15	C59.957,61.855,58.458,60.355,56.607,60.355z"/><rect x="23.354" y="37.973" fill="#E3EDD1" width="68.105" height="17.046"/><path fill="#E3EDD1" d="M72.692,60.355c-1.851,0-3.351,1.5-3.351,3.351v20.15h6.701v-20.15	C76.042,61.855,74.542,60.355,72.692,60.355z"/><path fill="#FFFFFF" d="M88.102,27.126v-0.024H23.993v0.016C15.931,27.29,9.445,33.867,9.445,41.97	c0,8.211,6.657,14.868,14.868,14.868c7.941,0,14.409-6.231,14.828-14.069h33.654c0.418,7.837,6.886,14.069,14.828,14.069	c8.211,0,14.868-6.657,14.868-14.868C102.49,33.921,96.089,27.382,88.102,27.126z"/></svg>