<?xml version="1.0" encoding="utf-8"?><!DOCTYPE svg PUBLIC "-//W3C//DTD SVG 1.1//EN" "http://www.w3.org/Graphics/SVG/1.1/DTD/svg11.dtd"><svg version="1.1" id="Golden" xmlns="http://www.w3.org/2000/svg" xmlns:xlink="http://www.w3.org/1999/xlink" x="0px" y="0px" width="110px" height="110px" viewBox="0 0 110 110" enable-background="new 0 0 110 110" xml:space="preserve"><g><path fill="#EF8200" d="M56.394,15.306v-0.01c-0.017,0-0.029,0-0.038,0c-0.052,0-0.102,0.006-0.154,0.006 c-0.05,0-0.098-0.006-0.15-0.006c-0.013,0-0.025,0-0.039,0v0.01C40.48,15.489,27.94,28.132,27.94,43.708 c0,3.442,0.616,6.895,1.856,10.101c1.201,3.115,2.968,5.923,5.101,8.474c2.093,2.503,4.287,4.953,5.923,7.792 c1.575,2.732,2.414,5.257,2.714,8.578h25.339c0.3-3.321,1.143-5.846,2.714-8.578c1.636-2.839,3.829-5.288,5.923-7.792 c2.137-2.551,3.904-5.359,5.105-8.474c1.238-3.207,1.854-6.659,1.854-10.101C84.467,28.132,71.925,15.489,56.394,15.306z"/></g><circle fill="#FAA918" cx="42.992" cy="32.87" r="5.327"/><path fill="#E26600" d="M71.583,79.748c0,1.438-1.166,2.604-2.604,2.604H43.465c-1.438,0-2.604-1.166-2.604-2.604l0,0	c0-1.438,1.166-2.604,2.604-2.604h25.515C70.417,77.145,71.583,78.31,71.583,79.748L71.583,79.748z"/><path fill="#E26600" d="M69.097,86.851c0,1.438-1.166,2.604-2.604,2.604H45.241c-1.438,0-2.604-1.166-2.604-2.604l0,0	c0-1.438,1.166-2.604,2.604-2.604h21.253C67.931,84.248,69.097,85.413,69.097,86.851L69.097,86.851z"/><path fill="#E26600" d="M47.186,91.471c1.369,3.625,4.843,6.215,8.947,6.215c4.104,0,7.579-2.59,8.947-6.215H47.186z"/></svg>