<?xml version="1.0" encoding="utf-8"?><!DOCTYPE svg PUBLIC "-//W3C//DTD SVG 1.1//EN" "http://www.w3.org/Graphics/SVG/1.1/DTD/svg11.dtd"><svg version="1.1" id="Locked" xmlns="http://www.w3.org/2000/svg" xmlns:xlink="http://www.w3.org/1999/xlink" x="0px" y="0px" width="110.042px" height="110.042px" viewBox="0 0 110.042 110.042" enable-background="new 0 0 110.042 110.042" xml:space="preserve"><path fill="#A3A3A3" d="M65.524,20.031H46.211c-16.328,0-29.687,13.359-29.687,29.687v0c0,16.328,13.359,29.687,29.687,29.687	h19.313c16.328,0,29.687-13.359,29.687-29.687v0C95.211,33.39,81.852,20.031,65.524,20.031z"/><rect x="44.603" y="79.405" fill="#C4C4C4" width="23.039" height="6.486"/><rect x="44.358" y="13.093" fill="#C4C4C4" width="23.019" height="6.939"/><path fill="#C4C4C4" d="M48.393,98.472h-0.082c-0.562,0-1.021-0.459-1.021-1.021v-9.263c0-0.562,0.459-1.021,1.021-1.021h0.082	c0.562,0,1.021,0.459,1.021,1.021v9.263C49.414,98.012,48.955,98.472,48.393,98.472z"/><path fill="#C4C4C4" d="M55.909,98.472h-0.082c-0.562,0-1.021-0.459-1.021-1.021v-9.263c0-0.562,0.459-1.021,1.021-1.021h0.082	c0.562,0,1.021,0.459,1.021,1.021v9.263C56.929,98.012,56.47,98.472,55.909,98.472z"/><path fill="#C4C4C4" d="M52.235,98.472h-0.082c-0.562,0-1.021-0.459-1.021-1.021v-9.263c0-0.562,0.459-1.021,1.021-1.021h0.082	c0.562,0,1.021,0.459,1.021,1.021v9.263C53.256,98.012,52.797,98.472,52.235,98.472z"/><path fill="#C4C4C4" d="M59.811,98.472H59.73c-0.562,0-1.021-0.459-1.021-1.021v-9.263c0-0.562,0.459-1.021,1.021-1.021h0.082	c0.562,0,1.021,0.459,1.021,1.021v9.263C60.832,98.012,60.373,98.472,59.811,98.472z"/><path fill="#C4C4C4" d="M64.005,98.472h-0.082c-0.562,0-1.021-0.459-1.021-1.021v-9.263c0-0.562,0.459-1.021,1.021-1.021h0.082	c0.562,0,1.021,0.459,1.021,1.021v9.263C65.026,98.012,64.566,98.472,64.005,98.472z"/><g><path fill="#C4C4C4" d="M56.182,82.796c-15.581,0-28.256-14.842-28.256-33.086s12.676-33.085,28.256-33.085 S84.438,31.466,84.438,49.71S71.762,82.796,56.182,82.796z M56.182,19.066c-14.234,0-25.815,13.747-25.815,30.643 c0,16.898,11.581,30.644,25.815,30.644S81.997,66.607,81.997,49.71C81.997,32.813,70.416,19.066,56.182,19.066z"/></g><rect x="48.352" y="13.093" fill="#E8E8E8" width="5.896" height="6.939"/><rect x="48.352" y="79.501" fill="#E8E8E8" width="5.896" height="6.367"/></svg>