<?xml version="1.0" encoding="utf-8"?><!DOCTYPE svg PUBLIC "-//W3C//DTD SVG 1.1//EN" "http://www.w3.org/Graphics/SVG/1.1/DTD/svg11.dtd"><svg version="1.1" id="Golden" xmlns="http://www.w3.org/2000/svg" xmlns:xlink="http://www.w3.org/1999/xlink" x="0px" y="0px" width="110px" height="110px" viewBox="0 0 110 110" enable-background="new 0 0 110 110" xml:space="preserve"><path fill="#E26600" d="M74.132,86.483c-0.739,0.175-1.425,0.621-1.883,1.492c-0.317,0.603-0.528,1.223-0.709,1.847	c-0.032,0.036-0.063,0.072-0.093,0.11c-0.515,0.186,6.266,2.912,5.882,3.327c-1.927,0.051-1.397-0.846-0.615,1.501	c0.024,0.073,0.048,0.145,0.072,0.218H18.612c0.002-0.009-0.002-0.017,0-0.026c-0.087,0.002-0.168,0.026-0.255,0.026	c-5.343,0-9.676-4.332-9.676-9.676v-2.97c-0.011,0-0.022-0.002-0.033-0.002v-4.554h68.268v6.843	C75.776,84.634,74.658,85.202,74.132,86.483z"/><path fill="#EF8200" d="M65.956,77.777v7.526c0,5.344,4.332,9.676,9.676,9.676l0,0c5.344,0,9.676-4.332,9.676-9.676v-7.526"/><path fill="#EF8200" d="M85.341,29.969v-0.101l0,0v47.909H26.345V27.825c0.023-0.002,0.044-0.012,0.067-0.014v-2.497	c0.011,0,0.022-0.002,0.033-0.002v-2.97c0-5.344,4.332-9.676,9.676-9.676c0.087,0,0.169,0.023,0.255,0.026	c-0.002-0.009,0.002-0.017,0-0.026h48.547c-0.007,0.022-0.015,0.045-0.022,0.067h0.439v0.033h9.724l-2.408,0.005	c5.322,0.026,9.628,4.344,9.628,9.671v7.526H85.341z"/><path fill="#E26600" d="M85.434,12.767h7.223l0,0.005c5.322,0.026,9.628,4.344,9.628,9.671v7.526H85.341"/><polygon fill="#E26600" points="77.069,72.154 69.891,62.024 70.051,61.797 69.407,61.34 67.096,58.078 65.949,58.891 64.803,58.078 62.491,61.34 61.847,61.797 62.007,62.024 54.829,72.154 62.783,72.056 65.949,67.587 69.115,72.056"/><path fill="#EF8200" d="M85.48,18.658c0-3.25,2.609-5.881,5.846-5.936h-9.227L85.48,18.658z"/><circle fill="#E26600" cx="65.99" cy="56.826" r="9.57"/><path fill="#E26600" d="M75.626,28.121c0,0.831-0.674,1.504-1.504,1.504H35.307c-0.831,0-1.504-0.674-1.504-1.504l0,0	c0-0.831,0.674-1.504,1.504-1.504h38.815C74.953,26.617,75.626,27.291,75.626,28.121L75.626,28.121z"/><path fill="#E26600" d="M68.405,40.157c0,0.831-0.674,1.504-1.504,1.504H35.307c-0.831,0-1.504-0.674-1.504-1.504l0,0	c0-0.831,0.674-1.504,1.504-1.504H66.9C67.731,38.653,68.405,39.326,68.405,40.157L68.405,40.157z"/><path fill="#E26600" d="M46.741,52.193c0,0.831-0.674,1.504-1.504,1.504h-9.929c-0.831,0-1.504-0.674-1.504-1.504l0,0	c0-0.831,0.674-1.504,1.504-1.504h9.929C46.067,50.688,46.741,51.362,46.741,52.193L46.741,52.193z"/></svg>