<?xml version="1.0" encoding="utf-8"?><!DOCTYPE svg PUBLIC "-//W3C//DTD SVG 1.1//EN" "http://www.w3.org/Graphics/SVG/1.1/DTD/svg11.dtd"><svg version="1.1" id="Unlocked" xmlns="http://www.w3.org/2000/svg" xmlns:xlink="http://www.w3.org/1999/xlink" x="0px" y="0px" width="110px" height="110px" viewBox="0 0 110 110" enable-background="new 0 0 110 110" xml:space="preserve"><path fill="#FFD3A4" d="M34.643,41.425c0-11.761,9.534-21.295,21.295-21.295s21.295,9.534,21.295,21.295"/><rect x="34.8" y="44.371" fill="#CBE9F4" width="41.249" height="53.034"/><path fill="#FFFFFF" d="M49.164,84.719c0,1.729-1.402,3.13-3.13,3.13l0,0c-1.729,0-3.13-1.402-3.13-3.13v-34.27	c0-1.729,1.402-3.13,3.13-3.13l0,0c1.729,0,3.13,1.402,3.13,3.13V84.719z"/><circle fill="#FFD3A4" cx="55.938" cy="16.696" r="4.734"/><rect x="30.013" y="40.32" fill="#4949DB" width="51.192" height="9.207"/><rect x="39.22" y="69.783" fill="#FFFFFF" width="32.041" height="23.202"/></svg>