<?xml version="1.0" encoding="utf-8"?><!DOCTYPE svg PUBLIC "-//W3C//DTD SVG 1.1//EN" "http://www.w3.org/Graphics/SVG/1.1/DTD/svg11.dtd"><svg version="1.1" id="Locked" xmlns="http://www.w3.org/2000/svg" xmlns:xlink="http://www.w3.org/1999/xlink" x="0px" y="0px" width="110px" height="110px" viewBox="0 0 110 110" enable-background="new 0 0 110 110" xml:space="preserve"><rect x="33.61" y="39.701" transform="matrix(0.7071 -0.7071 0.7071 0.7071 -22.7668 59.581)" fill="#A3A3A3" width="53.855" height="35.143"/><path fill="#BCBCBC" d="M84.58,64.211L64.087,43.718c-0.274-0.274-0.574-0.503-0.881-0.719l-3.533-3.533	c0.372-0.897,0.582-1.879,0.582-2.911c0-4.201-3.406-7.607-7.607-7.607c-1.032,0-2.014,0.21-2.911,0.582l-3.804-3.804L18.422,53.238	l17.911,17.911l20.493,20.493c2.584,2.584,6.774,2.584,9.359,0c2.283-2.283,2.542-5.814,0.792-8.389	c2.589,1.892,6.23,1.691,8.567-0.647c2.183-2.183,2.499-5.502,0.995-8.041c2.539,1.504,5.858,1.188,8.041-0.995	C87.164,70.986,87.164,66.795,84.58,64.211z"/><path fill="#A3A3A3" d="M39.775,61.791c2.406,2.406,2.406,6.307,0,8.713l-3.227,3.227c-2.406,2.406-6.307,2.406-8.713,0l0,0	c-2.406-2.406-2.406-6.307,0-8.713l3.227-3.227C33.468,59.384,37.369,59.384,39.775,61.791L39.775,61.791z"/><path fill="#A3A3A3" d="M66.884,34.682c2.406,2.406,2.406,6.307,0,8.713l-3.227,3.227c-2.406,2.406-6.307,2.406-8.713,0l0,0	c-2.406-2.406-2.406-6.307,0-8.713l3.227-3.227C60.577,32.276,64.478,32.276,66.884,34.682L66.884,34.682z"/><path fill="#A3A3A3" d="M48.112,70.128c2.406,2.406,2.406,6.307,0,8.713l-3.227,3.227c-2.406,2.406-6.307,2.406-8.713,0l0,0	c-2.406-2.406-2.406-6.307,0-8.713l3.227-3.227C41.805,67.721,45.706,67.721,48.112,70.128L48.112,70.128z"/><path fill="#A3A3A3" d="M56.288,78.303c2.406,2.406,2.406,6.307,0,8.713l-3.227,3.227c-2.406,2.406-6.307,2.406-8.713,0l0,0	c-2.406-2.406-2.406-6.307,0-8.713l3.227-3.227C49.981,75.897,53.882,75.897,56.288,78.303L56.288,78.303z"/><rect x="6.573" y="28.284" transform="matrix(0.7071 -0.7071 0.7071 0.7071 -16.6476 29.7654)" fill="#D8D8D8" width="42.067" height="13.388"/><rect x="64.861" y="27.121" transform="matrix(0.7071 0.7071 -0.7071 0.7071 48.5653 -49.6183)" fill="#D8D8D8" width="38.633" height="13.388"/><circle fill="#A0A0A0" cx="94.029" cy="43.705" r="2.434"/><circle fill="#A0A0A0" cx="18.723" cy="43.857" r="2.434"/></svg>