<?xml version="1.0" encoding="utf-8"?><!DOCTYPE svg PUBLIC "-//W3C//DTD SVG 1.1//EN" "http://www.w3.org/Graphics/SVG/1.1/DTD/svg11.dtd"><svg version="1.1" id="Golden" xmlns="http://www.w3.org/2000/svg" xmlns:xlink="http://www.w3.org/1999/xlink" x="0px" y="0px" width="110px" height="110px" viewBox="0 0 110 110" enable-background="new 0 0 110 110" xml:space="preserve"><rect x="29.438" y="38.507" fill="#EF8200" width="53.85" height="45.036"/><path fill="#E26600" d="M40.239,59.983c-1.856,0-3.359,1.504-3.359,3.359v20.2h6.718v-20.2	C43.598,61.487,42.093,59.983,40.239,59.983z"/><path fill="#E26600" d="M56.363,59.983c-1.855,0-3.359,1.504-3.359,3.359v20.2h6.718v-20.2	C59.722,61.487,58.218,59.983,56.363,59.983z"/><rect x="23.027" y="37.545" fill="#E26600" width="68.275" height="17.089"/><path fill="#E26600" d="M72.488,59.983c-1.856,0-3.359,1.504-3.359,3.359v20.2h6.718v-20.2	C75.847,61.487,74.342,59.983,72.488,59.983z"/><path fill="#EF8200" d="M87.936,26.671v-0.024H23.668v0.016c-8.082,0.172-14.584,6.765-14.584,14.889	c0,8.232,6.673,14.905,14.905,14.905c7.961,0,14.445-6.247,14.865-14.104h33.737c0.419,7.857,6.903,14.104,14.865,14.104	c8.231,0,14.905-6.673,14.905-14.905C102.361,33.482,95.943,26.927,87.936,26.671z"/></svg>