<?xml version="1.0" encoding="utf-8"?><!DOCTYPE svg PUBLIC "-//W3C//DTD SVG 1.1//EN" "http://www.w3.org/Graphics/SVG/1.1/DTD/svg11.dtd"><svg version="1.1" id="Unlocked" xmlns="http://www.w3.org/2000/svg" xmlns:xlink="http://www.w3.org/1999/xlink" x="0px" y="0px" width="110px" height="110px" viewBox="0 0 110 110" enable-background="new 0 0 110 110" xml:space="preserve"><g><path fill="#FF9797" d="M55.355,93.941c-0.382,0-0.768-0.069-1.14-0.209c-0.339-0.128-0.646-0.307-0.914-0.531 C33.749,77.939,24.423,69.673,18.894,62.716c-6.207-7.812-7.454-13.982-7.471-21.959c-0.005-0.079-0.007-0.155-0.007-0.234 c0-13.395,10.897-24.293,24.292-24.293c7.836,0,15.142,3.863,19.654,10.033c4.512-6.17,11.821-10.033,19.655-10.033 c13.395,0,24.295,10.898,24.295,24.293c0,0.076-0.002,0.152-0.009,0.231c-0.016,7.974-1.265,14.147-7.479,21.961 c-5.528,6.959-14.866,15.228-34.436,30.505c-0.238,0.194-0.508,0.356-0.799,0.477C56.199,93.858,55.779,93.941,55.355,93.941z"/></g><path fill="#D66161" d="M31.09,44.679c0-3.822,3.098-6.92,6.92-6.92s6.92,3.098,6.92,6.92"/><path fill="#D66161" d="M66.319,44.679c0-3.822,3.098-6.92,6.92-6.92s6.92,3.098,6.92,6.92"/><path fill="#C44545" d="M71.98,56.002c0,8.686-7.041,15.727-15.727,15.727s-15.727-7.041-15.727-15.727"/><path fill="#F76161" d="M66.802,67.643c-2.789-2.535-6.482-4.091-10.549-4.091s-7.76,1.556-10.549,4.091	c2.791,2.531,6.484,4.087,10.549,4.087S64.011,70.174,66.802,67.643z"/></svg>