<?xml version="1.0" encoding="utf-8"?><!DOCTYPE svg PUBLIC "-//W3C//DTD SVG 1.1//EN" "http://www.w3.org/Graphics/SVG/1.1/DTD/svg11.dtd"><svg version="1.1" id="Locked" xmlns="http://www.w3.org/2000/svg" xmlns:xlink="http://www.w3.org/1999/xlink" x="0px" y="0px" width="110px" height="110px" viewBox="0 0 110 110" enable-background="new 0 0 110 110" xml:space="preserve"><rect x="72.902" y="56.612" fill="#D8D8D8" width="14.623" height="5.055"/><path fill="#BCBCBC" d="M89.24,90.163V71.608h-1.014c-7.666,0-13.88-6.214-13.88-13.88H89.24v-5.991h7.853V48.2	c0-16.292-13.208-29.5-29.5-29.5c-16.292,0-29.5,13.208-29.5,29.5v41.467"/><rect x="46.905" y="56.612" fill="#EDEDED" width="14.623" height="5.055"/><path fill="#D8D8D8" d="M63.243,90.163V71.608h-1.014c-7.666,0-13.88-6.214-13.88-13.88h14.894v-5.991h7.853V48.2	c0-16.292-13.208-29.5-29.5-29.5c-16.292,0-29.5,13.208-29.5,29.5v41.467"/><path fill="#A3A3A3" d="M48.891,44.516c0-2.991,2.425-5.416,5.416-5.416s5.416,2.425,5.416,5.416"/><path fill="#A3A3A3" d="M76.332,44.516c0-2.991,2.425-5.416,5.416-5.416c2.991,0,5.416,2.425,5.416,5.416"/></svg>