<?xml version="1.0" encoding="utf-8"?><!DOCTYPE svg PUBLIC "-//W3C//DTD SVG 1.1//EN" "http://www.w3.org/Graphics/SVG/1.1/DTD/svg11.dtd"><svg version="1.1" id="Locked" xmlns="http://www.w3.org/2000/svg" xmlns:xlink="http://www.w3.org/1999/xlink" x="0px" y="0px" width="110px" height="110px" viewBox="0 0 110 110" enable-background="new 0 0 110 110" xml:space="preserve"><path fill="#CCCCCC" d="M74.192,61.34c3.397-0.48,6.639-1.607,8.659-3.626c4.066-4.066,4.066-10.658,0-14.724	c-2.776-2.776-6.718-3.609-10.241-2.595V35.5c0-12.767-10.349-23.116-23.116-23.116S26.378,22.734,26.378,35.5v5.489	c-3.567-1.096-7.595-0.279-10.417,2.543c-4.066,4.066-4.066,10.658,0,14.724c2.423,2.423,6.462,3.65,10.467,4.011	c0.497,18.717,15.788,33.747,34.624,33.747c19.15,0,34.674-15.524,34.674-34.674H74.192z M59.401,30.293	c3.04,0,5.504,2.464,5.504,5.504c0,0.235-0.041,0.458-0.069,0.685h-10.87c-0.029-0.227-0.069-0.45-0.069-0.685	C53.897,32.757,56.362,30.293,59.401,30.293z M39.588,30.293c3.039,0,5.504,2.464,5.504,5.504c0,0.235-0.041,0.458-0.069,0.685	h-10.87c-0.028-0.227-0.069-0.45-0.069-0.685C34.084,32.757,36.548,30.293,39.588,30.293z M56.459,61.432	c0,3.601-2.919,6.52-6.52,6.52c-3.601,0-6.52-2.919-6.52-6.52v-8.298c0-3.601,2.919-6.52,6.52-6.52c3.601,0,6.52,2.919,6.52,6.52	V61.432z"/></svg>