<svg xmlns="http://www.w3.org/2000/svg" xmlns:xlink="http://www.w3.org/1999/xlink" width="24" height="24" viewBox="0 0 24 24"><defs><circle id="a" cx="12.148" cy="12.267" r="11.5"/></defs><g fill="none" fill-rule="evenodd" transform="translate(.032 -1.119)"><g transform="translate(0 .686)"><mask id="b" fill="#fff"><use xlink:href="#a"/></mask><g fill-rule="nonzero"><use fill="#F2F2F2" fill-rule="evenodd" xlink:href="#a"/><circle cx="12.148" cy="12.267" r="10.233" stroke="#FFC714" stroke-width="2.534"/></g><ellipse cx="12.081" cy="19.579" fill="#CFCFCF" mask="url(#b)" rx="1.153" ry="1.206"/><ellipse cx="5.239" cy="12.375" fill="#CFCFCF" mask="url(#b)" rx="1.153" ry="1.206"/><ellipse cx="19.463" cy="12.375" fill="#CFCFCF" mask="url(#b)" rx="1.153" ry="1.206"/><ellipse cx="12.081" cy="5.172" fill="#CFCFCF" mask="url(#b)" rx="1.153" ry="1.206"/></g><path fill="#1CB0F6" fill-rule="nonzero" d="M17.989 7.489l.127.136c.311.334.28.873-.069 1.199l-5.596 5.219c-.35.325-.89.318-1.2-.015l-.128-.137c-.311-.333-.28-.873.07-1.198l5.595-5.219a.826.826 0 0 1 1.2.015z"/><circle cx="11.968" cy="13.119" r="2" fill="#0084C3"/><circle cx="7.585" cy="6.669" r="3.5" fill="#FFF" opacity=".7"/></g></svg>