<?xml version="1.0" encoding="utf-8"?><!DOCTYPE svg PUBLIC "-//W3C//DTD SVG 1.1//EN" "http://www.w3.org/Graphics/SVG/1.1/DTD/svg11.dtd"><svg version="1.1" id="Locked" xmlns="http://www.w3.org/2000/svg" xmlns:xlink="http://www.w3.org/1999/xlink" x="0px" y="0px" width="110px" height="110px" viewBox="0 0 110 110" enable-background="new 0 0 110 110" xml:space="preserve"><g><path fill="#AFAFAF" d="M55.903,53.516c-1.769-1.293-4.252-0.907-5.545,0.862L39.49,69.251L24.404,58.227 c-1.769-1.293-4.252-0.907-5.545,0.863c-1.293,1.769-0.907,4.252,0.863,5.545l18.01,13.161c0.287,0.21,0.597,0.36,0.914,0.482 c1.698,0.842,3.802,0.376,4.959-1.207l13.161-18.01C58.059,57.292,57.673,54.809,55.903,53.516z"/><path fill="#AFAFAF" d="M64.05,73.142c-2.192,0-3.968,1.777-3.968,3.968v22.307c0,2.191,1.777,3.968,3.968,3.968 c2.192,0,3.968-1.777,3.968-3.968V77.11C68.018,74.919,66.242,73.142,64.05,73.142z"/><path fill="#AFAFAF" d="M92.183,49.455c-1.557-1.192-3.786-0.895-4.978,0.662l-3.489,5.269L69.439,45.042 c-0.951-0.689-2.085-0.933-3.164-0.785c-0.289-0.334-0.627-0.635-1.034-0.865L45.828,32.405c-0.586-0.332-1.22-0.48-1.849-0.496 c-0.107-0.009-0.214-0.006-0.321-0.006c-0.043,0.002-0.087,0.001-0.13,0.005c-0.986,0.042-1.945,0.484-2.609,1.308 c-0.015,0.017-0.031,0.032-0.046,0.049c-0.005,0.006-0.011,0.011-0.016,0.017l-0.059,0.089c-0.135,0.168-0.267,0.339-0.377,0.533 c-0.02,0.035-0.029,0.072-0.047,0.108l-5.604,8.464c-1.192,1.557-0.895,3.786,0.662,4.978c1.557,1.192,3.786,0.895,4.978-0.662 l4.014-6.063l16.91,9.57c0.554,0.313,1.15,0.463,1.745,0.494c0.299,0.515,0.701,0.981,1.215,1.353l16.665,12.073 c0.984,0.713,2.164,0.957,3.276,0.776c0.963-0.081,1.89-0.54,2.524-1.368l0.057-0.086c0.088-0.101,0.187-0.189,0.267-0.3 c0.182-0.251,0.331-0.515,0.453-0.788l5.31-8.019C94.037,52.876,93.741,50.647,92.183,49.455z"/><path fill="#AFAFAF" d="M71.445,45.336l3.597-5.189c1.287,0.389,2.651,0.603,4.065,0.603c2.171,0,4.218-0.507,6.053-1.388 c-2.805-2.349-3.423-6.473-1.286-9.526l6.829,4.778c1.534-2.249,2.433-4.966,2.433-7.894c0-7.748-6.281-14.029-14.03-14.029 s-14.03,6.281-14.03,14.029c0,3.468,1.265,6.636,3.349,9.084l-3.483,5.025L71.445,45.336z"/></g><path fill="#D8D8D8" d="M80.153,104.055c0-3.178-2.576-5.754-5.754-5.754l-14.332-0.02v5.745c0,0.01-0.003,0.019-0.003,0.029H80.153	z"/><path fill="#BCBCBC" d="M55.199,79.245L72.15,54.069c2.959-4.217,1.94-10.034-2.277-12.993l0,0	c-4.217-2.959-10.034-1.94-12.993,2.277l-17.07,24.343"/><path fill="#D8D8D8" d="M9.347,72.224c2.614,1.807,6.198,1.153,8.004-1.461l8.167-11.778l-4.726-3.267	c-0.008-0.006-0.014-0.013-0.022-0.019L9.347,72.224z"/><rect x="40.067" y="65.332" transform="matrix(0.825 0.5651 -0.5651 0.825 49.3855 -17.2418)" fill="#D8D8D8" width="24.938" height="11.598"/><path fill="#70B700" d="M65.947,34.908"/><path fill="#A3A3A3" d="M65.874,21.65c-1.873,4.066-6.687,5.845-10.753,3.972s-5.845-6.687-3.972-10.753"/><path fill="#A3A3A3" d="M45.489,59.354l-6.517,9.515l9.173,6.283c-4.895-3.729-6.101-10.651-2.593-15.795	C45.552,59.357,45.5,59.355,45.489,59.354z"/><path fill="#A3A3A3" d="M70.752,24.2c2.141-2.673,5.972-3.157,8.727-1.193c-0.183-1.871,0.413-3.803,1.845-5.236	c2.004-2.004,4.98-2.402,7.4-1.246c0.313,0.295,0.597,0.619,0.882,0.941c-3.706-4.646-10.137-6.553-15.956-4.264	c-7.146,2.81-10.661,10.882-7.851,18.028l0.458-0.18L70.752,24.2z"/><path fill="#FFFFFF" d="M85.785,26.016L85.785,26.016c0.549-0.967,1.778-1.305,2.744-0.756l0,0c0.967,0.549,1.305,1.778,0.756,2.744	l0,0"/></svg>