<?xml version="1.0" encoding="utf-8"?><!DOCTYPE svg PUBLIC "-//W3C//DTD SVG 1.1//EN" "http://www.w3.org/Graphics/SVG/1.1/DTD/svg11.dtd"><svg version="1.1" id="Golden" xmlns="http://www.w3.org/2000/svg" xmlns:xlink="http://www.w3.org/1999/xlink" x="0px" y="0px" width="110px" height="110px" viewBox="0 0 110 110" enable-background="new 0 0 110 110" xml:space="preserve"><path fill="#EF8200" d="M71.195,51.062c-0.561-2.475-1.666-4.738-3.186-6.662l13.082-0.504v-1.201l-16.052-1.214	c-2.462-1.886-5.454-3.105-8.721-3.38l-0.572-14.9h-1.199l-1.123,14.903c-3.266,0.287-6.255,1.518-8.711,3.414l-15.571,1.177v1.201	l12.662,0.488c-1.524,1.924-2.631,4.188-3.194,6.663L4.264,55.375v2.116h5.939c0.176,1.124,1.105,1.999,2.276,1.999	s2.1-0.875,2.276-1.999H24.92c-1.821,1.437-3.012,3.64-3.012,6.142c0,4.334,3.507,7.848,7.834,7.848s7.834-3.514,7.834-7.848	c0-2.502-1.191-4.705-3.012-6.142h3.852c1.295,7.96,8.172,14.043,16.484,14.043s15.189-6.082,16.484-14.043h3.671	c-1.821,1.437-3.012,3.64-3.012,6.142c0,4.334,3.507,7.848,7.834,7.848s7.834-3.514,7.834-7.848c0-2.502-1.191-4.705-3.012-6.142	h10.622c0.176,1.124,1.105,1.999,2.276,1.999c1.171,0,2.1-0.875,2.276-1.999h5.548v-2.116L71.195,51.062z"/><ellipse fill="#E26600" cx="29.742" cy="63.634" rx="6.026" ry="6.037"/><circle fill="#EF8200" cx="29.742" cy="63.634" r="1.919"/><ellipse fill="#E26600" cx="79.878" cy="63.634" rx="6.026" ry="6.037"/><circle fill="#EF8200" cx="79.878" cy="63.634" r="1.919"/><path fill="#E26600" d="M38.418,57.498c1.298,7.957,8.173,14.036,16.483,14.036s15.184-6.079,16.483-14.036H38.418z"/><g><polygon fill="#E26600" points="55.88,53.548 64.598,53.548 62.61,49.563 55.88,49.563"/><polygon fill="#E26600" points="53.714,49.563 46.701,49.563 44.713,53.548 53.714,53.548"/></g></svg>