<?xml version="1.0" encoding="utf-8"?><!DOCTYPE svg PUBLIC "-//W3C//DTD SVG 1.1//EN" "http://www.w3.org/Graphics/SVG/1.1/DTD/svg11.dtd"><svg version="1.1" id="Unlocked" xmlns="http://www.w3.org/2000/svg" xmlns:xlink="http://www.w3.org/1999/xlink" x="0px" y="0px" width="110px" height="110px" viewBox="0 0 110 110" enable-background="new 0 0 110 110" xml:space="preserve"><path fill="#FFFFFF" d="M74.644,61.76c3.382-0.477,6.608-1.599,8.619-3.609c4.047-4.047,4.047-10.609,0-14.657	c-2.763-2.763-6.687-3.592-10.194-2.583V36.04c0-12.708-10.302-23.01-23.01-23.01s-23.01,10.302-23.01,23.01v5.464	c-3.551-1.091-7.56-0.278-10.37,2.531c-4.047,4.047-4.047,10.609,0,14.657c2.411,2.411,6.432,3.633,10.419,3.993	c0.495,18.631,15.715,33.592,34.465,33.592c19.062,0,34.515-15.453,34.515-34.515H74.644z M59.921,30.856	c3.026,0,5.479,2.453,5.479,5.479c0,0.234-0.04,0.456-0.069,0.682h-10.82c-0.028-0.226-0.069-0.448-0.069-0.682	C54.442,33.309,56.895,30.856,59.921,30.856z M40.198,30.856c3.026,0,5.479,2.453,5.479,5.479c0,0.234-0.04,0.456-0.069,0.682	h-10.82c-0.028-0.226-0.069-0.448-0.069-0.682C34.719,33.309,37.172,30.856,40.198,30.856z M56.992,61.852	c0,3.584-2.906,6.49-6.49,6.49s-6.49-2.906-6.49-6.49v-8.26c0-3.584,2.906-6.49,6.49-6.49s6.49,2.906,6.49,6.49V61.852z"/><g><path opacity="0.3" fill="#1CB0F6" d="M96.08,61.76H74.967l-1.898,0.455v32.054C86.466,89.526,96.08,76.782,96.08,61.76z"/><path opacity="0.3" fill="#1CB0F6" d="M77.589,61.132l-1.256,0.301C76.76,61.342,77.177,61.246,77.589,61.132z"/></g></svg>