<?xml version="1.0" encoding="utf-8"?><!DOCTYPE svg PUBLIC "-//W3C//DTD SVG 1.1//EN" "http://www.w3.org/Graphics/SVG/1.1/DTD/svg11.dtd"><svg version="1.1" id="Golden" xmlns="http://www.w3.org/2000/svg" xmlns:xlink="http://www.w3.org/1999/xlink" x="0px" y="0px" width="110.042px" height="110.042px" viewBox="0 0 110.042 110.042" enable-background="new 0 0 110.042 110.042" xml:space="preserve"><path fill="#E26600" d="M65.29,20.046H45.935c-16.363,0-29.751,13.388-29.751,29.751v0c0,16.363,13.388,29.751,29.751,29.751H65.29	c16.363,0,29.752-13.388,29.752-29.751v0C95.042,33.434,81.653,20.046,65.29,20.046z"/><rect x="44.323" y="79.549" fill="#EF8200" width="23.089" height="6.5"/><rect x="44.078" y="13.092" fill="#EF8200" width="23.069" height="6.954"/><path fill="#EF8200" d="M48.111,98.658h-0.059c-0.569,0-1.034-0.465-1.034-1.034v-9.26c0-0.569,0.465-1.034,1.034-1.034h0.059	c0.569,0,1.034,0.465,1.034,1.034v9.26C49.145,98.192,48.68,98.658,48.111,98.658z"/><path fill="#EF8200" d="M55.642,98.658h-0.059c-0.569,0-1.034-0.465-1.034-1.034v-9.26c0-0.569,0.465-1.034,1.034-1.034h0.059	c0.569,0,1.034,0.465,1.034,1.034v9.26C56.677,98.192,56.211,98.658,55.642,98.658z"/><path fill="#EF8200" d="M51.961,98.658h-0.059c-0.569,0-1.034-0.465-1.034-1.034v-9.26c0-0.569,0.465-1.034,1.034-1.034h0.059	c0.569,0,1.034,0.465,1.034,1.034v9.26C52.995,98.192,52.53,98.658,51.961,98.658z"/><path fill="#EF8200" d="M59.554,98.658h-0.059c-0.569,0-1.034-0.465-1.034-1.034v-9.26c0-0.569,0.465-1.034,1.034-1.034h0.059	c0.569,0,1.034,0.465,1.034,1.034v9.26C60.588,98.192,60.123,98.658,59.554,98.658z"/><path fill="#EF8200" d="M63.756,98.658h-0.059c-0.569,0-1.034-0.465-1.034-1.034v-9.26c0-0.569,0.465-1.034,1.034-1.034h0.059	c0.569,0,1.034,0.465,1.034,1.034v9.26C64.791,98.192,64.325,98.658,63.756,98.658z"/><g><path fill="#EF8200" d="M55.927,82.947c-15.615,0-28.318-14.875-28.318-33.158s12.703-33.157,28.318-33.157 s28.318,14.874,28.318,33.157S71.542,82.947,55.927,82.947z M55.927,19.079c-14.265,0-25.871,13.777-25.871,30.71 c0,16.935,11.606,30.711,25.871,30.711s25.871-13.777,25.871-30.711C81.798,32.856,70.192,19.079,55.927,19.079z"/></g><rect x="48.081" y="13.092" fill="#FAA918" width="5.909" height="6.954"/><rect x="48.081" y="79.645" fill="#FAA918" width="5.909" height="6.381"/></svg>