<?xml version="1.0" encoding="utf-8"?><!DOCTYPE svg PUBLIC "-//W3C//DTD SVG 1.1//EN" "http://www.w3.org/Graphics/SVG/1.1/DTD/svg11.dtd"><svg version="1.1" id="Unlocked" xmlns="http://www.w3.org/2000/svg" xmlns:xlink="http://www.w3.org/1999/xlink" x="0px" y="0px" width="110px" height="110px" viewBox="0 0 110 110" enable-background="new 0 0 110 110" xml:space="preserve"><g><path fill="#D33131" d="M25.169,71.107c4.557-0.122,9.102-0.08,13.621,0.384V59.579c0-8.96,7.288-16.249,16.248-16.249 s16.249,7.289,16.249,16.249v11.363c1.064-0.01,2.127-0.03,3.191-0.035c0.321-0.277,0.734-0.471,1.294-0.46 c4.993,0.105,9.97,0.464,14.953,0.734c0.816,0.03,1.633,0.072,2.449,0.1V59.579c0-21.028-17.107-38.134-38.136-38.134 c-21.027,0-38.133,17.106-38.133,38.134v10.935C19.659,70.732,22.415,70.927,25.169,71.107z"/></g><g><rect x="16.905" y="68.408" fill="#E8E8E8" width="21.885" height="19.025"/><rect x="71.288" y="68.408" fill="#E8E8E8" width="21.887" height="19.025"/></g><g><rect x="16.905" y="68.408" fill="#E8E8E8" width="21.885" height="19.025"/><rect x="71.288" y="68.408" fill="#E8E8E8" width="21.887" height="19.025"/></g></svg>