<?xml version="1.0" encoding="utf-8"?><!DOCTYPE svg PUBLIC "-//W3C//DTD SVG 1.1//EN" "http://www.w3.org/Graphics/SVG/1.1/DTD/svg11.dtd"><svg version="1.1" id="Unlocked" xmlns="http://www.w3.org/2000/svg" xmlns:xlink="http://www.w3.org/1999/xlink" x="0px" y="0px" width="110px" height="110px" viewBox="0 0 110 110" enable-background="new 0 0 110 110" xml:space="preserve"><circle fill="#94DEF2" cx="31.356" cy="55.823" r="14.867"/><circle fill="#94DEF2" cx="79.175" cy="55.823" r="14.867"/><path fill="#CBE9F4" d="M20.918,66.403l21.018-21.018c-2.696-2.732-6.439-4.429-10.58-4.429c-8.211,0-14.867,6.656-14.867,14.867	C16.489,59.964,18.186,63.707,20.918,66.403z"/><path fill="#CBE9F4" d="M89.522,45.159c-2.677-2.597-6.322-4.203-10.346-4.203c-8.211,0-14.867,6.656-14.867,14.867	c0,4.024,1.606,7.669,4.203,10.346L89.522,45.159z"/><path fill="#231F20" d="M101.552,53.983h-4.564c-0.995-8.867-8.532-15.786-17.66-15.786c-8.145,0-15.011,5.513-17.106,12.999	c-1.891-1.578-4.307-2.499-6.843-2.499c-2.538,0-4.911,0.882-6.781,2.425c-2.12-7.448-8.97-12.925-17.089-12.925	c-9.129,0-16.664,6.919-17.659,15.786h-3.798v4.598h3.892c1.267,8.569,8.649,15.173,17.565,15.173c9.803,0,17.78-7.975,17.78-17.778	c0-0.003,0-0.007,0-0.01c1.239-2.218,3.532-3.591,6.091-3.591c2.589,0,4.979,1.469,6.179,3.751	c0.081,9.734,8.017,17.628,17.77,17.628c8.916,0,16.3-6.603,17.567-15.173h4.658V53.983z M31.509,70.076	c-7.775,0-14.099-6.324-14.099-14.099s6.324-14.101,14.099-14.101S45.61,48.201,45.61,55.977S39.284,70.076,31.509,70.076z M79.328,70.076c-7.775,0-14.099-6.324-14.099-14.099s6.324-14.101,14.099-14.101s14.101,6.326,14.101,14.101	S87.103,70.076,79.328,70.076z"/></svg>