<?xml version="1.0" encoding="utf-8"?><!DOCTYPE svg PUBLIC "-//W3C//DTD SVG 1.1//EN" "http://www.w3.org/Graphics/SVG/1.1/DTD/svg11.dtd"><svg version="1.1" id="Unlocked" xmlns="http://www.w3.org/2000/svg" xmlns:xlink="http://www.w3.org/1999/xlink" x="0px" y="0px" width="110px" height="110px" viewBox="0 0 110 110" enable-background="new 0 0 110 110" xml:space="preserve"><rect x="25.81" y="33.186" fill="#FFFFFF" width="61.851" height="4.669"/><rect x="25.81" y="50.692" fill="#FFFFFF" width="61.851" height="5.832"/><rect x="25.81" y="68.195" fill="#FFFFFF" width="61.851" height="5.834"/><path fill="#844B3E" d="M99.597,84.533h-4.934V23.639c0-2.463-2.208-4.457-4.669-4.457s-4.667,1.994-4.667,4.457v60.894H26.977	V23.639c0-2.463-1.623-4.457-4.084-4.457s-4.085,1.994-4.085,4.457v60.894h-5.286c-2.384,0-4.317,1.701-4.317,4.083	c0,2.384,1.933,4.087,4.317,4.087h86.076c2.384,0,4.318-1.703,4.318-4.087C103.915,86.234,101.981,84.533,99.597,84.533z"/><path fill="#4949DB" d="M36.313,39.046c0,1.92-1.556,3.476-3.475,3.476h-0.053c-1.918,0-3.475-1.556-3.475-3.476v-5.887	c0-1.918,1.557-3.476,3.475-3.476h0.053c1.919,0,3.475,1.558,3.475,3.476V39.046z"/><path fill="#4949DB" d="M45.649,39.046c0,1.92-1.556,3.476-3.473,3.476h-0.053c-1.919,0-3.475-1.556-3.475-3.476v-5.887	c0-1.918,1.556-3.476,3.475-3.476h0.053c1.918,0,3.473,1.558,3.473,3.476V39.046z"/><path fill="#4949DB" d="M82.992,39.046c0,1.92-1.556,3.476-3.473,3.476h-0.053c-1.919,0-3.475-1.556-3.475-3.476v-5.887	c0-1.918,1.556-3.476,3.475-3.476h0.053c1.918,0,3.473,1.558,3.473,3.476V39.046z"/><path fill="#4949DB" d="M54.984,39.046c0,1.92-1.554,3.476-3.473,3.476h-0.053c-1.919,0-3.476-1.556-3.476-3.476v-5.887	c0-1.918,1.556-3.476,3.476-3.476h0.053c1.919,0,3.473,1.558,3.473,3.476V39.046z"/><path fill="#4949DB" d="M82.992,56.554c0,1.918-1.556,3.471-3.473,3.471h-0.053c-1.919,0-3.475-1.553-3.475-3.471v-5.892	c0-1.915,1.556-3.473,3.475-3.473h0.053c1.918,0,3.473,1.558,3.473,3.473V56.554z"/><path fill="#4949DB" d="M36.313,56.554c0,1.918-1.556,3.471-3.475,3.471h-0.053c-1.918,0-3.475-1.553-3.475-3.471v-5.892	c0-1.915,1.557-3.473,3.475-3.473h0.053c1.919,0,3.475,1.558,3.475,3.473V56.554z"/><path fill="#4949DB" d="M45.649,56.554c0,1.918-1.556,3.471-3.473,3.471h-0.053c-1.919,0-3.475-1.553-3.475-3.471v-5.892	c0-1.915,1.556-3.473,3.475-3.473h0.053c1.918,0,3.473,1.558,3.473,3.473V56.554z"/><path fill="#4949DB" d="M73.656,56.554c0,1.918-1.556,3.471-3.473,3.471H70.13c-1.919,0-3.476-1.553-3.476-3.471v-5.892	c0-1.915,1.557-3.473,3.476-3.473h0.053c1.918,0,3.473,1.558,3.473,3.473V56.554z"/><path fill="#4949DB" d="M82.992,74.057c0,1.918-1.556,3.476-3.473,3.476h-0.053c-1.919,0-3.475-1.558-3.475-3.476v-5.89	c0-1.918,1.556-3.474,3.475-3.474h0.053c1.918,0,3.473,1.556,3.473,3.474V74.057z"/><path fill="#4949DB" d="M73.656,74.057c0,1.918-1.556,3.476-3.473,3.476H70.13c-1.919,0-3.476-1.558-3.476-3.476v-5.89	c0-1.918,1.557-3.474,3.476-3.474h0.053c1.918,0,3.473,1.556,3.473,3.474V74.057z"/><path fill="#4949DB" d="M64.321,74.057c0,1.918-1.556,3.476-3.475,3.476h-0.053c-1.918,0-3.473-1.558-3.473-3.476v-5.89	c0-1.918,1.556-3.474,3.473-3.474h0.053c1.919,0,3.475,1.556,3.475,3.474V74.057z"/><path fill="#4949DB" d="M54.984,74.057c0,1.918-1.554,3.476-3.473,3.476h-0.053c-1.919,0-3.476-1.558-3.476-3.476v-5.89	c0-1.918,1.556-3.474,3.476-3.474h0.053c1.919,0,3.473,1.556,3.473,3.474V74.057z"/></svg>