<?xml version="1.0" encoding="utf-8"?><!DOCTYPE svg PUBLIC "-//W3C//DTD SVG 1.1//EN" "http://www.w3.org/Graphics/SVG/1.1/DTD/svg11.dtd"><svg version="1.1" id="Golden" xmlns="http://www.w3.org/2000/svg" xmlns:xlink="http://www.w3.org/1999/xlink" x="0px" y="0px" width="110px" height="110px" viewBox="0 0 110 110" enable-background="new 0 0 110 110" xml:space="preserve"><rect x="38.919" y="21.519" fill="#FAA918" width="31.854" height="73.213"/><path fill="#E26600" d="M70.809,14.583l-11.495,4.466c-0.91-1.444-2.507-2.411-4.34-2.411c-2.039,0-3.784,1.197-4.614,2.918	l-11.477-4.459v12.631l11.23-4.363c0.672,2.055,2.582,3.549,4.862,3.549c2.415,0,4.427-1.673,4.976-3.918l10.859,4.219V14.583z"/><circle fill="#EF8200" cx="55.231" cy="36.933" r="2.473"/><circle fill="#EF8200" cx="55.231" cy="57.484" r="2.473"/><circle fill="#EF8200" cx="55.231" cy="78.035" r="2.473"/><polygon fill="#EF8200" points="22.429,39.577 27.234,44.383 21.95,49.667 38.873,94.754 38.94,27.621"/><polygon fill="#EF8200" points="83.399,44.383 88.098,39.684 70.73,27.107 70.797,94.24 87.843,48.827"/></svg>