<?xml version="1.0" encoding="utf-8"?><!DOCTYPE svg PUBLIC "-//W3C//DTD SVG 1.1//EN" "http://www.w3.org/Graphics/SVG/1.1/DTD/svg11.dtd"><svg version="1.1" id="Unlocked" xmlns="http://www.w3.org/2000/svg" xmlns:xlink="http://www.w3.org/1999/xlink" x="0px" y="0px" width="110.042px" height="110.042px" viewBox="0 0 110.042 110.042" enable-background="new 0 0 110.042 110.042" xml:space="preserve"><path fill="#9B0000" d="M65.264,20.027H45.962c-16.319,0-29.671,13.352-29.671,29.671v0c0,16.319,13.352,29.671,29.671,29.671	h19.302c16.319,0,29.671-13.352,29.671-29.671v0C94.935,33.379,81.583,20.027,65.264,20.027z"/><rect x="44.354" y="79.369" fill="#FFBC00" width="23.026" height="6.482"/><rect x="44.11" y="13.092" fill="#FFBC00" width="23.006" height="6.935"/><path fill="#FFBC00" d="M48.101,98.426L48.101,98.426c-0.584,0-1.061-0.478-1.061-1.061v-9.176c0-0.584,0.478-1.061,1.061-1.061l0,0	c0.584,0,1.061,0.478,1.061,1.061v9.176C49.163,97.948,48.685,98.426,48.101,98.426z"/><path fill="#FFBC00" d="M55.613,98.426L55.613,98.426c-0.584,0-1.061-0.478-1.061-1.061v-9.176c0-0.584,0.478-1.061,1.061-1.061l0,0	c0.584,0,1.061,0.478,1.061,1.061v9.176C56.674,97.948,56.196,98.426,55.613,98.426z"/><path fill="#FFBC00" d="M51.941,98.426L51.941,98.426c-0.584,0-1.061-0.478-1.061-1.061v-9.176c0-0.584,0.478-1.061,1.061-1.061l0,0	c0.584,0,1.061,0.478,1.061,1.061v9.176C53.003,97.948,52.525,98.426,51.941,98.426z"/><path fill="#FFBC00" d="M59.514,98.426L59.514,98.426c-0.584,0-1.061-0.478-1.061-1.061v-9.176c0-0.584,0.478-1.061,1.061-1.061h0	c0.584,0,1.061,0.478,1.061,1.061v9.176C60.575,97.948,60.097,98.426,59.514,98.426z"/><path fill="#FFBC00" d="M63.705,98.426L63.705,98.426c-0.584,0-1.061-0.478-1.061-1.061v-9.176c0-0.584,0.478-1.061,1.061-1.061l0,0	c0.584,0,1.061,0.478,1.061,1.061v9.176C64.766,97.948,64.288,98.426,63.705,98.426z"/><ellipse fill="none" stroke="#FFBC00" stroke-width="2.4402" stroke-miterlimit="10" cx="55.927" cy="49.69" rx="27.021" ry="31.847"/><rect x="48.102" y="13.092" fill="#FFFFFF" width="5.893" height="6.935"/><rect x="48.102" y="79.465" fill="#FFFFFF" width="5.893" height="6.364"/></svg>