<?xml version="1.0" encoding="utf-8"?><!DOCTYPE svg PUBLIC "-//W3C//DTD SVG 1.1//EN" "http://www.w3.org/Graphics/SVG/1.1/DTD/svg11.dtd"><svg version="1.1" id="Locked" xmlns="http://www.w3.org/2000/svg" xmlns:xlink="http://www.w3.org/1999/xlink" x="0px" y="0px" width="110px" height="110px" viewBox="0 0 110 110" enable-background="new 0 0 110 110" xml:space="preserve"><polygon fill="#BCBCBC" points="82.256,68.25 45.865,68.25 51.93,53.087 76.191,53.087"/><polygon fill="#BCBCBC" points="65.261,53.087 28.87,53.087 34.935,37.925 59.196,37.925"/><polygon fill="#BCBCBC" points="45.865,68.25 9.474,68.25 15.539,53.087 39.8,53.087"/><polygon fill="#D8D8D8" points="97.419,53.087 86.489,53.087 80.424,37.924 56.163,37.924 50.098,53.087 36.767,53.087 30.702,68.25 67.093,68.25 61.028,53.087 73.158,53.087 67.093,68.25 103.484,68.25"/><g><path fill="#D3D3D3" d="M81.176,32.482c2.394,1.008,4.301,2.946,5.267,5.362c0.967-2.416,2.873-4.354,5.267-5.362 c-2.394-1.008-4.301-2.946-5.267-5.362C85.477,29.536,83.57,31.474,81.176,32.482z"/></g><g><path fill="#D3D3D3" d="M24.732,79.237c2.373,0.999,4.263,2.92,5.221,5.314c0.958-2.394,2.848-4.315,5.221-5.314 c-2.373-0.999-4.263-2.92-5.221-5.314C28.995,76.317,27.105,78.238,24.732,79.237z"/></g></svg>