<?xml version="1.0" encoding="utf-8"?><!DOCTYPE svg PUBLIC "-//W3C//DTD SVG 1.1//EN" "http://www.w3.org/Graphics/SVG/1.1/DTD/svg11.dtd"><svg version="1.1" id="Golden" xmlns="http://www.w3.org/2000/svg" xmlns:xlink="http://www.w3.org/1999/xlink" x="0px" y="0px" width="110px" height="110px" viewBox="0 0 110 110" enable-background="new 0 0 110 110" xml:space="preserve"><rect x="26.484" y="56.151" fill="#E56200" width="51.274" height="40.404"/><path fill="#EF8200" d="M97.383,55.573H48.898v-2.886h45.598c1.275,0,2.309-1.034,2.309-2.309c0-1.275-1.034-2.309-2.309-2.309	H48.898V21.23h1.828v-6.638H15.324v6.638h1.828v44.155H40.22c2.715,7.669,8.496,13.877,15.893,17.131v14.038h23.954V82.378	C90.271,77.755,97.383,67.505,97.383,55.573z"/><path fill="#E56200" d="M33.372,27.868c0,1.036,1.421,1.876,3.175,1.876h5.079c1.753,0,3.175-0.84,3.175-1.876l0,0	c0-1.036-1.421-1.876-3.175-1.876h-5.079C34.793,25.992,33.372,26.832,33.372,27.868L33.372,27.868z"/></svg>