<?xml version="1.0" encoding="utf-8"?><!DOCTYPE svg PUBLIC "-//W3C//DTD SVG 1.1//EN" "http://www.w3.org/Graphics/SVG/1.1/DTD/svg11.dtd"><svg version="1.1" id="Unlocked" xmlns="http://www.w3.org/2000/svg" xmlns:xlink="http://www.w3.org/1999/xlink" x="0px" y="0px" width="110px" height="110px" viewBox="0 0 110 110" enable-background="new 0 0 110 110" xml:space="preserve"><path fill="#FFFFFF" d="M77.07,93.813c0.634,1.11,0.249,2.523-0.861,3.159l0,0c-1.107,0.634-2.521,0.246-3.154-0.859l-7.194-12.568	c-0.634-1.112-0.251-2.526,0.861-3.157l0,0c1.105-0.638,2.521-0.251,3.154,0.859L77.07,93.813z"/><path fill="#FFFFFF" d="M33.413,93.62c-0.643,1.103-0.273,2.518,0.83,3.164l0,0c1.103,0.643,2.518,0.273,3.164-0.832l7.306-12.501	c0.643-1.103,0.27-2.521-0.832-3.164l0,0c-1.103-0.646-2.518-0.273-3.164,0.83L33.413,93.62z"/><path fill="#FFFFFF" d="M58.904,15.733l-6.567-0.029c-1.071-0.005-1.942,0.859-1.947,1.928c-0.005,1.069,0.859,1.94,1.928,1.944	l1.939,0.009l-0.03,6.737l2.525,0.01l0.032-6.735l2.103,0.01c1.067,0.005,1.94-0.859,1.944-1.93	C60.836,16.61,59.971,15.737,58.904,15.733z"/><path fill="#4949DB" d="M91.288,59.459c-0.089,19.905-16.294,35.969-36.199,35.878c-19.905-0.086-35.966-16.296-35.876-36.198	c0.088-19.9,16.294-35.966,36.199-35.876C75.315,23.349,91.376,39.556,91.288,59.459z"/><path fill="#FFFFFF" d="M84.874,59.431C84.8,75.793,71.477,88.994,55.119,88.923c-16.36-0.074-29.563-13.395-29.491-29.754	c0.074-16.36,13.397-29.563,29.754-29.489C71.74,29.749,84.946,43.072,84.874,59.431z"/><g><path fill="#FFCE00" d="M23.459,15.138c-6.728,4.249-8.737,13.149-4.487,19.877l24.364-15.389 C39.086,12.898,30.188,10.888,23.459,15.138z"/><path fill="#FFCE00" d="M87.436,15.75c-6.728-4.25-15.627-2.24-19.877,4.488l24.365,15.389C96.173,28.899,94.164,20,87.436,15.75z"/></g><polygon fill="#4C4C4C" points="59.758,57.152 74.014,60.266 59.758,63.379"/><polygon fill="#4C4C4C" points="52.541,56.228 56.19,33.042 59.839,56.228"/><circle fill="#4C4C4C" cx="55.776" cy="59.851" r="5.846"/><circle fill="#FFFFFF" cx="55.776" cy="59.851" r="2.349"/></svg>