<?xml version="1.0" encoding="utf-8"?><!DOCTYPE svg PUBLIC "-//W3C//DTD SVG 1.1//EN" "http://www.w3.org/Graphics/SVG/1.1/DTD/svg11.dtd"><svg version="1.1" id="Golden" xmlns="http://www.w3.org/2000/svg" xmlns:xlink="http://www.w3.org/1999/xlink" x="0px" y="0px" width="110px" height="110px" viewBox="0 0 110 110" enable-background="new 0 0 110 110" xml:space="preserve"><path fill="#E26600" d="M72.972,48.358c-1.719-0.433-3.372-1.291-4.793-2.537c1.301,1.141-1.121-0.608-1.195-0.655	c-1.195-0.762-2.653-1.725-3.622-2.685c-2.067-2.048-3.587-4.43-4.739-7.079c-1.489-3.422-2.428-6.961-2.859-10.598	c-0.509-1.644-0.638-3.462-0.464-5.307L10.337,92.986h89.94L72.972,48.358z"/><path fill="#EF8200" d="M100.277,92.986l-27.22-44.489c-1.629-0.464-3.209-1.296-4.628-2.426	C60.911,40.082,55.45,30.524,55.75,20.75c0.005-0.161,0.025-0.319,0.037-0.479l-0.48-0.785L51.97,45.418l13.396,0.86L36.404,92.986	H100.277z"/><polygon fill="#EF8200" points="65.208,46.301 73.409,49.073 55.307,19.486 39.211,45.793 39.344,55.058"/><polygon fill="#FFB31A" points="65.106,46.301 73.409,49.073 55.307,19.486 51.97,45.418"/><polygon fill="#E26600" points="63.816,93.005 76.884,73.896 76.884,92.971"/></svg>