<?xml version="1.0" encoding="utf-8"?><!DOCTYPE svg PUBLIC "-//W3C//DTD SVG 1.1//EN" "http://www.w3.org/Graphics/SVG/1.1/DTD/svg11.dtd"><svg version="1.1" id="Locked" xmlns="http://www.w3.org/2000/svg" xmlns:xlink="http://www.w3.org/1999/xlink" x="0px" y="0px" width="110px" height="110px" viewBox="0 0 110 110" enable-background="new 0 0 110 110" xml:space="preserve"><path fill="#CCCCCC" d="M95.623,80.889v-3.802H91.14v-3.878h-3.362V46.007h0.047c0.576,0,1.042-0.467,1.042-1.043	c0-0.327-0.16-0.607-0.395-0.798h5.194L53.97,22.676L14.274,44.167h6.634c-0.236,0.191-0.395,0.471-0.395,0.798	c0,0.576,0.467,1.043,1.042,1.043h0.101v27.202h-3.735v3.878h-4.11v3.802H9.92v3.85h89.795v-3.85H95.623z M79.831,46.007h0.101	v27.202H67.418V46.007h0.094c0.576,0,1.043-0.467,1.043-1.043c0-0.327-0.16-0.607-0.395-0.798h11.025	c-0.236,0.191-0.396,0.471-0.396,0.798C78.789,45.541,79.255,46.007,79.831,46.007z M58.872,44.167	c-0.236,0.191-0.396,0.471-0.396,0.798c0,0.576,0.467,1.043,1.042,1.043h0.055v27.202H47.899V46.007h0.094	c0.576,0,1.042-0.467,1.042-1.043c0-0.327-0.16-0.607-0.395-0.798H58.872z M29.501,46.007h0.047c0.576,0,1.042-0.467,1.042-1.043	c0-0.327-0.16-0.607-0.395-0.798h9.157c-0.236,0.191-0.395,0.471-0.395,0.798c0,0.576,0.467,1.043,1.042,1.043h0.055v27.202H29.501	V46.007z"/><g><path opacity="0.3" fill="#8C8C8C" d="M78.789,44.965c0,0.576,0.467,1.043,1.043,1.043h0.101v9.825h7.845v-9.825h0.047 c0.576,0,1.042-0.467,1.042-1.043c0-0.304-0.147-0.561-0.356-0.75h-9.366C78.935,44.404,78.789,44.66,78.789,44.965z"/><path opacity="0.3" fill="#8C8C8C" d="M29.501,55.833v-9.825h0.047c0.576,0,1.042-0.467,1.042-1.043 c0-0.304-0.147-0.561-0.356-0.75h-9.366c-0.209,0.189-0.356,0.446-0.356,0.75c0,0.576,0.467,1.043,1.042,1.043h0.101v9.825H29.501z"/><path opacity="0.3" fill="#8C8C8C" d="M67.418,55.833v-9.825h0.094c0.576,0,1.043-0.467,1.043-1.043 c0-0.304-0.147-0.561-0.356-0.75h-9.366c-0.21,0.189-0.356,0.446-0.356,0.75c0,0.576,0.467,1.043,1.042,1.043h0.055v9.825H67.418z"/><path opacity="0.3" fill="#8C8C8C" d="M47.899,55.833v-9.825h0.094c0.576,0,1.042-0.467,1.042-1.043 c0-0.304-0.147-0.561-0.356-0.75h-9.366c-0.209,0.189-0.356,0.446-0.356,0.75c0,0.576,0.467,1.043,1.042,1.043h0.055v9.825H47.899z"/></g></svg>