<?xml version="1.0" encoding="utf-8"?><!DOCTYPE svg PUBLIC "-//W3C//DTD SVG 1.1//EN" "http://www.w3.org/Graphics/SVG/1.1/DTD/svg11.dtd"><svg version="1.1" id="Golden" xmlns="http://www.w3.org/2000/svg" xmlns:xlink="http://www.w3.org/1999/xlink" x="0px" y="0px" width="110px" height="110px" viewBox="0 0 110 110" enable-background="new 0 0 110 110" xml:space="preserve"><g><path fill="#EF8200" d="M55.255,93.23c-0.382,0-0.768-0.069-1.14-0.209c-0.339-0.128-0.646-0.307-0.914-0.53 C33.658,77.235,24.336,68.972,18.809,62.019c-6.205-7.809-7.451-13.976-7.468-21.95c-0.005-0.078-0.007-0.155-0.007-0.233 c0-13.389,10.892-24.283,24.282-24.283c7.833,0,15.135,3.861,19.645,10.029c4.51-6.168,11.816-10.029,19.647-10.029 c13.389,0,24.284,10.894,24.284,24.283c0,0.076-0.002,0.152-0.009,0.231c-0.016,7.971-1.265,14.141-7.476,21.952 c-5.525,6.956-14.859,15.222-34.421,30.492c-0.238,0.194-0.507,0.356-0.798,0.477C56.098,93.147,55.678,93.23,55.255,93.23z"/></g><path fill="#E26600" d="M31,43.989c0-3.82,3.097-6.917,6.917-6.917s6.917,3.097,6.917,6.917"/><path fill="#E26600" d="M66.213,43.989c0-3.82,3.097-6.917,6.917-6.917c3.82,0,6.917,3.097,6.917,6.917"/><path fill="#D15900" d="M71.873,55.308c0,8.682-7.038,15.72-15.72,15.72s-15.72-7.038-15.72-15.72"/></svg>