<?xml version="1.0" encoding="utf-8"?><!DOCTYPE svg PUBLIC "-//W3C//DTD SVG 1.1//EN" "http://www.w3.org/Graphics/SVG/1.1/DTD/svg11.dtd"><svg version="1.1" id="Golden" xmlns="http://www.w3.org/2000/svg" xmlns:xlink="http://www.w3.org/1999/xlink" x="0px" y="0px" width="110px" height="110px" viewBox="0 0 110 110" enable-background="new 0 0 110 110" xml:space="preserve"><path fill="#EF8200" d="M96.093,61.19V50.838l-8.814-2.428c-0.826-3.679-2.297-7.135-4.212-10.251l4.361-7.783l-7.331-7.32	l-7.662,4.313c-3.17-2.034-6.71-3.641-10.483-4.529l-2.333-8.436H49.266l-2.29,8.307c-3.89,0.844-7.531,2.401-10.794,4.46	l-7.378-4.138l-7.317,7.328l4.142,7.36c-2.081,3.274-3.548,6.928-4.408,10.841l-8.075,2.275V61.19l8.165,2.295	c0.884,3.836,2.387,7.418,4.457,10.634L21.5,81.653l7.311,7.319l7.662-4.322c3.161,1.949,6.665,3.337,10.4,4.16l2.394,8.541h10.353	l2.43-8.672c3.625-0.862,7.022-2.282,10.091-4.21l7.941,4.491l7.322-7.313l-4.493-7.965c1.903-3.056,3.434-6.438,4.284-10.042	L96.093,61.19z M54.182,65.803c-5.504,0-9.961-4.46-9.961-9.964c0-5.501,4.457-9.961,9.961-9.961c5.501,0,9.959,4.46,9.959,9.961	C64.141,61.343,59.684,65.803,54.182,65.803z"/><path fill="#F28F00" d="M84.073,84.98l-22.49-22.489c-1.823,2.027-4.457,3.312-7.4,3.312c-5.504,0-9.961-4.46-9.961-9.964	c0-2.943,1.282-5.578,3.31-7.4L25.473,26.384l-3.987,3.989l4.142,7.353c-1.332,2.093-2.41,4.358-3.263,6.732L65.57,87.658	c2.311-0.826,4.52-1.874,6.57-3.164l7.941,4.478L84.073,84.98z"/><path fill="#F28F00" d="M85.44,78.174l-2.531-4.489c1.298-2.084,2.351-4.329,3.175-6.681l-43.06-43.06	c-2.412,0.844-4.716,1.928-6.842,3.269l-3.904-2.198L53.195,45.93c0.324-0.032,0.655-0.052,0.988-0.052	c5.501,0,9.959,4.46,9.959,9.961c0,0.333-0.016,0.662-0.047,0.986L85.44,78.174z"/></svg>