<?xml version="1.0" encoding="utf-8"?><!DOCTYPE svg PUBLIC "-//W3C//DTD SVG 1.1//EN" "http://www.w3.org/Graphics/SVG/1.1/DTD/svg11.dtd"><svg version="1.1" id="Golden" xmlns="http://www.w3.org/2000/svg" xmlns:xlink="http://www.w3.org/1999/xlink" x="0px" y="0px" width="110px" height="110px" viewBox="0 0 110 110" enable-background="new 0 0 110 110" xml:space="preserve"><path fill="#E26600" d="M57.935,56.979L31,30.044c2.284,0.918,4.944,0.83,7.225-0.522c3.89-2.307,5.174-7.33,2.867-11.22	L30.09,24.825l-12.896-4.294c-1.429,4.291,0.892,8.928,5.183,10.356c2.343,0.78,4.771,0.412,6.742-0.754	C18.576,41.478,16.293,57.686,22.272,71.15c2.308,5.694,5.957,10.692,10.565,14.61L27,88.105c2.54,6.323,9.725,9.389,16.047,6.849	c1.168-0.469,2.223-1.099,3.154-1.85c3.505,1.074,7.225,1.659,11.082,1.659c20.868,0,37.784-16.916,37.784-37.784H57.935z"/><path fill="#EF8200" d="M49.932,79.01c2.003,5.115,0.36,10.772-3.699,14.071c3.498,1.074,7.199,1.683,11.05,1.683	c20.806,0,37.674-16.818,37.775-37.6L49.932,79.01z"/><path fill="#969696" d="M47.877,78.661"/><circle fill="#EF8200" cx="75.219" cy="43.826" r="2.232"/><circle fill="#EF8200" cx="82.633" cy="34.978" r="3.189"/><circle fill="#EF8200" cx="74.98" cy="23.499" r="3.906"/><path fill="#FAA918" d="M54.141,71.481c-0.035-0.088-0.031-0.182-0.076-0.269c-0.698-1.363-2.37-1.902-3.733-1.204	s-1.902,2.37-1.203,3.733c0.044,0.086,0.122,0.139,0.174,0.218L54.141,71.481z"/></svg>