<?xml version="1.0" encoding="utf-8"?><!DOCTYPE svg PUBLIC "-//W3C//DTD SVG 1.1//EN" "http://www.w3.org/Graphics/SVG/1.1/DTD/svg11.dtd"><svg version="1.1" id="Locked" xmlns="http://www.w3.org/2000/svg" xmlns:xlink="http://www.w3.org/1999/xlink" x="0px" y="0px" width="110px" height="110px" viewBox="0 0 110 110" enable-background="new 0 0 110 110" xml:space="preserve"><rect x="13.731" y="17.092" fill="#D8D8D8" width="82.496" height="74.781"/><rect x="18.643" y="21.546" fill="#DBDBDB" width="72.67" height="65.874"/><rect x="40.889" y="17.092" fill="#C4C4C4" width="28.386" height="74.781"/><path fill="#D8D8D8" d="M84.197,62.293c-2.344-0.771-4.769-1.361-7.209-1.754L76.6,62.964c2.31,0.372,4.608,0.931,6.83,1.662	L84.197,62.293z"/><path fill="#D8D8D8" d="M54.804,62.233c-2.351,0.763-4.656,1.719-6.856,2.841l1.118,2.188c2.082-1.064,4.268-1.969,6.496-2.693	L54.804,62.233z"/><path fill="#D8D8D8" d="M69.598,62.39l-0.187-2.456c-2.478,0-4.966,0.193-7.391,0.573l0.379,2.428	c2.301-0.361,4.661-0.545,7.012-0.545H69.598z"/><path fill="#A3A3A3" d="M18.643,21.546v9.908h9.069c-0.024,0.204-0.062,0.404-0.062,0.614c0,2.883,2.337,5.22,5.22,5.22h15.353	c2.883,0,5.22-2.337,5.22-5.22c0-0.21-0.038-0.41-0.062-0.614h0.369c5.427,0,9.826-4.399,9.826-9.826v-0.082H18.643z"/><g><path fill="#BCBCBC" d="M66.136,87.363h-7.369c0-22.123-17.999-40.121-40.124-40.121v-7.369 C44.831,39.872,66.136,61.177,66.136,87.363z"/></g><path fill="#A3A3A3" d="M68.182,27.155c0,9.401,6.508,17.263,15.259,19.379c-0.113,0.693-0.214,1.391-0.214,2.115	c0,5.477,3.336,10.173,8.086,12.173V21.546H68.995C68.475,23.327,68.182,25.205,68.182,27.155z"/><path fill="#A3A3A3" d="M39.677,74.769c0.154-0.65,0.256-1.319,0.256-2.016c0-4.833-3.918-8.751-8.751-8.751H19.821	c-0.403,0-0.788,0.066-1.177,0.119v17.265c0.389,0.053,0.774,0.119,1.177,0.119h4.623c-0.104,0.548-0.17,1.11-0.17,1.689	c0,1.536,0.418,2.96,1.093,4.227h19.002c0.675-1.267,1.093-2.691,1.093-4.227C45.46,79.348,43.056,76.084,39.677,74.769z"/><path fill="#939393" d="M40.889,45.421v8.572c10.77,7.202,17.878,19.471,17.878,33.37h7.369	C66.136,69.211,55.894,53.411,40.889,45.421z"/><path fill="#939393" d="M40.889,75.347V87.42h3.478c0.675-1.267,1.093-2.691,1.093-4.227C45.46,79.826,43.616,76.905,40.889,75.347z"/><path fill="#939393" d="M40.889,37.288h7.335c2.883,0,5.22-2.337,5.22-5.22c0-0.21-0.038-0.41-0.062-0.614h0.369	c5.427,0,9.826-4.399,9.826-9.826v-0.082H40.889V37.288z"/><path fill="#D8D8D8" d="M31.167,79.404c-1.456,1.996-2.761,4.12-3.884,6.315l2.188,1.118c1.063-2.08,2.301-4.094,3.682-5.986	L31.167,79.404z"/><path fill="#D8D8D8" d="M41.626,68.953c-1.996,1.451-3.893,3.073-5.64,4.817l1.737,1.737c1.655-1.654,3.454-3.191,5.347-4.567	L41.626,68.953z"/></svg>