<?xml version="1.0" encoding="utf-8"?><!DOCTYPE svg PUBLIC "-//W3C//DTD SVG 1.1//EN" "http://www.w3.org/Graphics/SVG/1.1/DTD/svg11.dtd"><svg version="1.1" id="Unlocked" xmlns="http://www.w3.org/2000/svg" xmlns:xlink="http://www.w3.org/1999/xlink" x="0px" y="0px" width="110px" height="110px" viewBox="0 0 110 110" enable-background="new 0 0 110 110" xml:space="preserve"><path fill="#915126" d="M66.426,21.861c-1.882,4.087-6.721,5.874-10.807,3.992s-5.874-6.721-3.992-10.807"/><path fill="#FFAD76" d="M84.517,30.089l6.864,4.802c1.542-2.26,2.445-4.991,2.445-7.933c0-7.787-6.313-14.1-14.1-14.1	c-7.787,0-14.1,6.313-14.1,14.1c0,3.485,1.271,6.669,3.366,9.13l-3.5,5.05l6.534,4.529l3.615-5.215	c1.294,0.391,2.664,0.606,4.086,0.606c2.17,0,4.216-0.504,6.052-1.38C82.964,37.316,82.371,33.156,84.517,30.089z"/><path fill="#FFFFFF" d="M86.438,26.249L86.438,26.249c0.552-0.971,1.787-1.312,2.758-0.76l0,0c0.971,0.552,1.312,1.787,0.76,2.758	l0,0"/><path fill="#915126" d="M77.945,20.912c1.778-2.966,5.624-3.929,8.59-2.151l6.651,3.988c-1.79-5.732-7.139-9.892-13.461-9.892	c-7.787,0-14.1,6.313-14.1,14.1c0,3.438,1.234,6.587,3.278,9.034L77.945,20.912z"/><circle fill="#FFAD76" cx="74.586" cy="25.872" r="3.653"/><path fill="#C17B4C" d="M38.471,78.429c-1.778-1.3-2.166-3.795-0.867-5.573l13.228-18.101c1.3-1.778,3.795-2.166,5.573-0.867l0,0	c1.778,1.3,2.166,3.795,0.867,5.573L44.044,77.562C42.745,79.34,40.25,79.728,38.471,78.429L38.471,78.429z"/><path fill="#FFAD76" d="M64.593,104.008c-2.203,0-3.988-1.786-3.988-3.988V77.6c0-2.203,1.786-3.988,3.988-3.988l0,0	c2.203,0,3.988,1.786,3.988,3.988v22.419C68.581,102.222,66.796,104.008,64.593,104.008L64.593,104.008z"/><path fill="#FFAD76" d="M19.468,59.646c1.3-1.778,3.795-2.166,5.573-0.867l18.101,13.228c1.778,1.3,2.166,3.795,0.867,5.573l0,0	c-1.3,1.778-3.795,2.166-5.573,0.867L20.335,65.219C18.556,63.919,18.168,61.424,19.468,59.646L19.468,59.646z"/><path fill="#FFAD76" d="M92.868,49.806c-1.565-1.198-3.805-0.9-5.003,0.665l-3.506,5.295L70.009,45.371	c-1.971-1.428-4.727-0.988-6.155,0.983c-1.428,1.971-0.988,4.727,0.983,6.155l16.749,12.134c0.989,0.716,2.175,0.962,3.292,0.78	c0.968-0.081,1.9-0.543,2.537-1.375l0.057-0.087c0.089-0.102,0.188-0.19,0.269-0.302c0.183-0.252,0.333-0.518,0.455-0.792	l5.337-8.06C94.731,53.244,94.433,51.004,92.868,49.806z"/><path fill="#FFFFFF" d="M80.777,104.681c0-3.194-2.589-5.782-5.782-5.782l-14.405-0.02v5.774c0,0.01-0.003,0.019-0.003,0.029H80.777	z"/><path fill="#FFFFFF" d="M55.697,79.747l17.036-25.303c2.974-4.238,1.95-10.084-2.288-13.058l0,0	c-4.238-2.974-10.084-1.95-13.058,2.288L40.231,68.139"/><path fill="#FFFFFF" d="M9.615,72.689c2.627,1.816,6.229,1.159,8.045-1.468l8.208-11.837l-4.75-3.283	c-0.008-0.006-0.014-0.013-0.022-0.019L9.615,72.689z"/><path fill="#FFAD76" d="M65.79,43.712L46.279,32.67c-0.589-0.333-1.226-0.482-1.858-0.498c-0.109-0.009-0.217-0.006-0.326-0.006	c-0.043,0.002-0.086,0.001-0.128,0.005c-0.992,0.042-1.955,0.486-2.623,1.314c-0.015,0.017-0.031,0.032-0.046,0.049	c-0.005,0.006-0.011,0.011-0.016,0.017l-0.059,0.089c-0.136,0.169-0.269,0.341-0.379,0.536c-0.02,0.035-0.029,0.073-0.048,0.109	l-5.632,8.506c-1.198,1.565-0.9,3.805,0.665,5.003c1.565,1.198,3.805,0.9,5.003-0.665l4.035-6.093l16.995,9.618	c1.917,1.085,4.35,0.41,5.435-1.507C68.381,47.23,67.707,44.797,65.79,43.712z"/><rect x="40.489" y="65.763" transform="matrix(0.825 0.5651 -0.5651 0.825 49.7304 -17.4353)" fill="#444444" width="25.064" height="11.656"/><path fill="#70B700" d="M66.499,35.186"/><path fill="#2D2D2D" d="M45.938,59.755l-6.549,9.563l9.219,6.314c-4.92-3.747-6.131-10.705-2.606-15.874	C46.002,59.758,45.95,59.756,45.938,59.755z"/></svg>