<?xml version="1.0" encoding="utf-8"?><!DOCTYPE svg PUBLIC "-//W3C//DTD SVG 1.1//EN" "http://www.w3.org/Graphics/SVG/1.1/DTD/svg11.dtd"><svg version="1.1" id="Locked" xmlns="http://www.w3.org/2000/svg" xmlns:xlink="http://www.w3.org/1999/xlink" x="0px" y="0px" width="110px" height="110px" viewBox="0 0 110 110" enable-background="new 0 0 110 110" xml:space="preserve"><path fill="#D8D8D8" d="M54.576,17.112c0,8.398-6.808,15.206-15.206,15.206c-4.232,0-8.057-1.732-10.814-4.522	c-0.006,0.006-0.012,0.014-0.018,0.02c2.659,2.738,4.302,6.467,4.302,10.585c0,8.011-6.199,14.56-14.06,15.148	c7.861,0.588,14.06,7.137,14.06,15.148c0,4.208-1.71,8.016-4.473,10.769c0.006,0.006,0.012,0.013,0.018,0.02	c2.734-2.632,6.443-4.259,10.538-4.259c8.398,0,15.206,6.808,15.206,15.206c0,0.012-0.002,0.023-0.002,0.034	c0,0,0.032,0.002,0.048,0.002c-0.002-0.087-0.013-0.172-0.013-0.26c0-8.398,6.808-15.206,15.206-15.206	c4.382,0,8.32,1.864,11.094,4.83c0.011-0.011,0.023-0.02,0.033-0.03c-2.833-2.762-4.598-6.614-4.598-10.883	c0-8.011,6.199-14.56,14.06-15.148c-7.861-0.588-14.06-7.137-14.06-15.148c0-4.289,1.783-8.156,4.639-10.92	c-0.006-0.006-0.013-0.012-0.02-0.018c-2.748,2.724-6.528,4.409-10.702,4.409c-8.367,0-15.151-6.759-15.201-15.114l-0.021-0.001	l-0.023,0.001C54.57,17.025,54.576,17.068,54.576,17.112z"/><circle fill="#BCBCBC" cx="54.593" cy="53.735" r="19.486"/><path fill="#D8D8D8" d="M16.442,83.599c-1.462-1.999-2.767-4.119-3.882-6.299l-1.903,0.974c1.167,2.281,2.532,4.497,4.056,6.586	L16.442,83.599z"/><path fill="#D8D8D8" d="M61.822,9.146l0.327-2.113c-2.482-0.383-5.027-0.576-7.561-0.576h-0.149l0.149,2.138	C57.013,8.595,59.449,8.781,61.822,9.146z"/><path fill="#D8D8D8" d="M5.86,63.608c0.406,2.547,1.018,5.078,1.816,7.523l2.032-0.664c-0.763-2.338-1.348-4.759-1.737-7.196	L5.86,63.608z"/><path fill="#D8D8D8" d="M47.254,102.429l-0.327,2.113c2.52,0.391,5.096,0.591,7.66,0.591h0.05l-0.05-2.138	C52.133,102.995,49.668,102.804,47.254,102.429z"/><path fill="#D8D8D8" d="M62.35,104.525c2.544-0.401,5.076-1.01,7.527-1.806l-0.664-2.034c-2.341,0.763-4.762,1.344-7.195,1.728	L62.35,104.525z"/><path fill="#D8D8D8" d="M26.892,94.022c-1.997-1.449-3.895-3.066-5.634-4.803l-1.511,1.514c1.821,1.816,3.8,3.504,5.891,5.021	L26.892,94.022z"/><path fill="#D8D8D8" d="M7.944,48.508l-2.116-0.325c-0.384,2.508-0.582,5.07-0.582,7.612v0.099l2.141-0.099	C7.387,53.361,7.572,50.909,7.944,48.508z"/><path fill="#D8D8D8" d="M9.651,41.307c0.756-2.347,1.705-4.651,2.819-6.845l-1.908-0.969c-1.164,2.295-2.158,4.704-2.948,7.16	L9.651,41.307z"/><path fill="#D8D8D8" d="M46.724,7.081c-2.547,0.408-5.076,1.021-7.519,1.822l0.664,2.032c2.339-0.767,4.759-1.353,7.192-1.743	L46.724,7.081z"/><path fill="#D8D8D8" d="M32.236,99.794c2.304,1.172,4.712,2.165,7.157,2.956l0.659-2.034c-2.339-0.756-4.643-1.707-6.845-2.827	L32.236,99.794z"/><path fill="#D8D8D8" d="M21.127,22.504l-1.516-1.509c-1.814,1.821-3.498,3.803-5.012,5.894l1.729,1.254	C17.777,26.143,19.393,24.245,21.127,22.504z"/><path fill="#D8D8D8" d="M76.846,11.751c-2.302-1.166-4.71-2.155-7.162-2.942l-0.654,2.037c2.346,0.752,4.65,1.698,6.85,2.813	L76.846,11.751z"/><path fill="#D8D8D8" d="M98.563,78.188c1.172-2.295,2.17-4.702,2.963-7.154l-2.032-0.659c-0.761,2.344-1.714,4.645-2.834,6.842	L98.563,78.188z"/><path fill="#D8D8D8" d="M92.677,27.912c1.459,1.989,2.767,4.105,3.892,6.292l1.903-0.979c-1.177-2.285-2.547-4.498-4.071-6.577	L92.677,27.912z"/><path fill="#D8D8D8" d="M103.293,47.881c-0.414-2.546-1.028-5.075-1.831-7.517l-2.032,0.666c0.768,2.338,1.358,4.757,1.752,7.192	L103.293,47.881z"/><path fill="#D8D8D8" d="M101.214,63.176l2.111,0.332c0.399-2.533,0.602-5.128,0.602-7.712v-0.198l-2.141,0.198	C101.787,58.269,101.593,60.751,101.214,63.176z"/><path fill="#D8D8D8" d="M87.977,89.157l1.511,1.511c1.821-1.823,3.513-3.803,5.027-5.884l-1.729-1.259	C91.337,85.518,89.719,87.413,87.977,89.157z"/><path fill="#D8D8D8" d="M76.048,97.847l0.976,1.903c2.292-1.173,4.509-2.536,6.588-4.052l-1.259-1.727	C80.364,95.42,78.243,96.725,76.048,97.847z"/><path fill="#D8D8D8" d="M82.2,17.512c1.999,1.443,3.897,3.055,5.646,4.791l1.506-1.516c-1.826-1.816-3.81-3.501-5.899-5.009	L82.2,17.512z"/><circle fill="#D8D8D8" cx="29.125" cy="15.507" r="5.346"/></svg>