<?xml version="1.0" encoding="utf-8"?><!DOCTYPE svg PUBLIC "-//W3C//DTD SVG 1.1//EN" "http://www.w3.org/Graphics/SVG/1.1/DTD/svg11.dtd"><svg version="1.1" id="Golden" xmlns="http://www.w3.org/2000/svg" xmlns:xlink="http://www.w3.org/1999/xlink" x="0px" y="0px" width="110px" height="110px" viewBox="0 0 110 110" enable-background="new 0 0 110 110" xml:space="preserve"><rect x="14.023" y="17.543" fill="#EF8200" width="82.643" height="74.914"/><rect x="18.945" y="22.005" fill="#FAA918" width="72.8" height="65.991"/><rect x="41.23" y="22.005" fill="#F79508" width="28.437" height="65.935"/><path fill="#FFC524" d="M84.616,62.824c-2.348-0.773-4.777-1.364-7.222-1.757l-0.389,2.43c2.314,0.372,4.616,0.932,6.842,1.665	L84.616,62.824z"/><path fill="#FFC524" d="M55.17,62.764c-2.355,0.764-4.665,1.722-6.868,2.847l1.12,2.192c2.086-1.066,4.275-1.973,6.508-2.698	L55.17,62.764z"/><path fill="#FFC524" d="M69.99,62.921l-0.187-2.461c-2.482,0-4.975,0.193-7.404,0.574l0.38,2.432	c2.305-0.362,4.669-0.546,7.024-0.546H69.99z"/><path fill="#E26600" d="M18.945,22.005v9.925h9.085c-0.024,0.204-0.062,0.404-0.062,0.615c0,2.888,2.341,5.229,5.229,5.229h15.38	c2.888,0,5.229-2.341,5.229-5.229c0-0.211-0.038-0.411-0.062-0.615h0.369c5.437,0,9.843-4.407,9.843-9.843v-0.082H18.945z"/><path fill="#D65B00" d="M48.578,37.774c2.888,0,5.229-2.341,5.229-5.229c0-0.211-0.038-0.411-0.062-0.615h0.37	c5.437,0,9.843-4.407,9.843-9.843v-0.082H41.23v15.77H48.578z"/><g><path fill="#EF8200" d="M66.522,87.939H59.14c0-22.162-18.031-40.193-40.195-40.193v-7.383 C45.18,40.364,66.522,61.706,66.522,87.939z"/></g><path fill="#EF8200" d="M68.572,27.623c0,9.418,6.52,17.294,15.287,19.414c-0.113,0.694-0.214,1.393-0.214,2.119	c0,5.487,3.342,10.191,8.1,12.194V22.005H69.387C68.865,23.789,68.572,25.671,68.572,27.623z"/><path fill="#E26600" d="M40.016,75.322c0.154-0.651,0.257-1.321,0.257-2.019c0-4.842-3.925-8.767-8.767-8.767H20.124	c-0.404,0-0.789,0.066-1.179,0.119V81.95c0.39,0.053,0.776,0.119,1.179,0.119h4.631c-0.104,0.549-0.171,1.112-0.171,1.692	c0,1.538,0.419,2.965,1.095,4.235h19.035c0.676-1.269,1.095-2.696,1.095-4.235C45.809,79.91,43.401,76.64,40.016,75.322z"/><rect x="41.23" y="17.543" fill="#E26600" width="28.437" height="4.457"/><rect x="41.23" y="87.996" fill="#E26600" width="28.437" height="4.457"/><path fill="#FFC524" d="M31.491,79.965c-1.459,1.999-2.766,4.127-3.891,6.326l2.192,1.12c1.065-2.084,2.305-4.101,3.689-5.997	L31.491,79.965z"/><path fill="#FFC524" d="M41.969,69.496c-1.999,1.454-3.9,3.078-5.65,4.826l1.74,1.74c1.658-1.657,3.461-3.196,5.357-4.576	L41.969,69.496z"/></svg>