<?xml version="1.0" encoding="utf-8"?><!DOCTYPE svg PUBLIC "-//W3C//DTD SVG 1.1//EN" "http://www.w3.org/Graphics/SVG/1.1/DTD/svg11.dtd"><svg version="1.1" id="Unlocked" xmlns="http://www.w3.org/2000/svg" xmlns:xlink="http://www.w3.org/1999/xlink" x="0px" y="0px" width="110px" height="110px" viewBox="0 0 110 110" enable-background="new 0 0 110 110" xml:space="preserve"><path fill="#FFFFFF" d="M82.427,9.667H55.17v47.701L32.184,77.528c-5.63,5.629-5.63,14.757,0,20.386	c5.63,5.629,14.757,5.629,20.386,0l25.586-22.441c2.66-2.66,4.018-6.104,4.164-9.587h0.107V9.667z"/><path fill="#C6C6C6" d="M70.109,70.079c0,3.578,1.408,6.807,3.663,9.239l4.384-3.845c2.66-2.66,4.018-6.104,4.164-9.587h0.107	v-9.303C75.525,57.252,70.109,63.001,70.109,70.079z"/><path fill="#C6C6C6" d="M32.466,77.28l-0.283,0.248c-5.63,5.629-5.63,14.757,0,20.386c5.48,5.48,14.251,5.581,19.907,0.392	L32.466,77.28z"/><rect x="55.17" y="17.923" fill="#D33131" width="27.258" height="4.98"/><rect x="55.17" y="27.358" fill="#D33131" width="27.258" height="4.98"/></svg>