<?xml version="1.0" encoding="utf-8"?><!DOCTYPE svg PUBLIC "-//W3C//DTD SVG 1.1//EN" "http://www.w3.org/Graphics/SVG/1.1/DTD/svg11.dtd"><svg version="1.1" id="Unlocked" xmlns="http://www.w3.org/2000/svg" xmlns:xlink="http://www.w3.org/1999/xlink" x="0px" y="0px" width="110px" height="110px" viewBox="0 0 110 110" enable-background="new 0 0 110 110" xml:space="preserve"><rect x="14.193" y="17.707" fill="#FFFFFF" width="82.474" height="74.761"/><rect x="19.104" y="22.159" fill="#D6D6D6" width="72.651" height="65.856"/><path fill="#7AC70C" d="M19.104,22.159v9.905h9.067c-0.024,0.204-0.062,0.404-0.062,0.614c0,2.882,2.336,5.219,5.219,5.219h15.349	c2.882,0,5.219-2.336,5.219-5.219c0-0.21-0.038-0.41-0.062-0.614h0.369c5.425,0,9.823-4.398,9.823-9.823v-0.082H19.104z"/><rect x="41.344" y="22.046" fill="#BCBCBC" width="28.378" height="66.045"/><rect x="41.344" y="17.707" fill="#EFEFEF" width="28.378" height="4.452"/><rect x="41.344" y="88.015" fill="#EFEFEF" width="28.378" height="4.452"/><path fill="#75B70D" d="M41.344,37.897h7.333c2.882,0,5.219-2.336,5.219-5.219c0-0.21-0.038-0.41-0.062-0.614h0.369	c5.425,0,9.823-4.398,9.823-9.823v-0.082H41.344V37.897z"/><path fill="#FFFFFF" d="M84.64,62.895c-2.343-0.771-4.768-1.361-7.207-1.753l-0.389,2.425c2.31,0.372,4.607,0.931,6.828,1.662	L84.64,62.895z"/><path fill="#EFEFEF" d="M55.255,62.835c-2.35,0.763-4.655,1.718-6.854,2.841l1.118,2.187c2.082-1.064,4.266-1.969,6.494-2.692	L55.255,62.835z"/><path fill="#EFEFEF" d="M70.045,62.992l-0.187-2.456c-2.477,0-4.964,0.193-7.389,0.573l0.379,2.427c2.3-0.361,4.66-0.544,7.01-0.544	H70.045z"/><g><path fill="#FFB103" d="M66.584,87.959h-7.367c0-22.117-17.994-40.111-40.113-40.111v-7.367 C45.285,40.481,66.584,61.78,66.584,87.959z"/></g><path fill="#EF9F00" d="M41.344,46.028v8.569c10.767,7.2,17.873,19.465,17.873,33.361h7.367	C66.584,69.811,56.345,54.016,41.344,46.028z"/><path fill="#36C5F2" d="M68.63,27.767c0,9.399,6.506,17.258,15.255,19.374c-0.113,0.693-0.213,1.39-0.213,2.115	c0,5.475,3.335,10.17,8.084,12.169V22.159H69.443C68.922,23.94,68.63,25.818,68.63,27.767z"/><path fill="#7AC70C" d="M40.132,75.368c0.154-0.65,0.256-1.319,0.256-2.015c0-4.832-3.917-8.749-8.749-8.749H20.281	c-0.403,0-0.788,0.066-1.177,0.119v17.26c0.389,0.053,0.774,0.119,1.177,0.119h4.621c-0.104,0.548-0.17,1.11-0.17,1.688	c0,1.535,0.418,2.959,1.092,4.226h18.996c0.675-1.267,1.092-2.691,1.092-4.226C45.913,79.946,43.51,76.683,40.132,75.368z"/><path fill="#7AC70C" d="M40.132,75.368c0.154-0.65,0.256-1.319,0.256-2.015c0-4.832-3.917-8.749-8.749-8.749H20.281	c-0.403,0-0.788,0.066-1.177,0.119v17.26c0.389,0.053,0.774,0.119,1.177,0.119h4.621c-0.104,0.548-0.17,1.11-0.17,1.688	c0,1.535,0.418,2.959,1.092,4.226h18.996c0.675-1.267,1.092-2.691,1.092-4.226C45.913,79.946,43.51,76.683,40.132,75.368z"/><path fill="#75B70D" d="M41.344,75.946v12.069h3.477c0.674-1.267,1.092-2.691,1.092-4.226C45.914,80.424,44.07,77.503,41.344,75.946	z"/><path fill="#FFFFFF" d="M31.625,80.002c-1.456,1.995-2.76,4.119-3.883,6.313l2.187,1.118c1.062-2.079,2.3-4.093,3.681-5.985	L31.625,80.002z"/><path fill="#FFFFFF" d="M42.081,69.554c-1.995,1.451-3.892,3.072-5.638,4.816l1.736,1.736c1.655-1.654,3.453-3.19,5.346-4.566	L42.081,69.554z"/><path fill="#FFFFFF" d="M31.625,80.002c-1.456,1.995-2.76,4.119-3.883,6.313l2.187,1.118c1.062-2.079,2.3-4.093,3.681-5.985	L31.625,80.002z"/><path fill="#EFEFEF" d="M42.081,69.554c-1.995,1.451-3.892,3.072-5.638,4.816l1.736,1.736c1.655-1.654,3.453-3.19,5.346-4.566	L42.081,69.554z"/><path fill="#E3EDD1" d="M38.179,76.106c0.694-0.693,1.417-1.36,2.158-2.008c0.024-0.246,0.051-0.492,0.051-0.745	c0-0.78-0.112-1.533-0.304-2.253c-1.268,1.03-2.49,2.12-3.641,3.27L38.179,76.106z"/></svg>