<?xml version="1.0" encoding="utf-8"?><!DOCTYPE svg PUBLIC "-//W3C//DTD SVG 1.1//EN" "http://www.w3.org/Graphics/SVG/1.1/DTD/svg11.dtd"><svg version="1.1" id="Unlocked" xmlns="http://www.w3.org/2000/svg" xmlns:xlink="http://www.w3.org/1999/xlink" x="0px" y="0px" width="110px" height="110px" viewBox="0 0 110 110" enable-background="new 0 0 110 110" xml:space="preserve"><path fill="#FFFFFF" d="M94.548,63.35V52.323c0-21.527-17.451-38.979-38.979-38.979S16.591,30.796,16.591,52.323v19.338h0.032	c0.239,6.621,5.668,11.92,12.348,11.92c3.467,0,6.596-1.43,8.842-3.728v12.842c0,2.733,2.215,4.948,4.948,4.948	c2.733,0,4.948-2.215,4.948-4.948v-4.514h2.754v4.514c0,2.733,2.215,4.948,4.948,4.948c2.733,0,4.948-2.215,4.948-4.948v-4.514	h2.754v4.514c0,2.733,2.215,4.948,4.948,4.948c2.733,0,4.948-2.215,4.948-4.948V79.445c2.265,2.533,5.548,4.137,9.214,4.137	c6.832,0,12.37-5.538,12.37-12.37v-6.978C94.593,63.935,94.569,63.642,94.548,63.35z M34.114,72.072	c-5.354,0-9.694-4.34-9.694-9.694s4.34-9.694,9.694-9.694c5.354,0,9.694,4.34,9.694,9.694S39.468,72.072,34.114,72.072z M49.45,76.114l6.17-8.243l6.17,8.243H49.45z M77.174,72.072c-5.354,0-9.694-4.34-9.694-9.694s4.34-9.694,9.694-9.694	c5.354,0,9.694,4.34,9.694,9.694S82.528,72.072,77.174,72.072z"/></svg>