<?xml version="1.0" encoding="utf-8"?><!DOCTYPE svg PUBLIC "-//W3C//DTD SVG 1.1//EN" "http://www.w3.org/Graphics/SVG/1.1/DTD/svg11.dtd"><svg version="1.1" id="Unlocked" xmlns="http://www.w3.org/2000/svg" xmlns:xlink="http://www.w3.org/1999/xlink" x="0px" y="0px" width="110px" height="110px" viewBox="0 0 110 110" enable-background="new 0 0 110 110" xml:space="preserve"><path fill="#E8E8E8" d="M96.463,61.333V50.941l-8.847-2.437c-0.829-3.693-2.306-7.162-4.228-10.29l4.377-7.812l-7.358-7.347	l-7.69,4.33c-3.182-2.042-6.735-3.654-10.522-4.546l-2.342-8.467H49.461l-2.299,8.338c-3.905,0.847-7.559,2.41-10.834,4.476	l-7.406-4.153l-7.345,7.356l4.158,7.388c-2.089,3.286-3.562,6.954-4.424,10.881l-8.105,2.283v10.391l8.196,2.304	c0.888,3.851,2.396,7.446,4.474,10.674l-4.284,7.562l7.338,7.347l7.69-4.339c3.173,1.956,6.69,3.349,10.438,4.176l2.403,8.573	h10.391l2.439-8.704c3.638-0.865,7.049-2.29,10.129-4.226l7.97,4.508l7.349-7.34l-4.51-7.995c1.911-3.067,3.446-6.462,4.3-10.08	L96.463,61.333z M54.396,65.963c-5.524,0-9.998-4.476-9.998-10.001c0-5.522,4.474-9.998,9.998-9.998	c5.522,0,9.996,4.476,9.996,9.998C64.392,61.486,59.918,65.963,54.396,65.963z"/><path fill="#F4F4F4" d="M84.398,85.212L61.824,62.638c-1.829,2.035-4.474,3.324-7.428,3.324c-5.524,0-9.998-4.476-9.998-10.001	c0-2.954,1.287-5.599,3.322-7.428L25.58,26.396L21.578,30.4l4.158,7.381c-1.337,2.1-2.419,4.375-3.275,6.757l43.365,43.361	c2.319-0.829,4.537-1.881,6.595-3.175l7.97,4.494L84.398,85.212z"/><path fill="#F4F4F4" d="M85.771,78.38l-2.541-4.506c1.303-2.091,2.36-4.346,3.187-6.706l-43.221-43.22	c-2.421,0.847-4.734,1.935-6.868,3.281l-3.918-2.207l20.995,20.993c0.325-0.032,0.657-0.052,0.991-0.052	c5.522,0,9.996,4.476,9.996,9.998c0,0.334-0.016,0.664-0.047,0.989L85.771,78.38z"/></svg>