<?xml version="1.0" encoding="UTF-8" standalone="no"?><svg width="14px" height="14px" viewBox="0 0 14 14" version="1.1" xmlns="http://www.w3.org/2000/svg" xmlns:xlink="http://www.w3.org/1999/xlink"><title>Combined Shape Copy 2</title><desc>Created with Sketch.</desc><defs/><g id="step-by-step-registration" stroke="none" stroke-width="1" fill="none" fill-rule="evenodd"><g id="3-copy" transform="translate(-317.000000, -197.000000)" fill="#FF0030"><path d="M324,211 C327.865993,211 331,207.865993 331,204 C331,200.134007 327.865993,197 324,197 C320.134007,197 317,200.134007 317,204 C317,207.865993 320.134007,211 324,211 Z M322.923077,200.57268 C322.923077,199.980255 323.401085,199.5 324,199.5 C324.594768,199.5 325.076923,199.991005 325.076923,200.57268 L325.076923,204.42732 C325.076923,205.019745 324.598915,205.5 324,205.5 C323.405232,205.5 322.923077,205.008995 322.923077,204.42732 L322.923077,200.57268 Z M322.923077,207.426922 C322.923077,206.832153 323.401085,206.349998 324,206.349998 C324.594768,206.349998 325.076923,206.828007 325.076923,207.426922 C325.076923,208.02169 324.598915,208.503845 324,208.503845 C323.405232,208.503845 322.923077,208.025836 322.923077,207.426922 Z" id="Combined-Shape-Copy-2"/></g></g></svg>