<?xml version="1.0" encoding="UTF-8" standalone="no"?><svg width="474px" height="187px" viewBox="0 0 474 187" version="1.1" xmlns="http://www.w3.org/2000/svg" xmlns:xlink="http://www.w3.org/1999/xlink" xmlns:sketch="http://www.bohemiancoding.com/sketch/ns"><defs/><g id="Page-1" stroke="none" stroke-width="1" fill="none" fill-rule="evenodd" sketch:type="MSPage"><g id="intro-gamified-1-1" sketch:type="MSArtboardGroup"><path d="M18.7070312,170.941406 L89.1328125,119.511719 L167.064362,116.788015 L231.643097,28 L302.912415,71.7555504 L373.583771,51.5571098 L452.102295,28" id="Path-34" stroke="#FFC10D" stroke-width="5" sketch:type="MSShapeGroup"/><path d="M88.5,132 C95.9558445,132 102,125.955844 102,118.5 C102,111.044156 95.9558445,105 88.5,105 C81.0441555,105 75,111.044156 75,118.5 C75,125.955844 81.0441555,132 88.5,132 Z" id="Oval-42" stroke="#FFFFFF" stroke-width="6" fill="#FFC10D" sketch:type="MSShapeGroup"/><path d="M164.5,127 C171.955844,127 178,120.955844 178,113.5 C178,106.044156 171.955844,100 164.5,100 C157.044156,100 151,106.044156 151,113.5 C151,120.955844 157.044156,127 164.5,127 Z" id="Oval-42" stroke="#FFFFFF" stroke-width="6" fill="#FFC10D" sketch:type="MSShapeGroup"/><path d="M231.5,49 C238.955844,49 245,42.9558445 245,35.5 C245,28.0441555 238.955844,22 231.5,22 C224.044156,22 218,28.0441555 218,35.5 C218,42.9558445 224.044156,49 231.5,49 Z" id="Oval-42" stroke="#FFFFFF" stroke-width="6" fill="#FFC10D" sketch:type="MSShapeGroup"/><path d="M304.5,86 C311.955844,86 318,79.9558445 318,72.5 C318,65.0441555 311.955844,59 304.5,59 C297.044156,59 291,65.0441555 291,72.5 C291,79.9558445 297.044156,86 304.5,86 Z" id="Oval-42" stroke="#FFFFFF" stroke-width="6" fill="#FFC10D" sketch:type="MSShapeGroup"/><path d="M378.5,60 C385.955844,60 392,53.9558445 392,46.5 C392,39.0441555 385.955844,33 378.5,33 C371.044156,33 365,39.0441555 365,46.5 C365,53.9558445 371.044156,60 378.5,60 Z" id="Oval-42" stroke="#FFFFFF" stroke-width="6" fill="#FFC10D" sketch:type="MSShapeGroup"/><path d="M449,46 C459.493411,46 468,37.4934108 468,27 C468,16.5065892 459.493411,8 449,8 C438.506589,8 430,16.5065892 430,27 C430,37.4934108 438.506589,46 449,46 Z" id="Oval-42" stroke="#FFFFFF" stroke-width="6" fill="#FFC10D" sketch:type="MSShapeGroup"/><path d="M17.5,183 C24.9558445,183 31,176.955844 31,169.5 C31,162.044156 24.9558445,156 17.5,156 C10.0441555,156 4,162.044156 4,169.5 C4,176.955844 10.0441555,183 17.5,183 Z" id="Oval-42" stroke="#FFFFFF" stroke-width="6" fill="#FFC10D" sketch:type="MSShapeGroup"/></g></g></svg>