<?xml version="1.0" encoding="UTF-8" standalone="no"?><svg width="559px" height="163px" viewBox="0 0 559 163" version="1.1" xmlns="http://www.w3.org/2000/svg" xmlns:xlink="http://www.w3.org/1999/xlink" xmlns:sketch="http://www.bohemiancoding.com/sketch/ns"><defs/><g id="Page-1" stroke="none" stroke-width="1" fill="none" fill-rule="evenodd" sketch:type="MSPage"><g id="intro-gamified" sketch:type="MSArtboardGroup"><circle id="Oval-21" fill="#E33030" sketch:type="MSShapeGroup" cx="80.5" cy="81.5" r="80.5"/><circle id="Oval-21" fill="#81D700" sketch:type="MSShapeGroup" cx="279.5" cy="81.5" r="80.5"/><g id="Imported-Layers" sketch:type="MSLayerGroup" transform="translate(30.000000, 38.000000)"><path d="M90.592442,53 L78.0169463,53 C74.7361464,59.2488555 70.6825962,64.2479399 66,68 L90.592442,68 C94.6839519,68 98,64.6324849 98,60.4986266 C98,56.3565281 94.6839519,53 90.592442,53" id="Fill-1" fill="#3D1F16" sketch:type="MSShapeGroup"/><path d="M97.8485752,41.8167128 C93.0060656,37.4795267 88.4398065,37.6212648 85.4660506,38.4830325 C85.2845919,38.536893 85.1193832,38.5992577 84.9433412,38.655953 C83.8925058,42.2419271 82.5681281,45.6918326 81,49 C82.8037536,48.1694147 84.014381,47.129057 84.4206318,46.7435293 L84.4747986,46.7038427 C84.5614654,46.6273041 84.5966738,46.6017912 84.6752156,46.5195831 C84.8052159,46.4033579 85.877718,45.4565473 87.4323045,45.0625154 C89.4852252,44.5380844 91.4921042,45.1900797 93.577525,47.0468489 C94.9533611,48.2856399 97.0306569,48.118389 98.2114926,46.6669908 C99.3923283,45.2269316 99.2271196,43.0498343 97.8485752,41.8167128" id="Fill-2" fill="#6B8937" sketch:type="MSShapeGroup"/><path d="M97.9939091,32.8282882 C97.4716103,22.2974845 93.1688633,14.9722874 86.3458175,10 C86.7907386,13.0164144 87.0256349,16.0568109 87.0256349,19.1878064 C87.0256349,24.6557237 86.3181826,30.1502878 85,35 L96.1976434,35 C98.2011705,35 97.9939091,32.8282882 97.9939091,32.8282882" id="Fill-3" fill="#C67A46" sketch:type="MSShapeGroup"/><path d="M16,17.6902644 L16.7503374,9.46472873 L30.0539811,4.10324521 L41.2901484,2 L58.9014845,2.38591655 C58.9041835,2.38591655 71.2631579,4.29344694 71.8299595,4.68487658 C72.391363,5.0570104 78.9446694,6.02180178 78.9446694,6.02180178 C78.9446694,6.02180178 84,9.46472873 84,10.2200226 C84,10.9890991 78.9446694,19.7962661 78.9446694,19.7962661 L38.4831309,24 L20.8690958,22.85052 L16,17.6902644" id="Fill-4" fill="#FFBD7B" sketch:type="MSShapeGroup"/><path d="M72,53.0580607 C64.5561459,53.0580607 52.4177735,63.9312431 51.048539,64.6807537 C49.6793045,65.4329034 48.4296064,64.6200539 48.4296064,64.6200539 C33.1316711,53.2876643 27,53 27,53" id="Fill-5" fill="#FF9700" sketch:type="MSShapeGroup"/><path d="M96.1520541,71 L63.1822496,71 C56.9444986,75.8912778 49.7876717,79.5624237 42,82 L93.2615879,82 C96.42397,82 98.9908562,79.632299 98.9908562,76.4986562 C98.9908562,73.3757635 99.311717,71 96.1520541,71" id="Fill-6" fill="#C67A46" sketch:type="MSShapeGroup"/><path d="M4.0505564,71 C0.883456904,71 1.00055517,73.3757635 1.00055517,76.4986562 C1.00055517,79.632299 3.56582406,82 6.73837,82 L41.7861521,82 C49.585441,79.5624237 56.7529439,75.8912778 63,71 L4.0505564,71" id="Fill-7" fill="#E29256" sketch:type="MSShapeGroup"/><path d="M78,53 L69.6498569,53 C69.5236244,53 69.2631021,53.3158762 68.8494893,53.3158762 C62.4814645,53.3158762 52.084744,63.2288958 50.9137364,63.907343 C49.7427289,64.5748031 48.6657243,63.665629 48.6657243,63.665629 C35.5751493,53.4504669 30.3271018,53 30.3271018,53 L9.33491183,53 C5.27935824,53 2,56.3565281 2,60.4986266 C2,64.6324849 5.27935824,68 9.33491183,68 L66.0965473,68 C70.7349189,64.2479399 74.7501855,59.2488555 78,53" id="Fill-8" fill="#562C1F" sketch:type="MSShapeGroup"/><path d="M81.558,48 C81.375,48.084 81.192,48.174 81,48.252 C81.195,48.174 81.375,48.084 81.558,48" id="Fill-9" fill="#A0CE51" sketch:type="MSShapeGroup"/><path d="M84.480262,38.9860423 C84.6553033,38.9320126 84.8195728,38.8725799 85,38.8212517 C82.2316548,39.5938766 80.3681383,41.1310221 79.8403215,41.6064836 L79.7810768,41.6470059 C79.7164461,41.7118415 79.6437367,41.7658712 79.5764131,41.8307069 C79.5656413,41.8442143 78.5396301,42.7411076 77.0477398,43.1625394 C75.1626798,43.6893291 73.312628,43.2651959 71.4167963,41.8550203 C71.1313443,41.6226925 70.8485853,41.3903647 70.5685193,41.1796488 C70.5227392,41.1499325 70.485038,41.1148131 70.441951,41.0877983 C66.05784,37.8973435 61.9995751,38.0621342 59.274317,38.8212517 C56.5113576,39.5938766 54.6451482,41.1310221 54.1227173,41.6064836 L54.0661655,41.6470059 C53.9746054,41.719946 53.9422901,41.7523638 53.8695807,41.8199009 C53.7349335,41.9360648 52.6685281,42.8410626 51.1227789,43.2138676 C49.3104284,43.6515083 47.5303932,43.2138676 45.7072709,41.8658262 C45.416433,41.6226925 45.1282882,41.3903647 44.8455292,41.1742458 C44.8024421,41.147231 44.759355,41.1148131 44.7189609,41.0877983 C40.3348499,37.8973435 36.279278,38.0621342 33.5594057,38.8212517 C31.5046903,39.4020711 29.9454764,40.3962179 29.0621911,41.0634849 C28.9490875,41.1310221 28.830598,41.2228726 28.7121086,41.3120216 C26.6439284,43.0923008 24.6457648,43.710941 22.6099001,43.2138676 C21.338831,42.9085997 20.3936081,42.2440342 20.021982,41.9468708 C19.9654302,41.898244 19.9115713,41.8550203 19.8550195,41.809095 C19.7876959,41.7469608 19.7526877,41.7172445 19.6692065,41.6470059 L19.6153476,41.6064836 C19.0875308,41.1310221 17.2213214,39.4155786 14.4556691,38.6348492 C13.5508403,38.3917154 12.4952067,38 11.3318554,38 L11.3291625,38 L11.1029553,38 L10.9144493,38 L10.8632833,38 C9.71339674,38 8.66853492,38.3917154 7.77178495,38.6348492 C4.87417844,39.4506979 2.96488196,41.1850518 2.54478288,41.5767672 C2.41552162,41.6821252 2.27818153,41.8334084 2.14622734,41.9549752 C0.772826482,43.1247186 0.611249911,45.2318775 1.78268005,46.5961279 C2.95680313,47.9765871 5.0222903,48.3791085 6.39299821,47.2012607 C7.93605446,45.8667267 9.4467954,45.3723548 10.9656152,45.3723548 L11.113727,45.3723548 L11.2645318,45.3723548 C12.7133351,45.3723548 14.1594454,45.8262044 15.6324851,47.0445745 C16.3030279,47.6172895 18.0911419,48.8734804 20.6548235,49.5920756 C21.6108183,49.8622242 22.7310825,50 23.9698362,50 C26.525439,50 29.587315,49.1544349 32.7730664,46.4826655 L32.7838381,46.479964 C32.7973029,46.474561 33.8152353,45.5668618 35.3125115,45.1481315 C37.2056503,44.6213417 39.058395,45.050878 40.9623056,46.4664566 C41.2019775,46.658262 41.4416494,46.8500675 41.6786284,47.0337686 C41.7540308,47.0932013 41.8348191,47.1526339 41.9102215,47.2120666 C44.7566621,49.2841063 47.4576837,49.9432688 49.7574569,49.9432688 C51.0015965,49.9432688 52.1218607,49.7433588 53.0832413,49.4894192 C55.8515866,48.7059883 57.7124101,47.1715443 58.2429198,46.6933814 L58.2940858,46.6555606 C58.3829529,46.5826204 58.4152682,46.5583071 58.4906706,46.479964 C58.6226248,46.3692031 59.6890302,45.4669068 61.2347793,45.0914003 C63.0552087,44.6429536 64.8406298,45.0968032 66.6772168,46.4583521 C66.9141958,46.6555606 67.1538677,46.8419631 67.3881538,47.0175597 C67.471635,47.0904998 67.5497303,47.1445295 67.6385974,47.2120666 C70.4769592,49.2841063 73.1860597,49.9432688 75.480447,49.9432688 C76.7218937,49.9432688 77.8448508,49.7433588 78.8035385,49.4894192 C79.439073,49.3057181 80.0234416,49.0841963 80.5593372,48.8410626 C82.1185512,45.6911301 83.4354002,42.4034219 84.480262,38.9860423" id="Fill-10" fill="#A0CE51" sketch:type="MSShapeGroup"/><path d="M81.525,48 C81.36,48.087 81.18,48.183 81,48.276 C81.18,48.183 81.36,48.087 81.525,48" id="Fill-11" fill="#A0CE51" sketch:type="MSShapeGroup"/><path d="M84.132,47 C84.096,47.039 84.045,47.072 84,47.117 C84.045,47.072 84.093,47.039 84.132,47" id="Fill-12" fill="#A0CE51" sketch:type="MSShapeGroup"/><path d="M83.332,47 C82.972,47.267 82.522,47.555 82,47.855 C82.522,47.555 82.972,47.267 83.332,47" id="Fill-13" fill="#A0CE51" sketch:type="MSShapeGroup"/><path d="M83.24,47 C83.165,47.054 83.087,47.12 83,47.186 C83.087,47.12 83.162,47.054 83.24,47" id="Fill-14" fill="#A0CE51" sketch:type="MSShapeGroup"/><path d="M87.2818654,10.227019 C78.3959666,3.45229999 65.1660312,1 50.3832992,1 C24.3949582,1 3.19237435,8.49695294 2,33.7778865 C2,36.2274404 3.82108083,35.9940188 3.82108083,35.9940188 L86.0136127,35.9940188 C87.3062549,30.9960502 88,25.3472472 88,19.7094287 C88,16.4854643 87.769655,13.3383918 87.3333543,10.2297651 L87.2818654,10.227019 Z M22.1123017,12.6063992 C20.7701183,13.1670007 19.416414,13.1244551 19.079428,12.5062918 C18.7338014,11.9056473 19.5489042,10.9521243 20.8882074,10.3915228 C22.2275106,9.83592665 23.5840952,9.87596961 23.9239613,10.4841221 C24.2609473,11.0997827 23.4458445,12.043295 22.1123017,12.6063992 C22.1123017,12.6063992 23.4458445,12.043295 22.1123017,12.6063992 L22.1123017,12.6063992 L22.1123017,12.6063992 Z M36.004169,5.51939389 C35.9252862,5.05439389 36.9752438,4.43639389 38.3543333,4.15139389 C39.7307027,3.85739389 40.9139451,4.00439389 40.995548,4.48139389 C41.0771509,4.95839389 40.0271933,5.56139389 38.6481038,5.85539389 C37.2690144,6.14339389 36.0857719,5.99039389 36.004169,5.51939389 C36.004169,5.51939389 36.0857719,5.99039389 36.004169,5.51939389 L36.004169,5.51939389 L36.004169,5.51939389 Z M41.7614958,14.9199453 C40.3876268,15.1881172 39.1546675,14.7595952 39.0137579,13.9771969 C38.8701384,13.1920339 39.8673451,12.3432839 41.2385042,12.0778767 C42.6096634,11.8152341 43.8426227,12.2382269 43.9862421,13.0261544 C44.1298616,13.8196114 43.1326549,14.6573028 41.7614958,14.9199453 C41.7614958,14.9199453 43.1326549,14.6573028 41.7614958,14.9199453 L41.7614958,14.9199453 L41.7614958,14.9199453 Z M61.9822539,6.13016838 C61.8216646,6.73916838 60.5784823,6.89516838 59.1996297,6.47216838 C57.8318522,6.03416838 56.8544727,5.19116838 57.0178308,4.58516838 C57.1756513,3.97016838 58.4216024,3.81116838 59.7949174,4.24616838 C61.1626949,4.66616838 62.1456119,5.52116838 61.9822539,6.13016838 C61.9822539,6.13016838 62.1456119,5.52116838 61.9822539,6.13016838 L61.9822539,6.13016838 L61.9822539,6.13016838 Z M71.9607718,15.3237368 C71.7157557,16.0187449 70.4127152,16.2080467 69.0567735,15.751018 C67.6952632,15.299398 66.7931582,14.3745234 67.0409587,13.6795153 C67.2859748,12.9845072 68.5862311,12.7925011 69.944957,13.2441211 C71.2981145,13.6984455 72.2030037,14.6287287 71.9607718,15.3237368 C71.9607718,15.3237368 72.2030037,14.6287287 71.9607718,15.3237368 L71.9607718,15.3237368 L71.9607718,15.3237368 Z M81.9744727,9.37862578 C81.7873712,9.92162578 80.5173489,9.92162578 79.1537759,9.37262578 C77.7845331,8.82062578 76.8320164,7.94762578 77.0247877,7.40462578 C77.2175589,6.86462578 78.4847463,6.86462578 79.8511542,7.40762578 C81.220397,7.95362578 82.1700788,8.83862578 81.9744727,9.37862578 L81.9744727,9.37862578 Z" id="Fill-15" fill="#E29256" sketch:type="MSShapeGroup"/></g><g id="Oval-51-copy-2-+-Rectangle-104-+-Imported-Layers" sketch:type="MSLayerGroup" transform="translate(377.000000, -21.000000)"><g id="Oval-51-copy-2-+-Rectangle-104" sketch:type="MSShapeGroup"><circle id="Oval-51-copy-2" fill="#FFC400" cx="101.5" cy="102.5" r="80.5"/><path d="M54.3407694,40.5842466 C17.3813217,41.8859031 -1.82726238,63.4657801 -7.95437026,74.2252222 C21.6993577,74.2252222 85.8203843,74.2252214 122.77442,74.2252214 C107.967985,58.0026204 91.3002171,39.28259 54.3407694,40.5842466 Z" id="Rectangle-104" fill="#FFB103" transform="translate(57.310873, 57.379068) rotate(-45.000000) translate(-57.310873, -57.379068)"/><path d="M200.525109,145.751245 C200.525111,145.751245 137.341366,145.751245 105.223481,145.751245 C116.314837,153.712217 134.865687,162.904951 153.489732,161.833587 C172.113777,160.762224 185.007431,156.808226 200.525109,145.751245 Z" id="Rectangle-104" fill="#FFB103" transform="translate(152.933832, 153.751245) rotate(-45.000000) translate(-152.933832, -153.751245)"/><path d="M171.039982,83.9242384 C162.131403,83.7866163 68.3212132,83.9242384 16.9618288,83.9242384 C14.2763422,92.3167824 12.8925121,101.027178 13.7708713,105.597315 L173.601051,105.597315 C173.601051,105.597315 173.066699,92.2470384 171.039982,83.9242384 Z" id="Rectangle-104" fill="#FFB103" transform="translate(93.310136, 94.924238) rotate(-45.000000) translate(-93.310136, -94.924238)"/><path d="M202.717102,126.51975 L59.5859841,126.51975 C62.0290933,131.037955 62.3943858,133.48866 66.6750058,137.872314 L194.947214,137.872314 C197.356487,135.37658 200.888569,129.643077 202.717102,126.51975 Z" id="Rectangle-104" fill="#FFB103" transform="translate(131.000553, 132.019750) rotate(-45.000000) translate(-131.000553, -132.019750)"/></g><g id="Imported-Layers" transform="translate(60.185897, 81.121795)" fill="#A8A8A8" sketch:type="MSShapeGroup"><path d="M0.166987566,-0.149380812 L0.166987566,-0.149380812 C0.172557913,-0.157776761 0.183698605,-0.216548408 0.183698605,-0.216548408 L0.166987566,-0.149380812" id="Fill-3"/></g></g><g id="Imported-Layers" sketch:type="MSLayerGroup" transform="translate(226.000000, 26.000000)"><path d="M49.6492119,40.6995258 C49.6492119,40.6995258 51.1003206,41.0583458 52.7267491,38.8347092 C54.3612693,36.6084535 56.262815,34.3979126 53.8676765,34.238146 C48.2061949,33.8478965 42.482677,33.3004995 36.805012,33.0228723 C34.1779119,32.8997734 31.5858758,33.2428787 29.4280934,34.806496 C28.6755667,35.3565121 27.9473152,36.0112932 27.3350444,36.7053611 C22.9574433,41.7340799 25.0127311,39.2747221 19.37013,45.1206077 C13.727529,50.9664933 19.3323688,54.8637503 24.0147567,49.3373979 C28.6917501,43.821522 31.6910677,41.1709682 31.6964621,41.1683491 C34.0996923,39.0442392 37.4604384,39.3585341 40.5110033,39.672829 C43.5561738,39.9897431 46.6094359,40.3433249 49.6492119,40.6995258" id="Fill-2" fill="#C17B4C" sketch:type="MSShapeGroup"/><path d="M87.8020164,47.9001496 C79.9314548,52.5919299 77.1452973,53.5912526 77.1239679,53.6018555 C75.9561813,54.0100669 75.1589937,54.7098579 73.7832451,54.420929 C71.9809078,54.0445263 70.9784244,52.3931257 70.1225808,50.9219742 C69.3280593,49.5435981 68.3815656,48.260648 67.3924131,47.0068558 C66.51524,45.8909013 65.3527858,44.7457888 65.0994988,43.2905417 C64.5422673,40.0699128 66.5525666,37.3608736 68.9441295,35.4603049 C70.9117699,35.5530802 72.8874088,35.574286 74.8497169,35.728028 C75.1829893,35.7545352 75.5189279,35.7863439 75.8495341,35.7916453 C76.5933982,35.8075497 77.1426311,35.823454 77.6945303,35.2615007 C78.3077515,34.6279778 78.8623169,33.9149332 79.3875542,33.2098408 C80.0647638,32.2847384 80.5500084,31.3092722 81.0085913,30.2622365 C81.2432151,29.7188382 81.5498257,28.8573531 81.9897453,28.4623953 C82.4190002,28.0674375 83.4054866,28.5101083 83.9253915,28.571075 C84.1653477,28.5949315 84.3999715,28.6161373 84.6399276,28.6718024 C84.6399276,28.6718024 85.9223599,28.9607313 85.3811255,26.5273673 C85.3517975,26.3895296 85.3331343,26.2702471 85.3198034,26.1721703 C84.7332439,23.5930165 83.9333901,20.1020139 83.9333901,20.109966 C83.9200592,19.7282619 83.9040621,19.343907 83.8667356,18.9675043 C83.1548657,11.6647615 77.883829,6.00016567 71.4823323,6.00016567 C71.4823323,6.00016567 71.3276939,5.99751495 71.0557436,6.01341929 C70.5465033,6.03462507 70.0479278,6.08498882 69.5546846,6.17246269 C65.8140349,6.77417689 58.0207925,9.38779011 59.0206097,20.8786758 C59.0259421,21.0350685 59.0259421,21.1914612 59.0339406,21.3452031 L59.0179436,21.3425524 C59.0259421,21.384964 59.0339406,21.4353277 59.039273,21.48039 C59.0872642,22.5141721 59.2285717,23.5134948 59.4498646,24.4863103 C59.841793,27.9402028 59.9004489,31.6353111 58.5753578,34.7048488 C56.5357305,39.4310885 52.7044307,43.5185039 49.7156436,47.6642352 C47.0947893,51.3010276 44.4099466,54.8795042 41.7570981,58.4897894 C41.2158637,59.2240397 40.6719631,59.9529886 40.1227301,60.6792868 C37.5178728,64.1543851 37.1152797,69.3816116 40.0134168,72.8249012 C40.9012545,73.8745877 42.0503778,74.858006 43.1941688,75.6240651 C52.9843796,82.216414 61.9854012,88.5092312 61.9854012,88.5092312 L50.315534,103.811857 C50.315534,103.811857 46.7535183,108 52.6884336,108 L66.3899296,108 C71.8129385,108 69.2800681,105.863517 67.6030412,104.630931 C66.1633044,103.634259 64.790222,102.947721 62.8785713,102.947721 C57.9328085,102.947721 57.2369357,103.302918 57.2369357,103.302918 C57.5168846,102.929166 57.7994996,102.587223 58.074116,102.218772 C58.772655,101.291019 59.4658617,100.37652 60.1590683,99.4461158 C61.0709017,98.2400366 61.9800689,97.0286561 62.8919022,95.8172755 C63.8117341,94.5820384 64.7368984,93.3574042 65.6593965,92.1195164 C66.2672854,91.3083951 66.8778404,90.4999245 67.4910617,89.6914539 C67.9896373,89.0234716 68.5735305,88.3899487 69.0321134,87.6901577 C69.3200608,87.2421855 69.4400388,86.7995147 69.4480374,86.26937 C69.4560359,85.3999328 68.773494,84.3847057 68.2402581,83.7405799 C67.659031,83.0460904 66.9364964,82.4019647 66.2406236,81.824107 C65.2914637,81.0500957 64.374298,80.2283715 63.4757955,79.3960444 C62.5399665,78.5239564 61.6281332,77.6306626 60.7216322,76.7347181 C59.8791195,75.8891374 59.0526039,75.0356045 58.2234221,74.1741194 C57.5462125,73.469027 56.8876662,72.7374273 56.215789,72.0323349 C55.8451901,71.6347264 55.4905882,71.2159121 55.1039922,70.8262558 C54.6960667,70.4286473 54.2588133,69.9939287 54.1521661,69.416071 C54.0188572,68.7374858 54.3681267,68.0721542 54.6427432,67.4730908 C54.7973816,67.1364489 54.9760156,66.8077592 55.1626481,66.484371 C57.2182725,62.9085452 59.2685644,59.6455047 60.5536629,55.6720704 C60.8389441,54.7867288 61.3295211,53.4772715 62.457315,54.0524785 C63.4224719,54.5508145 64.0063652,55.6508647 64.6782424,56.461986 C65.5794111,57.5487826 66.5312371,58.5878661 67.4910617,59.6296004 C68.4775481,60.7084448 69.6373361,61.8800645 71.1757216,62.0338065 C73.6366052,62.2829745 76.100155,60.8356795 78.1744426,59.690567 C82.7149461,57.1909349 87.2127908,54.3944218 91.4680131,51.4362145 C96.4111097,47.9982264 93.5423007,44.0645529 87.8020164,47.9001496" id="Fill-3" fill="#C17B4C" sketch:type="MSShapeGroup"/><path d="M34.2959647,69.8062012 C34.11336,69.3375423 33.801858,68.9685407 33.1895953,69.0439571 C32.8566104,69.0897456 32.4215817,69.4964553 32.1637869,69.7038504 C31.8469141,69.9543405 31.5488389,70.2371519 31.2427075,70.5064961 C30.5337718,71.1313746 29.8678019,71.8020416 29.2045174,72.4700152 C28.831252,72.852484 28.4553013,73.2268724 28.0766651,73.6012608 C27.0615981,74.5924474 26.038475,75.5728603 25.023408,76.5613535 C24.193631,77.3586123 23.3611686,78.1585645 22.5287062,78.9531299 C21.9996898,79.4621904 21.467988,79.9631706 20.9443423,80.4749246 C20.7187719,80.6877065 20.5012575,80.9031818 20.2756871,81.1078834 C20.2730017,81.1132703 20.2273506,81.1590588 20.2273506,81.1617522 L8.81455993,68.3840638 C8.81455993,68.3840638 5.60286638,64.5432157 4.57437255,69.6580619 C3.95673917,72.7339725 2.96046968,77.7087597 2.20588282,81.4688046 C1.26869131,86.1419263 3.75802235,84.3696416 5.11144505,83.1468189 C6.2178144,82.0721356 7.15500591,81.032467 7.48799086,79.3813871 C8.34730686,75.1176686 8.21035337,74.4712425 8.21035337,74.4712425 L19.5533246,87.1465802 C19.5533246,87.1465802 20.7295133,89.6918828 25.2731467,85.9910936 C26.1082944,85.3150397 26.9756665,84.6632267 27.8537801,84.0329613 C28.7668033,83.3838418 29.6932534,82.7481895 30.6250742,82.123311 C31.5031877,81.544221 32.3893573,80.989372 33.2755269,80.4183623 C33.9065871,80.0224263 34.543018,79.6318772 35.1794489,79.2413282 C35.7192068,78.9127283 36.2831329,78.6514644 36.8309469,78.3417186 C37.1102246,78.1854989 37.3733901,78.0023449 37.6150727,77.7841761 C37.7439701,77.6602778 38.0178771,77.4528827 37.9990796,77.2427943 C37.9775967,77.0165452 37.6660946,76.8226173 37.5237704,76.6690911 C37.2713463,76.3835863 37.0484612,76.071147 36.8309469,75.7614012 C36.3717499,75.1176686 35.9582041,74.4389212 35.6117923,73.730546 C35.3110317,73.1326019 35.0559223,72.4592414 34.8491494,71.8020416 C34.6423764,71.1529221 34.5510741,70.4418535 34.2959647,69.8062012" id="Fill-4" fill="#C17B4C" sketch:type="MSShapeGroup"/><path d="M8.45785268,68.3430662 C8.45785268,68.3430662 5.41427481,64.6159886 4.43961735,69.5793269 C3.85431392,72.5641254 2.91019402,77.3915534 2.19510591,81.0402213 C1.30697157,85.5749195 3.6659989,83.8551319 4.94857686,82.6685308 C5.99703345,81.6256809 6.8851678,80.6168085 7.20072269,79.0146356 C8.01505791,74.8772135 7.88527324,74.2499354 7.88527324,74.2499354 L8.6487125,75.1202838 C8.66907088,75.0627833 8.68179487,75.0235784 8.68179487,75.0235784 C8.68179487,75.0235784 10.0661647,75.2823307 9.12204485,73.5390202 C8.17792495,71.793096 8.55709979,68.4972721 9.87784972,69.9818304 C9.91856648,70.0314899 9.96182804,70.0706948 10,70.107286 L8.45785268,68.3430662" id="Fill-5" fill="#FFDA00" sketch:type="MSShapeGroup"/><path d="M32.9320212,80.5467574 C33.6038238,80.1451686 34.3292578,79.7490437 34.9897696,79.3529188 C35.5627777,79.0196275 36.180949,78.7546336 36.7539572,78.4404655 C37.047518,78.2820155 37.3382561,78.0962466 37.5894764,77.874963 C37.7277887,77.7492958 38.0213495,77.5389398 37.9987679,77.3258519 C37.9818317,77.0963727 37.6600439,76.8996761 37.5104408,76.7439581 C37.245107,76.4543771 37.0108229,76.1374771 36.7821842,75.8233091 C36.2995024,75.170386 35.8648066,74.4819482 35.5006783,73.7634595 C35.1845359,73.1569786 34.9163794,72.4740046 34.6990315,71.8074219 C34.4816836,71.149035 34.3857118,70.4278144 34.1175553,69.783087 C33.9256117,69.3077371 33.5981784,68.9334673 32.9546028,69.0099604 C32.604588,69.0564026 32.1473106,69.4689189 31.8763314,69.6792749 C31.5432528,69.9333412 31.1198478,70.17648 30.7952373,70.4524015 C30.2899739,70.8840411 30.1262573,71.4304203 29,72.2472572 L29,83" id="Fill-6" fill="#B17145" sketch:type="MSShapeGroup"/><path d="M65.9308459,30.0701138 C65.9308459,27.5733875 64,29.786453 64,33.2031605 C64,35.7407749 64.1750342,39.7324705 64.4430553,41 C64.8177378,38.7613794 66.4887673,36.8575297 68.4032038,35.4315591 C70.4215667,35.5210017 72.4481344,35.5414457 74.4582926,35.6947759 C74.8001563,35.7203309 75.1420199,35.7458859 75.4838836,35.7535524 C76.2414534,35.7688854 76.8075796,35.781663 77.3764407,35.2373408 C77.5897636,35.0354561 77.7948818,34.8156828 78,34.5933541 L68.7040438,33.3897122 C68.7040438,33.3897122 65.9308459,33.4817103 65.9308459,30.0701138" id="Fill-7" fill="#B17145" sketch:type="MSShapeGroup"/><path d="M80,20.9974359 C80,22.1025641 79.1071199,23 78.0038486,23 C76.8980115,23 76,22.1025641 76,20.9974359 C76,19.8923077 76.8980115,19 78.0038486,19 C79.1071199,19 80,19.8923077 80,20.9974359" id="Fill-8" fill="#FFFFFF" sketch:type="MSShapeGroup"/><path d="M40.3779891,39.8769386 C43.4511153,40.2165325 46.5324075,40.5954182 49.6000897,40.9771105 C49.6000897,40.9771105 51.0645201,41.3616093 52.7058798,38.9788391 C54.3554055,36.5932623 56.2744081,34.2245249 53.8572814,34.0533247 C53.6476882,34.0364853 53.432651,34.0196459 53.2176138,34 L37,39.6355744 C38.1296257,39.6383809 39.2728613,39.759063 40.3779891,39.8769386" id="Fill-9" fill="#B17145" sketch:type="MSShapeGroup"/><path d="M53.9950612,67.5336959 C54.1507408,67.1991162 54.3305776,66.8724399 54.5184668,66.5510325 C56.5879321,62.9971106 58.6520292,59.754058 59.9457805,55.804963 C59.9994632,55.6363559 60.0611982,55.4598453 60.1336697,55.2727968 C59.8840455,55.2938727 59.5834228,55.3096796 59.2318016,55.3096796 C56.1799442,55.3096796 52.3926347,53.0334835 52.3926347,48.7287329 C52.3926347,44.4266168 55.5786987,39.6055069 59.894782,39.6055069 C62.9761649,39.6055069 64.0578699,41.3310954 64.42828,42.3216623 C64.4417007,41.4391094 64.653747,40.6013427 65,39.8189003 C63.7438265,37.6006629 60.976487,37 59.3606399,37 C58.2440412,37 57.2643333,37.28189 56.6389306,37.5242628 C54.4943096,41.1703918 51.4827142,44.4951135 49.0347863,47.84618 C46.3962852,51.4606952 43.6933648,55.0172516 41.0226541,58.6054219 C40.6817694,59.0559191 40.346253,59.5037818 40,59.9648169 C46.2728151,65.4840656 52.4409491,67.5863857 53.7830148,68 C53.8501181,67.8445653 53.9225896,67.6864961 53.9950612,67.5336959" id="Fill-10" fill="#FFD833" sketch:type="MSShapeGroup"/><path d="M59,74.9704224 C58.6703574,74.6282742 58.3354405,74.2808623 58.0031607,73.9387141 C57.3333269,73.2386264 56.6819531,72.5122196 56.0173936,71.8121318 C55.650831,71.4173455 55.3000912,71.0015039 54.9177058,70.6146134 C54.5142232,70.219827 54.0817321,69.788194 53.9762464,69.2144379 C53.8443894,68.5406693 54.1898549,67.8800602 54.4614804,67.2852488 C54.4878518,67.2273468 54.5194975,67.1773405 54.5458689,67.1141747 L41.2441298,59 C40.8670186,59.5132222 40.4846332,60.0290763 40.0996106,60.5396666 C37.5231239,63.990099 37.1249156,69.1802231 39.9914878,72.5990726 C40.8696558,73.6413084 42.0062635,74.6177466 43.137597,75.3783682 C45.4793782,76.970673 47.7816023,78.5313949 49.9229608,80 L59,74.9704224" id="Fill-11" fill="#FFFFFF" sketch:type="MSShapeGroup"/><path d="M66.9651717,104.457688 C65.5554416,103.409765 64.2109768,102.687925 62.3391685,102.687925 C57.4964846,102.687925 56.815115,103.061387 56.815115,103.061387 C57.0892292,102.668416 57.365954,102.308889 57.634847,101.921492 C57.8463065,101.617706 58.0551554,101.33343 58.2613937,101.038005 C58.185686,101.012921 57.2563083,100.737006 55.5568004,102.147242 C53.7815847,103.635515 51.4868574,102.361843 51.8471217,101.291624 C51.8497324,101.269328 51.8497324,101.266541 51.8497324,101.255393 L50.0379681,103.596496 C50.0379681,103.596496 46.5501914,108 52.3614122,108 L65.7773436,108 C71.087327,108 68.6072462,105.753656 66.9651717,104.457688" id="Fill-12" fill="#FFDA00" sketch:type="MSShapeGroup"/><path d="M81,28.027551 C80.9975119,28.027551 76.7926942,27.5749484 75.2227297,30.3386531 C74.075735,32.3640497 77.6908831,32.0076252 78.5218944,31.9199334 C78.9573045,31.8775019 79.3852505,31.7982965 79.8156845,31.7417211 C81.0323448,31.5719952 80.8059315,29.4702218 80.912918,28.5225851 C80.912918,28.4942974 80.957703,28.0247222 81,28.027551" id="Fill-13" fill="#77402F" sketch:type="MSShapeGroup"/><path d="M57.6855145,46.3739451 C57.4140276,46.1486407 57.0196031,45.8676729 56.6661578,46.0691215 C56.1616018,46.3606919 56.1180615,47.3069702 56.0745211,47.8105918 C55.9080432,49.75086 56.0463479,51.7494423 56.2358766,53.6817586 C56.240999,53.7321207 56.2384378,54.0528481 56.2947841,54.0873065 C56.2947841,54.0873065 58.3463036,55.3622641 60.3363543,54.8984022 C60.3491603,54.8957515 60.3542827,54.8957515 60.3645274,54.885149 C60.6590652,54.1138128 61.135448,53.3583805 62.003694,53.8222425 C62.3878737,54.0289924 62.7105846,54.3391172 63,54.6890017 C62.4570261,53.7798323 58.9584298,47.9404731 58.9558686,47.9298705 C58.6152293,47.3573324 58.1900705,46.7953968 57.6855145,46.3739451" id="Fill-14" fill="#B17145" sketch:type="MSShapeGroup"/><path d="M59.8264104,55.3693977 C59.8760074,55.2049672 59.933044,55.032829 60,54.8504139 C59.7693738,54.8709677 59.4916305,54.8863831 59.16677,54.8863831 C58.132672,54.8863831 57.0068196,54.5857836 56,54 L56.3893366,63 C57.7234966,60.5669426 58.9634222,58.1467314 59.8264104,55.3693977" id="Fill-15" fill="#E5AE00" sketch:type="MSShapeGroup"/><path d="M57.1285781,108 L61,103.065697 C60.1187236,103.078369 59.406382,102.976996 58.8320038,103.004874 L55,108 L57.1285781,108" id="Fill-16" fill="#FFFFFF" sketch:type="MSShapeGroup"/><path d="M59,108 L60.8688119,108 L64,103.50856 C63.4975248,103.309668 62.9678218,103.055388 62.3836634,103 L59,108" id="Fill-17" fill="#FFFFFF" sketch:type="MSShapeGroup"/><path d="M4,74.8008376 L7.73234201,79 C7.85625774,78.262913 7.94052045,77.6570498 8,77.1600745 L4.30483271,73 C4.20817844,73.5835272 4.10656753,74.1838064 4,74.8008376" id="Fill-18" fill="#FFFFFF" sketch:type="MSShapeGroup"/><path d="M3.3099631,76 C3.20664207,76.5270936 3.10332103,77.0591133 3,77.5812808 L6.41205412,81 C6.65805658,80.6083744 6.8597786,80.179803 7,79.7019704 L3.3099631,76" id="Fill-19" fill="#FFFFFF" sketch:type="MSShapeGroup"/><path d="M60.776133,22.8386606 C60.776133,16.8469734 65.9748349,20.4931507 65.9748349,22.3404754 C65.9748349,24.1851071 70.1547483,24.2874371 70.1547483,22.1385084 C70.1547483,19.9895797 72.5327944,20.0892167 72.5327944,18.443859 C72.5327944,16.7931156 69.8116602,15.6971081 72.4830335,13.1954104 C74.9684582,10.8795223 80.2666818,13.305819 81,13.6478164 C78.9048053,9.08874839 74.8977454,6 70.298793,6 C70.298793,6 70.1442724,6 69.877135,6.01077157 C69.3795263,6.0377005 68.8871555,6.09155837 68.4026418,6.17773094 C65.0634252,6.73246692 58.4321339,8.98103267 58,18.1584124 L58.018333,20.4823791 C58.0314279,20.6951177 58.0419039,20.8997775 58.0628558,21.1179019 C58.0628558,21.2767826 58.0628558,21.4383562 58.0707128,21.5972369 L58.0576179,21.5918511 C58.0628558,21.6349374 58.0680938,21.6807165 58.0733318,21.7238028 C58.1230927,22.776724 58.2618993,23.7973305 58.4766568,24.7802365 C58.6311774,26.1643836 58.7306992,27.5916169 58.7149852,29 C59.5006832,28.472193 60.776133,26.9776373 60.776133,22.8386606" id="Fill-20" fill="#77402F" sketch:type="MSShapeGroup"/><path d="M82.1470255,13.8309952 C83.6209617,12.6346408 84.2834349,7.617928 83.8870152,6.82833409 C83.4905955,6.03608162 77.4165949,4.31864841 77.4165949,4.31864841 L74.1148714,5.37409885 L71.3372732,4.19103727 L68.5676566,3 L61.2990759,6.95860379 L59.5856916,8.4075219 C59.5856916,8.4075219 58.6624861,9.86441571 58.6624861,10.2632005 C58.6624861,10.651351 58.0000129,14.7428831 58.0000129,15.4048659 C58.0000129,16.0668486 56.6777272,17.6513536 57.0741469,18.3080192 C57.4732271,18.9726606 57.6035933,19.2305414 57.73662,19.7622545 C57.8669862,20.291309 57.73662,21.0835614 58.0000129,21.4796877 C58.2660664,21.8758139 59.2664274,24.8215043 59.2664274,24.8215043 C59.2664274,24.8215043 59.5644073,28.5780571 59.5085361,28.9874762 C59.4526649,29.3968953 60.2428437,19.6319848 60.2428437,19.6319848 L62.4909954,13.9559478 L67.7748173,9.85909858 C67.7748173,9.85909858 72.7925857,9.0748218 73.1916659,9.0748218 C73.585425,9.0748218 78.079068,9.73414601 78.079068,9.73414601 L82.1470255,13.8309952" id="Fill-21" fill="#77402F" sketch:type="MSShapeGroup"/><path d="M57,12 L83,12 L83,14.757 L57,14.757 L57,14.757 L57,12 L57,12 Z" id="Fill-22" fill="#FFDA00" sketch:type="MSShapeGroup"/></g><g id="Imported-Layers" sketch:type="MSLayerGroup" transform="translate(422.000000, 36.000000)" fill="#C96E00"><path d="M71.7391304,4.39162666 C71.7391304,6.81421164 69.7857593,8.7804878 67.3913043,8.7804878 C64.9941098,8.7804878 63.0434783,6.81421164 63.0434783,4.39162666 C63.0434783,1.96904167 64.9941098,0 67.3913043,0 C69.7857593,0 71.7391304,1.96904167 71.7391304,4.39162666" id="Fill-1" sketch:type="MSShapeGroup"/><path d="M79.3478261,17.0136881 C79.3478261,19.13672 77.8912198,20.8536585 76.0894942,20.8536585 C74.2852309,20.8536585 72.826087,19.13672 72.826087,17.0136881 C72.826087,14.8966282 74.2852309,13.1707317 76.0894942,13.1707317 C77.8912198,13.1707317 79.3478261,14.8966282 79.3478261,17.0136881" id="Fill-2" sketch:type="MSShapeGroup"/><path d="M72.826087,25.2426488 C72.826087,26.4561714 71.8508041,27.4390244 70.6521739,27.4390244 C69.4560254,27.4390244 68.4782609,26.4561714 68.4782609,25.2426488 C68.4782609,24.036648 69.4560254,23.0487805 70.6521739,23.0487805 C71.8508041,23.0487805 72.826087,24.036648 72.826087,25.2426488" id="Fill-3" sketch:type="MSShapeGroup"/><path d="M60.8695652,84.5391311 C61.1650735,85.706358 61.4297461,87.2349762 61.2241751,88.5009684 C60.8310207,90.9027621 64.4028163,90.087948 66.607565,88.3662884 C67.8101552,87.4257729 69.33395,85.9240907 70.6521739,84.5121951 C67.4426971,84.7254385 64.6649193,84.7052365 62.6965772,84.6289178 C61.9668003,84.6019818 61.3603659,84.5705565 60.8695652,84.5391311" id="Fill-4" sketch:type="MSShapeGroup"/><path d="M88.1693996,31.1142596 C95.4760879,56.1716632 76.7620448,64.9312086 69.7011937,66.3555461 C68.4086474,66.6185408 67.0375345,66.8008144 65.7221786,66.782587 C64.9517196,66.7643596 64.183795,66.670619 63.4361457,66.5143845 C63.0230377,66.4206438 62.6276706,66.2774289 62.2272347,66.1394218 C61.7558355,65.9701678 61.2819018,65.852992 60.9397572,65.4467824 C60.6229566,65.0692157 60.5114428,64.5614537 60.506374,64.0771269 C60.4962364,63.4365656 60.5900094,62.7751731 60.731936,62.1528391 C60.7876929,61.902864 60.9169476,61.5851873 61.2286793,61.73361 C61.4922574,61.8533898 61.6063056,62.1528391 61.702613,62.4080221 C61.9966039,63.1683631 62.5668449,63.7021642 63.2587374,64.0953543 C63.5172466,64.2307575 63.7782903,64.355745 64.0570748,64.4442779 C65.8767773,65.0588001 67.9524546,64.7124804 69.7493474,64.2125301 C93.4663051,57.2262458 86.4003852,30.7731476 86.4003852,30.6663874 C76.011861,41.9907819 61.5632207,51.2320503 46.6837317,51.2320503 C31.8017082,51.2320503 27.4070507,36.600693 27.4070507,36.600693 C27.4070507,36.600693 24.9486783,31.6532684 27.0851813,29.5597267 C29.2292876,27.4739966 33.398383,22.1958757 31.155435,13.1707317 C18.7368528,16.3631225 18.5163596,24.6123021 18.5163596,24.6123021 C7.48916542,20.7663304 0,29.7836627 0,29.7836627 C4.50110247,35.5044479 14.4537091,34.514963 15.2013584,34.514963 C15.9540766,34.514963 20.1282409,32.5307853 19.9128165,39.8008956 C19.3096282,58.942221 26.5250779,72.7377239 41.0370783,79.2110384 C39.268064,82.3721823 36.6170768,83.791312 36.6170768,83.791312 C36.6170768,83.791312 31.04899,87.0930669 37.4711711,88.7413405 C45.7814836,89.7568645 52.0642725,85.7494506 55.3488608,82.9346264 C56.9860861,83.1195038 58.6739995,83.2444914 60.4126011,83.3069852 C60.4176699,83.3069852 60.4176699,83.3147969 60.4176699,83.3200047 C62.0042071,83.395518 66.4748967,83.4892587 71.8402311,82.6950669 C93.7907089,79.2188501 100,62.6996598 100,52.1173789 C100,40.5143663 94.8450212,34.569645 88.1693996,31.1142596 C88.1693996,31.1142596 94.8450212,34.569645 88.1693996,31.1142596 L88.1693996,31.1142596 L88.1693996,31.1142596 Z M68.4740883,55.9756098 C69.6785724,55.9756098 70.6521739,56.9615187 70.6521739,58.174945 C70.6521739,59.3855625 69.6785724,60.3658537 68.4740883,60.3658537 C67.2779493,60.3658537 66.3043478,59.3855625 66.3043478,58.174945 C66.3043478,56.9615187 67.2779493,55.9756098 68.4740883,55.9756098 L68.4740883,55.9756098 Z" id="Fill-5" sketch:type="MSShapeGroup"/></g></g></g></svg>