<?xml version="1.0" encoding="UTF-8" standalone="no"?><svg width="411px" height="121px" viewBox="0 0 411 121" version="1.1" xmlns="http://www.w3.org/2000/svg" xmlns:xlink="http://www.w3.org/1999/xlink" xmlns:sketch="http://www.bohemiancoding.com/sketch/ns"><title>Artboard 14</title><desc>Created with Sketch.</desc><defs/><g id="Page-1" stroke="none" stroke-width="1" fill="none" fill-rule="evenodd" sketch:type="MSPage"><g id="Artboard-14" sketch:type="MSArtboardGroup" fill="#FFFFFF"><g id="logo-2" sketch:type="MSLayerGroup" transform="translate(10.000000, 10.000000)"><g id="Imported-Layers" transform="translate(-0.250765, -0.459156)" sketch:type="MSShapeGroup"><path d="M91.6849445,43.5077619 C91.6849445,43.6766756 91.6828677,43.8284841 91.6828677,43.9931215 C91.6620999,48.7034609 91.3941945,51.8144659 90.8791518,53.2812352 C90.1543536,55.3231663 89.0391199,56.8733234 87.537604,57.9295684 C86.0402417,58.9815371 84.2147473,59.5117978 82.069428,59.5117978 C79.9220319,59.5117978 78.1173054,58.9772608 76.6510949,57.9039107 C75.178654,56.8326986 74.1153399,55.3359952 73.4528453,53.4052478 C72.8277329,51.6027893 72.5037544,48.4490214 72.4663722,43.9931215 C72.4622187,43.6873663 72.4559883,43.3923019 72.4559883,43.0715798 L72.4559883,17.5848587 L59.4200062,17.5848587 L59.4200062,39.6184712 C59.4200062,41.1750427 59.4407741,42.6140162 59.4760794,43.9931215 C59.6276848,50.108224 60.109499,54.5042558 60.9339828,57.1256249 C62.3441201,61.7654055 64.7968037,65.3745989 68.2754193,67.9724484 C71.7561116,70.5681597 76.3125788,71.8617391 81.953128,71.8617391 C87.1492451,71.8617391 91.4357302,70.7541786 94.8021994,68.5326431 C98.1686686,66.3132457 100.721038,63.1252674 102.455154,58.9772608 C103.653459,56.0886232 104.345028,51.0789431 104.525709,43.9931215 C104.558937,42.7251999 104.581782,41.4123771 104.581782,40.0054759 L104.581782,17.5848587 L91.6849445,17.5848587 L91.6849445,43.5077619 L91.6849445,43.5077619 L91.6849445,43.5077619 L91.6849445,43.5077619 Z M53.3495625,-0.347786356 L40.452725,-0.347786356 L40.452725,20.3943849 C40.2346625,20.2618197 40.0435983,20.0993205 39.8213822,19.9667553 C35.5515114,17.4736751 30.9950442,16.2207205 26.1436735,16.2207205 C19.4335798,16.2207205 13.4960503,18.6218604 8.33316173,23.4220021 C2.46208936,28.9106273 -0.474485224,35.7676671 -0.499406649,43.9931215 L-0.493176293,43.9931215 C-0.493176293,44.0251937 -0.495253078,44.059404 -0.495253078,44.0893381 C-0.495253078,51.8080515 2.10695905,58.3678887 7.31969045,63.7624355 C12.5344986,69.1633967 18.8250817,71.8617391 26.1893628,71.8617391 C31.200646,71.8617391 35.7820346,70.6387186 39.9376822,68.1905394 C44.0954066,65.7466366 47.382958,62.3427054 49.7899523,58.0044036 C51.8978895,54.1985006 53.0837339,50.150987 53.3495625,45.85331 L53.3495625,45.8490337 C53.3869446,45.2332472 53.4035589,44.6153225 53.4035589,43.9931215 C53.4035589,43.4158216 53.3848678,42.8449361 53.3495625,42.278327 L53.3495625,-0.347786356 L53.3495625,-0.347786356 L53.3495625,-0.347786356 L53.3495625,-0.347786356 Z M36.3946863,55.1820486 C33.7094028,58.0664099 30.3512407,59.5117978 26.3139699,59.5117978 C22.2725455,59.5117978 18.9372281,58.0792388 16.3017874,55.231226 C13.6705003,52.3746606 12.3517415,48.6478691 12.3517415,44.0422989 C12.3517415,44.0251937 12.3538183,44.0102266 12.3538183,43.9931215 L12.3496647,43.9931215 C12.3621254,39.5414979 13.6871145,35.8831271 16.3474767,33.0286999 C19.0099156,30.1571674 22.3514633,28.7224703 26.3534288,28.7224703 C30.45508,28.7224703 33.823626,30.1422004 36.4590667,32.9773843 C39.0799699,35.8040156 40.3966518,39.4752153 40.4070357,43.9931215 C40.4070357,44.0102266 40.4153429,44.0251937 40.4153429,44.0422989 C40.4153429,48.5858628 39.0737395,52.2912728 36.3946863,55.1820486 C36.3946863,55.1820486 39.0737395,52.2912728 36.3946863,55.1820486 L36.3946863,55.1820486 L36.3946863,55.1820486 Z M159.462913,30.1293715 C157.072533,25.853076 153.739293,22.4641119 149.471499,19.9667553 C145.203705,17.4736751 140.643084,16.2207205 135.795867,16.2207205 C129.08785,16.2207205 123.154474,18.6218604 117.985355,23.4220021 C112.120513,28.9106273 109.179785,35.7676671 109.154863,43.9931215 C109.154863,44.0251937 109.15071,44.059404 109.15071,44.0893381 C109.15071,51.8080515 111.763306,58.3678887 116.971884,63.7624355 C122.182538,69.1633967 128.473121,71.8617391 135.841556,71.8617391 C140.852839,71.8617391 145.430074,70.6387186 149.589876,68.1905394 C153.7476,65.7466366 157.035151,62.3427054 159.435915,58.0044036 C161.84914,53.6575492 163.055752,48.9921109 163.055752,43.9931215 C163.055752,39.0326187 161.857447,34.4099433 159.462913,30.1293715 C159.462913,30.1293715 161.857447,34.4099433 159.462913,30.1293715 L159.462913,30.1293715 L159.462913,30.1293715 Z M146.042726,55.1820486 C143.357442,58.0664099 140.001357,59.5117978 135.96201,59.5117978 C131.920585,59.5117978 128.585268,58.0792388 125.949827,55.231226 C123.31854,52.3746606 121.997704,48.6478691 121.997704,44.0422989 C121.997704,44.0251937 122.001858,44.0102266 122.001858,43.9931215 C122.014319,39.5414979 123.345538,35.8831271 126.001747,33.0286999 C128.664186,30.1571674 131.999503,28.7224703 136.005622,28.7224703 C140.10935,28.7224703 143.477896,30.1422004 146.109183,32.9773843 C148.73424,35.8040156 150.048845,39.4752153 150.063383,43.9931215 C150.063383,44.0102266 150.065459,44.0251937 150.065459,44.0422989 C150.065459,48.5858628 148.725933,52.2912728 146.042726,55.1820486 L146.042726,55.1820486 Z" id="Fill-1"/><path d="M208.024387,70.9209541 L221.066599,70.9209541 L221.066599,19.7465261 L208.024387,19.7465261 L208.024387,19.7465261 L208.024387,70.9209541 L208.024387,70.9209541 Z M185.696867,57.0657567 C184.195351,56.0137881 183.082194,54.4657691 182.359473,52.423838 C181.836123,50.9506542 181.574448,47.8396492 181.55368,43.1335861 L181.55368,-0.360615242 L168.656842,-0.360615242 L168.656842,39.1459405 C168.656842,40.5485655 168.675534,41.85925 168.712916,43.1335861 C168.893596,50.2172695 169.576858,55.2248115 170.783471,58.1155873 C172.517587,62.2635939 175.069956,65.449434 178.432271,67.6731077 C181.800817,69.892505 186.087302,71.0000656 191.279266,71.0000656 L201.239529,71.0000656 L201.239529,58.6479861 L191.16712,58.6479861 C189.017647,58.6479861 187.194229,58.1220017 185.696867,57.0657567 C185.696867,57.0657567 187.194229,58.1220017 185.696867,57.0657567 L185.696867,57.0657567 L185.696867,57.0657567 Z M272.02053,29.6119398 C270.284337,25.4553806 267.738198,22.2738167 264.369652,20.0522812 C260.996953,17.8328839 256.714621,16.7231852 251.518504,16.7231852 C245.877955,16.7231852 241.321487,18.0189027 237.844949,20.6124759 C234.36218,23.2060491 231.911573,26.821657 230.497282,31.4614376 C229.674875,34.0806685 229.188907,38.4745621 229.039378,44.5875265 C229.004073,45.9730463 228.985382,47.4098816 228.985382,48.9685913 L228.985382,71.0000656 L242.017211,71.0000656 L242.017211,45.5090682 C242.017211,45.1947605 242.027595,44.897558 242.027595,44.5875265 C242.071207,40.1337648 242.397262,36.982135 243.016144,35.1775383 C243.680716,33.2532054 244.746107,31.7500875 246.212317,30.6810136 C247.682681,29.6119398 249.485331,29.0774028 251.636881,29.0774028 C253.786354,29.0774028 255.607694,29.5991109 257.105057,30.6553559 C258.604496,31.7116008 259.715576,33.261758 260.444528,35.2994128 C260.961647,36.7725965 261.225399,39.8814634 261.246167,44.5875265 C261.246167,44.7543021 261.252397,44.9039724 261.252397,45.0793005 L261.252397,71.0000656 L274.149235,71.0000656 L274.149235,48.5751721 C274.149235,47.1725472 274.128467,45.8597244 274.091085,44.5875265 C273.908327,37.5081194 273.220911,32.4963011 272.02053,29.6119398 C272.02053,29.6119398 273.220911,32.4963011 272.02053,29.6119398 L272.02053,29.6119398 L272.02053,29.6119398 Z M214.163365,0.558788286 C210.352463,0.558788286 207.262207,3.74249027 207.262207,7.66599137 C207.262207,11.5873543 210.352463,14.7689182 214.163365,14.7689182 C217.974266,14.7689182 221.066599,11.5873543 221.066599,7.66599137 C221.066599,3.74249027 217.974266,0.558788286 214.163365,0.558788286 L214.163365,0.558788286 L214.163365,0.558788286 L214.163365,0.558788286 Z M386.993447,30.5826588 C384.580222,26.2400808 381.296825,22.842564 377.143254,20.3943849 C372.987606,17.9462057 368.402064,16.7231852 363.397011,16.7231852 C356.0265,16.7231852 349.735917,19.4172513 344.523185,24.8224888 C339.308377,30.2170356 336.704088,36.7768728 336.704088,44.4955862 L336.704088,44.5875265 C336.72901,52.8172572 339.671815,59.674297 345.538733,65.1650604 C350.699545,69.9652021 356.639151,72.3642038 363.345091,72.3642038 C368.196462,72.3642038 372.75916,71.1133874 377.033184,68.6203071 C381.292671,66.1186743 384.619681,62.7297101 387.016292,58.4512765 C389.412902,54.1728429 390.60913,49.5523056 390.60913,44.5875265 C390.60913,39.5970897 389.404595,34.927375 386.993447,30.5826588 C386.993447,30.5826588 389.404595,34.927375 386.993447,30.5826588 L386.993447,30.5826588 L386.993447,30.5826588 Z M377.608454,44.5875265 C377.600147,49.109709 376.287618,52.7809087 373.666715,55.60754 C371.029198,58.4427239 367.658575,59.8581777 363.561077,59.8581777 C359.559112,59.8581777 356.217564,58.4256187 353.548895,55.5562244 C350.900993,52.7017972 349.56562,49.0434264 349.557313,44.5875265 C349.557313,44.5746976 349.55316,44.5597306 349.55316,44.5404873 C349.55316,39.9391934 350.871918,36.2102637 353.507359,33.3536983 C356.144876,30.5014092 359.478117,29.0774028 363.515388,29.0774028 C367.554736,29.0774028 370.912898,30.5185144 373.594028,33.4050139 C376.277234,36.2893752 377.622991,40.0011996 377.622991,44.5404873 C377.622991,44.5597306 377.608454,44.5746976 377.608454,44.5875265 C377.608454,44.5875265 377.608454,44.5746976 377.608454,44.5875265 L377.608454,44.5875265 L377.608454,44.5875265 Z M332.207848,42.3809581 C331.944096,38.1196296 330.766559,34.1084645 328.679389,30.33891 C326.293163,26.0348186 323.040917,22.6672359 318.916421,20.2447145 C314.798156,17.8179168 310.256226,16.6034489 305.294785,16.6034489 C297.988654,16.6034489 291.756221,19.2761336 286.591256,24.6300555 C281.426291,29.977563 278.840693,36.4775322 278.840693,44.1278248 C278.840693,44.1577588 278.84277,44.1898311 278.84277,44.2219033 L278.840693,44.2219033 C278.863537,52.3746606 281.777267,59.1696941 287.592267,64.6112801 C292.711543,69.3686588 298.595076,71.744141 305.238712,71.744141 C310.050624,71.744141 314.567632,70.5082916 318.795967,68.0323165 C319.016107,67.9018895 319.205094,67.7458047 319.423157,67.6089632 L319.423157,73.6214347 C319.41485,78.1008542 318.015096,81.759225 315.414961,84.5644748 C312.802365,87.3718628 309.462894,88.778764 305.404855,88.778764 C301.504652,88.778764 298.244099,87.3996587 295.627349,84.6564152 L287.324361,93.8141019 C287.401202,93.8846608 287.465583,93.9659104 287.53827,94.0364693 C292.657546,98.7917099 298.543156,101.16933 305.188869,101.16933 C309.998704,101.16933 314.519866,99.9334808 318.746125,97.4553675 C322.972383,94.9836688 326.270318,91.6246387 328.650314,87.3825535 C331.019926,83.1404684 332.207848,78.5626941 332.207848,73.6449543 L332.207848,45.9238689 C332.236923,45.361536 332.255614,44.7949269 332.255614,44.2219033 L332.261844,44.2219033 C332.261844,43.6061167 332.24523,42.9924683 332.207848,42.3852344 L332.207848,42.3809581 L332.207848,42.3809581 L332.207848,42.3809581 L332.207848,42.3809581 Z M319.383698,44.2219033 L319.377467,44.2219033 C319.371237,48.7013228 318.067016,52.3383121 315.46688,55.1392856 C312.852208,57.9509499 309.521044,59.3535748 305.452621,59.3535748 C301.479731,59.3535748 298.177642,57.9338447 295.533894,55.0901082 C292.902607,52.2634769 291.583848,48.6350402 291.573464,44.2219033 L291.575541,44.2219033 C291.575541,44.2047981 291.573464,44.1919692 291.573464,44.1727259 C291.573464,39.6120567 292.879762,35.9173375 295.494435,33.0864298 C298.100801,30.2597985 301.411197,28.8422066 305.411085,28.8422066 C309.410974,28.8422066 312.742138,30.2726274 315.400423,33.1356072 C318.056632,35.9964489 319.387851,39.674063 319.387851,44.1727259 C319.387851,44.1919692 319.383698,44.2047981 319.383698,44.2219033 L319.383698,44.2219033 Z" id="Fill-2"/></g></g></g></g></svg>