<?xml version="1.0" encoding="UTF-8" standalone="no"?><svg width="194px" height="105px" viewBox="0 0 194 105" version="1.1" xmlns="http://www.w3.org/2000/svg" xmlns:xlink="http://www.w3.org/1999/xlink"><title>luggage</title><desc>Created with Sketch.</desc><defs/><g id="Page-1" stroke="none" stroke-width="1" fill="none" fill-rule="evenodd"><g id="survey-copy-10" transform="translate(-63.000000, -81.000000)"><g id="luggage" transform="translate(63.000000, 81.000000)"><g id="Artboard-1"><g id="Page-1"><g id="Artboard-1"><g id="Page-1"><polygon id="Fill-1" fill="#D33131" points="0 67.4216109 0 80.4652845 24.687204 80.4652845 24.687204 42.719602"/><polygon id="Fill-2" fill="#E53838" points="24.6868399 42.7191466 -0.000364104628 67.4211555 54.3832134 67.4211555 54.3832134 42.7191466"/><polyline id="Fill-3" fill="#1980BA" points="118.23606 85.8027072 182.739925 21.2601587 162.770607 1.27977555 97.5294297 66.5600782"/><polygon id="Fill-4" fill="#60BAE2" points="161.4926 0.000728645963 154.84496 6.65144467 177.472242 29.2922963 184.118972 22.6406695"/><g id="Group-34" transform="translate(31.859155, 13.482683)"><path d="M96.8279821,52.7766468 L112.148595,68.1064471 L133.313997,46.929263 L150.854737,46.929263 C156.837886,46.929263 161.68776,42.07557 161.68776,36.0888326 C161.68776,30.1020953 156.837886,25.2493131 150.854737,25.2493131 L128.826407,25.2493131 C125.884442,25.2493131 123.221016,26.4269872 121.268505,28.3314856 L121.263954,28.3260207 L96.8279821,52.7766468 L96.8279821,52.7766468 L96.8279821,52.7766468 Z" id="Fill-5" fill="#FFFFFF"/><path d="M150.854464,25.249131 C156.837613,25.249131 161.687487,30.1019131 161.687487,36.0886505 L161.687487,36.0886505 C161.687487,42.0753879 156.837613,46.9290808 150.854464,46.9290808" id="Fill-7" fill="#AFAFAF"/><path d="M117.299947,32.292405 L117.299947,32.292405 C120.845416,35.84 126.593718,35.84 130.140097,32.292405 C132.069851,30.3605824 132.940971,27.7757109 132.769842,25.249131 L128.826589,25.249131 C125.884624,25.249131 123.220288,26.426805 121.268687,28.3313034 L121.263226,28.3267494 L117.299947,32.292405 L117.299947,32.292405 Z" id="Fill-9" fill="#AFAFAF"/><polygon id="Fill-11" fill="#D33131" points="102.698441 46.9027585 118.019054 62.2325587 114.360712 65.8940047 99.0391895 50.5642044"/><polygon id="Fill-13" fill="#D33131" points="108.390034 41.2078438 123.710646 56.537644 120.052305 60.19909 104.730782 44.8692897"/><path d="M22.101606,29.2369193 L15.1836181,29.2369193 C14.0913042,29.2369193 13.2720688,28.3261118 13.2720688,27.3242236 L13.2720688,15.2104845 C13.2720688,14.1175155 14.1823304,13.2977888 15.1836181,13.2977888 L22.101606,13.2977888 C23.1939199,13.2977888 24.0131553,14.2085963 24.0131553,15.2104845 L24.0131553,27.3242236 C24.0131553,28.3261118 23.1939199,29.2369193 22.101606,29.2369193" id="Fill-15" fill="#FFC714"/><path d="M99.1097348,29.2369193 L92.1917469,29.2369193 C91.099433,29.2369193 90.2801976,28.3261118 90.2801976,27.3242236 L90.2801976,15.2104845 C90.2801976,14.1175155 91.1904592,13.2977888 92.1917469,13.2977888 L99.1097348,13.2977888 C100.202049,13.2977888 101.021284,14.2085963 101.021284,15.2104845 L101.021284,27.3242236 C101.021284,28.3261118 100.202049,29.2369193 99.1097348,29.2369193" id="Fill-17" fill="#FFC714"/><path d="M48.2261131,7.92402484 C45.3132761,7.92402484 42.946596,10.2921242 42.946596,13.2067081 L42.946596,62.572472 C42.946596,65.4870559 45.3132761,67.8551553 48.2261131,67.8551553 L66.7954491,67.8551553 C69.7082861,67.8551553 72.0749662,65.4870559 72.0749662,62.572472 L72.0749662,13.2067081 C72.0749662,10.2921242 69.7082861,7.92402484 66.7954491,7.92402484 L48.2261131,7.92402484 L48.2261131,7.92402484 Z M66.7954491,75.1416149 L48.2261131,75.1416149 C41.3081252,75.1416149 35.5734773,69.4946087 35.5734773,62.4813913 L35.5734773,13.2067081 C35.5734773,6.28457143 41.217099,0.546484472 48.2261131,0.546484472 L66.7954491,0.546484472 C73.713437,0.546484472 79.4480849,6.19349068 79.4480849,13.2067081 L79.4480849,62.572472 C79.4480849,69.4946087 73.713437,75.1416149 66.7954491,75.1416149 L66.7954491,75.1416149 L66.7954491,75.1416149 Z" id="Fill-19" fill="#72360E"/><path d="M106.118749,90.9896646 L8.17460402,90.9896646 C3.89637465,90.9896646 0.437380684,87.5285963 0.437380684,83.2478012 L0.437380684,25.2293665 C0.437380684,20.9485714 3.89637465,17.4875031 8.17460402,17.4875031 L106.118749,17.4875031 C110.396978,17.4875031 113.855972,20.9485714 113.855972,25.2293665 L113.855972,83.1567205 C113.946998,87.5285963 110.396978,90.9896646 106.118749,90.9896646" id="Fill-21" fill="#8E4819"/><path d="M0.437380684,25.2293665 L0.437380684,29.2369193 C1.07456378,29.4190807 1.80277304,29.4190807 2.43995614,29.4190807 C7.71947324,29.4190807 11.9066765,25.1382857 11.9066765,19.9466832 C11.9066765,19.0358758 11.8156503,18.2161491 11.5425718,17.3964224 L8.17460402,17.3964224 C3.89637465,17.4875031 0.437380684,20.9485714 0.437380684,25.2293665" id="Fill-23" fill="#72360E"/><path d="M106.118749,17.4875031 L102.750781,17.4875031 C102.568729,18.3072298 102.386676,19.1269565 102.386676,20.037764 C102.386676,25.3204472 106.664906,29.5101615 111.853397,29.5101615 C112.581606,29.5101615 113.218789,29.4190807 113.855972,29.328 L113.855972,25.3204472 C113.946998,20.9485714 110.396978,17.4875031 106.118749,17.4875031" id="Fill-25" fill="#72360E"/><path d="M2.43995614,79.3313292 C1.71174688,79.3313292 1.07456378,79.4224099 0.437380684,79.5134907 L0.437380684,83.1567205 C0.437380684,87.4375155 3.89637465,90.8985839 8.17460402,90.8985839 L11.633598,90.8985839 C11.8156503,90.1699379 11.9066765,89.5323727 11.9066765,88.712646 C11.9066765,83.6121242 7.71947324,79.3313292 2.43995614,79.3313292" id="Fill-27" fill="#72360E"/><path d="M113.946998,79.6045714 C113.309815,79.4224099 112.581606,79.4224099 111.944423,79.4224099 C106.664906,79.4224099 102.477703,83.703205 102.477703,88.8948075 C102.477703,89.6234534 102.568729,90.3520994 102.750781,91.0807453 L106.209775,91.0807453 C110.488004,91.0807453 113.946998,87.619677 113.946998,83.338882 L113.946998,79.6045714 L113.946998,79.6045714 Z" id="Fill-29" fill="#72360E"/><g id="Fill-31-Clipped" transform="translate(25.487324, 17.305342)" fill="#72360E"><polygon id="Fill-31" points="0.346809658 73.5932422 8.99429457 73.5932422 8.99429457 0.182161491 0.346809658 0.182161491"/></g><g id="Fill-33-Clipped" transform="translate(79.192757, 17.305342)" fill="#72360E"><polygon id="Fill-33" points="0.710914286 73.5932422 9.3583992 73.5932422 9.3583992 0.182161491 0.710914286 0.182161491"/></g></g></g></g></g></g></g></g></g></svg>