<svg id="Layer_1" data-name="Layer 1" xmlns="http://www.w3.org/2000/svg" width="101" height="81" viewBox="0 0 101 81"><defs><style>.cls-1 { fill: #fff; } .cls-2 { fill: #1cb0f6; }</style></defs><title>level_ribbon_he</title><g><polygon class="cls-1" points="24.44 0 76.84 0 76.85 72 51.59 62.68 24.44 72.32 24.44 0"/><path class="cls-2" d="M60.51,33.52l4.89-8.47H55.62L51,17l-4.67,8.09H36.51l4.89,8.47L36.51,42h9.78L51,50.08,55.62,42H65.4Zm.58-6-2,3.49-2-3.49Zm-3.45,6-3.45,6H47.72l-3.45-6,3.45-6h6.46ZM51,21.95l1.79,3.11H49.16Zm-10.14,5.6h4l-2,3.49Zm0,12,2-3.49,2,3.49ZM51,45.1,49.16,42h3.59ZM59.08,36l2,3.49h-4Z"/><polygon class="cls-1" points="90.68 77.11 100.98 80.91 100.98 0 90.68 0 90.68 77.11"/><polygon class="cls-2" points="90.68 0 76.84 0 76.84 72 90.68 77.11 90.68 0"/><polygon class="cls-1" points="10.32 0 0.02 0 0.02 81 10.32 77.34 10.32 0"/><polyline class="cls-2" points="24.44 72.32 24.44 0 10.32 0 10.32 77.34"/></g></svg>