<?xml version="1.0" encoding="UTF-8" standalone="no"?><svg width="101px" height="81px" viewBox="0 0 101 81" version="1.1" xmlns="http://www.w3.org/2000/svg" xmlns:xlink="http://www.w3.org/1999/xlink" xmlns:sketch="http://www.bohemiancoding.com/sketch/ns"><title>level-flag-nb</title><desc>Created with Sketch.</desc><defs/><g id="Page-1" stroke="none" stroke-width="1" fill="none" fill-rule="evenodd" sketch:type="MSPage"><g id="level-flag-nb" sketch:type="MSArtboardGroup"><g id="Imported-Layers" sketch:type="MSLayerGroup" transform="translate(0.000000, -11.000000)"><path d="M0.00508641975,20 L0.00508641975,91.7513158 L51.8229877,73.2118772 L101.786889,91.7192982 L101.786889,20 L0.00508641975,20" id="Fill-1" fill="#FFFFFF" sketch:type="MSShapeGroup"/><path d="M16.9606667,85.6846316 L16.9606667,65.5724912 L0.0584938272,65.5724912 L0.0584938272,65.0832632 L0.00508641975,65.0832632 L0.00508641975,91.7513158 L16.9606667,85.6846316" id="Fill-2" fill="#D33131" sketch:type="MSShapeGroup"/><path d="M51.8229877,73.2118772 L101.680074,91.6770351 L101.786889,91.7192982 L101.786889,65.1485789 L101.786889,65.5724912 L48.3273457,65.5724912 L48.3273457,74.4631228 L51.8229877,73.2118772" id="Fill-3" fill="#D33131" sketch:type="MSShapeGroup"/><path d="M0.00508641975,34.2273158 C0.0228888889,34.2273158 0.040691358,34.2260351 0.0584938272,34.2260351 L0.0584938272,33.9814211 L16.9606667,33.9814211 L16.9606667,0 L0.00508641975,0 L0.00508641975,34.2273158 Z" id="Fill-4" fill="#D33131" sketch:type="MSShapeGroup"/><path d="M48.3273457,33.9814211 L101.786889,33.9814211 L101.786889,34.8574211 L101.786889,10 L48.3273457,10 L48.3273457,33.9814211 Z" id="Fill-5" fill="#D33131" sketch:type="MSShapeGroup"/><path d="M25.8619012,9 L25.8619012,42.9463333 L0.0584938272,42.9463333 L0.0584938272,56.6075789 L25.8619012,56.6075789 L25.8619012,82.500807 L39.4261111,77.6469474 L39.4261111,56.6075789 L101.786889,56.6075789 L101.786889,42.9463333 L39.4261111,42.9463333 L39.4261111,9 L25.8619012,9 Z" id="Fill-6" fill="#1CB0F7" sketch:type="MSShapeGroup"/></g></g></g></svg>