<svg id="Layer_1" data-name="Layer 1" xmlns="http://www.w3.org/2000/svg" width="101" height="81" viewBox="0 0 101 81"><defs><style>.cls-1 { fill: #d33131; } .cls-2 { fill: #ffc200; }</style></defs><title>Artboard 10</title><polygon class="cls-1" points="0 0 0 81 0.1 81 50.6 71.7 101 81 101 0 0 0"/><g><path class="cls-2" d="M14,36.38a.3.3,0,0,1-.28-.39l2.21-6.79L10.16,25a.3.3,0,0,1,.18-.54h7.14l2.21-6.79a.3.3,0,0,1,.57,0l2.21,6.79H29.6a.3.3,0,0,1,.18.54L24,29.2,26.21,36a.3.3,0,0,1-.46.33L20,32.13l-5.78,4.2A.3.3,0,0,1,14,36.38Z"/><path class="cls-2" d="M20,17.76l2.27,7H29.6l-6,4.33,2.27,7-6-4.33-6,4.33,2.27-7-6-4.33H17.7l2.27-7m9.63,7h0M20,17.17a.6.6,0,0,0-.57.41l-2.14,6.59H10.34A.6.6,0,0,0,10,25.25l5.6,4.07L13.45,35.9a.6.6,0,0,0,.92.67L20,32.5l5.6,4.07a.6.6,0,0,0,.92-.67l-2.14-6.59,5.58-4.05a.6.6,0,0,0-.32-1.09H22.68l-2.14-6.59a.59.59,0,0,0-.57-.41Z"/></g><g><path class="cls-2" d="M36.37,18.58a.15.15,0,0,1-.14-.1l-1.16-3.27-3.47.1a.15.15,0,0,1-.09-.26l2.75-2.12L33.09,9.66a.15.15,0,0,1,.14-.19.14.14,0,0,1,.08,0l2.86,2,2.75-2.12a.15.15,0,0,1,.09,0,.14.14,0,0,1,.08,0,.14.14,0,0,1,.06.16l-1,3.33,2.86,2a.14.14,0,0,1-.08.26l-3.47.1-1,3.33a.15.15,0,0,1-.14.1Z"/><path class="cls-2" d="M39,9.45l-1,3.43,2.95,2-3.57.1-1,3.43-1.2-3.37-3.57.1L34.43,13l-1.2-3.37,2.95,2L39,9.45m0-.29a.29.29,0,0,0-.18.06l-2.67,2.05L33.4,9.38a.29.29,0,0,0-.34,0,.29.29,0,0,0-.1.33l1.13,3.17-2.67,2.05a.29.29,0,0,0,.18.52h0L35,15.36l1.13,3.17a.29.29,0,0,0,.27.19h0a.29.29,0,0,0,.27-.21l1-3.23L41,15.2a.29.29,0,0,0,.16-.53l-2.78-1.9,1-3.23a.29.29,0,0,0-.11-.32A.27.27,0,0,0,39,9.16Z"/></g><g><path class="cls-2" d="M44.59,27.71a.15.15,0,0,1-.11-.13l-.17-3.46L41,23.2a.15.15,0,0,1,0-.28l3.24-1.23L44,18.23a.14.14,0,0,1,.09-.14h.05a.15.15,0,0,1,.11.05l2.17,2.7L49.7,19.6h.05a.15.15,0,0,1,.11.05.15.15,0,0,1,0,.17L48,22.72l2.18,2.7a.15.15,0,0,1,0,.17.15.15,0,0,1-.12.07h0l-3.35-.91-1.9,2.9a.15.15,0,0,1-.12.07Z"/><path class="cls-2" d="M44.17,18.22,46.41,21l3.34-1.27-2,3L50,25.52l-3.45-.94-2,3L44.46,24,41,23.06l3.34-1.27-.18-3.57m5.58,1.52h0m-5.59-1.81-.1,0a.29.29,0,0,0-.19.29L44,21.59,40.9,22.79a.29.29,0,0,0,0,.55l3.25.88.16,3.36a.29.29,0,0,0,.21.27h.08a.29.29,0,0,0,.24-.13l1.84-2.82,3.25.88H50a.29.29,0,0,0,.23-.47l-2.11-2.62L50,19.92a.28.28,0,0,0,.07-.18.29.29,0,0,0-.29-.29h0l-.08,0-3.14,1.19L44.4,18a.29.29,0,0,0-.22-.11Z"/></g><g><path class="cls-2" d="M48.65,40.2a.14.14,0,0,1-.08,0l-2.81-2-2.81,2-.08,0a.14.14,0,0,1-.08,0,.15.15,0,0,1-.05-.16l1.07-3.3-2.81-2a.15.15,0,0,1,.08-.26h3.47l1.07-3.3a.15.15,0,0,1,.14-.1h0a.14.14,0,0,1,.14.1L47,34.4h3.47a.14.14,0,0,1,.14.1.15.15,0,0,1-.05.16l-2.81,2L48.79,40a.15.15,0,0,1-.05.16Z"/><path class="cls-2" d="M45.75,31.15l1.11,3.4h3.58l-2.89,2.1L48.65,40l-2.89-2.1L42.86,40,44,36.65l-2.89-2.1h3.58l1.1-3.4m4.68,3.4h0m-4.69-3.69a.29.29,0,0,0-.28.2l-1,3.2H41.07a.29.29,0,0,0-.28.2.29.29,0,0,0,.11.32l2.72,2-1,3.2a.29.29,0,0,0,.45.32l2.72-2,2.72,2a.29.29,0,0,0,.45-.32l-1-3.2,2.71-2a.29.29,0,0,0-.15-.53H47.07l-1-3.2a.29.29,0,0,0-.27-.2Z"/></g><g><path class="cls-2" d="M34.54,50.26a.15.15,0,0,1-.13-.08l-1.65-3.05-3.44.63a.15.15,0,0,1-.13-.08.14.14,0,0,1,0-.17L31.61,45,30,42a.15.15,0,0,1,.13-.21h.06l3.13,1.5,2.39-2.51a.15.15,0,0,1,.1,0h.06a.15.15,0,0,1,.08.15l-.46,3.44,3.13,1.5a.15.15,0,0,1,.08.15.14.14,0,0,1-.12.12l-3.41.63-.46,3.44a.14.14,0,0,1-.12.12Z"/><path class="cls-2" d="M35.78,40.84l-.47,3.54,3.22,1.54L35,46.57l-.47,3.54L32.84,47l-3.52.65L31.79,45l-1.7-3.14,3.22,1.54,2.47-2.59m0-.29a.29.29,0,0,0-.21.09l-2.32,2.44-3-1.45-.13,0a.29.29,0,0,0-.26.43l1.6,3-2.32,2.44a.29.29,0,0,0,.21.49h.05l3.31-.61,1.6,3a.29.29,0,0,0,.26.15h.05a.29.29,0,0,0,.24-.25l.44-3.34,3.31-.61a.29.29,0,0,0,.07-.55l-3-1.45.44-3.34a.29.29,0,0,0-.16-.3.27.27,0,0,0-.12,0Z"/></g></svg>