<?xml version="1.0" encoding="utf-8"?><svg version="1.1" id="Layer_1" xmlns="http://www.w3.org/2000/svg" xmlns:xlink="http://www.w3.org/1999/xlink" width="101px" height="81px" viewBox="0 0 101 81" style="enable-background:new 0 0 101 81;" xml:space="preserve"><style type="text/css">.st0{fill:#FFFFFF;} .st1{fill:#1CB0F6;} .st2{fill:#262626;} .st3{fill:#D33131;}</style><polygon class="st0" points="0,0 0,81 50.6,71.7 101,81 101,0"/><path class="st1" d="M73.2,75.9c3-4.4,4.7-9.8,4.7-15.5c0-15.4-12.5-27.9-27.9-27.9c-15.4,0-27.9,12.5-27.9,27.9	c0,5.8,1.8,11.2,4.9,15.7l23.6-4.3L73.2,75.9z"/><g><rect x="2.6" y="26.8" transform="matrix(0.7071 -0.7071 0.7071 0.7071 -16.5253 17.1033)" class="st2" width="19.5" height="3.3"/><rect x="5.5" y="29.8" transform="matrix(0.7071 -0.7071 0.7071 0.7071 -17.76 20.0271)" class="st2" width="19.5" height="3.3"/><rect x="8.3" y="32.6" transform="matrix(0.7071 -0.7071 0.7071 0.7071 -18.9502 22.8459)" class="st2" width="19.5" height="3.3"/></g><g><rect x="84" y="21.9" transform="matrix(0.7071 -0.7071 0.7071 0.7071 2.7199 69.8452)" class="st2" width="3.3" height="19.5"/><g><rect x="90.6" y="27.9" transform="matrix(0.7071 -0.7071 0.7071 0.7071 4.0914 74.7741)" class="st2" width="3.3" height="9.1"/><rect x="83.2" y="20.5" transform="matrix(0.7071 -0.7071 0.7071 0.7071 7.1067 67.3899)" class="st2" width="3.3" height="9.2"/></g><g><rect x="84.9" y="33.6" transform="matrix(0.7071 -0.7071 0.7071 0.7071 -1.6218 72.3617)" class="st2" width="3.3" height="9.1"/><rect x="77.7" y="26.2" transform="matrix(0.7071 -0.7071 0.7071 0.7071 1.468 65.1)" class="st2" width="3.3" height="9.2"/></g></g><path class="st3" d="M77.9,60.4c0-9.6-4.9-18.1-12.3-23.1c-4.5-3-9.8-4.8-15.6-4.8c-14.1,0-25.8,10.5-27.6,24.1	c1.2,2.3,5.7,9.2,15,9.2c12.6,0,12.1-10.7,24.6-10.7c10.7,0,14.7,8.4,15.4,10.1c0-0.1,0-0.2,0-0.3c0.1-0.6,0.2-1.3,0.3-2	C77.9,62,77.9,61.2,77.9,60.4z"/></svg>