<?xml version="1.0" encoding="UTF-8" standalone="no"?><svg width="279px" height="396px" viewBox="0 0 279 396" version="1.1" xmlns="http://www.w3.org/2000/svg" xmlns:xlink="http://www.w3.org/1999/xlink" xmlns:sketch="http://www.bohemiancoding.com/sketch/ns"><title>lingot</title><description>Created with Sketch (http://www.bohemiancoding.com/sketch)</description><defs/><g id="Page-1" stroke="none" stroke-width="1" fill="none" fill-rule="evenodd" sketch:type="MSPage"><g id="lingot" sketch:type="MSArtboardGroup" transform="translate(-4.000000, -7.000000)"><g id="Oval-137-+-x5-+-Imported-Layers-copy" sketch:type="MSLayerGroup" transform="translate(3.000000, 7.000000)"><g id="Imported-Layers" sketch:type="MSShapeGroup"><path d="M140.761967,0.70344186 L279.935738,81.7149535 L279.935738,314.739326 L140.761967,395.755465 L1.58819672,314.739326 L1.58819672,81.7149535 L140.761967,0.70344186" id="Fill-1" fill="#D33131"/><path d="M140.963934,0.819139535 L140.761967,0.70344186 L1.84983607,81.5622326 L60.1357377,130.729116 L140.963934,103.970558 L140.963934,0.819139535" id="Fill-2" fill="#F93D3D"/><path d="M140.890492,395.329698 L141.087869,395.445395 L280,314.586605 L221.714098,265.419721 L140.890492,292.178279 L140.890492,395.329698" id="Fill-3" fill="#AF2828"/><path d="M140.761967,83.7928837 L221.392787,130.729116 L221.392787,265.729791 L140.761967,312.661395 L60.1357377,265.729791 L60.1357377,130.729116 L140.761967,83.7928837" id="Fill-4" fill="#E83838"/><path d="M60.3468852,148.241116 C59.8603279,148.241116 59.415082,147.940302 59.2314754,147.477512 C55.5731148,138.263349 48.2701639,130.770767 39.1954098,126.915721 C38.7501639,126.730605 38.4609836,126.290953 38.4609836,125.800395 C38.4609836,125.314465 38.7501639,124.870186 39.1954098,124.68507 C48.2701639,120.830023 55.5731148,113.337442 59.2314754,104.118651 C59.415082,103.660488 59.8603279,103.359674 60.3468852,103.359674 C60.8380328,103.359674 61.2832787,103.660488 61.4668852,104.118651 C65.1252459,113.337442 72.4281967,120.830023 81.5029508,124.68507 C81.9481967,124.870186 82.237377,125.314465 82.237377,125.800395 C82.237377,126.290953 81.9481967,126.730605 81.5029508,126.915721 C72.4281967,130.770767 65.1252459,138.263349 61.4668852,147.477512 C61.2832787,147.940302 60.8380328,148.241116 60.3468852,148.241116" id="Fill-5" fill="#FFFFFF"/><path d="M60.3468852,104.572186 C64.147541,114.133442 71.6340984,121.81114 81.0347541,125.800395 C71.6340984,129.789651 64.147541,137.462721 60.3468852,147.028605 C56.5508197,137.462721 49.0642623,129.789651 39.6636066,125.800395 C49.0642623,121.81114 56.5508197,114.133442 60.3468852,104.572186 M60.3468852,102.147163 C59.3645902,102.147163 58.4832787,102.748791 58.1160656,103.669744 C54.5770492,112.587721 47.5127869,119.839651 38.7318033,123.565116 C37.8367213,123.944605 37.2583607,124.823907 37.2583607,125.800395 C37.2583607,126.776884 37.8367213,127.656186 38.7318033,128.035674 C47.5081967,131.76114 54.5770492,139.01307 58.1160656,147.931047 C58.4832787,148.852 59.3645902,149.453628 60.3468852,149.453628 C61.3337705,149.453628 62.215082,148.852 62.5822951,147.931047 C66.1213115,139.01307 73.1855738,131.76114 81.9665574,128.035674 C82.8616393,127.656186 83.44,126.776884 83.44,125.800395 C83.44,124.823907 82.8616393,123.944605 81.9711475,123.565116 C73.1855738,119.839651 66.1213115,112.587721 62.5822951,103.669744 C62.215082,102.748791 61.3337705,102.147163 60.3468852,102.147163" id="Fill-6" fill="#FFFFFF"/><path d="M171.621639,101.758419 L60.1357377,214.161023 L60.1357377,265.729791 L73.5298361,273.527814 L217.445246,128.429047 L171.621639,101.758419" id="Fill-7" fill="#ED4D4D"/><path d="M221.392787,151.078023 L90.2747541,283.274186 L112.817049,296.394302 L221.392787,186.925791 L221.392787,151.078023" id="Fill-8" fill="#ED4D4D"/></g></g></g></g></svg>