<?xml version="1.0" encoding="UTF-8" standalone="no"?><svg width="37px" height="63px" viewBox="0 0 37 63" version="1.1" xmlns="http://www.w3.org/2000/svg" xmlns:xlink="http://www.w3.org/1999/xlink" xmlns:sketch="http://www.bohemiancoding.com/sketch/ns"><defs/><g id="Page-1" stroke="none" stroke-width="1" fill="none" fill-rule="evenodd" sketch:type="MSPage"><g id="microphone-active" sketch:type="MSArtboardGroup" fill="#FFFFFF"><g id="Imported-Layers" sketch:type="MSLayerGroup" transform="translate(2.000000, 2.000000)"><path d="M26,27.7499144 C26,32.8589833 21.7468892,37 16.5001762,37 C11.2531108,37 7,32.8589833 7,27.7499144 L7,9.25008561 C7,4.14135917 11.2531108,0 16.5001762,0 C21.7468892,0 26,4.14135917 26,9.25008561 L26,27.7499144" id="Fill-1" sketch:type="MSShapeGroup"/><path d="M29.7406522,28.4670234 C29.7406521,36.5083008 23.8006522,42.0758039 16.5,42.0758039 C9.19900621,42.0758039 3.25934792,36.8325195 3.25934783,28.4670234 L3.25934783,19 L0,19 L0,28.4670234 C0,37.8066406 5.50219727,43.7773438 14.8342857,45.4079943 L14.8342857,52.6520388 L7.86465839,52.6520388 L7.86465839,56 L25.0632609,56 L25.0632609,52.6520388 L18.0936335,52.6520388 L18.0936335,45.4097466 C27.5756836,44.6081543 33,36.939209 33,28.4670234 L33,19 L29.7406522,19 L29.7406522,28.4670234 Z" id="Fill-2" sketch:type="MSShapeGroup"/></g></g></g></svg>