<?xml version="1.0" encoding="utf-8"?><svg version="1.1" id="Layer_1" xmlns="http://www.w3.org/2000/svg" xmlns:xlink="http://www.w3.org/1999/xlink" x="0px" y="0px" width="300px" height="150px" viewBox="0 0 300 150" style="enable-background:new 0 0 300 150;" xml:space="preserve"><style type="text/css">.st0{opacity:0.7;} .st1{fill:url(#SVGID_1_);} .st2{fill:url(#SVGID_2_);} .st3{fill:#838EA5;} .st4{fill:#C4A49F;} .st5{fill:#B5908D;} .st6{fill:#D1B2B0;} .st7{fill:#BC9A96;} .st8{fill:#57722D;} .st9{fill:#4B6322;} .st10{fill:#7A615F;} .st11{fill:#AF8987;} .st12{fill:#CCADAA;} .st13{fill:#49680E;} .st14{fill:#211D28;} .st15{fill:#2C2733;} .st16{fill:#8E2817;stroke:#211D28;stroke-width:2;stroke-miterlimit:10;} .st17{opacity:0.9;fill:#FFC715;enable-background:new ;} .st18{fill:none;stroke:#211D28;stroke-width:2;stroke-miterlimit:10;} .st19{opacity:0.25;fill:#7A615F;enable-background:new ;} .st20{opacity:0.5;fill:#7A615F;enable-background:new ;} .st21{fill:#8E2817;} .st22{fill:#63120C;} .st23{fill:#EDDBDA;} .st24{fill:#F4EDED;} .st25{fill:#D8B8B2;} .st26{fill:#E2BFBA;} .st27{fill:#D3AEA9;} .st28{fill:#688E3F;} .st29{opacity:0.35;} .st30{opacity:0.55;fill:#755387;enable-background:new ;} .st31{opacity:0.9;} .st32{fill:#3B3544;}</style><g class="st0"><g><linearGradient id="SVGID_1_" gradientUnits="userSpaceOnUse" x1="97.6002" y1="1.9001" x2="97.6002" y2="91.8" gradientTransform="matrix(1 0 0 -1 0 152)"><stop offset="0" style="stop-color:#D1ADCD"/><stop offset="1" style="stop-color:#649DD4"/></linearGradient><path class="st1" d="M183.8,150.1H24l-12.6-47.6l6.5-19L68.7,65c17.5-6.4,42-6.4,59.6,0L166,78.8L183.8,150.1z"/><linearGradient id="SVGID_2_" gradientUnits="userSpaceOnUse" x1="220.5001" y1="3.9001" x2="220.5001" y2="98.5" gradientTransform="matrix(1 0 0 -1 0 152)"><stop offset="0" style="stop-color:#D1ADCD"/><stop offset="1" style="stop-color:#649DD4"/></linearGradient><path class="st2" d="M291.7,80.7l-0.6,25.7l-11.7,41.7H149.3l1.8-79.6l31.4-11.4c13-4.8,31.3-4.8,44.3,0L291.7,80.7z"/></g><path class="st3" d="M293.9,84.9v-3.5c0-0.5-0.4-0.8-0.8-0.8h-13.8c-0.5,0-0.8,0.4-0.8,0.8v3.5h-9v-3.5c0-0.5-0.4-0.8-0.8-0.8 h-13.8c-0.5,0-0.8,0.4-0.8,0.8v3.5h-9v-3.5c0-0.5-0.4-0.8-0.8-0.8h-13.8c-0.5,0-0.8,0.4-0.8,0.8v3.5h-9v-3.5c0-0.5-0.4-0.8-0.8-0.8 h-13.8c-0.5,0-0.8,0.4-0.8,0.8v3.5h-9v-3.5c0-0.5-0.4-0.8-0.8-0.8H182c-0.5,0-0.8,0.4-0.8,0.8v3.5h-62.3v-3.5 c0-0.5-0.4-0.8-0.8-0.8h-13.3c-0.5,0-0.8,0.4-0.8,0.8v3.5h-9v-3.5c0-0.5-0.4-0.8-0.8-0.8H80.3c-0.5,0-0.8,0.4-0.8,0.8v3.5h-9v-3.5 c0-0.5-0.4-0.8-0.8-0.8H55.9c-0.5,0-0.8,0.4-0.8,0.8v3.5h-9v-3.5c0-0.5-0.4-0.8-0.8-0.8H31.4c-0.5,0-0.8,0.4-0.8,0.8v3.5h-9v-3.5 c0-0.5-0.4-0.8-0.8-0.8H7c-0.5,0-0.8,0.4-0.8,0.8v3.5H1.8c-1,0-1.8,0.8-1.8,1.8v48.4h300V86.7c0-1-0.8-1.8-1.8-1.8 C298.2,84.9,293.9,84.9,293.9,84.9z"/><rect x="0" y="107.4" class="st4" width="300" height="42.7"/><path class="st5" d="M210.7,143.4h-6.1c-1.2,0-2.2-1-2.2-2.2v-3.3c0-1.2,1-2.2,2.2-2.2h6.1c1.2,0,2.2,1,2.2,2.2v3.3 C212.9,142.4,211.9,143.4,210.7,143.4z"/><path class="st6" d="M217.6,133.3h-5.4c-1,0-1.9-0.8-1.9-1.9v-1.9c0-1,0.8-1.9,1.9-1.9h5.4c1,0,1.9,0.8,1.9,1.9v1.9 C219.5,132.4,218.6,133.3,217.6,133.3z"/><g><path class="st7" d="M199.7,99.5h21.9c0.7,0,1.3,0.6,1.3,1.3V114h-24.4v-13.2C198.4,100,199,99.5,199.7,99.5z"/><path class="st7" d="M238.2,99.5h21.9c0.7,0,1.3,0.6,1.3,1.3V114H237v-13.2C237,100,237.5,99.5,238.2,99.5z"/><path class="st7" d="M276.8,99.5h21.9c0.7,0,1.2,0.6,1.2,1.2v13.2h-24.4v-13.2C275.6,100,276.1,99.5,276.8,99.5z"/><path class="st7" d="M1.2,99.5h21.9c0.7,0,1.3,0.6,1.3,1.3V114H0v-13.2C0,100,0.6,99.5,1.2,99.5z"/><path class="st7" d="M39.8,99.5h21.9c0.7,0,1.3,0.6,1.3,1.3V114H38.6v-13.2C38.6,100,39.1,99.5,39.8,99.5z"/><path class="st7" d="M78.4,99.5h21.9c0.7,0,1.3,0.6,1.3,1.3V114H77.2v-13.2C77.2,100,77.7,99.5,78.4,99.5z"/><rect x="0" y="106.4" class="st7" width="300" height="11.7"/></g><g><path class="st8" d="M101.6,100.8v5.6h33.5c0.5-1.2,0.8-2.6,0.8-4c0-5.9-4.8-10.7-10.7-10.7c-2.1,0-4,0.6-5.7,1.7 c-2.8-2.6-6.5-4.3-10.6-4.3c-4.9,0-9.3,2.3-12.1,5.9c-1.1-0.5-2.2-0.8-3.5-0.8c-3.5,0-6.5,2.2-7.7,5.3h14.7 C101,99.5,101.6,100.1,101.6,100.8z"/><path class="st9" d="M16.1,93.3c-1-0.3-2-0.5-3.1-0.5c-4.5,0-8.3,2.8-9.9,6.7h10.8C14,97.2,14.8,95,16.1,93.3z"/><path class="st8" d="M38,95.1c-1.2,0-2.4,0.2-3.5,0.7c-1.6-3.9-5.4-6.7-9.9-6.7c-3.4,0-6.5,1.6-8.5,4.2c-1.3,1.7-2.2,3.9-2.2,6.2 h9h0.2c0.7,0,1.3,0.6,1.3,1.3v5.6h14.2v-5.6c0-0.8,0.5-1.3,1.2-1.3h6.1C44.3,96.9,41.4,95.1,38,95.1z"/></g><path class="st9" d="M222.9,100.8v5.6h8.5c-0.3-7.8-6.6-14-14.5-14c-5.3,0-9.9,2.9-12.5,7.1h17.2 C222.3,99.5,222.9,100.1,222.9,100.8z"/><path class="st8" d="M198.5,100.8c-0.1-0.8,0.5-1.3,1.2-1.3h14.7c-2.2-5.2-7.4-8.9-13.4-8.9c-2.7,0-5.2,0.7-7.3,2 c-1.4-2.6-4.1-4.3-7.2-4.3c-4.5,0-8.2,3.7-8.2,8.2c0,0.8,0.1,1.6,0.4,2.4c-0.2,0.8-0.4,1.6-0.4,2.4c0,1.9,0.7,3.7,1.8,5.1h18.4 V100.8z"/><g><circle class="st10" cx="210.6" cy="112.3" r="1.8"/><circle class="st10" cx="249.2" cy="112.3" r="1.8"/><circle class="st10" cx="287.8" cy="112.3" r="1.8"/><circle class="st10" cx="12.2" cy="112.3" r="1.8"/><circle class="st10" cx="50.8" cy="112.3" r="1.8"/><circle class="st10" cx="89.4" cy="112.3" r="1.8"/></g><path class="st5" d="M237.7,120.9h-3.4c-1,0-1.9-0.8-1.9-1.9v-1.9c0-1,0.8-1.9,1.9-1.9h3.4c1,0,1.9,0.8,1.9,1.9v1.9 C239.5,120.1,238.7,120.9,237.7,120.9z"/><path class="st7" d="M285.6,136.3h-3.4c-1,0-1.9-0.8-1.9-1.9v-1.9c0-1,0.8-1.9,1.9-1.9h3.4c1,0,1.9,0.8,1.9,1.9v1.9 C287.5,135.5,286.6,136.3,285.6,136.3z"/><path class="st5" d="M58.5,103.4h-3.4c-1,0-1.9-0.8-1.9-1.9v-1.9c0-1,0.8-1.9,1.9-1.9h3.4c1,0,1.9,0.8,1.9,1.9v1.9 C60.4,102.6,59.5,103.4,58.5,103.4z"/><path class="st7" d="M251.3,138.1h-10.1c-1.3,0-2.4-1.1-2.4-2.4v-4.4c0-1.3,1.1-2.4,2.4-2.4h10.1c1.3,0,2.4,1.1,2.4,2.4v4.4 C253.7,137,252.6,138.1,251.3,138.1z"/><path class="st11" d="M49.9,133.7h-10c-1.3,0-2.4-1.1-2.4-2.4v-6.4c0-1.3,1.1-2.4,2.4-2.4H50c1.3,0,2.4,1.1,2.4,2.4v6.4 C52.4,132.6,51.3,133.7,49.9,133.7z"/><path class="st12" d="M201.4,109.4H196c-1,0-1.9-0.8-1.9-1.9v-1.9c0-1,0.8-1.9,1.9-1.9h5.4c1,0,1.9,0.8,1.9,1.9v1.9 C203.2,108.6,202.4,109.4,201.4,109.4z"/><path class="st6" d="M276.8,129.5h-3.3c-0.8,0-1.5-0.7-1.5-1.5v-0.9c0-0.8,0.7-1.5,1.5-1.5h3.3c0.8,0,1.5,0.7,1.5,1.5v0.9 C278.3,128.8,277.6,129.5,276.8,129.5z"/><path class="st6" d="M8.4,107.4H5.1c-0.8,0-1.5-0.7-1.5-1.5V105c0-0.8,0.7-1.5,1.5-1.5h3.3c0.8,0,1.5,0.7,1.5,1.5v0.9 C9.9,106.7,9.2,107.4,8.4,107.4z"/><path class="st11" d="M283.7,102.5h-2.3c-0.8,0-1.5-0.7-1.5-1.5v-1.9c0-0.8,0.7-1.5,1.5-1.5h2.3c0.8,0,1.5,0.7,1.5,1.5v1.9 C285.1,101.8,284.5,102.5,283.7,102.5z"/><path class="st11" d="M85.9,131h-3.3c-0.8,0-1.5-0.7-1.5-1.5v-1.9c0-0.8,0.7-1.5,1.5-1.5h3.3c0.8,0,1.5,0.7,1.5,1.5v1.9 C87.4,130.3,86.8,131,85.9,131z"/><path class="st5" d="M16.8,144.2H8.7c-1.2,0-2.2-1-2.2-2.2v-3.3c0-1.2,1-2.2,2.2-2.2h8.1c1.2,0,2.2,1,2.2,2.2v3.3 C19,143.2,18,144.2,16.8,144.2z"/><path class="st6" d="M20.7,134.1h-3.4c-1,0-1.9-0.8-1.9-1.9v-1.9c0-1,0.8-1.9,1.9-1.9h3.4c1,0,1.9,0.8,1.9,1.9v1.9 C22.6,133.3,21.7,134.1,20.7,134.1z"/><path class="st6" d="M75.1,120.8h-5.4c-1,0-1.9-0.8-1.9-1.9v-1.8c0-1,0.8-1.9,1.9-1.9h5.4c1,0,1.9,0.8,1.9,1.9v1.9 C76.9,120,76.1,120.8,75.1,120.8z"/><path class="st11" d="M264.1,146.3H256c-1.2,0-2.2,1-2.2,2.2v1.7h12.4v-1.7C266.3,147.2,265.3,146.3,264.1,146.3z"/></g><g><circle class="st13" cx="167.9" cy="113.8" r="8.2"/><path class="st14" d="M131,39.5c-1,0-1.9-0.3-2.7-0.8c-0.2-0.2-0.5,0-0.5,0.3v8.8h44.5V39c0-0.3-0.3-0.4-0.5-0.3 c-0.8,0.5-1.7,0.8-2.7,0.8H131z"/><path class="st15" d="M150,32.6L150,32.6c-1.2,0-2.2-1-2.2-2.2v-1.2c0-1.2,1-2.2,2.2-2.2l0,0c1.2,0,2.2,1,2.2,2.2v1.2 C152.2,31.6,151.2,32.6,150,32.6z"/><path class="st15" d="M150,30.3L150,30.3c-0.2,0-0.4,0.1-0.5,0.3c-1.5,2.2-9.6,13.3-21.4,16.8H150h0.1h21.8 c-11.8-3.5-19.8-14.6-21.4-16.8C150.4,30.4,150.2,30.3,150,30.3z"/><path class="st16" d="M150,39.4C150,39.4,150,39.3,150,39.4C150,39.3,150,39.4,150,39.4c-0.7,0.9-6.7,8.6-15.2,11H150h0.1h15.2 C156.6,48,150.7,40.2,150,39.4z"/><path class="st16" d="M150,39.4C150,39.4,150,39.3,150,39.4C150,39.3,150,39.4,150,39.4c0.7,0.9,6.7,8.6,15.2,11H150l0,0h-15.2 C143.4,48,149.3,40.2,150,39.4z"/><path class="st17" d="M152.7,41.8c0-1.5-1.1-1.1-2.6-1.1c-1.5,0-2.7-0.3-2.7,1.1c0,1.5,1.2,2.7,2.7,2.7 C151.6,44.5,152.7,43.2,152.7,41.8z"/><path class="st18" d="M150,39.4C150,39.4,150,39.3,150,39.4C150,39.3,150,39.4,150,39.4c0.7,0.9,6.7,8.6,15.2,11H150l0,0h-15.2 C143.4,48,149.3,40.2,150,39.4z"/><polygon class="st19" points="184.2,106.4 184.2,150.1 240.8,150.1"/><path class="st8" d="M207.8,141.4c-1.5,0-2.9,0.3-4.2,0.9c-2.8-3.6-7.2-5.9-12.1-5.9c-6.5,0-12.1,4.1-14.3,9.8 c-0.4-0.1-0.8-0.1-1.3-0.1c-2.6,0-4.9,1.7-5.7,4.1h48C217.4,145.1,213,141.4,207.8,141.4z"/><rect x="128.2" y="50.5" class="st4" width="43.7" height="43.7"/><g><rect x="132.1" y="61.6" class="st20" width="35.7" height="2.4"/><rect x="135.4" y="62.4" class="st21" width="7" height="6.9"/><rect x="146.5" y="62.4" class="st21" width="7" height="6.9"/><rect x="157.5" y="62.4" class="st21" width="7" height="6.9"/><rect x="135.4" y="62.4" class="st22" width="7" height="1.6"/><rect x="146.5" y="62.4" class="st22" width="7" height="1.6"/><rect x="157.5" y="62.4" class="st22" width="7" height="1.6"/><rect x="132.1" y="60.7" class="st21" width="35.7" height="1.7"/><circle class="st15" cx="138.9" cy="66.4" r="1.1"/><circle class="st15" cx="150" cy="66.4" r="1.1"/><circle class="st15" cx="161" cy="66.4" r="1.1"/><rect x="132.1" y="73.4" class="st20" width="35.7" height="2.4"/><rect x="135.4" y="74.3" class="st21" width="7" height="6.9"/><rect x="146.5" y="74.3" class="st21" width="7" height="6.9"/><rect x="157.5" y="74.3" class="st21" width="7" height="6.9"/><rect x="135.4" y="74.3" class="st22" width="7" height="1.6"/><rect x="146.5" y="74.3" class="st22" width="7" height="1.6"/><rect x="157.5" y="74.3" class="st22" width="7" height="1.6"/><rect x="132.1" y="72.5" class="st21" width="35.7" height="1.7"/><circle class="st15" cx="138.9" cy="78.2" r="1.1"/><circle class="st15" cx="150" cy="78.2" r="1.1"/><circle class="st15" cx="161" cy="78.2" r="1.1"/></g><g><polygon class="st23" points="182,76 182,73.9 185.3,73.9"/><path class="st23" d="M187.4,71.8c0-0.6,0.5-1.2,1.2-1.2v-1.2H182V76h6.6v-3C188,72.9,187.4,72.4,187.4,71.8z"/><rect x="176.4" y="67.3" class="st24" width="9" height="6.6"/><path class="st15" d="M176.6,65.6L176.6,65.6c0.4,0,0.8,0.3,0.8,0.8v30h-1.5v-30C175.8,66,176.2,65.6,176.6,65.6z"/></g><g><path class="st23" d="M111.4,69.4v3.1c0.7,0,1.2,0.5,1.2,1.2s-0.5,1.2-1.2,1.2v1h6.6v-6.6h-6.6V69.4z"/><polygon class="st23" points="118,76 118,73.9 114.7,73.9"/><path class="st24" d="M119.3,67.3c0,0.5-0.4,1-1,1c-0.5,0-1-0.4-1-1h-2.8v6.6h9v-6.6H119.3z"/><path class="st15" d="M123.4,65.6L123.4,65.6c-0.4,0-0.8,0.3-0.8,0.8v30h1.5v-30C124.2,66,123.8,65.6,123.4,65.6z"/></g><path class="st25" d="M180.7,84.8h-8.3c-0.3,0-0.5,0.2-0.5,0.5v5.5h-4.7v-5.5c0-0.3-0.2-0.5-0.5-0.5h-7.2c-0.3,0-0.5,0.2-0.5,0.5 v5.5h-4.7v-5.5c0-0.3-0.2-0.5-0.5-0.5h-7.4c-0.3,0-0.5,0.2-0.5,0.5v5.5h-4.7v-5.5c0-0.3-0.2-0.5-0.5-0.5h-7.2 c-0.3,0-0.5,0.2-0.5,0.5v5.5h-4.7v-5.5c0-0.3-0.2-0.5-0.5-0.5h-8.3c-0.3,0-0.5,0.2-0.5,0.5l-8.9,64.9h80.3l-8.9-64.9 C181.2,84.9,181,84.8,180.7,84.8z"/><polygon class="st19" points="187.7,131.9 112.3,131.9 111.9,135.3 188.1,135.3"/><polygon class="st19" points="183,98.2 117,98.2 116.5,101.6 183.5,101.6"/><rect x="128.2" y="50.5" class="st20" width="43.7" height="8"/><path class="st15" d="M173.9,47.4h-47.7c-3.3,0-6.1-2-7.3-4.8h-0.6v5.7c0,4.4,3.6,8,8,8H174c4.4,0,8-3.6,8-8v-5.7h-0.6 C180,45.4,177.2,47.4,173.9,47.4z"/><path class="st26" d="M184.1,95.8h-68.2c-1,0-1.7,0.8-1.7,1.7l0,0c0,1,0.8,1.7,1.7,1.7h68.2c1,0,1.7-0.8,1.7-1.7l0,0 C185.8,96.5,185.1,95.8,184.1,95.8z"/><path class="st26" d="M187.1,129.5h-74.2c-1,0-1.7,0.8-1.7,1.7l0,0c0,1,0.8,1.7,1.7,1.7h74.2c1,0,1.7-0.8,1.7-1.7l0,0 C188.8,130.2,188.1,129.5,187.1,129.5z"/><g><path class="st10" d="M131.4,117.6h-7.3v-6.9c0-2,1.6-3.6,3.6-3.6l0,0c2,0,3.6,1.6,3.6,3.6v6.9H131.4z"/><path class="st10" d="M146.2,117.6h-7.3v-6.9c0-2,1.6-3.6,3.6-3.6l0,0c2,0,3.6,1.6,3.6,3.6L146.2,117.6L146.2,117.6z"/><path class="st10" d="M161.1,117.6h-7.3v-6.9c0-2,1.6-3.6,3.6-3.6l0,0c2,0,3.6,1.6,3.6,3.6L161.1,117.6L161.1,117.6z"/><path class="st10" d="M175.9,117.6h-7.3v-6.9c0-2,1.6-3.6,3.6-3.6l0,0c2,0,3.6,1.6,3.6,3.6L175.9,117.6L175.9,117.6z"/><circle class="st10" cx="127.8" cy="123.5" r="1.8"/><circle class="st10" cx="142.6" cy="123.5" r="1.8"/><circle class="st10" cx="157.4" cy="123.5" r="1.8"/><circle class="st10" cx="172.2" cy="123.5" r="1.8"/></g><path class="st26" d="M183.6,146.8h-5.4c-1,0-1.9-0.8-1.9-1.9V143c0-1,0.8-1.9,1.9-1.9h5.4c1,0,1.9,0.8,1.9,1.9v1.9 C185.4,146,184.6,146.8,183.6,146.8z"/><path class="st27" d="M168.4,142.6h-1.7c-1,0-1.8-0.8-1.8-1.8v-1.2c0-1,0.8-1.8,1.8-1.8h1.7c1,0,1.8,0.8,1.8,1.8v1.2 C170.3,141.8,169.5,142.6,168.4,142.6z"/><path class="st27" d="M182.4,93.4H179c-0.8,0-1.5-0.7-1.5-1.5V91c0-0.8,0.7-1.5,1.5-1.5h3.3c0.8,0,1.5,0.7,1.5,1.5v0.9 C183.8,92.8,183.2,93.4,182.4,93.4z"/><path class="st27" d="M118.1,119.9h-3.9c-0.9,0-1.7-0.7-1.7-1.7v-2.1c0-0.9,0.7-1.7,1.7-1.7h3.9c0.9,0,1.7,0.7,1.7,1.7v2.2 C119.8,119.2,119,119.9,118.1,119.9z"/><path class="st26" d="M147.6,147c0-1.2-1-2.2-2.2-2.2h-8.1c-1.2,0-2.2,1-2.2,2.2v3.1h12.4V147H147.6z"/><circle class="st28" cx="50.7" cy="132.8" r="8.2"/><path class="st28" d="M131.5,141.9c-0.6,0-1.2,0.1-1.8,0.2c-3.1-7.8-10.6-13.3-19.5-13.3c-6.7,0-12.6,3.1-16.5,8 c-1.8-0.8-3.7-1.2-5.7-1.2c-3.3,0-6.2,1.1-8.7,2.9c-1.4-6.6-7.2-11.6-14.2-11.6c-6.2,0-11.4,3.8-13.5,9.3c-1.3-0.4-2.6-0.6-4-0.6 c-5.2,0-9.8,2.8-12.4,6.9c-0.9-0.4-2-0.6-3.1-0.6c-4.5,0-8.2,3.7-8.2,8.2h115.7C139.7,145.6,136.1,141.9,131.5,141.9z"/><g class="st29"><path class="st30" d="M93.7,29.5c-2,0-3.8,0.9-5,2.4c-1.2-1.5-2.9-2.4-5-2.4c-0.8,0-1.4,0.6-1.4,1.4c0,0.8,0.6,1.4,1.4,1.4 c2,0,3.6,1.6,3.6,3.6c0,0.8,0.6,1.4,1.4,1.4l0,0l0,0c0.8,0,1.4-0.6,1.4-1.4c0-2,1.6-3.6,3.6-3.6c0.8,0,1.4-0.6,1.4-1.4 C95,30.1,94.4,29.5,93.7,29.5z"/><path class="st30" d="M103.1,36.6c-1.5,0-2.8,0.7-3.7,1.8c-0.9-1.1-2.2-1.8-3.7-1.8c-0.6,0-1,0.5-1,1c0,0.5,0.5,1,1,1 c1.5,0,2.7,1.2,2.7,2.7c0,0.6,0.5,1,1,1l0,0l0,0c0.6,0,1-0.5,1-1c0-1.5,1.2-2.7,2.7-2.7c0.6,0,1-0.5,1-1 C104.1,37.1,103.7,36.6,103.1,36.6z"/></g><g class="st31"><path class="st32" d="M173.3,51.9c0,1.1-0.9,2.1-2.1,2.1s-2.1-0.9-2.1-2.1"/><path class="st32" d="M158.1,51.9c0,1.1-0.9,2.1-2.1,2.1s-2.1-0.9-2.1-2.1"/><path class="st32" d="M132.3,51.9c0,1.1-0.9,2.1-2.1,2.1s-2.1-0.9-2.1-2.1"/><path class="st32" d="M168.7,49.7c0,1.1-0.9,2.1-2.1,2.1s-2.1-0.9-2.1-2.1"/><path class="st32" d="M142.4,52.4c0,1.1-0.9,2.1-2.1,2.1s-2.1-0.9-2.1-2.1"/><path class="st32" d="M139.8,49.5c0,1.1-0.9,2.1-2.1,2.1s-2.1-0.9-2.1-2.1"/><path class="st32" d="M140.8,49.5c0,1.1,0.9,2.1,2.1,2.1s2.1-0.9,2.1-2.1"/></g></g></svg>