<?xml version="1.0" encoding="utf-8"?><svg version="1.1" id="Layer_1" xmlns="http://www.w3.org/2000/svg" xmlns:xlink="http://www.w3.org/1999/xlink" x="0px" y="0px" width="300px" height="150px" viewBox="0 0 300 150" style="enable-background:new 0 0 300 150;" xml:space="preserve"><style type="text/css">.st0{opacity:0.61;fill:url(#SVGID_1_);} .st1{opacity:0.61;fill:url(#SVGID_2_);} .st2{fill:#4D5E2C;} .st3{fill:#893E34;} .st4{fill:#9E4E3E;} .st5{fill:#7F392F;} .st6{fill:#A57F6F;} .st7{fill:#934437;} .st8{fill:#B25040;} .st9{fill:#7C4F3D;} .st10{fill:#6A7032;} .st11{fill:#A06E4D;} .st12{fill:#737C3C;} .st13{fill:#7A8744;}</style><linearGradient id="SVGID_1_" gradientUnits="userSpaceOnUse" x1="101.1162" y1="171.089" x2="101.1162" y2="89.8383"><stop offset="0" style="stop-color:#F8A735"/><stop offset="0.9992" style="stop-color:#F28468"/></linearGradient><path class="st0" d="M101.1,89.8c-39.2,0-72.5,25.1-84.8,60h169.5C173.6,114.9,140.3,89.8,101.1,89.8z"/><linearGradient id="SVGID_2_" gradientUnits="userSpaceOnUse" x1="204.7517" y1="292.3311" x2="204.7517" y2="105.4621"><stop offset="0" style="stop-color:#F8A735"/><stop offset="0.9992" style="stop-color:#F28468"/></linearGradient><path class="st1" d="M204.8,105.5c-33.6,0-63.1,17.8-79.5,44.4h159.1C267.8,123.2,238.4,105.5,204.8,105.5z"/><path class="st2" d="M85.5,136.4c-3.8,0-7.4,1.2-10.3,3.2c-2.2-1.6-4.8-2.5-7.7-2.5c-6.8,0-12.4,5.1-13.2,11.8	c-0.5,0.3-1.1,0.7-1.6,1h50.1C100.9,142.2,93.9,136.4,85.5,136.4z"/><path class="st2" d="M245.6,149c-0.7-6.6-6.3-11.8-13.2-11.8c-2.9,0-5.5,0.9-7.7,2.5c-2.9-2-6.5-3.2-10.3-3.2	c-8.4,0-15.4,5.8-17.4,13.6h50.1C246.7,149.6,246.1,149.3,245.6,149z"/><g><path class="st3" d="M115.1,59.7v90.1h18.1v-40.1c0-9.4,7.7-17.1,17.1-17.1l0,0c9.4,0,17.1,7.7,17.1,17.1v40.1h18.2V59.7H115.1z"/><rect x="97.3" y="59.7" class="st3" width="18.5" height="90.1"/><rect x="124.9" y="64.8" class="st4" width="50.9" height="3.5"/><rect x="103.3" y="120.7" class="st5" width="29.9" height="3.5"/><rect x="103.3" y="128.3" class="st5" width="29.9" height="3.5"/><rect x="103.3" y="135.8" class="st5" width="29.9" height="3.5"/><path class="st6" d="M150.9,64.8H150c-2.3,0-4.2-1.9-4.2-4.2v-6.3h9.2v6.3C155.1,63,153.2,64.8,150.9,64.8z"/><polygon class="st7" points="122.7,134.4 122.6,134.4 122.6,59.7 110.6,59.7 110.6,134.4 110.6,134.4 107.1,145.2 107.1,145.2 107.1,149.9 126.2,149.9 126.2,145.2"/><rect x="108.3" y="59.7" class="st7" width="16.6" height="8.6"/><rect x="112.7" y="73.3" class="st5" width="2" height="54.6"/><rect x="118.7" y="73.3" class="st5" width="2" height="54.6"/><path class="st7" d="M109.7,66.1v-10c0-3.8,3.1-6.9,6.9-6.9h0.6c3.8,0,6.9,3.1,6.9,6.9v10"/><rect x="109.6" y="111.2" class="st6" width="14" height="5.6"/><rect x="109.6" y="128.3" class="st7" width="14" height="6"/><rect x="90.3" y="128.3" class="st7" width="14" height="6"/><polygon class="st8" points="118.8,47 116.9,45.4 114.8,47.2 112.7,45.4 114.7,49.6 119.2,49.6 121.2,45.4"/><rect x="89" y="59.7" class="st7" width="16.6" height="8.6"/><path class="st7" d="M90.3,66.1v-10c0-3.8,3.1-6.9,6.9-6.9h0.6c3.8,0,6.9,3.1,6.9,6.9v10"/><polygon class="st7" points="103.4,134.4 103.3,134.4 103.3,59.7 91.3,59.7 91.3,134.4 91.3,134.4 87.8,145.2 87.8,145.2 87.8,149.9 106.9,149.9 106.9,145.2"/><rect x="99.4" y="73.3" class="st5" width="2" height="54.6"/><rect x="93.4" y="73.3" class="st5" width="2" height="54.6"/><rect x="183.5" y="59.7" class="st3" width="20.8" height="90.1"/><rect x="90.3" y="111.2" class="st6" width="14" height="5.6"/><polygon class="st6" points="152,52.4 150.3,50.9 148.4,52.5 146.4,50.9 148.3,54.7 152.3,54.7 154.1,50.9"/><polygon class="st8" points="99.5,47 97.6,45.4 95.5,47.2 93.4,45.4 95.4,49.6 99.9,49.6 101.9,45.4"/><rect x="195.3" y="59.7" class="st7" width="16.6" height="8.6"/><rect x="123.4" y="72.1" class="st6" width="55.5" height="10.6"/><rect x="167.4" y="135.8" class="st5" width="29.9" height="3.5"/><polygon class="st7" points="209.5,134.4 209.4,134.4 209.4,59.7 197.4,59.7 197.4,134.4 197.4,134.4 193.9,145.2 193.9,145.2 193.9,149.9 213,149.9 213,145.2"/><rect x="167.4" y="120.7" class="st5" width="29.9" height="3.5"/><rect x="167.4" y="128.3" class="st5" width="29.9" height="3.5"/><rect x="205.4" y="70.7" class="st5" width="2" height="57.4"/><rect x="199.4" y="70.7" class="st5" width="2" height="57.4"/><rect x="196.4" y="111.2" class="st6" width="14" height="5.6"/><path class="st7" d="M196.4,66.1v-10c0-3.8,3.1-6.9,6.9-6.9h0.6c3.8,0,6.9,3.1,6.9,6.9v10"/><rect x="196.4" y="128.3" class="st7" width="14" height="6"/><rect x="177.1" y="128.3" class="st7" width="14" height="6"/><polygon class="st7" points="190.2,134.4 190.1,134.4 190.1,59.7 178.1,59.7 178.1,134.4 178.1,134.4 174.6,145.2 174.6,145.2 174.6,149.9 193.7,149.9 193.7,145.2"/><rect x="180.1" y="70.7" class="st5" width="2" height="57.4"/><polygon class="st8" points="205.6,47 203.7,45.4 201.6,47.2 199.4,45.4 201.4,49.6 205.9,49.6 207.9,45.4"/><rect x="186.1" y="70.7" class="st5" width="2" height="57.4"/><rect x="177.1" y="111.2" class="st6" width="14" height="5.6"/><rect x="176" y="59.7" class="st7" width="16.6" height="8.6"/><path class="st7" d="M177.1,66.1v-10c0-3.8,3.1-6.9,6.9-6.9h0.6c3.8,0,6.9,3.1,6.9,6.9v10"/><path class="st6" d="M142.1,64.8L142.1,64.8c-1,0-1.8-0.8-1.8-1.8v-4c0-1,0.8-1.8,1.8-1.8l0,0c1,0,1.8,0.8,1.8,1.8l0,4 C143.9,64,143.1,64.8,142.1,64.8z"/><path class="st6" d="M158.6,64.8L158.6,64.8c-1,0-1.8-0.8-1.8-1.8v-4c0-1,0.8-1.8,1.8-1.8l0,0c1,0,1.8,0.8,1.8,1.8v4 C160.5,64,159.6,64.8,158.6,64.8z"/><polygon class="st8" points="186.3,47 184.4,45.4 182.3,47.2 180.1,45.4 182.1,49.6 186.6,49.6 188.6,45.4"/><path class="st6" d="M150.1,87L150.1,87C137.4,87,127,97.3,127,110v6.9h6.1v-6.7c0-9.4,7.7-17.1,17.1-17.1 c9.4,0,17.1,7.7,17.1,17.1v6.7h5.8V110C173.2,97.3,162.8,87,150.1,87z"/><path class="st6" d="M124.6,68.4L124.6,68.4c0,1.8-1.5,3.2-3.2,3.2h-9.2c-1.8,0-3.2-1.5-3.2-3.2v0"/><path class="st6" d="M116.8,77.4L116.8,77.4c-0.9,0-1.7-0.8-1.7-1.7v-7.9c0-0.9,0.8-1.7,1.7-1.7l0,0c0.9,0,1.7,0.8,1.7,1.7v7.9 C118.5,76.7,117.7,77.4,116.8,77.4z"/><path class="st6" d="M105.1,68.4L105.1,68.4c0,1.8-1.5,3.2-3.2,3.2h-9.2c-1.8,0-3.2-1.5-3.2-3.2v0"/><path class="st6" d="M97.5,77.4L97.5,77.4c-0.9,0-1.7-0.8-1.7-1.7v-7.9c0-0.9,0.8-1.7,1.7-1.7l0,0c0.9,0,1.7,0.8,1.7,1.7v7.9 C99.2,76.7,98.4,77.4,97.5,77.4z"/><path class="st6" d="M211.1,68.4L211.1,68.4c0,1.8-1.5,3.2-3.2,3.2h-9.2c-1.8,0-3.2-1.5-3.2-3.2v0"/><path class="st6" d="M203.6,77.5h-0.3c-0.8,0-1.5-0.7-1.5-1.5v-8.6c0-0.8,0.7-1.5,1.5-1.5h0.3c0.8,0,1.5,0.7,1.5,1.5V76 C205.2,76.8,204.5,77.5,203.6,77.5z"/><path class="st6" d="M191.8,68.4L191.8,68.4c0,1.8-1.5,3.2-3.2,3.2h-9.2c-1.8,0-3.2-1.5-3.2-3.2v0"/><path class="st6" d="M185.1,77.5h-0.3c-0.8,0-1.5-0.7-1.5-1.5v-8.6c0-0.8,0.7-1.5,1.5-1.5h0.3c0.8,0,1.5,0.7,1.5,1.5V76 C186.7,76.8,186,77.5,185.1,77.5z"/><path class="st8" d="M105.4,62.7H89.1c-0.8,0-1.5-0.7-1.5-1.5v0c0-0.8,0.7-1.5,1.5-1.5h16.3c0.8,0,1.5,0.7,1.5,1.5v0 C106.9,62,106.2,62.7,105.4,62.7z"/><path class="st8" d="M124.9,62.7h-16.3c-0.8,0-1.5-0.7-1.5-1.5v0c0-0.8,0.7-1.5,1.5-1.5h16.3c0.8,0,1.5,0.7,1.5,1.5v0 C126.4,62,125.7,62.7,124.9,62.7z"/><path class="st8" d="M192,62.7h-16.3c-0.8,0-1.5-0.7-1.5-1.5v0c0-0.8,0.7-1.5,1.5-1.5H192c0.8,0,1.5,0.7,1.5,1.5v0 C193.5,62,192.8,62.7,192,62.7z"/><path class="st8" d="M211.5,62.7h-16.3c-0.8,0-1.5-0.7-1.5-1.5v0c0-0.8,0.7-1.5,1.5-1.5h16.3c0.8,0,1.5,0.7,1.5,1.5v0 C213,62,212.3,62.7,211.5,62.7z"/><rect x="87.8" y="145.2" class="st8" width="38.4" height="4.7"/><rect x="174.6" y="145.2" class="st8" width="38.4" height="4.7"/><circle class="st5" cx="97.4" cy="131.1" r="1.6"/><circle class="st5" cx="116.6" cy="131.1" r="1.6"/><circle class="st5" cx="184" cy="131.3" r="1.6"/><circle class="st5" cx="203.3" cy="131.3" r="1.6"/></g><g><rect x="220.9" y="98.7" class="st9" width="8.2" height="51.2"/><path class="st10" d="M216.8,94.6c6.2-6.2,16.2-6.2,22.4,0s6.2,16.2,0,22.4"/><path class="st10" d="M233.8,94.6c-6.2-6.2-16.2-6.2-22.4,0s-6.2,16.2,0,22.4"/><path class="st11" d="M228.7,110.5h-7c-1.3,0-2.3-1-2.3-2.3V97.3c0-1.3,1-2.3,2.3-2.3h7c1.3,0,2.3,1,2.3,2.3v10.8 C231,109.5,230,110.5,228.7,110.5z"/><path class="st12" d="M253,89.8c0,8.7-7.1,15.8-15.8,15.8c-8.7,0-15.8-7.1-15.8-15.8"/><path class="st13" d="M215.8,95.4c6.2,6.2,16.2,6.2,22.4,0c6.2-6.2,6.2-16.2,0-22.4"/><path class="st12" d="M229,89.8c0,8.7-7.1,15.8-15.8,15.8c-8.7,0-15.8-7.1-15.8-15.8"/><path class="st13" d="M234.8,95.4c-6.2,6.2-16.2,6.2-22.4,0c-6.2-6.2-6.2-16.2,0-22.4"/></g><g><rect x="70.9" y="98.7" class="st9" width="8.2" height="51.2"/><path class="st10" d="M66.8,94.6c6.2-6.2,16.2-6.2,22.4,0c6.2,6.2,6.2,16.2,0,22.4"/><path class="st10" d="M83.8,94.6c-6.2-6.2-16.2-6.2-22.4,0s-6.2,16.2,0,22.4"/><path class="st11" d="M78.7,110.5h-7c-1.3,0-2.3-1-2.3-2.3V97.3c0-1.3,1-2.3,2.3-2.3h7c1.3,0,2.3,1,2.3,2.3v10.8 C81,109.5,80,110.5,78.7,110.5z"/><path class="st12" d="M103,89.8c0,8.7-7.1,15.8-15.8,15.8s-15.8-7.1-15.8-15.8"/><path class="st13" d="M65.8,95.4c6.2,6.2,16.2,6.2,22.4,0c6.2-6.2,6.2-16.2,0-22.4"/><path class="st12" d="M79,89.8c0,8.7-7.1,15.8-15.8,15.8s-15.8-7.1-15.8-15.8"/><path class="st13" d="M84.8,95.4c-6.2,6.2-16.2,6.2-22.4,0c-6.2-6.2-6.2-16.2,0-22.4"/></g></svg>