<svg id="Layer_1" data-name="Layer 1" xmlns="http://www.w3.org/2000/svg" xmlns:xlink="http://www.w3.org/1999/xlink" width="300" height="150" viewBox="0 0 300 150"><defs><style>.cls-1 { fill: url(#linear-gradient); } .cls-2 { fill: #68a31c; } .cls-3 { fill: #cea78d; } .cls-4 { fill: #b5917d; opacity: 0.53; } .cls-5, .cls-7 { opacity: 0.75; } .cls-6, .cls-7 { fill: #fff; }</style><linearGradient id="linear-gradient" x1="149.25" y1="150" x2="149.25" y2="55.65" gradientUnits="userSpaceOnUse"><stop offset="0" stop-color="#c6e5db"/><stop offset="1" stop-color="#34bee0"/></linearGradient></defs><title>Artboard 1</title><g><path class="cls-1" d="M222.66,91.17l-9.49,7.54V83.31h-5V93.57H184.31V81.9h.49a2,2,0,0,0,2-2v-.33a2,2,0,0,0-2-2h-34a2,2,0,0,0-2,2v.33a2,2,0,0,0,2,2H152v33.9H134.65v-7.64H110.36v-2.85a2,2,0,0,0,1.85-2V103a2,2,0,0,0-1.85-2V96.46A19.39,19.39,0,0,0,96.6,77.9V70.31a6.7,6.7,0,0,0-6-6.66V57A1.31,1.31,0,0,0,88,57v6.7a6.7,6.7,0,0,0-5.92,6.65V77.9A19.39,19.39,0,0,0,68.31,96.46V101H68.2a2,2,0,0,0-2,2v.33a2,2,0,0,0,2,2h.11v5.87H54.46v8.48H37.75v18.67H20.5V150H278v-8.52l-18,0V127.9L236,127.78v-22.2h4.77Z"/><path class="cls-2" d="M224.73,141.61a11,11,0,0,0-4.89,1.15,11,11,0,0,0-20-3.19,12,12,0,0,0-11.34-3.7A17,17,0,0,0,156.9,131a15.2,15.2,0,0,0-18.62,2.26,17,17,0,0,0-28.94,4.32A15.06,15.06,0,0,0,98,139.4a13.12,13.12,0,0,0-15.11,1.1A11.68,11.68,0,0,0,64.58,150H235.42A11,11,0,0,0,224.73,141.61Z"/><g><path class="cls-3" d="M152.68,38.6l5.63-9.75-6.49-11.24a2.1,2.1,0,0,0-3.63,0L141.7,28.85l5.63,9.75-5.63,9.75L147.26,58l-5.56,9.64,5.56,9.64-5.56,9.64,5.56,9.64-5.56,9.64,5.56,9.64-5.56,9.64,5.56,9.64-5.56,9.64V150H158.3v-5.28l-5.56-9.64,5.56-9.64-5.56-9.64,5.56-9.64-5.56-9.64,5.56-9.64-5.56-9.64,5.56-9.64L152.74,58l5.56-9.64Z"/><polygon class="cls-4" points="141.69 28.85 147.21 38.39 152.79 38.39 158.31 28.85 158.22 28.71 141.78 28.71 141.69 28.85"/><polygon class="cls-4" points="152.74 57.98 158.25 48.43 141.75 48.43 147.26 57.98 147.18 58.11 152.82 58.11 152.74 57.98"/><polygon class="cls-4" points="152.74 77.26 158.26 67.7 141.74 67.7 147.26 77.26 147.19 77.38 152.81 77.38 152.74 77.26"/><polygon class="cls-4" points="152.74 96.53 158.3 86.91 141.7 86.91 147.26 96.53 147.23 96.59 152.77 96.59 152.74 96.53"/><polygon class="cls-4" points="152.74 115.81 158.3 106.18 141.7 106.18 147.26 115.81 147.23 115.86 152.77 115.86 152.74 115.81"/><polygon class="cls-4" points="147.26 135.08 147.18 135.22 152.82 135.22 152.74 135.08 158.25 125.54 141.75 125.54 147.26 135.08"/><rect class="cls-4" x="141.7" y="144.81" width="16.61" height="5.19"/></g><g class="cls-5"><path class="cls-6" d="M126,93.43h-2.86a9.69,9.69,0,0,0,.73-3.69,9.8,9.8,0,0,0-18.44-4.61,9.77,9.77,0,0,0-13.91,8.31H85.93a2.27,2.27,0,1,0,0,4.54h40a2.27,2.27,0,1,0,0-4.54Z"/><path class="cls-6" d="M76.55,93.43h-6a2.27,2.27,0,1,0,0,4.54h6a2.27,2.27,0,1,0,0-4.54Z"/></g><path class="cls-7" d="M206,54.22h-2.35a8,8,0,0,0,.6-3,8,8,0,0,0-15.15-3.79,8,8,0,0,0-11.43,6.82H173.1a1.87,1.87,0,1,0,0,3.73H206a1.87,1.87,0,1,0,0-3.73Z"/></g></svg>