<svg id="Layer_1" data-name="Layer 1" xmlns="http://www.w3.org/2000/svg" xmlns:xlink="http://www.w3.org/1999/xlink" width="300" height="150" viewBox="0 0 300 150"><defs><style>.cls-1,.cls-3{opacity:.8}.cls-1{fill:url(#linear-gradient)}.cls-2{fill:#bd9db0}.cls-3{fill:url(#linear-gradient-2)}.cls-4{fill:url(#linear-gradient-3)}.cls-5{fill:url(#linear-gradient-4)}.cls-6{fill:url(#linear-gradient-5)}.cls-7{fill:url(#linear-gradient-6)}.cls-8{fill:#a68499}.cls-9{fill:#b490a6}.cls-10{fill:#b191ad}.cls-11{fill:#dfc5c5}.cls-12{fill:url(#linear-gradient-7)}.cls-13{fill:#c8adb4}.cls-14{fill:url(#linear-gradient-8)}.cls-15{fill:url(#linear-gradient-9)}.cls-16{fill:url(#linear-gradient-10)}.cls-17{fill:url(#linear-gradient-11)}.cls-18,.cls-19,.cls-20,.cls-21,.cls-22,.cls-23,.cls-24,.cls-25,.cls-26,.cls-27{opacity:.5}.cls-18{fill:url(#linear-gradient-12)}.cls-19{fill:url(#linear-gradient-13)}.cls-20{fill:url(#linear-gradient-14)}.cls-21{fill:url(#linear-gradient-15)}.cls-22{fill:url(#linear-gradient-16)}.cls-23{fill:url(#linear-gradient-17)}.cls-24{fill:url(#linear-gradient-18)}.cls-25{fill:url(#linear-gradient-19)}.cls-26{fill:url(#linear-gradient-20)}.cls-27{fill:url(#linear-gradient-21)}.cls-28{fill:#a78a9c}.cls-29{fill:#e6cfcb}.cls-30{fill:#869cd0}</style><linearGradient id="linear-gradient" x1="66.87" y1="155.81" x2="66.87" y2="106.33" gradientUnits="userSpaceOnUse"><stop offset="0" stop-color="#4e6cbf"/><stop offset="1" stop-color="#1f49a6"/></linearGradient><linearGradient id="linear-gradient-2" x1="225.63" y1="150.08" x2="225.63" y2="116.78" xlink:href="#linear-gradient"/><linearGradient id="linear-gradient-3" x1="172.77" y1="141.9" x2="172.77" y2="98.45" gradientUnits="userSpaceOnUse"><stop offset="0" stop-color="#fef4e1"/><stop offset=".02" stop-color="#fcf1df"/><stop offset=".24" stop-color="#ead9d0"/><stop offset=".46" stop-color="#dec8c5"/><stop offset=".71" stop-color="#d6bdbe"/><stop offset="1" stop-color="#d4babc"/></linearGradient><linearGradient id="linear-gradient-4" x1="127.09" y1="141.9" x2="127.09" y2="98.45" xlink:href="#linear-gradient-3"/><linearGradient id="linear-gradient-5" x1="134" y1="141.9" x2="134" y2="98.45" gradientUnits="userSpaceOnUse"><stop offset="0" stop-color="#ddc5c6" stop-opacity=".05"/><stop offset=".11" stop-color="#dac1c3" stop-opacity=".17"/><stop offset=".54" stop-color="#ceb1b8" stop-opacity=".61"/><stop offset=".85" stop-color="#c7a8b1" stop-opacity=".89"/><stop offset="1" stop-color="#c4a4ae"/></linearGradient><linearGradient id="linear-gradient-6" x1="165.98" y1="141.9" x2="165.98" y2="98.45" xlink:href="#linear-gradient-5"/><linearGradient id="linear-gradient-7" x1="104.35" y1="141.9" x2="104.35" y2="101.78" gradientUnits="userSpaceOnUse"><stop offset="0" stop-color="#ddc5c6"/><stop offset=".11" stop-color="#d6bcc1"/><stop offset=".37" stop-color="#c8abb7"/><stop offset=".66" stop-color="#c0a0b2"/><stop offset="1" stop-color="#bd9db0"/></linearGradient><linearGradient id="linear-gradient-8" x1="195.6" y1="141.9" x2="195.6" y2="101.78" xlink:href="#linear-gradient-7"/><linearGradient id="linear-gradient-9" x1="149.93" y1="141.9" x2="149.93" y2="101.78" xlink:href="#linear-gradient-7"/><linearGradient id="linear-gradient-10" x1="172.77" y1="141.9" x2="172.77" y2="101.78" xlink:href="#linear-gradient-7"/><linearGradient id="linear-gradient-11" x1="127.09" y1="141.9" x2="127.09" y2="101.78" xlink:href="#linear-gradient-7"/><linearGradient id="linear-gradient-12" x1="106.19" y1="115.11" x2="106.19" y2="139.9" gradientTransform="rotate(90 106.185 127.505)" gradientUnits="userSpaceOnUse"><stop offset="0" stop-color="#b490a6" stop-opacity=".1"/><stop offset=".04" stop-color="#b490a6" stop-opacity=".14"/><stop offset=".37" stop-color="#b490a6" stop-opacity=".47"/><stop offset=".65" stop-color="#b490a6" stop-opacity=".7"/><stop offset=".87" stop-color="#b490a6" stop-opacity=".85"/><stop offset="1" stop-color="#b490a6" stop-opacity=".9"/></linearGradient><linearGradient id="linear-gradient-13" x1="102.51" y1="115.11" x2="102.51" y2="139.9" gradientTransform="rotate(90 102.505 127.505)" xlink:href="#linear-gradient-12"/><linearGradient id="linear-gradient-14" x1="128.93" y1="115.11" x2="128.93" y2="139.9" gradientTransform="rotate(90 128.935 127.505)" xlink:href="#linear-gradient-12"/><linearGradient id="linear-gradient-15" x1="125.26" y1="115.11" x2="125.26" y2="139.9" gradientTransform="rotate(90 125.255 127.505)" xlink:href="#linear-gradient-12"/><linearGradient id="linear-gradient-16" x1="151.77" y1="115.11" x2="151.77" y2="139.9" gradientTransform="rotate(90 151.77 127.5)" xlink:href="#linear-gradient-12"/><linearGradient id="linear-gradient-17" x1="148.09" y1="115.11" x2="148.09" y2="139.9" gradientTransform="rotate(90 148.095 127.505)" xlink:href="#linear-gradient-12"/><linearGradient id="linear-gradient-18" x1="174.61" y1="115.11" x2="174.61" y2="139.9" gradientTransform="rotate(90 174.605 127.505)" xlink:href="#linear-gradient-12"/><linearGradient id="linear-gradient-19" x1="170.93" y1="115.11" x2="170.93" y2="139.9" gradientTransform="rotate(90 170.925 127.505)" xlink:href="#linear-gradient-12"/><linearGradient id="linear-gradient-20" x1="197.44" y1="115.11" x2="197.44" y2="139.9" gradientTransform="rotate(90 197.445 127.505)" xlink:href="#linear-gradient-12"/><linearGradient id="linear-gradient-21" x1="193.76" y1="115.11" x2="193.76" y2="139.9" gradientTransform="rotate(90 193.765 127.505)" xlink:href="#linear-gradient-12"/></defs><title>Artboard 1</title><path class="cls-1" d="M85.82 112.81a30.92 30.92 0 0 0-37.9 0L0 150h133.77z"/><path class="cls-2" d="M164.92 73h-1.78v1.55h-7.36V73h-5.85v-4.18L96.7 83.67h106.55L164.92 73z"/><path class="cls-3" d="M300.77 150.08H150.5l56-28.94c11.26-5.82 27-5.82 38.28 0z"/><path class="cls-4" d="M160.38 98.45h24.77v43.45h-24.77z"/><path class="cls-5" d="M114.71 98.45h24.77v43.45h-24.77z"/><path class="cls-6" d="M131.23 98.45h5.53v43.45h-5.53z"/><path class="cls-7" d="M163.22 98.45h5.53v43.45h-5.53z"/><rect class="cls-8" x="218.31" y="128.48" width="20.54" height="22.53" rx="2.74" ry="2.74" transform="rotate(-90 228.58 139.74)"/><path class="cls-9" d="M250.88 134.57h5.6a2.74 2.74 0 0 1 2.74 2.74v17a2.74 2.74 0 0 1-2.74 2.74h-5.6v-22.48z" transform="rotate(-90 255.05 145.84)"/><path class="cls-8" d="M69.74 133.36h4.93a2.64 2.64 0 0 1 2.64 2.64v20.54H67.1V136a2.64 2.64 0 0 1 2.64-2.64z" transform="rotate(-90 72.205 144.945)"/><path class="cls-2" d="M118.34 77.66l6-1.67a1.34 1.34 0 0 0 .93-1.65 1.34 1.34 0 0 0-1.65-.93l-6 1.67a1.34 1.34 0 0 0-.93 1.65 1.34 1.34 0 0 0 1.65.93z"/><rect class="cls-2" x="94.9" y="79.52" width="14.15" height="2.68" rx="1.34" ry="1.34" transform="rotate(164.44 101.979 80.86)"/><rect class="cls-2" x="190.9" y="79.52" width="14.15" height="2.68" rx="1.34" ry="1.34" transform="rotate(15.56 197.962 80.839)"/><rect class="cls-2" x="174.05" y="73.76" width="6.64" height="2.68" rx="1.34" ry="1.34" transform="rotate(15.79 177.327 75.074)"/><path class="cls-2" d="M98.71 86.96h102.53v11.53H98.71z"/><path class="cls-10" d="M98.71 86.96h102.53v4.1H98.71z"/><path class="cls-11" d="M94.67 141.9h110.61v4.13H94.67z"/><path class="cls-11" d="M90.63 145.88h118.7v4.13H90.63z"/><path class="cls-12" d="M99.63 101.78h9.43v40.12h-9.43z"/><rect class="cls-13" x="97.27" y="98.49" width="14.15" height="3.29" rx="1.65" ry="1.65"/><path class="cls-14" d="M190.89 101.78h9.43v40.12h-9.43z"/><path class="cls-15" d="M145.21 101.78h9.43v40.12h-9.43z"/><path class="cls-16" d="M168.05 101.78h9.43v40.12h-9.43z"/><path class="cls-17" d="M122.38 101.78h9.43v40.12h-9.43z"/><rect class="cls-13" x="120.02" y="98.49" width="14.15" height="3.29" rx="1.65" ry="1.65"/><rect class="cls-13" x="142.9" y="98.49" width="14.15" height="3.29" rx="1.65" ry="1.65"/><path class="cls-2" d="M96.7 83.67h106.56v3.29H96.7z"/><path class="cls-10" d="M96.7 83.67H203.25l-26.66-7.42h-53.28L96.7 83.67z"/><rect class="cls-13" x="165.69" y="98.49" width="14.15" height="3.29" rx="1.65" ry="1.65"/><rect class="cls-13" x="188.53" y="98.49" width="14.15" height="3.29" rx="1.65" ry="1.65"/><path class="cls-10" d="M98.71 95.16h12.71v3.29H98.71zM120.02 95.16h14.15v3.29h-14.15zM142.9 95.16h14.15v3.29H142.9zM165.69 95.16h14.15v3.29h-14.15zM188.53 95.16h12.71v3.29h-12.71z"/><rect class="cls-18" x="93.79" y="126.73" width="24.79" height="1.55" rx=".78" ry=".78" transform="rotate(-90 106.185 127.505)"/><rect class="cls-19" x="90.11" y="126.73" width="24.79" height="1.55" rx=".78" ry=".78" transform="rotate(-90 102.505 127.505)"/><rect class="cls-20" x="116.54" y="126.73" width="24.79" height="1.55" rx=".78" ry=".78" transform="rotate(-90 128.935 127.505)"/><rect class="cls-21" x="112.86" y="126.73" width="24.79" height="1.55" rx=".78" ry=".78" transform="rotate(-90 125.255 127.505)"/><rect class="cls-22" x="139.37" y="126.73" width="24.79" height="1.55" rx=".78" ry=".78" transform="rotate(-90 151.77 127.5)"/><rect class="cls-23" x="135.7" y="126.73" width="24.79" height="1.55" rx=".78" ry=".78" transform="rotate(-90 148.095 127.505)"/><rect class="cls-24" x="162.21" y="126.73" width="24.79" height="1.55" rx=".78" ry=".78" transform="rotate(-90 174.605 127.505)"/><rect class="cls-25" x="158.53" y="126.73" width="24.79" height="1.55" rx=".78" ry=".78" transform="rotate(-90 170.925 127.505)"/><rect class="cls-26" x="185.05" y="126.73" width="24.79" height="1.55" rx=".78" ry=".78" transform="rotate(-90 197.445 127.505)"/><rect class="cls-27" x="181.37" y="126.73" width="24.79" height="1.55" rx=".78" ry=".78" transform="rotate(-90 193.765 127.505)"/><path class="cls-2" d="M190.71 85h3.93v3.93h-3.93zM180.03 85h3.93v3.93h-3.93zM169.36 85h3.93v3.93h-3.93zM158.69 85h3.93v3.93h-3.93zM148.01 85h3.93v3.93h-3.93zM137.34 85h3.93v3.93h-3.93zM126.66 85h3.93v3.93h-3.93zM115.99 85h3.93v3.93h-3.93zM105.32 85h3.93v3.93h-3.93z"/><rect class="cls-28" x="149.02" y="73.88" width="5.84" height="2.82" rx=".74" ry=".74"/><rect class="cls-28" x="151.94" y="77.65" width="5.84" height="2.82" rx=".74" ry=".74"/><rect class="cls-28" x="158.74" y="77.65" width="5.84" height="2.82" rx=".74" ry=".74"/><rect class="cls-29" x="121.96" y="142.86" width="8.15" height="2.82" rx=".74" ry=".74"/><rect class="cls-29" x="146.5" y="146.44" width="8.15" height="2.82" rx=".74" ry=".74"/><path class="cls-9" d="M129.32 145.4h14.2v4.6h-14.2z"/><path class="cls-9" d="M128.06 143.96h16.72v3.46h-16.72zM74.14 131.18h10.21v18.87H74.14z"/><path class="cls-9" d="M73.24 129.39h12.01v2.63H73.24z"/><rect class="cls-8" x="73.09" y="139.53" width="16.56" height="1.55" rx=".78" ry=".78" transform="rotate(-90 81.37 140.3)"/><rect class="cls-8" x="68.84" y="139.53" width="16.56" height="1.55" rx=".78" ry=".78" transform="rotate(-90 77.12 140.3)"/><path class="cls-9" transform="rotate(-90 206.39 147.14)" d="M203.52 134.1h5.74v26.08h-5.74z"/><path class="cls-9" transform="rotate(-90 192.7 146.63)" d="M189.32 144.82h6.76v3.63h-6.76z"/><path class="cls-9" d="M213.3 139h6.17a1.87 1.87 0 0 1 1.87 1.87v10.2a1.87 1.87 0 0 1-1.87 1.87h-6.17V139z" transform="rotate(-90 217.315 145.995)"/><circle class="cls-30" cx="219.24" cy="56.58" r="11.36"/><rect class="cls-29" x="150.57" y="142.86" width="8.15" height="2.82" rx=".74" ry=".74"/><rect class="cls-29" x="177.37" y="146.44" width="8.15" height="2.82" rx=".74" ry=".74"/></svg>