<svg id="Layer_1" data-name="Layer 1" xmlns="http://www.w3.org/2000/svg" xmlns:xlink="http://www.w3.org/1999/xlink" width="300" height="150" viewBox="0 0 300 150"><defs><style>.cls-1{fill:url(#linear-gradient)}.cls-2{fill:#63961b}.cls-3{fill:#7c4f3d}.cls-4{fill:#6a7032}.cls-5{fill:#a06e4d}.cls-6{fill:#737c3c}.cls-7{fill:#7a8744}.cls-8{fill:#24383c}.cls-9{fill:#fff}.cls-10,.cls-12,.cls-28{opacity:.05}.cls-10{fill:url(#linear-gradient-2)}.cls-11,.cls-21,.cls-22{fill:#3c3c3c}.cls-11{opacity:.4}.cls-12,.cls-25{fill:#4e9df1}.cls-13,.cls-21{opacity:.1}.cls-13{fill:url(#linear-gradient-3)}.cls-14,.cls-15,.cls-16{opacity:.18}.cls-14{fill:url(#linear-gradient-4)}.cls-15{fill:url(#linear-gradient-5)}.cls-16{fill:url(#linear-gradient-6)}.cls-17,.cls-25{opacity:.13}.cls-17{fill:url(#linear-gradient-7)}.cls-18{fill:#f6f7f5}.cls-19{fill:#2d4441}.cls-20{fill:#e6e7e8}.cls-22{opacity:.15}.cls-23{opacity:.3}.cls-24{fill:none;stroke:#fff;stroke-miterlimit:10}.cls-26{opacity:.2;fill:url(#linear-gradient-8)}.cls-27{fill:#d0d2d3}.cls-29{fill:url(#linear-gradient-9)}</style><linearGradient id="linear-gradient" x1="150" y1="149.86" x2="150" y2="28.95" gradientUnits="userSpaceOnUse"><stop offset="0" stop-color="#6ac6ed"/><stop offset=".04" stop-color="#68c4ed"/><stop offset=".65" stop-color="#52a5f2"/><stop offset="1" stop-color="#499af4"/></linearGradient><linearGradient id="linear-gradient-2" x1="145.05" y1="42.97" x2="154.95" y2="42.97" gradientUnits="userSpaceOnUse"><stop offset="0" stop-color="#4e9df1"/><stop offset="0" stop-color="#546ec6"/><stop offset="1" stop-color="#f7af2b"/></linearGradient><linearGradient id="linear-gradient-3" x1="143.99" y1="39.48" x2="156.01" y2="39.48" xlink:href="#linear-gradient-2"/><linearGradient id="linear-gradient-4" x1="84.56" y1="127.55" x2="215.44" y2="127.55" xlink:href="#linear-gradient-2"/><linearGradient id="linear-gradient-5" x1="81.78" y1="137.73" x2="218.22" y2="137.73" xlink:href="#linear-gradient-2"/><linearGradient id="linear-gradient-6" x1="99.82" y1="77.29" x2="200.11" y2="77.29" xlink:href="#linear-gradient-2"/><linearGradient id="linear-gradient-7" x1="97.84" y1="117.54" x2="202.09" y2="117.54" xlink:href="#linear-gradient-2"/><linearGradient id="linear-gradient-8" x1="122.69" y1="60.82" x2="177.3" y2="60.82" xlink:href="#linear-gradient-2"/><linearGradient id="linear-gradient-9" x1="107.52" y1="108.58" x2="192.48" y2="108.58" xlink:href="#linear-gradient-2"/></defs><title>Artboard 1</title><path class="cls-1" d="M227.69 80.91v14.46h-8.66V50.49h-8.4V28.95h-2.13v10.68h-4.14V28.95h-2.13v36.26h-69.1V39.63h-8v-10.1h-15.11v10.1H91.44v51.65h-8.66V54.91h-9.93V42.28h-2.13v12.63h-5.16v9.63h-7.1v57.2h-6.44v-12.99H26v20.55l-10.04-.01v20.57H205.03h-7.34 86.35v-20.55l-28.92-.01V80.91h-27.43z"/><path class="cls-2" d="M131 128.68a10.83 10.83 0 0 0-10.62 8.68 9.9 9.9 0 0 0-9.29 1.09 11.51 11.51 0 0 0-17.87-1.8 11.23 11.23 0 0 0-18.48 2.18 12.31 12.31 0 0 0-9.77 2A12.37 12.37 0 0 0 45.49 150h80.62c.08-.23.16-.47.23-.71a11 11 0 0 0 2 .71h5.33a10.83 10.83 0 0 0-2.67-21.32zM176.9 128.68a10.83 10.83 0 0 1 10.62 8.68 9.9 9.9 0 0 1 9.29 1.09 11.51 11.51 0 0 1 17.87-1.8 11.23 11.23 0 0 1 18.48 2.18 12.31 12.31 0 0 1 9.77 2 12.37 12.37 0 0 1 19.45 9.2h-80.62c-.08-.23-.16-.47-.23-.71a11 11 0 0 1-2 .71h-5.33a10.83 10.83 0 0 1 2.67-21.32z"/><path class="cls-3" d="M226.17 124.41h4.08V150h-4.08z"/><path class="cls-4" d="M224.14 122.38a7.91 7.91 0 1 1 11.19 11.19M232.65 122.38a7.91 7.91 0 1 0-11.19 11.19"/><rect class="cls-5" x="225.42" y="122.58" width="5.83" height="7.75" rx="1.16" ry="1.16"/><path class="cls-6" d="M242.25 120a7.91 7.91 0 1 1-15.82 0"/><path class="cls-7" d="M223.64 122.76a7.91 7.91 0 1 0 11.19-11.19"/><path class="cls-6" d="M230.25 120a7.91 7.91 0 1 1-15.82 0"/><path class="cls-7" d="M233.15 122.76A7.91 7.91 0 1 1 222 111.57"/><path class="cls-3" d="M78.06 124.41h4.08V150h-4.08z"/><path class="cls-4" d="M76 122.38a7.91 7.91 0 1 1 11.19 11.19M84.53 122.38a7.91 7.91 0 1 0-11.19 11.19"/><rect class="cls-5" x="77.31" y="122.58" width="5.83" height="7.75" rx="1.16" ry="1.16"/><path class="cls-6" d="M94.13 120a7.91 7.91 0 1 1-15.82 0"/><path class="cls-7" d="M75.52 122.76a7.91 7.91 0 0 0 11.19-11.19"/><path class="cls-6" d="M82.14 120a7.91 7.91 0 1 1-15.82 0"/><path class="cls-7" d="M85 122.76a7.91 7.91 0 1 1-11.19-11.19"/><circle class="cls-8" cx="150" cy="39.33" r="4.16"/><path class="cls-9" d="M145.05 38.76h9.89v8.42h-9.89z"/><path class="cls-10" d="M145.05 38.76h9.89v8.42h-9.89z"/><path class="cls-11" d="M150 41.34a1.51 1.51 0 0 1 1.51 1.51v6.37h-3v-6.38a1.51 1.51 0 0 1 1.49-1.5z"/><rect class="cls-9" x="143.99" y="38.76" width="12.02" height="1.44" rx=".72" ry=".72"/><rect class="cls-12" x="143.99" y="38.76" width="12.02" height="1.44" rx=".72" ry=".72"/><rect class="cls-13" x="143.99" y="38.76" width="12.02" height="1.44" rx=".72" ry=".72"/><circle class="cls-8" cx="196.65" cy="115.37" r="17.88"/><circle class="cls-8" cx="103.49" cy="115.37" r="17.88"/><path class="cls-9" d="M87.9 105.11h124.2a3.34 3.34 0 0 1 3.34 3.34V150H84.56v-41.55a3.34 3.34 0 0 1 3.34-3.34z"/><path class="cls-14" d="M87.9 105.11h124.2a3.34 3.34 0 0 1 3.34 3.34V150H84.56v-41.55a3.34 3.34 0 0 1 3.34-3.34z"/><path class="cls-11" d="M206.73 110.12a1.82 1.82 0 0 1 1.82 1.82v10.73h-3.65v-10.73a1.82 1.82 0 0 1 1.83-1.82z"/><path class="cls-11" d="M91.6 110.12h3.65v10.73a1.82 1.82 0 0 1-1.82 1.82 1.82 1.82 0 0 1-1.82-1.82v-10.73z" transform="rotate(-180 93.42 116.395)"/><path class="cls-8" d="M216.69 135.07a17.88 17.88 0 0 0-35.77 0M119.22 135.07a17.88 17.88 0 0 0-35.77 0"/><path class="cls-9" d="M85.15 125.47h129.7a3.37 3.37 0 0 1 3.37 3.37V150H81.78v-21.16a3.37 3.37 0 0 1 3.37-3.37z"/><path class="cls-15" d="M85.15 125.47h129.7a3.37 3.37 0 0 1 3.37 3.37V150H81.78v-21.16a3.37 3.37 0 0 1 3.37-3.37z"/><circle class="cls-8" cx="150" cy="68.49" r="22.61"/><path class="cls-9" d="M123.85 61.57h52.29v12.3h-52.29z"/><path class="cls-9" d="M103.43 72.48h93.14v20.53h-93.14z"/><path class="cls-9" d="M166.2 72.48h33.91a3.44 3.44 0 0 1-3.44 3.44H166.2v-3.44z"/><path class="cls-9" d="M99.82 72.48h30.47a3.44 3.44 0 0 1 3.44 3.44H99.82v-3.44z" transform="rotate(180 116.775 74.2)"/><path class="cls-16" d="M176.15 72.48V61.57h-52.3v10.9h-24a3.44 3.44 0 0 0 3.44 3.44h.16V93h93.14V75.92h.1a3.44 3.44 0 0 0 3.44-3.44z"/><path class="cls-9" d="M101.34 85.08h97.32V150h-97.32z"/><path class="cls-11" d="M187.7 78.8a3 3 0 0 1 3 3v4.32h-6.08v-4.28a3 3 0 0 1 3-3zM112.3 78.8a3 3 0 0 1 3 3v4.32h-6.08v-4.28a3 3 0 0 1 3.08-3.04z"/><path class="cls-9" d="M178.1 85.08h24a3.44 3.44 0 0 1-3.44 3.44H178.1v-3.44z"/><path class="cls-9" d="M97.84 85.08h20.55a3.44 3.44 0 0 1 3.44 3.44h-24v-3.44h.01z" transform="rotate(180 109.835 86.805)"/><path class="cls-17" d="M202.09 85.08H97.84a3.44 3.44 0 0 0 3.44 3.44h.06V150h97.32V88.53a3.44 3.44 0 0 0 3.43-3.45z"/><circle class="cls-9" cx="150" cy="100.01" r="32.84"/><path class="cls-9" d="M188.07 93h-6a32.84 32.84 0 0 0-64.17 0h-10.38a4.23 4.23 0 0 0 4.23 4.23h.18V150h76.14V97.26h.18a4.23 4.23 0 0 0 4.23-4.26z"/><path class="cls-11" d="M93.42 130.92h3.65v10.73a1.82 1.82 0 0 1-1.82 1.82 1.82 1.82 0 0 1-1.82-1.82v-10.73z" transform="rotate(-180 95.24 137.2)"/><path class="cls-11" d="M85.88 130.92h3.65v10.73a1.82 1.82 0 0 1-1.82 1.82 1.82 1.82 0 0 1-1.82-1.82v-10.73h-.01z" transform="rotate(-180 87.7 137.2)"/><path class="cls-11" d="M210.52 130.92h3.65v10.73a1.82 1.82 0 0 1-1.82 1.82 1.82 1.82 0 0 1-1.82-1.82v-10.73h-.01z" transform="rotate(-180 212.345 137.2)"/><path class="cls-11" d="M203 130.92h3.65v10.73a1.82 1.82 0 0 1-1.82 1.82 1.82 1.82 0 0 1-1.82-1.82v-10.73H203z" transform="rotate(-180 204.805 137.2)"/><rect class="cls-18" x="122.69" y="59.86" width="54.61" height="1.92" rx=".94" ry=".94"/><circle class="cls-19" cx="150" cy="100.01" r="28.79"/><path class="cls-9" d="M111.93 93.01h76.14V150h-76.14z"/><path class="cls-20" d="M181.82 97.26h6.25v1.88"/><path class="cls-21" d="M194.25 88.53h4.41v1.32M105.75 88.53h-4.41v1.32"/><path class="cls-20" d="M118.18 97.26h-6.25v1.88"/><path class="cls-9" d="M107.52 93h85a4.23 4.23 0 0 1-4.23 4.23h-76.54a4.23 4.23 0 0 1-4.23-4.23z"/><path class="cls-22" d="M192.16 75.92h4.41v1.33"/><g class="cls-23"><path class="cls-24" d="M171.23 98.06c0-11.33-9.51-20.52-21.23-20.52s-21.23 9.19-21.23 20.52M164.9 98.06a14.91 14.91 0 0 0-29.8 0M158.91 98.06a8.92 8.92 0 0 0-17.82 0M156.35 85.03l-2.46 5.28M150 77.54v6.36M158.95 79.45l2.65-5.8M143.65 85.03l2.46 5.28M141.05 79.45l-2.66-5.8M134.41 84.47l4.39 4.1M165.58 84.47l-4.38 4.1M176.33 88.36l-6.12 3.01M123.72 88.24l6.06 3.13"/></g><path class="cls-22" d="M107.84 75.92h-4.41v1.33"/><path class="cls-20" d="M181.82 97.26h6.25v1.88"/><path class="cls-21" d="M194.25 88.53h4.41v1.32M105.75 88.53h-4.41v1.32"/><path class="cls-25" d="M194.25 88.53h4.41v1.32M105.75 88.53h-4.41v1.32"/><path class="cls-20" d="M118.18 97.26h-6.25v1.88"/><path class="cls-25" d="M181.82 97.26h6.25v1.88M118.18 97.26h-6.25v1.88"/><path class="cls-22" d="M192.16 75.92h4.41v1.33M107.84 75.92h-4.41v1.33"/><path class="cls-25" d="M192.16 75.92h4.41v1.33M107.84 75.92h-4.41v1.33"/><rect class="cls-26" x="122.69" y="59.86" width="54.61" height="1.92" rx=".94" ry=".94"/><circle class="cls-27" cx="150" cy="105.11" r="4.16"/><circle class="cls-27" cx="158.43" cy="105.11" r="1.24"/><circle class="cls-27" cx="141.57" cy="105.11" r="1.24"/><path class="cls-19" d="M150 112.21a8 8 0 0 1 8 8V150h-16v-29.8a8 8 0 0 1 8-7.99zM127.23 112.21a8 8 0 0 1 8 8V150h-16v-29.8a8 8 0 0 1 8-7.99zM172.61 112.21a8 8 0 0 1 8 8V150h-16v-29.8a8 8 0 0 1 8-7.99z"/><g class="cls-28"><path class="cls-29" d="M188.07 93h-6a32.84 32.84 0 0 0-64.17 0h-10.38a4.23 4.23 0 0 0 4.23 4.23h.18V150h76.14V97.26h.18a4.23 4.23 0 0 0 4.23-4.26zm-66 0a28.8 28.8 0 0 1 55.86 0z"/></g></svg>