<?xml version="1.0" encoding="UTF-8"?><svg width="230px" height="113px" viewBox="0 0 230 113" version="1.1" xmlns="http://www.w3.org/2000/svg" xmlns:xlink="http://www.w3.org/1999/xlink"><title>pile-of-gems</title><desc>Created with Sketch.</desc><defs/><g id="Page-1" stroke="none" stroke-width="1" fill="none" fill-rule="evenodd"><g id="pile-of-gems"><path d="M0,106 C0,101.357866 3.42980059,98 8,98 L222,98 C226.573812,98 230,101.328987 230,106 C230,109.642135 226.570159,113 222,113 L8,113 C3.42614765,113 0,109.671015 0,106 Z" id="Clip-2" fill="#D8D8D8"/><polygon id="Clip-11" fill="#1AA1E9" points="47.3529412 67 147.678671 67 147.678671 98.1176471 47.3529412 98.1176471"/><path d="M18.6604006,75.8694629 C19.1662112,74.4627559 20.7907959,73.3224024 22.2772047,73.3224024 L60.5800788,73.3224024 C62.0717776,73.3224024 63.2810229,74.5222582 63.2810229,76.0365782 L63.2810229,96.19666 C63.2810229,97.6956647 62.0766076,98.9108359 60.5846924,98.9108359 L13.0716035,98.9108359 C11.5824482,98.9108359 10.7824947,97.7783159 11.2911329,96.3637753 L18.6604006,75.8694629 Z" id="Clip-14" fill="#39BFFF"/><path d="M215.334253,58.1039247 C216.728188,60.5182753 216.724535,64.4391394 215.334253,66.8471312 L207.607065,80.23098 C206.213129,82.6453847 202.862976,84.6026171 200.090394,84.6026171 L176.239124,84.6026171 C173.481694,84.6026171 170.112735,82.6389718 168.722453,80.23098 L160.995265,66.8471312 C159.601329,64.43274 159.604982,60.5118624 160.995265,58.1039247 L168.722453,44.7200218 C170.116388,42.3056306 173.466541,40.3483982 176.239124,40.3483982 L200.090394,40.3483982 C202.847824,40.3483982 206.216782,42.31203 207.607065,44.7200218 L215.334253,58.1039247 Z" id="Clip-17" fill="#1AA1E9"/><path d="M213.3457,74.9468924 C212.829959,73.5467876 211.208594,72.4117647 209.703582,72.4117647 L171.825829,72.4117647 C170.330153,72.4117647 169.117647,73.6171406 169.117647,75.1141565 L169.117647,95.4152553 C169.117647,96.9077388 170.318788,98.1176471 171.825018,98.1176471 L219.174982,98.1176471 C220.670253,98.1176471 221.463212,96.9799318 220.948418,95.5825194 L213.3457,74.9468924 Z" id="Clip-20" fill="#75D3FF"/><path d="M116,4 C114.660789,1.84907212 111.369181,0 109,0 L85,0 C82.0455837,0 78.8079477,1.84123028 77,4 L60,34 C58.659959,36.3128106 58.6773739,40.0657798 60,42 L72,63 C73.3391659,65.1509279 76.6308003,67 79,67 L103,67 C105.954398,67 109.192047,65.1587562 111,63 L128,33 C129.340036,30.6871894 129.322634,26.9342609 128,25 L116,4 Z" id="Clip-23" fill="#39BFFF"/><path d="M46.9974153,36.4676353 C44.0455006,36.5840829 40.5127276,38.8344706 39.1223776,41.4643312 L29.6575665,59.3679371 C28.2602488,62.0110294 28.4021859,66.2253735 29.9254082,68.7009447 L45.7311435,94.38909 C47.2763918,96.9004329 50.9368282,98.8412947 53.8739688,98.7253747 L73.8692894,97.9363665 C76.8212312,97.8198782 80.3540582,95.5695041 81.7443406,92.9396165 L91.2091382,75.0360647 C92.6064829,72.3929182 92.4645459,68.1785876 90.9413641,65.70303 L75.1355747,40.0148712 C73.5903806,37.5035418 69.92989,35.5627071 66.9927629,35.6785729 L46.9974153,36.4676353 Z" id="Clip-26" fill="#1AA1E9"/><path d="M43.6556964,37.3673291 C44.7583806,36.8388492 45.9168169,36.5102629 46.9974153,36.4676353 L66.9927629,35.6785729 C69.92989,35.5627071 73.5903806,37.5035418 75.1355747,40.0148712 L77.9535685,44.5947798 C76.083273,50.2371027 70.3055985,53.8036182 64.2808194,52.7412853 L53.6279771,50.8629024 C47.2075074,49.730807 42.8542802,43.7645804 43.6556964,37.3673291 L43.6556964,37.3673291 Z" id="Clip-29" fill="#39BFFF"/><path d="M148.512488,15.6861341 C146.986776,13.0435424 143.253065,10.9012547 140.224776,10.9012547 L120.765018,10.9012547 C117.713459,10.9012547 113.97604,13.0901376 112.473085,15.6933182 L97.8039418,41.1010665 C96.2759165,43.74769 96.28559,48.0554547 97.7997882,50.6781176 L107.529641,67.5307859 C109.055406,70.1734182 112.788983,72.3157059 115.817312,72.3157059 L135.277206,72.3157059 C138.328629,72.3157059 142.065994,70.1267688 143.569112,67.5235882 L158.238241,42.11584 C159.766253,39.4692165 159.756512,35.1614518 158.2423,32.5388429 L148.512488,15.6861341 Z" id="Clip-33" fill="#1AA1E9"/><path d="M89.24897,23.5752694 C91.2636482,21.6407259 95.1292988,20.7089688 97.7716876,21.4623541 L122.045982,28.3833382 C124.7382,29.1509429 127.467759,31.9544535 128.156,34.6990841 L137.025612,70.0710953 C137.707765,72.7915353 136.5901,76.6009847 134.612776,78.4996618 L116.447647,95.9419147 C114.432928,97.8764041 110.567278,98.8081612 107.924902,98.0547759 L83.6506347,91.1337918 C80.9583359,90.3661871 78.2288853,87.5626765 77.5406847,84.8181 L68.6710324,49.4460347 C67.9888659,46.7255947 69.1064224,42.9161453 71.0838,41.0174682 L89.24897,23.5752694 Z" id="Clip-36" fill="#75D3FF"/><path d="M94.4196812,21.2931282 C92.4732182,21.5558829 90.5027,22.3714088 89.24897,23.5752694 L71.0838,41.0174682 C69.8778424,42.1754235 68.9916929,44.0441059 68.6385618,45.9430129 L75.0831076,49.5166041 C79.9780218,52.2309424 86.9931706,51.0169212 90.6831688,46.7669406 L91.6031824,45.7073576 C95.3251506,41.4206041 97.2603841,33.5817847 95.9970482,28.1167141 L94.4196812,21.2931282 Z" id="Clip-39" fill="#B5E0FF"/><path d="M173.176471,27.7647059 C175.460235,27.7647059 178.805382,29.7414071 179.941176,31.8235294 L192.117647,53.4705882 C193.818159,55.9586065 193.813694,59.83136 192.117647,62.9411765 L174.529412,94.0588235 C173.013171,96.1560041 169.625947,98.1176471 166.411765,98.1176471 L142.058824,98.1176471 C139.600394,98.1176471 136.267694,96.1193529 135.294118,94.0588235 L123.117647,72.4117647 C121.419029,69.6155194 121.426471,65.73753 123.117647,62.9411765 L140.705882,31.8235294 C142.056659,29.71033 145.434682,27.7647059 147.470588,27.7647059 L173.176471,27.7647059 Z" id="Clip-42" fill="#39BFFF"/><path d="M178.275841,29.0361188 C176.725371,27.8984712 174.779841,27.1359671 173.073512,27.1359671 L148.351082,27.1359671 C146.709694,27.1359671 144.807459,27.8568547 143.2601,28.9616529 L145.354318,35.8754665 C146.945106,41.12684 152.715806,45.0378682 158.221194,44.5372394 L159.593888,44.4124306 C165.147035,43.9074453 171.871424,39.67163 174.719635,34.9417476 L178.275841,29.0361188 Z" id="Clip-45" fill="#75D3FF"/></g></g></svg>