<?xml version="1.0" encoding="UTF-8" standalone="no"?><svg width="50px" height="43px" viewBox="-50 -43 150 129" version="1.1" xmlns="http://www.w3.org/2000/svg" xmlns:xlink="http://www.w3.org/1999/xlink"><title>Group 2 Copy 4</title><desc>Created with Sketch.</desc><defs/><g id="Page-1" stroke="none" stroke-width="1" fill="none" fill-rule="evenodd"><g id="Select-challenge-Copy-2" transform="translate(-241.000000, -387.000000)" fill="#DFDFDF"><g id="Group-2-Copy-4" transform="translate(241.000000, 387.000000)"><path d="M3,36.0403519 C3,38.2278783 4.77422819,40 6.96284959,40 L43.0371504,40 C45.2206521,40 47,38.2272051 47,36.0403519 L47,6.95964813 C47,4.77212174 45.2257718,3 43.0371504,3 L6.96284959,3 C4.7793479,3 3,4.77279485 3,6.95964813 L3,36.0403519 Z M0,6.95964813 C0,3.11656293 3.12186617,0 6.96284959,0 L43.0371504,0 C46.8822374,0 50,3.11487802 50,6.95964813 L50,36.0403519 C50,39.8834371 46.8781338,43 43.0371504,43 L6.96284959,43 C3.11776256,43 0,39.885122 0,36.0403519 L0,6.95964813 Z" id="Rectangle-2"/><path d="M12.7264094,10.2040248 C11.4096566,10.2040248 10.347545,11.261477 10.347545,12.5592879 C10.347545,13.8571026 11.4096537,14.9145511 12.7264094,14.9145511 C14.0431612,14.9145511 15.1052738,13.8570997 15.1052738,12.5592879 C15.1052738,11.2614799 14.0431583,10.2040248 12.7264094,10.2040248 Z M12.7264094,17.9145511 C9.75574548,17.9145511 7.34754496,15.5169172 7.34754496,12.5592879 C7.34754496,9.60166534 9.75574548,7.20402477 12.7264094,7.20402477 C15.6970665,7.20402477 18.1052738,9.60166534 18.1052738,12.5592879 C18.1052738,15.5169172 15.6970665,17.9145511 12.7264094,17.9145511 Z" id="Fill-3-Copy"/><path d="M39.189879,30.7105263 L28.6425565,30.7105262 L23.6125501,25.5266087 L28.8379573,20.6495677 L39.189879,30.7105263 Z M27.8127523,17.5036372 L20.9737339,24.1217888 L29.9043627,33.7105258 L42.8747222,33.7105263 C44.2211626,33.7105263 44.8857545,32.0739589 43.9205272,31.1352162 L29.9043623,17.5036372 C29.3221335,16.9373841 28.3949811,16.9373841 27.8127523,17.5036372 Z" id="Triangle"/><path d="M25.613176,30.7105263 L11.6285304,30.6714473 L18.5891899,23.6337281 L25.613176,30.7105263 Z M17.5233333,20.4451946 L6.93008212,31.155721 C5.99314799,32.1030276 6.66418531,33.7105263 7.99656496,33.7105263 L29.1830673,33.7105263 C30.5154469,33.7105263 31.1864843,32.1030276 30.2495501,31.155721 L19.656299,20.4451946 C19.0692057,19.8516018 18.1104266,19.8516018 17.5233333,20.4451946 Z" id="Triangle-Copy"/></g></g></g></svg>