<?xml version="1.0" encoding="UTF-8"?><svg width="30px" height="9px" viewBox="0 0 30 9" version="1.1" xmlns="http://www.w3.org/2000/svg" xmlns:xlink="http://www.w3.org/1999/xlink"><title>plus-logo-3</title><desc>Created with Sketch.</desc><defs/><g id="Page-1" stroke="none" stroke-width="1" fill="none" fill-rule="evenodd"><g id="plus-logo-3" fill="#2A70CA"><path d="M0,8.06729475 C0,8.57604307 0.274916045,8.85464334 0.788889521,8.85464334 L1.74511924,8.85464334 C2.25909272,8.85464334 2.52205589,8.57604307 2.52205589,8.06729475 L2.52205589,6.40780619 L3.76515453,6.40780619 C5.48636803,6.40780619 6.62189083,5.06325707 6.62189083,3.25841184 C6.62189083,1.46567968 5.48636803,0.145356662 3.76515453,0.145356662 L0.788889521,0.145356662 C0.274916045,0.145356662 0,0.411843876 0,0.932705249 L0,8.06729475 Z M2.52205589,4.22745626 L2.52205589,2.32570659 L3.2750868,2.32570659 C3.82491889,2.32570659 4.06397632,2.72543742 4.06397632,3.25841184 C4.06397632,3.79138627 3.82491889,4.22745626 3.22727531,4.22745626 L2.52205589,4.22745626 Z M7.97996471,8.06729475 C7.97996471,8.57604307 8.25488076,8.85464334 8.76885423,8.85464334 L13.071888,8.85464334 C13.5858615,8.85464334 13.8607775,8.57604307 13.8607775,8.06729475 L13.8607775,7.46164199 C13.8607775,6.95289367 13.5858615,6.67429341 13.071888,6.67429341 L10.5020206,6.67429341 L10.5020206,0.932705249 C10.5020206,0.411843876 10.2390574,0.145356662 9.72508395,0.145356662 L8.76885423,0.145356662 C8.25488076,0.145356662 7.97996471,0.411843876 7.97996471,0.932705249 L7.97996471,8.06729475 Z M14.8602652,5.59623149 C14.8602652,7.57065949 16.3065627,9 18.5656554,9 C20.8008424,9 22.2471398,7.57065949 22.2471398,5.59623149 L22.2471398,0.932705249 C22.2471398,0.411843876 21.9841767,0.145356662 21.4702032,0.145356662 L20.5139735,0.145356662 C20,0.145356662 19.7370368,0.411843876 19.7370368,0.932705249 L19.7370368,5.60834455 C19.7370368,6.3230148 19.2708748,6.67429341 18.5537025,6.67429341 C17.8484831,6.67429341 17.3823211,6.3230148 17.3823211,5.59623149 L17.3823211,0.932705249 C17.3823211,0.411843876 17.1074051,0.145356662 16.6053845,0.145356662 L15.6372019,0.145356662 C15.1351813,0.145356662 14.8602652,0.411843876 14.8602652,0.932705249 L14.8602652,5.59623149 Z M24.04747,8.15208614 C24.5375377,8.5397039 25.6611076,9 26.8444419,9 C28.8764301,9 30,7.67967699 30,6.17765814 C30,3.3795424 26.3543742,3.69448183 26.3543742,2.70121131 C26.3543742,2.47106326 26.5217144,2.30148048 26.9998292,2.30148048 C27.5138027,2.30148048 27.8365303,2.49528937 28.2668336,2.68909825 C28.6612784,2.88290713 29.0437703,2.97981157 29.3306392,2.41049798 L29.6772725,1.72005384 C29.8804713,1.2960969 29.8446127,0.932705249 29.4262622,0.629878869 C28.9840059,0.32705249 28.0277762,0 27.0356879,0 C25.2068985,0 23.8442712,1.11440108 23.8442712,2.78600269 C23.8442712,5.57200538 27.4779441,5.39030956 27.4779441,6.31090175 C27.4779441,6.51682369 27.3345096,6.69851952 26.8444419,6.69851952 C26.1750811,6.69851952 25.6969662,6.31090175 25.4220502,6.20188425 C24.9558882,5.94751009 24.6331607,5.9717362 24.3462918,6.39569314 L23.8920826,7.06191117 C23.5215436,7.60699865 23.7486482,7.92193809 24.04747,8.15208614 Z" id="plus"/></g></g></svg>