<?xml version="1.0" encoding="UTF-8"?><svg width="490px" height="207px" viewBox="0 0 490 207" version="1.1" xmlns="http://www.w3.org/2000/svg" xmlns:xlink="http://www.w3.org/1999/xlink"><title>modal-hero</title><desc>Created with Sketch.</desc><defs><linearGradient x1="95.6254717%" y1="68.899439%" x2="-12.0299773%" y2="22.3640802%" id="linearGradient-1"><stop stop-color="#FFFFFF" stop-opacity="0.25" offset="0%"/><stop stop-color="#FFFFFF" stop-opacity="0.0724637681" offset="100%"/></linearGradient><path d="M26.7529062,14.4091555 C25.7891509,14.9279932 24.8313257,15.5070611 23.8948416,16.1533414 C22.9030435,12.3567255 20.6730013,9.90981862 17.5374106,8.73329628 C17.1173145,8.57566969 16.6943688,8.44525816 16.2708544,8.33960758 C17.7558905,7.16780131 19.2446826,6.16432732 20.7025701,5.30505561 C21.5925037,5.49000677 22.4782737,5.78588124 23.291535,6.21023122 C26.0347795,7.64162328 27.4077238,10.1419196 26.7529062,14.4091555 Z M30.4899442,12.6827128 C30.5558663,8.13509686 28.5353392,4.94128943 25.0642847,3.0854898 C31.3456962,0.364040688 36.2026734,0.198151113 36.2026734,0.198151113 L43.1640984,9.94563175 C43.1640984,9.94563175 37.1710477,10.0568435 30.4899442,12.6827128 Z M16.737489,39.9419648 C12.8793589,41.340145 10.4532927,43.8701205 9.35448672,47.2348139 C8.97271933,48.4038375 8.77321931,49.5960101 8.7184471,50.7803096 C6.92933537,49.7264101 5.27162855,48.4386468 3.91213988,46.8654932 C3.92986344,46.7754971 3.94090334,46.6829874 3.94470384,46.5884769 C3.94645064,46.5450378 3.95477983,46.4298626 3.9739771,46.2537553 C4.00799849,45.9416583 4.06134029,45.5892073 4.13799543,45.2073401 C4.35700605,44.116311 4.71535148,43.0276373 5.23728822,42.0273523 C6.91748802,38.8072709 9.83830599,37.149366 14.703388,37.7892611 C15.2492015,38.6246094 15.9438906,39.3361086 16.737489,39.9419648 Z M22.164794,42.423242 C26.5875673,43.5935863 31.0307519,43.3655654 31.0307519,43.3655654 L25.8596075,55.5009612 C25.8596075,55.5009612 18.9641588,55.2590057 12.3446482,52.5599517 C12.2206128,51.1467005 12.3286939,49.6950212 12.7680718,48.3495864 C13.8312261,45.0940635 16.6647112,42.9580195 22.164794,42.423242 Z M13.4561582,34.0896675 C7.98908089,33.8759883 4.20838585,36.2365855 2.05362583,40.3661555 C1.72741344,40.9913373 1.45224943,41.6337974 1.22299829,42.2851495 C0.430259797,40.0595942 0.135428237,37.4604546 0.540792972,34.4252463 C0.542128424,34.4228151 0.543468091,34.4203689 0.544810372,34.4179195 C0.983498956,33.6173886 1.52435459,32.8154597 2.16585443,32.0730798 C5.04324298,28.7432033 8.75789659,27.6713326 13.8349803,30.1193049 C13.4641588,31.6016284 13.3545978,32.9189929 13.4561582,34.0896675 Z M15.0304619,26.7218298 C10.2298377,24.5334635 6.07545125,24.8056545 2.68389331,26.9126279 C3.33552715,25.3296088 4.03249559,23.8403098 4.76683634,22.4391876 C4.92615643,22.3242304 5.09079532,22.2109139 5.260448,22.1000147 C9.03601169,19.6319895 12.8522653,19.5797201 16.7282289,23.5360603 C16.1045049,24.5244133 15.5347441,25.5845974 15.0304619,26.7218298 Z M18.8855384,20.6224176 C15.3841484,17.2589905 11.6718103,16.2579235 8.07041647,17.0274202 C9.52607936,14.9712369 11.0634034,13.1659699 12.6384641,11.5810399 C13.8298798,11.5168116 15.1010361,11.6545922 16.275891,12.0954161 C18.6789729,12.9970897 20.2766357,15.0112276 20.7403211,18.6900176 C20.0984047,19.2918214 19.4780521,19.9350071 18.8855384,20.6224176 Z" id="path-2"/><path d="M0.596573908,73.1303279 C1.44831704,71.5920124 3.0026902,69.8624314 5.4036434,67.9368359 C34.552116,42.4875895 44.4501054,26.7258706 50.0219269,14.1594637 C60.2955257,32.5457588 77.1291548,42.4748064 110.236068,42.4748064 C122.162644,42.4748064 131.132339,38.8837613 137.805782,34.0420634 C136.368675,39.3725734 134.466212,45.2967072 132.117274,50.2330053 C128.009485,58.8655342 118.371829,79.4604518 112.463136,92.7826084 C112.386035,92.7226307 112.307014,92.6635821 112.226045,92.6054839 C103.077277,86.0408541 128.337016,52.4212152 124.953821,52.4212152 C121.570626,52.4212152 112.423411,79.0783679 76.8174981,79.0783679 C69.458233,79.0783679 59.311756,76.6912298 60.1074362,70.3255281 C60.9031165,63.9598265 80.198362,48.0447953 72.2407827,48.0447953 C71.5308678,48.0447953 70.3607861,48.8692352 68.8763906,50.1907345 C68.8387832,50.2037006 68.8001409,50.217787 68.7604587,50.2330053 C34.8445889,82.8572262 18.5331442,79.5749113 13.1623027,79.5749113 C7.91023021,79.5749113 0.280412469,77.7677511 0.596580144,73.1303166 Z M35.03105,79.6327679 C35.4872077,79.4358032 35.940547,79.2345521 36.390963,79.0292719 L36.369012,79.0648197 C35.9370555,79.2618561 35.4905527,79.4511892 35.03105,79.6327679 Z M140.983774,19.8841987 L128.933776,29.1466186 L80.9940423,29.5444749 L56.7250182,11.0433775 C56.7250182,11.0433775 55.1405209,9.01067421 53.0974052,6.60688955 C53.4496928,5.68800565 53.7943796,4.78079769 54.1390575,3.88196312 C59.708042,-10.6405708 88.5537815,25.3669832 88.5537815,25.3669832 L141.0679,19.3991379 C141.0679,19.3991379 141.039772,19.5679946 140.983774,19.8841987 Z" id="path-4"/><path d="M66.8707182,0 C76.1205008,0 92.1320114,15.3166925 107.449633,15.3166925 C122.767254,15.3166925 121.374814,4.37564282 129.927599,4.37564282 C138.480385,4.37564282 140.670059,24.2692375 141.46574,28.247801 C142.26142,32.2263646 143.65386,60.4741656 143.65386,62.2645192 C143.65386,64.0548728 143.0571,81.1626959 141.66466,82.356265 C140.272219,83.549834 133.508937,91.9048174 109.04177,91.9048174 C84.5746033,91.9048174 57.1236354,81.9584086 50.7581935,61.8666628 C55.930115,42.0733093 51.1560336,0 66.8707182,0 Z" id="path-6"/></defs><g id="Page-1" stroke="none" stroke-width="1" fill="none" fill-rule="evenodd"><g id="modal-hero"><path d="M133.035884,191.606201 C211.321978,221.404187 271.187814,160.968836 271.187814,160.968836 L283.325168,103.469676 C283.325168,103.469676 270.769172,48.4919342 169.039114,115.642323 C67.3090568,182.792713 92.4275896,35.9012362 138.896875,14.0773597 C84.8903944,40.5161861 70.6581945,165.585426 133.035884,191.606201 Z" id="Combined-Shape" fill="url(#linearGradient-1)"/><path d="M222.139057,58.8819631 C216.570073,73.4044971 210.998757,90.1129097 173.403643,122.936836 C153.312718,139.050018 192.500746,141.437933 206.622516,132.883245 C206.622516,143.825071 234.471324,157.74849 264.11119,139.248946 C261.327086,157.74849 272.715259,168.492165 275.64933,159.391201 C277.0915,154.318533 294.248355,117.566552 300.117274,105.233005 C305.986193,92.8994583 309.0679,74.3991379 309.0679,74.3991379 L256.553781,80.3669832 C256.553781,80.3669832 227.708042,44.3594292 222.139057,58.8819631 Z" id="Combined-Shape" fill="#E4E1EE"/><g id="Group-4" transform="translate(168.000000, 0.000000)"><ellipse id="Oval-22" fill="#2B70C9" cx="141.86358" cy="48.9363314" rx="9.74708281" ry="12.3335469"/><path d="M57.7196185,38.7902173 C57.7196185,38.7902173 34.4451947,39.585153 23.9032087,66.2423056 C13.3612227,92.8994583 47.3765525,94.0930274 47.3765525,94.0930274 L52.547697,81.9576316 C52.547697,81.9576316 29.2748273,83.1519777 36.2370293,66.0441545 C43.1992313,48.9363314 64.6810435,48.537698 64.6810435,48.537698 L57.7196185,38.7902173 Z" id="Mask" fill="#C3C0CD"/><g id="Path-23-+-Path-23-+-Path-23-+-Path-23-+-Path-23-+-Path-23-Mask" transform="translate(21.516945, 38.592066)"><mask id="mask-3" fill="white"><use xlink:href="#path-2"/></mask><use id="Combined-Shape" fill="#B5B0C4" xlink:href="#path-2"/></g><path d="M116.501273,18.4008563 C127.541336,18.4008563 144.647684,23.4727477 145.045912,28.1479484 C145.444141,32.8231491 147.035113,64.4523406 147.035113,64.4523406 C147.035113,64.4523406 143.157337,75.7916352 115.606521,75.7916352 C88.0557043,75.7916352 58.3171557,60.0763092 58.3171557,49.0357955 C58.3171557,37.9952817 83.1821629,18.4008563 116.501273,18.4008563 Z" id="Mask" fill="#D3FA8F"/><g id="Combined-Shape" transform="translate(0.000000, 55.000000)"><mask id="mask-5" fill="white"><use xlink:href="#path-4"/></mask><use fill="#FFFFFF" xlink:href="#path-4"/></g><path d="M97.6788854,79.3299819 L113.591457,77.5216345 C111.920485,116.877807 87.3911605,141.328944 52.9298865,146.161835 C47.7099906,144.420271 43.6342272,141.775556 41.190468,138.89055 C69.0220397,133.419001 95.559512,116.402515 97.6788854,79.3299819 Z" id="Combined-Shape" fill="#2B70C9"/><mask id="mask-7" fill="white"><use xlink:href="#path-6"/></mask><use id="Mask" fill="#FFFFFF" xlink:href="#path-6"/><path d="M94,12 C98.4165529,13.8570971 102.960742,15.1700547 107.44545,15.1700547 C107.492375,15.1700547 107.539143,15.169952 107.585755,15.1697473 C115.077949,27.6497705 119.721487,45.1344394 118.189464,69.8760803 C117.699445,77.7897203 116.542,85.0073395 114.847961,91.5897919 C113.031739,91.6989643 111.097401,91.7581796 109.037587,91.7581796 C105.674536,91.7581796 102.255112,91.5702627 98.8418202,91.1939123 C98.9264825,90.8532248 99.0097417,90.5108416 99.0915844,90.1667542 C109.892385,44.7574535 102.985269,22.9200745 94,12 Z" id="Combined-Shape" fill="#2B70C9"/><g id="Path-13" transform="translate(57.559273, 18.000000)"><g id="Path-14" transform="translate(0.558962, 0.301392)"><path d="M58.3830369,0.0994640881 C69.4231,0.0994640881 86.529448,5.17135552 86.9276766,9.8465562 C87.3259052,14.5217569 88.9168772,46.1509484 88.9168772,46.1509484 C88.9168772,46.1509484 85.0391016,57.4902429 57.4882851,57.4902429 C29.9374686,57.4902429 0.198920057,41.774917 0.198920057,30.7344032 C0.198920057,19.6938895 25.0639272,0.0994640881 58.3830369,0.0994640881 Z" id="Mask" fill="#78C800"/><path d="M20.0699106,9.41868935 C24.2805556,7.17706161 29.0503362,5.1806641 34.2703138,3.61635052 C41.7569827,6.34648579 50.8079168,12.3331584 57.4878966,12.3331584 C66.1409191,12.3331584 70.2180032,7.35995399 73.3016526,7.35995399 C76.3853021,7.35995399 82.4523638,10.2448011 83.248044,26.9547679 C84.0437243,43.6647347 80.7524119,48.1406187 75.3907018,48.1406187 C70.0289916,48.1406187 67.1355194,44.8583038 63.4554983,37.2990331 C59.7754773,29.7397624 55.4983075,37.6965009 55.4983075,37.6965009 C55.4983075,37.6965009 48.1378769,48.1402301 35.1090016,48.1402301 C22.0801264,48.1402301 18.996477,33.1207643 18.996477,21.8817109 C18.996477,17.0492022 19.1988168,12.7498953 20.0699106,9.41868935 Z" id="Combined-Shape" fill="#8EE000"/><ellipse id="Oval-18" fill="#FFFFFF" transform="translate(37.198051, 28.844586) rotate(-4.000000) translate(-37.198051, -28.844586)" cx="37.1980507" cy="28.8445856" rx="9.74708281" ry="13.3281878"/><ellipse id="Oval-18" fill="#3F3F3F" transform="translate(38.245012, 27.180659) rotate(-4.000000) translate(-38.245012, -27.180659)" cx="38.2450121" cy="27.180659" rx="5.41640909" ry="7.40641266"/><rect id="Rectangle-55" fill="#71B200" x="52.9127353" y="36.2049281" width="13.1287238" height="19.8928176" rx="6.5643619"/><ellipse id="Oval-21" fill="#FFFFFF" cx="32.6228894" cy="23.8713812" rx="3.97840115" ry="4.37641988"/><ellipse id="Oval-18" fill="#FFFFFF" transform="translate(73.257155, 31.718544) rotate(-4.000000) translate(-73.257155, -31.718544)" cx="73.2571551" cy="31.718544" rx="6.76328195" ry="12.650007"/><ellipse id="Oval-18" fill="#3F3F3F" transform="translate(74.533452, 30.246283) rotate(-4.000000) translate(-74.533452, -30.246283)" cx="74.5334523" cy="30.2462832" rx="3.7359654" ry="7.40641266"/><path d="M54.5040957,37.9952817 C54.5040957,41.1781325 55.0013959,47.0465137 59.4770972,47.0465137 C63.9527985,47.0465137 65.842539,40.3824198 65.842539,38.393138 C65.842539,36.4038563 54.5040957,34.8124309 54.5040957,37.9952817 Z" id="Path-16" fill="#F49000"/><path d="M62.6594296,28.7447329 C69.22418,28.7447329 72.2079808,38.7909944 72.2079808,40.581348 C72.2079808,42.3717016 54.9019359,40.1834916 54.0067956,38.9899226 C53.1116553,37.7963535 56.0946792,28.7447329 62.6594296,28.7447329 Z" id="Path-15" fill="#FFC200"/><path d="M87.2062282,14.040857 C87.0896342,12.0936244 86.9927373,10.6103689 86.9276766,9.8465562 C86.529448,5.17135552 69.4231,0.0994640881 58.3830369,0.0994640881 C25.0639272,0.0994640881 0.198920057,19.6938895 0.198920057,30.7344032 C0.198920057,31.6211425 0.390757375,32.5380381 0.75789076,33.4745256 C5.18611904,26.5764633 22.6364932,3.58070717 58.4824969,3.58070717 C70.4607394,3.58070717 79.8712133,7.88189517 87.2062282,14.040857 Z" id="Combined-Shape" fill="#78C800" opacity="0.5"/><ellipse id="Oval-21" fill="#FFFFFF" cx="70.6166204" cy="26.6563756" rx="2.98380086" ry="4.37641988"/><path d="M73.5319415,2.30164929 C68.5149238,0.961183667 62.9336463,0.0994640881 58.3830369,0.0994640881 C55.7399263,0.0994640881 53.1500157,0.222767875 50.6214973,0.455324082 L42.3411373,8.73568402 C38.9207575,12.1560639 38.9262218,17.6925911 42.3444184,21.1107877 C45.7556596,24.5220289 51.3031375,24.5304532 54.719522,21.1140687 L73.5319414,2.30164929 Z" id="Combined-Shape" fill="#FFFFFF" opacity="0.369565217"/><path d="M87.8969046,26.456352 C88.4100431,36.0748749 88.9168772,46.1509484 88.9168772,46.1509484 C88.9168772,46.1509484 85.0391016,57.4902429 57.4882851,57.4902429 C55.3282832,57.4902429 53.1548341,57.3936462 50.983323,57.2102786 L78.5343255,29.6592762 C81.0901161,27.1034855 84.5699506,26.0355489 87.8969046,26.456352 Z" id="Combined-Shape" fill="#FFFFFF" opacity="0.369565217"/></g></g><ellipse id="Oval-20" fill="#D98500" cx="17.1407038" cy="147.405779" rx="6.36544184" ry="4.97320441"/><ellipse id="Combined-Shape" fill="#D98500" cx="40.2154305" cy="154.567193" rx="6.36544184" ry="4.97320441"/><ellipse id="Oval-22" fill="#328CFF" cx="61.8977167" cy="48.9363314" rx="9.74708281" ry="12.3335469"/><ellipse id="Oval-22" fill="#2B70C9" cx="59.1128359" cy="48.9363314" rx="9.74708281" ry="12.3335469"/></g><rect id="Rectangle-58" fill="#FFFFFE" opacity="0.699999988" transform="translate(182.343146, 24.585786) rotate(-45.000000) translate(-182.343146, -24.585786)" x="178.343146" y="20.5857864" width="8" height="8" rx="1"/><rect id="Rectangle-58" fill="#FFFFFE" opacity="0.200000003" transform="translate(115.258146, 83.500786) rotate(-45.000000) translate(-115.258146, -83.500786)" x="112.343146" y="80.5857864" width="5.82999992" height="5.82999992" rx="1"/><rect id="Rectangle-58" fill="#FFFFFE" transform="translate(134.343146, 123.585786) rotate(-45.000000) translate(-134.343146, -123.585786)" x="132.343146" y="121.585786" width="4" height="4" rx="1"/><rect id="Rectangle-58" fill="#FFFFFE" transform="translate(487.000000, 44.000000) rotate(-45.000000) translate(-487.000000, -44.000000)" x="485" y="42" width="4" height="4" rx="1"/><rect id="Rectangle-58" fill="#FFFFFE" opacity="0.300000012" transform="translate(408.000000, 65.000000) rotate(-45.000000) translate(-408.000000, -65.000000)" x="405" y="62" width="6" height="6" rx="1"/><rect id="Rectangle-58" fill="#FFFFFE" transform="translate(3.000000, 144.000000) rotate(-45.000000) translate(-3.000000, -144.000000)" x="1" y="142" width="4" height="4" rx="1"/><rect id="Rectangle-58" fill="#FFFFFE" opacity="0.300000012" transform="translate(60.000000, 111.000000) rotate(-45.000000) translate(-60.000000, -111.000000)" x="58" y="109" width="4" height="4" rx="1"/><rect id="Rectangle-58" fill="#FFFFFE" opacity="0.300000012" transform="translate(40.000000, 41.000000) rotate(-45.000000) translate(-40.000000, -41.000000)" x="38" y="39" width="4" height="4" rx="1"/><g id="Group-8" transform="translate(145.000000, 173.000000)"><g id="Group-5" transform="translate(0.000000, 0.071429)"><g id="Group-10"><g id="Duolingo-logo-white" fill="#FFFFFF"><path d="M49.8463528,18.4012807 C48.9330566,19.340325 47.7914363,19.8109304 46.4170926,19.8109304 C45.0431889,19.8109304 43.9081676,19.344225 43.0115888,18.4177476 C42.1167696,17.4878034 41.6676003,16.2748893 41.6676003,14.7759719 C41.6676003,14.7703385 41.6689201,14.7660051 41.6689201,14.7603717 C41.6728795,13.3112882 42.1264481,12.121341 43.0296259,11.1913968 C43.9354433,10.2571193 45.0695848,9.79041388 46.4324902,9.79041388 C47.8279505,9.79041388 48.9735302,10.2523526 49.8692292,11.1753633 C50.7618487,12.0953407 51.2088183,13.2900546 51.2136575,14.7603717 C51.2136575,14.7660051 51.2145374,14.7703385 51.2145374,14.7759719 C51.2145374,16.2545224 50.7592091,17.4609364 49.8463528,18.4012807 Z M54.4110742,10.2480192 C53.5980821,8.85656968 52.4648206,7.75372352 51.0130491,6.94121407 C49.5608377,6.13000463 48.0100819,5.72179989 46.3607815,5.72179989 C44.0793007,5.72179989 42.0604585,6.50310897 40.3029352,8.06572715 C38.3078493,9.85151459 37.3078867,12.0832072 37.2990881,14.7603717 C37.2990881,14.7703385 37.2982082,14.7811719 37.2982082,14.791572 C37.2982082,17.3032013 38.1864284,19.4378261 39.9580295,21.1932798 C41.7300705,22.9513336 43.8703336,23.8292772 46.376619,23.8292772 C48.0813506,23.8292772 49.6382655,23.4314725 51.0530828,22.6345633 C52.4674601,21.8398207 53.5853242,20.7317745 54.4022755,19.3199581 C55.2231863,17.9051083 55.6332018,16.3871239 55.6332018,14.7603717 C55.6332018,13.1457529 55.2258259,11.6416354 54.4110742,10.2480192 Z M12.5499043,18.4012807 C11.6366081,19.340325 10.4941079,19.8109304 9.12064415,19.8109304 C7.74630051,19.8109304 6.61171913,19.344225 5.71558021,18.4177476 C4.82032115,17.4878034 4.37203172,16.2748893 4.37203172,14.7759719 C4.37203172,14.7703385 4.37247165,14.7660051 4.37247165,14.7603717 L4.37115186,14.7603717 C4.37511123,13.3112882 4.82560031,12.121341 5.73097778,11.1913968 C6.63635525,10.2571193 7.77269636,9.79041388 9.13472194,9.79041388 C10.5297423,9.79041388 11.675322,10.2523526 12.5714609,11.1753633 C13.4632005,12.0953407 13.91105,13.2900546 13.9145695,14.7603717 C13.9145695,14.7660051 13.917209,14.7703385 13.917209,14.7759719 C13.917209,16.2545224 13.4610009,17.4609364 12.5499043,18.4012807 Z M18.3173963,0.330203841 L13.930407,0.330203841 L13.930407,7.08031569 C13.8560587,7.03698185 13.7913888,6.98368123 13.7152808,6.94121407 C12.2630694,6.13000463 10.7127535,5.72179989 9.0625733,5.72179989 C6.78109246,5.72179989 4.7609305,6.50310897 3.00428704,8.06572715 C1.00788133,9.85151459 0.00923854559,12.0832072 0,14.7603717 L0.00263958445,14.7603717 C0.00263958445,14.7703385 0.00175972297,14.7811719 0.00175972297,14.791572 C0.00175972297,17.3032013 0.887340308,19.4378261 2.65982127,21.1932798 C4.43362202,22.9513336 6.57388508,23.8292772 9.07885073,23.8292772 C10.7831424,23.8292772 12.3413771,23.4314725 13.7553145,22.6345633 C15.1692519,21.8398207 16.2875559,20.7317745 17.1067069,19.3199581 C17.8233541,18.081477 18.2272105,16.7645617 18.3173963,15.3661787 L18.3173963,15.364012 C18.3297144,15.1638097 18.3354335,14.9627407 18.3354335,14.7603717 C18.3354335,14.5723028 18.3292745,14.3864007 18.3173963,14.2017985 L18.3173963,0.330203841 Z M31.3569435,14.6017698 C31.3569435,14.6568038 31.3560637,14.7066377 31.3560637,14.7603717 C31.3485848,16.2935229 31.2575192,17.305368 31.0824267,17.7829068 C30.8360655,18.4472146 30.4564053,18.9511871 29.9460856,19.2956911 C29.4370858,19.6380284 28.8154636,19.8109304 28.0864984,19.8109304 C27.3557734,19.8109304 26.7416301,19.6367284 26.2431886,19.2874577 C25.7421075,18.9381869 25.3804844,18.451548 25.1552399,17.822774 C24.9427533,17.2360338 24.8323307,16.2098885 24.8195727,14.7603717 C24.8186928,14.6602705 24.8164932,14.5645027 24.8164932,14.4600682 L24.8164932,6.16553838 L20.3819913,6.16553838 L20.3819913,13.3359885 C20.3819913,13.8429943 20.3890302,14.3109998 20.4013483,14.7603717 C20.4523802,16.7498282 20.6164744,18.1811448 20.8967103,19.0339547 C21.3766747,20.5437056 22.2107834,21.718486 23.3937572,22.5639291 C24.5776108,23.4085056 26.1279267,23.8292772 28.0460248,23.8292772 C29.8136665,23.8292772 31.2720369,23.4687396 32.4171766,22.7459312 C33.5623163,22.0239895 34.4302997,20.9861441 35.0198069,19.6367284 C35.4276227,18.6963841 35.6629856,17.0657318 35.7245759,14.7603717 C35.7351343,14.3474002 35.7439329,13.9201286 35.7439329,13.4620899 L35.7439329,6.16553838 L31.3569435,6.16553838 L31.3569435,14.6017698 L31.3569435,14.6017698 Z" id="Fill-1"/><path d="M108.807631,14.8344725 L108.805871,14.8344725 C108.803671,16.2922228 108.360661,17.4756699 107.47596,18.3874139 C106.58642,19.3021912 105.453159,19.7593632 104.069577,19.7593632 C102.717669,19.7593632 101.594966,19.2969911 100.695308,18.3718137 C99.8004886,17.451403 99.3521992,16.2709893 99.3486797,14.8344725 L99.3491196,14.8344725 C99.3491196,14.8288391 99.3486797,14.8249391 99.3486797,14.8188724 C99.3486797,13.3342551 99.7930098,12.1321744 100.68211,11.2104637 C101.56857,10.2904864 102.694793,9.82984767 104.055939,9.82984767 C105.415325,9.82984767 106.548586,10.2952531 107.452644,11.2264972 C108.356702,12.1577414 108.80939,13.354622 108.80939,14.8188724 C108.80939,14.8249391 108.807631,14.8288391 108.807631,14.8344725 Z M113.169984,14.2347322 C113.080238,12.8489161 112.680341,11.5437009 111.969413,10.3160533 C111.15862,8.91593704 110.051755,7.82002429 108.649256,7.03178179 C107.248516,6.24180593 105.703479,5.846168 104.015465,5.846168 C101.530736,5.846168 99.4107099,6.71631145 97.6540665,8.45833172 C95.8961032,10.199052 95.0175616,12.3141766 95.0175616,14.8037055 C95.0175616,14.813239 95.0180015,14.8240724 95.0180015,14.8344725 L95.0175616,14.8344725 C95.0254803,17.4878034 96.0166443,19.6991291 97.994133,21.4697497 C99.7353788,23.0176344 101.737504,23.7907101 103.996988,23.7907101 C105.63353,23.7907101 107.169329,23.3890054 108.607462,22.5834293 C108.68313,22.5413955 108.74736,22.4898283 108.821708,22.4456277 L108.821708,24.4021505 C108.818629,25.8594675 108.342184,27.0507146 107.457923,27.9633253 C106.569263,28.8776692 105.432922,29.3344079 104.052419,29.3344079 C102.726028,29.3344079 101.616963,28.886336 100.727863,27.9936589 L97.9035072,30.9737269 C97.930343,30.9962605 97.9505798,31.0226942 97.9756559,31.0460944 C99.7169017,32.5939791 101.719466,33.3670548 103.979391,33.3670548 C105.615933,33.3670548 107.153931,32.9649168 108.591185,32.1589074 C110.028878,31.3550647 111.150702,30.260452 111.959734,28.8811359 C112.766127,27.5000865 113.169984,26.0107025 113.169984,24.4095173 L113.169984,15.388279 C113.180102,15.2054102 113.186701,15.0212414 113.186701,14.8344725 L113.188461,14.8344725 C113.188461,14.6338369 113.182742,14.4345012 113.169984,14.2373323 L113.169984,14.2347322 Z M128.613313,14.9532073 C128.610233,16.4252577 128.163703,17.6195383 127.271964,18.539949 C126.375385,19.4625264 125.228925,19.9231651 123.834785,19.9231651 C122.473639,19.9231651 121.337298,19.4573263 120.429721,18.5230488 C119.528743,17.5944046 119.074294,16.4035908 119.071215,14.9532073 C119.071215,14.9493072 119.070335,14.9445405 119.070335,14.9384738 C119.070335,13.4408563 119.519064,12.2270756 120.415203,11.2975647 C121.312222,10.3689206 122.445484,9.90568188 123.819387,9.90568188 C125.193731,9.90568188 126.335791,10.3749873 127.247768,11.3144649 C128.159304,12.2526425 128.617712,13.4612232 128.617712,14.9384738 C128.617712,14.9445405 128.613313,14.9493072 128.613313,14.9532073 Z M131.80457,10.3957876 C130.983659,8.98267115 129.867995,7.87679162 128.454938,7.08031569 C127.041,6.28340642 125.482326,5.88560179 123.778914,5.88560179 C121.272188,5.88560179 119.132365,6.76267866 117.359884,8.52116578 C115.585204,10.2766195 114.699183,12.412111 114.699183,14.9233069 L114.699183,14.9532073 C114.707982,17.6321051 115.709264,19.862931 117.70479,21.6504518 C119.460114,23.2122033 121.481155,23.9930791 123.760877,23.9930791 C125.411497,23.9930791 126.964012,23.5861743 128.417104,22.7745316 C129.866675,21.9602888 130.998177,20.8574426 131.813369,19.4651264 C132.628121,18.0728102 133.035057,16.5691261 133.035057,14.9532073 C133.035057,13.329055 132.625481,11.810204 131.80457,10.3957876 Z M73.017505,0.624873935 C71.7210291,0.624873935 70.6700345,1.66141932 70.6700345,2.93803417 C70.6700345,4.21421568 71.7210291,5.2498944 73.017505,5.2498944 C74.3139809,5.2498944 75.3662952,4.21421568 75.3662952,2.93803417 C75.3662952,1.66141932 74.3139809,0.624873935 73.017505,0.624873935 Z M92.6978067,10.0798839 C92.1069798,8.72743485 91.2407561,7.69218947 90.0951765,6.96894773 C88.9478371,6.24657266 87.4916663,5.88560179 85.7235847,5.88560179 C83.8054866,5.88560179 82.2556106,6.30680669 81.0730768,7.15094984 C79.8883433,7.99509299 79.0546746,9.17204002 78.5733903,10.6817909 C78.2935944,11.5337342 78.1286203,12.9641841 78.0780283,14.9532073 C78.0657103,15.4043125 78.0591113,15.872318 78.0591113,16.3788905 L78.0591113,23.5493406 L82.4922934,23.5493406 L82.4922934,15.2539441 C82.4922934,15.1508096 82.4958128,15.0546084 82.4958128,14.9532073 C82.5107705,13.5041237 82.6207532,12.4784118 82.8310401,11.8912383 C83.0571645,11.2650644 83.4209872,10.7758253 83.9194287,10.4274213 C84.4187501,10.0798839 85.0320136,9.90568188 85.7636184,9.90568188 C86.4952232,9.90568188 87.1150856,10.0755505 87.6236456,10.4196212 C88.1344052,10.7632585 88.5118657,11.2676644 88.7599867,11.9311054 C88.935959,12.4103777 89.0257048,13.4217894 89.0327437,14.9532073 C89.0327437,15.0078079 89.0349434,15.0567751 89.0349434,15.1139758 L89.0349434,23.5493406 L93.4214928,23.5493406 L93.4214928,16.2510557 C93.4214928,15.794317 93.4144539,15.3674787 93.4021359,14.9532073 C93.3401056,12.6500138 93.1060625,11.0184948 92.6978067,10.0798839 Z M63.3346293,19.0144545 C62.8238697,18.6716838 62.4450894,18.168578 62.199608,17.5038369 C62.021876,17.0241313 61.93301,16.0122862 61.9250912,14.4808684 L61.9250912,0.325870457 L57.5381019,0.325870457 L57.5381019,13.1821533 C57.5381019,13.6393253 57.5447008,14.0657303 57.5578988,14.4808684 C57.6190491,16.7853619 57.8517725,18.4155809 58.2622279,19.3559251 C58.8517351,20.7062075 59.7197184,21.7427529 60.8635384,22.4659946 C62.0095579,23.1888031 63.4679284,23.5493406 65.2338104,23.5493406 L68.6212771,23.5493406 L68.6212771,19.5288271 L65.1950965,19.5288271 C64.4643715,19.5288271 63.8436292,19.3580918 63.3346293,19.0144545 Z M70.9295937,23.5233403 L75.3662952,23.5233403 L75.3662952,6.86971324 L70.9295937,6.86971324 L70.9295937,23.5233403 Z" id="Fill-3"/></g><path d="M140.758189,22.3077673 C140.758189,23.3140984 141.309275,23.8651845 142.339567,23.8651845 L144.256388,23.8651845 C145.286679,23.8651845 145.813805,23.3140984 145.813805,22.3077673 L145.813805,19.025211 L148.305673,19.025211 C151.755951,19.025211 154.032176,16.3656216 154.032176,12.7955421 C154.032176,9.24942289 151.755951,6.63775402 148.305673,6.63775402 L142.339567,6.63775402 C141.309275,6.63775402 140.758189,7.16487985 140.758189,8.19517124 L140.758189,22.3077673 Z M145.813805,14.7123633 L145.813805,10.9506017 L147.323302,10.9506017 C148.425474,10.9506017 148.904679,11.7412904 148.904679,12.7955421 C148.904679,13.8497938 148.425474,14.7123633 147.227461,14.7123633 L145.813805,14.7123633 Z M156.754518,22.3077673 C156.754518,23.3140984 157.305605,23.8651845 158.335896,23.8651845 L166.961591,23.8651845 C167.991883,23.8651845 168.542969,23.3140984 168.542969,22.3077673 L168.542969,21.109754 C168.542969,20.1034229 167.991883,19.5523368 166.961591,19.5523368 L161.810134,19.5523368 L161.810134,8.19517124 C161.810134,7.16487985 161.283009,6.63775402 160.252717,6.63775402 L158.335896,6.63775402 C157.305605,6.63775402 156.754518,7.16487985 156.754518,8.19517124 L156.754518,22.3077673 Z M170.546503,17.4198732 C170.546503,21.3253964 173.445695,24.1527077 177.974185,24.1527077 C182.454755,24.1527077 185.353947,21.3253964 185.353947,17.4198732 L185.353947,8.19517124 C185.353947,7.16487985 184.826821,6.63775402 183.79653,6.63775402 L181.879709,6.63775402 C180.849417,6.63775402 180.322291,7.16487985 180.322291,8.19517124 L180.322291,17.4438335 C180.322291,18.8574891 179.387841,19.5523368 177.950225,19.5523368 C176.53657,19.5523368 175.602119,18.8574891 175.602119,17.4198732 L175.602119,8.19517124 C175.602119,7.16487985 175.051033,6.63775402 174.044702,6.63775402 L172.103921,6.63775402 C171.097589,6.63775402 170.546503,7.16487985 170.546503,8.19517124 L170.546503,17.4198732 Z M188.962819,22.4754891 C189.94519,23.2422176 192.197455,24.1527077 194.569521,24.1527077 C198.642766,24.1527077 200.895031,21.5410388 200.895031,18.5699659 C200.895031,13.0351447 193.58715,13.6581116 193.58715,11.6933699 C193.58715,11.2381249 193.922594,10.9026812 194.881005,10.9026812 C195.911296,10.9026812 196.558223,11.2860454 197.420793,11.6694096 C198.211482,12.0527739 198.97821,12.244456 199.553256,11.1183236 L200.248104,9.75258846 C200.655429,8.91397919 200.583548,8.19517124 199.744939,7.59616462 C198.858409,6.99715799 196.941588,6.35023084 194.952886,6.35023084 C191.286965,6.35023084 188.555495,8.55457521 188.555495,11.8610918 C188.555495,17.3719527 195.839415,17.0125487 195.839415,18.8335289 C195.839415,19.2408534 195.551892,19.6002573 194.569521,19.6002573 C193.227746,19.6002573 192.269336,18.8335289 191.71825,18.6178865 C190.783799,18.1147209 190.136872,18.1626414 189.561826,19.0012507 L188.651336,20.3190653 C187.908568,21.3972772 188.363813,22.0202441 188.962819,22.4754891 Z" id="plus" fill="#2A70CA"/></g></g></g><rect id="Rectangle-58" fill="#FFFFFE" transform="translate(362.757359, 99.000000) rotate(-45.000000) translate(-362.757359, -99.000000)" x="358.343146" y="94.5857864" width="8.82842712" height="8.82842712" rx="1"/><rect id="Rectangle-58" fill="#FFFFFE" opacity="0.5" transform="translate(352.757359, 10.000000) rotate(-45.000000) translate(-352.757359, -10.000000)" x="348.343146" y="5.58578644" width="8.82842712" height="8.82842712" rx="1"/><rect id="Rectangle-58" fill="#FFFFFE" opacity="0.5" transform="translate(370.242641, 113.242641) rotate(-45.000000) translate(-370.242641, -113.242641)" x="367.242641" y="110.242641" width="6" height="6" rx="1"/><rect id="Rectangle-58" fill="#FFFFFE" opacity="0.5" transform="translate(440.000000, 143.000000) rotate(-45.000000) translate(-440.000000, -143.000000)" x="437" y="140" width="6" height="6" rx="1"/><rect id="Rectangle-58" fill="#FFFFFE" opacity="0.5" transform="translate(68.000000, 123.000000) rotate(-45.000000) translate(-68.000000, -123.000000)" x="65" y="120" width="6" height="6" rx="1"/><rect id="Rectangle-58" fill="#FFFFFE" opacity="0.5" transform="translate(380.242641, 193.242641) rotate(-45.000000) translate(-380.242641, -193.242641)" x="377.242641" y="190.242641" width="6" height="6" rx="1"/></g></g></svg>