<?xml version="1.0" encoding="UTF-8"?><svg width="209px" height="238px" viewBox="0 0 209 238" version="1.1" xmlns="http://www.w3.org/2000/svg" xmlns:xlink="http://www.w3.org/1999/xlink"><title>meditating duo</title><desc>Created with Sketch.</desc><defs/><g id="Page-1" stroke="none" stroke-width="1" fill="none" fill-rule="evenodd"><g id="meditating-duo"><g id="Group-4" transform="translate(1.000000, 8.000000)"><g id="Group-4-Copy-2" transform="translate(43.277977, 16.940826)"><g id="Page-1" transform="translate(0.000000, -0.000000)"><path d="M113.499241,39.0351825 C113.225736,36.4374686 113.039569,33.7962506 113.00969,31.5745895 C113.002029,31.0296816 112.979045,30.5865291 112.946102,30.211951 C113.129971,23.2763573 113.167511,16.6084247 113.167511,10.4625419 C113.167511,3.69801529 7.8742042,-9.02215562 7.8742042,10.5480754 C7.8742042,18.0440616 8.00214632,25.163995 8.25956282,31.9255721 C8.25266774,32.108437 8.24500653,32.2876151 8.24270817,32.4962876 C8.17835405,37.2271795 7.41223352,43.8634057 6.58252499,47.9188773 C4.88939863,55.3698846 10.5748402,72.7673266 0.199974897,84.3849402 C-0.995033316,85.723092 14.9879764,87.4099628 22.8748441,107.487856 C31.4362409,123.659602 43.8933607,131.373846 60.8299871,131.373846 C78.7280948,131.373846 90.5110285,121.879618 98.2702972,107.58445 C102.674724,118.134575 115.102731,47.2368207 113.499241,39.0351825 Z" id="Fill-6" fill="#78C800"/><path d="M94.8226016,0.574269883 C90.2350719,0.574269883 86.6726115,3.8156977 85.7448395,3.8156977 C85.3786339,3.8156977 85.3058525,3.53328941 85.3058525,3.15797395 C85.3058525,1.98336191 86.6963612,1.58445098 86.6963612,1.04396723 C86.6963612,0.71510535 86.1110451,0.645056295 85.9402002,0.645056295 C81.4017023,0.645056295 74.4951257,9.12320395 73.4463067,9.12320395 C73.0801011,9.12320395 73.0073197,8.6535066 73.0073197,8.3482402 C73.0073197,6.9155527 74.325047,6.04620707 74.325047,5.64729613 C74.325047,5.2483852 74.0071069,5.10681238 73.7634806,5.10681238 C71.5179814,5.10681238 66.5979553,9.95789373 60.5984655,9.9903375 C54.5989757,9.95789373 49.6789497,5.10681238 47.4334504,5.10681238 C47.189058,5.10681238 46.8718841,5.2483852 46.8718841,5.64729613 C46.8718841,6.04620707 48.1896114,6.9155527 48.1896114,8.3482402 C48.1896114,8.6535066 48.1168299,9.12320395 47.7506243,9.12320395 C46.7010392,9.12320395 39.7952288,0.645056295 35.2567308,0.645056295 C35.0858859,0.645056295 34.4998037,0.71510535 34.4998037,1.04396723 C34.4998037,1.58445098 35.8910786,1.98336191 35.8910786,3.15797395 C35.8910786,3.53328941 35.817531,3.8156977 35.4520915,3.8156977 C34.5243196,3.8156977 30.9618591,0.574269883 26.3743294,0.574269883 C20.8107622,0.574269883 12.5136769,7.05638816 12.5136769,29.0392561 C12.5136769,50.4587822 24.3732226,55.1815632 33.7436427,55.1815632 C43.1132968,55.1815632 51.0694584,48.5328019 51.0694584,48.5328019 L54.8763113,42.8492429 L60.5984655,40.1070067 L66.3206197,42.8492429 L70.1274726,48.5328019 C70.1274726,48.5328019 78.0836343,55.1815632 87.4532883,55.1815632 C96.8237084,55.1815632 108.683254,50.4587822 108.683254,29.0392561 C108.683254,7.05638816 100.386169,0.574269883 94.8226016,0.574269883" id="Fill-8" fill="#8BE200"/><g id="Group-6" transform="translate(23.000000, 29.000000)" fill-opacity="0.19737885" fill-rule="nonzero" fill="#000000"><path d="M1.26332194,4.82864995 C5.0477328,6.81010411 8.99408055,7.80799989 13.0741886,7.80799989 C17.10872,7.80799989 21.380365,6.83278565 25.8856369,4.90371192 C27.0279651,4.41458818 27.557492,3.09203502 27.0683683,1.94970677 C26.5792445,0.807378511 25.2566914,0.277851628 24.1143631,0.76697537 C20.1414337,2.46810997 16.4625378,3.30799989 13.0741886,3.30799989 C9.73141626,3.30799989 6.49962741,2.49079151 3.35064555,0.842037337 C2.24977287,0.265638838 0.890075933,0.690809163 0.313677434,1.79168184 C-0.262721065,2.89255451 0.162449261,4.25225145 1.26332194,4.82864995 Z" id="Path-4"/><path d="M49.2633219,4.82864995 C53.0477328,6.81010411 56.9940805,7.80799989 61.0741886,7.80799989 C65.10872,7.80799989 69.380365,6.83278565 73.8856369,4.90371192 C75.0279651,4.41458818 75.557492,3.09203502 75.0683683,1.94970677 C74.5792445,0.807378511 73.2566914,0.277851628 72.1143631,0.76697537 C68.1414337,2.46810997 64.4625378,3.30799989 61.0741886,3.30799989 C57.7314163,3.30799989 54.4996274,2.49079151 51.3506455,0.842037337 C50.2497729,0.265638838 48.8900759,0.690809163 48.3136774,1.79168184 C47.7372789,2.89255451 48.1624493,4.25225145 49.2633219,4.82864995 Z" id="Path-4"/></g><path d="M45.1596284,43.7120758 C45.1596284,43.7120758 37.1373198,42.3311867 32.9288957,42.3311867 C28.7204715,42.3311867 20.698163,43.7120758 20.698163,43.7120758 L22.0363978,50.2655348 L45.1596284,51.8658976 L45.1596284,43.7120758 Z" id="Fill-17" fill="#8EE000"/><path d="M110.408251,32.1409545 C110.385268,32.0686934 110.359986,31.997907 110.337768,31.9256459 C110.23664,31.6004708 110.137811,31.2907802 110.038981,30.9892006 C110.150835,31.3637787 110.273414,31.7479425 110.408251,32.1409545 Z" id="Fill-22" fill="#71B200"/></g><g id="Group-8" transform="translate(50.000000, 39.000000)"><path d="M10.4409032,31.8730891 C17.2072797,31.8730891 20.4334132,17.3139462 20.4334132,10.1578823 C20.4334132,3.00181837 15.1073434,10.245628 15.1073434,10.245628 L8.23524224,11.7262438 C8.23524224,11.7262438 1,6.73580165 1,9.68228608 C1,12.6287705 4.06294986,31.8730891 10.4409032,31.8730891 Z" id="Fill-24" fill="#71B200"/><rect id="Rectangle-2" fill-opacity="0.0599999987" fill="#000000" x="7.95807864e-13" y="8" width="20.5570392" height="24.9557434" rx="10.2785196"/><path d="M7.95807864e-13,8 C7.95807864e-13,8 0.994908733,24.9342544 10.3699205,24.9342544 C19.4571166,24.9342544 20.5570392,8.02966402 20.5570392,8.02966402" id="Fill-26" fill="#F49000"/><path d="M20.5570392,9.19909528 C20.5570392,12.5134752 12.8452352,20.4993606 10.2362631,20.4993606 C7.69577561,20.4993606 7.95807864e-13,12.5134752 7.95807864e-13,9.28184684 C7.95807864e-13,7.45843418 2.5171736,0 10.2362631,0 C18.710869,0 20.5570392,8.12116625 20.5570392,9.19909528 Z" id="Fill-28" fill="#FFC200"/><path d="M10.1756928,6.45638275 C7.95466823,6.45638275 6.15366343,5.45893991 6.15366343,4.22819137 C6.15366343,2.99744284 7.95466823,2 10.1756928,2 C12.3967174,2 14.1977222,2.99744284 14.1977222,4.22819137 C14.1977222,5.45893991 12.3967174,6.45638275 10.1756928,6.45638275 Z" id="Fill-30" fill="#FFF3B8"/></g></g><g id="Group-2" transform="translate(0.000000, 62.094489)"><g id="Rectangle-4" transform="translate(2.822477, 0.000000)"><path d="M154.315766,64.6416587 C147.70975,86.0624254 132.259323,105.948214 99.1385173,105.910868 C68.3672042,105.876172 54.3655454,85.4154567 48.3435378,64.1397475 C29.6908467,77.8297895 -4.61988149,59.3462903 1.64460723,53.9954875 C2.41950288,53.3336116 5.01617165,50.1035818 6.37905477,49.1737563 C9.33220023,47.1589762 29.148354,41.2041507 45.8118702,16.4635712 C48.0182912,10.3515954 45.4204293,10.2771863 47.037784,3.18134407 C47.2232051,2.27780258 47.4054506,1.24576583 47.5773976,0.135150059 L48.4054767,3.33852405 C59.3389165,11.3405626 84.1487725,15.8708724 101.138751,15.8708724 C118.12873,15.8708724 142.638572,11.3405626 153.872025,3.33852405 L154.833827,1.53528637 C155.286888,5.51728593 155.948631,10.6909549 157.117552,16.5264548 C173.772267,41.2142447 193.557337,47.1606843 196.507979,49.1737563 C197.870862,50.1035818 200.467531,53.3336116 201.242426,53.9954875 C207.428038,59.2789171 173.151303,77.3664119 154.315766,64.6416587 L154.315766,64.6416587 Z" id="Mask" fill="#FFFFFF"/><path d="M88.3879655,104.982266 C86.0798941,96.0547637 85.6652151,84.0208118 87.1439286,68.8804109 C88.8762109,51.1437435 89.742352,37.6702547 89.742352,28.4599445 L112.08696,28.4599445 C112.08696,37.7173245 112.683217,51.1908133 113.87573,68.8804109 C114.899691,84.0697171 113.65271,96.1505168 110.134787,105.12281 C106.705536,105.642529 103.044932,105.915273 99.1385173,105.910868 C95.2996917,105.90654 91.7218591,105.584313 88.3879529,104.982264 L88.3879655,104.982266 Z" id="Combined-Shape" fill="#2B70C9"/><path d="M188.947261,45.4381783 C187.650227,46.0344318 186.42215,46.6937773 185.360098,47.3683635 C180.73131,50.3084434 183.78348,58.905421 179.474426,60.4324251 C174.164448,62.3141271 167.055161,58.5906996 162.875497,54.2803077 C157.268969,48.4984233 155.816083,36.7098357 153.376072,37.0222737 C150.936061,37.3347117 159.313255,84.7328271 99.5111542,84.3932707 C39.7090533,84.0537143 50.3949062,34.5088935 47.856019,34.4426115 C45.3171319,34.3763296 43.3869644,45.843197 39.5088152,51.3356339 C36.620551,55.426144 26.8227146,66.6398256 20.2351004,60.4324251 C18.4044412,58.707425 20.3219246,50.134795 17.62532,47.3683635 C16.682609,46.4012415 15.6092965,45.6694263 14.5630218,45.1102391 C10.3893723,47.3278653 7.39207554,48.482624 6.37905477,49.1737563 C5.01617165,50.1035818 2.41950288,53.3336116 1.64460723,53.9954875 C-4.61988149,59.3462903 29.6908467,77.8297895 48.3435378,64.1397475 C54.3655454,85.4154567 68.3672042,105.876172 99.1385173,105.910868 C132.259323,105.948214 147.70975,86.0624254 154.315766,64.6416587 C169.445456,74.8628467 194.538027,65.2035302 200.620355,58.2687334 C200.639152,57.298906 200.959935,55.7742938 201.311656,54.0566947 C201.28917,54.0361065 201.266094,54.0157032 201.242426,53.9954875 C200.467531,53.3336116 197.870862,50.1035818 196.507979,49.1737563 C195.546119,48.5175288 192.795349,47.4433219 188.947261,45.4381783 L188.947261,45.4381783 Z" id="Combined-Shape" fill-opacity="0.2" fill="#1F3B8F"/><path d="M45.0859387,17.5267416 C62.5923002,27.6114009 81.2765709,32.6537306 101.138751,32.6537306 C121.047418,32.6537306 139.772656,27.5877703 157.314464,17.4558498 L157.184717,16.6258895 C157.162323,16.5927784 157.139934,16.5596335 157.117552,16.5264548 C156.436068,13.124344 155.92697,9.94718423 155.531108,7.09996698 L155.531108,7.18482043 C139.597633,14.0254508 121.466847,17.445766 101.138751,17.445766 C80.810655,17.445766 62.6798693,14.0254508 46.7463939,7.18482043 L46.7463939,6.04816451 L46.4728245,7.79812046 C46.5027639,10.7981369 47.3967933,12.0731979 45.8118702,16.4635712 C45.570534,16.8218867 45.3285366,17.1762618 45.0859387,17.5267416 L45.0859387,17.5267416 Z" id="Combined-Shape" fill-opacity="0.2" fill="#1F3B8F"/></g><path d="M5.13538827,49.0536148 C8.4566227,44.464862 13.4588447,44.8265782 16.6433188,46.7008792 C19.8277929,48.5751802 21.8370358,51.9226186 20.3026816,54.3870931 C18.7683273,56.8515677 9.99213088,59.6505816 10.3676495,64.4731575 C10.7431682,69.2957335 1.81415385,53.6423677 5.13538827,49.0536148 Z" id="Path-3" fill="#FFFFFF" transform="translate(12.610795, 55.389798) rotate(-34.000000) translate(-12.610795, -55.389798)"/><path d="M188.114199,49.0536148 C191.435434,44.464862 196.437656,44.8265782 199.62213,46.7008792 C202.806604,48.5751802 204.815847,51.9226186 203.281493,54.3870931 C201.747139,56.8515677 192.970942,59.6505816 193.346461,64.4731575 C193.721979,69.2957335 184.792965,53.6423677 188.114199,49.0536148 Z" id="Path-3" fill="#FFFFFF" transform="translate(195.589606, 55.389798) scale(-1, 1) rotate(-34.000000) translate(-195.589606, -55.389798)"/></g><g id="feet-2" transform="translate(79.231641, 146.757738)"><path d="M39.8361792,31.45335 C39.303862,37.0272773 32.4085846,37.0539243 28.5453318,36.6542192 C24.6820791,36.2545141 20.0809609,34.0396774 20.4649521,30.0183302 C20.8489433,25.9969831 24.9614138,22.7170498 30.3500905,23.2750695 C36.314754,23.8926531 40.3692494,25.8794228 39.8361792,31.45335 Z" id="Fill-1" fill="#B47107" transform="translate(30.162803, 30.007595) rotate(-7.000000) translate(-30.162803, -30.007595)"/><path d="M18.554217,14.1615612 C17.9785023,19.7354884 14.5035336,21.4537105 9.66754612,21.0439208 C4.83155861,20.6341312 0.992672117,15.6756955 1.4079685,11.6543483 C1.82326489,7.63300119 5.38430636,1.20416676 10.5125942,1.49443525 C15.640882,1.78470373 19.1307461,8.58763389 18.554217,14.1615612 Z" id="Fill-1" fill="#D98500" transform="translate(9.996794, 11.293292) rotate(7.000000) translate(-9.996794, -11.293292)"/></g><path d="M51.3522267,26.029508 L156.570229,26.029508 L156.570229,45.0252247 C141.538837,37.3623496 124.002503,33.5309121 103.961228,33.5309121 C83.9199524,33.5309121 66.3836187,37.3623496 51.3522267,45.0252247 L51.3522267,26.029508 Z" id="Rectangle-6" fill-opacity="0.149999991" fill="#000000"/><g id="Rectangle-4" transform="translate(51.180906, 0.846737)"><path d="M0.102750083,38.0689825 C0.0341795351,34.375019 -7.10542736e-15,30.5826007 -7.10542736e-15,26.6892745 C-7.10542736e-15,7.01479292 4.95504129,0 12.9189934,0 C24.5988432,0 31.7001489,14.5418147 52.7372206,14.5418147 C73.0450686,14.5418147 82.0702676,0 92.909708,0 C105.696046,0 105.38626,19.8027241 105.38626,26.6032852 C105.38626,30.1976806 105.373544,33.9696943 105.326675,37.8689754 C94.0697276,29.9461297 76.5044023,25.9847068 52.630699,25.9847068 C28.5569418,25.9847068 11.0476255,30.0127987 0.102750083,38.0689825 L0.102750083,38.0689825 Z" id="Mask" fill="#FFFFFF"/><path d="M64.3592225,26.3343835 C64.4930956,23.7312983 64.4402931,21.667712 64.200815,20.1436244 C63.9444171,18.5118556 63.280923,16.2695194 62.2103329,13.4166158 C59.3376292,14.1186189 56.2015987,14.5418147 52.7372206,14.5418147 C49.117169,14.5418147 45.9097749,14.1112112 43.0206984,13.3982004 C41.9337032,16.3125066 41.2658662,18.5609812 41.0171873,20.1436244 C40.7850394,21.6210615 40.7347385,23.6856731 40.8662846,26.3374594 C44.5961332,26.102291 48.5176047,25.9847068 52.630699,25.9847068 C56.7258214,25.9847068 60.6353292,26.1012657 64.3592225,26.3343835 L64.3592225,26.3343835 Z" id="Combined-Shape" fill="#2B70C9"/><path d="M22.2938782,2.91274435 C22.4790867,13.6961686 35.9806858,22.4006093 52.6090012,22.4006093 C69.008858,22.4006093 82.3673251,13.9337083 82.9089758,3.35601431 C75.3500969,7.65067381 66.7169951,14.5418147 52.7372206,14.5418147 C37.7459086,14.5418147 29.8314395,7.15720887 22.2938782,2.91274435 L22.2938782,2.91274435 Z" id="Combined-Shape" fill-opacity="0.0700000003" fill="#1F3B8F"/></g><path d="M107.125332,26.8455837 L80.3482881,53.6226279 C74.8370594,59.1338566 65.9015921,59.1338566 60.3903634,53.6226279 C54.9765035,48.208768 54.8808549,39.4905952 60.1034177,33.9599784 C70.8615743,29.195679 85.3334802,26.8135293 103.519135,26.8135293 C104.73708,26.8135293 105.939145,26.8242141 107.125332,26.8455837 Z" id="Combined-Shape" fill-opacity="0.35" fill="#FFFFFF"/><path d="M81.1892239,74.412687 L127.157567,28.4443442 C138.229499,30.1465708 147.321098,33.1813716 154.432364,37.5487466 C153.936633,40.2746087 152.635067,42.8826937 150.527664,44.9900965 L120.267885,75.2498752 C115.005261,75.8064824 109.569709,76.0847861 103.961228,76.0847861 C96.0242314,76.0847861 88.4335634,75.5274197 81.1892239,74.412687 L81.1892239,74.412687 Z" id="Combined-Shape" fill-opacity="0.35" fill="#FFFFFF"/><g id="Rectangle-8" transform="translate(47.785515, 63.204685)"><path d="M110.635644,16.2795504 C94.1966916,24.0661415 76.0433814,27.959437 56.1757131,27.959437 C36.5463291,27.959437 18.5904272,24.1589704 2.3080073,16.5580373 L2.30800698,16.558038 C0.89995416,15.900733 8.17081955e-15,14.487434 -4.4408921e-15,12.9335155 L-1.13686838e-13,0.206522691 C16.4558844,7.03646072 35.1811221,12.7514725 56.1757131,12.7514725 C77.1703041,12.7514725 95.8955418,7.03646072 112.351426,0.195830327 L112.351426,13.5683264 L112.351418,13.5683264 C112.351418,14.7276797 111.683402,15.7832617 110.635644,16.2795504 Z" id="Mask" fill="#FFFFFF"/><path d="M68.6592049,12.0856327 L68.6592049,27.427677 C64.576092,27.7821837 60.4149281,27.959437 56.1757131,27.959437 C51.9364981,27.959437 47.7753342,27.7821837 43.6922213,27.427677 L43.6922213,12.0857217 C47.7601986,12.5167964 51.9213625,12.7514725 56.1757131,12.7514725 C60.4300637,12.7514725 64.5912276,12.5167964 68.6592049,12.0856327 L68.6592049,12.0856327 Z" id="Combined-Shape" fill="#2B70C9"/></g><path d="M52.5604119,41.3416374 C52.5604119,41.4226952 52.5568511,41.5037139 52.5497397,41.5844592 C52.1388529,46.2499386 51.9334063,49.6797822 51.9334063,51.8739906 C51.9334063,54.0556024 52.1365008,57.4002524 52.5426898,61.9079405 C52.6795589,63.4267635 51.5592573,64.7689616 50.0404336,64.9058233 C50.0284576,64.9069024 50.0164755,64.9079033 50.004488,64.9088258 L49.4187089,64.9169658 C46.1050004,64.9169658 43.4187089,62.2306743 43.4187089,58.9169658 L43.4187089,44.5738492 C43.4187089,41.2601407 46.1050004,38.5738492 49.4187089,38.5738492 L50.004488,38.5738492 C51.4341086,38.6900511 52.5604119,39.8843131 52.5604119,41.3416374 Z" id="Combined-Shape" fill="#2B70C9"/><path d="M157.282284,38.5824166 L157.282284,38.5738492 L157.868063,38.5738492 C161.181772,38.5738492 163.868063,41.2601407 163.868063,44.5738492 L163.868063,58.9169658 C163.868063,62.2306743 161.181772,64.9169658 157.868063,64.9169658 L157.282284,64.9169658 L157.282284,64.9082366 C157.27271,64.9074745 157.263139,64.9066625 157.253572,64.9058006 C155.730827,64.7686235 154.607603,63.4229909 154.74478,61.9002461 C155.150502,57.3964459 155.353366,54.0543609 155.353366,51.8739906 C155.353366,49.6809905 155.148146,46.2537158 154.737717,41.5921653 C154.730591,41.5112323 154.727023,41.4300255 154.727023,41.3487794 C154.727023,39.8901618 155.852422,38.6943952 157.282284,38.5824166 L157.282284,38.5824166 Z" id="Combined-Shape" fill="#2B70C9"/></g><ellipse id="Oval-7" fill-opacity="0.2" fill="#1F3B8F" cx="105.5" cy="220" rx="62.5" ry="11"/></g></g></svg>