<?xml version="1.0" encoding="UTF-8" standalone="no"?><svg width="35px" height="30px" viewBox="0 0 35 30" version="1.1" xmlns="http://www.w3.org/2000/svg" xmlns:xlink="http://www.w3.org/1999/xlink" xmlns:sketch="http://www.bohemiancoding.com/sketch/ns"><defs/><g id="Page-1" stroke="none" stroke-width="1" fill="none" fill-rule="evenodd" sketch:type="MSPage"><g id="add-friends-1-1" sketch:type="MSArtboardGroup" transform="translate(-15.000000, -19.000000)"><g id="Oval-36-+-Imported-Layers" sketch:type="MSLayerGroup" transform="translate(16.000000, 20.000000)"><g id="Imported-Layers" transform="translate(-0.304688, 0.000000)" sketch:type="MSShapeGroup"><path d="M30.566,4.521 C31.485,4.521 32.23,5.266 32.23,6.185 C32.23,6.185 33.894,10.101 33.894,14.036 C33.894,18.005 32.23,21.993 32.23,21.993 C32.23,22.912 31.485,23.657 30.566,23.657 C29.647,23.657 28.902,22.912 28.902,21.993 C28.902,21.993 30.566,17.95 30.566,13.953 C30.566,10.047 28.902,6.185 28.902,6.185 C28.902,5.266 29.647,4.521 30.566,4.521" id="Fill-1" fill="#FFFFFF"/><path d="M24.742,7.849 C25.661,7.849 26.406,8.594 26.406,9.513 C26.406,9.513 27.238,11.652 27.238,13.863 C27.238,16.223 26.406,18.665 26.406,18.665 C26.406,19.584 25.661,20.329 24.742,20.329 C23.823,20.329 23.078,19.584 23.078,18.665 C23.078,18.665 23.91,16.167 23.91,13.781 C23.91,11.6 23.078,9.513 23.078,9.513 C23.078,8.594 23.823,7.849 24.742,7.849" id="Fill-2" fill="#FFFFFF"/><path d="M3.914,7.846 L13.958,7.846 L13.958,20.335 L3.914,20.335 L3.914,20.335 L3.914,7.846 L3.914,7.846 Z" id="Fill-3" fill="#FAFAFA"/><path d="M8.417,7.846 C8.417,7.846 15.339,1.767 18.435,-0.257 C19.172,-0.793 19.765,-0.087 19.765,0.43 L19.765,14.433 L19.765,27.213 C19.815,28.367 19.079,28.538 18.34,28.022 C15.189,25.932 8.417,20.335 8.417,20.335 L8.417,7.846" id="Fill-4" fill="#FFFFFF"/><path d="M3.33,7.846 L9.001,7.846 C9.969,7.846 10.754,8.64 10.754,9.619 L10.754,18.562 C10.754,19.541 9.969,20.335 9.001,20.335 L3.33,20.335 C1.236,20.335 0.151,16.096 0.151,13.86 C0.151,11.133 1.236,7.846 3.33,7.846" id="Fill-5" fill="#FFFFFF"/></g></g></g></g></svg>