<?xml version="1.0" encoding="UTF-8"?><svg width="29px" height="29px" viewBox="0 0 29 29" version="1.1" xmlns="http://www.w3.org/2000/svg" xmlns:xlink="http://www.w3.org/1999/xlink"><title>tab-bar-health-gray</title><desc>Created with Sketch.</desc><defs/><g id="Page-1" stroke="none" stroke-width="1" fill="none" fill-rule="evenodd"><g id="tab-bar-health-gray" fill="#9C9C9C"><g id="Group-6" transform="translate(-4.000000, -3.000000)"><path d="M17.9941073,21.7827802 C17.874769,21.830267 17.7623392,21.8945871 17.6902968,21.9512948 C20.4732981,19.8720932 21.7750316,18.7685682 22.4715878,17.9293581 C23.0255362,17.2626936 23.1590219,16.8508924 23.1608737,15.9676198 L23.1685196,15.8060136 C23.1624544,15.8929515 23.1624544,15.8929515 23.1622024,15.9386766 C23.1622024,15.0574882 22.3855091,14.3142361 21.4067193,14.3142361 C20.839287,14.3142361 20.2957611,14.5823144 19.9669084,15.0126957 L18.4997042,16.9328786 L17.0324999,15.0126957 C16.7035366,14.5821696 16.1603849,14.3142361 15.592837,14.3142361 C14.6141993,14.3142361 13.8377976,15.0573358 13.8377976,15.9386766 C13.8374982,15.9025293 13.8374982,15.9025293 13.8349291,15.8536114 L13.8388285,15.9678113 C13.8407973,16.8519466 13.9741091,17.2636098 14.5272912,17.9299324 C15.2245411,18.7695854 16.5266224,19.8737853 19.351898,21.9856917 C19.2329274,21.8905241 19.1006609,21.8169155 18.9599789,21.766079 C18.8125799,21.7129887 18.6564312,21.6857639 18.4986689,21.6857639 C18.3280642,21.6857639 18.1583545,21.7178761 17.9941073,21.7827802 Z M18.4997042,13.9201722 L19.9669084,12.8276486 C20.3986794,12.606601 20.8951305,12.5 21.4067193,12.5 C23.3878675,12.5 25,14.042613 25,15.9386766 C24.996301,17.1000952 24.8115713,17.973884 23.8925079,19.0799565 C23.0749052,20.0650037 21.6937957,21.23548 18.7993523,23.397941 C18.7641516,23.4254017 18.7242181,23.4483342 18.6811786,23.4654604 C18.6234982,23.4882513 18.5613794,23.5 18.4986689,23.5 C18.4421703,23.5 18.3850801,23.490233 18.3300605,23.470416 C18.2799217,23.4522976 18.2345158,23.4269601 18.194878,23.3952529 C15.3030968,21.2349153 13.9237622,20.0648621 13.1060117,19.0800981 C12.1879835,17.9743087 12.0035496,17.1009445 12.0010353,15.9717994 C12.0002958,15.9606169 12,15.9498591 12,15.9386766 C12,14.042613 13.6116888,12.5 15.592837,12.5 C16.1044972,12.5 16.6008791,12.6065764 17.0531696,12.8007769 C17.0462525,12.80971 18.4997042,13.9201722 18.4997042,13.9201722 Z" id="tiny-red" fill-rule="nonzero"/><g id="Group-11"><g id="Group-10" transform="translate(4.567362, 0.000000)"><path d="M23.6926738,7.41818666 C21.1036702,4.92624634 17.6582268,3.5085389 13.9923404,3.5085389 C6.2645842,3.5085389 0,9.77541679 0,17.5060024 C0,18.059688 0.448686582,18.5085389 1.00216953,18.5085389 C1.55565248,18.5085389 2.00433906,18.059688 2.00433906,17.5060024 C2.00433906,10.882788 7.3715501,5.51361182 13.9923404,5.51361182 C17.1347814,5.51361182 20.0837585,6.72703672 22.3029848,8.86306285 C22.7018303,9.2469554 23.3362509,9.23471525 23.720003,8.83572371 C24.103755,8.43673216 24.0915194,7.80207921 23.6926738,7.41818666 Z" id="Oval-Copy" fill-rule="nonzero"/><g id="Group-5" transform="translate(22.771207, 8.337328) rotate(-115.000000) translate(-22.771207, -8.337328) translate(17.771207, 1.337328)"><g id="Page-1" transform="translate(4.891641, 6.993608) rotate(-14.000000) translate(-4.891641, -6.993608) translate(1.391641, 1.493608)"><path d="M2.93735946,5.6077921 L6.13523093,2.40992061 C6.50895121,2.03620033 6.50895121,1.4302835 6.13523093,1.05656322 C5.76151065,0.68284294 5.15559383,0.68284294 4.78187355,1.05656322 L1.06013728,4.77829903 C0.834278689,5.00415791 0.744918446,5.31482478 0.79205639,5.60779175 C0.744918222,5.90075891 0.834278515,6.21142607 1.06013727,6.43728511 L4.78187348,10.1590213 C5.15559376,10.5327411 5.76151057,10.5327411 6.13523084,10.1590213 C6.50895112,9.78530129 6.50895112,9.1793828 6.13523084,8.80566348 L2.93735946,5.6077921 Z" id="Combined-Shape"/></g></g></g><g id="Group-10-Copy" transform="translate(16.491461, 24.941176) scale(-1, -1) translate(-16.491461, -24.941176) translate(0.491461, 15.941176)"><path d="M23.6926738,6.41818666 C21.1036702,3.92624634 17.6582268,2.5085389 13.9923404,2.5085389 C6.2645842,2.5085389 0,8.77541679 0,16.5060024 C0,17.059688 0.448686582,17.5085389 1.00216953,17.5085389 C1.55565248,17.5085389 2.00433906,17.059688 2.00433906,16.5060024 C2.00433906,9.88278799 7.3715501,4.51361182 13.9923404,4.51361182 C17.1347814,4.51361182 20.0837585,5.72703672 22.3029848,7.86306285 C22.7018303,8.2469554 23.3362509,8.23471525 23.720003,7.83572371 C24.103755,7.43673216 24.0915194,6.80207921 23.6926738,6.41818666 Z" id="Oval-Copy" fill-rule="nonzero"/><g id="Group-5" transform="translate(23.341977, 7.156554) rotate(-115.000000) translate(-23.341977, -7.156554) translate(18.841977, 0.656554)"><g id="Page-1" transform="translate(4.648415, 6.084865) rotate(-14.000000) translate(-4.648415, -6.084865) translate(1.648415, 0.584865)"><path d="M0.430816886,4.55544499 L4.15255316,0.833709183 C4.52627344,0.459988901 5.13219026,0.459988901 5.50591054,0.833709183 L5.50591054,0.833709183 C5.87963082,1.20742947 5.87963082,1.81334629 5.50591054,2.18706657 L1.78417475,5.90880238 C1.41045566,6.28252267 0.804536688,6.28252267 0.430816886,5.90880238 L0.430816886,5.90880238 C0.0570973238,5.5350821 0.0570970845,4.92916528 0.430816886,4.55544499 L0.430816886,4.55544499 Z" id="Fill-1"/><path d="M0.430816879,6.21443107 L4.15255309,9.93616728 C4.52627336,10.3098871 5.13219018,10.3098871 5.50591045,9.93616728 L5.50591045,9.93616728 C5.87963073,9.56244725 5.87963073,8.95652876 5.50591045,8.58280945 L1.78417472,4.86107371 C1.41045564,4.48735344 0.804536914,4.48735344 0.430816879,4.86107371 L0.430816879,4.86107371 C0.0570970834,5.23479399 0.0570970834,5.8407108 0.430816879,6.21443107 L0.430816879,6.21443107 Z" id="Fill-3"/></g></g></g></g></g></g></g></svg>