<?xml version="1.0" encoding="UTF-8"?><svg width="29px" height="29px" viewBox="0 0 29 29" version="1.1" xmlns="http://www.w3.org/2000/svg" xmlns:xlink="http://www.w3.org/1999/xlink"><title>tab-bar-health-blue</title><desc>Created with Sketch.</desc><defs/><g id="Page-1" stroke="none" stroke-width="1" fill="none" fill-rule="evenodd"><g id="tab-bar-health-blue" fill="#1CB0F6"><g id="Group-6" transform="translate(-3.000000, -3.000000)"><path d="M16.9941073,21.7827802 C16.874769,21.830267 16.7623392,21.8945871 16.6902968,21.9512948 C19.4732981,19.8720932 20.7750316,18.7685682 21.4715878,17.9293581 C22.0255362,17.2626936 22.1590219,16.8508924 22.1608737,15.9676198 L22.1685196,15.8060136 C22.1624544,15.8929515 22.1624544,15.8929515 22.1622024,15.9386766 C22.1622024,15.0574882 21.3855091,14.3142361 20.4067193,14.3142361 C19.839287,14.3142361 19.2957611,14.5823144 18.9669084,15.0126957 L17.4997042,16.9328786 L16.0324999,15.0126957 C15.7035366,14.5821696 15.1603849,14.3142361 14.592837,14.3142361 C13.6141993,14.3142361 12.8377976,15.0573358 12.8377976,15.9386766 C12.8374982,15.9025293 12.8374982,15.9025293 12.8349291,15.8536114 L12.8388285,15.9678113 C12.8407973,16.8519466 12.9741091,17.2636098 13.5272912,17.9299324 C14.2245411,18.7695854 15.5266224,19.8737853 18.351898,21.9856917 C18.2329274,21.8905241 18.1006609,21.8169155 17.9599789,21.766079 C17.8125799,21.7129887 17.6564312,21.6857639 17.4986689,21.6857639 C17.3280642,21.6857639 17.1583545,21.7178761 16.9941073,21.7827802 Z M17.4997042,13.9201722 L18.9669084,12.8276486 C19.3986794,12.606601 19.8951305,12.5 20.4067193,12.5 C22.3878675,12.5 24,14.042613 24,15.9386766 C23.996301,17.1000952 23.8115713,17.973884 22.8925079,19.0799565 C22.0749052,20.0650037 20.6937957,21.23548 17.7993523,23.397941 C17.7641516,23.4254017 17.7242181,23.4483342 17.6811786,23.4654604 C17.6234982,23.4882513 17.5613794,23.5 17.4986689,23.5 C17.4421703,23.5 17.3850801,23.490233 17.3300605,23.470416 C17.2799217,23.4522976 17.2345158,23.4269601 17.194878,23.3952529 C14.3030968,21.2349153 12.9237622,20.0648621 12.1060117,19.0800981 C11.1879835,17.9743087 11.0035496,17.1009445 11.0010353,15.9717994 C11.0002958,15.9606169 11,15.9498591 11,15.9386766 C11,14.042613 12.6116888,12.5 14.592837,12.5 C15.1044972,12.5 15.6008791,12.6065764 16.0531696,12.8007769 C16.0462525,12.80971 17.4997042,13.9201722 17.4997042,13.9201722 Z" id="tiny-red" fill-rule="nonzero"/><g id="Group-11"><g id="Group-10" transform="translate(3.567362, 0.000000)"><path d="M23.6926738,7.41818666 C21.1036702,4.92624634 17.6582268,3.5085389 13.9923404,3.5085389 C6.2645842,3.5085389 0,9.77541679 0,17.5060024 C0,18.059688 0.448686582,18.5085389 1.00216953,18.5085389 C1.55565248,18.5085389 2.00433906,18.059688 2.00433906,17.5060024 C2.00433906,10.882788 7.3715501,5.51361182 13.9923404,5.51361182 C17.1347814,5.51361182 20.0837585,6.72703672 22.3029848,8.86306285 C22.7018303,9.2469554 23.3362509,9.23471525 23.720003,8.83572371 C24.103755,8.43673216 24.0915194,7.80207921 23.6926738,7.41818666 Z" id="Oval-Copy" fill-rule="nonzero"/><g id="Group-5" transform="translate(22.771207, 8.337328) rotate(-115.000000) translate(-22.771207, -8.337328) translate(17.771207, 1.337328)"><g id="Page-1" transform="translate(4.891641, 6.993608) rotate(-14.000000) translate(-4.891641, -6.993608) translate(1.391641, 1.493608)"><path d="M2.93735946,5.6077921 L6.13523093,2.40992061 C6.50895121,2.03620033 6.50895121,1.4302835 6.13523093,1.05656322 C5.76151065,0.68284294 5.15559383,0.68284294 4.78187355,1.05656322 L1.06013728,4.77829903 C0.834278689,5.00415791 0.744918446,5.31482478 0.79205639,5.60779175 C0.744918222,5.90075891 0.834278515,6.21142607 1.06013727,6.43728511 L4.78187348,10.1590213 C5.15559376,10.5327411 5.76151057,10.5327411 6.13523084,10.1590213 C6.50895112,9.78530129 6.50895112,9.1793828 6.13523084,8.80566348 L2.93735946,5.6077921 Z" id="Combined-Shape"/></g></g></g><g id="Group-10-Copy" transform="translate(15.991461, 25.441176) scale(-1, -1) translate(-15.991461, -25.441176) translate(0.491461, 15.941176)"><path d="M23.6926738,7.41818666 C21.1036702,4.92624634 17.6582268,3.5085389 13.9923404,3.5085389 C6.2645842,3.5085389 0,9.77541679 0,17.5060024 C0,18.059688 0.448686582,18.5085389 1.00216953,18.5085389 C1.55565248,18.5085389 2.00433906,18.059688 2.00433906,17.5060024 C2.00433906,10.882788 7.3715501,5.51361182 13.9923404,5.51361182 C17.1347814,5.51361182 20.0837585,6.72703672 22.3029848,8.86306285 C22.7018303,9.2469554 23.3362509,9.23471525 23.720003,8.83572371 C24.103755,8.43673216 24.0915194,7.80207921 23.6926738,7.41818666 Z" id="Oval-Copy" fill-rule="nonzero"/><g id="Group-5" transform="translate(22.432072, 7.949601) rotate(-115.000000) translate(-22.432072, -7.949601) translate(17.359966, 1.186792)"><g id="Page-1" transform="translate(5.051312, 7.124238) rotate(-14.000000) translate(-5.051312, -7.124238) translate(1.669908, 1.488565)"><path d="M0.430816886,4.55544499 L4.15255316,0.833709183 C4.52627344,0.459988901 5.13219026,0.459988901 5.50591054,0.833709183 L5.50591054,0.833709183 C5.87963082,1.20742947 5.87963082,1.81334629 5.50591054,2.18706657 L1.78417475,5.90880238 C1.41045566,6.28252267 0.804536688,6.28252267 0.430816886,5.90880238 L0.430816886,5.90880238 C0.0570973238,5.5350821 0.0570970845,4.92916528 0.430816886,4.55544499 L0.430816886,4.55544499 Z" id="Fill-1"/><path d="M0.430816879,6.21443107 L4.15255309,9.93616728 C4.52627336,10.3098871 5.13219018,10.3098871 5.50591045,9.93616728 L5.50591045,9.93616728 C5.87963073,9.56244725 5.87963073,8.95652876 5.50591045,8.58280945 L1.78417472,4.86107371 C1.41045564,4.48735344 0.804536914,4.48735344 0.430816879,4.86107371 L0.430816879,4.86107371 C0.0570970834,5.23479399 0.0570970834,5.8407108 0.430816879,6.21443107 L0.430816879,6.21443107 Z" id="Fill-3"/></g></g></g></g></g></g></g></svg>