<svg width="360" height="300" viewBox="0 0 360 300" xmlns="http://www.w3.org/2000/svg" xmlns:xlink="http://www.w3.org/1999/xlink"><title>Group 13</title><defs><rect id="b" x="3.032" y="12.996" width="58.894" height="65.714" rx="12.589"/><filter x="-8.5%" y="-6.1%" width="117%" height="115.2%" filterUnits="objectBoundingBox" id="a"><feOffset dy="1" in="SourceAlpha" result="shadowOffsetOuter1"/><feGaussianBlur stdDeviation="1.5" in="shadowOffsetOuter1" result="shadowBlurOuter1"/><feColorMatrix values="0 0 0 0 0 0 0 0 0 0 0 0 0 0 0 0 0 0 0.191293025 0" in="shadowBlurOuter1"/></filter><rect id="d" x="1.317" y="5.786" width="62.324" height="69.541" rx="12.589"/><filter x="-8%" y="-5.8%" width="116%" height="114.4%" filterUnits="objectBoundingBox" id="c"><feOffset dy="1" in="SourceAlpha" result="shadowOffsetOuter1"/><feGaussianBlur stdDeviation="1.5" in="shadowOffsetOuter1" result="shadowBlurOuter1"/><feColorMatrix values="0 0 0 0 0 0 0 0 0 0 0 0 0 0 0 0 0 0 0.191293025 0" in="shadowBlurOuter1"/></filter><rect id="f" width="64.958" height="72.382" rx="14.526"/><filter x="-7.7%" y="-5.5%" width="115.4%" height="113.8%" filterUnits="objectBoundingBox" id="e"><feOffset dy="1" in="SourceAlpha" result="shadowOffsetOuter1"/><feGaussianBlur stdDeviation="1.5" in="shadowOffsetOuter1" result="shadowBlurOuter1"/><feColorMatrix values="0 0 0 0 0 0 0 0 0 0 0 0 0 0 0 0 0 0 0.191293025 0" in="shadowBlurOuter1"/></filter><path id="g" d="M.433 22.351h25.853V.291H.433z"/><path id="i" d="M29.339 17.207V.49H0v16.716H29.34z"/><path id="k" d="M0 39h29V1H0z"/><rect id="n" x="3.032" y="12.996" width="58.894" height="65.714" rx="12.589"/><filter x="-8.5%" y="-6.1%" width="117%" height="115.2%" filterUnits="objectBoundingBox" id="m"><feOffset dy="1" in="SourceAlpha" result="shadowOffsetOuter1"/><feGaussianBlur stdDeviation="1.5" in="shadowOffsetOuter1" result="shadowBlurOuter1"/><feColorMatrix values="0 0 0 0 0 0 0 0 0 0 0 0 0 0 0 0 0 0 0.191293025 0" in="shadowBlurOuter1"/></filter><rect id="p" x="1.317" y="5.786" width="62.324" height="69.541" rx="12.589"/><filter x="-8%" y="-5.8%" width="116%" height="114.4%" filterUnits="objectBoundingBox" id="o"><feOffset dy="1" in="SourceAlpha" result="shadowOffsetOuter1"/><feGaussianBlur stdDeviation="1.5" in="shadowOffsetOuter1" result="shadowBlurOuter1"/><feColorMatrix values="0 0 0 0 0 0 0 0 0 0 0 0 0 0 0 0 0 0 0.191293025 0" in="shadowBlurOuter1"/></filter><rect id="r" width="64.958" height="72.382" rx="14.526"/><filter x="-7.7%" y="-5.5%" width="115.4%" height="113.8%" filterUnits="objectBoundingBox" id="q"><feOffset dy="1" in="SourceAlpha" result="shadowOffsetOuter1"/><feGaussianBlur stdDeviation="1.5" in="shadowOffsetOuter1" result="shadowBlurOuter1"/><feColorMatrix values="0 0 0 0 0 0 0 0 0 0 0 0 0 0 0 0 0 0 0.191293025 0" in="shadowBlurOuter1"/></filter><path id="s" d="M8.655 8.242V.15H.491v8.093h8.164z"/><path id="u" d="M.055 19.378h29.274V.357H.055z"/><rect id="x" x="3.032" y="12.996" width="58.894" height="65.714" rx="12.589"/><filter x="-8.5%" y="-6.1%" width="117%" height="115.2%" filterUnits="objectBoundingBox" id="w"><feOffset dy="1" in="SourceAlpha" result="shadowOffsetOuter1"/><feGaussianBlur stdDeviation="1.5" in="shadowOffsetOuter1" result="shadowBlurOuter1"/><feColorMatrix values="0 0 0 0 0 0 0 0 0 0 0 0 0 0 0 0 0 0 0.191293025 0" in="shadowBlurOuter1"/></filter><rect id="z" x="1.317" y="5.786" width="62.324" height="69.541" rx="12.589"/><filter x="-8%" y="-5.8%" width="116%" height="114.4%" filterUnits="objectBoundingBox" id="y"><feOffset dy="1" in="SourceAlpha" result="shadowOffsetOuter1"/><feGaussianBlur stdDeviation="1.5" in="shadowOffsetOuter1" result="shadowBlurOuter1"/><feColorMatrix values="0 0 0 0 0 0 0 0 0 0 0 0 0 0 0 0 0 0 0.191293025 0" in="shadowBlurOuter1"/></filter><rect id="B" width="64.958" height="72.382" rx="14.526"/><filter x="-7.7%" y="-5.5%" width="115.4%" height="113.8%" filterUnits="objectBoundingBox" id="A"><feOffset dy="1" in="SourceAlpha" result="shadowOffsetOuter1"/><feGaussianBlur stdDeviation="1.5" in="shadowOffsetOuter1" result="shadowBlurOuter1"/><feColorMatrix values="0 0 0 0 0 0 0 0 0 0 0 0 0 0 0 0 0 0 0.191293025 0" in="shadowBlurOuter1"/></filter><rect id="D" x="3.032" y="12.996" width="58.894" height="65.714" rx="12.589"/><filter x="-8.5%" y="-6.1%" width="117%" height="115.2%" filterUnits="objectBoundingBox" id="C"><feOffset dy="1" in="SourceAlpha" result="shadowOffsetOuter1"/><feGaussianBlur stdDeviation="1.5" in="shadowOffsetOuter1" result="shadowBlurOuter1"/><feColorMatrix values="0 0 0 0 0 0 0 0 0 0 0 0 0 0 0 0 0 0 0.191293025 0" in="shadowBlurOuter1"/></filter><rect id="F" x="1.317" y="5.786" width="62.324" height="69.541" rx="12.589"/><filter x="-8%" y="-5.8%" width="116%" height="114.4%" filterUnits="objectBoundingBox" id="E"><feOffset dy="1" in="SourceAlpha" result="shadowOffsetOuter1"/><feGaussianBlur stdDeviation="1.5" in="shadowOffsetOuter1" result="shadowBlurOuter1"/><feColorMatrix values="0 0 0 0 0 0 0 0 0 0 0 0 0 0 0 0 0 0 0.191293025 0" in="shadowBlurOuter1"/></filter><rect id="H" width="64.958" height="72.382" rx="14.526"/><filter x="-7.7%" y="-5.5%" width="115.4%" height="113.8%" filterUnits="objectBoundingBox" id="G"><feOffset dy="1" in="SourceAlpha" result="shadowOffsetOuter1"/><feGaussianBlur stdDeviation="1.5" in="shadowOffsetOuter1" result="shadowBlurOuter1"/><feColorMatrix values="0 0 0 0 0 0 0 0 0 0 0 0 0 0 0 0 0 0 0.191293025 0" in="shadowBlurOuter1"/></filter><path id="I" d="M0 .119h33.54v27H0v-27z"/><rect id="L" x="3.032" y="12.996" width="58.894" height="65.714" rx="12.589"/><filter x="-8.5%" y="-6.1%" width="117%" height="115.2%" filterUnits="objectBoundingBox" id="K"><feOffset dy="1" in="SourceAlpha" result="shadowOffsetOuter1"/><feGaussianBlur stdDeviation="1.5" in="shadowOffsetOuter1" result="shadowBlurOuter1"/><feColorMatrix values="0 0 0 0 0 0 0 0 0 0 0 0 0 0 0 0 0 0 0.191293025 0" in="shadowBlurOuter1"/></filter><rect id="N" x="1.317" y="5.786" width="62.324" height="69.541" rx="12.589"/><filter x="-8%" y="-5.8%" width="116%" height="114.4%" filterUnits="objectBoundingBox" id="M"><feOffset dy="1" in="SourceAlpha" result="shadowOffsetOuter1"/><feGaussianBlur stdDeviation="1.5" in="shadowOffsetOuter1" result="shadowBlurOuter1"/><feColorMatrix values="0 0 0 0 0 0 0 0 0 0 0 0 0 0 0 0 0 0 0.191293025 0" in="shadowBlurOuter1"/></filter><rect id="P" width="64.958" height="72.382" rx="14.526"/><filter x="-7.7%" y="-5.5%" width="115.4%" height="113.8%" filterUnits="objectBoundingBox" id="O"><feOffset dy="1" in="SourceAlpha" result="shadowOffsetOuter1"/><feGaussianBlur stdDeviation="1.5" in="shadowOffsetOuter1" result="shadowBlurOuter1"/><feColorMatrix values="0 0 0 0 0 0 0 0 0 0 0 0 0 0 0 0 0 0 0.191293025 0" in="shadowBlurOuter1"/></filter><path id="Q" d="M30.375.342v36.88H0V.341h30.375z"/><rect id="T" x="3.032" y="12.996" width="58.894" height="65.714" rx="12.589"/><filter x="-8.5%" y="-6.1%" width="117%" height="115.2%" filterUnits="objectBoundingBox" id="S"><feOffset dy="1" in="SourceAlpha" result="shadowOffsetOuter1"/><feGaussianBlur stdDeviation="1.5" in="shadowOffsetOuter1" result="shadowBlurOuter1"/><feColorMatrix values="0 0 0 0 0 0 0 0 0 0 0 0 0 0 0 0 0 0 0.191293025 0" in="shadowBlurOuter1"/></filter><rect id="V" x="1.317" y="5.786" width="62.324" height="69.541" rx="12.589"/><filter x="-8%" y="-5.8%" width="116%" height="114.4%" filterUnits="objectBoundingBox" id="U"><feOffset dy="1" in="SourceAlpha" result="shadowOffsetOuter1"/><feGaussianBlur stdDeviation="1.5" in="shadowOffsetOuter1" result="shadowBlurOuter1"/><feColorMatrix values="0 0 0 0 0 0 0 0 0 0 0 0 0 0 0 0 0 0 0.191293025 0" in="shadowBlurOuter1"/></filter><rect id="X" width="64.958" height="72.382" rx="14.526"/><filter x="-7.7%" y="-5.5%" width="115.4%" height="113.8%" filterUnits="objectBoundingBox" id="W"><feOffset dy="1" in="SourceAlpha" result="shadowOffsetOuter1"/><feGaussianBlur stdDeviation="1.5" in="shadowOffsetOuter1" result="shadowBlurOuter1"/><feColorMatrix values="0 0 0 0 0 0 0 0 0 0 0 0 0 0 0 0 0 0 0.191293025 0" in="shadowBlurOuter1"/></filter><rect id="Z" x="3.032" y="12.996" width="58.894" height="65.714" rx="12.589"/><filter x="-8.5%" y="-6.1%" width="117%" height="115.2%" filterUnits="objectBoundingBox" id="Y"><feOffset dy="1" in="SourceAlpha" result="shadowOffsetOuter1"/><feGaussianBlur stdDeviation="1.5" in="shadowOffsetOuter1" result="shadowBlurOuter1"/><feColorMatrix values="0 0 0 0 0 0 0 0 0 0 0 0 0 0 0 0 0 0 0.191293025 0" in="shadowBlurOuter1"/></filter><rect id="ab" x="1.317" y="5.786" width="62.324" height="69.541" rx="12.589"/><filter x="-8%" y="-5.8%" width="116%" height="114.4%" filterUnits="objectBoundingBox" id="aa"><feOffset dy="1" in="SourceAlpha" result="shadowOffsetOuter1"/><feGaussianBlur stdDeviation="1.5" in="shadowOffsetOuter1" result="shadowBlurOuter1"/><feColorMatrix values="0 0 0 0 0 0 0 0 0 0 0 0 0 0 0 0 0 0 0.191293025 0" in="shadowBlurOuter1"/></filter><rect id="ad" width="64.958" height="72.382" rx="14.526"/><filter x="-7.7%" y="-5.5%" width="115.4%" height="113.8%" filterUnits="objectBoundingBox" id="ac"><feOffset dy="1" in="SourceAlpha" result="shadowOffsetOuter1"/><feGaussianBlur stdDeviation="1.5" in="shadowOffsetOuter1" result="shadowBlurOuter1"/><feColorMatrix values="0 0 0 0 0 0 0 0 0 0 0 0 0 0 0 0 0 0 0.191293025 0" in="shadowBlurOuter1"/></filter><path id="ae" d="M38.201 4.384H.374V.075H38.2v4.31z"/><path id="ag" d="M0 6.642V.522h40.968v6.12z"/><path d="M62.047 8.445H76.17c5.994 0 10.852 4.71 10.852 10.536v57.053c0 5.819-4.847 10.536-10.817 10.536H49.48" id="aj"/><filter x="-36%" y="-17.3%" width="171.9%" height="134.6%" filterUnits="objectBoundingBox" id="ai"><feOffset in="SourceAlpha" result="shadowOffsetOuter1"/><feGaussianBlur stdDeviation="4.5" in="shadowOffsetOuter1" result="shadowBlurOuter1"/><feColorMatrix values="0 0 0 0 0.11936976 0 0 0 0 0.234777785 0 0 0 0 0.334954294 0 0 0 0.409731658 0" in="shadowBlurOuter1"/></filter><path d="M13.621 82.84C6.098 82.84 0 76.92 0 69.619V13.221C0 5.919 6.098 0 13.621 0h45.865c7.523 0 13.621 5.92 13.621 13.22V69.62c0 7.302-6.098 13.22-13.62 13.22H13.62z" id="al"/><filter x="-18.5%" y="-16.3%" width="136.9%" height="132.6%" filterUnits="objectBoundingBox" id="ak"><feOffset in="SourceAlpha" result="shadowOffsetOuter1"/><feGaussianBlur stdDeviation="4.5" in="shadowOffsetOuter1" result="shadowBlurOuter1"/><feColorMatrix values="0 0 0 0 0.11936976 0 0 0 0 0.234777785 0 0 0 0 0.334954294 0 0 0 0.409731658 0" in="shadowBlurOuter1"/></filter><path d="M20.868 20.715c11.525 0 20.867-9.275 20.867-20.715H0c0 11.44 9.343 20.715 20.868 20.715z" id="am"/><linearGradient x1="50%" y1="100%" x2="50%" y2="0%" id="ao"><stop stop-opacity="0" offset="0%"/><stop stop-opacity=".173" offset="100%"/></linearGradient></defs><g fill="none" fill-rule="evenodd"><g transform="translate(147.774 9.246)"><use fill="#000" filter="url(#a)" xlink:href="#b"/><use fill="#FFF" xlink:href="#b"/></g><g transform="translate(147.774 9.246)"><use fill="#000" filter="url(#c)" xlink:href="#d"/><use fill="#FFF" xlink:href="#d"/></g><g transform="translate(147.774 9.246)"><use fill="#000" filter="url(#e)" xlink:href="#f"/><use fill="#75CE00" xlink:href="#f"/></g><g transform="translate(165.774 26.246)"><g transform="translate(1 16)"><mask id="h" fill="#fff"><use xlink:href="#g"/></mask><path d="M13.42 20.14a1.243 1.243 0 1 1-.002-2.485 1.243 1.243 0 0 1 .001 2.486zm3.14-14.364V3.351a3.06 3.06 0 0 0-3.063-3.06 3.06 3.06 0 0 0-3.062 3.06v2.425H.433v3.03h4.946a7.249 7.249 0 0 1 5.056 6.906v3.58a3.06 3.06 0 0 0 3.062 3.06 3.06 3.06 0 0 0 3.062-3.06v-4.428a7.25 7.25 0 0 1 5.003-6.057h4.724v-3.03H16.56z" fill="#CE8655" mask="url(#h)"/></g><mask id="j" fill="#fff"><use xlink:href="#i"/></mask><path fill="#515151" mask="url(#j)" d="M27.407 17.207H1.931L.001.49h29.338z"/><mask id="l" fill="#fff"><use xlink:href="#k"/></mask><path fill="#E5E5E5" mask="url(#l)" d="M1 22h27v-6H1z"/><path d="M4 0v6.436c0 .77.639 1.394 1.427 1.394s1.427-.624 1.427-1.394v-3.81c.012.045.02.074.025.073 0-.57.474-1.034 1.059-1.034.584 0 1.058.463 1.058 1.034l.007-.04v8.379c0 1.083.899 1.962 2.008 1.962 1.11 0 2.009-.879 2.009-1.962V3.243c.024-.799.69-1.44 1.513-1.44.69 0 1.264.45 1.45 1.065V8.31c0 1.083.899 1.962 2.008 1.962 1.11 0 2.009-.879 2.009-1.962V0H4z" fill="#1CB0F6" mask="url(#l)"/></g><g transform="rotate(-51 113.036 31.587)"><use fill="#000" filter="url(#m)" xlink:href="#n"/><use fill="#FFF" xlink:href="#n"/></g><g transform="rotate(-51 113.036 31.587)"><use fill="#000" filter="url(#o)" xlink:href="#p"/><use fill="#FFF" xlink:href="#p"/></g><g transform="rotate(-51 113.036 31.587)"><use fill="#000" filter="url(#q)" xlink:href="#r"/><use fill="#F64848" xlink:href="#r"/></g><path d="M64.044 109.933c2.78-1.686 5.516-3.417 8.544-4.645.02-.007.035-.005.054-.011a44.72 44.72 0 0 0 3.929-3.754c.374-2.552.202-5.234-.799-7.449-.182-.403-.033-.752.238-.974l.006-1.979a.841.841 0 0 1 .228-.7l-7.59-6.146c-5.21-4.219-12.882-3.379-17.137 1.876-4.255 5.255-3.482 12.935 1.727 17.153l8.935 7.235c.626-.19 1.25-.39 1.865-.606" fill="#FFD833"/><path d="M54.385 84.723l-2.678-2.169c-1.226 1.514-1.032 3.708.412 4.967l2.266-2.798z" fill="#FFD833"/><path d="M51.107 88.771l-2.348-1.901a3.148 3.148 0 0 1 4.335-.552l-1.987 2.453z" fill="#FFD833"/><path d="M56.02 94.927a2.23 2.23 0 0 0-3.135.343 2.23 2.23 0 0 0 .316 3.137M64.414 84.561a2.23 2.23 0 0 0-3.135.344 2.23 2.23 0 0 0 .316 3.136" fill="#353535"/><path fill="#FF9700" d="M63.344 90.152l.56 5.562-5.557.608-.56-5.562z"/><path d="M48.941 109.693c3.474 2.813 8.59 2.253 11.427-1.251l-6.29-5.094-5.137 6.345z" fill="#FFD833"/><g transform="rotate(-51 124.127 -28.199)"><mask id="t" fill="#fff"><use xlink:href="#s"/></mask><path d="M8.655.15C8.655 4.618 5 8.241.491 8.241V.15h8.164z" fill="#FFD833" mask="url(#t)"/></g><path fill="#E86E00" d="M63.344 90.152l-1.642 3.87-3.355 2.3 5.557-.608z"/><path d="M58.04 108.697l3.267 2.158 4.662 1.15 6.378-3.59 6.247-9.143.723-8.753-3.059-1.7-1.567-.684s-6.149 5.331-6.434 5.683c-.286.353-8.709 7.54-8.709 7.54l-1.507 7.339z" fill="#FFD833"/><g transform="rotate(-51 143.145 -4.835)"><mask id="v" fill="#fff"><use xlink:href="#u"/></mask><path d="M29.33.455v4.413c0 8.014-6.554 14.51-14.638 14.51S.055 12.883.055 4.869V.455L5.99 5.203 14.882.357l8.716 4.915L29.329.455z" fill="#FFF" mask="url(#v)"/></g><path d="M76.661 106.898c-3.675 4.539-9.092 6.806-14.481 6.65 6.123 3.762 14.261 2.465 18.944-3.318 4.832-5.967 4.23-14.54-1.175-19.708a17.935 17.935 0 0 1-3.288 16.376" fill="#FCC"/><g><g transform="rotate(-49 -7.282 82.927)"><use fill="#000" filter="url(#w)" xlink:href="#x"/><use fill="#FFF" xlink:href="#x"/></g><g transform="rotate(-49 -7.282 82.927)"><use fill="#000" filter="url(#y)" xlink:href="#z"/><use fill="#FFF" xlink:href="#z"/></g><g transform="rotate(-49 -7.282 82.927)"><use fill="#000" filter="url(#A)" xlink:href="#B"/><use fill="#7AC70C" xlink:href="#B"/></g></g><g><g transform="rotate(-32 -19.55 -76.786)"><use fill="#000" filter="url(#C)" xlink:href="#D"/><use fill="#FFF" xlink:href="#D"/></g><g transform="rotate(-32 -19.55 -76.786)"><use fill="#000" filter="url(#E)" xlink:href="#F"/><use fill="#FFF" xlink:href="#F"/></g><g transform="rotate(-32 -19.55 -76.786)"><use fill="#000" filter="url(#G)" xlink:href="#H"/><use fill="#A072FF" xlink:href="#H"/></g><path d="M86.848 5.643a3.5 3.5 0 1 1-5.938 3.709 3.5 3.5 0 0 1 5.938-3.71M95.699 6.597a2 2 0 1 1-3.392 2.12 2 2 0 0 1 3.392-2.12" fill="#FFF"/><g transform="rotate(-32 .849 -110.941)"><mask id="J" fill="#fff"><use xlink:href="#I"/></mask><path d="M28.909 6.874c-1.202-3.91-4.88-6.756-9.235-6.756-4.5 0-8.28 3.04-9.348 7.154a7.665 7.665 0 0 0-2.456-.404c-4.191 0-7.589 3.354-7.589 7.49 0 1.442.414 2.787 1.129 3.93A5.208 5.208 0 0 0 0 21.848c0 2.91 2.391 5.27 5.34 5.27 2.489 0 4.574-1.682 5.166-3.956a9.554 9.554 0 0 0 3.172.535c2.547 0 4.826-.976 6.355-2.512a8.56 8.56 0 0 0 4.982 1.587c4.708 0 8.526-3.767 8.526-8.414 0-3.262-1.882-6.088-4.632-7.484" fill="#FFF" mask="url(#J)"/></g></g><g><g transform="scale(-1 1) rotate(-51 -67.146 409.347)"><use fill="#000" filter="url(#K)" xlink:href="#L"/><use fill="#FFF" xlink:href="#L"/></g><g transform="scale(-1 1) rotate(-51 -67.146 409.347)"><use fill="#000" filter="url(#M)" xlink:href="#N"/><use fill="#FFF" xlink:href="#N"/></g><g transform="scale(-1 1) rotate(-51 -67.146 409.347)"><use fill="#000" filter="url(#O)" xlink:href="#P"/><use fill="#3496FF" xlink:href="#P"/></g><g transform="rotate(51 73.325 350.53)"><mask id="R" fill="#fff"><use xlink:href="#Q"/></mask><path d="M22.538 4.02l-3.343 3.626 2.473 1.752-3.76 8.95 1.583-7.59-3.364-2.529 3.44-6.595C18.18.815 16.71.342 15.187.342 6.799.342 0 14.624 0 22.872c0 8.247 6.8 14.35 15.187 14.35 8.388 0 15.188-6.103 15.188-14.35 0-5.625-3.165-14.057-7.837-18.851" fill="#FFF" mask="url(#R)"/></g><path d="M285.01 104.3c-3.962-4.894-5.222-11.02-3.753-16.502-6.51 5.271-7.046 14.455-1.768 20.973 5.28 6.519 14.374 7.904 20.883 2.633-5.667.296-11.398-2.21-15.361-7.104" fill="#1CB0F6" opacity=".107"/></g><g><g transform="scale(-1 1) rotate(-49 -187.464 478.3)"><use fill="#000" filter="url(#S)" xlink:href="#T"/><use fill="#FFF" xlink:href="#T"/></g><g transform="scale(-1 1) rotate(-49 -187.464 478.3)"><use fill="#000" filter="url(#U)" xlink:href="#V"/><use fill="#FFF" xlink:href="#V"/></g><g transform="scale(-1 1) rotate(-49 -187.464 478.3)"><use fill="#000" filter="url(#W)" xlink:href="#X"/><use fill="#A072FF" xlink:href="#X"/></g></g><g><g transform="scale(-1 1) rotate(-32 -199.733 551.585)"><use fill="#000" filter="url(#Y)" xlink:href="#Z"/><use fill="#FFF" xlink:href="#Z"/></g><g transform="scale(-1 1) rotate(-32 -199.733 551.585)"><use fill="#000" filter="url(#aa)" xlink:href="#ab"/><use fill="#FFF" xlink:href="#ab"/></g><g transform="scale(-1 1) rotate(-32 -199.733 551.585)"><use fill="#000" filter="url(#ac)" xlink:href="#ad"/><use fill="#F64848" xlink:href="#ad"/></g><g transform="scale(-1 1) rotate(-32 -129.968 506.907)"><mask id="af" fill="#fff"><use xlink:href="#ae"/></mask><path d="M37.099.075H1.553C.329.075.373 1.006.373 2.23c0 1.228.993 2.155 2.219 2.155H35.98c1.224 0 2.218-.927 2.218-2.155 0-1.223.125-2.154-1.1-2.154" fill="#E29256" mask="url(#af)"/></g><g transform="scale(-1 1) rotate(-32 -140.888 512.106)"><mask id="ah" fill="#fff"><use xlink:href="#ag"/></mask><path d="M40.968 3.582a3.06 3.06 0 0 1-3.06 3.06H3.06a3.06 3.06 0 1 1 0-6.12h34.847a3.06 3.06 0 0 1 3.06 3.06" fill="#562C1F" mask="url(#ah)"/></g><path d="M282.002 5.828a2.164 2.164 0 0 1-3.67-2.293l4.695-7.514a2.163 2.163 0 1 1 3.67 2.293l-4.695 7.514z" fill="#FFE600"/><path d="M279.489 1.653a2.164 2.164 0 0 1-3.67-2.293l4.695-7.514a2.163 2.163 0 1 1 3.67 2.293l-4.695 7.514z" fill="#D33131"/><path d="M292.313.959c3.622-5.797 1.859-13.432-3.937-17.054l-10.937-6.834c-5.796-3.622-13.432-1.86-17.054 3.937" fill="#E29256"/><path d="M258.406-18.982c-.319.51-.18 1.172.31 1.478l32.81 20.502c.49.306 1.145.14 1.464-.37.319-.51.18-1.172-.31-1.478l-32.81-20.502c-.49-.306-1.145-.14-1.464.37" fill="#70B700"/></g><g><g fill="#FFF"><path d="M99.24 270.863h-6.591v2.394c0 .587-.093 1.158-.275 1.71a4.318 4.318 0 0 1-.849 1.491c-.383.44-.873.79-1.472 1.05-.6.262-1.298.391-2.097.391-.833 0-1.548-.13-2.147-.39-.6-.26-1.09-.611-1.473-1.05a4.287 4.287 0 0 1-.849-1.491 5.408 5.408 0 0 1-.274-1.71v-8.942h15.776v-6.06H83.213v-6.4h-6.59v21.06c0 1.596.266 3.07.798 4.421a10.3 10.3 0 0 0 2.272 3.518c.981.995 2.172 1.768 3.57 2.322 1.397.553 2.961.83 4.693.83 1.73 0 3.286-.277 4.668-.83 1.38-.554 2.563-1.327 3.545-2.322a10.328 10.328 0 0 0 2.271-3.518c.532-1.351.8-2.825.8-4.422v-2.052zM102.676 283.42h6.59v-25.163h-6.59zM105.971 248.759c-2.002 0-3.625 1.588-3.625 3.548s1.623 3.548 3.625 3.548 3.625-1.589 3.625-3.548c0-1.96-1.623-3.548-3.625-3.548M113.175 268.86v14.56h6.59v-14.707c0-1.433.466-2.59 1.398-3.469.932-.88 2.13-1.319 3.594-1.319 1.1 0 1.964.18 2.597.537.632.36 1.115.799 1.448 1.32.332.521.549 1.05.649 1.588.1.537.15.985.15 1.343v14.708h6.59v-14.56c0-1.662-.259-3.177-.774-4.545a10.006 10.006 0 0 0-2.246-3.543c-.983-.993-2.18-1.766-3.595-2.32-1.415-.554-3.021-.83-4.819-.83-1.764 0-3.353.285-4.767.854-1.415.57-2.63 1.36-3.645 2.37a10.471 10.471 0 0 0-2.346 3.566c-.55 1.369-.824 2.851-.824 4.447M162.87 258.355h-6.59v14.707c0 1.434-.459 2.614-1.374 3.543-.916.928-2.122 1.392-3.62 1.392-1.066 0-1.914-.188-2.546-.564-.633-.376-1.116-.835-1.448-1.375a4.705 4.705 0 0 1-.649-1.645c-.1-.557-.15-1.015-.15-1.376v-14.78h-6.59v14.708c0 1.66.25 3.168.749 4.52.5 1.351 1.206 2.508 2.122 3.468.915.961 2.022 1.71 3.32 2.248 1.298.538 2.729.806 4.293.806 1.165 0 2.247-.18 3.246-.537.999-.358 1.88-.863 2.646-1.515v2.932a6.16 6.16 0 0 1-.25 1.734 4.458 4.458 0 0 1-.823 1.564c-.383.472-.883.847-1.498 1.124-.617.276-1.373.415-2.272.415-1.132 0-2.089-.228-2.87-.684-.783-.457-1.274-1.157-1.473-2.101h-6.84a10.044 10.044 0 0 0 1.348 3.566 10.78 10.78 0 0 0 2.47 2.786 10.905 10.905 0 0 0 3.371 1.807c1.265.424 2.596.636 3.994.636 1.73 0 3.295-.267 4.693-.802 1.398-.534 2.596-1.296 3.595-2.283.998-.989 1.772-2.172 2.322-3.548.549-1.377.823-2.908.823-4.592v-26.154zM191.797 274.919h-7.04c-.433.88-1.132 1.637-2.097 2.272-.966.635-2.064.953-3.295.953a5.948 5.948 0 0 1-2.546-.558 6.484 6.484 0 0 1-2.097-1.553 7.638 7.638 0 0 1-1.423-2.306 7.38 7.38 0 0 1-.524-2.767c0-1.002.174-1.948.524-2.839.35-.89.824-1.666 1.423-2.33a6.809 6.809 0 0 1 2.097-1.576 5.752 5.752 0 0 1 2.546-.583c1.198 0 2.272.308 3.22.923.948.616 1.655 1.334 2.122 2.155h7.04c-.766-2.866-2.239-5.098-4.419-6.694-2.18-1.596-4.835-2.394-7.963-2.394-1.93 0-3.71.35-5.334 1.05-1.625.701-3.01 1.645-4.159 2.834-1.147 1.19-2.049 2.59-2.704 4.202-.656 1.613-.984 3.331-.984 5.155 0 1.825.328 3.535.984 5.13a13.14 13.14 0 0 0 2.704 4.179c1.148 1.189 2.534 2.125 4.16 2.809 1.624.684 3.402 1.026 5.333 1.026 3.128 0 5.791-.798 7.988-2.394s3.678-3.827 4.444-6.694M214.187 270.888c0 .974-.175 1.891-.526 2.751a7.111 7.111 0 0 1-1.43 2.24 6.875 6.875 0 0 1-2.104 1.51 5.982 5.982 0 0 1-2.555.56 6.204 6.204 0 0 1-2.556-.536 6.528 6.528 0 0 1-2.105-1.485 7.11 7.11 0 0 1-1.429-2.24 7.34 7.34 0 0 1-.526-2.8c0-1.039.175-1.997.526-2.873.351-.876.827-1.64 1.429-2.289a6.38 6.38 0 0 1 2.105-1.51 6.205 6.205 0 0 1 2.556-.535c.901 0 1.753.187 2.555.56a6.69 6.69 0 0 1 2.105 1.534 7.35 7.35 0 0 1 1.429 2.288 7.53 7.53 0 0 1 .526 2.825zm6.59 0c0-1.821-.324-3.537-.973-5.146a12.687 12.687 0 0 0-2.721-4.194c-1.166-1.186-2.555-2.13-4.169-2.829-1.615-.699-3.387-1.048-5.317-1.048-1.964 0-3.753.35-5.368 1.048-1.614.7-3.003 1.643-4.168 2.83-1.166 1.186-2.072 2.583-2.721 4.193-.65 1.61-.974 3.325-.974 5.146 0 1.82.324 3.52.974 5.096a13.472 13.472 0 0 0 2.646 4.146 12.345 12.345 0 0 0 3.92 2.804 11.433 11.433 0 0 0 4.792 1.024c1.564 0 3.02-.269 4.368-.806a9.418 9.418 0 0 0 3.47-2.37v2.639h6.241v-12.534zM238.255 257.768c-2.13-.26-4.036-.162-5.716.293-1.681.457-3.104 1.19-4.27 2.2a9.917 9.917 0 0 0-2.67 3.713c-.616 1.466-.923 3.095-.923 4.886v14.56h6.59v-14.56c0-1.791.64-3.168 1.922-4.129 1.28-.96 2.97-1.262 5.067-.904v-6.059zM259.86 270.912c0 .977-.175 1.898-.526 2.76a7.143 7.143 0 0 1-1.429 2.249 6.869 6.869 0 0 1-2.104 1.514 5.965 5.965 0 0 1-2.556.562 6.185 6.185 0 0 1-2.556-.538 6.543 6.543 0 0 1-2.105-1.49 7.129 7.129 0 0 1-1.428-2.247c-.351-.863-.526-1.8-.526-2.81 0-1.042.175-2.003.526-2.883a7.386 7.386 0 0 1 1.428-2.296 6.386 6.386 0 0 1 2.105-1.515 6.195 6.195 0 0 1 2.556-.537c.902 0 1.754.187 2.556.561a6.708 6.708 0 0 1 2.104 1.54 7.383 7.383 0 0 1 1.43 2.296c.35.88.525 1.825.525 2.834zm6.59-23.844h-6.59v13.534c-1.964-1.954-4.477-2.931-7.539-2.931-1.697 0-3.287.343-4.768 1.028a12.25 12.25 0 0 0-3.894 2.84c-1.115 1.207-1.997 2.61-2.646 4.209a13.395 13.395 0 0 0-.973 5.09c0 1.829.324 3.543.973 5.141a12.796 12.796 0 0 0 2.721 4.185c1.165 1.191 2.554 2.13 4.169 2.815 1.614.686 3.403 1.028 5.367 1.028 1.93 0 3.703-.342 5.317-1.026 1.615-.684 3.004-1.62 4.17-2.81a12.773 12.773 0 0 0 2.72-4.177c.649-1.596.974-3.306.974-5.131v-23.795zM293.135 275.505c0-1.368-.275-2.5-.824-3.395-.55-.897-1.307-1.63-2.272-2.2-.965-.569-2.122-1.026-3.47-1.368a52.315 52.315 0 0 0-4.418-.903c-1.598-.26-2.846-.538-3.744-.83-.9-.294-1.35-.766-1.35-1.418 0-.456.334-.904 1-1.344.665-.44 1.764-.66 3.295-.66 1.231 0 2.204.204 2.92.612.716.407 1.174.903 1.374 1.49h6.84a8.511 8.511 0 0 0-1.249-3.225 8.932 8.932 0 0 0-2.421-2.492c-.982-.684-2.105-1.213-3.37-1.588-1.266-.374-2.63-.562-4.094-.562-1.865 0-3.487.236-4.868.708-1.381.473-2.521 1.084-3.42 1.833-.899.75-1.572 1.612-2.022 2.59-.45.977-.674 1.954-.674 2.931 0 1.401.341 2.55 1.024 3.445.681.896 1.555 1.62 2.62 2.174 1.066.554 2.222.97 3.47 1.246 1.249.277 2.455.497 3.62.66 1.132.163 2.047.334 2.746.513.7.18 1.249.366 1.648.561.4.196.665.424.799.685.132.26.2.57.2.928 0 .75-.442 1.311-1.324 1.686-.882.375-1.99.562-3.32.562-.5 0-1.024-.049-1.573-.147a5.929 5.929 0 0 1-1.572-.513 6.36 6.36 0 0 1-1.373-.904 3.607 3.607 0 0 1-.974-1.368h-6.69c.2 1.368.64 2.59 1.323 3.665a9.933 9.933 0 0 0 2.621 2.76c1.065.766 2.297 1.352 3.695 1.76 1.398.406 2.912.61 4.543.61 1.63 0 3.137-.212 4.519-.635 1.38-.423 2.571-1.01 3.57-1.76a8.264 8.264 0 0 0 2.346-2.686c.566-1.043.849-2.183.849-3.42"/></g><g transform="rotate(11 -572.663 836.629)"><use fill="#000" filter="url(#ai)" xlink:href="#aj"/><use fill="#FFF" xlink:href="#aj"/></g><g transform="translate(138.796 136.79)"><use fill="#000" filter="url(#ak)" xlink:href="#al"/><use fill="#FFF" xlink:href="#al"/></g><g transform="translate(154.437 186.418)"><mask id="an" fill="#fff"><use xlink:href="#am"/></mask><use fill="#BE2424" xlink:href="#am"/><path d="M8.777 16.885a16.184 16.184 0 0 1 12.052-5.348c4.805 0 9.12 2.08 12.082 5.382a20.877 20.877 0 0 1-12.043 3.796c-4.507 0-8.68-1.418-12.091-3.83z" fill="#FF6C6C" mask="url(#an)"/><path d="M2.666-.01S-.324-.54.157 2.552C.638 5.644-3.505.776-3.505.776l.995-5.364 4.047.84L2.667-.01zM39.061-.01s2.99-.529 2.51 2.562C41.088 5.644 45.231.776 45.231.776l-.994-5.364-4.047.84-1.13 3.738z" fill="#FFF" mask="url(#an)"/></g><path d="M158.162 185.73a3.601 3.601 0 0 1 3.59-3.6h27.278c1.983 0 3.59 1.609 3.59 3.6v2.544a3.601 3.601 0 0 1-3.59 3.6h-27.278a3.594 3.594 0 0 1-3.59-3.6v-2.544z" fill="#FFF" opacity=".916"/><path fill="url(#ao)" opacity=".456" d="M3.783 4.351h34.453v2.872H3.783z" transform="translate(154.39 182.075)"/><g fill="#545454"><rect width="7.144" height="10.399" rx="3.572" transform="translate(157.589 170.215)"/><rect x=".006" y=".018" width="7.144" height="10.399" rx="3.572" transform="translate(185.947 170.215)"/></g></g></g></svg>