<?xml version="1.0" encoding="UTF-8"?><svg width="60px" height="44px" viewBox="0 0 60 44" version="1.1" xmlns="http://www.w3.org/2000/svg" xmlns:xlink="http://www.w3.org/1999/xlink"><title>tooltip-blue</title><desc>Created with Sketch.</desc><defs><path d="M32.0710678,30 L48,30 C50.209139,30 52,28.209139 52,26 L52,4 C52,1.790861 50.209139,-4.05812251e-16 48,0 L4,0 L4,0 C1.790861,4.05812251e-16 -2.705415e-16,1.790861 0,4 L0,4 L0,26 C2.705415e-16,28.209139 1.790861,30 4,30 L19.9289322,30 L26,36.0710678 L32.0710678,30 Z" id="path-1"/><filter x="-11.5%" y="-16.6%" width="123.1%" height="133.3%" filterUnits="objectBoundingBox" id="filter-2"><feOffset dx="0" dy="0" in="SourceAlpha" result="shadowOffsetOuter1"/><feGaussianBlur stdDeviation="2" in="shadowOffsetOuter1" result="shadowBlurOuter1"/><feColorMatrix values="0 0 0 0 0 0 0 0 0 0 0 0 0 0 0 0 0 0 0.15 0" type="matrix" in="shadowBlurOuter1"/></filter></defs><g id="Page-1" stroke="none" stroke-width="1" fill="none" fill-rule="evenodd"><g id="MOCK" transform="translate(-220.000000, -78.000000)"><g id="tooltip-blue" transform="translate(224.000000, 82.000000)"><g id="Combined-Shape"><use fill="black" fill-opacity="1" filter="url(#filter-2)" xlink:href="#path-1"/><use fill="#1CB0F6" fill-rule="evenodd" xlink:href="#path-1"/></g><path d="M22.3628472,9.10039276 L32.4823756,14.1944141 C32.9461518,14.4278722 33.1328614,14.9930921 32.8994033,15.4568681 C32.8079396,15.6385651 32.6600107,15.7856949 32.4778209,15.8761729 L22.3582924,20.9016767 C21.8932585,21.1326192 21.329058,20.9428508 21.0981154,20.4778171 C21.0335815,20.3478693 21,20.2047484 21,20.0596586 L21,9.94013348 C21,9.4209121 21.4209122,9 21.9401338,9 C22.0869441,9 22.2317141,9.0343823 22.3628472,9.10039276 Z" id="play-icon" fill="#FFFFFF"/></g></g></g></svg>