<?xml version="1.0" encoding="UTF-8" standalone="no"?><svg width="31px" height="39px" viewBox="0 0 31 39" version="1.1" xmlns="http://www.w3.org/2000/svg" xmlns:xlink="http://www.w3.org/1999/xlink" xmlns:sketch="http://www.bohemiancoding.com/sketch/ns"><title>trash</title><description>Created with Sketch (http://www.bohemiancoding.com/sketch)</description><defs/><g id="Page-1" stroke="none" stroke-width="1" fill="none" fill-rule="evenodd" sketch:type="MSPage"><g id="trash" sketch:type="MSArtboardGroup" transform="translate(-3.000000, -3.000000)" fill="#A8A8A8"><g id="Imported-Layers" sketch:type="MSLayerGroup" transform="translate(3.000000, 4.000000)"><path d="M30.4445833,9.88572603 L29.0428667,7.78167123 C28.7984833,7.41468493 28.2389333,7.11380822 27.7997667,7.11380822 L24.5427,7.11380822 L24.5427,4.25547945 C24.5427,3.8119726 24.2885,3.19460274 23.9779833,2.88123288 L21.60235,0.489315068 C21.2918333,0.175945205 20.6780333,-0.0796438356 20.2388667,-0.0796438356 L10.4061833,-0.0796438356 C9.96701667,-0.0796438356 9.35321667,0.175945205 9.0427,0.489315068 L6.84118333,2.70736986 C6.53066667,3.02073973 6.27646667,3.63863014 6.27646667,4.08057534 L6.27646667,7.11380822 L2.88093333,7.11380822 C2.44176667,7.11380822 1.88221667,7.41468493 1.63731667,7.78167123 L0.244383333,9.86958904 C-0.00103333333,10.2365753 0.1581,10.5374521 0.597266667,10.5379726 L2.94913333,10.5390137 L2.94913333,36.5586027 C2.94913333,37.0005479 3.30821667,37.3628493 3.74738333,37.3628493 L27.1064,37.3628493 C27.5455667,37.3628493 27.9051667,37.0005479 27.9051667,36.5586027 L27.9051667,10.5520274 L30.0906667,10.5530685 C30.5298333,10.553589 30.6889667,10.2527123 30.4445833,9.88572603 L30.4445833,9.88572603 Z M9.60276667,6.93786301 L9.60276667,5.46991781 C9.60276667,5.0279726 9.85696667,4.41008219 10.1674833,4.09671233 L10.4216833,3.84112329 C10.7322,3.52775342 11.3454833,3.27216438 11.7851667,3.27216438 L18.8598833,3.27216438 C19.2995667,3.27216438 19.91285,3.52775342 20.2233667,3.84112329 L20.6501333,4.27057534 C20.96065,4.58394521 21.21485,5.20131507 21.21485,5.64482192 L21.21485,6.93786301 C21.21485,6.99824658 21.2065833,7.05758904 21.1936667,7.11380822 L9.62395,7.11380822 C9.61103333,7.05758904 9.60276667,6.99824658 9.60276667,6.93786301 L9.60276667,6.93786301 Z M24.5773167,11.3479452 L24.5773167,33.206274 C24.5773167,33.6482192 24.2182333,34.0105205 23.7790667,34.0105205 L7.07471667,34.0105205 C6.63555,34.0105205 6.27646667,33.6482192 6.27646667,33.206274 L6.27646667,11.3479452 C6.27646667,10.9054795 6.63555,10.5436986 7.07471667,10.5436986 L11.1310667,10.5436986 L23.8431333,10.5499452 C24.2523333,10.5837808 24.5773167,10.9273425 24.5773167,11.3479452 L24.5773167,11.3479452 Z" id="Fill-1" sketch:type="MSShapeGroup"/><path d="M10.3080167,12.8132877 L9.3403,12.8132877 C8.90061667,12.8132877 8.54153333,13.1761096 8.54153333,13.6175342 L8.54153333,31.0059178 C8.54153333,31.4483836 8.90061667,31.8101644 9.3403,31.8101644 L10.3080167,31.8101644 C10.7471833,31.8101644 11.1067833,31.4483836 11.1067833,31.0059178 L11.1067833,13.6175342 C11.1067833,13.1761096 10.7471833,12.8132877 10.3080167,12.8132877" id="Fill-2" sketch:type="MSShapeGroup"/><path d="M14.8856833,31.8101644 L15.8539167,31.8101644 C16.2930833,31.8101644 16.6521667,31.4483836 16.6521667,31.0059178 L16.6521667,13.6175342 C16.6521667,13.1761096 16.2930833,12.8132877 15.8539167,12.8132877 L14.8856833,12.8132877 C14.4465167,12.8132877 14.0874333,13.1761096 14.0874333,13.6175342 L14.0874333,31.0059178 C14.0874333,31.4483836 14.4465167,31.8101644 14.8856833,31.8101644" id="Fill-3" sketch:type="MSShapeGroup"/><path d="M20.4315833,31.8101644 L21.3998167,31.8101644 C21.8389833,31.8101644 22.1980667,31.4483836 22.1980667,31.0059178 L22.1980667,13.6175342 C22.1980667,13.1761096 21.8389833,12.8132877 21.3998167,12.8132877 L20.4315833,12.8132877 C19.9924167,12.8132877 19.6333333,13.1761096 19.6333333,13.6175342 L19.6333333,31.0059178 C19.6333333,31.4483836 19.9924167,31.8101644 20.4315833,31.8101644" id="Fill-4" sketch:type="MSShapeGroup"/></g></g></g></svg>