<?xml version="1.0" encoding="UTF-8" standalone="no"?><svg width="162px" height="85px" viewBox="0 0 162 85" version="1.1" xmlns="http://www.w3.org/2000/svg" xmlns:xlink="http://www.w3.org/1999/xlink" xmlns:sketch="http://www.bohemiancoding.com/sketch/ns"><title>cloud</title><description>Created with Sketch.</description><defs/><g id="Page-1" stroke="none" stroke-width="1" fill="none" fill-rule="evenodd" sketch:type="MSPage"><g id="cloud" sketch:type="MSArtboardGroup" fill="#FFFFFF"><g id="Group" sketch:type="MSLayerGroup"><path d="M48.9482502,84.9692826 L1.54231107,85 C1.54231107,85 0,79.1479081 0,75.9873728 C0,61.0826576 12.088311,49 27,49 C30.5334804,49 33.9084274,49.6784443 37.0015675,50.9121169 C37.2197796,22.7569335 60.1928146,0 88.5,0 C116.942666,0 140,22.975288 140,51.3167452 C140,53.8176784 139.523956,56.616128 138.756594,59.5024984 C140.117279,59.1740371 141.538293,59 143,59 C152.941126,59 161,67.0499332 161,76.9800302 C161,79.8583985 159.119094,84.9909562 159.119094,84.9909562 L127.354285,84.9998685 C127.354229,84.99996 127.354205,85 127.354205,85 L49.30089,85.6012171 C49.30089,85.6012171 49.1748365,85.3800373 48.9482502,84.9692826 Z" id="Oval-7" sketch:type="MSShapeGroup"/></g></g></g></svg>